<?xml version="1.0" encoding="UTF-8" standalone="no"?>
<!DOCTYPE svg PUBLIC "-//W3C//DTD SVG 1.1//EN"
 "http://www.w3.org/Graphics/SVG/1.1/DTD/svg11.dtd">
<!-- Generated by graphviz version 2.43.0 (0)
 -->
<!-- Title: VolumeControl.Core.Input.TemplateProviderManager.TryGetDictionaryProvider Pages: 1 -->
<svg width="657pt" height="50pt"
 viewBox="0.00 0.00 657.00 50.00" xmlns="http://www.w3.org/2000/svg" xmlns:xlink="http://www.w3.org/1999/xlink">
<g id="graph0" class="graph" transform="scale(1 1) rotate(0) translate(4 46)">
<title>VolumeControl.Core.Input.TemplateProviderManager.TryGetDictionaryProvider</title>
<!-- Node1 -->
<g id="node1" class="node">
<title>Node1</title>
<g id="a_node1"><a xlink:title="Attempts to get the dictionaryProvider &#160;instance with the specified dictionaryProviderType .">
<polygon fill="#bfbfbf" stroke="black" points="470,-0.5 470,-41.5 649,-41.5 649,-0.5 470,-0.5"/>
<text text-anchor="start" x="478" y="-29.5" font-family="Helvetica,sans-Serif" font-size="10.00">VolumeControl.Core.Input.</text>
<text text-anchor="start" x="478" y="-18.5" font-family="Helvetica,sans-Serif" font-size="10.00">TemplateProviderManager.TryGet</text>
<text text-anchor="middle" x="559.5" y="-7.5" font-family="Helvetica,sans-Serif" font-size="10.00">DictionaryProvider</text>
</a>
</g>
</g>
<!-- Node2 -->
<g id="node2" class="node">
<title>Node2</title>
<g id="a_node2"><a xlink:href="class_volume_control_1_1_core_1_1_input_1_1_template_provider_manager.html#acfcbafeff4989d44913efe0f90a0a337" target="_top" xlink:title="Finds a suitable DataTemplate instance with the specified parameters.">
<polygon fill="none" stroke="black" points="243,-0.5 243,-41.5 434,-41.5 434,-0.5 243,-0.5"/>
<text text-anchor="start" x="251" y="-29.5" font-family="Helvetica,sans-Serif" font-size="10.00">VolumeControl.Core.Input.</text>
<text text-anchor="start" x="251" y="-18.5" font-family="Helvetica,sans-Serif" font-size="10.00">TemplateProviderManager.FindData</text>
<text text-anchor="middle" x="338.5" y="-7.5" font-family="Helvetica,sans-Serif" font-size="10.00">TemplateFor</text>
</a>
</g>
</g>
<!-- Node1&#45;&gt;Node2 -->
<g id="edge1" class="edge">
<title>Node1&#45;&gt;Node2</title>
<path fill="none" stroke="midnightblue" d="M459.49,-21C451.04,-21 442.51,-21 434.1,-21"/>
<polygon fill="midnightblue" stroke="midnightblue" points="459.74,-24.5 469.74,-21 459.74,-17.5 459.74,-24.5"/>
</g>
<!-- Node3 -->
<g id="node3" class="node">
<title>Node3</title>
<g id="a_node3"><a xlink:href="class_volume_control_1_1_core_1_1_input_1_1_hotkey_action_addon_loader.html#a4433627a745c3edd66508a6cbc685e48" target="_top" xlink:title="Loads hotkey actions from the specified types .">
<polygon fill="none" stroke="black" points="0,-6 0,-36 207,-36 207,-6 0,-6"/>
<text text-anchor="start" x="8" y="-24" font-family="Helvetica,sans-Serif" font-size="10.00">VolumeControl.Core.Input.</text>
<text text-anchor="middle" x="103.5" y="-13" font-family="Helvetica,sans-Serif" font-size="10.00">HotkeyActionAddonLoader.LoadActions</text>
</a>
</g>
</g>
<!-- Node2&#45;&gt;Node3 -->
<g id="edge2" class="edge">
<title>Node2&#45;&gt;Node3</title>
<path fill="none" stroke="midnightblue" d="M232.5,-21C224.08,-21 215.57,-21 207.16,-21"/>
<polygon fill="midnightblue" stroke="midnightblue" points="232.73,-24.5 242.73,-21 232.73,-17.5 232.73,-24.5"/>
</g>
</g>
</svg>
