<?xml version="1.0" encoding="UTF-8" standalone="no"?>
<!DOCTYPE svg PUBLIC "-//W3C//DTD SVG 1.1//EN"
 "http://www.w3.org/Graphics/SVG/1.1/DTD/svg11.dtd">
<!-- Generated by graphviz version 2.43.0 (0)
 -->
<!-- Title: VolumeControl.WPF.Collections.ObservableImmutableListExtension_Sort.Sort&lt; T &gt; Pages: 1 -->
<svg width="419pt" height="88pt"
 viewBox="0.00 0.00 419.00 88.00" xmlns="http://www.w3.org/2000/svg" xmlns:xlink="http://www.w3.org/1999/xlink">
<g id="graph0" class="graph" transform="scale(1 1) rotate(0) translate(4 84)">
<title>VolumeControl.WPF.Collections.ObservableImmutableListExtension_Sort.Sort&lt; T &gt;</title>
<!-- Node1 -->
<g id="node1" class="node">
<title>Node1</title>
<g id="a_node1"><a xlink:title="Sorts the list using the specified comparer .">
<polygon fill="#bfbfbf" stroke="black" points="0,-19 0,-60 191,-60 191,-19 0,-19"/>
<text text-anchor="start" x="8" y="-48" font-family="Helvetica,sans-Serif" font-size="10.00">VolumeControl.WPF.Collections.</text>
<text text-anchor="start" x="8" y="-37" font-family="Helvetica,sans-Serif" font-size="10.00">ObservableImmutableListExtension</text>
<text text-anchor="middle" x="95.5" y="-26" font-family="Helvetica,sans-Serif" font-size="10.00">_Sort.Sort&lt; T &gt;</text>
</a>
</g>
</g>
<!-- Node2 -->
<g id="node2" class="node">
<title>Node2</title>
<g id="a_node2"><a xlink:href="class_volume_control_1_1_w_p_f_1_1_collections_1_1_observable_immutable_list.html#a8fef95ee49b77a51b2c95f5344be1325" target="_top" xlink:title=" ">
<polygon fill="none" stroke="black" points="227,-49.5 227,-79.5 411,-79.5 411,-49.5 227,-49.5"/>
<text text-anchor="start" x="235" y="-67.5" font-family="Helvetica,sans-Serif" font-size="10.00">VolumeControl.WPF.Collections.</text>
<text text-anchor="middle" x="319" y="-56.5" font-family="Helvetica,sans-Serif" font-size="10.00">ObservableImmutableList.IndexOf</text>
</a>
</g>
</g>
<!-- Node1&#45;&gt;Node2 -->
<g id="edge1" class="edge">
<title>Node1&#45;&gt;Node2</title>
<path fill="none" stroke="midnightblue" d="M191.08,-50.17C199.61,-51.14 208.28,-52.12 216.87,-53.09"/>
<polygon fill="midnightblue" stroke="midnightblue" points="216.58,-56.57 226.9,-54.22 217.36,-49.62 216.58,-56.57"/>
</g>
<!-- Node3 -->
<g id="node3" class="node">
<title>Node3</title>
<g id="a_node3"><a xlink:href="class_volume_control_1_1_w_p_f_1_1_collections_1_1_observable_immutable_list.html#ae78dc15b22cfd309fae3c1c61931cbec" target="_top" xlink:title="Moves the item at the specified oldIndex &#160;to a new location specified by newIndex .">
<polygon fill="none" stroke="black" points="232.5,-0.5 232.5,-30.5 405.5,-30.5 405.5,-0.5 232.5,-0.5"/>
<text text-anchor="start" x="240.5" y="-18.5" font-family="Helvetica,sans-Serif" font-size="10.00">VolumeControl.WPF.Collections.</text>
<text text-anchor="middle" x="319" y="-7.5" font-family="Helvetica,sans-Serif" font-size="10.00">ObservableImmutableList.Move</text>
</a>
</g>
</g>
<!-- Node1&#45;&gt;Node3 -->
<g id="edge2" class="edge">
<title>Node1&#45;&gt;Node3</title>
<path fill="none" stroke="midnightblue" d="M191.08,-29.25C201.4,-28.13 211.91,-27 222.24,-25.88"/>
<polygon fill="midnightblue" stroke="midnightblue" points="222.93,-29.32 232.5,-24.76 222.18,-22.36 222.93,-29.32"/>
</g>
</g>
</svg>
