<?xml version="1.0" encoding="UTF-8" standalone="no"?>
<!DOCTYPE svg PUBLIC "-//W3C//DTD SVG 1.1//EN"
 "http://www.w3.org/Graphics/SVG/1.1/DTD/svg11.dtd">
<!-- Generated by graphviz version 2.43.0 (0)
 -->
<!-- Title: VolumeControl.Log.Endpoints.BaseEndpointWriter Pages: 1 -->
<!--zoomable 579 -->
<svg id="main" version="1.1" xmlns="http://www.w3.org/2000/svg" xmlns:xlink="http://www.w3.org/1999/xlink" xml:space="preserve" onload="init(evt)">
<style type="text/css"><![CDATA[
.edge:hover path { stroke: red; }
.edge:hover polygon { stroke: red; fill: red; }
]]></style>
<script type="text/javascript"><![CDATA[
var edges = document.getElementsByTagName('g');
if (edges && edges.length) {
  for (var i=0;i<edges.length;i++) {
    if (edges[i].id.substr(0,4)=='edge') {
      edges[i].setAttribute('class','edge');
    }
  }
}
]]></script>
        <defs>
                <circle id="rim" cx="0" cy="0" r="7"/>
                <circle id="rim2" cx="0" cy="0" r="3.5"/>
                <g id="zoomPlus">
                        <use xlink:href="#rim" fill="#404040">
                                <set attributeName="fill" to="#808080" begin="zoomplus.mouseover" end="zoomplus.mouseout"/>
                        </use>
                        <path d="M-4,0h8M0,-4v8" fill="none" stroke="white" stroke-width="1.5" pointer-events="none"/>
                </g>
                <g id="zoomMin">
                        <use xlink:href="#rim" fill="#404040">
                                <set attributeName="fill" to="#808080" begin="zoomminus.mouseover" end="zoomminus.mouseout"/>
                        </use>
                        <path d="M-4,0h8" fill="none" stroke="white" stroke-width="1.5" pointer-events="none"/>
                </g>
                <g id="dirArrow">
                        <path fill="none" stroke="white" stroke-width="1.5" d="M0,-3.0v7 M-2.5,-0.5L0,-3.0L2.5,-0.5"/>
                </g>
               <g id="resetDef">
                       <use xlink:href="#rim2" fill="#404040">
                               <set attributeName="fill" to="#808080" begin="reset.mouseover" end="reset.mouseout"/>
                       </use>
               </g>
        </defs>

<script type="text/javascript">
var viewWidth = 352;
var viewHeight = 579;
var sectionId = 'dynsection-0';
</script>
<script xlink:href="svgpan.js"/>
<svg id="graph" class="graph">
<g id="viewport">
<title>VolumeControl.Log.Endpoints.BaseEndpointWriter</title>
<!-- Node1 -->
<g id="node1" class="node">
<title>Node1</title>
<g id="a_node1"><a xlink:title="Abstract base class for endpoint writers.">
<polygon fill="#bfbfbf" stroke="black" points="90,-309.5 90,-443.5 253,-443.5 253,-309.5 90,-309.5"/>
<text text-anchor="start" x="98" y="-431.5" font-family="Helvetica,sans-Serif" font-size="10.00">VolumeControl.Log.Endpoints.</text>
<text text-anchor="middle" x="171.5" y="-420.5" font-family="Helvetica,sans-Serif" font-size="10.00">BaseEndpointWriter</text>
<polyline fill="none" stroke="black" points="90,-413.5 253,-413.5 "/>
<text text-anchor="start" x="98" y="-401.5" font-family="Helvetica,sans-Serif" font-size="10.00">+ IsWritingEnabled</text>
<polyline fill="none" stroke="black" points="90,-394.5 253,-394.5 "/>
<text text-anchor="start" x="98" y="-382.5" font-family="Helvetica,sans-Serif" font-size="10.00">+ GetTextWriter()</text>
<text text-anchor="start" x="98" y="-371.5" font-family="Helvetica,sans-Serif" font-size="10.00">+ Reset()</text>
<text text-anchor="start" x="98" y="-360.5" font-family="Helvetica,sans-Serif" font-size="10.00">+ Write()</text>
<text text-anchor="start" x="98" y="-349.5" font-family="Helvetica,sans-Serif" font-size="10.00">+ WriteLine()</text>
<text text-anchor="start" x="98" y="-338.5" font-family="Helvetica,sans-Serif" font-size="10.00">+ WriteLine()</text>
<text text-anchor="start" x="98" y="-327.5" font-family="Helvetica,sans-Serif" font-size="10.00"># BaseEndpointWriter()</text>
<text text-anchor="start" x="98" y="-316.5" font-family="Helvetica,sans-Serif" font-size="10.00"># NotifyPropertyChanged()</text>
</a>
</g>
</g>
<!-- Node4 -->
<g id="node4" class="node">
<title>Node4</title>
<g id="a_node4"><a xlink:href="class_volume_control_1_1_log_1_1_endpoints_1_1_console_endpoint.html" target="_top" xlink:title="Allows using the Console as a logging endpoint.">
<polygon fill="none" stroke="black" points="0,-155 0,-267 163,-267 163,-155 0,-155"/>
<text text-anchor="start" x="8" y="-255" font-family="Helvetica,sans-Serif" font-size="10.00">VolumeControl.Log.Endpoints.</text>
<text text-anchor="middle" x="81.5" y="-244" font-family="Helvetica,sans-Serif" font-size="10.00">ConsoleEndpoint</text>
<polyline fill="none" stroke="black" points="0,-237 163,-237 "/>
<text text-anchor="middle" x="81.5" y="-225" font-family="Helvetica,sans-Serif" font-size="10.00"> </text>
<polyline fill="none" stroke="black" points="0,-218 163,-218 "/>
<text text-anchor="start" x="8" y="-206" font-family="Helvetica,sans-Serif" font-size="10.00">+ ConsoleEndpoint()</text>
<text text-anchor="start" x="8" y="-195" font-family="Helvetica,sans-Serif" font-size="10.00">+ GetTextWriter()</text>
<text text-anchor="start" x="8" y="-184" font-family="Helvetica,sans-Serif" font-size="10.00">+ Reset()</text>
<text text-anchor="start" x="8" y="-173" font-family="Helvetica,sans-Serif" font-size="10.00">+ GetSTDOUT()</text>
<text text-anchor="start" x="8" y="-162" font-family="Helvetica,sans-Serif" font-size="10.00">+ GetSTDERR()</text>
</a>
</g>
</g>
<!-- Node1&#45;&gt;Node4 -->
<g id="edge3" class="edge">
<title>Node1&#45;&gt;Node4</title>
<path fill="none" stroke="midnightblue" d="M130.21,-300.48C124,-289.21 117.7,-277.76 111.78,-267.01"/>
<polygon fill="none" stroke="midnightblue" points="127.26,-302.4 135.15,-309.47 133.4,-299.02 127.26,-302.4"/>
</g>
<!-- Node5 -->
<g id="node5" class="node">
<title>Node5</title>
<g id="a_node5"><a xlink:href="class_volume_control_1_1_log_1_1_endpoints_1_1_file_endpoint.html" target="_top" xlink:title="Log endpoint that allows writing logs directly to a file on disk.">
<polygon fill="none" stroke="black" points="181,-149.5 181,-272.5 344,-272.5 344,-149.5 181,-149.5"/>
<text text-anchor="start" x="189" y="-260.5" font-family="Helvetica,sans-Serif" font-size="10.00">VolumeControl.Log.Endpoints.</text>
<text text-anchor="middle" x="262.5" y="-249.5" font-family="Helvetica,sans-Serif" font-size="10.00">FileEndpoint</text>
<polyline fill="none" stroke="black" points="181,-242.5 344,-242.5 "/>
<text text-anchor="start" x="189" y="-230.5" font-family="Helvetica,sans-Serif" font-size="10.00">+ FileInfo</text>
<text text-anchor="start" x="189" y="-219.5" font-family="Helvetica,sans-Serif" font-size="10.00">+ Path</text>
<text text-anchor="start" x="189" y="-208.5" font-family="Helvetica,sans-Serif" font-size="10.00">+ PathIsEmpty</text>
<polyline fill="none" stroke="black" points="181,-201.5 344,-201.5 "/>
<text text-anchor="start" x="189" y="-189.5" font-family="Helvetica,sans-Serif" font-size="10.00">+ FileEndpoint()</text>
<text text-anchor="start" x="189" y="-178.5" font-family="Helvetica,sans-Serif" font-size="10.00">+ GetStreamWriter()</text>
<text text-anchor="start" x="189" y="-167.5" font-family="Helvetica,sans-Serif" font-size="10.00">+ GetTextWriter()</text>
<text text-anchor="start" x="189" y="-156.5" font-family="Helvetica,sans-Serif" font-size="10.00">+ Reset()</text>
</a>
</g>
</g>
<!-- Node1&#45;&gt;Node5 -->
<g id="edge4" class="edge">
<title>Node1&#45;&gt;Node5</title>
<path fill="none" stroke="midnightblue" d="M213.2,-300.58C218.39,-291.25 223.65,-281.8 228.7,-272.73"/>
<polygon fill="none" stroke="midnightblue" points="210.06,-299.03 208.25,-309.47 216.17,-302.43 210.06,-299.03"/>
</g>
<!-- Node2 -->
<g id="node2" class="node">
<title>Node2</title>
<g id="a_node2"><a xlink:href="interface_volume_control_1_1_log_1_1_interfaces_1_1_i_endpoint_writer.html" target="_top" xlink:title="Represents an endpoint that text can be written to.">
<polygon fill="none" stroke="black" points="46.5,-480.5 46.5,-570.5 156.5,-570.5 156.5,-480.5 46.5,-480.5"/>
<text text-anchor="middle" x="101.5" y="-558.5" font-family="Helvetica,sans-Serif" font-size="10.00">IEndpointWriter</text>
<polyline fill="none" stroke="black" points="46.5,-551.5 156.5,-551.5 "/>
<text text-anchor="start" x="54.5" y="-539.5" font-family="Helvetica,sans-Serif" font-size="10.00">+ IsWritingEnabled</text>
<polyline fill="none" stroke="black" points="46.5,-532.5 156.5,-532.5 "/>
<text text-anchor="start" x="54.5" y="-520.5" font-family="Helvetica,sans-Serif" font-size="10.00">+ GetTextWriter()</text>
<text text-anchor="start" x="54.5" y="-509.5" font-family="Helvetica,sans-Serif" font-size="10.00">+ Write()</text>
<text text-anchor="start" x="54.5" y="-498.5" font-family="Helvetica,sans-Serif" font-size="10.00">+ WriteLine()</text>
<text text-anchor="start" x="54.5" y="-487.5" font-family="Helvetica,sans-Serif" font-size="10.00">+ Reset()</text>
</a>
</g>
</g>
<!-- Node2&#45;&gt;Node1 -->
<g id="edge1" class="edge">
<title>Node2&#45;&gt;Node1</title>
<path fill="none" stroke="midnightblue" d="M126.87,-471.23C131.14,-462.25 135.62,-452.84 140.03,-443.59"/>
<polygon fill="none" stroke="midnightblue" points="123.64,-469.86 122.5,-480.4 129.96,-472.87 123.64,-469.86"/>
</g>
<!-- Node3 -->
<g id="node3" class="node">
<title>Node3</title>
<g id="a_node3"><a xlink:title=" ">
<polygon fill="none" stroke="#bfbfbf" points="175,-497 175,-554 308,-554 308,-497 175,-497"/>
<text text-anchor="middle" x="241.5" y="-542" font-family="Helvetica,sans-Serif" font-size="10.00">INotifyPropertyChanged</text>
<polyline fill="none" stroke="#bfbfbf" points="175,-535 308,-535 "/>
<text text-anchor="middle" x="241.5" y="-523" font-family="Helvetica,sans-Serif" font-size="10.00"> </text>
<polyline fill="none" stroke="#bfbfbf" points="175,-516 308,-516 "/>
<text text-anchor="middle" x="241.5" y="-504" font-family="Helvetica,sans-Serif" font-size="10.00"> </text>
</a>
</g>
</g>
<!-- Node3&#45;&gt;Node1 -->
<g id="edge2" class="edge">
<title>Node3&#45;&gt;Node1</title>
<path fill="none" stroke="midnightblue" d="M223.92,-487.58C217.58,-474.27 210.22,-458.82 203.06,-443.77"/>
<polygon fill="none" stroke="midnightblue" points="220.87,-489.33 228.33,-496.85 227.19,-486.32 220.87,-489.33"/>
</g>
<!-- Node6 -->
<g id="node6" class="node">
<title>Node6</title>
<g id="a_node6"><a xlink:href="class_volume_control_1_1_log_1_1_endpoints_1_1_persistent_file_endpoint.html" target="_top" xlink:title="Log endpoint that allows writing logs directly to a file on disk, and keeps the file stream open.">
<polygon fill="none" stroke="black" points="181,-0.5 181,-112.5 344,-112.5 344,-0.5 181,-0.5"/>
<text text-anchor="start" x="189" y="-100.5" font-family="Helvetica,sans-Serif" font-size="10.00">VolumeControl.Log.Endpoints.</text>
<text text-anchor="middle" x="262.5" y="-89.5" font-family="Helvetica,sans-Serif" font-size="10.00">PersistentFileEndpoint</text>
<polyline fill="none" stroke="black" points="181,-82.5 344,-82.5 "/>
<text text-anchor="middle" x="262.5" y="-70.5" font-family="Helvetica,sans-Serif" font-size="10.00"> </text>
<polyline fill="none" stroke="black" points="181,-63.5 344,-63.5 "/>
<text text-anchor="start" x="189" y="-51.5" font-family="Helvetica,sans-Serif" font-size="10.00">+ PersistentFileEndpoint()</text>
<text text-anchor="start" x="189" y="-40.5" font-family="Helvetica,sans-Serif" font-size="10.00">+ GetTextWriter()</text>
<text text-anchor="start" x="189" y="-29.5" font-family="Helvetica,sans-Serif" font-size="10.00">+ GetStreamWriter()</text>
<text text-anchor="start" x="189" y="-18.5" font-family="Helvetica,sans-Serif" font-size="10.00">+ Reset()</text>
<text text-anchor="start" x="189" y="-7.5" font-family="Helvetica,sans-Serif" font-size="10.00">+ Dispose()</text>
</a>
</g>
</g>
<!-- Node5&#45;&gt;Node6 -->
<g id="edge5" class="edge">
<title>Node5&#45;&gt;Node6</title>
<path fill="none" stroke="midnightblue" d="M262.5,-139.25C262.5,-130.29 262.5,-121.23 262.5,-112.56"/>
<polygon fill="none" stroke="midnightblue" points="259,-139.29 262.5,-149.29 266,-139.29 259,-139.29"/>
</g>
</g>
</svg>
        <g id="navigator" transform="translate(0 0)" fill="#404254">
                <rect fill="#f2f5e9" fill-opacity="0.5" stroke="#606060" stroke-width=".5" x="0" y="0" width="60" height="60"/>
                <use id="zoomplus" xlink:href="#zoomPlus" x="17" y="9" onmousedown="handleZoom(evt,'in')"/>
                <use id="zoomminus" xlink:href="#zoomMin" x="42" y="9" onmousedown="handleZoom(evt,'out')"/>
                <use id="reset" xlink:href="#resetDef" x="30" y="36" onmousedown="handleReset()"/>
                <g id="arrowUp" xlink:href="#dirArrow" transform="translate(30 24)" onmousedown="handlePan(0,-1)">
                  <use xlink:href="#rim" fill="#404040">
                        <set attributeName="fill" to="#808080" begin="arrowUp.mouseover" end="arrowUp.mouseout"/>
                  </use>
                  <path fill="none" stroke="white" stroke-width="1.5" d="M0,-3.0v7 M-2.5,-0.5L0,-3.0L2.5,-0.5"/>
                </g>
                <g id="arrowRight" xlink:href="#dirArrow" transform="rotate(90) translate(36 -43)" onmousedown="handlePan(1,0)">
                  <use xlink:href="#rim" fill="#404040">
                        <set attributeName="fill" to="#808080" begin="arrowRight.mouseover" end="arrowRight.mouseout"/>
                  </use>
                  <path fill="none" stroke="white" stroke-width="1.5" d="M0,-3.0v7 M-2.5,-0.5L0,-3.0L2.5,-0.5"/>
                </g>
                <g id="arrowDown" xlink:href="#dirArrow" transform="rotate(180) translate(-30 -48)" onmousedown="handlePan(0,1)">
                  <use xlink:href="#rim" fill="#404040">
                        <set attributeName="fill" to="#808080" begin="arrowDown.mouseover" end="arrowDown.mouseout"/>
                  </use>
                  <path fill="none" stroke="white" stroke-width="1.5" d="M0,-3.0v7 M-2.5,-0.5L0,-3.0L2.5,-0.5"/>
                </g>
                <g id="arrowLeft" xlink:href="#dirArrow" transform="rotate(270) translate(-36 17)" onmousedown="handlePan(-1,0)">
                  <use xlink:href="#rim" fill="#404040">
                        <set attributeName="fill" to="#808080" begin="arrowLeft.mouseover" end="arrowLeft.mouseout"/>
                  </use>
                  <path fill="none" stroke="white" stroke-width="1.5" d="M0,-3.0v7 M-2.5,-0.5L0,-3.0L2.5,-0.5"/>
                </g>
        </g>
        <svg viewBox="0 0 15 15" width="100%" height="30px" preserveAspectRatio="xMaxYMin meet">
         <g id="arrow_out" transform="scale(0.3 0.3)">
          <a xlink:href="class_volume_control_1_1_log_1_1_endpoints_1_1_base_endpoint_writer__inherit__graph_org.svg" target="_base">
           <rect id="button" ry="5" rx="5" y="6" x="6" height="38" width="38"
                fill="#f2f5e9" fill-opacity="0.5" stroke="#606060" stroke-width="1.0"/>
           <path id="arrow"
             d="M 11.500037,31.436501 C 11.940474,20.09759 22.043105,11.32322 32.158766,21.979434 L 37.068811,17.246167 C 37.068811,17.246167 37.088388,32 37.088388,32 L 22.160133,31.978069 C 22.160133,31.978069 26.997745,27.140456 26.997745,27.140456 C 18.528582,18.264221 13.291696,25.230495 11.500037,31.436501 z"
             style="fill:#404040;"/>
          </a>
         </g>
        </svg>
</svg>
