<?xml version="1.0" encoding="UTF-8" standalone="no"?>
<!DOCTYPE svg PUBLIC "-//W3C//DTD SVG 1.1//EN"
 "http://www.w3.org/Graphics/SVG/1.1/DTD/svg11.dtd">
<!-- Generated by graphviz version 2.44.1 (20200629.0800)
 -->
<!-- Title: VolumeControl.Log.LogWriter.Append Pages: 1 -->
<svg width="523pt" height="88pt"
 viewBox="0.00 0.00 523.00 88.00" xmlns="http://www.w3.org/2000/svg" xmlns:xlink="http://www.w3.org/1999/xlink">
<g id="graph0" class="graph" transform="scale(1 1) rotate(0) translate(4 84)">
<title>VolumeControl.Log.LogWriter.Append</title>
<!-- Node1 -->
<g id="node1" class="node">
<title>Node1</title>
<g id="a_node1"><a xlink:title="Appends the given lines to the log with a blank timestamp.">
<polygon fill="#bfbfbf" stroke="black" points="0,-27.5 0,-57.5 147,-57.5 147,-27.5 0,-27.5"/>
<text text-anchor="start" x="8" y="-45.5" font-family="Helvetica,sans-Serif" font-size="10.00">VolumeControl.Log.LogWriter.</text>
<text text-anchor="middle" x="73.5" y="-34.5" font-family="Helvetica,sans-Serif" font-size="10.00">Append</text>
</a>
</g>
</g>
<!-- Node2 -->
<g id="node2" class="node">
<title>Node2</title>
<g id="a_node2"><a xlink:href="class_volume_control_1_1_log_1_1_log_writer.html#a41f1ff6d9d62eec9077a3c608ca36b5e" target="_top" xlink:title="Gets a blank timestamp to use as indentation.">
<polygon fill="none" stroke="black" points="367,-49.5 367,-79.5 514,-79.5 514,-49.5 367,-49.5"/>
<text text-anchor="start" x="375" y="-67.5" font-family="Helvetica,sans-Serif" font-size="10.00">VolumeControl.Log.LogWriter.</text>
<text text-anchor="middle" x="440.5" y="-56.5" font-family="Helvetica,sans-Serif" font-size="10.00">MakeBlankTimestamp</text>
</a>
</g>
</g>
<!-- Node1&#45;&gt;Node2 -->
<g id="edge1" class="edge">
<title>Node1&#45;&gt;Node2</title>
<path fill="none" stroke="midnightblue" d="M147.05,-46.87C207.41,-50.51 293.35,-55.69 356.46,-59.49"/>
<polygon fill="midnightblue" stroke="midnightblue" points="356.58,-63.01 366.78,-60.12 357.01,-56.02 356.58,-63.01"/>
</g>
<!-- Node3 -->
<g id="node3" class="node">
<title>Node3</title>
<g id="a_node3"><a xlink:href="class_volume_control_1_1_log_1_1_log_writer.html#a2358be752465f43b8ac7b0d7c2aa55bf" target="_top" xlink:title="Writes a log message with a given timestamp.">
<polygon fill="none" stroke="black" points="183,-5.5 183,-35.5 330,-35.5 330,-5.5 183,-5.5"/>
<text text-anchor="start" x="191" y="-23.5" font-family="Helvetica,sans-Serif" font-size="10.00">VolumeControl.Log.LogWriter.</text>
<text text-anchor="middle" x="256.5" y="-12.5" font-family="Helvetica,sans-Serif" font-size="10.00">WriteWithTimestamp</text>
</a>
</g>
</g>
<!-- Node1&#45;&gt;Node3 -->
<g id="edge2" class="edge">
<title>Node1&#45;&gt;Node3</title>
<path fill="none" stroke="midnightblue" d="M147.08,-33.68C155.56,-32.65 164.26,-31.59 172.87,-30.54"/>
<polygon fill="midnightblue" stroke="midnightblue" points="173.4,-34 182.91,-29.32 172.56,-27.06 173.4,-34"/>
</g>
<!-- Node3&#45;&gt;Node2 -->
<g id="edge4" class="edge">
<title>Node3&#45;&gt;Node2</title>
<path fill="none" stroke="midnightblue" d="M319.63,-35.52C335.06,-39.25 351.73,-43.28 367.59,-47.12"/>
<polygon fill="midnightblue" stroke="midnightblue" points="366.8,-50.53 377.35,-49.47 368.45,-43.72 366.8,-50.53"/>
</g>
<!-- Node4 -->
<g id="node4" class="node">
<title>Node4</title>
<g id="a_node4"><a xlink:href="interface_volume_control_1_1_log_1_1_endpoints_1_1_i_endpoint.html#aff4d1758c814322b5474fa95c9863ce8" target="_top" xlink:title="Retrieve a StreamWriter object for writing to the endpoint. &#160;Using this is only recommended for repea...">
<polygon fill="none" stroke="black" points="366,-0.5 366,-30.5 515,-30.5 515,-0.5 366,-0.5"/>
<text text-anchor="start" x="374" y="-18.5" font-family="Helvetica,sans-Serif" font-size="10.00">VolumeControl.Log.Endpoints.</text>
<text text-anchor="middle" x="440.5" y="-7.5" font-family="Helvetica,sans-Serif" font-size="10.00">IEndpoint.GetWriter</text>
</a>
</g>
</g>
<!-- Node3&#45;&gt;Node4 -->
<g id="edge3" class="edge">
<title>Node3&#45;&gt;Node4</title>
<path fill="none" stroke="midnightblue" d="M330.22,-18.5C338.52,-18.27 347.04,-18.04 355.48,-17.81"/>
<polygon fill="midnightblue" stroke="midnightblue" points="355.81,-21.3 365.71,-17.53 355.62,-14.3 355.81,-21.3"/>
</g>
</g>
</svg>
