<?xml version="1.0" encoding="UTF-8" standalone="no"?>
<!DOCTYPE svg PUBLIC "-//W3C//DTD SVG 1.1//EN"
 "http://www.w3.org/Graphics/SVG/1.1/DTD/svg11.dtd">
<!-- Generated by graphviz version 2.43.0 (0)
 -->
<!-- Title: VolumeControl.WPF.IconGetter.GetIcons Pages: 1 -->
<svg width="373pt" height="88pt"
 viewBox="0.00 0.00 373.00 88.00" xmlns="http://www.w3.org/2000/svg" xmlns:xlink="http://www.w3.org/1999/xlink">
<g id="graph0" class="graph" transform="scale(1 1) rotate(0) translate(4 84)">
<title>VolumeControl.WPF.IconGetter.GetIcons</title>
<!-- Node1 -->
<g id="node1" class="node">
<title>Node1</title>
<g id="a_node1"><a xlink:title="Gets the large and small variants of the specified icon from the specified DLL.">
<polygon fill="#bfbfbf" stroke="black" points="0,-24.5 0,-54.5 168,-54.5 168,-24.5 0,-24.5"/>
<text text-anchor="start" x="8" y="-42.5" font-family="Helvetica,sans-Serif" font-size="10.00">VolumeControl.WPF.IconGetter.</text>
<text text-anchor="middle" x="84" y="-31.5" font-family="Helvetica,sans-Serif" font-size="10.00">GetIcons</text>
</a>
</g>
</g>
<!-- Node2 -->
<g id="node2" class="node">
<title>Node2</title>
<g id="a_node2"><a xlink:href="class_volume_control_1_1_log_1_1_log_writer.html#a09e652d1c8049b4b137d45dd2a6466a4" target="_top" xlink:title="Write a formatted EventType.DEBUG message to the log endpoint.">
<polygon fill="none" stroke="black" points="204,-49.5 204,-79.5 365,-79.5 365,-49.5 204,-49.5"/>
<text text-anchor="start" x="212" y="-67.5" font-family="Helvetica,sans-Serif" font-size="10.00">VolumeControl.Log.LogWriter.</text>
<text text-anchor="middle" x="284.5" y="-56.5" font-family="Helvetica,sans-Serif" font-size="10.00">Debug</text>
</a>
</g>
</g>
<!-- Node1&#45;&gt;Node2 -->
<g id="edge1" class="edge">
<title>Node1&#45;&gt;Node2</title>
<path fill="none" stroke="midnightblue" d="M168.03,-49.96C176.58,-51.03 185.3,-52.13 193.92,-53.22"/>
<polygon fill="midnightblue" stroke="midnightblue" points="193.62,-56.71 203.98,-54.48 194.49,-49.76 193.62,-56.71"/>
</g>
<!-- Node3 -->
<g id="node3" class="node">
<title>Node3</title>
<g id="a_node3"><a xlink:href="class_volume_control_1_1_log_1_1_log_writer.html#a5caf611b6e4d2cf97b6521b9b2e3f9ef" target="_top" xlink:title="Write a formatted EventType.WARN message to the log endpoint.">
<polygon fill="none" stroke="black" points="204,-0.5 204,-30.5 365,-30.5 365,-0.5 204,-0.5"/>
<text text-anchor="start" x="212" y="-18.5" font-family="Helvetica,sans-Serif" font-size="10.00">VolumeControl.Log.LogWriter.</text>
<text text-anchor="middle" x="284.5" y="-7.5" font-family="Helvetica,sans-Serif" font-size="10.00">Warning</text>
</a>
</g>
</g>
<!-- Node1&#45;&gt;Node3 -->
<g id="edge2" class="edge">
<title>Node1&#45;&gt;Node3</title>
<path fill="none" stroke="midnightblue" d="M168.03,-29.46C176.58,-28.43 185.3,-27.37 193.92,-26.33"/>
<polygon fill="midnightblue" stroke="midnightblue" points="194.47,-29.79 203.98,-25.11 193.63,-22.84 194.47,-29.79"/>
</g>
</g>
</svg>
