<?xml version="1.0" encoding="UTF-8" standalone="no"?>
<!DOCTYPE svg PUBLIC "-//W3C//DTD SVG 1.1//EN"
 "http://www.w3.org/Graphics/SVG/1.1/DTD/svg11.dtd">
<!-- Generated by graphviz version 2.44.1 (20200629.0800)
 -->
<!-- Title: VolumeControl.Hotkeys.HotkeyManager.HwndHook Pages: 1 -->
<svg width="539pt" height="88pt"
 viewBox="0.00 0.00 539.00 88.00" xmlns="http://www.w3.org/2000/svg" xmlns:xlink="http://www.w3.org/1999/xlink">
<g id="graph0" class="graph" transform="scale(1 1) rotate(0) translate(4 84)">
<title>VolumeControl.Hotkeys.HotkeyManager.HwndHook</title>
<!-- Node1 -->
<g id="node1" class="node">
<title>Node1</title>
<g id="a_node1"><a xlink:title="Handles window messages, and triggers WindowsHotkey.Pressed events.">
<polygon fill="#bfbfbf" stroke="black" points="378,-24.5 378,-54.5 531,-54.5 531,-24.5 378,-24.5"/>
<text text-anchor="start" x="386" y="-42.5" font-family="Helvetica,sans-Serif" font-size="10.00">VolumeControl.Hotkeys.Hotkey</text>
<text text-anchor="middle" x="454.5" y="-31.5" font-family="Helvetica,sans-Serif" font-size="10.00">Manager.HwndHook</text>
</a>
</g>
</g>
<!-- Node2 -->
<g id="node2" class="node">
<title>Node2</title>
<g id="a_node2"><a xlink:href="class_volume_control_1_1_hotkeys_1_1_hotkey_manager.html#a57c8d96dc5d4178d5b6d15a5df8fa374" target="_top" xlink:title="Adds a window message hook to receive hotkey press messages and route them to the associated event tr...">
<polygon fill="none" stroke="black" points="189,-49.5 189,-79.5 342,-79.5 342,-49.5 189,-49.5"/>
<text text-anchor="start" x="197" y="-67.5" font-family="Helvetica,sans-Serif" font-size="10.00">VolumeControl.Hotkeys.Hotkey</text>
<text text-anchor="middle" x="265.5" y="-56.5" font-family="Helvetica,sans-Serif" font-size="10.00">Manager.AddHook</text>
</a>
</g>
</g>
<!-- Node1&#45;&gt;Node2 -->
<g id="edge1" class="edge">
<title>Node1&#45;&gt;Node2</title>
<path fill="none" stroke="midnightblue" d="M367.98,-50.93C359.42,-52.08 350.76,-53.24 342.3,-54.37"/>
<polygon fill="midnightblue" stroke="midnightblue" points="368.53,-54.39 377.98,-49.6 367.6,-47.45 368.53,-54.39"/>
</g>
<!-- Node4 -->
<g id="node4" class="node">
<title>Node4</title>
<g id="a_node4"><a xlink:href="class_volume_control_1_1_hotkeys_1_1_hotkey_manager.html#a43f5e3e31ab161cd9e8701fe39d1114e" target="_top" xlink:title="Removes the message hook from the application&#39;s handle.">
<polygon fill="none" stroke="black" points="189,-0.5 189,-30.5 342,-30.5 342,-0.5 189,-0.5"/>
<text text-anchor="start" x="197" y="-18.5" font-family="Helvetica,sans-Serif" font-size="10.00">VolumeControl.Hotkeys.Hotkey</text>
<text text-anchor="middle" x="265.5" y="-7.5" font-family="Helvetica,sans-Serif" font-size="10.00">Manager.RemoveHook</text>
</a>
</g>
</g>
<!-- Node1&#45;&gt;Node4 -->
<g id="edge3" class="edge">
<title>Node1&#45;&gt;Node4</title>
<path fill="none" stroke="midnightblue" d="M367.98,-28.52C359.42,-27.42 350.76,-26.31 342.3,-25.23"/>
<polygon fill="midnightblue" stroke="midnightblue" points="367.61,-32.01 377.98,-29.81 368.51,-25.06 367.61,-32.01"/>
</g>
<!-- Node3 -->
<g id="node3" class="node">
<title>Node3</title>
<g id="a_node3"><a xlink:href="class_volume_control_1_1_hotkeys_1_1_hotkey_manager.html#ac4e52046790fdd5d2e75a1c50510da22" target="_top" xlink:title=" ">
<polygon fill="none" stroke="black" points="0,-49.5 0,-79.5 153,-79.5 153,-49.5 0,-49.5"/>
<text text-anchor="start" x="8" y="-67.5" font-family="Helvetica,sans-Serif" font-size="10.00">VolumeControl.Hotkeys.Hotkey</text>
<text text-anchor="middle" x="76.5" y="-56.5" font-family="Helvetica,sans-Serif" font-size="10.00">Manager.HotkeyManager</text>
</a>
</g>
</g>
<!-- Node2&#45;&gt;Node3 -->
<g id="edge2" class="edge">
<title>Node2&#45;&gt;Node3</title>
<path fill="none" stroke="midnightblue" d="M178.7,-64.5C170.23,-64.5 161.67,-64.5 153.3,-64.5"/>
<polygon fill="midnightblue" stroke="midnightblue" points="178.98,-68 188.98,-64.5 178.98,-61 178.98,-68"/>
</g>
</g>
</svg>
