<?xml version="1.0" encoding="UTF-8" standalone="no"?>
<!DOCTYPE svg PUBLIC "-//W3C//DTD SVG 1.1//EN"
 "http://www.w3.org/Graphics/SVG/1.1/DTD/svg11.dtd">
<!-- Generated by graphviz version 2.43.0 (0)
 -->
<!-- Title: VolumeControl.CoreAudio.AudioDeviceManager.GetDefaultDevice Pages: 1 -->
<svg width="624pt" height="50pt"
 viewBox="0.00 0.00 624.00 50.00" xmlns="http://www.w3.org/2000/svg" xmlns:xlink="http://www.w3.org/1999/xlink">
<g id="graph0" class="graph" transform="scale(1 1) rotate(0) translate(4 46)">
<title>VolumeControl.CoreAudio.AudioDeviceManager.GetDefaultDevice</title>
<!-- Node1 -->
<g id="node1" class="node">
<title>Node1</title>
<g id="a_node1"><a xlink:title="Gets the default device for the specified deviceRole .">
<polygon fill="#bfbfbf" stroke="black" points="440,-0.5 440,-41.5 616,-41.5 616,-0.5 440,-0.5"/>
<text text-anchor="start" x="448" y="-29.5" font-family="Helvetica,sans-Serif" font-size="10.00">VolumeControl.CoreAudio.</text>
<text text-anchor="start" x="448" y="-18.5" font-family="Helvetica,sans-Serif" font-size="10.00">AudioDeviceManager.GetDefault</text>
<text text-anchor="middle" x="528" y="-7.5" font-family="Helvetica,sans-Serif" font-size="10.00">Device</text>
</a>
</g>
</g>
<!-- Node2 -->
<g id="node2" class="node">
<title>Node2</title>
<g id="a_node2"><a xlink:href="class_volume_control_1_1_core_audio_1_1_audio_device_selector.html#aa034046c08eabe307454d98622e9a3b8" target="_top" xlink:title="Changes the Selected item to the default Multimedia audio device.">
<polygon fill="none" stroke="black" points="218,-0.5 218,-41.5 404,-41.5 404,-0.5 218,-0.5"/>
<text text-anchor="start" x="226" y="-29.5" font-family="Helvetica,sans-Serif" font-size="10.00">VolumeControl.CoreAudio.</text>
<text text-anchor="start" x="226" y="-18.5" font-family="Helvetica,sans-Serif" font-size="10.00">AudioDeviceSelector.SelectDefault</text>
<text text-anchor="middle" x="311" y="-7.5" font-family="Helvetica,sans-Serif" font-size="10.00">Device</text>
</a>
</g>
</g>
<!-- Node1&#45;&gt;Node2 -->
<g id="edge1" class="edge">
<title>Node1&#45;&gt;Node2</title>
<path fill="none" stroke="midnightblue" d="M429.6,-21C421.13,-21 412.59,-21 404.17,-21"/>
<polygon fill="midnightblue" stroke="midnightblue" points="429.86,-24.5 439.86,-21 429.86,-17.5 429.86,-24.5"/>
</g>
<!-- Node3 -->
<g id="node3" class="node">
<title>Node3</title>
<g id="a_node3"><a xlink:href="class_volume_control_1_1_core_audio_1_1_audio_device_selector.html#a139e061b6f96ab63535b4ad5f18cc7ce" target="_top" xlink:title="Creates a new AudioDeviceSelector instance bound to the given audioDeviceManager .">
<polygon fill="none" stroke="black" points="0,-0.5 0,-41.5 182,-41.5 182,-0.5 0,-0.5"/>
<text text-anchor="start" x="8" y="-29.5" font-family="Helvetica,sans-Serif" font-size="10.00">VolumeControl.CoreAudio.</text>
<text text-anchor="start" x="8" y="-18.5" font-family="Helvetica,sans-Serif" font-size="10.00">AudioDeviceSelector.AudioDevice</text>
<text text-anchor="middle" x="91" y="-7.5" font-family="Helvetica,sans-Serif" font-size="10.00">Selector</text>
</a>
</g>
</g>
<!-- Node2&#45;&gt;Node3 -->
<g id="edge2" class="edge">
<title>Node2&#45;&gt;Node3</title>
<path fill="none" stroke="midnightblue" d="M207.81,-21C199.21,-21 190.56,-21 182.07,-21"/>
<polygon fill="midnightblue" stroke="midnightblue" points="207.86,-24.5 217.86,-21 207.86,-17.5 207.86,-24.5"/>
</g>
</g>
</svg>
