<?xml version="1.0" encoding="UTF-8" standalone="no"?>
<!DOCTYPE svg PUBLIC "-//W3C//DTD SVG 1.1//EN"
 "http://www.w3.org/Graphics/SVG/1.1/DTD/svg11.dtd">
<!-- Generated by graphviz version 2.43.0 (0)
 -->
<!-- Title: VolumeControl.Log.LogWriter.Conditional Pages: 1 -->
<svg width="762pt" height="136pt"
 viewBox="0.00 0.00 762.00 136.00" xmlns="http://www.w3.org/2000/svg" xmlns:xlink="http://www.w3.org/1999/xlink">
<g id="graph0" class="graph" transform="scale(1 1) rotate(0) translate(4 132)">
<title>VolumeControl.Log.LogWriter.Conditional</title>
<!-- Node1 -->
<g id="node1" class="node">
<title>Node1</title>
<g id="a_node1"><a xlink:title="Conditional log message, allows you to write different messages depending on the current log filter l...">
<polygon fill="#bfbfbf" stroke="black" points="0,-72.5 0,-102.5 161,-102.5 161,-72.5 0,-72.5"/>
<text text-anchor="start" x="8" y="-90.5" font-family="Helvetica,sans-Serif" font-size="10.00">VolumeControl.Log.LogWriter.</text>
<text text-anchor="middle" x="80.5" y="-79.5" font-family="Helvetica,sans-Serif" font-size="10.00">Conditional</text>
</a>
</g>
</g>
<!-- Node2 -->
<g id="node2" class="node">
<title>Node2</title>
<g id="a_node2"><a xlink:href="class_volume_control_1_1_log_1_1_log_writer.html#a927e2b5b79ae2c3a0b243246bb2e5a3d" target="_top" xlink:title="Determines whether the given EventType should be written to the Endpoint or not.">
<polygon fill="none" stroke="black" points="197,-97.5 197,-127.5 358,-127.5 358,-97.5 197,-97.5"/>
<text text-anchor="start" x="205" y="-115.5" font-family="Helvetica,sans-Serif" font-size="10.00">VolumeControl.Log.LogWriter.</text>
<text text-anchor="middle" x="277.5" y="-104.5" font-family="Helvetica,sans-Serif" font-size="10.00">FilterEventType</text>
</a>
</g>
</g>
<!-- Node1&#45;&gt;Node2 -->
<g id="edge1" class="edge">
<title>Node1&#45;&gt;Node2</title>
<path fill="none" stroke="midnightblue" d="M161.1,-97.7C169.57,-98.79 178.24,-99.9 186.82,-101"/>
<polygon fill="midnightblue" stroke="midnightblue" points="186.48,-104.49 196.84,-102.29 187.37,-97.54 186.48,-104.49"/>
</g>
<!-- Node3 -->
<g id="node3" class="node">
<title>Node3</title>
<g id="a_node3"><a xlink:href="class_volume_control_1_1_log_1_1_log_writer.html#af9f117f9eb6d41820bc271ac0f0d4f76" target="_top" xlink:title="Writes a log message with a timestamp and log level header.">
<polygon fill="none" stroke="black" points="197,-48.5 197,-78.5 358,-78.5 358,-48.5 197,-48.5"/>
<text text-anchor="start" x="205" y="-66.5" font-family="Helvetica,sans-Serif" font-size="10.00">VolumeControl.Log.LogWriter.</text>
<text text-anchor="middle" x="277.5" y="-55.5" font-family="Helvetica,sans-Serif" font-size="10.00">WriteEvent</text>
</a>
</g>
</g>
<!-- Node1&#45;&gt;Node3 -->
<g id="edge2" class="edge">
<title>Node1&#45;&gt;Node3</title>
<path fill="none" stroke="midnightblue" d="M161.1,-77.7C169.57,-76.66 178.24,-75.59 186.82,-74.54"/>
<polygon fill="midnightblue" stroke="midnightblue" points="187.35,-78 196.84,-73.3 186.49,-71.05 187.35,-78"/>
</g>
<!-- Node4 -->
<g id="node4" class="node">
<title>Node4</title>
<g id="a_node4"><a xlink:href="class_volume_control_1_1_log_1_1_log_writer.html#ac1a570a8d00bacba3a71dd8e442cfd31" target="_top" xlink:title="Gets a timestamp in the correct format for this log writer instance.">
<polygon fill="none" stroke="black" points="394,-73.5 394,-103.5 555,-103.5 555,-73.5 394,-73.5"/>
<text text-anchor="start" x="402" y="-91.5" font-family="Helvetica,sans-Serif" font-size="10.00">VolumeControl.Log.LogWriter.</text>
<text text-anchor="middle" x="474.5" y="-80.5" font-family="Helvetica,sans-Serif" font-size="10.00">MakeTimestamp</text>
</a>
</g>
</g>
<!-- Node3&#45;&gt;Node4 -->
<g id="edge3" class="edge">
<title>Node3&#45;&gt;Node4</title>
<path fill="none" stroke="midnightblue" d="M358.1,-73.7C366.57,-74.79 375.24,-75.9 383.82,-77"/>
<polygon fill="midnightblue" stroke="midnightblue" points="383.48,-80.49 393.84,-78.29 384.37,-73.54 383.48,-80.49"/>
</g>
<!-- Node5 -->
<g id="node5" class="node">
<title>Node5</title>
<g id="a_node5"><a xlink:href="class_volume_control_1_1_log_1_1_log_writer.html#a2358be752465f43b8ac7b0d7c2aa55bf" target="_top" xlink:title="Writes a log message with a given timestamp.">
<polygon fill="none" stroke="black" points="394,-24.5 394,-54.5 555,-54.5 555,-24.5 394,-24.5"/>
<text text-anchor="start" x="402" y="-42.5" font-family="Helvetica,sans-Serif" font-size="10.00">VolumeControl.Log.LogWriter.</text>
<text text-anchor="middle" x="474.5" y="-31.5" font-family="Helvetica,sans-Serif" font-size="10.00">WriteWithTimestamp</text>
</a>
</g>
</g>
<!-- Node3&#45;&gt;Node5 -->
<g id="edge4" class="edge">
<title>Node3&#45;&gt;Node5</title>
<path fill="none" stroke="midnightblue" d="M358.1,-53.7C366.57,-52.66 375.24,-51.59 383.82,-50.54"/>
<polygon fill="midnightblue" stroke="midnightblue" points="384.35,-54 393.84,-49.3 383.49,-47.05 384.35,-54"/>
</g>
<!-- Node6 -->
<g id="node6" class="node">
<title>Node6</title>
<g id="a_node6"><a xlink:href="interface_volume_control_1_1_log_1_1_endpoints_1_1_i_endpoint.html#aff4d1758c814322b5474fa95c9863ce8" target="_top" xlink:title="Retrieve a StreamWriter object for writing to the endpoint. &#160;Using this is only recommended for repea...">
<polygon fill="none" stroke="black" points="591,-49.5 591,-79.5 754,-79.5 754,-49.5 591,-49.5"/>
<text text-anchor="start" x="599" y="-67.5" font-family="Helvetica,sans-Serif" font-size="10.00">VolumeControl.Log.Endpoints.</text>
<text text-anchor="middle" x="672.5" y="-56.5" font-family="Helvetica,sans-Serif" font-size="10.00">IEndpoint.GetWriter</text>
</a>
</g>
</g>
<!-- Node5&#45;&gt;Node6 -->
<g id="edge5" class="edge">
<title>Node5&#45;&gt;Node6</title>
<path fill="none" stroke="midnightblue" d="M555.22,-49.67C563.68,-50.75 572.32,-51.85 580.89,-52.94"/>
<polygon fill="midnightblue" stroke="midnightblue" points="580.53,-56.43 590.9,-54.22 581.42,-49.48 580.53,-56.43"/>
</g>
<!-- Node7 -->
<g id="node7" class="node">
<title>Node7</title>
<g id="a_node7"><a xlink:href="class_volume_control_1_1_log_1_1_log_writer.html#a41f1ff6d9d62eec9077a3c608ca36b5e" target="_top" xlink:title="Gets a blank timestamp to use as indentation.">
<polygon fill="none" stroke="black" points="592,-0.5 592,-30.5 753,-30.5 753,-0.5 592,-0.5"/>
<text text-anchor="start" x="600" y="-18.5" font-family="Helvetica,sans-Serif" font-size="10.00">VolumeControl.Log.LogWriter.</text>
<text text-anchor="middle" x="672.5" y="-7.5" font-family="Helvetica,sans-Serif" font-size="10.00">MakeBlankTimestamp</text>
</a>
</g>
</g>
<!-- Node5&#45;&gt;Node7 -->
<g id="edge6" class="edge">
<title>Node5&#45;&gt;Node7</title>
<path fill="none" stroke="midnightblue" d="M555.22,-29.74C564,-28.66 572.98,-27.56 581.87,-26.48"/>
<polygon fill="midnightblue" stroke="midnightblue" points="582.35,-29.94 591.85,-25.25 581.5,-22.99 582.35,-29.94"/>
</g>
</g>
</svg>
