<?xml version="1.0" encoding="UTF-8" standalone="no"?>
<!DOCTYPE svg PUBLIC "-//W3C//DTD SVG 1.1//EN"
 "http://www.w3.org/Graphics/SVG/1.1/DTD/svg11.dtd">
<!-- Generated by graphviz version 2.43.0 (0)
 -->
<!-- Title: VolumeControl.Log.MessageWrapperBase Pages: 1 -->
<svg width="168pt" height="331pt"
 viewBox="0.00 0.00 168.00 331.00" xmlns="http://www.w3.org/2000/svg" xmlns:xlink="http://www.w3.org/1999/xlink">
<g id="graph0" class="graph" transform="scale(1 1) rotate(0) translate(4 327)">
<title>VolumeControl.Log.MessageWrapperBase</title>
<!-- Node1 -->
<g id="node1" class="node">
<title>Node1</title>
<g id="a_node1"><a xlink:title="Base abstract class that implements IEnumerable&lt;T&gt; in order to introduce special handling for certain...">
<polygon fill="#bfbfbf" stroke="black" points="2.5,-127.5 2.5,-228.5 157.5,-228.5 157.5,-127.5 2.5,-127.5"/>
<text text-anchor="start" x="10.5" y="-216.5" font-family="Helvetica,sans-Serif" font-size="10.00">VolumeControl.Log.Message</text>
<text text-anchor="middle" x="80" y="-205.5" font-family="Helvetica,sans-Serif" font-size="10.00">WrapperBase</text>
<polyline fill="none" stroke="black" points="2.5,-198.5 157.5,-198.5 "/>
<text text-anchor="start" x="10.5" y="-186.5" font-family="Helvetica,sans-Serif" font-size="10.00">+ Message</text>
<polyline fill="none" stroke="black" points="2.5,-179.5 157.5,-179.5 "/>
<text text-anchor="start" x="10.5" y="-167.5" font-family="Helvetica,sans-Serif" font-size="10.00">+ GetEnumerator()</text>
<text text-anchor="start" x="10.5" y="-156.5" font-family="Helvetica,sans-Serif" font-size="10.00"># MessageWrapperBase()</text>
<text text-anchor="start" x="10.5" y="-145.5" font-family="Helvetica,sans-Serif" font-size="10.00"># GetMessage()</text>
<text text-anchor="start" x="10.5" y="-134.5" font-family="Helvetica,sans-Serif" font-size="10.00"># ToEnumerable()</text>
</a>
</g>
</g>
<!-- Node3 -->
<g id="node3" class="node">
<title>Node3</title>
<g id="a_node3"><a xlink:href="class_volume_control_1_1_log_1_1_exception_message.html" target="_top" xlink:title="Simple wrapper class for pretty&#45;printing Exception messages with LogWriter.">
<polygon fill="none" stroke="black" points="0,-0.5 0,-90.5 160,-90.5 160,-0.5 0,-0.5"/>
<text text-anchor="start" x="8" y="-78.5" font-family="Helvetica,sans-Serif" font-size="10.00">VolumeControl.Log.Exception</text>
<text text-anchor="middle" x="80" y="-67.5" font-family="Helvetica,sans-Serif" font-size="10.00">Message</text>
<polyline fill="none" stroke="black" points="0,-60.5 160,-60.5 "/>
<text text-anchor="start" x="8" y="-48.5" font-family="Helvetica,sans-Serif" font-size="10.00">+ Exception</text>
<text text-anchor="start" x="8" y="-37.5" font-family="Helvetica,sans-Serif" font-size="10.00">+ Message</text>
<polyline fill="none" stroke="black" points="0,-30.5 160,-30.5 "/>
<text text-anchor="start" x="8" y="-18.5" font-family="Helvetica,sans-Serif" font-size="10.00">+ ExceptionMessage()</text>
<text text-anchor="start" x="8" y="-7.5" font-family="Helvetica,sans-Serif" font-size="10.00"># GetMessage()</text>
</a>
</g>
</g>
<!-- Node1&#45;&gt;Node3 -->
<g id="edge2" class="edge">
<title>Node1&#45;&gt;Node3</title>
<path fill="none" stroke="midnightblue" d="M80,-117.23C80,-108.24 80,-99.1 80,-90.52"/>
<polygon fill="none" stroke="midnightblue" points="76.5,-117.29 80,-127.29 83.5,-117.29 76.5,-117.29"/>
</g>
<!-- Node2 -->
<g id="node2" class="node">
<title>Node2</title>
<g id="a_node2"><a xlink:title=" ">
<polygon fill="none" stroke="#bfbfbf" points="41,-265.5 41,-322.5 119,-322.5 119,-265.5 41,-265.5"/>
<text text-anchor="middle" x="80" y="-310.5" font-family="Helvetica,sans-Serif" font-size="10.00">IEnumerable</text>
<polyline fill="none" stroke="#bfbfbf" points="41,-303.5 119,-303.5 "/>
<text text-anchor="middle" x="80" y="-291.5" font-family="Helvetica,sans-Serif" font-size="10.00"> </text>
<polyline fill="none" stroke="#bfbfbf" points="41,-284.5 119,-284.5 "/>
<text text-anchor="middle" x="80" y="-272.5" font-family="Helvetica,sans-Serif" font-size="10.00"> </text>
</a>
</g>
</g>
<!-- Node2&#45;&gt;Node1 -->
<g id="edge1" class="edge">
<title>Node2&#45;&gt;Node1</title>
<path fill="none" stroke="midnightblue" d="M80,-255.35C80,-246.8 80,-237.58 80,-228.61"/>
<polygon fill="none" stroke="midnightblue" points="76.5,-255.4 80,-265.4 83.5,-255.4 76.5,-255.4"/>
</g>
</g>
</svg>
