<?xml version="1.0" encoding="UTF-8" standalone="no"?>
<!DOCTYPE svg PUBLIC "-//W3C//DTD SVG 1.1//EN"
 "http://www.w3.org/Graphics/SVG/1.1/DTD/svg11.dtd">
<!-- Generated by graphviz version 2.43.0 (0)
 -->
<!-- Title: VolumeControl.Core.Config Pages: 1 -->
<!--zoomable 592 -->
<svg id="main" version="1.1" xmlns="http://www.w3.org/2000/svg" xmlns:xlink="http://www.w3.org/1999/xlink" xml:space="preserve" onload="init(evt)">
<style type="text/css"><![CDATA[
.edge:hover path { stroke: red; }
.edge:hover polygon { stroke: red; fill: red; }
]]></style>
<script type="text/javascript"><![CDATA[
var edges = document.getElementsByTagName('g');
if (edges && edges.length) {
  for (var i=0;i<edges.length;i++) {
    if (edges[i].id.substr(0,4)=='edge') {
      edges[i].setAttribute('class','edge');
    }
  }
}
]]></script>
        <defs>
                <circle id="rim" cx="0" cy="0" r="7"/>
                <circle id="rim2" cx="0" cy="0" r="3.5"/>
                <g id="zoomPlus">
                        <use xlink:href="#rim" fill="#404040">
                                <set attributeName="fill" to="#808080" begin="zoomplus.mouseover" end="zoomplus.mouseout"/>
                        </use>
                        <path d="M-4,0h8M0,-4v8" fill="none" stroke="white" stroke-width="1.5" pointer-events="none"/>
                </g>
                <g id="zoomMin">
                        <use xlink:href="#rim" fill="#404040">
                                <set attributeName="fill" to="#808080" begin="zoomminus.mouseover" end="zoomminus.mouseout"/>
                        </use>
                        <path d="M-4,0h8" fill="none" stroke="white" stroke-width="1.5" pointer-events="none"/>
                </g>
                <g id="dirArrow">
                        <path fill="none" stroke="white" stroke-width="1.5" d="M0,-3.0v7 M-2.5,-0.5L0,-3.0L2.5,-0.5"/>
                </g>
               <g id="resetDef">
                       <use xlink:href="#rim2" fill="#404040">
                               <set attributeName="fill" to="#808080" begin="reset.mouseover" end="reset.mouseout"/>
                       </use>
               </g>
        </defs>

<script type="text/javascript">
var viewWidth = 356;
var viewHeight = 592;
var sectionId = 'dynsection-1';
</script>
<script xlink:href="svgpan.js"/>
<svg id="graph" class="graph">
<g id="viewport">
<title>VolumeControl.Core.Config</title>
<!-- Node1 -->
<g id="node1" class="node">
<title>Node1</title>
<g id="a_node1"><a xlink:title="Contains the application configuration and logic to read from and write to JSON files.">
<polygon fill="#bfbfbf" stroke="black" points="80,-0.5 80,-189.5 257,-189.5 257,-0.5 80,-0.5"/>
<text text-anchor="middle" x="168.5" y="-177.5" font-family="Helvetica,sans-Serif" font-size="10.00">VolumeControl.Core.Config</text>
<polyline fill="none" stroke="black" points="80,-170.5 257,-170.5 "/>
<text text-anchor="start" x="88" y="-158.5" font-family="Helvetica,sans-Serif" font-size="10.00">+ KeyBlacklist</text>
<text text-anchor="start" x="88" y="-147.5" font-family="Helvetica,sans-Serif" font-size="10.00">+ LanguageName</text>
<text text-anchor="start" x="88" y="-136.5" font-family="Helvetica,sans-Serif" font-size="10.00">+ CreateDefaultTranslation</text>
<text text-anchor="start" x="88" y="-125.5" font-family="Helvetica,sans-Serif" font-size="10.00">Files</text>
<text text-anchor="start" x="88" y="-114.5" font-family="Helvetica,sans-Serif" font-size="10.00">+ CustomLocalizationDirectories</text>
<text text-anchor="start" x="88" y="-103.5" font-family="Helvetica,sans-Serif" font-size="10.00">+ RunAtStartup</text>
<text text-anchor="start" x="88" y="-92.5" font-family="Helvetica,sans-Serif" font-size="10.00">+ StartMinimized</text>
<text text-anchor="start" x="88" y="-81.5" font-family="Helvetica,sans-Serif" font-size="10.00">+ ShowInTaskbar</text>
<text text-anchor="start" x="88" y="-70.5" font-family="Helvetica,sans-Serif" font-size="10.00">+ AlwaysOnTop</text>
<text text-anchor="start" x="88" y="-59.5" font-family="Helvetica,sans-Serif" font-size="10.00">+ AdvancedHotkeys</text>
<text text-anchor="start" x="88" y="-48.5" font-family="Helvetica,sans-Serif" font-size="10.00">+ ShowIcons</text>
<text text-anchor="start" x="88" y="-37.5" font-family="Helvetica,sans-Serif" font-size="10.00">+ CustomAddonDirectories</text>
<text text-anchor="start" x="88" y="-26.5" font-family="Helvetica,sans-Serif" font-size="10.00">and 13 more...</text>
<polyline fill="none" stroke="black" points="80,-19.5 257,-19.5 "/>
<text text-anchor="middle" x="168.5" y="-7.5" font-family="Helvetica,sans-Serif" font-size="10.00"> </text>
</a>
</g>
</g>
<!-- Node2 -->
<g id="node2" class="node">
<title>Node2</title>
<g id="a_node2"><a xlink:href="class_app_config_1_1_configuration_file.html" target="_top" xlink:title="Extends the Configuration class with a built&#45;in file Location, and adds methods that use this filepat...">
<polygon fill="none" stroke="black" points="0,-254 0,-333 155,-333 155,-254 0,-254"/>
<text text-anchor="middle" x="77.5" y="-321" font-family="Helvetica,sans-Serif" font-size="10.00">AppConfig::ConfigurationFile</text>
<polyline fill="none" stroke="black" points="0,-314 155,-314 "/>
<text text-anchor="start" x="8" y="-302" font-family="Helvetica,sans-Serif" font-size="10.00">+ Location</text>
<polyline fill="none" stroke="black" points="0,-295 155,-295 "/>
<text text-anchor="start" x="8" y="-283" font-family="Helvetica,sans-Serif" font-size="10.00">+ ConfigurationFile()</text>
<text text-anchor="start" x="8" y="-272" font-family="Helvetica,sans-Serif" font-size="10.00">+ Load()</text>
<text text-anchor="start" x="8" y="-261" font-family="Helvetica,sans-Serif" font-size="10.00">+ Save()</text>
</a>
</g>
</g>
<!-- Node2&#45;&gt;Node1 -->
<g id="edge1" class="edge">
<title>Node2&#45;&gt;Node1</title>
<path fill="none" stroke="midnightblue" d="M99.84,-244.25C107.51,-227.71 116.36,-208.58 125.12,-189.68"/>
<polygon fill="none" stroke="midnightblue" points="96.51,-243.13 95.48,-253.68 102.86,-246.07 96.51,-243.13"/>
</g>
<!-- Node3 -->
<g id="node3" class="node">
<title>Node3</title>
<g id="a_node3"><a xlink:href="class_app_config_1_1_configuration.html" target="_top" xlink:title="The most basic abstract class in the AppConfig project.">
<polygon fill="none" stroke="black" points="21.5,-387.5 21.5,-488.5 133.5,-488.5 133.5,-387.5 21.5,-387.5"/>
<text text-anchor="middle" x="77.5" y="-476.5" font-family="Helvetica,sans-Serif" font-size="10.00">Configuration</text>
<polyline fill="none" stroke="black" points="21.5,-469.5 133.5,-469.5 "/>
<text text-anchor="start" x="29.5" y="-457.5" font-family="Helvetica,sans-Serif" font-size="10.00">+ Default</text>
<text text-anchor="start" x="29.5" y="-446.5" font-family="Helvetica,sans-Serif" font-size="10.00">+ this[string name]</text>
<polyline fill="none" stroke="black" points="21.5,-439.5 133.5,-439.5 "/>
<text text-anchor="start" x="29.5" y="-427.5" font-family="Helvetica,sans-Serif" font-size="10.00">+ Configuration()</text>
<text text-anchor="start" x="29.5" y="-416.5" font-family="Helvetica,sans-Serif" font-size="10.00">+ SetTo()</text>
<text text-anchor="start" x="29.5" y="-405.5" font-family="Helvetica,sans-Serif" font-size="10.00">+ Load()</text>
<text text-anchor="start" x="29.5" y="-394.5" font-family="Helvetica,sans-Serif" font-size="10.00">+ Save()</text>
</a>
</g>
</g>
<!-- Node3&#45;&gt;Node2 -->
<g id="edge2" class="edge">
<title>Node3&#45;&gt;Node2</title>
<path fill="none" stroke="midnightblue" d="M77.5,-377.06C77.5,-362.26 77.5,-346.8 77.5,-333.31"/>
<polygon fill="none" stroke="midnightblue" points="74,-377.16 77.5,-387.16 81,-377.16 74,-377.16"/>
</g>
<!-- Node4 -->
<g id="node4" class="node">
<title>Node4</title>
<g id="a_node4"><a xlink:title=" ">
<polygon fill="none" stroke="#bfbfbf" points="11,-526.5 11,-583.5 144,-583.5 144,-526.5 11,-526.5"/>
<text text-anchor="middle" x="77.5" y="-571.5" font-family="Helvetica,sans-Serif" font-size="10.00">INotifyPropertyChanged</text>
<polyline fill="none" stroke="#bfbfbf" points="11,-564.5 144,-564.5 "/>
<text text-anchor="middle" x="77.5" y="-552.5" font-family="Helvetica,sans-Serif" font-size="10.00"> </text>
<polyline fill="none" stroke="#bfbfbf" points="11,-545.5 144,-545.5 "/>
<text text-anchor="middle" x="77.5" y="-533.5" font-family="Helvetica,sans-Serif" font-size="10.00"> </text>
</a>
</g>
</g>
<!-- Node4&#45;&gt;Node3 -->
<g id="edge3" class="edge">
<title>Node4&#45;&gt;Node3</title>
<path fill="none" stroke="midnightblue" d="M77.5,-516.19C77.5,-507.43 77.5,-497.99 77.5,-488.81"/>
<polygon fill="none" stroke="midnightblue" points="74,-516.45 77.5,-526.45 81,-516.45 74,-516.45"/>
</g>
<!-- Node5 -->
<g id="node5" class="node">
<title>Node5</title>
<g id="a_node5"><a xlink:href="struct_volume_control_1_1_core_1_1_keyboard_1_1_bindable_hotkey_json_wrapper.html" target="_top" xlink:title="Acts as a temporary wrapper for the BindableHotkey class so that the JSON parser can read and write i...">
<polygon fill="none" stroke="black" points="173.5,-237.5 173.5,-349.5 347.5,-349.5 347.5,-237.5 173.5,-237.5"/>
<text text-anchor="start" x="181.5" y="-337.5" font-family="Helvetica,sans-Serif" font-size="10.00">VolumeControl.Core.Keyboard.</text>
<text text-anchor="middle" x="260.5" y="-326.5" font-family="Helvetica,sans-Serif" font-size="10.00">BindableHotkeyJsonWrapper</text>
<polyline fill="none" stroke="black" points="173.5,-319.5 347.5,-319.5 "/>
<text text-anchor="start" x="181.5" y="-307.5" font-family="Helvetica,sans-Serif" font-size="10.00">+ Name</text>
<text text-anchor="start" x="181.5" y="-296.5" font-family="Helvetica,sans-Serif" font-size="10.00">+ Registered</text>
<text text-anchor="start" x="181.5" y="-285.5" font-family="Helvetica,sans-Serif" font-size="10.00">+ Key</text>
<text text-anchor="start" x="181.5" y="-274.5" font-family="Helvetica,sans-Serif" font-size="10.00">+ Modifier</text>
<text text-anchor="start" x="181.5" y="-263.5" font-family="Helvetica,sans-Serif" font-size="10.00">+ ActionIdentifier</text>
<polyline fill="none" stroke="black" points="173.5,-256.5 347.5,-256.5 "/>
<text text-anchor="start" x="181.5" y="-244.5" font-family="Helvetica,sans-Serif" font-size="10.00">+ BindableHotkeyJsonWrapper()</text>
</a>
</g>
</g>
<!-- Node5&#45;&gt;Node1 -->
<g id="edge4" class="edge">
<title>Node5&#45;&gt;Node1</title>
<path fill="none" stroke="#404040" d="M234.63,-237.24C229.24,-225.74 223.4,-213.26 217.49,-200.64"/>
<polygon fill="none" stroke="#404040" points="217.38,-200.4 211.21,-196.66 212.29,-189.53 218.46,-193.27 217.38,-200.4"/>
<text text-anchor="middle" x="272" y="-211" font-family="Helvetica,sans-Serif" font-size="10.00"> +Hotkeys_Default</text>
</g>
</g>
</svg>
        <g id="navigator" transform="translate(0 0)" fill="#404254">
                <rect fill="#f2f5e9" fill-opacity="0.5" stroke="#606060" stroke-width=".5" x="0" y="0" width="60" height="60"/>
                <use id="zoomplus" xlink:href="#zoomPlus" x="17" y="9" onmousedown="handleZoom(evt,'in')"/>
                <use id="zoomminus" xlink:href="#zoomMin" x="42" y="9" onmousedown="handleZoom(evt,'out')"/>
                <use id="reset" xlink:href="#resetDef" x="30" y="36" onmousedown="handleReset()"/>
                <g id="arrowUp" xlink:href="#dirArrow" transform="translate(30 24)" onmousedown="handlePan(0,-1)">
                  <use xlink:href="#rim" fill="#404040">
                        <set attributeName="fill" to="#808080" begin="arrowUp.mouseover" end="arrowUp.mouseout"/>
                  </use>
                  <path fill="none" stroke="white" stroke-width="1.5" d="M0,-3.0v7 M-2.5,-0.5L0,-3.0L2.5,-0.5"/>
                </g>
                <g id="arrowRight" xlink:href="#dirArrow" transform="rotate(90) translate(36 -43)" onmousedown="handlePan(1,0)">
                  <use xlink:href="#rim" fill="#404040">
                        <set attributeName="fill" to="#808080" begin="arrowRight.mouseover" end="arrowRight.mouseout"/>
                  </use>
                  <path fill="none" stroke="white" stroke-width="1.5" d="M0,-3.0v7 M-2.5,-0.5L0,-3.0L2.5,-0.5"/>
                </g>
                <g id="arrowDown" xlink:href="#dirArrow" transform="rotate(180) translate(-30 -48)" onmousedown="handlePan(0,1)">
                  <use xlink:href="#rim" fill="#404040">
                        <set attributeName="fill" to="#808080" begin="arrowDown.mouseover" end="arrowDown.mouseout"/>
                  </use>
                  <path fill="none" stroke="white" stroke-width="1.5" d="M0,-3.0v7 M-2.5,-0.5L0,-3.0L2.5,-0.5"/>
                </g>
                <g id="arrowLeft" xlink:href="#dirArrow" transform="rotate(270) translate(-36 17)" onmousedown="handlePan(-1,0)">
                  <use xlink:href="#rim" fill="#404040">
                        <set attributeName="fill" to="#808080" begin="arrowLeft.mouseover" end="arrowLeft.mouseout"/>
                  </use>
                  <path fill="none" stroke="white" stroke-width="1.5" d="M0,-3.0v7 M-2.5,-0.5L0,-3.0L2.5,-0.5"/>
                </g>
        </g>
        <svg viewBox="0 0 15 15" width="100%" height="30px" preserveAspectRatio="xMaxYMin meet">
         <g id="arrow_out" transform="scale(0.3 0.3)">
          <a xlink:href="class_volume_control_1_1_core_1_1_config__coll__graph_org.svg" target="_base">
           <rect id="button" ry="5" rx="5" y="6" x="6" height="38" width="38"
                fill="#f2f5e9" fill-opacity="0.5" stroke="#606060" stroke-width="1.0"/>
           <path id="arrow"
             d="M 11.500037,31.436501 C 11.940474,20.09759 22.043105,11.32322 32.158766,21.979434 L 37.068811,17.246167 C 37.068811,17.246167 37.088388,32 37.088388,32 L 22.160133,31.978069 C 22.160133,31.978069 26.997745,27.140456 26.997745,27.140456 C 18.528582,18.264221 13.291696,25.230495 11.500037,31.436501 z"
             style="fill:#404040;"/>
          </a>
         </g>
        </svg>
</svg>
