<?xml version="1.0" encoding="UTF-8" standalone="no"?>
<!DOCTYPE svg PUBLIC "-//W3C//DTD SVG 1.1//EN"
 "http://www.w3.org/Graphics/SVG/1.1/DTD/svg11.dtd">
<!-- Generated by graphviz version 2.43.0 (0)
 -->
<!-- Title: VolumeControl.Audio.AudioAPI Pages: 1 -->
<svg width="388pt" height="435pt"
 viewBox="0.00 0.00 387.50 435.00" xmlns="http://www.w3.org/2000/svg" xmlns:xlink="http://www.w3.org/1999/xlink">
<g id="graph0" class="graph" transform="scale(1 1) rotate(0) translate(4 431)">
<title>VolumeControl.Audio.AudioAPI</title>
<!-- Node1 -->
<g id="node1" class="node">
<title>Node1</title>
<g id="a_node1"><a xlink:title="Contains methods related to audio devices, sessions, and the underlying selection mechanics responsib...">
<polygon fill="#bfbfbf" stroke="black" points="136.5,-0.5 136.5,-332.5 302.5,-332.5 302.5,-0.5 136.5,-0.5"/>
<text text-anchor="middle" x="219.5" y="-320.5" font-family="Helvetica,sans-Serif" font-size="10.00">VolumeControl.Audio.AudioAPI</text>
<polyline fill="none" stroke="black" points="136.5,-313.5 302.5,-313.5 "/>
<text text-anchor="start" x="144.5" y="-301.5" font-family="Helvetica,sans-Serif" font-size="10.00">+ DefaultDevice</text>
<text text-anchor="start" x="144.5" y="-290.5" font-family="Helvetica,sans-Serif" font-size="10.00">+ ReloadIntervalMin</text>
<text text-anchor="start" x="144.5" y="-279.5" font-family="Helvetica,sans-Serif" font-size="10.00">+ ReloadIntervalMax</text>
<text text-anchor="start" x="144.5" y="-268.5" font-family="Helvetica,sans-Serif" font-size="10.00">+ ReloadOnInterval</text>
<text text-anchor="start" x="144.5" y="-257.5" font-family="Helvetica,sans-Serif" font-size="10.00">+ ReloadInterval</text>
<text text-anchor="start" x="144.5" y="-246.5" font-family="Helvetica,sans-Serif" font-size="10.00">+ ReloadOnHotkey</text>
<text text-anchor="start" x="144.5" y="-235.5" font-family="Helvetica,sans-Serif" font-size="10.00">+ Devices</text>
<text text-anchor="start" x="144.5" y="-224.5" font-family="Helvetica,sans-Serif" font-size="10.00">+ Sessions</text>
<text text-anchor="start" x="144.5" y="-213.5" font-family="Helvetica,sans-Serif" font-size="10.00">+ SelectedDevice</text>
<text text-anchor="start" x="144.5" y="-202.5" font-family="Helvetica,sans-Serif" font-size="10.00">+ SelectedSession</text>
<text text-anchor="start" x="144.5" y="-191.5" font-family="Helvetica,sans-Serif" font-size="10.00">+ LockSelectedDevice</text>
<text text-anchor="start" x="144.5" y="-180.5" font-family="Helvetica,sans-Serif" font-size="10.00">+ LockSelectedSession</text>
<text text-anchor="start" x="144.5" y="-169.5" font-family="Helvetica,sans-Serif" font-size="10.00">+ Target</text>
<text text-anchor="start" x="144.5" y="-158.5" font-family="Helvetica,sans-Serif" font-size="10.00">+ CheckAllDevices</text>
<text text-anchor="start" x="144.5" y="-147.5" font-family="Helvetica,sans-Serif" font-size="10.00">+ VolumeStepSize</text>
<text text-anchor="start" x="144.5" y="-136.5" font-family="Helvetica,sans-Serif" font-size="10.00">+ DeviceNotificationClient</text>
<polyline fill="none" stroke="black" points="136.5,-129.5 302.5,-129.5 "/>
<text text-anchor="start" x="144.5" y="-117.5" font-family="Helvetica,sans-Serif" font-size="10.00">+ AudioAPI()</text>
<text text-anchor="start" x="144.5" y="-106.5" font-family="Helvetica,sans-Serif" font-size="10.00">+ ReloadDeviceList()</text>
<text text-anchor="start" x="144.5" y="-95.5" font-family="Helvetica,sans-Serif" font-size="10.00">+ GetDefaultDevice()</text>
<text text-anchor="start" x="144.5" y="-84.5" font-family="Helvetica,sans-Serif" font-size="10.00">+ FindDevice()</text>
<text text-anchor="start" x="144.5" y="-73.5" font-family="Helvetica,sans-Serif" font-size="10.00">+ FindDeviceWithID()</text>
<text text-anchor="start" x="144.5" y="-62.5" font-family="Helvetica,sans-Serif" font-size="10.00">+ ReloadSessionList()</text>
<text text-anchor="start" x="144.5" y="-51.5" font-family="Helvetica,sans-Serif" font-size="10.00">+ FindSession()</text>
<text text-anchor="start" x="144.5" y="-40.5" font-family="Helvetica,sans-Serif" font-size="10.00">+ FindSessionWithID()</text>
<text text-anchor="start" x="144.5" y="-29.5" font-family="Helvetica,sans-Serif" font-size="10.00">+ FindSessionWithName()</text>
<text text-anchor="start" x="144.5" y="-18.5" font-family="Helvetica,sans-Serif" font-size="10.00">+ FindSessionWithIdentifier()</text>
<text text-anchor="start" x="144.5" y="-7.5" font-family="Helvetica,sans-Serif" font-size="10.00">and 27 more...</text>
</a>
</g>
</g>
<!-- Node2 -->
<g id="node2" class="node">
<title>Node2</title>
<g id="a_node2"><a xlink:title=" ">
<polygon fill="none" stroke="#bfbfbf" points="0,-369.5 0,-426.5 133,-426.5 133,-369.5 0,-369.5"/>
<text text-anchor="middle" x="66.5" y="-414.5" font-family="Helvetica,sans-Serif" font-size="10.00">INotifyPropertyChanged</text>
<polyline fill="none" stroke="#bfbfbf" points="0,-407.5 133,-407.5 "/>
<text text-anchor="middle" x="66.5" y="-395.5" font-family="Helvetica,sans-Serif" font-size="10.00"> </text>
<polyline fill="none" stroke="#bfbfbf" points="0,-388.5 133,-388.5 "/>
<text text-anchor="middle" x="66.5" y="-376.5" font-family="Helvetica,sans-Serif" font-size="10.00"> </text>
</a>
</g>
</g>
<!-- Node2&#45;&gt;Node1 -->
<g id="edge1" class="edge">
<title>Node2&#45;&gt;Node1</title>
<path fill="none" stroke="midnightblue" d="M90.51,-360.98C103.21,-341.94 119.62,-317.32 136.46,-292.05"/>
<polygon fill="none" stroke="midnightblue" points="87.59,-359.05 84.96,-369.32 93.41,-362.94 87.59,-359.05"/>
</g>
<!-- Node3 -->
<g id="node3" class="node">
<title>Node3</title>
<g id="a_node3"><a xlink:title=" ">
<polygon fill="none" stroke="#bfbfbf" points="151.5,-369.5 151.5,-426.5 287.5,-426.5 287.5,-369.5 151.5,-369.5"/>
<text text-anchor="middle" x="219.5" y="-414.5" font-family="Helvetica,sans-Serif" font-size="10.00">INotifyPropertyChanging</text>
<polyline fill="none" stroke="#bfbfbf" points="151.5,-407.5 287.5,-407.5 "/>
<text text-anchor="middle" x="219.5" y="-395.5" font-family="Helvetica,sans-Serif" font-size="10.00"> </text>
<polyline fill="none" stroke="#bfbfbf" points="151.5,-388.5 287.5,-388.5 "/>
<text text-anchor="middle" x="219.5" y="-376.5" font-family="Helvetica,sans-Serif" font-size="10.00"> </text>
</a>
</g>
</g>
<!-- Node3&#45;&gt;Node1 -->
<g id="edge2" class="edge">
<title>Node3&#45;&gt;Node1</title>
<path fill="none" stroke="midnightblue" d="M219.5,-359.08C219.5,-351.13 219.5,-342.28 219.5,-332.85"/>
<polygon fill="none" stroke="midnightblue" points="216,-359.32 219.5,-369.32 223,-359.32 216,-359.32"/>
</g>
<!-- Node4 -->
<g id="node4" class="node">
<title>Node4</title>
<g id="a_node4"><a xlink:title=" ">
<polygon fill="none" stroke="#bfbfbf" points="305.5,-369.5 305.5,-426.5 379.5,-426.5 379.5,-369.5 305.5,-369.5"/>
<text text-anchor="middle" x="342.5" y="-414.5" font-family="Helvetica,sans-Serif" font-size="10.00">IDisposable</text>
<polyline fill="none" stroke="#bfbfbf" points="305.5,-407.5 379.5,-407.5 "/>
<text text-anchor="middle" x="342.5" y="-395.5" font-family="Helvetica,sans-Serif" font-size="10.00"> </text>
<polyline fill="none" stroke="#bfbfbf" points="305.5,-388.5 379.5,-388.5 "/>
<text text-anchor="middle" x="342.5" y="-376.5" font-family="Helvetica,sans-Serif" font-size="10.00"> </text>
</a>
</g>
</g>
<!-- Node4&#45;&gt;Node1 -->
<g id="edge3" class="edge">
<title>Node4&#45;&gt;Node1</title>
<path fill="none" stroke="midnightblue" d="M322.92,-360.47C316.98,-349.39 310.05,-336.45 302.63,-322.61"/>
<polygon fill="none" stroke="midnightblue" points="319.85,-362.16 327.66,-369.32 326.02,-358.85 319.85,-362.16"/>
</g>
</g>
</svg>
