<?xml version="1.0" encoding="UTF-8" standalone="no"?>
<!DOCTYPE svg PUBLIC "-//W3C//DTD SVG 1.1//EN"
 "http://www.w3.org/Graphics/SVG/1.1/DTD/svg11.dtd">
<!-- Generated by graphviz version 2.43.0 (0)
 -->
<!-- Title: Audio.AudioSession Pages: 1 -->
<svg width="623pt" height="336pt"
 viewBox="0.00 0.00 622.50 336.00" xmlns="http://www.w3.org/2000/svg" xmlns:xlink="http://www.w3.org/1999/xlink">
<g id="graph0" class="graph" transform="scale(1 1) rotate(0) translate(4 332)">
<title>Audio.AudioSession</title>
<!-- Node1 -->
<g id="node1" class="node">
<title>Node1</title>
<g id="a_node1"><a xlink:title="A single audio session running on an audio device.">
<polygon fill="#bfbfbf" stroke="black" points="247,-0.5 247,-211.5 388,-211.5 388,-0.5 247,-0.5"/>
<text text-anchor="middle" x="317.5" y="-199.5" font-family="Helvetica,sans-Serif" font-size="10.00">Audio.AudioSession</text>
<polyline fill="none" stroke="black" points="247,-192.5 388,-192.5 "/>
<text text-anchor="start" x="255" y="-180.5" font-family="Helvetica,sans-Serif" font-size="10.00">+ pid</text>
<text text-anchor="start" x="255" y="-169.5" font-family="Helvetica,sans-Serif" font-size="10.00">+ Log</text>
<text text-anchor="start" x="255" y="-158.5" font-family="Helvetica,sans-Serif" font-size="10.00">+ AudioDevice</text>
<text text-anchor="start" x="255" y="-147.5" font-family="Helvetica,sans-Serif" font-size="10.00">+ AudioSessionControl</text>
<text text-anchor="start" x="255" y="-136.5" font-family="Helvetica,sans-Serif" font-size="10.00">+ SimpleAudioVolume</text>
<text text-anchor="start" x="255" y="-125.5" font-family="Helvetica,sans-Serif" font-size="10.00">+ AudioMeterInformation</text>
<text text-anchor="start" x="255" y="-114.5" font-family="Helvetica,sans-Serif" font-size="10.00">+ PID</text>
<text text-anchor="start" x="255" y="-103.5" font-family="Helvetica,sans-Serif" font-size="10.00">+ ProcessName</text>
<text text-anchor="start" x="255" y="-92.5" font-family="Helvetica,sans-Serif" font-size="10.00">+ Name</text>
<text text-anchor="start" x="255" y="-81.5" font-family="Helvetica,sans-Serif" font-size="10.00">+ Process</text>
<text text-anchor="start" x="255" y="-70.5" font-family="Helvetica,sans-Serif" font-size="10.00">+ ProcessIdentifier</text>
<text text-anchor="start" x="255" y="-59.5" font-family="Helvetica,sans-Serif" font-size="10.00">and 6 more...</text>
<polyline fill="none" stroke="black" points="247,-52.5 388,-52.5 "/>
<text text-anchor="start" x="255" y="-40.5" font-family="Helvetica,sans-Serif" font-size="10.00">+ GetProcess()</text>
<text text-anchor="start" x="255" y="-29.5" font-family="Helvetica,sans-Serif" font-size="10.00">+ GetTargetInfo()</text>
<text text-anchor="start" x="255" y="-18.5" font-family="Helvetica,sans-Serif" font-size="10.00">+ Dispose()</text>
<text text-anchor="start" x="255" y="-7.5" font-family="Helvetica,sans-Serif" font-size="10.00">~ AudioSession()</text>
</a>
</g>
</g>
<!-- Node2 -->
<g id="node2" class="node">
<title>Node2</title>
<g id="a_node2"><a xlink:href="interface_audio_1_1_interfaces_1_1_i_audio_control.html" target="_top" xlink:title="Represents an audio instance with a controllable volume level and mute state.">
<polygon fill="none" stroke="black" points="0,-248.5 0,-327.5 97,-327.5 97,-248.5 0,-248.5"/>
<text text-anchor="middle" x="48.5" y="-315.5" font-family="Helvetica,sans-Serif" font-size="10.00">IAudioControl</text>
<polyline fill="none" stroke="black" points="0,-308.5 97,-308.5 "/>
<text text-anchor="start" x="8" y="-296.5" font-family="Helvetica,sans-Serif" font-size="10.00">+ NativeVolume</text>
<text text-anchor="start" x="8" y="-285.5" font-family="Helvetica,sans-Serif" font-size="10.00">+ Volume</text>
<text text-anchor="start" x="8" y="-274.5" font-family="Helvetica,sans-Serif" font-size="10.00">+ Mute</text>
<polyline fill="none" stroke="black" points="0,-267.5 97,-267.5 "/>
<text text-anchor="middle" x="48.5" y="-255.5" font-family="Helvetica,sans-Serif" font-size="10.00"> </text>
</a>
</g>
</g>
<!-- Node2&#45;&gt;Node1 -->
<g id="edge1" class="edge">
<title>Node2&#45;&gt;Node1</title>
<path fill="none" stroke="midnightblue" d="M105.65,-248.57C105.93,-248.38 106.22,-248.19 106.5,-248 153.16,-216.72 205.68,-181.62 246.65,-154.27"/>
<polygon fill="none" stroke="midnightblue" points="103.58,-245.74 97.23,-254.22 107.48,-251.56 103.58,-245.74"/>
</g>
<!-- Node3 -->
<g id="node3" class="node">
<title>Node3</title>
<g id="a_node3"><a xlink:href="interface_audio_1_1_interfaces_1_1_i_read_only_audio_control.html" target="_top" xlink:title="Represents an audio instance with a read&#45;only volume level and mute state.">
<polygon fill="none" stroke="black" points="115.5,-248.5 115.5,-327.5 245.5,-327.5 245.5,-248.5 115.5,-248.5"/>
<text text-anchor="middle" x="180.5" y="-315.5" font-family="Helvetica,sans-Serif" font-size="10.00">IReadOnlyAudioControl</text>
<polyline fill="none" stroke="black" points="115.5,-308.5 245.5,-308.5 "/>
<text text-anchor="start" x="123.5" y="-296.5" font-family="Helvetica,sans-Serif" font-size="10.00">+ NativeVolume</text>
<text text-anchor="start" x="123.5" y="-285.5" font-family="Helvetica,sans-Serif" font-size="10.00">+ Volume</text>
<text text-anchor="start" x="123.5" y="-274.5" font-family="Helvetica,sans-Serif" font-size="10.00">+ Mute</text>
<polyline fill="none" stroke="black" points="115.5,-267.5 245.5,-267.5 "/>
<text text-anchor="middle" x="180.5" y="-255.5" font-family="Helvetica,sans-Serif" font-size="10.00"> </text>
</a>
</g>
</g>
<!-- Node3&#45;&gt;Node1 -->
<g id="edge2" class="edge">
<title>Node3&#45;&gt;Node1</title>
<path fill="none" stroke="midnightblue" d="M215.96,-240.41C225.47,-227.92 236.09,-213.97 246.78,-199.92"/>
<polygon fill="none" stroke="midnightblue" points="213.16,-238.31 209.89,-248.39 218.73,-242.55 213.16,-238.31"/>
</g>
<!-- Node4 -->
<g id="node4" class="node">
<title>Node4</title>
<g id="a_node4"><a xlink:href="interface_audio_1_1_interfaces_1_1_i_audio_peak_meter.html" target="_top" xlink:title="Represents some kind of object that has an audio peak meter.">
<polygon fill="none" stroke="black" points="264,-259.5 264,-316.5 371,-316.5 371,-259.5 264,-259.5"/>
<text text-anchor="middle" x="317.5" y="-304.5" font-family="Helvetica,sans-Serif" font-size="10.00">IAudioPeakMeter</text>
<polyline fill="none" stroke="black" points="264,-297.5 371,-297.5 "/>
<text text-anchor="start" x="272" y="-285.5" font-family="Helvetica,sans-Serif" font-size="10.00">+ PeakMeterValue</text>
<polyline fill="none" stroke="black" points="264,-278.5 371,-278.5 "/>
<text text-anchor="middle" x="317.5" y="-266.5" font-family="Helvetica,sans-Serif" font-size="10.00"> </text>
</a>
</g>
</g>
<!-- Node4&#45;&gt;Node1 -->
<g id="edge3" class="edge">
<title>Node4&#45;&gt;Node1</title>
<path fill="none" stroke="midnightblue" d="M317.5,-249.09C317.5,-237.91 317.5,-225.09 317.5,-211.83"/>
<polygon fill="none" stroke="midnightblue" points="314,-249.27 317.5,-259.27 321,-249.27 314,-249.27"/>
</g>
<!-- Node5 -->
<g id="node5" class="node">
<title>Node5</title>
<g id="a_node5"><a xlink:title=" ">
<polygon fill="none" stroke="#bfbfbf" points="389,-259.5 389,-316.5 522,-316.5 522,-259.5 389,-259.5"/>
<text text-anchor="middle" x="455.5" y="-304.5" font-family="Helvetica,sans-Serif" font-size="10.00">INotifyPropertyChanged</text>
<polyline fill="none" stroke="#bfbfbf" points="389,-297.5 522,-297.5 "/>
<text text-anchor="middle" x="455.5" y="-285.5" font-family="Helvetica,sans-Serif" font-size="10.00"> </text>
<polyline fill="none" stroke="#bfbfbf" points="389,-278.5 522,-278.5 "/>
<text text-anchor="middle" x="455.5" y="-266.5" font-family="Helvetica,sans-Serif" font-size="10.00"> </text>
</a>
</g>
</g>
<!-- Node5&#45;&gt;Node1 -->
<g id="edge4" class="edge">
<title>Node5&#45;&gt;Node1</title>
<path fill="none" stroke="midnightblue" d="M428.07,-251.22C416.47,-236.09 402.38,-217.71 388.19,-199.2"/>
<polygon fill="none" stroke="midnightblue" points="425.38,-253.46 434.24,-259.27 430.93,-249.2 425.38,-253.46"/>
</g>
<!-- Node6 -->
<g id="node6" class="node">
<title>Node6</title>
<g id="a_node6"><a xlink:title=" ">
<polygon fill="none" stroke="#bfbfbf" points="540.5,-259.5 540.5,-316.5 614.5,-316.5 614.5,-259.5 540.5,-259.5"/>
<text text-anchor="middle" x="577.5" y="-304.5" font-family="Helvetica,sans-Serif" font-size="10.00">IDisposable</text>
<polyline fill="none" stroke="#bfbfbf" points="540.5,-297.5 614.5,-297.5 "/>
<text text-anchor="middle" x="577.5" y="-285.5" font-family="Helvetica,sans-Serif" font-size="10.00"> </text>
<polyline fill="none" stroke="#bfbfbf" points="540.5,-278.5 614.5,-278.5 "/>
<text text-anchor="middle" x="577.5" y="-266.5" font-family="Helvetica,sans-Serif" font-size="10.00"> </text>
</a>
</g>
</g>
<!-- Node6&#45;&gt;Node1 -->
<g id="edge5" class="edge">
<title>Node6&#45;&gt;Node1</title>
<path fill="none" stroke="midnightblue" d="M537.83,-252.86C535.71,-251.2 533.59,-249.57 531.5,-248 485.21,-213.32 430.75,-177.51 388.35,-150.65"/>
<polygon fill="none" stroke="midnightblue" points="536,-255.88 545.98,-259.43 540.39,-250.43 536,-255.88"/>
</g>
</g>
</svg>
