<?xml version="1.0" encoding="UTF-8" standalone="no"?>
<!DOCTYPE svg PUBLIC "-//W3C//DTD SVG 1.1//EN"
 "http://www.w3.org/Graphics/SVG/1.1/DTD/svg11.dtd">
<!-- Generated by graphviz version 2.43.0 (0)
 -->
<!-- Title: VolumeControl.WPF.Behaviors.MouseWheelListViewBehavior Pages: 1 -->
<svg width="169pt" height="168pt"
 viewBox="0.00 0.00 169.00 168.00" xmlns="http://www.w3.org/2000/svg" xmlns:xlink="http://www.w3.org/1999/xlink">

<svg id="main" version="1.1" xmlns="http://www.w3.org/2000/svg" xmlns:xlink="http://www.w3.org/1999/xlink" xml:space="preserve" onload="init(evt)">
<style type="text/css"><![CDATA[
.node, .edge {opacity: 0.7;}
.node.selected, .edge.selected {opacity: 1;}
.edge:hover path { stroke: red; }
.edge:hover polygon { stroke: red; fill: red; }
]]></style>
<script type="application/ecmascript" xlink:href="svg.min.js"/>
<svg id="graph" class="graph">
<g id="graph0" class="graph" transform="scale(1 1) rotate(0) translate(4 164)">
<title>VolumeControl.WPF.Behaviors.MouseWheelListViewBehavior</title>
<!-- Node1 -->
<g id="Node000001" class="node">
<title>Node1</title>
<g id="a_Node000001"><a xlink:title="Behavior&lt;T&gt; that enables the mouse wheel to increment/decrement the selected item in a ListView.">
<polygon fill="#999999" stroke="transparent" points="161,-75 0,-75 0,0 161,0 161,-75"/>
<text text-anchor="start" x="5.5" y="-62.5" font-family="Helvetica,sans-Serif" font-size="10.00">VolumeControl.WPF.Behaviors.</text>
<text text-anchor="start" x="7" y="-51.5" font-family="Helvetica,sans-Serif" font-size="10.00">MouseWheelListViewBehavior</text>
<text text-anchor="start" x="79" y="-36.5" font-family="Helvetica,sans-Serif" font-size="10.00"> </text>
<text text-anchor="start" x="21.5" y="-21.5" font-family="Helvetica,sans-Serif" font-size="10.00">#</text>
<text text-anchor="start" x="51.5" y="-21.5" font-family="Helvetica,sans-Serif" font-size="10.00">OnAttached()</text>
<text text-anchor="start" x="21.5" y="-6.5" font-family="Helvetica,sans-Serif" font-size="10.00">#</text>
<text text-anchor="start" x="51.5" y="-6.5" font-family="Helvetica,sans-Serif" font-size="10.00">OnDetaching()</text>
<polygon fill="#666666" stroke="#666666" points="0.5,-46.5 0.5,-46.5 161.5,-46.5 161.5,-46.5 0.5,-46.5"/>
<polygon fill="#666666" stroke="#666666" points="0.5,-31.5 0.5,-31.5 161.5,-31.5 161.5,-31.5 0.5,-31.5"/>
<polygon fill="none" stroke="#666666" points="0,0 0,-75 161,-75 161,0 0,0"/>
</a>
</g>
</g>
<!-- Node2 -->
<g id="Node000002" class="node">
<title>Node2</title>
<g id="a_Node000002"><a xlink:title=" ">
<polygon fill="white" stroke="transparent" points="139.5,-160 21.5,-160 21.5,-111 139.5,-111 139.5,-160"/>
<text text-anchor="start" x="26.5" y="-147.5" font-family="Helvetica,sans-Serif" font-size="10.00">Behavior&lt; ListView &gt;</text>
<text text-anchor="start" x="78.5" y="-132.5" font-family="Helvetica,sans-Serif" font-size="10.00"> </text>
<text text-anchor="start" x="78.5" y="-117.5" font-family="Helvetica,sans-Serif" font-size="10.00"> </text>
<polygon fill="#bfbfbf" stroke="#bfbfbf" points="21.5,-142.5 21.5,-142.5 139.5,-142.5 139.5,-142.5 21.5,-142.5"/>
<polygon fill="#bfbfbf" stroke="#bfbfbf" points="21.5,-127.5 21.5,-127.5 139.5,-127.5 139.5,-127.5 21.5,-127.5"/>
<polygon fill="none" stroke="#bfbfbf" points="21.5,-111 21.5,-160 139.5,-160 139.5,-111 21.5,-111"/>
</a>
</g>
</g>
<!-- Node2&#45;&gt;Node1 -->
<g id="edge1_Node000001_Node000002" class="edge">
<title>Node2&#45;&gt;Node1</title>
<g id="a_edge1_Node000001_Node000002"><a xlink:title=" ">
<path fill="none" stroke="#63b8ff" d="M80.5,-100.68C80.5,-92.38 80.5,-83.46 80.5,-75.04"/>
<polygon fill="none" stroke="#63b8ff" points="77,-100.77 80.5,-110.77 84,-100.77 77,-100.77"/>
</a>
</g>
</g>
</g>
</svg>
</svg>

<style type='text/css'>
<![CDATA[
[data-mouse-over-selected='false'] { opacity: 0.7; }
[data-mouse-over-selected='true']  { opacity: 1.0; }
]]>
</style>
<script type="application/ecmascript"><![CDATA[
document.addEventListener('DOMContentLoaded', (event) => {
  highlightEdges();
  highlightAdjacentNodes();
});
]]></script>
</svg>
