<?xml version="1.0" encoding="UTF-8" standalone="no"?>
<!DOCTYPE svg PUBLIC "-//W3C//DTD SVG 1.1//EN"
 "http://www.w3.org/Graphics/SVG/1.1/DTD/svg11.dtd">
<!-- Generated by graphviz version 2.43.0 (0)
 -->
<!-- Title: VolumeControl.CoreAudio.AudioSession.HasMatchingName Pages: 1 -->
<svg width="633pt" height="135pt"
 viewBox="0.00 0.00 633.00 135.00" xmlns="http://www.w3.org/2000/svg" xmlns:xlink="http://www.w3.org/1999/xlink">
<g id="graph0" class="graph" transform="scale(1 1) rotate(0) translate(4 131)">
<title>VolumeControl.CoreAudio.AudioSession.HasMatchingName</title>
<!-- Node1 -->
<g id="node1" class="node">
<title>Node1</title>
<g id="a_node1"><a xlink:title="Determines whether the specified name &#160;is equal to this instance&#39;s Name or ProcessName.">
<polygon fill="#bfbfbf" stroke="black" points="447,-31 447,-61 625,-61 625,-31 447,-31"/>
<text text-anchor="start" x="455" y="-49" font-family="Helvetica,sans-Serif" font-size="10.00">VolumeControl.CoreAudio.</text>
<text text-anchor="middle" x="536" y="-38" font-family="Helvetica,sans-Serif" font-size="10.00">AudioSession.HasMatchingName</text>
</a>
</g>
</g>
<!-- Node2 -->
<g id="node2" class="node">
<title>Node2</title>
<g id="a_node2"><a xlink:href="class_volume_control_1_1_core_audio_1_1_audio_session_manager.html#afbe61a2182efe4df1997a1735f3411f0" target="_top" xlink:title="Finds all audio sessions whose owning process has the given sessionName .">
<polygon fill="none" stroke="black" points="221,-85.5 221,-126.5 411,-126.5 411,-85.5 221,-85.5"/>
<text text-anchor="start" x="229" y="-114.5" font-family="Helvetica,sans-Serif" font-size="10.00">VolumeControl.CoreAudio.</text>
<text text-anchor="start" x="229" y="-103.5" font-family="Helvetica,sans-Serif" font-size="10.00">AudioSessionManager.FindSessions</text>
<text text-anchor="middle" x="316" y="-92.5" font-family="Helvetica,sans-Serif" font-size="10.00">WithName</text>
</a>
</g>
</g>
<!-- Node1&#45;&gt;Node2 -->
<g id="edge1" class="edge">
<title>Node1&#45;&gt;Node2</title>
<path fill="none" stroke="midnightblue" d="M470.6,-63.73C445.78,-70.56 417.23,-78.42 391.52,-85.49"/>
<polygon fill="midnightblue" stroke="midnightblue" points="471.56,-67.09 480.27,-61.06 469.7,-60.34 471.56,-67.09"/>
</g>
<!-- Node3 -->
<g id="node3" class="node">
<title>Node3</title>
<g id="a_node3"><a xlink:href="class_volume_control_1_1_core_audio_1_1_audio_session_manager.html#a60f0361802eed5ad889db7e70190bd4f" target="_top" xlink:title="Finds the audio session whose owning process has the given sessionName .">
<polygon fill="none" stroke="black" points="223.5,-25.5 223.5,-66.5 408.5,-66.5 408.5,-25.5 223.5,-25.5"/>
<text text-anchor="start" x="231.5" y="-54.5" font-family="Helvetica,sans-Serif" font-size="10.00">VolumeControl.CoreAudio.</text>
<text text-anchor="start" x="231.5" y="-43.5" font-family="Helvetica,sans-Serif" font-size="10.00">AudioSessionManager.FindSession</text>
<text text-anchor="middle" x="316" y="-32.5" font-family="Helvetica,sans-Serif" font-size="10.00">WithName</text>
</a>
</g>
</g>
<!-- Node1&#45;&gt;Node3 -->
<g id="edge2" class="edge">
<title>Node1&#45;&gt;Node3</title>
<path fill="none" stroke="midnightblue" d="M436.81,-46C427.41,-46 417.9,-46 408.57,-46"/>
<polygon fill="midnightblue" stroke="midnightblue" points="436.96,-49.5 446.96,-46 436.96,-42.5 436.96,-49.5"/>
</g>
<!-- Node4 -->
<g id="node4" class="node">
<title>Node4</title>
<g id="a_node4"><a xlink:href="class_volume_control_1_1_core_audio_1_1_audio_session_manager.html#a362cba0adcf1b1ffe6c4a6c51ba6eca9" target="_top" xlink:title="Finds the audio session that matches &#45; or is very similar to &#45; the given processIdentifier .">
<polygon fill="none" stroke="black" points="0,-0.5 0,-41.5 185,-41.5 185,-0.5 0,-0.5"/>
<text text-anchor="start" x="8" y="-29.5" font-family="Helvetica,sans-Serif" font-size="10.00">VolumeControl.CoreAudio.</text>
<text text-anchor="start" x="8" y="-18.5" font-family="Helvetica,sans-Serif" font-size="10.00">AudioSessionManager.FindSession</text>
<text text-anchor="middle" x="92.5" y="-7.5" font-family="Helvetica,sans-Serif" font-size="10.00">WithSimilarProcessIdentifier</text>
</a>
</g>
</g>
<!-- Node1&#45;&gt;Node4 -->
<g id="edge4" class="edge">
<title>Node1&#45;&gt;Node4</title>
<path fill="none" stroke="midnightblue" d="M475.13,-28.48C454.95,-23.39 432.17,-18.52 411,-16 335.32,-6.98 248.79,-9.16 185.19,-13.07"/>
<polygon fill="midnightblue" stroke="midnightblue" points="474.26,-31.87 484.82,-30.99 476.01,-25.09 474.26,-31.87"/>
</g>
<!-- Node3&#45;&gt;Node4 -->
<g id="edge3" class="edge">
<title>Node3&#45;&gt;Node4</title>
<path fill="none" stroke="midnightblue" d="M213.2,-34.51C203.83,-33.45 194.39,-32.39 185.12,-31.34"/>
<polygon fill="midnightblue" stroke="midnightblue" points="212.98,-38.01 223.31,-35.65 213.76,-31.05 212.98,-38.01"/>
</g>
</g>
</svg>
