<?xml version="1.0" encoding="UTF-8" standalone="no"?>
<!DOCTYPE svg PUBLIC "-//W3C//DTD SVG 1.1//EN"
 "http://www.w3.org/Graphics/SVG/1.1/DTD/svg11.dtd">
<!-- Generated by graphviz version 2.43.0 (0)
 -->
<!-- Title: VolumeControl.Core.Input.HotkeyPressedEventArgs.GetSetting&lt; T &gt; Pages: 1 -->
<svg width="767pt" height="100pt"
 viewBox="0.00 0.00 767.00 99.50" xmlns="http://www.w3.org/2000/svg" xmlns:xlink="http://www.w3.org/1999/xlink">
<g id="graph0" class="graph" transform="scale(1 1) rotate(0) translate(4 95.5)">
<title>VolumeControl.Core.Input.HotkeyPressedEventArgs.GetSetting&lt; T &gt;</title>
<!-- Node1 -->
<g id="node1" class="node">
<title>Node1</title>
<g id="a_node1"><a xlink:title="Gets the action setting with the specified name &#160;and value type.">
<polygon fill="#bfbfbf" stroke="black" points="537,-33 537,-63 759,-63 759,-33 537,-33"/>
<text text-anchor="start" x="545" y="-51" font-family="Helvetica,sans-Serif" font-size="10.00">VolumeControl.Core.Input.</text>
<text text-anchor="middle" x="648" y="-40" font-family="Helvetica,sans-Serif" font-size="10.00">HotkeyPressedEventArgs.GetSetting&lt; T &gt;</text>
</a>
</g>
</g>
<!-- Node2 -->
<g id="node2" class="node">
<title>Node2</title>
<g id="a_node2"><a xlink:href="class_volume_control_1_1_core_1_1_input_1_1_hotkey_pressed_event_args.html#af94da383741c85973a40d0f5d9d4f7f7" target="_top" xlink:title="Gets the value of the action setting with the specified name &#160;and value type if it is enabled; otherw...">
<polygon fill="none" stroke="black" points="275.5,-59 275.5,-89 490.5,-89 490.5,-59 275.5,-59"/>
<text text-anchor="start" x="283.5" y="-77" font-family="Helvetica,sans-Serif" font-size="10.00">VolumeControl.Core.Input.</text>
<text text-anchor="middle" x="383" y="-66" font-family="Helvetica,sans-Serif" font-size="10.00">HotkeyPressedEventArgs.GetValue&lt; T &gt;</text>
</a>
</g>
</g>
<!-- Node1&#45;&gt;Node2 -->
<g id="edge1" class="edge">
<title>Node1&#45;&gt;Node2</title>
<path fill="none" stroke="midnightblue" d="M526.87,-59.88C514.78,-61.07 502.56,-62.28 490.62,-63.46"/>
<polygon fill="midnightblue" stroke="midnightblue" points="527.38,-63.34 536.99,-58.88 526.69,-56.38 527.38,-63.34"/>
</g>
<!-- Node4 -->
<g id="node4" class="node">
<title>Node4</title>
<g id="a_node4"><a xlink:href="class_volume_control_1_1_core_1_1_input_1_1_hotkey_pressed_event_args.html#a04c7d1c41cd889adc4d7b1e8aeefd3ac" target="_top" xlink:title="Gets the action setting with the specified name &#160;and value type.">
<polygon fill="none" stroke="black" points="265,-9 265,-39 501,-39 501,-9 265,-9"/>
<text text-anchor="start" x="273" y="-27" font-family="Helvetica,sans-Serif" font-size="10.00">VolumeControl.Core.Input.</text>
<text text-anchor="middle" x="383" y="-16" font-family="Helvetica,sans-Serif" font-size="10.00">HotkeyPressedEventArgs.TryGetSetting&lt; T &gt;</text>
</a>
</g>
</g>
<!-- Node1&#45;&gt;Node4 -->
<g id="edge3" class="edge">
<title>Node1&#45;&gt;Node4</title>
<path fill="none" stroke="midnightblue" d="M526.96,-37.05C518.39,-36.26 509.75,-35.48 501.2,-34.69"/>
<polygon fill="midnightblue" stroke="midnightblue" points="526.71,-40.54 536.99,-37.96 527.35,-33.57 526.71,-40.54"/>
</g>
<!-- Node3 -->
<g id="node3" class="node">
<title>Node3</title>
<g id="a_node3"><a xlink:href="class_volume_control_1_1_core_1_1_input_1_1_hotkey_pressed_event_args.html#a071f6358357131df12cdfc01bf7997b7" target="_top" xlink:title="Attempts to get the value of the action setting with the specified name &#160;and value type if it is enab...">
<polygon fill="none" stroke="black" points="0,-61 0,-91 229,-91 229,-61 0,-61"/>
<text text-anchor="start" x="8" y="-79" font-family="Helvetica,sans-Serif" font-size="10.00">VolumeControl.Core.Input.</text>
<text text-anchor="middle" x="114.5" y="-68" font-family="Helvetica,sans-Serif" font-size="10.00">HotkeyPressedEventArgs.TryGetValue&lt; T &gt;</text>
</a>
</g>
</g>
<!-- Node2&#45;&gt;Node3 -->
<g id="edge2" class="edge">
<title>Node2&#45;&gt;Node3</title>
<path fill="none" stroke="midnightblue" d="M264.84,-74.88C253.06,-74.97 241.11,-75.06 229.37,-75.15"/>
<polygon fill="midnightblue" stroke="midnightblue" points="265.17,-78.38 275.14,-74.8 265.11,-71.38 265.17,-78.38"/>
</g>
<!-- Node5 -->
<g id="node5" class="node">
<title>Node5</title>
<g id="a_node5"><a xlink:href="class_volume_control_1_1_core_1_1_input_1_1_hotkey_pressed_event_args.html#a811a45ec804d4517876636624522c28d" target="_top" xlink:title="Gets the value of the action setting with the specified name &#160;and value type if it isn&#39;t null or disa...">
<polygon fill="none" stroke="black" points="21.5,-0.5 21.5,-41.5 207.5,-41.5 207.5,-0.5 21.5,-0.5"/>
<text text-anchor="start" x="29.5" y="-29.5" font-family="Helvetica,sans-Serif" font-size="10.00">VolumeControl.Core.Input.</text>
<text text-anchor="start" x="29.5" y="-18.5" font-family="Helvetica,sans-Serif" font-size="10.00">HotkeyPressedEventArgs.GetValue</text>
<text text-anchor="middle" x="114.5" y="-7.5" font-family="Helvetica,sans-Serif" font-size="10.00">OrDefault&lt; T &gt;</text>
</a>
</g>
</g>
<!-- Node4&#45;&gt;Node5 -->
<g id="edge4" class="edge">
<title>Node4&#45;&gt;Node5</title>
<path fill="none" stroke="midnightblue" d="M254.37,-22.56C238.59,-22.39 222.7,-22.21 207.6,-22.04"/>
<polygon fill="midnightblue" stroke="midnightblue" points="254.68,-26.07 264.72,-22.68 254.76,-19.07 254.68,-26.07"/>
</g>
</g>
</svg>
