<?xml version="1.0" encoding="UTF-8" standalone="no"?>
<!DOCTYPE svg PUBLIC "-//W3C//DTD SVG 1.1//EN"
 "http://www.w3.org/Graphics/SVG/1.1/DTD/svg11.dtd">
<!-- Generated by graphviz version 2.43.0 (0)
 -->
<!-- Title: VolumeControl.CoreAudio.AudioSessionSelector Pages: 1 -->
<svg width="244pt" height="273pt"
 viewBox="0.00 0.00 244.00 273.00" xmlns="http://www.w3.org/2000/svg" xmlns:xlink="http://www.w3.org/1999/xlink">

<svg id="main" version="1.1" xmlns="http://www.w3.org/2000/svg" xmlns:xlink="http://www.w3.org/1999/xlink" xml:space="preserve" onload="init(evt)">
<style type="text/css"><![CDATA[
.node, .edge {opacity: 0.7;}
.node.selected, .edge.selected {opacity: 1;}
.edge:hover path { stroke: red; }
.edge:hover polygon { stroke: red; fill: red; }
]]></style>
<script type="application/ecmascript" xlink:href="svg.min.js"/>
<svg id="graph" class="graph">
<g id="graph0" class="graph" transform="scale(1 1) rotate(0) translate(4 269)">
<title>VolumeControl.CoreAudio.AudioSessionSelector</title>
<!-- Node1 -->
<g id="Node000001" class="node">
<title>Node1</title>
<g id="a_Node000001"><a xlink:title="Manages the currently &quot;selected&quot; AudioSession instance for a given CoreAudio.AudioSessionManager obje...">
<polygon fill="#999999" stroke="transparent" points="178,-165 39,-165 39,0 178,0 178,-165"/>
<text text-anchor="start" x="44.5" y="-152.5" font-family="Helvetica,sans-Serif" font-size="10.00">VolumeControl.CoreAudio.</text>
<text text-anchor="start" x="56" y="-141.5" font-family="Helvetica,sans-Serif" font-size="10.00">AudioSessionSelector</text>
<text text-anchor="start" x="43.5" y="-126.5" font-family="Helvetica,sans-Serif" font-size="10.00">+</text>
<text text-anchor="start" x="56.5" y="-126.5" font-family="Helvetica,sans-Serif" font-size="10.00">Settings</text>
<text text-anchor="start" x="43.5" y="-111.5" font-family="Helvetica,sans-Serif" font-size="10.00">+</text>
<text text-anchor="start" x="56.5" y="-111.5" font-family="Helvetica,sans-Serif" font-size="10.00">AudioSessionManager</text>
<text text-anchor="start" x="43.5" y="-96.5" font-family="Helvetica,sans-Serif" font-size="10.00">+</text>
<text text-anchor="start" x="56.5" y="-96.5" font-family="Helvetica,sans-Serif" font-size="10.00">Selected</text>
<text text-anchor="start" x="43.5" y="-81.5" font-family="Helvetica,sans-Serif" font-size="10.00">+</text>
<text text-anchor="start" x="56.5" y="-81.5" font-family="Helvetica,sans-Serif" font-size="10.00">SelectedIndex</text>
<text text-anchor="start" x="43.5" y="-66.5" font-family="Helvetica,sans-Serif" font-size="10.00">+</text>
<text text-anchor="start" x="56.5" y="-66.5" font-family="Helvetica,sans-Serif" font-size="10.00">LockSelection</text>
<text text-anchor="start" x="43.5" y="-51.5" font-family="Helvetica,sans-Serif" font-size="10.00">+</text>
<text text-anchor="start" x="56.5" y="-51.5" font-family="Helvetica,sans-Serif" font-size="10.00">AudioSessionSelector()</text>
<text text-anchor="start" x="43.5" y="-36.5" font-family="Helvetica,sans-Serif" font-size="10.00">+</text>
<text text-anchor="start" x="56.5" y="-36.5" font-family="Helvetica,sans-Serif" font-size="10.00">SelectNextSession()</text>
<text text-anchor="start" x="43.5" y="-21.5" font-family="Helvetica,sans-Serif" font-size="10.00">+</text>
<text text-anchor="start" x="56.5" y="-21.5" font-family="Helvetica,sans-Serif" font-size="10.00">SelectPreviousSession()</text>
<text text-anchor="start" x="43.5" y="-6.5" font-family="Helvetica,sans-Serif" font-size="10.00">+</text>
<text text-anchor="start" x="56.5" y="-6.5" font-family="Helvetica,sans-Serif" font-size="10.00">DeselectSession()</text>
<polygon fill="#666666" stroke="#666666" points="39.5,-136.5 39.5,-136.5 178.5,-136.5 178.5,-136.5 39.5,-136.5"/>
<polygon fill="#666666" stroke="#666666" points="39.5,-61.5 39.5,-61.5 54.5,-61.5 54.5,-61.5 39.5,-61.5"/>
<polygon fill="#666666" stroke="#666666" points="54.5,-61.5 54.5,-61.5 178.5,-61.5 178.5,-61.5 54.5,-61.5"/>
<polygon fill="none" stroke="#666666" points="39,0 39,-165 178,-165 178,0 39,0"/>
</a>
</g>
</g>
<!-- Node2 -->
<g id="Node000002" class="node">
<title>Node2</title>
<g id="a_Node000002"><a xlink:href="interface_volume_control_1_1_core_audio_1_1_interfaces_1_1_i_audio_selector.html" target="_top" xlink:title="Represents a list item selector.">
<polygon fill="white" stroke="transparent" points="91,-265 0,-265 0,-201 91,-201 91,-265"/>
<text text-anchor="start" x="10.5" y="-253" font-family="Helvetica,sans-Serif" font-size="10.00">IAudioSelector</text>
<text text-anchor="start" x="4.5" y="-238" font-family="Helvetica,sans-Serif" font-size="10.00">+</text>
<text text-anchor="start" x="17.5" y="-238" font-family="Helvetica,sans-Serif" font-size="10.00">SelectedIndex</text>
<text text-anchor="start" x="4.5" y="-223" font-family="Helvetica,sans-Serif" font-size="10.00">+</text>
<text text-anchor="start" x="17.5" y="-223" font-family="Helvetica,sans-Serif" font-size="10.00">LockSelection</text>
<text text-anchor="start" x="44" y="-208" font-family="Helvetica,sans-Serif" font-size="10.00"> </text>
<polygon fill="#666666" stroke="#666666" points="0.5,-248 0.5,-248 91.5,-248 91.5,-248 0.5,-248"/>
<polygon fill="#666666" stroke="#666666" points="0.5,-218 0.5,-218 15.5,-218 15.5,-218 0.5,-218"/>
<polygon fill="#666666" stroke="#666666" points="15.5,-218 15.5,-218 91.5,-218 91.5,-218 15.5,-218"/>
<polygon fill="none" stroke="#666666" points="0,-201 0,-265 91,-265 91,-201 0,-201"/>
</a>
</g>
</g>
<!-- Node2&#45;&gt;Node1 -->
<g id="edge1_Node000001_Node000002" class="edge">
<title>Node2&#45;&gt;Node1</title>
<g id="a_edge1_Node000001_Node000002"><a xlink:title=" ">
<path fill="none" stroke="#63b8ff" d="M62.68,-191.5C66.19,-183.22 70.01,-174.22 73.89,-165.08"/>
<polygon fill="none" stroke="#63b8ff" points="59.39,-190.3 58.71,-200.87 65.83,-193.03 59.39,-190.3"/>
</a>
</g>
</g>
<!-- Node3 -->
<g id="Node000003" class="node">
<title>Node3</title>
<g id="a_Node000003"><a xlink:title=" ">
<polygon fill="white" stroke="transparent" points="236,-257.5 109,-257.5 109,-208.5 236,-208.5 236,-257.5"/>
<text text-anchor="start" x="114.5" y="-245" font-family="Helvetica,sans-Serif" font-size="10.00">INotifyPropertyChanged</text>
<text text-anchor="start" x="171" y="-230" font-family="Helvetica,sans-Serif" font-size="10.00"> </text>
<text text-anchor="start" x="171" y="-215" font-family="Helvetica,sans-Serif" font-size="10.00"> </text>
<polygon fill="#bfbfbf" stroke="#bfbfbf" points="109.5,-240 109.5,-240 236.5,-240 236.5,-240 109.5,-240"/>
<polygon fill="#bfbfbf" stroke="#bfbfbf" points="109.5,-225 109.5,-225 236.5,-225 236.5,-225 109.5,-225"/>
<polygon fill="none" stroke="#bfbfbf" points="109,-208.5 109,-257.5 236,-257.5 236,-208.5 109,-208.5"/>
</a>
</g>
</g>
<!-- Node3&#45;&gt;Node1 -->
<g id="edge2_Node000001_Node000003" class="edge">
<title>Node3&#45;&gt;Node1</title>
<g id="a_edge2_Node000001_Node000003"><a xlink:title=" ">
<path fill="none" stroke="#63b8ff" d="M158.35,-199.18C153.95,-188.95 148.87,-177.18 143.69,-165.15"/>
<polygon fill="none" stroke="#63b8ff" points="155.19,-200.67 162.36,-208.47 161.62,-197.9 155.19,-200.67"/>
</a>
</g>
</g>
</g>
</svg>
</svg>

<style type='text/css'>
<![CDATA[
[data-mouse-over-selected='false'] { opacity: 0.7; }
[data-mouse-over-selected='true']  { opacity: 1.0; }
]]>
</style>
<script type="application/ecmascript"><![CDATA[
document.addEventListener('DOMContentLoaded', (event) => {
  highlightEdges();
  highlightAdjacentNodes();
});
]]></script>
</svg>
