<?xml version="1.0" encoding="UTF-8" standalone="no"?>
<!DOCTYPE svg PUBLIC "-//W3C//DTD SVG 1.1//EN"
 "http://www.w3.org/Graphics/SVG/1.1/DTD/svg11.dtd">
<!-- Generated by graphviz version 2.43.0 (0)
 -->
<!-- Title: Audio.AudioSessionManager.AddSessionManager Pages: 1 -->
<svg width="360pt" height="88pt"
 viewBox="0.00 0.00 360.00 88.00" xmlns="http://www.w3.org/2000/svg" xmlns:xlink="http://www.w3.org/1999/xlink">
<g id="graph0" class="graph" transform="scale(1 1) rotate(0) translate(4 84)">
<title>Audio.AudioSessionManager.AddSessionManager</title>
<!-- Node1 -->
<g id="node1" class="node">
<title>Node1</title>
<g id="a_node1"><a xlink:title="Adds the given sessionManager &#160;to the SessionManagers list.">
<polygon fill="#bfbfbf" stroke="black" points="194,-24.5 194,-54.5 352,-54.5 352,-24.5 194,-24.5"/>
<text text-anchor="start" x="202" y="-42.5" font-family="Helvetica,sans-Serif" font-size="10.00">Audio.AudioSessionManager.</text>
<text text-anchor="middle" x="273" y="-31.5" font-family="Helvetica,sans-Serif" font-size="10.00">AddSessionManager</text>
</a>
</g>
</g>
<!-- Node2 -->
<g id="node2" class="node">
<title>Node2</title>
<g id="a_node2"><a xlink:href="class_audio_1_1_audio_session_manager.html#a351617f44fc67030ca052e26a29bcb57" target="_top" xlink:title="Adds the given sessionManagers &#160;to the SessionManagers list using AddSessionManager(AudioDeviceSessio...">
<polygon fill="none" stroke="black" points="0,-49.5 0,-79.5 158,-79.5 158,-49.5 0,-49.5"/>
<text text-anchor="start" x="8" y="-67.5" font-family="Helvetica,sans-Serif" font-size="10.00">Audio.AudioSessionManager.</text>
<text text-anchor="middle" x="79" y="-56.5" font-family="Helvetica,sans-Serif" font-size="10.00">AddSessionManagers</text>
</a>
</g>
</g>
<!-- Node1&#45;&gt;Node2 -->
<g id="edge1" class="edge">
<title>Node1&#45;&gt;Node2</title>
<path fill="none" stroke="midnightblue" d="M183.85,-50.98C175.23,-52.1 166.53,-53.23 158.02,-54.34"/>
<polygon fill="midnightblue" stroke="midnightblue" points="184.44,-54.43 193.91,-49.67 183.54,-47.49 184.44,-54.43"/>
</g>
<!-- Node3 -->
<g id="node3" class="node">
<title>Node3</title>
<g id="a_node3"><a xlink:href="class_audio_1_1_audio_session_manager.html#a809e25d0ca4b8b02f844826f438a02e8" target="_top" xlink:title="Creates a new AudioSessionManager instance with the given sessionManagers .">
<polygon fill="none" stroke="black" points="0,-0.5 0,-30.5 158,-30.5 158,-0.5 0,-0.5"/>
<text text-anchor="start" x="8" y="-18.5" font-family="Helvetica,sans-Serif" font-size="10.00">Audio.AudioSessionManager.</text>
<text text-anchor="middle" x="79" y="-7.5" font-family="Helvetica,sans-Serif" font-size="10.00">AudioSessionManager</text>
</a>
</g>
</g>
<!-- Node1&#45;&gt;Node3 -->
<g id="edge2" class="edge">
<title>Node1&#45;&gt;Node3</title>
<path fill="none" stroke="midnightblue" d="M183.85,-28.48C175.23,-27.4 166.53,-26.32 158.02,-25.25"/>
<polygon fill="midnightblue" stroke="midnightblue" points="183.55,-31.97 193.91,-29.74 184.42,-25.02 183.55,-31.97"/>
</g>
</g>
</svg>
