<?xml version="1.0" encoding="UTF-8" standalone="no"?>
<!DOCTYPE svg PUBLIC "-//W3C//DTD SVG 1.1//EN"
 "http://www.w3.org/Graphics/SVG/1.1/DTD/svg11.dtd">
<!-- Generated by graphviz version 2.43.0 (0)
 -->
<!-- Title: VolumeControl.Audio.Collections.AudioDeviceCollection Pages: 1 -->
<!--zoomable 490 -->
<svg id="main" version="1.1" xmlns="http://www.w3.org/2000/svg" xmlns:xlink="http://www.w3.org/1999/xlink" xml:space="preserve" onload="init(evt)">
<style type="text/css"><![CDATA[
.edge:hover path { stroke: red; }
.edge:hover polygon { stroke: red; fill: red; }
]]></style>
<script type="text/javascript"><![CDATA[
var edges = document.getElementsByTagName('g');
if (edges && edges.length) {
  for (var i=0;i<edges.length;i++) {
    if (edges[i].id.substr(0,4)=='edge') {
      edges[i].setAttribute('class','edge');
    }
  }
}
]]></script>
        <defs>
                <circle id="rim" cx="0" cy="0" r="7"/>
                <circle id="rim2" cx="0" cy="0" r="3.5"/>
                <g id="zoomPlus">
                        <use xlink:href="#rim" fill="#404040">
                                <set attributeName="fill" to="#808080" begin="zoomplus.mouseover" end="zoomplus.mouseout"/>
                        </use>
                        <path d="M-4,0h8M0,-4v8" fill="none" stroke="white" stroke-width="1.5" pointer-events="none"/>
                </g>
                <g id="zoomMin">
                        <use xlink:href="#rim" fill="#404040">
                                <set attributeName="fill" to="#808080" begin="zoomminus.mouseover" end="zoomminus.mouseout"/>
                        </use>
                        <path d="M-4,0h8" fill="none" stroke="white" stroke-width="1.5" pointer-events="none"/>
                </g>
                <g id="dirArrow">
                        <path fill="none" stroke="white" stroke-width="1.5" d="M0,-3.0v7 M-2.5,-0.5L0,-3.0L2.5,-0.5"/>
                </g>
               <g id="resetDef">
                       <use xlink:href="#rim2" fill="#404040">
                               <set attributeName="fill" to="#808080" begin="reset.mouseover" end="reset.mouseout"/>
                       </use>
               </g>
        </defs>

<script type="text/javascript">
var viewWidth = 1632;
var viewHeight = 490;
var sectionId = 'dynsection-0';
</script>
<script xlink:href="svgpan.js"/>
<svg id="graph" class="graph">
<g id="viewport">
<title>VolumeControl.Audio.Collections.AudioDeviceCollection</title>
<!-- Node1 -->
<g id="node1" class="node">
<title>Node1</title>
<g id="a_node1"><a xlink:title="Management container object for the AudioDevice class.">
<polygon fill="#bfbfbf" stroke="black" points="643,-0.5 643,-376.5 822,-376.5 822,-0.5 643,-0.5"/>
<text text-anchor="start" x="651" y="-364.5" font-family="Helvetica,sans-Serif" font-size="10.00">VolumeControl.Audio.Collections.</text>
<text text-anchor="middle" x="732.5" y="-353.5" font-family="Helvetica,sans-Serif" font-size="10.00">AudioDeviceCollection</text>
<polyline fill="none" stroke="black" points="643,-346.5 822,-346.5 "/>
<text text-anchor="start" x="651" y="-334.5" font-family="Helvetica,sans-Serif" font-size="10.00">+ IsFixedSize</text>
<text text-anchor="start" x="651" y="-323.5" font-family="Helvetica,sans-Serif" font-size="10.00">+ IsReadOnly</text>
<text text-anchor="start" x="651" y="-312.5" font-family="Helvetica,sans-Serif" font-size="10.00">+ Count</text>
<text text-anchor="start" x="651" y="-301.5" font-family="Helvetica,sans-Serif" font-size="10.00">+ IsSynchronized</text>
<text text-anchor="start" x="651" y="-290.5" font-family="Helvetica,sans-Serif" font-size="10.00">+ SyncRoot</text>
<text text-anchor="start" x="651" y="-279.5" font-family="Helvetica,sans-Serif" font-size="10.00">+ CollectionChanged</text>
<text text-anchor="start" x="651" y="-268.5" font-family="Helvetica,sans-Serif" font-size="10.00">+ Items</text>
<text text-anchor="start" x="651" y="-257.5" font-family="Helvetica,sans-Serif" font-size="10.00">+ DeviceNotificationClient</text>
<text text-anchor="start" x="651" y="-246.5" font-family="Helvetica,sans-Serif" font-size="10.00">+ DataFlow</text>
<text text-anchor="start" x="651" y="-235.5" font-family="Helvetica,sans-Serif" font-size="10.00">+ Default</text>
<text text-anchor="start" x="651" y="-224.5" font-family="Helvetica,sans-Serif" font-size="10.00">+ AllDevicesEnabled</text>
<text text-anchor="start" x="651" y="-213.5" font-family="Helvetica,sans-Serif" font-size="10.00">+ this[int index]</text>
<text text-anchor="start" x="651" y="-202.5" font-family="Helvetica,sans-Serif" font-size="10.00">+ this[int index]</text>
<polyline fill="none" stroke="black" points="643,-195.5 822,-195.5 "/>
<text text-anchor="start" x="651" y="-183.5" font-family="Helvetica,sans-Serif" font-size="10.00">+ FindDevice()</text>
<text text-anchor="start" x="651" y="-172.5" font-family="Helvetica,sans-Serif" font-size="10.00">+ Dispose()</text>
<text text-anchor="start" x="651" y="-161.5" font-family="Helvetica,sans-Serif" font-size="10.00">+ Add()</text>
<text text-anchor="start" x="651" y="-150.5" font-family="Helvetica,sans-Serif" font-size="10.00">+ Clear()</text>
<text text-anchor="start" x="651" y="-139.5" font-family="Helvetica,sans-Serif" font-size="10.00">+ Contains()</text>
<text text-anchor="start" x="651" y="-128.5" font-family="Helvetica,sans-Serif" font-size="10.00">+ IndexOf()</text>
<text text-anchor="start" x="651" y="-117.5" font-family="Helvetica,sans-Serif" font-size="10.00">+ Insert()</text>
<text text-anchor="start" x="651" y="-106.5" font-family="Helvetica,sans-Serif" font-size="10.00">+ Remove()</text>
<text text-anchor="start" x="651" y="-95.5" font-family="Helvetica,sans-Serif" font-size="10.00">+ RemoveAt()</text>
<text text-anchor="start" x="651" y="-84.5" font-family="Helvetica,sans-Serif" font-size="10.00">+ CopyTo()</text>
<text text-anchor="start" x="651" y="-73.5" font-family="Helvetica,sans-Serif" font-size="10.00">and 17 more...</text>
<text text-anchor="start" x="651" y="-62.5" font-family="Helvetica,sans-Serif" font-size="10.00">~ AudioDeviceCollection()</text>
<text text-anchor="start" x="651" y="-51.5" font-family="Helvetica,sans-Serif" font-size="10.00">~ FindDeviceWithMMDevice()</text>
<text text-anchor="start" x="651" y="-40.5" font-family="Helvetica,sans-Serif" font-size="10.00">~ CreateDeviceFromMMDevice()</text>
<text text-anchor="start" x="651" y="-29.5" font-family="Helvetica,sans-Serif" font-size="10.00">~ Reload()</text>
<text text-anchor="start" x="651" y="-18.5" font-family="Helvetica,sans-Serif" font-size="10.00">~ Reload()</text>
<text text-anchor="start" x="651" y="-7.5" font-family="Helvetica,sans-Serif" font-size="10.00"># Dispose()</text>
</a>
</g>
</g>
<!-- Node2 -->
<g id="node2" class="node">
<title>Node2</title>
<g id="a_node2"><a xlink:title=" ">
<polygon fill="none" stroke="#bfbfbf" points="0,-419 0,-476 37,-476 37,-419 0,-419"/>
<text text-anchor="middle" x="18.5" y="-464" font-family="Helvetica,sans-Serif" font-size="10.00">IList</text>
<polyline fill="none" stroke="#bfbfbf" points="0,-457 37,-457 "/>
<text text-anchor="middle" x="18.5" y="-445" font-family="Helvetica,sans-Serif" font-size="10.00"> </text>
<polyline fill="none" stroke="#bfbfbf" points="0,-438 37,-438 "/>
<text text-anchor="middle" x="18.5" y="-426" font-family="Helvetica,sans-Serif" font-size="10.00"> </text>
</a>
</g>
</g>
<!-- Node2&#45;&gt;Node1 -->
<g id="edge1" class="edge">
<title>Node2&#45;&gt;Node1</title>
<path fill="none" stroke="midnightblue" d="M44.98,-414.07C45.48,-413.7 45.99,-413.35 46.5,-413 236.1,-284.74 504.59,-225.7 642.72,-202.42"/>
<polygon fill="none" stroke="midnightblue" points="42.51,-411.58 37.28,-420.79 47.12,-416.85 42.51,-411.58"/>
</g>
<!-- Node3 -->
<g id="node3" class="node">
<title>Node3</title>
<g id="a_node3"><a xlink:title=" ">
<polygon fill="none" stroke="#bfbfbf" points="55.5,-419 55.5,-476 123.5,-476 123.5,-419 55.5,-419"/>
<text text-anchor="middle" x="89.5" y="-464" font-family="Helvetica,sans-Serif" font-size="10.00">ICollection</text>
<polyline fill="none" stroke="#bfbfbf" points="55.5,-457 123.5,-457 "/>
<text text-anchor="middle" x="89.5" y="-445" font-family="Helvetica,sans-Serif" font-size="10.00"> </text>
<polyline fill="none" stroke="#bfbfbf" points="55.5,-438 123.5,-438 "/>
<text text-anchor="middle" x="89.5" y="-426" font-family="Helvetica,sans-Serif" font-size="10.00"> </text>
</a>
</g>
</g>
<!-- Node3&#45;&gt;Node1 -->
<g id="edge2" class="edge">
<title>Node3&#45;&gt;Node1</title>
<path fill="none" stroke="midnightblue" d="M131.62,-413.5C131.91,-413.33 132.21,-413.16 132.5,-413 303.08,-317.76 522.23,-247.95 642.87,-213.54"/>
<polygon fill="none" stroke="midnightblue" points="129.74,-410.55 123.11,-418.81 133.44,-416.48 129.74,-410.55"/>
</g>
<!-- Node4 -->
<g id="node4" class="node">
<title>Node4</title>
<g id="a_node4"><a xlink:title=" ">
<polygon fill="none" stroke="#bfbfbf" points="141.5,-419 141.5,-476 219.5,-476 219.5,-419 141.5,-419"/>
<text text-anchor="middle" x="180.5" y="-464" font-family="Helvetica,sans-Serif" font-size="10.00">IEnumerable</text>
<polyline fill="none" stroke="#bfbfbf" points="141.5,-457 219.5,-457 "/>
<text text-anchor="middle" x="180.5" y="-445" font-family="Helvetica,sans-Serif" font-size="10.00"> </text>
<polyline fill="none" stroke="#bfbfbf" points="141.5,-438 219.5,-438 "/>
<text text-anchor="middle" x="180.5" y="-426" font-family="Helvetica,sans-Serif" font-size="10.00"> </text>
</a>
</g>
</g>
<!-- Node4&#45;&gt;Node1 -->
<g id="edge3" class="edge">
<title>Node4&#45;&gt;Node1</title>
<path fill="none" stroke="midnightblue" d="M227.27,-413.7C227.68,-413.46 228.09,-413.23 228.5,-413 367.74,-334.5 539.8,-263.31 642.6,-223.29"/>
<polygon fill="none" stroke="midnightblue" points="225.33,-410.78 218.59,-418.95 228.96,-416.77 225.33,-410.78"/>
</g>
<!-- Node5 -->
<g id="node5" class="node">
<title>Node5</title>
<g id="a_node5"><a xlink:title=" ">
<polygon fill="none" stroke="#bfbfbf" points="238,-419 238,-476 359,-476 359,-419 238,-419"/>
<text text-anchor="middle" x="298.5" y="-464" font-family="Helvetica,sans-Serif" font-size="10.00">IList&lt; AudioDevice &gt;</text>
<polyline fill="none" stroke="#bfbfbf" points="238,-457 359,-457 "/>
<text text-anchor="middle" x="298.5" y="-445" font-family="Helvetica,sans-Serif" font-size="10.00"> </text>
<polyline fill="none" stroke="#bfbfbf" points="238,-438 359,-438 "/>
<text text-anchor="middle" x="298.5" y="-426" font-family="Helvetica,sans-Serif" font-size="10.00"> </text>
</a>
</g>
</g>
<!-- Node5&#45;&gt;Node1 -->
<g id="edge4" class="edge">
<title>Node5&#45;&gt;Node1</title>
<path fill="none" stroke="midnightblue" d="M353.99,-413.64C426.91,-370.46 555.89,-294.08 642.77,-242.63"/>
<polygon fill="none" stroke="midnightblue" points="351.77,-410.89 344.95,-419 355.33,-416.91 351.77,-410.89"/>
</g>
<!-- Node6 -->
<g id="node6" class="node">
<title>Node6</title>
<g id="a_node6"><a xlink:title=" ">
<polygon fill="none" stroke="#bfbfbf" points="377.5,-419 377.5,-476 551.5,-476 551.5,-419 377.5,-419"/>
<text text-anchor="middle" x="464.5" y="-464" font-family="Helvetica,sans-Serif" font-size="10.00">IImmutableList&lt; AudioDevice &gt;</text>
<polyline fill="none" stroke="#bfbfbf" points="377.5,-457 551.5,-457 "/>
<text text-anchor="middle" x="464.5" y="-445" font-family="Helvetica,sans-Serif" font-size="10.00"> </text>
<polyline fill="none" stroke="#bfbfbf" points="377.5,-438 551.5,-438 "/>
<text text-anchor="middle" x="464.5" y="-426" font-family="Helvetica,sans-Serif" font-size="10.00"> </text>
</a>
</g>
</g>
<!-- Node6&#45;&gt;Node1 -->
<g id="edge5" class="edge">
<title>Node6&#45;&gt;Node1</title>
<path fill="none" stroke="midnightblue" d="M500.6,-411.88C536.91,-377.06 594.33,-322 642.95,-275.38"/>
<polygon fill="none" stroke="midnightblue" points="497.98,-409.55 493.18,-419 502.82,-414.6 497.98,-409.55"/>
</g>
<!-- Node7 -->
<g id="node7" class="node">
<title>Node7</title>
<g id="a_node7"><a xlink:title=" ">
<polygon fill="none" stroke="#bfbfbf" points="569.5,-419 569.5,-476 721.5,-476 721.5,-419 569.5,-419"/>
<text text-anchor="middle" x="645.5" y="-464" font-family="Helvetica,sans-Serif" font-size="10.00">ICollection&lt; AudioDevice &gt;</text>
<polyline fill="none" stroke="#bfbfbf" points="569.5,-457 721.5,-457 "/>
<text text-anchor="middle" x="645.5" y="-445" font-family="Helvetica,sans-Serif" font-size="10.00"> </text>
<polyline fill="none" stroke="#bfbfbf" points="569.5,-438 721.5,-438 "/>
<text text-anchor="middle" x="645.5" y="-426" font-family="Helvetica,sans-Serif" font-size="10.00"> </text>
</a>
</g>
</g>
<!-- Node7&#45;&gt;Node1 -->
<g id="edge6" class="edge">
<title>Node7&#45;&gt;Node1</title>
<path fill="none" stroke="midnightblue" d="M658.04,-409.47C661.31,-399.8 665.07,-388.7 669.12,-376.73"/>
<polygon fill="none" stroke="midnightblue" points="654.7,-408.4 654.81,-419 661.33,-410.65 654.7,-408.4"/>
</g>
<!-- Node8 -->
<g id="node8" class="node">
<title>Node8</title>
<g id="a_node8"><a xlink:title=" ">
<polygon fill="none" stroke="#bfbfbf" points="739.5,-419 739.5,-476 901.5,-476 901.5,-419 739.5,-419"/>
<text text-anchor="middle" x="820.5" y="-464" font-family="Helvetica,sans-Serif" font-size="10.00">IEnumerable&lt; AudioDevice &gt;</text>
<polyline fill="none" stroke="#bfbfbf" points="739.5,-457 901.5,-457 "/>
<text text-anchor="middle" x="820.5" y="-445" font-family="Helvetica,sans-Serif" font-size="10.00"> </text>
<polyline fill="none" stroke="#bfbfbf" points="739.5,-438 901.5,-438 "/>
<text text-anchor="middle" x="820.5" y="-426" font-family="Helvetica,sans-Serif" font-size="10.00"> </text>
</a>
</g>
</g>
<!-- Node8&#45;&gt;Node1 -->
<g id="edge7" class="edge">
<title>Node8&#45;&gt;Node1</title>
<path fill="none" stroke="midnightblue" d="M807.82,-409.47C804.51,-399.8 800.71,-388.7 796.61,-376.73"/>
<polygon fill="none" stroke="midnightblue" points="804.53,-410.67 811.08,-419 811.15,-408.4 804.53,-410.67"/>
</g>
<!-- Node9 -->
<g id="node9" class="node">
<title>Node9</title>
<g id="a_node9"><a xlink:title=" ">
<polygon fill="none" stroke="#bfbfbf" points="919.5,-419 919.5,-476 1087.5,-476 1087.5,-419 919.5,-419"/>
<text text-anchor="middle" x="1003.5" y="-464" font-family="Helvetica,sans-Serif" font-size="10.00">IReadOnlyList&lt; AudioDevice &gt;</text>
<polyline fill="none" stroke="#bfbfbf" points="919.5,-457 1087.5,-457 "/>
<text text-anchor="middle" x="1003.5" y="-445" font-family="Helvetica,sans-Serif" font-size="10.00"> </text>
<polyline fill="none" stroke="#bfbfbf" points="919.5,-438 1087.5,-438 "/>
<text text-anchor="middle" x="1003.5" y="-426" font-family="Helvetica,sans-Serif" font-size="10.00"> </text>
</a>
</g>
</g>
<!-- Node9&#45;&gt;Node1 -->
<g id="edge8" class="edge">
<title>Node9&#45;&gt;Node1</title>
<path fill="none" stroke="midnightblue" d="M966.95,-411.84C930.01,-376.81 871.49,-321.31 822.16,-274.53"/>
<polygon fill="none" stroke="midnightblue" points="964.83,-414.65 974.5,-419 969.65,-409.58 964.83,-414.65"/>
</g>
<!-- Node10 -->
<g id="node10" class="node">
<title>Node10</title>
<g id="a_node10"><a xlink:title=" ">
<polygon fill="none" stroke="#bfbfbf" points="1105.5,-413.5 1105.5,-481.5 1221.5,-481.5 1221.5,-413.5 1105.5,-413.5"/>
<text text-anchor="start" x="1113.5" y="-469.5" font-family="Helvetica,sans-Serif" font-size="10.00">IReadOnlyCollection</text>
<text text-anchor="middle" x="1163.5" y="-458.5" font-family="Helvetica,sans-Serif" font-size="10.00">&lt; AudioDevice &gt;</text>
<polyline fill="none" stroke="#bfbfbf" points="1105.5,-451.5 1221.5,-451.5 "/>
<text text-anchor="middle" x="1163.5" y="-439.5" font-family="Helvetica,sans-Serif" font-size="10.00"> </text>
<polyline fill="none" stroke="#bfbfbf" points="1105.5,-432.5 1221.5,-432.5 "/>
<text text-anchor="middle" x="1163.5" y="-420.5" font-family="Helvetica,sans-Serif" font-size="10.00"> </text>
</a>
</g>
</g>
<!-- Node10&#45;&gt;Node1 -->
<g id="edge9" class="edge">
<title>Node10&#45;&gt;Node1</title>
<path fill="none" stroke="midnightblue" d="M1099.32,-408.23C1025.85,-364.42 905.02,-292.37 822.25,-243.02"/>
<polygon fill="none" stroke="midnightblue" points="1097.66,-411.31 1108.04,-413.43 1101.24,-405.3 1097.66,-411.31"/>
</g>
<!-- Node11 -->
<g id="node11" class="node">
<title>Node11</title>
<g id="a_node11"><a xlink:title=" ">
<polygon fill="none" stroke="#bfbfbf" points="1239.5,-419 1239.5,-476 1379.5,-476 1379.5,-419 1239.5,-419"/>
<text text-anchor="middle" x="1309.5" y="-464" font-family="Helvetica,sans-Serif" font-size="10.00">INotifyCollectionChanged</text>
<polyline fill="none" stroke="#bfbfbf" points="1239.5,-457 1379.5,-457 "/>
<text text-anchor="middle" x="1309.5" y="-445" font-family="Helvetica,sans-Serif" font-size="10.00"> </text>
<polyline fill="none" stroke="#bfbfbf" points="1239.5,-438 1379.5,-438 "/>
<text text-anchor="middle" x="1309.5" y="-426" font-family="Helvetica,sans-Serif" font-size="10.00"> </text>
</a>
</g>
</g>
<!-- Node11&#45;&gt;Node1 -->
<g id="edge10" class="edge">
<title>Node11&#45;&gt;Node1</title>
<path fill="none" stroke="midnightblue" d="M1238.5,-414.87C1133.47,-368.09 936.79,-280.49 822.02,-229.37"/>
<polygon fill="none" stroke="midnightblue" points="1237.19,-418.12 1247.75,-419 1240.04,-411.73 1237.19,-418.12"/>
</g>
<!-- Node12 -->
<g id="node12" class="node">
<title>Node12</title>
<g id="a_node12"><a xlink:title=" ">
<polygon fill="none" stroke="#bfbfbf" points="1398,-419 1398,-476 1531,-476 1531,-419 1398,-419"/>
<text text-anchor="middle" x="1464.5" y="-464" font-family="Helvetica,sans-Serif" font-size="10.00">INotifyPropertyChanged</text>
<polyline fill="none" stroke="#bfbfbf" points="1398,-457 1531,-457 "/>
<text text-anchor="middle" x="1464.5" y="-445" font-family="Helvetica,sans-Serif" font-size="10.00"> </text>
<polyline fill="none" stroke="#bfbfbf" points="1398,-438 1531,-438 "/>
<text text-anchor="middle" x="1464.5" y="-426" font-family="Helvetica,sans-Serif" font-size="10.00"> </text>
</a>
</g>
</g>
<!-- Node12&#45;&gt;Node1 -->
<g id="edge11" class="edge">
<title>Node12&#45;&gt;Node1</title>
<path fill="none" stroke="midnightblue" d="M1393.99,-415.17C1392.15,-414.43 1390.31,-413.71 1388.5,-413 1188.83,-335.15 949.42,-257.43 822.25,-217.35"/>
<polygon fill="none" stroke="midnightblue" points="1392.72,-418.43 1403.3,-418.98 1395.37,-411.95 1392.72,-418.43"/>
</g>
<!-- Node13 -->
<g id="node13" class="node">
<title>Node13</title>
<g id="a_node13"><a xlink:title=" ">
<polygon fill="none" stroke="#bfbfbf" points="1549.5,-419 1549.5,-476 1623.5,-476 1623.5,-419 1549.5,-419"/>
<text text-anchor="middle" x="1586.5" y="-464" font-family="Helvetica,sans-Serif" font-size="10.00">IDisposable</text>
<polyline fill="none" stroke="#bfbfbf" points="1549.5,-457 1623.5,-457 "/>
<text text-anchor="middle" x="1586.5" y="-445" font-family="Helvetica,sans-Serif" font-size="10.00"> </text>
<polyline fill="none" stroke="#bfbfbf" points="1549.5,-438 1623.5,-438 "/>
<text text-anchor="middle" x="1586.5" y="-426" font-family="Helvetica,sans-Serif" font-size="10.00"> </text>
</a>
</g>
</g>
<!-- Node13&#45;&gt;Node1 -->
<g id="edge12" class="edge">
<title>Node13&#45;&gt;Node1</title>
<path fill="none" stroke="midnightblue" d="M1542.17,-413.83C1541.61,-413.54 1541.06,-413.27 1540.5,-413 1294.73,-294.38 975.53,-229.63 822.3,-203.46"/>
<polygon fill="none" stroke="midnightblue" points="1540.69,-417.01 1551.12,-418.87 1544.12,-410.91 1540.69,-417.01"/>
</g>
</g>
</svg>
        <g id="navigator" transform="translate(0 0)" fill="#404254">
                <rect fill="#f2f5e9" fill-opacity="0.5" stroke="#606060" stroke-width=".5" x="0" y="0" width="60" height="60"/>
                <use id="zoomplus" xlink:href="#zoomPlus" x="17" y="9" onmousedown="handleZoom(evt,'in')"/>
                <use id="zoomminus" xlink:href="#zoomMin" x="42" y="9" onmousedown="handleZoom(evt,'out')"/>
                <use id="reset" xlink:href="#resetDef" x="30" y="36" onmousedown="handleReset()"/>
                <g id="arrowUp" xlink:href="#dirArrow" transform="translate(30 24)" onmousedown="handlePan(0,-1)">
                  <use xlink:href="#rim" fill="#404040">
                        <set attributeName="fill" to="#808080" begin="arrowUp.mouseover" end="arrowUp.mouseout"/>
                  </use>
                  <path fill="none" stroke="white" stroke-width="1.5" d="M0,-3.0v7 M-2.5,-0.5L0,-3.0L2.5,-0.5"/>
                </g>
                <g id="arrowRight" xlink:href="#dirArrow" transform="rotate(90) translate(36 -43)" onmousedown="handlePan(1,0)">
                  <use xlink:href="#rim" fill="#404040">
                        <set attributeName="fill" to="#808080" begin="arrowRight.mouseover" end="arrowRight.mouseout"/>
                  </use>
                  <path fill="none" stroke="white" stroke-width="1.5" d="M0,-3.0v7 M-2.5,-0.5L0,-3.0L2.5,-0.5"/>
                </g>
                <g id="arrowDown" xlink:href="#dirArrow" transform="rotate(180) translate(-30 -48)" onmousedown="handlePan(0,1)">
                  <use xlink:href="#rim" fill="#404040">
                        <set attributeName="fill" to="#808080" begin="arrowDown.mouseover" end="arrowDown.mouseout"/>
                  </use>
                  <path fill="none" stroke="white" stroke-width="1.5" d="M0,-3.0v7 M-2.5,-0.5L0,-3.0L2.5,-0.5"/>
                </g>
                <g id="arrowLeft" xlink:href="#dirArrow" transform="rotate(270) translate(-36 17)" onmousedown="handlePan(-1,0)">
                  <use xlink:href="#rim" fill="#404040">
                        <set attributeName="fill" to="#808080" begin="arrowLeft.mouseover" end="arrowLeft.mouseout"/>
                  </use>
                  <path fill="none" stroke="white" stroke-width="1.5" d="M0,-3.0v7 M-2.5,-0.5L0,-3.0L2.5,-0.5"/>
                </g>
        </g>
        <svg viewBox="0 0 15 15" width="100%" height="30px" preserveAspectRatio="xMaxYMin meet">
         <g id="arrow_out" transform="scale(0.3 0.3)">
          <a xlink:href="class_volume_control_1_1_audio_1_1_collections_1_1_audio_device_collection__inherit__graph_org.svg" target="_base">
           <rect id="button" ry="5" rx="5" y="6" x="6" height="38" width="38"
                fill="#f2f5e9" fill-opacity="0.5" stroke="#606060" stroke-width="1.0"/>
           <path id="arrow"
             d="M 11.500037,31.436501 C 11.940474,20.09759 22.043105,11.32322 32.158766,21.979434 L 37.068811,17.246167 C 37.068811,17.246167 37.088388,32 37.088388,32 L 22.160133,31.978069 C 22.160133,31.978069 26.997745,27.140456 26.997745,27.140456 C 18.528582,18.264221 13.291696,25.230495 11.500037,31.436501 z"
             style="fill:#404040;"/>
          </a>
         </g>
        </svg>
</svg>
