<?xml version="1.0" encoding="UTF-8" standalone="no"?>
<!DOCTYPE svg PUBLIC "-//W3C//DTD SVG 1.1//EN"
 "http://www.w3.org/Graphics/SVG/1.1/DTD/svg11.dtd">
<!-- Generated by graphviz version 2.44.1 (20200629.0800)
 -->
<!-- Title: VolumeControl.WPF.Collections.ObservableList&lt; T &gt; Pages: 1 -->
<svg width="168pt" height="182pt"
 viewBox="0.00 0.00 168.00 182.00" xmlns="http://www.w3.org/2000/svg" xmlns:xlink="http://www.w3.org/1999/xlink">
<g id="graph0" class="graph" transform="scale(1 1) rotate(0) translate(4 178)">
<title>VolumeControl.WPF.Collections.ObservableList&lt; T &gt;</title>
<!-- Node1 -->
<g id="node1" class="node">
<title>Node1</title>
<g id="a_node1"><a xlink:title=" ">
<polygon fill="#bfbfbf" stroke="black" points="0,-0.5 0,-79.5 160,-79.5 160,-0.5 0,-0.5"/>
<text text-anchor="start" x="8" y="-67.5" font-family="Helvetica,sans-Serif" font-size="10.00">VolumeControl.WPF.Collections.</text>
<text text-anchor="middle" x="80" y="-56.5" font-family="Helvetica,sans-Serif" font-size="10.00">ObservableList&lt; T &gt;</text>
<polyline fill="none" stroke="black" points="0,-49.5 160,-49.5 "/>
<text text-anchor="middle" x="80" y="-37.5" font-family="Helvetica,sans-Serif" font-size="10.00"> </text>
<polyline fill="none" stroke="black" points="0,-30.5 160,-30.5 "/>
<text text-anchor="start" x="8" y="-18.5" font-family="Helvetica,sans-Serif" font-size="10.00">+ AddRange()</text>
<text text-anchor="start" x="8" y="-7.5" font-family="Helvetica,sans-Serif" font-size="10.00"># InsertItem()</text>
</a>
</g>
</g>
<!-- Node2 -->
<g id="node2" class="node">
<title>Node2</title>
<g id="a_node2"><a xlink:title=" ">
<polygon fill="none" stroke="#bfbfbf" points="14.5,-116.5 14.5,-173.5 145.5,-173.5 145.5,-116.5 14.5,-116.5"/>
<text text-anchor="middle" x="80" y="-161.5" font-family="Helvetica,sans-Serif" font-size="10.00">ObservableCollection&lt; T &gt;</text>
<polyline fill="none" stroke="#bfbfbf" points="14.5,-154.5 145.5,-154.5 "/>
<text text-anchor="middle" x="80" y="-142.5" font-family="Helvetica,sans-Serif" font-size="10.00"> </text>
<polyline fill="none" stroke="#bfbfbf" points="14.5,-135.5 145.5,-135.5 "/>
<text text-anchor="middle" x="80" y="-123.5" font-family="Helvetica,sans-Serif" font-size="10.00"> </text>
</a>
</g>
</g>
<!-- Node2&#45;&gt;Node1 -->
<g id="edge1" class="edge">
<title>Node2&#45;&gt;Node1</title>
<path fill="none" stroke="midnightblue" d="M80,-106.16C80,-97.47 80,-88.23 80,-79.52"/>
<polygon fill="none" stroke="midnightblue" points="76.5,-106.4 80,-116.4 83.5,-106.4 76.5,-106.4"/>
</g>
</g>
</svg>
