<?xml version="1.0" encoding="UTF-8" standalone="no"?>
<!DOCTYPE svg PUBLIC "-//W3C//DTD SVG 1.1//EN"
 "http://www.w3.org/Graphics/SVG/1.1/DTD/svg11.dtd">
<!-- Generated by graphviz version 2.43.0 (0)
 -->
<!-- Title: VolumeControl.Core.Input.Actions.HotkeyActionPressedEventArgs Pages: 1 -->
<svg width="217pt" height="237pt"
 viewBox="0.00 0.00 217.00 237.00" xmlns="http://www.w3.org/2000/svg" xmlns:xlink="http://www.w3.org/1999/xlink">
<g id="graph0" class="graph" transform="scale(1 1) rotate(0) translate(4 233)">
<title>VolumeControl.Core.Input.Actions.HotkeyActionPressedEventArgs</title>
<!-- Node1 -->
<g id="node1" class="node">
<title>Node1</title>
<g id="a_node1"><a xlink:title="Event arguments for the IHotkeyAction.HandleKeyEvent(object?, HotkeyActionPressedEventArgs) handler m...">
<polygon fill="#bfbfbf" stroke="black" points="0,-0.5 0,-134.5 209,-134.5 209,-0.5 0,-0.5"/>
<text text-anchor="start" x="8" y="-122.5" font-family="Helvetica,sans-Serif" font-size="10.00">VolumeControl.Core.Input.</text>
<text text-anchor="middle" x="104.5" y="-111.5" font-family="Helvetica,sans-Serif" font-size="10.00">Actions.HotkeyActionPressedEventArgs</text>
<polyline fill="none" stroke="black" points="0,-104.5 209,-104.5 "/>
<text text-anchor="start" x="8" y="-92.5" font-family="Helvetica,sans-Serif" font-size="10.00">+ ActionSettings</text>
<polyline fill="none" stroke="black" points="0,-85.5 209,-85.5 "/>
<text text-anchor="start" x="8" y="-73.5" font-family="Helvetica,sans-Serif" font-size="10.00">+ HotkeyActionPressedEvent</text>
<text text-anchor="start" x="8" y="-62.5" font-family="Helvetica,sans-Serif" font-size="10.00">Args()</text>
<text text-anchor="start" x="8" y="-51.5" font-family="Helvetica,sans-Serif" font-size="10.00">+ HotkeyActionPressedEvent</text>
<text text-anchor="start" x="8" y="-40.5" font-family="Helvetica,sans-Serif" font-size="10.00">Args()</text>
<text text-anchor="start" x="8" y="-29.5" font-family="Helvetica,sans-Serif" font-size="10.00">+ FindActionSetting()</text>
<text text-anchor="start" x="8" y="-18.5" font-family="Helvetica,sans-Serif" font-size="10.00">+ GetActionSettingValue</text>
<text text-anchor="start" x="8" y="-7.5" font-family="Helvetica,sans-Serif" font-size="10.00">&lt; T &gt;()</text>
</a>
</g>
</g>
<!-- Node2 -->
<g id="node2" class="node">
<title>Node2</title>
<g id="a_node2"><a xlink:title=" ">
<polygon fill="none" stroke="#bfbfbf" points="51,-171.5 51,-228.5 158,-228.5 158,-171.5 51,-171.5"/>
<text text-anchor="middle" x="104.5" y="-216.5" font-family="Helvetica,sans-Serif" font-size="10.00">HandledEventArgs</text>
<polyline fill="none" stroke="#bfbfbf" points="51,-209.5 158,-209.5 "/>
<text text-anchor="middle" x="104.5" y="-197.5" font-family="Helvetica,sans-Serif" font-size="10.00"> </text>
<polyline fill="none" stroke="#bfbfbf" points="51,-190.5 158,-190.5 "/>
<text text-anchor="middle" x="104.5" y="-178.5" font-family="Helvetica,sans-Serif" font-size="10.00"> </text>
</a>
</g>
</g>
<!-- Node2&#45;&gt;Node1 -->
<g id="edge1" class="edge">
<title>Node2&#45;&gt;Node1</title>
<path fill="none" stroke="midnightblue" d="M104.5,-161.16C104.5,-152.78 104.5,-143.67 104.5,-134.53"/>
<polygon fill="none" stroke="midnightblue" points="101,-161.32 104.5,-171.32 108,-161.32 101,-161.32"/>
</g>
</g>
</svg>
