<?xml version="1.0" encoding="UTF-8" standalone="no"?>
<!DOCTYPE svg PUBLIC "-//W3C//DTD SVG 1.1//EN"
 "http://www.w3.org/Graphics/SVG/1.1/DTD/svg11.dtd">
<!-- Generated by graphviz version 2.43.0 (0)
 -->
<!-- Title: VolumeControl.CoreAudio.AudioDeviceSelector.SelectDefaultDevice Pages: 1 -->
<svg width="642pt" height="78pt"
 viewBox="0.00 0.00 642.00 77.50" xmlns="http://www.w3.org/2000/svg" xmlns:xlink="http://www.w3.org/1999/xlink">
<g id="graph0" class="graph" transform="scale(1 1) rotate(0) translate(4 73.5)">
<title>VolumeControl.CoreAudio.AudioDeviceSelector.SelectDefaultDevice</title>
<!-- Node1 -->
<g id="node1" class="node">
<title>Node1</title>
<g id="a_node1"><a xlink:title="Changes the Selected item to the default Multimedia audio device.">
<polygon fill="#bfbfbf" stroke="black" points="0,-17 0,-58 186,-58 186,-17 0,-17"/>
<text text-anchor="start" x="8" y="-46" font-family="Helvetica,sans-Serif" font-size="10.00">VolumeControl.CoreAudio.</text>
<text text-anchor="start" x="8" y="-35" font-family="Helvetica,sans-Serif" font-size="10.00">AudioDeviceSelector.SelectDefault</text>
<text text-anchor="middle" x="93" y="-24" font-family="Helvetica,sans-Serif" font-size="10.00">Device</text>
</a>
</g>
</g>
<!-- Node2 -->
<g id="node2" class="node">
<title>Node2</title>
<g id="a_node2"><a xlink:href="class_volume_control_1_1_core_audio_1_1_audio_device_manager.html#ac6aac6e1b31328d60c9ff21a11890151" target="_top" xlink:title="Gets the default device for the specified dataFlow &#160;&amp; deviceRole .">
<polygon fill="none" stroke="black" points="222,-17 222,-58 398,-58 398,-17 222,-17"/>
<text text-anchor="start" x="230" y="-46" font-family="Helvetica,sans-Serif" font-size="10.00">VolumeControl.CoreAudio.</text>
<text text-anchor="start" x="230" y="-35" font-family="Helvetica,sans-Serif" font-size="10.00">AudioDeviceManager.GetDefault</text>
<text text-anchor="middle" x="310" y="-24" font-family="Helvetica,sans-Serif" font-size="10.00">Device</text>
</a>
</g>
</g>
<!-- Node1&#45;&gt;Node2 -->
<g id="edge1" class="edge">
<title>Node1&#45;&gt;Node2</title>
<path fill="none" stroke="midnightblue" d="M186.11,-37.5C194.54,-37.5 203.1,-37.5 211.57,-37.5"/>
<polygon fill="midnightblue" stroke="midnightblue" points="211.85,-41 221.85,-37.5 211.85,-34 211.85,-41"/>
</g>
<!-- Node3 -->
<g id="node3" class="node">
<title>Node3</title>
<g id="a_node3"><a xlink:href="class_volume_control_1_1_log_1_1_f_log.html#ad09321e60c917e6a06243fa7743f412d" target="_top" xlink:title=" ">
<polygon fill="none" stroke="black" points="453.5,-50 453.5,-69 614.5,-69 614.5,-50 453.5,-50"/>
<text text-anchor="middle" x="534" y="-57" font-family="Helvetica,sans-Serif" font-size="10.00">VolumeControl.Log.FLog.Error</text>
</a>
</g>
</g>
<!-- Node2&#45;&gt;Node3 -->
<g id="edge2" class="edge">
<title>Node2&#45;&gt;Node3</title>
<path fill="none" stroke="midnightblue" d="M398.1,-46.13C412.91,-47.6 428.31,-49.13 443.18,-50.6"/>
<polygon fill="midnightblue" stroke="midnightblue" points="443.08,-54.11 453.38,-51.61 443.77,-47.14 443.08,-54.11"/>
</g>
<!-- Node4 -->
<g id="node4" class="node">
<title>Node4</title>
<g id="a_node4"><a xlink:href="class_volume_control_1_1_core_audio_1_1_audio_device_manager.html#ae55cdb8375a591e11e444aa62dd355a9" target="_top" xlink:title="Gets the AudioDevice instance associated with the given deviceID &#160;string. (MMDevice....">
<polygon fill="none" stroke="black" points="434,-0.5 434,-30.5 634,-30.5 634,-0.5 434,-0.5"/>
<text text-anchor="start" x="442" y="-18.5" font-family="Helvetica,sans-Serif" font-size="10.00">VolumeControl.CoreAudio.</text>
<text text-anchor="middle" x="534" y="-7.5" font-family="Helvetica,sans-Serif" font-size="10.00">AudioDeviceManager.FindDeviceByID</text>
</a>
</g>
</g>
<!-- Node2&#45;&gt;Node4 -->
<g id="edge3" class="edge">
<title>Node2&#45;&gt;Node4</title>
<path fill="none" stroke="midnightblue" d="M398.1,-28.87C406.48,-28.04 415.06,-27.19 423.62,-26.34"/>
<polygon fill="midnightblue" stroke="midnightblue" points="424.04,-29.81 433.65,-25.35 423.35,-22.85 424.04,-29.81"/>
</g>
</g>
</svg>
