<?xml version="1.0" encoding="UTF-8" standalone="no"?>
<!DOCTYPE svg PUBLIC "-//W3C//DTD SVG 1.1//EN"
 "http://www.w3.org/Graphics/SVG/1.1/DTD/svg11.dtd">
<!-- Generated by graphviz version 2.43.0 (0)
 -->
<!-- Title: VolumeControl.Core.Input.HotkeyManager.ClearHotkeys Pages: 1 -->
<svg width="557pt" height="39pt"
 viewBox="0.00 0.00 557.00 39.00" xmlns="http://www.w3.org/2000/svg" xmlns:xlink="http://www.w3.org/1999/xlink">
<g id="graph0" class="graph" transform="scale(1 1) rotate(0) translate(4 35)">
<title>VolumeControl.Core.Input.HotkeyManager.ClearHotkeys</title>
<!-- Node1 -->
<g id="node1" class="node">
<title>Node1</title>
<g id="a_node1"><a xlink:title="Removes all hotkeys from the manager.">
<polygon fill="#bfbfbf" stroke="black" points="0,-0.5 0,-30.5 161,-30.5 161,-0.5 0,-0.5"/>
<text text-anchor="start" x="8" y="-18.5" font-family="Helvetica,sans-Serif" font-size="10.00">VolumeControl.Core.Input.</text>
<text text-anchor="middle" x="80.5" y="-7.5" font-family="Helvetica,sans-Serif" font-size="10.00">HotkeyManager.ClearHotkeys</text>
</a>
</g>
</g>
<!-- Node2 -->
<g id="node2" class="node">
<title>Node2</title>
<g id="a_node2"><a xlink:href="class_volume_control_1_1_core_1_1_input_1_1_hotkey_manager.html#a8c582a292d4a72ef3caada32eff31cfe" target="_top" xlink:title="Removes the specified hotkey &#160;from the manager.">
<polygon fill="none" stroke="black" points="197,-0.5 197,-30.5 368,-30.5 368,-0.5 197,-0.5"/>
<text text-anchor="start" x="205" y="-18.5" font-family="Helvetica,sans-Serif" font-size="10.00">VolumeControl.Core.Input.</text>
<text text-anchor="middle" x="282.5" y="-7.5" font-family="Helvetica,sans-Serif" font-size="10.00">HotkeyManager.RemoveHotkey</text>
</a>
</g>
</g>
<!-- Node1&#45;&gt;Node2 -->
<g id="edge1" class="edge">
<title>Node1&#45;&gt;Node2</title>
<path fill="none" stroke="midnightblue" d="M161.12,-15.5C169.58,-15.5 178.23,-15.5 186.84,-15.5"/>
<polygon fill="midnightblue" stroke="midnightblue" points="186.9,-19 196.9,-15.5 186.9,-12 186.9,-19"/>
</g>
<!-- Node3 -->
<g id="node3" class="node">
<title>Node3</title>
<g id="a_node3"><a xlink:href="class_volume_control_1_1_core_1_1_input_1_1_hotkey.html#abc58db58ed561f5f0cac45eea2d3e8eb" target="_top" xlink:title=" ">
<polygon fill="none" stroke="black" points="404,-0.5 404,-30.5 549,-30.5 549,-0.5 404,-0.5"/>
<text text-anchor="start" x="412" y="-18.5" font-family="Helvetica,sans-Serif" font-size="10.00">VolumeControl.Core.Input.</text>
<text text-anchor="middle" x="476.5" y="-7.5" font-family="Helvetica,sans-Serif" font-size="10.00">Hotkey.Dispose</text>
</a>
</g>
</g>
<!-- Node2&#45;&gt;Node3 -->
<g id="edge2" class="edge">
<title>Node2&#45;&gt;Node3</title>
<path fill="none" stroke="midnightblue" d="M368.27,-15.5C376.7,-15.5 385.24,-15.5 393.64,-15.5"/>
<polygon fill="midnightblue" stroke="midnightblue" points="393.79,-19 403.79,-15.5 393.79,-12 393.79,-19"/>
</g>
</g>
</svg>
