<?xml version="1.0" encoding="UTF-8" standalone="no"?>
<!DOCTYPE svg PUBLIC "-//W3C//DTD SVG 1.1//EN"
 "http://www.w3.org/Graphics/SVG/1.1/DTD/svg11.dtd">
<!-- Generated by graphviz version 2.43.0 (0)
 -->
<!-- Title: VolumeControl.WPF.IconExtractor.ExtractFromPath Pages: 1 -->
<svg width="408pt" height="186pt"
 viewBox="0.00 0.00 408.00 186.00" xmlns="http://www.w3.org/2000/svg" xmlns:xlink="http://www.w3.org/1999/xlink">
<g id="graph0" class="graph" transform="scale(1 1) rotate(0) translate(4 182)">
<title>VolumeControl.WPF.IconExtractor.ExtractFromPath</title>
<!-- Node1 -->
<g id="node1" class="node">
<title>Node1</title>
<g id="a_node1"><a xlink:title="Gets an ImageSource from the specified iconPath .">
<polygon fill="#bfbfbf" stroke="black" points="0,-73.5 0,-103.5 182,-103.5 182,-73.5 0,-73.5"/>
<text text-anchor="start" x="8" y="-91.5" font-family="Helvetica,sans-Serif" font-size="10.00">VolumeControl.WPF.IconExtractor.</text>
<text text-anchor="middle" x="91" y="-80.5" font-family="Helvetica,sans-Serif" font-size="10.00">ExtractFromPath</text>
</a>
</g>
</g>
<!-- Node2 -->
<g id="node2" class="node">
<title>Node2</title>
<g id="a_node2"><a xlink:href="class_volume_control_1_1_w_p_f_1_1_icon_extractor.html#ab4461a26a9a48953388762f80f1d8549" target="_top" xlink:title="Gets an ImageSource for the specified directory.">
<polygon fill="none" stroke="black" points="218,-147.5 218,-177.5 400,-177.5 400,-147.5 218,-147.5"/>
<text text-anchor="start" x="226" y="-165.5" font-family="Helvetica,sans-Serif" font-size="10.00">VolumeControl.WPF.IconExtractor.</text>
<text text-anchor="middle" x="309" y="-154.5" font-family="Helvetica,sans-Serif" font-size="10.00">ExtractFromDirectory</text>
</a>
</g>
</g>
<!-- Node1&#45;&gt;Node2 -->
<g id="edge1" class="edge">
<title>Node1&#45;&gt;Node2</title>
<path fill="none" stroke="midnightblue" d="M126.63,-103.51C151.72,-114.08 186.6,-128.12 218,-138.5 224.4,-140.61 231.09,-142.68 237.82,-144.65"/>
<polygon fill="midnightblue" stroke="midnightblue" points="237.1,-148.08 247.68,-147.46 239.03,-141.35 237.1,-148.08"/>
</g>
<!-- Node3 -->
<g id="node3" class="node">
<title>Node3</title>
<g id="a_node3"><a xlink:href="class_volume_control_1_1_w_p_f_1_1_icon_extractor.html#ab73ef1f9865f6b6af8089e323a241fa3" target="_top" xlink:title="Gets an ImageSource from an icon in the specified dynamic&#45;link library file (.dll).">
<polygon fill="none" stroke="black" points="218,-98.5 218,-128.5 400,-128.5 400,-98.5 218,-98.5"/>
<text text-anchor="start" x="226" y="-116.5" font-family="Helvetica,sans-Serif" font-size="10.00">VolumeControl.WPF.IconExtractor.</text>
<text text-anchor="middle" x="309" y="-105.5" font-family="Helvetica,sans-Serif" font-size="10.00">ExtractFromDll</text>
</a>
</g>
</g>
<!-- Node1&#45;&gt;Node3 -->
<g id="edge2" class="edge">
<title>Node1&#45;&gt;Node3</title>
<path fill="none" stroke="midnightblue" d="M182.04,-98.92C190.53,-99.9 199.16,-100.9 207.74,-101.9"/>
<polygon fill="midnightblue" stroke="midnightblue" points="207.42,-105.38 217.76,-103.06 208.23,-98.43 207.42,-105.38"/>
</g>
<!-- Node4 -->
<g id="node4" class="node">
<title>Node4</title>
<g id="a_node4"><a xlink:href="class_volume_control_1_1_w_p_f_1_1_icon_extractor.html#a94b8170e8716109a23d06abdb7f89900" target="_top" xlink:title="Gets an ImageSource for the icon of a regular file, including executable files (.exe).">
<polygon fill="none" stroke="black" points="218,-49.5 218,-79.5 400,-79.5 400,-49.5 218,-49.5"/>
<text text-anchor="start" x="226" y="-67.5" font-family="Helvetica,sans-Serif" font-size="10.00">VolumeControl.WPF.IconExtractor.</text>
<text text-anchor="middle" x="309" y="-56.5" font-family="Helvetica,sans-Serif" font-size="10.00">ExtractFromFile</text>
</a>
</g>
</g>
<!-- Node1&#45;&gt;Node4 -->
<g id="edge3" class="edge">
<title>Node1&#45;&gt;Node4</title>
<path fill="none" stroke="midnightblue" d="M182.04,-78.5C190.53,-77.55 199.16,-76.59 207.74,-75.64"/>
<polygon fill="midnightblue" stroke="midnightblue" points="208.21,-79.11 217.76,-74.53 207.43,-72.15 208.21,-79.11"/>
</g>
<!-- Node5 -->
<g id="node5" class="node">
<title>Node5</title>
<g id="a_node5"><a xlink:href="class_volume_control_1_1_w_p_f_1_1_icon_extractor.html#a6e2dd06ef8fba196e0d4c3a0feb58c3e" target="_top" xlink:title="Gets an ImageSource from an icon file (.ico).">
<polygon fill="none" stroke="black" points="218,-0.5 218,-30.5 400,-30.5 400,-0.5 218,-0.5"/>
<text text-anchor="start" x="226" y="-18.5" font-family="Helvetica,sans-Serif" font-size="10.00">VolumeControl.WPF.IconExtractor.</text>
<text text-anchor="middle" x="309" y="-7.5" font-family="Helvetica,sans-Serif" font-size="10.00">ExtractFromIcoFile</text>
</a>
</g>
</g>
<!-- Node1&#45;&gt;Node5 -->
<g id="edge4" class="edge">
<title>Node1&#45;&gt;Node5</title>
<path fill="none" stroke="midnightblue" d="M128.89,-73.41C153.84,-63.46 187.64,-50.47 218,-40.5 225.37,-38.08 233.12,-35.69 240.86,-33.41"/>
<polygon fill="midnightblue" stroke="midnightblue" points="242,-36.72 250.63,-30.58 240.05,-30 242,-36.72"/>
</g>
</g>
</svg>
