<?xml version="1.0" encoding="UTF-8" standalone="no"?>
<!DOCTYPE svg PUBLIC "-//W3C//DTD SVG 1.1//EN"
 "http://www.w3.org/Graphics/SVG/1.1/DTD/svg11.dtd">
<!-- Generated by graphviz version 2.43.0 (0)
 -->
<!-- Title: VolumeControl.Audio.AudioSession Pages: 1 -->
<svg width="836pt" height="1042pt"
 viewBox="0.00 0.00 835.71 1042.00" xmlns="http://www.w3.org/2000/svg" xmlns:xlink="http://www.w3.org/1999/xlink">
<g id="graph0" class="graph" transform="scale(1 1) rotate(0) translate(4 1038)">
<title>VolumeControl.Audio.AudioSession</title>
<!-- Node1 -->
<g id="node1" class="node">
<title>Node1</title>
<g id="a_node1"><a xlink:title="Represents an audio session playing on the system.">
<polygon fill="#bfbfbf" stroke="black" points="284.71,-0.5 284.71,-442.5 434.71,-442.5 434.71,-0.5 284.71,-0.5"/>
<text text-anchor="start" x="292.71" y="-430.5" font-family="Helvetica,sans-Serif" font-size="10.00">VolumeControl.Audio.Audio</text>
<text text-anchor="middle" x="359.71" y="-419.5" font-family="Helvetica,sans-Serif" font-size="10.00">Session</text>
<polyline fill="none" stroke="black" points="284.71,-412.5 434.71,-412.5 "/>
<text text-anchor="start" x="292.71" y="-400.5" font-family="Helvetica,sans-Serif" font-size="10.00">+ AudioMeterInformation</text>
<text text-anchor="start" x="292.71" y="-389.5" font-family="Helvetica,sans-Serif" font-size="10.00">+ PeakMeterValue</text>
<text text-anchor="start" x="292.71" y="-378.5" font-family="Helvetica,sans-Serif" font-size="10.00">+ HashCode</text>
<text text-anchor="start" x="292.71" y="-367.5" font-family="Helvetica,sans-Serif" font-size="10.00">+ VolumeController</text>
<text text-anchor="start" x="292.71" y="-356.5" font-family="Helvetica,sans-Serif" font-size="10.00">+ State</text>
<text text-anchor="start" x="292.71" y="-345.5" font-family="Helvetica,sans-Serif" font-size="10.00">+ IconPath</text>
<text text-anchor="start" x="292.71" y="-334.5" font-family="Helvetica,sans-Serif" font-size="10.00">+ Icon</text>
<text text-anchor="start" x="292.71" y="-323.5" font-family="Helvetica,sans-Serif" font-size="10.00">+ ProcessIdentifier</text>
<text text-anchor="start" x="292.71" y="-312.5" font-family="Helvetica,sans-Serif" font-size="10.00">+ Active</text>
<text text-anchor="start" x="292.71" y="-301.5" font-family="Helvetica,sans-Serif" font-size="10.00">+ DisplayControls</text>
<text text-anchor="start" x="292.71" y="-290.5" font-family="Helvetica,sans-Serif" font-size="10.00">+ DisplayIcon</text>
<text text-anchor="start" x="292.71" y="-279.5" font-family="Helvetica,sans-Serif" font-size="10.00">+ int</text>
<text text-anchor="start" x="292.71" y="-268.5" font-family="Helvetica,sans-Serif" font-size="10.00">+ SessionIdentifier</text>
<text text-anchor="start" x="292.71" y="-257.5" font-family="Helvetica,sans-Serif" font-size="10.00">+ SessionInstanceIdentifier</text>
<text text-anchor="start" x="292.71" y="-246.5" font-family="Helvetica,sans-Serif" font-size="10.00">+ Icons</text>
<text text-anchor="start" x="292.71" y="-235.5" font-family="Helvetica,sans-Serif" font-size="10.00">+ Volume</text>
<text text-anchor="start" x="292.71" y="-224.5" font-family="Helvetica,sans-Serif" font-size="10.00">+ NativeVolume</text>
<text text-anchor="start" x="292.71" y="-213.5" font-family="Helvetica,sans-Serif" font-size="10.00">+ Muted</text>
<text text-anchor="start" x="292.71" y="-202.5" font-family="Helvetica,sans-Serif" font-size="10.00">+ GroupingParam</text>
<text text-anchor="start" x="292.71" y="-191.5" font-family="Helvetica,sans-Serif" font-size="10.00">+ DisplayName</text>
<text text-anchor="start" x="292.71" y="-180.5" font-family="Helvetica,sans-Serif" font-size="10.00">+ ProcessName</text>
<text text-anchor="start" x="292.71" y="-169.5" font-family="Helvetica,sans-Serif" font-size="10.00">+ PID</text>
<text text-anchor="start" x="292.71" y="-158.5" font-family="Helvetica,sans-Serif" font-size="10.00">+ IsRunning</text>
<text text-anchor="start" x="292.71" y="-147.5" font-family="Helvetica,sans-Serif" font-size="10.00">+ NotificationClient</text>
<text text-anchor="start" x="292.71" y="-136.5" font-family="Helvetica,sans-Serif" font-size="10.00">+ Process</text>
<text text-anchor="start" x="292.71" y="-125.5" font-family="Helvetica,sans-Serif" font-size="10.00">+ Name</text>
<text text-anchor="start" x="292.71" y="-114.5" font-family="Helvetica,sans-Serif" font-size="10.00">+ DisplayText</text>
<polyline fill="none" stroke="black" points="284.71,-107.5 434.71,-107.5 "/>
<text text-anchor="start" x="292.71" y="-95.5" font-family="Helvetica,sans-Serif" font-size="10.00">+ GetIcons()</text>
<text text-anchor="start" x="292.71" y="-84.5" font-family="Helvetica,sans-Serif" font-size="10.00">+ GetProcess()</text>
<text text-anchor="start" x="292.71" y="-73.5" font-family="Helvetica,sans-Serif" font-size="10.00">+ Dispose()</text>
<text text-anchor="start" x="292.71" y="-62.5" font-family="Helvetica,sans-Serif" font-size="10.00">+ Equals()</text>
<text text-anchor="start" x="292.71" y="-51.5" font-family="Helvetica,sans-Serif" font-size="10.00">+ Equals()</text>
<text text-anchor="start" x="292.71" y="-40.5" font-family="Helvetica,sans-Serif" font-size="10.00">+ Equals()</text>
<text text-anchor="start" x="292.71" y="-29.5" font-family="Helvetica,sans-Serif" font-size="10.00">+ GetHashCode()</text>
<text text-anchor="start" x="292.71" y="-18.5" font-family="Helvetica,sans-Serif" font-size="10.00">~ AudioSession()</text>
<text text-anchor="start" x="292.71" y="-7.5" font-family="Helvetica,sans-Serif" font-size="10.00">~ NotifyExited()</text>
</a>
</g>
</g>
<!-- Node2 -->
<g id="node2" class="node">
<title>Node2</title>
<g id="a_node2"><a xlink:href="interface_volume_control_1_1_audio_1_1_interfaces_1_1_i_volume_control.html" target="_top" xlink:title="Represents some kind of controllable audio playback instance.">
<polygon fill="none" stroke="black" points="32.71,-816.5 32.71,-917.5 196.71,-917.5 196.71,-816.5 32.71,-816.5"/>
<text text-anchor="middle" x="114.71" y="-905.5" font-family="Helvetica,sans-Serif" font-size="10.00">IVolumeControl</text>
<polyline fill="none" stroke="black" points="32.71,-898.5 196.71,-898.5 "/>
<text text-anchor="start" x="40.71" y="-886.5" font-family="Helvetica,sans-Serif" font-size="10.00">+ PeakMeterValue</text>
<text text-anchor="start" x="40.71" y="-875.5" font-family="Helvetica,sans-Serif" font-size="10.00">+ NativeVolume</text>
<text text-anchor="start" x="40.71" y="-864.5" font-family="Helvetica,sans-Serif" font-size="10.00">+ Volume</text>
<text text-anchor="start" x="40.71" y="-853.5" font-family="Helvetica,sans-Serif" font-size="10.00">+ Muted</text>
<polyline fill="none" stroke="black" points="32.71,-846.5 196.71,-846.5 "/>
<text text-anchor="start" x="40.71" y="-834.5" font-family="Helvetica,sans-Serif" font-size="10.00">~ MakeListDisplayableControl</text>
<text text-anchor="start" x="40.71" y="-823.5" font-family="Helvetica,sans-Serif" font-size="10.00">Template()</text>
</a>
</g>
</g>
<!-- Node2&#45;&gt;Node1 -->
<g id="edge1" class="edge">
<title>Node2&#45;&gt;Node1</title>
<path fill="none" stroke="midnightblue" d="M50.98,-808.42C44.38,-799.58 38.66,-790.03 34.71,-780 9.99,-717.11 -34.91,-643.88 48.71,-479 99.76,-378.35 209.89,-302.73 284.42,-260.54"/>
<polygon fill="none" stroke="midnightblue" points="48.3,-810.68 57.26,-816.34 53.78,-806.33 48.3,-810.68"/>
</g>
<!-- Node5 -->
<g id="node5" class="node">
<title>Node5</title>
<g id="a_node5"><a xlink:href="interface_volume_control_1_1_audio_1_1_interfaces_1_1_i_audio_control.html" target="_top" xlink:title="Base interface type for IDevice and IProcess/ISession.">
<polygon fill="none" stroke="black" points="44.21,-722.5 44.21,-779.5 185.21,-779.5 185.21,-722.5 44.21,-722.5"/>
<text text-anchor="middle" x="114.71" y="-767.5" font-family="Helvetica,sans-Serif" font-size="10.00">IAudioControl</text>
<polyline fill="none" stroke="black" points="44.21,-760.5 185.21,-760.5 "/>
<text text-anchor="start" x="52.21" y="-748.5" font-family="Helvetica,sans-Serif" font-size="10.00">+ AudioMeterInformation</text>
<polyline fill="none" stroke="black" points="44.21,-741.5 185.21,-741.5 "/>
<text text-anchor="middle" x="114.71" y="-729.5" font-family="Helvetica,sans-Serif" font-size="10.00"> </text>
</a>
</g>
</g>
<!-- Node2&#45;&gt;Node5 -->
<g id="edge5" class="edge">
<title>Node2&#45;&gt;Node5</title>
<path fill="none" stroke="midnightblue" d="M114.71,-806.23C114.71,-796.92 114.71,-787.71 114.71,-779.59"/>
<polygon fill="none" stroke="midnightblue" points="111.21,-806.33 114.71,-816.33 118.21,-806.33 111.21,-806.33"/>
</g>
<!-- Node3 -->
<g id="node3" class="node">
<title>Node3</title>
<g id="a_node3"><a xlink:href="interface_volume_control_1_1_core_1_1_interfaces_1_1_i_list_displayable.html" target="_top" xlink:title="Represents an object that, when it is a member of a list of similar items, can be displayed in the Li...">
<polygon fill="none" stroke="black" points="198.21,-954.5 198.21,-1033.5 303.21,-1033.5 303.21,-954.5 198.21,-954.5"/>
<text text-anchor="middle" x="250.71" y="-1021.5" font-family="Helvetica,sans-Serif" font-size="10.00">IListDisplayable</text>
<polyline fill="none" stroke="black" points="198.21,-1014.5 303.21,-1014.5 "/>
<text text-anchor="start" x="206.21" y="-1002.5" font-family="Helvetica,sans-Serif" font-size="10.00">+ DisplayText</text>
<text text-anchor="start" x="206.21" y="-991.5" font-family="Helvetica,sans-Serif" font-size="10.00">+ DisplayControls</text>
<text text-anchor="start" x="206.21" y="-980.5" font-family="Helvetica,sans-Serif" font-size="10.00">+ DisplayIcon</text>
<polyline fill="none" stroke="black" points="198.21,-973.5 303.21,-973.5 "/>
<text text-anchor="middle" x="250.71" y="-961.5" font-family="Helvetica,sans-Serif" font-size="10.00"> </text>
</a>
</g>
</g>
<!-- Node3&#45;&gt;Node1 -->
<g id="edge16" class="edge">
<title>Node3&#45;&gt;Node1</title>
<path fill="none" stroke="midnightblue" d="M299.85,-947.08C342.59,-901.94 397.71,-828.83 397.71,-752 397.71,-752 397.71,-752 397.71,-639.5 397.71,-575.44 393.21,-506.07 387.31,-442.63"/>
<polygon fill="none" stroke="midnightblue" points="297.26,-944.72 292.84,-954.35 302.3,-949.58 297.26,-944.72"/>
</g>
<!-- Node3&#45;&gt;Node2 -->
<g id="edge2" class="edge">
<title>Node3&#45;&gt;Node2</title>
<path fill="none" stroke="midnightblue" d="M201.25,-947.53C190.69,-937.83 179.49,-927.54 168.78,-917.69"/>
<polygon fill="none" stroke="midnightblue" points="199.07,-950.29 208.8,-954.48 203.81,-945.13 199.07,-950.29"/>
</g>
<!-- Node4 -->
<g id="node4" class="node">
<title>Node4</title>
<g id="a_node4"><a xlink:href="interface_volume_control_1_1_audio_1_1_interfaces_1_1_i_process.html" target="_top" xlink:title="Represents read&#45;only information about a process running on the local system.">
<polygon fill="none" stroke="black" points="71.21,-595.5 71.21,-685.5 180.21,-685.5 180.21,-595.5 71.21,-595.5"/>
<text text-anchor="middle" x="125.71" y="-673.5" font-family="Helvetica,sans-Serif" font-size="10.00">IProcess</text>
<polyline fill="none" stroke="black" points="71.21,-666.5 180.21,-666.5 "/>
<text text-anchor="start" x="79.21" y="-654.5" font-family="Helvetica,sans-Serif" font-size="10.00">+ ProcessName</text>
<text text-anchor="start" x="79.21" y="-643.5" font-family="Helvetica,sans-Serif" font-size="10.00">+ PID</text>
<text text-anchor="start" x="79.21" y="-632.5" font-family="Helvetica,sans-Serif" font-size="10.00">+ ProcessIdentifier</text>
<text text-anchor="start" x="79.21" y="-621.5" font-family="Helvetica,sans-Serif" font-size="10.00">+ HashCode</text>
<polyline fill="none" stroke="black" points="71.21,-614.5 180.21,-614.5 "/>
<text text-anchor="middle" x="125.71" y="-602.5" font-family="Helvetica,sans-Serif" font-size="10.00"> </text>
</a>
</g>
</g>
<!-- Node4&#45;&gt;Node1 -->
<g id="edge3" class="edge">
<title>Node4&#45;&gt;Node1</title>
<path fill="none" stroke="midnightblue" d="M188.25,-590.95C198.59,-581.11 208.58,-570.29 216.71,-559 242.96,-522.56 265.62,-480.56 284.68,-438.85"/>
<polygon fill="none" stroke="midnightblue" points="185.65,-588.59 180.68,-597.94 190.4,-593.73 185.65,-588.59"/>
</g>
<!-- Node7 -->
<g id="node7" class="node">
<title>Node7</title>
<g id="a_node7"><a xlink:href="interface_volume_control_1_1_audio_1_1_interfaces_1_1_i_session.html" target="_top" xlink:title="Represents an audio session.">
<polygon fill="none" stroke="black" points="57.71,-479.5 57.71,-558.5 207.71,-558.5 207.71,-479.5 57.71,-479.5"/>
<text text-anchor="middle" x="132.71" y="-546.5" font-family="Helvetica,sans-Serif" font-size="10.00">ISession</text>
<polyline fill="none" stroke="black" points="57.71,-539.5 207.71,-539.5 "/>
<text text-anchor="start" x="65.71" y="-527.5" font-family="Helvetica,sans-Serif" font-size="10.00">+ Name</text>
<text text-anchor="start" x="65.71" y="-516.5" font-family="Helvetica,sans-Serif" font-size="10.00">+ SessionIdentifier</text>
<text text-anchor="start" x="65.71" y="-505.5" font-family="Helvetica,sans-Serif" font-size="10.00">+ SessionInstanceIdentifier</text>
<polyline fill="none" stroke="black" points="57.71,-498.5 207.71,-498.5 "/>
<text text-anchor="middle" x="132.71" y="-486.5" font-family="Helvetica,sans-Serif" font-size="10.00"> </text>
</a>
</g>
</g>
<!-- Node4&#45;&gt;Node7 -->
<g id="edge8" class="edge">
<title>Node4&#45;&gt;Node7</title>
<path fill="none" stroke="midnightblue" d="M128.9,-585.08C129.42,-576.23 129.95,-567.23 130.44,-558.86"/>
<polygon fill="none" stroke="midnightblue" points="125.39,-585.15 128.3,-595.34 132.38,-585.56 125.39,-585.15"/>
</g>
<!-- Node5&#45;&gt;Node4 -->
<g id="edge4" class="edge">
<title>Node5&#45;&gt;Node4</title>
<path fill="none" stroke="midnightblue" d="M118.54,-712.21C119.42,-703.61 120.35,-694.39 121.25,-685.55"/>
<polygon fill="none" stroke="midnightblue" points="115.04,-712.04 117.52,-722.34 122.01,-712.74 115.04,-712.04"/>
</g>
<!-- Node5&#45;&gt;Node7 -->
<g id="edge9" class="edge">
<title>Node5&#45;&gt;Node7</title>
<path fill="none" stroke="midnightblue" d="M78.2,-714.53C71.45,-705.89 65.38,-696.18 61.71,-686 48,-647.95 46.75,-632.57 61.71,-595 67.02,-581.67 75.94,-569.35 85.71,-558.71"/>
<polygon fill="none" stroke="midnightblue" points="75.73,-717.04 84.82,-722.47 81.11,-712.55 75.73,-717.04"/>
</g>
<!-- Node6 -->
<g id="node6" class="node">
<title>Node6</title>
<g id="a_node6"><a xlink:title=" ">
<polygon fill="none" stroke="#bfbfbf" points="221.21,-722.5 221.21,-779.5 352.21,-779.5 352.21,-722.5 221.21,-722.5"/>
<text text-anchor="middle" x="286.71" y="-767.5" font-family="Helvetica,sans-Serif" font-size="10.00">IEquatable&lt; ISession &gt;</text>
<polyline fill="none" stroke="#bfbfbf" points="221.21,-760.5 352.21,-760.5 "/>
<text text-anchor="middle" x="286.71" y="-748.5" font-family="Helvetica,sans-Serif" font-size="10.00"> </text>
<polyline fill="none" stroke="#bfbfbf" points="221.21,-741.5 352.21,-741.5 "/>
<text text-anchor="middle" x="286.71" y="-729.5" font-family="Helvetica,sans-Serif" font-size="10.00"> </text>
</a>
</g>
</g>
<!-- Node6&#45;&gt;Node1 -->
<g id="edge15" class="edge">
<title>Node6&#45;&gt;Node1</title>
<path fill="none" stroke="midnightblue" d="M322.9,-714.41C329.67,-705.78 335.83,-696.1 339.71,-686 368.97,-609.99 378.23,-521.7 378.73,-442.7"/>
<polygon fill="none" stroke="midnightblue" points="319.99,-712.43 316.28,-722.35 325.37,-716.91 319.99,-712.43"/>
</g>
<!-- Node6&#45;&gt;Node4 -->
<g id="edge6" class="edge">
<title>Node6&#45;&gt;Node4</title>
<path fill="none" stroke="midnightblue" d="M234.91,-716.67C219.93,-706.9 203.61,-696.12 188.71,-686 185.94,-684.12 183.12,-682.18 180.26,-680.21"/>
<polygon fill="none" stroke="midnightblue" points="233.27,-719.78 243.56,-722.3 237.08,-713.91 233.27,-719.78"/>
</g>
<!-- Node7&#45;&gt;Node1 -->
<g id="edge7" class="edge">
<title>Node7&#45;&gt;Node1</title>
<path fill="none" stroke="midnightblue" d="M168.59,-471.3C199.64,-430.88 245.56,-371.1 284.61,-320.26"/>
<polygon fill="none" stroke="midnightblue" points="165.71,-469.31 162.39,-479.37 171.26,-473.57 165.71,-469.31"/>
</g>
<!-- Node8 -->
<g id="node8" class="node">
<title>Node8</title>
<g id="a_node8"><a xlink:title=" ">
<polygon fill="none" stroke="#bfbfbf" points="198.21,-612 198.21,-669 331.21,-669 331.21,-612 198.21,-612"/>
<text text-anchor="middle" x="264.71" y="-657" font-family="Helvetica,sans-Serif" font-size="10.00">INotifyPropertyChanged</text>
<polyline fill="none" stroke="#bfbfbf" points="198.21,-650 331.21,-650 "/>
<text text-anchor="middle" x="264.71" y="-638" font-family="Helvetica,sans-Serif" font-size="10.00"> </text>
<polyline fill="none" stroke="#bfbfbf" points="198.21,-631 331.21,-631 "/>
<text text-anchor="middle" x="264.71" y="-619" font-family="Helvetica,sans-Serif" font-size="10.00"> </text>
</a>
</g>
</g>
<!-- Node8&#45;&gt;Node1 -->
<g id="edge11" class="edge">
<title>Node8&#45;&gt;Node1</title>
<path fill="none" stroke="midnightblue" d="M273.27,-601.93C281.77,-564.64 295.52,-504.28 309.58,-442.57"/>
<polygon fill="none" stroke="midnightblue" points="269.83,-601.29 271.02,-611.82 276.65,-602.84 269.83,-601.29"/>
</g>
<!-- Node8&#45;&gt;Node7 -->
<g id="edge10" class="edge">
<title>Node8&#45;&gt;Node7</title>
<path fill="none" stroke="midnightblue" d="M226.48,-604.89C210.5,-590.42 191.85,-573.53 175.41,-558.65"/>
<polygon fill="none" stroke="midnightblue" points="224.34,-607.67 234.1,-611.78 229.03,-602.48 224.34,-607.67"/>
</g>
<!-- Node9 -->
<g id="node9" class="node">
<title>Node9</title>
<g id="a_node9"><a xlink:title=" ">
<polygon fill="none" stroke="#bfbfbf" points="425.71,-490.5 425.71,-547.5 561.71,-547.5 561.71,-490.5 425.71,-490.5"/>
<text text-anchor="middle" x="493.71" y="-535.5" font-family="Helvetica,sans-Serif" font-size="10.00">INotifyPropertyChanging</text>
<polyline fill="none" stroke="#bfbfbf" points="425.71,-528.5 561.71,-528.5 "/>
<text text-anchor="middle" x="493.71" y="-516.5" font-family="Helvetica,sans-Serif" font-size="10.00"> </text>
<polyline fill="none" stroke="#bfbfbf" points="425.71,-509.5 561.71,-509.5 "/>
<text text-anchor="middle" x="493.71" y="-497.5" font-family="Helvetica,sans-Serif" font-size="10.00"> </text>
</a>
</g>
</g>
<!-- Node9&#45;&gt;Node1 -->
<g id="edge12" class="edge">
<title>Node9&#45;&gt;Node1</title>
<path fill="none" stroke="midnightblue" d="M477.08,-481.31C466.07,-457.03 450.76,-423.28 434.83,-388.16"/>
<polygon fill="none" stroke="midnightblue" points="473.91,-482.8 481.23,-490.47 480.29,-479.91 473.91,-482.8"/>
</g>
<!-- Node10 -->
<g id="node10" class="node">
<title>Node10</title>
<g id="a_node10"><a xlink:title=" ">
<polygon fill="none" stroke="#bfbfbf" points="579.71,-490.5 579.71,-547.5 653.71,-547.5 653.71,-490.5 579.71,-490.5"/>
<text text-anchor="middle" x="616.71" y="-535.5" font-family="Helvetica,sans-Serif" font-size="10.00">IDisposable</text>
<polyline fill="none" stroke="#bfbfbf" points="579.71,-528.5 653.71,-528.5 "/>
<text text-anchor="middle" x="616.71" y="-516.5" font-family="Helvetica,sans-Serif" font-size="10.00"> </text>
<polyline fill="none" stroke="#bfbfbf" points="579.71,-509.5 653.71,-509.5 "/>
<text text-anchor="middle" x="616.71" y="-497.5" font-family="Helvetica,sans-Serif" font-size="10.00"> </text>
</a>
</g>
</g>
<!-- Node10&#45;&gt;Node1 -->
<g id="edge13" class="edge">
<title>Node10&#45;&gt;Node1</title>
<path fill="none" stroke="midnightblue" d="M586.16,-482.87C549.06,-440.22 485.21,-366.79 434.74,-308.76"/>
<polygon fill="none" stroke="midnightblue" points="583.56,-485.22 592.77,-490.47 588.85,-480.62 583.56,-485.22"/>
</g>
<!-- Node11 -->
<g id="node11" class="node">
<title>Node11</title>
<g id="a_node11"><a xlink:title=" ">
<polygon fill="none" stroke="#bfbfbf" points="671.71,-490.5 671.71,-547.5 827.71,-547.5 827.71,-490.5 671.71,-490.5"/>
<text text-anchor="middle" x="749.71" y="-535.5" font-family="Helvetica,sans-Serif" font-size="10.00">IEquatable&lt; AudioSession &gt;</text>
<polyline fill="none" stroke="#bfbfbf" points="671.71,-528.5 827.71,-528.5 "/>
<text text-anchor="middle" x="749.71" y="-516.5" font-family="Helvetica,sans-Serif" font-size="10.00"> </text>
<polyline fill="none" stroke="#bfbfbf" points="671.71,-509.5 827.71,-509.5 "/>
<text text-anchor="middle" x="749.71" y="-497.5" font-family="Helvetica,sans-Serif" font-size="10.00"> </text>
</a>
</g>
</g>
<!-- Node11&#45;&gt;Node1 -->
<g id="edge14" class="edge">
<title>Node11&#45;&gt;Node1</title>
<path fill="none" stroke="midnightblue" d="M705.25,-484.31C639.41,-434.42 515.14,-340.26 434.95,-279.51"/>
<polygon fill="none" stroke="midnightblue" points="703.29,-487.22 713.37,-490.47 707.52,-481.64 703.29,-487.22"/>
</g>
</g>
</svg>
