<?xml version="1.0" encoding="UTF-8" standalone="no"?>
<!DOCTYPE svg PUBLIC "-//W3C//DTD SVG 1.1//EN"
 "http://www.w3.org/Graphics/SVG/1.1/DTD/svg11.dtd">
<!-- Generated by graphviz version 2.43.0 (0)
 -->
<!-- Title: VolumeControl.Core.Helpers.VCSettingsContainer Pages: 1 -->
<svg width="296pt" height="314pt"
 viewBox="0.00 0.00 295.50 314.00" xmlns="http://www.w3.org/2000/svg" xmlns:xlink="http://www.w3.org/1999/xlink">
<g id="graph0" class="graph" transform="scale(1 1) rotate(0) translate(4 310)">
<title>VolumeControl.Core.Helpers.VCSettingsContainer</title>
<!-- Node1 -->
<g id="node1" class="node">
<title>Node1</title>
<g id="a_node1"><a xlink:title="Responsible for containing the runtime state settings.">
<polygon fill="#bfbfbf" stroke="black" points="48,-0.5 48,-211.5 237,-211.5 237,-0.5 48,-0.5"/>
<text text-anchor="start" x="56" y="-199.5" font-family="Helvetica,sans-Serif" font-size="10.00">VolumeControl.Core.Helpers.</text>
<text text-anchor="middle" x="142.5" y="-188.5" font-family="Helvetica,sans-Serif" font-size="10.00">VCSettingsContainer</text>
<polyline fill="none" stroke="black" points="48,-181.5 237,-181.5 "/>
<text text-anchor="start" x="56" y="-169.5" font-family="Helvetica,sans-Serif" font-size="10.00">+ ExecutablePath</text>
<text text-anchor="start" x="56" y="-158.5" font-family="Helvetica,sans-Serif" font-size="10.00">+ ShowIcons</text>
<text text-anchor="start" x="56" y="-147.5" font-family="Helvetica,sans-Serif" font-size="10.00">+ AdvancedHotkeyMode</text>
<text text-anchor="start" x="56" y="-136.5" font-family="Helvetica,sans-Serif" font-size="10.00">+ RunAtStartup</text>
<text text-anchor="start" x="56" y="-125.5" font-family="Helvetica,sans-Serif" font-size="10.00">+ StartMinimized</text>
<text text-anchor="start" x="56" y="-114.5" font-family="Helvetica,sans-Serif" font-size="10.00">+ CheckForUpdates</text>
<text text-anchor="start" x="56" y="-103.5" font-family="Helvetica,sans-Serif" font-size="10.00">+ AllowUpdateToPreRelease</text>
<text text-anchor="start" x="56" y="-92.5" font-family="Helvetica,sans-Serif" font-size="10.00">+ ShowUpdateMessageBox</text>
<text text-anchor="start" x="56" y="-81.5" font-family="Helvetica,sans-Serif" font-size="10.00">+ NotificationEnabled</text>
<text text-anchor="start" x="56" y="-70.5" font-family="Helvetica,sans-Serif" font-size="10.00">+ NotificationTimeout</text>
<text text-anchor="start" x="56" y="-59.5" font-family="Helvetica,sans-Serif" font-size="10.00">+ NotificationMode</text>
<text text-anchor="start" x="56" y="-48.5" font-family="Helvetica,sans-Serif" font-size="10.00">+ NotificationShowsVolumeChange</text>
<polyline fill="none" stroke="black" points="48,-41.5 237,-41.5 "/>
<text text-anchor="start" x="56" y="-29.5" font-family="Helvetica,sans-Serif" font-size="10.00">+ VCSettingsContainer()</text>
<text text-anchor="start" x="56" y="-18.5" font-family="Helvetica,sans-Serif" font-size="10.00"># NotifyPropertyChanged()</text>
<text text-anchor="start" x="56" y="-7.5" font-family="Helvetica,sans-Serif" font-size="10.00"># NotifyPropertyChanging()</text>
</a>
</g>
</g>
<!-- Node2 -->
<g id="node2" class="node">
<title>Node2</title>
<g id="a_node2"><a xlink:title=" ">
<polygon fill="none" stroke="#bfbfbf" points="0,-248.5 0,-305.5 133,-305.5 133,-248.5 0,-248.5"/>
<text text-anchor="middle" x="66.5" y="-293.5" font-family="Helvetica,sans-Serif" font-size="10.00">INotifyPropertyChanged</text>
<polyline fill="none" stroke="#bfbfbf" points="0,-286.5 133,-286.5 "/>
<text text-anchor="middle" x="66.5" y="-274.5" font-family="Helvetica,sans-Serif" font-size="10.00"> </text>
<polyline fill="none" stroke="#bfbfbf" points="0,-267.5 133,-267.5 "/>
<text text-anchor="middle" x="66.5" y="-255.5" font-family="Helvetica,sans-Serif" font-size="10.00"> </text>
</a>
</g>
</g>
<!-- Node2&#45;&gt;Node1 -->
<g id="edge1" class="edge">
<title>Node2&#45;&gt;Node1</title>
<path fill="none" stroke="midnightblue" d="M82.99,-239.33C86.8,-230.85 91.05,-221.41 95.47,-211.58"/>
<polygon fill="none" stroke="midnightblue" points="79.79,-237.92 78.88,-248.47 86.17,-240.79 79.79,-237.92"/>
</g>
<!-- Node3 -->
<g id="node3" class="node">
<title>Node3</title>
<g id="a_node3"><a xlink:title=" ">
<polygon fill="none" stroke="#bfbfbf" points="151.5,-248.5 151.5,-305.5 287.5,-305.5 287.5,-248.5 151.5,-248.5"/>
<text text-anchor="middle" x="219.5" y="-293.5" font-family="Helvetica,sans-Serif" font-size="10.00">INotifyPropertyChanging</text>
<polyline fill="none" stroke="#bfbfbf" points="151.5,-286.5 287.5,-286.5 "/>
<text text-anchor="middle" x="219.5" y="-274.5" font-family="Helvetica,sans-Serif" font-size="10.00"> </text>
<polyline fill="none" stroke="#bfbfbf" points="151.5,-267.5 287.5,-267.5 "/>
<text text-anchor="middle" x="219.5" y="-255.5" font-family="Helvetica,sans-Serif" font-size="10.00"> </text>
</a>
</g>
</g>
<!-- Node3&#45;&gt;Node1 -->
<g id="edge2" class="edge">
<title>Node3&#45;&gt;Node1</title>
<path fill="none" stroke="midnightblue" d="M202.79,-239.33C198.93,-230.85 194.63,-221.41 190.15,-211.58"/>
<polygon fill="none" stroke="midnightblue" points="199.63,-240.82 206.96,-248.47 206,-237.92 199.63,-240.82"/>
</g>
</g>
</svg>
