<?xml version="1.0" encoding="UTF-8" standalone="no"?>
<!DOCTYPE svg PUBLIC "-//W3C//DTD SVG 1.1//EN"
 "http://www.w3.org/Graphics/SVG/1.1/DTD/svg11.dtd">
<!-- Generated by graphviz version 2.43.0 (0)
 -->
<!-- Title: VolumeControl.WPF.TextBoxAutocompleteBehavior Pages: 1 -->
<svg width="164pt" height="237pt"
 viewBox="0.00 0.00 164.00 237.00" xmlns="http://www.w3.org/2000/svg" xmlns:xlink="http://www.w3.org/1999/xlink">
<g id="graph0" class="graph" transform="scale(1 1) rotate(0) translate(4 233)">
<title>VolumeControl.WPF.TextBoxAutocompleteBehavior</title>
<!-- Node1 -->
<g id="node1" class="node">
<title>Node1</title>
<g id="a_node1"><a xlink:title="Behavior that implements autocomplete suggestions for TextBox controls.">
<polygon fill="#bfbfbf" stroke="black" points="0,-0.5 0,-134.5 156,-134.5 156,-0.5 0,-0.5"/>
<text text-anchor="start" x="8" y="-122.5" font-family="Helvetica,sans-Serif" font-size="10.00">VolumeControl.WPF.TextBox</text>
<text text-anchor="middle" x="78" y="-111.5" font-family="Helvetica,sans-Serif" font-size="10.00">AutocompleteBehavior</text>
<polyline fill="none" stroke="black" points="0,-104.5 156,-104.5 "/>
<text text-anchor="start" x="8" y="-92.5" font-family="Helvetica,sans-Serif" font-size="10.00">+ ItemsSourceProperty</text>
<text text-anchor="start" x="8" y="-81.5" font-family="Helvetica,sans-Serif" font-size="10.00">+ StringComparisonProperty</text>
<text text-anchor="start" x="8" y="-70.5" font-family="Helvetica,sans-Serif" font-size="10.00">+ RequirePrefixProperty</text>
<text text-anchor="start" x="8" y="-59.5" font-family="Helvetica,sans-Serif" font-size="10.00">+ ItemsSource</text>
<text text-anchor="start" x="8" y="-48.5" font-family="Helvetica,sans-Serif" font-size="10.00">+ StringComparison</text>
<text text-anchor="start" x="8" y="-37.5" font-family="Helvetica,sans-Serif" font-size="10.00">+ RequirePrefix</text>
<polyline fill="none" stroke="black" points="0,-30.5 156,-30.5 "/>
<text text-anchor="start" x="8" y="-18.5" font-family="Helvetica,sans-Serif" font-size="10.00"># OnAttached()</text>
<text text-anchor="start" x="8" y="-7.5" font-family="Helvetica,sans-Serif" font-size="10.00"># OnDetaching()</text>
</a>
</g>
</g>
<!-- Node2 -->
<g id="node2" class="node">
<title>Node2</title>
<g id="a_node2"><a xlink:title=" ">
<polygon fill="none" stroke="#bfbfbf" points="17,-171.5 17,-228.5 139,-228.5 139,-171.5 17,-171.5"/>
<text text-anchor="middle" x="78" y="-216.5" font-family="Helvetica,sans-Serif" font-size="10.00">Behavior&lt; TextBox &gt;</text>
<polyline fill="none" stroke="#bfbfbf" points="17,-209.5 139,-209.5 "/>
<text text-anchor="middle" x="78" y="-197.5" font-family="Helvetica,sans-Serif" font-size="10.00"> </text>
<polyline fill="none" stroke="#bfbfbf" points="17,-190.5 139,-190.5 "/>
<text text-anchor="middle" x="78" y="-178.5" font-family="Helvetica,sans-Serif" font-size="10.00"> </text>
</a>
</g>
</g>
<!-- Node2&#45;&gt;Node1 -->
<g id="edge1" class="edge">
<title>Node2&#45;&gt;Node1</title>
<path fill="none" stroke="midnightblue" d="M78,-161.16C78,-152.78 78,-143.67 78,-134.53"/>
<polygon fill="none" stroke="midnightblue" points="74.5,-161.32 78,-171.32 81.5,-161.32 74.5,-161.32"/>
</g>
</g>
</svg>
