<?xml version="1.0" encoding="UTF-8" standalone="no"?>
<!DOCTYPE svg PUBLIC "-//W3C//DTD SVG 1.1//EN"
 "http://www.w3.org/Graphics/SVG/1.1/DTD/svg11.dtd">
<!-- Generated by graphviz version 2.43.0 (0)
 -->
<!-- Title: VolumeControl.CoreAudio.AudioDevice Pages: 1 -->
<!--zoomable 358 -->
<svg id="main" version="1.1" xmlns="http://www.w3.org/2000/svg" xmlns:xlink="http://www.w3.org/1999/xlink" xml:space="preserve" onload="init(evt)">
<style type="text/css"><![CDATA[
.edge:hover path { stroke: red; }
.edge:hover polygon { stroke: red; fill: red; }
]]></style>
<script type="text/javascript"><![CDATA[
var edges = document.getElementsByTagName('g');
if (edges && edges.length) {
  for (var i=0;i<edges.length;i++) {
    if (edges[i].id.substr(0,4)=='edge') {
      edges[i].setAttribute('class','edge');
    }
  }
}
]]></script>
        <defs>
                <circle id="rim" cx="0" cy="0" r="7"/>
                <circle id="rim2" cx="0" cy="0" r="3.5"/>
                <g id="zoomPlus">
                        <use xlink:href="#rim" fill="#404040">
                                <set attributeName="fill" to="#808080" begin="zoomplus.mouseover" end="zoomplus.mouseout"/>
                        </use>
                        <path d="M-4,0h8M0,-4v8" fill="none" stroke="white" stroke-width="1.5" pointer-events="none"/>
                </g>
                <g id="zoomMin">
                        <use xlink:href="#rim" fill="#404040">
                                <set attributeName="fill" to="#808080" begin="zoomminus.mouseover" end="zoomminus.mouseout"/>
                        </use>
                        <path d="M-4,0h8" fill="none" stroke="white" stroke-width="1.5" pointer-events="none"/>
                </g>
                <g id="dirArrow">
                        <path fill="none" stroke="white" stroke-width="1.5" d="M0,-3.0v7 M-2.5,-0.5L0,-3.0L2.5,-0.5"/>
                </g>
               <g id="resetDef">
                       <use xlink:href="#rim2" fill="#404040">
                               <set attributeName="fill" to="#808080" begin="reset.mouseover" end="reset.mouseout"/>
                       </use>
               </g>
        </defs>

<script type="text/javascript">
var viewWidth = 623;
var viewHeight = 358;
var sectionId = 'dynsection-0';
</script>
<script xlink:href="svgpan.js"/>
<svg id="graph" class="graph">
<g id="viewport">
<title>VolumeControl.CoreAudio.AudioDevice</title>
<!-- Node1 -->
<g id="node1" class="node">
<title>Node1</title>
<g id="a_node1"><a xlink:title="An audio endpoint device.">
<polygon fill="#bfbfbf" stroke="black" points="245,-0.5 245,-233.5 390,-233.5 390,-0.5 245,-0.5"/>
<text text-anchor="start" x="253" y="-221.5" font-family="Helvetica,sans-Serif" font-size="10.00">VolumeControl.CoreAudio.</text>
<text text-anchor="middle" x="317.5" y="-210.5" font-family="Helvetica,sans-Serif" font-size="10.00">AudioDevice</text>
<polyline fill="none" stroke="black" points="245,-203.5 390,-203.5 "/>
<text text-anchor="start" x="253" y="-191.5" font-family="Helvetica,sans-Serif" font-size="10.00">+ MMDevice</text>
<text text-anchor="start" x="253" y="-180.5" font-family="Helvetica,sans-Serif" font-size="10.00">+ AudioEndpointVolume</text>
<text text-anchor="start" x="253" y="-169.5" font-family="Helvetica,sans-Serif" font-size="10.00">+ AudioSessionManager</text>
<text text-anchor="start" x="253" y="-158.5" font-family="Helvetica,sans-Serif" font-size="10.00">+ AudioMeterInformation</text>
<text text-anchor="start" x="253" y="-147.5" font-family="Helvetica,sans-Serif" font-size="10.00">+ SessionManager</text>
<text text-anchor="start" x="253" y="-136.5" font-family="Helvetica,sans-Serif" font-size="10.00">+ FullName</text>
<text text-anchor="start" x="253" y="-125.5" font-family="Helvetica,sans-Serif" font-size="10.00">+ Name</text>
<text text-anchor="start" x="253" y="-114.5" font-family="Helvetica,sans-Serif" font-size="10.00">+ ID</text>
<text text-anchor="start" x="253" y="-103.5" font-family="Helvetica,sans-Serif" font-size="10.00">+ IsDefault</text>
<text text-anchor="start" x="253" y="-92.5" font-family="Helvetica,sans-Serif" font-size="10.00">+ IconPath</text>
<text text-anchor="start" x="253" y="-81.5" font-family="Helvetica,sans-Serif" font-size="10.00">+ NativeVolume</text>
<text text-anchor="start" x="253" y="-70.5" font-family="Helvetica,sans-Serif" font-size="10.00">+ Volume</text>
<text text-anchor="start" x="253" y="-59.5" font-family="Helvetica,sans-Serif" font-size="10.00">+ Mute</text>
<text text-anchor="start" x="253" y="-48.5" font-family="Helvetica,sans-Serif" font-size="10.00">+ PeakMeterValue</text>
<polyline fill="none" stroke="black" points="245,-41.5 390,-41.5 "/>
<text text-anchor="start" x="253" y="-29.5" font-family="Helvetica,sans-Serif" font-size="10.00">+ Dispose()</text>
<text text-anchor="start" x="253" y="-18.5" font-family="Helvetica,sans-Serif" font-size="10.00">+ ToString()</text>
<text text-anchor="start" x="253" y="-7.5" font-family="Helvetica,sans-Serif" font-size="10.00">~ AudioDevice()</text>
</a>
</g>
</g>
<!-- Node2 -->
<g id="node2" class="node">
<title>Node2</title>
<g id="a_node2"><a xlink:href="interface_volume_control_1_1_core_audio_1_1_interfaces_1_1_i_audio_control.html" target="_top" xlink:title="Represents an audio instance with a controllable volume level and mute state.">
<polygon fill="none" stroke="black" points="0,-270.5 0,-349.5 97,-349.5 97,-270.5 0,-270.5"/>
<text text-anchor="middle" x="48.5" y="-337.5" font-family="Helvetica,sans-Serif" font-size="10.00">IAudioControl</text>
<polyline fill="none" stroke="black" points="0,-330.5 97,-330.5 "/>
<text text-anchor="start" x="8" y="-318.5" font-family="Helvetica,sans-Serif" font-size="10.00">+ NativeVolume</text>
<text text-anchor="start" x="8" y="-307.5" font-family="Helvetica,sans-Serif" font-size="10.00">+ Volume</text>
<text text-anchor="start" x="8" y="-296.5" font-family="Helvetica,sans-Serif" font-size="10.00">+ Mute</text>
<polyline fill="none" stroke="black" points="0,-289.5 97,-289.5 "/>
<text text-anchor="middle" x="48.5" y="-277.5" font-family="Helvetica,sans-Serif" font-size="10.00"> </text>
</a>
</g>
</g>
<!-- Node2&#45;&gt;Node1 -->
<g id="edge1" class="edge">
<title>Node2&#45;&gt;Node1</title>
<path fill="none" stroke="midnightblue" d="M105.4,-268.6C146.02,-239.75 201.01,-200.71 244.82,-169.61"/>
<polygon fill="none" stroke="midnightblue" points="103.34,-265.77 97.21,-274.41 107.39,-271.48 103.34,-265.77"/>
</g>
<!-- Node3 -->
<g id="node3" class="node">
<title>Node3</title>
<g id="a_node3"><a xlink:href="interface_volume_control_1_1_core_audio_1_1_interfaces_1_1_i_read_only_audio_control.html" target="_top" xlink:title="Represents an audio instance with a read&#45;only volume level and mute state.">
<polygon fill="none" stroke="black" points="115.5,-270.5 115.5,-349.5 245.5,-349.5 245.5,-270.5 115.5,-270.5"/>
<text text-anchor="middle" x="180.5" y="-337.5" font-family="Helvetica,sans-Serif" font-size="10.00">IReadOnlyAudioControl</text>
<polyline fill="none" stroke="black" points="115.5,-330.5 245.5,-330.5 "/>
<text text-anchor="start" x="123.5" y="-318.5" font-family="Helvetica,sans-Serif" font-size="10.00">+ NativeVolume</text>
<text text-anchor="start" x="123.5" y="-307.5" font-family="Helvetica,sans-Serif" font-size="10.00">+ Volume</text>
<text text-anchor="start" x="123.5" y="-296.5" font-family="Helvetica,sans-Serif" font-size="10.00">+ Mute</text>
<polyline fill="none" stroke="black" points="115.5,-289.5 245.5,-289.5 "/>
<text text-anchor="middle" x="180.5" y="-277.5" font-family="Helvetica,sans-Serif" font-size="10.00"> </text>
</a>
</g>
</g>
<!-- Node3&#45;&gt;Node1 -->
<g id="edge2" class="edge">
<title>Node3&#45;&gt;Node1</title>
<path fill="none" stroke="midnightblue" d="M214.19,-262.03C223.54,-248.99 234.08,-234.31 244.75,-219.43"/>
<polygon fill="none" stroke="midnightblue" points="211.21,-260.18 208.22,-270.35 216.9,-264.26 211.21,-260.18"/>
</g>
<!-- Node4 -->
<g id="node4" class="node">
<title>Node4</title>
<g id="a_node4"><a xlink:href="interface_volume_control_1_1_core_audio_1_1_interfaces_1_1_i_audio_peak_meter.html" target="_top" xlink:title="Represents some kind of object that has an audio peak meter.">
<polygon fill="none" stroke="black" points="264,-281.5 264,-338.5 371,-338.5 371,-281.5 264,-281.5"/>
<text text-anchor="middle" x="317.5" y="-326.5" font-family="Helvetica,sans-Serif" font-size="10.00">IAudioPeakMeter</text>
<polyline fill="none" stroke="black" points="264,-319.5 371,-319.5 "/>
<text text-anchor="start" x="272" y="-307.5" font-family="Helvetica,sans-Serif" font-size="10.00">+ PeakMeterValue</text>
<polyline fill="none" stroke="black" points="264,-300.5 371,-300.5 "/>
<text text-anchor="middle" x="317.5" y="-288.5" font-family="Helvetica,sans-Serif" font-size="10.00"> </text>
</a>
</g>
</g>
<!-- Node4&#45;&gt;Node1 -->
<g id="edge3" class="edge">
<title>Node4&#45;&gt;Node1</title>
<path fill="none" stroke="midnightblue" d="M317.5,-271.1C317.5,-259.96 317.5,-247.15 317.5,-233.79"/>
<polygon fill="none" stroke="midnightblue" points="314,-271.23 317.5,-281.23 321,-271.23 314,-271.23"/>
</g>
<!-- Node5 -->
<g id="node5" class="node">
<title>Node5</title>
<g id="a_node5"><a xlink:title=" ">
<polygon fill="none" stroke="#bfbfbf" points="389,-281.5 389,-338.5 522,-338.5 522,-281.5 389,-281.5"/>
<text text-anchor="middle" x="455.5" y="-326.5" font-family="Helvetica,sans-Serif" font-size="10.00">INotifyPropertyChanged</text>
<polyline fill="none" stroke="#bfbfbf" points="389,-319.5 522,-319.5 "/>
<text text-anchor="middle" x="455.5" y="-307.5" font-family="Helvetica,sans-Serif" font-size="10.00"> </text>
<polyline fill="none" stroke="#bfbfbf" points="389,-300.5 522,-300.5 "/>
<text text-anchor="middle" x="455.5" y="-288.5" font-family="Helvetica,sans-Serif" font-size="10.00"> </text>
</a>
</g>
</g>
<!-- Node5&#45;&gt;Node1 -->
<g id="edge4" class="edge">
<title>Node5&#45;&gt;Node1</title>
<path fill="none" stroke="midnightblue" d="M429.43,-272.92C418.12,-257.27 404.26,-238.09 390.2,-218.62"/>
<polygon fill="none" stroke="midnightblue" points="426.74,-275.17 435.43,-281.23 432.41,-271.07 426.74,-275.17"/>
</g>
<!-- Node6 -->
<g id="node6" class="node">
<title>Node6</title>
<g id="a_node6"><a xlink:title=" ">
<polygon fill="none" stroke="#bfbfbf" points="540.5,-281.5 540.5,-338.5 614.5,-338.5 614.5,-281.5 540.5,-281.5"/>
<text text-anchor="middle" x="577.5" y="-326.5" font-family="Helvetica,sans-Serif" font-size="10.00">IDisposable</text>
<polyline fill="none" stroke="#bfbfbf" points="540.5,-319.5 614.5,-319.5 "/>
<text text-anchor="middle" x="577.5" y="-307.5" font-family="Helvetica,sans-Serif" font-size="10.00"> </text>
<polyline fill="none" stroke="#bfbfbf" points="540.5,-300.5 614.5,-300.5 "/>
<text text-anchor="middle" x="577.5" y="-288.5" font-family="Helvetica,sans-Serif" font-size="10.00"> </text>
</a>
</g>
</g>
<!-- Node6&#45;&gt;Node1 -->
<g id="edge5" class="edge">
<title>Node6&#45;&gt;Node1</title>
<path fill="none" stroke="midnightblue" d="M537.65,-274.86C535.59,-273.2 533.53,-271.57 531.5,-270 485.61,-234.36 432.35,-196.51 390.44,-167.5"/>
<polygon fill="none" stroke="midnightblue" points="535.66,-277.75 545.62,-281.37 540.09,-272.33 535.66,-277.75"/>
</g>
</g>
</svg>
        <g id="navigator" transform="translate(0 0)" fill="#404254">
                <rect fill="#f2f5e9" fill-opacity="0.5" stroke="#606060" stroke-width=".5" x="0" y="0" width="60" height="60"/>
                <use id="zoomplus" xlink:href="#zoomPlus" x="17" y="9" onmousedown="handleZoom(evt,'in')"/>
                <use id="zoomminus" xlink:href="#zoomMin" x="42" y="9" onmousedown="handleZoom(evt,'out')"/>
                <use id="reset" xlink:href="#resetDef" x="30" y="36" onmousedown="handleReset()"/>
                <g id="arrowUp" xlink:href="#dirArrow" transform="translate(30 24)" onmousedown="handlePan(0,-1)">
                  <use xlink:href="#rim" fill="#404040">
                        <set attributeName="fill" to="#808080" begin="arrowUp.mouseover" end="arrowUp.mouseout"/>
                  </use>
                  <path fill="none" stroke="white" stroke-width="1.5" d="M0,-3.0v7 M-2.5,-0.5L0,-3.0L2.5,-0.5"/>
                </g>
                <g id="arrowRight" xlink:href="#dirArrow" transform="rotate(90) translate(36 -43)" onmousedown="handlePan(1,0)">
                  <use xlink:href="#rim" fill="#404040">
                        <set attributeName="fill" to="#808080" begin="arrowRight.mouseover" end="arrowRight.mouseout"/>
                  </use>
                  <path fill="none" stroke="white" stroke-width="1.5" d="M0,-3.0v7 M-2.5,-0.5L0,-3.0L2.5,-0.5"/>
                </g>
                <g id="arrowDown" xlink:href="#dirArrow" transform="rotate(180) translate(-30 -48)" onmousedown="handlePan(0,1)">
                  <use xlink:href="#rim" fill="#404040">
                        <set attributeName="fill" to="#808080" begin="arrowDown.mouseover" end="arrowDown.mouseout"/>
                  </use>
                  <path fill="none" stroke="white" stroke-width="1.5" d="M0,-3.0v7 M-2.5,-0.5L0,-3.0L2.5,-0.5"/>
                </g>
                <g id="arrowLeft" xlink:href="#dirArrow" transform="rotate(270) translate(-36 17)" onmousedown="handlePan(-1,0)">
                  <use xlink:href="#rim" fill="#404040">
                        <set attributeName="fill" to="#808080" begin="arrowLeft.mouseover" end="arrowLeft.mouseout"/>
                  </use>
                  <path fill="none" stroke="white" stroke-width="1.5" d="M0,-3.0v7 M-2.5,-0.5L0,-3.0L2.5,-0.5"/>
                </g>
        </g>
        <svg viewBox="0 0 15 15" width="100%" height="30px" preserveAspectRatio="xMaxYMin meet">
         <g id="arrow_out" transform="scale(0.3 0.3)">
          <a xlink:href="class_volume_control_1_1_core_audio_1_1_audio_device__inherit__graph_org.svg" target="_base">
           <rect id="button" ry="5" rx="5" y="6" x="6" height="38" width="38"
                fill="#f2f5e9" fill-opacity="0.5" stroke="#606060" stroke-width="1.0"/>
           <path id="arrow"
             d="M 11.500037,31.436501 C 11.940474,20.09759 22.043105,11.32322 32.158766,21.979434 L 37.068811,17.246167 C 37.068811,17.246167 37.088388,32 37.088388,32 L 22.160133,31.978069 C 22.160133,31.978069 26.997745,27.140456 26.997745,27.140456 C 18.528582,18.264221 13.291696,25.230495 11.500037,31.436501 z"
             style="fill:#404040;"/>
          </a>
         </g>
        </svg>
</svg>
