<?xml version="1.0" encoding="UTF-8" standalone="no"?>
<!DOCTYPE svg PUBLIC "-//W3C//DTD SVG 1.1//EN"
 "http://www.w3.org/Graphics/SVG/1.1/DTD/svg11.dtd">
<!-- Generated by graphviz version 2.43.0 (0)
 -->
<!-- Title: HotkeyLib.KeysList Pages: 1 -->
<!--zoomable 402 -->
<svg id="main" version="1.1" xmlns="http://www.w3.org/2000/svg" xmlns:xlink="http://www.w3.org/1999/xlink" xml:space="preserve" onload="init(evt)">
<style type="text/css"><![CDATA[
.edge:hover path { stroke: red; }
.edge:hover polygon { stroke: red; fill: red; }
]]></style>
<script type="text/javascript"><![CDATA[
var edges = document.getElementsByTagName('g');
if (edges && edges.length) {
  for (var i=0;i<edges.length;i++) {
    if (edges[i].id.substr(0,4)=='edge') {
      edges[i].setAttribute('class','edge');
    }
  }
}
]]></script>
        <defs>
                <circle id="rim" cx="0" cy="0" r="7"/>
                <circle id="rim2" cx="0" cy="0" r="3.5"/>
                <g id="zoomPlus">
                        <use xlink:href="#rim" fill="#404040">
                                <set attributeName="fill" to="#808080" begin="zoomplus.mouseover" end="zoomplus.mouseout"/>
                        </use>
                        <path d="M-4,0h8M0,-4v8" fill="none" stroke="white" stroke-width="1.5" pointer-events="none"/>
                </g>
                <g id="zoomMin">
                        <use xlink:href="#rim" fill="#404040">
                                <set attributeName="fill" to="#808080" begin="zoomminus.mouseover" end="zoomminus.mouseout"/>
                        </use>
                        <path d="M-4,0h8" fill="none" stroke="white" stroke-width="1.5" pointer-events="none"/>
                </g>
                <g id="dirArrow">
                        <path fill="none" stroke="white" stroke-width="1.5" d="M0,-3.0v7 M-2.5,-0.5L0,-3.0L2.5,-0.5"/>
                </g>
               <g id="resetDef">
                       <use xlink:href="#rim2" fill="#404040">
                               <set attributeName="fill" to="#808080" begin="reset.mouseover" end="reset.mouseout"/>
                       </use>
               </g>
        </defs>

<script type="text/javascript">
var viewWidth = 886;
var viewHeight = 402;
var sectionId = 'dynsection-1';
</script>
<script xlink:href="svgpan.js"/>
<svg id="graph" class="graph">
<g id="viewport">
<title>HotkeyLib.KeysList</title>
<!-- Node1 -->
<g id="node1" class="node">
<title>Node1</title>
<g id="a_node1"><a xlink:title=" ">
<polygon fill="#bfbfbf" stroke="black" points="416,-0.5 416,-288.5 526,-288.5 526,-0.5 416,-0.5"/>
<text text-anchor="middle" x="471" y="-276.5" font-family="Helvetica,sans-Serif" font-size="10.00">HotkeyLib.KeysList</text>
<polyline fill="none" stroke="black" points="416,-269.5 526,-269.5 "/>
<text text-anchor="start" x="424" y="-257.5" font-family="Helvetica,sans-Serif" font-size="10.00">+ Count</text>
<text text-anchor="start" x="424" y="-246.5" font-family="Helvetica,sans-Serif" font-size="10.00">+ IsReadOnly</text>
<text text-anchor="start" x="424" y="-235.5" font-family="Helvetica,sans-Serif" font-size="10.00">+ IsSynchronized</text>
<text text-anchor="start" x="424" y="-224.5" font-family="Helvetica,sans-Serif" font-size="10.00">+ SyncRoot</text>
<text text-anchor="start" x="424" y="-213.5" font-family="Helvetica,sans-Serif" font-size="10.00">+ IsFixedSize</text>
<text text-anchor="start" x="424" y="-202.5" font-family="Helvetica,sans-Serif" font-size="10.00">+ this[int index]</text>
<text text-anchor="start" x="424" y="-191.5" font-family="Helvetica,sans-Serif" font-size="10.00">+ this[int index]</text>
<text text-anchor="start" x="424" y="-180.5" font-family="Helvetica,sans-Serif" font-size="10.00">+ Keys</text>
<polyline fill="none" stroke="black" points="416,-173.5 526,-173.5 "/>
<text text-anchor="start" x="424" y="-161.5" font-family="Helvetica,sans-Serif" font-size="10.00">+ Add()</text>
<text text-anchor="start" x="424" y="-150.5" font-family="Helvetica,sans-Serif" font-size="10.00">+ Add()</text>
<text text-anchor="start" x="424" y="-139.5" font-family="Helvetica,sans-Serif" font-size="10.00">+ Clear()</text>
<text text-anchor="start" x="424" y="-128.5" font-family="Helvetica,sans-Serif" font-size="10.00">+ Contains()</text>
<text text-anchor="start" x="424" y="-117.5" font-family="Helvetica,sans-Serif" font-size="10.00">+ Contains()</text>
<text text-anchor="start" x="424" y="-106.5" font-family="Helvetica,sans-Serif" font-size="10.00">+ CopyTo()</text>
<text text-anchor="start" x="424" y="-95.5" font-family="Helvetica,sans-Serif" font-size="10.00">+ CopyTo()</text>
<text text-anchor="start" x="424" y="-84.5" font-family="Helvetica,sans-Serif" font-size="10.00">+ GetEnumerator()</text>
<text text-anchor="start" x="424" y="-73.5" font-family="Helvetica,sans-Serif" font-size="10.00">+ IndexOf()</text>
<text text-anchor="start" x="424" y="-62.5" font-family="Helvetica,sans-Serif" font-size="10.00">+ IndexOf()</text>
<text text-anchor="start" x="424" y="-51.5" font-family="Helvetica,sans-Serif" font-size="10.00">+ Insert()</text>
<text text-anchor="start" x="424" y="-40.5" font-family="Helvetica,sans-Serif" font-size="10.00">+ Insert()</text>
<text text-anchor="start" x="424" y="-29.5" font-family="Helvetica,sans-Serif" font-size="10.00">+ Remove()</text>
<text text-anchor="start" x="424" y="-18.5" font-family="Helvetica,sans-Serif" font-size="10.00">+ Remove()</text>
<text text-anchor="start" x="424" y="-7.5" font-family="Helvetica,sans-Serif" font-size="10.00">+ RemoveAt()</text>
</a>
</g>
</g>
<!-- Node2 -->
<g id="node2" class="node">
<title>Node2</title>
<g id="a_node2"><a xlink:title=" ">
<polygon fill="none" stroke="#bfbfbf" points="0,-331 0,-388 114,-388 114,-331 0,-331"/>
<text text-anchor="middle" x="57" y="-376" font-family="Helvetica,sans-Serif" font-size="10.00">ICollection&lt; Keys &gt;</text>
<polyline fill="none" stroke="#bfbfbf" points="0,-369 114,-369 "/>
<text text-anchor="middle" x="57" y="-357" font-family="Helvetica,sans-Serif" font-size="10.00"> </text>
<polyline fill="none" stroke="#bfbfbf" points="0,-350 114,-350 "/>
<text text-anchor="middle" x="57" y="-338" font-family="Helvetica,sans-Serif" font-size="10.00"> </text>
</a>
</g>
</g>
<!-- Node2&#45;&gt;Node1 -->
<g id="edge1" class="edge">
<title>Node2&#45;&gt;Node1</title>
<path fill="none" stroke="midnightblue" d="M119.75,-326.21C200.35,-284.75 338.96,-213.44 415.75,-173.93"/>
<polygon fill="none" stroke="midnightblue" points="117.99,-323.19 110.7,-330.87 121.19,-329.41 117.99,-323.19"/>
</g>
<!-- Node3 -->
<g id="node3" class="node">
<title>Node3</title>
<g id="a_node3"><a xlink:title=" ">
<polygon fill="none" stroke="#bfbfbf" points="132,-331 132,-388 256,-388 256,-331 132,-331"/>
<text text-anchor="middle" x="194" y="-376" font-family="Helvetica,sans-Serif" font-size="10.00">IEnumerable&lt; Keys &gt;</text>
<polyline fill="none" stroke="#bfbfbf" points="132,-369 256,-369 "/>
<text text-anchor="middle" x="194" y="-357" font-family="Helvetica,sans-Serif" font-size="10.00"> </text>
<polyline fill="none" stroke="#bfbfbf" points="132,-350 256,-350 "/>
<text text-anchor="middle" x="194" y="-338" font-family="Helvetica,sans-Serif" font-size="10.00"> </text>
</a>
</g>
</g>
<!-- Node3&#45;&gt;Node1 -->
<g id="edge2" class="edge">
<title>Node3&#45;&gt;Node1</title>
<path fill="none" stroke="midnightblue" d="M237.99,-324.68C286.17,-287.62 363.54,-228.13 415.78,-187.96"/>
<polygon fill="none" stroke="midnightblue" points="235.72,-322 229.93,-330.87 239.99,-327.55 235.72,-322"/>
</g>
<!-- Node4 -->
<g id="node4" class="node">
<title>Node4</title>
<g id="a_node4"><a xlink:title=" ">
<polygon fill="none" stroke="#bfbfbf" points="274,-331 274,-388 352,-388 352,-331 274,-331"/>
<text text-anchor="middle" x="313" y="-376" font-family="Helvetica,sans-Serif" font-size="10.00">IEnumerable</text>
<polyline fill="none" stroke="#bfbfbf" points="274,-369 352,-369 "/>
<text text-anchor="middle" x="313" y="-357" font-family="Helvetica,sans-Serif" font-size="10.00"> </text>
<polyline fill="none" stroke="#bfbfbf" points="274,-350 352,-350 "/>
<text text-anchor="middle" x="313" y="-338" font-family="Helvetica,sans-Serif" font-size="10.00"> </text>
</a>
</g>
</g>
<!-- Node4&#45;&gt;Node1 -->
<g id="edge3" class="edge">
<title>Node4&#45;&gt;Node1</title>
<path fill="none" stroke="midnightblue" d="M339.82,-322.34C360.64,-294.27 390.21,-254.42 416,-219.65"/>
<polygon fill="none" stroke="midnightblue" points="336.8,-320.54 333.66,-330.65 342.42,-324.71 336.8,-320.54"/>
</g>
<!-- Node5 -->
<g id="node5" class="node">
<title>Node5</title>
<g id="a_node5"><a xlink:title=" ">
<polygon fill="none" stroke="#bfbfbf" points="370.5,-331 370.5,-388 453.5,-388 453.5,-331 370.5,-331"/>
<text text-anchor="middle" x="412" y="-376" font-family="Helvetica,sans-Serif" font-size="10.00">IList&lt; Keys &gt;</text>
<polyline fill="none" stroke="#bfbfbf" points="370.5,-369 453.5,-369 "/>
<text text-anchor="middle" x="412" y="-357" font-family="Helvetica,sans-Serif" font-size="10.00"> </text>
<polyline fill="none" stroke="#bfbfbf" points="370.5,-350 453.5,-350 "/>
<text text-anchor="middle" x="412" y="-338" font-family="Helvetica,sans-Serif" font-size="10.00"> </text>
</a>
</g>
</g>
<!-- Node5&#45;&gt;Node1 -->
<g id="edge4" class="edge">
<title>Node5&#45;&gt;Node1</title>
<path fill="none" stroke="midnightblue" d="M422.43,-320.83C425.08,-311.28 428.08,-300.45 431.26,-288.95"/>
<polygon fill="none" stroke="midnightblue" points="419.01,-320.08 419.71,-330.65 425.76,-321.95 419.01,-320.08"/>
</g>
<!-- Node6 -->
<g id="node6" class="node">
<title>Node6</title>
<g id="a_node6"><a xlink:title=" ">
<polygon fill="none" stroke="#bfbfbf" points="472,-325.5 472,-393.5 588,-393.5 588,-325.5 472,-325.5"/>
<text text-anchor="start" x="480" y="-381.5" font-family="Helvetica,sans-Serif" font-size="10.00">IReadOnlyCollection</text>
<text text-anchor="middle" x="530" y="-370.5" font-family="Helvetica,sans-Serif" font-size="10.00">&lt; Keys &gt;</text>
<polyline fill="none" stroke="#bfbfbf" points="472,-363.5 588,-363.5 "/>
<text text-anchor="middle" x="530" y="-351.5" font-family="Helvetica,sans-Serif" font-size="10.00"> </text>
<polyline fill="none" stroke="#bfbfbf" points="472,-344.5 588,-344.5 "/>
<text text-anchor="middle" x="530" y="-332.5" font-family="Helvetica,sans-Serif" font-size="10.00"> </text>
</a>
</g>
</g>
<!-- Node6&#45;&gt;Node1 -->
<g id="edge5" class="edge">
<title>Node6&#45;&gt;Node1</title>
<path fill="none" stroke="midnightblue" d="M518.1,-315.54C515.8,-307.25 513.28,-298.15 510.64,-288.61"/>
<polygon fill="none" stroke="midnightblue" points="514.74,-316.52 520.78,-325.22 521.48,-314.65 514.74,-316.52"/>
</g>
<!-- Node7 -->
<g id="node7" class="node">
<title>Node7</title>
<g id="a_node7"><a xlink:title=" ">
<polygon fill="none" stroke="#bfbfbf" points="606,-331 606,-388 736,-388 736,-331 606,-331"/>
<text text-anchor="middle" x="671" y="-376" font-family="Helvetica,sans-Serif" font-size="10.00">IReadOnlyList&lt; Keys &gt;</text>
<polyline fill="none" stroke="#bfbfbf" points="606,-369 736,-369 "/>
<text text-anchor="middle" x="671" y="-357" font-family="Helvetica,sans-Serif" font-size="10.00"> </text>
<polyline fill="none" stroke="#bfbfbf" points="606,-350 736,-350 "/>
<text text-anchor="middle" x="671" y="-338" font-family="Helvetica,sans-Serif" font-size="10.00"> </text>
</a>
</g>
</g>
<!-- Node7&#45;&gt;Node1 -->
<g id="edge6" class="edge">
<title>Node7&#45;&gt;Node1</title>
<path fill="none" stroke="midnightblue" d="M637.86,-323.21C607.54,-290.91 562.06,-242.48 526.24,-204.33"/>
<polygon fill="none" stroke="midnightblue" points="635.46,-325.76 644.85,-330.65 640.56,-320.97 635.46,-325.76"/>
</g>
<!-- Node8 -->
<g id="node8" class="node">
<title>Node8</title>
<g id="a_node8"><a xlink:title=" ">
<polygon fill="none" stroke="#bfbfbf" points="754,-331 754,-388 822,-388 822,-331 754,-331"/>
<text text-anchor="middle" x="788" y="-376" font-family="Helvetica,sans-Serif" font-size="10.00">ICollection</text>
<polyline fill="none" stroke="#bfbfbf" points="754,-369 822,-369 "/>
<text text-anchor="middle" x="788" y="-357" font-family="Helvetica,sans-Serif" font-size="10.00"> </text>
<polyline fill="none" stroke="#bfbfbf" points="754,-350 822,-350 "/>
<text text-anchor="middle" x="788" y="-338" font-family="Helvetica,sans-Serif" font-size="10.00"> </text>
</a>
</g>
</g>
<!-- Node8&#45;&gt;Node1 -->
<g id="edge7" class="edge">
<title>Node8&#45;&gt;Node1</title>
<path fill="none" stroke="midnightblue" d="M745.82,-325.59C745.55,-325.39 745.27,-325.2 745,-325 670.88,-271.98 582.19,-215 526.21,-179.8"/>
<polygon fill="none" stroke="midnightblue" points="743.79,-328.44 753.92,-331.55 747.94,-322.8 743.79,-328.44"/>
</g>
<!-- Node9 -->
<g id="node9" class="node">
<title>Node9</title>
<g id="a_node9"><a xlink:title=" ">
<polygon fill="none" stroke="#bfbfbf" points="840.5,-331 840.5,-388 877.5,-388 877.5,-331 840.5,-331"/>
<text text-anchor="middle" x="859" y="-376" font-family="Helvetica,sans-Serif" font-size="10.00">IList</text>
<polyline fill="none" stroke="#bfbfbf" points="840.5,-369 877.5,-369 "/>
<text text-anchor="middle" x="859" y="-357" font-family="Helvetica,sans-Serif" font-size="10.00"> </text>
<polyline fill="none" stroke="#bfbfbf" points="840.5,-350 877.5,-350 "/>
<text text-anchor="middle" x="859" y="-338" font-family="Helvetica,sans-Serif" font-size="10.00"> </text>
</a>
</g>
</g>
<!-- Node9&#45;&gt;Node1 -->
<g id="edge8" class="edge">
<title>Node9&#45;&gt;Node1</title>
<path fill="none" stroke="midnightblue" d="M832.79,-326.47C832.2,-325.97 831.6,-325.48 831,-325 734.55,-248.81 600.56,-192.54 526.24,-164.81"/>
<polygon fill="none" stroke="midnightblue" points="830.57,-329.19 840.21,-333.58 835.42,-324.13 830.57,-329.19"/>
</g>
</g>
</svg>
        <g id="navigator" transform="translate(0 0)" fill="#404254">
                <rect fill="#f2f5e9" fill-opacity="0.5" stroke="#606060" stroke-width=".5" x="0" y="0" width="60" height="60"/>
                <use id="zoomplus" xlink:href="#zoomPlus" x="17" y="9" onmousedown="handleZoom(evt,'in')"/>
                <use id="zoomminus" xlink:href="#zoomMin" x="42" y="9" onmousedown="handleZoom(evt,'out')"/>
                <use id="reset" xlink:href="#resetDef" x="30" y="36" onmousedown="handleReset()"/>
                <g id="arrowUp" xlink:href="#dirArrow" transform="translate(30 24)" onmousedown="handlePan(0,-1)">
                  <use xlink:href="#rim" fill="#404040">
                        <set attributeName="fill" to="#808080" begin="arrowUp.mouseover" end="arrowUp.mouseout"/>
                  </use>
                  <path fill="none" stroke="white" stroke-width="1.5" d="M0,-3.0v7 M-2.5,-0.5L0,-3.0L2.5,-0.5"/>
                </g>
                <g id="arrowRight" xlink:href="#dirArrow" transform="rotate(90) translate(36 -43)" onmousedown="handlePan(1,0)">
                  <use xlink:href="#rim" fill="#404040">
                        <set attributeName="fill" to="#808080" begin="arrowRight.mouseover" end="arrowRight.mouseout"/>
                  </use>
                  <path fill="none" stroke="white" stroke-width="1.5" d="M0,-3.0v7 M-2.5,-0.5L0,-3.0L2.5,-0.5"/>
                </g>
                <g id="arrowDown" xlink:href="#dirArrow" transform="rotate(180) translate(-30 -48)" onmousedown="handlePan(0,1)">
                  <use xlink:href="#rim" fill="#404040">
                        <set attributeName="fill" to="#808080" begin="arrowDown.mouseover" end="arrowDown.mouseout"/>
                  </use>
                  <path fill="none" stroke="white" stroke-width="1.5" d="M0,-3.0v7 M-2.5,-0.5L0,-3.0L2.5,-0.5"/>
                </g>
                <g id="arrowLeft" xlink:href="#dirArrow" transform="rotate(270) translate(-36 17)" onmousedown="handlePan(-1,0)">
                  <use xlink:href="#rim" fill="#404040">
                        <set attributeName="fill" to="#808080" begin="arrowLeft.mouseover" end="arrowLeft.mouseout"/>
                  </use>
                  <path fill="none" stroke="white" stroke-width="1.5" d="M0,-3.0v7 M-2.5,-0.5L0,-3.0L2.5,-0.5"/>
                </g>
        </g>
        <svg viewBox="0 0 15 15" width="100%" height="30px" preserveAspectRatio="xMaxYMin meet">
         <g id="arrow_out" transform="scale(0.3 0.3)">
          <a xlink:href="class_hotkey_lib_1_1_keys_list__coll__graph_org.svg" target="_base">
           <rect id="button" ry="5" rx="5" y="6" x="6" height="38" width="38"
                fill="#f2f5e9" fill-opacity="0.5" stroke="#606060" stroke-width="1.0"/>
           <path id="arrow"
             d="M 11.500037,31.436501 C 11.940474,20.09759 22.043105,11.32322 32.158766,21.979434 L 37.068811,17.246167 C 37.068811,17.246167 37.088388,32 37.088388,32 L 22.160133,31.978069 C 22.160133,31.978069 26.997745,27.140456 26.997745,27.140456 C 18.528582,18.264221 13.291696,25.230495 11.500037,31.436501 z"
             style="fill:#404040;"/>
          </a>
         </g>
        </svg>
</svg>
