<?xml version="1.0" encoding="UTF-8" standalone="no"?>
<!DOCTYPE svg PUBLIC "-//W3C//DTD SVG 1.1//EN"
 "http://www.w3.org/Graphics/SVG/1.1/DTD/svg11.dtd">
<!-- Generated by graphviz version 2.43.0 (0)
 -->
<!-- Title: VolumeControl.Log.LogWriter.Trace Pages: 1 -->
<svg width="402pt" height="186pt"
 viewBox="0.00 0.00 402.00 186.00" xmlns="http://www.w3.org/2000/svg" xmlns:xlink="http://www.w3.org/1999/xlink">
<g id="graph0" class="graph" transform="scale(1 1) rotate(0) translate(4 182)">
<title>VolumeControl.Log.LogWriter.Trace</title>
<!-- Node1 -->
<g id="node1" class="node">
<title>Node1</title>
<g id="a_node1"><a xlink:title="Write a formatted EventType.TRACE message to the log endpoint.">
<polygon fill="#bfbfbf" stroke="black" points="233,-73.5 233,-103.5 394,-103.5 394,-73.5 233,-73.5"/>
<text text-anchor="start" x="241" y="-91.5" font-family="Helvetica,sans-Serif" font-size="10.00">VolumeControl.Log.LogWriter.</text>
<text text-anchor="middle" x="313.5" y="-80.5" font-family="Helvetica,sans-Serif" font-size="10.00">Trace</text>
</a>
</g>
</g>
<!-- Node2 -->
<g id="node2" class="node">
<title>Node2</title>
<g id="a_node2"><a xlink:href="class_volume_control_1_1_core_audio_1_1_audio_device.html#a39f02cf93decd6dd0eb7a0b9b265f768" target="_top" xlink:title=" ">
<polygon fill="none" stroke="black" points="26,-147.5 26,-177.5 171,-177.5 171,-147.5 26,-147.5"/>
<text text-anchor="start" x="34" y="-165.5" font-family="Helvetica,sans-Serif" font-size="10.00">VolumeControl.CoreAudio.</text>
<text text-anchor="middle" x="98.5" y="-154.5" font-family="Helvetica,sans-Serif" font-size="10.00">AudioDevice.Dispose</text>
</a>
</g>
</g>
<!-- Node1&#45;&gt;Node2 -->
<g id="edge1" class="edge">
<title>Node1&#45;&gt;Node2</title>
<path fill="none" stroke="midnightblue" d="M272.36,-107.85C250.44,-117.91 222.61,-129.87 197,-138.5 187.42,-141.73 177.17,-144.73 167.06,-147.43"/>
<polygon fill="midnightblue" stroke="midnightblue" points="274.08,-110.91 281.68,-103.52 271.14,-104.56 274.08,-110.91"/>
</g>
<!-- Node3 -->
<g id="node3" class="node">
<title>Node3</title>
<g id="a_node3"><a xlink:href="class_volume_control_1_1_core_audio_1_1_audio_session.html#ac7d080e2d81f450d4177ba7ca2ccd7fa" target="_top" xlink:title=" ">
<polygon fill="none" stroke="black" points="26,-98.5 26,-128.5 171,-128.5 171,-98.5 26,-98.5"/>
<text text-anchor="start" x="34" y="-116.5" font-family="Helvetica,sans-Serif" font-size="10.00">VolumeControl.CoreAudio.</text>
<text text-anchor="middle" x="98.5" y="-105.5" font-family="Helvetica,sans-Serif" font-size="10.00">AudioSession.Dispose</text>
</a>
</g>
</g>
<!-- Node1&#45;&gt;Node3 -->
<g id="edge2" class="edge">
<title>Node1&#45;&gt;Node3</title>
<path fill="none" stroke="midnightblue" d="M222.84,-99.02C205.64,-101.04 187.84,-103.13 171.3,-105.07"/>
<polygon fill="midnightblue" stroke="midnightblue" points="223.36,-102.49 232.88,-97.84 222.54,-95.53 223.36,-102.49"/>
</g>
<!-- Node4 -->
<g id="node4" class="node">
<title>Node4</title>
<g id="a_node4"><a xlink:href="class_volume_control_1_1_core_1_1_input_1_1_actions_1_1_hotkey_action_instance.html#a5f9ed283ca3d13a3c3e7220a23627c47" target="_top" xlink:title="Invokes the method specified by the HotkeyActionDefinition">
<polygon fill="none" stroke="black" points="0,-49.5 0,-79.5 197,-79.5 197,-49.5 0,-49.5"/>
<text text-anchor="start" x="8" y="-67.5" font-family="Helvetica,sans-Serif" font-size="10.00">VolumeControl.Core.Input.</text>
<text text-anchor="middle" x="98.5" y="-56.5" font-family="Helvetica,sans-Serif" font-size="10.00">Actions.HotkeyActionInstance.Invoke</text>
</a>
</g>
</g>
<!-- Node1&#45;&gt;Node4 -->
<g id="edge3" class="edge">
<title>Node1&#45;&gt;Node4</title>
<path fill="none" stroke="midnightblue" d="M222.92,-78.41C214.36,-77.44 205.65,-76.46 197.02,-75.49"/>
<polygon fill="midnightblue" stroke="midnightblue" points="222.55,-81.89 232.88,-79.53 223.34,-74.93 222.55,-81.89"/>
</g>
<!-- Node5 -->
<g id="node5" class="node">
<title>Node5</title>
<g id="a_node5"><a xlink:href="class_volume_control_1_1_core_1_1_input_1_1_hotkey_action_addon_loader.html#a037e4a9483554fd7e6ed40f89e2be559" target="_top" xlink:title="Loads hotkey actions from the specified types .">
<polygon fill="none" stroke="black" points="13,-0.5 13,-30.5 184,-30.5 184,-0.5 13,-0.5"/>
<text text-anchor="start" x="21" y="-18.5" font-family="Helvetica,sans-Serif" font-size="10.00">VolumeControl.Core.Input.</text>
<text text-anchor="middle" x="98.5" y="-7.5" font-family="Helvetica,sans-Serif" font-size="10.00">HotkeyActionAddonLoader.Load</text>
</a>
</g>
</g>
<!-- Node1&#45;&gt;Node5 -->
<g id="edge4" class="edge">
<title>Node1&#45;&gt;Node5</title>
<path fill="none" stroke="midnightblue" d="M270.38,-69.29C248.73,-59.86 221.76,-48.77 197,-40.5 186.31,-36.93 174.82,-33.57 163.6,-30.54"/>
<polygon fill="midnightblue" stroke="midnightblue" points="269.06,-72.53 279.62,-73.36 271.88,-66.13 269.06,-72.53"/>
</g>
</g>
</svg>
