<?xml version="1.0" encoding="UTF-8" standalone="no"?>
<!DOCTYPE svg PUBLIC "-//W3C//DTD SVG 1.1//EN"
 "http://www.w3.org/Graphics/SVG/1.1/DTD/svg11.dtd">
<!-- Generated by graphviz version 2.43.0 (0)
 -->
<!-- Title: VolumeControl.Core.Input.Actions.ActionTargetSpecifier Pages: 1 -->
<svg width="183pt" height="182pt"
 viewBox="0.00 0.00 183.00 182.00" xmlns="http://www.w3.org/2000/svg" xmlns:xlink="http://www.w3.org/1999/xlink">
<g id="graph0" class="graph" transform="scale(1 1) rotate(0) translate(4 178)">
<title>VolumeControl.Core.Input.Actions.ActionTargetSpecifier</title>
<!-- Node1 -->
<g id="node1" class="node">
<title>Node1</title>
<g id="a_node1"><a xlink:title="Specifies the target(s) of a hotkey action.">
<polygon fill="#bfbfbf" stroke="black" points="8.5,-105.5 8.5,-173.5 166.5,-173.5 166.5,-105.5 8.5,-105.5"/>
<text text-anchor="start" x="16.5" y="-161.5" font-family="Helvetica,sans-Serif" font-size="10.00">VolumeControl.Core.Input.</text>
<text text-anchor="middle" x="87.5" y="-150.5" font-family="Helvetica,sans-Serif" font-size="10.00">Actions.ActionTargetSpecifier</text>
<polyline fill="none" stroke="black" points="8.5,-143.5 166.5,-143.5 "/>
<text text-anchor="start" x="16.5" y="-131.5" font-family="Helvetica,sans-Serif" font-size="10.00">+ Targets</text>
<polyline fill="none" stroke="black" points="8.5,-124.5 166.5,-124.5 "/>
<text text-anchor="start" x="16.5" y="-112.5" font-family="Helvetica,sans-Serif" font-size="10.00">+ AddNewTarget()</text>
</a>
</g>
</g>
<!-- Node2 -->
<g id="node2" class="node">
<title>Node2</title>
<g id="a_node2"><a xlink:href="class_volume_control_1_1_hotkeys_1_1_helpers_1_1_session_specifier.html" target="_top" xlink:title="Used to specify CoreAudio.AudioSession targets for hotkey actions.">
<polygon fill="none" stroke="black" points="0,-0.5 0,-68.5 175,-68.5 175,-0.5 0,-0.5"/>
<text text-anchor="start" x="8" y="-56.5" font-family="Helvetica,sans-Serif" font-size="10.00">VolumeControl.Hotkeys.Helpers.</text>
<text text-anchor="middle" x="87.5" y="-45.5" font-family="Helvetica,sans-Serif" font-size="10.00">SessionSpecifier</text>
<polyline fill="none" stroke="black" points="0,-38.5 175,-38.5 "/>
<text text-anchor="middle" x="87.5" y="-26.5" font-family="Helvetica,sans-Serif" font-size="10.00"> </text>
<polyline fill="none" stroke="black" points="0,-19.5 175,-19.5 "/>
<text text-anchor="start" x="8" y="-7.5" font-family="Helvetica,sans-Serif" font-size="10.00">+ AddNewTarget()</text>
</a>
</g>
</g>
<!-- Node1&#45;&gt;Node2 -->
<g id="edge1" class="edge">
<title>Node1&#45;&gt;Node2</title>
<path fill="none" stroke="midnightblue" d="M87.5,-95.14C87.5,-86.26 87.5,-77.04 87.5,-68.59"/>
<polygon fill="none" stroke="midnightblue" points="84,-95.34 87.5,-105.34 91,-95.34 84,-95.34"/>
</g>
</g>
</svg>
