<?xml version="1.0" encoding="UTF-8" standalone="no"?>
<!DOCTYPE svg PUBLIC "-//W3C//DTD SVG 1.1//EN"
 "http://www.w3.org/Graphics/SVG/1.1/DTD/svg11.dtd">
<!-- Generated by graphviz version 2.43.0 (0)
 -->
<!-- Title: VolumeControl.Core.Keyboard.Hotkey Pages: 1 -->
<svg width="237pt" height="364pt"
 viewBox="0.00 0.00 236.50 364.00" xmlns="http://www.w3.org/2000/svg" xmlns:xlink="http://www.w3.org/1999/xlink">
<g id="graph0" class="graph" transform="scale(1 1) rotate(0) translate(4 360)">
<title>VolumeControl.Core.Keyboard.Hotkey</title>
<!-- Node1 -->
<g id="node1" class="node">
<title>Node1</title>
<g id="a_node1"><a xlink:title="A Hotkey that may be registered with the windows API.">
<polygon fill="#bfbfbf" stroke="black" points="44.5,-0.5 44.5,-134.5 210.5,-134.5 210.5,-0.5 44.5,-0.5"/>
<text text-anchor="start" x="52.5" y="-122.5" font-family="Helvetica,sans-Serif" font-size="10.00">VolumeControl.Core.Keyboard.</text>
<text text-anchor="middle" x="127.5" y="-111.5" font-family="Helvetica,sans-Serif" font-size="10.00">Hotkey</text>
<polyline fill="none" stroke="black" points="44.5,-104.5 210.5,-104.5 "/>
<text text-anchor="start" x="52.5" y="-92.5" font-family="Helvetica,sans-Serif" font-size="10.00">+ ID</text>
<text text-anchor="start" x="52.5" y="-81.5" font-family="Helvetica,sans-Serif" font-size="10.00">+ Key</text>
<text text-anchor="start" x="52.5" y="-70.5" font-family="Helvetica,sans-Serif" font-size="10.00">+ Modifier</text>
<text text-anchor="start" x="52.5" y="-59.5" font-family="Helvetica,sans-Serif" font-size="10.00">+ Registered</text>
<polyline fill="none" stroke="black" points="44.5,-52.5 210.5,-52.5 "/>
<text text-anchor="start" x="52.5" y="-40.5" font-family="Helvetica,sans-Serif" font-size="10.00">+ Hotkey()</text>
<text text-anchor="start" x="52.5" y="-29.5" font-family="Helvetica,sans-Serif" font-size="10.00">+ Hotkey()</text>
<text text-anchor="start" x="52.5" y="-18.5" font-family="Helvetica,sans-Serif" font-size="10.00">+ Dispose()</text>
<text text-anchor="start" x="52.5" y="-7.5" font-family="Helvetica,sans-Serif" font-size="10.00">~ MessageHook()</text>
</a>
</g>
</g>
<!-- Node2 -->
<g id="node2" class="node">
<title>Node2</title>
<g id="a_node2"><a xlink:href="interface_volume_control_1_1_core_1_1_keyboard_1_1_i_hotkey.html" target="_top" xlink:title="Represents a hotkey instance.">
<polygon fill="none" stroke="black" points="87.5,-171.5 87.5,-261.5 167.5,-261.5 167.5,-171.5 87.5,-171.5"/>
<text text-anchor="middle" x="127.5" y="-249.5" font-family="Helvetica,sans-Serif" font-size="10.00">IHotkey</text>
<polyline fill="none" stroke="black" points="87.5,-242.5 167.5,-242.5 "/>
<text text-anchor="start" x="95.5" y="-230.5" font-family="Helvetica,sans-Serif" font-size="10.00">+ ID</text>
<text text-anchor="start" x="95.5" y="-219.5" font-family="Helvetica,sans-Serif" font-size="10.00">+ Key</text>
<text text-anchor="start" x="95.5" y="-208.5" font-family="Helvetica,sans-Serif" font-size="10.00">+ Modifier</text>
<text text-anchor="start" x="95.5" y="-197.5" font-family="Helvetica,sans-Serif" font-size="10.00">+ Registered</text>
<polyline fill="none" stroke="black" points="87.5,-190.5 167.5,-190.5 "/>
<text text-anchor="middle" x="127.5" y="-178.5" font-family="Helvetica,sans-Serif" font-size="10.00"> </text>
</a>
</g>
</g>
<!-- Node2&#45;&gt;Node1 -->
<g id="edge1" class="edge">
<title>Node2&#45;&gt;Node1</title>
<path fill="none" stroke="midnightblue" d="M127.5,-161.37C127.5,-152.66 127.5,-143.55 127.5,-134.59"/>
<polygon fill="none" stroke="midnightblue" points="124,-161.4 127.5,-171.4 131,-161.4 124,-161.4"/>
</g>
<!-- Node3 -->
<g id="node3" class="node">
<title>Node3</title>
<g id="a_node3"><a xlink:title=" ">
<polygon fill="none" stroke="#bfbfbf" points="0,-298.5 0,-355.5 133,-355.5 133,-298.5 0,-298.5"/>
<text text-anchor="middle" x="66.5" y="-343.5" font-family="Helvetica,sans-Serif" font-size="10.00">INotifyPropertyChanged</text>
<polyline fill="none" stroke="#bfbfbf" points="0,-336.5 133,-336.5 "/>
<text text-anchor="middle" x="66.5" y="-324.5" font-family="Helvetica,sans-Serif" font-size="10.00"> </text>
<polyline fill="none" stroke="#bfbfbf" points="0,-317.5 133,-317.5 "/>
<text text-anchor="middle" x="66.5" y="-305.5" font-family="Helvetica,sans-Serif" font-size="10.00"> </text>
</a>
</g>
</g>
<!-- Node3&#45;&gt;Node1 -->
<g id="edge4" class="edge">
<title>Node3&#45;&gt;Node1</title>
<path fill="none" stroke="midnightblue" d="M65.58,-288.14C65.72,-256.35 68.06,-210 78.5,-171 81.74,-158.9 86.39,-146.5 91.54,-134.69"/>
<polygon fill="none" stroke="midnightblue" points="62.08,-288.34 65.61,-298.33 69.08,-288.32 62.08,-288.34"/>
</g>
<!-- Node3&#45;&gt;Node2 -->
<g id="edge2" class="edge">
<title>Node3&#45;&gt;Node2</title>
<path fill="none" stroke="midnightblue" d="M87.11,-289.34C92.13,-280.42 97.54,-270.78 102.73,-261.55"/>
<polygon fill="none" stroke="midnightblue" points="83.9,-287.91 82.05,-298.34 90,-291.34 83.9,-287.91"/>
</g>
<!-- Node4 -->
<g id="node4" class="node">
<title>Node4</title>
<g id="a_node4"><a xlink:title=" ">
<polygon fill="none" stroke="#bfbfbf" points="154.5,-298.5 154.5,-355.5 228.5,-355.5 228.5,-298.5 154.5,-298.5"/>
<text text-anchor="middle" x="191.5" y="-343.5" font-family="Helvetica,sans-Serif" font-size="10.00">IDisposable</text>
<polyline fill="none" stroke="#bfbfbf" points="154.5,-336.5 228.5,-336.5 "/>
<text text-anchor="middle" x="191.5" y="-324.5" font-family="Helvetica,sans-Serif" font-size="10.00"> </text>
<polyline fill="none" stroke="#bfbfbf" points="154.5,-317.5 228.5,-317.5 "/>
<text text-anchor="middle" x="191.5" y="-305.5" font-family="Helvetica,sans-Serif" font-size="10.00"> </text>
</a>
</g>
</g>
<!-- Node4&#45;&gt;Node1 -->
<g id="edge5" class="edge">
<title>Node4&#45;&gt;Node1</title>
<path fill="none" stroke="midnightblue" d="M191.5,-288.12C190.63,-256.32 187.33,-209.96 176.5,-171 173.14,-158.93 168.44,-146.55 163.26,-134.74"/>
<polygon fill="none" stroke="midnightblue" points="188,-288.39 191.7,-298.31 195,-288.24 188,-288.39"/>
</g>
<!-- Node4&#45;&gt;Node2 -->
<g id="edge3" class="edge">
<title>Node4&#45;&gt;Node2</title>
<path fill="none" stroke="midnightblue" d="M170.04,-289.63C164.73,-280.62 158.99,-270.88 153.49,-261.55"/>
<polygon fill="none" stroke="midnightblue" points="167.09,-291.51 175.18,-298.34 173.12,-287.95 167.09,-291.51"/>
</g>
</g>
</svg>
