<?xml version="1.0" encoding="UTF-8" standalone="no"?>
<!DOCTYPE svg PUBLIC "-//W3C//DTD SVG 1.1//EN"
 "http://www.w3.org/Graphics/SVG/1.1/DTD/svg11.dtd">
<!-- Generated by graphviz version 2.44.1 (20200629.0800)
 -->
<!-- Title: VolumeControl.WPF.Collections.BindableEventType Pages: 1 -->
<!--zoomable 402 -->
<svg id="main" version="1.1" xmlns="http://www.w3.org/2000/svg" xmlns:xlink="http://www.w3.org/1999/xlink" xml:space="preserve" onload="init(evt)">
<style type="text/css"><![CDATA[
.edge:hover path { stroke: red; }
.edge:hover polygon { stroke: red; fill: red; }
]]></style>
<script type="text/javascript"><![CDATA[
var edges = document.getElementsByTagName('g');
if (edges && edges.length) {
  for (var i=0;i<edges.length;i++) {
    if (edges[i].id.substr(0,4)=='edge') {
      edges[i].setAttribute('class','edge');
    }
  }
}
]]></script>
        <defs>
                <circle id="rim" cx="0" cy="0" r="7"/>
                <circle id="rim2" cx="0" cy="0" r="3.5"/>
                <g id="zoomPlus">
                        <use xlink:href="#rim" fill="#404040">
                                <set attributeName="fill" to="#808080" begin="zoomplus.mouseover" end="zoomplus.mouseout"/>
                        </use>
                        <path d="M-4,0h8M0,-4v8" fill="none" stroke="white" stroke-width="1.5" pointer-events="none"/>
                </g>
                <g id="zoomMin">
                        <use xlink:href="#rim" fill="#404040">
                                <set attributeName="fill" to="#808080" begin="zoomminus.mouseover" end="zoomminus.mouseout"/>
                        </use>
                        <path d="M-4,0h8" fill="none" stroke="white" stroke-width="1.5" pointer-events="none"/>
                </g>
                <g id="dirArrow">
                        <path fill="none" stroke="white" stroke-width="1.5" d="M0,-3.0v7 M-2.5,-0.5L0,-3.0L2.5,-0.5"/>
                </g>
               <g id="resetDef">
                       <use xlink:href="#rim2" fill="#404040">
                               <set attributeName="fill" to="#808080" begin="reset.mouseover" end="reset.mouseout"/>
                       </use>
               </g>
        </defs>

<script type="text/javascript">
var viewWidth = 1171;
var viewHeight = 402;
var sectionId = 'dynsection-1';
</script>
<script xlink:href="svgpan.js"/>
<svg id="graph" class="graph">
<g id="viewport">
<title>VolumeControl.WPF.Collections.BindableEventType</title>
<!-- Node1 -->
<g id="node1" class="node">
<title>Node1</title>
<g id="a_node1"><a xlink:title="Provides the source for a WPF list component&#39;s ItemsSource property to expose a readable and writable...">
<polygon fill="#bfbfbf" stroke="black" points="568.5,-0.5 568.5,-277.5 728.5,-277.5 728.5,-0.5 568.5,-0.5"/>
<text text-anchor="start" x="576.5" y="-265.5" font-family="Helvetica,sans-Serif" font-size="10.00">VolumeControl.WPF.Collections.</text>
<text text-anchor="middle" x="648.5" y="-254.5" font-family="Helvetica,sans-Serif" font-size="10.00">BindableEventType</text>
<polyline fill="none" stroke="black" points="568.5,-247.5 728.5,-247.5 "/>
<text text-anchor="start" x="576.5" y="-235.5" font-family="Helvetica,sans-Serif" font-size="10.00">+ this[int index]</text>
<text text-anchor="start" x="576.5" y="-224.5" font-family="Helvetica,sans-Serif" font-size="10.00">+ this[int index]</text>
<text text-anchor="start" x="576.5" y="-213.5" font-family="Helvetica,sans-Serif" font-size="10.00">+ Value</text>
<text text-anchor="start" x="576.5" y="-202.5" font-family="Helvetica,sans-Serif" font-size="10.00">+ Options</text>
<text text-anchor="start" x="576.5" y="-191.5" font-family="Helvetica,sans-Serif" font-size="10.00">+ Count</text>
<text text-anchor="start" x="576.5" y="-180.5" font-family="Helvetica,sans-Serif" font-size="10.00">+ IsReadOnly</text>
<text text-anchor="start" x="576.5" y="-169.5" font-family="Helvetica,sans-Serif" font-size="10.00">+ IsSynchronized</text>
<text text-anchor="start" x="576.5" y="-158.5" font-family="Helvetica,sans-Serif" font-size="10.00">+ SyncRoot</text>
<text text-anchor="start" x="576.5" y="-147.5" font-family="Helvetica,sans-Serif" font-size="10.00">+ IsFixedSize</text>
<polyline fill="none" stroke="black" points="568.5,-140.5 728.5,-140.5 "/>
<text text-anchor="start" x="576.5" y="-128.5" font-family="Helvetica,sans-Serif" font-size="10.00">+ BindableEventType()</text>
<text text-anchor="start" x="576.5" y="-117.5" font-family="Helvetica,sans-Serif" font-size="10.00">+ BindableEventType()</text>
<text text-anchor="start" x="576.5" y="-106.5" font-family="Helvetica,sans-Serif" font-size="10.00">+ Add()</text>
<text text-anchor="start" x="576.5" y="-95.5" font-family="Helvetica,sans-Serif" font-size="10.00">+ Add()</text>
<text text-anchor="start" x="576.5" y="-84.5" font-family="Helvetica,sans-Serif" font-size="10.00">+ Clear()</text>
<text text-anchor="start" x="576.5" y="-73.5" font-family="Helvetica,sans-Serif" font-size="10.00">+ Contains()</text>
<text text-anchor="start" x="576.5" y="-62.5" font-family="Helvetica,sans-Serif" font-size="10.00">+ Contains()</text>
<text text-anchor="start" x="576.5" y="-51.5" font-family="Helvetica,sans-Serif" font-size="10.00">+ CopyTo()</text>
<text text-anchor="start" x="576.5" y="-40.5" font-family="Helvetica,sans-Serif" font-size="10.00">+ CopyTo()</text>
<text text-anchor="start" x="576.5" y="-29.5" font-family="Helvetica,sans-Serif" font-size="10.00">+ GetEnumerator()</text>
<text text-anchor="start" x="576.5" y="-18.5" font-family="Helvetica,sans-Serif" font-size="10.00">and 7 more...</text>
<text text-anchor="start" x="576.5" y="-7.5" font-family="Helvetica,sans-Serif" font-size="10.00"># NotifyPropertyChanged()</text>
</a>
</g>
</g>
<!-- Node2 -->
<g id="node2" class="node">
<title>Node2</title>
<g id="a_node2"><a xlink:title=" ">
<polygon fill="none" stroke="#bfbfbf" points="0,-320 0,-388 151,-388 151,-320 0,-320"/>
<text text-anchor="start" x="8" y="-376" font-family="Helvetica,sans-Serif" font-size="10.00">ICollection&lt; BindableEvent</text>
<text text-anchor="middle" x="75.5" y="-365" font-family="Helvetica,sans-Serif" font-size="10.00">Type.BindableEventTypeFlag &gt;</text>
<polyline fill="none" stroke="#bfbfbf" points="0,-358 151,-358 "/>
<text text-anchor="middle" x="75.5" y="-346" font-family="Helvetica,sans-Serif" font-size="10.00"> </text>
<polyline fill="none" stroke="#bfbfbf" points="0,-339 151,-339 "/>
<text text-anchor="middle" x="75.5" y="-327" font-family="Helvetica,sans-Serif" font-size="10.00"> </text>
</a>
</g>
</g>
<!-- Node2&#45;&gt;Node1 -->
<g id="edge1" class="edge">
<title>Node2&#45;&gt;Node1</title>
<path fill="none" stroke="midnightblue" d="M154.71,-315.98C156.31,-315.31 157.91,-314.65 159.5,-314 301.49,-255.92 470.9,-198.14 568.45,-165.94"/>
<polygon fill="none" stroke="midnightblue" points="153.24,-312.81 145.41,-319.95 155.98,-319.24 153.24,-312.81"/>
</g>
<!-- Node3 -->
<g id="node3" class="node">
<title>Node3</title>
<g id="a_node3"><a xlink:title=" ">
<polygon fill="none" stroke="#bfbfbf" points="169,-320 169,-388 320,-388 320,-320 169,-320"/>
<text text-anchor="start" x="177" y="-376" font-family="Helvetica,sans-Serif" font-size="10.00">IEnumerable&lt; BindableEvent</text>
<text text-anchor="middle" x="244.5" y="-365" font-family="Helvetica,sans-Serif" font-size="10.00">Type.BindableEventTypeFlag &gt;</text>
<polyline fill="none" stroke="#bfbfbf" points="169,-358 320,-358 "/>
<text text-anchor="middle" x="244.5" y="-346" font-family="Helvetica,sans-Serif" font-size="10.00"> </text>
<polyline fill="none" stroke="#bfbfbf" points="169,-339 320,-339 "/>
<text text-anchor="middle" x="244.5" y="-327" font-family="Helvetica,sans-Serif" font-size="10.00"> </text>
</a>
</g>
</g>
<!-- Node3&#45;&gt;Node1 -->
<g id="edge2" class="edge">
<title>Node3&#45;&gt;Node1</title>
<path fill="none" stroke="midnightblue" d="M316.04,-315.28C386.74,-278.01 494.68,-221.1 568.26,-182.31"/>
<polygon fill="none" stroke="midnightblue" points="314.4,-312.19 307.18,-319.95 317.66,-318.38 314.4,-312.19"/>
</g>
<!-- Node4 -->
<g id="node4" class="node">
<title>Node4</title>
<g id="a_node4"><a xlink:title=" ">
<polygon fill="none" stroke="#bfbfbf" points="338,-325.5 338,-382.5 409,-382.5 409,-325.5 338,-325.5"/>
<text text-anchor="middle" x="373.5" y="-370.5" font-family="Helvetica,sans-Serif" font-size="10.00">IEnumerable</text>
<polyline fill="none" stroke="#bfbfbf" points="338,-363.5 409,-363.5 "/>
<text text-anchor="middle" x="373.5" y="-351.5" font-family="Helvetica,sans-Serif" font-size="10.00"> </text>
<polyline fill="none" stroke="#bfbfbf" points="338,-344.5 409,-344.5 "/>
<text text-anchor="middle" x="373.5" y="-332.5" font-family="Helvetica,sans-Serif" font-size="10.00"> </text>
</a>
</g>
</g>
<!-- Node4&#45;&gt;Node1 -->
<g id="edge3" class="edge">
<title>Node4&#45;&gt;Node1</title>
<path fill="none" stroke="midnightblue" d="M411.62,-318.89C413.6,-317.22 415.56,-315.58 417.5,-314 466.57,-273.88 523.43,-231.01 568.45,-197.86"/>
<polygon fill="none" stroke="midnightblue" points="409.32,-316.25 404,-325.41 413.87,-321.56 409.32,-316.25"/>
</g>
<!-- Node5 -->
<g id="node5" class="node">
<title>Node5</title>
<g id="a_node5"><a xlink:title=" ">
<polygon fill="none" stroke="#bfbfbf" points="427,-320 427,-388 556,-388 556,-320 427,-320"/>
<text text-anchor="start" x="435" y="-376" font-family="Helvetica,sans-Serif" font-size="10.00">IList&lt; BindableEventType.</text>
<text text-anchor="middle" x="491.5" y="-365" font-family="Helvetica,sans-Serif" font-size="10.00">BindableEventTypeFlag &gt;</text>
<polyline fill="none" stroke="#bfbfbf" points="427,-358 556,-358 "/>
<text text-anchor="middle" x="491.5" y="-346" font-family="Helvetica,sans-Serif" font-size="10.00"> </text>
<polyline fill="none" stroke="#bfbfbf" points="427,-339 556,-339 "/>
<text text-anchor="middle" x="491.5" y="-327" font-family="Helvetica,sans-Serif" font-size="10.00"> </text>
</a>
</g>
</g>
<!-- Node5&#45;&gt;Node1 -->
<g id="edge4" class="edge">
<title>Node5&#45;&gt;Node1</title>
<path fill="none" stroke="midnightblue" d="M521.97,-311.66C535.39,-293.46 551.84,-271.14 568.39,-248.68"/>
<polygon fill="none" stroke="midnightblue" points="519.15,-309.59 516.03,-319.72 524.78,-313.75 519.15,-309.59"/>
</g>
<!-- Node6 -->
<g id="node6" class="node">
<title>Node6</title>
<g id="a_node6"><a xlink:title=" ">
<polygon fill="none" stroke="#bfbfbf" points="574,-314.5 574,-393.5 723,-393.5 723,-314.5 574,-314.5"/>
<text text-anchor="start" x="582" y="-381.5" font-family="Helvetica,sans-Serif" font-size="10.00">IReadOnlyCollection</text>
<text text-anchor="start" x="582" y="-370.5" font-family="Helvetica,sans-Serif" font-size="10.00">&lt; BindableEventType.Bindable</text>
<text text-anchor="middle" x="648.5" y="-359.5" font-family="Helvetica,sans-Serif" font-size="10.00">EventTypeFlag &gt;</text>
<polyline fill="none" stroke="#bfbfbf" points="574,-352.5 723,-352.5 "/>
<text text-anchor="middle" x="648.5" y="-340.5" font-family="Helvetica,sans-Serif" font-size="10.00"> </text>
<polyline fill="none" stroke="#bfbfbf" points="574,-333.5 723,-333.5 "/>
<text text-anchor="middle" x="648.5" y="-321.5" font-family="Helvetica,sans-Serif" font-size="10.00"> </text>
</a>
</g>
</g>
<!-- Node6&#45;&gt;Node1 -->
<g id="edge5" class="edge">
<title>Node6&#45;&gt;Node1</title>
<path fill="none" stroke="midnightblue" d="M648.5,-304.3C648.5,-296.01 648.5,-287.04 648.5,-277.73"/>
<polygon fill="none" stroke="midnightblue" points="645,-304.43 648.5,-314.43 652,-304.43 645,-304.43"/>
</g>
<!-- Node7 -->
<g id="node7" class="node">
<title>Node7</title>
<g id="a_node7"><a xlink:title=" ">
<polygon fill="none" stroke="#bfbfbf" points="741,-320 741,-388 892,-388 892,-320 741,-320"/>
<text text-anchor="start" x="749" y="-376" font-family="Helvetica,sans-Serif" font-size="10.00">IReadOnlyList&lt; BindableEvent</text>
<text text-anchor="middle" x="816.5" y="-365" font-family="Helvetica,sans-Serif" font-size="10.00">Type.BindableEventTypeFlag &gt;</text>
<polyline fill="none" stroke="#bfbfbf" points="741,-358 892,-358 "/>
<text text-anchor="middle" x="816.5" y="-346" font-family="Helvetica,sans-Serif" font-size="10.00"> </text>
<polyline fill="none" stroke="#bfbfbf" points="741,-339 892,-339 "/>
<text text-anchor="middle" x="816.5" y="-327" font-family="Helvetica,sans-Serif" font-size="10.00"> </text>
</a>
</g>
</g>
<!-- Node7&#45;&gt;Node1 -->
<g id="edge6" class="edge">
<title>Node7&#45;&gt;Node1</title>
<path fill="none" stroke="midnightblue" d="M783.93,-311.71C768.08,-291.61 748.24,-266.46 728.69,-241.67"/>
<polygon fill="none" stroke="midnightblue" points="781.31,-314.03 790.25,-319.72 786.81,-309.7 781.31,-314.03"/>
</g>
<!-- Node8 -->
<g id="node8" class="node">
<title>Node8</title>
<g id="a_node8"><a xlink:title=" ">
<polygon fill="none" stroke="#bfbfbf" points="910.5,-325.5 910.5,-382.5 972.5,-382.5 972.5,-325.5 910.5,-325.5"/>
<text text-anchor="middle" x="941.5" y="-370.5" font-family="Helvetica,sans-Serif" font-size="10.00">ICollection</text>
<polyline fill="none" stroke="#bfbfbf" points="910.5,-363.5 972.5,-363.5 "/>
<text text-anchor="middle" x="941.5" y="-351.5" font-family="Helvetica,sans-Serif" font-size="10.00"> </text>
<polyline fill="none" stroke="#bfbfbf" points="910.5,-344.5 972.5,-344.5 "/>
<text text-anchor="middle" x="941.5" y="-332.5" font-family="Helvetica,sans-Serif" font-size="10.00"> </text>
</a>
</g>
</g>
<!-- Node8&#45;&gt;Node1 -->
<g id="edge7" class="edge">
<title>Node8&#45;&gt;Node1</title>
<path fill="none" stroke="midnightblue" d="M906.64,-318.36C904.92,-316.86 903.21,-315.4 901.5,-314 846.3,-268.66 779.57,-223.11 728.5,-190"/>
<polygon fill="none" stroke="midnightblue" points="904.33,-320.98 914.09,-325.09 909.02,-315.79 904.33,-320.98"/>
</g>
<!-- Node9 -->
<g id="node9" class="node">
<title>Node9</title>
<g id="a_node9"><a xlink:title=" ">
<polygon fill="none" stroke="#bfbfbf" points="991,-325.5 991,-382.5 1026,-382.5 1026,-325.5 991,-325.5"/>
<text text-anchor="middle" x="1008.5" y="-370.5" font-family="Helvetica,sans-Serif" font-size="10.00">IList</text>
<polyline fill="none" stroke="#bfbfbf" points="991,-363.5 1026,-363.5 "/>
<text text-anchor="middle" x="1008.5" y="-351.5" font-family="Helvetica,sans-Serif" font-size="10.00"> </text>
<polyline fill="none" stroke="#bfbfbf" points="991,-344.5 1026,-344.5 "/>
<text text-anchor="middle" x="1008.5" y="-332.5" font-family="Helvetica,sans-Serif" font-size="10.00"> </text>
</a>
</g>
</g>
<!-- Node9&#45;&gt;Node1 -->
<g id="edge8" class="edge">
<title>Node9&#45;&gt;Node1</title>
<path fill="none" stroke="midnightblue" d="M985.23,-317.57C984.02,-316.32 982.77,-315.12 981.5,-314 906.08,-247.4 800.65,-197.89 728.76,-169.05"/>
<polygon fill="none" stroke="midnightblue" points="982.59,-319.88 991.77,-325.17 987.9,-315.31 982.59,-319.88"/>
</g>
<!-- Node10 -->
<g id="node10" class="node">
<title>Node10</title>
<g id="a_node10"><a xlink:title=" ">
<polygon fill="none" stroke="#bfbfbf" points="1044,-325.5 1044,-382.5 1163,-382.5 1163,-325.5 1044,-325.5"/>
<text text-anchor="middle" x="1103.5" y="-370.5" font-family="Helvetica,sans-Serif" font-size="10.00">INotifyPropertyChanged</text>
<polyline fill="none" stroke="#bfbfbf" points="1044,-363.5 1163,-363.5 "/>
<text text-anchor="middle" x="1103.5" y="-351.5" font-family="Helvetica,sans-Serif" font-size="10.00"> </text>
<polyline fill="none" stroke="#bfbfbf" points="1044,-344.5 1163,-344.5 "/>
<text text-anchor="middle" x="1103.5" y="-332.5" font-family="Helvetica,sans-Serif" font-size="10.00"> </text>
</a>
</g>
</g>
<!-- Node10&#45;&gt;Node1 -->
<g id="edge9" class="edge">
<title>Node10&#45;&gt;Node1</title>
<path fill="none" stroke="midnightblue" d="M1047.69,-320.41C1043.59,-318.2 1039.5,-316.04 1035.5,-314 931.32,-260.87 807.53,-206.72 728.51,-173.25"/>
<polygon fill="none" stroke="midnightblue" points="1046.19,-323.58 1056.64,-325.33 1049.56,-317.45 1046.19,-323.58"/>
</g>
</g>
</svg>
        <g id="navigator" transform="translate(0 0)" fill="#404254">
                <rect fill="#f2f5e9" fill-opacity="0.5" stroke="#606060" stroke-width=".5" x="0" y="0" width="60" height="60"/>
                <use id="zoomplus" xlink:href="#zoomPlus" x="17" y="9" onmousedown="handleZoom(evt,'in')"/>
                <use id="zoomminus" xlink:href="#zoomMin" x="42" y="9" onmousedown="handleZoom(evt,'out')"/>
                <use id="reset" xlink:href="#resetDef" x="30" y="36" onmousedown="handleReset()"/>
                <g id="arrowUp" xlink:href="#dirArrow" transform="translate(30 24)" onmousedown="handlePan(0,-1)">
                  <use xlink:href="#rim" fill="#404040">
                        <set attributeName="fill" to="#808080" begin="arrowUp.mouseover" end="arrowUp.mouseout"/>
                  </use>
                  <path fill="none" stroke="white" stroke-width="1.5" d="M0,-3.0v7 M-2.5,-0.5L0,-3.0L2.5,-0.5"/>
                </g>
                <g id="arrowRight" xlink:href="#dirArrow" transform="rotate(90) translate(36 -43)" onmousedown="handlePan(1,0)">
                  <use xlink:href="#rim" fill="#404040">
                        <set attributeName="fill" to="#808080" begin="arrowRight.mouseover" end="arrowRight.mouseout"/>
                  </use>
                  <path fill="none" stroke="white" stroke-width="1.5" d="M0,-3.0v7 M-2.5,-0.5L0,-3.0L2.5,-0.5"/>
                </g>
                <g id="arrowDown" xlink:href="#dirArrow" transform="rotate(180) translate(-30 -48)" onmousedown="handlePan(0,1)">
                  <use xlink:href="#rim" fill="#404040">
                        <set attributeName="fill" to="#808080" begin="arrowDown.mouseover" end="arrowDown.mouseout"/>
                  </use>
                  <path fill="none" stroke="white" stroke-width="1.5" d="M0,-3.0v7 M-2.5,-0.5L0,-3.0L2.5,-0.5"/>
                </g>
                <g id="arrowLeft" xlink:href="#dirArrow" transform="rotate(270) translate(-36 17)" onmousedown="handlePan(-1,0)">
                  <use xlink:href="#rim" fill="#404040">
                        <set attributeName="fill" to="#808080" begin="arrowLeft.mouseover" end="arrowLeft.mouseout"/>
                  </use>
                  <path fill="none" stroke="white" stroke-width="1.5" d="M0,-3.0v7 M-2.5,-0.5L0,-3.0L2.5,-0.5"/>
                </g>
        </g>
        <svg viewBox="0 0 15 15" width="100%" height="30px" preserveAspectRatio="xMaxYMin meet">
         <g id="arrow_out" transform="scale(0.3 0.3)">
          <a xlink:href="class_volume_control_1_1_w_p_f_1_1_collections_1_1_bindable_event_type__coll__graph_org.svg" target="_base">
           <rect id="button" ry="5" rx="5" y="6" x="6" height="38" width="38"
                fill="#f2f5e9" fill-opacity="0.5" stroke="#606060" stroke-width="1.0"/>
           <path id="arrow"
             d="M 11.500037,31.436501 C 11.940474,20.09759 22.043105,11.32322 32.158766,21.979434 L 37.068811,17.246167 C 37.068811,17.246167 37.088388,32 37.088388,32 L 22.160133,31.978069 C 22.160133,31.978069 26.997745,27.140456 26.997745,27.140456 C 18.528582,18.264221 13.291696,25.230495 11.500037,31.436501 z"
             style="fill:#404040;"/>
          </a>
         </g>
        </svg>
</svg>
