<?xml version="1.0" encoding="UTF-8" standalone="no"?>
<!DOCTYPE svg PUBLIC "-//W3C//DTD SVG 1.1//EN"
 "http://www.w3.org/Graphics/SVG/1.1/DTD/svg11.dtd">
<!-- Generated by graphviz version 2.43.0 (0)
 -->
<!-- Title: VolumeControl.Log.LogWriter.Warning Pages: 1 -->
<svg width="378pt" height="137pt"
 viewBox="0.00 0.00 378.00 137.00" xmlns="http://www.w3.org/2000/svg" xmlns:xlink="http://www.w3.org/1999/xlink">
<g id="graph0" class="graph" transform="scale(1 1) rotate(0) translate(4 133)">
<title>VolumeControl.Log.LogWriter.Warning</title>
<!-- Node1 -->
<g id="node1" class="node">
<title>Node1</title>
<g id="a_node1"><a xlink:title="Write a formatted EventType.WARN message to the log endpoint.">
<polygon fill="#bfbfbf" stroke="black" points="209,-49.5 209,-79.5 370,-79.5 370,-49.5 209,-49.5"/>
<text text-anchor="start" x="217" y="-67.5" font-family="Helvetica,sans-Serif" font-size="10.00">VolumeControl.Log.LogWriter.</text>
<text text-anchor="middle" x="289.5" y="-56.5" font-family="Helvetica,sans-Serif" font-size="10.00">Warning</text>
</a>
</g>
</g>
<!-- Node2 -->
<g id="node2" class="node">
<title>Node2</title>
<g id="a_node2"><a xlink:href="class_volume_control_1_1_w_p_f_1_1_icon_getter.html#ae57feab69f052d45a780d8153d87af54" target="_top" xlink:title="Gets the large and small variants of the specified icon from the specified DLL.">
<polygon fill="none" stroke="black" points="2.5,-98.5 2.5,-128.5 170.5,-128.5 170.5,-98.5 2.5,-98.5"/>
<text text-anchor="start" x="10.5" y="-116.5" font-family="Helvetica,sans-Serif" font-size="10.00">VolumeControl.WPF.IconGetter.</text>
<text text-anchor="middle" x="86.5" y="-105.5" font-family="Helvetica,sans-Serif" font-size="10.00">GetIcons</text>
</a>
</g>
</g>
<!-- Node1&#45;&gt;Node2 -->
<g id="edge1" class="edge">
<title>Node1&#45;&gt;Node2</title>
<path fill="none" stroke="midnightblue" d="M217.11,-81.9C194.87,-87.32 170.56,-93.25 149.06,-98.49"/>
<polygon fill="midnightblue" stroke="midnightblue" points="217.94,-85.3 226.83,-79.53 216.28,-78.5 217.94,-85.3"/>
</g>
<!-- Node3 -->
<g id="node3" class="node">
<title>Node3</title>
<g id="a_node3"><a xlink:href="class_volume_control_1_1_s_d_k_1_1_internal_1_1_initializer.html#a554bed73713974e7844b1fb940b0a63b" target="_top" xlink:title=" ">
<polygon fill="none" stroke="black" points="9,-49.5 9,-79.5 164,-79.5 164,-49.5 9,-49.5"/>
<text text-anchor="start" x="17" y="-67.5" font-family="Helvetica,sans-Serif" font-size="10.00">VolumeControl.SDK.Internal.</text>
<text text-anchor="middle" x="86.5" y="-56.5" font-family="Helvetica,sans-Serif" font-size="10.00">Initializer.Initialize</text>
</a>
</g>
</g>
<!-- Node1&#45;&gt;Node3 -->
<g id="edge2" class="edge">
<title>Node1&#45;&gt;Node3</title>
<path fill="none" stroke="midnightblue" d="M198.71,-64.5C187.18,-64.5 175.47,-64.5 164.18,-64.5"/>
<polygon fill="midnightblue" stroke="midnightblue" points="198.77,-68 208.77,-64.5 198.77,-61 198.77,-68"/>
</g>
<!-- Node4 -->
<g id="node4" class="node">
<title>Node4</title>
<g id="a_node4"><a xlink:href="class_volume_control_1_1_w_p_f_1_1_h_wnd_hook.html#af0585367ed6c7c839158d03f4fd73830" target="_top" xlink:title="Removes a message handler.">
<polygon fill="none" stroke="black" points="0,-0.5 0,-30.5 173,-30.5 173,-0.5 0,-0.5"/>
<text text-anchor="start" x="8" y="-18.5" font-family="Helvetica,sans-Serif" font-size="10.00">VolumeControl.WPF.HWndHook.</text>
<text text-anchor="middle" x="86.5" y="-7.5" font-family="Helvetica,sans-Serif" font-size="10.00">RemoveHook</text>
</a>
</g>
</g>
<!-- Node1&#45;&gt;Node4 -->
<g id="edge3" class="edge">
<title>Node1&#45;&gt;Node4</title>
<path fill="none" stroke="midnightblue" d="M217.11,-47.1C194.87,-41.68 170.56,-35.75 149.06,-30.51"/>
<polygon fill="midnightblue" stroke="midnightblue" points="216.28,-50.5 226.83,-49.47 217.94,-43.7 216.28,-50.5"/>
</g>
</g>
</svg>
