<?xml version="1.0" encoding="UTF-8" standalone="no"?>
<!DOCTYPE svg PUBLIC "-//W3C//DTD SVG 1.1//EN"
 "http://www.w3.org/Graphics/SVG/1.1/DTD/svg11.dtd">
<!-- Generated by graphviz version 2.43.0 (0)
 -->
<!-- Title: VolumeControl.Core.Input.HotkeyManager.RemoveHotkey Pages: 1 -->
<svg width="609pt" height="50pt"
 viewBox="0.00 0.00 609.00 50.00" xmlns="http://www.w3.org/2000/svg" xmlns:xlink="http://www.w3.org/1999/xlink">
<g id="graph0" class="graph" transform="scale(1 1) rotate(0) translate(4 46)">
<title>VolumeControl.Core.Input.HotkeyManager.RemoveHotkey</title>
<!-- Node1 -->
<g id="node1" class="node">
<title>Node1</title>
<g id="a_node1"><a xlink:title="Removes the specified hotkey &#160;from the manager.">
<polygon fill="#bfbfbf" stroke="black" points="430,-6 430,-36 601,-36 601,-6 430,-6"/>
<text text-anchor="start" x="438" y="-24" font-family="Helvetica,sans-Serif" font-size="10.00">VolumeControl.Core.Input.</text>
<text text-anchor="middle" x="515.5" y="-13" font-family="Helvetica,sans-Serif" font-size="10.00">HotkeyManager.RemoveHotkey</text>
</a>
</g>
</g>
<!-- Node2 -->
<g id="node2" class="node">
<title>Node2</title>
<g id="a_node2"><a xlink:href="class_volume_control_1_1_core_1_1_input_1_1_hotkey_manager.html#a8c873d37958d80a9ebbbe1887bd0c2d0" target="_top" xlink:title="Removes all hotkeys from the manager.">
<polygon fill="none" stroke="black" points="233,-6 233,-36 394,-36 394,-6 233,-6"/>
<text text-anchor="start" x="241" y="-24" font-family="Helvetica,sans-Serif" font-size="10.00">VolumeControl.Core.Input.</text>
<text text-anchor="middle" x="313.5" y="-13" font-family="Helvetica,sans-Serif" font-size="10.00">HotkeyManager.ClearHotkeys</text>
</a>
</g>
</g>
<!-- Node1&#45;&gt;Node2 -->
<g id="edge1" class="edge">
<title>Node1&#45;&gt;Node2</title>
<path fill="none" stroke="midnightblue" d="M419.93,-21C411.35,-21 402.71,-21 394.27,-21"/>
<polygon fill="midnightblue" stroke="midnightblue" points="419.97,-24.5 429.97,-21 419.97,-17.5 419.97,-24.5"/>
</g>
<!-- Node3 -->
<g id="node3" class="node">
<title>Node3</title>
<g id="a_node3"><a xlink:href="class_volume_control_1_1_core_1_1_input_1_1_hotkey_manager.html#afe1c1e67278a9ec7562b37b514bc0998" target="_top" xlink:title="Sets the list of managed hotkeys from the specified hotkeyJsonObjects .">
<polygon fill="none" stroke="black" points="0,-0.5 0,-41.5 197,-41.5 197,-0.5 0,-0.5"/>
<text text-anchor="start" x="8" y="-29.5" font-family="Helvetica,sans-Serif" font-size="10.00">VolumeControl.Core.Input.</text>
<text text-anchor="start" x="8" y="-18.5" font-family="Helvetica,sans-Serif" font-size="10.00">HotkeyManager.SetHotkeysFromJson</text>
<text text-anchor="middle" x="98.5" y="-7.5" font-family="Helvetica,sans-Serif" font-size="10.00">Hotkeys&lt; THotkey &gt;</text>
</a>
</g>
</g>
<!-- Node2&#45;&gt;Node3 -->
<g id="edge2" class="edge">
<title>Node2&#45;&gt;Node3</title>
<path fill="none" stroke="midnightblue" d="M222.64,-21C214.17,-21 205.55,-21 197.02,-21"/>
<polygon fill="midnightblue" stroke="midnightblue" points="222.88,-24.5 232.88,-21 222.88,-17.5 222.88,-24.5"/>
</g>
</g>
</svg>
