<?xml version="1.0" encoding="UTF-8" standalone="no"?>
<!DOCTYPE svg PUBLIC "-//W3C//DTD SVG 1.1//EN"
 "http://www.w3.org/Graphics/SVG/1.1/DTD/svg11.dtd">
<!-- Generated by graphviz version 2.43.0 (0)
 -->
<!-- Title: VolumeControl.Core.Input.Hotkey Pages: 1 -->
<svg width="237pt" height="419pt"
 viewBox="0.00 0.00 236.50 419.00" xmlns="http://www.w3.org/2000/svg" xmlns:xlink="http://www.w3.org/1999/xlink">
<g id="graph0" class="graph" transform="scale(1 1) rotate(0) translate(4 415)">
<title>VolumeControl.Core.Input.Hotkey</title>
<!-- Node1 -->
<g id="node1" class="node">
<title>Node1</title>
<g id="a_node1"><a xlink:title="A Hotkey that may be registered with the windows API.">
<polygon fill="#bfbfbf" stroke="black" points="50,-0.5 50,-189.5 205,-189.5 205,-0.5 50,-0.5"/>
<text text-anchor="start" x="58" y="-177.5" font-family="Helvetica,sans-Serif" font-size="10.00">VolumeControl.Core.Input.</text>
<text text-anchor="middle" x="127.5" y="-166.5" font-family="Helvetica,sans-Serif" font-size="10.00">Hotkey</text>
<polyline fill="none" stroke="black" points="50,-159.5 205,-159.5 "/>
<text text-anchor="start" x="58" y="-147.5" font-family="Helvetica,sans-Serif" font-size="10.00">+ ID</text>
<text text-anchor="start" x="58" y="-136.5" font-family="Helvetica,sans-Serif" font-size="10.00">+ Key</text>
<text text-anchor="start" x="58" y="-125.5" font-family="Helvetica,sans-Serif" font-size="10.00">+ Modifier</text>
<text text-anchor="start" x="58" y="-114.5" font-family="Helvetica,sans-Serif" font-size="10.00">+ Registered</text>
<text text-anchor="start" x="58" y="-103.5" font-family="Helvetica,sans-Serif" font-size="10.00">+ HasError</text>
<text text-anchor="start" x="58" y="-92.5" font-family="Helvetica,sans-Serif" font-size="10.00">+ ErrorMessage</text>
<polyline fill="none" stroke="black" points="50,-85.5 205,-85.5 "/>
<text text-anchor="start" x="58" y="-73.5" font-family="Helvetica,sans-Serif" font-size="10.00">+ Hotkey()</text>
<text text-anchor="start" x="58" y="-62.5" font-family="Helvetica,sans-Serif" font-size="10.00">+ Hotkey()</text>
<text text-anchor="start" x="58" y="-51.5" font-family="Helvetica,sans-Serif" font-size="10.00">+ GetStringRepresentation()</text>
<text text-anchor="start" x="58" y="-40.5" font-family="Helvetica,sans-Serif" font-size="10.00">+ Dispose()</text>
<text text-anchor="start" x="58" y="-29.5" font-family="Helvetica,sans-Serif" font-size="10.00">~ SetError()</text>
<text text-anchor="start" x="58" y="-18.5" font-family="Helvetica,sans-Serif" font-size="10.00">~ UnsetError()</text>
<text text-anchor="start" x="58" y="-7.5" font-family="Helvetica,sans-Serif" font-size="10.00">~ MessageHook()</text>
</a>
</g>
</g>
<!-- Node2 -->
<g id="node2" class="node">
<title>Node2</title>
<g id="a_node2"><a xlink:href="interface_volume_control_1_1_core_1_1_input_1_1_i_hotkey.html" target="_top" xlink:title="Represents a hotkey instance.">
<polygon fill="none" stroke="black" points="87.5,-226.5 87.5,-316.5 167.5,-316.5 167.5,-226.5 87.5,-226.5"/>
<text text-anchor="middle" x="127.5" y="-304.5" font-family="Helvetica,sans-Serif" font-size="10.00">IHotkey</text>
<polyline fill="none" stroke="black" points="87.5,-297.5 167.5,-297.5 "/>
<text text-anchor="start" x="95.5" y="-285.5" font-family="Helvetica,sans-Serif" font-size="10.00">+ ID</text>
<text text-anchor="start" x="95.5" y="-274.5" font-family="Helvetica,sans-Serif" font-size="10.00">+ Key</text>
<text text-anchor="start" x="95.5" y="-263.5" font-family="Helvetica,sans-Serif" font-size="10.00">+ Modifier</text>
<text text-anchor="start" x="95.5" y="-252.5" font-family="Helvetica,sans-Serif" font-size="10.00">+ Registered</text>
<polyline fill="none" stroke="black" points="87.5,-245.5 167.5,-245.5 "/>
<text text-anchor="middle" x="127.5" y="-233.5" font-family="Helvetica,sans-Serif" font-size="10.00"> </text>
</a>
</g>
</g>
<!-- Node2&#45;&gt;Node1 -->
<g id="edge1" class="edge">
<title>Node2&#45;&gt;Node1</title>
<path fill="none" stroke="midnightblue" d="M127.5,-216.36C127.5,-207.86 127.5,-198.86 127.5,-189.76"/>
<polygon fill="none" stroke="midnightblue" points="124,-216.47 127.5,-226.47 131,-216.47 124,-216.47"/>
</g>
<!-- Node3 -->
<g id="node3" class="node">
<title>Node3</title>
<g id="a_node3"><a xlink:title=" ">
<polygon fill="none" stroke="#bfbfbf" points="0,-353.5 0,-410.5 133,-410.5 133,-353.5 0,-353.5"/>
<text text-anchor="middle" x="66.5" y="-398.5" font-family="Helvetica,sans-Serif" font-size="10.00">INotifyPropertyChanged</text>
<polyline fill="none" stroke="#bfbfbf" points="0,-391.5 133,-391.5 "/>
<text text-anchor="middle" x="66.5" y="-379.5" font-family="Helvetica,sans-Serif" font-size="10.00"> </text>
<polyline fill="none" stroke="#bfbfbf" points="0,-372.5 133,-372.5 "/>
<text text-anchor="middle" x="66.5" y="-360.5" font-family="Helvetica,sans-Serif" font-size="10.00"> </text>
</a>
</g>
</g>
<!-- Node3&#45;&gt;Node1 -->
<g id="edge4" class="edge">
<title>Node3&#45;&gt;Node1</title>
<path fill="none" stroke="midnightblue" d="M66.45,-343.35C67.12,-311.69 69.73,-265.41 78.5,-226 81.14,-214.11 84.65,-201.85 88.58,-189.83"/>
<polygon fill="none" stroke="midnightblue" points="62.95,-343.44 66.3,-353.5 69.95,-343.55 62.95,-343.44"/>
</g>
<!-- Node3&#45;&gt;Node2 -->
<g id="edge2" class="edge">
<title>Node3&#45;&gt;Node2</title>
<path fill="none" stroke="midnightblue" d="M87.11,-344.34C92.13,-335.42 97.54,-325.78 102.73,-316.55"/>
<polygon fill="none" stroke="midnightblue" points="83.9,-342.91 82.05,-353.34 90,-346.34 83.9,-342.91"/>
</g>
<!-- Node4 -->
<g id="node4" class="node">
<title>Node4</title>
<g id="a_node4"><a xlink:title=" ">
<polygon fill="none" stroke="#bfbfbf" points="154.5,-353.5 154.5,-410.5 228.5,-410.5 228.5,-353.5 154.5,-353.5"/>
<text text-anchor="middle" x="191.5" y="-398.5" font-family="Helvetica,sans-Serif" font-size="10.00">IDisposable</text>
<polyline fill="none" stroke="#bfbfbf" points="154.5,-391.5 228.5,-391.5 "/>
<text text-anchor="middle" x="191.5" y="-379.5" font-family="Helvetica,sans-Serif" font-size="10.00"> </text>
<polyline fill="none" stroke="#bfbfbf" points="154.5,-372.5 228.5,-372.5 "/>
<text text-anchor="middle" x="191.5" y="-360.5" font-family="Helvetica,sans-Serif" font-size="10.00"> </text>
</a>
</g>
</g>
<!-- Node4&#45;&gt;Node1 -->
<g id="edge5" class="edge">
<title>Node4&#45;&gt;Node1</title>
<path fill="none" stroke="midnightblue" d="M190.63,-343.34C189.24,-311.67 185.66,-265.39 176.5,-226 173.71,-214.02 170.09,-201.65 166.08,-189.53"/>
<polygon fill="none" stroke="midnightblue" points="187.14,-343.63 191.02,-353.49 194.13,-343.36 187.14,-343.63"/>
</g>
<!-- Node4&#45;&gt;Node2 -->
<g id="edge3" class="edge">
<title>Node4&#45;&gt;Node2</title>
<path fill="none" stroke="midnightblue" d="M170.04,-344.63C164.73,-335.62 158.99,-325.88 153.49,-316.55"/>
<polygon fill="none" stroke="midnightblue" points="167.09,-346.51 175.18,-353.34 173.12,-342.95 167.09,-346.51"/>
</g>
</g>
</svg>
