<?xml version="1.0" encoding="UTF-8" standalone="no"?>
<!DOCTYPE svg PUBLIC "-//W3C//DTD SVG 1.1//EN"
 "http://www.w3.org/Graphics/SVG/1.1/DTD/svg11.dtd">
<!-- Generated by graphviz version 2.43.0 (0)
 -->
<!-- Title: VolumeControl.Log.LogWriter.Debug Pages: 1 -->
<svg width="378pt" height="235pt"
 viewBox="0.00 0.00 378.00 235.00" xmlns="http://www.w3.org/2000/svg" xmlns:xlink="http://www.w3.org/1999/xlink">
<g id="graph0" class="graph" transform="scale(1 1) rotate(0) translate(4 231)">
<title>VolumeControl.Log.LogWriter.Debug</title>
<!-- Node1 -->
<g id="node1" class="node">
<title>Node1</title>
<g id="a_node1"><a xlink:title="Write a formatted EventType.DEBUG message to the log endpoint.">
<polygon fill="#bfbfbf" stroke="black" points="209,-98.5 209,-128.5 370,-128.5 370,-98.5 209,-98.5"/>
<text text-anchor="start" x="217" y="-116.5" font-family="Helvetica,sans-Serif" font-size="10.00">VolumeControl.Log.LogWriter.</text>
<text text-anchor="middle" x="289.5" y="-105.5" font-family="Helvetica,sans-Serif" font-size="10.00">Debug</text>
</a>
</g>
</g>
<!-- Node2 -->
<g id="node2" class="node">
<title>Node2</title>
<g id="a_node2"><a xlink:href="class_volume_control_1_1_w_p_f_1_1_h_wnd_hook.html#ac375922fcbe751d605d86b2fab01b17d" target="_top" xlink:title="Adds a message handler.">
<polygon fill="none" stroke="black" points="0,-196.5 0,-226.5 173,-226.5 173,-196.5 0,-196.5"/>
<text text-anchor="start" x="8" y="-214.5" font-family="Helvetica,sans-Serif" font-size="10.00">VolumeControl.WPF.HWndHook.</text>
<text text-anchor="middle" x="86.5" y="-203.5" font-family="Helvetica,sans-Serif" font-size="10.00">AddHook</text>
</a>
</g>
</g>
<!-- Node1&#45;&gt;Node2 -->
<g id="edge1" class="edge">
<title>Node1&#45;&gt;Node2</title>
<path fill="none" stroke="midnightblue" d="M260.98,-134.46C238.37,-150.84 204.98,-173.15 173,-187.5 165.54,-190.84 157.51,-193.83 149.46,-196.47"/>
<polygon fill="midnightblue" stroke="midnightblue" points="263.1,-137.25 269.09,-128.51 258.95,-131.61 263.1,-137.25"/>
</g>
<!-- Node3 -->
<g id="node3" class="node">
<title>Node3</title>
<g id="a_node3"><a xlink:href="class_volume_control_1_1_w_p_f_1_1_icon_getter.html#ae57feab69f052d45a780d8153d87af54" target="_top" xlink:title="Gets the large and small variants of the specified icon from the specified DLL.">
<polygon fill="none" stroke="black" points="2.5,-147.5 2.5,-177.5 170.5,-177.5 170.5,-147.5 2.5,-147.5"/>
<text text-anchor="start" x="10.5" y="-165.5" font-family="Helvetica,sans-Serif" font-size="10.00">VolumeControl.WPF.IconGetter.</text>
<text text-anchor="middle" x="86.5" y="-154.5" font-family="Helvetica,sans-Serif" font-size="10.00">GetIcons</text>
</a>
</g>
</g>
<!-- Node1&#45;&gt;Node3 -->
<g id="edge2" class="edge">
<title>Node1&#45;&gt;Node3</title>
<path fill="none" stroke="midnightblue" d="M217.11,-130.9C194.87,-136.32 170.56,-142.25 149.06,-147.49"/>
<polygon fill="midnightblue" stroke="midnightblue" points="217.94,-134.3 226.83,-128.53 216.28,-127.5 217.94,-134.3"/>
</g>
<!-- Node4 -->
<g id="node4" class="node">
<title>Node4</title>
<g id="a_node4"><a xlink:href="class_volume_control_1_1_core_1_1_config.html#a6c890b9f23d737235d707b288ae0899f" target="_top" xlink:title="Pauses automatic saving of the config to disk whenever a PropertyChanged event is triggered.">
<polygon fill="none" stroke="black" points="11,-98.5 11,-128.5 162,-128.5 162,-98.5 11,-98.5"/>
<text text-anchor="start" x="19" y="-116.5" font-family="Helvetica,sans-Serif" font-size="10.00">VolumeControl.Core.Config.</text>
<text text-anchor="middle" x="86.5" y="-105.5" font-family="Helvetica,sans-Serif" font-size="10.00">PauseAutoSave</text>
</a>
</g>
</g>
<!-- Node1&#45;&gt;Node4 -->
<g id="edge3" class="edge">
<title>Node1&#45;&gt;Node4</title>
<path fill="none" stroke="midnightblue" d="M198.62,-113.5C186.46,-113.5 174.09,-113.5 162.23,-113.5"/>
<polygon fill="midnightblue" stroke="midnightblue" points="198.77,-117 208.77,-113.5 198.77,-110 198.77,-117"/>
</g>
<!-- Node5 -->
<g id="node5" class="node">
<title>Node5</title>
<g id="a_node5"><a xlink:href="class_volume_control_1_1_w_p_f_1_1_h_wnd_hook.html#af0585367ed6c7c839158d03f4fd73830" target="_top" xlink:title="Removes a message handler.">
<polygon fill="none" stroke="black" points="0,-49.5 0,-79.5 173,-79.5 173,-49.5 0,-49.5"/>
<text text-anchor="start" x="8" y="-67.5" font-family="Helvetica,sans-Serif" font-size="10.00">VolumeControl.WPF.HWndHook.</text>
<text text-anchor="middle" x="86.5" y="-56.5" font-family="Helvetica,sans-Serif" font-size="10.00">RemoveHook</text>
</a>
</g>
</g>
<!-- Node1&#45;&gt;Node5 -->
<g id="edge4" class="edge">
<title>Node1&#45;&gt;Node5</title>
<path fill="none" stroke="midnightblue" d="M217.11,-96.1C194.87,-90.68 170.56,-84.75 149.06,-79.51"/>
<polygon fill="midnightblue" stroke="midnightblue" points="216.28,-99.5 226.83,-98.47 217.94,-92.7 216.28,-99.5"/>
</g>
<!-- Node6 -->
<g id="node6" class="node">
<title>Node6</title>
<g id="a_node6"><a xlink:href="class_volume_control_1_1_w_p_f_1_1_h_wnd_hook.html#a868775e4b7d5ddf507899f279feb7231" target="_top" xlink:title="Sets the HwndSource used to add and remove hooks.">
<polygon fill="none" stroke="black" points="0,-0.5 0,-30.5 173,-30.5 173,-0.5 0,-0.5"/>
<text text-anchor="start" x="8" y="-18.5" font-family="Helvetica,sans-Serif" font-size="10.00">VolumeControl.WPF.HWndHook.</text>
<text text-anchor="middle" x="86.5" y="-7.5" font-family="Helvetica,sans-Serif" font-size="10.00">SetSource</text>
</a>
</g>
</g>
<!-- Node1&#45;&gt;Node6 -->
<g id="edge5" class="edge">
<title>Node1&#45;&gt;Node6</title>
<path fill="none" stroke="midnightblue" d="M260.48,-92.64C237.83,-76.58 204.63,-54.78 173,-40.5 164.82,-36.81 155.96,-33.51 147.15,-30.61"/>
<polygon fill="midnightblue" stroke="midnightblue" points="258.45,-95.5 268.62,-98.49 262.54,-89.81 258.45,-95.5"/>
</g>
</g>
</svg>
