<?xml version="1.0" encoding="UTF-8" standalone="no"?>
<!DOCTYPE svg PUBLIC "-//W3C//DTD SVG 1.1//EN"
 "http://www.w3.org/Graphics/SVG/1.1/DTD/svg11.dtd">
<!-- Generated by graphviz version 2.43.0 (0)
 -->
<!-- Title: VolumeControl.Audio.AudioSession Pages: 1 -->
<svg width="748pt" height="766pt"
 viewBox="0.00 0.00 747.50 766.00" xmlns="http://www.w3.org/2000/svg" xmlns:xlink="http://www.w3.org/1999/xlink">
<g id="graph0" class="graph" transform="scale(1 1) rotate(0) translate(4 762)">
<title>VolumeControl.Audio.AudioSession</title>
<!-- Node1 -->
<g id="node1" class="node">
<title>Node1</title>
<g id="a_node1"><a xlink:title="Represents an audio session playing on the system.">
<polygon fill="#bfbfbf" stroke="black" points="234.5,-0.5 234.5,-387.5 384.5,-387.5 384.5,-0.5 234.5,-0.5"/>
<text text-anchor="start" x="242.5" y="-375.5" font-family="Helvetica,sans-Serif" font-size="10.00">VolumeControl.Audio.Audio</text>
<text text-anchor="middle" x="309.5" y="-364.5" font-family="Helvetica,sans-Serif" font-size="10.00">Session</text>
<polyline fill="none" stroke="black" points="234.5,-357.5 384.5,-357.5 "/>
<text text-anchor="start" x="242.5" y="-345.5" font-family="Helvetica,sans-Serif" font-size="10.00">+ HashCode</text>
<text text-anchor="start" x="242.5" y="-334.5" font-family="Helvetica,sans-Serif" font-size="10.00">+ VolumeController</text>
<text text-anchor="start" x="242.5" y="-323.5" font-family="Helvetica,sans-Serif" font-size="10.00">+ State</text>
<text text-anchor="start" x="242.5" y="-312.5" font-family="Helvetica,sans-Serif" font-size="10.00">+ IconPath</text>
<text text-anchor="start" x="242.5" y="-301.5" font-family="Helvetica,sans-Serif" font-size="10.00">+ Icon</text>
<text text-anchor="start" x="242.5" y="-290.5" font-family="Helvetica,sans-Serif" font-size="10.00">+ ProcessIdentifier</text>
<text text-anchor="start" x="242.5" y="-279.5" font-family="Helvetica,sans-Serif" font-size="10.00">+ Active</text>
<text text-anchor="start" x="242.5" y="-268.5" font-family="Helvetica,sans-Serif" font-size="10.00">+ int</text>
<text text-anchor="start" x="242.5" y="-257.5" font-family="Helvetica,sans-Serif" font-size="10.00">+ SessionIdentifier</text>
<text text-anchor="start" x="242.5" y="-246.5" font-family="Helvetica,sans-Serif" font-size="10.00">+ SessionInstanceIdentifier</text>
<text text-anchor="start" x="242.5" y="-235.5" font-family="Helvetica,sans-Serif" font-size="10.00">+ Icons</text>
<text text-anchor="start" x="242.5" y="-224.5" font-family="Helvetica,sans-Serif" font-size="10.00">+ Volume</text>
<text text-anchor="start" x="242.5" y="-213.5" font-family="Helvetica,sans-Serif" font-size="10.00">+ NativeVolume</text>
<text text-anchor="start" x="242.5" y="-202.5" font-family="Helvetica,sans-Serif" font-size="10.00">+ Muted</text>
<text text-anchor="start" x="242.5" y="-191.5" font-family="Helvetica,sans-Serif" font-size="10.00">+ GroupingParam</text>
<text text-anchor="start" x="242.5" y="-180.5" font-family="Helvetica,sans-Serif" font-size="10.00">+ DisplayName</text>
<text text-anchor="start" x="242.5" y="-169.5" font-family="Helvetica,sans-Serif" font-size="10.00">+ ProcessName</text>
<text text-anchor="start" x="242.5" y="-158.5" font-family="Helvetica,sans-Serif" font-size="10.00">+ PID</text>
<text text-anchor="start" x="242.5" y="-147.5" font-family="Helvetica,sans-Serif" font-size="10.00">+ IsRunning</text>
<text text-anchor="start" x="242.5" y="-136.5" font-family="Helvetica,sans-Serif" font-size="10.00">+ NotificationClient</text>
<text text-anchor="start" x="242.5" y="-125.5" font-family="Helvetica,sans-Serif" font-size="10.00">+ Process</text>
<text text-anchor="start" x="242.5" y="-114.5" font-family="Helvetica,sans-Serif" font-size="10.00">+ Name</text>
<polyline fill="none" stroke="black" points="234.5,-107.5 384.5,-107.5 "/>
<text text-anchor="start" x="242.5" y="-95.5" font-family="Helvetica,sans-Serif" font-size="10.00">+ GetIcons()</text>
<text text-anchor="start" x="242.5" y="-84.5" font-family="Helvetica,sans-Serif" font-size="10.00">+ GetProcess()</text>
<text text-anchor="start" x="242.5" y="-73.5" font-family="Helvetica,sans-Serif" font-size="10.00">+ Dispose()</text>
<text text-anchor="start" x="242.5" y="-62.5" font-family="Helvetica,sans-Serif" font-size="10.00">+ Equals()</text>
<text text-anchor="start" x="242.5" y="-51.5" font-family="Helvetica,sans-Serif" font-size="10.00">+ Equals()</text>
<text text-anchor="start" x="242.5" y="-40.5" font-family="Helvetica,sans-Serif" font-size="10.00">+ Equals()</text>
<text text-anchor="start" x="242.5" y="-29.5" font-family="Helvetica,sans-Serif" font-size="10.00">+ GetHashCode()</text>
<text text-anchor="start" x="242.5" y="-18.5" font-family="Helvetica,sans-Serif" font-size="10.00">~ AudioSession()</text>
<text text-anchor="start" x="242.5" y="-7.5" font-family="Helvetica,sans-Serif" font-size="10.00">~ NotifyExited()</text>
</a>
</g>
</g>
<!-- Node2 -->
<g id="node2" class="node">
<title>Node2</title>
<g id="a_node2"><a xlink:href="interface_volume_control_1_1_audio_1_1_interfaces_1_1_i_process.html" target="_top" xlink:title="Represents read&#45;only information about a process running on the local system.">
<polygon fill="none" stroke="black" points="71,-573.5 71,-663.5 180,-663.5 180,-573.5 71,-573.5"/>
<text text-anchor="middle" x="125.5" y="-651.5" font-family="Helvetica,sans-Serif" font-size="10.00">IProcess</text>
<polyline fill="none" stroke="black" points="71,-644.5 180,-644.5 "/>
<text text-anchor="start" x="79" y="-632.5" font-family="Helvetica,sans-Serif" font-size="10.00">+ ProcessName</text>
<text text-anchor="start" x="79" y="-621.5" font-family="Helvetica,sans-Serif" font-size="10.00">+ PID</text>
<text text-anchor="start" x="79" y="-610.5" font-family="Helvetica,sans-Serif" font-size="10.00">+ ProcessIdentifier</text>
<text text-anchor="start" x="79" y="-599.5" font-family="Helvetica,sans-Serif" font-size="10.00">+ HashCode</text>
<polyline fill="none" stroke="black" points="71,-592.5 180,-592.5 "/>
<text text-anchor="middle" x="125.5" y="-580.5" font-family="Helvetica,sans-Serif" font-size="10.00"> </text>
</a>
</g>
</g>
<!-- Node2&#45;&gt;Node1 -->
<g id="edge1" class="edge">
<title>Node2&#45;&gt;Node1</title>
<path fill="none" stroke="midnightblue" d="M114.73,-563.4C109.16,-523.66 106.47,-468.98 122.5,-424 144.9,-361.15 192.78,-303.08 234.47,-261.14"/>
<polygon fill="none" stroke="midnightblue" points="111.29,-564.06 116.24,-573.43 118.21,-563.02 111.29,-564.06"/>
</g>
<!-- Node5 -->
<g id="node5" class="node">
<title>Node5</title>
<g id="a_node5"><a xlink:href="interface_volume_control_1_1_audio_1_1_interfaces_1_1_i_session.html" target="_top" xlink:title="Represents an audio session.">
<polygon fill="none" stroke="black" points="131.5,-424.5 131.5,-536.5 281.5,-536.5 281.5,-424.5 131.5,-424.5"/>
<text text-anchor="middle" x="206.5" y="-524.5" font-family="Helvetica,sans-Serif" font-size="10.00">ISession</text>
<polyline fill="none" stroke="black" points="131.5,-517.5 281.5,-517.5 "/>
<text text-anchor="start" x="139.5" y="-505.5" font-family="Helvetica,sans-Serif" font-size="10.00">+ Volume</text>
<text text-anchor="start" x="139.5" y="-494.5" font-family="Helvetica,sans-Serif" font-size="10.00">+ NativeVolume</text>
<text text-anchor="start" x="139.5" y="-483.5" font-family="Helvetica,sans-Serif" font-size="10.00">+ Muted</text>
<text text-anchor="start" x="139.5" y="-472.5" font-family="Helvetica,sans-Serif" font-size="10.00">+ Name</text>
<text text-anchor="start" x="139.5" y="-461.5" font-family="Helvetica,sans-Serif" font-size="10.00">+ SessionIdentifier</text>
<text text-anchor="start" x="139.5" y="-450.5" font-family="Helvetica,sans-Serif" font-size="10.00">+ SessionInstanceIdentifier</text>
<polyline fill="none" stroke="black" points="131.5,-443.5 281.5,-443.5 "/>
<text text-anchor="middle" x="206.5" y="-431.5" font-family="Helvetica,sans-Serif" font-size="10.00"> </text>
</a>
</g>
</g>
<!-- Node2&#45;&gt;Node5 -->
<g id="edge5" class="edge">
<title>Node2&#45;&gt;Node5</title>
<path fill="none" stroke="midnightblue" d="M156.93,-564.73C162.37,-555.59 168.04,-546.07 173.52,-536.87"/>
<polygon fill="none" stroke="midnightblue" points="153.91,-562.96 151.8,-573.34 159.92,-566.54 153.91,-562.96"/>
</g>
<!-- Node3 -->
<g id="node3" class="node">
<title>Node3</title>
<g id="a_node3"><a xlink:href="interface_volume_control_1_1_audio_1_1_interfaces_1_1_i_targetable.html" target="_top" xlink:title="Base interface type for IDevice and IProcess/ISession.">
<polygon fill="none" stroke="black" points="161,-700.5 161,-757.5 232,-757.5 232,-700.5 161,-700.5"/>
<text text-anchor="middle" x="196.5" y="-745.5" font-family="Helvetica,sans-Serif" font-size="10.00">ITargetable</text>
<polyline fill="none" stroke="black" points="161,-738.5 232,-738.5 "/>
<text text-anchor="middle" x="196.5" y="-726.5" font-family="Helvetica,sans-Serif" font-size="10.00"> </text>
<polyline fill="none" stroke="black" points="161,-719.5 232,-719.5 "/>
<text text-anchor="middle" x="196.5" y="-707.5" font-family="Helvetica,sans-Serif" font-size="10.00"> </text>
</a>
</g>
</g>
<!-- Node3&#45;&gt;Node2 -->
<g id="edge2" class="edge">
<title>Node3&#45;&gt;Node2</title>
<path fill="none" stroke="midnightblue" d="M172.88,-691.91C166.94,-682.83 160.49,-672.98 154.33,-663.55"/>
<polygon fill="none" stroke="midnightblue" points="170,-693.89 178.4,-700.34 175.85,-690.06 170,-693.89"/>
</g>
<!-- Node3&#45;&gt;Node5 -->
<g id="edge6" class="edge">
<title>Node3&#45;&gt;Node5</title>
<path fill="none" stroke="midnightblue" d="M198.04,-690.08C199.7,-649.07 202.37,-583.3 204.27,-536.59"/>
<polygon fill="none" stroke="midnightblue" points="194.54,-690.07 197.63,-700.2 201.53,-690.35 194.54,-690.07"/>
</g>
<!-- Node4 -->
<g id="node4" class="node">
<title>Node4</title>
<g id="a_node4"><a xlink:title=" ">
<polygon fill="none" stroke="#bfbfbf" points="0,-700.5 0,-757.5 131,-757.5 131,-700.5 0,-700.5"/>
<text text-anchor="middle" x="65.5" y="-745.5" font-family="Helvetica,sans-Serif" font-size="10.00">IEquatable&lt; ISession &gt;</text>
<polyline fill="none" stroke="#bfbfbf" points="0,-738.5 131,-738.5 "/>
<text text-anchor="middle" x="65.5" y="-726.5" font-family="Helvetica,sans-Serif" font-size="10.00"> </text>
<polyline fill="none" stroke="#bfbfbf" points="0,-719.5 131,-719.5 "/>
<text text-anchor="middle" x="65.5" y="-707.5" font-family="Helvetica,sans-Serif" font-size="10.00"> </text>
</a>
</g>
</g>
<!-- Node4&#45;&gt;Node1 -->
<g id="edge12" class="edge">
<title>Node4&#45;&gt;Node1</title>
<path fill="none" stroke="midnightblue" d="M62.74,-690.14C62.22,-681.55 61.76,-672.46 61.5,-664 58.11,-555.53 53.59,-518.75 106.5,-424 140.05,-363.93 191.6,-306.03 234.36,-263.48"/>
<polygon fill="none" stroke="midnightblue" points="59.26,-690.54 63.39,-700.3 66.25,-690.09 59.26,-690.54"/>
</g>
<!-- Node4&#45;&gt;Node2 -->
<g id="edge3" class="edge">
<title>Node4&#45;&gt;Node2</title>
<path fill="none" stroke="midnightblue" d="M85.77,-691.34C90.71,-682.42 96.03,-672.78 101.14,-663.55"/>
<polygon fill="none" stroke="midnightblue" points="82.57,-689.9 80.8,-700.34 88.7,-693.28 82.57,-689.9"/>
</g>
<!-- Node5&#45;&gt;Node1 -->
<g id="edge4" class="edge">
<title>Node5&#45;&gt;Node1</title>
<path fill="none" stroke="midnightblue" d="M229.91,-414.84C233.02,-406.24 236.33,-397.1 239.77,-387.61"/>
<polygon fill="none" stroke="midnightblue" points="226.59,-413.71 226.48,-424.31 233.18,-416.1 226.59,-413.71"/>
</g>
<!-- Node6 -->
<g id="node6" class="node">
<title>Node6</title>
<g id="a_node6"><a xlink:title=" ">
<polygon fill="none" stroke="#bfbfbf" points="241,-590 241,-647 374,-647 374,-590 241,-590"/>
<text text-anchor="middle" x="307.5" y="-635" font-family="Helvetica,sans-Serif" font-size="10.00">INotifyPropertyChanged</text>
<polyline fill="none" stroke="#bfbfbf" points="241,-628 374,-628 "/>
<text text-anchor="middle" x="307.5" y="-616" font-family="Helvetica,sans-Serif" font-size="10.00"> </text>
<polyline fill="none" stroke="#bfbfbf" points="241,-609 374,-609 "/>
<text text-anchor="middle" x="307.5" y="-597" font-family="Helvetica,sans-Serif" font-size="10.00"> </text>
</a>
</g>
</g>
<!-- Node6&#45;&gt;Node1 -->
<g id="edge8" class="edge">
<title>Node6&#45;&gt;Node1</title>
<path fill="none" stroke="midnightblue" d="M307.68,-579.59C307.89,-535.72 308.24,-460.16 308.59,-387.57"/>
<polygon fill="none" stroke="midnightblue" points="304.18,-579.76 307.63,-589.78 311.18,-579.8 304.18,-579.76"/>
</g>
<!-- Node6&#45;&gt;Node5 -->
<g id="edge7" class="edge">
<title>Node6&#45;&gt;Node5</title>
<path fill="none" stroke="midnightblue" d="M280.91,-581.7C270.65,-567.88 258.67,-551.74 247.36,-536.52"/>
<polygon fill="none" stroke="midnightblue" points="278.29,-584.04 287.06,-589.98 283.91,-579.86 278.29,-584.04"/>
</g>
<!-- Node7 -->
<g id="node7" class="node">
<title>Node7</title>
<g id="a_node7"><a xlink:title=" ">
<polygon fill="none" stroke="#bfbfbf" points="337.5,-452 337.5,-509 473.5,-509 473.5,-452 337.5,-452"/>
<text text-anchor="middle" x="405.5" y="-497" font-family="Helvetica,sans-Serif" font-size="10.00">INotifyPropertyChanging</text>
<polyline fill="none" stroke="#bfbfbf" points="337.5,-490 473.5,-490 "/>
<text text-anchor="middle" x="405.5" y="-478" font-family="Helvetica,sans-Serif" font-size="10.00"> </text>
<polyline fill="none" stroke="#bfbfbf" points="337.5,-471 473.5,-471 "/>
<text text-anchor="middle" x="405.5" y="-459" font-family="Helvetica,sans-Serif" font-size="10.00"> </text>
</a>
</g>
</g>
<!-- Node7&#45;&gt;Node1 -->
<g id="edge9" class="edge">
<title>Node7&#45;&gt;Node1</title>
<path fill="none" stroke="midnightblue" d="M393.01,-442.48C387.86,-427.22 381.47,-408.3 374.54,-387.76"/>
<polygon fill="none" stroke="midnightblue" points="389.69,-443.61 396.21,-451.96 396.33,-441.37 389.69,-443.61"/>
</g>
<!-- Node8 -->
<g id="node8" class="node">
<title>Node8</title>
<g id="a_node8"><a xlink:title=" ">
<polygon fill="none" stroke="#bfbfbf" points="491.5,-452 491.5,-509 565.5,-509 565.5,-452 491.5,-452"/>
<text text-anchor="middle" x="528.5" y="-497" font-family="Helvetica,sans-Serif" font-size="10.00">IDisposable</text>
<polyline fill="none" stroke="#bfbfbf" points="491.5,-490 565.5,-490 "/>
<text text-anchor="middle" x="528.5" y="-478" font-family="Helvetica,sans-Serif" font-size="10.00"> </text>
<polyline fill="none" stroke="#bfbfbf" points="491.5,-471 565.5,-471 "/>
<text text-anchor="middle" x="528.5" y="-459" font-family="Helvetica,sans-Serif" font-size="10.00"> </text>
</a>
</g>
</g>
<!-- Node8&#45;&gt;Node1 -->
<g id="edge10" class="edge">
<title>Node8&#45;&gt;Node1</title>
<path fill="none" stroke="midnightblue" d="M501.03,-443.81C471.95,-406.04 424.8,-344.79 384.56,-292.51"/>
<polygon fill="none" stroke="midnightblue" points="498.43,-446.17 507.3,-451.96 503.98,-441.9 498.43,-446.17"/>
</g>
<!-- Node9 -->
<g id="node9" class="node">
<title>Node9</title>
<g id="a_node9"><a xlink:title=" ">
<polygon fill="none" stroke="#bfbfbf" points="583.5,-452 583.5,-509 739.5,-509 739.5,-452 583.5,-452"/>
<text text-anchor="middle" x="661.5" y="-497" font-family="Helvetica,sans-Serif" font-size="10.00">IEquatable&lt; AudioSession &gt;</text>
<polyline fill="none" stroke="#bfbfbf" points="583.5,-490 739.5,-490 "/>
<text text-anchor="middle" x="661.5" y="-478" font-family="Helvetica,sans-Serif" font-size="10.00"> </text>
<polyline fill="none" stroke="#bfbfbf" points="583.5,-471 739.5,-471 "/>
<text text-anchor="middle" x="661.5" y="-459" font-family="Helvetica,sans-Serif" font-size="10.00"> </text>
</a>
</g>
</g>
<!-- Node9&#45;&gt;Node1 -->
<g id="edge11" class="edge">
<title>Node9&#45;&gt;Node1</title>
<path fill="none" stroke="midnightblue" d="M619.59,-445.62C561.72,-398.85 456.38,-313.72 384.7,-255.78"/>
<polygon fill="none" stroke="midnightblue" points="617.45,-448.4 627.43,-451.96 621.85,-442.95 617.45,-448.4"/>
</g>
</g>
</svg>
