<?xml version="1.0" encoding="UTF-8" standalone="no"?>
<!DOCTYPE svg PUBLIC "-//W3C//DTD SVG 1.1//EN"
 "http://www.w3.org/Graphics/SVG/1.1/DTD/svg11.dtd">
<!-- Generated by graphviz version 2.43.0 (0)
 -->
<!-- Title: VolumeControl.Core.Config Pages: 1 -->
<svg width="348pt" height="570pt"
 viewBox="0.00 0.00 347.50 570.00" xmlns="http://www.w3.org/2000/svg" xmlns:xlink="http://www.w3.org/1999/xlink">
<g id="graph0" class="graph" transform="scale(1 1) rotate(0) translate(4 566)">
<title>VolumeControl.Core.Config</title>
<!-- Node1 -->
<g id="node1" class="node">
<title>Node1</title>
<g id="a_node1"><a xlink:title="Contains the application configuration and logic to read from and write to JSON files.">
<polygon fill="#bfbfbf" stroke="black" points="78.5,-0.5 78.5,-167.5 254.5,-167.5 254.5,-0.5 78.5,-0.5"/>
<text text-anchor="middle" x="166.5" y="-155.5" font-family="Helvetica,sans-Serif" font-size="10.00">VolumeControl.Core.Config</text>
<polyline fill="none" stroke="black" points="78.5,-148.5 254.5,-148.5 "/>
<text text-anchor="start" x="86.5" y="-136.5" font-family="Helvetica,sans-Serif" font-size="10.00">+ RunAtStartup</text>
<text text-anchor="start" x="86.5" y="-125.5" font-family="Helvetica,sans-Serif" font-size="10.00">+ StartMinimized</text>
<text text-anchor="start" x="86.5" y="-114.5" font-family="Helvetica,sans-Serif" font-size="10.00">+ ShowInTaskbar</text>
<text text-anchor="start" x="86.5" y="-103.5" font-family="Helvetica,sans-Serif" font-size="10.00">+ AlwaysOnTop</text>
<text text-anchor="start" x="86.5" y="-92.5" font-family="Helvetica,sans-Serif" font-size="10.00">+ AdvancedHotkeys</text>
<text text-anchor="start" x="86.5" y="-81.5" font-family="Helvetica,sans-Serif" font-size="10.00">+ ShowIcons</text>
<text text-anchor="start" x="86.5" y="-70.5" font-family="Helvetica,sans-Serif" font-size="10.00">+ CustomAddonDirectories</text>
<text text-anchor="start" x="86.5" y="-59.5" font-family="Helvetica,sans-Serif" font-size="10.00">+ NotificationsEnabled</text>
<text text-anchor="start" x="86.5" y="-48.5" font-family="Helvetica,sans-Serif" font-size="10.00">+ NotificationsOnVolumeChange</text>
<text text-anchor="start" x="86.5" y="-37.5" font-family="Helvetica,sans-Serif" font-size="10.00">+ NotificationTimeoutMs</text>
<text text-anchor="start" x="86.5" y="-26.5" font-family="Helvetica,sans-Serif" font-size="10.00">and 8 more...</text>
<polyline fill="none" stroke="black" points="78.5,-19.5 254.5,-19.5 "/>
<text text-anchor="start" x="86.5" y="-7.5" font-family="Helvetica,sans-Serif" font-size="10.00">+ Config()</text>
</a>
</g>
</g>
<!-- Node2 -->
<g id="node2" class="node">
<title>Node2</title>
<g id="a_node2"><a xlink:href="class_app_config_1_1_configuration_file.html" target="_top" xlink:title="Extends the Configuration class with a built&#45;in file Location, and adds methods that use this filepat...">
<polygon fill="none" stroke="black" points="0,-232 0,-311 155,-311 155,-232 0,-232"/>
<text text-anchor="middle" x="77.5" y="-299" font-family="Helvetica,sans-Serif" font-size="10.00">AppConfig::ConfigurationFile</text>
<polyline fill="none" stroke="black" points="0,-292 155,-292 "/>
<text text-anchor="start" x="8" y="-280" font-family="Helvetica,sans-Serif" font-size="10.00">+ Location</text>
<polyline fill="none" stroke="black" points="0,-273 155,-273 "/>
<text text-anchor="start" x="8" y="-261" font-family="Helvetica,sans-Serif" font-size="10.00">+ ConfigurationFile()</text>
<text text-anchor="start" x="8" y="-250" font-family="Helvetica,sans-Serif" font-size="10.00">+ Load()</text>
<text text-anchor="start" x="8" y="-239" font-family="Helvetica,sans-Serif" font-size="10.00">+ Save()</text>
</a>
</g>
</g>
<!-- Node2&#45;&gt;Node1 -->
<g id="edge1" class="edge">
<title>Node2&#45;&gt;Node1</title>
<path fill="none" stroke="midnightblue" d="M100.48,-222.59C108.52,-205.85 117.78,-186.54 126.79,-167.77"/>
<polygon fill="none" stroke="midnightblue" points="97.33,-221.08 96.16,-231.61 103.64,-224.11 97.33,-221.08"/>
</g>
<!-- Node3 -->
<g id="node3" class="node">
<title>Node3</title>
<g id="a_node3"><a xlink:href="class_app_config_1_1_configuration.html" target="_top" xlink:title="The most basic abstract class in the AppConfig project.">
<polygon fill="none" stroke="black" points="21.5,-365.5 21.5,-466.5 133.5,-466.5 133.5,-365.5 21.5,-365.5"/>
<text text-anchor="middle" x="77.5" y="-454.5" font-family="Helvetica,sans-Serif" font-size="10.00">Configuration</text>
<polyline fill="none" stroke="black" points="21.5,-447.5 133.5,-447.5 "/>
<text text-anchor="start" x="29.5" y="-435.5" font-family="Helvetica,sans-Serif" font-size="10.00">+ Default</text>
<text text-anchor="start" x="29.5" y="-424.5" font-family="Helvetica,sans-Serif" font-size="10.00">+ this[string name]</text>
<polyline fill="none" stroke="black" points="21.5,-417.5 133.5,-417.5 "/>
<text text-anchor="start" x="29.5" y="-405.5" font-family="Helvetica,sans-Serif" font-size="10.00">+ Configuration()</text>
<text text-anchor="start" x="29.5" y="-394.5" font-family="Helvetica,sans-Serif" font-size="10.00">+ SetTo()</text>
<text text-anchor="start" x="29.5" y="-383.5" font-family="Helvetica,sans-Serif" font-size="10.00">+ Load()</text>
<text text-anchor="start" x="29.5" y="-372.5" font-family="Helvetica,sans-Serif" font-size="10.00">+ Save()</text>
</a>
</g>
</g>
<!-- Node3&#45;&gt;Node2 -->
<g id="edge2" class="edge">
<title>Node3&#45;&gt;Node2</title>
<path fill="none" stroke="midnightblue" d="M77.5,-355.06C77.5,-340.26 77.5,-324.8 77.5,-311.31"/>
<polygon fill="none" stroke="midnightblue" points="74,-355.16 77.5,-365.16 81,-355.16 74,-355.16"/>
</g>
<!-- Node4 -->
<g id="node4" class="node">
<title>Node4</title>
<g id="a_node4"><a xlink:title=" ">
<polygon fill="none" stroke="#bfbfbf" points="11,-504.5 11,-561.5 144,-561.5 144,-504.5 11,-504.5"/>
<text text-anchor="middle" x="77.5" y="-549.5" font-family="Helvetica,sans-Serif" font-size="10.00">INotifyPropertyChanged</text>
<polyline fill="none" stroke="#bfbfbf" points="11,-542.5 144,-542.5 "/>
<text text-anchor="middle" x="77.5" y="-530.5" font-family="Helvetica,sans-Serif" font-size="10.00"> </text>
<polyline fill="none" stroke="#bfbfbf" points="11,-523.5 144,-523.5 "/>
<text text-anchor="middle" x="77.5" y="-511.5" font-family="Helvetica,sans-Serif" font-size="10.00"> </text>
</a>
</g>
</g>
<!-- Node4&#45;&gt;Node3 -->
<g id="edge3" class="edge">
<title>Node4&#45;&gt;Node3</title>
<path fill="none" stroke="midnightblue" d="M77.5,-494.19C77.5,-485.43 77.5,-475.99 77.5,-466.81"/>
<polygon fill="none" stroke="midnightblue" points="74,-494.45 77.5,-504.45 81,-494.45 74,-494.45"/>
</g>
<!-- Node5 -->
<g id="node5" class="node">
<title>Node5</title>
<g id="a_node5"><a xlink:href="class_volume_control_1_1_core_1_1_keyboard_1_1_bindable_hotkey_json_wrapper.html" target="_top" xlink:title="Acts as a temporary wrapper for the BindableHotkey class so that the JSON parser can read and write i...">
<polygon fill="none" stroke="black" points="173.5,-215.5 173.5,-327.5 339.5,-327.5 339.5,-215.5 173.5,-215.5"/>
<text text-anchor="start" x="181.5" y="-315.5" font-family="Helvetica,sans-Serif" font-size="10.00">VolumeControl.Core.Keyboard.</text>
<text text-anchor="middle" x="256.5" y="-304.5" font-family="Helvetica,sans-Serif" font-size="10.00">BindableHotkeyJsonWrapper</text>
<polyline fill="none" stroke="black" points="173.5,-297.5 339.5,-297.5 "/>
<text text-anchor="start" x="181.5" y="-285.5" font-family="Helvetica,sans-Serif" font-size="10.00">+ Name</text>
<text text-anchor="start" x="181.5" y="-274.5" font-family="Helvetica,sans-Serif" font-size="10.00">+ Registered</text>
<text text-anchor="start" x="181.5" y="-263.5" font-family="Helvetica,sans-Serif" font-size="10.00">+ Key</text>
<text text-anchor="start" x="181.5" y="-252.5" font-family="Helvetica,sans-Serif" font-size="10.00">+ Modifier</text>
<text text-anchor="start" x="181.5" y="-241.5" font-family="Helvetica,sans-Serif" font-size="10.00">+ ActionIdentifier</text>
<polyline fill="none" stroke="black" points="173.5,-234.5 339.5,-234.5 "/>
<text text-anchor="middle" x="256.5" y="-222.5" font-family="Helvetica,sans-Serif" font-size="10.00"> </text>
</a>
</g>
</g>
<!-- Node5&#45;&gt;Node1 -->
<g id="edge4" class="edge">
<title>Node5&#45;&gt;Node1</title>
<path fill="none" stroke="#404040" d="M229.74,-215.35C224.13,-203.78 218.06,-191.28 211.99,-178.75"/>
<polygon fill="none" stroke="#404040" points="211.89,-178.56 205.67,-174.9 206.65,-167.76 212.87,-171.41 211.89,-178.56"/>
<text text-anchor="middle" x="267" y="-189" font-family="Helvetica,sans-Serif" font-size="10.00"> +Hotkeys_Default</text>
</g>
</g>
</svg>
