<?xml version="1.0" encoding="UTF-8" standalone="no"?>
<!DOCTYPE svg PUBLIC "-//W3C//DTD SVG 1.1//EN"
 "http://www.w3.org/Graphics/SVG/1.1/DTD/svg11.dtd">
<!-- Generated by graphviz version 2.43.0 (0)
 -->
<!-- Title: VolumeControl.Log.LogWriter.Warning Pages: 1 -->
<svg width="564pt" height="132pt"
 viewBox="0.00 0.00 564.00 132.00" xmlns="http://www.w3.org/2000/svg" xmlns:xlink="http://www.w3.org/1999/xlink">
<g id="graph0" class="graph" transform="scale(1 1) rotate(0) translate(4 128)">
<title>VolumeControl.Log.LogWriter.Warning</title>
<!-- Node1 -->
<g id="node1" class="node">
<title>Node1</title>
<g id="a_node1"><a xlink:title="Write a formatted EventType.WARN message to the log endpoint.">
<polygon fill="#bfbfbf" stroke="black" points="395,-49.5 395,-79.5 556,-79.5 556,-49.5 395,-49.5"/>
<text text-anchor="start" x="403" y="-67.5" font-family="Helvetica,sans-Serif" font-size="10.00">VolumeControl.Log.LogWriter.</text>
<text text-anchor="middle" x="475.5" y="-56.5" font-family="Helvetica,sans-Serif" font-size="10.00">Warning</text>
</a>
</g>
</g>
<!-- Node2 -->
<g id="node2" class="node">
<title>Node2</title>
<g id="a_node2"><a xlink:href="class_volume_control_1_1_audio_1_1_audio_device.html#ab0260c210a99e81c0f78deef4abeeb7e" target="_top" xlink:title=" ">
<polygon fill="none" stroke="black" points="0,-93.5 0,-123.5 150,-123.5 150,-93.5 0,-93.5"/>
<text text-anchor="start" x="8" y="-111.5" font-family="Helvetica,sans-Serif" font-size="10.00">VolumeControl.Audio.Audio</text>
<text text-anchor="middle" x="75" y="-100.5" font-family="Helvetica,sans-Serif" font-size="10.00">Device.GetIcons</text>
</a>
</g>
</g>
<!-- Node1&#45;&gt;Node2 -->
<g id="edge1" class="edge">
<title>Node1&#45;&gt;Node2</title>
<path fill="none" stroke="midnightblue" d="M403.13,-81.65C388.6,-84.66 373.36,-87.47 359,-89.5 288.54,-99.44 207.46,-104.21 150.19,-106.48"/>
<polygon fill="midnightblue" stroke="midnightblue" points="404.01,-85.04 413.06,-79.54 402.55,-78.2 404.01,-85.04"/>
</g>
<!-- Node3 -->
<g id="node3" class="node">
<title>Node3</title>
<g id="a_node3"><a xlink:href="class_volume_control_1_1_w_p_f_1_1_icon_getter.html#ae57feab69f052d45a780d8153d87af54" target="_top" xlink:title="Gets the large and small variants of the specified icon from the specified DLL.">
<polygon fill="none" stroke="black" points="188.5,-49.5 188.5,-79.5 356.5,-79.5 356.5,-49.5 188.5,-49.5"/>
<text text-anchor="start" x="196.5" y="-67.5" font-family="Helvetica,sans-Serif" font-size="10.00">VolumeControl.WPF.IconGetter.</text>
<text text-anchor="middle" x="272.5" y="-56.5" font-family="Helvetica,sans-Serif" font-size="10.00">GetIcons</text>
</a>
</g>
</g>
<!-- Node1&#45;&gt;Node3 -->
<g id="edge2" class="edge">
<title>Node1&#45;&gt;Node3</title>
<path fill="none" stroke="midnightblue" d="M384.73,-64.5C375.43,-64.5 365.99,-64.5 356.76,-64.5"/>
<polygon fill="midnightblue" stroke="midnightblue" points="384.77,-68 394.77,-64.5 384.77,-61 384.77,-68"/>
</g>
<!-- Node5 -->
<g id="node5" class="node">
<title>Node5</title>
<g id="a_node5"><a xlink:href="class_volume_control_1_1_w_p_f_1_1_h_wnd_hook.html#af0585367ed6c7c839158d03f4fd73830" target="_top" xlink:title="Removes a message handler.">
<polygon fill="none" stroke="black" points="186,-0.5 186,-30.5 359,-30.5 359,-0.5 186,-0.5"/>
<text text-anchor="start" x="194" y="-18.5" font-family="Helvetica,sans-Serif" font-size="10.00">VolumeControl.WPF.HWndHook.</text>
<text text-anchor="middle" x="272.5" y="-7.5" font-family="Helvetica,sans-Serif" font-size="10.00">RemoveHook</text>
</a>
</g>
</g>
<!-- Node1&#45;&gt;Node5 -->
<g id="edge5" class="edge">
<title>Node1&#45;&gt;Node5</title>
<path fill="none" stroke="midnightblue" d="M403.11,-47.1C380.87,-41.68 356.56,-35.75 335.06,-30.51"/>
<polygon fill="midnightblue" stroke="midnightblue" points="402.28,-50.5 412.83,-49.47 403.94,-43.7 402.28,-50.5"/>
</g>
<!-- Node3&#45;&gt;Node2 -->
<g id="edge3" class="edge">
<title>Node3&#45;&gt;Node2</title>
<path fill="none" stroke="midnightblue" d="M194.77,-81.77C177.59,-85.64 159.5,-89.71 142.76,-93.47"/>
<polygon fill="midnightblue" stroke="midnightblue" points="195.78,-85.13 204.77,-79.52 194.24,-78.3 195.78,-85.13"/>
</g>
<!-- Node4 -->
<g id="node4" class="node">
<title>Node4</title>
<g id="a_node4"><a xlink:href="class_volume_control_1_1_audio_1_1_audio_session.html#ac0154b840ada9e66ac201e3660ec714c" target="_top" xlink:title=" ">
<polygon fill="none" stroke="black" points="0,-44.5 0,-74.5 150,-74.5 150,-44.5 0,-44.5"/>
<text text-anchor="start" x="8" y="-62.5" font-family="Helvetica,sans-Serif" font-size="10.00">VolumeControl.Audio.Audio</text>
<text text-anchor="middle" x="75" y="-51.5" font-family="Helvetica,sans-Serif" font-size="10.00">Session.GetIcons</text>
</a>
</g>
</g>
<!-- Node3&#45;&gt;Node4 -->
<g id="edge4" class="edge">
<title>Node3&#45;&gt;Node4</title>
<path fill="none" stroke="midnightblue" d="M178.15,-62.11C168.75,-61.87 159.3,-61.63 150.15,-61.4"/>
<polygon fill="midnightblue" stroke="midnightblue" points="178.22,-65.62 188.31,-62.37 178.4,-58.62 178.22,-65.62"/>
</g>
</g>
</svg>
