<?xml version="1.0" encoding="UTF-8" standalone="no"?>
<!DOCTYPE svg PUBLIC "-//W3C//DTD SVG 1.1//EN"
 "http://www.w3.org/Graphics/SVG/1.1/DTD/svg11.dtd">
<!-- Generated by graphviz version 2.43.0 (0)
 -->
<!-- Title: VolumeControl.Audio.AudioAPI Pages: 1 -->
<!--zoomable 1043 -->
<svg id="main" version="1.1" xmlns="http://www.w3.org/2000/svg" xmlns:xlink="http://www.w3.org/1999/xlink" xml:space="preserve" onload="init(evt)">
<style type="text/css"><![CDATA[
.edge:hover path { stroke: red; }
.edge:hover polygon { stroke: red; fill: red; }
]]></style>
<script type="text/javascript"><![CDATA[
var edges = document.getElementsByTagName('g');
if (edges && edges.length) {
  for (var i=0;i<edges.length;i++) {
    if (edges[i].id.substr(0,4)=='edge') {
      edges[i].setAttribute('class','edge');
    }
  }
}
]]></script>
        <defs>
                <circle id="rim" cx="0" cy="0" r="7"/>
                <circle id="rim2" cx="0" cy="0" r="3.5"/>
                <g id="zoomPlus">
                        <use xlink:href="#rim" fill="#404040">
                                <set attributeName="fill" to="#808080" begin="zoomplus.mouseover" end="zoomplus.mouseout"/>
                        </use>
                        <path d="M-4,0h8M0,-4v8" fill="none" stroke="white" stroke-width="1.5" pointer-events="none"/>
                </g>
                <g id="zoomMin">
                        <use xlink:href="#rim" fill="#404040">
                                <set attributeName="fill" to="#808080" begin="zoomminus.mouseover" end="zoomminus.mouseout"/>
                        </use>
                        <path d="M-4,0h8" fill="none" stroke="white" stroke-width="1.5" pointer-events="none"/>
                </g>
                <g id="dirArrow">
                        <path fill="none" stroke="white" stroke-width="1.5" d="M0,-3.0v7 M-2.5,-0.5L0,-3.0L2.5,-0.5"/>
                </g>
               <g id="resetDef">
                       <use xlink:href="#rim2" fill="#404040">
                               <set attributeName="fill" to="#808080" begin="reset.mouseover" end="reset.mouseout"/>
                       </use>
               </g>
        </defs>

<script type="text/javascript">
var viewWidth = 2102;
var viewHeight = 1043;
var sectionId = 'dynsection-1';
</script>
<script xlink:href="svgpan.js"/>
<svg id="graph" class="graph">
<g id="viewport">
<title>VolumeControl.Audio.AudioAPI</title>
<!-- Node1 -->
<g id="node1" class="node">
<title>Node1</title>
<g id="a_node1"><a xlink:title="Contains methods related to audio devices, sessions, and the underlying selection mechanics responsib...">
<polygon fill="#bfbfbf" stroke="black" points="239.06,-0.5 239.06,-244.5 441.06,-244.5 441.06,-0.5 239.06,-0.5"/>
<text text-anchor="middle" x="340.06" y="-232.5" font-family="Helvetica,sans-Serif" font-size="10.00">VolumeControl.Audio.AudioAPI</text>
<polyline fill="none" stroke="black" points="239.06,-225.5 441.06,-225.5 "/>
<text text-anchor="start" x="247.06" y="-213.5" font-family="Helvetica,sans-Serif" font-size="10.00">+ Devices</text>
<text text-anchor="start" x="247.06" y="-202.5" font-family="Helvetica,sans-Serif" font-size="10.00">+ LockSelectedSession</text>
<text text-anchor="start" x="247.06" y="-191.5" font-family="Helvetica,sans-Serif" font-size="10.00">+ Target</text>
<text text-anchor="start" x="247.06" y="-180.5" font-family="Helvetica,sans-Serif" font-size="10.00">+ TargetGuid</text>
<text text-anchor="start" x="247.06" y="-169.5" font-family="Helvetica,sans-Serif" font-size="10.00">+ VolumeStepSize</text>
<text text-anchor="start" x="247.06" y="-158.5" font-family="Helvetica,sans-Serif" font-size="10.00">+ SelectedSession</text>
<text text-anchor="start" x="247.06" y="-147.5" font-family="Helvetica,sans-Serif" font-size="10.00">+ Sessions</text>
<polyline fill="none" stroke="black" points="239.06,-140.5 441.06,-140.5 "/>
<text text-anchor="start" x="247.06" y="-128.5" font-family="Helvetica,sans-Serif" font-size="10.00">+ AudioAPI()</text>
<text text-anchor="start" x="247.06" y="-117.5" font-family="Helvetica,sans-Serif" font-size="10.00">+ SaveEnabledDevices()</text>
<text text-anchor="start" x="247.06" y="-106.5" font-family="Helvetica,sans-Serif" font-size="10.00">+ ForceReloadAudioDevices()</text>
<text text-anchor="start" x="247.06" y="-95.5" font-family="Helvetica,sans-Serif" font-size="10.00">+ FindDevice()</text>
<text text-anchor="start" x="247.06" y="-84.5" font-family="Helvetica,sans-Serif" font-size="10.00">+ FindDeviceWithID()</text>
<text text-anchor="start" x="247.06" y="-73.5" font-family="Helvetica,sans-Serif" font-size="10.00">+ ForceReloadSessionList()</text>
<text text-anchor="start" x="247.06" y="-62.5" font-family="Helvetica,sans-Serif" font-size="10.00">+ FindSession()</text>
<text text-anchor="start" x="247.06" y="-51.5" font-family="Helvetica,sans-Serif" font-size="10.00">+ FindSessionWithSessionInstance</text>
<text text-anchor="start" x="247.06" y="-40.5" font-family="Helvetica,sans-Serif" font-size="10.00">Identifier()</text>
<text text-anchor="start" x="247.06" y="-29.5" font-family="Helvetica,sans-Serif" font-size="10.00">+ FindSessionsWithSessionIdentifier()</text>
<text text-anchor="start" x="247.06" y="-18.5" font-family="Helvetica,sans-Serif" font-size="10.00">+ FindSessionWithID()</text>
<text text-anchor="start" x="247.06" y="-7.5" font-family="Helvetica,sans-Serif" font-size="10.00">and 16 more...</text>
</a>
</g>
</g>
<!-- Node2 -->
<g id="node2" class="node">
<title>Node2</title>
<g id="a_node2"><a xlink:title=" ">
<polygon fill="none" stroke="#bfbfbf" points="1801.56,-955.5 1801.56,-1012.5 1934.56,-1012.5 1934.56,-955.5 1801.56,-955.5"/>
<text text-anchor="middle" x="1868.06" y="-1000.5" font-family="Helvetica,sans-Serif" font-size="10.00">INotifyPropertyChanged</text>
<polyline fill="none" stroke="#bfbfbf" points="1801.56,-993.5 1934.56,-993.5 "/>
<text text-anchor="middle" x="1868.06" y="-981.5" font-family="Helvetica,sans-Serif" font-size="10.00"> </text>
<polyline fill="none" stroke="#bfbfbf" points="1801.56,-974.5 1934.56,-974.5 "/>
<text text-anchor="middle" x="1868.06" y="-962.5" font-family="Helvetica,sans-Serif" font-size="10.00"> </text>
</a>
</g>
</g>
<!-- Node2&#45;&gt;Node1 -->
<g id="edge1" class="edge">
<title>Node2&#45;&gt;Node1</title>
<path fill="none" stroke="midnightblue" d="M1791.47,-982.15C1459.3,-978.07 157.26,-958.18 98.06,-896 55.59,-851.39 -129.97,-864.76 159.06,-292 177.82,-254.82 208.35,-221.63 239.04,-194.73"/>
<polygon fill="none" stroke="midnightblue" points="1791.44,-985.65 1801.48,-982.27 1791.52,-978.65 1791.44,-985.65"/>
</g>
<!-- Node5 -->
<g id="node5" class="node">
<title>Node5</title>
<g id="a_node5"><a xlink:href="class_volume_control_1_1_audio_1_1_audio_device.html" target="_top" xlink:title="Represents an audio device endpoint. Note that this object cannot be constructed externally....">
<polygon fill="none" stroke="black" points="724.06,-292.5 724.06,-789.5 908.06,-789.5 908.06,-292.5 724.06,-292.5"/>
<text text-anchor="start" x="732.06" y="-777.5" font-family="Helvetica,sans-Serif" font-size="10.00">VolumeControl.Audio.Audio</text>
<text text-anchor="middle" x="816.06" y="-766.5" font-family="Helvetica,sans-Serif" font-size="10.00">Device</text>
<polyline fill="none" stroke="black" points="724.06,-759.5 908.06,-759.5 "/>
<text text-anchor="start" x="732.06" y="-747.5" font-family="Helvetica,sans-Serif" font-size="10.00">+ AudioMeterInformation</text>
<text text-anchor="start" x="732.06" y="-736.5" font-family="Helvetica,sans-Serif" font-size="10.00">+ PeakMeterValue</text>
<text text-anchor="start" x="732.06" y="-725.5" font-family="Helvetica,sans-Serif" font-size="10.00">+ InterfaceName</text>
<text text-anchor="start" x="732.06" y="-714.5" font-family="Helvetica,sans-Serif" font-size="10.00">+ InstanceID</text>
<text text-anchor="start" x="732.06" y="-703.5" font-family="Helvetica,sans-Serif" font-size="10.00">+ IconPath</text>
<text text-anchor="start" x="732.06" y="-692.5" font-family="Helvetica,sans-Serif" font-size="10.00">+ Icon</text>
<text text-anchor="start" x="732.06" y="-681.5" font-family="Helvetica,sans-Serif" font-size="10.00">+ DeviceFriendlyName</text>
<text text-anchor="start" x="732.06" y="-670.5" font-family="Helvetica,sans-Serif" font-size="10.00">+ FriendlyName</text>
<text text-anchor="start" x="732.06" y="-659.5" font-family="Helvetica,sans-Serif" font-size="10.00">+ Properties</text>
<text text-anchor="start" x="732.06" y="-648.5" font-family="Helvetica,sans-Serif" font-size="10.00">+ State</text>
<text text-anchor="start" x="732.06" y="-637.5" font-family="Helvetica,sans-Serif" font-size="10.00">and 7 more...</text>
<text text-anchor="start" x="732.06" y="-626.5" font-family="Helvetica,sans-Serif" font-size="10.00">+ MMDevice</text>
<text text-anchor="start" x="732.06" y="-615.5" font-family="Helvetica,sans-Serif" font-size="10.00">+ Enabled</text>
<text text-anchor="start" x="732.06" y="-604.5" font-family="Helvetica,sans-Serif" font-size="10.00">+ Name</text>
<text text-anchor="start" x="732.06" y="-593.5" font-family="Helvetica,sans-Serif" font-size="10.00">+ DeviceID</text>
<text text-anchor="start" x="732.06" y="-582.5" font-family="Helvetica,sans-Serif" font-size="10.00">+ Icons</text>
<text text-anchor="start" x="732.06" y="-571.5" font-family="Helvetica,sans-Serif" font-size="10.00">+ NativeVolume</text>
<text text-anchor="start" x="732.06" y="-560.5" font-family="Helvetica,sans-Serif" font-size="10.00">+ Volume</text>
<text text-anchor="start" x="732.06" y="-549.5" font-family="Helvetica,sans-Serif" font-size="10.00">+ Muted</text>
<text text-anchor="start" x="732.06" y="-538.5" font-family="Helvetica,sans-Serif" font-size="10.00">+ Sessions</text>
<text text-anchor="start" x="732.06" y="-527.5" font-family="Helvetica,sans-Serif" font-size="10.00">+ this[int index]</text>
<text text-anchor="start" x="732.06" y="-516.5" font-family="Helvetica,sans-Serif" font-size="10.00">+ this[int index]</text>
<text text-anchor="start" x="732.06" y="-505.5" font-family="Helvetica,sans-Serif" font-size="10.00">+ CollectionChanged</text>
<polyline fill="none" stroke="black" points="724.06,-498.5 908.06,-498.5 "/>
<text text-anchor="start" x="732.06" y="-486.5" font-family="Helvetica,sans-Serif" font-size="10.00">+ GetDeviceName()</text>
<text text-anchor="start" x="732.06" y="-475.5" font-family="Helvetica,sans-Serif" font-size="10.00">+ FindAll()</text>
<text text-anchor="start" x="732.06" y="-464.5" font-family="Helvetica,sans-Serif" font-size="10.00">+ GetIcons()</text>
<text text-anchor="start" x="732.06" y="-453.5" font-family="Helvetica,sans-Serif" font-size="10.00">+ Dispose()</text>
<text text-anchor="start" x="732.06" y="-442.5" font-family="Helvetica,sans-Serif" font-size="10.00">+ Equals()</text>
<text text-anchor="start" x="732.06" y="-431.5" font-family="Helvetica,sans-Serif" font-size="10.00">+ Equals()</text>
<text text-anchor="start" x="732.06" y="-420.5" font-family="Helvetica,sans-Serif" font-size="10.00">+ Equals()</text>
<text text-anchor="start" x="732.06" y="-409.5" font-family="Helvetica,sans-Serif" font-size="10.00">+ GetHashCode()</text>
<text text-anchor="start" x="732.06" y="-398.5" font-family="Helvetica,sans-Serif" font-size="10.00">+ Add()</text>
<text text-anchor="start" x="732.06" y="-387.5" font-family="Helvetica,sans-Serif" font-size="10.00">+ Clear()</text>
<text text-anchor="start" x="732.06" y="-376.5" font-family="Helvetica,sans-Serif" font-size="10.00">and 23 more...</text>
<text text-anchor="start" x="732.06" y="-365.5" font-family="Helvetica,sans-Serif" font-size="10.00">~ AudioDevice()</text>
<text text-anchor="start" x="732.06" y="-354.5" font-family="Helvetica,sans-Serif" font-size="10.00">~ ForwardPropertyStoreChanged()</text>
<text text-anchor="start" x="732.06" y="-343.5" font-family="Helvetica,sans-Serif" font-size="10.00">~ ForwardRemoved()</text>
<text text-anchor="start" x="732.06" y="-332.5" font-family="Helvetica,sans-Serif" font-size="10.00">~ ForwardStateChanged()</text>
<text text-anchor="start" x="732.06" y="-321.5" font-family="Helvetica,sans-Serif" font-size="10.00">~ ForwardVolumeChanged()</text>
<text text-anchor="start" x="732.06" y="-310.5" font-family="Helvetica,sans-Serif" font-size="10.00">~ ReloadSessions()</text>
<text text-anchor="start" x="732.06" y="-299.5" font-family="Helvetica,sans-Serif" font-size="10.00">~ GetAudioSessions()</text>
</a>
</g>
</g>
<!-- Node2&#45;&gt;Node5 -->
<g id="edge21" class="edge">
<title>Node2&#45;&gt;Node5</title>
<path fill="none" stroke="midnightblue" d="M1899.41,-947.43C1926.26,-912.6 1955.95,-860.09 1924.06,-827 1885.21,-786.69 962.93,-822.09 917.06,-790 914.01,-787.87 911.05,-785.63 908.19,-783.29"/>
<polygon fill="none" stroke="midnightblue" points="1896.52,-945.44 1893.04,-955.44 1902,-949.79 1896.52,-945.44"/>
</g>
<!-- Node6 -->
<g id="node6" class="node">
<title>Node6</title>
<g id="a_node6"><a xlink:href="interface_volume_control_1_1_audio_1_1_interfaces_1_1_i_device.html" target="_top" xlink:title="Represents an audio device.">
<polygon fill="none" stroke="black" points="1971.06,-827.5 1971.06,-895.5 2043.06,-895.5 2043.06,-827.5 1971.06,-827.5"/>
<text text-anchor="middle" x="2007.06" y="-883.5" font-family="Helvetica,sans-Serif" font-size="10.00">IDevice</text>
<polyline fill="none" stroke="black" points="1971.06,-876.5 2043.06,-876.5 "/>
<text text-anchor="start" x="1979.06" y="-864.5" font-family="Helvetica,sans-Serif" font-size="10.00">+ Name</text>
<text text-anchor="start" x="1979.06" y="-853.5" font-family="Helvetica,sans-Serif" font-size="10.00">+ DeviceID</text>
<polyline fill="none" stroke="black" points="1971.06,-846.5 2043.06,-846.5 "/>
<text text-anchor="middle" x="2007.06" y="-834.5" font-family="Helvetica,sans-Serif" font-size="10.00"> </text>
</a>
</g>
</g>
<!-- Node2&#45;&gt;Node6 -->
<g id="edge7" class="edge">
<title>Node2&#45;&gt;Node6</title>
<path fill="none" stroke="midnightblue" d="M1914.84,-949.43C1928.79,-938.85 1943.87,-926.83 1957.06,-915 1963.71,-909.03 1970.52,-902.34 1976.88,-895.78"/>
<polygon fill="none" stroke="midnightblue" points="1912.68,-946.68 1906.78,-955.48 1916.88,-952.28 1912.68,-946.68"/>
</g>
<!-- Node3 -->
<g id="node3" class="node">
<title>Node3</title>
<g id="a_node3"><a xlink:title=" ">
<polygon fill="none" stroke="#bfbfbf" points="926.06,-512.5 926.06,-569.5 1062.06,-569.5 1062.06,-512.5 926.06,-512.5"/>
<text text-anchor="middle" x="994.06" y="-557.5" font-family="Helvetica,sans-Serif" font-size="10.00">INotifyPropertyChanging</text>
<polyline fill="none" stroke="#bfbfbf" points="926.06,-550.5 1062.06,-550.5 "/>
<text text-anchor="middle" x="994.06" y="-538.5" font-family="Helvetica,sans-Serif" font-size="10.00"> </text>
<polyline fill="none" stroke="#bfbfbf" points="926.06,-531.5 1062.06,-531.5 "/>
<text text-anchor="middle" x="994.06" y="-519.5" font-family="Helvetica,sans-Serif" font-size="10.00"> </text>
</a>
</g>
</g>
<!-- Node3&#45;&gt;Node1 -->
<g id="edge2" class="edge">
<title>Node3&#45;&gt;Node1</title>
<path fill="none" stroke="midnightblue" d="M993,-502.03C989.41,-447.87 974.77,-348.75 917.06,-292 788.04,-165.15 569.13,-132.83 441.26,-125.19"/>
<polygon fill="none" stroke="midnightblue" points="989.52,-502.45 993.58,-512.23 996.51,-502.05 989.52,-502.45"/>
</g>
<!-- Node4 -->
<g id="node4" class="node">
<title>Node4</title>
<g id="a_node4"><a xlink:title=" ">
<polygon fill="none" stroke="#bfbfbf" points="107.06,-833 107.06,-890 181.06,-890 181.06,-833 107.06,-833"/>
<text text-anchor="middle" x="144.06" y="-878" font-family="Helvetica,sans-Serif" font-size="10.00">IDisposable</text>
<polyline fill="none" stroke="#bfbfbf" points="107.06,-871 181.06,-871 "/>
<text text-anchor="middle" x="144.06" y="-859" font-family="Helvetica,sans-Serif" font-size="10.00"> </text>
<polyline fill="none" stroke="#bfbfbf" points="107.06,-852 181.06,-852 "/>
<text text-anchor="middle" x="144.06" y="-840" font-family="Helvetica,sans-Serif" font-size="10.00"> </text>
</a>
</g>
</g>
<!-- Node4&#45;&gt;Node1 -->
<g id="edge3" class="edge">
<title>Node4&#45;&gt;Node1</title>
<path fill="none" stroke="midnightblue" d="M154,-823.1C182,-717.81 262.42,-415.44 307.83,-244.68"/>
<polygon fill="none" stroke="midnightblue" points="150.57,-822.39 151.38,-832.95 157.34,-824.19 150.57,-822.39"/>
</g>
<!-- Node4&#45;&gt;Node5 -->
<g id="edge8" class="edge">
<title>Node4&#45;&gt;Node5</title>
<path fill="none" stroke="midnightblue" d="M189.17,-827.52C189.46,-827.35 189.76,-827.17 190.06,-827 371.57,-721.05 599.38,-626.08 724.04,-577.06"/>
<polygon fill="none" stroke="midnightblue" points="187.14,-824.67 180.52,-832.94 190.85,-830.6 187.14,-824.67"/>
</g>
<!-- Node5&#45;&gt;Node1 -->
<g id="edge4" class="edge">
<title>Node5&#45;&gt;Node1</title>
<path fill="none" stroke="#404040" d="M724,-459.45C645.85,-391.07 533.51,-292.77 450.53,-220.16"/>
<polygon fill="none" stroke="#404040" points="450.35,-220.01 443.2,-219.07 441.32,-212.11 448.47,-213.05 450.35,-220.01"/>
<text text-anchor="middle" x="549.06" y="-266" font-family="Helvetica,sans-Serif" font-size="10.00"> +DefaultDevice</text>
</g>
<!-- Node6&#45;&gt;Node5 -->
<g id="edge5" class="edge">
<title>Node6&#45;&gt;Node5</title>
<path fill="none" stroke="midnightblue" d="M1975.72,-820.24C1970.06,-815.3 1963.79,-810.96 1957.06,-808 1904.14,-784.78 964.73,-822.66 917.06,-790 913.99,-787.9 911.01,-785.69 908.13,-783.37"/>
<polygon fill="none" stroke="midnightblue" points="1973.41,-822.87 1983.05,-827.27 1978.26,-817.82 1973.41,-822.87"/>
</g>
<!-- Node7 -->
<g id="node7" class="node">
<title>Node7</title>
<g id="a_node7"><a xlink:href="interface_volume_control_1_1_audio_1_1_interfaces_1_1_i_audio_controllable.html" target="_top" xlink:title="Base interface type for IDevice and IProcess/ISession.">
<polygon fill="none" stroke="black" points="1952.56,-933.5 1952.56,-1034.5 2093.56,-1034.5 2093.56,-933.5 1952.56,-933.5"/>
<text text-anchor="middle" x="2023.06" y="-1022.5" font-family="Helvetica,sans-Serif" font-size="10.00">IAudioControllable</text>
<polyline fill="none" stroke="black" points="1952.56,-1015.5 2093.56,-1015.5 "/>
<text text-anchor="start" x="1960.56" y="-1003.5" font-family="Helvetica,sans-Serif" font-size="10.00">+ AudioMeterInformation</text>
<text text-anchor="start" x="1960.56" y="-992.5" font-family="Helvetica,sans-Serif" font-size="10.00">+ PeakMeterValue</text>
<text text-anchor="start" x="1960.56" y="-981.5" font-family="Helvetica,sans-Serif" font-size="10.00">+ NativeVolume</text>
<text text-anchor="start" x="1960.56" y="-970.5" font-family="Helvetica,sans-Serif" font-size="10.00">+ Volume</text>
<text text-anchor="start" x="1960.56" y="-959.5" font-family="Helvetica,sans-Serif" font-size="10.00">+ Muted</text>
<polyline fill="none" stroke="black" points="1952.56,-952.5 2093.56,-952.5 "/>
<text text-anchor="middle" x="2023.06" y="-940.5" font-family="Helvetica,sans-Serif" font-size="10.00"> </text>
</a>
</g>
</g>
<!-- Node7&#45;&gt;Node6 -->
<g id="edge6" class="edge">
<title>Node7&#45;&gt;Node6</title>
<path fill="none" stroke="midnightblue" d="M2015.14,-923.38C2013.87,-913.81 2012.6,-904.23 2011.45,-895.59"/>
<polygon fill="none" stroke="midnightblue" points="2011.67,-923.84 2016.46,-933.29 2018.61,-922.92 2011.67,-923.84"/>
</g>
<!-- Node8 -->
<g id="node8" class="node">
<title>Node8</title>
<g id="a_node8"><a xlink:title=" ">
<polygon fill="none" stroke="#bfbfbf" points="199.06,-833 199.06,-890 351.06,-890 351.06,-833 199.06,-833"/>
<text text-anchor="middle" x="275.06" y="-878" font-family="Helvetica,sans-Serif" font-size="10.00">IEquatable&lt; AudioDevice &gt;</text>
<polyline fill="none" stroke="#bfbfbf" points="199.06,-871 351.06,-871 "/>
<text text-anchor="middle" x="275.06" y="-859" font-family="Helvetica,sans-Serif" font-size="10.00"> </text>
<polyline fill="none" stroke="#bfbfbf" points="199.06,-852 351.06,-852 "/>
<text text-anchor="middle" x="275.06" y="-840" font-family="Helvetica,sans-Serif" font-size="10.00"> </text>
</a>
</g>
</g>
<!-- Node8&#45;&gt;Node5 -->
<g id="edge9" class="edge">
<title>Node8&#45;&gt;Node5</title>
<path fill="none" stroke="midnightblue" d="M330.81,-827.67C423.76,-772.96 611.26,-662.57 724.03,-596.18"/>
<polygon fill="none" stroke="midnightblue" points="328.96,-824.7 322.12,-832.79 332.51,-830.74 328.96,-824.7"/>
</g>
<!-- Node9 -->
<g id="node9" class="node">
<title>Node9</title>
<g id="a_node9"><a xlink:title=" ">
<polygon fill="none" stroke="#bfbfbf" points="369.06,-833 369.06,-890 497.06,-890 497.06,-833 369.06,-833"/>
<text text-anchor="middle" x="433.06" y="-878" font-family="Helvetica,sans-Serif" font-size="10.00">IEquatable&lt; IDevice &gt;</text>
<polyline fill="none" stroke="#bfbfbf" points="369.06,-871 497.06,-871 "/>
<text text-anchor="middle" x="433.06" y="-859" font-family="Helvetica,sans-Serif" font-size="10.00"> </text>
<polyline fill="none" stroke="#bfbfbf" points="369.06,-852 497.06,-852 "/>
<text text-anchor="middle" x="433.06" y="-840" font-family="Helvetica,sans-Serif" font-size="10.00"> </text>
</a>
</g>
</g>
<!-- Node9&#45;&gt;Node5 -->
<g id="edge10" class="edge">
<title>Node9&#45;&gt;Node5</title>
<path fill="none" stroke="midnightblue" d="M474.39,-826.13C533.64,-776.86 644.32,-684.82 723.66,-618.83"/>
<polygon fill="none" stroke="midnightblue" points="471.83,-823.71 466.38,-832.79 476.3,-829.09 471.83,-823.71"/>
</g>
<!-- Node10 -->
<g id="node10" class="node">
<title>Node10</title>
<g id="a_node10"><a xlink:title=" ">
<polygon fill="none" stroke="#bfbfbf" points="515.56,-833 515.56,-890 552.56,-890 552.56,-833 515.56,-833"/>
<text text-anchor="middle" x="534.06" y="-878" font-family="Helvetica,sans-Serif" font-size="10.00">IList</text>
<polyline fill="none" stroke="#bfbfbf" points="515.56,-871 552.56,-871 "/>
<text text-anchor="middle" x="534.06" y="-859" font-family="Helvetica,sans-Serif" font-size="10.00"> </text>
<polyline fill="none" stroke="#bfbfbf" points="515.56,-852 552.56,-852 "/>
<text text-anchor="middle" x="534.06" y="-840" font-family="Helvetica,sans-Serif" font-size="10.00"> </text>
</a>
</g>
</g>
<!-- Node10&#45;&gt;Node5 -->
<g id="edge11" class="edge">
<title>Node10&#45;&gt;Node5</title>
<path fill="none" stroke="midnightblue" d="M559.14,-830.4C560.12,-829.25 561.1,-828.11 562.06,-827 615,-765.66 675.3,-697.92 723.86,-643.87"/>
<polygon fill="none" stroke="midnightblue" points="556.43,-828.18 552.64,-838.07 561.77,-832.71 556.43,-828.18"/>
</g>
<!-- Node11 -->
<g id="node11" class="node">
<title>Node11</title>
<g id="a_node11"><a xlink:title=" ">
<polygon fill="none" stroke="#bfbfbf" points="571.06,-833 571.06,-890 639.06,-890 639.06,-833 571.06,-833"/>
<text text-anchor="middle" x="605.06" y="-878" font-family="Helvetica,sans-Serif" font-size="10.00">ICollection</text>
<polyline fill="none" stroke="#bfbfbf" points="571.06,-871 639.06,-871 "/>
<text text-anchor="middle" x="605.06" y="-859" font-family="Helvetica,sans-Serif" font-size="10.00"> </text>
<polyline fill="none" stroke="#bfbfbf" points="571.06,-852 639.06,-852 "/>
<text text-anchor="middle" x="605.06" y="-840" font-family="Helvetica,sans-Serif" font-size="10.00"> </text>
</a>
</g>
</g>
<!-- Node11&#45;&gt;Node5 -->
<g id="edge12" class="edge">
<title>Node11&#45;&gt;Node5</title>
<path fill="none" stroke="midnightblue" d="M629.02,-824.33C652.27,-789.24 689.03,-733.74 723.84,-681.2"/>
<polygon fill="none" stroke="midnightblue" points="626.02,-822.52 623.41,-832.79 631.85,-826.39 626.02,-822.52"/>
</g>
<!-- Node12 -->
<g id="node12" class="node">
<title>Node12</title>
<g id="a_node12"><a xlink:title=" ">
<polygon fill="none" stroke="#bfbfbf" points="657.06,-833 657.06,-890 735.06,-890 735.06,-833 657.06,-833"/>
<text text-anchor="middle" x="696.06" y="-878" font-family="Helvetica,sans-Serif" font-size="10.00">IEnumerable</text>
<polyline fill="none" stroke="#bfbfbf" points="657.06,-871 735.06,-871 "/>
<text text-anchor="middle" x="696.06" y="-859" font-family="Helvetica,sans-Serif" font-size="10.00"> </text>
<polyline fill="none" stroke="#bfbfbf" points="657.06,-852 735.06,-852 "/>
<text text-anchor="middle" x="696.06" y="-840" font-family="Helvetica,sans-Serif" font-size="10.00"> </text>
</a>
</g>
</g>
<!-- Node12&#45;&gt;Node5 -->
<g id="edge13" class="edge">
<title>Node12&#45;&gt;Node5</title>
<path fill="none" stroke="midnightblue" d="M710.14,-823.12C714.17,-812.43 718.88,-799.92 724.04,-786.22"/>
<polygon fill="none" stroke="midnightblue" points="706.75,-822.2 706.5,-832.79 713.3,-824.67 706.75,-822.2"/>
</g>
<!-- Node13 -->
<g id="node13" class="node">
<title>Node13</title>
<g id="a_node13"><a xlink:title=" ">
<polygon fill="none" stroke="#bfbfbf" points="753.56,-833 753.56,-890 878.56,-890 878.56,-833 753.56,-833"/>
<text text-anchor="middle" x="816.06" y="-878" font-family="Helvetica,sans-Serif" font-size="10.00">IList&lt; AudioSession &gt;</text>
<polyline fill="none" stroke="#bfbfbf" points="753.56,-871 878.56,-871 "/>
<text text-anchor="middle" x="816.06" y="-859" font-family="Helvetica,sans-Serif" font-size="10.00"> </text>
<polyline fill="none" stroke="#bfbfbf" points="753.56,-852 878.56,-852 "/>
<text text-anchor="middle" x="816.06" y="-840" font-family="Helvetica,sans-Serif" font-size="10.00"> </text>
</a>
</g>
</g>
<!-- Node13&#45;&gt;Node5 -->
<g id="edge14" class="edge">
<title>Node13&#45;&gt;Node5</title>
<path fill="none" stroke="midnightblue" d="M816.06,-822.57C816.06,-812.94 816.06,-801.87 816.06,-789.8"/>
<polygon fill="none" stroke="midnightblue" points="812.56,-822.79 816.06,-832.79 819.56,-822.79 812.56,-822.79"/>
</g>
<!-- Node14 -->
<g id="node14" class="node">
<title>Node14</title>
<g id="a_node14"><a xlink:title=" ">
<polygon fill="none" stroke="#bfbfbf" points="897.06,-833 897.06,-890 1075.06,-890 1075.06,-833 897.06,-833"/>
<text text-anchor="middle" x="986.06" y="-878" font-family="Helvetica,sans-Serif" font-size="10.00">IImmutableList&lt; AudioSession &gt;</text>
<polyline fill="none" stroke="#bfbfbf" points="897.06,-871 1075.06,-871 "/>
<text text-anchor="middle" x="986.06" y="-859" font-family="Helvetica,sans-Serif" font-size="10.00"> </text>
<polyline fill="none" stroke="#bfbfbf" points="897.06,-852 1075.06,-852 "/>
<text text-anchor="middle" x="986.06" y="-840" font-family="Helvetica,sans-Serif" font-size="10.00"> </text>
</a>
</g>
</g>
<!-- Node14&#45;&gt;Node5 -->
<g id="edge15" class="edge">
<title>Node14&#45;&gt;Node5</title>
<path fill="none" stroke="midnightblue" d="M946.8,-825.75C936.2,-815.03 925.38,-802.68 917.06,-790 914,-785.34 911,-780.56 908.07,-775.7"/>
<polygon fill="none" stroke="midnightblue" points="944.48,-828.38 954.06,-832.9 949.39,-823.39 944.48,-828.38"/>
</g>
<!-- Node15 -->
<g id="node15" class="node">
<title>Node15</title>
<g id="a_node15"><a xlink:title=" ">
<polygon fill="none" stroke="#bfbfbf" points="1093.06,-833 1093.06,-890 1249.06,-890 1249.06,-833 1093.06,-833"/>
<text text-anchor="middle" x="1171.06" y="-878" font-family="Helvetica,sans-Serif" font-size="10.00">ICollection&lt; AudioSession &gt;</text>
<polyline fill="none" stroke="#bfbfbf" points="1093.06,-871 1249.06,-871 "/>
<text text-anchor="middle" x="1171.06" y="-859" font-family="Helvetica,sans-Serif" font-size="10.00"> </text>
<polyline fill="none" stroke="#bfbfbf" points="1093.06,-852 1249.06,-852 "/>
<text text-anchor="middle" x="1171.06" y="-840" font-family="Helvetica,sans-Serif" font-size="10.00"> </text>
</a>
</g>
</g>
<!-- Node15&#45;&gt;Node5 -->
<g id="edge16" class="edge">
<title>Node15&#45;&gt;Node5</title>
<path fill="none" stroke="midnightblue" d="M1092.43,-829.63C1089.61,-828.71 1086.82,-827.83 1084.06,-827 1011.27,-805.06 975.15,-839.04 917.06,-790 914.04,-787.45 911.11,-784.8 908.26,-782.05"/>
<polygon fill="none" stroke="midnightblue" points="1091.46,-832.99 1102.05,-832.86 1093.69,-826.35 1091.46,-832.99"/>
</g>
<!-- Node16 -->
<g id="node16" class="node">
<title>Node16</title>
<g id="a_node16"><a xlink:title=" ">
<polygon fill="none" stroke="#bfbfbf" points="1267.06,-833 1267.06,-890 1433.06,-890 1433.06,-833 1267.06,-833"/>
<text text-anchor="middle" x="1350.06" y="-878" font-family="Helvetica,sans-Serif" font-size="10.00">IEnumerable&lt; AudioSession &gt;</text>
<polyline fill="none" stroke="#bfbfbf" points="1267.06,-871 1433.06,-871 "/>
<text text-anchor="middle" x="1350.06" y="-859" font-family="Helvetica,sans-Serif" font-size="10.00"> </text>
<polyline fill="none" stroke="#bfbfbf" points="1267.06,-852 1433.06,-852 "/>
<text text-anchor="middle" x="1350.06" y="-840" font-family="Helvetica,sans-Serif" font-size="10.00"> </text>
</a>
</g>
</g>
<!-- Node16&#45;&gt;Node5 -->
<g id="edge17" class="edge">
<title>Node16&#45;&gt;Node5</title>
<path fill="none" stroke="midnightblue" d="M1269.88,-830.04C1265.9,-828.93 1261.95,-827.91 1258.06,-827 1183.82,-809.72 977.92,-835.89 917.06,-790 913.99,-787.69 911.02,-785.27 908.14,-782.76"/>
<polygon fill="none" stroke="midnightblue" points="1269.18,-833.48 1279.76,-832.96 1271.16,-826.77 1269.18,-833.48"/>
</g>
<!-- Node17 -->
<g id="node17" class="node">
<title>Node17</title>
<g id="a_node17"><a xlink:title=" ">
<polygon fill="none" stroke="#bfbfbf" points="1451.06,-833 1451.06,-890 1623.06,-890 1623.06,-833 1451.06,-833"/>
<text text-anchor="middle" x="1537.06" y="-878" font-family="Helvetica,sans-Serif" font-size="10.00">IReadOnlyList&lt; AudioSession &gt;</text>
<polyline fill="none" stroke="#bfbfbf" points="1451.06,-871 1623.06,-871 "/>
<text text-anchor="middle" x="1537.06" y="-859" font-family="Helvetica,sans-Serif" font-size="10.00"> </text>
<polyline fill="none" stroke="#bfbfbf" points="1451.06,-852 1623.06,-852 "/>
<text text-anchor="middle" x="1537.06" y="-840" font-family="Helvetica,sans-Serif" font-size="10.00"> </text>
</a>
</g>
</g>
<!-- Node17&#45;&gt;Node5 -->
<g id="edge18" class="edge">
<title>Node17&#45;&gt;Node5</title>
<path fill="none" stroke="midnightblue" d="M1455.44,-830.17C1450.94,-828.98 1446.46,-827.91 1442.06,-827 1384.8,-815.11 964.41,-824.32 917.06,-790 914.05,-787.82 911.12,-785.53 908.29,-783.14"/>
<polygon fill="none" stroke="midnightblue" points="1454.7,-833.6 1465.27,-832.92 1456.59,-826.86 1454.7,-833.6"/>
</g>
<!-- Node18 -->
<g id="node18" class="node">
<title>Node18</title>
<g id="a_node18"><a xlink:title=" ">
<polygon fill="none" stroke="#bfbfbf" points="1641.06,-827.5 1641.06,-895.5 1757.06,-895.5 1757.06,-827.5 1641.06,-827.5"/>
<text text-anchor="start" x="1649.06" y="-883.5" font-family="Helvetica,sans-Serif" font-size="10.00">IReadOnlyCollection</text>
<text text-anchor="middle" x="1699.06" y="-872.5" font-family="Helvetica,sans-Serif" font-size="10.00">&lt; AudioSession &gt;</text>
<polyline fill="none" stroke="#bfbfbf" points="1641.06,-865.5 1757.06,-865.5 "/>
<text text-anchor="middle" x="1699.06" y="-853.5" font-family="Helvetica,sans-Serif" font-size="10.00"> </text>
<polyline fill="none" stroke="#bfbfbf" points="1641.06,-846.5 1757.06,-846.5 "/>
<text text-anchor="middle" x="1699.06" y="-834.5" font-family="Helvetica,sans-Serif" font-size="10.00"> </text>
</a>
</g>
</g>
<!-- Node18&#45;&gt;Node5 -->
<g id="edge19" class="edge">
<title>Node18&#45;&gt;Node5</title>
<path fill="none" stroke="midnightblue" d="M1630.91,-827.98C1536.96,-816.48 948.02,-812.01 917.06,-790 914.03,-787.85 911.08,-785.58 908.23,-783.22"/>
<polygon fill="none" stroke="midnightblue" points="1630.33,-831.44 1640.77,-829.66 1631.5,-824.53 1630.33,-831.44"/>
</g>
<!-- Node19 -->
<g id="node19" class="node">
<title>Node19</title>
<g id="a_node19"><a xlink:title=" ">
<polygon fill="none" stroke="#bfbfbf" points="1775.06,-833 1775.06,-890 1915.06,-890 1915.06,-833 1775.06,-833"/>
<text text-anchor="middle" x="1845.06" y="-878" font-family="Helvetica,sans-Serif" font-size="10.00">INotifyCollectionChanged</text>
<polyline fill="none" stroke="#bfbfbf" points="1775.06,-871 1915.06,-871 "/>
<text text-anchor="middle" x="1845.06" y="-859" font-family="Helvetica,sans-Serif" font-size="10.00"> </text>
<polyline fill="none" stroke="#bfbfbf" points="1775.06,-852 1915.06,-852 "/>
<text text-anchor="middle" x="1845.06" y="-840" font-family="Helvetica,sans-Serif" font-size="10.00"> </text>
</a>
</g>
</g>
<!-- Node19&#45;&gt;Node5 -->
<g id="edge20" class="edge">
<title>Node19&#45;&gt;Node5</title>
<path fill="none" stroke="midnightblue" d="M1776.48,-829.73C1772.99,-828.7 1769.5,-827.78 1766.06,-827 1743.03,-821.8 936.35,-803.6 917.06,-790 914.02,-787.86 911.07,-785.61 908.21,-783.26"/>
<polygon fill="none" stroke="midnightblue" points="1775.69,-833.16 1786.29,-832.91 1777.85,-826.5 1775.69,-833.16"/>
</g>
</g>
</svg>
        <g id="navigator" transform="translate(0 0)" fill="#404254">
                <rect fill="#f2f5e9" fill-opacity="0.5" stroke="#606060" stroke-width=".5" x="0" y="0" width="60" height="60"/>
                <use id="zoomplus" xlink:href="#zoomPlus" x="17" y="9" onmousedown="handleZoom(evt,'in')"/>
                <use id="zoomminus" xlink:href="#zoomMin" x="42" y="9" onmousedown="handleZoom(evt,'out')"/>
                <use id="reset" xlink:href="#resetDef" x="30" y="36" onmousedown="handleReset()"/>
                <g id="arrowUp" xlink:href="#dirArrow" transform="translate(30 24)" onmousedown="handlePan(0,-1)">
                  <use xlink:href="#rim" fill="#404040">
                        <set attributeName="fill" to="#808080" begin="arrowUp.mouseover" end="arrowUp.mouseout"/>
                  </use>
                  <path fill="none" stroke="white" stroke-width="1.5" d="M0,-3.0v7 M-2.5,-0.5L0,-3.0L2.5,-0.5"/>
                </g>
                <g id="arrowRight" xlink:href="#dirArrow" transform="rotate(90) translate(36 -43)" onmousedown="handlePan(1,0)">
                  <use xlink:href="#rim" fill="#404040">
                        <set attributeName="fill" to="#808080" begin="arrowRight.mouseover" end="arrowRight.mouseout"/>
                  </use>
                  <path fill="none" stroke="white" stroke-width="1.5" d="M0,-3.0v7 M-2.5,-0.5L0,-3.0L2.5,-0.5"/>
                </g>
                <g id="arrowDown" xlink:href="#dirArrow" transform="rotate(180) translate(-30 -48)" onmousedown="handlePan(0,1)">
                  <use xlink:href="#rim" fill="#404040">
                        <set attributeName="fill" to="#808080" begin="arrowDown.mouseover" end="arrowDown.mouseout"/>
                  </use>
                  <path fill="none" stroke="white" stroke-width="1.5" d="M0,-3.0v7 M-2.5,-0.5L0,-3.0L2.5,-0.5"/>
                </g>
                <g id="arrowLeft" xlink:href="#dirArrow" transform="rotate(270) translate(-36 17)" onmousedown="handlePan(-1,0)">
                  <use xlink:href="#rim" fill="#404040">
                        <set attributeName="fill" to="#808080" begin="arrowLeft.mouseover" end="arrowLeft.mouseout"/>
                  </use>
                  <path fill="none" stroke="white" stroke-width="1.5" d="M0,-3.0v7 M-2.5,-0.5L0,-3.0L2.5,-0.5"/>
                </g>
        </g>
        <svg viewBox="0 0 15 15" width="100%" height="30px" preserveAspectRatio="xMaxYMin meet">
         <g id="arrow_out" transform="scale(0.3 0.3)">
          <a xlink:href="class_volume_control_1_1_audio_1_1_audio_a_p_i__coll__graph_org.svg" target="_base">
           <rect id="button" ry="5" rx="5" y="6" x="6" height="38" width="38"
                fill="#f2f5e9" fill-opacity="0.5" stroke="#606060" stroke-width="1.0"/>
           <path id="arrow"
             d="M 11.500037,31.436501 C 11.940474,20.09759 22.043105,11.32322 32.158766,21.979434 L 37.068811,17.246167 C 37.068811,17.246167 37.088388,32 37.088388,32 L 22.160133,31.978069 C 22.160133,31.978069 26.997745,27.140456 26.997745,27.140456 C 18.528582,18.264221 13.291696,25.230495 11.500037,31.436501 z"
             style="fill:#404040;"/>
          </a>
         </g>
        </svg>
</svg>
