<?xml version="1.0" encoding="UTF-8" standalone="no"?>
<!DOCTYPE svg PUBLIC "-//W3C//DTD SVG 1.1//EN"
 "http://www.w3.org/Graphics/SVG/1.1/DTD/svg11.dtd">
<!-- Generated by graphviz version 2.43.0 (0)
 -->
<!-- Title: VolumeControl.Core.Input.HotkeyPressedEventArgs Pages: 1 -->
<svg width="159pt" height="303pt"
 viewBox="0.00 0.00 159.00 303.00" xmlns="http://www.w3.org/2000/svg" xmlns:xlink="http://www.w3.org/1999/xlink">
<g id="graph0" class="graph" transform="scale(1 1) rotate(0) translate(4 299)">
<title>VolumeControl.Core.Input.HotkeyPressedEventArgs</title>
<!-- Node1 -->
<g id="Node000001" class="node">
<title>Node1</title>
<g id="a_Node000001"><a xlink:title="Event arguments for hotkey action events.">
<polygon fill="#999999" stroke="transparent" points="151,-210 0,-210 0,0 151,0 151,-210"/>
<text text-anchor="start" x="11.5" y="-198" font-family="Helvetica,sans-Serif" font-size="10.00">VolumeControl.Core.Input.</text>
<text text-anchor="start" x="14.5" y="-187" font-family="Helvetica,sans-Serif" font-size="10.00">HotkeyPressedEventArgs</text>
<text text-anchor="start" x="4.5" y="-172" font-family="Helvetica,sans-Serif" font-size="10.00">+</text>
<text text-anchor="start" x="17.5" y="-172" font-family="Helvetica,sans-Serif" font-size="10.00">Settings</text>
<text text-anchor="start" x="4.5" y="-157" font-family="Helvetica,sans-Serif" font-size="10.00">+</text>
<text text-anchor="start" x="17.5" y="-157" font-family="Helvetica,sans-Serif" font-size="10.00">HotkeyPressedEventArgs()</text>
<text text-anchor="start" x="4.5" y="-142" font-family="Helvetica,sans-Serif" font-size="10.00">+</text>
<text text-anchor="start" x="17.5" y="-142" font-family="Helvetica,sans-Serif" font-size="10.00">HotkeyPressedEventArgs()</text>
<text text-anchor="start" x="4.5" y="-127" font-family="Helvetica,sans-Serif" font-size="10.00">+</text>
<text text-anchor="start" x="17.5" y="-127" font-family="Helvetica,sans-Serif" font-size="10.00">HotkeyPressedEventArgs()</text>
<text text-anchor="start" x="4.5" y="-112" font-family="Helvetica,sans-Serif" font-size="10.00">+</text>
<text text-anchor="start" x="17.5" y="-112" font-family="Helvetica,sans-Serif" font-size="10.00">HotkeyPressedEventArgs()</text>
<text text-anchor="start" x="4.5" y="-97" font-family="Helvetica,sans-Serif" font-size="10.00">+</text>
<text text-anchor="start" x="17.5" y="-97" font-family="Helvetica,sans-Serif" font-size="10.00">GetSetting()</text>
<text text-anchor="start" x="4.5" y="-82" font-family="Helvetica,sans-Serif" font-size="10.00">+</text>
<text text-anchor="start" x="17.5" y="-82" font-family="Helvetica,sans-Serif" font-size="10.00">GetSetting()</text>
<text text-anchor="start" x="4.5" y="-67" font-family="Helvetica,sans-Serif" font-size="10.00">+</text>
<text text-anchor="start" x="17.5" y="-67" font-family="Helvetica,sans-Serif" font-size="10.00">GetSetting&lt; T &gt;()</text>
<text text-anchor="start" x="4.5" y="-52" font-family="Helvetica,sans-Serif" font-size="10.00">+</text>
<text text-anchor="start" x="17.5" y="-52" font-family="Helvetica,sans-Serif" font-size="10.00">TryGetSetting()</text>
<text text-anchor="start" x="4.5" y="-37" font-family="Helvetica,sans-Serif" font-size="10.00">+</text>
<text text-anchor="start" x="17.5" y="-37" font-family="Helvetica,sans-Serif" font-size="10.00">TryGetSetting()</text>
<text text-anchor="start" x="4.5" y="-22" font-family="Helvetica,sans-Serif" font-size="10.00">+</text>
<text text-anchor="start" x="17.5" y="-22" font-family="Helvetica,sans-Serif" font-size="10.00">TryGetSetting()</text>
<text text-anchor="start" x="17.5" y="-7" font-family="Helvetica,sans-Serif" font-size="10.00">and 17 more...</text>
<polygon fill="#666666" stroke="#666666" points="0.5,-182 0.5,-182 151.5,-182 151.5,-182 0.5,-182"/>
<polygon fill="#666666" stroke="#666666" points="0.5,-167 0.5,-167 15.5,-167 15.5,-167 0.5,-167"/>
<polygon fill="#666666" stroke="#666666" points="15.5,-167 15.5,-167 151.5,-167 151.5,-167 15.5,-167"/>
<polygon fill="none" stroke="#666666" points="0,0 0,-210 151,-210 151,0 0,0"/>
</a>
</g>
</g>
<!-- Node2 -->
<g id="Node000002" class="node">
<title>Node2</title>
<g id="a_Node000002"><a xlink:title=" ">
<polygon fill="white" stroke="transparent" points="126,-295 25,-295 25,-246 126,-246 126,-295"/>
<text text-anchor="start" x="30.5" y="-282.5" font-family="Helvetica,sans-Serif" font-size="10.00">HandledEventArgs</text>
<text text-anchor="start" x="74" y="-267.5" font-family="Helvetica,sans-Serif" font-size="10.00"> </text>
<text text-anchor="start" x="74" y="-252.5" font-family="Helvetica,sans-Serif" font-size="10.00"> </text>
<polygon fill="#bfbfbf" stroke="#bfbfbf" points="25.5,-277.5 25.5,-277.5 126.5,-277.5 126.5,-277.5 25.5,-277.5"/>
<polygon fill="#bfbfbf" stroke="#bfbfbf" points="25.5,-262.5 25.5,-262.5 126.5,-262.5 126.5,-262.5 25.5,-262.5"/>
<polygon fill="none" stroke="#bfbfbf" points="25,-246 25,-295 126,-295 126,-246 25,-246"/>
</a>
</g>
</g>
<!-- Node2&#45;&gt;Node1 -->
<g id="edge1_Node000001_Node000002" class="edge">
<title>Node2&#45;&gt;Node1</title>
<g id="a_edge1_Node000001_Node000002"><a xlink:title=" ">
<path fill="none" stroke="#63b8ff" d="M75.5,-235.69C75.5,-227.89 75.5,-219.18 75.5,-210.08"/>
<polygon fill="none" stroke="#63b8ff" points="72,-235.73 75.5,-245.73 79,-235.73 72,-235.73"/>
</a>
</g>
</g>
</g>
</svg>
