<?xml version="1.0" encoding="UTF-8" standalone="no"?>
<!DOCTYPE svg PUBLIC "-//W3C//DTD SVG 1.1//EN"
 "http://www.w3.org/Graphics/SVG/1.1/DTD/svg11.dtd">
<!-- Generated by graphviz version 2.43.0 (0)
 -->
<!-- Title: VolumeControl.Core.Input.HotkeyActionAddonLoader.Load Pages: 1 -->
<svg width="386pt" height="247pt"
 viewBox="0.00 0.00 386.00 246.50" xmlns="http://www.w3.org/2000/svg" xmlns:xlink="http://www.w3.org/1999/xlink">
<g id="graph0" class="graph" transform="scale(1 1) rotate(0) translate(4 242.5)">
<title>VolumeControl.Core.Input.HotkeyActionAddonLoader.Load</title>
<!-- Node1 -->
<g id="node1" class="node">
<title>Node1</title>
<g id="a_node1"><a xlink:title="Loads hotkey actions from the specified types .">
<polygon fill="#bfbfbf" stroke="black" points="0,-98.5 0,-128.5 171,-128.5 171,-98.5 0,-98.5"/>
<text text-anchor="start" x="8" y="-116.5" font-family="Helvetica,sans-Serif" font-size="10.00">VolumeControl.Core.Input.</text>
<text text-anchor="middle" x="85.5" y="-105.5" font-family="Helvetica,sans-Serif" font-size="10.00">HotkeyActionAddonLoader.Load</text>
</a>
</g>
</g>
<!-- Node2 -->
<g id="node2" class="node">
<title>Node2</title>
<g id="a_node2"><a xlink:href="class_volume_control_1_1_core_1_1_input_1_1_actions_1_1_hotkey_action_definition.html#aabbaa28f08c319d4d3af5d19c2e9ef17" target="_top" xlink:title="Creates a new HotkeyActionInstance instance from this definition.">
<polygon fill="none" stroke="black" points="207,-197 207,-238 378,-238 378,-197 207,-197"/>
<text text-anchor="start" x="215" y="-226" font-family="Helvetica,sans-Serif" font-size="10.00">VolumeControl.Core.Input.</text>
<text text-anchor="start" x="215" y="-215" font-family="Helvetica,sans-Serif" font-size="10.00">Actions.HotkeyActionDefinition.</text>
<text text-anchor="middle" x="292.5" y="-204" font-family="Helvetica,sans-Serif" font-size="10.00">CreateInstance</text>
</a>
</g>
</g>
<!-- Node1&#45;&gt;Node2 -->
<g id="edge1" class="edge">
<title>Node1&#45;&gt;Node2</title>
<path fill="none" stroke="midnightblue" d="M107.93,-128.57C131.44,-144.65 170.68,-170.13 207,-187.5 210.98,-189.4 215.11,-191.25 219.32,-193.03"/>
<polygon fill="midnightblue" stroke="midnightblue" points="218.02,-196.29 228.6,-196.83 220.67,-189.81 218.02,-196.29"/>
</g>
<!-- Node3 -->
<g id="node3" class="node">
<title>Node3</title>
<g id="a_node3"><a xlink:href="class_volume_control_1_1_log_1_1_async_log_writer.html#aa1c61e979b3f9bb69784da07de4d64e0" target="_top" xlink:title="Queues writing a EventType.DEBUG message with the specified lines .">
<polygon fill="none" stroke="black" points="213.5,-147.5 213.5,-177.5 371.5,-177.5 371.5,-147.5 213.5,-147.5"/>
<text text-anchor="start" x="221.5" y="-165.5" font-family="Helvetica,sans-Serif" font-size="10.00">VolumeControl.Log.AsyncLog</text>
<text text-anchor="middle" x="292.5" y="-154.5" font-family="Helvetica,sans-Serif" font-size="10.00">Writer.Debug</text>
</a>
</g>
</g>
<!-- Node1&#45;&gt;Node3 -->
<g id="edge2" class="edge">
<title>Node1&#45;&gt;Node3</title>
<path fill="none" stroke="midnightblue" d="M149.4,-128.53C171.34,-133.78 196.14,-139.71 218.81,-145.13"/>
<polygon fill="midnightblue" stroke="midnightblue" points="218.18,-148.57 228.72,-147.49 219.81,-141.76 218.18,-148.57"/>
</g>
<!-- Node4 -->
<g id="node4" class="node">
<title>Node4</title>
<g id="a_node4"><a xlink:href="class_volume_control_1_1_log_1_1_async_log_writer.html#a78392efd4f13ac8fb627ef5349c75eab" target="_top" xlink:title="Queues writing a EventType.ERROR message with the specified lines .">
<polygon fill="none" stroke="black" points="213.5,-98.5 213.5,-128.5 371.5,-128.5 371.5,-98.5 213.5,-98.5"/>
<text text-anchor="start" x="221.5" y="-116.5" font-family="Helvetica,sans-Serif" font-size="10.00">VolumeControl.Log.AsyncLog</text>
<text text-anchor="middle" x="292.5" y="-105.5" font-family="Helvetica,sans-Serif" font-size="10.00">Writer.Error</text>
</a>
</g>
</g>
<!-- Node1&#45;&gt;Node4 -->
<g id="edge3" class="edge">
<title>Node1&#45;&gt;Node4</title>
<path fill="none" stroke="midnightblue" d="M171.06,-113.5C181.68,-113.5 192.56,-113.5 203.23,-113.5"/>
<polygon fill="midnightblue" stroke="midnightblue" points="203.38,-117 213.38,-113.5 203.38,-110 203.38,-117"/>
</g>
<!-- Node5 -->
<g id="node5" class="node">
<title>Node5</title>
<g id="a_node5"><a xlink:href="class_volume_control_1_1_log_1_1_async_log_writer.html#a991ed5d730c4006309027e8b98304751" target="_top" xlink:title="Checks if messages with the specified eventType &#160;are shown in the log.">
<polygon fill="none" stroke="black" points="213.5,-49.5 213.5,-79.5 371.5,-79.5 371.5,-49.5 213.5,-49.5"/>
<text text-anchor="start" x="221.5" y="-67.5" font-family="Helvetica,sans-Serif" font-size="10.00">VolumeControl.Log.AsyncLog</text>
<text text-anchor="middle" x="292.5" y="-56.5" font-family="Helvetica,sans-Serif" font-size="10.00">Writer.FilterEventType</text>
</a>
</g>
</g>
<!-- Node1&#45;&gt;Node5 -->
<g id="edge4" class="edge">
<title>Node1&#45;&gt;Node5</title>
<path fill="none" stroke="midnightblue" d="M149.4,-98.47C171.34,-93.22 196.14,-87.29 218.81,-81.87"/>
<polygon fill="midnightblue" stroke="midnightblue" points="219.81,-85.24 228.72,-79.51 218.18,-78.43 219.81,-85.24"/>
</g>
<!-- Node6 -->
<g id="node6" class="node">
<title>Node6</title>
<g id="a_node6"><a xlink:href="class_volume_control_1_1_log_1_1_async_log_writer.html#abc333e4213798ea77274dd28ef009268" target="_top" xlink:title="Queues writing a EventType.TRACE message with the specified lines .">
<polygon fill="none" stroke="black" points="213.5,-0.5 213.5,-30.5 371.5,-30.5 371.5,-0.5 213.5,-0.5"/>
<text text-anchor="start" x="221.5" y="-18.5" font-family="Helvetica,sans-Serif" font-size="10.00">VolumeControl.Log.AsyncLog</text>
<text text-anchor="middle" x="292.5" y="-7.5" font-family="Helvetica,sans-Serif" font-size="10.00">Writer.Trace</text>
</a>
</g>
</g>
<!-- Node1&#45;&gt;Node6 -->
<g id="edge5" class="edge">
<title>Node1&#45;&gt;Node6</title>
<path fill="none" stroke="midnightblue" d="M107.79,-98.28C131.18,-82.11 170.31,-56.72 207,-40.5 212.29,-38.16 217.86,-35.97 223.51,-33.93"/>
<polygon fill="midnightblue" stroke="midnightblue" points="224.74,-37.21 233.06,-30.65 222.47,-30.59 224.74,-37.21"/>
</g>
</g>
</svg>
