<?xml version="1.0" encoding="UTF-8" standalone="no"?>
<!DOCTYPE svg PUBLIC "-//W3C//DTD SVG 1.1//EN"
 "http://www.w3.org/Graphics/SVG/1.1/DTD/svg11.dtd">
<!-- Generated by graphviz version 2.43.0 (0)
 -->
<!-- Title: HotkeyLib.WindowsHotkeyConverter Pages: 1 -->
<svg width="203pt" height="182pt"
 viewBox="0.00 0.00 203.00 182.00" xmlns="http://www.w3.org/2000/svg" xmlns:xlink="http://www.w3.org/1999/xlink">
<g id="graph0" class="graph" transform="scale(1 1) rotate(0) translate(4 178)">
<title>HotkeyLib.WindowsHotkeyConverter</title>
<!-- Node1 -->
<g id="node1" class="node">
<title>Node1</title>
<g id="a_node1"><a xlink:title="TypeConverter for WindowsHotkey classes.">
<polygon fill="#bfbfbf" stroke="black" points="0,-0.5 0,-79.5 195,-79.5 195,-0.5 0,-0.5"/>
<text text-anchor="middle" x="97.5" y="-67.5" font-family="Helvetica,sans-Serif" font-size="10.00">HotkeyLib.WindowsHotkeyConverter</text>
<polyline fill="none" stroke="black" points="0,-60.5 195,-60.5 "/>
<text text-anchor="middle" x="97.5" y="-48.5" font-family="Helvetica,sans-Serif" font-size="10.00"> </text>
<polyline fill="none" stroke="black" points="0,-41.5 195,-41.5 "/>
<text text-anchor="start" x="8" y="-29.5" font-family="Helvetica,sans-Serif" font-size="10.00">+ ConvertTo()</text>
<text text-anchor="start" x="8" y="-18.5" font-family="Helvetica,sans-Serif" font-size="10.00">+ CanConvertFrom()</text>
<text text-anchor="start" x="8" y="-7.5" font-family="Helvetica,sans-Serif" font-size="10.00">+ ConvertFrom()</text>
</a>
</g>
</g>
<!-- Node2 -->
<g id="node2" class="node">
<title>Node2</title>
<g id="a_node2"><a xlink:title=" ">
<polygon fill="none" stroke="#bfbfbf" points="54,-116.5 54,-173.5 141,-173.5 141,-116.5 54,-116.5"/>
<text text-anchor="middle" x="97.5" y="-161.5" font-family="Helvetica,sans-Serif" font-size="10.00">TypeConverter</text>
<polyline fill="none" stroke="#bfbfbf" points="54,-154.5 141,-154.5 "/>
<text text-anchor="middle" x="97.5" y="-142.5" font-family="Helvetica,sans-Serif" font-size="10.00"> </text>
<polyline fill="none" stroke="#bfbfbf" points="54,-135.5 141,-135.5 "/>
<text text-anchor="middle" x="97.5" y="-123.5" font-family="Helvetica,sans-Serif" font-size="10.00"> </text>
</a>
</g>
</g>
<!-- Node2&#45;&gt;Node1 -->
<g id="edge1" class="edge">
<title>Node2&#45;&gt;Node1</title>
<path fill="none" stroke="midnightblue" d="M97.5,-106.16C97.5,-97.47 97.5,-88.23 97.5,-79.52"/>
<polygon fill="none" stroke="midnightblue" points="94,-106.4 97.5,-116.4 101,-106.4 94,-106.4"/>
</g>
</g>
</svg>
