<?xml version="1.0" encoding="UTF-8" standalone="no"?>
<!DOCTYPE svg PUBLIC "-//W3C//DTD SVG 1.1//EN"
 "http://www.w3.org/Graphics/SVG/1.1/DTD/svg11.dtd">
<!-- Generated by graphviz version 2.43.0 (0)
 -->
<!-- Title: VolumeControl.Audio.AudioDevice Pages: 1 -->
<!--zoomable 970 -->
<svg id="main" version="1.1" xmlns="http://www.w3.org/2000/svg" xmlns:xlink="http://www.w3.org/1999/xlink" xml:space="preserve" onload="init(evt)">
<style type="text/css"><![CDATA[
.edge:hover path { stroke: red; }
.edge:hover polygon { stroke: red; fill: red; }
]]></style>
<script type="text/javascript"><![CDATA[
var edges = document.getElementsByTagName('g');
if (edges && edges.length) {
  for (var i=0;i<edges.length;i++) {
    if (edges[i].id.substr(0,4)=='edge') {
      edges[i].setAttribute('class','edge');
    }
  }
}
]]></script>
        <defs>
                <circle id="rim" cx="0" cy="0" r="7"/>
                <circle id="rim2" cx="0" cy="0" r="3.5"/>
                <g id="zoomPlus">
                        <use xlink:href="#rim" fill="#404040">
                                <set attributeName="fill" to="#808080" begin="zoomplus.mouseover" end="zoomplus.mouseout"/>
                        </use>
                        <path d="M-4,0h8M0,-4v8" fill="none" stroke="white" stroke-width="1.5" pointer-events="none"/>
                </g>
                <g id="zoomMin">
                        <use xlink:href="#rim" fill="#404040">
                                <set attributeName="fill" to="#808080" begin="zoomminus.mouseover" end="zoomminus.mouseout"/>
                        </use>
                        <path d="M-4,0h8" fill="none" stroke="white" stroke-width="1.5" pointer-events="none"/>
                </g>
                <g id="dirArrow">
                        <path fill="none" stroke="white" stroke-width="1.5" d="M0,-3.0v7 M-2.5,-0.5L0,-3.0L2.5,-0.5"/>
                </g>
               <g id="resetDef">
                       <use xlink:href="#rim2" fill="#404040">
                               <set attributeName="fill" to="#808080" begin="reset.mouseover" end="reset.mouseout"/>
                       </use>
               </g>
        </defs>

<script type="text/javascript">
var viewWidth = 2178;
var viewHeight = 970;
var sectionId = 'dynsection-0';
</script>
<script xlink:href="svgpan.js"/>
<svg id="graph" class="graph">
<g id="viewport">
<title>VolumeControl.Audio.AudioDevice</title>
<!-- Node1 -->
<g id="node1" class="node">
<title>Node1</title>
<g id="a_node1"><a xlink:title="Represents an audio device endpoint. Note that this object cannot be constructed externally....">
<polygon fill="#bfbfbf" stroke="black" points="768.07,-0.5 768.07,-508.5 952.07,-508.5 952.07,-0.5 768.07,-0.5"/>
<text text-anchor="start" x="776.07" y="-496.5" font-family="Helvetica,sans-Serif" font-size="10.00">VolumeControl.Audio.Audio</text>
<text text-anchor="middle" x="860.07" y="-485.5" font-family="Helvetica,sans-Serif" font-size="10.00">Device</text>
<polyline fill="none" stroke="black" points="768.07,-478.5 952.07,-478.5 "/>
<text text-anchor="start" x="776.07" y="-466.5" font-family="Helvetica,sans-Serif" font-size="10.00">+ AudioMeterInformation</text>
<text text-anchor="start" x="776.07" y="-455.5" font-family="Helvetica,sans-Serif" font-size="10.00">+ PeakMeterValue</text>
<text text-anchor="start" x="776.07" y="-444.5" font-family="Helvetica,sans-Serif" font-size="10.00">+ InterfaceName</text>
<text text-anchor="start" x="776.07" y="-433.5" font-family="Helvetica,sans-Serif" font-size="10.00">+ InstanceID</text>
<text text-anchor="start" x="776.07" y="-422.5" font-family="Helvetica,sans-Serif" font-size="10.00">+ IconPath</text>
<text text-anchor="start" x="776.07" y="-411.5" font-family="Helvetica,sans-Serif" font-size="10.00">+ Icon</text>
<text text-anchor="start" x="776.07" y="-400.5" font-family="Helvetica,sans-Serif" font-size="10.00">+ DeviceFriendlyName</text>
<text text-anchor="start" x="776.07" y="-389.5" font-family="Helvetica,sans-Serif" font-size="10.00">+ FriendlyName</text>
<text text-anchor="start" x="776.07" y="-378.5" font-family="Helvetica,sans-Serif" font-size="10.00">+ Properties</text>
<text text-anchor="start" x="776.07" y="-367.5" font-family="Helvetica,sans-Serif" font-size="10.00">+ State</text>
<text text-anchor="start" x="776.07" y="-356.5" font-family="Helvetica,sans-Serif" font-size="10.00">and 8 more...</text>
<text text-anchor="start" x="776.07" y="-345.5" font-family="Helvetica,sans-Serif" font-size="10.00">+ MMDevice</text>
<text text-anchor="start" x="776.07" y="-334.5" font-family="Helvetica,sans-Serif" font-size="10.00">+ Enabled</text>
<text text-anchor="start" x="776.07" y="-323.5" font-family="Helvetica,sans-Serif" font-size="10.00">+ Name</text>
<text text-anchor="start" x="776.07" y="-312.5" font-family="Helvetica,sans-Serif" font-size="10.00">+ DeviceID</text>
<text text-anchor="start" x="776.07" y="-301.5" font-family="Helvetica,sans-Serif" font-size="10.00">+ Icons</text>
<text text-anchor="start" x="776.07" y="-290.5" font-family="Helvetica,sans-Serif" font-size="10.00">+ EndpointVolumeObject</text>
<text text-anchor="start" x="776.07" y="-279.5" font-family="Helvetica,sans-Serif" font-size="10.00">+ NativeVolume</text>
<text text-anchor="start" x="776.07" y="-268.5" font-family="Helvetica,sans-Serif" font-size="10.00">+ Volume</text>
<text text-anchor="start" x="776.07" y="-257.5" font-family="Helvetica,sans-Serif" font-size="10.00">+ Muted</text>
<text text-anchor="start" x="776.07" y="-246.5" font-family="Helvetica,sans-Serif" font-size="10.00">+ DisplayText</text>
<text text-anchor="start" x="776.07" y="-235.5" font-family="Helvetica,sans-Serif" font-size="10.00">+ Sessions</text>
<text text-anchor="start" x="776.07" y="-224.5" font-family="Helvetica,sans-Serif" font-size="10.00">+ this[int index]</text>
<text text-anchor="start" x="776.07" y="-213.5" font-family="Helvetica,sans-Serif" font-size="10.00">+ this[int index]</text>
<text text-anchor="start" x="776.07" y="-202.5" font-family="Helvetica,sans-Serif" font-size="10.00">+ CollectionChanged</text>
<polyline fill="none" stroke="black" points="768.07,-195.5 952.07,-195.5 "/>
<text text-anchor="start" x="776.07" y="-183.5" font-family="Helvetica,sans-Serif" font-size="10.00">+ GetDeviceName()</text>
<text text-anchor="start" x="776.07" y="-172.5" font-family="Helvetica,sans-Serif" font-size="10.00">+ FindAll()</text>
<text text-anchor="start" x="776.07" y="-161.5" font-family="Helvetica,sans-Serif" font-size="10.00">+ GetIcons()</text>
<text text-anchor="start" x="776.07" y="-150.5" font-family="Helvetica,sans-Serif" font-size="10.00">+ Dispose()</text>
<text text-anchor="start" x="776.07" y="-139.5" font-family="Helvetica,sans-Serif" font-size="10.00">+ Equals()</text>
<text text-anchor="start" x="776.07" y="-128.5" font-family="Helvetica,sans-Serif" font-size="10.00">+ Equals()</text>
<text text-anchor="start" x="776.07" y="-117.5" font-family="Helvetica,sans-Serif" font-size="10.00">+ Equals()</text>
<text text-anchor="start" x="776.07" y="-106.5" font-family="Helvetica,sans-Serif" font-size="10.00">+ GetHashCode()</text>
<text text-anchor="start" x="776.07" y="-95.5" font-family="Helvetica,sans-Serif" font-size="10.00">+ Add()</text>
<text text-anchor="start" x="776.07" y="-84.5" font-family="Helvetica,sans-Serif" font-size="10.00">+ Clear()</text>
<text text-anchor="start" x="776.07" y="-73.5" font-family="Helvetica,sans-Serif" font-size="10.00">and 23 more...</text>
<text text-anchor="start" x="776.07" y="-62.5" font-family="Helvetica,sans-Serif" font-size="10.00">~ AudioDevice()</text>
<text text-anchor="start" x="776.07" y="-51.5" font-family="Helvetica,sans-Serif" font-size="10.00">~ ForwardPropertyStoreChanged()</text>
<text text-anchor="start" x="776.07" y="-40.5" font-family="Helvetica,sans-Serif" font-size="10.00">~ ForwardRemoved()</text>
<text text-anchor="start" x="776.07" y="-29.5" font-family="Helvetica,sans-Serif" font-size="10.00">~ ForwardStateChanged()</text>
<text text-anchor="start" x="776.07" y="-18.5" font-family="Helvetica,sans-Serif" font-size="10.00">~ ReloadSessions()</text>
<text text-anchor="start" x="776.07" y="-7.5" font-family="Helvetica,sans-Serif" font-size="10.00">~ GetAudioSessions()</text>
</a>
</g>
</g>
<!-- Node2 -->
<g id="node2" class="node">
<title>Node2</title>
<g id="a_node2"><a xlink:href="interface_volume_control_1_1_audio_1_1_interfaces_1_1_i_volume_control.html" target="_top" xlink:title="Represents some kind of controllable audio playback instance.">
<polygon fill="none" stroke="black" points="153.07,-744.5 153.07,-845.5 317.07,-845.5 317.07,-744.5 153.07,-744.5"/>
<text text-anchor="middle" x="235.07" y="-833.5" font-family="Helvetica,sans-Serif" font-size="10.00">IVolumeControl</text>
<polyline fill="none" stroke="black" points="153.07,-826.5 317.07,-826.5 "/>
<text text-anchor="start" x="161.07" y="-814.5" font-family="Helvetica,sans-Serif" font-size="10.00">+ PeakMeterValue</text>
<text text-anchor="start" x="161.07" y="-803.5" font-family="Helvetica,sans-Serif" font-size="10.00">+ NativeVolume</text>
<text text-anchor="start" x="161.07" y="-792.5" font-family="Helvetica,sans-Serif" font-size="10.00">+ Volume</text>
<text text-anchor="start" x="161.07" y="-781.5" font-family="Helvetica,sans-Serif" font-size="10.00">+ Muted</text>
<polyline fill="none" stroke="black" points="153.07,-774.5 317.07,-774.5 "/>
<text text-anchor="start" x="161.07" y="-762.5" font-family="Helvetica,sans-Serif" font-size="10.00">~ MakeListDisplayableControl</text>
<text text-anchor="start" x="161.07" y="-751.5" font-family="Helvetica,sans-Serif" font-size="10.00">Template()</text>
</a>
</g>
</g>
<!-- Node2&#45;&gt;Node1 -->
<g id="edge1" class="edge">
<title>Node2&#45;&gt;Node1</title>
<path fill="none" stroke="midnightblue" d="M295.04,-736.37C302.22,-727.4 308.84,-717.83 314.07,-708 349.05,-642.24 308.38,-604.6 353.07,-545 458.27,-404.71 652.82,-321.82 767.92,-282.82"/>
<polygon fill="none" stroke="midnightblue" points="292.33,-734.16 288.62,-744.09 297.71,-738.64 292.33,-734.16"/>
</g>
<!-- Node5 -->
<g id="node5" class="node">
<title>Node5</title>
<g id="a_node5"><a xlink:href="interface_volume_control_1_1_audio_1_1_interfaces_1_1_i_audio_control.html" target="_top" xlink:title="Base interface type for IDevice and IProcess/ISession.">
<polygon fill="none" stroke="black" points="164.57,-650.5 164.57,-707.5 305.57,-707.5 305.57,-650.5 164.57,-650.5"/>
<text text-anchor="middle" x="235.07" y="-695.5" font-family="Helvetica,sans-Serif" font-size="10.00">IAudioControl</text>
<polyline fill="none" stroke="black" points="164.57,-688.5 305.57,-688.5 "/>
<text text-anchor="start" x="172.57" y="-676.5" font-family="Helvetica,sans-Serif" font-size="10.00">+ AudioMeterInformation</text>
<polyline fill="none" stroke="black" points="164.57,-669.5 305.57,-669.5 "/>
<text text-anchor="middle" x="235.07" y="-657.5" font-family="Helvetica,sans-Serif" font-size="10.00"> </text>
</a>
</g>
</g>
<!-- Node2&#45;&gt;Node5 -->
<g id="edge6" class="edge">
<title>Node2&#45;&gt;Node5</title>
<path fill="none" stroke="midnightblue" d="M235.07,-734.23C235.07,-724.92 235.07,-715.71 235.07,-707.59"/>
<polygon fill="none" stroke="midnightblue" points="231.57,-734.33 235.07,-744.33 238.57,-734.33 231.57,-734.33"/>
</g>
<!-- Node3 -->
<g id="node3" class="node">
<title>Node3</title>
<g id="a_node3"><a xlink:href="interface_volume_control_1_1_core_1_1_interfaces_1_1_i_list_displayable.html" target="_top" xlink:title="Represents an object that, when it is a member of a list of similar items, can be displayed in the Li...">
<polygon fill="none" stroke="black" points="57.57,-882.5 57.57,-961.5 162.57,-961.5 162.57,-882.5 57.57,-882.5"/>
<text text-anchor="middle" x="110.07" y="-949.5" font-family="Helvetica,sans-Serif" font-size="10.00">IListDisplayable</text>
<polyline fill="none" stroke="black" points="57.57,-942.5 162.57,-942.5 "/>
<text text-anchor="start" x="65.57" y="-930.5" font-family="Helvetica,sans-Serif" font-size="10.00">+ DisplayText</text>
<text text-anchor="start" x="65.57" y="-919.5" font-family="Helvetica,sans-Serif" font-size="10.00">+ DisplayControls</text>
<text text-anchor="start" x="65.57" y="-908.5" font-family="Helvetica,sans-Serif" font-size="10.00">+ DisplayIcon</text>
<polyline fill="none" stroke="black" points="57.57,-901.5 162.57,-901.5 "/>
<text text-anchor="middle" x="110.07" y="-889.5" font-family="Helvetica,sans-Serif" font-size="10.00"> </text>
</a>
</g>
</g>
<!-- Node3&#45;&gt;Node1 -->
<g id="edge3" class="edge">
<title>Node3&#45;&gt;Node1</title>
<path fill="none" stroke="midnightblue" d="M78.53,-873.74C52.77,-832.11 18.36,-768.81 4.07,-708 -16.34,-621.19 45.16,-591.79 121.07,-545 336.46,-412.24 623.07,-320.98 767.91,-280"/>
<polygon fill="none" stroke="midnightblue" points="75.61,-875.67 83.88,-882.28 81.54,-871.95 75.61,-875.67"/>
</g>
<!-- Node3&#45;&gt;Node2 -->
<g id="edge2" class="edge">
<title>Node3&#45;&gt;Node2</title>
<path fill="none" stroke="midnightblue" d="M155.82,-875.25C165.44,-865.63 175.62,-855.44 185.38,-845.69"/>
<polygon fill="none" stroke="midnightblue" points="153.19,-872.93 148.59,-882.48 158.14,-877.88 153.19,-872.93"/>
</g>
<!-- Node4 -->
<g id="node4" class="node">
<title>Node4</title>
<g id="a_node4"><a xlink:href="interface_volume_control_1_1_audio_1_1_interfaces_1_1_i_device.html" target="_top" xlink:title="Represents an audio device.">
<polygon fill="none" stroke="black" points="199.07,-545.5 199.07,-613.5 271.07,-613.5 271.07,-545.5 199.07,-545.5"/>
<text text-anchor="middle" x="235.07" y="-601.5" font-family="Helvetica,sans-Serif" font-size="10.00">IDevice</text>
<polyline fill="none" stroke="black" points="199.07,-594.5 271.07,-594.5 "/>
<text text-anchor="start" x="207.07" y="-582.5" font-family="Helvetica,sans-Serif" font-size="10.00">+ Name</text>
<text text-anchor="start" x="207.07" y="-571.5" font-family="Helvetica,sans-Serif" font-size="10.00">+ DeviceID</text>
<polyline fill="none" stroke="black" points="199.07,-564.5 271.07,-564.5 "/>
<text text-anchor="middle" x="235.07" y="-552.5" font-family="Helvetica,sans-Serif" font-size="10.00"> </text>
</a>
</g>
</g>
<!-- Node4&#45;&gt;Node1 -->
<g id="edge4" class="edge">
<title>Node4&#45;&gt;Node1</title>
<path fill="none" stroke="midnightblue" d="M280.5,-555.02C382.6,-502.26 631.89,-373.42 767.88,-303.14"/>
<polygon fill="none" stroke="midnightblue" points="278.65,-552.04 271.37,-559.74 281.86,-558.26 278.65,-552.04"/>
</g>
<!-- Node5&#45;&gt;Node4 -->
<g id="edge5" class="edge">
<title>Node5&#45;&gt;Node4</title>
<path fill="none" stroke="midnightblue" d="M235.07,-640.06C235.07,-631.39 235.07,-622.24 235.07,-613.79"/>
<polygon fill="none" stroke="midnightblue" points="231.57,-640.32 235.07,-650.32 238.57,-640.32 231.57,-640.32"/>
</g>
<!-- Node6 -->
<g id="node6" class="node">
<title>Node6</title>
<g id="a_node6"><a xlink:title=" ">
<polygon fill="none" stroke="#bfbfbf" points="13.57,-650.5 13.57,-707.5 146.57,-707.5 146.57,-650.5 13.57,-650.5"/>
<text text-anchor="middle" x="80.07" y="-695.5" font-family="Helvetica,sans-Serif" font-size="10.00">INotifyPropertyChanged</text>
<polyline fill="none" stroke="#bfbfbf" points="13.57,-688.5 146.57,-688.5 "/>
<text text-anchor="middle" x="80.07" y="-676.5" font-family="Helvetica,sans-Serif" font-size="10.00"> </text>
<polyline fill="none" stroke="#bfbfbf" points="13.57,-669.5 146.57,-669.5 "/>
<text text-anchor="middle" x="80.07" y="-657.5" font-family="Helvetica,sans-Serif" font-size="10.00"> </text>
</a>
</g>
</g>
<!-- Node6&#45;&gt;Node1 -->
<g id="edge21" class="edge">
<title>Node6&#45;&gt;Node1</title>
<path fill="none" stroke="midnightblue" d="M102.83,-641.92C122.84,-612.6 154.3,-571.85 190.07,-545 373.25,-407.52 631.76,-319.86 767.91,-280.2"/>
<polygon fill="none" stroke="midnightblue" points="99.91,-639.99 97.25,-650.24 105.73,-643.89 99.91,-639.99"/>
</g>
<!-- Node6&#45;&gt;Node4 -->
<g id="edge7" class="edge">
<title>Node6&#45;&gt;Node4</title>
<path fill="none" stroke="midnightblue" d="M132.6,-644.95C154.47,-631.2 179.31,-615.57 199.05,-603.15"/>
<polygon fill="none" stroke="midnightblue" points="130.67,-642.03 124.07,-650.32 134.4,-647.96 130.67,-642.03"/>
</g>
<!-- Node7 -->
<g id="node7" class="node">
<title>Node7</title>
<g id="a_node7"><a xlink:title=" ">
<polygon fill="none" stroke="#bfbfbf" points="362.07,-551 362.07,-608 436.07,-608 436.07,-551 362.07,-551"/>
<text text-anchor="middle" x="399.07" y="-596" font-family="Helvetica,sans-Serif" font-size="10.00">IDisposable</text>
<polyline fill="none" stroke="#bfbfbf" points="362.07,-589 436.07,-589 "/>
<text text-anchor="middle" x="399.07" y="-577" font-family="Helvetica,sans-Serif" font-size="10.00"> </text>
<polyline fill="none" stroke="#bfbfbf" points="362.07,-570 436.07,-570 "/>
<text text-anchor="middle" x="399.07" y="-558" font-family="Helvetica,sans-Serif" font-size="10.00"> </text>
</a>
</g>
</g>
<!-- Node7&#45;&gt;Node1 -->
<g id="edge8" class="edge">
<title>Node7&#45;&gt;Node1</title>
<path fill="none" stroke="midnightblue" d="M444.52,-545.39C444.71,-545.26 444.89,-545.13 445.07,-545 555.41,-466.35 683.45,-377.37 767.8,-319.07"/>
<polygon fill="none" stroke="midnightblue" points="442.26,-542.7 436.18,-551.37 446.34,-548.39 442.26,-542.7"/>
</g>
<!-- Node8 -->
<g id="node8" class="node">
<title>Node8</title>
<g id="a_node8"><a xlink:title=" ">
<polygon fill="none" stroke="#bfbfbf" points="454.07,-551 454.07,-608 606.07,-608 606.07,-551 454.07,-551"/>
<text text-anchor="middle" x="530.07" y="-596" font-family="Helvetica,sans-Serif" font-size="10.00">IEquatable&lt; AudioDevice &gt;</text>
<polyline fill="none" stroke="#bfbfbf" points="454.07,-589 606.07,-589 "/>
<text text-anchor="middle" x="530.07" y="-577" font-family="Helvetica,sans-Serif" font-size="10.00"> </text>
<polyline fill="none" stroke="#bfbfbf" points="454.07,-570 606.07,-570 "/>
<text text-anchor="middle" x="530.07" y="-558" font-family="Helvetica,sans-Serif" font-size="10.00"> </text>
</a>
</g>
</g>
<!-- Node8&#45;&gt;Node1 -->
<g id="edge9" class="edge">
<title>Node8&#45;&gt;Node1</title>
<path fill="none" stroke="midnightblue" d="M565.55,-543.77C613.49,-496.85 700.67,-411.52 767.78,-345.83"/>
<polygon fill="none" stroke="midnightblue" points="562.9,-541.47 558.2,-550.96 567.8,-546.47 562.9,-541.47"/>
</g>
<!-- Node9 -->
<g id="node9" class="node">
<title>Node9</title>
<g id="a_node9"><a xlink:title=" ">
<polygon fill="none" stroke="#bfbfbf" points="624.07,-551 624.07,-608 752.07,-608 752.07,-551 624.07,-551"/>
<text text-anchor="middle" x="688.07" y="-596" font-family="Helvetica,sans-Serif" font-size="10.00">IEquatable&lt; IDevice &gt;</text>
<polyline fill="none" stroke="#bfbfbf" points="624.07,-589 752.07,-589 "/>
<text text-anchor="middle" x="688.07" y="-577" font-family="Helvetica,sans-Serif" font-size="10.00"> </text>
<polyline fill="none" stroke="#bfbfbf" points="624.07,-570 752.07,-570 "/>
<text text-anchor="middle" x="688.07" y="-558" font-family="Helvetica,sans-Serif" font-size="10.00"> </text>
</a>
</g>
</g>
<!-- Node9&#45;&gt;Node1 -->
<g id="edge10" class="edge">
<title>Node9&#45;&gt;Node1</title>
<path fill="none" stroke="midnightblue" d="M707.6,-541.82C722.79,-513.3 745.05,-471.48 767.9,-428.58"/>
<polygon fill="none" stroke="midnightblue" points="704.34,-540.49 702.73,-550.96 710.52,-543.78 704.34,-540.49"/>
</g>
<!-- Node10 -->
<g id="node10" class="node">
<title>Node10</title>
<g id="a_node10"><a xlink:title=" ">
<polygon fill="none" stroke="#bfbfbf" points="770.57,-551 770.57,-608 807.57,-608 807.57,-551 770.57,-551"/>
<text text-anchor="middle" x="789.07" y="-596" font-family="Helvetica,sans-Serif" font-size="10.00">IList</text>
<polyline fill="none" stroke="#bfbfbf" points="770.57,-589 807.57,-589 "/>
<text text-anchor="middle" x="789.07" y="-577" font-family="Helvetica,sans-Serif" font-size="10.00"> </text>
<polyline fill="none" stroke="#bfbfbf" points="770.57,-570 807.57,-570 "/>
<text text-anchor="middle" x="789.07" y="-558" font-family="Helvetica,sans-Serif" font-size="10.00"> </text>
</a>
</g>
</g>
<!-- Node10&#45;&gt;Node1 -->
<g id="edge11" class="edge">
<title>Node10&#45;&gt;Node1</title>
<path fill="none" stroke="midnightblue" d="M797.33,-540.93C799.4,-531.49 801.79,-520.63 804.39,-508.79"/>
<polygon fill="none" stroke="midnightblue" points="793.85,-540.44 795.12,-550.96 800.69,-541.95 793.85,-540.44"/>
</g>
<!-- Node11 -->
<g id="node11" class="node">
<title>Node11</title>
<g id="a_node11"><a xlink:title=" ">
<polygon fill="none" stroke="#bfbfbf" points="826.07,-551 826.07,-608 894.07,-608 894.07,-551 826.07,-551"/>
<text text-anchor="middle" x="860.07" y="-596" font-family="Helvetica,sans-Serif" font-size="10.00">ICollection</text>
<polyline fill="none" stroke="#bfbfbf" points="826.07,-589 894.07,-589 "/>
<text text-anchor="middle" x="860.07" y="-577" font-family="Helvetica,sans-Serif" font-size="10.00"> </text>
<polyline fill="none" stroke="#bfbfbf" points="826.07,-570 894.07,-570 "/>
<text text-anchor="middle" x="860.07" y="-558" font-family="Helvetica,sans-Serif" font-size="10.00"> </text>
</a>
</g>
</g>
<!-- Node11&#45;&gt;Node1 -->
<g id="edge12" class="edge">
<title>Node11&#45;&gt;Node1</title>
<path fill="none" stroke="midnightblue" d="M860.07,-540.93C860.07,-531.49 860.07,-520.63 860.07,-508.79"/>
<polygon fill="none" stroke="midnightblue" points="856.57,-540.96 860.07,-550.96 863.57,-540.96 856.57,-540.96"/>
</g>
<!-- Node12 -->
<g id="node12" class="node">
<title>Node12</title>
<g id="a_node12"><a xlink:title=" ">
<polygon fill="none" stroke="#bfbfbf" points="912.07,-551 912.07,-608 990.07,-608 990.07,-551 912.07,-551"/>
<text text-anchor="middle" x="951.07" y="-596" font-family="Helvetica,sans-Serif" font-size="10.00">IEnumerable</text>
<polyline fill="none" stroke="#bfbfbf" points="912.07,-589 990.07,-589 "/>
<text text-anchor="middle" x="951.07" y="-577" font-family="Helvetica,sans-Serif" font-size="10.00"> </text>
<polyline fill="none" stroke="#bfbfbf" points="912.07,-570 990.07,-570 "/>
<text text-anchor="middle" x="951.07" y="-558" font-family="Helvetica,sans-Serif" font-size="10.00"> </text>
</a>
</g>
</g>
<!-- Node12&#45;&gt;Node1 -->
<g id="edge13" class="edge">
<title>Node12&#45;&gt;Node1</title>
<path fill="none" stroke="midnightblue" d="M940.57,-541.23C937.89,-531.72 934.8,-520.76 931.43,-508.79"/>
<polygon fill="none" stroke="midnightblue" points="937.23,-542.29 943.31,-550.96 943.97,-540.39 937.23,-542.29"/>
</g>
<!-- Node13 -->
<g id="node13" class="node">
<title>Node13</title>
<g id="a_node13"><a xlink:title=" ">
<polygon fill="none" stroke="#bfbfbf" points="1008.57,-551 1008.57,-608 1133.57,-608 1133.57,-551 1008.57,-551"/>
<text text-anchor="middle" x="1071.07" y="-596" font-family="Helvetica,sans-Serif" font-size="10.00">IList&lt; AudioSession &gt;</text>
<polyline fill="none" stroke="#bfbfbf" points="1008.57,-589 1133.57,-589 "/>
<text text-anchor="middle" x="1071.07" y="-577" font-family="Helvetica,sans-Serif" font-size="10.00"> </text>
<polyline fill="none" stroke="#bfbfbf" points="1008.57,-570 1133.57,-570 "/>
<text text-anchor="middle" x="1071.07" y="-558" font-family="Helvetica,sans-Serif" font-size="10.00"> </text>
</a>
</g>
</g>
<!-- Node13&#45;&gt;Node1 -->
<g id="edge14" class="edge">
<title>Node13&#45;&gt;Node1</title>
<path fill="none" stroke="midnightblue" d="M1047.47,-542.38C1024.21,-506.77 987.16,-450.06 952.12,-396.42"/>
<polygon fill="none" stroke="midnightblue" points="1044.68,-544.5 1053.08,-550.96 1050.54,-540.68 1044.68,-544.5"/>
</g>
<!-- Node14 -->
<g id="node14" class="node">
<title>Node14</title>
<g id="a_node14"><a xlink:title=" ">
<polygon fill="none" stroke="#bfbfbf" points="1152.07,-551 1152.07,-608 1330.07,-608 1330.07,-551 1152.07,-551"/>
<text text-anchor="middle" x="1241.07" y="-596" font-family="Helvetica,sans-Serif" font-size="10.00">IImmutableList&lt; AudioSession &gt;</text>
<polyline fill="none" stroke="#bfbfbf" points="1152.07,-589 1330.07,-589 "/>
<text text-anchor="middle" x="1241.07" y="-577" font-family="Helvetica,sans-Serif" font-size="10.00"> </text>
<polyline fill="none" stroke="#bfbfbf" points="1152.07,-570 1330.07,-570 "/>
<text text-anchor="middle" x="1241.07" y="-558" font-family="Helvetica,sans-Serif" font-size="10.00"> </text>
</a>
</g>
</g>
<!-- Node14&#45;&gt;Node1 -->
<g id="edge15" class="edge">
<title>Node14&#45;&gt;Node1</title>
<path fill="none" stroke="midnightblue" d="M1200.66,-544.24C1141.98,-494.5 1031.58,-400.9 952.36,-333.74"/>
<polygon fill="none" stroke="midnightblue" points="1198.69,-547.16 1208.58,-550.96 1203.22,-541.82 1198.69,-547.16"/>
</g>
<!-- Node15 -->
<g id="node15" class="node">
<title>Node15</title>
<g id="a_node15"><a xlink:title=" ">
<polygon fill="none" stroke="#bfbfbf" points="1348.07,-551 1348.07,-608 1504.07,-608 1504.07,-551 1348.07,-551"/>
<text text-anchor="middle" x="1426.07" y="-596" font-family="Helvetica,sans-Serif" font-size="10.00">ICollection&lt; AudioSession &gt;</text>
<polyline fill="none" stroke="#bfbfbf" points="1348.07,-589 1504.07,-589 "/>
<text text-anchor="middle" x="1426.07" y="-577" font-family="Helvetica,sans-Serif" font-size="10.00"> </text>
<polyline fill="none" stroke="#bfbfbf" points="1348.07,-570 1504.07,-570 "/>
<text text-anchor="middle" x="1426.07" y="-558" font-family="Helvetica,sans-Serif" font-size="10.00"> </text>
</a>
</g>
</g>
<!-- Node15&#45;&gt;Node1 -->
<g id="edge16" class="edge">
<title>Node15&#45;&gt;Node1</title>
<path fill="none" stroke="midnightblue" d="M1368.95,-545.9C1271.03,-490.02 1070.3,-375.47 952.32,-308.15"/>
<polygon fill="none" stroke="midnightblue" points="1367.39,-549.04 1377.81,-550.96 1370.86,-542.96 1367.39,-549.04"/>
</g>
<!-- Node16 -->
<g id="node16" class="node">
<title>Node16</title>
<g id="a_node16"><a xlink:title=" ">
<polygon fill="none" stroke="#bfbfbf" points="1522.07,-551 1522.07,-608 1688.07,-608 1688.07,-551 1522.07,-551"/>
<text text-anchor="middle" x="1605.07" y="-596" font-family="Helvetica,sans-Serif" font-size="10.00">IEnumerable&lt; AudioSession &gt;</text>
<polyline fill="none" stroke="#bfbfbf" points="1522.07,-589 1688.07,-589 "/>
<text text-anchor="middle" x="1605.07" y="-577" font-family="Helvetica,sans-Serif" font-size="10.00"> </text>
<polyline fill="none" stroke="#bfbfbf" points="1522.07,-570 1688.07,-570 "/>
<text text-anchor="middle" x="1605.07" y="-558" font-family="Helvetica,sans-Serif" font-size="10.00"> </text>
</a>
</g>
</g>
<!-- Node16&#45;&gt;Node1 -->
<g id="edge17" class="edge">
<title>Node16&#45;&gt;Node1</title>
<path fill="none" stroke="midnightblue" d="M1532,-546.82C1395.52,-487.65 1102.17,-360.46 952.3,-295.49"/>
<polygon fill="none" stroke="midnightblue" points="1530.98,-550.19 1541.55,-550.96 1533.77,-543.77 1530.98,-550.19"/>
</g>
<!-- Node17 -->
<g id="node17" class="node">
<title>Node17</title>
<g id="a_node17"><a xlink:title=" ">
<polygon fill="none" stroke="#bfbfbf" points="1706.07,-551 1706.07,-608 1878.07,-608 1878.07,-551 1706.07,-551"/>
<text text-anchor="middle" x="1792.07" y="-596" font-family="Helvetica,sans-Serif" font-size="10.00">IReadOnlyList&lt; AudioSession &gt;</text>
<polyline fill="none" stroke="#bfbfbf" points="1706.07,-589 1878.07,-589 "/>
<text text-anchor="middle" x="1792.07" y="-577" font-family="Helvetica,sans-Serif" font-size="10.00"> </text>
<polyline fill="none" stroke="#bfbfbf" points="1706.07,-570 1878.07,-570 "/>
<text text-anchor="middle" x="1792.07" y="-558" font-family="Helvetica,sans-Serif" font-size="10.00"> </text>
</a>
</g>
</g>
<!-- Node17&#45;&gt;Node1 -->
<g id="edge18" class="edge">
<title>Node17&#45;&gt;Node1</title>
<path fill="none" stroke="midnightblue" d="M1704.42,-547.57C1701.94,-546.7 1699.49,-545.85 1697.07,-545 1426.53,-450.51 1106.28,-340.16 952.09,-287.13"/>
<polygon fill="none" stroke="midnightblue" points="1703.46,-550.94 1714.06,-550.95 1705.78,-544.34 1703.46,-550.94"/>
</g>
<!-- Node18 -->
<g id="node18" class="node">
<title>Node18</title>
<g id="a_node18"><a xlink:title=" ">
<polygon fill="none" stroke="#bfbfbf" points="1896.07,-545.5 1896.07,-613.5 2012.07,-613.5 2012.07,-545.5 1896.07,-545.5"/>
<text text-anchor="start" x="1904.07" y="-601.5" font-family="Helvetica,sans-Serif" font-size="10.00">IReadOnlyCollection</text>
<text text-anchor="middle" x="1954.07" y="-590.5" font-family="Helvetica,sans-Serif" font-size="10.00">&lt; AudioSession &gt;</text>
<polyline fill="none" stroke="#bfbfbf" points="1896.07,-583.5 2012.07,-583.5 "/>
<text text-anchor="middle" x="1954.07" y="-571.5" font-family="Helvetica,sans-Serif" font-size="10.00"> </text>
<polyline fill="none" stroke="#bfbfbf" points="1896.07,-564.5 2012.07,-564.5 "/>
<text text-anchor="middle" x="1954.07" y="-552.5" font-family="Helvetica,sans-Serif" font-size="10.00"> </text>
</a>
</g>
</g>
<!-- Node18&#45;&gt;Node1 -->
<g id="edge19" class="edge">
<title>Node18&#45;&gt;Node1</title>
<path fill="none" stroke="midnightblue" d="M1886.55,-545C1544.17,-413.43 1132.76,-315.43 952.28,-275.32"/>
<polygon fill="none" stroke="midnightblue" points="1885.31,-548.27 1895.9,-548.6 1887.83,-541.74 1885.31,-548.27"/>
</g>
<!-- Node19 -->
<g id="node19" class="node">
<title>Node19</title>
<g id="a_node19"><a xlink:title=" ">
<polygon fill="none" stroke="#bfbfbf" points="2030.07,-551 2030.07,-608 2170.07,-608 2170.07,-551 2030.07,-551"/>
<text text-anchor="middle" x="2100.07" y="-596" font-family="Helvetica,sans-Serif" font-size="10.00">INotifyCollectionChanged</text>
<polyline fill="none" stroke="#bfbfbf" points="2030.07,-589 2170.07,-589 "/>
<text text-anchor="middle" x="2100.07" y="-577" font-family="Helvetica,sans-Serif" font-size="10.00"> </text>
<polyline fill="none" stroke="#bfbfbf" points="2030.07,-570 2170.07,-570 "/>
<text text-anchor="middle" x="2100.07" y="-558" font-family="Helvetica,sans-Serif" font-size="10.00"> </text>
</a>
</g>
</g>
<!-- Node19&#45;&gt;Node1 -->
<g id="edge20" class="edge">
<title>Node19&#45;&gt;Node1</title>
<path fill="none" stroke="midnightblue" d="M2027.93,-547.37C2025.62,-546.55 2023.33,-545.76 2021.07,-545 1631.23,-414.64 1150.4,-312.84 952.16,-273.33"/>
<polygon fill="none" stroke="midnightblue" points="2026.86,-550.71 2037.45,-550.9 2029.29,-544.15 2026.86,-550.71"/>
</g>
</g>
</svg>
        <g id="navigator" transform="translate(0 0)" fill="#404254">
                <rect fill="#f2f5e9" fill-opacity="0.5" stroke="#606060" stroke-width=".5" x="0" y="0" width="60" height="60"/>
                <use id="zoomplus" xlink:href="#zoomPlus" x="17" y="9" onmousedown="handleZoom(evt,'in')"/>
                <use id="zoomminus" xlink:href="#zoomMin" x="42" y="9" onmousedown="handleZoom(evt,'out')"/>
                <use id="reset" xlink:href="#resetDef" x="30" y="36" onmousedown="handleReset()"/>
                <g id="arrowUp" xlink:href="#dirArrow" transform="translate(30 24)" onmousedown="handlePan(0,-1)">
                  <use xlink:href="#rim" fill="#404040">
                        <set attributeName="fill" to="#808080" begin="arrowUp.mouseover" end="arrowUp.mouseout"/>
                  </use>
                  <path fill="none" stroke="white" stroke-width="1.5" d="M0,-3.0v7 M-2.5,-0.5L0,-3.0L2.5,-0.5"/>
                </g>
                <g id="arrowRight" xlink:href="#dirArrow" transform="rotate(90) translate(36 -43)" onmousedown="handlePan(1,0)">
                  <use xlink:href="#rim" fill="#404040">
                        <set attributeName="fill" to="#808080" begin="arrowRight.mouseover" end="arrowRight.mouseout"/>
                  </use>
                  <path fill="none" stroke="white" stroke-width="1.5" d="M0,-3.0v7 M-2.5,-0.5L0,-3.0L2.5,-0.5"/>
                </g>
                <g id="arrowDown" xlink:href="#dirArrow" transform="rotate(180) translate(-30 -48)" onmousedown="handlePan(0,1)">
                  <use xlink:href="#rim" fill="#404040">
                        <set attributeName="fill" to="#808080" begin="arrowDown.mouseover" end="arrowDown.mouseout"/>
                  </use>
                  <path fill="none" stroke="white" stroke-width="1.5" d="M0,-3.0v7 M-2.5,-0.5L0,-3.0L2.5,-0.5"/>
                </g>
                <g id="arrowLeft" xlink:href="#dirArrow" transform="rotate(270) translate(-36 17)" onmousedown="handlePan(-1,0)">
                  <use xlink:href="#rim" fill="#404040">
                        <set attributeName="fill" to="#808080" begin="arrowLeft.mouseover" end="arrowLeft.mouseout"/>
                  </use>
                  <path fill="none" stroke="white" stroke-width="1.5" d="M0,-3.0v7 M-2.5,-0.5L0,-3.0L2.5,-0.5"/>
                </g>
        </g>
        <svg viewBox="0 0 15 15" width="100%" height="30px" preserveAspectRatio="xMaxYMin meet">
         <g id="arrow_out" transform="scale(0.3 0.3)">
          <a xlink:href="class_volume_control_1_1_audio_1_1_audio_device__inherit__graph_org.svg" target="_base">
           <rect id="button" ry="5" rx="5" y="6" x="6" height="38" width="38"
                fill="#f2f5e9" fill-opacity="0.5" stroke="#606060" stroke-width="1.0"/>
           <path id="arrow"
             d="M 11.500037,31.436501 C 11.940474,20.09759 22.043105,11.32322 32.158766,21.979434 L 37.068811,17.246167 C 37.068811,17.246167 37.088388,32 37.088388,32 L 22.160133,31.978069 C 22.160133,31.978069 26.997745,27.140456 26.997745,27.140456 C 18.528582,18.264221 13.291696,25.230495 11.500037,31.436501 z"
             style="fill:#404040;"/>
          </a>
         </g>
        </svg>
</svg>
