<?xml version="1.0" encoding="UTF-8" standalone="no"?>
<!DOCTYPE svg PUBLIC "-//W3C//DTD SVG 1.1//EN"
 "http://www.w3.org/Graphics/SVG/1.1/DTD/svg11.dtd">
<!-- Generated by graphviz version 2.43.0 (0)
 -->
<!-- Title: ObservableImmutable.ObservableCollectionObject Pages: 1 -->
<svg width="300pt" height="292pt"
 viewBox="0.00 0.00 299.50 292.00" xmlns="http://www.w3.org/2000/svg" xmlns:xlink="http://www.w3.org/1999/xlink">
<g id="graph0" class="graph" transform="scale(1 1) rotate(0) translate(4 288)">
<title>ObservableImmutable.ObservableCollectionObject</title>
<!-- Node1 -->
<g id="node1" class="node">
<title>Node1</title>
<g id="a_node1"><a xlink:title=" ">
<polygon fill="#bfbfbf" stroke="black" points="55,-0.5 55,-189.5 239,-189.5 239,-0.5 55,-0.5"/>
<text text-anchor="start" x="63" y="-177.5" font-family="Helvetica,sans-Serif" font-size="10.00">ObservableImmutable.Observable</text>
<text text-anchor="middle" x="147" y="-166.5" font-family="Helvetica,sans-Serif" font-size="10.00">CollectionObject</text>
<polyline fill="none" stroke="black" points="55,-159.5 239,-159.5 "/>
<text text-anchor="start" x="63" y="-147.5" font-family="Helvetica,sans-Serif" font-size="10.00">+ LockType</text>
<polyline fill="none" stroke="black" points="55,-140.5 239,-140.5 "/>
<text text-anchor="start" x="63" y="-128.5" font-family="Helvetica,sans-Serif" font-size="10.00">+ DoEvents()</text>
<text text-anchor="start" x="63" y="-117.5" font-family="Helvetica,sans-Serif" font-size="10.00">+ RaisePropertyChanged()</text>
<text text-anchor="start" x="63" y="-106.5" font-family="Helvetica,sans-Serif" font-size="10.00"># ObservableCollectionObject()</text>
<text text-anchor="start" x="63" y="-95.5" font-family="Helvetica,sans-Serif" font-size="10.00"># GetDispatcher()</text>
<text text-anchor="start" x="63" y="-84.5" font-family="Helvetica,sans-Serif" font-size="10.00"># WaitForCondition()</text>
<text text-anchor="start" x="63" y="-73.5" font-family="Helvetica,sans-Serif" font-size="10.00"># PumpWait_PumpUntil()</text>
<text text-anchor="start" x="63" y="-62.5" font-family="Helvetica,sans-Serif" font-size="10.00"># TryLock()</text>
<text text-anchor="start" x="63" y="-51.5" font-family="Helvetica,sans-Serif" font-size="10.00"># Lock()</text>
<text text-anchor="start" x="63" y="-40.5" font-family="Helvetica,sans-Serif" font-size="10.00"># Unlock()</text>
<text text-anchor="start" x="63" y="-29.5" font-family="Helvetica,sans-Serif" font-size="10.00"># OnCollectionChanged()</text>
<text text-anchor="start" x="63" y="-18.5" font-family="Helvetica,sans-Serif" font-size="10.00"># RaiseNotifyCollectionChanged()</text>
<text text-anchor="start" x="63" y="-7.5" font-family="Helvetica,sans-Serif" font-size="10.00"># RaiseNotifyCollectionChanged()</text>
</a>
</g>
</g>
<!-- Node2 -->
<g id="node2" class="node">
<title>Node2</title>
<g id="a_node2"><a xlink:title=" ">
<polygon fill="none" stroke="#bfbfbf" points="0,-226.5 0,-283.5 140,-283.5 140,-226.5 0,-226.5"/>
<text text-anchor="middle" x="70" y="-271.5" font-family="Helvetica,sans-Serif" font-size="10.00">INotifyCollectionChanged</text>
<polyline fill="none" stroke="#bfbfbf" points="0,-264.5 140,-264.5 "/>
<text text-anchor="middle" x="70" y="-252.5" font-family="Helvetica,sans-Serif" font-size="10.00"> </text>
<polyline fill="none" stroke="#bfbfbf" points="0,-245.5 140,-245.5 "/>
<text text-anchor="middle" x="70" y="-233.5" font-family="Helvetica,sans-Serif" font-size="10.00"> </text>
</a>
</g>
</g>
<!-- Node2&#45;&gt;Node1 -->
<g id="edge1" class="edge">
<title>Node2&#45;&gt;Node1</title>
<path fill="none" stroke="midnightblue" d="M87.88,-217.32C92.02,-208.82 96.61,-199.4 101.35,-189.68"/>
<polygon fill="none" stroke="midnightblue" points="84.65,-215.96 83.41,-226.48 90.94,-219.02 84.65,-215.96"/>
</g>
<!-- Node3 -->
<g id="node3" class="node">
<title>Node3</title>
<g id="a_node3"><a xlink:title=" ">
<polygon fill="none" stroke="#bfbfbf" points="158.5,-226.5 158.5,-283.5 291.5,-283.5 291.5,-226.5 158.5,-226.5"/>
<text text-anchor="middle" x="225" y="-271.5" font-family="Helvetica,sans-Serif" font-size="10.00">INotifyPropertyChanged</text>
<polyline fill="none" stroke="#bfbfbf" points="158.5,-264.5 291.5,-264.5 "/>
<text text-anchor="middle" x="225" y="-252.5" font-family="Helvetica,sans-Serif" font-size="10.00"> </text>
<polyline fill="none" stroke="#bfbfbf" points="158.5,-245.5 291.5,-245.5 "/>
<text text-anchor="middle" x="225" y="-233.5" font-family="Helvetica,sans-Serif" font-size="10.00"> </text>
</a>
</g>
</g>
<!-- Node3&#45;&gt;Node1 -->
<g id="edge2" class="edge">
<title>Node3&#45;&gt;Node1</title>
<path fill="none" stroke="midnightblue" d="M206.89,-217.32C202.7,-208.82 198.05,-199.4 193.25,-189.68"/>
<polygon fill="none" stroke="midnightblue" points="203.85,-219.06 211.41,-226.48 210.13,-215.96 203.85,-219.06"/>
</g>
</g>
</svg>
