<?xml version="1.0" encoding="UTF-8" standalone="no"?>
<!DOCTYPE svg PUBLIC "-//W3C//DTD SVG 1.1//EN"
 "http://www.w3.org/Graphics/SVG/1.1/DTD/svg11.dtd">
<!-- Generated by graphviz version 2.43.0 (0)
 -->
<!-- Title: VolumeControl.Core.Input.Actions.HotkeyActionPressedEventArgs Pages: 1 -->
<svg width="217pt" height="204pt"
 viewBox="0.00 0.00 217.00 204.00" xmlns="http://www.w3.org/2000/svg" xmlns:xlink="http://www.w3.org/1999/xlink">
<g id="graph0" class="graph" transform="scale(1 1) rotate(0) translate(4 200)">
<title>VolumeControl.Core.Input.Actions.HotkeyActionPressedEventArgs</title>
<!-- Node1 -->
<g id="node1" class="node">
<title>Node1</title>
<g id="a_node1"><a xlink:title="Event arguments for the IHotkeyAction.HandleKeyEvent(object?, HotkeyActionPressedEventArgs) handler m...">
<polygon fill="#bfbfbf" stroke="black" points="0,-0.5 0,-101.5 209,-101.5 209,-0.5 0,-0.5"/>
<text text-anchor="start" x="8" y="-89.5" font-family="Helvetica,sans-Serif" font-size="10.00">VolumeControl.Core.Input.</text>
<text text-anchor="middle" x="104.5" y="-78.5" font-family="Helvetica,sans-Serif" font-size="10.00">Actions.HotkeyActionPressedEventArgs</text>
<polyline fill="none" stroke="black" points="0,-71.5 209,-71.5 "/>
<text text-anchor="start" x="8" y="-59.5" font-family="Helvetica,sans-Serif" font-size="10.00">+ ActionSettings</text>
<polyline fill="none" stroke="black" points="0,-52.5 209,-52.5 "/>
<text text-anchor="start" x="8" y="-40.5" font-family="Helvetica,sans-Serif" font-size="10.00">+ HotkeyActionPressedEvent</text>
<text text-anchor="start" x="8" y="-29.5" font-family="Helvetica,sans-Serif" font-size="10.00">Args()</text>
<text text-anchor="start" x="8" y="-18.5" font-family="Helvetica,sans-Serif" font-size="10.00">+ HotkeyActionPressedEvent</text>
<text text-anchor="start" x="8" y="-7.5" font-family="Helvetica,sans-Serif" font-size="10.00">Args()</text>
</a>
</g>
</g>
<!-- Node2 -->
<g id="node2" class="node">
<title>Node2</title>
<g id="a_node2"><a xlink:title=" ">
<polygon fill="none" stroke="#bfbfbf" points="51,-138.5 51,-195.5 158,-195.5 158,-138.5 51,-138.5"/>
<text text-anchor="middle" x="104.5" y="-183.5" font-family="Helvetica,sans-Serif" font-size="10.00">HandledEventArgs</text>
<polyline fill="none" stroke="#bfbfbf" points="51,-176.5 158,-176.5 "/>
<text text-anchor="middle" x="104.5" y="-164.5" font-family="Helvetica,sans-Serif" font-size="10.00"> </text>
<polyline fill="none" stroke="#bfbfbf" points="51,-157.5 158,-157.5 "/>
<text text-anchor="middle" x="104.5" y="-145.5" font-family="Helvetica,sans-Serif" font-size="10.00"> </text>
</a>
</g>
</g>
<!-- Node2&#45;&gt;Node1 -->
<g id="edge1" class="edge">
<title>Node2&#45;&gt;Node1</title>
<path fill="none" stroke="midnightblue" d="M104.5,-128.35C104.5,-119.8 104.5,-110.58 104.5,-101.61"/>
<polygon fill="none" stroke="midnightblue" points="101,-128.4 104.5,-138.4 108,-128.4 101,-128.4"/>
</g>
</g>
</svg>
