<?xml version="1.0" encoding="UTF-8" standalone="no"?>
<!DOCTYPE svg PUBLIC "-//W3C//DTD SVG 1.1//EN"
 "http://www.w3.org/Graphics/SVG/1.1/DTD/svg11.dtd">
<!-- Generated by graphviz version 2.43.0 (0)
 -->
<!-- Title: VolumeControl.Core.Input.Hotkey Pages: 1 -->
<svg width="375pt" height="617pt"
 viewBox="0.00 0.00 374.50 617.00" xmlns="http://www.w3.org/2000/svg" xmlns:xlink="http://www.w3.org/1999/xlink">
<g id="graph0" class="graph" transform="scale(1 1) rotate(0) translate(4 613)">
<title>VolumeControl.Core.Input.Hotkey</title>
<!-- Node1 -->
<g id="node1" class="node">
<title>Node1</title>
<g id="a_node1"><a xlink:title="A hotkey that executes an action when pressed.">
<polygon fill="#bfbfbf" stroke="black" points="138,-0.5 138,-310.5 287,-310.5 287,-0.5 138,-0.5"/>
<text text-anchor="start" x="146" y="-298.5" font-family="Helvetica,sans-Serif" font-size="10.00">VolumeControl.Core.Input.</text>
<text text-anchor="middle" x="212.5" y="-287.5" font-family="Helvetica,sans-Serif" font-size="10.00">Hotkey</text>
<polyline fill="none" stroke="black" points="138,-280.5 287,-280.5 "/>
<text text-anchor="start" x="146" y="-268.5" font-family="Helvetica,sans-Serif" font-size="10.00">+ ID</text>
<text text-anchor="start" x="146" y="-257.5" font-family="Helvetica,sans-Serif" font-size="10.00">+ Name</text>
<text text-anchor="start" x="146" y="-246.5" font-family="Helvetica,sans-Serif" font-size="10.00">+ Key</text>
<text text-anchor="start" x="146" y="-235.5" font-family="Helvetica,sans-Serif" font-size="10.00">+ Modifiers</text>
<text text-anchor="start" x="146" y="-224.5" font-family="Helvetica,sans-Serif" font-size="10.00">+ Alt</text>
<text text-anchor="start" x="146" y="-213.5" font-family="Helvetica,sans-Serif" font-size="10.00">+ Shift</text>
<text text-anchor="start" x="146" y="-202.5" font-family="Helvetica,sans-Serif" font-size="10.00">+ Ctrl</text>
<text text-anchor="start" x="146" y="-191.5" font-family="Helvetica,sans-Serif" font-size="10.00">+ Win</text>
<text text-anchor="start" x="146" y="-180.5" font-family="Helvetica,sans-Serif" font-size="10.00">+ NoRepeat</text>
<text text-anchor="start" x="146" y="-169.5" font-family="Helvetica,sans-Serif" font-size="10.00">+ MessageHook</text>
<text text-anchor="start" x="146" y="-158.5" font-family="Helvetica,sans-Serif" font-size="10.00">+ IsRegistered</text>
<text text-anchor="start" x="146" y="-147.5" font-family="Helvetica,sans-Serif" font-size="10.00">+ Action</text>
<polyline fill="none" stroke="black" points="138,-140.5 287,-140.5 "/>
<text text-anchor="start" x="146" y="-128.5" font-family="Helvetica,sans-Serif" font-size="10.00">+ Hotkey()</text>
<text text-anchor="start" x="146" y="-117.5" font-family="Helvetica,sans-Serif" font-size="10.00">+ Hotkey()</text>
<text text-anchor="start" x="146" y="-106.5" font-family="Helvetica,sans-Serif" font-size="10.00">+ Hotkey()</text>
<text text-anchor="start" x="146" y="-95.5" font-family="Helvetica,sans-Serif" font-size="10.00">+ Hotkey()</text>
<text text-anchor="start" x="146" y="-84.5" font-family="Helvetica,sans-Serif" font-size="10.00">+ GetNewID()</text>
<text text-anchor="start" x="146" y="-73.5" font-family="Helvetica,sans-Serif" font-size="10.00">+ Dispose()</text>
<text text-anchor="start" x="146" y="-62.5" font-family="Helvetica,sans-Serif" font-size="10.00">~ NotifyPressed()</text>
<text text-anchor="start" x="146" y="-51.5" font-family="Helvetica,sans-Serif" font-size="10.00">~ NotifyRegistered()</text>
<text text-anchor="start" x="146" y="-40.5" font-family="Helvetica,sans-Serif" font-size="10.00">~ NotifyUnregistered()</text>
<text text-anchor="start" x="146" y="-29.5" font-family="Helvetica,sans-Serif" font-size="10.00"># NotifyPropertyChanged()</text>
<text text-anchor="start" x="146" y="-18.5" font-family="Helvetica,sans-Serif" font-size="10.00"># RegisterHotkey()</text>
<text text-anchor="start" x="146" y="-7.5" font-family="Helvetica,sans-Serif" font-size="10.00"># UnregisterHotkey()</text>
</a>
</g>
</g>
<!-- Node2 -->
<g id="node2" class="node">
<title>Node2</title>
<g id="a_node2"><a xlink:href="interface_volume_control_1_1_core_1_1_input_1_1_i_hotkey.html" target="_top" xlink:title="Represents a Win32 global hotkey.">
<polygon fill="none" stroke="black" points="168,-347.5 168,-514.5 257,-514.5 257,-347.5 168,-347.5"/>
<text text-anchor="middle" x="212.5" y="-502.5" font-family="Helvetica,sans-Serif" font-size="10.00">IHotkey</text>
<polyline fill="none" stroke="black" points="168,-495.5 257,-495.5 "/>
<text text-anchor="start" x="176" y="-483.5" font-family="Helvetica,sans-Serif" font-size="10.00">+ Name</text>
<text text-anchor="start" x="176" y="-472.5" font-family="Helvetica,sans-Serif" font-size="10.00">+ ID</text>
<text text-anchor="start" x="176" y="-461.5" font-family="Helvetica,sans-Serif" font-size="10.00">+ Key</text>
<text text-anchor="start" x="176" y="-450.5" font-family="Helvetica,sans-Serif" font-size="10.00">+ Modifiers</text>
<text text-anchor="start" x="176" y="-439.5" font-family="Helvetica,sans-Serif" font-size="10.00">+ Alt</text>
<text text-anchor="start" x="176" y="-428.5" font-family="Helvetica,sans-Serif" font-size="10.00">+ Shift</text>
<text text-anchor="start" x="176" y="-417.5" font-family="Helvetica,sans-Serif" font-size="10.00">+ Ctrl</text>
<text text-anchor="start" x="176" y="-406.5" font-family="Helvetica,sans-Serif" font-size="10.00">+ Win</text>
<text text-anchor="start" x="176" y="-395.5" font-family="Helvetica,sans-Serif" font-size="10.00">+ NoRepeat</text>
<text text-anchor="start" x="176" y="-384.5" font-family="Helvetica,sans-Serif" font-size="10.00">+ IsRegistered</text>
<text text-anchor="start" x="176" y="-373.5" font-family="Helvetica,sans-Serif" font-size="10.00">+ Action</text>
<polyline fill="none" stroke="black" points="168,-366.5 257,-366.5 "/>
<text text-anchor="middle" x="212.5" y="-354.5" font-family="Helvetica,sans-Serif" font-size="10.00"> </text>
</a>
</g>
</g>
<!-- Node2&#45;&gt;Node1 -->
<g id="edge1" class="edge">
<title>Node2&#45;&gt;Node1</title>
<path fill="none" stroke="midnightblue" d="M212.5,-337.18C212.5,-328.53 212.5,-319.62 212.5,-310.6"/>
<polygon fill="none" stroke="midnightblue" points="209,-337.2 212.5,-347.2 216,-337.2 209,-337.2"/>
</g>
<!-- Node3 -->
<g id="node3" class="node">
<title>Node3</title>
<g id="a_node3"><a xlink:href="interface_volume_control_1_1_core_1_1_input_1_1_i_hotkey_message_hook.html" target="_top" xlink:title="Represents an object that can be added to the hotkey message hook system.">
<polygon fill="none" stroke="black" points="151,-551.5 151,-608.5 274,-608.5 274,-551.5 151,-551.5"/>
<text text-anchor="middle" x="212.5" y="-596.5" font-family="Helvetica,sans-Serif" font-size="10.00">IHotkeyMessageHook</text>
<polyline fill="none" stroke="black" points="151,-589.5 274,-589.5 "/>
<text text-anchor="start" x="159" y="-577.5" font-family="Helvetica,sans-Serif" font-size="10.00">+ MessageHook</text>
<polyline fill="none" stroke="black" points="151,-570.5 274,-570.5 "/>
<text text-anchor="middle" x="212.5" y="-558.5" font-family="Helvetica,sans-Serif" font-size="10.00"> </text>
</a>
</g>
</g>
<!-- Node3&#45;&gt;Node2 -->
<g id="edge2" class="edge">
<title>Node3&#45;&gt;Node2</title>
<path fill="none" stroke="midnightblue" d="M212.5,-541.35C212.5,-533.08 212.5,-524.01 212.5,-514.74"/>
<polygon fill="none" stroke="midnightblue" points="209,-541.35 212.5,-551.35 216,-541.35 209,-541.35"/>
</g>
<!-- Node4 -->
<g id="node4" class="node">
<title>Node4</title>
<g id="a_node4"><a xlink:title=" ">
<polygon fill="none" stroke="#bfbfbf" points="0,-551.5 0,-608.5 133,-608.5 133,-551.5 0,-551.5"/>
<text text-anchor="middle" x="66.5" y="-596.5" font-family="Helvetica,sans-Serif" font-size="10.00">INotifyPropertyChanged</text>
<polyline fill="none" stroke="#bfbfbf" points="0,-589.5 133,-589.5 "/>
<text text-anchor="middle" x="66.5" y="-577.5" font-family="Helvetica,sans-Serif" font-size="10.00"> </text>
<polyline fill="none" stroke="#bfbfbf" points="0,-570.5 133,-570.5 "/>
<text text-anchor="middle" x="66.5" y="-558.5" font-family="Helvetica,sans-Serif" font-size="10.00"> </text>
</a>
</g>
</g>
<!-- Node4&#45;&gt;Node1 -->
<g id="edge5" class="edge">
<title>Node4&#45;&gt;Node1</title>
<path fill="none" stroke="midnightblue" d="M79.44,-541.56C97.28,-489.94 130.49,-393.82 159.27,-310.53"/>
<polygon fill="none" stroke="midnightblue" points="76.04,-540.68 76.08,-551.28 82.65,-542.97 76.04,-540.68"/>
</g>
<!-- Node4&#45;&gt;Node2 -->
<g id="edge3" class="edge">
<title>Node4&#45;&gt;Node2</title>
<path fill="none" stroke="midnightblue" d="M101.07,-544.19C121.07,-524.05 146.46,-498.5 167.95,-476.86"/>
<polygon fill="none" stroke="midnightblue" points="98.53,-541.79 93.96,-551.35 103.49,-546.72 98.53,-541.79"/>
</g>
<!-- Node5 -->
<g id="node5" class="node">
<title>Node5</title>
<g id="a_node5"><a xlink:title=" ">
<polygon fill="none" stroke="#bfbfbf" points="292.5,-551.5 292.5,-608.5 366.5,-608.5 366.5,-551.5 292.5,-551.5"/>
<text text-anchor="middle" x="329.5" y="-596.5" font-family="Helvetica,sans-Serif" font-size="10.00">IDisposable</text>
<polyline fill="none" stroke="#bfbfbf" points="292.5,-589.5 366.5,-589.5 "/>
<text text-anchor="middle" x="329.5" y="-577.5" font-family="Helvetica,sans-Serif" font-size="10.00"> </text>
<polyline fill="none" stroke="#bfbfbf" points="292.5,-570.5 366.5,-570.5 "/>
<text text-anchor="middle" x="329.5" y="-558.5" font-family="Helvetica,sans-Serif" font-size="10.00"> </text>
</a>
</g>
</g>
<!-- Node5&#45;&gt;Node1 -->
<g id="edge6" class="edge">
<title>Node5&#45;&gt;Node1</title>
<path fill="none" stroke="midnightblue" d="M319.24,-541.7C306.62,-495.86 284.53,-415.69 265.5,-347 262.22,-335.17 258.83,-322.93 255.41,-310.63"/>
<polygon fill="none" stroke="midnightblue" points="315.91,-542.78 321.93,-551.5 322.65,-540.93 315.91,-542.78"/>
</g>
<!-- Node5&#45;&gt;Node2 -->
<g id="edge4" class="edge">
<title>Node5&#45;&gt;Node2</title>
<path fill="none" stroke="midnightblue" d="M301.25,-543.51C288.04,-526.91 271.99,-506.74 257.18,-488.14"/>
<polygon fill="none" stroke="midnightblue" points="298.53,-545.71 307.49,-551.35 304,-541.35 298.53,-545.71"/>
</g>
</g>
</svg>
