<?xml version="1.0" encoding="UTF-8" standalone="no"?>
<!DOCTYPE svg PUBLIC "-//W3C//DTD SVG 1.1//EN"
 "http://www.w3.org/Graphics/SVG/1.1/DTD/svg11.dtd">
<!-- Generated by graphviz version 2.43.0 (0)
 -->
<!-- Title: ObservableImmutable.ObservableImmutableList&lt; T &gt; Pages: 1 -->
<!--zoomable 562 -->
<svg id="main" version="1.1" xmlns="http://www.w3.org/2000/svg" xmlns:xlink="http://www.w3.org/1999/xlink" xml:space="preserve" onload="init(evt)">
<style type="text/css"><![CDATA[
.edge:hover path { stroke: red; }
.edge:hover polygon { stroke: red; fill: red; }
]]></style>
<script type="text/javascript"><![CDATA[
var edges = document.getElementsByTagName('g');
if (edges && edges.length) {
  for (var i=0;i<edges.length;i++) {
    if (edges[i].id.substr(0,4)=='edge') {
      edges[i].setAttribute('class','edge');
    }
  }
}
]]></script>
        <defs>
                <circle id="rim" cx="0" cy="0" r="7"/>
                <circle id="rim2" cx="0" cy="0" r="3.5"/>
                <g id="zoomPlus">
                        <use xlink:href="#rim" fill="#404040">
                                <set attributeName="fill" to="#808080" begin="zoomplus.mouseover" end="zoomplus.mouseout"/>
                        </use>
                        <path d="M-4,0h8M0,-4v8" fill="none" stroke="white" stroke-width="1.5" pointer-events="none"/>
                </g>
                <g id="zoomMin">
                        <use xlink:href="#rim" fill="#404040">
                                <set attributeName="fill" to="#808080" begin="zoomminus.mouseover" end="zoomminus.mouseout"/>
                        </use>
                        <path d="M-4,0h8" fill="none" stroke="white" stroke-width="1.5" pointer-events="none"/>
                </g>
                <g id="dirArrow">
                        <path fill="none" stroke="white" stroke-width="1.5" d="M0,-3.0v7 M-2.5,-0.5L0,-3.0L2.5,-0.5"/>
                </g>
               <g id="resetDef">
                       <use xlink:href="#rim2" fill="#404040">
                               <set attributeName="fill" to="#808080" begin="reset.mouseover" end="reset.mouseout"/>
                       </use>
               </g>
        </defs>

<script type="text/javascript">
var viewWidth = 1278;
var viewHeight = 562;
var sectionId = 'dynsection-1';
</script>
<script xlink:href="svgpan.js"/>
<svg id="graph" class="graph">
<g id="viewport">
<title>ObservableImmutable.ObservableImmutableList&lt; T &gt;</title>
<!-- Node1 -->
<g id="node1" class="node">
<title>Node1</title>
<g id="a_node1"><a xlink:title=" ">
<polygon fill="#bfbfbf" stroke="black" points="430,-0.5 430,-244.5 614,-244.5 614,-0.5 430,-0.5"/>
<text text-anchor="start" x="438" y="-232.5" font-family="Helvetica,sans-Serif" font-size="10.00">ObservableImmutable.Observable</text>
<text text-anchor="middle" x="522" y="-221.5" font-family="Helvetica,sans-Serif" font-size="10.00">ImmutableList&lt; T &gt;</text>
<polyline fill="none" stroke="black" points="430,-214.5 614,-214.5 "/>
<text text-anchor="start" x="438" y="-202.5" font-family="Helvetica,sans-Serif" font-size="10.00">+ IsFixedSize</text>
<text text-anchor="start" x="438" y="-191.5" font-family="Helvetica,sans-Serif" font-size="10.00">+ IsSynchronized</text>
<text text-anchor="start" x="438" y="-180.5" font-family="Helvetica,sans-Serif" font-size="10.00">+ SyncRoot</text>
<text text-anchor="start" x="438" y="-169.5" font-family="Helvetica,sans-Serif" font-size="10.00">+ Count</text>
<text text-anchor="start" x="438" y="-158.5" font-family="Helvetica,sans-Serif" font-size="10.00">+ IsReadOnly</text>
<text text-anchor="start" x="438" y="-147.5" font-family="Helvetica,sans-Serif" font-size="10.00">+ this[int index]</text>
<text text-anchor="start" x="438" y="-136.5" font-family="Helvetica,sans-Serif" font-size="10.00">+ this[int index]</text>
<polyline fill="none" stroke="black" points="430,-129.5 614,-129.5 "/>
<text text-anchor="start" x="438" y="-117.5" font-family="Helvetica,sans-Serif" font-size="10.00">+ ObservableImmutableList()</text>
<text text-anchor="start" x="438" y="-106.5" font-family="Helvetica,sans-Serif" font-size="10.00">+ ObservableImmutableList()</text>
<text text-anchor="start" x="438" y="-95.5" font-family="Helvetica,sans-Serif" font-size="10.00">+ ObservableImmutableList()</text>
<text text-anchor="start" x="438" y="-84.5" font-family="Helvetica,sans-Serif" font-size="10.00">+ ObservableImmutableList()</text>
<text text-anchor="start" x="438" y="-73.5" font-family="Helvetica,sans-Serif" font-size="10.00">+ TryOperation()</text>
<text text-anchor="start" x="438" y="-62.5" font-family="Helvetica,sans-Serif" font-size="10.00">+ DoOperation()</text>
<text text-anchor="start" x="438" y="-51.5" font-family="Helvetica,sans-Serif" font-size="10.00">+ DoInsert()</text>
<text text-anchor="start" x="438" y="-40.5" font-family="Helvetica,sans-Serif" font-size="10.00">+ DoAdd()</text>
<text text-anchor="start" x="438" y="-29.5" font-family="Helvetica,sans-Serif" font-size="10.00">+ DoAddRange()</text>
<text text-anchor="start" x="438" y="-18.5" font-family="Helvetica,sans-Serif" font-size="10.00">+ DoRemove()</text>
<text text-anchor="start" x="438" y="-7.5" font-family="Helvetica,sans-Serif" font-size="10.00">and 35 more...</text>
</a>
</g>
</g>
<!-- Node2 -->
<g id="node2" class="node">
<title>Node2</title>
<g id="a_node2"><a xlink:href="class_observable_immutable_1_1_observable_collection_object.html" target="_top" xlink:title=" ">
<polygon fill="none" stroke="black" points="56.5,-281.5 56.5,-459.5 239.5,-459.5 239.5,-281.5 56.5,-281.5"/>
<text text-anchor="middle" x="148" y="-447.5" font-family="Helvetica,sans-Serif" font-size="10.00">ObservableCollectionObject</text>
<polyline fill="none" stroke="black" points="56.5,-440.5 239.5,-440.5 "/>
<text text-anchor="start" x="64.5" y="-428.5" font-family="Helvetica,sans-Serif" font-size="10.00">+ LockType</text>
<polyline fill="none" stroke="black" points="56.5,-421.5 239.5,-421.5 "/>
<text text-anchor="start" x="64.5" y="-409.5" font-family="Helvetica,sans-Serif" font-size="10.00">+ DoEvents()</text>
<text text-anchor="start" x="64.5" y="-398.5" font-family="Helvetica,sans-Serif" font-size="10.00">+ RaisePropertyChanged()</text>
<text text-anchor="start" x="64.5" y="-387.5" font-family="Helvetica,sans-Serif" font-size="10.00"># ObservableCollectionObject()</text>
<text text-anchor="start" x="64.5" y="-376.5" font-family="Helvetica,sans-Serif" font-size="10.00"># GetDispatcher()</text>
<text text-anchor="start" x="64.5" y="-365.5" font-family="Helvetica,sans-Serif" font-size="10.00"># WaitForCondition()</text>
<text text-anchor="start" x="64.5" y="-354.5" font-family="Helvetica,sans-Serif" font-size="10.00"># PumpWait_PumpUntil()</text>
<text text-anchor="start" x="64.5" y="-343.5" font-family="Helvetica,sans-Serif" font-size="10.00"># TryLock()</text>
<text text-anchor="start" x="64.5" y="-332.5" font-family="Helvetica,sans-Serif" font-size="10.00"># Lock()</text>
<text text-anchor="start" x="64.5" y="-321.5" font-family="Helvetica,sans-Serif" font-size="10.00"># Unlock()</text>
<text text-anchor="start" x="64.5" y="-310.5" font-family="Helvetica,sans-Serif" font-size="10.00"># OnCollectionChanged()</text>
<text text-anchor="start" x="64.5" y="-299.5" font-family="Helvetica,sans-Serif" font-size="10.00"># RaiseNotifyCollectionChanged()</text>
<text text-anchor="start" x="64.5" y="-288.5" font-family="Helvetica,sans-Serif" font-size="10.00"># RaiseNotifyCollectionChanged()</text>
</a>
</g>
</g>
<!-- Node2&#45;&gt;Node1 -->
<g id="edge1" class="edge">
<title>Node2&#45;&gt;Node1</title>
<path fill="none" stroke="midnightblue" d="M248.25,-285.11C250.17,-283.72 252.09,-282.35 254,-281 310.26,-241.39 376.96,-202.16 429.74,-172.77"/>
<polygon fill="none" stroke="midnightblue" points="245.76,-282.6 239.79,-291.35 249.91,-288.23 245.76,-282.6"/>
</g>
<!-- Node3 -->
<g id="node3" class="node">
<title>Node3</title>
<g id="a_node3"><a xlink:title=" ">
<polygon fill="none" stroke="#bfbfbf" points="0,-496.5 0,-553.5 140,-553.5 140,-496.5 0,-496.5"/>
<text text-anchor="middle" x="70" y="-541.5" font-family="Helvetica,sans-Serif" font-size="10.00">INotifyCollectionChanged</text>
<polyline fill="none" stroke="#bfbfbf" points="0,-534.5 140,-534.5 "/>
<text text-anchor="middle" x="70" y="-522.5" font-family="Helvetica,sans-Serif" font-size="10.00"> </text>
<polyline fill="none" stroke="#bfbfbf" points="0,-515.5 140,-515.5 "/>
<text text-anchor="middle" x="70" y="-503.5" font-family="Helvetica,sans-Serif" font-size="10.00"> </text>
</a>
</g>
</g>
<!-- Node3&#45;&gt;Node1 -->
<g id="edge13" class="edge">
<title>Node3&#45;&gt;Node1</title>
<path fill="none" stroke="midnightblue" d="M52.44,-486.72C31.07,-435.28 2.96,-342 47,-281 134.34,-160.02 318.29,-130.48 429.9,-124.14"/>
<polygon fill="none" stroke="midnightblue" points="49.31,-488.31 56.46,-496.12 55.75,-485.55 49.31,-488.31"/>
</g>
<!-- Node3&#45;&gt;Node2 -->
<g id="edge2" class="edge">
<title>Node3&#45;&gt;Node2</title>
<path fill="none" stroke="midnightblue" d="M88.68,-487.47C93.07,-478.9 97.93,-469.39 102.93,-459.62"/>
<polygon fill="none" stroke="midnightblue" points="85.56,-485.89 84.13,-496.38 91.8,-489.07 85.56,-485.89"/>
</g>
<!-- Node4 -->
<g id="node4" class="node">
<title>Node4</title>
<g id="a_node4"><a xlink:title=" ">
<polygon fill="none" stroke="#bfbfbf" points="179.5,-496.5 179.5,-553.5 312.5,-553.5 312.5,-496.5 179.5,-496.5"/>
<text text-anchor="middle" x="246" y="-541.5" font-family="Helvetica,sans-Serif" font-size="10.00">INotifyPropertyChanged</text>
<polyline fill="none" stroke="#bfbfbf" points="179.5,-534.5 312.5,-534.5 "/>
<text text-anchor="middle" x="246" y="-522.5" font-family="Helvetica,sans-Serif" font-size="10.00"> </text>
<polyline fill="none" stroke="#bfbfbf" points="179.5,-515.5 312.5,-515.5 "/>
<text text-anchor="middle" x="246" y="-503.5" font-family="Helvetica,sans-Serif" font-size="10.00"> </text>
</a>
</g>
</g>
<!-- Node4&#45;&gt;Node1 -->
<g id="edge14" class="edge">
<title>Node4&#45;&gt;Node1</title>
<path fill="none" stroke="midnightblue" d="M248.73,-486.32C253.63,-426.79 265.48,-314.3 287,-281 321.06,-228.3 379.64,-188.98 429.8,-162.8"/>
<polygon fill="none" stroke="midnightblue" points="245.22,-486.2 247.92,-496.44 252.2,-486.75 245.22,-486.2"/>
</g>
<!-- Node4&#45;&gt;Node2 -->
<g id="edge3" class="edge">
<title>Node4&#45;&gt;Node2</title>
<path fill="none" stroke="midnightblue" d="M222.7,-487.75C217.15,-479.1 210.97,-469.5 204.63,-459.62"/>
<polygon fill="none" stroke="midnightblue" points="219.9,-489.86 228.25,-496.38 225.79,-486.08 219.9,-489.86"/>
</g>
<!-- Node5 -->
<g id="node5" class="node">
<title>Node5</title>
<g id="a_node5"><a xlink:title=" ">
<polygon fill="none" stroke="#bfbfbf" points="296.5,-342 296.5,-399 333.5,-399 333.5,-342 296.5,-342"/>
<text text-anchor="middle" x="315" y="-387" font-family="Helvetica,sans-Serif" font-size="10.00">IList</text>
<polyline fill="none" stroke="#bfbfbf" points="296.5,-380 333.5,-380 "/>
<text text-anchor="middle" x="315" y="-368" font-family="Helvetica,sans-Serif" font-size="10.00"> </text>
<polyline fill="none" stroke="#bfbfbf" points="296.5,-361 333.5,-361 "/>
<text text-anchor="middle" x="315" y="-349" font-family="Helvetica,sans-Serif" font-size="10.00"> </text>
</a>
</g>
</g>
<!-- Node5&#45;&gt;Node1 -->
<g id="edge4" class="edge">
<title>Node5&#45;&gt;Node1</title>
<path fill="none" stroke="midnightblue" d="M322.09,-331.98C326.38,-315.44 333.01,-296.32 343,-281 365.83,-245.98 398.51,-214.08 429.71,-188.28"/>
<polygon fill="none" stroke="midnightblue" points="318.64,-331.36 319.71,-341.9 325.45,-332.99 318.64,-331.36"/>
</g>
<!-- Node6 -->
<g id="node6" class="node">
<title>Node6</title>
<g id="a_node6"><a xlink:title=" ">
<polygon fill="none" stroke="#bfbfbf" points="352,-342 352,-399 420,-399 420,-342 352,-342"/>
<text text-anchor="middle" x="386" y="-387" font-family="Helvetica,sans-Serif" font-size="10.00">ICollection</text>
<polyline fill="none" stroke="#bfbfbf" points="352,-380 420,-380 "/>
<text text-anchor="middle" x="386" y="-368" font-family="Helvetica,sans-Serif" font-size="10.00"> </text>
<polyline fill="none" stroke="#bfbfbf" points="352,-361 420,-361 "/>
<text text-anchor="middle" x="386" y="-349" font-family="Helvetica,sans-Serif" font-size="10.00"> </text>
</a>
</g>
</g>
<!-- Node6&#45;&gt;Node1 -->
<g id="edge5" class="edge">
<title>Node6&#45;&gt;Node1</title>
<path fill="none" stroke="midnightblue" d="M403.09,-332.64C410.72,-316.62 420.01,-297.73 429,-281 435.39,-269.11 442.21,-256.83 449.16,-244.61"/>
<polygon fill="none" stroke="midnightblue" points="399.91,-331.17 398.8,-341.7 406.24,-334.16 399.91,-331.17"/>
</g>
<!-- Node7 -->
<g id="node7" class="node">
<title>Node7</title>
<g id="a_node7"><a xlink:title=" ">
<polygon fill="none" stroke="#bfbfbf" points="438,-342 438,-399 516,-399 516,-342 438,-342"/>
<text text-anchor="middle" x="477" y="-387" font-family="Helvetica,sans-Serif" font-size="10.00">IEnumerable</text>
<polyline fill="none" stroke="#bfbfbf" points="438,-380 516,-380 "/>
<text text-anchor="middle" x="477" y="-368" font-family="Helvetica,sans-Serif" font-size="10.00"> </text>
<polyline fill="none" stroke="#bfbfbf" points="438,-361 516,-361 "/>
<text text-anchor="middle" x="477" y="-349" font-family="Helvetica,sans-Serif" font-size="10.00"> </text>
</a>
</g>
</g>
<!-- Node7&#45;&gt;Node1 -->
<g id="edge6" class="edge">
<title>Node7&#45;&gt;Node1</title>
<path fill="none" stroke="midnightblue" d="M483.89,-331.86C488.2,-308.26 494.03,-276.41 499.83,-244.71"/>
<polygon fill="none" stroke="midnightblue" points="480.43,-331.29 482.07,-341.76 487.32,-332.55 480.43,-331.29"/>
</g>
<!-- Node8 -->
<g id="node8" class="node">
<title>Node8</title>
<g id="a_node8"><a xlink:title=" ">
<polygon fill="none" stroke="#bfbfbf" points="534.5,-342 534.5,-399 599.5,-399 599.5,-342 534.5,-342"/>
<text text-anchor="middle" x="567" y="-387" font-family="Helvetica,sans-Serif" font-size="10.00">IList&lt; T &gt;</text>
<polyline fill="none" stroke="#bfbfbf" points="534.5,-380 599.5,-380 "/>
<text text-anchor="middle" x="567" y="-368" font-family="Helvetica,sans-Serif" font-size="10.00"> </text>
<polyline fill="none" stroke="#bfbfbf" points="534.5,-361 599.5,-361 "/>
<text text-anchor="middle" x="567" y="-349" font-family="Helvetica,sans-Serif" font-size="10.00"> </text>
</a>
</g>
</g>
<!-- Node8&#45;&gt;Node1 -->
<g id="edge7" class="edge">
<title>Node8&#45;&gt;Node1</title>
<path fill="none" stroke="midnightblue" d="M560.11,-331.86C555.8,-308.26 549.97,-276.41 544.17,-244.71"/>
<polygon fill="none" stroke="midnightblue" points="556.68,-332.55 561.93,-341.76 563.57,-331.29 556.68,-332.55"/>
</g>
<!-- Node9 -->
<g id="node9" class="node">
<title>Node9</title>
<g id="a_node9"><a xlink:title=" ">
<polygon fill="none" stroke="#bfbfbf" points="617.5,-342 617.5,-399 736.5,-399 736.5,-342 617.5,-342"/>
<text text-anchor="middle" x="677" y="-387" font-family="Helvetica,sans-Serif" font-size="10.00">IImmutableList&lt; T &gt;</text>
<polyline fill="none" stroke="#bfbfbf" points="617.5,-380 736.5,-380 "/>
<text text-anchor="middle" x="677" y="-368" font-family="Helvetica,sans-Serif" font-size="10.00"> </text>
<polyline fill="none" stroke="#bfbfbf" points="617.5,-361 736.5,-361 "/>
<text text-anchor="middle" x="677" y="-349" font-family="Helvetica,sans-Serif" font-size="10.00"> </text>
</a>
</g>
</g>
<!-- Node9&#45;&gt;Node1 -->
<g id="edge8" class="edge">
<title>Node9&#45;&gt;Node1</title>
<path fill="none" stroke="midnightblue" d="M654.08,-333.12C639.14,-309.41 618.7,-276.98 598.37,-244.71"/>
<polygon fill="none" stroke="midnightblue" points="651.23,-335.16 659.52,-341.76 657.15,-331.43 651.23,-335.16"/>
</g>
<!-- Node10 -->
<g id="node10" class="node">
<title>Node10</title>
<g id="a_node10"><a xlink:title=" ">
<polygon fill="none" stroke="#bfbfbf" points="754.5,-342 754.5,-399 851.5,-399 851.5,-342 754.5,-342"/>
<text text-anchor="middle" x="803" y="-387" font-family="Helvetica,sans-Serif" font-size="10.00">ICollection&lt; T &gt;</text>
<polyline fill="none" stroke="#bfbfbf" points="754.5,-380 851.5,-380 "/>
<text text-anchor="middle" x="803" y="-368" font-family="Helvetica,sans-Serif" font-size="10.00"> </text>
<polyline fill="none" stroke="#bfbfbf" points="754.5,-361 851.5,-361 "/>
<text text-anchor="middle" x="803" y="-349" font-family="Helvetica,sans-Serif" font-size="10.00"> </text>
</a>
</g>
</g>
<!-- Node10&#45;&gt;Node1 -->
<g id="edge9" class="edge">
<title>Node10&#45;&gt;Node1</title>
<path fill="none" stroke="midnightblue" d="M783.57,-332.59C773.67,-315.76 760.63,-296.24 746,-281 707.39,-240.79 657.16,-204.38 614.05,-176.71"/>
<polygon fill="none" stroke="midnightblue" points="780.74,-334.68 788.74,-341.62 786.81,-331.2 780.74,-334.68"/>
</g>
<!-- Node11 -->
<g id="node11" class="node">
<title>Node11</title>
<g id="a_node11"><a xlink:title=" ">
<polygon fill="none" stroke="#bfbfbf" points="869.5,-342 869.5,-399 976.5,-399 976.5,-342 869.5,-342"/>
<text text-anchor="middle" x="923" y="-387" font-family="Helvetica,sans-Serif" font-size="10.00">IEnumerable&lt; T &gt;</text>
<polyline fill="none" stroke="#bfbfbf" points="869.5,-380 976.5,-380 "/>
<text text-anchor="middle" x="923" y="-368" font-family="Helvetica,sans-Serif" font-size="10.00"> </text>
<polyline fill="none" stroke="#bfbfbf" points="869.5,-361 976.5,-361 "/>
<text text-anchor="middle" x="923" y="-349" font-family="Helvetica,sans-Serif" font-size="10.00"> </text>
</a>
</g>
</g>
<!-- Node11&#45;&gt;Node1 -->
<g id="edge10" class="edge">
<title>Node11&#45;&gt;Node1</title>
<path fill="none" stroke="midnightblue" d="M903.5,-333C892.77,-315.54 878.14,-295.36 861,-281 787.87,-219.74 686.95,-176.9 614.26,-151.53"/>
<polygon fill="none" stroke="midnightblue" points="900.63,-335.03 908.75,-341.84 906.65,-331.46 900.63,-335.03"/>
</g>
<!-- Node12 -->
<g id="node12" class="node">
<title>Node12</title>
<g id="a_node12"><a xlink:title=" ">
<polygon fill="none" stroke="#bfbfbf" points="994.5,-342 994.5,-399 1107.5,-399 1107.5,-342 994.5,-342"/>
<text text-anchor="middle" x="1051" y="-387" font-family="Helvetica,sans-Serif" font-size="10.00">IReadOnlyList&lt; T &gt;</text>
<polyline fill="none" stroke="#bfbfbf" points="994.5,-380 1107.5,-380 "/>
<text text-anchor="middle" x="1051" y="-368" font-family="Helvetica,sans-Serif" font-size="10.00"> </text>
<polyline fill="none" stroke="#bfbfbf" points="994.5,-361 1107.5,-361 "/>
<text text-anchor="middle" x="1051" y="-349" font-family="Helvetica,sans-Serif" font-size="10.00"> </text>
</a>
</g>
</g>
<!-- Node12&#45;&gt;Node1 -->
<g id="edge11" class="edge">
<title>Node12&#45;&gt;Node1</title>
<path fill="none" stroke="midnightblue" d="M1031.34,-332.96C1020.13,-315.12 1004.6,-294.62 986,-281 873.11,-198.3 713.71,-156.85 614.19,-137.78"/>
<polygon fill="none" stroke="midnightblue" points="1028.63,-335.25 1036.8,-342 1034.62,-331.63 1028.63,-335.25"/>
</g>
<!-- Node13 -->
<g id="node13" class="node">
<title>Node13</title>
<g id="a_node13"><a xlink:title=" ">
<polygon fill="none" stroke="#bfbfbf" points="1126,-342 1126,-399 1270,-399 1270,-342 1126,-342"/>
<text text-anchor="middle" x="1198" y="-387" font-family="Helvetica,sans-Serif" font-size="10.00">IReadOnlyCollection&lt; T &gt;</text>
<polyline fill="none" stroke="#bfbfbf" points="1126,-380 1270,-380 "/>
<text text-anchor="middle" x="1198" y="-368" font-family="Helvetica,sans-Serif" font-size="10.00"> </text>
<polyline fill="none" stroke="#bfbfbf" points="1126,-361 1270,-361 "/>
<text text-anchor="middle" x="1198" y="-349" font-family="Helvetica,sans-Serif" font-size="10.00"> </text>
</a>
</g>
</g>
<!-- Node13&#45;&gt;Node1 -->
<g id="edge12" class="edge">
<title>Node13&#45;&gt;Node1</title>
<path fill="none" stroke="midnightblue" d="M1172.93,-333.46C1158.52,-315.26 1138.94,-294.28 1117,-281 956.67,-183.98 736.78,-145.97 614.17,-131.66"/>
<polygon fill="none" stroke="midnightblue" points="1170.3,-335.79 1179.17,-341.59 1175.85,-331.53 1170.3,-335.79"/>
</g>
</g>
</svg>
        <g id="navigator" transform="translate(0 0)" fill="#404254">
                <rect fill="#f2f5e9" fill-opacity="0.5" stroke="#606060" stroke-width=".5" x="0" y="0" width="60" height="60"/>
                <use id="zoomplus" xlink:href="#zoomPlus" x="17" y="9" onmousedown="handleZoom(evt,'in')"/>
                <use id="zoomminus" xlink:href="#zoomMin" x="42" y="9" onmousedown="handleZoom(evt,'out')"/>
                <use id="reset" xlink:href="#resetDef" x="30" y="36" onmousedown="handleReset()"/>
                <g id="arrowUp" xlink:href="#dirArrow" transform="translate(30 24)" onmousedown="handlePan(0,-1)">
                  <use xlink:href="#rim" fill="#404040">
                        <set attributeName="fill" to="#808080" begin="arrowUp.mouseover" end="arrowUp.mouseout"/>
                  </use>
                  <path fill="none" stroke="white" stroke-width="1.5" d="M0,-3.0v7 M-2.5,-0.5L0,-3.0L2.5,-0.5"/>
                </g>
                <g id="arrowRight" xlink:href="#dirArrow" transform="rotate(90) translate(36 -43)" onmousedown="handlePan(1,0)">
                  <use xlink:href="#rim" fill="#404040">
                        <set attributeName="fill" to="#808080" begin="arrowRight.mouseover" end="arrowRight.mouseout"/>
                  </use>
                  <path fill="none" stroke="white" stroke-width="1.5" d="M0,-3.0v7 M-2.5,-0.5L0,-3.0L2.5,-0.5"/>
                </g>
                <g id="arrowDown" xlink:href="#dirArrow" transform="rotate(180) translate(-30 -48)" onmousedown="handlePan(0,1)">
                  <use xlink:href="#rim" fill="#404040">
                        <set attributeName="fill" to="#808080" begin="arrowDown.mouseover" end="arrowDown.mouseout"/>
                  </use>
                  <path fill="none" stroke="white" stroke-width="1.5" d="M0,-3.0v7 M-2.5,-0.5L0,-3.0L2.5,-0.5"/>
                </g>
                <g id="arrowLeft" xlink:href="#dirArrow" transform="rotate(270) translate(-36 17)" onmousedown="handlePan(-1,0)">
                  <use xlink:href="#rim" fill="#404040">
                        <set attributeName="fill" to="#808080" begin="arrowLeft.mouseover" end="arrowLeft.mouseout"/>
                  </use>
                  <path fill="none" stroke="white" stroke-width="1.5" d="M0,-3.0v7 M-2.5,-0.5L0,-3.0L2.5,-0.5"/>
                </g>
        </g>
        <svg viewBox="0 0 15 15" width="100%" height="30px" preserveAspectRatio="xMaxYMin meet">
         <g id="arrow_out" transform="scale(0.3 0.3)">
          <a xlink:href="class_observable_immutable_1_1_observable_immutable_list__coll__graph_org.svg" target="_base">
           <rect id="button" ry="5" rx="5" y="6" x="6" height="38" width="38"
                fill="#f2f5e9" fill-opacity="0.5" stroke="#606060" stroke-width="1.0"/>
           <path id="arrow"
             d="M 11.500037,31.436501 C 11.940474,20.09759 22.043105,11.32322 32.158766,21.979434 L 37.068811,17.246167 C 37.068811,17.246167 37.088388,32 37.088388,32 L 22.160133,31.978069 C 22.160133,31.978069 26.997745,27.140456 26.997745,27.140456 C 18.528582,18.264221 13.291696,25.230495 11.500037,31.436501 z"
             style="fill:#404040;"/>
          </a>
         </g>
        </svg>
</svg>
