<?xml version="1.0" encoding="UTF-8" standalone="no"?>
<!DOCTYPE svg PUBLIC "-//W3C//DTD SVG 1.1//EN"
 "http://www.w3.org/Graphics/SVG/1.1/DTD/svg11.dtd">
<!-- Generated by graphviz version 2.43.0 (0)
 -->
<!-- Title: VolumeControl.Audio.Collections.AudioDeviceCollection.AudioDeviceCollection Pages: 1 -->
<svg width="729pt" height="50pt"
 viewBox="0.00 0.00 729.00 50.00" xmlns="http://www.w3.org/2000/svg" xmlns:xlink="http://www.w3.org/1999/xlink">
<g id="graph0" class="graph" transform="scale(1 1) rotate(0) translate(4 46)">
<title>VolumeControl.Audio.Collections.AudioDeviceCollection.AudioDeviceCollection</title>
<!-- Node1 -->
<g id="node1" class="node">
<title>Node1</title>
<g id="a_node1"><a xlink:title="Creates a new AudioDeviceCollection instance with the given NAudio.CoreAudioApi.DataFlow.">
<polygon fill="#bfbfbf" stroke="black" points="0,-6 0,-36 240,-36 240,-6 0,-6"/>
<text text-anchor="start" x="8" y="-24" font-family="Helvetica,sans-Serif" font-size="10.00">VolumeControl.Audio.Collections.</text>
<text text-anchor="middle" x="120" y="-13" font-family="Helvetica,sans-Serif" font-size="10.00">AudioDeviceCollection.AudioDeviceCollection</text>
</a>
</g>
</g>
<!-- Node2 -->
<g id="node2" class="node">
<title>Node2</title>
<g id="a_node2"><a xlink:href="class_volume_control_1_1_audio_1_1_collections_1_1_audio_device_collection.html#acd7d7cf31e128ba32f3c98397e0c1f52" target="_top" xlink:title="Reloads all AudioDevices using the default MMDeviceEnumerator.">
<polygon fill="none" stroke="black" points="276,-6 276,-36 479,-36 479,-6 276,-6"/>
<text text-anchor="start" x="284" y="-24" font-family="Helvetica,sans-Serif" font-size="10.00">VolumeControl.Audio.Collections.</text>
<text text-anchor="middle" x="377.5" y="-13" font-family="Helvetica,sans-Serif" font-size="10.00">AudioDeviceCollection.ReloadDevices</text>
</a>
</g>
</g>
<!-- Node1&#45;&gt;Node2 -->
<g id="edge1" class="edge">
<title>Node1&#45;&gt;Node2</title>
<path fill="none" stroke="midnightblue" d="M240.15,-21C248.66,-21 257.22,-21 265.68,-21"/>
<polygon fill="midnightblue" stroke="midnightblue" points="265.94,-24.5 275.94,-21 265.94,-17.5 265.94,-24.5"/>
</g>
<!-- Node3 -->
<g id="node3" class="node">
<title>Node3</title>
<g id="a_node3"><a xlink:href="class_volume_control_1_1_audio_1_1_collections_1_1_audio_device_collection.html#a060de539a039ed4bf8d0fd4f8602fd78" target="_top" xlink:title="Gets the AudioDevice associated with the given mmDevice .">
<polygon fill="none" stroke="black" points="515,-0.5 515,-41.5 721,-41.5 721,-0.5 515,-0.5"/>
<text text-anchor="start" x="523" y="-29.5" font-family="Helvetica,sans-Serif" font-size="10.00">VolumeControl.Audio.Collections.</text>
<text text-anchor="start" x="523" y="-18.5" font-family="Helvetica,sans-Serif" font-size="10.00">AudioDeviceCollection.FindDeviceWith</text>
<text text-anchor="middle" x="618" y="-7.5" font-family="Helvetica,sans-Serif" font-size="10.00">MMDevice</text>
</a>
</g>
</g>
<!-- Node2&#45;&gt;Node3 -->
<g id="edge2" class="edge">
<title>Node2&#45;&gt;Node3</title>
<path fill="none" stroke="midnightblue" d="M479.3,-21C487.62,-21 496.05,-21 504.45,-21"/>
<polygon fill="midnightblue" stroke="midnightblue" points="504.65,-24.5 514.65,-21 504.65,-17.5 504.65,-24.5"/>
</g>
</g>
</svg>
