<?xml version="1.0" encoding="UTF-8" standalone="no"?>
<!DOCTYPE svg PUBLIC "-//W3C//DTD SVG 1.1//EN"
 "http://www.w3.org/Graphics/SVG/1.1/DTD/svg11.dtd">
<!-- Generated by graphviz version 2.43.0 (0)
 -->
<!-- Title: VolumeControl.Log.Endpoints.BaseEndpointWriter Pages: 1 -->
<svg width="352pt" height="579pt"
 viewBox="0.00 0.00 352.00 579.00" xmlns="http://www.w3.org/2000/svg" xmlns:xlink="http://www.w3.org/1999/xlink">
<g id="graph0" class="graph" transform="scale(1 1) rotate(0) translate(4 575)">
<title>VolumeControl.Log.Endpoints.BaseEndpointWriter</title>
<!-- Node1 -->
<g id="node1" class="node">
<title>Node1</title>
<g id="a_node1"><a xlink:title="Abstract base class for endpoint writers.">
<polygon fill="#bfbfbf" stroke="black" points="90,-309.5 90,-443.5 253,-443.5 253,-309.5 90,-309.5"/>
<text text-anchor="start" x="98" y="-431.5" font-family="Helvetica,sans-Serif" font-size="10.00">VolumeControl.Log.Endpoints.</text>
<text text-anchor="middle" x="171.5" y="-420.5" font-family="Helvetica,sans-Serif" font-size="10.00">BaseEndpointWriter</text>
<polyline fill="none" stroke="black" points="90,-413.5 253,-413.5 "/>
<text text-anchor="start" x="98" y="-401.5" font-family="Helvetica,sans-Serif" font-size="10.00">+ IsWritingEnabled</text>
<polyline fill="none" stroke="black" points="90,-394.5 253,-394.5 "/>
<text text-anchor="start" x="98" y="-382.5" font-family="Helvetica,sans-Serif" font-size="10.00">+ GetTextWriter()</text>
<text text-anchor="start" x="98" y="-371.5" font-family="Helvetica,sans-Serif" font-size="10.00">+ Reset()</text>
<text text-anchor="start" x="98" y="-360.5" font-family="Helvetica,sans-Serif" font-size="10.00">+ Write()</text>
<text text-anchor="start" x="98" y="-349.5" font-family="Helvetica,sans-Serif" font-size="10.00">+ WriteLine()</text>
<text text-anchor="start" x="98" y="-338.5" font-family="Helvetica,sans-Serif" font-size="10.00">+ WriteLine()</text>
<text text-anchor="start" x="98" y="-327.5" font-family="Helvetica,sans-Serif" font-size="10.00"># BaseEndpointWriter()</text>
<text text-anchor="start" x="98" y="-316.5" font-family="Helvetica,sans-Serif" font-size="10.00"># NotifyPropertyChanged()</text>
</a>
</g>
</g>
<!-- Node4 -->
<g id="node4" class="node">
<title>Node4</title>
<g id="a_node4"><a xlink:href="class_volume_control_1_1_log_1_1_endpoints_1_1_console_endpoint.html" target="_top" xlink:title="Allows using the Console as a logging endpoint.">
<polygon fill="none" stroke="black" points="0,-155 0,-267 163,-267 163,-155 0,-155"/>
<text text-anchor="start" x="8" y="-255" font-family="Helvetica,sans-Serif" font-size="10.00">VolumeControl.Log.Endpoints.</text>
<text text-anchor="middle" x="81.5" y="-244" font-family="Helvetica,sans-Serif" font-size="10.00">ConsoleEndpoint</text>
<polyline fill="none" stroke="black" points="0,-237 163,-237 "/>
<text text-anchor="middle" x="81.5" y="-225" font-family="Helvetica,sans-Serif" font-size="10.00"> </text>
<polyline fill="none" stroke="black" points="0,-218 163,-218 "/>
<text text-anchor="start" x="8" y="-206" font-family="Helvetica,sans-Serif" font-size="10.00">+ ConsoleEndpoint()</text>
<text text-anchor="start" x="8" y="-195" font-family="Helvetica,sans-Serif" font-size="10.00">+ GetTextWriter()</text>
<text text-anchor="start" x="8" y="-184" font-family="Helvetica,sans-Serif" font-size="10.00">+ Reset()</text>
<text text-anchor="start" x="8" y="-173" font-family="Helvetica,sans-Serif" font-size="10.00">+ GetSTDOUT()</text>
<text text-anchor="start" x="8" y="-162" font-family="Helvetica,sans-Serif" font-size="10.00">+ GetSTDERR()</text>
</a>
</g>
</g>
<!-- Node1&#45;&gt;Node4 -->
<g id="edge3" class="edge">
<title>Node1&#45;&gt;Node4</title>
<path fill="none" stroke="midnightblue" d="M130.21,-300.48C124,-289.21 117.7,-277.76 111.78,-267.01"/>
<polygon fill="none" stroke="midnightblue" points="127.26,-302.4 135.15,-309.47 133.4,-299.02 127.26,-302.4"/>
</g>
<!-- Node5 -->
<g id="node5" class="node">
<title>Node5</title>
<g id="a_node5"><a xlink:href="class_volume_control_1_1_log_1_1_endpoints_1_1_file_endpoint.html" target="_top" xlink:title="Log endpoint that allows writing logs directly to a file on disk.">
<polygon fill="none" stroke="black" points="181,-149.5 181,-272.5 344,-272.5 344,-149.5 181,-149.5"/>
<text text-anchor="start" x="189" y="-260.5" font-family="Helvetica,sans-Serif" font-size="10.00">VolumeControl.Log.Endpoints.</text>
<text text-anchor="middle" x="262.5" y="-249.5" font-family="Helvetica,sans-Serif" font-size="10.00">FileEndpoint</text>
<polyline fill="none" stroke="black" points="181,-242.5 344,-242.5 "/>
<text text-anchor="start" x="189" y="-230.5" font-family="Helvetica,sans-Serif" font-size="10.00">+ FileInfo</text>
<text text-anchor="start" x="189" y="-219.5" font-family="Helvetica,sans-Serif" font-size="10.00">+ Path</text>
<text text-anchor="start" x="189" y="-208.5" font-family="Helvetica,sans-Serif" font-size="10.00">+ PathIsEmpty</text>
<polyline fill="none" stroke="black" points="181,-201.5 344,-201.5 "/>
<text text-anchor="start" x="189" y="-189.5" font-family="Helvetica,sans-Serif" font-size="10.00">+ FileEndpoint()</text>
<text text-anchor="start" x="189" y="-178.5" font-family="Helvetica,sans-Serif" font-size="10.00">+ GetStreamWriter()</text>
<text text-anchor="start" x="189" y="-167.5" font-family="Helvetica,sans-Serif" font-size="10.00">+ GetTextWriter()</text>
<text text-anchor="start" x="189" y="-156.5" font-family="Helvetica,sans-Serif" font-size="10.00">+ Reset()</text>
</a>
</g>
</g>
<!-- Node1&#45;&gt;Node5 -->
<g id="edge4" class="edge">
<title>Node1&#45;&gt;Node5</title>
<path fill="none" stroke="midnightblue" d="M213.2,-300.58C218.39,-291.25 223.65,-281.8 228.7,-272.73"/>
<polygon fill="none" stroke="midnightblue" points="210.06,-299.03 208.25,-309.47 216.17,-302.43 210.06,-299.03"/>
</g>
<!-- Node2 -->
<g id="node2" class="node">
<title>Node2</title>
<g id="a_node2"><a xlink:href="interface_volume_control_1_1_log_1_1_interfaces_1_1_i_endpoint_writer.html" target="_top" xlink:title="Represents an endpoint that text can be written to.">
<polygon fill="none" stroke="black" points="46.5,-480.5 46.5,-570.5 156.5,-570.5 156.5,-480.5 46.5,-480.5"/>
<text text-anchor="middle" x="101.5" y="-558.5" font-family="Helvetica,sans-Serif" font-size="10.00">IEndpointWriter</text>
<polyline fill="none" stroke="black" points="46.5,-551.5 156.5,-551.5 "/>
<text text-anchor="start" x="54.5" y="-539.5" font-family="Helvetica,sans-Serif" font-size="10.00">+ IsWritingEnabled</text>
<polyline fill="none" stroke="black" points="46.5,-532.5 156.5,-532.5 "/>
<text text-anchor="start" x="54.5" y="-520.5" font-family="Helvetica,sans-Serif" font-size="10.00">+ GetTextWriter()</text>
<text text-anchor="start" x="54.5" y="-509.5" font-family="Helvetica,sans-Serif" font-size="10.00">+ Write()</text>
<text text-anchor="start" x="54.5" y="-498.5" font-family="Helvetica,sans-Serif" font-size="10.00">+ WriteLine()</text>
<text text-anchor="start" x="54.5" y="-487.5" font-family="Helvetica,sans-Serif" font-size="10.00">+ Reset()</text>
</a>
</g>
</g>
<!-- Node2&#45;&gt;Node1 -->
<g id="edge1" class="edge">
<title>Node2&#45;&gt;Node1</title>
<path fill="none" stroke="midnightblue" d="M126.87,-471.23C131.14,-462.25 135.62,-452.84 140.03,-443.59"/>
<polygon fill="none" stroke="midnightblue" points="123.64,-469.86 122.5,-480.4 129.96,-472.87 123.64,-469.86"/>
</g>
<!-- Node3 -->
<g id="node3" class="node">
<title>Node3</title>
<g id="a_node3"><a xlink:title=" ">
<polygon fill="none" stroke="#bfbfbf" points="175,-497 175,-554 308,-554 308,-497 175,-497"/>
<text text-anchor="middle" x="241.5" y="-542" font-family="Helvetica,sans-Serif" font-size="10.00">INotifyPropertyChanged</text>
<polyline fill="none" stroke="#bfbfbf" points="175,-535 308,-535 "/>
<text text-anchor="middle" x="241.5" y="-523" font-family="Helvetica,sans-Serif" font-size="10.00"> </text>
<polyline fill="none" stroke="#bfbfbf" points="175,-516 308,-516 "/>
<text text-anchor="middle" x="241.5" y="-504" font-family="Helvetica,sans-Serif" font-size="10.00"> </text>
</a>
</g>
</g>
<!-- Node3&#45;&gt;Node1 -->
<g id="edge2" class="edge">
<title>Node3&#45;&gt;Node1</title>
<path fill="none" stroke="midnightblue" d="M223.92,-487.58C217.58,-474.27 210.22,-458.82 203.06,-443.77"/>
<polygon fill="none" stroke="midnightblue" points="220.87,-489.33 228.33,-496.85 227.19,-486.32 220.87,-489.33"/>
</g>
<!-- Node6 -->
<g id="node6" class="node">
<title>Node6</title>
<g id="a_node6"><a xlink:href="class_volume_control_1_1_log_1_1_endpoints_1_1_persistent_file_endpoint.html" target="_top" xlink:title="Log endpoint that allows writing logs directly to a file on disk, and keeps the file stream open.">
<polygon fill="none" stroke="black" points="181,-0.5 181,-112.5 344,-112.5 344,-0.5 181,-0.5"/>
<text text-anchor="start" x="189" y="-100.5" font-family="Helvetica,sans-Serif" font-size="10.00">VolumeControl.Log.Endpoints.</text>
<text text-anchor="middle" x="262.5" y="-89.5" font-family="Helvetica,sans-Serif" font-size="10.00">PersistentFileEndpoint</text>
<polyline fill="none" stroke="black" points="181,-82.5 344,-82.5 "/>
<text text-anchor="middle" x="262.5" y="-70.5" font-family="Helvetica,sans-Serif" font-size="10.00"> </text>
<polyline fill="none" stroke="black" points="181,-63.5 344,-63.5 "/>
<text text-anchor="start" x="189" y="-51.5" font-family="Helvetica,sans-Serif" font-size="10.00">+ PersistentFileEndpoint()</text>
<text text-anchor="start" x="189" y="-40.5" font-family="Helvetica,sans-Serif" font-size="10.00">+ GetTextWriter()</text>
<text text-anchor="start" x="189" y="-29.5" font-family="Helvetica,sans-Serif" font-size="10.00">+ GetStreamWriter()</text>
<text text-anchor="start" x="189" y="-18.5" font-family="Helvetica,sans-Serif" font-size="10.00">+ Reset()</text>
<text text-anchor="start" x="189" y="-7.5" font-family="Helvetica,sans-Serif" font-size="10.00">+ Dispose()</text>
</a>
</g>
</g>
<!-- Node5&#45;&gt;Node6 -->
<g id="edge5" class="edge">
<title>Node5&#45;&gt;Node6</title>
<path fill="none" stroke="midnightblue" d="M262.5,-139.25C262.5,-130.29 262.5,-121.23 262.5,-112.56"/>
<polygon fill="none" stroke="midnightblue" points="259,-139.29 262.5,-149.29 266,-139.29 259,-139.29"/>
</g>
</g>
</svg>
