<?xml version="1.0" encoding="UTF-8" standalone="no"?>
<!DOCTYPE svg PUBLIC "-//W3C//DTD SVG 1.1//EN"
 "http://www.w3.org/Graphics/SVG/1.1/DTD/svg11.dtd">
<!-- Generated by graphviz version 2.43.0 (0)
 -->
<!-- Title: VolumeControl.WPF.CustomMessageBox.CustomAdorner&lt; T &gt; Pages: 1 -->
<svg width="194pt" height="358pt"
 viewBox="0.00 0.00 194.00 358.00" xmlns="http://www.w3.org/2000/svg" xmlns:xlink="http://www.w3.org/1999/xlink">
<g id="graph0" class="graph" transform="scale(1 1) rotate(0) translate(4 354)">
<title>VolumeControl.WPF.CustomMessageBox.CustomAdorner&lt; T &gt;</title>
<!-- Node1 -->
<g id="node1" class="node">
<title>Node1</title>
<g id="a_node1"><a xlink:title=" ">
<polygon fill="#bfbfbf" stroke="black" points="0,-0.5 0,-255.5 186,-255.5 186,-0.5 0,-0.5"/>
<text text-anchor="start" x="8" y="-243.5" font-family="Helvetica,sans-Serif" font-size="10.00">VolumeControl.WPF.Custom</text>
<text text-anchor="middle" x="93" y="-232.5" font-family="Helvetica,sans-Serif" font-size="10.00">MessageBox.CustomAdorner&lt; T &gt;</text>
<polyline fill="none" stroke="black" points="0,-225.5 186,-225.5 "/>
<text text-anchor="start" x="8" y="-213.5" font-family="Helvetica,sans-Serif" font-size="10.00">+ AdornedElement</text>
<text text-anchor="start" x="8" y="-202.5" font-family="Helvetica,sans-Serif" font-size="10.00">+ Draw</text>
<text text-anchor="start" x="8" y="-191.5" font-family="Helvetica,sans-Serif" font-size="10.00">+ Fill</text>
<text text-anchor="start" x="8" y="-180.5" font-family="Helvetica,sans-Serif" font-size="10.00">+ Stroke</text>
<text text-anchor="start" x="8" y="-169.5" font-family="Helvetica,sans-Serif" font-size="10.00">+ Draw</text>
<polyline fill="none" stroke="black" points="0,-162.5 186,-162.5 "/>
<text text-anchor="start" x="8" y="-150.5" font-family="Helvetica,sans-Serif" font-size="10.00">+ CustomAdorner()</text>
<text text-anchor="start" x="8" y="-139.5" font-family="Helvetica,sans-Serif" font-size="10.00">+ DrawMethod()</text>
<text text-anchor="start" x="8" y="-128.5" font-family="Helvetica,sans-Serif" font-size="10.00">+ CustomAdorner()</text>
<text text-anchor="start" x="8" y="-117.5" font-family="Helvetica,sans-Serif" font-size="10.00">+ DrawMethod()</text>
<text text-anchor="start" x="8" y="-106.5" font-family="Helvetica,sans-Serif" font-size="10.00">+ DrawRectangleAdorner()</text>
<text text-anchor="start" x="8" y="-95.5" font-family="Helvetica,sans-Serif" font-size="10.00">+ Show()</text>
<text text-anchor="start" x="8" y="-84.5" font-family="Helvetica,sans-Serif" font-size="10.00">+ Show()</text>
<text text-anchor="start" x="8" y="-73.5" font-family="Helvetica,sans-Serif" font-size="10.00">+ Show()</text>
<text text-anchor="start" x="8" y="-62.5" font-family="Helvetica,sans-Serif" font-size="10.00">+ DrawRectangleAdorner()</text>
<text text-anchor="start" x="8" y="-51.5" font-family="Helvetica,sans-Serif" font-size="10.00">+ Show()</text>
<text text-anchor="start" x="8" y="-40.5" font-family="Helvetica,sans-Serif" font-size="10.00">+ Show()</text>
<text text-anchor="start" x="8" y="-29.5" font-family="Helvetica,sans-Serif" font-size="10.00">+ Show()</text>
<text text-anchor="start" x="8" y="-18.5" font-family="Helvetica,sans-Serif" font-size="10.00"># OnRender()</text>
<text text-anchor="start" x="8" y="-7.5" font-family="Helvetica,sans-Serif" font-size="10.00"># OnRender()</text>
</a>
</g>
</g>
<!-- Node2 -->
<g id="node2" class="node">
<title>Node2</title>
<g id="a_node2"><a xlink:title=" ">
<polygon fill="none" stroke="#bfbfbf" points="19.5,-292.5 19.5,-349.5 74.5,-349.5 74.5,-292.5 19.5,-292.5"/>
<text text-anchor="middle" x="47" y="-337.5" font-family="Helvetica,sans-Serif" font-size="10.00">Adorner</text>
<polyline fill="none" stroke="#bfbfbf" points="19.5,-330.5 74.5,-330.5 "/>
<text text-anchor="middle" x="47" y="-318.5" font-family="Helvetica,sans-Serif" font-size="10.00"> </text>
<polyline fill="none" stroke="#bfbfbf" points="19.5,-311.5 74.5,-311.5 "/>
<text text-anchor="middle" x="47" y="-299.5" font-family="Helvetica,sans-Serif" font-size="10.00"> </text>
</a>
</g>
</g>
<!-- Node2&#45;&gt;Node1 -->
<g id="edge1" class="edge">
<title>Node2&#45;&gt;Node1</title>
<path fill="none" stroke="midnightblue" d="M56.04,-282.47C57.99,-274.36 60.16,-265.35 62.44,-255.88"/>
<polygon fill="none" stroke="midnightblue" points="52.63,-281.69 53.69,-292.23 59.43,-283.32 52.63,-281.69"/>
</g>
<!-- Node3 -->
<g id="node3" class="node">
<title>Node3</title>
<g id="a_node3"><a xlink:title=" ">
<polygon fill="none" stroke="#bfbfbf" points="93,-292.5 93,-349.5 185,-349.5 185,-292.5 93,-292.5"/>
<text text-anchor="middle" x="139" y="-337.5" font-family="Helvetica,sans-Serif" font-size="10.00">CustomAdorner</text>
<polyline fill="none" stroke="#bfbfbf" points="93,-330.5 185,-330.5 "/>
<text text-anchor="middle" x="139" y="-318.5" font-family="Helvetica,sans-Serif" font-size="10.00"> </text>
<polyline fill="none" stroke="#bfbfbf" points="93,-311.5 185,-311.5 "/>
<text text-anchor="middle" x="139" y="-299.5" font-family="Helvetica,sans-Serif" font-size="10.00"> </text>
</a>
</g>
</g>
<!-- Node3&#45;&gt;Node1 -->
<g id="edge2" class="edge">
<title>Node3&#45;&gt;Node1</title>
<path fill="none" stroke="midnightblue" d="M129.96,-282.47C128.01,-274.36 125.84,-265.35 123.56,-255.88"/>
<polygon fill="none" stroke="midnightblue" points="126.57,-283.32 132.31,-292.23 133.37,-281.69 126.57,-283.32"/>
</g>
</g>
</svg>
