<?xml version="1.0" encoding="UTF-8" standalone="no"?>
<!DOCTYPE svg PUBLIC "-//W3C//DTD SVG 1.1//EN"
 "http://www.w3.org/Graphics/SVG/1.1/DTD/svg11.dtd">
<!-- Generated by graphviz version 2.43.0 (0)
 -->
<!-- Title: VolumeControl.SDK.ListDisplayTarget Pages: 1 -->
<svg width="419pt" height="435pt"
 viewBox="0.00 0.00 419.00 435.00" xmlns="http://www.w3.org/2000/svg" xmlns:xlink="http://www.w3.org/1999/xlink">
<g id="graph0" class="graph" transform="scale(1 1) rotate(0) translate(4 431)">
<title>VolumeControl.SDK.ListDisplayTarget</title>
<!-- Node1 -->
<g id="node1" class="node">
<title>Node1</title>
<g id="a_node1"><a xlink:title="Wrapper object for a ListNotification display target. &#160;This provides the necessary interaction interf...">
<polygon fill="#bfbfbf" stroke="black" points="105.5,-0.5 105.5,-277.5 281.5,-277.5 281.5,-0.5 105.5,-0.5"/>
<text text-anchor="start" x="113.5" y="-265.5" font-family="Helvetica,sans-Serif" font-size="10.00">VolumeControl.SDK.ListDisplay</text>
<text text-anchor="middle" x="193.5" y="-254.5" font-family="Helvetica,sans-Serif" font-size="10.00">Target</text>
<polyline fill="none" stroke="black" points="105.5,-247.5 281.5,-247.5 "/>
<text text-anchor="start" x="113.5" y="-235.5" font-family="Helvetica,sans-Serif" font-size="10.00">+ BackgroundProperty</text>
<text text-anchor="start" x="113.5" y="-224.5" font-family="Helvetica,sans-Serif" font-size="10.00">+ LockSelectionProperty</text>
<text text-anchor="start" x="113.5" y="-213.5" font-family="Helvetica,sans-Serif" font-size="10.00">+ IconProperty</text>
<text text-anchor="start" x="113.5" y="-202.5" font-family="Helvetica,sans-Serif" font-size="10.00">+ ItemsSourceProperty</text>
<text text-anchor="start" x="113.5" y="-191.5" font-family="Helvetica,sans-Serif" font-size="10.00">+ SelectedItemProperty</text>
<text text-anchor="start" x="113.5" y="-180.5" font-family="Helvetica,sans-Serif" font-size="10.00">+ SelectedItemControlsProperty</text>
<text text-anchor="start" x="113.5" y="-169.5" font-family="Helvetica,sans-Serif" font-size="10.00">+ IsSelected</text>
<text text-anchor="start" x="113.5" y="-158.5" font-family="Helvetica,sans-Serif" font-size="10.00">+ Name</text>
<text text-anchor="start" x="113.5" y="-147.5" font-family="Helvetica,sans-Serif" font-size="10.00">+ Background</text>
<text text-anchor="start" x="113.5" y="-136.5" font-family="Helvetica,sans-Serif" font-size="10.00">+ LockSelection</text>
<text text-anchor="start" x="113.5" y="-125.5" font-family="Helvetica,sans-Serif" font-size="10.00">+ Icon</text>
<text text-anchor="start" x="113.5" y="-114.5" font-family="Helvetica,sans-Serif" font-size="10.00">+ ItemsSource</text>
<text text-anchor="start" x="113.5" y="-103.5" font-family="Helvetica,sans-Serif" font-size="10.00">+ SelectedItem</text>
<text text-anchor="start" x="113.5" y="-92.5" font-family="Helvetica,sans-Serif" font-size="10.00">+ SelectedItemControls</text>
<text text-anchor="start" x="113.5" y="-81.5" font-family="Helvetica,sans-Serif" font-size="10.00">+ ConditionalShowTriggers</text>
<polyline fill="none" stroke="black" points="105.5,-74.5 281.5,-74.5 "/>
<text text-anchor="start" x="113.5" y="-62.5" font-family="Helvetica,sans-Serif" font-size="10.00">+ ListDisplayTarget()</text>
<text text-anchor="start" x="113.5" y="-51.5" font-family="Helvetica,sans-Serif" font-size="10.00">+ ListDisplayTarget()</text>
<text text-anchor="start" x="113.5" y="-40.5" font-family="Helvetica,sans-Serif" font-size="10.00">+ ListDisplayConditional()</text>
<text text-anchor="start" x="113.5" y="-29.5" font-family="Helvetica,sans-Serif" font-size="10.00">+ Show()</text>
<text text-anchor="start" x="113.5" y="-18.5" font-family="Helvetica,sans-Serif" font-size="10.00">+ SetBinding()</text>
<text text-anchor="start" x="113.5" y="-7.5" font-family="Helvetica,sans-Serif" font-size="10.00">+ AddConditionalEventForward()</text>
</a>
</g>
</g>
<!-- Node2 -->
<g id="node2" class="node">
<title>Node2</title>
<g id="a_node2"><a xlink:title=" ">
<polygon fill="none" stroke="#bfbfbf" points="0,-342 0,-399 109,-399 109,-342 0,-342"/>
<text text-anchor="middle" x="54.5" y="-387" font-family="Helvetica,sans-Serif" font-size="10.00">DependencyObject</text>
<polyline fill="none" stroke="#bfbfbf" points="0,-380 109,-380 "/>
<text text-anchor="middle" x="54.5" y="-368" font-family="Helvetica,sans-Serif" font-size="10.00"> </text>
<polyline fill="none" stroke="#bfbfbf" points="0,-361 109,-361 "/>
<text text-anchor="middle" x="54.5" y="-349" font-family="Helvetica,sans-Serif" font-size="10.00"> </text>
</a>
</g>
</g>
<!-- Node2&#45;&gt;Node1 -->
<g id="edge1" class="edge">
<title>Node2&#45;&gt;Node1</title>
<path fill="none" stroke="midnightblue" d="M76.58,-333.04C86.07,-317.38 97.81,-297.99 110.17,-277.59"/>
<polygon fill="none" stroke="midnightblue" points="73.45,-331.45 71.27,-341.82 79.44,-335.08 73.45,-331.45"/>
</g>
<!-- Node3 -->
<g id="node3" class="node">
<title>Node3</title>
<g id="a_node3"><a xlink:href="interface_volume_control_1_1_s_d_k_1_1_interfaces_1_1_i_list_display_target.html" target="_top" xlink:title="Represents a ListDisplayTarget.">
<polygon fill="none" stroke="black" points="127,-314.5 127,-426.5 260,-426.5 260,-314.5 127,-314.5"/>
<text text-anchor="middle" x="193.5" y="-414.5" font-family="Helvetica,sans-Serif" font-size="10.00">IListDisplayTarget</text>
<polyline fill="none" stroke="black" points="127,-407.5 260,-407.5 "/>
<text text-anchor="start" x="135" y="-395.5" font-family="Helvetica,sans-Serif" font-size="10.00">+ Background</text>
<text text-anchor="start" x="135" y="-384.5" font-family="Helvetica,sans-Serif" font-size="10.00">+ LockSelection</text>
<text text-anchor="start" x="135" y="-373.5" font-family="Helvetica,sans-Serif" font-size="10.00">+ Icon</text>
<text text-anchor="start" x="135" y="-362.5" font-family="Helvetica,sans-Serif" font-size="10.00">+ ItemsSource</text>
<text text-anchor="start" x="135" y="-351.5" font-family="Helvetica,sans-Serif" font-size="10.00">+ SelectedItem</text>
<text text-anchor="start" x="135" y="-340.5" font-family="Helvetica,sans-Serif" font-size="10.00">+ SelectedItemControls</text>
<polyline fill="none" stroke="black" points="127,-333.5 260,-333.5 "/>
<text text-anchor="middle" x="193.5" y="-321.5" font-family="Helvetica,sans-Serif" font-size="10.00"> </text>
</a>
</g>
</g>
<!-- Node3&#45;&gt;Node1 -->
<g id="edge2" class="edge">
<title>Node3&#45;&gt;Node1</title>
<path fill="none" stroke="midnightblue" d="M193.5,-304.21C193.5,-295.8 193.5,-286.95 193.5,-277.9"/>
<polygon fill="none" stroke="midnightblue" points="190,-304.24 193.5,-314.24 197,-304.24 190,-304.24"/>
</g>
<!-- Node4 -->
<g id="node4" class="node">
<title>Node4</title>
<g id="a_node4"><a xlink:title=" ">
<polygon fill="none" stroke="#bfbfbf" points="278,-342 278,-399 411,-399 411,-342 278,-342"/>
<text text-anchor="middle" x="344.5" y="-387" font-family="Helvetica,sans-Serif" font-size="10.00">INotifyPropertyChanged</text>
<polyline fill="none" stroke="#bfbfbf" points="278,-380 411,-380 "/>
<text text-anchor="middle" x="344.5" y="-368" font-family="Helvetica,sans-Serif" font-size="10.00"> </text>
<polyline fill="none" stroke="#bfbfbf" points="278,-361 411,-361 "/>
<text text-anchor="middle" x="344.5" y="-349" font-family="Helvetica,sans-Serif" font-size="10.00"> </text>
</a>
</g>
</g>
<!-- Node4&#45;&gt;Node1 -->
<g id="edge3" class="edge">
<title>Node4&#45;&gt;Node1</title>
<path fill="none" stroke="midnightblue" d="M320.52,-333.05C309.6,-316.45 295.93,-295.68 281.64,-273.96"/>
<polygon fill="none" stroke="midnightblue" points="317.87,-335.39 326.29,-341.82 323.71,-331.54 317.87,-335.39"/>
</g>
</g>
</svg>
