<?xml version="1.0" encoding="UTF-8" standalone="no"?>
<!DOCTYPE svg PUBLIC "-//W3C//DTD SVG 1.1//EN"
 "http://www.w3.org/Graphics/SVG/1.1/DTD/svg11.dtd">
<!-- Generated by graphviz version 2.43.0 (0)
 -->
<!-- Title: VolumeControl.CoreAudio.AudioDevice Pages: 1 -->
<svg width="623pt" height="391pt"
 viewBox="0.00 0.00 622.50 391.00" xmlns="http://www.w3.org/2000/svg" xmlns:xlink="http://www.w3.org/1999/xlink">
<g id="graph0" class="graph" transform="scale(1 1) rotate(0) translate(4 387)">
<title>VolumeControl.CoreAudio.AudioDevice</title>
<!-- Node1 -->
<g id="node1" class="node">
<title>Node1</title>
<g id="a_node1"><a xlink:title="An audio endpoint device.">
<polygon fill="#bfbfbf" stroke="black" points="245,-0.5 245,-255.5 390,-255.5 390,-0.5 245,-0.5"/>
<text text-anchor="start" x="253" y="-243.5" font-family="Helvetica,sans-Serif" font-size="10.00">VolumeControl.CoreAudio.</text>
<text text-anchor="middle" x="317.5" y="-232.5" font-family="Helvetica,sans-Serif" font-size="10.00">AudioDevice</text>
<polyline fill="none" stroke="black" points="245,-225.5 390,-225.5 "/>
<text text-anchor="start" x="253" y="-213.5" font-family="Helvetica,sans-Serif" font-size="10.00">+ MMDevice</text>
<text text-anchor="start" x="253" y="-202.5" font-family="Helvetica,sans-Serif" font-size="10.00">+ AudioMeterInformation</text>
<text text-anchor="start" x="253" y="-191.5" font-family="Helvetica,sans-Serif" font-size="10.00">+ SessionManager</text>
<text text-anchor="start" x="253" y="-180.5" font-family="Helvetica,sans-Serif" font-size="10.00">+ DataFlow</text>
<text text-anchor="start" x="253" y="-169.5" font-family="Helvetica,sans-Serif" font-size="10.00">+ FullName</text>
<text text-anchor="start" x="253" y="-158.5" font-family="Helvetica,sans-Serif" font-size="10.00">+ Name</text>
<text text-anchor="start" x="253" y="-147.5" font-family="Helvetica,sans-Serif" font-size="10.00">+ ID</text>
<text text-anchor="start" x="253" y="-136.5" font-family="Helvetica,sans-Serif" font-size="10.00">+ IsDefault</text>
<text text-anchor="start" x="253" y="-125.5" font-family="Helvetica,sans-Serif" font-size="10.00">+ IconPath</text>
<text text-anchor="start" x="253" y="-114.5" font-family="Helvetica,sans-Serif" font-size="10.00">+ NativeVolume</text>
<text text-anchor="start" x="253" y="-103.5" font-family="Helvetica,sans-Serif" font-size="10.00">+ Volume</text>
<text text-anchor="start" x="253" y="-92.5" font-family="Helvetica,sans-Serif" font-size="10.00">+ Mute</text>
<text text-anchor="start" x="253" y="-81.5" font-family="Helvetica,sans-Serif" font-size="10.00">+ PeakMeterValue</text>
<polyline fill="none" stroke="black" points="245,-74.5 390,-74.5 "/>
<text text-anchor="start" x="253" y="-62.5" font-family="Helvetica,sans-Serif" font-size="10.00">+ Dispose()</text>
<text text-anchor="start" x="253" y="-51.5" font-family="Helvetica,sans-Serif" font-size="10.00">+ ToString()</text>
<text text-anchor="start" x="253" y="-40.5" font-family="Helvetica,sans-Serif" font-size="10.00">~ AudioDevice()</text>
<text text-anchor="start" x="253" y="-29.5" font-family="Helvetica,sans-Serif" font-size="10.00">~ RefreshSessions()</text>
<text text-anchor="start" x="253" y="-18.5" font-family="Helvetica,sans-Serif" font-size="10.00">~ GetSessionControl()</text>
<text text-anchor="start" x="253" y="-7.5" font-family="Helvetica,sans-Serif" font-size="10.00">~ GetAllSessionControls()</text>
</a>
</g>
</g>
<!-- Node2 -->
<g id="node2" class="node">
<title>Node2</title>
<g id="a_node2"><a xlink:href="interface_volume_control_1_1_core_audio_1_1_interfaces_1_1_i_audio_control.html" target="_top" xlink:title="Represents an audio instance with a controllable volume level and mute state.">
<polygon fill="none" stroke="black" points="0,-292.5 0,-382.5 97,-382.5 97,-292.5 0,-292.5"/>
<text text-anchor="middle" x="48.5" y="-370.5" font-family="Helvetica,sans-Serif" font-size="10.00">IAudioControl</text>
<polyline fill="none" stroke="black" points="0,-363.5 97,-363.5 "/>
<text text-anchor="start" x="8" y="-351.5" font-family="Helvetica,sans-Serif" font-size="10.00">+ NativeVolume</text>
<text text-anchor="start" x="8" y="-340.5" font-family="Helvetica,sans-Serif" font-size="10.00">+ Volume</text>
<text text-anchor="start" x="8" y="-329.5" font-family="Helvetica,sans-Serif" font-size="10.00">+ Mute</text>
<text text-anchor="start" x="8" y="-318.5" font-family="Helvetica,sans-Serif" font-size="10.00">+ DataFlow</text>
<polyline fill="none" stroke="black" points="0,-311.5 97,-311.5 "/>
<text text-anchor="middle" x="48.5" y="-299.5" font-family="Helvetica,sans-Serif" font-size="10.00"> </text>
</a>
</g>
</g>
<!-- Node2&#45;&gt;Node1 -->
<g id="edge1" class="edge">
<title>Node2&#45;&gt;Node1</title>
<path fill="none" stroke="midnightblue" d="M105.14,-292.81C145.8,-261.45 200.92,-218.93 244.82,-185.07"/>
<polygon fill="none" stroke="midnightblue" points="102.99,-290.04 97.21,-298.92 107.27,-295.59 102.99,-290.04"/>
</g>
<!-- Node3 -->
<g id="node3" class="node">
<title>Node3</title>
<g id="a_node3"><a xlink:href="interface_volume_control_1_1_core_audio_1_1_interfaces_1_1_i_read_only_audio_control.html" target="_top" xlink:title="Represents an audio instance with a read&#45;only volume level and mute state.">
<polygon fill="none" stroke="black" points="115.5,-292.5 115.5,-382.5 245.5,-382.5 245.5,-292.5 115.5,-292.5"/>
<text text-anchor="middle" x="180.5" y="-370.5" font-family="Helvetica,sans-Serif" font-size="10.00">IReadOnlyAudioControl</text>
<polyline fill="none" stroke="black" points="115.5,-363.5 245.5,-363.5 "/>
<text text-anchor="start" x="123.5" y="-351.5" font-family="Helvetica,sans-Serif" font-size="10.00">+ NativeVolume</text>
<text text-anchor="start" x="123.5" y="-340.5" font-family="Helvetica,sans-Serif" font-size="10.00">+ Volume</text>
<text text-anchor="start" x="123.5" y="-329.5" font-family="Helvetica,sans-Serif" font-size="10.00">+ Mute</text>
<text text-anchor="start" x="123.5" y="-318.5" font-family="Helvetica,sans-Serif" font-size="10.00">+ DataFlow</text>
<polyline fill="none" stroke="black" points="115.5,-311.5 245.5,-311.5 "/>
<text text-anchor="middle" x="180.5" y="-299.5" font-family="Helvetica,sans-Serif" font-size="10.00"> </text>
</a>
</g>
</g>
<!-- Node3&#45;&gt;Node1 -->
<g id="edge2" class="edge">
<title>Node3&#45;&gt;Node1</title>
<path fill="none" stroke="midnightblue" d="M215.1,-284.1C224.24,-270.26 234.45,-254.79 244.79,-239.12"/>
<polygon fill="none" stroke="midnightblue" points="212.14,-282.22 209.55,-292.49 217.98,-286.08 212.14,-282.22"/>
</g>
<!-- Node4 -->
<g id="node4" class="node">
<title>Node4</title>
<g id="a_node4"><a xlink:href="interface_volume_control_1_1_core_audio_1_1_interfaces_1_1_i_audio_peak_meter.html" target="_top" xlink:title="Represents some kind of object that has an audio peak meter.">
<polygon fill="none" stroke="black" points="264,-309 264,-366 371,-366 371,-309 264,-309"/>
<text text-anchor="middle" x="317.5" y="-354" font-family="Helvetica,sans-Serif" font-size="10.00">IAudioPeakMeter</text>
<polyline fill="none" stroke="black" points="264,-347 371,-347 "/>
<text text-anchor="start" x="272" y="-335" font-family="Helvetica,sans-Serif" font-size="10.00">+ PeakMeterValue</text>
<polyline fill="none" stroke="black" points="264,-328 371,-328 "/>
<text text-anchor="middle" x="317.5" y="-316" font-family="Helvetica,sans-Serif" font-size="10.00"> </text>
</a>
</g>
</g>
<!-- Node4&#45;&gt;Node1 -->
<g id="edge3" class="edge">
<title>Node4&#45;&gt;Node1</title>
<path fill="none" stroke="midnightblue" d="M317.5,-298.87C317.5,-286.21 317.5,-271.29 317.5,-255.64"/>
<polygon fill="none" stroke="midnightblue" points="314,-298.95 317.5,-308.95 321,-298.95 314,-298.95"/>
</g>
<!-- Node5 -->
<g id="node5" class="node">
<title>Node5</title>
<g id="a_node5"><a xlink:title=" ">
<polygon fill="none" stroke="#bfbfbf" points="389,-309 389,-366 522,-366 522,-309 389,-309"/>
<text text-anchor="middle" x="455.5" y="-354" font-family="Helvetica,sans-Serif" font-size="10.00">INotifyPropertyChanged</text>
<polyline fill="none" stroke="#bfbfbf" points="389,-347 522,-347 "/>
<text text-anchor="middle" x="455.5" y="-335" font-family="Helvetica,sans-Serif" font-size="10.00"> </text>
<polyline fill="none" stroke="#bfbfbf" points="389,-328 522,-328 "/>
<text text-anchor="middle" x="455.5" y="-316" font-family="Helvetica,sans-Serif" font-size="10.00"> </text>
</a>
</g>
</g>
<!-- Node5&#45;&gt;Node1 -->
<g id="edge4" class="edge">
<title>Node5&#45;&gt;Node1</title>
<path fill="none" stroke="midnightblue" d="M431.39,-300.24C419.77,-282.77 405.15,-260.79 390.29,-238.46"/>
<polygon fill="none" stroke="midnightblue" points="428.72,-302.56 437.17,-308.95 434.55,-298.68 428.72,-302.56"/>
</g>
<!-- Node6 -->
<g id="node6" class="node">
<title>Node6</title>
<g id="a_node6"><a xlink:title=" ">
<polygon fill="none" stroke="#bfbfbf" points="540.5,-309 540.5,-366 614.5,-366 614.5,-309 540.5,-309"/>
<text text-anchor="middle" x="577.5" y="-354" font-family="Helvetica,sans-Serif" font-size="10.00">IDisposable</text>
<polyline fill="none" stroke="#bfbfbf" points="540.5,-347 614.5,-347 "/>
<text text-anchor="middle" x="577.5" y="-335" font-family="Helvetica,sans-Serif" font-size="10.00"> </text>
<polyline fill="none" stroke="#bfbfbf" points="540.5,-328 614.5,-328 "/>
<text text-anchor="middle" x="577.5" y="-316" font-family="Helvetica,sans-Serif" font-size="10.00"> </text>
</a>
</g>
</g>
<!-- Node6&#45;&gt;Node1 -->
<g id="edge5" class="edge">
<title>Node6&#45;&gt;Node1</title>
<path fill="none" stroke="midnightblue" d="M542.42,-301.75C538.78,-298.4 535.1,-295.1 531.5,-292 485.98,-252.89 432.24,-211.97 390,-180.92"/>
<polygon fill="none" stroke="midnightblue" points="540.09,-304.37 549.77,-308.66 544.88,-299.26 540.09,-304.37"/>
</g>
</g>
</svg>
