<?xml version="1.0" encoding="UTF-8" standalone="no"?>
<!DOCTYPE svg PUBLIC "-//W3C//DTD SVG 1.1//EN"
 "http://www.w3.org/Graphics/SVG/1.1/DTD/svg11.dtd">
<!-- Generated by graphviz version 2.43.0 (0)
 -->
<!-- Title: VolumeControl.HotkeyActions.VolumeLevel_NumericUpDown_DataTemplateProvider Pages: 1 -->
<svg width="189pt" height="320pt"
 viewBox="0.00 0.00 189.00 320.00" xmlns="http://www.w3.org/2000/svg" xmlns:xlink="http://www.w3.org/1999/xlink">
<g id="graph0" class="graph" transform="scale(1 1) rotate(0) translate(4 316)">
<title>VolumeControl.HotkeyActions.VolumeLevel_NumericUpDown_DataTemplateProvider</title>
<!-- Node1 -->
<g id="node1" class="node">
<title>Node1</title>
<g id="a_node1"><a xlink:title="NumericUpDown_DataTemplateProvider with MinValue 0 and MaxValue 100">
<polygon fill="#bfbfbf" stroke="black" points="7,-0.5 7,-79.5 174,-79.5 174,-0.5 7,-0.5"/>
<text text-anchor="start" x="15" y="-67.5" font-family="Helvetica,sans-Serif" font-size="10.00">VolumeControl.HotkeyActions.</text>
<text text-anchor="start" x="15" y="-56.5" font-family="Helvetica,sans-Serif" font-size="10.00">VolumeLevel_NumericUpDown</text>
<text text-anchor="middle" x="90.5" y="-45.5" font-family="Helvetica,sans-Serif" font-size="10.00">_DataTemplateProvider</text>
<polyline fill="none" stroke="black" points="7,-38.5 174,-38.5 "/>
<text text-anchor="middle" x="90.5" y="-26.5" font-family="Helvetica,sans-Serif" font-size="10.00"> </text>
<polyline fill="none" stroke="black" points="7,-19.5 174,-19.5 "/>
<text text-anchor="start" x="15" y="-7.5" font-family="Helvetica,sans-Serif" font-size="10.00">+ ProvideDataTemplate()</text>
</a>
</g>
</g>
<!-- Node2 -->
<g id="node2" class="node">
<title>Node2</title>
<g id="a_node2"><a xlink:href="class_volume_control_1_1_hotkey_actions_1_1_numeric_up_down___data_template_provider.html" target="_top" xlink:title=" ">
<polygon fill="none" stroke="black" points="4,-116.5 4,-184.5 177,-184.5 177,-116.5 4,-116.5"/>
<text text-anchor="start" x="12" y="-172.5" font-family="Helvetica,sans-Serif" font-size="10.00">NumericUpDown_DataTemplate</text>
<text text-anchor="middle" x="90.5" y="-161.5" font-family="Helvetica,sans-Serif" font-size="10.00">Provider</text>
<polyline fill="none" stroke="black" points="4,-154.5 177,-154.5 "/>
<text text-anchor="middle" x="90.5" y="-142.5" font-family="Helvetica,sans-Serif" font-size="10.00"> </text>
<polyline fill="none" stroke="black" points="4,-135.5 177,-135.5 "/>
<text text-anchor="start" x="12" y="-123.5" font-family="Helvetica,sans-Serif" font-size="10.00"># GetNumericUpDownFactory()</text>
</a>
</g>
</g>
<!-- Node2&#45;&gt;Node1 -->
<g id="edge1" class="edge">
<title>Node2&#45;&gt;Node1</title>
<path fill="none" stroke="midnightblue" d="M90.5,-106.27C90.5,-97.48 90.5,-88.28 90.5,-79.65"/>
<polygon fill="none" stroke="midnightblue" points="87,-106.36 90.5,-116.36 94,-106.36 87,-106.36"/>
</g>
<!-- Node3 -->
<g id="node3" class="node">
<title>Node3</title>
<g id="a_node3"><a xlink:href="class_volume_control_1_1_core_1_1_data_template_provider.html" target="_top" xlink:title="Provides a DataTemplate for some hardcoded type. &#160;The Type of a derived class can be specified for th...">
<polygon fill="none" stroke="black" points="0,-221.5 0,-311.5 181,-311.5 181,-221.5 0,-221.5"/>
<text text-anchor="middle" x="90.5" y="-299.5" font-family="Helvetica,sans-Serif" font-size="10.00">DataTemplateProvider</text>
<polyline fill="none" stroke="black" points="0,-292.5 181,-292.5 "/>
<text text-anchor="middle" x="90.5" y="-280.5" font-family="Helvetica,sans-Serif" font-size="10.00"> </text>
<polyline fill="none" stroke="black" points="0,-273.5 181,-273.5 "/>
<text text-anchor="start" x="8" y="-261.5" font-family="Helvetica,sans-Serif" font-size="10.00">+ ProvideDataTemplate()</text>
<text text-anchor="start" x="8" y="-250.5" font-family="Helvetica,sans-Serif" font-size="10.00">+ LoadEmbeddedXamlResource()</text>
<text text-anchor="start" x="8" y="-239.5" font-family="Helvetica,sans-Serif" font-size="10.00">+ FromEmbeddedResource()</text>
<text text-anchor="start" x="8" y="-228.5" font-family="Helvetica,sans-Serif" font-size="10.00">+ FromEmbeddedResource()</text>
</a>
</g>
</g>
<!-- Node3&#45;&gt;Node2 -->
<g id="edge2" class="edge">
<title>Node3&#45;&gt;Node2</title>
<path fill="none" stroke="midnightblue" d="M90.5,-211.32C90.5,-202.28 90.5,-193.16 90.5,-184.85"/>
<polygon fill="none" stroke="midnightblue" points="87,-211.42 90.5,-221.42 94,-211.42 87,-211.42"/>
</g>
</g>
</svg>
