<?xml version="1.0" encoding="UTF-8" standalone="no"?>
<!DOCTYPE svg PUBLIC "-//W3C//DTD SVG 1.1//EN"
 "http://www.w3.org/Graphics/SVG/1.1/DTD/svg11.dtd">
<!-- Generated by graphviz version 2.43.0 (0)
 -->
<!-- Title: VolumeControl.Log.LogWriter.Warning Pages: 1 -->
<svg width="564pt" height="181pt"
 viewBox="0.00 0.00 564.00 181.00" xmlns="http://www.w3.org/2000/svg" xmlns:xlink="http://www.w3.org/1999/xlink">
<g id="graph0" class="graph" transform="scale(1 1) rotate(0) translate(4 177)">
<title>VolumeControl.Log.LogWriter.Warning</title>
<!-- Node1 -->
<g id="node1" class="node">
<title>Node1</title>
<g id="a_node1"><a xlink:title="Write a formatted EventType.WARN message to the log endpoint.">
<polygon fill="#bfbfbf" stroke="black" points="395,-73.5 395,-103.5 556,-103.5 556,-73.5 395,-73.5"/>
<text text-anchor="start" x="403" y="-91.5" font-family="Helvetica,sans-Serif" font-size="10.00">VolumeControl.Log.LogWriter.</text>
<text text-anchor="middle" x="475.5" y="-80.5" font-family="Helvetica,sans-Serif" font-size="10.00">Warning</text>
</a>
</g>
</g>
<!-- Node2 -->
<g id="node2" class="node">
<title>Node2</title>
<g id="a_node2"><a xlink:href="class_volume_control_1_1_audio_1_1_audio_device.html#ab0260c210a99e81c0f78deef4abeeb7e" target="_top" xlink:title=" ">
<polygon fill="none" stroke="black" points="0,-142.5 0,-172.5 150,-172.5 150,-142.5 0,-142.5"/>
<text text-anchor="start" x="8" y="-160.5" font-family="Helvetica,sans-Serif" font-size="10.00">VolumeControl.Audio.Audio</text>
<text text-anchor="middle" x="75" y="-149.5" font-family="Helvetica,sans-Serif" font-size="10.00">Device.GetIcons</text>
</a>
</g>
</g>
<!-- Node1&#45;&gt;Node2 -->
<g id="edge1" class="edge">
<title>Node1&#45;&gt;Node2</title>
<path fill="none" stroke="midnightblue" d="M437.4,-107.96C415.27,-118.61 386.24,-130.95 359,-137.5 289.44,-154.22 207.71,-158.41 150.01,-158.9"/>
<polygon fill="midnightblue" stroke="midnightblue" points="439.01,-111.07 446.45,-103.52 435.93,-104.78 439.01,-111.07"/>
</g>
<!-- Node3 -->
<g id="node3" class="node">
<title>Node3</title>
<g id="a_node3"><a xlink:href="class_volume_control_1_1_w_p_f_1_1_icon_getter.html#ae57feab69f052d45a780d8153d87af54" target="_top" xlink:title="Gets the large and small variants of the specified icon from the specified DLL.">
<polygon fill="none" stroke="black" points="188.5,-98.5 188.5,-128.5 356.5,-128.5 356.5,-98.5 188.5,-98.5"/>
<text text-anchor="start" x="196.5" y="-116.5" font-family="Helvetica,sans-Serif" font-size="10.00">VolumeControl.WPF.IconGetter.</text>
<text text-anchor="middle" x="272.5" y="-105.5" font-family="Helvetica,sans-Serif" font-size="10.00">GetIcons</text>
</a>
</g>
</g>
<!-- Node1&#45;&gt;Node3 -->
<g id="edge2" class="edge">
<title>Node1&#45;&gt;Node3</title>
<path fill="none" stroke="midnightblue" d="M384.73,-99.66C375.43,-100.82 365.99,-102 356.76,-103.14"/>
<polygon fill="midnightblue" stroke="midnightblue" points="385.28,-103.12 394.77,-98.42 384.42,-96.18 385.28,-103.12"/>
</g>
<!-- Node5 -->
<g id="node5" class="node">
<title>Node5</title>
<g id="a_node5"><a xlink:href="class_volume_control_1_1_s_d_k_1_1_internal_1_1_initializer.html#a554bed73713974e7844b1fb940b0a63b" target="_top" xlink:title=" ">
<polygon fill="none" stroke="black" points="195,-49.5 195,-79.5 350,-79.5 350,-49.5 195,-49.5"/>
<text text-anchor="start" x="203" y="-67.5" font-family="Helvetica,sans-Serif" font-size="10.00">VolumeControl.SDK.Internal.</text>
<text text-anchor="middle" x="272.5" y="-56.5" font-family="Helvetica,sans-Serif" font-size="10.00">Initializer.Initialize</text>
</a>
</g>
</g>
<!-- Node1&#45;&gt;Node5 -->
<g id="edge5" class="edge">
<title>Node1&#45;&gt;Node5</title>
<path fill="none" stroke="midnightblue" d="M384.71,-77.78C373.18,-76.4 361.47,-75 350.18,-73.66"/>
<polygon fill="midnightblue" stroke="midnightblue" points="384.43,-81.27 394.77,-78.98 385.26,-74.32 384.43,-81.27"/>
</g>
<!-- Node6 -->
<g id="node6" class="node">
<title>Node6</title>
<g id="a_node6"><a xlink:href="class_volume_control_1_1_w_p_f_1_1_h_wnd_hook.html#af0585367ed6c7c839158d03f4fd73830" target="_top" xlink:title="Removes a message handler.">
<polygon fill="none" stroke="black" points="186,-0.5 186,-30.5 359,-30.5 359,-0.5 186,-0.5"/>
<text text-anchor="start" x="194" y="-18.5" font-family="Helvetica,sans-Serif" font-size="10.00">VolumeControl.WPF.HWndHook.</text>
<text text-anchor="middle" x="272.5" y="-7.5" font-family="Helvetica,sans-Serif" font-size="10.00">RemoveHook</text>
</a>
</g>
</g>
<!-- Node1&#45;&gt;Node6 -->
<g id="edge6" class="edge">
<title>Node1&#45;&gt;Node6</title>
<path fill="none" stroke="midnightblue" d="M432.81,-69.29C411.07,-59.67 383.89,-48.23 359,-39.5 349.98,-36.34 340.31,-33.3 330.84,-30.51"/>
<polygon fill="midnightblue" stroke="midnightblue" points="431.52,-72.55 442.08,-73.43 434.38,-66.16 431.52,-72.55"/>
</g>
<!-- Node3&#45;&gt;Node2 -->
<g id="edge3" class="edge">
<title>Node3&#45;&gt;Node2</title>
<path fill="none" stroke="midnightblue" d="M194.77,-130.77C177.59,-134.64 159.5,-138.71 142.76,-142.47"/>
<polygon fill="midnightblue" stroke="midnightblue" points="195.78,-134.13 204.77,-128.52 194.24,-127.3 195.78,-134.13"/>
</g>
<!-- Node4 -->
<g id="node4" class="node">
<title>Node4</title>
<g id="a_node4"><a xlink:href="class_volume_control_1_1_audio_1_1_audio_session.html#ac0154b840ada9e66ac201e3660ec714c" target="_top" xlink:title=" ">
<polygon fill="none" stroke="black" points="0,-93.5 0,-123.5 150,-123.5 150,-93.5 0,-93.5"/>
<text text-anchor="start" x="8" y="-111.5" font-family="Helvetica,sans-Serif" font-size="10.00">VolumeControl.Audio.Audio</text>
<text text-anchor="middle" x="75" y="-100.5" font-family="Helvetica,sans-Serif" font-size="10.00">Session.GetIcons</text>
</a>
</g>
</g>
<!-- Node3&#45;&gt;Node4 -->
<g id="edge4" class="edge">
<title>Node3&#45;&gt;Node4</title>
<path fill="none" stroke="midnightblue" d="M178.15,-111.11C168.75,-110.87 159.3,-110.63 150.15,-110.4"/>
<polygon fill="midnightblue" stroke="midnightblue" points="178.22,-114.62 188.31,-111.37 178.4,-107.62 178.22,-114.62"/>
</g>
</g>
</svg>
