<?xml version="1.0" encoding="UTF-8" standalone="no"?>
<!DOCTYPE svg PUBLIC "-//W3C//DTD SVG 1.1//EN"
 "http://www.w3.org/Graphics/SVG/1.1/DTD/svg11.dtd">
<!-- Generated by graphviz version 2.43.0 (0)
 -->
<!-- Title: VolumeControl.Core.Input.Actions.HotkeyActionInstance.Invoke Pages: 1 -->
<svg width="412pt" height="198pt"
 viewBox="0.00 0.00 412.00 198.00" xmlns="http://www.w3.org/2000/svg" xmlns:xlink="http://www.w3.org/1999/xlink">
<g id="graph0" class="graph" transform="scale(1 1) rotate(0) translate(4 194)">
<title>VolumeControl.Core.Input.Actions.HotkeyActionInstance.Invoke</title>
<!-- Node1 -->
<g id="node1" class="node">
<title>Node1</title>
<g id="a_node1"><a xlink:title="Invokes the method specified by the HotkeyActionDefinition">
<polygon fill="#bfbfbf" stroke="black" points="0,-82.5 0,-112.5 197,-112.5 197,-82.5 0,-82.5"/>
<text text-anchor="start" x="8" y="-100.5" font-family="Helvetica,sans-Serif" font-size="10.00">VolumeControl.Core.Input.</text>
<text text-anchor="middle" x="98.5" y="-89.5" font-family="Helvetica,sans-Serif" font-size="10.00">Actions.HotkeyActionInstance.Invoke</text>
</a>
</g>
</g>
<!-- Node2 -->
<g id="node2" class="node">
<title>Node2</title>
<g id="a_node2"><a xlink:href="class_volume_control_1_1_log_1_1_log_writer.html#ae7780f22869e53ce4a1aad3fc6fa0bf7" target="_top" xlink:title="Write a formatted EventType.ERROR message to the log endpoint.">
<polygon fill="none" stroke="black" points="238,-159.5 238,-189.5 399,-189.5 399,-159.5 238,-159.5"/>
<text text-anchor="start" x="246" y="-177.5" font-family="Helvetica,sans-Serif" font-size="10.00">VolumeControl.Log.LogWriter.</text>
<text text-anchor="middle" x="318.5" y="-166.5" font-family="Helvetica,sans-Serif" font-size="10.00">Error</text>
</a>
</g>
</g>
<!-- Node1&#45;&gt;Node2 -->
<g id="edge1" class="edge">
<title>Node1&#45;&gt;Node2</title>
<path fill="none" stroke="midnightblue" d="M134.55,-112.54C161.27,-123.73 199.12,-138.99 233,-150.5 238.97,-152.53 245.22,-154.53 251.49,-156.45"/>
<polygon fill="midnightblue" stroke="midnightblue" points="250.76,-159.89 261.35,-159.41 252.78,-153.18 250.76,-159.89"/>
</g>
<!-- Node3 -->
<g id="node3" class="node">
<title>Node3</title>
<g id="a_node3"><a xlink:href="class_volume_control_1_1_log_1_1_log_writer.html#a927e2b5b79ae2c3a0b243246bb2e5a3d" target="_top" xlink:title="Determines whether the given EventType should be written to the Endpoint or not.">
<polygon fill="none" stroke="black" points="238,-110.5 238,-140.5 399,-140.5 399,-110.5 238,-110.5"/>
<text text-anchor="start" x="246" y="-128.5" font-family="Helvetica,sans-Serif" font-size="10.00">VolumeControl.Log.LogWriter.</text>
<text text-anchor="middle" x="318.5" y="-117.5" font-family="Helvetica,sans-Serif" font-size="10.00">FilterEventType</text>
</a>
</g>
</g>
<!-- Node1&#45;&gt;Node3 -->
<g id="edge2" class="edge">
<title>Node1&#45;&gt;Node3</title>
<path fill="none" stroke="midnightblue" d="M197.02,-110.03C207.23,-111.34 217.56,-112.66 227.68,-113.96"/>
<polygon fill="midnightblue" stroke="midnightblue" points="227.33,-117.45 237.7,-115.25 228.23,-110.5 227.33,-117.45"/>
</g>
<!-- Node4 -->
<g id="node4" class="node">
<title>Node4</title>
<g id="a_node4"><a xlink:href="class_volume_control_1_1_core_1_1_input_1_1_actions_1_1_hotkey_action_definition.html#ad2bd456f883ab4794fd4d81a3d92a773" target="_top" xlink:title="Directly invokes the method specified by ActionMethodInfo with the specified parameters .">
<polygon fill="none" stroke="black" points="233,-50 233,-91 404,-91 404,-50 233,-50"/>
<text text-anchor="start" x="241" y="-79" font-family="Helvetica,sans-Serif" font-size="10.00">VolumeControl.Core.Input.</text>
<text text-anchor="start" x="241" y="-68" font-family="Helvetica,sans-Serif" font-size="10.00">Actions.HotkeyActionDefinition.</text>
<text text-anchor="middle" x="318.5" y="-57" font-family="Helvetica,sans-Serif" font-size="10.00">Invoke_Unsafe</text>
</a>
</g>
</g>
<!-- Node1&#45;&gt;Node4 -->
<g id="edge3" class="edge">
<title>Node1&#45;&gt;Node4</title>
<path fill="none" stroke="midnightblue" d="M197.02,-85.42C205.58,-84.36 214.23,-83.29 222.76,-82.23"/>
<polygon fill="midnightblue" stroke="midnightblue" points="223.22,-85.7 232.71,-81 222.36,-78.76 223.22,-85.7"/>
</g>
<!-- Node5 -->
<g id="node5" class="node">
<title>Node5</title>
<g id="a_node5"><a xlink:href="class_volume_control_1_1_log_1_1_log_writer.html#af0f88b0317ce8060aa063802c6742068" target="_top" xlink:title="Write a formatted EventType.TRACE message to the log endpoint.">
<polygon fill="none" stroke="black" points="238,-0.5 238,-30.5 399,-30.5 399,-0.5 238,-0.5"/>
<text text-anchor="start" x="246" y="-18.5" font-family="Helvetica,sans-Serif" font-size="10.00">VolumeControl.Log.LogWriter.</text>
<text text-anchor="middle" x="318.5" y="-7.5" font-family="Helvetica,sans-Serif" font-size="10.00">Trace</text>
</a>
</g>
</g>
<!-- Node1&#45;&gt;Node5 -->
<g id="edge4" class="edge">
<title>Node1&#45;&gt;Node5</title>
<path fill="none" stroke="midnightblue" d="M131.72,-82.49C158.51,-70.33 197.79,-53.18 233,-40.5 239.48,-38.17 246.29,-35.88 253.12,-33.7"/>
<polygon fill="midnightblue" stroke="midnightblue" points="254.6,-36.9 263.1,-30.58 252.52,-30.22 254.6,-36.9"/>
</g>
</g>
</svg>
