<?xml version="1.0" encoding="UTF-8" standalone="no"?>
<!DOCTYPE svg PUBLIC "-//W3C//DTD SVG 1.1//EN"
 "http://www.w3.org/Graphics/SVG/1.1/DTD/svg11.dtd">
<!-- Generated by graphviz version 2.43.0 (0)
 -->
<!-- Title: VolumeControl.Audio.AudioAPI Pages: 1 -->
<!--zoomable 1098 -->
<svg id="main" version="1.1" xmlns="http://www.w3.org/2000/svg" xmlns:xlink="http://www.w3.org/1999/xlink" xml:space="preserve" onload="init(evt)">
<style type="text/css"><![CDATA[
.edge:hover path { stroke: red; }
.edge:hover polygon { stroke: red; fill: red; }
]]></style>
<script type="text/javascript"><![CDATA[
var edges = document.getElementsByTagName('g');
if (edges && edges.length) {
  for (var i=0;i<edges.length;i++) {
    if (edges[i].id.substr(0,4)=='edge') {
      edges[i].setAttribute('class','edge');
    }
  }
}
]]></script>
        <defs>
                <circle id="rim" cx="0" cy="0" r="7"/>
                <circle id="rim2" cx="0" cy="0" r="3.5"/>
                <g id="zoomPlus">
                        <use xlink:href="#rim" fill="#404040">
                                <set attributeName="fill" to="#808080" begin="zoomplus.mouseover" end="zoomplus.mouseout"/>
                        </use>
                        <path d="M-4,0h8M0,-4v8" fill="none" stroke="white" stroke-width="1.5" pointer-events="none"/>
                </g>
                <g id="zoomMin">
                        <use xlink:href="#rim" fill="#404040">
                                <set attributeName="fill" to="#808080" begin="zoomminus.mouseover" end="zoomminus.mouseout"/>
                        </use>
                        <path d="M-4,0h8" fill="none" stroke="white" stroke-width="1.5" pointer-events="none"/>
                </g>
                <g id="dirArrow">
                        <path fill="none" stroke="white" stroke-width="1.5" d="M0,-3.0v7 M-2.5,-0.5L0,-3.0L2.5,-0.5"/>
                </g>
               <g id="resetDef">
                       <use xlink:href="#rim2" fill="#404040">
                               <set attributeName="fill" to="#808080" begin="reset.mouseover" end="reset.mouseout"/>
                       </use>
               </g>
        </defs>

<script type="text/javascript">
var viewWidth = 2097;
var viewHeight = 1098;
var sectionId = 'dynsection-1';
</script>
<script xlink:href="svgpan.js"/>
<svg id="graph" class="graph">
<g id="viewport">
<title>VolumeControl.Audio.AudioAPI</title>
<!-- Node1 -->
<g id="node1" class="node">
<title>Node1</title>
<g id="a_node1"><a xlink:title="Contains methods related to audio devices, sessions, and the underlying selection mechanics responsib...">
<polygon fill="#bfbfbf" stroke="black" points="217.05,-0.5 217.05,-244.5 419.05,-244.5 419.05,-0.5 217.05,-0.5"/>
<text text-anchor="middle" x="318.05" y="-232.5" font-family="Helvetica,sans-Serif" font-size="10.00">VolumeControl.Audio.AudioAPI</text>
<polyline fill="none" stroke="black" points="217.05,-225.5 419.05,-225.5 "/>
<text text-anchor="start" x="225.05" y="-213.5" font-family="Helvetica,sans-Serif" font-size="10.00">+ Devices</text>
<text text-anchor="start" x="225.05" y="-202.5" font-family="Helvetica,sans-Serif" font-size="10.00">+ LockSelectedSession</text>
<text text-anchor="start" x="225.05" y="-191.5" font-family="Helvetica,sans-Serif" font-size="10.00">+ Target</text>
<text text-anchor="start" x="225.05" y="-180.5" font-family="Helvetica,sans-Serif" font-size="10.00">+ TargetGuid</text>
<text text-anchor="start" x="225.05" y="-169.5" font-family="Helvetica,sans-Serif" font-size="10.00">+ VolumeStepSize</text>
<text text-anchor="start" x="225.05" y="-158.5" font-family="Helvetica,sans-Serif" font-size="10.00">+ SelectedSession</text>
<text text-anchor="start" x="225.05" y="-147.5" font-family="Helvetica,sans-Serif" font-size="10.00">+ Sessions</text>
<polyline fill="none" stroke="black" points="217.05,-140.5 419.05,-140.5 "/>
<text text-anchor="start" x="225.05" y="-128.5" font-family="Helvetica,sans-Serif" font-size="10.00">+ AudioAPI()</text>
<text text-anchor="start" x="225.05" y="-117.5" font-family="Helvetica,sans-Serif" font-size="10.00">+ ForceReloadAudioDevices()</text>
<text text-anchor="start" x="225.05" y="-106.5" font-family="Helvetica,sans-Serif" font-size="10.00">+ FindDevice()</text>
<text text-anchor="start" x="225.05" y="-95.5" font-family="Helvetica,sans-Serif" font-size="10.00">+ FindDeviceWithID()</text>
<text text-anchor="start" x="225.05" y="-84.5" font-family="Helvetica,sans-Serif" font-size="10.00">+ ForceReloadSessionList()</text>
<text text-anchor="start" x="225.05" y="-73.5" font-family="Helvetica,sans-Serif" font-size="10.00">+ FindSession()</text>
<text text-anchor="start" x="225.05" y="-62.5" font-family="Helvetica,sans-Serif" font-size="10.00">+ FindSessionWithSessionInstance</text>
<text text-anchor="start" x="225.05" y="-51.5" font-family="Helvetica,sans-Serif" font-size="10.00">Identifier()</text>
<text text-anchor="start" x="225.05" y="-40.5" font-family="Helvetica,sans-Serif" font-size="10.00">+ FindSessionsWithSessionIdentifier()</text>
<text text-anchor="start" x="225.05" y="-29.5" font-family="Helvetica,sans-Serif" font-size="10.00">+ FindSessionWithID()</text>
<text text-anchor="start" x="225.05" y="-18.5" font-family="Helvetica,sans-Serif" font-size="10.00">+ FindSessionWithName()</text>
<text text-anchor="start" x="225.05" y="-7.5" font-family="Helvetica,sans-Serif" font-size="10.00">and 15 more...</text>
</a>
</g>
</g>
<!-- Node2 -->
<g id="node2" class="node">
<title>Node2</title>
<g id="a_node2"><a xlink:title=" ">
<polygon fill="none" stroke="#bfbfbf" points="1843.55,-1032.5 1843.55,-1089.5 1976.55,-1089.5 1976.55,-1032.5 1843.55,-1032.5"/>
<text text-anchor="middle" x="1910.05" y="-1077.5" font-family="Helvetica,sans-Serif" font-size="10.00">INotifyPropertyChanged</text>
<polyline fill="none" stroke="#bfbfbf" points="1843.55,-1070.5 1976.55,-1070.5 "/>
<text text-anchor="middle" x="1910.05" y="-1058.5" font-family="Helvetica,sans-Serif" font-size="10.00"> </text>
<polyline fill="none" stroke="#bfbfbf" points="1843.55,-1051.5 1976.55,-1051.5 "/>
<text text-anchor="middle" x="1910.05" y="-1039.5" font-family="Helvetica,sans-Serif" font-size="10.00"> </text>
</a>
</g>
</g>
<!-- Node2&#45;&gt;Node1 -->
<g id="edge1" class="edge">
<title>Node2&#45;&gt;Node1</title>
<path fill="none" stroke="midnightblue" d="M1833.27,-1060.22C1493.35,-1060.81 137.95,-1059.13 76.05,-995 28.16,-945.38 -97.01,-773.87 141.05,-292 158.81,-256.05 187.58,-223.69 216.81,-197.15"/>
<polygon fill="none" stroke="midnightblue" points="1833.51,-1063.72 1843.51,-1060.2 1833.5,-1056.72 1833.51,-1063.72"/>
</g>
<!-- Node5 -->
<g id="node5" class="node">
<title>Node5</title>
<g id="a_node5"><a xlink:href="class_volume_control_1_1_audio_1_1_audio_device.html" target="_top" xlink:title="Represents an audio device endpoint. Note that this object cannot be constructed externally....">
<polygon fill="none" stroke="black" points="702.05,-292.5 702.05,-855.5 886.05,-855.5 886.05,-292.5 702.05,-292.5"/>
<text text-anchor="start" x="710.05" y="-843.5" font-family="Helvetica,sans-Serif" font-size="10.00">VolumeControl.Audio.Audio</text>
<text text-anchor="middle" x="794.05" y="-832.5" font-family="Helvetica,sans-Serif" font-size="10.00">Device</text>
<polyline fill="none" stroke="black" points="702.05,-825.5 886.05,-825.5 "/>
<text text-anchor="start" x="710.05" y="-813.5" font-family="Helvetica,sans-Serif" font-size="10.00">+ InterfaceName</text>
<text text-anchor="start" x="710.05" y="-802.5" font-family="Helvetica,sans-Serif" font-size="10.00">+ InstanceID</text>
<text text-anchor="start" x="710.05" y="-791.5" font-family="Helvetica,sans-Serif" font-size="10.00">+ IconPath</text>
<text text-anchor="start" x="710.05" y="-780.5" font-family="Helvetica,sans-Serif" font-size="10.00">+ Icon</text>
<text text-anchor="start" x="710.05" y="-769.5" font-family="Helvetica,sans-Serif" font-size="10.00">+ DeviceFriendlyName</text>
<text text-anchor="start" x="710.05" y="-758.5" font-family="Helvetica,sans-Serif" font-size="10.00">+ FriendlyName</text>
<text text-anchor="start" x="710.05" y="-747.5" font-family="Helvetica,sans-Serif" font-size="10.00">+ Properties</text>
<text text-anchor="start" x="710.05" y="-736.5" font-family="Helvetica,sans-Serif" font-size="10.00">+ State</text>
<text text-anchor="start" x="710.05" y="-725.5" font-family="Helvetica,sans-Serif" font-size="10.00">+ SessionManager</text>
<text text-anchor="start" x="710.05" y="-714.5" font-family="Helvetica,sans-Serif" font-size="10.00">+ EndpointVolumeObject</text>
<text text-anchor="start" x="710.05" y="-703.5" font-family="Helvetica,sans-Serif" font-size="10.00">+ IsFixedSize</text>
<text text-anchor="start" x="710.05" y="-692.5" font-family="Helvetica,sans-Serif" font-size="10.00">+ IsReadOnly</text>
<text text-anchor="start" x="710.05" y="-681.5" font-family="Helvetica,sans-Serif" font-size="10.00">+ Count</text>
<text text-anchor="start" x="710.05" y="-670.5" font-family="Helvetica,sans-Serif" font-size="10.00">+ IsSynchronized</text>
<text text-anchor="start" x="710.05" y="-659.5" font-family="Helvetica,sans-Serif" font-size="10.00">+ SyncRoot</text>
<text text-anchor="start" x="710.05" y="-648.5" font-family="Helvetica,sans-Serif" font-size="10.00">+ MMDevice</text>
<text text-anchor="start" x="710.05" y="-637.5" font-family="Helvetica,sans-Serif" font-size="10.00">+ Enabled</text>
<text text-anchor="start" x="710.05" y="-626.5" font-family="Helvetica,sans-Serif" font-size="10.00">+ Name</text>
<text text-anchor="start" x="710.05" y="-615.5" font-family="Helvetica,sans-Serif" font-size="10.00">+ DeviceID</text>
<text text-anchor="start" x="710.05" y="-604.5" font-family="Helvetica,sans-Serif" font-size="10.00">+ Icons</text>
<text text-anchor="start" x="710.05" y="-593.5" font-family="Helvetica,sans-Serif" font-size="10.00">+ VolumeRange</text>
<text text-anchor="start" x="710.05" y="-582.5" font-family="Helvetica,sans-Serif" font-size="10.00">+ NativeEndpointVolume</text>
<text text-anchor="start" x="710.05" y="-571.5" font-family="Helvetica,sans-Serif" font-size="10.00">+ EndpointVolume</text>
<text text-anchor="start" x="710.05" y="-560.5" font-family="Helvetica,sans-Serif" font-size="10.00">+ EndpointMuted</text>
<text text-anchor="start" x="710.05" y="-549.5" font-family="Helvetica,sans-Serif" font-size="10.00">+ Sessions</text>
<text text-anchor="start" x="710.05" y="-538.5" font-family="Helvetica,sans-Serif" font-size="10.00">+ this[int index]</text>
<text text-anchor="start" x="710.05" y="-527.5" font-family="Helvetica,sans-Serif" font-size="10.00">+ this[int index]</text>
<text text-anchor="start" x="710.05" y="-516.5" font-family="Helvetica,sans-Serif" font-size="10.00">+ CollectionChanged</text>
<text text-anchor="start" x="710.05" y="-505.5" font-family="Helvetica,sans-Serif" font-size="10.00">~ float</text>
<polyline fill="none" stroke="black" points="702.05,-498.5 886.05,-498.5 "/>
<text text-anchor="start" x="710.05" y="-486.5" font-family="Helvetica,sans-Serif" font-size="10.00">+ GetDeviceName()</text>
<text text-anchor="start" x="710.05" y="-475.5" font-family="Helvetica,sans-Serif" font-size="10.00">+ FindAll()</text>
<text text-anchor="start" x="710.05" y="-464.5" font-family="Helvetica,sans-Serif" font-size="10.00">+ GetIcons()</text>
<text text-anchor="start" x="710.05" y="-453.5" font-family="Helvetica,sans-Serif" font-size="10.00">+ Dispose()</text>
<text text-anchor="start" x="710.05" y="-442.5" font-family="Helvetica,sans-Serif" font-size="10.00">+ Equals()</text>
<text text-anchor="start" x="710.05" y="-431.5" font-family="Helvetica,sans-Serif" font-size="10.00">+ Equals()</text>
<text text-anchor="start" x="710.05" y="-420.5" font-family="Helvetica,sans-Serif" font-size="10.00">+ Equals()</text>
<text text-anchor="start" x="710.05" y="-409.5" font-family="Helvetica,sans-Serif" font-size="10.00">+ GetHashCode()</text>
<text text-anchor="start" x="710.05" y="-398.5" font-family="Helvetica,sans-Serif" font-size="10.00">+ Add()</text>
<text text-anchor="start" x="710.05" y="-387.5" font-family="Helvetica,sans-Serif" font-size="10.00">+ Clear()</text>
<text text-anchor="start" x="710.05" y="-376.5" font-family="Helvetica,sans-Serif" font-size="10.00">and 23 more...</text>
<text text-anchor="start" x="710.05" y="-365.5" font-family="Helvetica,sans-Serif" font-size="10.00">~ AudioDevice()</text>
<text text-anchor="start" x="710.05" y="-354.5" font-family="Helvetica,sans-Serif" font-size="10.00">~ ForwardPropertyStoreChanged()</text>
<text text-anchor="start" x="710.05" y="-343.5" font-family="Helvetica,sans-Serif" font-size="10.00">~ ForwardRemoved()</text>
<text text-anchor="start" x="710.05" y="-332.5" font-family="Helvetica,sans-Serif" font-size="10.00">~ ForwardStateChanged()</text>
<text text-anchor="start" x="710.05" y="-321.5" font-family="Helvetica,sans-Serif" font-size="10.00">~ ForwardVolumeChanged()</text>
<text text-anchor="start" x="710.05" y="-310.5" font-family="Helvetica,sans-Serif" font-size="10.00">~ ReloadSessions()</text>
<text text-anchor="start" x="710.05" y="-299.5" font-family="Helvetica,sans-Serif" font-size="10.00">~ GetAudioSessions()</text>
</a>
</g>
</g>
<!-- Node2&#45;&gt;Node5 -->
<g id="edge21" class="edge">
<title>Node2&#45;&gt;Node5</title>
<path fill="none" stroke="midnightblue" d="M1921.06,-1022.7C1929.78,-984.5 1935.59,-926.16 1902.05,-893 1862.25,-853.64 940.25,-889.04 895.05,-856 892.02,-853.78 889.08,-851.46 886.22,-849.05"/>
<polygon fill="none" stroke="midnightblue" points="1917.65,-1021.88 1918.67,-1032.43 1924.45,-1023.55 1917.65,-1021.88"/>
</g>
<!-- Node6 -->
<g id="node6" class="node">
<title>Node6</title>
<g id="a_node6"><a xlink:href="interface_volume_control_1_1_audio_1_1_interfaces_1_1_i_device.html" target="_top" xlink:title="Represents an audio device.">
<polygon fill="none" stroke="black" points="1949.05,-893.5 1949.05,-994.5 2089.05,-994.5 2089.05,-893.5 1949.05,-893.5"/>
<text text-anchor="middle" x="2019.05" y="-982.5" font-family="Helvetica,sans-Serif" font-size="10.00">IDevice</text>
<polyline fill="none" stroke="black" points="1949.05,-975.5 2089.05,-975.5 "/>
<text text-anchor="start" x="1957.05" y="-963.5" font-family="Helvetica,sans-Serif" font-size="10.00">+ Name</text>
<text text-anchor="start" x="1957.05" y="-952.5" font-family="Helvetica,sans-Serif" font-size="10.00">+ DeviceID</text>
<text text-anchor="start" x="1957.05" y="-941.5" font-family="Helvetica,sans-Serif" font-size="10.00">+ NativeEndpointVolume</text>
<text text-anchor="start" x="1957.05" y="-930.5" font-family="Helvetica,sans-Serif" font-size="10.00">+ EndpointVolume</text>
<text text-anchor="start" x="1957.05" y="-919.5" font-family="Helvetica,sans-Serif" font-size="10.00">+ EndpointMuted</text>
<polyline fill="none" stroke="black" points="1949.05,-912.5 2089.05,-912.5 "/>
<text text-anchor="middle" x="2019.05" y="-900.5" font-family="Helvetica,sans-Serif" font-size="10.00"> </text>
</a>
</g>
</g>
<!-- Node2&#45;&gt;Node6 -->
<g id="edge7" class="edge">
<title>Node2&#45;&gt;Node6</title>
<path fill="none" stroke="midnightblue" d="M1943.18,-1025.05C1952.22,-1015.51 1962.19,-1005 1971.84,-994.81"/>
<polygon fill="none" stroke="midnightblue" points="1940.5,-1022.79 1936.16,-1032.45 1945.58,-1027.6 1940.5,-1022.79"/>
</g>
<!-- Node3 -->
<g id="node3" class="node">
<title>Node3</title>
<g id="a_node3"><a xlink:title=" ">
<polygon fill="none" stroke="#bfbfbf" points="904.05,-545.5 904.05,-602.5 1040.05,-602.5 1040.05,-545.5 904.05,-545.5"/>
<text text-anchor="middle" x="972.05" y="-590.5" font-family="Helvetica,sans-Serif" font-size="10.00">INotifyPropertyChanging</text>
<polyline fill="none" stroke="#bfbfbf" points="904.05,-583.5 1040.05,-583.5 "/>
<text text-anchor="middle" x="972.05" y="-571.5" font-family="Helvetica,sans-Serif" font-size="10.00"> </text>
<polyline fill="none" stroke="#bfbfbf" points="904.05,-564.5 1040.05,-564.5 "/>
<text text-anchor="middle" x="972.05" y="-552.5" font-family="Helvetica,sans-Serif" font-size="10.00"> </text>
</a>
</g>
</g>
<!-- Node3&#45;&gt;Node1 -->
<g id="edge2" class="edge">
<title>Node3&#45;&gt;Node1</title>
<path fill="none" stroke="midnightblue" d="M972.7,-534.98C971.59,-475.03 960.47,-358.51 895.05,-292 767.91,-162.72 547.56,-131.31 419.09,-124.47"/>
<polygon fill="none" stroke="midnightblue" points="969.2,-535.18 972.8,-545.15 976.2,-535.11 969.2,-535.18"/>
</g>
<!-- Node4 -->
<g id="node4" class="node">
<title>Node4</title>
<g id="a_node4"><a xlink:title=" ">
<polygon fill="none" stroke="#bfbfbf" points="85.05,-915.5 85.05,-972.5 159.05,-972.5 159.05,-915.5 85.05,-915.5"/>
<text text-anchor="middle" x="122.05" y="-960.5" font-family="Helvetica,sans-Serif" font-size="10.00">IDisposable</text>
<polyline fill="none" stroke="#bfbfbf" points="85.05,-953.5 159.05,-953.5 "/>
<text text-anchor="middle" x="122.05" y="-941.5" font-family="Helvetica,sans-Serif" font-size="10.00"> </text>
<polyline fill="none" stroke="#bfbfbf" points="85.05,-934.5 159.05,-934.5 "/>
<text text-anchor="middle" x="122.05" y="-922.5" font-family="Helvetica,sans-Serif" font-size="10.00"> </text>
</a>
</g>
</g>
<!-- Node4&#45;&gt;Node1 -->
<g id="edge3" class="edge">
<title>Node4&#45;&gt;Node1</title>
<path fill="none" stroke="midnightblue" d="M131.04,-905.43C158.77,-789.49 243.86,-433.71 289.09,-244.61"/>
<polygon fill="none" stroke="midnightblue" points="127.61,-904.72 128.69,-915.26 134.42,-906.35 127.61,-904.72"/>
</g>
<!-- Node4&#45;&gt;Node5 -->
<g id="edge8" class="edge">
<title>Node4&#45;&gt;Node5</title>
<path fill="none" stroke="midnightblue" d="M151.26,-907.96C156.54,-902.61 162.24,-897.41 168.05,-893 340.37,-762.4 574.43,-660.12 701.94,-609.61"/>
<polygon fill="none" stroke="midnightblue" points="148.65,-905.61 144.32,-915.28 153.74,-910.43 148.65,-905.61"/>
</g>
<!-- Node5&#45;&gt;Node1 -->
<g id="edge4" class="edge">
<title>Node5&#45;&gt;Node1</title>
<path fill="none" stroke="#404040" d="M701.99,-486.07C623.77,-412.19 511.28,-305.97 428.27,-227.58"/>
<polygon fill="none" stroke="#404040" points="428.04,-227.37 420.93,-226.15 419.32,-219.13 426.43,-220.34 428.04,-227.37"/>
<text text-anchor="middle" x="513.05" y="-266" font-family="Helvetica,sans-Serif" font-size="10.00"> +DefaultDevice</text>
</g>
<!-- Node6&#45;&gt;Node5 -->
<g id="edge5" class="edge">
<title>Node6&#45;&gt;Node5</title>
<path fill="none" stroke="midnightblue" d="M1960.85,-887.35C1952.67,-881.96 1943.99,-877.29 1935.05,-874 1880.82,-854.05 942.03,-889.65 895.05,-856 892,-853.81 889.03,-851.52 886.16,-849.14"/>
<polygon fill="none" stroke="midnightblue" points="1958.98,-890.31 1969.17,-893.19 1963,-884.58 1958.98,-890.31"/>
</g>
<!-- Node7 -->
<g id="node7" class="node">
<title>Node7</title>
<g id="a_node7"><a xlink:href="interface_volume_control_1_1_audio_1_1_interfaces_1_1_i_targetable.html" target="_top" xlink:title="Base interface type for IDevice and IProcess/ISession.">
<polygon fill="none" stroke="black" points="1994.55,-1032.5 1994.55,-1089.5 2065.55,-1089.5 2065.55,-1032.5 1994.55,-1032.5"/>
<text text-anchor="middle" x="2030.05" y="-1077.5" font-family="Helvetica,sans-Serif" font-size="10.00">ITargetable</text>
<polyline fill="none" stroke="black" points="1994.55,-1070.5 2065.55,-1070.5 "/>
<text text-anchor="middle" x="2030.05" y="-1058.5" font-family="Helvetica,sans-Serif" font-size="10.00"> </text>
<polyline fill="none" stroke="black" points="1994.55,-1051.5 2065.55,-1051.5 "/>
<text text-anchor="middle" x="2030.05" y="-1039.5" font-family="Helvetica,sans-Serif" font-size="10.00"> </text>
</a>
</g>
</g>
<!-- Node7&#45;&gt;Node6 -->
<g id="edge6" class="edge">
<title>Node7&#45;&gt;Node6</title>
<path fill="none" stroke="midnightblue" d="M2026.46,-1022.47C2025.62,-1013.64 2024.71,-1004.09 2023.82,-994.81"/>
<polygon fill="none" stroke="midnightblue" points="2022.98,-1022.83 2027.42,-1032.45 2029.95,-1022.17 2022.98,-1022.83"/>
</g>
<!-- Node8 -->
<g id="node8" class="node">
<title>Node8</title>
<g id="a_node8"><a xlink:title=" ">
<polygon fill="none" stroke="#bfbfbf" points="177.05,-915.5 177.05,-972.5 329.05,-972.5 329.05,-915.5 177.05,-915.5"/>
<text text-anchor="middle" x="253.05" y="-960.5" font-family="Helvetica,sans-Serif" font-size="10.00">IEquatable&lt; AudioDevice &gt;</text>
<polyline fill="none" stroke="#bfbfbf" points="177.05,-953.5 329.05,-953.5 "/>
<text text-anchor="middle" x="253.05" y="-941.5" font-family="Helvetica,sans-Serif" font-size="10.00"> </text>
<polyline fill="none" stroke="#bfbfbf" points="177.05,-934.5 329.05,-934.5 "/>
<text text-anchor="middle" x="253.05" y="-922.5" font-family="Helvetica,sans-Serif" font-size="10.00"> </text>
</a>
</g>
</g>
<!-- Node8&#45;&gt;Node5 -->
<g id="edge9" class="edge">
<title>Node8&#45;&gt;Node5</title>
<path fill="none" stroke="midnightblue" d="M302.13,-909.62C392.43,-848.19 586.26,-716.35 701.82,-637.74"/>
<polygon fill="none" stroke="midnightblue" points="300.02,-906.82 293.72,-915.34 303.95,-912.61 300.02,-906.82"/>
</g>
<!-- Node9 -->
<g id="node9" class="node">
<title>Node9</title>
<g id="a_node9"><a xlink:title=" ">
<polygon fill="none" stroke="#bfbfbf" points="347.05,-915.5 347.05,-972.5 475.05,-972.5 475.05,-915.5 347.05,-915.5"/>
<text text-anchor="middle" x="411.05" y="-960.5" font-family="Helvetica,sans-Serif" font-size="10.00">IEquatable&lt; IDevice &gt;</text>
<polyline fill="none" stroke="#bfbfbf" points="347.05,-953.5 475.05,-953.5 "/>
<text text-anchor="middle" x="411.05" y="-941.5" font-family="Helvetica,sans-Serif" font-size="10.00"> </text>
<polyline fill="none" stroke="#bfbfbf" points="347.05,-934.5 475.05,-934.5 "/>
<text text-anchor="middle" x="411.05" y="-922.5" font-family="Helvetica,sans-Serif" font-size="10.00"> </text>
</a>
</g>
</g>
<!-- Node9&#45;&gt;Node5 -->
<g id="edge10" class="edge">
<title>Node9&#45;&gt;Node5</title>
<path fill="none" stroke="midnightblue" d="M447.28,-908.19C505.12,-852.62 620.14,-742.1 701.83,-663.61"/>
<polygon fill="none" stroke="midnightblue" points="444.63,-905.89 439.84,-915.34 449.48,-910.94 444.63,-905.89"/>
</g>
<!-- Node10 -->
<g id="node10" class="node">
<title>Node10</title>
<g id="a_node10"><a xlink:title=" ">
<polygon fill="none" stroke="#bfbfbf" points="493.55,-915.5 493.55,-972.5 530.55,-972.5 530.55,-915.5 493.55,-915.5"/>
<text text-anchor="middle" x="512.05" y="-960.5" font-family="Helvetica,sans-Serif" font-size="10.00">IList</text>
<polyline fill="none" stroke="#bfbfbf" points="493.55,-953.5 530.55,-953.5 "/>
<text text-anchor="middle" x="512.05" y="-941.5" font-family="Helvetica,sans-Serif" font-size="10.00"> </text>
<polyline fill="none" stroke="#bfbfbf" points="493.55,-934.5 530.55,-934.5 "/>
<text text-anchor="middle" x="512.05" y="-922.5" font-family="Helvetica,sans-Serif" font-size="10.00"> </text>
</a>
</g>
</g>
<!-- Node10&#45;&gt;Node5 -->
<g id="edge11" class="edge">
<title>Node10&#45;&gt;Node5</title>
<path fill="none" stroke="midnightblue" d="M531.59,-906.47C534.32,-901.87 537.18,-897.28 540.05,-893 589.55,-819.43 651.56,-741.56 701.92,-681.3"/>
<polygon fill="none" stroke="midnightblue" points="528.48,-904.86 526.52,-915.27 534.55,-908.35 528.48,-904.86"/>
</g>
<!-- Node11 -->
<g id="node11" class="node">
<title>Node11</title>
<g id="a_node11"><a xlink:title=" ">
<polygon fill="none" stroke="#bfbfbf" points="549.05,-915.5 549.05,-972.5 617.05,-972.5 617.05,-915.5 549.05,-915.5"/>
<text text-anchor="middle" x="583.05" y="-960.5" font-family="Helvetica,sans-Serif" font-size="10.00">ICollection</text>
<polyline fill="none" stroke="#bfbfbf" points="549.05,-953.5 617.05,-953.5 "/>
<text text-anchor="middle" x="583.05" y="-941.5" font-family="Helvetica,sans-Serif" font-size="10.00"> </text>
<polyline fill="none" stroke="#bfbfbf" points="549.05,-934.5 617.05,-934.5 "/>
<text text-anchor="middle" x="583.05" y="-922.5" font-family="Helvetica,sans-Serif" font-size="10.00"> </text>
</a>
</g>
</g>
<!-- Node11&#45;&gt;Node5 -->
<g id="edge12" class="edge">
<title>Node11&#45;&gt;Node5</title>
<path fill="none" stroke="midnightblue" d="M604,-906.46C627.03,-866.31 665.59,-799.05 701.99,-735.57"/>
<polygon fill="none" stroke="midnightblue" points="600.85,-904.92 598.91,-915.34 606.92,-908.41 600.85,-904.92"/>
</g>
<!-- Node12 -->
<g id="node12" class="node">
<title>Node12</title>
<g id="a_node12"><a xlink:title=" ">
<polygon fill="none" stroke="#bfbfbf" points="635.05,-915.5 635.05,-972.5 713.05,-972.5 713.05,-915.5 635.05,-915.5"/>
<text text-anchor="middle" x="674.05" y="-960.5" font-family="Helvetica,sans-Serif" font-size="10.00">IEnumerable</text>
<polyline fill="none" stroke="#bfbfbf" points="635.05,-953.5 713.05,-953.5 "/>
<text text-anchor="middle" x="674.05" y="-941.5" font-family="Helvetica,sans-Serif" font-size="10.00"> </text>
<polyline fill="none" stroke="#bfbfbf" points="635.05,-934.5 713.05,-934.5 "/>
<text text-anchor="middle" x="674.05" y="-922.5" font-family="Helvetica,sans-Serif" font-size="10.00"> </text>
</a>
</g>
</g>
<!-- Node12&#45;&gt;Node5 -->
<g id="edge13" class="edge">
<title>Node12&#45;&gt;Node5</title>
<path fill="none" stroke="midnightblue" d="M686.19,-905.78C690.73,-891.85 696.32,-874.72 702.53,-855.67"/>
<polygon fill="none" stroke="midnightblue" points="682.85,-904.75 683.07,-915.34 689.5,-906.92 682.85,-904.75"/>
</g>
<!-- Node13 -->
<g id="node13" class="node">
<title>Node13</title>
<g id="a_node13"><a xlink:title=" ">
<polygon fill="none" stroke="#bfbfbf" points="731.55,-915.5 731.55,-972.5 856.55,-972.5 856.55,-915.5 731.55,-915.5"/>
<text text-anchor="middle" x="794.05" y="-960.5" font-family="Helvetica,sans-Serif" font-size="10.00">IList&lt; AudioSession &gt;</text>
<polyline fill="none" stroke="#bfbfbf" points="731.55,-953.5 856.55,-953.5 "/>
<text text-anchor="middle" x="794.05" y="-941.5" font-family="Helvetica,sans-Serif" font-size="10.00"> </text>
<polyline fill="none" stroke="#bfbfbf" points="731.55,-934.5 856.55,-934.5 "/>
<text text-anchor="middle" x="794.05" y="-922.5" font-family="Helvetica,sans-Serif" font-size="10.00"> </text>
</a>
</g>
</g>
<!-- Node13&#45;&gt;Node5 -->
<g id="edge14" class="edge">
<title>Node13&#45;&gt;Node5</title>
<path fill="none" stroke="midnightblue" d="M794.05,-904.96C794.05,-891.18 794.05,-874.35 794.05,-855.67"/>
<polygon fill="none" stroke="midnightblue" points="790.55,-905.34 794.05,-915.34 797.55,-905.34 790.55,-905.34"/>
</g>
<!-- Node14 -->
<g id="node14" class="node">
<title>Node14</title>
<g id="a_node14"><a xlink:title=" ">
<polygon fill="none" stroke="#bfbfbf" points="875.05,-915.5 875.05,-972.5 1053.05,-972.5 1053.05,-915.5 875.05,-915.5"/>
<text text-anchor="middle" x="964.05" y="-960.5" font-family="Helvetica,sans-Serif" font-size="10.00">IImmutableList&lt; AudioSession &gt;</text>
<polyline fill="none" stroke="#bfbfbf" points="875.05,-953.5 1053.05,-953.5 "/>
<text text-anchor="middle" x="964.05" y="-941.5" font-family="Helvetica,sans-Serif" font-size="10.00"> </text>
<polyline fill="none" stroke="#bfbfbf" points="875.05,-934.5 1053.05,-934.5 "/>
<text text-anchor="middle" x="964.05" y="-922.5" font-family="Helvetica,sans-Serif" font-size="10.00"> </text>
</a>
</g>
</g>
<!-- Node14&#45;&gt;Node5 -->
<g id="edge15" class="edge">
<title>Node14&#45;&gt;Node5</title>
<path fill="none" stroke="midnightblue" d="M931.39,-907.27C918.82,-892.23 905.1,-874.05 895.05,-856 892.03,-850.56 889.07,-845.02 886.16,-839.39"/>
<polygon fill="none" stroke="midnightblue" points="929.07,-909.95 938.22,-915.29 934.39,-905.41 929.07,-909.95"/>
</g>
<!-- Node15 -->
<g id="node15" class="node">
<title>Node15</title>
<g id="a_node15"><a xlink:title=" ">
<polygon fill="none" stroke="#bfbfbf" points="1071.05,-915.5 1071.05,-972.5 1227.05,-972.5 1227.05,-915.5 1071.05,-915.5"/>
<text text-anchor="middle" x="1149.05" y="-960.5" font-family="Helvetica,sans-Serif" font-size="10.00">ICollection&lt; AudioSession &gt;</text>
<polyline fill="none" stroke="#bfbfbf" points="1071.05,-953.5 1227.05,-953.5 "/>
<text text-anchor="middle" x="1149.05" y="-941.5" font-family="Helvetica,sans-Serif" font-size="10.00"> </text>
<polyline fill="none" stroke="#bfbfbf" points="1071.05,-934.5 1227.05,-934.5 "/>
<text text-anchor="middle" x="1149.05" y="-922.5" font-family="Helvetica,sans-Serif" font-size="10.00"> </text>
</a>
</g>
</g>
<!-- Node15&#45;&gt;Node5 -->
<g id="edge16" class="edge">
<title>Node15&#45;&gt;Node5</title>
<path fill="none" stroke="midnightblue" d="M1097.96,-910.23C1086.47,-903.83 1074.1,-897.67 1062.05,-893 991.17,-865.52 952.11,-906.24 895.05,-856 892.04,-853.35 889.11,-850.59 886.27,-847.75"/>
<polygon fill="none" stroke="midnightblue" points="1096.55,-913.45 1106.97,-915.38 1100.03,-907.38 1096.55,-913.45"/>
</g>
<!-- Node16 -->
<g id="node16" class="node">
<title>Node16</title>
<g id="a_node16"><a xlink:title=" ">
<polygon fill="none" stroke="#bfbfbf" points="1245.05,-915.5 1245.05,-972.5 1411.05,-972.5 1411.05,-915.5 1245.05,-915.5"/>
<text text-anchor="middle" x="1328.05" y="-960.5" font-family="Helvetica,sans-Serif" font-size="10.00">IEnumerable&lt; AudioSession &gt;</text>
<polyline fill="none" stroke="#bfbfbf" points="1245.05,-953.5 1411.05,-953.5 "/>
<text text-anchor="middle" x="1328.05" y="-941.5" font-family="Helvetica,sans-Serif" font-size="10.00"> </text>
<polyline fill="none" stroke="#bfbfbf" points="1245.05,-934.5 1411.05,-934.5 "/>
<text text-anchor="middle" x="1328.05" y="-922.5" font-family="Helvetica,sans-Serif" font-size="10.00"> </text>
</a>
</g>
</g>
<!-- Node16&#45;&gt;Node5 -->
<g id="edge17" class="edge">
<title>Node16&#45;&gt;Node5</title>
<path fill="none" stroke="midnightblue" d="M1276.52,-910.45C1263.72,-903.66 1249.74,-897.28 1236.05,-893 1163.3,-870.26 954.94,-903.15 895.05,-856 892,-853.6 889.04,-851.09 886.16,-848.49"/>
<polygon fill="none" stroke="midnightblue" points="1275.16,-913.7 1285.61,-915.45 1278.53,-907.56 1275.16,-913.7"/>
</g>
<!-- Node17 -->
<g id="node17" class="node">
<title>Node17</title>
<g id="a_node17"><a xlink:title=" ">
<polygon fill="none" stroke="#bfbfbf" points="1429.05,-915.5 1429.05,-972.5 1601.05,-972.5 1601.05,-915.5 1429.05,-915.5"/>
<text text-anchor="middle" x="1515.05" y="-960.5" font-family="Helvetica,sans-Serif" font-size="10.00">IReadOnlyList&lt; AudioSession &gt;</text>
<polyline fill="none" stroke="#bfbfbf" points="1429.05,-953.5 1601.05,-953.5 "/>
<text text-anchor="middle" x="1515.05" y="-941.5" font-family="Helvetica,sans-Serif" font-size="10.00"> </text>
<polyline fill="none" stroke="#bfbfbf" points="1429.05,-934.5 1601.05,-934.5 "/>
<text text-anchor="middle" x="1515.05" y="-922.5" font-family="Helvetica,sans-Serif" font-size="10.00"> </text>
</a>
</g>
</g>
<!-- Node17&#45;&gt;Node5 -->
<g id="edge18" class="edge">
<title>Node17&#45;&gt;Node5</title>
<path fill="none" stroke="midnightblue" d="M1462.64,-910.5C1449.21,-903.57 1434.47,-897.11 1420.05,-893 1363.81,-876.98 941.68,-891.3 895.05,-856 892.06,-853.73 889.15,-851.37 886.33,-848.91"/>
<polygon fill="none" stroke="midnightblue" points="1461.24,-913.72 1471.71,-915.35 1464.54,-907.55 1461.24,-913.72"/>
</g>
<!-- Node18 -->
<g id="node18" class="node">
<title>Node18</title>
<g id="a_node18"><a xlink:title=" ">
<polygon fill="none" stroke="#bfbfbf" points="1619.05,-910 1619.05,-978 1735.05,-978 1735.05,-910 1619.05,-910"/>
<text text-anchor="start" x="1627.05" y="-966" font-family="Helvetica,sans-Serif" font-size="10.00">IReadOnlyCollection</text>
<text text-anchor="middle" x="1677.05" y="-955" font-family="Helvetica,sans-Serif" font-size="10.00">&lt; AudioSession &gt;</text>
<polyline fill="none" stroke="#bfbfbf" points="1619.05,-948 1735.05,-948 "/>
<text text-anchor="middle" x="1677.05" y="-936" font-family="Helvetica,sans-Serif" font-size="10.00"> </text>
<polyline fill="none" stroke="#bfbfbf" points="1619.05,-929 1735.05,-929 "/>
<text text-anchor="middle" x="1677.05" y="-917" font-family="Helvetica,sans-Serif" font-size="10.00"> </text>
</a>
</g>
</g>
<!-- Node18&#45;&gt;Node5 -->
<g id="edge19" class="edge">
<title>Node18&#45;&gt;Node5</title>
<path fill="none" stroke="midnightblue" d="M1632.1,-904.08C1625.08,-899.64 1617.64,-895.74 1610.05,-893 1572.64,-879.5 926.99,-879.71 895.05,-856 892.04,-853.76 889.11,-851.42 886.27,-848.99"/>
<polygon fill="none" stroke="midnightblue" points="1630.48,-907.21 1640.72,-909.93 1634.41,-901.42 1630.48,-907.21"/>
</g>
<!-- Node19 -->
<g id="node19" class="node">
<title>Node19</title>
<g id="a_node19"><a xlink:title=" ">
<polygon fill="none" stroke="#bfbfbf" points="1753.05,-915.5 1753.05,-972.5 1893.05,-972.5 1893.05,-915.5 1753.05,-915.5"/>
<text text-anchor="middle" x="1823.05" y="-960.5" font-family="Helvetica,sans-Serif" font-size="10.00">INotifyCollectionChanged</text>
<polyline fill="none" stroke="#bfbfbf" points="1753.05,-953.5 1893.05,-953.5 "/>
<text text-anchor="middle" x="1823.05" y="-941.5" font-family="Helvetica,sans-Serif" font-size="10.00"> </text>
<polyline fill="none" stroke="#bfbfbf" points="1753.05,-934.5 1893.05,-934.5 "/>
<text text-anchor="middle" x="1823.05" y="-922.5" font-family="Helvetica,sans-Serif" font-size="10.00"> </text>
</a>
</g>
</g>
<!-- Node19&#45;&gt;Node5 -->
<g id="edge20" class="edge">
<title>Node19&#45;&gt;Node5</title>
<path fill="none" stroke="midnightblue" d="M1779.49,-909.82C1768.47,-903.05 1756.27,-896.83 1744.05,-893 1721.53,-885.94 914.06,-870 895.05,-856 892.03,-853.77 889.09,-851.44 886.24,-849.02"/>
<polygon fill="none" stroke="midnightblue" points="1777.75,-912.87 1788.05,-915.34 1781.54,-906.98 1777.75,-912.87"/>
</g>
</g>
</svg>
        <g id="navigator" transform="translate(0 0)" fill="#404254">
                <rect fill="#f2f5e9" fill-opacity="0.5" stroke="#606060" stroke-width=".5" x="0" y="0" width="60" height="60"/>
                <use id="zoomplus" xlink:href="#zoomPlus" x="17" y="9" onmousedown="handleZoom(evt,'in')"/>
                <use id="zoomminus" xlink:href="#zoomMin" x="42" y="9" onmousedown="handleZoom(evt,'out')"/>
                <use id="reset" xlink:href="#resetDef" x="30" y="36" onmousedown="handleReset()"/>
                <g id="arrowUp" xlink:href="#dirArrow" transform="translate(30 24)" onmousedown="handlePan(0,-1)">
                  <use xlink:href="#rim" fill="#404040">
                        <set attributeName="fill" to="#808080" begin="arrowUp.mouseover" end="arrowUp.mouseout"/>
                  </use>
                  <path fill="none" stroke="white" stroke-width="1.5" d="M0,-3.0v7 M-2.5,-0.5L0,-3.0L2.5,-0.5"/>
                </g>
                <g id="arrowRight" xlink:href="#dirArrow" transform="rotate(90) translate(36 -43)" onmousedown="handlePan(1,0)">
                  <use xlink:href="#rim" fill="#404040">
                        <set attributeName="fill" to="#808080" begin="arrowRight.mouseover" end="arrowRight.mouseout"/>
                  </use>
                  <path fill="none" stroke="white" stroke-width="1.5" d="M0,-3.0v7 M-2.5,-0.5L0,-3.0L2.5,-0.5"/>
                </g>
                <g id="arrowDown" xlink:href="#dirArrow" transform="rotate(180) translate(-30 -48)" onmousedown="handlePan(0,1)">
                  <use xlink:href="#rim" fill="#404040">
                        <set attributeName="fill" to="#808080" begin="arrowDown.mouseover" end="arrowDown.mouseout"/>
                  </use>
                  <path fill="none" stroke="white" stroke-width="1.5" d="M0,-3.0v7 M-2.5,-0.5L0,-3.0L2.5,-0.5"/>
                </g>
                <g id="arrowLeft" xlink:href="#dirArrow" transform="rotate(270) translate(-36 17)" onmousedown="handlePan(-1,0)">
                  <use xlink:href="#rim" fill="#404040">
                        <set attributeName="fill" to="#808080" begin="arrowLeft.mouseover" end="arrowLeft.mouseout"/>
                  </use>
                  <path fill="none" stroke="white" stroke-width="1.5" d="M0,-3.0v7 M-2.5,-0.5L0,-3.0L2.5,-0.5"/>
                </g>
        </g>
        <svg viewBox="0 0 15 15" width="100%" height="30px" preserveAspectRatio="xMaxYMin meet">
         <g id="arrow_out" transform="scale(0.3 0.3)">
          <a xlink:href="class_volume_control_1_1_audio_1_1_audio_a_p_i__coll__graph_org.svg" target="_base">
           <rect id="button" ry="5" rx="5" y="6" x="6" height="38" width="38"
                fill="#f2f5e9" fill-opacity="0.5" stroke="#606060" stroke-width="1.0"/>
           <path id="arrow"
             d="M 11.500037,31.436501 C 11.940474,20.09759 22.043105,11.32322 32.158766,21.979434 L 37.068811,17.246167 C 37.068811,17.246167 37.088388,32 37.088388,32 L 22.160133,31.978069 C 22.160133,31.978069 26.997745,27.140456 26.997745,27.140456 C 18.528582,18.264221 13.291696,25.230495 11.500037,31.436501 z"
             style="fill:#404040;"/>
          </a>
         </g>
        </svg>
</svg>
