<?xml version="1.0" encoding="UTF-8" standalone="no"?>
<!DOCTYPE svg PUBLIC "-//W3C//DTD SVG 1.1//EN"
 "http://www.w3.org/Graphics/SVG/1.1/DTD/svg11.dtd">
<!-- Generated by graphviz version 2.43.0 (0)
 -->
<!-- Title: VolumeControl.Core.Input.HotkeyManager.SetHotkeysFromJsonHotkeys&lt; THotkey &gt; Pages: 1 -->
<svg width="804pt" height="100pt"
 viewBox="0.00 0.00 804.00 99.50" xmlns="http://www.w3.org/2000/svg" xmlns:xlink="http://www.w3.org/1999/xlink">
<g id="graph0" class="graph" transform="scale(1 1) rotate(0) translate(4 95.5)">
<title>VolumeControl.Core.Input.HotkeyManager.SetHotkeysFromJsonHotkeys&lt; THotkey &gt;</title>
<!-- Node1 -->
<g id="node1" class="node">
<title>Node1</title>
<g id="a_node1"><a xlink:title="Sets the list of managed hotkeys from the specified hotkeyJsonObjects .">
<polygon fill="#bfbfbf" stroke="black" points="0,-22 0,-63 197,-63 197,-22 0,-22"/>
<text text-anchor="start" x="8" y="-51" font-family="Helvetica,sans-Serif" font-size="10.00">VolumeControl.Core.Input.</text>
<text text-anchor="start" x="8" y="-40" font-family="Helvetica,sans-Serif" font-size="10.00">HotkeyManager.SetHotkeysFromJson</text>
<text text-anchor="middle" x="98.5" y="-29" font-family="Helvetica,sans-Serif" font-size="10.00">Hotkeys&lt; THotkey &gt;</text>
</a>
</g>
</g>
<!-- Node2 -->
<g id="node2" class="node">
<title>Node2</title>
<g id="a_node2"><a xlink:href="class_volume_control_1_1_core_1_1_input_1_1_hotkey_manager.html#aaa4e6d47e4cc375b65398bc0231efcac" target="_top" xlink:title="Creates and adds a Hotkey for each element of the specified hotkeyJsonObjects .">
<polygon fill="none" stroke="black" points="233,-50 233,-91 408,-91 408,-50 233,-50"/>
<text text-anchor="start" x="241" y="-79" font-family="Helvetica,sans-Serif" font-size="10.00">VolumeControl.Core.Input.</text>
<text text-anchor="start" x="241" y="-68" font-family="Helvetica,sans-Serif" font-size="10.00">HotkeyManager.AddJsonHotkeys</text>
<text text-anchor="middle" x="320.5" y="-57" font-family="Helvetica,sans-Serif" font-size="10.00">&lt; THotkey &gt;</text>
</a>
</g>
</g>
<!-- Node1&#45;&gt;Node2 -->
<g id="edge1" class="edge">
<title>Node1&#45;&gt;Node2</title>
<path fill="none" stroke="midnightblue" d="M197.28,-54.94C205.68,-56.01 214.18,-57.1 222.58,-58.16"/>
<polygon fill="midnightblue" stroke="midnightblue" points="222.39,-61.67 232.75,-59.46 223.28,-54.72 222.39,-61.67"/>
</g>
<!-- Node4 -->
<g id="node4" class="node">
<title>Node4</title>
<g id="a_node4"><a xlink:href="class_volume_control_1_1_core_1_1_input_1_1_hotkey_manager.html#a8c873d37958d80a9ebbbe1887bd0c2d0" target="_top" xlink:title="Removes all hotkeys from the manager.">
<polygon fill="none" stroke="black" points="240,-0.5 240,-30.5 401,-30.5 401,-0.5 240,-0.5"/>
<text text-anchor="start" x="248" y="-18.5" font-family="Helvetica,sans-Serif" font-size="10.00">VolumeControl.Core.Input.</text>
<text text-anchor="middle" x="320.5" y="-7.5" font-family="Helvetica,sans-Serif" font-size="10.00">HotkeyManager.ClearHotkeys</text>
</a>
</g>
</g>
<!-- Node1&#45;&gt;Node4 -->
<g id="edge3" class="edge">
<title>Node1&#45;&gt;Node4</title>
<path fill="none" stroke="midnightblue" d="M197.28,-30.5C208.06,-29.18 219,-27.83 229.68,-26.52"/>
<polygon fill="midnightblue" stroke="midnightblue" points="230.33,-29.97 239.83,-25.28 229.48,-23.02 230.33,-29.97"/>
</g>
<!-- Node3 -->
<g id="node3" class="node">
<title>Node3</title>
<g id="a_node3"><a xlink:href="class_volume_control_1_1_core_1_1_input_1_1_hotkey_manager.html#a8341c348e8787a903fde69522d3ce107" target="_top" xlink:title="Adds the specified hotkey &#160;to the manager.">
<polygon fill="none" stroke="black" points="455,-55.5 455,-85.5 604,-85.5 604,-55.5 455,-55.5"/>
<text text-anchor="start" x="463" y="-73.5" font-family="Helvetica,sans-Serif" font-size="10.00">VolumeControl.Core.Input.</text>
<text text-anchor="middle" x="529.5" y="-62.5" font-family="Helvetica,sans-Serif" font-size="10.00">HotkeyManager.AddHotkey</text>
</a>
</g>
</g>
<!-- Node2&#45;&gt;Node3 -->
<g id="edge2" class="edge">
<title>Node2&#45;&gt;Node3</title>
<path fill="none" stroke="midnightblue" d="M408.09,-70.5C420.2,-70.5 432.64,-70.5 444.7,-70.5"/>
<polygon fill="midnightblue" stroke="midnightblue" points="444.74,-74 454.74,-70.5 444.74,-67 444.74,-74"/>
</g>
<!-- Node5 -->
<g id="node5" class="node">
<title>Node5</title>
<g id="a_node5"><a xlink:href="class_volume_control_1_1_core_1_1_input_1_1_hotkey_manager.html#a8c582a292d4a72ef3caada32eff31cfe" target="_top" xlink:title="Removes the specified hotkey &#160;from the manager.">
<polygon fill="none" stroke="black" points="444,-0.5 444,-30.5 615,-30.5 615,-0.5 444,-0.5"/>
<text text-anchor="start" x="452" y="-18.5" font-family="Helvetica,sans-Serif" font-size="10.00">VolumeControl.Core.Input.</text>
<text text-anchor="middle" x="529.5" y="-7.5" font-family="Helvetica,sans-Serif" font-size="10.00">HotkeyManager.RemoveHotkey</text>
</a>
</g>
</g>
<!-- Node4&#45;&gt;Node5 -->
<g id="edge4" class="edge">
<title>Node4&#45;&gt;Node5</title>
<path fill="none" stroke="midnightblue" d="M401.24,-15.5C411.77,-15.5 422.64,-15.5 433.4,-15.5"/>
<polygon fill="midnightblue" stroke="midnightblue" points="433.66,-19 443.66,-15.5 433.66,-12 433.66,-19"/>
</g>
<!-- Node6 -->
<g id="node6" class="node">
<title>Node6</title>
<g id="a_node6"><a xlink:href="class_volume_control_1_1_core_1_1_input_1_1_hotkey.html#abc58db58ed561f5f0cac45eea2d3e8eb" target="_top" xlink:title="Cleans up the Hotkey instance by unregistering it, if necessary.">
<polygon fill="none" stroke="black" points="651,-0.5 651,-30.5 796,-30.5 796,-0.5 651,-0.5"/>
<text text-anchor="start" x="659" y="-18.5" font-family="Helvetica,sans-Serif" font-size="10.00">VolumeControl.Core.Input.</text>
<text text-anchor="middle" x="723.5" y="-7.5" font-family="Helvetica,sans-Serif" font-size="10.00">Hotkey.Dispose</text>
</a>
</g>
</g>
<!-- Node5&#45;&gt;Node6 -->
<g id="edge5" class="edge">
<title>Node5&#45;&gt;Node6</title>
<path fill="none" stroke="midnightblue" d="M615.27,-15.5C623.7,-15.5 632.24,-15.5 640.64,-15.5"/>
<polygon fill="midnightblue" stroke="midnightblue" points="640.79,-19 650.79,-15.5 640.79,-12 640.79,-19"/>
</g>
</g>
</svg>
