<?xml version="1.0" encoding="UTF-8" standalone="no"?>
<!DOCTYPE svg PUBLIC "-//W3C//DTD SVG 1.1//EN"
 "http://www.w3.org/Graphics/SVG/1.1/DTD/svg11.dtd">
<!-- Generated by graphviz version 2.43.0 (0)
 -->
<!-- Title: VolumeControl.Core.Input.HotkeyManager.RemoveHotkey Pages: 1 -->
<svg width="957pt" height="39pt"
 viewBox="0.00 0.00 957.00 39.00" xmlns="http://www.w3.org/2000/svg" xmlns:xlink="http://www.w3.org/1999/xlink">
<g id="graph0" class="graph" transform="scale(1 1) rotate(0) translate(4 35)">
<title>VolumeControl.Core.Input.HotkeyManager.RemoveHotkey</title>
<!-- Node1 -->
<g id="node1" class="node">
<title>Node1</title>
<g id="a_node1"><a xlink:title="Removes the specified hotkey &#160;from the manager.">
<polygon fill="#bfbfbf" stroke="black" points="0,-0.5 0,-30.5 171,-30.5 171,-0.5 0,-0.5"/>
<text text-anchor="start" x="8" y="-18.5" font-family="Helvetica,sans-Serif" font-size="10.00">VolumeControl.Core.Input.</text>
<text text-anchor="middle" x="85.5" y="-7.5" font-family="Helvetica,sans-Serif" font-size="10.00">HotkeyManager.RemoveHotkey</text>
</a>
</g>
</g>
<!-- Node2 -->
<g id="node2" class="node">
<title>Node2</title>
<g id="a_node2"><a xlink:href="class_volume_control_1_1_core_1_1_input_1_1_hotkey.html#a32d7855fa82b1806411aa54d64e4c099" target="_top" xlink:title=" ">
<polygon fill="none" stroke="black" points="207,-0.5 207,-30.5 352,-30.5 352,-0.5 207,-0.5"/>
<text text-anchor="start" x="215" y="-18.5" font-family="Helvetica,sans-Serif" font-size="10.00">VolumeControl.Core.Input.</text>
<text text-anchor="middle" x="279.5" y="-7.5" font-family="Helvetica,sans-Serif" font-size="10.00">Hotkey.Dispose</text>
</a>
</g>
</g>
<!-- Node1&#45;&gt;Node2 -->
<g id="edge1" class="edge">
<title>Node1&#45;&gt;Node2</title>
<path fill="none" stroke="midnightblue" d="M171.27,-15.5C179.7,-15.5 188.24,-15.5 196.64,-15.5"/>
<polygon fill="midnightblue" stroke="midnightblue" points="196.79,-19 206.79,-15.5 196.79,-12 196.79,-19"/>
</g>
<!-- Node3 -->
<g id="node3" class="node">
<title>Node3</title>
<g id="a_node3"><a xlink:href="class_volume_control_1_1_core_1_1_input_1_1_hotkey.html#a9cdb123b8b415f401289241b2bfa6d6c" target="_top" xlink:title="Unregisters the hotkey with the Win32 API.">
<polygon fill="none" stroke="black" points="388,-0.5 388,-30.5 533,-30.5 533,-0.5 388,-0.5"/>
<text text-anchor="start" x="396" y="-18.5" font-family="Helvetica,sans-Serif" font-size="10.00">VolumeControl.Core.Input.</text>
<text text-anchor="middle" x="460.5" y="-7.5" font-family="Helvetica,sans-Serif" font-size="10.00">Hotkey.Unregister</text>
</a>
</g>
</g>
<!-- Node2&#45;&gt;Node3 -->
<g id="edge2" class="edge">
<title>Node2&#45;&gt;Node3</title>
<path fill="none" stroke="midnightblue" d="M352.02,-15.5C360.49,-15.5 369.18,-15.5 377.78,-15.5"/>
<polygon fill="midnightblue" stroke="midnightblue" points="377.8,-19 387.8,-15.5 377.8,-12 377.8,-19"/>
</g>
<!-- Node4 -->
<g id="node4" class="node">
<title>Node4</title>
<g id="a_node4"><a xlink:href="class_volume_control_1_1_core_1_1_input_1_1_windows_hotkey_a_p_i.html#ac001f386c8766c5af77db645f9aea101" target="_top" xlink:title="Attempts to unregister the specified hotkey .">
<polygon fill="none" stroke="black" points="569,-0.5 569,-30.5 748,-30.5 748,-0.5 569,-0.5"/>
<text text-anchor="start" x="577" y="-18.5" font-family="Helvetica,sans-Serif" font-size="10.00">VolumeControl.Core.Input.</text>
<text text-anchor="middle" x="658.5" y="-7.5" font-family="Helvetica,sans-Serif" font-size="10.00">WindowsHotkeyAPI.TryUnregister</text>
</a>
</g>
</g>
<!-- Node3&#45;&gt;Node4 -->
<g id="edge3" class="edge">
<title>Node3&#45;&gt;Node4</title>
<path fill="none" stroke="midnightblue" d="M533.09,-15.5C541.42,-15.5 550.03,-15.5 558.65,-15.5"/>
<polygon fill="midnightblue" stroke="midnightblue" points="558.75,-19 568.75,-15.5 558.75,-12 558.75,-19"/>
</g>
<!-- Node5 -->
<g id="node5" class="node">
<title>Node5</title>
<g id="a_node5"><a xlink:href="class_volume_control_1_1_core_1_1_input_1_1_windows_hotkey_a_p_i.html#a07ed6bb5aaebdc268b01ac666511d1e6" target="_top" xlink:title="Unregisters the specified hotkey .">
<polygon fill="none" stroke="black" points="784,-0.5 784,-30.5 949,-30.5 949,-0.5 784,-0.5"/>
<text text-anchor="start" x="792" y="-18.5" font-family="Helvetica,sans-Serif" font-size="10.00">VolumeControl.Core.Input.</text>
<text text-anchor="middle" x="866.5" y="-7.5" font-family="Helvetica,sans-Serif" font-size="10.00">WindowsHotkeyAPI.Unregister</text>
</a>
</g>
</g>
<!-- Node4&#45;&gt;Node5 -->
<g id="edge4" class="edge">
<title>Node4&#45;&gt;Node5</title>
<path fill="none" stroke="midnightblue" d="M748.06,-15.5C756.51,-15.5 765.09,-15.5 773.57,-15.5"/>
<polygon fill="midnightblue" stroke="midnightblue" points="773.85,-19 783.85,-15.5 773.85,-12 773.85,-19"/>
</g>
</g>
</svg>
