<?xml version="1.0" encoding="UTF-8" standalone="no"?>
<!DOCTYPE svg PUBLIC "-//W3C//DTD SVG 1.1//EN"
 "http://www.w3.org/Graphics/SVG/1.1/DTD/svg11.dtd">
<!-- Generated by graphviz version 2.43.0 (0)
 -->
<!-- Title: VolumeControl.WPF.Collections.BindableEventType Pages: 1 -->
<!--zoomable 424 -->
<svg id="main" version="1.1" xmlns="http://www.w3.org/2000/svg" xmlns:xlink="http://www.w3.org/1999/xlink" xml:space="preserve" onload="init(evt)">
<style type="text/css"><![CDATA[
.edge:hover path { stroke: red; }
.edge:hover polygon { stroke: red; fill: red; }
]]></style>
<script type="text/javascript"><![CDATA[
var edges = document.getElementsByTagName('g');
if (edges && edges.length) {
  for (var i=0;i<edges.length;i++) {
    if (edges[i].id.substr(0,4)=='edge') {
      edges[i].setAttribute('class','edge');
    }
  }
}
]]></script>
        <defs>
                <circle id="rim" cx="0" cy="0" r="7"/>
                <circle id="rim2" cx="0" cy="0" r="3.5"/>
                <g id="zoomPlus">
                        <use xlink:href="#rim" fill="#404040">
                                <set attributeName="fill" to="#808080" begin="zoomplus.mouseover" end="zoomplus.mouseout"/>
                        </use>
                        <path d="M-4,0h8M0,-4v8" fill="none" stroke="white" stroke-width="1.5" pointer-events="none"/>
                </g>
                <g id="zoomMin">
                        <use xlink:href="#rim" fill="#404040">
                                <set attributeName="fill" to="#808080" begin="zoomminus.mouseover" end="zoomminus.mouseout"/>
                        </use>
                        <path d="M-4,0h8" fill="none" stroke="white" stroke-width="1.5" pointer-events="none"/>
                </g>
                <g id="dirArrow">
                        <path fill="none" stroke="white" stroke-width="1.5" d="M0,-3.0v7 M-2.5,-0.5L0,-3.0L2.5,-0.5"/>
                </g>
               <g id="resetDef">
                       <use xlink:href="#rim2" fill="#404040">
                               <set attributeName="fill" to="#808080" begin="reset.mouseover" end="reset.mouseout"/>
                       </use>
               </g>
        </defs>

<script type="text/javascript">
var viewWidth = 1441;
var viewHeight = 424;
var sectionId = 'dynsection-0';
</script>
<script xlink:href="svgpan.js"/>
<svg id="graph" class="graph">
<g id="viewport">
<title>VolumeControl.WPF.Collections.BindableEventType</title>
<!-- Node1 -->
<g id="node1" class="node">
<title>Node1</title>
<g id="a_node1"><a xlink:title="Provides the source for a WPF list component&#39;s ItemsSource property to expose a readable and writable...">
<polygon fill="#bfbfbf" stroke="black" points="718.5,-0.5 718.5,-299.5 890.5,-299.5 890.5,-0.5 718.5,-0.5"/>
<text text-anchor="start" x="726.5" y="-287.5" font-family="Helvetica,sans-Serif" font-size="10.00">VolumeControl.WPF.Collections.</text>
<text text-anchor="middle" x="804.5" y="-276.5" font-family="Helvetica,sans-Serif" font-size="10.00">BindableEventType</text>
<polyline fill="none" stroke="black" points="718.5,-269.5 890.5,-269.5 "/>
<text text-anchor="start" x="726.5" y="-257.5" font-family="Helvetica,sans-Serif" font-size="10.00">+ Name</text>
<text text-anchor="start" x="726.5" y="-246.5" font-family="Helvetica,sans-Serif" font-size="10.00">+ Count</text>
<text text-anchor="start" x="726.5" y="-235.5" font-family="Helvetica,sans-Serif" font-size="10.00">+ IsReadOnly</text>
<text text-anchor="start" x="726.5" y="-224.5" font-family="Helvetica,sans-Serif" font-size="10.00">+ IsSynchronized</text>
<text text-anchor="start" x="726.5" y="-213.5" font-family="Helvetica,sans-Serif" font-size="10.00">+ SyncRoot</text>
<text text-anchor="start" x="726.5" y="-202.5" font-family="Helvetica,sans-Serif" font-size="10.00">+ IsFixedSize</text>
<text text-anchor="start" x="726.5" y="-191.5" font-family="Helvetica,sans-Serif" font-size="10.00">+ this[int index]</text>
<text text-anchor="start" x="726.5" y="-180.5" font-family="Helvetica,sans-Serif" font-size="10.00">+ this[int index]</text>
<text text-anchor="start" x="726.5" y="-169.5" font-family="Helvetica,sans-Serif" font-size="10.00">+ Value</text>
<text text-anchor="start" x="726.5" y="-158.5" font-family="Helvetica,sans-Serif" font-size="10.00">+ Options</text>
<polyline fill="none" stroke="black" points="718.5,-151.5 890.5,-151.5 "/>
<text text-anchor="start" x="726.5" y="-139.5" font-family="Helvetica,sans-Serif" font-size="10.00">+ BindableEventType()</text>
<text text-anchor="start" x="726.5" y="-128.5" font-family="Helvetica,sans-Serif" font-size="10.00">+ BindableEventType()</text>
<text text-anchor="start" x="726.5" y="-117.5" font-family="Helvetica,sans-Serif" font-size="10.00">+ Add()</text>
<text text-anchor="start" x="726.5" y="-106.5" font-family="Helvetica,sans-Serif" font-size="10.00">+ Add()</text>
<text text-anchor="start" x="726.5" y="-95.5" font-family="Helvetica,sans-Serif" font-size="10.00">+ Clear()</text>
<text text-anchor="start" x="726.5" y="-84.5" font-family="Helvetica,sans-Serif" font-size="10.00">+ Contains()</text>
<text text-anchor="start" x="726.5" y="-73.5" font-family="Helvetica,sans-Serif" font-size="10.00">+ Contains()</text>
<text text-anchor="start" x="726.5" y="-62.5" font-family="Helvetica,sans-Serif" font-size="10.00">+ CopyTo()</text>
<text text-anchor="start" x="726.5" y="-51.5" font-family="Helvetica,sans-Serif" font-size="10.00">+ CopyTo()</text>
<text text-anchor="start" x="726.5" y="-40.5" font-family="Helvetica,sans-Serif" font-size="10.00">+ GetEnumerator()</text>
<text text-anchor="start" x="726.5" y="-29.5" font-family="Helvetica,sans-Serif" font-size="10.00">and 7 more...</text>
<text text-anchor="start" x="726.5" y="-18.5" font-family="Helvetica,sans-Serif" font-size="10.00"># NotifyPropertyChanged()</text>
<text text-anchor="start" x="726.5" y="-7.5" font-family="Helvetica,sans-Serif" font-size="10.00"># NotifyCollectionChanged()</text>
</a>
</g>
</g>
<!-- Node2 -->
<g id="node2" class="node">
<title>Node2</title>
<g id="a_node2"><a xlink:title=" ">
<polygon fill="none" stroke="#bfbfbf" points="0,-342 0,-410 167,-410 167,-342 0,-342"/>
<text text-anchor="start" x="8" y="-398" font-family="Helvetica,sans-Serif" font-size="10.00">ICollection&lt; BindableEvent</text>
<text text-anchor="middle" x="83.5" y="-387" font-family="Helvetica,sans-Serif" font-size="10.00">Type.BindableEventTypeFlag &gt;</text>
<polyline fill="none" stroke="#bfbfbf" points="0,-380 167,-380 "/>
<text text-anchor="middle" x="83.5" y="-368" font-family="Helvetica,sans-Serif" font-size="10.00"> </text>
<polyline fill="none" stroke="#bfbfbf" points="0,-361 167,-361 "/>
<text text-anchor="middle" x="83.5" y="-349" font-family="Helvetica,sans-Serif" font-size="10.00"> </text>
</a>
</g>
</g>
<!-- Node2&#45;&gt;Node1 -->
<g id="edge1" class="edge">
<title>Node2&#45;&gt;Node1</title>
<path fill="none" stroke="midnightblue" d="M169.07,-338.34C171.23,-337.54 173.38,-336.76 175.5,-336 366.41,-267.72 596.17,-204.89 718.29,-172.99"/>
<polygon fill="none" stroke="midnightblue" points="167.64,-335.14 159.54,-341.97 170.13,-341.69 167.64,-335.14"/>
</g>
<!-- Node3 -->
<g id="node3" class="node">
<title>Node3</title>
<g id="a_node3"><a xlink:title=" ">
<polygon fill="none" stroke="#bfbfbf" points="185,-342 185,-410 352,-410 352,-342 185,-342"/>
<text text-anchor="start" x="193" y="-398" font-family="Helvetica,sans-Serif" font-size="10.00">IEnumerable&lt; BindableEvent</text>
<text text-anchor="middle" x="268.5" y="-387" font-family="Helvetica,sans-Serif" font-size="10.00">Type.BindableEventTypeFlag &gt;</text>
<polyline fill="none" stroke="#bfbfbf" points="185,-380 352,-380 "/>
<text text-anchor="middle" x="268.5" y="-368" font-family="Helvetica,sans-Serif" font-size="10.00"> </text>
<polyline fill="none" stroke="#bfbfbf" points="185,-361 352,-361 "/>
<text text-anchor="middle" x="268.5" y="-349" font-family="Helvetica,sans-Serif" font-size="10.00"> </text>
</a>
</g>
</g>
<!-- Node3&#45;&gt;Node1 -->
<g id="edge2" class="edge">
<title>Node3&#45;&gt;Node1</title>
<path fill="none" stroke="midnightblue" d="M356.71,-338C358.32,-337.33 359.92,-336.66 361.5,-336 485.48,-284.12 629.03,-224.2 718.32,-186.95"/>
<polygon fill="none" stroke="midnightblue" points="355.27,-334.82 347.39,-341.91 357.97,-341.27 355.27,-334.82"/>
</g>
<!-- Node4 -->
<g id="node4" class="node">
<title>Node4</title>
<g id="a_node4"><a xlink:title=" ">
<polygon fill="none" stroke="#bfbfbf" points="370.5,-347.5 370.5,-404.5 448.5,-404.5 448.5,-347.5 370.5,-347.5"/>
<text text-anchor="middle" x="409.5" y="-392.5" font-family="Helvetica,sans-Serif" font-size="10.00">IEnumerable</text>
<polyline fill="none" stroke="#bfbfbf" points="370.5,-385.5 448.5,-385.5 "/>
<text text-anchor="middle" x="409.5" y="-373.5" font-family="Helvetica,sans-Serif" font-size="10.00"> </text>
<polyline fill="none" stroke="#bfbfbf" points="370.5,-366.5 448.5,-366.5 "/>
<text text-anchor="middle" x="409.5" y="-354.5" font-family="Helvetica,sans-Serif" font-size="10.00"> </text>
</a>
</g>
</g>
<!-- Node4&#45;&gt;Node1 -->
<g id="edge3" class="edge">
<title>Node4&#45;&gt;Node1</title>
<path fill="none" stroke="midnightblue" d="M450.04,-341.19C452.53,-339.39 455.03,-337.64 457.5,-336 542.53,-279.55 646.59,-225.94 718.45,-191.1"/>
<polygon fill="none" stroke="midnightblue" points="447.54,-338.68 441.65,-347.48 451.75,-344.28 447.54,-338.68"/>
</g>
<!-- Node5 -->
<g id="node5" class="node">
<title>Node5</title>
<g id="a_node5"><a xlink:title=" ">
<polygon fill="none" stroke="#bfbfbf" points="466.5,-342 466.5,-410 610.5,-410 610.5,-342 466.5,-342"/>
<text text-anchor="start" x="474.5" y="-398" font-family="Helvetica,sans-Serif" font-size="10.00">IList&lt; BindableEventType.</text>
<text text-anchor="middle" x="538.5" y="-387" font-family="Helvetica,sans-Serif" font-size="10.00">BindableEventTypeFlag &gt;</text>
<polyline fill="none" stroke="#bfbfbf" points="466.5,-380 610.5,-380 "/>
<text text-anchor="middle" x="538.5" y="-368" font-family="Helvetica,sans-Serif" font-size="10.00"> </text>
<polyline fill="none" stroke="#bfbfbf" points="466.5,-361 610.5,-361 "/>
<text text-anchor="middle" x="538.5" y="-349" font-family="Helvetica,sans-Serif" font-size="10.00"> </text>
</a>
</g>
</g>
<!-- Node5&#45;&gt;Node1 -->
<g id="edge4" class="edge">
<title>Node5&#45;&gt;Node1</title>
<path fill="none" stroke="midnightblue" d="M585.8,-335.17C622.49,-304.28 674.32,-260.63 718.32,-223.58"/>
<polygon fill="none" stroke="midnightblue" points="583.14,-332.83 577.75,-341.95 587.65,-338.18 583.14,-332.83"/>
</g>
<!-- Node6 -->
<g id="node6" class="node">
<title>Node6</title>
<g id="a_node6"><a xlink:title=" ">
<polygon fill="none" stroke="#bfbfbf" points="629,-336.5 629,-415.5 796,-415.5 796,-336.5 629,-336.5"/>
<text text-anchor="start" x="637" y="-403.5" font-family="Helvetica,sans-Serif" font-size="10.00">IReadOnlyCollection</text>
<text text-anchor="start" x="637" y="-392.5" font-family="Helvetica,sans-Serif" font-size="10.00">&lt; BindableEventType.Bindable</text>
<text text-anchor="middle" x="712.5" y="-381.5" font-family="Helvetica,sans-Serif" font-size="10.00">EventTypeFlag &gt;</text>
<polyline fill="none" stroke="#bfbfbf" points="629,-374.5 796,-374.5 "/>
<text text-anchor="middle" x="712.5" y="-362.5" font-family="Helvetica,sans-Serif" font-size="10.00"> </text>
<polyline fill="none" stroke="#bfbfbf" points="629,-355.5 796,-355.5 "/>
<text text-anchor="middle" x="712.5" y="-343.5" font-family="Helvetica,sans-Serif" font-size="10.00"> </text>
</a>
</g>
</g>
<!-- Node6&#45;&gt;Node1 -->
<g id="edge5" class="edge">
<title>Node6&#45;&gt;Node1</title>
<path fill="none" stroke="midnightblue" d="M732.13,-327.21C735.63,-318.69 739.43,-309.43 743.41,-299.75"/>
<polygon fill="none" stroke="midnightblue" points="728.88,-325.91 728.32,-336.49 735.35,-328.57 728.88,-325.91"/>
</g>
<!-- Node7 -->
<g id="node7" class="node">
<title>Node7</title>
<g id="a_node7"><a xlink:title=" ">
<polygon fill="none" stroke="#bfbfbf" points="814,-342 814,-410 981,-410 981,-342 814,-342"/>
<text text-anchor="start" x="822" y="-398" font-family="Helvetica,sans-Serif" font-size="10.00">IReadOnlyList&lt; BindableEvent</text>
<text text-anchor="middle" x="897.5" y="-387" font-family="Helvetica,sans-Serif" font-size="10.00">Type.BindableEventTypeFlag &gt;</text>
<polyline fill="none" stroke="#bfbfbf" points="814,-380 981,-380 "/>
<text text-anchor="middle" x="897.5" y="-368" font-family="Helvetica,sans-Serif" font-size="10.00"> </text>
<polyline fill="none" stroke="#bfbfbf" points="814,-361 981,-361 "/>
<text text-anchor="middle" x="897.5" y="-349" font-family="Helvetica,sans-Serif" font-size="10.00"> </text>
</a>
</g>
</g>
<!-- Node7&#45;&gt;Node1 -->
<g id="edge6" class="edge">
<title>Node7&#45;&gt;Node1</title>
<path fill="none" stroke="midnightblue" d="M879.84,-332.47C875.73,-322.57 871.12,-311.47 866.27,-299.77"/>
<polygon fill="none" stroke="midnightblue" points="876.71,-334.05 883.78,-341.95 883.18,-331.37 876.71,-334.05"/>
</g>
<!-- Node8 -->
<g id="node8" class="node">
<title>Node8</title>
<g id="a_node8"><a xlink:title=" ">
<polygon fill="none" stroke="#bfbfbf" points="999.5,-347.5 999.5,-404.5 1067.5,-404.5 1067.5,-347.5 999.5,-347.5"/>
<text text-anchor="middle" x="1033.5" y="-392.5" font-family="Helvetica,sans-Serif" font-size="10.00">ICollection</text>
<polyline fill="none" stroke="#bfbfbf" points="999.5,-385.5 1067.5,-385.5 "/>
<text text-anchor="middle" x="1033.5" y="-373.5" font-family="Helvetica,sans-Serif" font-size="10.00"> </text>
<polyline fill="none" stroke="#bfbfbf" points="999.5,-366.5 1067.5,-366.5 "/>
<text text-anchor="middle" x="1033.5" y="-354.5" font-family="Helvetica,sans-Serif" font-size="10.00"> </text>
</a>
</g>
</g>
<!-- Node8&#45;&gt;Node1 -->
<g id="edge7" class="edge">
<title>Node8&#45;&gt;Node1</title>
<path fill="none" stroke="midnightblue" d="M997.59,-339.88C968.94,-311.85 927.6,-271.41 890.51,-235.13"/>
<polygon fill="none" stroke="midnightblue" points="995.36,-342.59 1004.96,-347.08 1000.26,-337.59 995.36,-342.59"/>
</g>
<!-- Node9 -->
<g id="node9" class="node">
<title>Node9</title>
<g id="a_node9"><a xlink:title=" ">
<polygon fill="none" stroke="#bfbfbf" points="1086,-347.5 1086,-404.5 1123,-404.5 1123,-347.5 1086,-347.5"/>
<text text-anchor="middle" x="1104.5" y="-392.5" font-family="Helvetica,sans-Serif" font-size="10.00">IList</text>
<polyline fill="none" stroke="#bfbfbf" points="1086,-385.5 1123,-385.5 "/>
<text text-anchor="middle" x="1104.5" y="-373.5" font-family="Helvetica,sans-Serif" font-size="10.00"> </text>
<polyline fill="none" stroke="#bfbfbf" points="1086,-366.5 1123,-366.5 "/>
<text text-anchor="middle" x="1104.5" y="-354.5" font-family="Helvetica,sans-Serif" font-size="10.00"> </text>
</a>
</g>
</g>
<!-- Node9&#45;&gt;Node1 -->
<g id="edge8" class="edge">
<title>Node9&#45;&gt;Node1</title>
<path fill="none" stroke="midnightblue" d="M1079.7,-339.29C1078.65,-338.16 1077.58,-337.05 1076.5,-336 1020.78,-281.68 947.33,-232.78 890.8,-198.91"/>
<polygon fill="none" stroke="midnightblue" points="1077.24,-341.79 1086.37,-347.15 1082.57,-337.26 1077.24,-341.79"/>
</g>
<!-- Node10 -->
<g id="node10" class="node">
<title>Node10</title>
<g id="a_node10"><a xlink:title=" ">
<polygon fill="none" stroke="#bfbfbf" points="1141,-347.5 1141,-404.5 1274,-404.5 1274,-347.5 1141,-347.5"/>
<text text-anchor="middle" x="1207.5" y="-392.5" font-family="Helvetica,sans-Serif" font-size="10.00">INotifyPropertyChanged</text>
<polyline fill="none" stroke="#bfbfbf" points="1141,-385.5 1274,-385.5 "/>
<text text-anchor="middle" x="1207.5" y="-373.5" font-family="Helvetica,sans-Serif" font-size="10.00"> </text>
<polyline fill="none" stroke="#bfbfbf" points="1141,-366.5 1274,-366.5 "/>
<text text-anchor="middle" x="1207.5" y="-354.5" font-family="Helvetica,sans-Serif" font-size="10.00"> </text>
</a>
</g>
</g>
<!-- Node10&#45;&gt;Node1 -->
<g id="edge9" class="edge">
<title>Node10&#45;&gt;Node1</title>
<path fill="none" stroke="midnightblue" d="M1148.8,-342.38C1080.85,-304.61 968.33,-242.06 890.5,-198.8"/>
<polygon fill="none" stroke="midnightblue" points="1147.24,-345.51 1157.68,-347.31 1150.64,-339.39 1147.24,-345.51"/>
</g>
<!-- Node11 -->
<g id="node11" class="node">
<title>Node11</title>
<g id="a_node11"><a xlink:title=" ">
<polygon fill="none" stroke="#bfbfbf" points="1292.5,-347.5 1292.5,-404.5 1432.5,-404.5 1432.5,-347.5 1292.5,-347.5"/>
<text text-anchor="middle" x="1362.5" y="-392.5" font-family="Helvetica,sans-Serif" font-size="10.00">INotifyCollectionChanged</text>
<polyline fill="none" stroke="#bfbfbf" points="1292.5,-385.5 1432.5,-385.5 "/>
<text text-anchor="middle" x="1362.5" y="-373.5" font-family="Helvetica,sans-Serif" font-size="10.00"> </text>
<polyline fill="none" stroke="#bfbfbf" points="1292.5,-366.5 1432.5,-366.5 "/>
<text text-anchor="middle" x="1362.5" y="-354.5" font-family="Helvetica,sans-Serif" font-size="10.00"> </text>
</a>
</g>
</g>
<!-- Node11&#45;&gt;Node1 -->
<g id="edge10" class="edge">
<title>Node11&#45;&gt;Node1</title>
<path fill="none" stroke="midnightblue" d="M1299.03,-343.05C1293.8,-340.61 1288.58,-338.23 1283.5,-336 1148.2,-276.62 987.3,-216.58 890.67,-181.63"/>
<polygon fill="none" stroke="midnightblue" points="1297.87,-346.38 1308.41,-347.5 1300.87,-340.05 1297.87,-346.38"/>
</g>
</g>
</svg>
        <g id="navigator" transform="translate(0 0)" fill="#404254">
                <rect fill="#f2f5e9" fill-opacity="0.5" stroke="#606060" stroke-width=".5" x="0" y="0" width="60" height="60"/>
                <use id="zoomplus" xlink:href="#zoomPlus" x="17" y="9" onmousedown="handleZoom(evt,'in')"/>
                <use id="zoomminus" xlink:href="#zoomMin" x="42" y="9" onmousedown="handleZoom(evt,'out')"/>
                <use id="reset" xlink:href="#resetDef" x="30" y="36" onmousedown="handleReset()"/>
                <g id="arrowUp" xlink:href="#dirArrow" transform="translate(30 24)" onmousedown="handlePan(0,-1)">
                  <use xlink:href="#rim" fill="#404040">
                        <set attributeName="fill" to="#808080" begin="arrowUp.mouseover" end="arrowUp.mouseout"/>
                  </use>
                  <path fill="none" stroke="white" stroke-width="1.5" d="M0,-3.0v7 M-2.5,-0.5L0,-3.0L2.5,-0.5"/>
                </g>
                <g id="arrowRight" xlink:href="#dirArrow" transform="rotate(90) translate(36 -43)" onmousedown="handlePan(1,0)">
                  <use xlink:href="#rim" fill="#404040">
                        <set attributeName="fill" to="#808080" begin="arrowRight.mouseover" end="arrowRight.mouseout"/>
                  </use>
                  <path fill="none" stroke="white" stroke-width="1.5" d="M0,-3.0v7 M-2.5,-0.5L0,-3.0L2.5,-0.5"/>
                </g>
                <g id="arrowDown" xlink:href="#dirArrow" transform="rotate(180) translate(-30 -48)" onmousedown="handlePan(0,1)">
                  <use xlink:href="#rim" fill="#404040">
                        <set attributeName="fill" to="#808080" begin="arrowDown.mouseover" end="arrowDown.mouseout"/>
                  </use>
                  <path fill="none" stroke="white" stroke-width="1.5" d="M0,-3.0v7 M-2.5,-0.5L0,-3.0L2.5,-0.5"/>
                </g>
                <g id="arrowLeft" xlink:href="#dirArrow" transform="rotate(270) translate(-36 17)" onmousedown="handlePan(-1,0)">
                  <use xlink:href="#rim" fill="#404040">
                        <set attributeName="fill" to="#808080" begin="arrowLeft.mouseover" end="arrowLeft.mouseout"/>
                  </use>
                  <path fill="none" stroke="white" stroke-width="1.5" d="M0,-3.0v7 M-2.5,-0.5L0,-3.0L2.5,-0.5"/>
                </g>
        </g>
        <svg viewBox="0 0 15 15" width="100%" height="30px" preserveAspectRatio="xMaxYMin meet">
         <g id="arrow_out" transform="scale(0.3 0.3)">
          <a xlink:href="class_volume_control_1_1_w_p_f_1_1_collections_1_1_bindable_event_type__inherit__graph_org.svg" target="_base">
           <rect id="button" ry="5" rx="5" y="6" x="6" height="38" width="38"
                fill="#f2f5e9" fill-opacity="0.5" stroke="#606060" stroke-width="1.0"/>
           <path id="arrow"
             d="M 11.500037,31.436501 C 11.940474,20.09759 22.043105,11.32322 32.158766,21.979434 L 37.068811,17.246167 C 37.068811,17.246167 37.088388,32 37.088388,32 L 22.160133,31.978069 C 22.160133,31.978069 26.997745,27.140456 26.997745,27.140456 C 18.528582,18.264221 13.291696,25.230495 11.500037,31.436501 z"
             style="fill:#404040;"/>
          </a>
         </g>
        </svg>
</svg>
