<?xml version="1.0" encoding="UTF-8" standalone="no"?>
<!DOCTYPE svg PUBLIC "-//W3C//DTD SVG 1.1//EN"
 "http://www.w3.org/Graphics/SVG/1.1/DTD/svg11.dtd">
<!-- Generated by graphviz version 2.43.0 (0)
 -->
<!-- Title: VolumeControl.CoreAudio.AudioSessionMultiSelector Pages: 1 -->
<!--zoomable 520 -->

<svg id="main" version="1.1" xmlns="http://www.w3.org/2000/svg" xmlns:xlink="http://www.w3.org/1999/xlink" xml:space="preserve" onload="init(evt)">
<style type="text/css"><![CDATA[
.node, .edge {opacity: 0.7;}
.node.selected, .edge.selected {opacity: 1;}
.edge:hover path { stroke: red; }
.edge:hover polygon { stroke: red; fill: red; }
]]></style>

<defs>
  <circle id="rim" cx="0" cy="0" r="7"/>
  <circle id="rim2" cx="0" cy="0" r="3.5"/>
  <g id="zoomPlus">
    <use xlink:href="#rim" fill="#404040"><set attributeName="fill" to="#808080" begin="zoomplus.mouseover" end="zoomplus.mouseout"/></use>
    <path d="M-4,0h8M0,-4v8" fill="none" stroke="white" stroke-width="1.5" pointer-events="none"/>
  </g>
  <g id="zoomMin">
    <use xlink:href="#rim" fill="#404040"><set attributeName="fill" to="#808080" begin="zoomminus.mouseover" end="zoomminus.mouseout"/></use>
    <path d="M-4,0h8" fill="none" stroke="white" stroke-width="1.5" pointer-events="none"/>
  </g>
  <g id="arrowUp" transform="translate(30 24)">
    <use xlink:href="#rim"/>
    <path pointer-events="none" fill="none" stroke="white" stroke-width="1.5" d="M0,-3.0v7 M-2.5,-0.5L0,-3.0L2.5,-0.5"/>
  </g>
  <g id="arrowRight" transform="rotate(90) translate(36 -43)">
    <use xlink:href="#rim"/>
    <path pointer-events="none" fill="none" stroke="white" stroke-width="1.5" d="M0,-3.0v7 M-2.5,-0.5L0,-3.0L2.5,-0.5"/>
  </g>
  <g id="arrowDown" transform="rotate(180) translate(-30 -48)">
    <use xlink:href="#rim"/>
    <path pointer-events="none" fill="none" stroke="white" stroke-width="1.5" d="M0,-3.0v7 M-2.5,-0.5L0,-3.0L2.5,-0.5"/>
  </g>
  <g id="arrowLeft" transform="rotate(270) translate(-36 17)">
    <use xlink:href="#rim"/>
    <path pointer-events="none" fill="none" stroke="white" stroke-width="1.5" d="M0,-3.0v7 M-2.5,-0.5L0,-3.0L2.5,-0.5"/>
  </g>
  <g id="resetDef">
    <use xlink:href="#rim2" fill="#404040"><set attributeName="fill" to="#808080" begin="reset.mouseover" end="reset.mouseout"/></use>
  </g>
</defs>
<script type="application/ecmascript">
var viewWidth = 260;
var viewHeight = 520;
var sectionId = 'dynsection-1';
</script>
<script type="application/ecmascript" xlink:href="svg.min.js"/>
<svg id="graph" class="graph">
<g id="viewport">
<title>VolumeControl.CoreAudio.AudioSessionMultiSelector</title>
<!-- Node1 -->
<g id="Node000001" class="node">
<title>Node1</title>
<g id="a_Node000001"><a xlink:title="Manages multiple &quot;selected&quot; audio sessions for a given CoreAudio.AudioSessionManager instance.">
<polygon fill="#999999" stroke="transparent" points="214.5,-382 26.5,-382 26.5,0 214.5,0 214.5,-382"/>
<text text-anchor="start" x="55.5" y="-370" font-family="Helvetica,sans-Serif" font-size="10.00">VolumeControl.CoreAudio.</text>
<text text-anchor="start" x="55.5" y="-359" font-family="Helvetica,sans-Serif" font-size="10.00">AudioSessionMultiSelector</text>
<text text-anchor="start" x="30.5" y="-344" font-family="Helvetica,sans-Serif" font-size="10.00">+</text>
<text text-anchor="start" x="43.5" y="-344" font-family="Helvetica,sans-Serif" font-size="10.00">Settings</text>
<text text-anchor="start" x="30.5" y="-329" font-family="Helvetica,sans-Serif" font-size="10.00">+</text>
<text text-anchor="start" x="43.5" y="-329" font-family="Helvetica,sans-Serif" font-size="10.00">AudioSessionManager</text>
<text text-anchor="start" x="30.5" y="-314" font-family="Helvetica,sans-Serif" font-size="10.00">+</text>
<text text-anchor="start" x="43.5" y="-314" font-family="Helvetica,sans-Serif" font-size="10.00">Sessions</text>
<text text-anchor="start" x="30.5" y="-299" font-family="Helvetica,sans-Serif" font-size="10.00">+</text>
<text text-anchor="start" x="43.5" y="-299" font-family="Helvetica,sans-Serif" font-size="10.00">SelectionStates</text>
<text text-anchor="start" x="30.5" y="-284" font-family="Helvetica,sans-Serif" font-size="10.00">+</text>
<text text-anchor="start" x="43.5" y="-284" font-family="Helvetica,sans-Serif" font-size="10.00">SelectedSessions</text>
<text text-anchor="start" x="30.5" y="-269" font-family="Helvetica,sans-Serif" font-size="10.00">+</text>
<text text-anchor="start" x="43.5" y="-269" font-family="Helvetica,sans-Serif" font-size="10.00">HasSelectedSessions</text>
<text text-anchor="start" x="30.5" y="-254" font-family="Helvetica,sans-Serif" font-size="10.00">+</text>
<text text-anchor="start" x="43.5" y="-254" font-family="Helvetica,sans-Serif" font-size="10.00">CurrentIndex</text>
<text text-anchor="start" x="30.5" y="-239" font-family="Helvetica,sans-Serif" font-size="10.00">+</text>
<text text-anchor="start" x="43.5" y="-239" font-family="Helvetica,sans-Serif" font-size="10.00">LockCurrentIndex</text>
<text text-anchor="start" x="30.5" y="-224" font-family="Helvetica,sans-Serif" font-size="10.00">+</text>
<text text-anchor="start" x="43.5" y="-224" font-family="Helvetica,sans-Serif" font-size="10.00">CurrentSession</text>
<text text-anchor="start" x="30.5" y="-209" font-family="Helvetica,sans-Serif" font-size="10.00">+</text>
<text text-anchor="start" x="43.5" y="-209" font-family="Helvetica,sans-Serif" font-size="10.00">LockSelection</text>
<text text-anchor="start" x="30.5" y="-194" font-family="Helvetica,sans-Serif" font-size="10.00">+</text>
<text text-anchor="start" x="43.5" y="-194" font-family="Helvetica,sans-Serif" font-size="10.00">LockCurrentIndexOnLockSelection</text>
<text text-anchor="start" x="30.5" y="-179" font-family="Helvetica,sans-Serif" font-size="10.00">+</text>
<text text-anchor="start" x="43.5" y="-179" font-family="Helvetica,sans-Serif" font-size="10.00">AudioSessionMultiSelector()</text>
<text text-anchor="start" x="30.5" y="-164" font-family="Helvetica,sans-Serif" font-size="10.00">+</text>
<text text-anchor="start" x="43.5" y="-164" font-family="Helvetica,sans-Serif" font-size="10.00">NotifyActiveSessionChanged()</text>
<text text-anchor="start" x="30.5" y="-149" font-family="Helvetica,sans-Serif" font-size="10.00">+</text>
<text text-anchor="start" x="43.5" y="-149" font-family="Helvetica,sans-Serif" font-size="10.00">GetSessionIsSelected()</text>
<text text-anchor="start" x="30.5" y="-134" font-family="Helvetica,sans-Serif" font-size="10.00">+</text>
<text text-anchor="start" x="43.5" y="-134" font-family="Helvetica,sans-Serif" font-size="10.00">SetSessionIsSelected()</text>
<text text-anchor="start" x="30.5" y="-119" font-family="Helvetica,sans-Serif" font-size="10.00">+</text>
<text text-anchor="start" x="43.5" y="-119" font-family="Helvetica,sans-Serif" font-size="10.00">SetSessionIsSelected()</text>
<text text-anchor="start" x="30.5" y="-104" font-family="Helvetica,sans-Serif" font-size="10.00">+</text>
<text text-anchor="start" x="43.5" y="-104" font-family="Helvetica,sans-Serif" font-size="10.00">SetAllSessionSelectionStates()</text>
<text text-anchor="start" x="30.5" y="-89" font-family="Helvetica,sans-Serif" font-size="10.00">+</text>
<text text-anchor="start" x="43.5" y="-89" font-family="Helvetica,sans-Serif" font-size="10.00">SetSelectedSessions()</text>
<text text-anchor="start" x="30.5" y="-74" font-family="Helvetica,sans-Serif" font-size="10.00">+</text>
<text text-anchor="start" x="43.5" y="-74" font-family="Helvetica,sans-Serif" font-size="10.00">SetSelectedSessions()</text>
<text text-anchor="start" x="30.5" y="-59" font-family="Helvetica,sans-Serif" font-size="10.00">+</text>
<text text-anchor="start" x="43.5" y="-59" font-family="Helvetica,sans-Serif" font-size="10.00">SetSelectedSessionsOrCurrent</text>
<text text-anchor="start" x="43.5" y="-48" font-family="Helvetica,sans-Serif" font-size="10.00">Session()</text>
<text text-anchor="start" x="30.5" y="-33" font-family="Helvetica,sans-Serif" font-size="10.00">+</text>
<text text-anchor="start" x="43.5" y="-33" font-family="Helvetica,sans-Serif" font-size="10.00">SetSelectedSessionsOrCurrent</text>
<text text-anchor="start" x="43.5" y="-22" font-family="Helvetica,sans-Serif" font-size="10.00">Session()</text>
<text text-anchor="start" x="43.5" y="-7" font-family="Helvetica,sans-Serif" font-size="10.00">and 8 more...</text>
<polygon fill="#666666" stroke="#666666" points="26.5,-354 26.5,-354 214.5,-354 214.5,-354 26.5,-354"/>
<polygon fill="#666666" stroke="#666666" points="26.5,-189 26.5,-189 41.5,-189 41.5,-189 26.5,-189"/>
<polygon fill="#666666" stroke="#666666" points="41.5,-189 41.5,-189 214.5,-189 214.5,-189 41.5,-189"/>
<polygon fill="none" stroke="#666666" points="26.5,0 26.5,-382 214.5,-382 214.5,0 26.5,0"/>
</a>
</g>
</g>
<!-- Node2 -->
<g id="Node000002" class="node">
<title>Node2</title>
<g id="a_Node000002"><a xlink:href="interface_volume_control_1_1_core_audio_1_1_interfaces_1_1_i_audio_multi_selector.html" target="_top" xlink:title="Represents a list item multi&#45;selector.">
<polygon fill="white" stroke="transparent" points="107,-512 0,-512 0,-418 107,-418 107,-512"/>
<text text-anchor="start" x="6" y="-500" font-family="Helvetica,sans-Serif" font-size="10.00">IAudioMultiSelector</text>
<text text-anchor="start" x="4.5" y="-485" font-family="Helvetica,sans-Serif" font-size="10.00">+</text>
<text text-anchor="start" x="17.5" y="-485" font-family="Helvetica,sans-Serif" font-size="10.00">SelectionStates</text>
<text text-anchor="start" x="4.5" y="-470" font-family="Helvetica,sans-Serif" font-size="10.00">+</text>
<text text-anchor="start" x="17.5" y="-470" font-family="Helvetica,sans-Serif" font-size="10.00">CurrentIndex</text>
<text text-anchor="start" x="4.5" y="-455" font-family="Helvetica,sans-Serif" font-size="10.00">+</text>
<text text-anchor="start" x="17.5" y="-455" font-family="Helvetica,sans-Serif" font-size="10.00">LockCurrentIndex</text>
<text text-anchor="start" x="4.5" y="-440" font-family="Helvetica,sans-Serif" font-size="10.00">+</text>
<text text-anchor="start" x="17.5" y="-440" font-family="Helvetica,sans-Serif" font-size="10.00">LockSelection</text>
<text text-anchor="start" x="52" y="-425" font-family="Helvetica,sans-Serif" font-size="10.00"> </text>
<polygon fill="#666666" stroke="#666666" points="0.5,-495 0.5,-495 107.5,-495 107.5,-495 0.5,-495"/>
<polygon fill="#666666" stroke="#666666" points="0.5,-435 0.5,-435 15.5,-435 15.5,-435 0.5,-435"/>
<polygon fill="#666666" stroke="#666666" points="15.5,-435 15.5,-435 107.5,-435 107.5,-435 15.5,-435"/>
<polygon fill="none" stroke="#666666" points="0,-418 0,-512 107,-512 107,-418 0,-418"/>
</a>
</g>
</g>
<!-- Node2&#45;&gt;Node1 -->
<g id="edge1_Node000001_Node000002" class="edge">
<title>Node2&#45;&gt;Node1</title>
<g id="a_edge1_Node000001_Node000002"><a xlink:title=" ">
<path fill="none" stroke="#63b8ff" d="M67.31,-407.93C69.31,-399.83 71.44,-391.15 73.68,-382.08"/>
<polygon fill="none" stroke="#63b8ff" points="63.86,-407.31 64.87,-417.86 70.66,-408.99 63.86,-407.31"/>
</a>
</g>
</g>
<!-- Node3 -->
<g id="Node000003" class="node">
<title>Node3</title>
<g id="a_Node000003"><a xlink:title=" ">
<polygon fill="white" stroke="transparent" points="252,-489.5 125,-489.5 125,-440.5 252,-440.5 252,-489.5"/>
<text text-anchor="start" x="130.5" y="-477" font-family="Helvetica,sans-Serif" font-size="10.00">INotifyPropertyChanged</text>
<text text-anchor="start" x="187" y="-462" font-family="Helvetica,sans-Serif" font-size="10.00"> </text>
<text text-anchor="start" x="187" y="-447" font-family="Helvetica,sans-Serif" font-size="10.00"> </text>
<polygon fill="#bfbfbf" stroke="#bfbfbf" points="125.5,-472 125.5,-472 252.5,-472 252.5,-472 125.5,-472"/>
<polygon fill="#bfbfbf" stroke="#bfbfbf" points="125.5,-457 125.5,-457 252.5,-457 252.5,-457 125.5,-457"/>
<polygon fill="none" stroke="#bfbfbf" points="125,-440.5 125,-489.5 252,-489.5 252,-440.5 125,-440.5"/>
</a>
</g>
</g>
<!-- Node3&#45;&gt;Node1 -->
<g id="edge2_Node000001_Node000003" class="edge">
<title>Node3&#45;&gt;Node1</title>
<g id="a_edge2_Node000001_Node000003"><a xlink:title=" ">
<path fill="none" stroke="#63b8ff" d="M180.07,-430.28C176.71,-416.85 172.57,-400.28 168.04,-382.17"/>
<polygon fill="none" stroke="#63b8ff" points="176.76,-431.49 182.58,-440.34 183.55,-429.79 176.76,-431.49"/>
</a>
</g>
</g>
</g>
</svg>

<g id="navigator" transform="translate(0 0)" fill="#404254">
  <rect fill="#f2f5e9" fill-opacity="0.5" stroke="#606060" stroke-width=".5" x="0" y="0" width="60" height="60"/>
  <use id="zoomplus" xlink:href="#zoomPlus" x="17" y="9" onmousedown="handleZoom(evt,'in')"/>
  <use id="zoomminus" xlink:href="#zoomMin" x="42" y="9" onmousedown="handleZoom(evt,'out')"/>
  <use id="reset" xlink:href="#resetDef" x="30" y="36" onmousedown="handleReset()"/>
   <use id="arrowup" xlink:href="#arrowUp" x="0" y="0" onmousedown="handlePan(0,-1)"/>
  <use id="arrowright" xlink:href="#arrowRight" x="0" y="0" onmousedown="handlePan(1,0)"/>
  <use id="arrowdown" xlink:href="#arrowDown" x="0" y="0" onmousedown="handlePan(0,1)"/>
  <use id="arrowleft" xlink:href="#arrowLeft" x="0" y="0" onmousedown="handlePan(-1,0)"/>
</g>
<svg viewBox="0 0 15 15" width="100%" height="30px" preserveAspectRatio="xMaxYMin meet">
 <g id="arrow_out" transform="scale(0.3 0.3)">
  <a xlink:href="class_volume_control_1_1_core_audio_1_1_audio_session_multi_selector__coll__graph_org.svg" target="_base">
   <rect id="button" ry="5" rx="5" y="6" x="6" height="38" width="38"
        fill="#f2f5e9" fill-opacity="0.5" stroke="#606060" stroke-width="1.0"/>
   <path id="arrow"
     d="M 11.500037,31.436501 C 11.940474,20.09759 22.043105,11.32322 32.158766,21.979434 L 37.068811,17.246167 C 37.068811,17.246167 37.088388,32 37.088388,32 L 22.160133,31.978069 C 22.160133,31.978069 26.997745,27.140456 26.997745,27.140456 C 18.528582,18.264221 13.291696,25.230495 11.500037,31.436501 z"
     style="fill:#404040;"/>
  </a>
 </g>
</svg>

<style type='text/css'>
<![CDATA[
[data-mouse-over-selected='false'] { opacity: 0.7; }
[data-mouse-over-selected='true']  { opacity: 1.0; }
]]>
</style>
<script type="application/ecmascript"><![CDATA[
document.addEventListener('DOMContentLoaded', (event) => {
  highlightEdges();
  highlightAdjacentNodes();
});
]]></script>
</svg>
