<?xml version="1.0" encoding="UTF-8" standalone="no"?>
<!DOCTYPE svg PUBLIC "-//W3C//DTD SVG 1.1//EN"
 "http://www.w3.org/Graphics/SVG/1.1/DTD/svg11.dtd">
<!-- Generated by graphviz version 2.43.0 (0)
 -->
<!-- Title: VolumeControl.CoreAudio.AudioSession Pages: 1 -->
<!--zoomable 485 -->
<svg id="main" version="1.1" xmlns="http://www.w3.org/2000/svg" xmlns:xlink="http://www.w3.org/1999/xlink" xml:space="preserve" onload="init(evt)">
<style type="text/css"><![CDATA[
.edge:hover path { stroke: red; }
.edge:hover polygon { stroke: red; fill: red; }
]]></style>
<script type="text/javascript"><![CDATA[
var edges = document.getElementsByTagName('g');
if (edges && edges.length) {
  for (var i=0;i<edges.length;i++) {
    if (edges[i].id.substr(0,4)=='edge') {
      edges[i].setAttribute('class','edge');
    }
  }
}
]]></script>
        <defs>
                <circle id="rim" cx="0" cy="0" r="7"/>
                <circle id="rim2" cx="0" cy="0" r="3.5"/>
                <g id="zoomPlus">
                        <use xlink:href="#rim" fill="#404040">
                                <set attributeName="fill" to="#808080" begin="zoomplus.mouseover" end="zoomplus.mouseout"/>
                        </use>
                        <path d="M-4,0h8M0,-4v8" fill="none" stroke="white" stroke-width="1.5" pointer-events="none"/>
                </g>
                <g id="zoomMin">
                        <use xlink:href="#rim" fill="#404040">
                                <set attributeName="fill" to="#808080" begin="zoomminus.mouseover" end="zoomminus.mouseout"/>
                        </use>
                        <path d="M-4,0h8" fill="none" stroke="white" stroke-width="1.5" pointer-events="none"/>
                </g>
                <g id="dirArrow">
                        <path fill="none" stroke="white" stroke-width="1.5" d="M0,-3.0v7 M-2.5,-0.5L0,-3.0L2.5,-0.5"/>
                </g>
               <g id="resetDef">
                       <use xlink:href="#rim2" fill="#404040">
                               <set attributeName="fill" to="#808080" begin="reset.mouseover" end="reset.mouseout"/>
                       </use>
               </g>
        </defs>

<script type="text/javascript">
var viewWidth = 683;
var viewHeight = 485;
var sectionId = 'dynsection-1';
</script>
<script xlink:href="svgpan.js"/>
<svg id="graph" class="graph">
<g id="viewport">
<title>VolumeControl.CoreAudio.AudioSession</title>
<!-- Node1 -->
<g id="node1" class="node">
<title>Node1</title>
<g id="a_node1"><a xlink:title="A single audio session running on an audio device.">
<polygon fill="#bfbfbf" stroke="black" points="219,-0.5 219,-244.5 398,-244.5 398,-0.5 219,-0.5"/>
<text text-anchor="start" x="227" y="-232.5" font-family="Helvetica,sans-Serif" font-size="10.00">VolumeControl.CoreAudio.</text>
<text text-anchor="middle" x="308.5" y="-221.5" font-family="Helvetica,sans-Serif" font-size="10.00">AudioSession</text>
<polyline fill="none" stroke="black" points="219,-214.5 398,-214.5 "/>
<text text-anchor="start" x="227" y="-202.5" font-family="Helvetica,sans-Serif" font-size="10.00">+ ProcessIdentifierSeparatorChar</text>
<text text-anchor="start" x="227" y="-191.5" font-family="Helvetica,sans-Serif" font-size="10.00">+ processId</text>
<text text-anchor="start" x="227" y="-180.5" font-family="Helvetica,sans-Serif" font-size="10.00">+ Log</text>
<text text-anchor="start" x="227" y="-169.5" font-family="Helvetica,sans-Serif" font-size="10.00">+ AudioDevice</text>
<text text-anchor="start" x="227" y="-158.5" font-family="Helvetica,sans-Serif" font-size="10.00">+ AudioSessionControl</text>
<text text-anchor="start" x="227" y="-147.5" font-family="Helvetica,sans-Serif" font-size="10.00">+ SimpleAudioVolume</text>
<text text-anchor="start" x="227" y="-136.5" font-family="Helvetica,sans-Serif" font-size="10.00">+ AudioMeterInformation</text>
<text text-anchor="start" x="227" y="-125.5" font-family="Helvetica,sans-Serif" font-size="10.00">+ PID</text>
<text text-anchor="start" x="227" y="-114.5" font-family="Helvetica,sans-Serif" font-size="10.00">+ ProcessName</text>
<text text-anchor="start" x="227" y="-103.5" font-family="Helvetica,sans-Serif" font-size="10.00">+ Name</text>
<text text-anchor="start" x="227" y="-92.5" font-family="Helvetica,sans-Serif" font-size="10.00">+ HasCustomName</text>
<text text-anchor="start" x="227" y="-81.5" font-family="Helvetica,sans-Serif" font-size="10.00">+ Process</text>
<text text-anchor="start" x="227" y="-70.5" font-family="Helvetica,sans-Serif" font-size="10.00">and 8 more...</text>
<polyline fill="none" stroke="black" points="219,-63.5 398,-63.5 "/>
<text text-anchor="start" x="227" y="-51.5" font-family="Helvetica,sans-Serif" font-size="10.00">+ GetTargetInfo()</text>
<text text-anchor="start" x="227" y="-40.5" font-family="Helvetica,sans-Serif" font-size="10.00">+ HasMatchingName()</text>
<text text-anchor="start" x="227" y="-29.5" font-family="Helvetica,sans-Serif" font-size="10.00">+ Dispose()</text>
<text text-anchor="start" x="227" y="-18.5" font-family="Helvetica,sans-Serif" font-size="10.00">+ TryParseProcessIdentifier()</text>
<text text-anchor="start" x="227" y="-7.5" font-family="Helvetica,sans-Serif" font-size="10.00">~ AudioSession()</text>
</a>
</g>
</g>
<!-- Node2 -->
<g id="node2" class="node">
<title>Node2</title>
<g id="a_node2"><a xlink:href="interface_volume_control_1_1_core_audio_1_1_interfaces_1_1_i_audio_control.html" target="_top" xlink:title="Represents an audio instance with a controllable volume level and mute state.">
<polygon fill="none" stroke="black" points="0,-397.5 0,-476.5 97,-476.5 97,-397.5 0,-397.5"/>
<text text-anchor="middle" x="48.5" y="-464.5" font-family="Helvetica,sans-Serif" font-size="10.00">IAudioControl</text>
<polyline fill="none" stroke="black" points="0,-457.5 97,-457.5 "/>
<text text-anchor="start" x="8" y="-445.5" font-family="Helvetica,sans-Serif" font-size="10.00">+ NativeVolume</text>
<text text-anchor="start" x="8" y="-434.5" font-family="Helvetica,sans-Serif" font-size="10.00">+ Volume</text>
<text text-anchor="start" x="8" y="-423.5" font-family="Helvetica,sans-Serif" font-size="10.00">+ Mute</text>
<polyline fill="none" stroke="black" points="0,-416.5 97,-416.5 "/>
<text text-anchor="middle" x="48.5" y="-404.5" font-family="Helvetica,sans-Serif" font-size="10.00"> </text>
</a>
</g>
</g>
<!-- Node2&#45;&gt;Node1 -->
<g id="edge1" class="edge">
<title>Node2&#45;&gt;Node1</title>
<path fill="none" stroke="midnightblue" d="M24.62,-387.73C12.3,-355.49 3.44,-313.25 22.5,-281 64.6,-209.75 151.7,-168.54 218.79,-146.28"/>
<polygon fill="none" stroke="midnightblue" points="21.53,-389.43 28.53,-397.39 28.02,-386.81 21.53,-389.43"/>
</g>
<!-- Node4 -->
<g id="node4" class="node">
<title>Node4</title>
<g id="a_node4"><a xlink:href="interface_volume_control_1_1_core_audio_1_1_interfaces_1_1_i_hideable_audio_control.html" target="_top" xlink:title="Represents an audio instance that can be prevented from becoming selected.">
<polygon fill="none" stroke="black" points="31.5,-292.5 31.5,-349.5 157.5,-349.5 157.5,-292.5 31.5,-292.5"/>
<text text-anchor="middle" x="94.5" y="-337.5" font-family="Helvetica,sans-Serif" font-size="10.00">IHideableAudioControl</text>
<polyline fill="none" stroke="black" points="31.5,-330.5 157.5,-330.5 "/>
<text text-anchor="start" x="39.5" y="-318.5" font-family="Helvetica,sans-Serif" font-size="10.00">+ IsHidden</text>
<polyline fill="none" stroke="black" points="31.5,-311.5 157.5,-311.5 "/>
<text text-anchor="middle" x="94.5" y="-299.5" font-family="Helvetica,sans-Serif" font-size="10.00"> </text>
</a>
</g>
</g>
<!-- Node2&#45;&gt;Node4 -->
<g id="edge4" class="edge">
<title>Node2&#45;&gt;Node4</title>
<path fill="none" stroke="midnightblue" d="M67.85,-388.05C73.12,-374.99 78.65,-361.28 83.3,-349.75"/>
<polygon fill="none" stroke="midnightblue" points="64.57,-386.82 64.07,-397.4 71.06,-389.44 64.57,-386.82"/>
</g>
<!-- Node3 -->
<g id="node3" class="node">
<title>Node3</title>
<g id="a_node3"><a xlink:href="interface_volume_control_1_1_core_audio_1_1_interfaces_1_1_i_read_only_audio_control.html" target="_top" xlink:title="Represents an audio instance with a read&#45;only volume level and mute state.">
<polygon fill="none" stroke="black" points="175.5,-281.5 175.5,-360.5 305.5,-360.5 305.5,-281.5 175.5,-281.5"/>
<text text-anchor="middle" x="240.5" y="-348.5" font-family="Helvetica,sans-Serif" font-size="10.00">IReadOnlyAudioControl</text>
<polyline fill="none" stroke="black" points="175.5,-341.5 305.5,-341.5 "/>
<text text-anchor="start" x="183.5" y="-329.5" font-family="Helvetica,sans-Serif" font-size="10.00">+ NativeVolume</text>
<text text-anchor="start" x="183.5" y="-318.5" font-family="Helvetica,sans-Serif" font-size="10.00">+ Volume</text>
<text text-anchor="start" x="183.5" y="-307.5" font-family="Helvetica,sans-Serif" font-size="10.00">+ Mute</text>
<polyline fill="none" stroke="black" points="175.5,-300.5 305.5,-300.5 "/>
<text text-anchor="middle" x="240.5" y="-288.5" font-family="Helvetica,sans-Serif" font-size="10.00"> </text>
</a>
</g>
</g>
<!-- Node3&#45;&gt;Node1 -->
<g id="edge2" class="edge">
<title>Node3&#45;&gt;Node1</title>
<path fill="none" stroke="midnightblue" d="M257.26,-271.58C260.18,-263.12 263.34,-253.99 266.61,-244.56"/>
<polygon fill="none" stroke="midnightblue" points="253.9,-270.58 253.93,-281.18 260.51,-272.87 253.9,-270.58"/>
</g>
<!-- Node4&#45;&gt;Node1 -->
<g id="edge3" class="edge">
<title>Node4&#45;&gt;Node1</title>
<path fill="none" stroke="midnightblue" d="M132.21,-285.37C156.24,-263.31 188.46,-233.72 218.78,-205.89"/>
<polygon fill="none" stroke="midnightblue" points="129.71,-282.92 124.71,-292.26 134.44,-288.08 129.71,-282.92"/>
</g>
<!-- Node5 -->
<g id="node5" class="node">
<title>Node5</title>
<g id="a_node5"><a xlink:href="interface_volume_control_1_1_core_audio_1_1_interfaces_1_1_i_audio_peak_meter.html" target="_top" xlink:title="Represents some kind of object that has an audio peak meter.">
<polygon fill="none" stroke="black" points="324,-292.5 324,-349.5 431,-349.5 431,-292.5 324,-292.5"/>
<text text-anchor="middle" x="377.5" y="-337.5" font-family="Helvetica,sans-Serif" font-size="10.00">IAudioPeakMeter</text>
<polyline fill="none" stroke="black" points="324,-330.5 431,-330.5 "/>
<text text-anchor="start" x="332" y="-318.5" font-family="Helvetica,sans-Serif" font-size="10.00">+ PeakMeterValue</text>
<polyline fill="none" stroke="black" points="324,-311.5 431,-311.5 "/>
<text text-anchor="middle" x="377.5" y="-299.5" font-family="Helvetica,sans-Serif" font-size="10.00"> </text>
</a>
</g>
</g>
<!-- Node5&#45;&gt;Node1 -->
<g id="edge5" class="edge">
<title>Node5&#45;&gt;Node1</title>
<path fill="none" stroke="midnightblue" d="M364.33,-282.49C360.39,-271.28 355.84,-258.33 351.08,-244.76"/>
<polygon fill="none" stroke="midnightblue" points="361.14,-283.99 367.76,-292.26 367.75,-281.67 361.14,-283.99"/>
</g>
<!-- Node6 -->
<g id="node6" class="node">
<title>Node6</title>
<g id="a_node6"><a xlink:title=" ">
<polygon fill="none" stroke="#bfbfbf" points="449,-292.5 449,-349.5 582,-349.5 582,-292.5 449,-292.5"/>
<text text-anchor="middle" x="515.5" y="-337.5" font-family="Helvetica,sans-Serif" font-size="10.00">INotifyPropertyChanged</text>
<polyline fill="none" stroke="#bfbfbf" points="449,-330.5 582,-330.5 "/>
<text text-anchor="middle" x="515.5" y="-318.5" font-family="Helvetica,sans-Serif" font-size="10.00"> </text>
<polyline fill="none" stroke="#bfbfbf" points="449,-311.5 582,-311.5 "/>
<text text-anchor="middle" x="515.5" y="-299.5" font-family="Helvetica,sans-Serif" font-size="10.00"> </text>
</a>
</g>
</g>
<!-- Node6&#45;&gt;Node1 -->
<g id="edge6" class="edge">
<title>Node6&#45;&gt;Node1</title>
<path fill="none" stroke="midnightblue" d="M478.94,-285.3C456.43,-263.93 426.52,-235.53 398.04,-208.5"/>
<polygon fill="none" stroke="midnightblue" points="476.62,-287.92 486.28,-292.26 481.44,-282.84 476.62,-287.92"/>
</g>
<!-- Node7 -->
<g id="node7" class="node">
<title>Node7</title>
<g id="a_node7"><a xlink:title=" ">
<polygon fill="none" stroke="#bfbfbf" points="600.5,-292.5 600.5,-349.5 674.5,-349.5 674.5,-292.5 600.5,-292.5"/>
<text text-anchor="middle" x="637.5" y="-337.5" font-family="Helvetica,sans-Serif" font-size="10.00">IDisposable</text>
<polyline fill="none" stroke="#bfbfbf" points="600.5,-330.5 674.5,-330.5 "/>
<text text-anchor="middle" x="637.5" y="-318.5" font-family="Helvetica,sans-Serif" font-size="10.00"> </text>
<polyline fill="none" stroke="#bfbfbf" points="600.5,-311.5 674.5,-311.5 "/>
<text text-anchor="middle" x="637.5" y="-299.5" font-family="Helvetica,sans-Serif" font-size="10.00"> </text>
</a>
</g>
</g>
<!-- Node7&#45;&gt;Node1 -->
<g id="edge7" class="edge">
<title>Node7&#45;&gt;Node1</title>
<path fill="none" stroke="midnightblue" d="M598.56,-286.11C596.2,-284.34 593.84,-282.62 591.5,-281 529.67,-238.19 455.19,-197.12 398.17,-167.66"/>
<polygon fill="none" stroke="midnightblue" points="596.44,-288.9 606.47,-292.3 600.75,-283.38 596.44,-288.9"/>
</g>
</g>
</svg>
        <g id="navigator" transform="translate(0 0)" fill="#404254">
                <rect fill="#f2f5e9" fill-opacity="0.5" stroke="#606060" stroke-width=".5" x="0" y="0" width="60" height="60"/>
                <use id="zoomplus" xlink:href="#zoomPlus" x="17" y="9" onmousedown="handleZoom(evt,'in')"/>
                <use id="zoomminus" xlink:href="#zoomMin" x="42" y="9" onmousedown="handleZoom(evt,'out')"/>
                <use id="reset" xlink:href="#resetDef" x="30" y="36" onmousedown="handleReset()"/>
                <g id="arrowUp" xlink:href="#dirArrow" transform="translate(30 24)" onmousedown="handlePan(0,-1)">
                  <use xlink:href="#rim" fill="#404040">
                        <set attributeName="fill" to="#808080" begin="arrowUp.mouseover" end="arrowUp.mouseout"/>
                  </use>
                  <path fill="none" stroke="white" stroke-width="1.5" d="M0,-3.0v7 M-2.5,-0.5L0,-3.0L2.5,-0.5"/>
                </g>
                <g id="arrowRight" xlink:href="#dirArrow" transform="rotate(90) translate(36 -43)" onmousedown="handlePan(1,0)">
                  <use xlink:href="#rim" fill="#404040">
                        <set attributeName="fill" to="#808080" begin="arrowRight.mouseover" end="arrowRight.mouseout"/>
                  </use>
                  <path fill="none" stroke="white" stroke-width="1.5" d="M0,-3.0v7 M-2.5,-0.5L0,-3.0L2.5,-0.5"/>
                </g>
                <g id="arrowDown" xlink:href="#dirArrow" transform="rotate(180) translate(-30 -48)" onmousedown="handlePan(0,1)">
                  <use xlink:href="#rim" fill="#404040">
                        <set attributeName="fill" to="#808080" begin="arrowDown.mouseover" end="arrowDown.mouseout"/>
                  </use>
                  <path fill="none" stroke="white" stroke-width="1.5" d="M0,-3.0v7 M-2.5,-0.5L0,-3.0L2.5,-0.5"/>
                </g>
                <g id="arrowLeft" xlink:href="#dirArrow" transform="rotate(270) translate(-36 17)" onmousedown="handlePan(-1,0)">
                  <use xlink:href="#rim" fill="#404040">
                        <set attributeName="fill" to="#808080" begin="arrowLeft.mouseover" end="arrowLeft.mouseout"/>
                  </use>
                  <path fill="none" stroke="white" stroke-width="1.5" d="M0,-3.0v7 M-2.5,-0.5L0,-3.0L2.5,-0.5"/>
                </g>
        </g>
        <svg viewBox="0 0 15 15" width="100%" height="30px" preserveAspectRatio="xMaxYMin meet">
         <g id="arrow_out" transform="scale(0.3 0.3)">
          <a xlink:href="class_volume_control_1_1_core_audio_1_1_audio_session__coll__graph_org.svg" target="_base">
           <rect id="button" ry="5" rx="5" y="6" x="6" height="38" width="38"
                fill="#f2f5e9" fill-opacity="0.5" stroke="#606060" stroke-width="1.0"/>
           <path id="arrow"
             d="M 11.500037,31.436501 C 11.940474,20.09759 22.043105,11.32322 32.158766,21.979434 L 37.068811,17.246167 C 37.068811,17.246167 37.088388,32 37.088388,32 L 22.160133,31.978069 C 22.160133,31.978069 26.997745,27.140456 26.997745,27.140456 C 18.528582,18.264221 13.291696,25.230495 11.500037,31.436501 z"
             style="fill:#404040;"/>
          </a>
         </g>
        </svg>
</svg>
