<?xml version="1.0" encoding="UTF-8" standalone="no"?>
<!DOCTYPE svg PUBLIC "-//W3C//DTD SVG 1.1//EN"
 "http://www.w3.org/Graphics/SVG/1.1/DTD/svg11.dtd">
<!-- Generated by graphviz version 2.44.1 (20200629.0800)
 -->
<!-- Title: VolumeControl.Log.LogWriter Pages: 1 -->
<svg width="198pt" height="336pt"
 viewBox="0.00 0.00 197.50 336.00" xmlns="http://www.w3.org/2000/svg" xmlns:xlink="http://www.w3.org/1999/xlink">
<g id="graph0" class="graph" transform="scale(1 1) rotate(0) translate(4 332)">
<title>VolumeControl.Log.LogWriter</title>
<!-- Node1 -->
<g id="node1" class="node">
<title>Node1</title>
<g id="a_node1"><a xlink:title="Basic log writer object.">
<polygon fill="#bfbfbf" stroke="black" points="32,-0.5 32,-222.5 176,-222.5 176,-0.5 32,-0.5"/>
<text text-anchor="middle" x="104" y="-210.5" font-family="Helvetica,sans-Serif" font-size="10.00">VolumeControl.Log.LogWriter</text>
<polyline fill="none" stroke="black" points="32,-203.5 176,-203.5 "/>
<text text-anchor="start" x="40" y="-191.5" font-family="Helvetica,sans-Serif" font-size="10.00">+ Endpoint</text>
<text text-anchor="start" x="40" y="-180.5" font-family="Helvetica,sans-Serif" font-size="10.00">+ EventTypeFilter</text>
<text text-anchor="start" x="40" y="-169.5" font-family="Helvetica,sans-Serif" font-size="10.00">+ LastEventType</text>
<polyline fill="none" stroke="black" points="32,-162.5 176,-162.5 "/>
<text text-anchor="start" x="40" y="-150.5" font-family="Helvetica,sans-Serif" font-size="10.00">+ LogWriter()</text>
<text text-anchor="start" x="40" y="-139.5" font-family="Helvetica,sans-Serif" font-size="10.00">+ FilterEventType()</text>
<text text-anchor="start" x="40" y="-128.5" font-family="Helvetica,sans-Serif" font-size="10.00">+ MakeTimestamp()</text>
<text text-anchor="start" x="40" y="-117.5" font-family="Helvetica,sans-Serif" font-size="10.00">+ Write()</text>
<text text-anchor="start" x="40" y="-106.5" font-family="Helvetica,sans-Serif" font-size="10.00">+ WriteLine()</text>
<text text-anchor="start" x="40" y="-95.5" font-family="Helvetica,sans-Serif" font-size="10.00">+ GetMessage()</text>
<text text-anchor="start" x="40" y="-84.5" font-family="Helvetica,sans-Serif" font-size="10.00">+ WriteWithTimestamp()</text>
<text text-anchor="start" x="40" y="-73.5" font-family="Helvetica,sans-Serif" font-size="10.00">+ WriteWithTimestamp()</text>
<text text-anchor="start" x="40" y="-62.5" font-family="Helvetica,sans-Serif" font-size="10.00">+ Conditional()</text>
<text text-anchor="start" x="40" y="-51.5" font-family="Helvetica,sans-Serif" font-size="10.00">+ WriteMessage()</text>
<text text-anchor="start" x="40" y="-40.5" font-family="Helvetica,sans-Serif" font-size="10.00">and 19 more...</text>
<text text-anchor="start" x="40" y="-29.5" font-family="Helvetica,sans-Serif" font-size="10.00">+ MakeBlankTimestamp()</text>
<text text-anchor="start" x="40" y="-18.5" font-family="Helvetica,sans-Serif" font-size="10.00">+ GetTrace()</text>
<text text-anchor="start" x="40" y="-7.5" font-family="Helvetica,sans-Serif" font-size="10.00"># Dispose()</text>
</a>
</g>
</g>
<!-- Node2 -->
<g id="node2" class="node">
<title>Node2</title>
<g id="a_node2"><a xlink:href="interface_volume_control_1_1_log_1_1_interfaces_1_1_i_log_writer.html" target="_top" xlink:title="Represents a log writer object, which is responsible for exposing logging methods,...">
<polygon fill="none" stroke="black" points="0,-259.5 0,-327.5 104,-327.5 104,-259.5 0,-259.5"/>
<text text-anchor="middle" x="52" y="-315.5" font-family="Helvetica,sans-Serif" font-size="10.00">ILogWriter</text>
<polyline fill="none" stroke="black" points="0,-308.5 104,-308.5 "/>
<text text-anchor="start" x="8" y="-296.5" font-family="Helvetica,sans-Serif" font-size="10.00">+ Endpoint</text>
<polyline fill="none" stroke="black" points="0,-289.5 104,-289.5 "/>
<text text-anchor="start" x="8" y="-277.5" font-family="Helvetica,sans-Serif" font-size="10.00">+ MakeTimestamp()</text>
<text text-anchor="start" x="8" y="-266.5" font-family="Helvetica,sans-Serif" font-size="10.00">+ FilterEventType()</text>
</a>
</g>
</g>
<!-- Node2&#45;&gt;Node1 -->
<g id="edge1" class="edge">
<title>Node2&#45;&gt;Node1</title>
<path fill="none" stroke="midnightblue" d="M64.39,-249.63C66.82,-241.21 69.47,-232.02 72.22,-222.52"/>
<polygon fill="none" stroke="midnightblue" points="60.95,-248.91 61.54,-259.49 67.68,-250.85 60.95,-248.91"/>
</g>
<!-- Node3 -->
<g id="node3" class="node">
<title>Node3</title>
<g id="a_node3"><a xlink:title=" ">
<polygon fill="none" stroke="#bfbfbf" points="122.5,-265 122.5,-322 189.5,-322 189.5,-265 122.5,-265"/>
<text text-anchor="middle" x="156" y="-310" font-family="Helvetica,sans-Serif" font-size="10.00">IDisposable</text>
<polyline fill="none" stroke="#bfbfbf" points="122.5,-303 189.5,-303 "/>
<text text-anchor="middle" x="156" y="-291" font-family="Helvetica,sans-Serif" font-size="10.00"> </text>
<polyline fill="none" stroke="#bfbfbf" points="122.5,-284 189.5,-284 "/>
<text text-anchor="middle" x="156" y="-272" font-family="Helvetica,sans-Serif" font-size="10.00"> </text>
</a>
</g>
</g>
<!-- Node3&#45;&gt;Node1 -->
<g id="edge2" class="edge">
<title>Node3&#45;&gt;Node1</title>
<path fill="none" stroke="midnightblue" d="M145.19,-255.09C142.37,-245.32 139.18,-234.29 135.86,-222.79"/>
<polygon fill="none" stroke="midnightblue" points="141.85,-256.13 147.99,-264.77 148.58,-254.19 141.85,-256.13"/>
</g>
</g>
</svg>
