<?xml version="1.0" encoding="UTF-8" standalone="no"?>
<!DOCTYPE svg PUBLIC "-//W3C//DTD SVG 1.1//EN"
 "http://www.w3.org/Graphics/SVG/1.1/DTD/svg11.dtd">
<!-- Generated by graphviz version 2.43.0 (0)
 -->
<!-- Title: VolumeControl.WPF.Bindings.MultiBinding Pages: 1 -->
<svg width="168pt" height="292pt"
 viewBox="0.00 0.00 168.00 292.00" xmlns="http://www.w3.org/2000/svg" xmlns:xlink="http://www.w3.org/1999/xlink">
<g id="graph0" class="graph" transform="scale(1 1) rotate(0) translate(4 288)">
<title>VolumeControl.WPF.Bindings.MultiBinding</title>
<!-- Node1 -->
<g id="node1" class="node">
<title>Node1</title>
<g id="a_node1"><a xlink:title="Easy multibinding object.">
<polygon fill="#bfbfbf" stroke="black" points="0,-0.5 0,-178.5 160,-178.5 160,-0.5 0,-0.5"/>
<text text-anchor="start" x="8" y="-166.5" font-family="Helvetica,sans-Serif" font-size="10.00">VolumeControl.WPF.Bindings.</text>
<text text-anchor="middle" x="80" y="-155.5" font-family="Helvetica,sans-Serif" font-size="10.00">MultiBinding</text>
<polyline fill="none" stroke="black" points="0,-148.5 160,-148.5 "/>
<text text-anchor="middle" x="80" y="-136.5" font-family="Helvetica,sans-Serif" font-size="10.00"> </text>
<polyline fill="none" stroke="black" points="0,-129.5 160,-129.5 "/>
<text text-anchor="start" x="8" y="-117.5" font-family="Helvetica,sans-Serif" font-size="10.00">+ MultiBinding()</text>
<text text-anchor="start" x="8" y="-106.5" font-family="Helvetica,sans-Serif" font-size="10.00">+ MultiBinding()</text>
<text text-anchor="start" x="8" y="-95.5" font-family="Helvetica,sans-Serif" font-size="10.00">+ MultiBinding()</text>
<text text-anchor="start" x="8" y="-84.5" font-family="Helvetica,sans-Serif" font-size="10.00">+ MultiBinding()</text>
<text text-anchor="start" x="8" y="-73.5" font-family="Helvetica,sans-Serif" font-size="10.00">+ MultiBinding()</text>
<text text-anchor="start" x="8" y="-62.5" font-family="Helvetica,sans-Serif" font-size="10.00">+ MultiBinding()</text>
<text text-anchor="start" x="8" y="-51.5" font-family="Helvetica,sans-Serif" font-size="10.00">+ MultiBinding()</text>
<text text-anchor="start" x="8" y="-40.5" font-family="Helvetica,sans-Serif" font-size="10.00">+ MultiBinding()</text>
<text text-anchor="start" x="8" y="-29.5" font-family="Helvetica,sans-Serif" font-size="10.00">+ MultiBinding()</text>
<text text-anchor="start" x="8" y="-18.5" font-family="Helvetica,sans-Serif" font-size="10.00">+ MultiBinding()</text>
<text text-anchor="start" x="8" y="-7.5" font-family="Helvetica,sans-Serif" font-size="10.00">+ MultiBinding()</text>
</a>
</g>
</g>
<!-- Node2 -->
<g id="node2" class="node">
<title>Node2</title>
<g id="a_node2"><a xlink:title=" ">
<polygon fill="none" stroke="#bfbfbf" points="13.5,-215.5 13.5,-283.5 146.5,-283.5 146.5,-215.5 13.5,-215.5"/>
<text text-anchor="start" x="21.5" y="-271.5" font-family="Helvetica,sans-Serif" font-size="10.00">System::Windows::Data</text>
<text text-anchor="middle" x="80" y="-260.5" font-family="Helvetica,sans-Serif" font-size="10.00">::MultiBinding</text>
<polyline fill="none" stroke="#bfbfbf" points="13.5,-253.5 146.5,-253.5 "/>
<text text-anchor="middle" x="80" y="-241.5" font-family="Helvetica,sans-Serif" font-size="10.00"> </text>
<polyline fill="none" stroke="#bfbfbf" points="13.5,-234.5 146.5,-234.5 "/>
<text text-anchor="middle" x="80" y="-222.5" font-family="Helvetica,sans-Serif" font-size="10.00"> </text>
</a>
</g>
</g>
<!-- Node2&#45;&gt;Node1 -->
<g id="edge1" class="edge">
<title>Node2&#45;&gt;Node1</title>
<path fill="none" stroke="midnightblue" d="M80,-205.19C80,-196.83 80,-187.8 80,-178.59"/>
<polygon fill="none" stroke="midnightblue" points="76.5,-205.38 80,-215.38 83.5,-205.38 76.5,-205.38"/>
</g>
</g>
</svg>
