<?xml version="1.0" encoding="UTF-8" standalone="no"?>
<!DOCTYPE svg PUBLIC "-//W3C//DTD SVG 1.1//EN"
 "http://www.w3.org/Graphics/SVG/1.1/DTD/svg11.dtd">
<!-- Generated by graphviz version 2.43.0 (0)
 -->
<!-- Title: VolumeControl.WPF.Behaviors.TextBoxAutocompleteBehavior Pages: 1 -->
<svg width="169pt" height="273pt"
 viewBox="0.00 0.00 169.00 273.00" xmlns="http://www.w3.org/2000/svg" xmlns:xlink="http://www.w3.org/1999/xlink">
<g id="graph0" class="graph" transform="scale(1 1) rotate(0) translate(4 269)">
<title>VolumeControl.WPF.Behaviors.TextBoxAutocompleteBehavior</title>
<!-- Node1 -->
<g id="Node000001" class="node">
<title>Node1</title>
<g id="a_Node000001"><a xlink:title="Behavior that implements autocomplete suggestions for TextBox controls.">
<polygon fill="#999999" stroke="transparent" points="161,-180 0,-180 0,0 161,0 161,-180"/>
<text text-anchor="start" x="5.5" y="-168" font-family="Helvetica,sans-Serif" font-size="10.00">VolumeControl.WPF.Behaviors.</text>
<text text-anchor="start" x="5.5" y="-157" font-family="Helvetica,sans-Serif" font-size="10.00">TextBoxAutocompleteBehavior</text>
<text text-anchor="start" x="5.5" y="-142" font-family="Helvetica,sans-Serif" font-size="10.00">+</text>
<text text-anchor="start" x="19.5" y="-142" font-family="Helvetica,sans-Serif" font-size="10.00">ItemsSourceProperty</text>
<text text-anchor="start" x="5.5" y="-127" font-family="Helvetica,sans-Serif" font-size="10.00">+</text>
<text text-anchor="start" x="19.5" y="-127" font-family="Helvetica,sans-Serif" font-size="10.00">StringComparisonProperty</text>
<text text-anchor="start" x="5.5" y="-112" font-family="Helvetica,sans-Serif" font-size="10.00">+</text>
<text text-anchor="start" x="19.5" y="-112" font-family="Helvetica,sans-Serif" font-size="10.00">RequirePrefixProperty</text>
<text text-anchor="start" x="5.5" y="-97" font-family="Helvetica,sans-Serif" font-size="10.00">+</text>
<text text-anchor="start" x="19.5" y="-97" font-family="Helvetica,sans-Serif" font-size="10.00">CancelOnLostFocusProperty</text>
<text text-anchor="start" x="5.5" y="-82" font-family="Helvetica,sans-Serif" font-size="10.00">+</text>
<text text-anchor="start" x="19.5" y="-82" font-family="Helvetica,sans-Serif" font-size="10.00">ItemsSource</text>
<text text-anchor="start" x="5.5" y="-67" font-family="Helvetica,sans-Serif" font-size="10.00">+</text>
<text text-anchor="start" x="19.5" y="-67" font-family="Helvetica,sans-Serif" font-size="10.00">StringComparison</text>
<text text-anchor="start" x="5.5" y="-52" font-family="Helvetica,sans-Serif" font-size="10.00">+</text>
<text text-anchor="start" x="19.5" y="-52" font-family="Helvetica,sans-Serif" font-size="10.00">RequirePrefix</text>
<text text-anchor="start" x="5.5" y="-37" font-family="Helvetica,sans-Serif" font-size="10.00">+</text>
<text text-anchor="start" x="19.5" y="-37" font-family="Helvetica,sans-Serif" font-size="10.00">CancelOnLostFocus</text>
<text text-anchor="start" x="5.5" y="-22" font-family="Helvetica,sans-Serif" font-size="10.00">#</text>
<text text-anchor="start" x="19.5" y="-22" font-family="Helvetica,sans-Serif" font-size="10.00">OnAttached()</text>
<text text-anchor="start" x="5.5" y="-7" font-family="Helvetica,sans-Serif" font-size="10.00">#</text>
<text text-anchor="start" x="19.5" y="-7" font-family="Helvetica,sans-Serif" font-size="10.00">OnDetaching()</text>
<polygon fill="#666666" stroke="#666666" points="0.5,-152 0.5,-152 161.5,-152 161.5,-152 0.5,-152"/>
<polygon fill="#666666" stroke="#666666" points="0.5,-32 0.5,-32 17.5,-32 17.5,-32 0.5,-32"/>
<polygon fill="#666666" stroke="#666666" points="17.5,-32 17.5,-32 161.5,-32 161.5,-32 17.5,-32"/>
<polygon fill="none" stroke="#666666" points="0,0 0,-180 161,-180 161,0 0,0"/>
</a>
</g>
</g>
<!-- Node2 -->
<g id="Node000002" class="node">
<title>Node2</title>
<g id="a_Node000002"><a xlink:title=" ">
<polygon fill="white" stroke="transparent" points="138.5,-265 22.5,-265 22.5,-216 138.5,-216 138.5,-265"/>
<text text-anchor="start" x="27.5" y="-252.5" font-family="Helvetica,sans-Serif" font-size="10.00">Behavior&lt; TextBox &gt;</text>
<text text-anchor="start" x="78.5" y="-237.5" font-family="Helvetica,sans-Serif" font-size="10.00"> </text>
<text text-anchor="start" x="78.5" y="-222.5" font-family="Helvetica,sans-Serif" font-size="10.00"> </text>
<polygon fill="#bfbfbf" stroke="#bfbfbf" points="22.5,-247.5 22.5,-247.5 138.5,-247.5 138.5,-247.5 22.5,-247.5"/>
<polygon fill="#bfbfbf" stroke="#bfbfbf" points="22.5,-232.5 22.5,-232.5 138.5,-232.5 138.5,-232.5 22.5,-232.5"/>
<polygon fill="none" stroke="#bfbfbf" points="22.5,-216 22.5,-265 138.5,-265 138.5,-216 22.5,-216"/>
</a>
</g>
</g>
<!-- Node2&#45;&gt;Node1 -->
<g id="edge1_Node000001_Node000002" class="edge">
<title>Node2&#45;&gt;Node1</title>
<g id="a_edge1_Node000001_Node000002"><a xlink:title=" ">
<path fill="none" stroke="#63b8ff" d="M80.5,-205.81C80.5,-197.92 80.5,-189.14 80.5,-180.06"/>
<polygon fill="none" stroke="#63b8ff" points="77,-205.97 80.5,-215.97 84,-205.97 77,-205.97"/>
</a>
</g>
</g>
</g>
</svg>
