<?xml version="1.0" encoding="UTF-8" standalone="no"?>
<!DOCTYPE svg PUBLIC "-//W3C//DTD SVG 1.1//EN"
 "http://www.w3.org/Graphics/SVG/1.1/DTD/svg11.dtd">
<!-- Generated by graphviz version 2.43.0 (0)
 -->
<!-- Title: VolumeControl.Core.Input.HotkeyManager.ClearHotkeys Pages: 1 -->
<svg width="1154pt" height="39pt"
 viewBox="0.00 0.00 1154.00 39.00" xmlns="http://www.w3.org/2000/svg" xmlns:xlink="http://www.w3.org/1999/xlink">
<g id="graph0" class="graph" transform="scale(1 1) rotate(0) translate(4 35)">
<title>VolumeControl.Core.Input.HotkeyManager.ClearHotkeys</title>
<!-- Node1 -->
<g id="node1" class="node">
<title>Node1</title>
<g id="a_node1"><a xlink:title="Removes all hotkeys from the manager.">
<polygon fill="#bfbfbf" stroke="black" points="0,-0.5 0,-30.5 161,-30.5 161,-0.5 0,-0.5"/>
<text text-anchor="start" x="8" y="-18.5" font-family="Helvetica,sans-Serif" font-size="10.00">VolumeControl.Core.Input.</text>
<text text-anchor="middle" x="80.5" y="-7.5" font-family="Helvetica,sans-Serif" font-size="10.00">HotkeyManager.ClearHotkeys</text>
</a>
</g>
</g>
<!-- Node2 -->
<g id="node2" class="node">
<title>Node2</title>
<g id="a_node2"><a xlink:href="class_volume_control_1_1_core_1_1_input_1_1_hotkey_manager.html#a8c582a292d4a72ef3caada32eff31cfe" target="_top" xlink:title="Removes the specified hotkey &#160;from the manager.">
<polygon fill="none" stroke="black" points="197,-0.5 197,-30.5 368,-30.5 368,-0.5 197,-0.5"/>
<text text-anchor="start" x="205" y="-18.5" font-family="Helvetica,sans-Serif" font-size="10.00">VolumeControl.Core.Input.</text>
<text text-anchor="middle" x="282.5" y="-7.5" font-family="Helvetica,sans-Serif" font-size="10.00">HotkeyManager.RemoveHotkey</text>
</a>
</g>
</g>
<!-- Node1&#45;&gt;Node2 -->
<g id="edge1" class="edge">
<title>Node1&#45;&gt;Node2</title>
<path fill="none" stroke="midnightblue" d="M161.12,-15.5C169.58,-15.5 178.23,-15.5 186.84,-15.5"/>
<polygon fill="midnightblue" stroke="midnightblue" points="186.9,-19 196.9,-15.5 186.9,-12 186.9,-19"/>
</g>
<!-- Node3 -->
<g id="node3" class="node">
<title>Node3</title>
<g id="a_node3"><a xlink:href="class_volume_control_1_1_core_1_1_input_1_1_hotkey.html#a32d7855fa82b1806411aa54d64e4c099" target="_top" xlink:title=" ">
<polygon fill="none" stroke="black" points="404,-0.5 404,-30.5 549,-30.5 549,-0.5 404,-0.5"/>
<text text-anchor="start" x="412" y="-18.5" font-family="Helvetica,sans-Serif" font-size="10.00">VolumeControl.Core.Input.</text>
<text text-anchor="middle" x="476.5" y="-7.5" font-family="Helvetica,sans-Serif" font-size="10.00">Hotkey.Dispose</text>
</a>
</g>
</g>
<!-- Node2&#45;&gt;Node3 -->
<g id="edge2" class="edge">
<title>Node2&#45;&gt;Node3</title>
<path fill="none" stroke="midnightblue" d="M368.27,-15.5C376.7,-15.5 385.24,-15.5 393.64,-15.5"/>
<polygon fill="midnightblue" stroke="midnightblue" points="393.79,-19 403.79,-15.5 393.79,-12 393.79,-19"/>
</g>
<!-- Node4 -->
<g id="node4" class="node">
<title>Node4</title>
<g id="a_node4"><a xlink:href="class_volume_control_1_1_core_1_1_input_1_1_hotkey.html#a9cdb123b8b415f401289241b2bfa6d6c" target="_top" xlink:title="Unregisters the hotkey with the Win32 API.">
<polygon fill="none" stroke="black" points="585,-0.5 585,-30.5 730,-30.5 730,-0.5 585,-0.5"/>
<text text-anchor="start" x="593" y="-18.5" font-family="Helvetica,sans-Serif" font-size="10.00">VolumeControl.Core.Input.</text>
<text text-anchor="middle" x="657.5" y="-7.5" font-family="Helvetica,sans-Serif" font-size="10.00">Hotkey.Unregister</text>
</a>
</g>
</g>
<!-- Node3&#45;&gt;Node4 -->
<g id="edge3" class="edge">
<title>Node3&#45;&gt;Node4</title>
<path fill="none" stroke="midnightblue" d="M549.02,-15.5C557.49,-15.5 566.18,-15.5 574.78,-15.5"/>
<polygon fill="midnightblue" stroke="midnightblue" points="574.8,-19 584.8,-15.5 574.8,-12 574.8,-19"/>
</g>
<!-- Node5 -->
<g id="node5" class="node">
<title>Node5</title>
<g id="a_node5"><a xlink:href="class_volume_control_1_1_core_1_1_input_1_1_windows_hotkey_a_p_i.html#ac001f386c8766c5af77db645f9aea101" target="_top" xlink:title="Attempts to unregister the specified hotkey .">
<polygon fill="none" stroke="black" points="766,-0.5 766,-30.5 945,-30.5 945,-0.5 766,-0.5"/>
<text text-anchor="start" x="774" y="-18.5" font-family="Helvetica,sans-Serif" font-size="10.00">VolumeControl.Core.Input.</text>
<text text-anchor="middle" x="855.5" y="-7.5" font-family="Helvetica,sans-Serif" font-size="10.00">WindowsHotkeyAPI.TryUnregister</text>
</a>
</g>
</g>
<!-- Node4&#45;&gt;Node5 -->
<g id="edge4" class="edge">
<title>Node4&#45;&gt;Node5</title>
<path fill="none" stroke="midnightblue" d="M730.09,-15.5C738.42,-15.5 747.03,-15.5 755.65,-15.5"/>
<polygon fill="midnightblue" stroke="midnightblue" points="755.75,-19 765.75,-15.5 755.75,-12 755.75,-19"/>
</g>
<!-- Node6 -->
<g id="node6" class="node">
<title>Node6</title>
<g id="a_node6"><a xlink:href="class_volume_control_1_1_core_1_1_input_1_1_windows_hotkey_a_p_i.html#a07ed6bb5aaebdc268b01ac666511d1e6" target="_top" xlink:title="Unregisters the specified hotkey .">
<polygon fill="none" stroke="black" points="981,-0.5 981,-30.5 1146,-30.5 1146,-0.5 981,-0.5"/>
<text text-anchor="start" x="989" y="-18.5" font-family="Helvetica,sans-Serif" font-size="10.00">VolumeControl.Core.Input.</text>
<text text-anchor="middle" x="1063.5" y="-7.5" font-family="Helvetica,sans-Serif" font-size="10.00">WindowsHotkeyAPI.Unregister</text>
</a>
</g>
</g>
<!-- Node5&#45;&gt;Node6 -->
<g id="edge5" class="edge">
<title>Node5&#45;&gt;Node6</title>
<path fill="none" stroke="midnightblue" d="M945.06,-15.5C953.51,-15.5 962.09,-15.5 970.57,-15.5"/>
<polygon fill="midnightblue" stroke="midnightblue" points="970.85,-19 980.85,-15.5 970.85,-12 970.85,-19"/>
</g>
</g>
</svg>
