<?xml version="1.0" encoding="UTF-8" standalone="no"?>
<!DOCTYPE svg PUBLIC "-//W3C//DTD SVG 1.1//EN"
 "http://www.w3.org/Graphics/SVG/1.1/DTD/svg11.dtd">
<!-- Generated by graphviz version 2.43.0 (0)
 -->
<!-- Title: VolumeControl.WPF.MONITORINFO Pages: 1 -->
<svg width="232pt" height="325pt"
 viewBox="0.00 0.00 232.00 325.00" xmlns="http://www.w3.org/2000/svg" xmlns:xlink="http://www.w3.org/1999/xlink">
<g id="graph0" class="graph" transform="scale(1 1) rotate(0) translate(4 321)">
<title>VolumeControl.WPF.MONITORINFO</title>
<!-- Node1 -->
<g id="node1" class="node">
<title>Node1</title>
<g id="a_node1"><a xlink:title=" ">
<polygon fill="#bfbfbf" stroke="black" points="0,-0.5 0,-68.5 186,-68.5 186,-0.5 0,-0.5"/>
<text text-anchor="middle" x="93" y="-56.5" font-family="Helvetica,sans-Serif" font-size="10.00">VolumeControl.WPF.MONITORINFO</text>
<polyline fill="none" stroke="black" points="0,-49.5 186,-49.5 "/>
<text text-anchor="start" x="8" y="-37.5" font-family="Helvetica,sans-Serif" font-size="10.00">+ cbSize</text>
<text text-anchor="start" x="8" y="-26.5" font-family="Helvetica,sans-Serif" font-size="10.00">+ dwFlags</text>
<polyline fill="none" stroke="black" points="0,-19.5 186,-19.5 "/>
<text text-anchor="middle" x="93" y="-7.5" font-family="Helvetica,sans-Serif" font-size="10.00"> </text>
</a>
</g>
</g>
<!-- Node2 -->
<g id="node2" class="node">
<title>Node2</title>
<g id="a_node2"><a xlink:href="struct_volume_control_1_1_w_p_f_1_1_r_e_c_t.html" target="_top" xlink:title="Win32">
<polygon fill="none" stroke="black" points="23,-127.5 23,-316.5 163,-316.5 163,-127.5 23,-127.5"/>
<text text-anchor="middle" x="93" y="-304.5" font-family="Helvetica,sans-Serif" font-size="10.00">VolumeControl.WPF.RECT</text>
<polyline fill="none" stroke="black" points="23,-297.5 163,-297.5 "/>
<text text-anchor="start" x="31" y="-285.5" font-family="Helvetica,sans-Serif" font-size="10.00">+ left</text>
<text text-anchor="start" x="31" y="-274.5" font-family="Helvetica,sans-Serif" font-size="10.00">+ top</text>
<text text-anchor="start" x="31" y="-263.5" font-family="Helvetica,sans-Serif" font-size="10.00">+ right</text>
<text text-anchor="start" x="31" y="-252.5" font-family="Helvetica,sans-Serif" font-size="10.00">+ bottom</text>
<text text-anchor="start" x="31" y="-241.5" font-family="Helvetica,sans-Serif" font-size="10.00">+ Width</text>
<text text-anchor="start" x="31" y="-230.5" font-family="Helvetica,sans-Serif" font-size="10.00">+ Height</text>
<text text-anchor="start" x="31" y="-219.5" font-family="Helvetica,sans-Serif" font-size="10.00">+ IsEmpty</text>
<polyline fill="none" stroke="black" points="23,-212.5 163,-212.5 "/>
<text text-anchor="start" x="31" y="-200.5" font-family="Helvetica,sans-Serif" font-size="10.00">+ RECT()</text>
<text text-anchor="start" x="31" y="-189.5" font-family="Helvetica,sans-Serif" font-size="10.00">+ RECT()</text>
<text text-anchor="start" x="31" y="-178.5" font-family="Helvetica,sans-Serif" font-size="10.00">+ ToString()</text>
<text text-anchor="start" x="31" y="-167.5" font-family="Helvetica,sans-Serif" font-size="10.00">+ Equals()</text>
<text text-anchor="start" x="31" y="-156.5" font-family="Helvetica,sans-Serif" font-size="10.00">+ GetHashCode()</text>
<text text-anchor="start" x="31" y="-145.5" font-family="Helvetica,sans-Serif" font-size="10.00">+ operator==()</text>
<text text-anchor="start" x="31" y="-134.5" font-family="Helvetica,sans-Serif" font-size="10.00">+ operator!=()</text>
</a>
</g>
</g>
<!-- Node2&#45;&gt;Node1 -->
<g id="edge1" class="edge">
<title>Node2&#45;&gt;Node1</title>
<path fill="none" stroke="#404040" d="M93,-127.43C93,-111.3 93,-95.2 93,-81.09"/>
<polygon fill="none" stroke="#404040" points="93,-80.74 89,-74.74 93,-68.74 97,-74.74 93,-80.74"/>
<text text-anchor="middle" x="120.5" y="-101" font-family="Helvetica,sans-Serif" font-size="10.00"> +rcWork</text>
<text text-anchor="middle" x="120.5" y="-90" font-family="Helvetica,sans-Serif" font-size="10.00">+rcMonitor</text>
</g>
<!-- Node2&#45;&gt;Node2 -->
<g id="edge2" class="edge">
<title>Node2&#45;&gt;Node2</title>
<path fill="none" stroke="#404040" d="M163.07,-243.2C173.75,-239.97 181,-232.9 181,-222 181,-215.36 178.31,-210.14 173.79,-206.34"/>
<polygon fill="none" stroke="#404040" points="173.73,-206.31 166.56,-207.11 163.07,-200.8 170.24,-200 173.73,-206.31"/>
<text text-anchor="middle" x="202.5" y="-219.5" font-family="Helvetica,sans-Serif" font-size="10.00"> +Empty</text>
</g>
</g>
</svg>
