<?xml version="1.0" encoding="UTF-8" standalone="no"?>
<!DOCTYPE svg PUBLIC "-//W3C//DTD SVG 1.1//EN"
 "http://www.w3.org/Graphics/SVG/1.1/DTD/svg11.dtd">
<!-- Generated by graphviz version 2.43.0 (0)
 -->
<!-- Title: VolumeControl.Hotkeys.HotkeyManager Pages: 1 -->
<svg width="516pt" height="519pt"
 viewBox="0.00 0.00 516.00 519.00" xmlns="http://www.w3.org/2000/svg" xmlns:xlink="http://www.w3.org/1999/xlink">
<g id="graph0" class="graph" transform="scale(1 1) rotate(0) translate(4 515)">
<title>VolumeControl.Hotkeys.HotkeyManager</title>
<!-- Node1 -->
<g id="node1" class="node">
<title>Node1</title>
<g id="a_node1"><a xlink:title="This object is responsible for managing hotkeys at runtime.">
<polygon fill="#bfbfbf" stroke="black" points="121.5,-0.5 121.5,-266.5 290.5,-266.5 290.5,-0.5 121.5,-0.5"/>
<text text-anchor="start" x="129.5" y="-254.5" font-family="Helvetica,sans-Serif" font-size="10.00">VolumeControl.Hotkeys.Hotkey</text>
<text text-anchor="middle" x="206" y="-243.5" font-family="Helvetica,sans-Serif" font-size="10.00">Manager</text>
<polyline fill="none" stroke="black" points="121.5,-236.5 290.5,-236.5 "/>
<text text-anchor="start" x="129.5" y="-224.5" font-family="Helvetica,sans-Serif" font-size="10.00">+ OwnerHandle</text>
<text text-anchor="start" x="129.5" y="-213.5" font-family="Helvetica,sans-Serif" font-size="10.00">+ CollectionChanged</text>
<text text-anchor="start" x="129.5" y="-202.5" font-family="Helvetica,sans-Serif" font-size="10.00">+ Hotkeys</text>
<text text-anchor="start" x="129.5" y="-191.5" font-family="Helvetica,sans-Serif" font-size="10.00">+ AllSelected</text>
<polyline fill="none" stroke="black" points="121.5,-184.5 290.5,-184.5 "/>
<text text-anchor="start" x="129.5" y="-172.5" font-family="Helvetica,sans-Serif" font-size="10.00">+ HotkeyManager()</text>
<text text-anchor="start" x="129.5" y="-161.5" font-family="Helvetica,sans-Serif" font-size="10.00">+ AddHotkey()</text>
<text text-anchor="start" x="129.5" y="-150.5" font-family="Helvetica,sans-Serif" font-size="10.00">+ AddHotkey()</text>
<text text-anchor="start" x="129.5" y="-139.5" font-family="Helvetica,sans-Serif" font-size="10.00">+ AddHotkey()</text>
<text text-anchor="start" x="129.5" y="-128.5" font-family="Helvetica,sans-Serif" font-size="10.00">+ DelHotkey()</text>
<text text-anchor="start" x="129.5" y="-117.5" font-family="Helvetica,sans-Serif" font-size="10.00">+ DelHotkey()</text>
<text text-anchor="start" x="129.5" y="-106.5" font-family="Helvetica,sans-Serif" font-size="10.00">+ DelAllHotkeys()</text>
<text text-anchor="start" x="129.5" y="-95.5" font-family="Helvetica,sans-Serif" font-size="10.00">+ GetHotkey()</text>
<text text-anchor="start" x="129.5" y="-84.5" font-family="Helvetica,sans-Serif" font-size="10.00">+ LoadHotkeys()</text>
<text text-anchor="start" x="129.5" y="-73.5" font-family="Helvetica,sans-Serif" font-size="10.00">+ SaveHotkeys()</text>
<text text-anchor="start" x="129.5" y="-62.5" font-family="Helvetica,sans-Serif" font-size="10.00">+ ResetHotkeys()</text>
<text text-anchor="start" x="129.5" y="-51.5" font-family="Helvetica,sans-Serif" font-size="10.00">+ Dispose()</text>
<text text-anchor="start" x="129.5" y="-40.5" font-family="Helvetica,sans-Serif" font-size="10.00"># NotifyPropertyChanged()</text>
<text text-anchor="start" x="129.5" y="-29.5" font-family="Helvetica,sans-Serif" font-size="10.00"># HwndHook()</text>
<text text-anchor="start" x="129.5" y="-18.5" font-family="Helvetica,sans-Serif" font-size="10.00"># AddHook()</text>
<text text-anchor="start" x="129.5" y="-7.5" font-family="Helvetica,sans-Serif" font-size="10.00"># RemoveHook()</text>
</a>
</g>
</g>
<!-- Node2 -->
<g id="node2" class="node">
<title>Node2</title>
<g id="a_node2"><a xlink:title=" ">
<polygon fill="none" stroke="#bfbfbf" points="0,-331 0,-388 140,-388 140,-331 0,-331"/>
<text text-anchor="middle" x="70" y="-376" font-family="Helvetica,sans-Serif" font-size="10.00">INotifyCollectionChanged</text>
<polyline fill="none" stroke="#bfbfbf" points="0,-369 140,-369 "/>
<text text-anchor="middle" x="70" y="-357" font-family="Helvetica,sans-Serif" font-size="10.00"> </text>
<polyline fill="none" stroke="#bfbfbf" points="0,-350 140,-350 "/>
<text text-anchor="middle" x="70" y="-338" font-family="Helvetica,sans-Serif" font-size="10.00"> </text>
</a>
</g>
</g>
<!-- Node2&#45;&gt;Node1 -->
<g id="edge1" class="edge">
<title>Node2&#45;&gt;Node1</title>
<path fill="none" stroke="midnightblue" d="M92.28,-321.81C101.79,-306.15 113.52,-286.83 125.79,-266.6"/>
<polygon fill="none" stroke="midnightblue" points="89.15,-320.22 86.95,-330.58 95.13,-323.85 89.15,-320.22"/>
</g>
<!-- Node3 -->
<g id="node3" class="node">
<title>Node3</title>
<g id="a_node3"><a xlink:title=" ">
<polygon fill="none" stroke="#bfbfbf" points="91.5,-448 91.5,-505 224.5,-505 224.5,-448 91.5,-448"/>
<text text-anchor="middle" x="158" y="-493" font-family="Helvetica,sans-Serif" font-size="10.00">INotifyPropertyChanged</text>
<polyline fill="none" stroke="#bfbfbf" points="91.5,-486 224.5,-486 "/>
<text text-anchor="middle" x="158" y="-474" font-family="Helvetica,sans-Serif" font-size="10.00"> </text>
<polyline fill="none" stroke="#bfbfbf" points="91.5,-467 224.5,-467 "/>
<text text-anchor="middle" x="158" y="-455" font-family="Helvetica,sans-Serif" font-size="10.00"> </text>
</a>
</g>
</g>
<!-- Node3&#45;&gt;Node1 -->
<g id="edge2" class="edge">
<title>Node3&#45;&gt;Node1</title>
<path fill="none" stroke="midnightblue" d="M163.31,-437.76C169.12,-396.53 178.74,-328.16 187.38,-266.77"/>
<polygon fill="none" stroke="midnightblue" points="159.82,-437.49 161.89,-447.88 166.75,-438.47 159.82,-437.49"/>
</g>
<!-- Node5 -->
<g id="node5" class="node">
<title>Node5</title>
<g id="a_node5"><a xlink:href="interface_volume_control_1_1_hotkeys_1_1_interfaces_1_1_i_hotkey_action_manager.html" target="_top" xlink:title="Represents a hotkey action manager object, which contains the list of IActionBindings used in the hot...">
<polygon fill="none" stroke="black" points="196,-314.5 196,-404.5 382,-404.5 382,-314.5 196,-314.5"/>
<text text-anchor="start" x="204" y="-392.5" font-family="Helvetica,sans-Serif" font-size="10.00">VolumeControl.Hotkeys.Interfaces.</text>
<text text-anchor="middle" x="289" y="-381.5" font-family="Helvetica,sans-Serif" font-size="10.00">IHotkeyActionManager</text>
<polyline fill="none" stroke="black" points="196,-374.5 382,-374.5 "/>
<text text-anchor="start" x="204" y="-362.5" font-family="Helvetica,sans-Serif" font-size="10.00">+ NullAction</text>
<text text-anchor="start" x="204" y="-351.5" font-family="Helvetica,sans-Serif" font-size="10.00">+ Bindings</text>
<text text-anchor="start" x="204" y="-340.5" font-family="Helvetica,sans-Serif" font-size="10.00">+ this[string actionName]</text>
<polyline fill="none" stroke="black" points="196,-333.5 382,-333.5 "/>
<text text-anchor="start" x="204" y="-321.5" font-family="Helvetica,sans-Serif" font-size="10.00">+ GetActionNames()</text>
</a>
</g>
</g>
<!-- Node3&#45;&gt;Node5 -->
<g id="edge6" class="edge">
<title>Node3&#45;&gt;Node5</title>
<path fill="none" stroke="midnightblue" d="M197.25,-441.04C210.27,-429.61 224.96,-416.72 238.7,-404.66"/>
<polygon fill="none" stroke="midnightblue" points="194.58,-438.73 189.38,-447.95 199.2,-443.99 194.58,-438.73"/>
</g>
<!-- Node4 -->
<g id="node4" class="node">
<title>Node4</title>
<g id="a_node4"><a xlink:title=" ">
<polygon fill="none" stroke="#bfbfbf" points="400,-331 400,-388 474,-388 474,-331 400,-331"/>
<text text-anchor="middle" x="437" y="-376" font-family="Helvetica,sans-Serif" font-size="10.00">IDisposable</text>
<polyline fill="none" stroke="#bfbfbf" points="400,-369 474,-369 "/>
<text text-anchor="middle" x="437" y="-357" font-family="Helvetica,sans-Serif" font-size="10.00"> </text>
<polyline fill="none" stroke="#bfbfbf" points="400,-350 474,-350 "/>
<text text-anchor="middle" x="437" y="-338" font-family="Helvetica,sans-Serif" font-size="10.00"> </text>
</a>
</g>
</g>
<!-- Node4&#45;&gt;Node1 -->
<g id="edge3" class="edge">
<title>Node4&#45;&gt;Node1</title>
<path fill="none" stroke="midnightblue" d="M401.03,-323.62C371.59,-295.07 328.75,-253.53 290.72,-216.65"/>
<polygon fill="none" stroke="midnightblue" points="398.6,-326.13 408.21,-330.58 403.47,-321.11 398.6,-326.13"/>
</g>
<!-- Node5&#45;&gt;Node1 -->
<g id="edge4" class="edge">
<title>Node5&#45;&gt;Node1</title>
<path fill="none" stroke="#404040" d="M272.6,-314.24C268.55,-303.3 263.98,-290.97 259.18,-278.03"/>
<polygon fill="none" stroke="#404040" points="259.09,-277.77 253.25,-273.54 254.92,-266.52 260.75,-270.76 259.09,-277.77"/>
<text text-anchor="middle" x="289" y="-288" font-family="Helvetica,sans-Serif" font-size="10.00"> +Actions</text>
</g>
<!-- Node6 -->
<g id="node6" class="node">
<title>Node6</title>
<g id="a_node6"><a xlink:href="interface_volume_control_1_1_core_1_1_i_base_addon.html" target="_top" xlink:title="Represents an addon object. &#160;You can&#39;t directly implement this interface; inherit from the abstract c...">
<polygon fill="none" stroke="black" points="242.5,-442.5 242.5,-510.5 353.5,-510.5 353.5,-442.5 242.5,-442.5"/>
<text text-anchor="middle" x="298" y="-498.5" font-family="Helvetica,sans-Serif" font-size="10.00">IBaseAddon</text>
<polyline fill="none" stroke="black" points="242.5,-491.5 353.5,-491.5 "/>
<text text-anchor="start" x="250.5" y="-479.5" font-family="Helvetica,sans-Serif" font-size="10.00">+ Attribute</text>
<text text-anchor="start" x="250.5" y="-468.5" font-family="Helvetica,sans-Serif" font-size="10.00">+ Types</text>
<polyline fill="none" stroke="black" points="242.5,-461.5 353.5,-461.5 "/>
<text text-anchor="start" x="250.5" y="-449.5" font-family="Helvetica,sans-Serif" font-size="10.00">+ LoadFromTypes()</text>
</a>
</g>
</g>
<!-- Node6&#45;&gt;Node5 -->
<g id="edge5" class="edge">
<title>Node6&#45;&gt;Node5</title>
<path fill="none" stroke="midnightblue" d="M294.6,-432.05C293.9,-423.15 293.17,-413.76 292.47,-404.82"/>
<polygon fill="none" stroke="midnightblue" points="291.13,-432.54 295.4,-442.24 298.11,-431.99 291.13,-432.54"/>
</g>
<!-- Node7 -->
<g id="node7" class="node">
<title>Node7</title>
<g id="a_node7"><a xlink:title=" ">
<polygon fill="none" stroke="#bfbfbf" points="372,-448 372,-505 508,-505 508,-448 372,-448"/>
<text text-anchor="middle" x="440" y="-493" font-family="Helvetica,sans-Serif" font-size="10.00">INotifyPropertyChanging</text>
<polyline fill="none" stroke="#bfbfbf" points="372,-486 508,-486 "/>
<text text-anchor="middle" x="440" y="-474" font-family="Helvetica,sans-Serif" font-size="10.00"> </text>
<polyline fill="none" stroke="#bfbfbf" points="372,-467 508,-467 "/>
<text text-anchor="middle" x="440" y="-455" font-family="Helvetica,sans-Serif" font-size="10.00"> </text>
</a>
</g>
</g>
<!-- Node7&#45;&gt;Node5 -->
<g id="edge7" class="edge">
<title>Node7&#45;&gt;Node5</title>
<path fill="none" stroke="midnightblue" d="M395.61,-441.69C380.38,-430.1 363.12,-416.95 346.98,-404.66"/>
<polygon fill="none" stroke="midnightblue" points="393.76,-444.68 403.83,-447.95 398,-439.11 393.76,-444.68"/>
</g>
</g>
</svg>
