<?xml version="1.0" encoding="UTF-8" standalone="no"?>
<!DOCTYPE svg PUBLIC "-//W3C//DTD SVG 1.1//EN"
 "http://www.w3.org/Graphics/SVG/1.1/DTD/svg11.dtd">
<!-- Generated by graphviz version 2.43.0 (0)
 -->
<!-- Title: VolumeControl.CoreAudio.AudioSessionMultiSelector.SetSelectedSessionsOrCurrentSession Pages: 1 -->
<svg width="594pt" height="108pt"
 viewBox="0.00 0.00 594.00 108.00" xmlns="http://www.w3.org/2000/svg" xmlns:xlink="http://www.w3.org/1999/xlink">
<g id="graph0" class="graph" transform="scale(1 1) rotate(0) translate(4 104)">
<title>VolumeControl.CoreAudio.AudioSessionMultiSelector.SetSelectedSessionsOrCurrentSession</title>
<!-- Node1 -->
<g id="Node000001" class="node">
<title>Node1</title>
<g id="a_Node000001"><a xlink:title="Sets only the specified sessions &#160;as selected, unless sessions &#160;contains exactly 1 session in which c...">
<polygon fill="#999999" stroke="#666666" points="186,-70 0,-70 0,-29 186,-29 186,-70"/>
<text text-anchor="start" x="8" y="-58" font-family="Helvetica,sans-Serif" font-size="10.00">VolumeControl.CoreAudio.</text>
<text text-anchor="start" x="8" y="-47" font-family="Helvetica,sans-Serif" font-size="10.00">AudioSessionMultiSelector.Set</text>
<text text-anchor="middle" x="93" y="-36" font-family="Helvetica,sans-Serif" font-size="10.00">SelectedSessionsOrCurrentSession</text>
</a>
</g>
</g>
<!-- Node2 -->
<g id="Node000002" class="node">
<title>Node2</title>
<g id="a_Node000002"><a xlink:href="class_volume_control_1_1_core_audio_1_1_audio_session_multi_selector.html#a6fc89905cebf16eeebb1a70120967c75" target="_top" xlink:title="Sets whether all AudioSession instances in the Sessions list are selected or not.">
<polygon fill="white" stroke="#666666" points="386,-100 222,-100 222,-59 386,-59 386,-100"/>
<text text-anchor="start" x="230" y="-88" font-family="Helvetica,sans-Serif" font-size="10.00">VolumeControl.CoreAudio.</text>
<text text-anchor="start" x="230" y="-77" font-family="Helvetica,sans-Serif" font-size="10.00">AudioSessionMultiSelector.Set</text>
<text text-anchor="middle" x="304" y="-66" font-family="Helvetica,sans-Serif" font-size="10.00">AllSessionSelectionStates</text>
</a>
</g>
</g>
<!-- Node1&#45;&gt;Node2 -->
<g id="edge1_Node000001_Node000002" class="edge">
<title>Node1&#45;&gt;Node2</title>
<g id="a_edge1_Node000001_Node000002"><a xlink:title=" ">
<path fill="none" stroke="#63b8ff" d="M186.28,-62.75C194.68,-63.95 203.18,-65.17 211.57,-66.38"/>
<polygon fill="#63b8ff" stroke="#63b8ff" points="211.33,-69.88 221.73,-67.83 212.33,-62.95 211.33,-69.88"/>
</a>
</g>
</g>
<!-- Node4 -->
<g id="Node000004" class="node">
<title>Node4</title>
<g id="a_Node000004"><a xlink:href="class_volume_control_1_1_core_audio_1_1_audio_session_multi_selector.html#aefed066323178ba08dce36d09e368c3f" target="_top" xlink:title="Sets only the specified sessions &#160;as selected.">
<polygon fill="white" stroke="#666666" points="386,-41 222,-41 222,0 386,0 386,-41"/>
<text text-anchor="start" x="230" y="-29" font-family="Helvetica,sans-Serif" font-size="10.00">VolumeControl.CoreAudio.</text>
<text text-anchor="start" x="230" y="-18" font-family="Helvetica,sans-Serif" font-size="10.00">AudioSessionMultiSelector.Set</text>
<text text-anchor="middle" x="304" y="-7" font-family="Helvetica,sans-Serif" font-size="10.00">SelectedSessions</text>
</a>
</g>
</g>
<!-- Node1&#45;&gt;Node4 -->
<g id="edge3_Node000001_Node000004" class="edge">
<title>Node1&#45;&gt;Node4</title>
<g id="a_edge3_Node000001_Node000004"><a xlink:title=" ">
<path fill="none" stroke="#63b8ff" d="M186.28,-36.7C194.68,-35.53 203.18,-34.35 211.57,-33.19"/>
<polygon fill="#63b8ff" stroke="#63b8ff" points="212.3,-36.62 221.73,-31.78 211.34,-29.68 212.3,-36.62"/>
</a>
</g>
</g>
<!-- Node3 -->
<g id="Node000003" class="node">
<title>Node3</title>
<g id="a_Node000003"><a xlink:href="class_volume_control_1_1_core_audio_1_1_audio_session_multi_selector.html#a0d99654cef7569144f231abe71830718" target="_top" xlink:title="Sets whether the specified audioSession &#160;is selected or not.">
<polygon fill="white" stroke="#666666" points="586,-70 422,-70 422,-29 586,-29 586,-70"/>
<text text-anchor="start" x="430" y="-58" font-family="Helvetica,sans-Serif" font-size="10.00">VolumeControl.CoreAudio.</text>
<text text-anchor="start" x="430" y="-47" font-family="Helvetica,sans-Serif" font-size="10.00">AudioSessionMultiSelector.Set</text>
<text text-anchor="middle" x="504" y="-36" font-family="Helvetica,sans-Serif" font-size="10.00">SessionIsSelected</text>
</a>
</g>
</g>
<!-- Node2&#45;&gt;Node3 -->
<g id="edge2_Node000002_Node000003" class="edge">
<title>Node2&#45;&gt;Node3</title>
<g id="a_edge2_Node000002_Node000003"><a xlink:title=" ">
<path fill="none" stroke="#63b8ff" d="M386.11,-67.21C394.55,-65.93 403.17,-64.63 411.72,-63.33"/>
<polygon fill="#63b8ff" stroke="#63b8ff" points="412.34,-66.78 421.7,-61.82 411.29,-59.86 412.34,-66.78"/>
</a>
</g>
</g>
<!-- Node4&#45;&gt;Node3 -->
<g id="edge4_Node000004_Node000003" class="edge">
<title>Node4&#45;&gt;Node3</title>
<g id="a_edge4_Node000004_Node000003"><a xlink:title=" ">
<path fill="none" stroke="#63b8ff" d="M386.11,-32.38C394.55,-33.62 403.17,-34.88 411.72,-36.13"/>
<polygon fill="#63b8ff" stroke="#63b8ff" points="411.3,-39.61 421.7,-37.59 412.31,-32.68 411.3,-39.61"/>
</a>
</g>
</g>
</g>
</svg>
