<?xml version="1.0" encoding="UTF-8" standalone="no"?>
<!DOCTYPE svg PUBLIC "-//W3C//DTD SVG 1.1//EN"
 "http://www.w3.org/Graphics/SVG/1.1/DTD/svg11.dtd">
<!-- Generated by graphviz version 2.43.0 (0)
 -->
<!-- Title: VolumeControl.Hotkeys.Structs.HotkeyAction Pages: 1 -->
<svg width="179pt" height="475pt"
 viewBox="0.00 0.00 179.00 475.00" xmlns="http://www.w3.org/2000/svg" xmlns:xlink="http://www.w3.org/1999/xlink">
<g id="graph0" class="graph" transform="scale(1 1) rotate(0) translate(4 471)">
<title>VolumeControl.Hotkeys.Structs.HotkeyAction</title>
<!-- Node1 -->
<g id="node1" class="node">
<title>Node1</title>
<g id="a_node1"><a xlink:title="Wrapper for a hotkey action method type.">
<polygon fill="#bfbfbf" stroke="black" points="0,-0.5 0,-189.5 171,-189.5 171,-0.5 0,-0.5"/>
<text text-anchor="start" x="8" y="-177.5" font-family="Helvetica,sans-Serif" font-size="10.00">VolumeControl.Hotkeys.Structs.</text>
<text text-anchor="middle" x="85.5" y="-166.5" font-family="Helvetica,sans-Serif" font-size="10.00">HotkeyAction</text>
<polyline fill="none" stroke="black" points="0,-159.5 171,-159.5 "/>
<text text-anchor="start" x="8" y="-147.5" font-family="Helvetica,sans-Serif" font-size="10.00">+ Identifier</text>
<text text-anchor="start" x="8" y="-136.5" font-family="Helvetica,sans-Serif" font-size="10.00">+ Name</text>
<text text-anchor="start" x="8" y="-125.5" font-family="Helvetica,sans-Serif" font-size="10.00">+ Description</text>
<text text-anchor="start" x="8" y="-114.5" font-family="Helvetica,sans-Serif" font-size="10.00">+ GroupName</text>
<text text-anchor="start" x="8" y="-103.5" font-family="Helvetica,sans-Serif" font-size="10.00">+ GroupBrush</text>
<text text-anchor="start" x="8" y="-92.5" font-family="Helvetica,sans-Serif" font-size="10.00">+ Type</text>
<text text-anchor="start" x="8" y="-81.5" font-family="Helvetica,sans-Serif" font-size="10.00">+ MethodInfo</text>
<text text-anchor="start" x="8" y="-70.5" font-family="Helvetica,sans-Serif" font-size="10.00">+ Instance</text>
<text text-anchor="start" x="8" y="-59.5" font-family="Helvetica,sans-Serif" font-size="10.00">+ Data</text>
<polyline fill="none" stroke="black" points="0,-52.5 171,-52.5 "/>
<text text-anchor="start" x="8" y="-40.5" font-family="Helvetica,sans-Serif" font-size="10.00">+ HotkeyAction()</text>
<text text-anchor="start" x="8" y="-29.5" font-family="Helvetica,sans-Serif" font-size="10.00">+ HotkeyAction()</text>
<text text-anchor="start" x="8" y="-18.5" font-family="Helvetica,sans-Serif" font-size="10.00">+ HotkeyAction()</text>
<text text-anchor="start" x="8" y="-7.5" font-family="Helvetica,sans-Serif" font-size="10.00">+ HandleKeyEvent()</text>
</a>
</g>
</g>
<!-- Node2 -->
<g id="node2" class="node">
<title>Node2</title>
<g id="a_node2"><a xlink:href="interface_volume_control_1_1_core_1_1_input_1_1_actions_1_1_i_hotkey_action.html" target="_top" xlink:title="Represents an invokable method that can be triggered via a hotkey.">
<polygon fill="none" stroke="black" points="27.5,-227.5 27.5,-361.5 143.5,-361.5 143.5,-227.5 27.5,-227.5"/>
<text text-anchor="middle" x="85.5" y="-349.5" font-family="Helvetica,sans-Serif" font-size="10.00">IHotkeyAction</text>
<polyline fill="none" stroke="black" points="27.5,-342.5 143.5,-342.5 "/>
<text text-anchor="start" x="35.5" y="-330.5" font-family="Helvetica,sans-Serif" font-size="10.00">+ Identifier</text>
<text text-anchor="start" x="35.5" y="-319.5" font-family="Helvetica,sans-Serif" font-size="10.00">+ Name</text>
<text text-anchor="start" x="35.5" y="-308.5" font-family="Helvetica,sans-Serif" font-size="10.00">+ Description</text>
<text text-anchor="start" x="35.5" y="-297.5" font-family="Helvetica,sans-Serif" font-size="10.00">+ GroupName</text>
<text text-anchor="start" x="35.5" y="-286.5" font-family="Helvetica,sans-Serif" font-size="10.00">+ Type</text>
<text text-anchor="start" x="35.5" y="-275.5" font-family="Helvetica,sans-Serif" font-size="10.00">+ MethodInfo</text>
<text text-anchor="start" x="35.5" y="-264.5" font-family="Helvetica,sans-Serif" font-size="10.00">+ Instance</text>
<text text-anchor="start" x="35.5" y="-253.5" font-family="Helvetica,sans-Serif" font-size="10.00">+ Data</text>
<polyline fill="none" stroke="black" points="27.5,-246.5 143.5,-246.5 "/>
<text text-anchor="start" x="35.5" y="-234.5" font-family="Helvetica,sans-Serif" font-size="10.00">+ HandleKeyEvent()</text>
</a>
</g>
</g>
<!-- Node2&#45;&gt;Node1 -->
<g id="edge1" class="edge">
<title>Node2&#45;&gt;Node1</title>
<path fill="none" stroke="midnightblue" d="M85.5,-217.38C85.5,-208.33 85.5,-199.02 85.5,-189.76"/>
<polygon fill="none" stroke="midnightblue" points="82,-217.46 85.5,-227.46 89,-217.46 82,-217.46"/>
</g>
<!-- Node3 -->
<g id="node3" class="node">
<title>Node3</title>
<g id="a_node3"><a xlink:title=" ">
<polygon fill="none" stroke="#bfbfbf" points="59,-409.5 59,-466.5 112,-466.5 112,-409.5 59,-409.5"/>
<text text-anchor="middle" x="85.5" y="-454.5" font-family="Helvetica,sans-Serif" font-size="10.00">System</text>
<polyline fill="none" stroke="#bfbfbf" points="59,-447.5 112,-447.5 "/>
<text text-anchor="middle" x="85.5" y="-435.5" font-family="Helvetica,sans-Serif" font-size="10.00"> </text>
<polyline fill="none" stroke="#bfbfbf" points="59,-428.5 112,-428.5 "/>
<text text-anchor="middle" x="85.5" y="-416.5" font-family="Helvetica,sans-Serif" font-size="10.00"> </text>
</a>
</g>
</g>
<!-- Node3&#45;&gt;Node2 -->
<g id="edge2" class="edge">
<title>Node3&#45;&gt;Node2</title>
<path fill="none" stroke="#404040" d="M85.5,-409.38C85.5,-399.02 85.5,-386.66 85.5,-373.97"/>
<polygon fill="none" stroke="#404040" points="85.5,-373.75 81.5,-367.75 85.5,-361.75 89.5,-367.75 85.5,-373.75"/>
<text text-anchor="middle" x="120" y="-383" font-family="Helvetica,sans-Serif" font-size="10.00"> +GroupBrush</text>
</g>
</g>
</svg>
