<?xml version="1.0" encoding="UTF-8" standalone="no"?>
<!DOCTYPE svg PUBLIC "-//W3C//DTD SVG 1.1//EN"
 "http://www.w3.org/Graphics/SVG/1.1/DTD/svg11.dtd">
<!-- Generated by graphviz version 2.43.0 (0)
 -->
<!-- Title: AppConfig.ConfigurationFile Pages: 1 -->
<svg width="185pt" height="557pt"
 viewBox="0.00 0.00 185.00 557.00" xmlns="http://www.w3.org/2000/svg" xmlns:xlink="http://www.w3.org/1999/xlink">
<g id="graph0" class="graph" transform="scale(1 1) rotate(0) translate(4 553)">
<title>AppConfig.ConfigurationFile</title>
<!-- Node1 -->
<g id="node1" class="node">
<title>Node1</title>
<g id="a_node1"><a xlink:title="Extends the Configuration class with a built&#45;in file Location, and adds methods that use this filepat...">
<polygon fill="#bfbfbf" stroke="black" points="12.5,-237.5 12.5,-316.5 164.5,-316.5 164.5,-237.5 12.5,-237.5"/>
<text text-anchor="middle" x="88.5" y="-304.5" font-family="Helvetica,sans-Serif" font-size="10.00">AppConfig.ConfigurationFile</text>
<polyline fill="none" stroke="black" points="12.5,-297.5 164.5,-297.5 "/>
<text text-anchor="start" x="20.5" y="-285.5" font-family="Helvetica,sans-Serif" font-size="10.00">+ Location</text>
<polyline fill="none" stroke="black" points="12.5,-278.5 164.5,-278.5 "/>
<text text-anchor="start" x="20.5" y="-266.5" font-family="Helvetica,sans-Serif" font-size="10.00">+ ConfigurationFile()</text>
<text text-anchor="start" x="20.5" y="-255.5" font-family="Helvetica,sans-Serif" font-size="10.00">+ Load()</text>
<text text-anchor="start" x="20.5" y="-244.5" font-family="Helvetica,sans-Serif" font-size="10.00">+ Save()</text>
</a>
</g>
</g>
<!-- Node4 -->
<g id="node4" class="node">
<title>Node4</title>
<g id="a_node4"><a xlink:href="class_volume_control_1_1_core_1_1_config.html" target="_top" xlink:title="Contains the application configuration and logic to read from and write to JSON files.">
<polygon fill="none" stroke="black" points="0,-0.5 0,-200.5 177,-200.5 177,-0.5 0,-0.5"/>
<text text-anchor="middle" x="88.5" y="-188.5" font-family="Helvetica,sans-Serif" font-size="10.00">VolumeControl.Core.Config</text>
<polyline fill="none" stroke="black" points="0,-181.5 177,-181.5 "/>
<text text-anchor="start" x="8" y="-169.5" font-family="Helvetica,sans-Serif" font-size="10.00">+ KeyBlacklist</text>
<text text-anchor="start" x="8" y="-158.5" font-family="Helvetica,sans-Serif" font-size="10.00">+ Hotkeys_Default</text>
<text text-anchor="start" x="8" y="-147.5" font-family="Helvetica,sans-Serif" font-size="10.00">+ LanguageName</text>
<text text-anchor="start" x="8" y="-136.5" font-family="Helvetica,sans-Serif" font-size="10.00">+ CreateDefaultTranslation</text>
<text text-anchor="start" x="8" y="-125.5" font-family="Helvetica,sans-Serif" font-size="10.00">Files</text>
<text text-anchor="start" x="8" y="-114.5" font-family="Helvetica,sans-Serif" font-size="10.00">+ CustomLocalizationDirectories</text>
<text text-anchor="start" x="8" y="-103.5" font-family="Helvetica,sans-Serif" font-size="10.00">+ RunAtStartup</text>
<text text-anchor="start" x="8" y="-92.5" font-family="Helvetica,sans-Serif" font-size="10.00">+ StartMinimized</text>
<text text-anchor="start" x="8" y="-81.5" font-family="Helvetica,sans-Serif" font-size="10.00">+ ShowInTaskbar</text>
<text text-anchor="start" x="8" y="-70.5" font-family="Helvetica,sans-Serif" font-size="10.00">+ AlwaysOnTop</text>
<text text-anchor="start" x="8" y="-59.5" font-family="Helvetica,sans-Serif" font-size="10.00">+ AdvancedHotkeys</text>
<text text-anchor="start" x="8" y="-48.5" font-family="Helvetica,sans-Serif" font-size="10.00">+ ShowIcons</text>
<text text-anchor="start" x="8" y="-37.5" font-family="Helvetica,sans-Serif" font-size="10.00">+ CustomAddonDirectories</text>
<text text-anchor="start" x="8" y="-26.5" font-family="Helvetica,sans-Serif" font-size="10.00">and 20 more...</text>
<polyline fill="none" stroke="black" points="0,-19.5 177,-19.5 "/>
<text text-anchor="middle" x="88.5" y="-7.5" font-family="Helvetica,sans-Serif" font-size="10.00"> </text>
</a>
</g>
</g>
<!-- Node1&#45;&gt;Node4 -->
<g id="edge3" class="edge">
<title>Node1&#45;&gt;Node4</title>
<path fill="none" stroke="midnightblue" d="M88.5,-227.06C88.5,-218.74 88.5,-209.83 88.5,-200.74"/>
<polygon fill="none" stroke="midnightblue" points="85,-227.27 88.5,-237.27 92,-227.27 85,-227.27"/>
</g>
<!-- Node2 -->
<g id="node2" class="node">
<title>Node2</title>
<g id="a_node2"><a xlink:href="class_app_config_1_1_configuration.html" target="_top" xlink:title="The most basic abstract class in the AppConfig project.">
<polygon fill="none" stroke="black" points="32.5,-353.5 32.5,-454.5 144.5,-454.5 144.5,-353.5 32.5,-353.5"/>
<text text-anchor="middle" x="88.5" y="-442.5" font-family="Helvetica,sans-Serif" font-size="10.00">Configuration</text>
<polyline fill="none" stroke="black" points="32.5,-435.5 144.5,-435.5 "/>
<text text-anchor="start" x="40.5" y="-423.5" font-family="Helvetica,sans-Serif" font-size="10.00">+ Default</text>
<text text-anchor="start" x="40.5" y="-412.5" font-family="Helvetica,sans-Serif" font-size="10.00">+ this[string name]</text>
<polyline fill="none" stroke="black" points="32.5,-405.5 144.5,-405.5 "/>
<text text-anchor="start" x="40.5" y="-393.5" font-family="Helvetica,sans-Serif" font-size="10.00">+ Configuration()</text>
<text text-anchor="start" x="40.5" y="-382.5" font-family="Helvetica,sans-Serif" font-size="10.00">+ SetTo()</text>
<text text-anchor="start" x="40.5" y="-371.5" font-family="Helvetica,sans-Serif" font-size="10.00">+ Load()</text>
<text text-anchor="start" x="40.5" y="-360.5" font-family="Helvetica,sans-Serif" font-size="10.00">+ Save()</text>
</a>
</g>
</g>
<!-- Node2&#45;&gt;Node1 -->
<g id="edge1" class="edge">
<title>Node2&#45;&gt;Node1</title>
<path fill="none" stroke="midnightblue" d="M88.5,-343.19C88.5,-334.22 88.5,-325.18 88.5,-316.81"/>
<polygon fill="none" stroke="midnightblue" points="85,-343.24 88.5,-353.24 92,-343.24 85,-343.24"/>
</g>
<!-- Node3 -->
<g id="node3" class="node">
<title>Node3</title>
<g id="a_node3"><a xlink:title=" ">
<polygon fill="none" stroke="#bfbfbf" points="22,-491.5 22,-548.5 155,-548.5 155,-491.5 22,-491.5"/>
<text text-anchor="middle" x="88.5" y="-536.5" font-family="Helvetica,sans-Serif" font-size="10.00">INotifyPropertyChanged</text>
<polyline fill="none" stroke="#bfbfbf" points="22,-529.5 155,-529.5 "/>
<text text-anchor="middle" x="88.5" y="-517.5" font-family="Helvetica,sans-Serif" font-size="10.00"> </text>
<polyline fill="none" stroke="#bfbfbf" points="22,-510.5 155,-510.5 "/>
<text text-anchor="middle" x="88.5" y="-498.5" font-family="Helvetica,sans-Serif" font-size="10.00"> </text>
</a>
</g>
</g>
<!-- Node3&#45;&gt;Node2 -->
<g id="edge2" class="edge">
<title>Node3&#45;&gt;Node2</title>
<path fill="none" stroke="midnightblue" d="M88.5,-481.35C88.5,-472.8 88.5,-463.58 88.5,-454.61"/>
<polygon fill="none" stroke="midnightblue" points="85,-481.4 88.5,-491.4 92,-481.4 85,-481.4"/>
</g>
</g>
</svg>
