<?xml version="1.0" encoding="UTF-8" standalone="no"?>
<!DOCTYPE svg PUBLIC "-//W3C//DTD SVG 1.1//EN"
 "http://www.w3.org/Graphics/SVG/1.1/DTD/svg11.dtd">
<!-- Generated by graphviz version 2.43.0 (0)
 -->
<!-- Title: VolumeControl.Audio.AudioSession Pages: 1 -->
<svg width="828pt" height="724pt"
 viewBox="0.00 0.00 827.50 724.00" xmlns="http://www.w3.org/2000/svg" xmlns:xlink="http://www.w3.org/1999/xlink">
<g id="graph0" class="graph" transform="scale(1 1) rotate(0) translate(4 720)">
<title>VolumeControl.Audio.AudioSession</title>
<!-- Node1 -->
<g id="node1" class="node">
<title>Node1</title>
<g id="a_node1"><a xlink:title="Represents an audio session playing on the system.">
<polygon fill="#bfbfbf" stroke="black" points="300.5,-0.5 300.5,-354.5 450.5,-354.5 450.5,-0.5 300.5,-0.5"/>
<text text-anchor="start" x="308.5" y="-342.5" font-family="Helvetica,sans-Serif" font-size="10.00">VolumeControl.Audio.Audio</text>
<text text-anchor="middle" x="375.5" y="-331.5" font-family="Helvetica,sans-Serif" font-size="10.00">Session</text>
<polyline fill="none" stroke="black" points="300.5,-324.5 450.5,-324.5 "/>
<text text-anchor="start" x="308.5" y="-312.5" font-family="Helvetica,sans-Serif" font-size="10.00">+ HashCode</text>
<text text-anchor="start" x="308.5" y="-301.5" font-family="Helvetica,sans-Serif" font-size="10.00">+ VolumeController</text>
<text text-anchor="start" x="308.5" y="-290.5" font-family="Helvetica,sans-Serif" font-size="10.00">+ State</text>
<text text-anchor="start" x="308.5" y="-279.5" font-family="Helvetica,sans-Serif" font-size="10.00">+ IconPath</text>
<text text-anchor="start" x="308.5" y="-268.5" font-family="Helvetica,sans-Serif" font-size="10.00">+ SmallIcon</text>
<text text-anchor="start" x="308.5" y="-257.5" font-family="Helvetica,sans-Serif" font-size="10.00">+ LargeIcon</text>
<text text-anchor="start" x="308.5" y="-246.5" font-family="Helvetica,sans-Serif" font-size="10.00">+ Icon</text>
<text text-anchor="start" x="308.5" y="-235.5" font-family="Helvetica,sans-Serif" font-size="10.00">+ ProcessIdentifier</text>
<text text-anchor="start" x="308.5" y="-224.5" font-family="Helvetica,sans-Serif" font-size="10.00">+ Active</text>
<text text-anchor="start" x="308.5" y="-213.5" font-family="Helvetica,sans-Serif" font-size="10.00">+ Volume</text>
<text text-anchor="start" x="308.5" y="-202.5" font-family="Helvetica,sans-Serif" font-size="10.00">+ NativeVolume</text>
<text text-anchor="start" x="308.5" y="-191.5" font-family="Helvetica,sans-Serif" font-size="10.00">+ Muted</text>
<text text-anchor="start" x="308.5" y="-180.5" font-family="Helvetica,sans-Serif" font-size="10.00">+ GroupingParam</text>
<text text-anchor="start" x="308.5" y="-169.5" font-family="Helvetica,sans-Serif" font-size="10.00">+ DisplayName</text>
<text text-anchor="start" x="308.5" y="-158.5" font-family="Helvetica,sans-Serif" font-size="10.00">+ ProcessName</text>
<text text-anchor="start" x="308.5" y="-147.5" font-family="Helvetica,sans-Serif" font-size="10.00">+ PID</text>
<text text-anchor="start" x="308.5" y="-136.5" font-family="Helvetica,sans-Serif" font-size="10.00">+ IsRunning</text>
<text text-anchor="start" x="308.5" y="-125.5" font-family="Helvetica,sans-Serif" font-size="10.00">+ NotificationClient</text>
<text text-anchor="start" x="308.5" y="-114.5" font-family="Helvetica,sans-Serif" font-size="10.00">+ Process</text>
<text text-anchor="start" x="308.5" y="-103.5" font-family="Helvetica,sans-Serif" font-size="10.00">+ Name</text>
<polyline fill="none" stroke="black" points="300.5,-96.5 450.5,-96.5 "/>
<text text-anchor="start" x="308.5" y="-84.5" font-family="Helvetica,sans-Serif" font-size="10.00">+ GetProcess()</text>
<text text-anchor="start" x="308.5" y="-73.5" font-family="Helvetica,sans-Serif" font-size="10.00">+ Dispose()</text>
<text text-anchor="start" x="308.5" y="-62.5" font-family="Helvetica,sans-Serif" font-size="10.00">+ Equals()</text>
<text text-anchor="start" x="308.5" y="-51.5" font-family="Helvetica,sans-Serif" font-size="10.00">+ Equals()</text>
<text text-anchor="start" x="308.5" y="-40.5" font-family="Helvetica,sans-Serif" font-size="10.00">+ Equals()</text>
<text text-anchor="start" x="308.5" y="-29.5" font-family="Helvetica,sans-Serif" font-size="10.00">+ GetHashCode()</text>
<text text-anchor="start" x="308.5" y="-18.5" font-family="Helvetica,sans-Serif" font-size="10.00">~ AudioSession()</text>
<text text-anchor="start" x="308.5" y="-7.5" font-family="Helvetica,sans-Serif" font-size="10.00">~ NotifyExited()</text>
</a>
</g>
</g>
<!-- Node2 -->
<g id="node2" class="node">
<title>Node2</title>
<g id="a_node2"><a xlink:href="interface_volume_control_1_1_audio_1_1_interfaces_1_1_i_process.html" target="_top" xlink:title="Represents read&#45;only information about a process running on the local system.">
<polygon fill="none" stroke="black" points="0,-530.5 0,-620.5 109,-620.5 109,-530.5 0,-530.5"/>
<text text-anchor="middle" x="54.5" y="-608.5" font-family="Helvetica,sans-Serif" font-size="10.00">IProcess</text>
<polyline fill="none" stroke="black" points="0,-601.5 109,-601.5 "/>
<text text-anchor="start" x="8" y="-589.5" font-family="Helvetica,sans-Serif" font-size="10.00">+ ProcessName</text>
<text text-anchor="start" x="8" y="-578.5" font-family="Helvetica,sans-Serif" font-size="10.00">+ PID</text>
<text text-anchor="start" x="8" y="-567.5" font-family="Helvetica,sans-Serif" font-size="10.00">+ ProcessIdentifier</text>
<text text-anchor="start" x="8" y="-556.5" font-family="Helvetica,sans-Serif" font-size="10.00">+ HashCode</text>
<polyline fill="none" stroke="black" points="0,-549.5 109,-549.5 "/>
<text text-anchor="middle" x="54.5" y="-537.5" font-family="Helvetica,sans-Serif" font-size="10.00"> </text>
</a>
</g>
</g>
<!-- Node2&#45;&gt;Node1 -->
<g id="edge1" class="edge">
<title>Node2&#45;&gt;Node1</title>
<path fill="none" stroke="midnightblue" d="M55.14,-520.04C57.81,-484.19 65.74,-437.49 87.5,-402 138.77,-318.36 233.53,-254.07 300.33,-216.36"/>
<polygon fill="none" stroke="midnightblue" points="51.63,-520.12 54.49,-530.32 58.61,-520.56 51.63,-520.12"/>
</g>
<!-- Node5 -->
<g id="node5" class="node">
<title>Node5</title>
<g id="a_node5"><a xlink:href="interface_volume_control_1_1_audio_1_1_interfaces_1_1_i_session.html" target="_top" xlink:title="Represents an audio session.">
<polygon fill="none" stroke="black" points="97,-402.5 97,-492.5 194,-492.5 194,-402.5 97,-402.5"/>
<text text-anchor="middle" x="145.5" y="-480.5" font-family="Helvetica,sans-Serif" font-size="10.00">ISession</text>
<polyline fill="none" stroke="black" points="97,-473.5 194,-473.5 "/>
<text text-anchor="start" x="105" y="-461.5" font-family="Helvetica,sans-Serif" font-size="10.00">+ Volume</text>
<text text-anchor="start" x="105" y="-450.5" font-family="Helvetica,sans-Serif" font-size="10.00">+ NativeVolume</text>
<text text-anchor="start" x="105" y="-439.5" font-family="Helvetica,sans-Serif" font-size="10.00">+ Muted</text>
<text text-anchor="start" x="105" y="-428.5" font-family="Helvetica,sans-Serif" font-size="10.00">+ Name</text>
<polyline fill="none" stroke="black" points="97,-421.5 194,-421.5 "/>
<text text-anchor="middle" x="145.5" y="-409.5" font-family="Helvetica,sans-Serif" font-size="10.00"> </text>
</a>
</g>
</g>
<!-- Node2&#45;&gt;Node5 -->
<g id="edge5" class="edge">
<title>Node2&#45;&gt;Node5</title>
<path fill="none" stroke="midnightblue" d="M92.21,-522.29C99.29,-512.48 106.64,-502.3 113.54,-492.76"/>
<polygon fill="none" stroke="midnightblue" points="89.34,-520.28 86.33,-530.43 95.02,-524.37 89.34,-520.28"/>
</g>
<!-- Node3 -->
<g id="node3" class="node">
<title>Node3</title>
<g id="a_node3"><a xlink:href="interface_volume_control_1_1_audio_1_1_interfaces_1_1_i_targetable.html" target="_top" xlink:title="Base interface type for IDevice and IProcess/ISession.">
<polygon fill="none" stroke="black" points="90,-658.5 90,-715.5 161,-715.5 161,-658.5 90,-658.5"/>
<text text-anchor="middle" x="125.5" y="-703.5" font-family="Helvetica,sans-Serif" font-size="10.00">ITargetable</text>
<polyline fill="none" stroke="black" points="90,-696.5 161,-696.5 "/>
<text text-anchor="middle" x="125.5" y="-684.5" font-family="Helvetica,sans-Serif" font-size="10.00"> </text>
<polyline fill="none" stroke="black" points="90,-677.5 161,-677.5 "/>
<text text-anchor="middle" x="125.5" y="-665.5" font-family="Helvetica,sans-Serif" font-size="10.00"> </text>
</a>
</g>
</g>
<!-- Node3&#45;&gt;Node2 -->
<g id="edge2" class="edge">
<title>Node3&#45;&gt;Node2</title>
<path fill="none" stroke="midnightblue" d="M102,-649.75C95.98,-640.47 89.44,-630.38 83.19,-620.74"/>
<polygon fill="none" stroke="midnightblue" points="99.21,-651.88 107.58,-658.37 105.08,-648.07 99.21,-651.88"/>
</g>
<!-- Node3&#45;&gt;Node5 -->
<g id="edge6" class="edge">
<title>Node3&#45;&gt;Node5</title>
<path fill="none" stroke="midnightblue" d="M128.69,-648.12C132.26,-605.76 138.02,-537.27 141.79,-492.56"/>
<polygon fill="none" stroke="midnightblue" points="125.18,-648.03 127.83,-658.29 132.16,-648.62 125.18,-648.03"/>
</g>
<!-- Node4 -->
<g id="node4" class="node">
<title>Node4</title>
<g id="a_node4"><a xlink:title=" ">
<polygon fill="none" stroke="#bfbfbf" points="221,-658.5 221,-715.5 352,-715.5 352,-658.5 221,-658.5"/>
<text text-anchor="middle" x="286.5" y="-703.5" font-family="Helvetica,sans-Serif" font-size="10.00">IEquatable&lt; ISession &gt;</text>
<polyline fill="none" stroke="#bfbfbf" points="221,-696.5 352,-696.5 "/>
<text text-anchor="middle" x="286.5" y="-684.5" font-family="Helvetica,sans-Serif" font-size="10.00"> </text>
<polyline fill="none" stroke="#bfbfbf" points="221,-677.5 352,-677.5 "/>
<text text-anchor="middle" x="286.5" y="-665.5" font-family="Helvetica,sans-Serif" font-size="10.00"> </text>
</a>
</g>
</g>
<!-- Node4&#45;&gt;Node1 -->
<g id="edge12" class="edge">
<title>Node4&#45;&gt;Node1</title>
<path fill="none" stroke="midnightblue" d="M299.61,-648.93C302.49,-639.87 305.33,-630.15 307.5,-621 319.31,-571.13 337,-455.21 351.37,-354.53"/>
<polygon fill="none" stroke="midnightblue" points="296.28,-647.85 296.48,-658.44 302.93,-650.03 296.28,-647.85"/>
</g>
<!-- Node4&#45;&gt;Node2 -->
<g id="edge3" class="edge">
<title>Node4&#45;&gt;Node2</title>
<path fill="none" stroke="midnightblue" d="M218.78,-654.04C183.86,-637.56 141.84,-617.72 109.04,-602.24"/>
<polygon fill="none" stroke="midnightblue" points="217.42,-657.27 227.96,-658.37 220.41,-650.94 217.42,-657.27"/>
</g>
<!-- Node5&#45;&gt;Node1 -->
<g id="edge4" class="edge">
<title>Node5&#45;&gt;Node1</title>
<path fill="none" stroke="midnightblue" d="M190.37,-394.21C221.64,-357.78 264.1,-308.31 300.47,-265.93"/>
<polygon fill="none" stroke="midnightblue" points="187.34,-392.38 183.48,-402.25 192.65,-396.94 187.34,-392.38"/>
</g>
<!-- Node6 -->
<g id="node6" class="node">
<title>Node6</title>
<g id="a_node6"><a xlink:title=" ">
<polygon fill="none" stroke="#bfbfbf" points="166,-547 166,-604 299,-604 299,-547 166,-547"/>
<text text-anchor="middle" x="232.5" y="-592" font-family="Helvetica,sans-Serif" font-size="10.00">INotifyPropertyChanged</text>
<polyline fill="none" stroke="#bfbfbf" points="166,-585 299,-585 "/>
<text text-anchor="middle" x="232.5" y="-573" font-family="Helvetica,sans-Serif" font-size="10.00"> </text>
<polyline fill="none" stroke="#bfbfbf" points="166,-566 299,-566 "/>
<text text-anchor="middle" x="232.5" y="-554" font-family="Helvetica,sans-Serif" font-size="10.00"> </text>
</a>
</g>
</g>
<!-- Node6&#45;&gt;Node1 -->
<g id="edge8" class="edge">
<title>Node6&#45;&gt;Node1</title>
<path fill="none" stroke="midnightblue" d="M245.89,-537.42C261.12,-495.25 287.07,-423.37 311.78,-354.96"/>
<polygon fill="none" stroke="midnightblue" points="242.55,-536.37 242.44,-546.97 249.13,-538.75 242.55,-536.37"/>
</g>
<!-- Node6&#45;&gt;Node5 -->
<g id="edge7" class="edge">
<title>Node6&#45;&gt;Node5</title>
<path fill="none" stroke="midnightblue" d="M207.54,-538.35C197.76,-524.19 186.44,-507.8 176.17,-492.92"/>
<polygon fill="none" stroke="midnightblue" points="204.85,-540.61 213.41,-546.85 210.61,-536.63 204.85,-540.61"/>
</g>
<!-- Node7 -->
<g id="node7" class="node">
<title>Node7</title>
<g id="a_node7"><a xlink:title=" ">
<polygon fill="none" stroke="#bfbfbf" points="355.5,-419 355.5,-476 491.5,-476 491.5,-419 355.5,-419"/>
<text text-anchor="middle" x="423.5" y="-464" font-family="Helvetica,sans-Serif" font-size="10.00">INotifyPropertyChanging</text>
<polyline fill="none" stroke="#bfbfbf" points="355.5,-457 491.5,-457 "/>
<text text-anchor="middle" x="423.5" y="-445" font-family="Helvetica,sans-Serif" font-size="10.00"> </text>
<polyline fill="none" stroke="#bfbfbf" points="355.5,-438 491.5,-438 "/>
<text text-anchor="middle" x="423.5" y="-426" font-family="Helvetica,sans-Serif" font-size="10.00"> </text>
</a>
</g>
</g>
<!-- Node7&#45;&gt;Node1 -->
<g id="edge9" class="edge">
<title>Node7&#45;&gt;Node1</title>
<path fill="none" stroke="midnightblue" d="M416.76,-408.89C414.04,-393.68 410.68,-374.95 407.08,-354.8"/>
<polygon fill="none" stroke="midnightblue" points="413.34,-409.6 418.54,-418.83 420.23,-408.37 413.34,-409.6"/>
</g>
<!-- Node8 -->
<g id="node8" class="node">
<title>Node8</title>
<g id="a_node8"><a xlink:title=" ">
<polygon fill="none" stroke="#bfbfbf" points="509.5,-419 509.5,-476 583.5,-476 583.5,-419 509.5,-419"/>
<text text-anchor="middle" x="546.5" y="-464" font-family="Helvetica,sans-Serif" font-size="10.00">IDisposable</text>
<polyline fill="none" stroke="#bfbfbf" points="509.5,-457 583.5,-457 "/>
<text text-anchor="middle" x="546.5" y="-445" font-family="Helvetica,sans-Serif" font-size="10.00"> </text>
<polyline fill="none" stroke="#bfbfbf" points="509.5,-438 583.5,-438 "/>
<text text-anchor="middle" x="546.5" y="-426" font-family="Helvetica,sans-Serif" font-size="10.00"> </text>
</a>
</g>
</g>
<!-- Node8&#45;&gt;Node1 -->
<g id="edge10" class="edge">
<title>Node8&#45;&gt;Node1</title>
<path fill="none" stroke="midnightblue" d="M523.29,-410.13C504.46,-380.62 476.82,-337.29 450.52,-296.07"/>
<polygon fill="none" stroke="midnightblue" points="520.51,-412.28 528.84,-418.83 526.42,-408.52 520.51,-412.28"/>
</g>
<!-- Node9 -->
<g id="node9" class="node">
<title>Node9</title>
<g id="a_node9"><a xlink:title=" ">
<polygon fill="none" stroke="#bfbfbf" points="601.5,-419 601.5,-476 757.5,-476 757.5,-419 601.5,-419"/>
<text text-anchor="middle" x="679.5" y="-464" font-family="Helvetica,sans-Serif" font-size="10.00">IEquatable&lt; AudioSession &gt;</text>
<polyline fill="none" stroke="#bfbfbf" points="601.5,-457 757.5,-457 "/>
<text text-anchor="middle" x="679.5" y="-445" font-family="Helvetica,sans-Serif" font-size="10.00"> </text>
<polyline fill="none" stroke="#bfbfbf" points="601.5,-438 757.5,-438 "/>
<text text-anchor="middle" x="679.5" y="-426" font-family="Helvetica,sans-Serif" font-size="10.00"> </text>
</a>
</g>
</g>
<!-- Node9&#45;&gt;Node1 -->
<g id="edge11" class="edge">
<title>Node9&#45;&gt;Node1</title>
<path fill="none" stroke="midnightblue" d="M640.47,-412.09C592.74,-370.01 510.9,-297.87 450.77,-244.86"/>
<polygon fill="none" stroke="midnightblue" points="638.3,-414.84 648.11,-418.83 642.92,-409.59 638.3,-414.84"/>
</g>
<!-- Node10 -->
<g id="node10" class="node">
<title>Node10</title>
<g id="a_node10"><a xlink:title=" ">
<polygon fill="none" stroke="#bfbfbf" points="775.5,-419 775.5,-476 819.5,-476 819.5,-419 775.5,-419"/>
<text text-anchor="middle" x="797.5" y="-464" font-family="Helvetica,sans-Serif" font-size="10.00">static</text>
<polyline fill="none" stroke="#bfbfbf" points="775.5,-457 819.5,-457 "/>
<text text-anchor="middle" x="797.5" y="-445" font-family="Helvetica,sans-Serif" font-size="10.00"> </text>
<polyline fill="none" stroke="#bfbfbf" points="775.5,-438 819.5,-438 "/>
<text text-anchor="middle" x="797.5" y="-426" font-family="Helvetica,sans-Serif" font-size="10.00"> </text>
</a>
</g>
</g>
<!-- Node10&#45;&gt;Node1 -->
<g id="edge13" class="edge">
<title>Node10&#45;&gt;Node1</title>
<path fill="none" stroke="#404040" d="M780.91,-418.6C776.66,-412.71 771.78,-406.83 766.5,-402 674.7,-318.04 545.98,-252.11 461.68,-214.23"/>
<polygon fill="none" stroke="#404040" points="461.57,-214.18 454.46,-215.4 450.61,-209.3 457.72,-208.09 461.57,-214.18"/>
<text text-anchor="middle" x="751" y="-376" font-family="Helvetica,sans-Serif" font-size="10.00"> +int</text>
</g>
</g>
</svg>
