<?xml version="1.0" encoding="UTF-8" standalone="no"?>
<!DOCTYPE svg PUBLIC "-//W3C//DTD SVG 1.1//EN"
 "http://www.w3.org/Graphics/SVG/1.1/DTD/svg11.dtd">
<!-- Generated by graphviz version 2.43.0 (0)
 -->
<!-- Title: VolumeControl.Core.Input.HotkeyWithError Pages: 1 -->
<!--zoomable 755 -->
<svg id="main" version="1.1" xmlns="http://www.w3.org/2000/svg" xmlns:xlink="http://www.w3.org/1999/xlink" xml:space="preserve" onload="init(evt)">
<style type="text/css"><![CDATA[
.edge:hover path { stroke: red; }
.edge:hover polygon { stroke: red; fill: red; }
]]></style>
<script type="text/javascript"><![CDATA[
var edges = document.getElementsByTagName('g');
if (edges && edges.length) {
  for (var i=0;i<edges.length;i++) {
    if (edges[i].id.substr(0,4)=='edge') {
      edges[i].setAttribute('class','edge');
    }
  }
}
]]></script>
        <defs>
                <circle id="rim" cx="0" cy="0" r="7"/>
                <circle id="rim2" cx="0" cy="0" r="3.5"/>
                <g id="zoomPlus">
                        <use xlink:href="#rim" fill="#404040">
                                <set attributeName="fill" to="#808080" begin="zoomplus.mouseover" end="zoomplus.mouseout"/>
                        </use>
                        <path d="M-4,0h8M0,-4v8" fill="none" stroke="white" stroke-width="1.5" pointer-events="none"/>
                </g>
                <g id="zoomMin">
                        <use xlink:href="#rim" fill="#404040">
                                <set attributeName="fill" to="#808080" begin="zoomminus.mouseover" end="zoomminus.mouseout"/>
                        </use>
                        <path d="M-4,0h8" fill="none" stroke="white" stroke-width="1.5" pointer-events="none"/>
                </g>
                <g id="dirArrow">
                        <path fill="none" stroke="white" stroke-width="1.5" d="M0,-3.0v7 M-2.5,-0.5L0,-3.0L2.5,-0.5"/>
                </g>
               <g id="resetDef">
                       <use xlink:href="#rim2" fill="#404040">
                               <set attributeName="fill" to="#808080" begin="reset.mouseover" end="reset.mouseout"/>
                       </use>
               </g>
        </defs>

<script type="text/javascript">
var viewWidth = 375;
var viewHeight = 755;
var sectionId = 'dynsection-0';
</script>
<script xlink:href="svgpan.js"/>
<svg id="graph" class="graph">
<g id="viewport">
<title>VolumeControl.Core.Input.HotkeyWithError</title>
<!-- Node1 -->
<g id="node1" class="node">
<title>Node1</title>
<g id="a_node1"><a xlink:title="A Hotkey that also maintains an error state property.">
<polygon fill="#bfbfbf" stroke="black" points="140,-0.5 140,-112.5 285,-112.5 285,-0.5 140,-0.5"/>
<text text-anchor="start" x="148" y="-100.5" font-family="Helvetica,sans-Serif" font-size="10.00">VolumeControl.Core.Input.</text>
<text text-anchor="middle" x="212.5" y="-89.5" font-family="Helvetica,sans-Serif" font-size="10.00">HotkeyWithError</text>
<polyline fill="none" stroke="black" points="140,-82.5 285,-82.5 "/>
<text text-anchor="start" x="148" y="-70.5" font-family="Helvetica,sans-Serif" font-size="10.00">+ ErrorMessage</text>
<text text-anchor="start" x="148" y="-59.5" font-family="Helvetica,sans-Serif" font-size="10.00">+ HasError</text>
<polyline fill="none" stroke="black" points="140,-52.5 285,-52.5 "/>
<text text-anchor="start" x="148" y="-40.5" font-family="Helvetica,sans-Serif" font-size="10.00">+ HotkeyWithError()</text>
<text text-anchor="start" x="148" y="-29.5" font-family="Helvetica,sans-Serif" font-size="10.00">+ HotkeyWithError()</text>
<text text-anchor="start" x="148" y="-18.5" font-family="Helvetica,sans-Serif" font-size="10.00">+ HotkeyWithError()</text>
<text text-anchor="start" x="148" y="-7.5" font-family="Helvetica,sans-Serif" font-size="10.00">+ HotkeyWithError()</text>
</a>
</g>
</g>
<!-- Node2 -->
<g id="node2" class="node">
<title>Node2</title>
<g id="a_node2"><a xlink:href="class_volume_control_1_1_core_1_1_input_1_1_hotkey.html" target="_top" xlink:title="A hotkey that executes an action when pressed.">
<polygon fill="none" stroke="black" points="138,-149.5 138,-448.5 287,-448.5 287,-149.5 138,-149.5"/>
<text text-anchor="middle" x="212.5" y="-436.5" font-family="Helvetica,sans-Serif" font-size="10.00">Hotkey</text>
<polyline fill="none" stroke="black" points="138,-429.5 287,-429.5 "/>
<text text-anchor="start" x="146" y="-417.5" font-family="Helvetica,sans-Serif" font-size="10.00">+ ID</text>
<text text-anchor="start" x="146" y="-406.5" font-family="Helvetica,sans-Serif" font-size="10.00">+ Name</text>
<text text-anchor="start" x="146" y="-395.5" font-family="Helvetica,sans-Serif" font-size="10.00">+ Key</text>
<text text-anchor="start" x="146" y="-384.5" font-family="Helvetica,sans-Serif" font-size="10.00">+ Modifiers</text>
<text text-anchor="start" x="146" y="-373.5" font-family="Helvetica,sans-Serif" font-size="10.00">+ Alt</text>
<text text-anchor="start" x="146" y="-362.5" font-family="Helvetica,sans-Serif" font-size="10.00">+ Shift</text>
<text text-anchor="start" x="146" y="-351.5" font-family="Helvetica,sans-Serif" font-size="10.00">+ Ctrl</text>
<text text-anchor="start" x="146" y="-340.5" font-family="Helvetica,sans-Serif" font-size="10.00">+ Win</text>
<text text-anchor="start" x="146" y="-329.5" font-family="Helvetica,sans-Serif" font-size="10.00">+ NoRepeat</text>
<text text-anchor="start" x="146" y="-318.5" font-family="Helvetica,sans-Serif" font-size="10.00">+ MessageHook</text>
<text text-anchor="start" x="146" y="-307.5" font-family="Helvetica,sans-Serif" font-size="10.00">+ IsRegistered</text>
<text text-anchor="start" x="146" y="-296.5" font-family="Helvetica,sans-Serif" font-size="10.00">+ Action</text>
<polyline fill="none" stroke="black" points="138,-289.5 287,-289.5 "/>
<text text-anchor="start" x="146" y="-277.5" font-family="Helvetica,sans-Serif" font-size="10.00">+ Hotkey()</text>
<text text-anchor="start" x="146" y="-266.5" font-family="Helvetica,sans-Serif" font-size="10.00">+ Hotkey()</text>
<text text-anchor="start" x="146" y="-255.5" font-family="Helvetica,sans-Serif" font-size="10.00">+ Hotkey()</text>
<text text-anchor="start" x="146" y="-244.5" font-family="Helvetica,sans-Serif" font-size="10.00">+ Hotkey()</text>
<text text-anchor="start" x="146" y="-233.5" font-family="Helvetica,sans-Serif" font-size="10.00">+ GetNewID()</text>
<text text-anchor="start" x="146" y="-222.5" font-family="Helvetica,sans-Serif" font-size="10.00">+ Dispose()</text>
<text text-anchor="start" x="146" y="-211.5" font-family="Helvetica,sans-Serif" font-size="10.00">~ NotifyPressed()</text>
<text text-anchor="start" x="146" y="-200.5" font-family="Helvetica,sans-Serif" font-size="10.00">~ NotifyRegistered()</text>
<text text-anchor="start" x="146" y="-189.5" font-family="Helvetica,sans-Serif" font-size="10.00">~ NotifyUnregistered()</text>
<text text-anchor="start" x="146" y="-178.5" font-family="Helvetica,sans-Serif" font-size="10.00"># NotifyPropertyChanged()</text>
<text text-anchor="start" x="146" y="-167.5" font-family="Helvetica,sans-Serif" font-size="10.00"># RegisterHotkey()</text>
<text text-anchor="start" x="146" y="-156.5" font-family="Helvetica,sans-Serif" font-size="10.00"># UnregisterHotkey()</text>
</a>
</g>
</g>
<!-- Node2&#45;&gt;Node1 -->
<g id="edge1" class="edge">
<title>Node2&#45;&gt;Node1</title>
<path fill="none" stroke="midnightblue" d="M212.5,-139.27C212.5,-130 212.5,-121.07 212.5,-112.74"/>
<polygon fill="none" stroke="midnightblue" points="209,-139.45 212.5,-149.45 216,-139.45 209,-139.45"/>
</g>
<!-- Node3 -->
<g id="node3" class="node">
<title>Node3</title>
<g id="a_node3"><a xlink:href="interface_volume_control_1_1_core_1_1_input_1_1_i_hotkey.html" target="_top" xlink:title="Represents a Win32 global hotkey.">
<polygon fill="none" stroke="black" points="168,-485.5 168,-652.5 257,-652.5 257,-485.5 168,-485.5"/>
<text text-anchor="middle" x="212.5" y="-640.5" font-family="Helvetica,sans-Serif" font-size="10.00">IHotkey</text>
<polyline fill="none" stroke="black" points="168,-633.5 257,-633.5 "/>
<text text-anchor="start" x="176" y="-621.5" font-family="Helvetica,sans-Serif" font-size="10.00">+ Name</text>
<text text-anchor="start" x="176" y="-610.5" font-family="Helvetica,sans-Serif" font-size="10.00">+ ID</text>
<text text-anchor="start" x="176" y="-599.5" font-family="Helvetica,sans-Serif" font-size="10.00">+ Key</text>
<text text-anchor="start" x="176" y="-588.5" font-family="Helvetica,sans-Serif" font-size="10.00">+ Modifiers</text>
<text text-anchor="start" x="176" y="-577.5" font-family="Helvetica,sans-Serif" font-size="10.00">+ Alt</text>
<text text-anchor="start" x="176" y="-566.5" font-family="Helvetica,sans-Serif" font-size="10.00">+ Shift</text>
<text text-anchor="start" x="176" y="-555.5" font-family="Helvetica,sans-Serif" font-size="10.00">+ Ctrl</text>
<text text-anchor="start" x="176" y="-544.5" font-family="Helvetica,sans-Serif" font-size="10.00">+ Win</text>
<text text-anchor="start" x="176" y="-533.5" font-family="Helvetica,sans-Serif" font-size="10.00">+ NoRepeat</text>
<text text-anchor="start" x="176" y="-522.5" font-family="Helvetica,sans-Serif" font-size="10.00">+ IsRegistered</text>
<text text-anchor="start" x="176" y="-511.5" font-family="Helvetica,sans-Serif" font-size="10.00">+ Action</text>
<polyline fill="none" stroke="black" points="168,-504.5 257,-504.5 "/>
<text text-anchor="middle" x="212.5" y="-492.5" font-family="Helvetica,sans-Serif" font-size="10.00"> </text>
</a>
</g>
</g>
<!-- Node3&#45;&gt;Node2 -->
<g id="edge2" class="edge">
<title>Node3&#45;&gt;Node2</title>
<path fill="none" stroke="midnightblue" d="M212.5,-475.12C212.5,-466.59 212.5,-457.8 212.5,-448.93"/>
<polygon fill="none" stroke="midnightblue" points="209,-475.4 212.5,-485.4 216,-475.4 209,-475.4"/>
</g>
<!-- Node4 -->
<g id="node4" class="node">
<title>Node4</title>
<g id="a_node4"><a xlink:href="interface_volume_control_1_1_core_1_1_input_1_1_i_hotkey_message_hook.html" target="_top" xlink:title="Represents an object that can be added to the hotkey message hook system.">
<polygon fill="none" stroke="black" points="151,-689.5 151,-746.5 274,-746.5 274,-689.5 151,-689.5"/>
<text text-anchor="middle" x="212.5" y="-734.5" font-family="Helvetica,sans-Serif" font-size="10.00">IHotkeyMessageHook</text>
<polyline fill="none" stroke="black" points="151,-727.5 274,-727.5 "/>
<text text-anchor="start" x="159" y="-715.5" font-family="Helvetica,sans-Serif" font-size="10.00">+ MessageHook</text>
<polyline fill="none" stroke="black" points="151,-708.5 274,-708.5 "/>
<text text-anchor="middle" x="212.5" y="-696.5" font-family="Helvetica,sans-Serif" font-size="10.00"> </text>
</a>
</g>
</g>
<!-- Node4&#45;&gt;Node3 -->
<g id="edge3" class="edge">
<title>Node4&#45;&gt;Node3</title>
<path fill="none" stroke="midnightblue" d="M212.5,-679.35C212.5,-671.08 212.5,-662.01 212.5,-652.74"/>
<polygon fill="none" stroke="midnightblue" points="209,-679.35 212.5,-689.35 216,-679.35 209,-679.35"/>
</g>
<!-- Node5 -->
<g id="node5" class="node">
<title>Node5</title>
<g id="a_node5"><a xlink:title=" ">
<polygon fill="none" stroke="#bfbfbf" points="0,-689.5 0,-746.5 133,-746.5 133,-689.5 0,-689.5"/>
<text text-anchor="middle" x="66.5" y="-734.5" font-family="Helvetica,sans-Serif" font-size="10.00">INotifyPropertyChanged</text>
<polyline fill="none" stroke="#bfbfbf" points="0,-727.5 133,-727.5 "/>
<text text-anchor="middle" x="66.5" y="-715.5" font-family="Helvetica,sans-Serif" font-size="10.00"> </text>
<polyline fill="none" stroke="#bfbfbf" points="0,-708.5 133,-708.5 "/>
<text text-anchor="middle" x="66.5" y="-696.5" font-family="Helvetica,sans-Serif" font-size="10.00"> </text>
</a>
</g>
</g>
<!-- Node5&#45;&gt;Node2 -->
<g id="edge6" class="edge">
<title>Node5&#45;&gt;Node2</title>
<path fill="none" stroke="midnightblue" d="M79.6,-679.58C97.72,-627.84 131.47,-531.45 160.42,-448.76"/>
<polygon fill="none" stroke="midnightblue" points="76.19,-678.72 76.19,-689.32 82.8,-681.03 76.19,-678.72"/>
</g>
<!-- Node5&#45;&gt;Node3 -->
<g id="edge4" class="edge">
<title>Node5&#45;&gt;Node3</title>
<path fill="none" stroke="midnightblue" d="M101.07,-682.19C121.07,-662.05 146.46,-636.5 167.95,-614.86"/>
<polygon fill="none" stroke="midnightblue" points="98.53,-679.79 93.96,-689.35 103.49,-684.72 98.53,-679.79"/>
</g>
<!-- Node6 -->
<g id="node6" class="node">
<title>Node6</title>
<g id="a_node6"><a xlink:title=" ">
<polygon fill="none" stroke="#bfbfbf" points="292.5,-689.5 292.5,-746.5 366.5,-746.5 366.5,-689.5 292.5,-689.5"/>
<text text-anchor="middle" x="329.5" y="-734.5" font-family="Helvetica,sans-Serif" font-size="10.00">IDisposable</text>
<polyline fill="none" stroke="#bfbfbf" points="292.5,-727.5 366.5,-727.5 "/>
<text text-anchor="middle" x="329.5" y="-715.5" font-family="Helvetica,sans-Serif" font-size="10.00"> </text>
<polyline fill="none" stroke="#bfbfbf" points="292.5,-708.5 366.5,-708.5 "/>
<text text-anchor="middle" x="329.5" y="-696.5" font-family="Helvetica,sans-Serif" font-size="10.00"> </text>
</a>
</g>
</g>
<!-- Node6&#45;&gt;Node2 -->
<g id="edge7" class="edge">
<title>Node6&#45;&gt;Node2</title>
<path fill="none" stroke="midnightblue" d="M319.33,-679.68C306.79,-633.81 284.79,-553.62 265.5,-485 262.18,-473.18 258.72,-460.94 255.22,-448.65"/>
<polygon fill="none" stroke="midnightblue" points="315.99,-680.75 322,-689.48 322.74,-678.91 315.99,-680.75"/>
</g>
<!-- Node6&#45;&gt;Node3 -->
<g id="edge5" class="edge">
<title>Node6&#45;&gt;Node3</title>
<path fill="none" stroke="midnightblue" d="M301.25,-681.51C288.04,-664.91 271.99,-644.74 257.18,-626.14"/>
<polygon fill="none" stroke="midnightblue" points="298.53,-683.71 307.49,-689.35 304,-679.35 298.53,-683.71"/>
</g>
</g>
</svg>
        <g id="navigator" transform="translate(0 0)" fill="#404254">
                <rect fill="#f2f5e9" fill-opacity="0.5" stroke="#606060" stroke-width=".5" x="0" y="0" width="60" height="60"/>
                <use id="zoomplus" xlink:href="#zoomPlus" x="17" y="9" onmousedown="handleZoom(evt,'in')"/>
                <use id="zoomminus" xlink:href="#zoomMin" x="42" y="9" onmousedown="handleZoom(evt,'out')"/>
                <use id="reset" xlink:href="#resetDef" x="30" y="36" onmousedown="handleReset()"/>
                <g id="arrowUp" xlink:href="#dirArrow" transform="translate(30 24)" onmousedown="handlePan(0,-1)">
                  <use xlink:href="#rim" fill="#404040">
                        <set attributeName="fill" to="#808080" begin="arrowUp.mouseover" end="arrowUp.mouseout"/>
                  </use>
                  <path fill="none" stroke="white" stroke-width="1.5" d="M0,-3.0v7 M-2.5,-0.5L0,-3.0L2.5,-0.5"/>
                </g>
                <g id="arrowRight" xlink:href="#dirArrow" transform="rotate(90) translate(36 -43)" onmousedown="handlePan(1,0)">
                  <use xlink:href="#rim" fill="#404040">
                        <set attributeName="fill" to="#808080" begin="arrowRight.mouseover" end="arrowRight.mouseout"/>
                  </use>
                  <path fill="none" stroke="white" stroke-width="1.5" d="M0,-3.0v7 M-2.5,-0.5L0,-3.0L2.5,-0.5"/>
                </g>
                <g id="arrowDown" xlink:href="#dirArrow" transform="rotate(180) translate(-30 -48)" onmousedown="handlePan(0,1)">
                  <use xlink:href="#rim" fill="#404040">
                        <set attributeName="fill" to="#808080" begin="arrowDown.mouseover" end="arrowDown.mouseout"/>
                  </use>
                  <path fill="none" stroke="white" stroke-width="1.5" d="M0,-3.0v7 M-2.5,-0.5L0,-3.0L2.5,-0.5"/>
                </g>
                <g id="arrowLeft" xlink:href="#dirArrow" transform="rotate(270) translate(-36 17)" onmousedown="handlePan(-1,0)">
                  <use xlink:href="#rim" fill="#404040">
                        <set attributeName="fill" to="#808080" begin="arrowLeft.mouseover" end="arrowLeft.mouseout"/>
                  </use>
                  <path fill="none" stroke="white" stroke-width="1.5" d="M0,-3.0v7 M-2.5,-0.5L0,-3.0L2.5,-0.5"/>
                </g>
        </g>
        <svg viewBox="0 0 15 15" width="100%" height="30px" preserveAspectRatio="xMaxYMin meet">
         <g id="arrow_out" transform="scale(0.3 0.3)">
          <a xlink:href="class_volume_control_1_1_core_1_1_input_1_1_hotkey_with_error__inherit__graph_org.svg" target="_base">
           <rect id="button" ry="5" rx="5" y="6" x="6" height="38" width="38"
                fill="#f2f5e9" fill-opacity="0.5" stroke="#606060" stroke-width="1.0"/>
           <path id="arrow"
             d="M 11.500037,31.436501 C 11.940474,20.09759 22.043105,11.32322 32.158766,21.979434 L 37.068811,17.246167 C 37.068811,17.246167 37.088388,32 37.088388,32 L 22.160133,31.978069 C 22.160133,31.978069 26.997745,27.140456 26.997745,27.140456 C 18.528582,18.264221 13.291696,25.230495 11.500037,31.436501 z"
             style="fill:#404040;"/>
          </a>
         </g>
        </svg>
</svg>
