<?xml version="1.0" encoding="UTF-8" standalone="no"?>
<!DOCTYPE svg PUBLIC "-//W3C//DTD SVG 1.1//EN"
 "http://www.w3.org/Graphics/SVG/1.1/DTD/svg11.dtd">
<!-- Generated by graphviz version 2.43.0 (0)
 -->
<!-- Title: VolumeControl.Audio.AudioAPI Pages: 1 -->
<svg width="388pt" height="380pt"
 viewBox="0.00 0.00 387.50 380.00" xmlns="http://www.w3.org/2000/svg" xmlns:xlink="http://www.w3.org/1999/xlink">
<g id="graph0" class="graph" transform="scale(1 1) rotate(0) translate(4 376)">
<title>VolumeControl.Audio.AudioAPI</title>
<!-- Node1 -->
<g id="node1" class="node">
<title>Node1</title>
<g id="a_node1"><a xlink:title="Contains methods related to audio devices, sessions, and the underlying selection mechanics responsib...">
<polygon fill="#bfbfbf" stroke="black" points="118.5,-0.5 118.5,-277.5 320.5,-277.5 320.5,-0.5 118.5,-0.5"/>
<text text-anchor="middle" x="219.5" y="-265.5" font-family="Helvetica,sans-Serif" font-size="10.00">VolumeControl.Audio.AudioAPI</text>
<polyline fill="none" stroke="black" points="118.5,-258.5 320.5,-258.5 "/>
<text text-anchor="start" x="126.5" y="-246.5" font-family="Helvetica,sans-Serif" font-size="10.00">+ Settings</text>
<text text-anchor="start" x="126.5" y="-235.5" font-family="Helvetica,sans-Serif" font-size="10.00">+ Log</text>
<text text-anchor="start" x="126.5" y="-224.5" font-family="Helvetica,sans-Serif" font-size="10.00">+ Devices</text>
<text text-anchor="start" x="126.5" y="-213.5" font-family="Helvetica,sans-Serif" font-size="10.00">+ DefaultDevice</text>
<text text-anchor="start" x="126.5" y="-202.5" font-family="Helvetica,sans-Serif" font-size="10.00">+ LockSelectedSession</text>
<text text-anchor="start" x="126.5" y="-191.5" font-family="Helvetica,sans-Serif" font-size="10.00">+ Target</text>
<text text-anchor="start" x="126.5" y="-180.5" font-family="Helvetica,sans-Serif" font-size="10.00">+ TargetGuid</text>
<text text-anchor="start" x="126.5" y="-169.5" font-family="Helvetica,sans-Serif" font-size="10.00">+ VolumeStepSize</text>
<text text-anchor="start" x="126.5" y="-158.5" font-family="Helvetica,sans-Serif" font-size="10.00">+ SelectedSession</text>
<text text-anchor="start" x="126.5" y="-147.5" font-family="Helvetica,sans-Serif" font-size="10.00">+ Sessions</text>
<polyline fill="none" stroke="black" points="118.5,-140.5 320.5,-140.5 "/>
<text text-anchor="start" x="126.5" y="-128.5" font-family="Helvetica,sans-Serif" font-size="10.00">+ AudioAPI()</text>
<text text-anchor="start" x="126.5" y="-117.5" font-family="Helvetica,sans-Serif" font-size="10.00">+ SaveEnabledDevices()</text>
<text text-anchor="start" x="126.5" y="-106.5" font-family="Helvetica,sans-Serif" font-size="10.00">+ ForceReloadAudioDevices()</text>
<text text-anchor="start" x="126.5" y="-95.5" font-family="Helvetica,sans-Serif" font-size="10.00">+ FindDevice()</text>
<text text-anchor="start" x="126.5" y="-84.5" font-family="Helvetica,sans-Serif" font-size="10.00">+ FindDeviceWithID()</text>
<text text-anchor="start" x="126.5" y="-73.5" font-family="Helvetica,sans-Serif" font-size="10.00">+ ForceReloadSessionList()</text>
<text text-anchor="start" x="126.5" y="-62.5" font-family="Helvetica,sans-Serif" font-size="10.00">+ FindSession()</text>
<text text-anchor="start" x="126.5" y="-51.5" font-family="Helvetica,sans-Serif" font-size="10.00">+ FindSessionWithSessionInstance</text>
<text text-anchor="start" x="126.5" y="-40.5" font-family="Helvetica,sans-Serif" font-size="10.00">Identifier()</text>
<text text-anchor="start" x="126.5" y="-29.5" font-family="Helvetica,sans-Serif" font-size="10.00">+ FindSessionsWithSessionIdentifier()</text>
<text text-anchor="start" x="126.5" y="-18.5" font-family="Helvetica,sans-Serif" font-size="10.00">+ FindSessionWithID()</text>
<text text-anchor="start" x="126.5" y="-7.5" font-family="Helvetica,sans-Serif" font-size="10.00">and 16 more...</text>
</a>
</g>
</g>
<!-- Node2 -->
<g id="node2" class="node">
<title>Node2</title>
<g id="a_node2"><a xlink:title=" ">
<polygon fill="none" stroke="#bfbfbf" points="0,-314.5 0,-371.5 133,-371.5 133,-314.5 0,-314.5"/>
<text text-anchor="middle" x="66.5" y="-359.5" font-family="Helvetica,sans-Serif" font-size="10.00">INotifyPropertyChanged</text>
<polyline fill="none" stroke="#bfbfbf" points="0,-352.5 133,-352.5 "/>
<text text-anchor="middle" x="66.5" y="-340.5" font-family="Helvetica,sans-Serif" font-size="10.00"> </text>
<polyline fill="none" stroke="#bfbfbf" points="0,-333.5 133,-333.5 "/>
<text text-anchor="middle" x="66.5" y="-321.5" font-family="Helvetica,sans-Serif" font-size="10.00"> </text>
</a>
</g>
</g>
<!-- Node2&#45;&gt;Node1 -->
<g id="edge1" class="edge">
<title>Node2&#45;&gt;Node1</title>
<path fill="none" stroke="midnightblue" d="M93.65,-306.15C101.04,-296.4 109.5,-285.23 118.45,-273.41"/>
<polygon fill="none" stroke="midnightblue" points="90.7,-304.25 87.45,-314.34 96.28,-308.48 90.7,-304.25"/>
</g>
<!-- Node3 -->
<g id="node3" class="node">
<title>Node3</title>
<g id="a_node3"><a xlink:title=" ">
<polygon fill="none" stroke="#bfbfbf" points="151.5,-314.5 151.5,-371.5 287.5,-371.5 287.5,-314.5 151.5,-314.5"/>
<text text-anchor="middle" x="219.5" y="-359.5" font-family="Helvetica,sans-Serif" font-size="10.00">INotifyPropertyChanging</text>
<polyline fill="none" stroke="#bfbfbf" points="151.5,-352.5 287.5,-352.5 "/>
<text text-anchor="middle" x="219.5" y="-340.5" font-family="Helvetica,sans-Serif" font-size="10.00"> </text>
<polyline fill="none" stroke="#bfbfbf" points="151.5,-333.5 287.5,-333.5 "/>
<text text-anchor="middle" x="219.5" y="-321.5" font-family="Helvetica,sans-Serif" font-size="10.00"> </text>
</a>
</g>
</g>
<!-- Node3&#45;&gt;Node1 -->
<g id="edge2" class="edge">
<title>Node3&#45;&gt;Node1</title>
<path fill="none" stroke="midnightblue" d="M219.5,-304.27C219.5,-296.18 219.5,-287.19 219.5,-277.7"/>
<polygon fill="none" stroke="midnightblue" points="216,-304.34 219.5,-314.34 223,-304.34 216,-304.34"/>
</g>
<!-- Node4 -->
<g id="node4" class="node">
<title>Node4</title>
<g id="a_node4"><a xlink:title=" ">
<polygon fill="none" stroke="#bfbfbf" points="305.5,-314.5 305.5,-371.5 379.5,-371.5 379.5,-314.5 305.5,-314.5"/>
<text text-anchor="middle" x="342.5" y="-359.5" font-family="Helvetica,sans-Serif" font-size="10.00">IDisposable</text>
<polyline fill="none" stroke="#bfbfbf" points="305.5,-352.5 379.5,-352.5 "/>
<text text-anchor="middle" x="342.5" y="-340.5" font-family="Helvetica,sans-Serif" font-size="10.00"> </text>
<polyline fill="none" stroke="#bfbfbf" points="305.5,-333.5 379.5,-333.5 "/>
<text text-anchor="middle" x="342.5" y="-321.5" font-family="Helvetica,sans-Serif" font-size="10.00"> </text>
</a>
</g>
</g>
<!-- Node4&#45;&gt;Node1 -->
<g id="edge3" class="edge">
<title>Node4&#45;&gt;Node1</title>
<path fill="none" stroke="midnightblue" d="M320.35,-305.62C315.21,-297.19 309.45,-287.73 303.35,-277.7"/>
<polygon fill="none" stroke="midnightblue" points="317.47,-307.62 325.66,-314.34 323.44,-303.97 317.47,-307.62"/>
</g>
</g>
</svg>
