<?xml version="1.0" encoding="UTF-8" standalone="no"?>
<!DOCTYPE svg PUBLIC "-//W3C//DTD SVG 1.1//EN"
 "http://www.w3.org/Graphics/SVG/1.1/DTD/svg11.dtd">
<!-- Generated by graphviz version 2.43.0 (0)
 -->
<!-- Title: VolumeControl.Audio.AudioAPI Pages: 1 -->
<svg width="388pt" height="369pt"
 viewBox="0.00 0.00 387.50 369.00" xmlns="http://www.w3.org/2000/svg" xmlns:xlink="http://www.w3.org/1999/xlink">
<g id="graph0" class="graph" transform="scale(1 1) rotate(0) translate(4 365)">
<title>VolumeControl.Audio.AudioAPI</title>
<!-- Node1 -->
<g id="node1" class="node">
<title>Node1</title>
<g id="a_node1"><a xlink:title="Contains methods related to audio devices, sessions, and the underlying selection mechanics responsib...">
<polygon fill="#bfbfbf" stroke="black" points="136.5,-0.5 136.5,-266.5 302.5,-266.5 302.5,-0.5 136.5,-0.5"/>
<text text-anchor="middle" x="219.5" y="-254.5" font-family="Helvetica,sans-Serif" font-size="10.00">VolumeControl.Audio.AudioAPI</text>
<polyline fill="none" stroke="black" points="136.5,-247.5 302.5,-247.5 "/>
<text text-anchor="start" x="144.5" y="-235.5" font-family="Helvetica,sans-Serif" font-size="10.00">+ Settings</text>
<text text-anchor="start" x="144.5" y="-224.5" font-family="Helvetica,sans-Serif" font-size="10.00">+ Log</text>
<text text-anchor="start" x="144.5" y="-213.5" font-family="Helvetica,sans-Serif" font-size="10.00">+ Devices</text>
<text text-anchor="start" x="144.5" y="-202.5" font-family="Helvetica,sans-Serif" font-size="10.00">+ DefaultDevice</text>
<text text-anchor="start" x="144.5" y="-191.5" font-family="Helvetica,sans-Serif" font-size="10.00">+ LockSelectedSession</text>
<text text-anchor="start" x="144.5" y="-180.5" font-family="Helvetica,sans-Serif" font-size="10.00">+ Target</text>
<text text-anchor="start" x="144.5" y="-169.5" font-family="Helvetica,sans-Serif" font-size="10.00">+ TargetGuid</text>
<text text-anchor="start" x="144.5" y="-158.5" font-family="Helvetica,sans-Serif" font-size="10.00">+ VolumeStepSize</text>
<text text-anchor="start" x="144.5" y="-147.5" font-family="Helvetica,sans-Serif" font-size="10.00">+ SelectedSession</text>
<text text-anchor="start" x="144.5" y="-136.5" font-family="Helvetica,sans-Serif" font-size="10.00">+ Sessions</text>
<polyline fill="none" stroke="black" points="136.5,-129.5 302.5,-129.5 "/>
<text text-anchor="start" x="144.5" y="-117.5" font-family="Helvetica,sans-Serif" font-size="10.00">+ AudioAPI()</text>
<text text-anchor="start" x="144.5" y="-106.5" font-family="Helvetica,sans-Serif" font-size="10.00">+ SaveEnabledDevices()</text>
<text text-anchor="start" x="144.5" y="-95.5" font-family="Helvetica,sans-Serif" font-size="10.00">+ ForceReloadAudioDevices()</text>
<text text-anchor="start" x="144.5" y="-84.5" font-family="Helvetica,sans-Serif" font-size="10.00">+ FindDevice()</text>
<text text-anchor="start" x="144.5" y="-73.5" font-family="Helvetica,sans-Serif" font-size="10.00">+ FindDeviceWithID()</text>
<text text-anchor="start" x="144.5" y="-62.5" font-family="Helvetica,sans-Serif" font-size="10.00">+ ForceReloadSessionList()</text>
<text text-anchor="start" x="144.5" y="-51.5" font-family="Helvetica,sans-Serif" font-size="10.00">+ FindSession()</text>
<text text-anchor="start" x="144.5" y="-40.5" font-family="Helvetica,sans-Serif" font-size="10.00">+ FindSession()</text>
<text text-anchor="start" x="144.5" y="-29.5" font-family="Helvetica,sans-Serif" font-size="10.00">+ FindSession()</text>
<text text-anchor="start" x="144.5" y="-18.5" font-family="Helvetica,sans-Serif" font-size="10.00">+ FindSessions()</text>
<text text-anchor="start" x="144.5" y="-7.5" font-family="Helvetica,sans-Serif" font-size="10.00">and 20 more...</text>
</a>
</g>
</g>
<!-- Node2 -->
<g id="node2" class="node">
<title>Node2</title>
<g id="a_node2"><a xlink:title=" ">
<polygon fill="none" stroke="#bfbfbf" points="0,-303.5 0,-360.5 133,-360.5 133,-303.5 0,-303.5"/>
<text text-anchor="middle" x="66.5" y="-348.5" font-family="Helvetica,sans-Serif" font-size="10.00">INotifyPropertyChanged</text>
<polyline fill="none" stroke="#bfbfbf" points="0,-341.5 133,-341.5 "/>
<text text-anchor="middle" x="66.5" y="-329.5" font-family="Helvetica,sans-Serif" font-size="10.00"> </text>
<polyline fill="none" stroke="#bfbfbf" points="0,-322.5 133,-322.5 "/>
<text text-anchor="middle" x="66.5" y="-310.5" font-family="Helvetica,sans-Serif" font-size="10.00"> </text>
</a>
</g>
</g>
<!-- Node2&#45;&gt;Node1 -->
<g id="edge1" class="edge">
<title>Node2&#45;&gt;Node1</title>
<path fill="none" stroke="midnightblue" d="M94.47,-295.08C106.47,-279.67 121.18,-260.78 136.24,-241.43"/>
<polygon fill="none" stroke="midnightblue" points="91.48,-293.22 88.1,-303.26 97,-297.52 91.48,-293.22"/>
</g>
<!-- Node3 -->
<g id="node3" class="node">
<title>Node3</title>
<g id="a_node3"><a xlink:title=" ">
<polygon fill="none" stroke="#bfbfbf" points="151.5,-303.5 151.5,-360.5 287.5,-360.5 287.5,-303.5 151.5,-303.5"/>
<text text-anchor="middle" x="219.5" y="-348.5" font-family="Helvetica,sans-Serif" font-size="10.00">INotifyPropertyChanging</text>
<polyline fill="none" stroke="#bfbfbf" points="151.5,-341.5 287.5,-341.5 "/>
<text text-anchor="middle" x="219.5" y="-329.5" font-family="Helvetica,sans-Serif" font-size="10.00"> </text>
<polyline fill="none" stroke="#bfbfbf" points="151.5,-322.5 287.5,-322.5 "/>
<text text-anchor="middle" x="219.5" y="-310.5" font-family="Helvetica,sans-Serif" font-size="10.00"> </text>
</a>
</g>
</g>
<!-- Node3&#45;&gt;Node1 -->
<g id="edge2" class="edge">
<title>Node3&#45;&gt;Node1</title>
<path fill="none" stroke="midnightblue" d="M219.5,-293.2C219.5,-285.14 219.5,-276.18 219.5,-266.75"/>
<polygon fill="none" stroke="midnightblue" points="216,-293.26 219.5,-303.26 223,-293.26 216,-293.26"/>
</g>
<!-- Node4 -->
<g id="node4" class="node">
<title>Node4</title>
<g id="a_node4"><a xlink:title=" ">
<polygon fill="none" stroke="#bfbfbf" points="305.5,-303.5 305.5,-360.5 379.5,-360.5 379.5,-303.5 305.5,-303.5"/>
<text text-anchor="middle" x="342.5" y="-348.5" font-family="Helvetica,sans-Serif" font-size="10.00">IDisposable</text>
<polyline fill="none" stroke="#bfbfbf" points="305.5,-341.5 379.5,-341.5 "/>
<text text-anchor="middle" x="342.5" y="-329.5" font-family="Helvetica,sans-Serif" font-size="10.00"> </text>
<polyline fill="none" stroke="#bfbfbf" points="305.5,-322.5 379.5,-322.5 "/>
<text text-anchor="middle" x="342.5" y="-310.5" font-family="Helvetica,sans-Serif" font-size="10.00"> </text>
</a>
</g>
</g>
<!-- Node4&#45;&gt;Node1 -->
<g id="edge3" class="edge">
<title>Node4&#45;&gt;Node1</title>
<path fill="none" stroke="midnightblue" d="M319.69,-294.56C314.42,-286.14 308.52,-276.71 302.28,-266.75"/>
<polygon fill="none" stroke="midnightblue" points="316.87,-296.64 325.14,-303.26 322.8,-292.93 316.87,-296.64"/>
</g>
</g>
</svg>
