<?xml version="1.0" encoding="UTF-8" standalone="no"?>
<!DOCTYPE svg PUBLIC "-//W3C//DTD SVG 1.1//EN"
 "http://www.w3.org/Graphics/SVG/1.1/DTD/svg11.dtd">
<!-- Generated by graphviz version 2.43.0 (0)
 -->
<!-- Title: VolumeControl.Log.LogWriter.Error Pages: 1 -->
<!--zoomable 258 -->
<svg id="main" version="1.1" xmlns="http://www.w3.org/2000/svg" xmlns:xlink="http://www.w3.org/1999/xlink" xml:space="preserve" onload="init(evt)">
<style type="text/css"><![CDATA[
.edge:hover path { stroke: red; }
.edge:hover polygon { stroke: red; fill: red; }
]]></style>
<script type="text/javascript"><![CDATA[
var edges = document.getElementsByTagName('g');
if (edges && edges.length) {
  for (var i=0;i<edges.length;i++) {
    if (edges[i].id.substr(0,4)=='edge') {
      edges[i].setAttribute('class','edge');
    }
  }
}
]]></script>
        <defs>
                <circle id="rim" cx="0" cy="0" r="7"/>
                <circle id="rim2" cx="0" cy="0" r="3.5"/>
                <g id="zoomPlus">
                        <use xlink:href="#rim" fill="#404040">
                                <set attributeName="fill" to="#808080" begin="zoomplus.mouseover" end="zoomplus.mouseout"/>
                        </use>
                        <path d="M-4,0h8M0,-4v8" fill="none" stroke="white" stroke-width="1.5" pointer-events="none"/>
                </g>
                <g id="zoomMin">
                        <use xlink:href="#rim" fill="#404040">
                                <set attributeName="fill" to="#808080" begin="zoomminus.mouseover" end="zoomminus.mouseout"/>
                        </use>
                        <path d="M-4,0h8" fill="none" stroke="white" stroke-width="1.5" pointer-events="none"/>
                </g>
                <g id="dirArrow">
                        <path fill="none" stroke="white" stroke-width="1.5" d="M0,-3.0v7 M-2.5,-0.5L0,-3.0L2.5,-0.5"/>
                </g>
               <g id="resetDef">
                       <use xlink:href="#rim2" fill="#404040">
                               <set attributeName="fill" to="#808080" begin="reset.mouseover" end="reset.mouseout"/>
                       </use>
               </g>
        </defs>

<script type="text/javascript">
var viewWidth = 842;
var viewHeight = 258;
var sectionId = 'dynsection-6';
</script>
<script xlink:href="svgpan.js"/>
<svg id="graph" class="graph">
<g id="viewport">
<title>VolumeControl.Log.LogWriter.Error</title>
<!-- Node1 -->
<g id="node1" class="node">
<title>Node1</title>
<g id="a_node1"><a xlink:title="Write a formatted EventType.ERROR message to the log endpoint.">
<polygon fill="#bfbfbf" stroke="black" points="673,-98.5 673,-128.5 834,-128.5 834,-98.5 673,-98.5"/>
<text text-anchor="start" x="681" y="-116.5" font-family="Helvetica,sans-Serif" font-size="10.00">VolumeControl.Log.LogWriter.</text>
<text text-anchor="middle" x="753.5" y="-105.5" font-family="Helvetica,sans-Serif" font-size="10.00">Error</text>
</a>
</g>
</g>
<!-- Node2 -->
<g id="node2" class="node">
<title>Node2</title>
<g id="a_node2"><a xlink:href="struct_volume_control_1_1_core_1_1_input_1_1_structs_1_1_json_hotkey.html#a8e3667369549bda43b0bdac71f0004e9" target="_top" xlink:title="Creates a new THotkey &#160;instance from this JsonHotkey struct, using the specified actionManager &#160;to re...">
<polygon fill="none" stroke="black" points="447,-208 447,-249 630,-249 630,-208 447,-208"/>
<text text-anchor="start" x="455" y="-237" font-family="Helvetica,sans-Serif" font-size="10.00">VolumeControl.Core.Input.</text>
<text text-anchor="start" x="455" y="-226" font-family="Helvetica,sans-Serif" font-size="10.00">Structs.JsonHotkey.CreateInstance</text>
<text text-anchor="middle" x="538.5" y="-215" font-family="Helvetica,sans-Serif" font-size="10.00">&lt; THotkey &gt;</text>
</a>
</g>
</g>
<!-- Node1&#45;&gt;Node2 -->
<g id="edge1" class="edge">
<title>Node1&#45;&gt;Node2</title>
<path fill="none" stroke="midnightblue" d="M728.06,-135.32C705.72,-154.29 671.06,-181.35 637,-198.5 630.12,-201.96 622.76,-205.12 615.29,-207.97"/>
<polygon fill="midnightblue" stroke="midnightblue" points="730.42,-137.91 735.71,-128.73 725.85,-132.6 730.42,-137.91"/>
</g>
<!-- Node3 -->
<g id="node3" class="node">
<title>Node3</title>
<g id="a_node3"><a xlink:href="class_volume_control_1_1_core_audio_1_1_audio_device_manager.html#a4cb7f138bdd481ea15b97ed57664ddcb" target="_top" xlink:title="Gets the default device for the specified deviceRole .">
<polygon fill="none" stroke="black" points="450.5,-148 450.5,-189 626.5,-189 626.5,-148 450.5,-148"/>
<text text-anchor="start" x="458.5" y="-177" font-family="Helvetica,sans-Serif" font-size="10.00">VolumeControl.CoreAudio.</text>
<text text-anchor="start" x="458.5" y="-166" font-family="Helvetica,sans-Serif" font-size="10.00">AudioDeviceManager.GetDefault</text>
<text text-anchor="middle" x="538.5" y="-155" font-family="Helvetica,sans-Serif" font-size="10.00">Device</text>
</a>
</g>
</g>
<!-- Node1&#45;&gt;Node3 -->
<g id="edge2" class="edge">
<title>Node1&#45;&gt;Node3</title>
<path fill="none" stroke="midnightblue" d="M684.6,-131.03C663.79,-136.41 640.71,-142.37 619.19,-147.92"/>
<polygon fill="midnightblue" stroke="midnightblue" points="685.49,-134.42 694.3,-128.53 683.74,-127.64 685.49,-134.42"/>
</g>
<!-- Node6 -->
<g id="node6" class="node">
<title>Node6</title>
<g id="a_node6"><a xlink:href="class_volume_control_1_1_s_d_k_1_1_internal_1_1_initializer.html#ad14db55893cfb34948ed62a314a9e8ce" target="_top" xlink:title=" ">
<polygon fill="none" stroke="black" points="461,-98.5 461,-128.5 616,-128.5 616,-98.5 461,-98.5"/>
<text text-anchor="start" x="469" y="-116.5" font-family="Helvetica,sans-Serif" font-size="10.00">VolumeControl.SDK.Internal.</text>
<text text-anchor="middle" x="538.5" y="-105.5" font-family="Helvetica,sans-Serif" font-size="10.00">Initializer.Initialize</text>
</a>
</g>
</g>
<!-- Node1&#45;&gt;Node6 -->
<g id="edge5" class="edge">
<title>Node1&#45;&gt;Node6</title>
<path fill="none" stroke="midnightblue" d="M662.78,-113.5C647.29,-113.5 631.31,-113.5 616.19,-113.5"/>
<polygon fill="midnightblue" stroke="midnightblue" points="662.88,-117 672.88,-113.5 662.88,-110 662.88,-117"/>
</g>
<!-- Node7 -->
<g id="node7" class="node">
<title>Node7</title>
<g id="a_node7"><a xlink:href="class_volume_control_1_1_core_1_1_input_1_1_actions_1_1_hotkey_action_instance.html#a5f9ed283ca3d13a3c3e7220a23627c47" target="_top" xlink:title="Invokes the method specified by the HotkeyActionDefinition">
<polygon fill="none" stroke="black" points="440,-49.5 440,-79.5 637,-79.5 637,-49.5 440,-49.5"/>
<text text-anchor="start" x="448" y="-67.5" font-family="Helvetica,sans-Serif" font-size="10.00">VolumeControl.Core.Input.</text>
<text text-anchor="middle" x="538.5" y="-56.5" font-family="Helvetica,sans-Serif" font-size="10.00">Actions.HotkeyActionInstance.Invoke</text>
</a>
</g>
</g>
<!-- Node1&#45;&gt;Node7 -->
<g id="edge6" class="edge">
<title>Node1&#45;&gt;Node7</title>
<path fill="none" stroke="midnightblue" d="M677.16,-96.17C653.52,-90.73 627.62,-84.77 604.73,-79.51"/>
<polygon fill="midnightblue" stroke="midnightblue" points="676.62,-99.63 687.15,-98.47 678.18,-92.81 676.62,-99.63"/>
</g>
<!-- Node8 -->
<g id="node8" class="node">
<title>Node8</title>
<g id="a_node8"><a xlink:href="class_volume_control_1_1_core_1_1_input_1_1_hotkey_action_addon_loader.html#a037e4a9483554fd7e6ed40f89e2be559" target="_top" xlink:title="Loads hotkey actions from the specified types .">
<polygon fill="none" stroke="black" points="453,-0.5 453,-30.5 624,-30.5 624,-0.5 453,-0.5"/>
<text text-anchor="start" x="461" y="-18.5" font-family="Helvetica,sans-Serif" font-size="10.00">VolumeControl.Core.Input.</text>
<text text-anchor="middle" x="538.5" y="-7.5" font-family="Helvetica,sans-Serif" font-size="10.00">HotkeyActionAddonLoader.Load</text>
</a>
</g>
</g>
<!-- Node1&#45;&gt;Node8 -->
<g id="edge7" class="edge">
<title>Node1&#45;&gt;Node8</title>
<path fill="none" stroke="midnightblue" d="M724.61,-92.35C702.03,-76.13 668.87,-54.25 637,-40.5 628.26,-36.73 618.82,-33.43 609.37,-30.57"/>
<polygon fill="midnightblue" stroke="midnightblue" points="722.57,-95.2 732.72,-98.26 726.7,-89.54 722.57,-95.2"/>
</g>
<!-- Node4 -->
<g id="node4" class="node">
<title>Node4</title>
<g id="a_node4"><a xlink:href="class_volume_control_1_1_core_audio_1_1_audio_device_selector.html#aa034046c08eabe307454d98622e9a3b8" target="_top" xlink:title="Changes the Selected item to the default Multimedia audio device.">
<polygon fill="none" stroke="black" points="218,-148 218,-189 404,-189 404,-148 218,-148"/>
<text text-anchor="start" x="226" y="-177" font-family="Helvetica,sans-Serif" font-size="10.00">VolumeControl.CoreAudio.</text>
<text text-anchor="start" x="226" y="-166" font-family="Helvetica,sans-Serif" font-size="10.00">AudioDeviceSelector.SelectDefault</text>
<text text-anchor="middle" x="311" y="-155" font-family="Helvetica,sans-Serif" font-size="10.00">Device</text>
</a>
</g>
</g>
<!-- Node3&#45;&gt;Node4 -->
<g id="edge3" class="edge">
<title>Node3&#45;&gt;Node4</title>
<path fill="none" stroke="midnightblue" d="M440.31,-168.5C428.32,-168.5 416.09,-168.5 404.18,-168.5"/>
<polygon fill="midnightblue" stroke="midnightblue" points="440.32,-172 450.32,-168.5 440.32,-165 440.32,-172"/>
</g>
<!-- Node5 -->
<g id="node5" class="node">
<title>Node5</title>
<g id="a_node5"><a xlink:href="class_volume_control_1_1_core_audio_1_1_audio_device_selector.html#a139e061b6f96ab63535b4ad5f18cc7ce" target="_top" xlink:title="Creates a new AudioDeviceSelector instance bound to the given audioDeviceManager .">
<polygon fill="none" stroke="black" points="0,-148 0,-189 182,-189 182,-148 0,-148"/>
<text text-anchor="start" x="8" y="-177" font-family="Helvetica,sans-Serif" font-size="10.00">VolumeControl.CoreAudio.</text>
<text text-anchor="start" x="8" y="-166" font-family="Helvetica,sans-Serif" font-size="10.00">AudioDeviceSelector.AudioDevice</text>
<text text-anchor="middle" x="91" y="-155" font-family="Helvetica,sans-Serif" font-size="10.00">Selector</text>
</a>
</g>
</g>
<!-- Node4&#45;&gt;Node5 -->
<g id="edge4" class="edge">
<title>Node4&#45;&gt;Node5</title>
<path fill="none" stroke="midnightblue" d="M207.81,-168.5C199.21,-168.5 190.56,-168.5 182.07,-168.5"/>
<polygon fill="midnightblue" stroke="midnightblue" points="207.86,-172 217.86,-168.5 207.86,-165 207.86,-172"/>
</g>
</g>
</svg>
        <g id="navigator" transform="translate(0 0)" fill="#404254">
                <rect fill="#f2f5e9" fill-opacity="0.5" stroke="#606060" stroke-width=".5" x="0" y="0" width="60" height="60"/>
                <use id="zoomplus" xlink:href="#zoomPlus" x="17" y="9" onmousedown="handleZoom(evt,'in')"/>
                <use id="zoomminus" xlink:href="#zoomMin" x="42" y="9" onmousedown="handleZoom(evt,'out')"/>
                <use id="reset" xlink:href="#resetDef" x="30" y="36" onmousedown="handleReset()"/>
                <g id="arrowUp" xlink:href="#dirArrow" transform="translate(30 24)" onmousedown="handlePan(0,-1)">
                  <use xlink:href="#rim" fill="#404040">
                        <set attributeName="fill" to="#808080" begin="arrowUp.mouseover" end="arrowUp.mouseout"/>
                  </use>
                  <path fill="none" stroke="white" stroke-width="1.5" d="M0,-3.0v7 M-2.5,-0.5L0,-3.0L2.5,-0.5"/>
                </g>
                <g id="arrowRight" xlink:href="#dirArrow" transform="rotate(90) translate(36 -43)" onmousedown="handlePan(1,0)">
                  <use xlink:href="#rim" fill="#404040">
                        <set attributeName="fill" to="#808080" begin="arrowRight.mouseover" end="arrowRight.mouseout"/>
                  </use>
                  <path fill="none" stroke="white" stroke-width="1.5" d="M0,-3.0v7 M-2.5,-0.5L0,-3.0L2.5,-0.5"/>
                </g>
                <g id="arrowDown" xlink:href="#dirArrow" transform="rotate(180) translate(-30 -48)" onmousedown="handlePan(0,1)">
                  <use xlink:href="#rim" fill="#404040">
                        <set attributeName="fill" to="#808080" begin="arrowDown.mouseover" end="arrowDown.mouseout"/>
                  </use>
                  <path fill="none" stroke="white" stroke-width="1.5" d="M0,-3.0v7 M-2.5,-0.5L0,-3.0L2.5,-0.5"/>
                </g>
                <g id="arrowLeft" xlink:href="#dirArrow" transform="rotate(270) translate(-36 17)" onmousedown="handlePan(-1,0)">
                  <use xlink:href="#rim" fill="#404040">
                        <set attributeName="fill" to="#808080" begin="arrowLeft.mouseover" end="arrowLeft.mouseout"/>
                  </use>
                  <path fill="none" stroke="white" stroke-width="1.5" d="M0,-3.0v7 M-2.5,-0.5L0,-3.0L2.5,-0.5"/>
                </g>
        </g>
        <svg viewBox="0 0 15 15" width="100%" height="30px" preserveAspectRatio="xMaxYMin meet">
         <g id="arrow_out" transform="scale(0.3 0.3)">
          <a xlink:href="class_volume_control_1_1_log_1_1_log_writer_ae7780f22869e53ce4a1aad3fc6fa0bf7_icgraph_org.svg" target="_base">
           <rect id="button" ry="5" rx="5" y="6" x="6" height="38" width="38"
                fill="#f2f5e9" fill-opacity="0.5" stroke="#606060" stroke-width="1.0"/>
           <path id="arrow"
             d="M 11.500037,31.436501 C 11.940474,20.09759 22.043105,11.32322 32.158766,21.979434 L 37.068811,17.246167 C 37.068811,17.246167 37.088388,32 37.088388,32 L 22.160133,31.978069 C 22.160133,31.978069 26.997745,27.140456 26.997745,27.140456 C 18.528582,18.264221 13.291696,25.230495 11.500037,31.436501 z"
             style="fill:#404040;"/>
          </a>
         </g>
        </svg>
</svg>
