<?xml version="1.0" encoding="UTF-8" standalone="no"?>
<!DOCTYPE svg PUBLIC "-//W3C//DTD SVG 1.1//EN"
 "http://www.w3.org/Graphics/SVG/1.1/DTD/svg11.dtd">
<!-- Generated by graphviz version 2.44.1 (20200629.0800)
 -->
<!-- Title: VolumeControl.Log.Endpoints.MemoryEndpoint Pages: 1 -->
<svg width="186pt" height="325pt"
 viewBox="0.00 0.00 185.50 325.00" xmlns="http://www.w3.org/2000/svg" xmlns:xlink="http://www.w3.org/1999/xlink">
<g id="graph0" class="graph" transform="scale(1 1) rotate(0) translate(4 321)">
<title>VolumeControl.Log.Endpoints.MemoryEndpoint</title>
<!-- Node1 -->
<g id="node1" class="node">
<title>Node1</title>
<g id="a_node1"><a xlink:title="A log endpoint that implements IEndpoint and uses a MemoryStream as an endpoint.">
<polygon fill="#bfbfbf" stroke="black" points="20.5,-0.5 20.5,-156.5 169.5,-156.5 169.5,-0.5 20.5,-0.5"/>
<text text-anchor="start" x="28.5" y="-144.5" font-family="Helvetica,sans-Serif" font-size="10.00">VolumeControl.Log.Endpoints.</text>
<text text-anchor="middle" x="95" y="-133.5" font-family="Helvetica,sans-Serif" font-size="10.00">MemoryEndpoint</text>
<polyline fill="none" stroke="black" points="20.5,-126.5 169.5,-126.5 "/>
<text text-anchor="start" x="28.5" y="-114.5" font-family="Helvetica,sans-Serif" font-size="10.00">+ Enabled</text>
<polyline fill="none" stroke="black" points="20.5,-107.5 169.5,-107.5 "/>
<text text-anchor="start" x="28.5" y="-95.5" font-family="Helvetica,sans-Serif" font-size="10.00">+ MemoryEndpoint()</text>
<text text-anchor="start" x="28.5" y="-84.5" font-family="Helvetica,sans-Serif" font-size="10.00">+ GetReader()</text>
<text text-anchor="start" x="28.5" y="-73.5" font-family="Helvetica,sans-Serif" font-size="10.00">+ GetWriter()</text>
<text text-anchor="start" x="28.5" y="-62.5" font-family="Helvetica,sans-Serif" font-size="10.00">+ ReadRaw()</text>
<text text-anchor="start" x="28.5" y="-51.5" font-family="Helvetica,sans-Serif" font-size="10.00">+ ReadRawLine()</text>
<text text-anchor="start" x="28.5" y="-40.5" font-family="Helvetica,sans-Serif" font-size="10.00">+ Reset()</text>
<text text-anchor="start" x="28.5" y="-29.5" font-family="Helvetica,sans-Serif" font-size="10.00">+ WriteRaw()</text>
<text text-anchor="start" x="28.5" y="-18.5" font-family="Helvetica,sans-Serif" font-size="10.00">+ WriteRawLine()</text>
<text text-anchor="start" x="28.5" y="-7.5" font-family="Helvetica,sans-Serif" font-size="10.00">+ Dispose()</text>
</a>
</g>
</g>
<!-- Node2 -->
<g id="node2" class="node">
<title>Node2</title>
<g id="a_node2"><a xlink:href="interface_volume_control_1_1_log_1_1_endpoints_1_1_i_endpoint.html" target="_top" xlink:title="Represents an endpoint output target for a log writer, and exposes helper methods for interacting wit...">
<polygon fill="none" stroke="black" points="0,-193.5 0,-316.5 92,-316.5 92,-193.5 0,-193.5"/>
<text text-anchor="middle" x="46" y="-304.5" font-family="Helvetica,sans-Serif" font-size="10.00">IEndpoint</text>
<polyline fill="none" stroke="black" points="0,-297.5 92,-297.5 "/>
<text text-anchor="start" x="8" y="-285.5" font-family="Helvetica,sans-Serif" font-size="10.00">+ Enabled</text>
<polyline fill="none" stroke="black" points="0,-278.5 92,-278.5 "/>
<text text-anchor="start" x="8" y="-266.5" font-family="Helvetica,sans-Serif" font-size="10.00">+ GetReader()</text>
<text text-anchor="start" x="8" y="-255.5" font-family="Helvetica,sans-Serif" font-size="10.00">+ GetWriter()</text>
<text text-anchor="start" x="8" y="-244.5" font-family="Helvetica,sans-Serif" font-size="10.00">+ WriteRaw()</text>
<text text-anchor="start" x="8" y="-233.5" font-family="Helvetica,sans-Serif" font-size="10.00">+ WriteRawLine()</text>
<text text-anchor="start" x="8" y="-222.5" font-family="Helvetica,sans-Serif" font-size="10.00">+ ReadRaw()</text>
<text text-anchor="start" x="8" y="-211.5" font-family="Helvetica,sans-Serif" font-size="10.00">+ ReadRawLine()</text>
<text text-anchor="start" x="8" y="-200.5" font-family="Helvetica,sans-Serif" font-size="10.00">+ Reset()</text>
</a>
</g>
</g>
<!-- Node2&#45;&gt;Node1 -->
<g id="edge1" class="edge">
<title>Node2&#45;&gt;Node1</title>
<path fill="none" stroke="midnightblue" d="M65.7,-183.83C68.23,-174.85 70.82,-165.62 73.37,-156.53"/>
<polygon fill="none" stroke="midnightblue" points="62.33,-182.88 63,-193.46 69.07,-184.78 62.33,-182.88"/>
</g>
<!-- Node3 -->
<g id="node3" class="node">
<title>Node3</title>
<g id="a_node3"><a xlink:title=" ">
<polygon fill="none" stroke="#bfbfbf" points="110.5,-226.5 110.5,-283.5 177.5,-283.5 177.5,-226.5 110.5,-226.5"/>
<text text-anchor="middle" x="144" y="-271.5" font-family="Helvetica,sans-Serif" font-size="10.00">IDisposable</text>
<polyline fill="none" stroke="#bfbfbf" points="110.5,-264.5 177.5,-264.5 "/>
<text text-anchor="middle" x="144" y="-252.5" font-family="Helvetica,sans-Serif" font-size="10.00"> </text>
<polyline fill="none" stroke="#bfbfbf" points="110.5,-245.5 177.5,-245.5 "/>
<text text-anchor="middle" x="144" y="-233.5" font-family="Helvetica,sans-Serif" font-size="10.00"> </text>
</a>
</g>
</g>
<!-- Node3&#45;&gt;Node1 -->
<g id="edge2" class="edge">
<title>Node3&#45;&gt;Node1</title>
<path fill="none" stroke="midnightblue" d="M133.48,-216.54C128.57,-199.03 122.52,-177.5 116.69,-156.74"/>
<polygon fill="none" stroke="midnightblue" points="130.16,-217.67 136.24,-226.35 136.9,-215.78 130.16,-217.67"/>
</g>
</g>
</svg>
