<?xml version="1.0" encoding="UTF-8" standalone="no"?>
<!DOCTYPE svg PUBLIC "-//W3C//DTD SVG 1.1//EN"
 "http://www.w3.org/Graphics/SVG/1.1/DTD/svg11.dtd">
<!-- Generated by graphviz version 2.43.0 (0)
 -->
<!-- Title: VolumeControl.Log.Endpoints.MemoryEndpoint Pages: 1 -->
<svg width="210pt" height="303pt"
 viewBox="0.00 0.00 210.00 303.00" xmlns="http://www.w3.org/2000/svg" xmlns:xlink="http://www.w3.org/1999/xlink">
<g id="graph0" class="graph" transform="scale(1 1) rotate(0) translate(4 299)">
<title>VolumeControl.Log.Endpoints.MemoryEndpoint</title>
<!-- Node1 -->
<g id="node1" class="node">
<title>Node1</title>
<g id="a_node1"><a xlink:title="A log endpoint that implements IEndpointWriter and uses a MemoryStream as an endpoint.">
<polygon fill="#bfbfbf" stroke="black" points="28.5,-0.5 28.5,-167.5 191.5,-167.5 191.5,-0.5 28.5,-0.5"/>
<text text-anchor="start" x="36.5" y="-155.5" font-family="Helvetica,sans-Serif" font-size="10.00">VolumeControl.Log.Endpoints.</text>
<text text-anchor="middle" x="110" y="-144.5" font-family="Helvetica,sans-Serif" font-size="10.00">MemoryEndpoint</text>
<polyline fill="none" stroke="black" points="28.5,-137.5 191.5,-137.5 "/>
<text text-anchor="start" x="36.5" y="-125.5" font-family="Helvetica,sans-Serif" font-size="10.00">+ IsWritingEnabled</text>
<polyline fill="none" stroke="black" points="28.5,-118.5 191.5,-118.5 "/>
<text text-anchor="start" x="36.5" y="-106.5" font-family="Helvetica,sans-Serif" font-size="10.00">+ MemoryEndpoint()</text>
<text text-anchor="start" x="36.5" y="-95.5" font-family="Helvetica,sans-Serif" font-size="10.00">+ GetTextReader()</text>
<text text-anchor="start" x="36.5" y="-84.5" font-family="Helvetica,sans-Serif" font-size="10.00">+ GetTextWriter()</text>
<text text-anchor="start" x="36.5" y="-73.5" font-family="Helvetica,sans-Serif" font-size="10.00">+ ReadRaw()</text>
<text text-anchor="start" x="36.5" y="-62.5" font-family="Helvetica,sans-Serif" font-size="10.00">+ ReadRawLine()</text>
<text text-anchor="start" x="36.5" y="-51.5" font-family="Helvetica,sans-Serif" font-size="10.00">+ Reset()</text>
<text text-anchor="start" x="36.5" y="-40.5" font-family="Helvetica,sans-Serif" font-size="10.00">+ Write()</text>
<text text-anchor="start" x="36.5" y="-29.5" font-family="Helvetica,sans-Serif" font-size="10.00">+ WriteLine()</text>
<text text-anchor="start" x="36.5" y="-18.5" font-family="Helvetica,sans-Serif" font-size="10.00">+ Dispose()</text>
<text text-anchor="start" x="36.5" y="-7.5" font-family="Helvetica,sans-Serif" font-size="10.00">+ ToString()</text>
</a>
</g>
</g>
<!-- Node2 -->
<g id="node2" class="node">
<title>Node2</title>
<g id="a_node2"><a xlink:href="interface_volume_control_1_1_log_1_1_interfaces_1_1_i_endpoint_writer.html" target="_top" xlink:title="Represents an endpoint that text can be written to.">
<polygon fill="none" stroke="black" points="0,-204.5 0,-294.5 110,-294.5 110,-204.5 0,-204.5"/>
<text text-anchor="middle" x="55" y="-282.5" font-family="Helvetica,sans-Serif" font-size="10.00">IEndpointWriter</text>
<polyline fill="none" stroke="black" points="0,-275.5 110,-275.5 "/>
<text text-anchor="start" x="8" y="-263.5" font-family="Helvetica,sans-Serif" font-size="10.00">+ IsWritingEnabled</text>
<polyline fill="none" stroke="black" points="0,-256.5 110,-256.5 "/>
<text text-anchor="start" x="8" y="-244.5" font-family="Helvetica,sans-Serif" font-size="10.00">+ GetTextWriter()</text>
<text text-anchor="start" x="8" y="-233.5" font-family="Helvetica,sans-Serif" font-size="10.00">+ Write()</text>
<text text-anchor="start" x="8" y="-222.5" font-family="Helvetica,sans-Serif" font-size="10.00">+ WriteLine()</text>
<text text-anchor="start" x="8" y="-211.5" font-family="Helvetica,sans-Serif" font-size="10.00">+ Reset()</text>
</a>
</g>
</g>
<!-- Node2&#45;&gt;Node1 -->
<g id="edge1" class="edge">
<title>Node2&#45;&gt;Node1</title>
<path fill="none" stroke="midnightblue" d="M73.1,-194.69C76.02,-186.02 79.09,-176.88 82.18,-167.72"/>
<polygon fill="none" stroke="midnightblue" points="69.75,-193.66 69.88,-204.25 76.39,-195.89 69.75,-193.66"/>
</g>
<!-- Node3 -->
<g id="node3" class="node">
<title>Node3</title>
<g id="a_node3"><a xlink:title=" ">
<polygon fill="none" stroke="#bfbfbf" points="128,-221 128,-278 202,-278 202,-221 128,-221"/>
<text text-anchor="middle" x="165" y="-266" font-family="Helvetica,sans-Serif" font-size="10.00">IDisposable</text>
<polyline fill="none" stroke="#bfbfbf" points="128,-259 202,-259 "/>
<text text-anchor="middle" x="165" y="-247" font-family="Helvetica,sans-Serif" font-size="10.00"> </text>
<polyline fill="none" stroke="#bfbfbf" points="128,-240 202,-240 "/>
<text text-anchor="middle" x="165" y="-228" font-family="Helvetica,sans-Serif" font-size="10.00"> </text>
</a>
</g>
</g>
<!-- Node3&#45;&gt;Node1 -->
<g id="edge2" class="edge">
<title>Node3&#45;&gt;Node1</title>
<path fill="none" stroke="midnightblue" d="M152.46,-211.22C148.06,-198.13 142.92,-182.86 137.77,-167.55"/>
<polygon fill="none" stroke="midnightblue" points="149.16,-212.4 155.67,-220.76 155.8,-210.17 149.16,-212.4"/>
</g>
</g>
</svg>
