<?xml version="1.0" encoding="UTF-8" standalone="no"?>
<!DOCTYPE svg PUBLIC "-//W3C//DTD SVG 1.1//EN"
 "http://www.w3.org/Graphics/SVG/1.1/DTD/svg11.dtd">
<!-- Generated by graphviz version 2.43.0 (0)
 -->
<!-- Title: VolumeControl.Hotkeys.Attributes.ActionAddonAttribute Pages: 1 -->
<svg width="218pt" height="309pt"
 viewBox="0.00 0.00 218.00 309.00" xmlns="http://www.w3.org/2000/svg" xmlns:xlink="http://www.w3.org/1999/xlink">
<g id="graph0" class="graph" transform="scale(1 1) rotate(0) translate(4 305)">
<title>VolumeControl.Hotkeys.Attributes.ActionAddonAttribute</title>
<!-- Node1 -->
<g id="node1" class="node">
<title>Node1</title>
<g id="a_node1"><a xlink:title="Marks the attached class type as a Hotkey Actions addon type.">
<polygon fill="#bfbfbf" stroke="black" points="0,-0.5 0,-79.5 185,-79.5 185,-0.5 0,-0.5"/>
<text text-anchor="start" x="8" y="-67.5" font-family="Helvetica,sans-Serif" font-size="10.00">VolumeControl.Hotkeys.Attributes.</text>
<text text-anchor="middle" x="92.5" y="-56.5" font-family="Helvetica,sans-Serif" font-size="10.00">ActionAddonAttribute</text>
<polyline fill="none" stroke="black" points="0,-49.5 185,-49.5 "/>
<text text-anchor="middle" x="92.5" y="-37.5" font-family="Helvetica,sans-Serif" font-size="10.00"> </text>
<polyline fill="none" stroke="black" points="0,-30.5 185,-30.5 "/>
<text text-anchor="start" x="8" y="-18.5" font-family="Helvetica,sans-Serif" font-size="10.00">+ ActionAddonAttribute()</text>
<text text-anchor="start" x="8" y="-7.5" font-family="Helvetica,sans-Serif" font-size="10.00">+ ActionAddonAttribute()</text>
</a>
</g>
</g>
<!-- Node2 -->
<g id="node2" class="node">
<title>Node2</title>
<g id="a_node2"><a xlink:href="class_volume_control_1_1_core_1_1_base_addon_attribute.html" target="_top" xlink:title="Abstract base class that all other addon attributes inherit from. Unless you&#39;re implementing a new ad...">
<polygon fill="none" stroke="black" points="26,-116.5 26,-195.5 159,-195.5 159,-116.5 26,-116.5"/>
<text text-anchor="middle" x="92.5" y="-183.5" font-family="Helvetica,sans-Serif" font-size="10.00">BaseAddonAttribute</text>
<polyline fill="none" stroke="black" points="26,-176.5 159,-176.5 "/>
<text text-anchor="start" x="34" y="-164.5" font-family="Helvetica,sans-Serif" font-size="10.00">+ AddonName</text>
<text text-anchor="start" x="34" y="-153.5" font-family="Helvetica,sans-Serif" font-size="10.00">+ CompatibleVersions</text>
<polyline fill="none" stroke="black" points="26,-146.5 159,-146.5 "/>
<text text-anchor="start" x="34" y="-134.5" font-family="Helvetica,sans-Serif" font-size="10.00"># BaseAddonAttribute()</text>
<text text-anchor="start" x="34" y="-123.5" font-family="Helvetica,sans-Serif" font-size="10.00"># BaseAddonAttribute()</text>
</a>
</g>
</g>
<!-- Node2&#45;&gt;Node1 -->
<g id="edge1" class="edge">
<title>Node2&#45;&gt;Node1</title>
<path fill="none" stroke="midnightblue" d="M92.5,-106.15C92.5,-97.26 92.5,-88.1 92.5,-79.56"/>
<polygon fill="none" stroke="midnightblue" points="89,-106.4 92.5,-116.4 96,-106.4 89,-106.4"/>
</g>
<!-- Node3 -->
<g id="node3" class="node">
<title>Node3</title>
<g id="a_node3"><a xlink:title=" ">
<polygon fill="none" stroke="#bfbfbf" points="8,-238 8,-295 67,-295 67,-238 8,-238"/>
<text text-anchor="middle" x="37.5" y="-283" font-family="Helvetica,sans-Serif" font-size="10.00">Attribute</text>
<polyline fill="none" stroke="#bfbfbf" points="8,-276 67,-276 "/>
<text text-anchor="middle" x="37.5" y="-264" font-family="Helvetica,sans-Serif" font-size="10.00"> </text>
<polyline fill="none" stroke="#bfbfbf" points="8,-257 67,-257 "/>
<text text-anchor="middle" x="37.5" y="-245" font-family="Helvetica,sans-Serif" font-size="10.00"> </text>
</a>
</g>
</g>
<!-- Node3&#45;&gt;Node2 -->
<g id="edge2" class="edge">
<title>Node3&#45;&gt;Node2</title>
<path fill="none" stroke="midnightblue" d="M56.11,-228.78C61.52,-218.11 67.44,-206.44 72.9,-195.66"/>
<polygon fill="none" stroke="midnightblue" points="52.92,-227.34 51.52,-237.84 59.16,-230.5 52.92,-227.34"/>
</g>
<!-- Node4 -->
<g id="node4" class="node">
<title>Node4</title>
<g id="a_node4"><a xlink:href="interface_volume_control_1_1_core_1_1_i_base_addon_attribute.html" target="_top" xlink:title="Represents the attribute(s) associated with a IBaseAddon. &#160;All valid addon attributes implement this ...">
<polygon fill="none" stroke="black" points="85,-232.5 85,-300.5 210,-300.5 210,-232.5 85,-232.5"/>
<text text-anchor="middle" x="147.5" y="-288.5" font-family="Helvetica,sans-Serif" font-size="10.00">IBaseAddonAttribute</text>
<polyline fill="none" stroke="black" points="85,-281.5 210,-281.5 "/>
<text text-anchor="start" x="93" y="-269.5" font-family="Helvetica,sans-Serif" font-size="10.00">+ AddonName</text>
<text text-anchor="start" x="93" y="-258.5" font-family="Helvetica,sans-Serif" font-size="10.00">+ CompatibleVersions</text>
<polyline fill="none" stroke="black" points="85,-251.5 210,-251.5 "/>
<text text-anchor="middle" x="147.5" y="-239.5" font-family="Helvetica,sans-Serif" font-size="10.00"> </text>
</a>
</g>
</g>
<!-- Node4&#45;&gt;Node2 -->
<g id="edge3" class="edge">
<title>Node4&#45;&gt;Node2</title>
<path fill="none" stroke="midnightblue" d="M126.17,-223.42C121.53,-214.28 116.65,-204.65 112.09,-195.65"/>
<polygon fill="none" stroke="midnightblue" points="123.06,-225.02 130.7,-232.36 129.3,-221.85 123.06,-225.02"/>
</g>
</g>
</svg>
