<?xml version="1.0" encoding="UTF-8" standalone="no"?>
<!DOCTYPE svg PUBLIC "-//W3C//DTD SVG 1.1//EN"
 "http://www.w3.org/Graphics/SVG/1.1/DTD/svg11.dtd">
<!-- Generated by graphviz version 2.43.0 (0)
 -->
<!-- Title: VolumeControl.WPF.Behaviors.MouseWheelNumericUpDownBehavior Pages: 1 -->
<svg width="214pt" height="193pt"
 viewBox="0.00 0.00 214.00 193.00" xmlns="http://www.w3.org/2000/svg" xmlns:xlink="http://www.w3.org/1999/xlink">
<g id="graph0" class="graph" transform="scale(1 1) rotate(0) translate(4 189)">
<title>VolumeControl.WPF.Behaviors.MouseWheelNumericUpDownBehavior</title>
<!-- Node1 -->
<g id="node1" class="node">
<title>Node1</title>
<g id="a_node1"><a xlink:title="Behavior&lt;T&gt; that enables the mouse wheel to change the value of NumericUpDown controls.">
<polygon fill="#bfbfbf" stroke="black" points="0,-0.5 0,-90.5 206,-90.5 206,-0.5 0,-0.5"/>
<text text-anchor="start" x="8" y="-78.5" font-family="Helvetica,sans-Serif" font-size="10.00">VolumeControl.WPF.Behaviors.</text>
<text text-anchor="middle" x="103" y="-67.5" font-family="Helvetica,sans-Serif" font-size="10.00">MouseWheelNumericUpDownBehavior</text>
<polyline fill="none" stroke="black" points="0,-60.5 206,-60.5 "/>
<text text-anchor="start" x="8" y="-48.5" font-family="Helvetica,sans-Serif" font-size="10.00">+ AmountProperty</text>
<text text-anchor="start" x="8" y="-37.5" font-family="Helvetica,sans-Serif" font-size="10.00">+ Amount</text>
<polyline fill="none" stroke="black" points="0,-30.5 206,-30.5 "/>
<text text-anchor="start" x="8" y="-18.5" font-family="Helvetica,sans-Serif" font-size="10.00"># OnAttached()</text>
<text text-anchor="start" x="8" y="-7.5" font-family="Helvetica,sans-Serif" font-size="10.00"># OnDetaching()</text>
</a>
</g>
</g>
<!-- Node2 -->
<g id="node2" class="node">
<title>Node2</title>
<g id="a_node2"><a xlink:title=" ">
<polygon fill="none" stroke="#bfbfbf" points="20.5,-127.5 20.5,-184.5 185.5,-184.5 185.5,-127.5 20.5,-127.5"/>
<text text-anchor="middle" x="103" y="-172.5" font-family="Helvetica,sans-Serif" font-size="10.00">Behavior&lt; NumericUpDown &gt;</text>
<polyline fill="none" stroke="#bfbfbf" points="20.5,-165.5 185.5,-165.5 "/>
<text text-anchor="middle" x="103" y="-153.5" font-family="Helvetica,sans-Serif" font-size="10.00"> </text>
<polyline fill="none" stroke="#bfbfbf" points="20.5,-146.5 185.5,-146.5 "/>
<text text-anchor="middle" x="103" y="-134.5" font-family="Helvetica,sans-Serif" font-size="10.00"> </text>
</a>
</g>
</g>
<!-- Node2&#45;&gt;Node1 -->
<g id="edge1" class="edge">
<title>Node2&#45;&gt;Node1</title>
<path fill="none" stroke="midnightblue" d="M103,-117.21C103,-108.61 103,-99.39 103,-90.55"/>
<polygon fill="none" stroke="midnightblue" points="99.5,-117.34 103,-127.34 106.5,-117.34 99.5,-117.34"/>
</g>
</g>
</svg>
