<?xml version="1.0" encoding="UTF-8" standalone="no"?>
<!DOCTYPE svg PUBLIC "-//W3C//DTD SVG 1.1//EN"
 "http://www.w3.org/Graphics/SVG/1.1/DTD/svg11.dtd">
<!-- Generated by graphviz version 2.43.0 (0)
 -->
<!-- Title: VolumeControl.Log.LogMessage Pages: 1 -->
<svg width="238pt" height="237pt"
 viewBox="0.00 0.00 237.50 237.00" xmlns="http://www.w3.org/2000/svg" xmlns:xlink="http://www.w3.org/1999/xlink">
<g id="graph0" class="graph" transform="scale(1 1) rotate(0) translate(4 233)">
<title>VolumeControl.Log.LogMessage</title>
<!-- Node1 -->
<g id="node1" class="node">
<title>Node1</title>
<g id="a_node1"><a xlink:title="Represents a message to be written to the log.">
<polygon fill="#bfbfbf" stroke="black" points="42,-0.5 42,-134.5 215,-134.5 215,-0.5 42,-0.5"/>
<text text-anchor="middle" x="128.5" y="-122.5" font-family="Helvetica,sans-Serif" font-size="10.00">VolumeControl.Log.LogMessage</text>
<polyline fill="none" stroke="black" points="42,-115.5 215,-115.5 "/>
<text text-anchor="start" x="50" y="-103.5" font-family="Helvetica,sans-Serif" font-size="10.00">+ EventType</text>
<text text-anchor="start" x="50" y="-92.5" font-family="Helvetica,sans-Serif" font-size="10.00">+ Lines</text>
<text text-anchor="start" x="50" y="-81.5" font-family="Helvetica,sans-Serif" font-size="10.00">+ IsEmpty</text>
<polyline fill="none" stroke="black" points="42,-74.5 215,-74.5 "/>
<text text-anchor="start" x="50" y="-62.5" font-family="Helvetica,sans-Serif" font-size="10.00">+ LogMessage()</text>
<text text-anchor="start" x="50" y="-51.5" font-family="Helvetica,sans-Serif" font-size="10.00">+ LogMessage()</text>
<text text-anchor="start" x="50" y="-40.5" font-family="Helvetica,sans-Serif" font-size="10.00">+ Add()</text>
<text text-anchor="start" x="50" y="-29.5" font-family="Helvetica,sans-Serif" font-size="10.00">+ ToString()</text>
<text text-anchor="start" x="50" y="-18.5" font-family="Helvetica,sans-Serif" font-size="10.00">+ GetEnumerator()</text>
<text text-anchor="start" x="50" y="-7.5" font-family="Helvetica,sans-Serif" font-size="10.00">~ RemoveNullLines()</text>
</a>
</g>
</g>
<!-- Node2 -->
<g id="node2" class="node">
<title>Node2</title>
<g id="a_node2"><a xlink:title=" ">
<polygon fill="none" stroke="#bfbfbf" points="0,-171.5 0,-228.5 133,-228.5 133,-171.5 0,-171.5"/>
<text text-anchor="middle" x="66.5" y="-216.5" font-family="Helvetica,sans-Serif" font-size="10.00">IEnumerable&lt; object?&gt;</text>
<polyline fill="none" stroke="#bfbfbf" points="0,-209.5 133,-209.5 "/>
<text text-anchor="middle" x="66.5" y="-197.5" font-family="Helvetica,sans-Serif" font-size="10.00"> </text>
<polyline fill="none" stroke="#bfbfbf" points="0,-190.5 133,-190.5 "/>
<text text-anchor="middle" x="66.5" y="-178.5" font-family="Helvetica,sans-Serif" font-size="10.00"> </text>
</a>
</g>
</g>
<!-- Node2&#45;&gt;Node1 -->
<g id="edge1" class="edge">
<title>Node2&#45;&gt;Node1</title>
<path fill="none" stroke="midnightblue" d="M83.95,-162.27C88.07,-153.59 92.6,-144.07 97.13,-134.53"/>
<polygon fill="none" stroke="midnightblue" points="80.78,-160.79 79.65,-171.32 87.1,-163.79 80.78,-160.79"/>
</g>
<!-- Node3 -->
<g id="node3" class="node">
<title>Node3</title>
<g id="a_node3"><a xlink:title=" ">
<polygon fill="none" stroke="#bfbfbf" points="151.5,-171.5 151.5,-228.5 229.5,-228.5 229.5,-171.5 151.5,-171.5"/>
<text text-anchor="middle" x="190.5" y="-216.5" font-family="Helvetica,sans-Serif" font-size="10.00">IEnumerable</text>
<polyline fill="none" stroke="#bfbfbf" points="151.5,-209.5 229.5,-209.5 "/>
<text text-anchor="middle" x="190.5" y="-197.5" font-family="Helvetica,sans-Serif" font-size="10.00"> </text>
<polyline fill="none" stroke="#bfbfbf" points="151.5,-190.5 229.5,-190.5 "/>
<text text-anchor="middle" x="190.5" y="-178.5" font-family="Helvetica,sans-Serif" font-size="10.00"> </text>
</a>
</g>
</g>
<!-- Node3&#45;&gt;Node1 -->
<g id="edge2" class="edge">
<title>Node3&#45;&gt;Node1</title>
<path fill="none" stroke="midnightblue" d="M173.05,-162.27C168.93,-153.59 164.4,-144.07 159.87,-134.53"/>
<polygon fill="none" stroke="midnightblue" points="169.9,-163.79 177.35,-171.32 176.22,-160.79 169.9,-163.79"/>
</g>
</g>
</svg>
