<?xml version="1.0" encoding="UTF-8" standalone="no"?>
<!DOCTYPE svg PUBLIC "-//W3C//DTD SVG 1.1//EN"
 "http://www.w3.org/Graphics/SVG/1.1/DTD/svg11.dtd">
<!-- Generated by graphviz version 2.43.0 (0)
 -->
<!-- Title: VolumeControl.SDK.DataTemplateProviders.VolumeStep_NumericUpDown_DataTemplateProvider Pages: 1 -->
<svg width="220pt" height="331pt"
 viewBox="0.00 0.00 220.00 331.00" xmlns="http://www.w3.org/2000/svg" xmlns:xlink="http://www.w3.org/1999/xlink">
<g id="graph0" class="graph" transform="scale(1 1) rotate(0) translate(4 327)">
<title>VolumeControl.SDK.DataTemplateProviders.VolumeStep_NumericUpDown_DataTemplateProvider</title>
<!-- Node1 -->
<g id="node1" class="node">
<title>Node1</title>
<g id="a_node1"><a xlink:title="Ready&#45;to&#45;use Core.DataTemplateProvider that creates a NumericUpDown control with a MinValue of 1 and ...">
<polygon fill="#bfbfbf" stroke="black" points="0,-0.5 0,-79.5 212,-79.5 212,-0.5 0,-0.5"/>
<text text-anchor="start" x="8" y="-67.5" font-family="Helvetica,sans-Serif" font-size="10.00">VolumeControl.SDK.DataTemplate</text>
<text text-anchor="start" x="8" y="-56.5" font-family="Helvetica,sans-Serif" font-size="10.00">Providers.VolumeStep_NumericUpDown</text>
<text text-anchor="middle" x="106" y="-45.5" font-family="Helvetica,sans-Serif" font-size="10.00">_DataTemplateProvider</text>
<polyline fill="none" stroke="black" points="0,-38.5 212,-38.5 "/>
<text text-anchor="middle" x="106" y="-26.5" font-family="Helvetica,sans-Serif" font-size="10.00"> </text>
<polyline fill="none" stroke="black" points="0,-19.5 212,-19.5 "/>
<text text-anchor="start" x="8" y="-7.5" font-family="Helvetica,sans-Serif" font-size="10.00"># ProvideDataTemplate()</text>
</a>
</g>
</g>
<!-- Node2 -->
<g id="node2" class="node">
<title>Node2</title>
<g id="a_node2"><a xlink:href="class_volume_control_1_1_s_d_k_1_1_data_template_providers_1_1_numeric_up_down___data_template_provider.html" target="_top" xlink:title="Abstract DataTemplateProvider that implements GetNumericUpDownFactory.">
<polygon fill="none" stroke="black" points="19.5,-116.5 19.5,-184.5 192.5,-184.5 192.5,-116.5 19.5,-116.5"/>
<text text-anchor="start" x="27.5" y="-172.5" font-family="Helvetica,sans-Serif" font-size="10.00">NumericUpDown_DataTemplate</text>
<text text-anchor="middle" x="106" y="-161.5" font-family="Helvetica,sans-Serif" font-size="10.00">Provider</text>
<polyline fill="none" stroke="black" points="19.5,-154.5 192.5,-154.5 "/>
<text text-anchor="middle" x="106" y="-142.5" font-family="Helvetica,sans-Serif" font-size="10.00"> </text>
<polyline fill="none" stroke="black" points="19.5,-135.5 192.5,-135.5 "/>
<text text-anchor="start" x="27.5" y="-123.5" font-family="Helvetica,sans-Serif" font-size="10.00"># GetNumericUpDownFactory()</text>
</a>
</g>
</g>
<!-- Node2&#45;&gt;Node1 -->
<g id="edge1" class="edge">
<title>Node2&#45;&gt;Node1</title>
<path fill="none" stroke="midnightblue" d="M106,-106.27C106,-97.48 106,-88.28 106,-79.65"/>
<polygon fill="none" stroke="midnightblue" points="102.5,-106.36 106,-116.36 109.5,-106.36 102.5,-106.36"/>
</g>
<!-- Node3 -->
<g id="node3" class="node">
<title>Node3</title>
<g id="a_node3"><a xlink:href="class_volume_control_1_1_core_1_1_data_template_provider.html" target="_top" xlink:title="Provides a DataTemplate for some hardcoded type. &#160;The Type of a derived class can be specified for th...">
<polygon fill="none" stroke="black" points="15.5,-221.5 15.5,-322.5 196.5,-322.5 196.5,-221.5 15.5,-221.5"/>
<text text-anchor="middle" x="106" y="-310.5" font-family="Helvetica,sans-Serif" font-size="10.00">DataTemplateProvider</text>
<polyline fill="none" stroke="black" points="15.5,-303.5 196.5,-303.5 "/>
<text text-anchor="middle" x="106" y="-291.5" font-family="Helvetica,sans-Serif" font-size="10.00"> </text>
<polyline fill="none" stroke="black" points="15.5,-284.5 196.5,-284.5 "/>
<text text-anchor="start" x="23.5" y="-272.5" font-family="Helvetica,sans-Serif" font-size="10.00">+ LoadEmbeddedXamlResource()</text>
<text text-anchor="start" x="23.5" y="-261.5" font-family="Helvetica,sans-Serif" font-size="10.00">+ FromEmbeddedResource()</text>
<text text-anchor="start" x="23.5" y="-250.5" font-family="Helvetica,sans-Serif" font-size="10.00">+ FromEmbeddedResource()</text>
<text text-anchor="start" x="23.5" y="-239.5" font-family="Helvetica,sans-Serif" font-size="10.00">~ GetDataTemplate()</text>
<text text-anchor="start" x="23.5" y="-228.5" font-family="Helvetica,sans-Serif" font-size="10.00"># ProvideDataTemplate()</text>
</a>
</g>
</g>
<!-- Node3&#45;&gt;Node2 -->
<g id="edge2" class="edge">
<title>Node3&#45;&gt;Node2</title>
<path fill="none" stroke="midnightblue" d="M106,-211.17C106,-202.11 106,-193.05 106,-184.83"/>
<polygon fill="none" stroke="midnightblue" points="102.5,-211.36 106,-221.36 109.5,-211.36 102.5,-211.36"/>
</g>
</g>
</svg>
