<?xml version="1.0" encoding="UTF-8" standalone="no"?>
<!DOCTYPE svg PUBLIC "-//W3C//DTD SVG 1.1//EN"
 "http://www.w3.org/Graphics/SVG/1.1/DTD/svg11.dtd">
<!-- Generated by graphviz version 2.43.0 (0)
 -->
<!-- Title: VolumeControl.WPF.Collections.BindableEventType Pages: 1 -->
<!--zoomable 529 -->
<svg id="main" version="1.1" xmlns="http://www.w3.org/2000/svg" xmlns:xlink="http://www.w3.org/1999/xlink" xml:space="preserve" onload="init(evt)">
<style type="text/css"><![CDATA[
.edge:hover path { stroke: red; }
.edge:hover polygon { stroke: red; fill: red; }
]]></style>
<script type="text/javascript"><![CDATA[
var edges = document.getElementsByTagName('g');
if (edges && edges.length) {
  for (var i=0;i<edges.length;i++) {
    if (edges[i].id.substr(0,4)=='edge') {
      edges[i].setAttribute('class','edge');
    }
  }
}
]]></script>
        <defs>
                <circle id="rim" cx="0" cy="0" r="7"/>
                <circle id="rim2" cx="0" cy="0" r="3.5"/>
                <g id="zoomPlus">
                        <use xlink:href="#rim" fill="#404040">
                                <set attributeName="fill" to="#808080" begin="zoomplus.mouseover" end="zoomplus.mouseout"/>
                        </use>
                        <path d="M-4,0h8M0,-4v8" fill="none" stroke="white" stroke-width="1.5" pointer-events="none"/>
                </g>
                <g id="zoomMin">
                        <use xlink:href="#rim" fill="#404040">
                                <set attributeName="fill" to="#808080" begin="zoomminus.mouseover" end="zoomminus.mouseout"/>
                        </use>
                        <path d="M-4,0h8" fill="none" stroke="white" stroke-width="1.5" pointer-events="none"/>
                </g>
                <g id="dirArrow">
                        <path fill="none" stroke="white" stroke-width="1.5" d="M0,-3.0v7 M-2.5,-0.5L0,-3.0L2.5,-0.5"/>
                </g>
               <g id="resetDef">
                       <use xlink:href="#rim2" fill="#404040">
                               <set attributeName="fill" to="#808080" begin="reset.mouseover" end="reset.mouseout"/>
                       </use>
               </g>
        </defs>

<script type="text/javascript">
var viewWidth = 1441;
var viewHeight = 529;
var sectionId = 'dynsection-0';
</script>
<script xlink:href="svgpan.js"/>
<svg id="graph" class="graph">
<g id="viewport">
<title>VolumeControl.WPF.Collections.BindableEventType</title>
<!-- Node1 -->
<g id="node1" class="node">
<title>Node1</title>
<g id="a_node1"><a xlink:title="Provides the source for a WPF list component&#39;s ItemsSource property to expose a readable and writable...">
<polygon fill="#bfbfbf" stroke="black" points="718.5,-105.5 718.5,-404.5 890.5,-404.5 890.5,-105.5 718.5,-105.5"/>
<text text-anchor="start" x="726.5" y="-392.5" font-family="Helvetica,sans-Serif" font-size="10.00">VolumeControl.WPF.Collections.</text>
<text text-anchor="middle" x="804.5" y="-381.5" font-family="Helvetica,sans-Serif" font-size="10.00">BindableEventType</text>
<polyline fill="none" stroke="black" points="718.5,-374.5 890.5,-374.5 "/>
<text text-anchor="start" x="726.5" y="-362.5" font-family="Helvetica,sans-Serif" font-size="10.00">+ this[int index]</text>
<text text-anchor="start" x="726.5" y="-351.5" font-family="Helvetica,sans-Serif" font-size="10.00">+ this[int index]</text>
<text text-anchor="start" x="726.5" y="-340.5" font-family="Helvetica,sans-Serif" font-size="10.00">+ Name</text>
<text text-anchor="start" x="726.5" y="-329.5" font-family="Helvetica,sans-Serif" font-size="10.00">+ Value</text>
<text text-anchor="start" x="726.5" y="-318.5" font-family="Helvetica,sans-Serif" font-size="10.00">+ Options</text>
<text text-anchor="start" x="726.5" y="-307.5" font-family="Helvetica,sans-Serif" font-size="10.00">+ Count</text>
<text text-anchor="start" x="726.5" y="-296.5" font-family="Helvetica,sans-Serif" font-size="10.00">+ IsReadOnly</text>
<text text-anchor="start" x="726.5" y="-285.5" font-family="Helvetica,sans-Serif" font-size="10.00">+ IsSynchronized</text>
<text text-anchor="start" x="726.5" y="-274.5" font-family="Helvetica,sans-Serif" font-size="10.00">+ SyncRoot</text>
<text text-anchor="start" x="726.5" y="-263.5" font-family="Helvetica,sans-Serif" font-size="10.00">+ IsFixedSize</text>
<polyline fill="none" stroke="black" points="718.5,-256.5 890.5,-256.5 "/>
<text text-anchor="start" x="726.5" y="-244.5" font-family="Helvetica,sans-Serif" font-size="10.00">+ BindableEventType()</text>
<text text-anchor="start" x="726.5" y="-233.5" font-family="Helvetica,sans-Serif" font-size="10.00">+ BindableEventType()</text>
<text text-anchor="start" x="726.5" y="-222.5" font-family="Helvetica,sans-Serif" font-size="10.00">+ Add()</text>
<text text-anchor="start" x="726.5" y="-211.5" font-family="Helvetica,sans-Serif" font-size="10.00">+ Add()</text>
<text text-anchor="start" x="726.5" y="-200.5" font-family="Helvetica,sans-Serif" font-size="10.00">+ Clear()</text>
<text text-anchor="start" x="726.5" y="-189.5" font-family="Helvetica,sans-Serif" font-size="10.00">+ Contains()</text>
<text text-anchor="start" x="726.5" y="-178.5" font-family="Helvetica,sans-Serif" font-size="10.00">+ Contains()</text>
<text text-anchor="start" x="726.5" y="-167.5" font-family="Helvetica,sans-Serif" font-size="10.00">+ CopyTo()</text>
<text text-anchor="start" x="726.5" y="-156.5" font-family="Helvetica,sans-Serif" font-size="10.00">+ CopyTo()</text>
<text text-anchor="start" x="726.5" y="-145.5" font-family="Helvetica,sans-Serif" font-size="10.00">+ GetEnumerator()</text>
<text text-anchor="start" x="726.5" y="-134.5" font-family="Helvetica,sans-Serif" font-size="10.00">and 7 more...</text>
<text text-anchor="start" x="726.5" y="-123.5" font-family="Helvetica,sans-Serif" font-size="10.00"># NotifyPropertyChanged()</text>
<text text-anchor="start" x="726.5" y="-112.5" font-family="Helvetica,sans-Serif" font-size="10.00"># NotifyCollectionChanged()</text>
</a>
</g>
</g>
<!-- Node12 -->
<g id="node12" class="node">
<title>Node12</title>
<g id="a_node12"><a xlink:href="class_volume_control_1_1_w_p_f_1_1_collections_1_1_log_event_type_filter.html" target="_top" xlink:title="This is an extension of the BindableEventType object that initializes the BindableEventType....">
<polygon fill="none" stroke="black" points="718.5,-0.5 718.5,-68.5 890.5,-68.5 890.5,-0.5 718.5,-0.5"/>
<text text-anchor="start" x="726.5" y="-56.5" font-family="Helvetica,sans-Serif" font-size="10.00">VolumeControl.WPF.Collections.</text>
<text text-anchor="middle" x="804.5" y="-45.5" font-family="Helvetica,sans-Serif" font-size="10.00">LogEventTypeFilter</text>
<polyline fill="none" stroke="black" points="718.5,-38.5 890.5,-38.5 "/>
<text text-anchor="middle" x="804.5" y="-26.5" font-family="Helvetica,sans-Serif" font-size="10.00"> </text>
<polyline fill="none" stroke="black" points="718.5,-19.5 890.5,-19.5 "/>
<text text-anchor="start" x="726.5" y="-7.5" font-family="Helvetica,sans-Serif" font-size="10.00">+ LogEventTypeFilter()</text>
</a>
</g>
</g>
<!-- Node1&#45;&gt;Node12 -->
<g id="edge11" class="edge">
<title>Node1&#45;&gt;Node12</title>
<path fill="none" stroke="midnightblue" d="M804.5,-95.03C804.5,-85.45 804.5,-76.52 804.5,-68.64"/>
<polygon fill="none" stroke="midnightblue" points="801,-95.24 804.5,-105.24 808,-95.24 801,-95.24"/>
</g>
<!-- Node2 -->
<g id="node2" class="node">
<title>Node2</title>
<g id="a_node2"><a xlink:title=" ">
<polygon fill="none" stroke="#bfbfbf" points="0,-447 0,-515 167,-515 167,-447 0,-447"/>
<text text-anchor="start" x="8" y="-503" font-family="Helvetica,sans-Serif" font-size="10.00">ICollection&lt; BindableEvent</text>
<text text-anchor="middle" x="83.5" y="-492" font-family="Helvetica,sans-Serif" font-size="10.00">Type.BindableEventTypeFlag &gt;</text>
<polyline fill="none" stroke="#bfbfbf" points="0,-485 167,-485 "/>
<text text-anchor="middle" x="83.5" y="-473" font-family="Helvetica,sans-Serif" font-size="10.00"> </text>
<polyline fill="none" stroke="#bfbfbf" points="0,-466 167,-466 "/>
<text text-anchor="middle" x="83.5" y="-454" font-family="Helvetica,sans-Serif" font-size="10.00"> </text>
</a>
</g>
</g>
<!-- Node2&#45;&gt;Node1 -->
<g id="edge1" class="edge">
<title>Node2&#45;&gt;Node1</title>
<path fill="none" stroke="midnightblue" d="M169.07,-443.34C171.23,-442.54 173.38,-441.76 175.5,-441 366.41,-372.72 596.17,-309.89 718.29,-277.99"/>
<polygon fill="none" stroke="midnightblue" points="167.64,-440.14 159.54,-446.97 170.13,-446.69 167.64,-440.14"/>
</g>
<!-- Node3 -->
<g id="node3" class="node">
<title>Node3</title>
<g id="a_node3"><a xlink:title=" ">
<polygon fill="none" stroke="#bfbfbf" points="185,-447 185,-515 352,-515 352,-447 185,-447"/>
<text text-anchor="start" x="193" y="-503" font-family="Helvetica,sans-Serif" font-size="10.00">IEnumerable&lt; BindableEvent</text>
<text text-anchor="middle" x="268.5" y="-492" font-family="Helvetica,sans-Serif" font-size="10.00">Type.BindableEventTypeFlag &gt;</text>
<polyline fill="none" stroke="#bfbfbf" points="185,-485 352,-485 "/>
<text text-anchor="middle" x="268.5" y="-473" font-family="Helvetica,sans-Serif" font-size="10.00"> </text>
<polyline fill="none" stroke="#bfbfbf" points="185,-466 352,-466 "/>
<text text-anchor="middle" x="268.5" y="-454" font-family="Helvetica,sans-Serif" font-size="10.00"> </text>
</a>
</g>
</g>
<!-- Node3&#45;&gt;Node1 -->
<g id="edge2" class="edge">
<title>Node3&#45;&gt;Node1</title>
<path fill="none" stroke="midnightblue" d="M356.71,-443C358.32,-442.33 359.92,-441.66 361.5,-441 485.48,-389.12 629.03,-329.2 718.32,-291.95"/>
<polygon fill="none" stroke="midnightblue" points="355.27,-439.82 347.39,-446.91 357.97,-446.27 355.27,-439.82"/>
</g>
<!-- Node4 -->
<g id="node4" class="node">
<title>Node4</title>
<g id="a_node4"><a xlink:title=" ">
<polygon fill="none" stroke="#bfbfbf" points="370.5,-452.5 370.5,-509.5 448.5,-509.5 448.5,-452.5 370.5,-452.5"/>
<text text-anchor="middle" x="409.5" y="-497.5" font-family="Helvetica,sans-Serif" font-size="10.00">IEnumerable</text>
<polyline fill="none" stroke="#bfbfbf" points="370.5,-490.5 448.5,-490.5 "/>
<text text-anchor="middle" x="409.5" y="-478.5" font-family="Helvetica,sans-Serif" font-size="10.00"> </text>
<polyline fill="none" stroke="#bfbfbf" points="370.5,-471.5 448.5,-471.5 "/>
<text text-anchor="middle" x="409.5" y="-459.5" font-family="Helvetica,sans-Serif" font-size="10.00"> </text>
</a>
</g>
</g>
<!-- Node4&#45;&gt;Node1 -->
<g id="edge3" class="edge">
<title>Node4&#45;&gt;Node1</title>
<path fill="none" stroke="midnightblue" d="M450.04,-446.19C452.53,-444.39 455.03,-442.64 457.5,-441 542.53,-384.55 646.59,-330.94 718.45,-296.1"/>
<polygon fill="none" stroke="midnightblue" points="447.54,-443.68 441.65,-452.48 451.75,-449.28 447.54,-443.68"/>
</g>
<!-- Node5 -->
<g id="node5" class="node">
<title>Node5</title>
<g id="a_node5"><a xlink:title=" ">
<polygon fill="none" stroke="#bfbfbf" points="466.5,-447 466.5,-515 610.5,-515 610.5,-447 466.5,-447"/>
<text text-anchor="start" x="474.5" y="-503" font-family="Helvetica,sans-Serif" font-size="10.00">IList&lt; BindableEventType.</text>
<text text-anchor="middle" x="538.5" y="-492" font-family="Helvetica,sans-Serif" font-size="10.00">BindableEventTypeFlag &gt;</text>
<polyline fill="none" stroke="#bfbfbf" points="466.5,-485 610.5,-485 "/>
<text text-anchor="middle" x="538.5" y="-473" font-family="Helvetica,sans-Serif" font-size="10.00"> </text>
<polyline fill="none" stroke="#bfbfbf" points="466.5,-466 610.5,-466 "/>
<text text-anchor="middle" x="538.5" y="-454" font-family="Helvetica,sans-Serif" font-size="10.00"> </text>
</a>
</g>
</g>
<!-- Node5&#45;&gt;Node1 -->
<g id="edge4" class="edge">
<title>Node5&#45;&gt;Node1</title>
<path fill="none" stroke="midnightblue" d="M585.8,-440.17C622.49,-409.28 674.32,-365.63 718.32,-328.58"/>
<polygon fill="none" stroke="midnightblue" points="583.14,-437.83 577.75,-446.95 587.65,-443.18 583.14,-437.83"/>
</g>
<!-- Node6 -->
<g id="node6" class="node">
<title>Node6</title>
<g id="a_node6"><a xlink:title=" ">
<polygon fill="none" stroke="#bfbfbf" points="629,-441.5 629,-520.5 796,-520.5 796,-441.5 629,-441.5"/>
<text text-anchor="start" x="637" y="-508.5" font-family="Helvetica,sans-Serif" font-size="10.00">IReadOnlyCollection</text>
<text text-anchor="start" x="637" y="-497.5" font-family="Helvetica,sans-Serif" font-size="10.00">&lt; BindableEventType.Bindable</text>
<text text-anchor="middle" x="712.5" y="-486.5" font-family="Helvetica,sans-Serif" font-size="10.00">EventTypeFlag &gt;</text>
<polyline fill="none" stroke="#bfbfbf" points="629,-479.5 796,-479.5 "/>
<text text-anchor="middle" x="712.5" y="-467.5" font-family="Helvetica,sans-Serif" font-size="10.00"> </text>
<polyline fill="none" stroke="#bfbfbf" points="629,-460.5 796,-460.5 "/>
<text text-anchor="middle" x="712.5" y="-448.5" font-family="Helvetica,sans-Serif" font-size="10.00"> </text>
</a>
</g>
</g>
<!-- Node6&#45;&gt;Node1 -->
<g id="edge5" class="edge">
<title>Node6&#45;&gt;Node1</title>
<path fill="none" stroke="midnightblue" d="M732.13,-432.21C735.63,-423.69 739.43,-414.43 743.41,-404.75"/>
<polygon fill="none" stroke="midnightblue" points="728.88,-430.91 728.32,-441.49 735.35,-433.57 728.88,-430.91"/>
</g>
<!-- Node7 -->
<g id="node7" class="node">
<title>Node7</title>
<g id="a_node7"><a xlink:title=" ">
<polygon fill="none" stroke="#bfbfbf" points="814,-447 814,-515 981,-515 981,-447 814,-447"/>
<text text-anchor="start" x="822" y="-503" font-family="Helvetica,sans-Serif" font-size="10.00">IReadOnlyList&lt; BindableEvent</text>
<text text-anchor="middle" x="897.5" y="-492" font-family="Helvetica,sans-Serif" font-size="10.00">Type.BindableEventTypeFlag &gt;</text>
<polyline fill="none" stroke="#bfbfbf" points="814,-485 981,-485 "/>
<text text-anchor="middle" x="897.5" y="-473" font-family="Helvetica,sans-Serif" font-size="10.00"> </text>
<polyline fill="none" stroke="#bfbfbf" points="814,-466 981,-466 "/>
<text text-anchor="middle" x="897.5" y="-454" font-family="Helvetica,sans-Serif" font-size="10.00"> </text>
</a>
</g>
</g>
<!-- Node7&#45;&gt;Node1 -->
<g id="edge6" class="edge">
<title>Node7&#45;&gt;Node1</title>
<path fill="none" stroke="midnightblue" d="M879.84,-437.47C875.73,-427.57 871.12,-416.47 866.27,-404.77"/>
<polygon fill="none" stroke="midnightblue" points="876.71,-439.05 883.78,-446.95 883.18,-436.37 876.71,-439.05"/>
</g>
<!-- Node8 -->
<g id="node8" class="node">
<title>Node8</title>
<g id="a_node8"><a xlink:title=" ">
<polygon fill="none" stroke="#bfbfbf" points="999.5,-452.5 999.5,-509.5 1067.5,-509.5 1067.5,-452.5 999.5,-452.5"/>
<text text-anchor="middle" x="1033.5" y="-497.5" font-family="Helvetica,sans-Serif" font-size="10.00">ICollection</text>
<polyline fill="none" stroke="#bfbfbf" points="999.5,-490.5 1067.5,-490.5 "/>
<text text-anchor="middle" x="1033.5" y="-478.5" font-family="Helvetica,sans-Serif" font-size="10.00"> </text>
<polyline fill="none" stroke="#bfbfbf" points="999.5,-471.5 1067.5,-471.5 "/>
<text text-anchor="middle" x="1033.5" y="-459.5" font-family="Helvetica,sans-Serif" font-size="10.00"> </text>
</a>
</g>
</g>
<!-- Node8&#45;&gt;Node1 -->
<g id="edge7" class="edge">
<title>Node8&#45;&gt;Node1</title>
<path fill="none" stroke="midnightblue" d="M997.59,-444.88C968.94,-416.85 927.6,-376.41 890.51,-340.13"/>
<polygon fill="none" stroke="midnightblue" points="995.36,-447.59 1004.96,-452.08 1000.26,-442.59 995.36,-447.59"/>
</g>
<!-- Node9 -->
<g id="node9" class="node">
<title>Node9</title>
<g id="a_node9"><a xlink:title=" ">
<polygon fill="none" stroke="#bfbfbf" points="1086,-452.5 1086,-509.5 1123,-509.5 1123,-452.5 1086,-452.5"/>
<text text-anchor="middle" x="1104.5" y="-497.5" font-family="Helvetica,sans-Serif" font-size="10.00">IList</text>
<polyline fill="none" stroke="#bfbfbf" points="1086,-490.5 1123,-490.5 "/>
<text text-anchor="middle" x="1104.5" y="-478.5" font-family="Helvetica,sans-Serif" font-size="10.00"> </text>
<polyline fill="none" stroke="#bfbfbf" points="1086,-471.5 1123,-471.5 "/>
<text text-anchor="middle" x="1104.5" y="-459.5" font-family="Helvetica,sans-Serif" font-size="10.00"> </text>
</a>
</g>
</g>
<!-- Node9&#45;&gt;Node1 -->
<g id="edge8" class="edge">
<title>Node9&#45;&gt;Node1</title>
<path fill="none" stroke="midnightblue" d="M1079.7,-444.29C1078.65,-443.16 1077.58,-442.05 1076.5,-441 1020.78,-386.68 947.33,-337.78 890.8,-303.91"/>
<polygon fill="none" stroke="midnightblue" points="1077.24,-446.79 1086.37,-452.15 1082.57,-442.26 1077.24,-446.79"/>
</g>
<!-- Node10 -->
<g id="node10" class="node">
<title>Node10</title>
<g id="a_node10"><a xlink:title=" ">
<polygon fill="none" stroke="#bfbfbf" points="1141,-452.5 1141,-509.5 1274,-509.5 1274,-452.5 1141,-452.5"/>
<text text-anchor="middle" x="1207.5" y="-497.5" font-family="Helvetica,sans-Serif" font-size="10.00">INotifyPropertyChanged</text>
<polyline fill="none" stroke="#bfbfbf" points="1141,-490.5 1274,-490.5 "/>
<text text-anchor="middle" x="1207.5" y="-478.5" font-family="Helvetica,sans-Serif" font-size="10.00"> </text>
<polyline fill="none" stroke="#bfbfbf" points="1141,-471.5 1274,-471.5 "/>
<text text-anchor="middle" x="1207.5" y="-459.5" font-family="Helvetica,sans-Serif" font-size="10.00"> </text>
</a>
</g>
</g>
<!-- Node10&#45;&gt;Node1 -->
<g id="edge9" class="edge">
<title>Node10&#45;&gt;Node1</title>
<path fill="none" stroke="midnightblue" d="M1148.8,-447.38C1080.85,-409.61 968.33,-347.06 890.5,-303.8"/>
<polygon fill="none" stroke="midnightblue" points="1147.24,-450.51 1157.68,-452.31 1150.64,-444.39 1147.24,-450.51"/>
</g>
<!-- Node11 -->
<g id="node11" class="node">
<title>Node11</title>
<g id="a_node11"><a xlink:title=" ">
<polygon fill="none" stroke="#bfbfbf" points="1292.5,-452.5 1292.5,-509.5 1432.5,-509.5 1432.5,-452.5 1292.5,-452.5"/>
<text text-anchor="middle" x="1362.5" y="-497.5" font-family="Helvetica,sans-Serif" font-size="10.00">INotifyCollectionChanged</text>
<polyline fill="none" stroke="#bfbfbf" points="1292.5,-490.5 1432.5,-490.5 "/>
<text text-anchor="middle" x="1362.5" y="-478.5" font-family="Helvetica,sans-Serif" font-size="10.00"> </text>
<polyline fill="none" stroke="#bfbfbf" points="1292.5,-471.5 1432.5,-471.5 "/>
<text text-anchor="middle" x="1362.5" y="-459.5" font-family="Helvetica,sans-Serif" font-size="10.00"> </text>
</a>
</g>
</g>
<!-- Node11&#45;&gt;Node1 -->
<g id="edge10" class="edge">
<title>Node11&#45;&gt;Node1</title>
<path fill="none" stroke="midnightblue" d="M1299.03,-448.05C1293.8,-445.61 1288.58,-443.23 1283.5,-441 1148.2,-381.62 987.3,-321.58 890.67,-286.63"/>
<polygon fill="none" stroke="midnightblue" points="1297.87,-451.38 1308.41,-452.5 1300.87,-445.05 1297.87,-451.38"/>
</g>
</g>
</svg>
        <g id="navigator" transform="translate(0 0)" fill="#404254">
                <rect fill="#f2f5e9" fill-opacity="0.5" stroke="#606060" stroke-width=".5" x="0" y="0" width="60" height="60"/>
                <use id="zoomplus" xlink:href="#zoomPlus" x="17" y="9" onmousedown="handleZoom(evt,'in')"/>
                <use id="zoomminus" xlink:href="#zoomMin" x="42" y="9" onmousedown="handleZoom(evt,'out')"/>
                <use id="reset" xlink:href="#resetDef" x="30" y="36" onmousedown="handleReset()"/>
                <g id="arrowUp" xlink:href="#dirArrow" transform="translate(30 24)" onmousedown="handlePan(0,-1)">
                  <use xlink:href="#rim" fill="#404040">
                        <set attributeName="fill" to="#808080" begin="arrowUp.mouseover" end="arrowUp.mouseout"/>
                  </use>
                  <path fill="none" stroke="white" stroke-width="1.5" d="M0,-3.0v7 M-2.5,-0.5L0,-3.0L2.5,-0.5"/>
                </g>
                <g id="arrowRight" xlink:href="#dirArrow" transform="rotate(90) translate(36 -43)" onmousedown="handlePan(1,0)">
                  <use xlink:href="#rim" fill="#404040">
                        <set attributeName="fill" to="#808080" begin="arrowRight.mouseover" end="arrowRight.mouseout"/>
                  </use>
                  <path fill="none" stroke="white" stroke-width="1.5" d="M0,-3.0v7 M-2.5,-0.5L0,-3.0L2.5,-0.5"/>
                </g>
                <g id="arrowDown" xlink:href="#dirArrow" transform="rotate(180) translate(-30 -48)" onmousedown="handlePan(0,1)">
                  <use xlink:href="#rim" fill="#404040">
                        <set attributeName="fill" to="#808080" begin="arrowDown.mouseover" end="arrowDown.mouseout"/>
                  </use>
                  <path fill="none" stroke="white" stroke-width="1.5" d="M0,-3.0v7 M-2.5,-0.5L0,-3.0L2.5,-0.5"/>
                </g>
                <g id="arrowLeft" xlink:href="#dirArrow" transform="rotate(270) translate(-36 17)" onmousedown="handlePan(-1,0)">
                  <use xlink:href="#rim" fill="#404040">
                        <set attributeName="fill" to="#808080" begin="arrowLeft.mouseover" end="arrowLeft.mouseout"/>
                  </use>
                  <path fill="none" stroke="white" stroke-width="1.5" d="M0,-3.0v7 M-2.5,-0.5L0,-3.0L2.5,-0.5"/>
                </g>
        </g>
        <svg viewBox="0 0 15 15" width="100%" height="30px" preserveAspectRatio="xMaxYMin meet">
         <g id="arrow_out" transform="scale(0.3 0.3)">
          <a xlink:href="class_volume_control_1_1_w_p_f_1_1_collections_1_1_bindable_event_type__inherit__graph_org.svg" target="_base">
           <rect id="button" ry="5" rx="5" y="6" x="6" height="38" width="38"
                fill="#f2f5e9" fill-opacity="0.5" stroke="#606060" stroke-width="1.0"/>
           <path id="arrow"
             d="M 11.500037,31.436501 C 11.940474,20.09759 22.043105,11.32322 32.158766,21.979434 L 37.068811,17.246167 C 37.068811,17.246167 37.088388,32 37.088388,32 L 22.160133,31.978069 C 22.160133,31.978069 26.997745,27.140456 26.997745,27.140456 C 18.528582,18.264221 13.291696,25.230495 11.500037,31.436501 z"
             style="fill:#404040;"/>
          </a>
         </g>
        </svg>
</svg>
