<?xml version="1.0" encoding="UTF-8" standalone="no"?>
<!DOCTYPE svg PUBLIC "-//W3C//DTD SVG 1.1//EN"
 "http://www.w3.org/Graphics/SVG/1.1/DTD/svg11.dtd">
<!-- Generated by graphviz version 2.43.0 (0)
 -->
<!-- Title: VolumeControl.Core.Input.Hotkey Pages: 1 -->
<svg width="375pt" height="777pt"
 viewBox="0.00 0.00 374.50 777.00" xmlns="http://www.w3.org/2000/svg" xmlns:xlink="http://www.w3.org/1999/xlink">
<g id="graph0" class="graph" transform="scale(1 1) rotate(0) translate(4 773)">
<title>VolumeControl.Core.Input.Hotkey</title>
<!-- Node1 -->
<g id="node1" class="node">
<title>Node1</title>
<g id="a_node1"><a xlink:title="A hotkey that executes an action when pressed.">
<polygon fill="#bfbfbf" stroke="black" points="138,-149.5 138,-470.5 287,-470.5 287,-149.5 138,-149.5"/>
<text text-anchor="start" x="146" y="-458.5" font-family="Helvetica,sans-Serif" font-size="10.00">VolumeControl.Core.Input.</text>
<text text-anchor="middle" x="212.5" y="-447.5" font-family="Helvetica,sans-Serif" font-size="10.00">Hotkey</text>
<polyline fill="none" stroke="black" points="138,-440.5 287,-440.5 "/>
<text text-anchor="start" x="146" y="-428.5" font-family="Helvetica,sans-Serif" font-size="10.00">+ ID</text>
<text text-anchor="start" x="146" y="-417.5" font-family="Helvetica,sans-Serif" font-size="10.00">+ Name</text>
<text text-anchor="start" x="146" y="-406.5" font-family="Helvetica,sans-Serif" font-size="10.00">+ Key</text>
<text text-anchor="start" x="146" y="-395.5" font-family="Helvetica,sans-Serif" font-size="10.00">+ Modifiers</text>
<text text-anchor="start" x="146" y="-384.5" font-family="Helvetica,sans-Serif" font-size="10.00">+ Alt</text>
<text text-anchor="start" x="146" y="-373.5" font-family="Helvetica,sans-Serif" font-size="10.00">+ Shift</text>
<text text-anchor="start" x="146" y="-362.5" font-family="Helvetica,sans-Serif" font-size="10.00">+ Ctrl</text>
<text text-anchor="start" x="146" y="-351.5" font-family="Helvetica,sans-Serif" font-size="10.00">+ Win</text>
<text text-anchor="start" x="146" y="-340.5" font-family="Helvetica,sans-Serif" font-size="10.00">+ NoRepeat</text>
<text text-anchor="start" x="146" y="-329.5" font-family="Helvetica,sans-Serif" font-size="10.00">+ MessageHook</text>
<text text-anchor="start" x="146" y="-318.5" font-family="Helvetica,sans-Serif" font-size="10.00">+ IsRegistered</text>
<text text-anchor="start" x="146" y="-307.5" font-family="Helvetica,sans-Serif" font-size="10.00">+ Action</text>
<polyline fill="none" stroke="black" points="138,-300.5 287,-300.5 "/>
<text text-anchor="start" x="146" y="-288.5" font-family="Helvetica,sans-Serif" font-size="10.00">+ Hotkey()</text>
<text text-anchor="start" x="146" y="-277.5" font-family="Helvetica,sans-Serif" font-size="10.00">+ Hotkey()</text>
<text text-anchor="start" x="146" y="-266.5" font-family="Helvetica,sans-Serif" font-size="10.00">+ Hotkey()</text>
<text text-anchor="start" x="146" y="-255.5" font-family="Helvetica,sans-Serif" font-size="10.00">+ Hotkey()</text>
<text text-anchor="start" x="146" y="-244.5" font-family="Helvetica,sans-Serif" font-size="10.00">+ GetNewID()</text>
<text text-anchor="start" x="146" y="-233.5" font-family="Helvetica,sans-Serif" font-size="10.00">+ Dispose()</text>
<text text-anchor="start" x="146" y="-222.5" font-family="Helvetica,sans-Serif" font-size="10.00">~ NotifyPressed()</text>
<text text-anchor="start" x="146" y="-211.5" font-family="Helvetica,sans-Serif" font-size="10.00">~ NotifyRegistered()</text>
<text text-anchor="start" x="146" y="-200.5" font-family="Helvetica,sans-Serif" font-size="10.00">~ NotifyUnregistered()</text>
<text text-anchor="start" x="146" y="-189.5" font-family="Helvetica,sans-Serif" font-size="10.00"># NotifyPropertyChanged()</text>
<text text-anchor="start" x="146" y="-178.5" font-family="Helvetica,sans-Serif" font-size="10.00"># RegisterHotkey()</text>
<text text-anchor="start" x="146" y="-167.5" font-family="Helvetica,sans-Serif" font-size="10.00"># UnregisterHotkey()</text>
<text text-anchor="start" x="146" y="-156.5" font-family="Helvetica,sans-Serif" font-size="10.00"># Dispose()</text>
</a>
</g>
</g>
<!-- Node6 -->
<g id="node6" class="node">
<title>Node6</title>
<g id="a_node6"><a xlink:href="class_volume_control_1_1_core_1_1_input_1_1_hotkey_with_error.html" target="_top" xlink:title="A Hotkey that also tracks and reports registration errors.">
<polygon fill="none" stroke="black" points="140,-0.5 140,-112.5 285,-112.5 285,-0.5 140,-0.5"/>
<text text-anchor="start" x="148" y="-100.5" font-family="Helvetica,sans-Serif" font-size="10.00">VolumeControl.Core.Input.</text>
<text text-anchor="middle" x="212.5" y="-89.5" font-family="Helvetica,sans-Serif" font-size="10.00">HotkeyWithError</text>
<polyline fill="none" stroke="black" points="140,-82.5 285,-82.5 "/>
<text text-anchor="start" x="148" y="-70.5" font-family="Helvetica,sans-Serif" font-size="10.00">+ ErrorMessage</text>
<text text-anchor="start" x="148" y="-59.5" font-family="Helvetica,sans-Serif" font-size="10.00">+ HasError</text>
<polyline fill="none" stroke="black" points="140,-52.5 285,-52.5 "/>
<text text-anchor="start" x="148" y="-40.5" font-family="Helvetica,sans-Serif" font-size="10.00">+ HotkeyWithError()</text>
<text text-anchor="start" x="148" y="-29.5" font-family="Helvetica,sans-Serif" font-size="10.00">+ HotkeyWithError()</text>
<text text-anchor="start" x="148" y="-18.5" font-family="Helvetica,sans-Serif" font-size="10.00">+ HotkeyWithError()</text>
<text text-anchor="start" x="148" y="-7.5" font-family="Helvetica,sans-Serif" font-size="10.00">+ HotkeyWithError()</text>
</a>
</g>
</g>
<!-- Node1&#45;&gt;Node6 -->
<g id="edge7" class="edge">
<title>Node1&#45;&gt;Node6</title>
<path fill="none" stroke="midnightblue" d="M212.5,-139.19C212.5,-129.93 212.5,-121.03 212.5,-112.74"/>
<polygon fill="none" stroke="midnightblue" points="209,-139.36 212.5,-149.36 216,-139.36 209,-139.36"/>
</g>
<!-- Node2 -->
<g id="node2" class="node">
<title>Node2</title>
<g id="a_node2"><a xlink:href="interface_volume_control_1_1_core_1_1_input_1_1_i_hotkey.html" target="_top" xlink:title="Represents a Win32 global hotkey.">
<polygon fill="none" stroke="black" points="168,-507.5 168,-674.5 257,-674.5 257,-507.5 168,-507.5"/>
<text text-anchor="middle" x="212.5" y="-662.5" font-family="Helvetica,sans-Serif" font-size="10.00">IHotkey</text>
<polyline fill="none" stroke="black" points="168,-655.5 257,-655.5 "/>
<text text-anchor="start" x="176" y="-643.5" font-family="Helvetica,sans-Serif" font-size="10.00">+ Name</text>
<text text-anchor="start" x="176" y="-632.5" font-family="Helvetica,sans-Serif" font-size="10.00">+ ID</text>
<text text-anchor="start" x="176" y="-621.5" font-family="Helvetica,sans-Serif" font-size="10.00">+ Key</text>
<text text-anchor="start" x="176" y="-610.5" font-family="Helvetica,sans-Serif" font-size="10.00">+ Modifiers</text>
<text text-anchor="start" x="176" y="-599.5" font-family="Helvetica,sans-Serif" font-size="10.00">+ Alt</text>
<text text-anchor="start" x="176" y="-588.5" font-family="Helvetica,sans-Serif" font-size="10.00">+ Shift</text>
<text text-anchor="start" x="176" y="-577.5" font-family="Helvetica,sans-Serif" font-size="10.00">+ Ctrl</text>
<text text-anchor="start" x="176" y="-566.5" font-family="Helvetica,sans-Serif" font-size="10.00">+ Win</text>
<text text-anchor="start" x="176" y="-555.5" font-family="Helvetica,sans-Serif" font-size="10.00">+ NoRepeat</text>
<text text-anchor="start" x="176" y="-544.5" font-family="Helvetica,sans-Serif" font-size="10.00">+ IsRegistered</text>
<text text-anchor="start" x="176" y="-533.5" font-family="Helvetica,sans-Serif" font-size="10.00">+ Action</text>
<polyline fill="none" stroke="black" points="168,-526.5 257,-526.5 "/>
<text text-anchor="middle" x="212.5" y="-514.5" font-family="Helvetica,sans-Serif" font-size="10.00"> </text>
</a>
</g>
</g>
<!-- Node2&#45;&gt;Node1 -->
<g id="edge1" class="edge">
<title>Node2&#45;&gt;Node1</title>
<path fill="none" stroke="midnightblue" d="M212.5,-497.38C212.5,-488.71 212.5,-479.77 212.5,-470.71"/>
<polygon fill="none" stroke="midnightblue" points="209,-497.42 212.5,-507.42 216,-497.42 209,-497.42"/>
</g>
<!-- Node3 -->
<g id="node3" class="node">
<title>Node3</title>
<g id="a_node3"><a xlink:href="interface_volume_control_1_1_core_1_1_input_1_1_i_hotkey_message_hook.html" target="_top" xlink:title="Represents an object that can be added to the hotkey message hook system.">
<polygon fill="none" stroke="black" points="151,-711.5 151,-768.5 274,-768.5 274,-711.5 151,-711.5"/>
<text text-anchor="middle" x="212.5" y="-756.5" font-family="Helvetica,sans-Serif" font-size="10.00">IHotkeyMessageHook</text>
<polyline fill="none" stroke="black" points="151,-749.5 274,-749.5 "/>
<text text-anchor="start" x="159" y="-737.5" font-family="Helvetica,sans-Serif" font-size="10.00">+ MessageHook</text>
<polyline fill="none" stroke="black" points="151,-730.5 274,-730.5 "/>
<text text-anchor="middle" x="212.5" y="-718.5" font-family="Helvetica,sans-Serif" font-size="10.00"> </text>
</a>
</g>
</g>
<!-- Node3&#45;&gt;Node2 -->
<g id="edge2" class="edge">
<title>Node3&#45;&gt;Node2</title>
<path fill="none" stroke="midnightblue" d="M212.5,-701.35C212.5,-693.08 212.5,-684.01 212.5,-674.74"/>
<polygon fill="none" stroke="midnightblue" points="209,-701.35 212.5,-711.35 216,-701.35 209,-701.35"/>
</g>
<!-- Node4 -->
<g id="node4" class="node">
<title>Node4</title>
<g id="a_node4"><a xlink:title=" ">
<polygon fill="none" stroke="#bfbfbf" points="0,-711.5 0,-768.5 133,-768.5 133,-711.5 0,-711.5"/>
<text text-anchor="middle" x="66.5" y="-756.5" font-family="Helvetica,sans-Serif" font-size="10.00">INotifyPropertyChanged</text>
<polyline fill="none" stroke="#bfbfbf" points="0,-749.5 133,-749.5 "/>
<text text-anchor="middle" x="66.5" y="-737.5" font-family="Helvetica,sans-Serif" font-size="10.00"> </text>
<polyline fill="none" stroke="#bfbfbf" points="0,-730.5 133,-730.5 "/>
<text text-anchor="middle" x="66.5" y="-718.5" font-family="Helvetica,sans-Serif" font-size="10.00"> </text>
</a>
</g>
</g>
<!-- Node4&#45;&gt;Node1 -->
<g id="edge5" class="edge">
<title>Node4&#45;&gt;Node1</title>
<path fill="none" stroke="midnightblue" d="M79.27,-701.57C96.81,-650.14 129.45,-554.45 158.04,-470.66"/>
<polygon fill="none" stroke="midnightblue" points="75.88,-700.65 75.97,-711.25 82.51,-702.91 75.88,-700.65"/>
</g>
<!-- Node4&#45;&gt;Node2 -->
<g id="edge3" class="edge">
<title>Node4&#45;&gt;Node2</title>
<path fill="none" stroke="midnightblue" d="M101.07,-704.19C121.07,-684.05 146.46,-658.5 167.95,-636.86"/>
<polygon fill="none" stroke="midnightblue" points="98.53,-701.79 93.96,-711.35 103.49,-706.72 98.53,-701.79"/>
</g>
<!-- Node5 -->
<g id="node5" class="node">
<title>Node5</title>
<g id="a_node5"><a xlink:title=" ">
<polygon fill="none" stroke="#bfbfbf" points="292.5,-711.5 292.5,-768.5 366.5,-768.5 366.5,-711.5 292.5,-711.5"/>
<text text-anchor="middle" x="329.5" y="-756.5" font-family="Helvetica,sans-Serif" font-size="10.00">IDisposable</text>
<polyline fill="none" stroke="#bfbfbf" points="292.5,-749.5 366.5,-749.5 "/>
<text text-anchor="middle" x="329.5" y="-737.5" font-family="Helvetica,sans-Serif" font-size="10.00"> </text>
<polyline fill="none" stroke="#bfbfbf" points="292.5,-730.5 366.5,-730.5 "/>
<text text-anchor="middle" x="329.5" y="-718.5" font-family="Helvetica,sans-Serif" font-size="10.00"> </text>
</a>
</g>
</g>
<!-- Node5&#45;&gt;Node1 -->
<g id="edge6" class="edge">
<title>Node5&#45;&gt;Node1</title>
<path fill="none" stroke="midnightblue" d="M319.27,-701.57C305.21,-650.14 279.05,-554.45 256.15,-470.66"/>
<polygon fill="none" stroke="midnightblue" points="315.9,-702.52 321.91,-711.25 322.65,-700.68 315.9,-702.52"/>
</g>
<!-- Node5&#45;&gt;Node2 -->
<g id="edge4" class="edge">
<title>Node5&#45;&gt;Node2</title>
<path fill="none" stroke="midnightblue" d="M301.25,-703.51C288.04,-686.91 271.99,-666.74 257.18,-648.14"/>
<polygon fill="none" stroke="midnightblue" points="298.53,-705.71 307.49,-711.35 304,-701.35 298.53,-705.71"/>
</g>
</g>
</svg>
