<?xml version="1.0" encoding="UTF-8" standalone="no"?>
<!DOCTYPE svg PUBLIC "-//W3C//DTD SVG 1.1//EN"
 "http://www.w3.org/Graphics/SVG/1.1/DTD/svg11.dtd">
<!-- Generated by graphviz version 2.43.0 (0)
 -->
<!-- Title: VolumeControl.Hotkeys.VolumeStep_NumericUpDown_DataTemplateProvider Pages: 1 -->
<svg width="208pt" height="287pt"
 viewBox="0.00 0.00 208.00 287.00" xmlns="http://www.w3.org/2000/svg" xmlns:xlink="http://www.w3.org/1999/xlink">
<g id="graph0" class="graph" transform="scale(1 1) rotate(0) translate(4 283)">
<title>VolumeControl.Hotkeys.VolumeStep_NumericUpDown_DataTemplateProvider</title>
<!-- Node1 -->
<g id="node1" class="node">
<title>Node1</title>
<g id="a_node1"><a xlink:title="NumericUpDown_DataTemplateProvider with MinValue 1 and MaxValue 100">
<polygon fill="#bfbfbf" stroke="black" points="0,-0.5 0,-79.5 200,-79.5 200,-0.5 0,-0.5"/>
<text text-anchor="start" x="8" y="-67.5" font-family="Helvetica,sans-Serif" font-size="10.00">VolumeControl.Hotkeys.Volume</text>
<text text-anchor="start" x="8" y="-56.5" font-family="Helvetica,sans-Serif" font-size="10.00">Step_NumericUpDown_DataTemplate</text>
<text text-anchor="middle" x="100" y="-45.5" font-family="Helvetica,sans-Serif" font-size="10.00">Provider</text>
<polyline fill="none" stroke="black" points="0,-38.5 200,-38.5 "/>
<text text-anchor="middle" x="100" y="-26.5" font-family="Helvetica,sans-Serif" font-size="10.00"> </text>
<polyline fill="none" stroke="black" points="0,-19.5 200,-19.5 "/>
<text text-anchor="start" x="8" y="-7.5" font-family="Helvetica,sans-Serif" font-size="10.00">+ ProvideDataTemplate()</text>
</a>
</g>
</g>
<!-- Node2 -->
<g id="node2" class="node">
<title>Node2</title>
<g id="a_node2"><a xlink:href="class_volume_control_1_1_hotkeys_1_1_numeric_up_down___data_template_provider.html" target="_top" xlink:title=" ">
<polygon fill="none" stroke="black" points="13.5,-116.5 13.5,-184.5 186.5,-184.5 186.5,-116.5 13.5,-116.5"/>
<text text-anchor="start" x="21.5" y="-172.5" font-family="Helvetica,sans-Serif" font-size="10.00">NumericUpDown_DataTemplate</text>
<text text-anchor="middle" x="100" y="-161.5" font-family="Helvetica,sans-Serif" font-size="10.00">Provider</text>
<polyline fill="none" stroke="black" points="13.5,-154.5 186.5,-154.5 "/>
<text text-anchor="middle" x="100" y="-142.5" font-family="Helvetica,sans-Serif" font-size="10.00"> </text>
<polyline fill="none" stroke="black" points="13.5,-135.5 186.5,-135.5 "/>
<text text-anchor="start" x="21.5" y="-123.5" font-family="Helvetica,sans-Serif" font-size="10.00"># GetNumericUpDownFactory()</text>
</a>
</g>
</g>
<!-- Node2&#45;&gt;Node1 -->
<g id="edge1" class="edge">
<title>Node2&#45;&gt;Node1</title>
<path fill="none" stroke="midnightblue" d="M100,-106.27C100,-97.48 100,-88.28 100,-79.65"/>
<polygon fill="none" stroke="midnightblue" points="96.5,-106.36 100,-116.36 103.5,-106.36 96.5,-106.36"/>
</g>
<!-- Node3 -->
<g id="node3" class="node">
<title>Node3</title>
<g id="a_node3"><a xlink:href="class_volume_control_1_1_core_1_1_data_template_provider.html" target="_top" xlink:title="Provides a DataTemplate for some hardcoded type. &#160;The Type of a derived class can be specified for th...">
<polygon fill="none" stroke="black" points="30,-221.5 30,-278.5 170,-278.5 170,-221.5 30,-221.5"/>
<text text-anchor="middle" x="100" y="-266.5" font-family="Helvetica,sans-Serif" font-size="10.00">DataTemplateProvider</text>
<polyline fill="none" stroke="black" points="30,-259.5 170,-259.5 "/>
<text text-anchor="middle" x="100" y="-247.5" font-family="Helvetica,sans-Serif" font-size="10.00"> </text>
<polyline fill="none" stroke="black" points="30,-240.5 170,-240.5 "/>
<text text-anchor="start" x="38" y="-228.5" font-family="Helvetica,sans-Serif" font-size="10.00">+ ProvideDataTemplate()</text>
</a>
</g>
</g>
<!-- Node3&#45;&gt;Node2 -->
<g id="edge2" class="edge">
<title>Node3&#45;&gt;Node2</title>
<path fill="none" stroke="midnightblue" d="M100,-211.06C100,-202.39 100,-193.24 100,-184.79"/>
<polygon fill="none" stroke="midnightblue" points="96.5,-211.32 100,-221.32 103.5,-211.32 96.5,-211.32"/>
</g>
</g>
</svg>
