<?xml version="1.0" encoding="UTF-8" standalone="no"?>
<!DOCTYPE svg PUBLIC "-//W3C//DTD SVG 1.1//EN"
 "http://www.w3.org/Graphics/SVG/1.1/DTD/svg11.dtd">
<!-- Generated by graphviz version 2.43.0 (0)
 -->
<!-- Title: VolumeControl.Audio.AudioAPI Pages: 1 -->
<!--zoomable 988 -->
<svg id="main" version="1.1" xmlns="http://www.w3.org/2000/svg" xmlns:xlink="http://www.w3.org/1999/xlink" xml:space="preserve" onload="init(evt)">
<style type="text/css"><![CDATA[
.edge:hover path { stroke: red; }
.edge:hover polygon { stroke: red; fill: red; }
]]></style>
<script type="text/javascript"><![CDATA[
var edges = document.getElementsByTagName('g');
if (edges && edges.length) {
  for (var i=0;i<edges.length;i++) {
    if (edges[i].id.substr(0,4)=='edge') {
      edges[i].setAttribute('class','edge');
    }
  }
}
]]></script>
        <defs>
                <circle id="rim" cx="0" cy="0" r="7"/>
                <circle id="rim2" cx="0" cy="0" r="3.5"/>
                <g id="zoomPlus">
                        <use xlink:href="#rim" fill="#404040">
                                <set attributeName="fill" to="#808080" begin="zoomplus.mouseover" end="zoomplus.mouseout"/>
                        </use>
                        <path d="M-4,0h8M0,-4v8" fill="none" stroke="white" stroke-width="1.5" pointer-events="none"/>
                </g>
                <g id="zoomMin">
                        <use xlink:href="#rim" fill="#404040">
                                <set attributeName="fill" to="#808080" begin="zoomminus.mouseover" end="zoomminus.mouseout"/>
                        </use>
                        <path d="M-4,0h8" fill="none" stroke="white" stroke-width="1.5" pointer-events="none"/>
                </g>
                <g id="dirArrow">
                        <path fill="none" stroke="white" stroke-width="1.5" d="M0,-3.0v7 M-2.5,-0.5L0,-3.0L2.5,-0.5"/>
                </g>
               <g id="resetDef">
                       <use xlink:href="#rim2" fill="#404040">
                               <set attributeName="fill" to="#808080" begin="reset.mouseover" end="reset.mouseout"/>
                       </use>
               </g>
        </defs>

<script type="text/javascript">
var viewWidth = 678;
var viewHeight = 988;
var sectionId = 'dynsection-1';
</script>
<script xlink:href="svgpan.js"/>
<svg id="graph" class="graph">
<g id="viewport">
<title>VolumeControl.Audio.AudioAPI</title>
<!-- Node1 -->
<g id="node1" class="node">
<title>Node1</title>
<g id="a_node1"><a xlink:title="Contains methods related to audio devices, sessions, and the underlying selection mechanics responsib...">
<polygon fill="#bfbfbf" stroke="black" points="85.86,-0.5 85.86,-321.5 251.86,-321.5 251.86,-0.5 85.86,-0.5"/>
<text text-anchor="middle" x="168.86" y="-309.5" font-family="Helvetica,sans-Serif" font-size="10.00">VolumeControl.Audio.AudioAPI</text>
<polyline fill="none" stroke="black" points="85.86,-302.5 251.86,-302.5 "/>
<text text-anchor="start" x="93.86" y="-290.5" font-family="Helvetica,sans-Serif" font-size="10.00">+ ReloadIntervalMin</text>
<text text-anchor="start" x="93.86" y="-279.5" font-family="Helvetica,sans-Serif" font-size="10.00">+ ReloadIntervalMax</text>
<text text-anchor="start" x="93.86" y="-268.5" font-family="Helvetica,sans-Serif" font-size="10.00">+ ReloadOnInterval</text>
<text text-anchor="start" x="93.86" y="-257.5" font-family="Helvetica,sans-Serif" font-size="10.00">+ ReloadInterval</text>
<text text-anchor="start" x="93.86" y="-246.5" font-family="Helvetica,sans-Serif" font-size="10.00">+ ReloadOnHotkey</text>
<text text-anchor="start" x="93.86" y="-235.5" font-family="Helvetica,sans-Serif" font-size="10.00">+ Devices</text>
<text text-anchor="start" x="93.86" y="-224.5" font-family="Helvetica,sans-Serif" font-size="10.00">+ Sessions</text>
<text text-anchor="start" x="93.86" y="-213.5" font-family="Helvetica,sans-Serif" font-size="10.00">+ SelectedDevice</text>
<text text-anchor="start" x="93.86" y="-202.5" font-family="Helvetica,sans-Serif" font-size="10.00">+ SelectedSession</text>
<text text-anchor="start" x="93.86" y="-191.5" font-family="Helvetica,sans-Serif" font-size="10.00">+ LockSelectedDevice</text>
<text text-anchor="start" x="93.86" y="-180.5" font-family="Helvetica,sans-Serif" font-size="10.00">+ LockSelectedSession</text>
<text text-anchor="start" x="93.86" y="-169.5" font-family="Helvetica,sans-Serif" font-size="10.00">+ Target</text>
<text text-anchor="start" x="93.86" y="-158.5" font-family="Helvetica,sans-Serif" font-size="10.00">+ CheckAllDevices</text>
<text text-anchor="start" x="93.86" y="-147.5" font-family="Helvetica,sans-Serif" font-size="10.00">+ VolumeStepSize</text>
<text text-anchor="start" x="93.86" y="-136.5" font-family="Helvetica,sans-Serif" font-size="10.00">+ DeviceNotificationClient</text>
<polyline fill="none" stroke="black" points="85.86,-129.5 251.86,-129.5 "/>
<text text-anchor="start" x="93.86" y="-117.5" font-family="Helvetica,sans-Serif" font-size="10.00">+ AudioAPI()</text>
<text text-anchor="start" x="93.86" y="-106.5" font-family="Helvetica,sans-Serif" font-size="10.00">+ ReloadDeviceList()</text>
<text text-anchor="start" x="93.86" y="-95.5" font-family="Helvetica,sans-Serif" font-size="10.00">+ GetDefaultDevice()</text>
<text text-anchor="start" x="93.86" y="-84.5" font-family="Helvetica,sans-Serif" font-size="10.00">+ FindDevice()</text>
<text text-anchor="start" x="93.86" y="-73.5" font-family="Helvetica,sans-Serif" font-size="10.00">+ FindDeviceWithID()</text>
<text text-anchor="start" x="93.86" y="-62.5" font-family="Helvetica,sans-Serif" font-size="10.00">+ ReloadSessionList()</text>
<text text-anchor="start" x="93.86" y="-51.5" font-family="Helvetica,sans-Serif" font-size="10.00">+ FindSession()</text>
<text text-anchor="start" x="93.86" y="-40.5" font-family="Helvetica,sans-Serif" font-size="10.00">+ FindSessionWithID()</text>
<text text-anchor="start" x="93.86" y="-29.5" font-family="Helvetica,sans-Serif" font-size="10.00">+ FindSessionWithName()</text>
<text text-anchor="start" x="93.86" y="-18.5" font-family="Helvetica,sans-Serif" font-size="10.00">+ FindSessionWithIdentifier()</text>
<text text-anchor="start" x="93.86" y="-7.5" font-family="Helvetica,sans-Serif" font-size="10.00">and 27 more...</text>
</a>
</g>
</g>
<!-- Node2 -->
<g id="node2" class="node">
<title>Node2</title>
<g id="a_node2"><a xlink:title=" ">
<polygon fill="none" stroke="#bfbfbf" points="424.36,-922.5 424.36,-979.5 557.36,-979.5 557.36,-922.5 424.36,-922.5"/>
<text text-anchor="middle" x="490.86" y="-967.5" font-family="Helvetica,sans-Serif" font-size="10.00">INotifyPropertyChanged</text>
<polyline fill="none" stroke="#bfbfbf" points="424.36,-960.5 557.36,-960.5 "/>
<text text-anchor="middle" x="490.86" y="-948.5" font-family="Helvetica,sans-Serif" font-size="10.00"> </text>
<polyline fill="none" stroke="#bfbfbf" points="424.36,-941.5 557.36,-941.5 "/>
<text text-anchor="middle" x="490.86" y="-929.5" font-family="Helvetica,sans-Serif" font-size="10.00"> </text>
</a>
</g>
</g>
<!-- Node2&#45;&gt;Node1 -->
<g id="edge1" class="edge">
<title>Node2&#45;&gt;Node1</title>
<path fill="none" stroke="midnightblue" d="M413.85,-949.43C305.81,-946.8 117.63,-934.97 74.86,-885 -58.16,-729.57 14.25,-482.22 85.72,-320.96"/>
<polygon fill="none" stroke="midnightblue" points="413.98,-952.93 424.05,-949.65 414.13,-945.93 413.98,-952.93"/>
</g>
<!-- Node5 -->
<g id="node5" class="node">
<title>Node5</title>
<g id="a_node5"><a xlink:href="class_volume_control_1_1_audio_1_1_audio_device.html" target="_top" xlink:title="Represents an audio device endpoint.">
<polygon fill="none" stroke="black" points="176.86,-369.5 176.86,-745.5 326.86,-745.5 326.86,-369.5 176.86,-369.5"/>
<text text-anchor="start" x="184.86" y="-733.5" font-family="Helvetica,sans-Serif" font-size="10.00">VolumeControl.Audio.Audio</text>
<text text-anchor="middle" x="251.86" y="-722.5" font-family="Helvetica,sans-Serif" font-size="10.00">Device</text>
<polyline fill="none" stroke="black" points="176.86,-715.5 326.86,-715.5 "/>
<text text-anchor="start" x="184.86" y="-703.5" font-family="Helvetica,sans-Serif" font-size="10.00">+ Name</text>
<text text-anchor="start" x="184.86" y="-692.5" font-family="Helvetica,sans-Serif" font-size="10.00">+ DeviceID</text>
<text text-anchor="start" x="184.86" y="-681.5" font-family="Helvetica,sans-Serif" font-size="10.00">+ InstanceID</text>
<text text-anchor="start" x="184.86" y="-670.5" font-family="Helvetica,sans-Serif" font-size="10.00">+ IconPath</text>
<text text-anchor="start" x="184.86" y="-659.5" font-family="Helvetica,sans-Serif" font-size="10.00">+ SmallIcon</text>
<text text-anchor="start" x="184.86" y="-648.5" font-family="Helvetica,sans-Serif" font-size="10.00">+ LargeIcon</text>
<text text-anchor="start" x="184.86" y="-637.5" font-family="Helvetica,sans-Serif" font-size="10.00">+ Icon</text>
<text text-anchor="start" x="184.86" y="-626.5" font-family="Helvetica,sans-Serif" font-size="10.00">+ DeviceFriendlyName</text>
<text text-anchor="start" x="184.86" y="-615.5" font-family="Helvetica,sans-Serif" font-size="10.00">+ FriendlyName</text>
<text text-anchor="start" x="184.86" y="-604.5" font-family="Helvetica,sans-Serif" font-size="10.00">+ Properties</text>
<text text-anchor="start" x="184.86" y="-593.5" font-family="Helvetica,sans-Serif" font-size="10.00">+ State</text>
<text text-anchor="start" x="184.86" y="-582.5" font-family="Helvetica,sans-Serif" font-size="10.00">+ SessionManager</text>
<text text-anchor="start" x="184.86" y="-571.5" font-family="Helvetica,sans-Serif" font-size="10.00">+ EndpointVolumeObject</text>
<text text-anchor="start" x="184.86" y="-560.5" font-family="Helvetica,sans-Serif" font-size="10.00">+ VolumeRange</text>
<text text-anchor="start" x="184.86" y="-549.5" font-family="Helvetica,sans-Serif" font-size="10.00">+ NativeEndpointVolume</text>
<text text-anchor="start" x="184.86" y="-538.5" font-family="Helvetica,sans-Serif" font-size="10.00">+ EndpointVolume</text>
<text text-anchor="start" x="184.86" y="-527.5" font-family="Helvetica,sans-Serif" font-size="10.00">+ EndpointMuted</text>
<text text-anchor="start" x="184.86" y="-516.5" font-family="Helvetica,sans-Serif" font-size="10.00">+ NotificationGuid</text>
<text text-anchor="start" x="184.86" y="-505.5" font-family="Helvetica,sans-Serif" font-size="10.00">+ OnVolumeNotification</text>
<text text-anchor="start" x="184.86" y="-494.5" font-family="Helvetica,sans-Serif" font-size="10.00">~ float</text>
<polyline fill="none" stroke="black" points="176.86,-487.5 326.86,-487.5 "/>
<text text-anchor="start" x="184.86" y="-475.5" font-family="Helvetica,sans-Serif" font-size="10.00">+ AudioDevice()</text>
<text text-anchor="start" x="184.86" y="-464.5" font-family="Helvetica,sans-Serif" font-size="10.00">+ GetAudioSessions()</text>
<text text-anchor="start" x="184.86" y="-453.5" font-family="Helvetica,sans-Serif" font-size="10.00">+ Dispose()</text>
<text text-anchor="start" x="184.86" y="-442.5" font-family="Helvetica,sans-Serif" font-size="10.00">+ Equals()</text>
<text text-anchor="start" x="184.86" y="-431.5" font-family="Helvetica,sans-Serif" font-size="10.00">+ Equals()</text>
<text text-anchor="start" x="184.86" y="-420.5" font-family="Helvetica,sans-Serif" font-size="10.00">+ Equals()</text>
<text text-anchor="start" x="184.86" y="-409.5" font-family="Helvetica,sans-Serif" font-size="10.00">+ GetHashCode()</text>
<text text-anchor="start" x="184.86" y="-398.5" font-family="Helvetica,sans-Serif" font-size="10.00">~ ForwardRemoved()</text>
<text text-anchor="start" x="184.86" y="-387.5" font-family="Helvetica,sans-Serif" font-size="10.00">~ ForwardStateChanged()</text>
<text text-anchor="start" x="184.86" y="-376.5" font-family="Helvetica,sans-Serif" font-size="10.00">~ NotifyPropertyChanged()</text>
</a>
</g>
</g>
<!-- Node2&#45;&gt;Node5 -->
<g id="edge8" class="edge">
<title>Node2&#45;&gt;Node5</title>
<path fill="none" stroke="midnightblue" d="M500.75,-912.29C508.06,-875.16 512.28,-818.93 482.86,-783 440.19,-730.87 387.48,-789.3 335.86,-746 332.86,-743.48 329.96,-740.83 327.15,-738.06"/>
<polygon fill="none" stroke="midnightblue" points="497.29,-911.72 498.63,-922.23 504.14,-913.18 497.29,-911.72"/>
</g>
<!-- Node6 -->
<g id="node6" class="node">
<title>Node6</title>
<g id="a_node6"><a xlink:href="interface_volume_control_1_1_audio_1_1_interfaces_1_1_i_device.html" target="_top" xlink:title="Represents an audio device.">
<polygon fill="none" stroke="black" points="529.86,-783.5 529.86,-884.5 669.86,-884.5 669.86,-783.5 529.86,-783.5"/>
<text text-anchor="middle" x="599.86" y="-872.5" font-family="Helvetica,sans-Serif" font-size="10.00">IDevice</text>
<polyline fill="none" stroke="black" points="529.86,-865.5 669.86,-865.5 "/>
<text text-anchor="start" x="537.86" y="-853.5" font-family="Helvetica,sans-Serif" font-size="10.00">+ Name</text>
<text text-anchor="start" x="537.86" y="-842.5" font-family="Helvetica,sans-Serif" font-size="10.00">+ DeviceID</text>
<text text-anchor="start" x="537.86" y="-831.5" font-family="Helvetica,sans-Serif" font-size="10.00">+ NativeEndpointVolume</text>
<text text-anchor="start" x="537.86" y="-820.5" font-family="Helvetica,sans-Serif" font-size="10.00">+ EndpointVolume</text>
<text text-anchor="start" x="537.86" y="-809.5" font-family="Helvetica,sans-Serif" font-size="10.00">+ EndpointMuted</text>
<polyline fill="none" stroke="black" points="529.86,-802.5 669.86,-802.5 "/>
<text text-anchor="middle" x="599.86" y="-790.5" font-family="Helvetica,sans-Serif" font-size="10.00"> </text>
</a>
</g>
</g>
<!-- Node2&#45;&gt;Node6 -->
<g id="edge7" class="edge">
<title>Node2&#45;&gt;Node6</title>
<path fill="none" stroke="midnightblue" d="M523.99,-915.05C533.03,-905.51 543,-895 552.65,-884.81"/>
<polygon fill="none" stroke="midnightblue" points="521.31,-912.79 516.97,-922.45 526.39,-917.6 521.31,-912.79"/>
</g>
<!-- Node3 -->
<g id="node3" class="node">
<title>Node3</title>
<g id="a_node3"><a xlink:title=" ">
<polygon fill="none" stroke="#bfbfbf" points="344.86,-529 344.86,-586 480.86,-586 480.86,-529 344.86,-529"/>
<text text-anchor="middle" x="412.86" y="-574" font-family="Helvetica,sans-Serif" font-size="10.00">INotifyPropertyChanging</text>
<polyline fill="none" stroke="#bfbfbf" points="344.86,-567 480.86,-567 "/>
<text text-anchor="middle" x="412.86" y="-555" font-family="Helvetica,sans-Serif" font-size="10.00"> </text>
<polyline fill="none" stroke="#bfbfbf" points="344.86,-548 480.86,-548 "/>
<text text-anchor="middle" x="412.86" y="-536" font-family="Helvetica,sans-Serif" font-size="10.00"> </text>
</a>
</g>
</g>
<!-- Node3&#45;&gt;Node1 -->
<g id="edge2" class="edge">
<title>Node3&#45;&gt;Node1</title>
<path fill="none" stroke="midnightblue" d="M401.09,-519.09C388.02,-480.13 364.9,-418.07 335.86,-369 312.06,-328.76 280.96,-287.97 252.06,-253.36"/>
<polygon fill="none" stroke="midnightblue" points="397.89,-520.55 404.35,-528.95 404.53,-518.36 397.89,-520.55"/>
</g>
<!-- Node4 -->
<g id="node4" class="node">
<title>Node4</title>
<g id="a_node4"><a xlink:title=" ">
<polygon fill="none" stroke="#bfbfbf" points="83.86,-805.5 83.86,-862.5 157.86,-862.5 157.86,-805.5 83.86,-805.5"/>
<text text-anchor="middle" x="120.86" y="-850.5" font-family="Helvetica,sans-Serif" font-size="10.00">IDisposable</text>
<polyline fill="none" stroke="#bfbfbf" points="83.86,-843.5 157.86,-843.5 "/>
<text text-anchor="middle" x="120.86" y="-831.5" font-family="Helvetica,sans-Serif" font-size="10.00"> </text>
<polyline fill="none" stroke="#bfbfbf" points="83.86,-824.5 157.86,-824.5 "/>
<text text-anchor="middle" x="120.86" y="-812.5" font-family="Helvetica,sans-Serif" font-size="10.00"> </text>
</a>
</g>
</g>
<!-- Node4&#45;&gt;Node1 -->
<g id="edge3" class="edge">
<title>Node4&#45;&gt;Node1</title>
<path fill="none" stroke="midnightblue" d="M123.56,-795.28C129.94,-706.16 146.23,-478.34 157.44,-321.73"/>
<polygon fill="none" stroke="midnightblue" points="120.06,-795.22 122.84,-805.45 127.04,-795.72 120.06,-795.22"/>
</g>
<!-- Node4&#45;&gt;Node5 -->
<g id="edge9" class="edge">
<title>Node4&#45;&gt;Node5</title>
<path fill="none" stroke="midnightblue" d="M138.35,-796.36C148.64,-774.81 162.42,-745.92 176.84,-715.71"/>
<polygon fill="none" stroke="midnightblue" points="135.17,-794.89 134.02,-805.42 141.49,-797.91 135.17,-794.89"/>
</g>
<!-- Node5&#45;&gt;Node1 -->
<g id="edge4" class="edge">
<title>Node5&#45;&gt;Node1</title>
<path fill="none" stroke="#404040" d="M212.49,-369.36C209.98,-357.42 207.46,-345.43 204.96,-333.57"/>
<polygon fill="none" stroke="#404040" points="204.95,-333.5 199.8,-328.45 202.48,-321.76 207.63,-326.8 204.95,-333.5"/>
<text text-anchor="middle" x="249.86" y="-343" font-family="Helvetica,sans-Serif" font-size="10.00"> +DefaultDevice</text>
</g>
<!-- Node6&#45;&gt;Node5 -->
<g id="edge5" class="edge">
<title>Node6&#45;&gt;Node5</title>
<path fill="none" stroke="midnightblue" d="M540.41,-777.4C532.57,-772.16 524.31,-767.51 515.86,-764 478.74,-748.58 368.47,-769.51 335.86,-746 332.83,-743.81 329.9,-741.48 327.07,-739.04"/>
<polygon fill="none" stroke="midnightblue" points="538.56,-780.38 548.74,-783.29 542.6,-774.66 538.56,-780.38"/>
</g>
<!-- Node7 -->
<g id="node7" class="node">
<title>Node7</title>
<g id="a_node7"><a xlink:href="interface_volume_control_1_1_audio_1_1_interfaces_1_1_i_targetable.html" target="_top" xlink:title="Base interface type for IDevice and IProcess/ISession.">
<polygon fill="none" stroke="black" points="575.36,-922.5 575.36,-979.5 646.36,-979.5 646.36,-922.5 575.36,-922.5"/>
<text text-anchor="middle" x="610.86" y="-967.5" font-family="Helvetica,sans-Serif" font-size="10.00">ITargetable</text>
<polyline fill="none" stroke="black" points="575.36,-960.5 646.36,-960.5 "/>
<text text-anchor="middle" x="610.86" y="-948.5" font-family="Helvetica,sans-Serif" font-size="10.00"> </text>
<polyline fill="none" stroke="black" points="575.36,-941.5 646.36,-941.5 "/>
<text text-anchor="middle" x="610.86" y="-929.5" font-family="Helvetica,sans-Serif" font-size="10.00"> </text>
</a>
</g>
</g>
<!-- Node7&#45;&gt;Node6 -->
<g id="edge6" class="edge">
<title>Node7&#45;&gt;Node6</title>
<path fill="none" stroke="midnightblue" d="M607.27,-912.47C606.43,-903.64 605.52,-894.09 604.63,-884.81"/>
<polygon fill="none" stroke="midnightblue" points="603.79,-912.83 608.23,-922.45 610.76,-912.17 603.79,-912.83"/>
</g>
<!-- Node8 -->
<g id="node8" class="node">
<title>Node8</title>
<g id="a_node8"><a xlink:title=" ">
<polygon fill="none" stroke="#bfbfbf" points="175.86,-805.5 175.86,-862.5 327.86,-862.5 327.86,-805.5 175.86,-805.5"/>
<text text-anchor="middle" x="251.86" y="-850.5" font-family="Helvetica,sans-Serif" font-size="10.00">IEquatable&lt; AudioDevice &gt;</text>
<polyline fill="none" stroke="#bfbfbf" points="175.86,-843.5 327.86,-843.5 "/>
<text text-anchor="middle" x="251.86" y="-831.5" font-family="Helvetica,sans-Serif" font-size="10.00"> </text>
<polyline fill="none" stroke="#bfbfbf" points="175.86,-824.5 327.86,-824.5 "/>
<text text-anchor="middle" x="251.86" y="-812.5" font-family="Helvetica,sans-Serif" font-size="10.00"> </text>
</a>
</g>
</g>
<!-- Node8&#45;&gt;Node5 -->
<g id="edge10" class="edge">
<title>Node8&#45;&gt;Node5</title>
<path fill="none" stroke="midnightblue" d="M251.86,-795.3C251.86,-781.25 251.86,-764.2 251.86,-745.75"/>
<polygon fill="none" stroke="midnightblue" points="248.36,-795.42 251.86,-805.42 255.36,-795.42 248.36,-795.42"/>
</g>
<!-- Node9 -->
<g id="node9" class="node">
<title>Node9</title>
<g id="a_node9"><a xlink:title=" ">
<polygon fill="none" stroke="#bfbfbf" points="345.86,-805.5 345.86,-862.5 473.86,-862.5 473.86,-805.5 345.86,-805.5"/>
<text text-anchor="middle" x="409.86" y="-850.5" font-family="Helvetica,sans-Serif" font-size="10.00">IEquatable&lt; IDevice &gt;</text>
<polyline fill="none" stroke="#bfbfbf" points="345.86,-843.5 473.86,-843.5 "/>
<text text-anchor="middle" x="409.86" y="-831.5" font-family="Helvetica,sans-Serif" font-size="10.00"> </text>
<polyline fill="none" stroke="#bfbfbf" points="345.86,-824.5 473.86,-824.5 "/>
<text text-anchor="middle" x="409.86" y="-812.5" font-family="Helvetica,sans-Serif" font-size="10.00"> </text>
</a>
</g>
</g>
<!-- Node9&#45;&gt;Node5 -->
<g id="edge11" class="edge">
<title>Node9&#45;&gt;Node5</title>
<path fill="none" stroke="midnightblue" d="M375.78,-797.61C362.29,-782.47 347.31,-764.13 335.86,-746 332.82,-741.17 329.82,-736.22 326.89,-731.17"/>
<polygon fill="none" stroke="midnightblue" points="373.36,-800.15 382.67,-805.21 378.55,-795.45 373.36,-800.15"/>
</g>
</g>
</svg>
        <g id="navigator" transform="translate(0 0)" fill="#404254">
                <rect fill="#f2f5e9" fill-opacity="0.5" stroke="#606060" stroke-width=".5" x="0" y="0" width="60" height="60"/>
                <use id="zoomplus" xlink:href="#zoomPlus" x="17" y="9" onmousedown="handleZoom(evt,'in')"/>
                <use id="zoomminus" xlink:href="#zoomMin" x="42" y="9" onmousedown="handleZoom(evt,'out')"/>
                <use id="reset" xlink:href="#resetDef" x="30" y="36" onmousedown="handleReset()"/>
                <g id="arrowUp" xlink:href="#dirArrow" transform="translate(30 24)" onmousedown="handlePan(0,-1)">
                  <use xlink:href="#rim" fill="#404040">
                        <set attributeName="fill" to="#808080" begin="arrowUp.mouseover" end="arrowUp.mouseout"/>
                  </use>
                  <path fill="none" stroke="white" stroke-width="1.5" d="M0,-3.0v7 M-2.5,-0.5L0,-3.0L2.5,-0.5"/>
                </g>
                <g id="arrowRight" xlink:href="#dirArrow" transform="rotate(90) translate(36 -43)" onmousedown="handlePan(1,0)">
                  <use xlink:href="#rim" fill="#404040">
                        <set attributeName="fill" to="#808080" begin="arrowRight.mouseover" end="arrowRight.mouseout"/>
                  </use>
                  <path fill="none" stroke="white" stroke-width="1.5" d="M0,-3.0v7 M-2.5,-0.5L0,-3.0L2.5,-0.5"/>
                </g>
                <g id="arrowDown" xlink:href="#dirArrow" transform="rotate(180) translate(-30 -48)" onmousedown="handlePan(0,1)">
                  <use xlink:href="#rim" fill="#404040">
                        <set attributeName="fill" to="#808080" begin="arrowDown.mouseover" end="arrowDown.mouseout"/>
                  </use>
                  <path fill="none" stroke="white" stroke-width="1.5" d="M0,-3.0v7 M-2.5,-0.5L0,-3.0L2.5,-0.5"/>
                </g>
                <g id="arrowLeft" xlink:href="#dirArrow" transform="rotate(270) translate(-36 17)" onmousedown="handlePan(-1,0)">
                  <use xlink:href="#rim" fill="#404040">
                        <set attributeName="fill" to="#808080" begin="arrowLeft.mouseover" end="arrowLeft.mouseout"/>
                  </use>
                  <path fill="none" stroke="white" stroke-width="1.5" d="M0,-3.0v7 M-2.5,-0.5L0,-3.0L2.5,-0.5"/>
                </g>
        </g>
        <svg viewBox="0 0 15 15" width="100%" height="30px" preserveAspectRatio="xMaxYMin meet">
         <g id="arrow_out" transform="scale(0.3 0.3)">
          <a xlink:href="class_volume_control_1_1_audio_1_1_audio_a_p_i__coll__graph_org.svg" target="_base">
           <rect id="button" ry="5" rx="5" y="6" x="6" height="38" width="38"
                fill="#f2f5e9" fill-opacity="0.5" stroke="#606060" stroke-width="1.0"/>
           <path id="arrow"
             d="M 11.500037,31.436501 C 11.940474,20.09759 22.043105,11.32322 32.158766,21.979434 L 37.068811,17.246167 C 37.068811,17.246167 37.088388,32 37.088388,32 L 22.160133,31.978069 C 22.160133,31.978069 26.997745,27.140456 26.997745,27.140456 C 18.528582,18.264221 13.291696,25.230495 11.500037,31.436501 z"
             style="fill:#404040;"/>
          </a>
         </g>
        </svg>
</svg>
