<?xml version="1.0" encoding="UTF-8" standalone="no"?>
<!DOCTYPE svg PUBLIC "-//W3C//DTD SVG 1.1//EN"
 "http://www.w3.org/Graphics/SVG/1.1/DTD/svg11.dtd">
<!-- Generated by graphviz version 2.43.0 (0)
 -->
<!-- Title: AppConfig.ConfigurationFile.Save Pages: 1 -->
<svg width="392pt" height="88pt"
 viewBox="0.00 0.00 392.00 88.00" xmlns="http://www.w3.org/2000/svg" xmlns:xlink="http://www.w3.org/1999/xlink">
<g id="graph0" class="graph" transform="scale(1 1) rotate(0) translate(4 84)">
<title>AppConfig.ConfigurationFile.Save</title>
<!-- Node1 -->
<g id="node1" class="node">
<title>Node1</title>
<g id="a_node1"><a xlink:title="Saves config values to the JSON file specified by Location">
<polygon fill="#bfbfbf" stroke="black" points="205,-30 205,-49 384,-49 384,-30 205,-30"/>
<text text-anchor="middle" x="294.5" y="-37" font-family="Helvetica,sans-Serif" font-size="10.00">AppConfig.ConfigurationFile.Save</text>
</a>
</g>
</g>
<!-- Node2 -->
<g id="node2" class="node">
<title>Node2</title>
<g id="a_node2"><a xlink:href="class_volume_control_1_1_hotkeys_1_1_hotkey_manager.html#a4c1092556d6a7c93638c37d256fb9edb" target="_top" xlink:title="Resets the current hotkey list by replacing it with Config.Hotkeys_Default.">
<polygon fill="none" stroke="black" points="0,-49.5 0,-79.5 169,-79.5 169,-49.5 0,-49.5"/>
<text text-anchor="start" x="8" y="-67.5" font-family="Helvetica,sans-Serif" font-size="10.00">VolumeControl.Hotkeys.Hotkey</text>
<text text-anchor="middle" x="84.5" y="-56.5" font-family="Helvetica,sans-Serif" font-size="10.00">Manager.ResetHotkeys</text>
</a>
</g>
</g>
<!-- Node1&#45;&gt;Node2 -->
<g id="edge1" class="edge">
<title>Node1&#45;&gt;Node2</title>
<path fill="none" stroke="midnightblue" d="M204.11,-50.24C192.46,-51.64 180.56,-53.08 169,-54.46"/>
<polygon fill="midnightblue" stroke="midnightblue" points="204.76,-53.69 214.27,-49.02 203.92,-46.74 204.76,-53.69"/>
</g>
<!-- Node3 -->
<g id="node3" class="node">
<title>Node3</title>
<g id="a_node3"><a xlink:href="class_volume_control_1_1_hotkeys_1_1_hotkey_manager.html#ad179564abe8e8dcf492a365cffdcad6c" target="_top" xlink:title="Saves all hotkeys to the settings file.">
<polygon fill="none" stroke="black" points="0,-0.5 0,-30.5 169,-30.5 169,-0.5 0,-0.5"/>
<text text-anchor="start" x="8" y="-18.5" font-family="Helvetica,sans-Serif" font-size="10.00">VolumeControl.Hotkeys.Hotkey</text>
<text text-anchor="middle" x="84.5" y="-7.5" font-family="Helvetica,sans-Serif" font-size="10.00">Manager.SaveHotkeys</text>
</a>
</g>
</g>
<!-- Node1&#45;&gt;Node3 -->
<g id="edge2" class="edge">
<title>Node1&#45;&gt;Node3</title>
<path fill="none" stroke="midnightblue" d="M200.95,-28.82C190.4,-27.6 179.69,-26.37 169.27,-25.17"/>
<polygon fill="midnightblue" stroke="midnightblue" points="200.66,-32.31 210.99,-29.98 201.46,-25.36 200.66,-32.31"/>
</g>
</g>
</svg>
