<?xml version="1.0" encoding="UTF-8" standalone="no"?>
<!DOCTYPE svg PUBLIC "-//W3C//DTD SVG 1.1//EN"
 "http://www.w3.org/Graphics/SVG/1.1/DTD/svg11.dtd">
<!-- Generated by graphviz version 2.43.0 (0)
 -->
<!-- Title: VolumeControl.SDK.DataTemplateProviders.VolumeLevel_NumericUpDown_DataTemplateProvider Pages: 1 -->
<svg width="224pt" height="331pt"
 viewBox="0.00 0.00 224.00 331.00" xmlns="http://www.w3.org/2000/svg" xmlns:xlink="http://www.w3.org/1999/xlink">
<g id="graph0" class="graph" transform="scale(1 1) rotate(0) translate(4 327)">
<title>VolumeControl.SDK.DataTemplateProviders.VolumeLevel_NumericUpDown_DataTemplateProvider</title>
<!-- Node1 -->
<g id="node1" class="node">
<title>Node1</title>
<g id="a_node1"><a xlink:title="Ready&#45;to&#45;use Core.DataTemplateProvider that creates a NumericUpDown control with a MinValue of 0 and ...">
<polygon fill="#bfbfbf" stroke="black" points="0,-0.5 0,-79.5 216,-79.5 216,-0.5 0,-0.5"/>
<text text-anchor="start" x="8" y="-67.5" font-family="Helvetica,sans-Serif" font-size="10.00">VolumeControl.SDK.DataTemplate</text>
<text text-anchor="start" x="8" y="-56.5" font-family="Helvetica,sans-Serif" font-size="10.00">Providers.VolumeLevel_NumericUpDown</text>
<text text-anchor="middle" x="108" y="-45.5" font-family="Helvetica,sans-Serif" font-size="10.00">_DataTemplateProvider</text>
<polyline fill="none" stroke="black" points="0,-38.5 216,-38.5 "/>
<text text-anchor="middle" x="108" y="-26.5" font-family="Helvetica,sans-Serif" font-size="10.00"> </text>
<polyline fill="none" stroke="black" points="0,-19.5 216,-19.5 "/>
<text text-anchor="start" x="8" y="-7.5" font-family="Helvetica,sans-Serif" font-size="10.00"># ProvideDataTemplate()</text>
</a>
</g>
</g>
<!-- Node2 -->
<g id="node2" class="node">
<title>Node2</title>
<g id="a_node2"><a xlink:href="class_volume_control_1_1_s_d_k_1_1_data_template_providers_1_1_numeric_up_down___data_template_provider.html" target="_top" xlink:title="Abstract DataTemplateProvider that implements GetNumericUpDownFactory.">
<polygon fill="none" stroke="black" points="21.5,-116.5 21.5,-184.5 194.5,-184.5 194.5,-116.5 21.5,-116.5"/>
<text text-anchor="start" x="29.5" y="-172.5" font-family="Helvetica,sans-Serif" font-size="10.00">NumericUpDown_DataTemplate</text>
<text text-anchor="middle" x="108" y="-161.5" font-family="Helvetica,sans-Serif" font-size="10.00">Provider</text>
<polyline fill="none" stroke="black" points="21.5,-154.5 194.5,-154.5 "/>
<text text-anchor="middle" x="108" y="-142.5" font-family="Helvetica,sans-Serif" font-size="10.00"> </text>
<polyline fill="none" stroke="black" points="21.5,-135.5 194.5,-135.5 "/>
<text text-anchor="start" x="29.5" y="-123.5" font-family="Helvetica,sans-Serif" font-size="10.00"># GetNumericUpDownFactory()</text>
</a>
</g>
</g>
<!-- Node2&#45;&gt;Node1 -->
<g id="edge1" class="edge">
<title>Node2&#45;&gt;Node1</title>
<path fill="none" stroke="midnightblue" d="M108,-106.27C108,-97.48 108,-88.28 108,-79.65"/>
<polygon fill="none" stroke="midnightblue" points="104.5,-106.36 108,-116.36 111.5,-106.36 104.5,-106.36"/>
</g>
<!-- Node3 -->
<g id="node3" class="node">
<title>Node3</title>
<g id="a_node3"><a xlink:href="class_volume_control_1_1_core_1_1_data_template_provider.html" target="_top" xlink:title="Provides a DataTemplate for some hardcoded type. &#160;The Type of a derived class can be specified for th...">
<polygon fill="none" stroke="black" points="17.5,-221.5 17.5,-322.5 198.5,-322.5 198.5,-221.5 17.5,-221.5"/>
<text text-anchor="middle" x="108" y="-310.5" font-family="Helvetica,sans-Serif" font-size="10.00">DataTemplateProvider</text>
<polyline fill="none" stroke="black" points="17.5,-303.5 198.5,-303.5 "/>
<text text-anchor="middle" x="108" y="-291.5" font-family="Helvetica,sans-Serif" font-size="10.00"> </text>
<polyline fill="none" stroke="black" points="17.5,-284.5 198.5,-284.5 "/>
<text text-anchor="start" x="25.5" y="-272.5" font-family="Helvetica,sans-Serif" font-size="10.00">+ LoadEmbeddedXamlResource()</text>
<text text-anchor="start" x="25.5" y="-261.5" font-family="Helvetica,sans-Serif" font-size="10.00">+ FromEmbeddedResource()</text>
<text text-anchor="start" x="25.5" y="-250.5" font-family="Helvetica,sans-Serif" font-size="10.00">+ FromEmbeddedResource()</text>
<text text-anchor="start" x="25.5" y="-239.5" font-family="Helvetica,sans-Serif" font-size="10.00">~ GetDataTemplate()</text>
<text text-anchor="start" x="25.5" y="-228.5" font-family="Helvetica,sans-Serif" font-size="10.00"># ProvideDataTemplate()</text>
</a>
</g>
</g>
<!-- Node3&#45;&gt;Node2 -->
<g id="edge2" class="edge">
<title>Node3&#45;&gt;Node2</title>
<path fill="none" stroke="midnightblue" d="M108,-211.17C108,-202.11 108,-193.05 108,-184.83"/>
<polygon fill="none" stroke="midnightblue" points="104.5,-211.36 108,-221.36 111.5,-211.36 104.5,-211.36"/>
</g>
</g>
</svg>
