<?xml version="1.0" encoding="UTF-8" standalone="no"?>
<!DOCTYPE svg PUBLIC "-//W3C//DTD SVG 1.1//EN"
 "http://www.w3.org/Graphics/SVG/1.1/DTD/svg11.dtd">
<!-- Generated by graphviz version 2.43.0 (0)
 -->
<!-- Title: VolumeControl.HotkeyActions.ActionTargetSpecifierDataTemplateProvider Pages: 1 -->
<svg width="196pt" height="215pt"
 viewBox="0.00 0.00 196.00 215.00" xmlns="http://www.w3.org/2000/svg" xmlns:xlink="http://www.w3.org/1999/xlink">
<g id="graph0" class="graph" transform="scale(1 1) rotate(0) translate(4 211)">
<title>VolumeControl.HotkeyActions.ActionTargetSpecifierDataTemplateProvider</title>
<!-- Node1 -->
<g id="node1" class="node">
<title>Node1</title>
<g id="a_node1"><a xlink:title=" ">
<polygon fill="#bfbfbf" stroke="black" points="0,-0.5 0,-79.5 188,-79.5 188,-0.5 0,-0.5"/>
<text text-anchor="start" x="8" y="-67.5" font-family="Helvetica,sans-Serif" font-size="10.00">VolumeControl.HotkeyActions.</text>
<text text-anchor="start" x="8" y="-56.5" font-family="Helvetica,sans-Serif" font-size="10.00">ActionTargetSpecifierDataTemplate</text>
<text text-anchor="middle" x="94" y="-45.5" font-family="Helvetica,sans-Serif" font-size="10.00">Provider</text>
<polyline fill="none" stroke="black" points="0,-38.5 188,-38.5 "/>
<text text-anchor="middle" x="94" y="-26.5" font-family="Helvetica,sans-Serif" font-size="10.00"> </text>
<polyline fill="none" stroke="black" points="0,-19.5 188,-19.5 "/>
<text text-anchor="start" x="8" y="-7.5" font-family="Helvetica,sans-Serif" font-size="10.00">+ ProvideDataTemplate()</text>
</a>
</g>
</g>
<!-- Node2 -->
<g id="node2" class="node">
<title>Node2</title>
<g id="a_node2"><a xlink:href="class_volume_control_1_1_core_1_1_data_template_provider.html" target="_top" xlink:title="Provides a DataTemplate for some hardcoded type. &#160;The Type of a derived class can be specified for th...">
<polygon fill="none" stroke="black" points="3.5,-116.5 3.5,-206.5 184.5,-206.5 184.5,-116.5 3.5,-116.5"/>
<text text-anchor="middle" x="94" y="-194.5" font-family="Helvetica,sans-Serif" font-size="10.00">DataTemplateProvider</text>
<polyline fill="none" stroke="black" points="3.5,-187.5 184.5,-187.5 "/>
<text text-anchor="middle" x="94" y="-175.5" font-family="Helvetica,sans-Serif" font-size="10.00"> </text>
<polyline fill="none" stroke="black" points="3.5,-168.5 184.5,-168.5 "/>
<text text-anchor="start" x="11.5" y="-156.5" font-family="Helvetica,sans-Serif" font-size="10.00">+ ProvideDataTemplate()</text>
<text text-anchor="start" x="11.5" y="-145.5" font-family="Helvetica,sans-Serif" font-size="10.00">+ LoadEmbeddedXamlResource()</text>
<text text-anchor="start" x="11.5" y="-134.5" font-family="Helvetica,sans-Serif" font-size="10.00">+ FromEmbeddedResource()</text>
<text text-anchor="start" x="11.5" y="-123.5" font-family="Helvetica,sans-Serif" font-size="10.00">+ FromEmbeddedResource()</text>
</a>
</g>
</g>
<!-- Node2&#45;&gt;Node1 -->
<g id="edge1" class="edge">
<title>Node2&#45;&gt;Node1</title>
<path fill="none" stroke="midnightblue" d="M94,-106.08C94,-97.23 94,-88.23 94,-79.86"/>
<polygon fill="none" stroke="midnightblue" points="90.5,-106.34 94,-116.34 97.5,-106.34 90.5,-106.34"/>
</g>
</g>
</svg>
