<?xml version="1.0" encoding="UTF-8" standalone="no"?>
<!DOCTYPE svg PUBLIC "-//W3C//DTD SVG 1.1//EN"
 "http://www.w3.org/Graphics/SVG/1.1/DTD/svg11.dtd">
<!-- Generated by graphviz version 2.43.0 (0)
 -->
<!-- Title: HotkeyLib.WindowsHotkey Pages: 1 -->
<svg width="394pt" height="518pt"
 viewBox="0.00 0.00 393.50 518.00" xmlns="http://www.w3.org/2000/svg" xmlns:xlink="http://www.w3.org/1999/xlink">
<g id="graph0" class="graph" transform="scale(1 1) rotate(0) translate(4 514)">
<title>HotkeyLib.WindowsHotkey</title>
<!-- Node1 -->
<g id="node1" class="node">
<title>Node1</title>
<g id="a_node1"><a xlink:title="A simple Windows hotkey.">
<polygon fill="#bfbfbf" stroke="black" points="74,-0.5 74,-244.5 221,-244.5 221,-0.5 74,-0.5"/>
<text text-anchor="middle" x="147.5" y="-232.5" font-family="Helvetica,sans-Serif" font-size="10.00">HotkeyLib.WindowsHotkey</text>
<polyline fill="none" stroke="black" points="74,-225.5 221,-225.5 "/>
<text text-anchor="start" x="82" y="-213.5" font-family="Helvetica,sans-Serif" font-size="10.00">+ ID</text>
<text text-anchor="start" x="82" y="-202.5" font-family="Helvetica,sans-Serif" font-size="10.00">+ Valid</text>
<text text-anchor="start" x="82" y="-191.5" font-family="Helvetica,sans-Serif" font-size="10.00">+ Key</text>
<text text-anchor="start" x="82" y="-180.5" font-family="Helvetica,sans-Serif" font-size="10.00">+ Mod</text>
<text text-anchor="start" x="82" y="-169.5" font-family="Helvetica,sans-Serif" font-size="10.00">+ Alt</text>
<text text-anchor="start" x="82" y="-158.5" font-family="Helvetica,sans-Serif" font-size="10.00">+ Ctrl</text>
<text text-anchor="start" x="82" y="-147.5" font-family="Helvetica,sans-Serif" font-size="10.00">+ Shift</text>
<text text-anchor="start" x="82" y="-136.5" font-family="Helvetica,sans-Serif" font-size="10.00">+ Win</text>
<text text-anchor="start" x="82" y="-125.5" font-family="Helvetica,sans-Serif" font-size="10.00">+ Registered</text>
<polyline fill="none" stroke="black" points="74,-118.5 221,-118.5 "/>
<text text-anchor="start" x="82" y="-106.5" font-family="Helvetica,sans-Serif" font-size="10.00">+ WindowsHotkey()</text>
<text text-anchor="start" x="82" y="-95.5" font-family="Helvetica,sans-Serif" font-size="10.00">+ NotifyPressed()</text>
<text text-anchor="start" x="82" y="-84.5" font-family="Helvetica,sans-Serif" font-size="10.00">+ ToString()</text>
<text text-anchor="start" x="82" y="-73.5" font-family="Helvetica,sans-Serif" font-size="10.00">+ Serialize()</text>
<text text-anchor="start" x="82" y="-62.5" font-family="Helvetica,sans-Serif" font-size="10.00">+ GetFullIdentifier()</text>
<text text-anchor="start" x="82" y="-51.5" font-family="Helvetica,sans-Serif" font-size="10.00">+ Dispose()</text>
<text text-anchor="start" x="82" y="-40.5" font-family="Helvetica,sans-Serif" font-size="10.00">~ Register()</text>
<text text-anchor="start" x="82" y="-29.5" font-family="Helvetica,sans-Serif" font-size="10.00">~ Unregister()</text>
<text text-anchor="start" x="82" y="-18.5" font-family="Helvetica,sans-Serif" font-size="10.00">~ Reregister()</text>
<text text-anchor="start" x="82" y="-7.5" font-family="Helvetica,sans-Serif" font-size="10.00"># Dispose()</text>
</a>
</g>
</g>
<!-- Node2 -->
<g id="node2" class="node">
<title>Node2</title>
<g id="a_node2"><a xlink:href="interface_hotkey_lib_1_1_i_key_combo.html" target="_top" xlink:title="Represents a combination of one keyboard key and any number of modifier keys.">
<polygon fill="none" stroke="black" points="62,-281.5 62,-415.5 139,-415.5 139,-281.5 62,-281.5"/>
<text text-anchor="middle" x="100.5" y="-403.5" font-family="Helvetica,sans-Serif" font-size="10.00">IKeyCombo</text>
<polyline fill="none" stroke="black" points="62,-396.5 139,-396.5 "/>
<text text-anchor="start" x="70" y="-384.5" font-family="Helvetica,sans-Serif" font-size="10.00">+ Key</text>
<text text-anchor="start" x="70" y="-373.5" font-family="Helvetica,sans-Serif" font-size="10.00">+ Mod</text>
<text text-anchor="start" x="70" y="-362.5" font-family="Helvetica,sans-Serif" font-size="10.00">+ Alt</text>
<text text-anchor="start" x="70" y="-351.5" font-family="Helvetica,sans-Serif" font-size="10.00">+ Ctrl</text>
<text text-anchor="start" x="70" y="-340.5" font-family="Helvetica,sans-Serif" font-size="10.00">+ Shift</text>
<text text-anchor="start" x="70" y="-329.5" font-family="Helvetica,sans-Serif" font-size="10.00">+ Win</text>
<text text-anchor="start" x="70" y="-318.5" font-family="Helvetica,sans-Serif" font-size="10.00">+ Valid</text>
<polyline fill="none" stroke="black" points="62,-311.5 139,-311.5 "/>
<text text-anchor="start" x="70" y="-299.5" font-family="Helvetica,sans-Serif" font-size="10.00">+ ToString()</text>
<text text-anchor="start" x="70" y="-288.5" font-family="Helvetica,sans-Serif" font-size="10.00">+ Serialize()</text>
</a>
</g>
</g>
<!-- Node2&#45;&gt;Node1 -->
<g id="edge1" class="edge">
<title>Node2&#45;&gt;Node1</title>
<path fill="none" stroke="midnightblue" d="M116.5,-271.23C118.31,-262.6 120.19,-253.66 122.08,-244.63"/>
<polygon fill="none" stroke="midnightblue" points="113.04,-270.7 114.41,-281.2 119.89,-272.13 113.04,-270.7"/>
</g>
<!-- Node3 -->
<g id="node3" class="node">
<title>Node3</title>
<g id="a_node3"><a xlink:title=" ">
<polygon fill="none" stroke="#bfbfbf" points="0,-452.5 0,-509.5 133,-509.5 133,-452.5 0,-452.5"/>
<text text-anchor="middle" x="66.5" y="-497.5" font-family="Helvetica,sans-Serif" font-size="10.00">INotifyPropertyChanged</text>
<polyline fill="none" stroke="#bfbfbf" points="0,-490.5 133,-490.5 "/>
<text text-anchor="middle" x="66.5" y="-478.5" font-family="Helvetica,sans-Serif" font-size="10.00"> </text>
<polyline fill="none" stroke="#bfbfbf" points="0,-471.5 133,-471.5 "/>
<text text-anchor="middle" x="66.5" y="-459.5" font-family="Helvetica,sans-Serif" font-size="10.00"> </text>
</a>
</g>
</g>
<!-- Node3&#45;&gt;Node1 -->
<g id="edge4" class="edge">
<title>Node3&#45;&gt;Node1</title>
<path fill="none" stroke="midnightblue" d="M56.49,-442.64C47.31,-402.08 37.27,-335.75 52.5,-281 57.46,-263.16 65.06,-245.31 73.83,-228.39"/>
<polygon fill="none" stroke="midnightblue" points="53.09,-443.45 58.79,-452.38 59.9,-441.84 53.09,-443.45"/>
</g>
<!-- Node3&#45;&gt;Node2 -->
<g id="edge2" class="edge">
<title>Node3&#45;&gt;Node2</title>
<path fill="none" stroke="midnightblue" d="M76.29,-442.44C78.49,-433.98 80.89,-424.77 83.3,-415.53"/>
<polygon fill="none" stroke="midnightblue" points="72.84,-441.76 73.71,-452.32 79.62,-443.53 72.84,-441.76"/>
</g>
<!-- Node4 -->
<g id="node4" class="node">
<title>Node4</title>
<g id="a_node4"><a xlink:title=" ">
<polygon fill="none" stroke="#bfbfbf" points="157.5,-320 157.5,-377 231.5,-377 231.5,-320 157.5,-320"/>
<text text-anchor="middle" x="194.5" y="-365" font-family="Helvetica,sans-Serif" font-size="10.00">IDisposable</text>
<polyline fill="none" stroke="#bfbfbf" points="157.5,-358 231.5,-358 "/>
<text text-anchor="middle" x="194.5" y="-346" font-family="Helvetica,sans-Serif" font-size="10.00"> </text>
<polyline fill="none" stroke="#bfbfbf" points="157.5,-339 231.5,-339 "/>
<text text-anchor="middle" x="194.5" y="-327" font-family="Helvetica,sans-Serif" font-size="10.00"> </text>
</a>
</g>
</g>
<!-- Node4&#45;&gt;Node1 -->
<g id="edge3" class="edge">
<title>Node4&#45;&gt;Node1</title>
<path fill="none" stroke="midnightblue" d="M186.56,-309.68C182.73,-291.39 177.89,-268.32 172.93,-244.7"/>
<polygon fill="none" stroke="midnightblue" points="183.16,-310.52 188.64,-319.58 190.01,-309.08 183.16,-310.52"/>
</g>
<!-- Node5 -->
<g id="node5" class="node">
<title>Node5</title>
<g id="a_node5"><a xlink:title=" ">
<polygon fill="none" stroke="#bfbfbf" points="249.5,-320 249.5,-377 385.5,-377 385.5,-320 249.5,-320"/>
<text text-anchor="middle" x="317.5" y="-365" font-family="Helvetica,sans-Serif" font-size="10.00">INotifyPropertyChanging</text>
<polyline fill="none" stroke="#bfbfbf" points="249.5,-358 385.5,-358 "/>
<text text-anchor="middle" x="317.5" y="-346" font-family="Helvetica,sans-Serif" font-size="10.00"> </text>
<polyline fill="none" stroke="#bfbfbf" points="249.5,-339 385.5,-339 "/>
<text text-anchor="middle" x="317.5" y="-327" font-family="Helvetica,sans-Serif" font-size="10.00"> </text>
</a>
</g>
</g>
<!-- Node5&#45;&gt;Node1 -->
<g id="edge5" class="edge">
<title>Node5&#45;&gt;Node1</title>
<path fill="none" stroke="midnightblue" d="M290.24,-311.58C271.49,-286.88 245.64,-252.81 221.08,-220.45"/>
<polygon fill="none" stroke="midnightblue" points="287.48,-313.73 296.31,-319.58 293.06,-309.5 287.48,-313.73"/>
</g>
</g>
</svg>
