<?xml version="1.0" encoding="UTF-8" standalone="no"?>
<!DOCTYPE svg PUBLIC "-//W3C//DTD SVG 1.1//EN"
 "http://www.w3.org/Graphics/SVG/1.1/DTD/svg11.dtd">
<!-- Generated by graphviz version 2.43.0 (0)
 -->
<!-- Title: VolumeControl.Hotkeys.SessionSpecifier Pages: 1 -->
<svg width="180pt" height="171pt"
 viewBox="0.00 0.00 180.00 171.00" xmlns="http://www.w3.org/2000/svg" xmlns:xlink="http://www.w3.org/1999/xlink">
<g id="graph0" class="graph" transform="scale(1 1) rotate(0) translate(4 167)">
<title>VolumeControl.Hotkeys.SessionSpecifier</title>
<!-- Node1 -->
<g id="node1" class="node">
<title>Node1</title>
<g id="a_node1"><a xlink:title=" ">
<polygon fill="#bfbfbf" stroke="black" points="0,-0.5 0,-68.5 172,-68.5 172,-0.5 0,-0.5"/>
<text text-anchor="start" x="8" y="-56.5" font-family="Helvetica,sans-Serif" font-size="10.00">VolumeControl.Hotkeys.Session</text>
<text text-anchor="middle" x="86" y="-45.5" font-family="Helvetica,sans-Serif" font-size="10.00">Specifier</text>
<polyline fill="none" stroke="black" points="0,-38.5 172,-38.5 "/>
<text text-anchor="middle" x="86" y="-26.5" font-family="Helvetica,sans-Serif" font-size="10.00"> </text>
<polyline fill="none" stroke="black" points="0,-19.5 172,-19.5 "/>
<text text-anchor="start" x="8" y="-7.5" font-family="Helvetica,sans-Serif" font-size="10.00">+ AddNewTarget()</text>
</a>
</g>
</g>
<!-- Node2 -->
<g id="node2" class="node">
<title>Node2</title>
<g id="a_node2"><a xlink:href="class_volume_control_1_1_core_1_1_input_1_1_actions_1_1_action_target_specifier.html" target="_top" xlink:title=" ">
<polygon fill="none" stroke="black" points="26.5,-105.5 26.5,-162.5 145.5,-162.5 145.5,-105.5 26.5,-105.5"/>
<text text-anchor="middle" x="86" y="-150.5" font-family="Helvetica,sans-Serif" font-size="10.00">ActionTargetSpecifier</text>
<polyline fill="none" stroke="black" points="26.5,-143.5 145.5,-143.5 "/>
<text text-anchor="start" x="34.5" y="-131.5" font-family="Helvetica,sans-Serif" font-size="10.00">+ Targets</text>
<polyline fill="none" stroke="black" points="26.5,-124.5 145.5,-124.5 "/>
<text text-anchor="start" x="34.5" y="-112.5" font-family="Helvetica,sans-Serif" font-size="10.00">+ AddNewTarget()</text>
</a>
</g>
</g>
<!-- Node2&#45;&gt;Node1 -->
<g id="edge1" class="edge">
<title>Node2&#45;&gt;Node1</title>
<path fill="none" stroke="midnightblue" d="M86,-95.06C86,-86.39 86,-77.24 86,-68.79"/>
<polygon fill="none" stroke="midnightblue" points="82.5,-95.32 86,-105.32 89.5,-95.32 82.5,-95.32"/>
</g>
</g>
</svg>
