<?xml version="1.0" encoding="UTF-8" standalone="no"?>
<!DOCTYPE svg PUBLIC "-//W3C//DTD SVG 1.1//EN"
 "http://www.w3.org/Graphics/SVG/1.1/DTD/svg11.dtd">
<!-- Generated by graphviz version 2.43.0 (0)
 -->
<!-- Title: VolumeControl.WPF.IconExtractor.TryExtractFromPath Pages: 1 -->
<svg width="626pt" height="186pt"
 viewBox="0.00 0.00 626.00 186.00" xmlns="http://www.w3.org/2000/svg" xmlns:xlink="http://www.w3.org/1999/xlink">
<g id="graph0" class="graph" transform="scale(1 1) rotate(0) translate(4 182)">
<title>VolumeControl.WPF.IconExtractor.TryExtractFromPath</title>
<!-- Node1 -->
<g id="node1" class="node">
<title>Node1</title>
<g id="a_node1"><a xlink:title="Attempts to get an ImageSource from the specified iconPath .">
<polygon fill="#bfbfbf" stroke="black" points="0,-73.5 0,-103.5 182,-103.5 182,-73.5 0,-73.5"/>
<text text-anchor="start" x="8" y="-91.5" font-family="Helvetica,sans-Serif" font-size="10.00">VolumeControl.WPF.IconExtractor.</text>
<text text-anchor="middle" x="91" y="-80.5" font-family="Helvetica,sans-Serif" font-size="10.00">TryExtractFromPath</text>
</a>
</g>
</g>
<!-- Node2 -->
<g id="node2" class="node">
<title>Node2</title>
<g id="a_node2"><a xlink:href="class_volume_control_1_1_w_p_f_1_1_icon_extractor.html#abe1f24fc610d292ead5bdd98ef816da9" target="_top" xlink:title="Gets an ImageSource from the specified iconPath .">
<polygon fill="none" stroke="black" points="218,-73.5 218,-103.5 400,-103.5 400,-73.5 218,-73.5"/>
<text text-anchor="start" x="226" y="-91.5" font-family="Helvetica,sans-Serif" font-size="10.00">VolumeControl.WPF.IconExtractor.</text>
<text text-anchor="middle" x="309" y="-80.5" font-family="Helvetica,sans-Serif" font-size="10.00">ExtractFromPath</text>
</a>
</g>
</g>
<!-- Node1&#45;&gt;Node2 -->
<g id="edge1" class="edge">
<title>Node1&#45;&gt;Node2</title>
<path fill="none" stroke="midnightblue" d="M182.04,-88.5C190.53,-88.5 199.16,-88.5 207.74,-88.5"/>
<polygon fill="midnightblue" stroke="midnightblue" points="207.76,-92 217.76,-88.5 207.76,-85 207.76,-92"/>
</g>
<!-- Node3 -->
<g id="node3" class="node">
<title>Node3</title>
<g id="a_node3"><a xlink:href="class_volume_control_1_1_w_p_f_1_1_icon_extractor.html#ab4461a26a9a48953388762f80f1d8549" target="_top" xlink:title="Gets an ImageSource for the specified directory.">
<polygon fill="none" stroke="black" points="436,-147.5 436,-177.5 618,-177.5 618,-147.5 436,-147.5"/>
<text text-anchor="start" x="444" y="-165.5" font-family="Helvetica,sans-Serif" font-size="10.00">VolumeControl.WPF.IconExtractor.</text>
<text text-anchor="middle" x="527" y="-154.5" font-family="Helvetica,sans-Serif" font-size="10.00">ExtractFromDirectory</text>
</a>
</g>
</g>
<!-- Node2&#45;&gt;Node3 -->
<g id="edge2" class="edge">
<title>Node2&#45;&gt;Node3</title>
<path fill="none" stroke="midnightblue" d="M344.63,-103.51C369.72,-114.08 404.6,-128.12 436,-138.5 442.4,-140.61 449.09,-142.68 455.82,-144.65"/>
<polygon fill="midnightblue" stroke="midnightblue" points="455.1,-148.08 465.68,-147.46 457.03,-141.35 455.1,-148.08"/>
</g>
<!-- Node4 -->
<g id="node4" class="node">
<title>Node4</title>
<g id="a_node4"><a xlink:href="class_volume_control_1_1_w_p_f_1_1_icon_extractor.html#ab73ef1f9865f6b6af8089e323a241fa3" target="_top" xlink:title="Gets an ImageSource from an icon in the specified dynamic&#45;link library file (.dll).">
<polygon fill="none" stroke="black" points="436,-98.5 436,-128.5 618,-128.5 618,-98.5 436,-98.5"/>
<text text-anchor="start" x="444" y="-116.5" font-family="Helvetica,sans-Serif" font-size="10.00">VolumeControl.WPF.IconExtractor.</text>
<text text-anchor="middle" x="527" y="-105.5" font-family="Helvetica,sans-Serif" font-size="10.00">ExtractFromDll</text>
</a>
</g>
</g>
<!-- Node2&#45;&gt;Node4 -->
<g id="edge3" class="edge">
<title>Node2&#45;&gt;Node4</title>
<path fill="none" stroke="midnightblue" d="M400.04,-98.92C408.53,-99.9 417.16,-100.9 425.74,-101.9"/>
<polygon fill="midnightblue" stroke="midnightblue" points="425.42,-105.38 435.76,-103.06 426.23,-98.43 425.42,-105.38"/>
</g>
<!-- Node5 -->
<g id="node5" class="node">
<title>Node5</title>
<g id="a_node5"><a xlink:href="class_volume_control_1_1_w_p_f_1_1_icon_extractor.html#a94b8170e8716109a23d06abdb7f89900" target="_top" xlink:title="Gets an ImageSource for the icon of a regular file, including executable files (.exe).">
<polygon fill="none" stroke="black" points="436,-49.5 436,-79.5 618,-79.5 618,-49.5 436,-49.5"/>
<text text-anchor="start" x="444" y="-67.5" font-family="Helvetica,sans-Serif" font-size="10.00">VolumeControl.WPF.IconExtractor.</text>
<text text-anchor="middle" x="527" y="-56.5" font-family="Helvetica,sans-Serif" font-size="10.00">ExtractFromFile</text>
</a>
</g>
</g>
<!-- Node2&#45;&gt;Node5 -->
<g id="edge4" class="edge">
<title>Node2&#45;&gt;Node5</title>
<path fill="none" stroke="midnightblue" d="M400.04,-78.5C408.53,-77.55 417.16,-76.59 425.74,-75.64"/>
<polygon fill="midnightblue" stroke="midnightblue" points="426.21,-79.11 435.76,-74.53 425.43,-72.15 426.21,-79.11"/>
</g>
<!-- Node6 -->
<g id="node6" class="node">
<title>Node6</title>
<g id="a_node6"><a xlink:href="class_volume_control_1_1_w_p_f_1_1_icon_extractor.html#a6e2dd06ef8fba196e0d4c3a0feb58c3e" target="_top" xlink:title="Gets an ImageSource from an icon file (.ico).">
<polygon fill="none" stroke="black" points="436,-0.5 436,-30.5 618,-30.5 618,-0.5 436,-0.5"/>
<text text-anchor="start" x="444" y="-18.5" font-family="Helvetica,sans-Serif" font-size="10.00">VolumeControl.WPF.IconExtractor.</text>
<text text-anchor="middle" x="527" y="-7.5" font-family="Helvetica,sans-Serif" font-size="10.00">ExtractFromIcoFile</text>
</a>
</g>
</g>
<!-- Node2&#45;&gt;Node6 -->
<g id="edge5" class="edge">
<title>Node2&#45;&gt;Node6</title>
<path fill="none" stroke="midnightblue" d="M346.89,-73.41C371.84,-63.46 405.64,-50.47 436,-40.5 443.37,-38.08 451.12,-35.69 458.86,-33.41"/>
<polygon fill="midnightblue" stroke="midnightblue" points="460,-36.72 468.63,-30.58 458.05,-30 460,-36.72"/>
</g>
</g>
</svg>
