<?xml version="1.0" encoding="UTF-8" standalone="no"?>
<!DOCTYPE svg PUBLIC "-//W3C//DTD SVG 1.1//EN"
 "http://www.w3.org/Graphics/SVG/1.1/DTD/svg11.dtd">
<!-- Generated by graphviz version 2.43.0 (0)
 -->
<!-- Title: VolumeControl.WPF.Collections.BindableEventType Pages: 1 -->
<svg width="1282pt" height="402pt"
 viewBox="0.00 0.00 1282.00 402.00" xmlns="http://www.w3.org/2000/svg" xmlns:xlink="http://www.w3.org/1999/xlink">
<g id="graph0" class="graph" transform="scale(1 1) rotate(0) translate(4 398)">
<title>VolumeControl.WPF.Collections.BindableEventType</title>
<!-- Node1 -->
<g id="node1" class="node">
<title>Node1</title>
<g id="a_node1"><a xlink:title="Provides the source for a WPF list component&#39;s ItemsSource property to expose a readable and writable...">
<polygon fill="#bfbfbf" stroke="black" points="626.5,-0.5 626.5,-277.5 798.5,-277.5 798.5,-0.5 626.5,-0.5"/>
<text text-anchor="start" x="634.5" y="-265.5" font-family="Helvetica,sans-Serif" font-size="10.00">VolumeControl.WPF.Collections.</text>
<text text-anchor="middle" x="712.5" y="-254.5" font-family="Helvetica,sans-Serif" font-size="10.00">BindableEventType</text>
<polyline fill="none" stroke="black" points="626.5,-247.5 798.5,-247.5 "/>
<text text-anchor="start" x="634.5" y="-235.5" font-family="Helvetica,sans-Serif" font-size="10.00">+ Count</text>
<text text-anchor="start" x="634.5" y="-224.5" font-family="Helvetica,sans-Serif" font-size="10.00">+ IsReadOnly</text>
<text text-anchor="start" x="634.5" y="-213.5" font-family="Helvetica,sans-Serif" font-size="10.00">+ IsSynchronized</text>
<text text-anchor="start" x="634.5" y="-202.5" font-family="Helvetica,sans-Serif" font-size="10.00">+ SyncRoot</text>
<text text-anchor="start" x="634.5" y="-191.5" font-family="Helvetica,sans-Serif" font-size="10.00">+ IsFixedSize</text>
<text text-anchor="start" x="634.5" y="-180.5" font-family="Helvetica,sans-Serif" font-size="10.00">+ this[int index]</text>
<text text-anchor="start" x="634.5" y="-169.5" font-family="Helvetica,sans-Serif" font-size="10.00">+ this[int index]</text>
<text text-anchor="start" x="634.5" y="-158.5" font-family="Helvetica,sans-Serif" font-size="10.00">+ Value</text>
<text text-anchor="start" x="634.5" y="-147.5" font-family="Helvetica,sans-Serif" font-size="10.00">+ Options</text>
<polyline fill="none" stroke="black" points="626.5,-140.5 798.5,-140.5 "/>
<text text-anchor="start" x="634.5" y="-128.5" font-family="Helvetica,sans-Serif" font-size="10.00">+ BindableEventType()</text>
<text text-anchor="start" x="634.5" y="-117.5" font-family="Helvetica,sans-Serif" font-size="10.00">+ BindableEventType()</text>
<text text-anchor="start" x="634.5" y="-106.5" font-family="Helvetica,sans-Serif" font-size="10.00">+ Add()</text>
<text text-anchor="start" x="634.5" y="-95.5" font-family="Helvetica,sans-Serif" font-size="10.00">+ Add()</text>
<text text-anchor="start" x="634.5" y="-84.5" font-family="Helvetica,sans-Serif" font-size="10.00">+ Clear()</text>
<text text-anchor="start" x="634.5" y="-73.5" font-family="Helvetica,sans-Serif" font-size="10.00">+ Contains()</text>
<text text-anchor="start" x="634.5" y="-62.5" font-family="Helvetica,sans-Serif" font-size="10.00">+ Contains()</text>
<text text-anchor="start" x="634.5" y="-51.5" font-family="Helvetica,sans-Serif" font-size="10.00">+ CopyTo()</text>
<text text-anchor="start" x="634.5" y="-40.5" font-family="Helvetica,sans-Serif" font-size="10.00">+ CopyTo()</text>
<text text-anchor="start" x="634.5" y="-29.5" font-family="Helvetica,sans-Serif" font-size="10.00">+ GetEnumerator()</text>
<text text-anchor="start" x="634.5" y="-18.5" font-family="Helvetica,sans-Serif" font-size="10.00">and 7 more...</text>
<text text-anchor="start" x="634.5" y="-7.5" font-family="Helvetica,sans-Serif" font-size="10.00"># NotifyPropertyChanged()</text>
</a>
</g>
</g>
<!-- Node2 -->
<g id="node2" class="node">
<title>Node2</title>
<g id="a_node2"><a xlink:title=" ">
<polygon fill="none" stroke="#bfbfbf" points="0,-320 0,-388 167,-388 167,-320 0,-320"/>
<text text-anchor="start" x="8" y="-376" font-family="Helvetica,sans-Serif" font-size="10.00">ICollection&lt; BindableEvent</text>
<text text-anchor="middle" x="83.5" y="-365" font-family="Helvetica,sans-Serif" font-size="10.00">Type.BindableEventTypeFlag &gt;</text>
<polyline fill="none" stroke="#bfbfbf" points="0,-358 167,-358 "/>
<text text-anchor="middle" x="83.5" y="-346" font-family="Helvetica,sans-Serif" font-size="10.00"> </text>
<polyline fill="none" stroke="#bfbfbf" points="0,-339 167,-339 "/>
<text text-anchor="middle" x="83.5" y="-327" font-family="Helvetica,sans-Serif" font-size="10.00"> </text>
</a>
</g>
</g>
<!-- Node2&#45;&gt;Node1 -->
<g id="edge1" class="edge">
<title>Node2&#45;&gt;Node1</title>
<path fill="none" stroke="midnightblue" d="M169.78,-316.16C171.7,-315.43 173.61,-314.71 175.5,-314 332.51,-255.41 519.36,-197.46 626.14,-165.43"/>
<polygon fill="none" stroke="midnightblue" points="168.15,-313.04 160.1,-319.93 170.69,-319.56 168.15,-313.04"/>
</g>
<!-- Node3 -->
<g id="node3" class="node">
<title>Node3</title>
<g id="a_node3"><a xlink:title=" ">
<polygon fill="none" stroke="#bfbfbf" points="185,-320 185,-388 352,-388 352,-320 185,-320"/>
<text text-anchor="start" x="193" y="-376" font-family="Helvetica,sans-Serif" font-size="10.00">IEnumerable&lt; BindableEvent</text>
<text text-anchor="middle" x="268.5" y="-365" font-family="Helvetica,sans-Serif" font-size="10.00">Type.BindableEventTypeFlag &gt;</text>
<polyline fill="none" stroke="#bfbfbf" points="185,-358 352,-358 "/>
<text text-anchor="middle" x="268.5" y="-346" font-family="Helvetica,sans-Serif" font-size="10.00"> </text>
<polyline fill="none" stroke="#bfbfbf" points="185,-339 352,-339 "/>
<text text-anchor="middle" x="268.5" y="-327" font-family="Helvetica,sans-Serif" font-size="10.00"> </text>
</a>
</g>
</g>
<!-- Node3&#45;&gt;Node1 -->
<g id="edge2" class="edge">
<title>Node3&#45;&gt;Node1</title>
<path fill="none" stroke="midnightblue" d="M346.73,-315.47C425.05,-277.9 545.27,-220.22 626.3,-181.35"/>
<polygon fill="none" stroke="midnightblue" points="344.89,-312.47 337.39,-319.95 347.92,-318.78 344.89,-312.47"/>
</g>
<!-- Node4 -->
<g id="node4" class="node">
<title>Node4</title>
<g id="a_node4"><a xlink:title=" ">
<polygon fill="none" stroke="#bfbfbf" points="370.5,-325.5 370.5,-382.5 448.5,-382.5 448.5,-325.5 370.5,-325.5"/>
<text text-anchor="middle" x="409.5" y="-370.5" font-family="Helvetica,sans-Serif" font-size="10.00">IEnumerable</text>
<polyline fill="none" stroke="#bfbfbf" points="370.5,-363.5 448.5,-363.5 "/>
<text text-anchor="middle" x="409.5" y="-351.5" font-family="Helvetica,sans-Serif" font-size="10.00"> </text>
<polyline fill="none" stroke="#bfbfbf" points="370.5,-344.5 448.5,-344.5 "/>
<text text-anchor="middle" x="409.5" y="-332.5" font-family="Helvetica,sans-Serif" font-size="10.00"> </text>
</a>
</g>
</g>
<!-- Node4&#45;&gt;Node1 -->
<g id="edge3" class="edge">
<title>Node4&#45;&gt;Node1</title>
<path fill="none" stroke="midnightblue" d="M451.09,-318.86C453.25,-317.2 455.39,-315.57 457.5,-314 512.5,-273 576.25,-229.5 626.25,-196.25"/>
<polygon fill="none" stroke="midnightblue" points="448.5,-316.44 442.79,-325.36 452.82,-321.95 448.5,-316.44"/>
</g>
<!-- Node5 -->
<g id="node5" class="node">
<title>Node5</title>
<g id="a_node5"><a xlink:title=" ">
<polygon fill="none" stroke="#bfbfbf" points="466.5,-320 466.5,-388 610.5,-388 610.5,-320 466.5,-320"/>
<text text-anchor="start" x="474.5" y="-376" font-family="Helvetica,sans-Serif" font-size="10.00">IList&lt; BindableEventType.</text>
<text text-anchor="middle" x="538.5" y="-365" font-family="Helvetica,sans-Serif" font-size="10.00">BindableEventTypeFlag &gt;</text>
<polyline fill="none" stroke="#bfbfbf" points="466.5,-358 610.5,-358 "/>
<text text-anchor="middle" x="538.5" y="-346" font-family="Helvetica,sans-Serif" font-size="10.00"> </text>
<polyline fill="none" stroke="#bfbfbf" points="466.5,-339 610.5,-339 "/>
<text text-anchor="middle" x="538.5" y="-327" font-family="Helvetica,sans-Serif" font-size="10.00"> </text>
</a>
</g>
</g>
<!-- Node5&#45;&gt;Node1 -->
<g id="edge4" class="edge">
<title>Node5&#45;&gt;Node1</title>
<path fill="none" stroke="midnightblue" d="M572.14,-311.82C587.75,-292.71 607.1,-269.02 626.39,-245.41"/>
<polygon fill="none" stroke="midnightblue" points="569.3,-309.76 565.69,-319.72 574.72,-314.19 569.3,-309.76"/>
</g>
<!-- Node6 -->
<g id="node6" class="node">
<title>Node6</title>
<g id="a_node6"><a xlink:title=" ">
<polygon fill="none" stroke="#bfbfbf" points="629,-314.5 629,-393.5 796,-393.5 796,-314.5 629,-314.5"/>
<text text-anchor="start" x="637" y="-381.5" font-family="Helvetica,sans-Serif" font-size="10.00">IReadOnlyCollection</text>
<text text-anchor="start" x="637" y="-370.5" font-family="Helvetica,sans-Serif" font-size="10.00">&lt; BindableEventType.Bindable</text>
<text text-anchor="middle" x="712.5" y="-359.5" font-family="Helvetica,sans-Serif" font-size="10.00">EventTypeFlag &gt;</text>
<polyline fill="none" stroke="#bfbfbf" points="629,-352.5 796,-352.5 "/>
<text text-anchor="middle" x="712.5" y="-340.5" font-family="Helvetica,sans-Serif" font-size="10.00"> </text>
<polyline fill="none" stroke="#bfbfbf" points="629,-333.5 796,-333.5 "/>
<text text-anchor="middle" x="712.5" y="-321.5" font-family="Helvetica,sans-Serif" font-size="10.00"> </text>
</a>
</g>
</g>
<!-- Node6&#45;&gt;Node1 -->
<g id="edge5" class="edge">
<title>Node6&#45;&gt;Node1</title>
<path fill="none" stroke="midnightblue" d="M712.5,-304.3C712.5,-296.01 712.5,-287.04 712.5,-277.73"/>
<polygon fill="none" stroke="midnightblue" points="709,-304.43 712.5,-314.43 716,-304.43 709,-304.43"/>
</g>
<!-- Node7 -->
<g id="node7" class="node">
<title>Node7</title>
<g id="a_node7"><a xlink:title=" ">
<polygon fill="none" stroke="#bfbfbf" points="814,-320 814,-388 981,-388 981,-320 814,-320"/>
<text text-anchor="start" x="822" y="-376" font-family="Helvetica,sans-Serif" font-size="10.00">IReadOnlyList&lt; BindableEvent</text>
<text text-anchor="middle" x="897.5" y="-365" font-family="Helvetica,sans-Serif" font-size="10.00">Type.BindableEventTypeFlag &gt;</text>
<polyline fill="none" stroke="#bfbfbf" points="814,-358 981,-358 "/>
<text text-anchor="middle" x="897.5" y="-346" font-family="Helvetica,sans-Serif" font-size="10.00"> </text>
<polyline fill="none" stroke="#bfbfbf" points="814,-339 981,-339 "/>
<text text-anchor="middle" x="897.5" y="-327" font-family="Helvetica,sans-Serif" font-size="10.00"> </text>
</a>
</g>
</g>
<!-- Node7&#45;&gt;Node1 -->
<g id="edge6" class="edge">
<title>Node7&#45;&gt;Node1</title>
<path fill="none" stroke="midnightblue" d="M861.92,-312.03C843.86,-291.24 821.07,-265.01 798.77,-239.33"/>
<polygon fill="none" stroke="midnightblue" points="859.39,-314.46 868.59,-319.72 864.68,-309.87 859.39,-314.46"/>
</g>
<!-- Node8 -->
<g id="node8" class="node">
<title>Node8</title>
<g id="a_node8"><a xlink:title=" ">
<polygon fill="none" stroke="#bfbfbf" points="999.5,-325.5 999.5,-382.5 1067.5,-382.5 1067.5,-325.5 999.5,-325.5"/>
<text text-anchor="middle" x="1033.5" y="-370.5" font-family="Helvetica,sans-Serif" font-size="10.00">ICollection</text>
<polyline fill="none" stroke="#bfbfbf" points="999.5,-363.5 1067.5,-363.5 "/>
<text text-anchor="middle" x="1033.5" y="-351.5" font-family="Helvetica,sans-Serif" font-size="10.00"> </text>
<polyline fill="none" stroke="#bfbfbf" points="999.5,-344.5 1067.5,-344.5 "/>
<text text-anchor="middle" x="1033.5" y="-332.5" font-family="Helvetica,sans-Serif" font-size="10.00"> </text>
</a>
</g>
</g>
<!-- Node8&#45;&gt;Node1 -->
<g id="edge7" class="edge">
<title>Node8&#45;&gt;Node1</title>
<path fill="none" stroke="midnightblue" d="M996.65,-318.83C994.6,-317.16 992.54,-315.54 990.5,-314 929.1,-267.52 854.98,-221.59 798.72,-188.59"/>
<polygon fill="none" stroke="midnightblue" points="994.58,-321.67 1004.49,-325.43 999.09,-316.31 994.58,-321.67"/>
</g>
<!-- Node9 -->
<g id="node9" class="node">
<title>Node9</title>
<g id="a_node9"><a xlink:title=" ">
<polygon fill="none" stroke="#bfbfbf" points="1086,-325.5 1086,-382.5 1123,-382.5 1123,-325.5 1086,-325.5"/>
<text text-anchor="middle" x="1104.5" y="-370.5" font-family="Helvetica,sans-Serif" font-size="10.00">IList</text>
<polyline fill="none" stroke="#bfbfbf" points="1086,-363.5 1123,-363.5 "/>
<text text-anchor="middle" x="1104.5" y="-351.5" font-family="Helvetica,sans-Serif" font-size="10.00"> </text>
<polyline fill="none" stroke="#bfbfbf" points="1086,-344.5 1123,-344.5 "/>
<text text-anchor="middle" x="1104.5" y="-332.5" font-family="Helvetica,sans-Serif" font-size="10.00"> </text>
</a>
</g>
</g>
<!-- Node9&#45;&gt;Node1 -->
<g id="edge8" class="edge">
<title>Node9&#45;&gt;Node1</title>
<path fill="none" stroke="midnightblue" d="M1080.48,-317.64C1079.19,-316.36 1077.86,-315.14 1076.5,-314 993.12,-244.19 877,-195.06 798.52,-167.2"/>
<polygon fill="none" stroke="midnightblue" points="1078.19,-320.33 1087.46,-325.47 1083.42,-315.67 1078.19,-320.33"/>
</g>
<!-- Node10 -->
<g id="node10" class="node">
<title>Node10</title>
<g id="a_node10"><a xlink:title=" ">
<polygon fill="none" stroke="#bfbfbf" points="1141,-325.5 1141,-382.5 1274,-382.5 1274,-325.5 1141,-325.5"/>
<text text-anchor="middle" x="1207.5" y="-370.5" font-family="Helvetica,sans-Serif" font-size="10.00">INotifyPropertyChanged</text>
<polyline fill="none" stroke="#bfbfbf" points="1141,-363.5 1274,-363.5 "/>
<text text-anchor="middle" x="1207.5" y="-351.5" font-family="Helvetica,sans-Serif" font-size="10.00"> </text>
<polyline fill="none" stroke="#bfbfbf" points="1141,-344.5 1274,-344.5 "/>
<text text-anchor="middle" x="1207.5" y="-332.5" font-family="Helvetica,sans-Serif" font-size="10.00"> </text>
</a>
</g>
</g>
<!-- Node10&#45;&gt;Node1 -->
<g id="edge9" class="edge">
<title>Node10&#45;&gt;Node1</title>
<path fill="none" stroke="midnightblue" d="M1146.62,-320.79C1141.87,-318.44 1137.12,-316.15 1132.5,-314 1018.75,-260.99 884.28,-206.7 798.71,-173.18"/>
<polygon fill="none" stroke="midnightblue" points="1145.23,-324 1155.74,-325.35 1148.36,-317.74 1145.23,-324"/>
</g>
</g>
</svg>
