<?xml version="1.0" encoding="UTF-8" standalone="no"?>
<!DOCTYPE svg PUBLIC "-//W3C//DTD SVG 1.1//EN"
 "http://www.w3.org/Graphics/SVG/1.1/DTD/svg11.dtd">
<!-- Generated by graphviz version 2.43.0 (0)
 -->
<!-- Title: VolumeControl.SDK.ListDisplayTarget Pages: 1 -->
<svg width="268pt" height="358pt"
 viewBox="0.00 0.00 268.00 358.00" xmlns="http://www.w3.org/2000/svg" xmlns:xlink="http://www.w3.org/1999/xlink">
<g id="graph0" class="graph" transform="scale(1 1) rotate(0) translate(4 354)">
<title>VolumeControl.SDK.ListDisplayTarget</title>
<!-- Node1 -->
<g id="node1" class="node">
<title>Node1</title>
<g id="a_node1"><a xlink:title="Wrapper object for a ListNotification display target. &#160;This provides the necessary interaction interf...">
<polygon fill="#bfbfbf" stroke="black" points="35.5,-0.5 35.5,-255.5 211.5,-255.5 211.5,-0.5 35.5,-0.5"/>
<text text-anchor="start" x="43.5" y="-243.5" font-family="Helvetica,sans-Serif" font-size="10.00">VolumeControl.SDK.ListDisplay</text>
<text text-anchor="middle" x="123.5" y="-232.5" font-family="Helvetica,sans-Serif" font-size="10.00">Target</text>
<polyline fill="none" stroke="black" points="35.5,-225.5 211.5,-225.5 "/>
<text text-anchor="start" x="43.5" y="-213.5" font-family="Helvetica,sans-Serif" font-size="10.00">+ BackgroundProperty</text>
<text text-anchor="start" x="43.5" y="-202.5" font-family="Helvetica,sans-Serif" font-size="10.00">+ LockSelectionProperty</text>
<text text-anchor="start" x="43.5" y="-191.5" font-family="Helvetica,sans-Serif" font-size="10.00">+ IconProperty</text>
<text text-anchor="start" x="43.5" y="-180.5" font-family="Helvetica,sans-Serif" font-size="10.00">+ ItemsSourceProperty</text>
<text text-anchor="start" x="43.5" y="-169.5" font-family="Helvetica,sans-Serif" font-size="10.00">+ SelectedItemProperty</text>
<text text-anchor="start" x="43.5" y="-158.5" font-family="Helvetica,sans-Serif" font-size="10.00">+ SelectedItemControlsProperty</text>
<text text-anchor="start" x="43.5" y="-147.5" font-family="Helvetica,sans-Serif" font-size="10.00">+ Name</text>
<text text-anchor="start" x="43.5" y="-136.5" font-family="Helvetica,sans-Serif" font-size="10.00">+ Background</text>
<text text-anchor="start" x="43.5" y="-125.5" font-family="Helvetica,sans-Serif" font-size="10.00">+ LockSelection</text>
<text text-anchor="start" x="43.5" y="-114.5" font-family="Helvetica,sans-Serif" font-size="10.00">+ Icon</text>
<text text-anchor="start" x="43.5" y="-103.5" font-family="Helvetica,sans-Serif" font-size="10.00">+ ItemsSource</text>
<text text-anchor="start" x="43.5" y="-92.5" font-family="Helvetica,sans-Serif" font-size="10.00">+ SelectedItem</text>
<text text-anchor="start" x="43.5" y="-81.5" font-family="Helvetica,sans-Serif" font-size="10.00">+ SelectedItemControls</text>
<text text-anchor="start" x="43.5" y="-70.5" font-family="Helvetica,sans-Serif" font-size="10.00">+ ConditionalShowTriggers</text>
<polyline fill="none" stroke="black" points="35.5,-63.5 211.5,-63.5 "/>
<text text-anchor="start" x="43.5" y="-51.5" font-family="Helvetica,sans-Serif" font-size="10.00">+ ListDisplayTarget()</text>
<text text-anchor="start" x="43.5" y="-40.5" font-family="Helvetica,sans-Serif" font-size="10.00">+ ListDisplayTarget()</text>
<text text-anchor="start" x="43.5" y="-29.5" font-family="Helvetica,sans-Serif" font-size="10.00">+ ListDisplayConditional()</text>
<text text-anchor="start" x="43.5" y="-18.5" font-family="Helvetica,sans-Serif" font-size="10.00">+ SetBinding()</text>
<text text-anchor="start" x="43.5" y="-7.5" font-family="Helvetica,sans-Serif" font-size="10.00">+ AddConditionalEventForward()</text>
</a>
</g>
</g>
<!-- Node2 -->
<g id="node2" class="node">
<title>Node2</title>
<g id="a_node2"><a xlink:title=" ">
<polygon fill="none" stroke="#bfbfbf" points="0,-292.5 0,-349.5 109,-349.5 109,-292.5 0,-292.5"/>
<text text-anchor="middle" x="54.5" y="-337.5" font-family="Helvetica,sans-Serif" font-size="10.00">DependencyObject</text>
<polyline fill="none" stroke="#bfbfbf" points="0,-330.5 109,-330.5 "/>
<text text-anchor="middle" x="54.5" y="-318.5" font-family="Helvetica,sans-Serif" font-size="10.00"> </text>
<polyline fill="none" stroke="#bfbfbf" points="0,-311.5 109,-311.5 "/>
<text text-anchor="middle" x="54.5" y="-299.5" font-family="Helvetica,sans-Serif" font-size="10.00"> </text>
</a>
</g>
</g>
<!-- Node2&#45;&gt;Node1 -->
<g id="edge1" class="edge">
<title>Node2&#45;&gt;Node1</title>
<path fill="none" stroke="midnightblue" d="M67.96,-282.74C70.92,-274.56 74.2,-265.46 77.66,-255.88"/>
<polygon fill="none" stroke="midnightblue" points="64.64,-281.63 64.53,-292.23 71.22,-284.01 64.64,-281.63"/>
</g>
<!-- Node3 -->
<g id="node3" class="node">
<title>Node3</title>
<g id="a_node3"><a xlink:title=" ">
<polygon fill="none" stroke="#bfbfbf" points="127,-292.5 127,-349.5 260,-349.5 260,-292.5 127,-292.5"/>
<text text-anchor="middle" x="193.5" y="-337.5" font-family="Helvetica,sans-Serif" font-size="10.00">INotifyPropertyChanged</text>
<polyline fill="none" stroke="#bfbfbf" points="127,-330.5 260,-330.5 "/>
<text text-anchor="middle" x="193.5" y="-318.5" font-family="Helvetica,sans-Serif" font-size="10.00"> </text>
<polyline fill="none" stroke="#bfbfbf" points="127,-311.5 260,-311.5 "/>
<text text-anchor="middle" x="193.5" y="-299.5" font-family="Helvetica,sans-Serif" font-size="10.00"> </text>
</a>
</g>
</g>
<!-- Node3&#45;&gt;Node1 -->
<g id="edge2" class="edge">
<title>Node3&#45;&gt;Node1</title>
<path fill="none" stroke="midnightblue" d="M179.84,-282.74C176.85,-274.56 173.51,-265.46 170,-255.88"/>
<polygon fill="none" stroke="midnightblue" points="176.59,-284.04 183.32,-292.23 183.17,-281.63 176.59,-284.04"/>
</g>
</g>
</svg>
