<?xml version="1.0" encoding="UTF-8" standalone="no"?>
<!DOCTYPE svg PUBLIC "-//W3C//DTD SVG 1.1//EN"
 "http://www.w3.org/Graphics/SVG/1.1/DTD/svg11.dtd">
<!-- Generated by graphviz version 2.43.0 (0)
 -->
<!-- Title: VolumeControl.WPF.Behaviors.TextBoxAutocompleteBehavior Pages: 1 -->
<svg width="175pt" height="259pt"
 viewBox="0.00 0.00 175.00 259.00" xmlns="http://www.w3.org/2000/svg" xmlns:xlink="http://www.w3.org/1999/xlink">
<g id="graph0" class="graph" transform="scale(1 1) rotate(0) translate(4 255)">
<title>VolumeControl.WPF.Behaviors.TextBoxAutocompleteBehavior</title>
<!-- Node1 -->
<g id="node1" class="node">
<title>Node1</title>
<g id="a_node1"><a xlink:title="Behavior that implements autocomplete suggestions for TextBox controls.">
<polygon fill="#bfbfbf" stroke="black" points="0,-0.5 0,-156.5 167,-156.5 167,-0.5 0,-0.5"/>
<text text-anchor="start" x="8" y="-144.5" font-family="Helvetica,sans-Serif" font-size="10.00">VolumeControl.WPF.Behaviors.</text>
<text text-anchor="middle" x="83.5" y="-133.5" font-family="Helvetica,sans-Serif" font-size="10.00">TextBoxAutocompleteBehavior</text>
<polyline fill="none" stroke="black" points="0,-126.5 167,-126.5 "/>
<text text-anchor="start" x="8" y="-114.5" font-family="Helvetica,sans-Serif" font-size="10.00">+ ItemsSourceProperty</text>
<text text-anchor="start" x="8" y="-103.5" font-family="Helvetica,sans-Serif" font-size="10.00">+ StringComparisonProperty</text>
<text text-anchor="start" x="8" y="-92.5" font-family="Helvetica,sans-Serif" font-size="10.00">+ RequirePrefixProperty</text>
<text text-anchor="start" x="8" y="-81.5" font-family="Helvetica,sans-Serif" font-size="10.00">+ CancelOnLostFocusProperty</text>
<text text-anchor="start" x="8" y="-70.5" font-family="Helvetica,sans-Serif" font-size="10.00">+ ItemsSource</text>
<text text-anchor="start" x="8" y="-59.5" font-family="Helvetica,sans-Serif" font-size="10.00">+ StringComparison</text>
<text text-anchor="start" x="8" y="-48.5" font-family="Helvetica,sans-Serif" font-size="10.00">+ RequirePrefix</text>
<text text-anchor="start" x="8" y="-37.5" font-family="Helvetica,sans-Serif" font-size="10.00">+ CancelOnLostFocus</text>
<polyline fill="none" stroke="black" points="0,-30.5 167,-30.5 "/>
<text text-anchor="start" x="8" y="-18.5" font-family="Helvetica,sans-Serif" font-size="10.00"># OnAttached()</text>
<text text-anchor="start" x="8" y="-7.5" font-family="Helvetica,sans-Serif" font-size="10.00"># OnDetaching()</text>
</a>
</g>
</g>
<!-- Node2 -->
<g id="node2" class="node">
<title>Node2</title>
<g id="a_node2"><a xlink:title=" ">
<polygon fill="none" stroke="#bfbfbf" points="22.5,-193.5 22.5,-250.5 144.5,-250.5 144.5,-193.5 22.5,-193.5"/>
<text text-anchor="middle" x="83.5" y="-238.5" font-family="Helvetica,sans-Serif" font-size="10.00">Behavior&lt; TextBox &gt;</text>
<polyline fill="none" stroke="#bfbfbf" points="22.5,-231.5 144.5,-231.5 "/>
<text text-anchor="middle" x="83.5" y="-219.5" font-family="Helvetica,sans-Serif" font-size="10.00"> </text>
<polyline fill="none" stroke="#bfbfbf" points="22.5,-212.5 144.5,-212.5 "/>
<text text-anchor="middle" x="83.5" y="-200.5" font-family="Helvetica,sans-Serif" font-size="10.00"> </text>
</a>
</g>
</g>
<!-- Node2&#45;&gt;Node1 -->
<g id="edge1" class="edge">
<title>Node2&#45;&gt;Node1</title>
<path fill="none" stroke="midnightblue" d="M83.5,-183.34C83.5,-175.04 83.5,-165.96 83.5,-156.74"/>
<polygon fill="none" stroke="midnightblue" points="80,-183.38 83.5,-193.38 87,-183.38 80,-183.38"/>
</g>
</g>
</svg>
