<?xml version="1.0" encoding="UTF-8" standalone="no"?>
<!DOCTYPE svg PUBLIC "-//W3C//DTD SVG 1.1//EN"
 "http://www.w3.org/Graphics/SVG/1.1/DTD/svg11.dtd">
<!-- Generated by graphviz version 2.43.0 (0)
 -->
<!-- Title: VolumeControl.Core.Input.TemplateProviderManager.TryGetDictionaryProvider Pages: 1 -->
<svg width="417pt" height="264pt"
 viewBox="0.00 0.00 417.00 264.00" xmlns="http://www.w3.org/2000/svg" xmlns:xlink="http://www.w3.org/1999/xlink">
<g id="graph0" class="graph" transform="scale(1 1) rotate(0) translate(4 260)">
<title>VolumeControl.Core.Input.TemplateProviderManager.TryGetDictionaryProvider</title>
<!-- Node1 -->
<g id="node1" class="node">
<title>Node1</title>
<g id="a_node1"><a xlink:title="Attempts to get the dictionaryProvider &#160;instance with the specified dictionaryProviderType .">
<polygon fill="#bfbfbf" stroke="black" points="0,-115.5 0,-156.5 179,-156.5 179,-115.5 0,-115.5"/>
<text text-anchor="start" x="8" y="-144.5" font-family="Helvetica,sans-Serif" font-size="10.00">VolumeControl.Core.Input.</text>
<text text-anchor="start" x="8" y="-133.5" font-family="Helvetica,sans-Serif" font-size="10.00">TemplateProviderManager.TryGet</text>
<text text-anchor="middle" x="89.5" y="-122.5" font-family="Helvetica,sans-Serif" font-size="10.00">DictionaryProvider</text>
</a>
</g>
</g>
<!-- Node2 -->
<g id="node2" class="node">
<title>Node2</title>
<g id="a_node2"><a xlink:href="class_volume_control_1_1_log_1_1_log_message.html#a58f384161f2f0f7388add93e27b6ad77" target="_top" xlink:title="Appends the specified line &#160;to the message.">
<polygon fill="none" stroke="black" points="215,-236.5 215,-255.5 409,-255.5 409,-236.5 215,-236.5"/>
<text text-anchor="middle" x="312" y="-243.5" font-family="Helvetica,sans-Serif" font-size="10.00">VolumeControl.Log.LogMessage.Add</text>
</a>
</g>
</g>
<!-- Node1&#45;&gt;Node2 -->
<g id="edge1" class="edge">
<title>Node1&#45;&gt;Node2</title>
<path fill="none" stroke="midnightblue" d="M112.46,-156.75C135.97,-177.77 175.28,-209.58 215,-227 220.82,-229.55 226.99,-231.76 233.28,-233.68"/>
<polygon fill="midnightblue" stroke="midnightblue" points="232.66,-237.14 243.24,-236.46 234.54,-230.4 232.66,-237.14"/>
</g>
<!-- Node3 -->
<g id="node3" class="node">
<title>Node3</title>
<g id="a_node3"><a xlink:href="class_volume_control_1_1_log_1_1_f_log.html#afe0e1fa95fcbb5d00e0c48be61b87eb0" target="_top" xlink:title=" ">
<polygon fill="none" stroke="black" points="227,-198.5 227,-217.5 397,-217.5 397,-198.5 227,-198.5"/>
<text text-anchor="middle" x="312" y="-205.5" font-family="Helvetica,sans-Serif" font-size="10.00">VolumeControl.Log.FLog.Debug</text>
</a>
</g>
</g>
<!-- Node1&#45;&gt;Node3 -->
<g id="edge2" class="edge">
<title>Node1&#45;&gt;Node3</title>
<path fill="none" stroke="midnightblue" d="M132.61,-156.51C156.35,-167.41 186.83,-180.32 215,-189 223.92,-191.75 233.43,-194.19 242.86,-196.33"/>
<polygon fill="midnightblue" stroke="midnightblue" points="242.13,-199.76 252.65,-198.46 243.62,-192.92 242.13,-199.76"/>
</g>
<!-- Node4 -->
<g id="node4" class="node">
<title>Node4</title>
<g id="a_node4"><a xlink:href="class_volume_control_1_1_log_1_1_f_log.html#a4dcec7039adc7659b074ba4122cea0f8" target="_top" xlink:title=" ">
<polygon fill="none" stroke="black" points="230.5,-149 230.5,-179 393.5,-179 393.5,-149 230.5,-149"/>
<text text-anchor="start" x="238.5" y="-167" font-family="Helvetica,sans-Serif" font-size="10.00">VolumeControl.Log.FLog.Filter</text>
<text text-anchor="middle" x="312" y="-156" font-family="Helvetica,sans-Serif" font-size="10.00">EventType</text>
</a>
</g>
</g>
<!-- Node1&#45;&gt;Node4 -->
<g id="edge3" class="edge">
<title>Node1&#45;&gt;Node4</title>
<path fill="none" stroke="midnightblue" d="M179.23,-147.27C192.68,-148.98 206.57,-150.74 220.06,-152.45"/>
<polygon fill="midnightblue" stroke="midnightblue" points="219.93,-155.96 230.29,-153.75 220.81,-149.02 219.93,-155.96"/>
</g>
<!-- Node5 -->
<g id="node5" class="node">
<title>Node5</title>
<g id="a_node5"><a xlink:href="class_volume_control_1_1_core_1_1_input_1_1_template_provider_manager.html#a45dcb0ab3fcfe3333722b73ce9d0bbd8" target="_top" xlink:title="Gets the index of the ITemplateDictionaryProvider type specified by dictionaryProviderType &#160;in Dictio...">
<polygon fill="none" stroke="black" points="219.5,-88.5 219.5,-129.5 404.5,-129.5 404.5,-88.5 219.5,-88.5"/>
<text text-anchor="start" x="227.5" y="-117.5" font-family="Helvetica,sans-Serif" font-size="10.00">VolumeControl.Core.Input.</text>
<text text-anchor="start" x="227.5" y="-106.5" font-family="Helvetica,sans-Serif" font-size="10.00">TemplateProviderManager.IndexOf</text>
<text text-anchor="middle" x="312" y="-95.5" font-family="Helvetica,sans-Serif" font-size="10.00">DictionaryProviderType</text>
</a>
</g>
</g>
<!-- Node1&#45;&gt;Node5 -->
<g id="edge4" class="edge">
<title>Node1&#45;&gt;Node5</title>
<path fill="none" stroke="midnightblue" d="M179.23,-125.13C189.11,-123.93 199.22,-122.69 209.24,-121.46"/>
<polygon fill="midnightblue" stroke="midnightblue" points="209.71,-124.93 219.21,-120.24 208.86,-117.98 209.71,-124.93"/>
</g>
<!-- Node6 -->
<g id="node6" class="node">
<title>Node6</title>
<g id="a_node6"><a xlink:href="class_volume_control_1_1_log_1_1_f_log.html#a85772588881c3b883612f2238ecb5c1c" target="_top" xlink:title=" ">
<polygon fill="none" stroke="black" points="234.5,-39 234.5,-69 389.5,-69 389.5,-39 234.5,-39"/>
<text text-anchor="start" x="242.5" y="-57" font-family="Helvetica,sans-Serif" font-size="10.00">VolumeControl.Log.FLog.Log</text>
<text text-anchor="middle" x="312" y="-46" font-family="Helvetica,sans-Serif" font-size="10.00">Message</text>
</a>
</g>
</g>
<!-- Node1&#45;&gt;Node6 -->
<g id="edge5" class="edge">
<title>Node1&#45;&gt;Node6</title>
<path fill="none" stroke="midnightblue" d="M130.69,-115.43C154.72,-103.68 186.11,-89.29 215,-79 222.05,-76.49 229.47,-74.11 236.94,-71.89"/>
<polygon fill="midnightblue" stroke="midnightblue" points="238.11,-75.2 246.75,-69.07 236.17,-68.47 238.11,-75.2"/>
</g>
<!-- Node7 -->
<g id="node7" class="node">
<title>Node7</title>
<g id="a_node7"><a xlink:href="class_volume_control_1_1_log_1_1_f_log.html#af4ed552556c83a4c76016fe6b4d103d4" target="_top" xlink:title=" ">
<polygon fill="none" stroke="black" points="223,-0.5 223,-19.5 401,-19.5 401,-0.5 223,-0.5"/>
<text text-anchor="middle" x="312" y="-7.5" font-family="Helvetica,sans-Serif" font-size="10.00">VolumeControl.Log.FLog.Warning</text>
</a>
</g>
</g>
<!-- Node1&#45;&gt;Node7 -->
<g id="edge6" class="edge">
<title>Node1&#45;&gt;Node7</title>
<path fill="none" stroke="midnightblue" d="M108.54,-115.34C130.98,-91 171.66,-51.22 215,-30 221.01,-27.06 227.44,-24.55 234.01,-22.4"/>
<polygon fill="midnightblue" stroke="midnightblue" points="235.13,-25.72 243.72,-19.52 233.14,-19.01 235.13,-25.72"/>
</g>
</g>
</svg>
