<?xml version="1.0" encoding="UTF-8" standalone="no"?>
<!DOCTYPE svg PUBLIC "-//W3C//DTD SVG 1.1//EN"
 "http://www.w3.org/Graphics/SVG/1.1/DTD/svg11.dtd">
<!-- Generated by graphviz version 2.44.1 (20200629.0800)
 -->
<!-- Title: VolumeControl.Log.LogWriter.Debug Pages: 1 -->
<svg width="533pt" height="186pt"
 viewBox="0.00 0.00 533.00 186.00" xmlns="http://www.w3.org/2000/svg" xmlns:xlink="http://www.w3.org/1999/xlink">
<g id="graph0" class="graph" transform="scale(1 1) rotate(0) translate(4 182)">
<title>VolumeControl.Log.LogWriter.Debug</title>
<!-- Node1 -->
<g id="node1" class="node">
<title>Node1</title>
<g id="a_node1"><a xlink:title="Write a formatted EventType.DEBUG message to the log endpoint.">
<polygon fill="#bfbfbf" stroke="black" points="378,-73.5 378,-103.5 525,-103.5 525,-73.5 378,-73.5"/>
<text text-anchor="start" x="386" y="-91.5" font-family="Helvetica,sans-Serif" font-size="10.00">VolumeControl.Log.LogWriter.</text>
<text text-anchor="middle" x="451.5" y="-80.5" font-family="Helvetica,sans-Serif" font-size="10.00">Debug</text>
</a>
</g>
</g>
<!-- Node2 -->
<g id="node2" class="node">
<title>Node2</title>
<g id="a_node2"><a xlink:href="class_volume_control_1_1_hotkeys_1_1_hotkey_manager.html#a57c8d96dc5d4178d5b6d15a5df8fa374" target="_top" xlink:title="Adds a window message hook to receive hotkey press messages and route them to the associated event tr...">
<polygon fill="none" stroke="black" points="189,-147.5 189,-177.5 342,-177.5 342,-147.5 189,-147.5"/>
<text text-anchor="start" x="197" y="-165.5" font-family="Helvetica,sans-Serif" font-size="10.00">VolumeControl.Hotkeys.Hotkey</text>
<text text-anchor="middle" x="265.5" y="-154.5" font-family="Helvetica,sans-Serif" font-size="10.00">Manager.AddHook</text>
</a>
</g>
</g>
<!-- Node1&#45;&gt;Node2 -->
<g id="edge1" class="edge">
<title>Node1&#45;&gt;Node2</title>
<path fill="none" stroke="midnightblue" d="M411.25,-108.02C390.86,-117.79 365.37,-129.44 342,-138.5 333.92,-141.63 325.25,-144.68 316.76,-147.49"/>
<polygon fill="midnightblue" stroke="midnightblue" points="413.05,-111.03 420.53,-103.53 410.01,-104.73 413.05,-111.03"/>
</g>
<!-- Node4 -->
<g id="node4" class="node">
<title>Node4</title>
<g id="a_node4"><a xlink:href="class_volume_control_1_1_hotkeys_1_1_hotkey_manager.html#a2109e5e62f1d469c63acc9c6fd832f61" target="_top" xlink:title="Loads hotkeys from the settings file and binds them to the associated actions.">
<polygon fill="none" stroke="black" points="189,-98.5 189,-128.5 342,-128.5 342,-98.5 189,-98.5"/>
<text text-anchor="start" x="197" y="-116.5" font-family="Helvetica,sans-Serif" font-size="10.00">VolumeControl.Hotkeys.Hotkey</text>
<text text-anchor="middle" x="265.5" y="-105.5" font-family="Helvetica,sans-Serif" font-size="10.00">Manager.LoadHotkeys</text>
</a>
</g>
</g>
<!-- Node1&#45;&gt;Node4 -->
<g id="edge3" class="edge">
<title>Node1&#45;&gt;Node4</title>
<path fill="none" stroke="midnightblue" d="M367.78,-99.74C359.2,-100.91 350.51,-102.09 342.02,-103.24"/>
<polygon fill="midnightblue" stroke="midnightblue" points="368.34,-103.2 377.78,-98.38 367.4,-96.26 368.34,-103.2"/>
</g>
<!-- Node5 -->
<g id="node5" class="node">
<title>Node5</title>
<g id="a_node5"><a xlink:href="class_volume_control_1_1_hotkeys_1_1_hotkey_manager.html#a43f5e3e31ab161cd9e8701fe39d1114e" target="_top" xlink:title="Removes the message hook from the application&#39;s handle.">
<polygon fill="none" stroke="black" points="189,-49.5 189,-79.5 342,-79.5 342,-49.5 189,-49.5"/>
<text text-anchor="start" x="197" y="-67.5" font-family="Helvetica,sans-Serif" font-size="10.00">VolumeControl.Hotkeys.Hotkey</text>
<text text-anchor="middle" x="265.5" y="-56.5" font-family="Helvetica,sans-Serif" font-size="10.00">Manager.RemoveHook</text>
</a>
</g>
</g>
<!-- Node1&#45;&gt;Node5 -->
<g id="edge5" class="edge">
<title>Node1&#45;&gt;Node5</title>
<path fill="none" stroke="midnightblue" d="M367.78,-77.71C359.2,-76.59 350.51,-75.46 342.02,-74.35"/>
<polygon fill="midnightblue" stroke="midnightblue" points="367.41,-81.19 377.78,-79.01 368.32,-74.25 367.41,-81.19"/>
</g>
<!-- Node6 -->
<g id="node6" class="node">
<title>Node6</title>
<g id="a_node6"><a xlink:href="class_volume_control_1_1_hotkeys_1_1_hotkey_manager.html#ad179564abe8e8dcf492a365cffdcad6c" target="_top" xlink:title="Saves all hotkeys to the settings file.">
<polygon fill="none" stroke="black" points="189,-0.5 189,-30.5 342,-30.5 342,-0.5 189,-0.5"/>
<text text-anchor="start" x="197" y="-18.5" font-family="Helvetica,sans-Serif" font-size="10.00">VolumeControl.Hotkeys.Hotkey</text>
<text text-anchor="middle" x="265.5" y="-7.5" font-family="Helvetica,sans-Serif" font-size="10.00">Manager.SaveHotkeys</text>
</a>
</g>
</g>
<!-- Node1&#45;&gt;Node6 -->
<g id="edge6" class="edge">
<title>Node1&#45;&gt;Node6</title>
<path fill="none" stroke="midnightblue" d="M409.37,-69.18C389.25,-60.02 364.56,-49.2 342,-40.5 333.11,-37.07 323.53,-33.67 314.27,-30.54"/>
<polygon fill="midnightblue" stroke="midnightblue" points="408.01,-72.41 418.56,-73.39 410.93,-66.04 408.01,-72.41"/>
</g>
<!-- Node3 -->
<g id="node3" class="node">
<title>Node3</title>
<g id="a_node3"><a xlink:href="class_volume_control_1_1_hotkeys_1_1_hotkey_manager.html#ac4e52046790fdd5d2e75a1c50510da22" target="_top" xlink:title=" ">
<polygon fill="none" stroke="black" points="0,-122.5 0,-152.5 153,-152.5 153,-122.5 0,-122.5"/>
<text text-anchor="start" x="8" y="-140.5" font-family="Helvetica,sans-Serif" font-size="10.00">VolumeControl.Hotkeys.Hotkey</text>
<text text-anchor="middle" x="76.5" y="-129.5" font-family="Helvetica,sans-Serif" font-size="10.00">Manager.HotkeyManager</text>
</a>
</g>
</g>
<!-- Node2&#45;&gt;Node3 -->
<g id="edge2" class="edge">
<title>Node2&#45;&gt;Node3</title>
<path fill="none" stroke="midnightblue" d="M178.98,-151.07C170.42,-149.92 161.76,-148.76 153.3,-147.63"/>
<polygon fill="midnightblue" stroke="midnightblue" points="178.6,-154.55 188.98,-152.4 179.53,-147.61 178.6,-154.55"/>
</g>
<!-- Node4&#45;&gt;Node3 -->
<g id="edge4" class="edge">
<title>Node4&#45;&gt;Node3</title>
<path fill="none" stroke="midnightblue" d="M178.98,-124.48C170.42,-125.58 161.76,-126.69 153.3,-127.77"/>
<polygon fill="midnightblue" stroke="midnightblue" points="179.51,-127.94 188.98,-123.19 178.61,-120.99 179.51,-127.94"/>
</g>
</g>
</svg>
