<?xml version="1.0" encoding="UTF-8" standalone="no"?>
<!DOCTYPE svg PUBLIC "-//W3C//DTD SVG 1.1//EN"
 "http://www.w3.org/Graphics/SVG/1.1/DTD/svg11.dtd">
<!-- Generated by graphviz version 2.44.1 (20200629.0800)
 -->
<!-- Title: VolumeControl.Hotkeys.HotkeyManager.HotkeyManager Pages: 1 -->
<svg width="543pt" height="235pt"
 viewBox="0.00 0.00 543.00 235.00" xmlns="http://www.w3.org/2000/svg" xmlns:xlink="http://www.w3.org/1999/xlink">
<g id="graph0" class="graph" transform="scale(1 1) rotate(0) translate(4 231)">
<title>VolumeControl.Hotkeys.HotkeyManager.HotkeyManager</title>
<!-- Node1 -->
<g id="node1" class="node">
<title>Node1</title>
<g id="a_node1"><a xlink:title=" ">
<polygon fill="#bfbfbf" stroke="black" points="0,-73.5 0,-103.5 153,-103.5 153,-73.5 0,-73.5"/>
<text text-anchor="start" x="8" y="-91.5" font-family="Helvetica,sans-Serif" font-size="10.00">VolumeControl.Hotkeys.Hotkey</text>
<text text-anchor="middle" x="76.5" y="-80.5" font-family="Helvetica,sans-Serif" font-size="10.00">Manager.HotkeyManager</text>
</a>
</g>
</g>
<!-- Node2 -->
<g id="node2" class="node">
<title>Node2</title>
<g id="a_node2"><a xlink:href="class_volume_control_1_1_hotkeys_1_1_hotkey_manager.html#a57c8d96dc5d4178d5b6d15a5df8fa374" target="_top" xlink:title="Adds a window message hook to receive hotkey press messages and route them to the associated event tr...">
<polygon fill="none" stroke="black" points="189,-98.5 189,-128.5 342,-128.5 342,-98.5 189,-98.5"/>
<text text-anchor="start" x="197" y="-116.5" font-family="Helvetica,sans-Serif" font-size="10.00">VolumeControl.Hotkeys.Hotkey</text>
<text text-anchor="middle" x="265.5" y="-105.5" font-family="Helvetica,sans-Serif" font-size="10.00">Manager.AddHook</text>
</a>
</g>
</g>
<!-- Node1&#45;&gt;Node2 -->
<g id="edge1" class="edge">
<title>Node1&#45;&gt;Node2</title>
<path fill="none" stroke="midnightblue" d="M153.02,-98.6C161.47,-99.73 170.13,-100.88 178.7,-102.03"/>
<polygon fill="midnightblue" stroke="midnightblue" points="178.32,-105.51 188.7,-103.37 179.25,-98.57 178.32,-105.51"/>
</g>
<!-- Node7 -->
<g id="node7" class="node">
<title>Node7</title>
<g id="a_node7"><a xlink:href="class_volume_control_1_1_hotkeys_1_1_hotkey_manager.html#a2109e5e62f1d469c63acc9c6fd832f61" target="_top" xlink:title="Loads hotkeys from the settings file and binds them to the associated actions.">
<polygon fill="none" stroke="black" points="189,-49.5 189,-79.5 342,-79.5 342,-49.5 189,-49.5"/>
<text text-anchor="start" x="197" y="-67.5" font-family="Helvetica,sans-Serif" font-size="10.00">VolumeControl.Hotkeys.Hotkey</text>
<text text-anchor="middle" x="265.5" y="-56.5" font-family="Helvetica,sans-Serif" font-size="10.00">Manager.LoadHotkeys</text>
</a>
</g>
</g>
<!-- Node1&#45;&gt;Node7 -->
<g id="edge6" class="edge">
<title>Node1&#45;&gt;Node7</title>
<path fill="none" stroke="midnightblue" d="M153.02,-78.81C161.47,-77.72 170.13,-76.61 178.7,-75.51"/>
<polygon fill="midnightblue" stroke="midnightblue" points="179.22,-78.97 188.7,-74.23 178.33,-72.03 179.22,-78.97"/>
</g>
<!-- Node3 -->
<g id="node3" class="node">
<title>Node3</title>
<g id="a_node3"><a xlink:href="class_volume_control_1_1_log_1_1_log_writer.html#a09e652d1c8049b4b137d45dd2a6466a4" target="_top" xlink:title="Write a formatted EventType.DEBUG message to the log endpoint.">
<polygon fill="none" stroke="black" points="383,-49.5 383,-79.5 530,-79.5 530,-49.5 383,-49.5"/>
<text text-anchor="start" x="391" y="-67.5" font-family="Helvetica,sans-Serif" font-size="10.00">VolumeControl.Log.LogWriter.</text>
<text text-anchor="middle" x="456.5" y="-56.5" font-family="Helvetica,sans-Serif" font-size="10.00">Debug</text>
</a>
</g>
</g>
<!-- Node2&#45;&gt;Node3 -->
<g id="edge2" class="edge">
<title>Node2&#45;&gt;Node3</title>
<path fill="none" stroke="midnightblue" d="M324.49,-98.47C344.54,-93.27 367.17,-87.4 387.92,-82.02"/>
<polygon fill="midnightblue" stroke="midnightblue" points="388.82,-85.4 397.62,-79.51 387.06,-78.63 388.82,-85.4"/>
</g>
<!-- Node4 -->
<g id="node4" class="node">
<title>Node4</title>
<g id="a_node4"><a xlink:href="class_volume_control_1_1_w_p_f_1_1_window_handle_getter.html#ae1d05b0322c8ff6efcef70a2538ba1fb" target="_top" xlink:title="Gets the HwndSource associated with the given Window Handle hWnd .">
<polygon fill="none" stroke="black" points="383,-196.5 383,-226.5 530,-226.5 530,-196.5 383,-196.5"/>
<text text-anchor="start" x="391" y="-214.5" font-family="Helvetica,sans-Serif" font-size="10.00">VolumeControl.WPF.Window</text>
<text text-anchor="middle" x="456.5" y="-203.5" font-family="Helvetica,sans-Serif" font-size="10.00">HandleGetter.GetHwndSource</text>
</a>
</g>
</g>
<!-- Node2&#45;&gt;Node4 -->
<g id="edge3" class="edge">
<title>Node2&#45;&gt;Node4</title>
<path fill="none" stroke="midnightblue" d="M285.62,-128.67C307.06,-145.07 343.37,-171.06 378,-187.5 382.05,-189.42 386.28,-191.23 390.6,-192.94"/>
<polygon fill="midnightblue" stroke="midnightblue" points="389.55,-196.28 400.14,-196.49 391.99,-189.72 389.55,-196.28"/>
</g>
<!-- Node5 -->
<g id="node5" class="node">
<title>Node5</title>
<g id="a_node5"><a xlink:href="class_volume_control_1_1_w_p_f_1_1_window_handle_getter.html#af3958c64d6b5bae2bcf558dacacba07a" target="_top" xlink:title="Gets the primary WPF window&#39;s handle. This uses WindowInteropHelper.EnsureHandle to ensure that a val...">
<polygon fill="none" stroke="black" points="378,-147.5 378,-177.5 535,-177.5 535,-147.5 378,-147.5"/>
<text text-anchor="start" x="386" y="-165.5" font-family="Helvetica,sans-Serif" font-size="10.00">VolumeControl.WPF.Window</text>
<text text-anchor="middle" x="456.5" y="-154.5" font-family="Helvetica,sans-Serif" font-size="10.00">HandleGetter.GetWindowHandle</text>
</a>
</g>
</g>
<!-- Node2&#45;&gt;Node5 -->
<g id="edge4" class="edge">
<title>Node2&#45;&gt;Node5</title>
<path fill="none" stroke="midnightblue" d="M324.49,-128.53C344.54,-133.73 367.17,-139.6 387.92,-144.98"/>
<polygon fill="midnightblue" stroke="midnightblue" points="387.06,-148.37 397.62,-147.49 388.82,-141.6 387.06,-148.37"/>
</g>
<!-- Node6 -->
<g id="node6" class="node">
<title>Node6</title>
<g id="a_node6"><a xlink:href="class_volume_control_1_1_hotkeys_1_1_hotkey_manager.html#a82111b1efcdec01dbb49ee185094c677" target="_top" xlink:title="Handles window messages, and triggers WindowsHotkey.Pressed events.">
<polygon fill="none" stroke="black" points="380,-98.5 380,-128.5 533,-128.5 533,-98.5 380,-98.5"/>
<text text-anchor="start" x="388" y="-116.5" font-family="Helvetica,sans-Serif" font-size="10.00">VolumeControl.Hotkeys.Hotkey</text>
<text text-anchor="middle" x="456.5" y="-105.5" font-family="Helvetica,sans-Serif" font-size="10.00">Manager.HwndHook</text>
</a>
</g>
</g>
<!-- Node2&#45;&gt;Node6 -->
<g id="edge5" class="edge">
<title>Node2&#45;&gt;Node6</title>
<path fill="none" stroke="midnightblue" d="M342.01,-113.5C351.05,-113.5 360.33,-113.5 369.51,-113.5"/>
<polygon fill="midnightblue" stroke="midnightblue" points="369.8,-117 379.8,-113.5 369.8,-110 369.8,-117"/>
</g>
<!-- Node7&#45;&gt;Node3 -->
<g id="edge7" class="edge">
<title>Node7&#45;&gt;Node3</title>
<path fill="none" stroke="midnightblue" d="M342.01,-64.5C352.11,-64.5 362.52,-64.5 372.74,-64.5"/>
<polygon fill="midnightblue" stroke="midnightblue" points="372.87,-68 382.87,-64.5 372.87,-61 372.87,-68"/>
</g>
<!-- Node8 -->
<g id="node8" class="node">
<title>Node8</title>
<g id="a_node8"><a xlink:href="class_volume_control_1_1_log_1_1_log_writer.html#ae7780f22869e53ce4a1aad3fc6fa0bf7" target="_top" xlink:title="Write a formatted EventType.ERROR message to the log endpoint.">
<polygon fill="none" stroke="black" points="383,-0.5 383,-30.5 530,-30.5 530,-0.5 383,-0.5"/>
<text text-anchor="start" x="391" y="-18.5" font-family="Helvetica,sans-Serif" font-size="10.00">VolumeControl.Log.LogWriter.</text>
<text text-anchor="middle" x="456.5" y="-7.5" font-family="Helvetica,sans-Serif" font-size="10.00">Error</text>
</a>
</g>
</g>
<!-- Node7&#45;&gt;Node8 -->
<g id="edge8" class="edge">
<title>Node7&#45;&gt;Node8</title>
<path fill="none" stroke="midnightblue" d="M324.49,-49.47C344.54,-44.27 367.17,-38.4 387.92,-33.02"/>
<polygon fill="midnightblue" stroke="midnightblue" points="388.82,-36.4 397.62,-30.51 387.06,-29.63 388.82,-36.4"/>
</g>
</g>
</svg>
