<?xml version="1.0" encoding="UTF-8" standalone="no"?>
<!DOCTYPE svg PUBLIC "-//W3C//DTD SVG 1.1//EN"
 "http://www.w3.org/Graphics/SVG/1.1/DTD/svg11.dtd">
<!-- Generated by graphviz version 2.43.0 (0)
 -->
<!-- Title: VolumeControl.Audio.Events.VolumeChangedEventArgs Pages: 1 -->
<svg width="233pt" height="183pt"
 viewBox="0.00 0.00 233.00 183.00" xmlns="http://www.w3.org/2000/svg" xmlns:xlink="http://www.w3.org/1999/xlink">
<g id="graph0" class="graph" transform="scale(1 1) rotate(0) translate(4 179)">
<title>VolumeControl.Audio.Events.VolumeChangedEventArgs</title>
<!-- Node1 -->
<g id="node1" class="node">
<title>Node1</title>
<g id="a_node1"><a xlink:title="Event arguments for volume change events.">
<polygon fill="#bfbfbf" stroke="black" points="0,-0.5 0,-79.5 164,-79.5 164,-0.5 0,-0.5"/>
<text text-anchor="start" x="8" y="-67.5" font-family="Helvetica,sans-Serif" font-size="10.00">VolumeControl.Audio.Events.</text>
<text text-anchor="middle" x="82" y="-56.5" font-family="Helvetica,sans-Serif" font-size="10.00">VolumeChangedEventArgs</text>
<polyline fill="none" stroke="black" points="0,-49.5 164,-49.5 "/>
<text text-anchor="start" x="8" y="-37.5" font-family="Helvetica,sans-Serif" font-size="10.00">+ Volume</text>
<text text-anchor="start" x="8" y="-26.5" font-family="Helvetica,sans-Serif" font-size="10.00">+ Muted</text>
<polyline fill="none" stroke="black" points="0,-19.5 164,-19.5 "/>
<text text-anchor="start" x="8" y="-7.5" font-family="Helvetica,sans-Serif" font-size="10.00">+ VolumeChangedEventArgs()</text>
</a>
</g>
</g>
<!-- Node1&#45;&gt;Node1 -->
<g id="edge2" class="edge">
<title>Node1&#45;&gt;Node1</title>
<path fill="none" stroke="#404040" d="M164.38,-49.53C174.99,-47.88 182,-44.7 182,-40 182,-37.43 179.9,-35.31 176.27,-33.65"/>
<polygon fill="none" stroke="#404040" points="175.98,-33.58 169.14,-35.89 164.38,-30.47 171.22,-28.16 175.98,-33.58"/>
<text text-anchor="middle" x="203.5" y="-37.5" font-family="Helvetica,sans-Serif" font-size="10.00"> +Empty</text>
</g>
<!-- Node2 -->
<g id="node2" class="node">
<title>Node2</title>
<g id="a_node2"><a xlink:title=" ">
<polygon fill="none" stroke="#bfbfbf" points="49,-117.5 49,-174.5 115,-174.5 115,-117.5 49,-117.5"/>
<text text-anchor="middle" x="82" y="-162.5" font-family="Helvetica,sans-Serif" font-size="10.00">EventArgs</text>
<polyline fill="none" stroke="#bfbfbf" points="49,-155.5 115,-155.5 "/>
<text text-anchor="middle" x="82" y="-143.5" font-family="Helvetica,sans-Serif" font-size="10.00"> </text>
<polyline fill="none" stroke="#bfbfbf" points="49,-136.5 115,-136.5 "/>
<text text-anchor="middle" x="82" y="-124.5" font-family="Helvetica,sans-Serif" font-size="10.00"> </text>
</a>
</g>
</g>
<!-- Node2&#45;&gt;Node1 -->
<g id="edge1" class="edge">
<title>Node2&#45;&gt;Node1</title>
<path fill="none" stroke="midnightblue" d="M82,-107.23C82,-98.27 82,-88.69 82,-79.69"/>
<polygon fill="none" stroke="midnightblue" points="78.5,-107.4 82,-117.4 85.5,-107.4 78.5,-107.4"/>
</g>
</g>
</svg>
