<?xml version="1.0" encoding="UTF-8" standalone="no"?>
<!DOCTYPE svg PUBLIC "-//W3C//DTD SVG 1.1//EN"
 "http://www.w3.org/Graphics/SVG/1.1/DTD/svg11.dtd">
<!-- Generated by graphviz version 2.44.1 (20200629.0800)
 -->
<!-- Title: VolumeControl.Audio.AudioAPI.ReloadDeviceList Pages: 1 -->
<svg width="488pt" height="185pt"
 viewBox="0.00 0.00 488.00 185.00" xmlns="http://www.w3.org/2000/svg" xmlns:xlink="http://www.w3.org/1999/xlink">
<g id="graph0" class="graph" transform="scale(1 1) rotate(0) translate(4 181)">
<title>VolumeControl.Audio.AudioAPI.ReloadDeviceList</title>
<!-- Node1 -->
<g id="node1" class="node">
<title>Node1</title>
<g id="a_node1"><a xlink:title="Performs a selective update on the Devices list property by removing old/disabled/unplugged entries a...">
<polygon fill="#bfbfbf" stroke="black" points="344,-73.5 344,-103.5 480,-103.5 480,-73.5 344,-73.5"/>
<text text-anchor="start" x="352" y="-91.5" font-family="Helvetica,sans-Serif" font-size="10.00">VolumeControl.Audio.Audio</text>
<text text-anchor="middle" x="412" y="-80.5" font-family="Helvetica,sans-Serif" font-size="10.00">API.ReloadDeviceList</text>
</a>
</g>
</g>
<!-- Node2 -->
<g id="node2" class="node">
<title>Node2</title>
<g id="a_node2"><a xlink:href="class_volume_control_1_1_audio_1_1_audio_a_p_i.html#a853939c68f8d75d087dd7a14819604c4" target="_top" xlink:title=" ">
<polygon fill="none" stroke="black" points="0,-146.5 0,-176.5 136,-176.5 136,-146.5 0,-146.5"/>
<text text-anchor="start" x="8" y="-164.5" font-family="Helvetica,sans-Serif" font-size="10.00">VolumeControl.Audio.Audio</text>
<text text-anchor="middle" x="68" y="-153.5" font-family="Helvetica,sans-Serif" font-size="10.00">API.AudioAPI</text>
</a>
</g>
</g>
<!-- Node1&#45;&gt;Node2 -->
<g id="edge1" class="edge">
<title>Node1&#45;&gt;Node2</title>
<path fill="none" stroke="midnightblue" d="M377.36,-108.62C357.8,-119.33 332.28,-131.68 308,-138.5 251.42,-154.4 184.66,-159.76 136.1,-161.37"/>
<polygon fill="midnightblue" stroke="midnightblue" points="379.17,-111.62 386.18,-103.68 375.75,-105.51 379.17,-111.62"/>
</g>
<!-- Node3 -->
<g id="node3" class="node">
<title>Node3</title>
<g id="a_node3"><a xlink:href="class_volume_control_1_1_audio_1_1_audio_a_p_i.html#ac3e7afbc0735865b41053dca511119b3" target="_top" xlink:title="Performs a selective update on the Sessions list property by removing old/exited entries and adding n...">
<polygon fill="none" stroke="black" points="172,-98.5 172,-128.5 308,-128.5 308,-98.5 172,-98.5"/>
<text text-anchor="start" x="180" y="-116.5" font-family="Helvetica,sans-Serif" font-size="10.00">VolumeControl.Audio.Audio</text>
<text text-anchor="middle" x="240" y="-105.5" font-family="Helvetica,sans-Serif" font-size="10.00">API.ReloadSessionList</text>
</a>
</g>
</g>
<!-- Node1&#45;&gt;Node3 -->
<g id="edge2" class="edge">
<title>Node1&#45;&gt;Node3</title>
<path fill="none" stroke="midnightblue" d="M333.85,-99.85C325.31,-101.1 316.66,-102.37 308.26,-103.61"/>
<polygon fill="midnightblue" stroke="midnightblue" points="334.43,-103.3 343.81,-98.38 333.41,-96.37 334.43,-103.3"/>
</g>
<!-- Node6 -->
<g id="node6" class="node">
<title>Node6</title>
<g id="a_node6"><a xlink:href="class_volume_control_1_1_audio_1_1_audio_a_p_i.html#aa690fde5b4d6e42488899e644143606a" target="_top" xlink:title="Sets SelectedDevice to the device occurring after this one in Devices. &#160;Automatically loops back arou...">
<polygon fill="none" stroke="black" points="172,-49.5 172,-79.5 308,-79.5 308,-49.5 172,-49.5"/>
<text text-anchor="start" x="180" y="-67.5" font-family="Helvetica,sans-Serif" font-size="10.00">VolumeControl.Audio.Audio</text>
<text text-anchor="middle" x="240" y="-56.5" font-family="Helvetica,sans-Serif" font-size="10.00">API.SelectNextDevice</text>
</a>
</g>
</g>
<!-- Node1&#45;&gt;Node6 -->
<g id="edge6" class="edge">
<title>Node1&#45;&gt;Node6</title>
<path fill="none" stroke="midnightblue" d="M333.85,-77.61C325.31,-76.4 316.66,-75.18 308.26,-74"/>
<polygon fill="midnightblue" stroke="midnightblue" points="333.42,-81.08 343.81,-79.01 334.4,-74.15 333.42,-81.08"/>
</g>
<!-- Node7 -->
<g id="node7" class="node">
<title>Node7</title>
<g id="a_node7"><a xlink:href="class_volume_control_1_1_audio_1_1_audio_a_p_i.html#a9b72b7ddf1e303e35f3b60c507c10943" target="_top" xlink:title="Sets SelectedDevice to the device occurring before this one in Devices. &#160;Automatically loops back aro...">
<polygon fill="none" stroke="black" points="172,-0.5 172,-30.5 308,-30.5 308,-0.5 172,-0.5"/>
<text text-anchor="start" x="180" y="-18.5" font-family="Helvetica,sans-Serif" font-size="10.00">VolumeControl.Audio.Audio</text>
<text text-anchor="middle" x="240" y="-7.5" font-family="Helvetica,sans-Serif" font-size="10.00">API.SelectPreviousDevice</text>
</a>
</g>
</g>
<!-- Node1&#45;&gt;Node7 -->
<g id="edge7" class="edge">
<title>Node1&#45;&gt;Node7</title>
<path fill="none" stroke="midnightblue" d="M372.16,-68.89C353.04,-59.53 329.53,-48.45 308,-39.5 300.7,-36.46 292.86,-33.45 285.21,-30.63"/>
<polygon fill="midnightblue" stroke="midnightblue" points="370.64,-72.05 381.16,-73.33 373.74,-65.77 370.64,-72.05"/>
</g>
<!-- Node3&#45;&gt;Node2 -->
<g id="edge3" class="edge">
<title>Node3&#45;&gt;Node2</title>
<path fill="none" stroke="midnightblue" d="M176,-131.29C158.29,-136.29 139.21,-141.68 122.13,-146.5"/>
<polygon fill="midnightblue" stroke="midnightblue" points="177,-134.64 185.68,-128.56 175.1,-127.9 177,-134.64"/>
</g>
<!-- Node4 -->
<g id="node4" class="node">
<title>Node4</title>
<g id="a_node4"><a xlink:href="class_volume_control_1_1_audio_1_1_audio_a_p_i.html#ac4d6652e0c43e1e6ad382e7ee27aa852" target="_top" xlink:title="Sets SelectedSession to the session occurring after this one in Sessions. &#160;Automatically loops back a...">
<polygon fill="none" stroke="black" points="0,-97.5 0,-127.5 136,-127.5 136,-97.5 0,-97.5"/>
<text text-anchor="start" x="8" y="-115.5" font-family="Helvetica,sans-Serif" font-size="10.00">VolumeControl.Audio.Audio</text>
<text text-anchor="middle" x="68" y="-104.5" font-family="Helvetica,sans-Serif" font-size="10.00">API.SelectNextSession</text>
</a>
</g>
</g>
<!-- Node3&#45;&gt;Node4 -->
<g id="edge4" class="edge">
<title>Node3&#45;&gt;Node4</title>
<path fill="none" stroke="midnightblue" d="M161.58,-113.04C153.12,-112.99 144.57,-112.94 136.26,-112.9"/>
<polygon fill="midnightblue" stroke="midnightblue" points="161.79,-116.55 171.81,-113.1 161.83,-109.55 161.79,-116.55"/>
</g>
<!-- Node5 -->
<g id="node5" class="node">
<title>Node5</title>
<g id="a_node5"><a xlink:href="class_volume_control_1_1_audio_1_1_audio_a_p_i.html#a26b47e154c1d12a394a95a5bea66047d" target="_top" xlink:title="Sets SelectedSession to the session occurring before this one in Sessions. &#160;Automatically loops back ...">
<polygon fill="none" stroke="black" points="0,-48.5 0,-78.5 136,-78.5 136,-48.5 0,-48.5"/>
<text text-anchor="start" x="8" y="-66.5" font-family="Helvetica,sans-Serif" font-size="10.00">VolumeControl.Audio.Audio</text>
<text text-anchor="middle" x="68" y="-55.5" font-family="Helvetica,sans-Serif" font-size="10.00">API.SelectPreviousSession</text>
</a>
</g>
</g>
<!-- Node3&#45;&gt;Node5 -->
<g id="edge5" class="edge">
<title>Node3&#45;&gt;Node5</title>
<path fill="none" stroke="midnightblue" d="M178.25,-95.63C159.27,-90.05 138.53,-83.95 120.26,-78.58"/>
<polygon fill="midnightblue" stroke="midnightblue" points="177.41,-99.03 187.99,-98.5 179.39,-92.32 177.41,-99.03"/>
</g>
</g>
</svg>
