<?xml version="1.0" encoding="UTF-8" standalone="no"?>
<!DOCTYPE svg PUBLIC "-//W3C//DTD SVG 1.1//EN"
 "http://www.w3.org/Graphics/SVG/1.1/DTD/svg11.dtd">
<!-- Generated by graphviz version 2.43.0 (0)
 -->
<!-- Title: VolumeControl.Core.Input.Hotkey Pages: 1 -->
<svg width="242pt" height="441pt"
 viewBox="0.00 0.00 241.50 441.00" xmlns="http://www.w3.org/2000/svg" xmlns:xlink="http://www.w3.org/1999/xlink">
<g id="graph0" class="graph" transform="scale(1 1) rotate(0) translate(4 437)">
<title>VolumeControl.Core.Input.Hotkey</title>
<!-- Node1 -->
<g id="node1" class="node">
<title>Node1</title>
<g id="a_node1"><a xlink:title="A Hotkey that may be registered with the windows API.">
<polygon fill="#bfbfbf" stroke="black" points="50,-0.5 50,-200.5 205,-200.5 205,-0.5 50,-0.5"/>
<text text-anchor="start" x="58" y="-188.5" font-family="Helvetica,sans-Serif" font-size="10.00">VolumeControl.Core.Input.</text>
<text text-anchor="middle" x="127.5" y="-177.5" font-family="Helvetica,sans-Serif" font-size="10.00">Hotkey</text>
<polyline fill="none" stroke="black" points="50,-170.5 205,-170.5 "/>
<text text-anchor="start" x="58" y="-158.5" font-family="Helvetica,sans-Serif" font-size="10.00">+ ID</text>
<text text-anchor="start" x="58" y="-147.5" font-family="Helvetica,sans-Serif" font-size="10.00">+ Key</text>
<text text-anchor="start" x="58" y="-136.5" font-family="Helvetica,sans-Serif" font-size="10.00">+ Modifier</text>
<text text-anchor="start" x="58" y="-125.5" font-family="Helvetica,sans-Serif" font-size="10.00">+ Registered</text>
<text text-anchor="start" x="58" y="-114.5" font-family="Helvetica,sans-Serif" font-size="10.00">+ HasError</text>
<text text-anchor="start" x="58" y="-103.5" font-family="Helvetica,sans-Serif" font-size="10.00">+ ErrorMessage</text>
<text text-anchor="start" x="58" y="-92.5" font-family="Helvetica,sans-Serif" font-size="10.00">+ ActionSettings</text>
<polyline fill="none" stroke="black" points="50,-85.5 205,-85.5 "/>
<text text-anchor="start" x="58" y="-73.5" font-family="Helvetica,sans-Serif" font-size="10.00">+ Hotkey()</text>
<text text-anchor="start" x="58" y="-62.5" font-family="Helvetica,sans-Serif" font-size="10.00">+ Hotkey()</text>
<text text-anchor="start" x="58" y="-51.5" font-family="Helvetica,sans-Serif" font-size="10.00">+ GetStringRepresentation()</text>
<text text-anchor="start" x="58" y="-40.5" font-family="Helvetica,sans-Serif" font-size="10.00">+ Dispose()</text>
<text text-anchor="start" x="58" y="-29.5" font-family="Helvetica,sans-Serif" font-size="10.00">~ SetError()</text>
<text text-anchor="start" x="58" y="-18.5" font-family="Helvetica,sans-Serif" font-size="10.00">~ UnsetError()</text>
<text text-anchor="start" x="58" y="-7.5" font-family="Helvetica,sans-Serif" font-size="10.00">~ MessageHook()</text>
</a>
</g>
</g>
<!-- Node2 -->
<g id="node2" class="node">
<title>Node2</title>
<g id="a_node2"><a xlink:href="interface_volume_control_1_1_core_1_1_input_1_1_i_hotkey.html" target="_top" xlink:title="Represents a hotkey instance.">
<polygon fill="none" stroke="black" points="78.5,-237.5 78.5,-338.5 176.5,-338.5 176.5,-237.5 78.5,-237.5"/>
<text text-anchor="middle" x="127.5" y="-326.5" font-family="Helvetica,sans-Serif" font-size="10.00">IHotkey</text>
<polyline fill="none" stroke="black" points="78.5,-319.5 176.5,-319.5 "/>
<text text-anchor="start" x="86.5" y="-307.5" font-family="Helvetica,sans-Serif" font-size="10.00">+ ID</text>
<text text-anchor="start" x="86.5" y="-296.5" font-family="Helvetica,sans-Serif" font-size="10.00">+ Key</text>
<text text-anchor="start" x="86.5" y="-285.5" font-family="Helvetica,sans-Serif" font-size="10.00">+ Modifier</text>
<text text-anchor="start" x="86.5" y="-274.5" font-family="Helvetica,sans-Serif" font-size="10.00">+ Registered</text>
<text text-anchor="start" x="86.5" y="-263.5" font-family="Helvetica,sans-Serif" font-size="10.00">+ ActionSettings</text>
<polyline fill="none" stroke="black" points="78.5,-256.5 176.5,-256.5 "/>
<text text-anchor="middle" x="127.5" y="-244.5" font-family="Helvetica,sans-Serif" font-size="10.00"> </text>
</a>
</g>
</g>
<!-- Node2&#45;&gt;Node1 -->
<g id="edge1" class="edge">
<title>Node2&#45;&gt;Node1</title>
<path fill="none" stroke="midnightblue" d="M127.5,-227.17C127.5,-218.68 127.5,-209.77 127.5,-200.78"/>
<polygon fill="none" stroke="midnightblue" points="124,-227.29 127.5,-237.29 131,-227.29 124,-227.29"/>
</g>
<!-- Node3 -->
<g id="node3" class="node">
<title>Node3</title>
<g id="a_node3"><a xlink:title=" ">
<polygon fill="none" stroke="#bfbfbf" points="0,-375.5 0,-432.5 133,-432.5 133,-375.5 0,-375.5"/>
<text text-anchor="middle" x="66.5" y="-420.5" font-family="Helvetica,sans-Serif" font-size="10.00">INotifyPropertyChanged</text>
<polyline fill="none" stroke="#bfbfbf" points="0,-413.5 133,-413.5 "/>
<text text-anchor="middle" x="66.5" y="-401.5" font-family="Helvetica,sans-Serif" font-size="10.00"> </text>
<polyline fill="none" stroke="#bfbfbf" points="0,-394.5 133,-394.5 "/>
<text text-anchor="middle" x="66.5" y="-382.5" font-family="Helvetica,sans-Serif" font-size="10.00"> </text>
</a>
</g>
</g>
<!-- Node3&#45;&gt;Node1 -->
<g id="edge4" class="edge">
<title>Node3&#45;&gt;Node1</title>
<path fill="none" stroke="midnightblue" d="M63.07,-364.91C60.99,-330.96 60.26,-280.11 69.5,-237 72.08,-224.99 75.72,-212.72 79.95,-200.71"/>
<polygon fill="none" stroke="midnightblue" points="59.61,-365.58 63.79,-375.31 66.59,-365.1 59.61,-365.58"/>
</g>
<!-- Node3&#45;&gt;Node2 -->
<g id="edge2" class="edge">
<title>Node3&#45;&gt;Node2</title>
<path fill="none" stroke="midnightblue" d="M86.04,-366.48C90.79,-357.61 95.94,-347.97 100.96,-338.61"/>
<polygon fill="none" stroke="midnightblue" points="82.9,-364.94 81.27,-375.4 89.07,-368.24 82.9,-364.94"/>
</g>
<!-- Node4 -->
<g id="node4" class="node">
<title>Node4</title>
<g id="a_node4"><a xlink:title=" ">
<polygon fill="none" stroke="#bfbfbf" points="159.5,-375.5 159.5,-432.5 233.5,-432.5 233.5,-375.5 159.5,-375.5"/>
<text text-anchor="middle" x="196.5" y="-420.5" font-family="Helvetica,sans-Serif" font-size="10.00">IDisposable</text>
<polyline fill="none" stroke="#bfbfbf" points="159.5,-413.5 233.5,-413.5 "/>
<text text-anchor="middle" x="196.5" y="-401.5" font-family="Helvetica,sans-Serif" font-size="10.00"> </text>
<polyline fill="none" stroke="#bfbfbf" points="159.5,-394.5 233.5,-394.5 "/>
<text text-anchor="middle" x="196.5" y="-382.5" font-family="Helvetica,sans-Serif" font-size="10.00"> </text>
</a>
</g>
</g>
<!-- Node4&#45;&gt;Node1 -->
<g id="edge5" class="edge">
<title>Node4&#45;&gt;Node1</title>
<path fill="none" stroke="midnightblue" d="M197.59,-364.84C197.72,-330.84 195.8,-279.96 185.5,-237 182.64,-225.06 178.81,-212.83 174.48,-200.84"/>
<polygon fill="none" stroke="midnightblue" points="194.09,-365.22 197.49,-375.26 201.09,-365.29 194.09,-365.22"/>
</g>
<!-- Node4&#45;&gt;Node2 -->
<g id="edge3" class="edge">
<title>Node4&#45;&gt;Node2</title>
<path fill="none" stroke="midnightblue" d="M174.56,-366.76C169.15,-357.81 163.25,-348.07 157.53,-338.61"/>
<polygon fill="none" stroke="midnightblue" points="171.62,-368.66 179.8,-375.4 177.61,-365.04 171.62,-368.66"/>
</g>
</g>
</svg>
