<?xml version="1.0" encoding="UTF-8" standalone="no"?>
<!DOCTYPE svg PUBLIC "-//W3C//DTD SVG 1.1//EN"
 "http://www.w3.org/Graphics/SVG/1.1/DTD/svg11.dtd">
<!-- Generated by graphviz version 2.43.0 (0)
 -->
<!-- Title: ObservableImmutable.ObservableCollectionObject Pages: 1 -->
<svg width="300pt" height="573pt"
 viewBox="0.00 0.00 299.50 573.00" xmlns="http://www.w3.org/2000/svg" xmlns:xlink="http://www.w3.org/1999/xlink">
<g id="graph0" class="graph" transform="scale(1 1) rotate(0) translate(4 569)">
<title>ObservableImmutable.ObservableCollectionObject</title>
<!-- Node1 -->
<g id="node1" class="node">
<title>Node1</title>
<g id="a_node1"><a xlink:title=" ">
<polygon fill="#bfbfbf" stroke="black" points="55,-281.5 55,-470.5 239,-470.5 239,-281.5 55,-281.5"/>
<text text-anchor="start" x="63" y="-458.5" font-family="Helvetica,sans-Serif" font-size="10.00">ObservableImmutable.Observable</text>
<text text-anchor="middle" x="147" y="-447.5" font-family="Helvetica,sans-Serif" font-size="10.00">CollectionObject</text>
<polyline fill="none" stroke="black" points="55,-440.5 239,-440.5 "/>
<text text-anchor="start" x="63" y="-428.5" font-family="Helvetica,sans-Serif" font-size="10.00">+ LockType</text>
<polyline fill="none" stroke="black" points="55,-421.5 239,-421.5 "/>
<text text-anchor="start" x="63" y="-409.5" font-family="Helvetica,sans-Serif" font-size="10.00">+ DoEvents()</text>
<text text-anchor="start" x="63" y="-398.5" font-family="Helvetica,sans-Serif" font-size="10.00">+ RaisePropertyChanged()</text>
<text text-anchor="start" x="63" y="-387.5" font-family="Helvetica,sans-Serif" font-size="10.00"># ObservableCollectionObject()</text>
<text text-anchor="start" x="63" y="-376.5" font-family="Helvetica,sans-Serif" font-size="10.00"># GetDispatcher()</text>
<text text-anchor="start" x="63" y="-365.5" font-family="Helvetica,sans-Serif" font-size="10.00"># WaitForCondition()</text>
<text text-anchor="start" x="63" y="-354.5" font-family="Helvetica,sans-Serif" font-size="10.00"># PumpWait_PumpUntil()</text>
<text text-anchor="start" x="63" y="-343.5" font-family="Helvetica,sans-Serif" font-size="10.00"># TryLock()</text>
<text text-anchor="start" x="63" y="-332.5" font-family="Helvetica,sans-Serif" font-size="10.00"># Lock()</text>
<text text-anchor="start" x="63" y="-321.5" font-family="Helvetica,sans-Serif" font-size="10.00"># Unlock()</text>
<text text-anchor="start" x="63" y="-310.5" font-family="Helvetica,sans-Serif" font-size="10.00"># OnCollectionChanged()</text>
<text text-anchor="start" x="63" y="-299.5" font-family="Helvetica,sans-Serif" font-size="10.00"># RaiseNotifyCollectionChanged()</text>
<text text-anchor="start" x="63" y="-288.5" font-family="Helvetica,sans-Serif" font-size="10.00"># RaiseNotifyCollectionChanged()</text>
</a>
</g>
</g>
<!-- Node4 -->
<g id="node4" class="node">
<title>Node4</title>
<g id="a_node4"><a xlink:href="class_observable_immutable_1_1_observable_immutable_list.html" target="_top" xlink:title=" ">
<polygon fill="none" stroke="black" points="55,-0.5 55,-244.5 239,-244.5 239,-0.5 55,-0.5"/>
<text text-anchor="start" x="63" y="-232.5" font-family="Helvetica,sans-Serif" font-size="10.00">ObservableImmutable.Observable</text>
<text text-anchor="middle" x="147" y="-221.5" font-family="Helvetica,sans-Serif" font-size="10.00">ImmutableList&lt; T &gt;</text>
<polyline fill="none" stroke="black" points="55,-214.5 239,-214.5 "/>
<text text-anchor="start" x="63" y="-202.5" font-family="Helvetica,sans-Serif" font-size="10.00">+ IsFixedSize</text>
<text text-anchor="start" x="63" y="-191.5" font-family="Helvetica,sans-Serif" font-size="10.00">+ IsSynchronized</text>
<text text-anchor="start" x="63" y="-180.5" font-family="Helvetica,sans-Serif" font-size="10.00">+ SyncRoot</text>
<text text-anchor="start" x="63" y="-169.5" font-family="Helvetica,sans-Serif" font-size="10.00">+ Count</text>
<text text-anchor="start" x="63" y="-158.5" font-family="Helvetica,sans-Serif" font-size="10.00">+ IsReadOnly</text>
<text text-anchor="start" x="63" y="-147.5" font-family="Helvetica,sans-Serif" font-size="10.00">+ this[int index]</text>
<text text-anchor="start" x="63" y="-136.5" font-family="Helvetica,sans-Serif" font-size="10.00">+ this[int index]</text>
<polyline fill="none" stroke="black" points="55,-129.5 239,-129.5 "/>
<text text-anchor="start" x="63" y="-117.5" font-family="Helvetica,sans-Serif" font-size="10.00">+ ObservableImmutableList()</text>
<text text-anchor="start" x="63" y="-106.5" font-family="Helvetica,sans-Serif" font-size="10.00">+ ObservableImmutableList()</text>
<text text-anchor="start" x="63" y="-95.5" font-family="Helvetica,sans-Serif" font-size="10.00">+ ObservableImmutableList()</text>
<text text-anchor="start" x="63" y="-84.5" font-family="Helvetica,sans-Serif" font-size="10.00">+ ObservableImmutableList()</text>
<text text-anchor="start" x="63" y="-73.5" font-family="Helvetica,sans-Serif" font-size="10.00">+ TryOperation()</text>
<text text-anchor="start" x="63" y="-62.5" font-family="Helvetica,sans-Serif" font-size="10.00">+ DoOperation()</text>
<text text-anchor="start" x="63" y="-51.5" font-family="Helvetica,sans-Serif" font-size="10.00">+ DoInsert()</text>
<text text-anchor="start" x="63" y="-40.5" font-family="Helvetica,sans-Serif" font-size="10.00">+ DoAdd()</text>
<text text-anchor="start" x="63" y="-29.5" font-family="Helvetica,sans-Serif" font-size="10.00">+ DoAddRange()</text>
<text text-anchor="start" x="63" y="-18.5" font-family="Helvetica,sans-Serif" font-size="10.00">+ DoRemove()</text>
<text text-anchor="start" x="63" y="-7.5" font-family="Helvetica,sans-Serif" font-size="10.00">and 34 more...</text>
</a>
</g>
</g>
<!-- Node1&#45;&gt;Node4 -->
<g id="edge3" class="edge">
<title>Node1&#45;&gt;Node4</title>
<path fill="none" stroke="midnightblue" d="M147,-271.13C147,-262.35 147,-253.43 147,-244.54"/>
<polygon fill="none" stroke="midnightblue" points="143.5,-271.35 147,-281.35 150.5,-271.35 143.5,-271.35"/>
</g>
<!-- Node2 -->
<g id="node2" class="node">
<title>Node2</title>
<g id="a_node2"><a xlink:title=" ">
<polygon fill="none" stroke="#bfbfbf" points="0,-507.5 0,-564.5 140,-564.5 140,-507.5 0,-507.5"/>
<text text-anchor="middle" x="70" y="-552.5" font-family="Helvetica,sans-Serif" font-size="10.00">INotifyCollectionChanged</text>
<polyline fill="none" stroke="#bfbfbf" points="0,-545.5 140,-545.5 "/>
<text text-anchor="middle" x="70" y="-533.5" font-family="Helvetica,sans-Serif" font-size="10.00"> </text>
<polyline fill="none" stroke="#bfbfbf" points="0,-526.5 140,-526.5 "/>
<text text-anchor="middle" x="70" y="-514.5" font-family="Helvetica,sans-Serif" font-size="10.00"> </text>
</a>
</g>
</g>
<!-- Node2&#45;&gt;Node1 -->
<g id="edge1" class="edge">
<title>Node2&#45;&gt;Node1</title>
<path fill="none" stroke="midnightblue" d="M87.88,-498.32C92.02,-489.82 96.61,-480.4 101.35,-470.68"/>
<polygon fill="none" stroke="midnightblue" points="84.65,-496.96 83.41,-507.48 90.94,-500.02 84.65,-496.96"/>
</g>
<!-- Node3 -->
<g id="node3" class="node">
<title>Node3</title>
<g id="a_node3"><a xlink:title=" ">
<polygon fill="none" stroke="#bfbfbf" points="158.5,-507.5 158.5,-564.5 291.5,-564.5 291.5,-507.5 158.5,-507.5"/>
<text text-anchor="middle" x="225" y="-552.5" font-family="Helvetica,sans-Serif" font-size="10.00">INotifyPropertyChanged</text>
<polyline fill="none" stroke="#bfbfbf" points="158.5,-545.5 291.5,-545.5 "/>
<text text-anchor="middle" x="225" y="-533.5" font-family="Helvetica,sans-Serif" font-size="10.00"> </text>
<polyline fill="none" stroke="#bfbfbf" points="158.5,-526.5 291.5,-526.5 "/>
<text text-anchor="middle" x="225" y="-514.5" font-family="Helvetica,sans-Serif" font-size="10.00"> </text>
</a>
</g>
</g>
<!-- Node3&#45;&gt;Node1 -->
<g id="edge2" class="edge">
<title>Node3&#45;&gt;Node1</title>
<path fill="none" stroke="midnightblue" d="M206.89,-498.32C202.7,-489.82 198.05,-480.4 193.25,-470.68"/>
<polygon fill="none" stroke="midnightblue" points="203.85,-500.06 211.41,-507.48 210.13,-496.96 203.85,-500.06"/>
</g>
</g>
</svg>
