<?xml version="1.0" encoding="UTF-8" standalone="no"?>
<!DOCTYPE svg PUBLIC "-//W3C//DTD SVG 1.1//EN"
 "http://www.w3.org/Graphics/SVG/1.1/DTD/svg11.dtd">
<!-- Generated by graphviz version 2.43.0 (0)
 -->
<!-- Title: VolumeControl.Core.Keyboard.BindableHotkey Pages: 1 -->
<svg width="234pt" height="557pt"
 viewBox="0.00 0.00 233.50 557.00" xmlns="http://www.w3.org/2000/svg" xmlns:xlink="http://www.w3.org/1999/xlink">
<g id="graph0" class="graph" transform="scale(1 1) rotate(0) translate(4 553)">
<title>VolumeControl.Core.Keyboard.BindableHotkey</title>
<!-- Node1 -->
<g id="node1" class="node">
<title>Node1</title>
<g id="a_node1"><a xlink:title="A hotkey view model instance.">
<polygon fill="#bfbfbf" stroke="black" points="21.5,-0.5 21.5,-222.5 187.5,-222.5 187.5,-0.5 21.5,-0.5"/>
<text text-anchor="start" x="29.5" y="-210.5" font-family="Helvetica,sans-Serif" font-size="10.00">VolumeControl.Core.Keyboard.</text>
<text text-anchor="middle" x="104.5" y="-199.5" font-family="Helvetica,sans-Serif" font-size="10.00">BindableHotkey</text>
<polyline fill="none" stroke="black" points="21.5,-192.5 187.5,-192.5 "/>
<text text-anchor="start" x="29.5" y="-180.5" font-family="Helvetica,sans-Serif" font-size="10.00">+ ID</text>
<text text-anchor="start" x="29.5" y="-169.5" font-family="Helvetica,sans-Serif" font-size="10.00">+ Valid</text>
<text text-anchor="start" x="29.5" y="-158.5" font-family="Helvetica,sans-Serif" font-size="10.00">+ Hotkey</text>
<text text-anchor="start" x="29.5" y="-147.5" font-family="Helvetica,sans-Serif" font-size="10.00">+ Key</text>
<text text-anchor="start" x="29.5" y="-136.5" font-family="Helvetica,sans-Serif" font-size="10.00">+ Modifier</text>
<text text-anchor="start" x="29.5" y="-125.5" font-family="Helvetica,sans-Serif" font-size="10.00">+ Registered</text>
<text text-anchor="start" x="29.5" y="-114.5" font-family="Helvetica,sans-Serif" font-size="10.00">+ Alt</text>
<text text-anchor="start" x="29.5" y="-103.5" font-family="Helvetica,sans-Serif" font-size="10.00">+ Ctrl</text>
<text text-anchor="start" x="29.5" y="-92.5" font-family="Helvetica,sans-Serif" font-size="10.00">+ Shift</text>
<text text-anchor="start" x="29.5" y="-81.5" font-family="Helvetica,sans-Serif" font-size="10.00">+ Win</text>
<text text-anchor="start" x="29.5" y="-70.5" font-family="Helvetica,sans-Serif" font-size="10.00">+ Action</text>
<text text-anchor="start" x="29.5" y="-59.5" font-family="Helvetica,sans-Serif" font-size="10.00">+ Name</text>
<text text-anchor="start" x="29.5" y="-48.5" font-family="Helvetica,sans-Serif" font-size="10.00">+ Pressed</text>
<polyline fill="none" stroke="black" points="21.5,-41.5 187.5,-41.5 "/>
<text text-anchor="start" x="29.5" y="-29.5" font-family="Helvetica,sans-Serif" font-size="10.00">+ BindableHotkey()</text>
<text text-anchor="start" x="29.5" y="-18.5" font-family="Helvetica,sans-Serif" font-size="10.00">+ BindableHotkey()</text>
<text text-anchor="start" x="29.5" y="-7.5" font-family="Helvetica,sans-Serif" font-size="10.00">+ Dispose()</text>
</a>
</g>
</g>
<!-- Node2 -->
<g id="node2" class="node">
<title>Node2</title>
<g id="a_node2"><a xlink:href="interface_volume_control_1_1_core_1_1_keyboard_1_1_i_bindable_hotkey.html" target="_top" xlink:title="Represents a BindableHotkey.">
<polygon fill="none" stroke="black" points="95,-259.5 95,-327.5 192,-327.5 192,-259.5 95,-259.5"/>
<text text-anchor="middle" x="143.5" y="-315.5" font-family="Helvetica,sans-Serif" font-size="10.00">IBindableHotkey</text>
<polyline fill="none" stroke="black" points="95,-308.5 192,-308.5 "/>
<text text-anchor="start" x="103" y="-296.5" font-family="Helvetica,sans-Serif" font-size="10.00">+ Name</text>
<text text-anchor="start" x="103" y="-285.5" font-family="Helvetica,sans-Serif" font-size="10.00">+ Action</text>
<polyline fill="none" stroke="black" points="95,-278.5 192,-278.5 "/>
<text text-anchor="middle" x="143.5" y="-266.5" font-family="Helvetica,sans-Serif" font-size="10.00"> </text>
</a>
</g>
</g>
<!-- Node2&#45;&gt;Node1 -->
<g id="edge1" class="edge">
<title>Node2&#45;&gt;Node1</title>
<path fill="none" stroke="midnightblue" d="M134.21,-249.63C132.39,-241.21 130.4,-232.02 128.34,-222.52"/>
<polygon fill="none" stroke="midnightblue" points="130.81,-250.45 136.35,-259.49 137.65,-248.97 130.81,-250.45"/>
</g>
<!-- Node3 -->
<g id="node3" class="node">
<title>Node3</title>
<g id="a_node3"><a xlink:href="interface_volume_control_1_1_core_1_1_keyboard_1_1_i_hotkey.html" target="_top" xlink:title="Represents a hotkey instance.">
<polygon fill="none" stroke="black" points="103.5,-364.5 103.5,-454.5 183.5,-454.5 183.5,-364.5 103.5,-364.5"/>
<text text-anchor="middle" x="143.5" y="-442.5" font-family="Helvetica,sans-Serif" font-size="10.00">IHotkey</text>
<polyline fill="none" stroke="black" points="103.5,-435.5 183.5,-435.5 "/>
<text text-anchor="start" x="111.5" y="-423.5" font-family="Helvetica,sans-Serif" font-size="10.00">+ ID</text>
<text text-anchor="start" x="111.5" y="-412.5" font-family="Helvetica,sans-Serif" font-size="10.00">+ Key</text>
<text text-anchor="start" x="111.5" y="-401.5" font-family="Helvetica,sans-Serif" font-size="10.00">+ Modifier</text>
<text text-anchor="start" x="111.5" y="-390.5" font-family="Helvetica,sans-Serif" font-size="10.00">+ Registered</text>
<polyline fill="none" stroke="black" points="103.5,-383.5 183.5,-383.5 "/>
<text text-anchor="middle" x="143.5" y="-371.5" font-family="Helvetica,sans-Serif" font-size="10.00"> </text>
</a>
</g>
</g>
<!-- Node3&#45;&gt;Node2 -->
<g id="edge2" class="edge">
<title>Node3&#45;&gt;Node2</title>
<path fill="none" stroke="midnightblue" d="M143.5,-354.32C143.5,-345.28 143.5,-336.16 143.5,-327.85"/>
<polygon fill="none" stroke="midnightblue" points="140,-354.42 143.5,-364.42 147,-354.42 140,-354.42"/>
</g>
<!-- Node4 -->
<g id="node4" class="node">
<title>Node4</title>
<g id="a_node4"><a xlink:title=" ">
<polygon fill="none" stroke="#bfbfbf" points="0,-491.5 0,-548.5 133,-548.5 133,-491.5 0,-491.5"/>
<text text-anchor="middle" x="66.5" y="-536.5" font-family="Helvetica,sans-Serif" font-size="10.00">INotifyPropertyChanged</text>
<polyline fill="none" stroke="#bfbfbf" points="0,-529.5 133,-529.5 "/>
<text text-anchor="middle" x="66.5" y="-517.5" font-family="Helvetica,sans-Serif" font-size="10.00"> </text>
<polyline fill="none" stroke="#bfbfbf" points="0,-510.5 133,-510.5 "/>
<text text-anchor="middle" x="66.5" y="-498.5" font-family="Helvetica,sans-Serif" font-size="10.00"> </text>
</a>
</g>
</g>
<!-- Node4&#45;&gt;Node1 -->
<g id="edge5" class="edge">
<title>Node4&#45;&gt;Node1</title>
<path fill="none" stroke="midnightblue" d="M68.87,-481.1C72.17,-430.44 78.63,-337.86 86.5,-259 87.67,-247.27 89,-235.03 90.4,-222.83"/>
<polygon fill="none" stroke="midnightblue" points="65.37,-481.05 68.22,-491.26 72.35,-481.5 65.37,-481.05"/>
</g>
<!-- Node4&#45;&gt;Node3 -->
<g id="edge3" class="edge">
<title>Node4&#45;&gt;Node3</title>
<path fill="none" stroke="midnightblue" d="M92.11,-482.91C98.56,-473.83 105.55,-463.98 112.24,-454.55"/>
<polygon fill="none" stroke="midnightblue" points="89.06,-481.16 86.13,-491.34 94.77,-485.21 89.06,-481.16"/>
</g>
<!-- Node5 -->
<g id="node5" class="node">
<title>Node5</title>
<g id="a_node5"><a xlink:title=" ">
<polygon fill="none" stroke="#bfbfbf" points="151.5,-491.5 151.5,-548.5 225.5,-548.5 225.5,-491.5 151.5,-491.5"/>
<text text-anchor="middle" x="188.5" y="-536.5" font-family="Helvetica,sans-Serif" font-size="10.00">IDisposable</text>
<polyline fill="none" stroke="#bfbfbf" points="151.5,-529.5 225.5,-529.5 "/>
<text text-anchor="middle" x="188.5" y="-517.5" font-family="Helvetica,sans-Serif" font-size="10.00"> </text>
<polyline fill="none" stroke="#bfbfbf" points="151.5,-510.5 225.5,-510.5 "/>
<text text-anchor="middle" x="188.5" y="-498.5" font-family="Helvetica,sans-Serif" font-size="10.00"> </text>
</a>
</g>
</g>
<!-- Node5&#45;&gt;Node3 -->
<g id="edge4" class="edge">
<title>Node5&#45;&gt;Node3</title>
<path fill="none" stroke="midnightblue" d="M173.18,-482.06C169.51,-473.22 165.56,-463.69 161.77,-454.55"/>
<polygon fill="none" stroke="midnightblue" points="169.96,-483.44 177.03,-491.34 176.43,-480.76 169.96,-483.44"/>
</g>
</g>
</svg>
