<?xml version="1.0" encoding="UTF-8" standalone="no"?>
<!DOCTYPE svg PUBLIC "-//W3C//DTD SVG 1.1//EN"
 "http://www.w3.org/Graphics/SVG/1.1/DTD/svg11.dtd">
<!-- Generated by graphviz version 2.43.0 (0)
 -->
<!-- Title: VolumeControl.CoreAudio.AudioSession Pages: 1 -->
<!--zoomable 496 -->
<svg id="main" version="1.1" xmlns="http://www.w3.org/2000/svg" xmlns:xlink="http://www.w3.org/1999/xlink" xml:space="preserve" onload="init(evt)">
<style type="text/css"><![CDATA[
.edge:hover path { stroke: red; }
.edge:hover polygon { stroke: red; fill: red; }
]]></style>
<script type="text/javascript"><![CDATA[
var edges = document.getElementsByTagName('g');
if (edges && edges.length) {
  for (var i=0;i<edges.length;i++) {
    if (edges[i].id.substr(0,4)=='edge') {
      edges[i].setAttribute('class','edge');
    }
  }
}
]]></script>
        <defs>
                <circle id="rim" cx="0" cy="0" r="7"/>
                <circle id="rim2" cx="0" cy="0" r="3.5"/>
                <g id="zoomPlus">
                        <use xlink:href="#rim" fill="#404040">
                                <set attributeName="fill" to="#808080" begin="zoomplus.mouseover" end="zoomplus.mouseout"/>
                        </use>
                        <path d="M-4,0h8M0,-4v8" fill="none" stroke="white" stroke-width="1.5" pointer-events="none"/>
                </g>
                <g id="zoomMin">
                        <use xlink:href="#rim" fill="#404040">
                                <set attributeName="fill" to="#808080" begin="zoomminus.mouseover" end="zoomminus.mouseout"/>
                        </use>
                        <path d="M-4,0h8" fill="none" stroke="white" stroke-width="1.5" pointer-events="none"/>
                </g>
                <g id="dirArrow">
                        <path fill="none" stroke="white" stroke-width="1.5" d="M0,-3.0v7 M-2.5,-0.5L0,-3.0L2.5,-0.5"/>
                </g>
               <g id="resetDef">
                       <use xlink:href="#rim2" fill="#404040">
                               <set attributeName="fill" to="#808080" begin="reset.mouseover" end="reset.mouseout"/>
                       </use>
               </g>
        </defs>

<script type="text/javascript">
var viewWidth = 683;
var viewHeight = 496;
var sectionId = 'dynsection-1';
</script>
<script xlink:href="svgpan.js"/>
<svg id="graph" class="graph">
<g id="viewport">
<title>VolumeControl.CoreAudio.AudioSession</title>
<!-- Node1 -->
<g id="node1" class="node">
<title>Node1</title>
<g id="a_node1"><a xlink:title="A single audio session running on an audio device.">
<polygon fill="#bfbfbf" stroke="black" points="219,-0.5 219,-255.5 398,-255.5 398,-0.5 219,-0.5"/>
<text text-anchor="start" x="227" y="-243.5" font-family="Helvetica,sans-Serif" font-size="10.00">VolumeControl.CoreAudio.</text>
<text text-anchor="middle" x="308.5" y="-232.5" font-family="Helvetica,sans-Serif" font-size="10.00">AudioSession</text>
<polyline fill="none" stroke="black" points="219,-225.5 398,-225.5 "/>
<text text-anchor="start" x="227" y="-213.5" font-family="Helvetica,sans-Serif" font-size="10.00">+ ProcessIdentifierSeparatorChar</text>
<text text-anchor="start" x="227" y="-202.5" font-family="Helvetica,sans-Serif" font-size="10.00">+ processId</text>
<text text-anchor="start" x="227" y="-191.5" font-family="Helvetica,sans-Serif" font-size="10.00">+ Log</text>
<text text-anchor="start" x="227" y="-180.5" font-family="Helvetica,sans-Serif" font-size="10.00">+ AudioDevice</text>
<text text-anchor="start" x="227" y="-169.5" font-family="Helvetica,sans-Serif" font-size="10.00">+ AudioSessionControl</text>
<text text-anchor="start" x="227" y="-158.5" font-family="Helvetica,sans-Serif" font-size="10.00">+ SimpleAudioVolume</text>
<text text-anchor="start" x="227" y="-147.5" font-family="Helvetica,sans-Serif" font-size="10.00">+ AudioMeterInformation</text>
<text text-anchor="start" x="227" y="-136.5" font-family="Helvetica,sans-Serif" font-size="10.00">+ PID</text>
<text text-anchor="start" x="227" y="-125.5" font-family="Helvetica,sans-Serif" font-size="10.00">+ ProcessName</text>
<text text-anchor="start" x="227" y="-114.5" font-family="Helvetica,sans-Serif" font-size="10.00">+ Name</text>
<text text-anchor="start" x="227" y="-103.5" font-family="Helvetica,sans-Serif" font-size="10.00">+ HasCustomName</text>
<text text-anchor="start" x="227" y="-92.5" font-family="Helvetica,sans-Serif" font-size="10.00">+ Process</text>
<text text-anchor="start" x="227" y="-81.5" font-family="Helvetica,sans-Serif" font-size="10.00">and 8 more...</text>
<polyline fill="none" stroke="black" points="219,-74.5 398,-74.5 "/>
<text text-anchor="start" x="227" y="-62.5" font-family="Helvetica,sans-Serif" font-size="10.00">+ GetProcess()</text>
<text text-anchor="start" x="227" y="-51.5" font-family="Helvetica,sans-Serif" font-size="10.00">+ GetProcess()</text>
<text text-anchor="start" x="227" y="-40.5" font-family="Helvetica,sans-Serif" font-size="10.00">+ GetTargetInfo()</text>
<text text-anchor="start" x="227" y="-29.5" font-family="Helvetica,sans-Serif" font-size="10.00">+ Dispose()</text>
<text text-anchor="start" x="227" y="-18.5" font-family="Helvetica,sans-Serif" font-size="10.00">+ TryParseProcessIdentifier()</text>
<text text-anchor="start" x="227" y="-7.5" font-family="Helvetica,sans-Serif" font-size="10.00">~ AudioSession()</text>
</a>
</g>
</g>
<!-- Node2 -->
<g id="node2" class="node">
<title>Node2</title>
<g id="a_node2"><a xlink:href="interface_volume_control_1_1_core_audio_1_1_interfaces_1_1_i_audio_control.html" target="_top" xlink:title="Represents an audio instance with a controllable volume level and mute state.">
<polygon fill="none" stroke="black" points="0,-408.5 0,-487.5 97,-487.5 97,-408.5 0,-408.5"/>
<text text-anchor="middle" x="48.5" y="-475.5" font-family="Helvetica,sans-Serif" font-size="10.00">IAudioControl</text>
<polyline fill="none" stroke="black" points="0,-468.5 97,-468.5 "/>
<text text-anchor="start" x="8" y="-456.5" font-family="Helvetica,sans-Serif" font-size="10.00">+ NativeVolume</text>
<text text-anchor="start" x="8" y="-445.5" font-family="Helvetica,sans-Serif" font-size="10.00">+ Volume</text>
<text text-anchor="start" x="8" y="-434.5" font-family="Helvetica,sans-Serif" font-size="10.00">+ Mute</text>
<polyline fill="none" stroke="black" points="0,-427.5 97,-427.5 "/>
<text text-anchor="middle" x="48.5" y="-415.5" font-family="Helvetica,sans-Serif" font-size="10.00"> </text>
</a>
</g>
</g>
<!-- Node2&#45;&gt;Node1 -->
<g id="edge1" class="edge">
<title>Node2&#45;&gt;Node1</title>
<path fill="none" stroke="midnightblue" d="M24.77,-398.82C12.52,-366.62 3.68,-324.39 22.5,-292 64.42,-219.86 151.55,-176.98 218.69,-153.46"/>
<polygon fill="none" stroke="midnightblue" points="21.68,-400.5 28.66,-408.47 28.17,-397.89 21.68,-400.5"/>
</g>
<!-- Node4 -->
<g id="node4" class="node">
<title>Node4</title>
<g id="a_node4"><a xlink:href="interface_volume_control_1_1_core_audio_1_1_interfaces_1_1_i_hideable_audio_control.html" target="_top" xlink:title="Represents an audio instance that can be prevented from becoming selected.">
<polygon fill="none" stroke="black" points="31.5,-303.5 31.5,-360.5 157.5,-360.5 157.5,-303.5 31.5,-303.5"/>
<text text-anchor="middle" x="94.5" y="-348.5" font-family="Helvetica,sans-Serif" font-size="10.00">IHideableAudioControl</text>
<polyline fill="none" stroke="black" points="31.5,-341.5 157.5,-341.5 "/>
<text text-anchor="start" x="39.5" y="-329.5" font-family="Helvetica,sans-Serif" font-size="10.00">+ IsHidden</text>
<polyline fill="none" stroke="black" points="31.5,-322.5 157.5,-322.5 "/>
<text text-anchor="middle" x="94.5" y="-310.5" font-family="Helvetica,sans-Serif" font-size="10.00"> </text>
</a>
</g>
</g>
<!-- Node2&#45;&gt;Node4 -->
<g id="edge4" class="edge">
<title>Node2&#45;&gt;Node4</title>
<path fill="none" stroke="midnightblue" d="M67.85,-399.05C73.12,-385.99 78.65,-372.28 83.3,-360.75"/>
<polygon fill="none" stroke="midnightblue" points="64.57,-397.82 64.07,-408.4 71.06,-400.44 64.57,-397.82"/>
</g>
<!-- Node3 -->
<g id="node3" class="node">
<title>Node3</title>
<g id="a_node3"><a xlink:href="interface_volume_control_1_1_core_audio_1_1_interfaces_1_1_i_read_only_audio_control.html" target="_top" xlink:title="Represents an audio instance with a read&#45;only volume level and mute state.">
<polygon fill="none" stroke="black" points="175.5,-292.5 175.5,-371.5 305.5,-371.5 305.5,-292.5 175.5,-292.5"/>
<text text-anchor="middle" x="240.5" y="-359.5" font-family="Helvetica,sans-Serif" font-size="10.00">IReadOnlyAudioControl</text>
<polyline fill="none" stroke="black" points="175.5,-352.5 305.5,-352.5 "/>
<text text-anchor="start" x="183.5" y="-340.5" font-family="Helvetica,sans-Serif" font-size="10.00">+ NativeVolume</text>
<text text-anchor="start" x="183.5" y="-329.5" font-family="Helvetica,sans-Serif" font-size="10.00">+ Volume</text>
<text text-anchor="start" x="183.5" y="-318.5" font-family="Helvetica,sans-Serif" font-size="10.00">+ Mute</text>
<polyline fill="none" stroke="black" points="175.5,-311.5 305.5,-311.5 "/>
<text text-anchor="middle" x="240.5" y="-299.5" font-family="Helvetica,sans-Serif" font-size="10.00"> </text>
</a>
</g>
</g>
<!-- Node3&#45;&gt;Node1 -->
<g id="edge2" class="edge">
<title>Node3&#45;&gt;Node1</title>
<path fill="none" stroke="midnightblue" d="M256.82,-282.51C259.65,-274.1 262.71,-265.02 265.88,-255.62"/>
<polygon fill="none" stroke="midnightblue" points="253.48,-281.46 253.61,-292.05 260.12,-283.69 253.48,-281.46"/>
</g>
<!-- Node4&#45;&gt;Node1 -->
<g id="edge3" class="edge">
<title>Node4&#45;&gt;Node1</title>
<path fill="none" stroke="midnightblue" d="M131.31,-296.26C155.37,-273.54 187.9,-242.83 218.53,-213.93"/>
<polygon fill="none" stroke="midnightblue" points="128.68,-293.93 123.81,-303.34 133.48,-299.02 128.68,-293.93"/>
</g>
<!-- Node5 -->
<g id="node5" class="node">
<title>Node5</title>
<g id="a_node5"><a xlink:href="interface_volume_control_1_1_core_audio_1_1_interfaces_1_1_i_audio_peak_meter.html" target="_top" xlink:title="Represents some kind of object that has an audio peak meter.">
<polygon fill="none" stroke="black" points="324,-303.5 324,-360.5 431,-360.5 431,-303.5 324,-303.5"/>
<text text-anchor="middle" x="377.5" y="-348.5" font-family="Helvetica,sans-Serif" font-size="10.00">IAudioPeakMeter</text>
<polyline fill="none" stroke="black" points="324,-341.5 431,-341.5 "/>
<text text-anchor="start" x="332" y="-329.5" font-family="Helvetica,sans-Serif" font-size="10.00">+ PeakMeterValue</text>
<polyline fill="none" stroke="black" points="324,-322.5 431,-322.5 "/>
<text text-anchor="middle" x="377.5" y="-310.5" font-family="Helvetica,sans-Serif" font-size="10.00"> </text>
</a>
</g>
</g>
<!-- Node5&#45;&gt;Node1 -->
<g id="edge5" class="edge">
<title>Node5&#45;&gt;Node1</title>
<path fill="none" stroke="midnightblue" d="M364.72,-293.59C360.9,-282.4 356.48,-269.46 351.83,-255.85"/>
<polygon fill="none" stroke="midnightblue" points="361.51,-295 368.05,-303.34 368.13,-292.74 361.51,-295"/>
</g>
<!-- Node6 -->
<g id="node6" class="node">
<title>Node6</title>
<g id="a_node6"><a xlink:title=" ">
<polygon fill="none" stroke="#bfbfbf" points="449,-303.5 449,-360.5 582,-360.5 582,-303.5 449,-303.5"/>
<text text-anchor="middle" x="515.5" y="-348.5" font-family="Helvetica,sans-Serif" font-size="10.00">INotifyPropertyChanged</text>
<polyline fill="none" stroke="#bfbfbf" points="449,-341.5 582,-341.5 "/>
<text text-anchor="middle" x="515.5" y="-329.5" font-family="Helvetica,sans-Serif" font-size="10.00"> </text>
<polyline fill="none" stroke="#bfbfbf" points="449,-322.5 582,-322.5 "/>
<text text-anchor="middle" x="515.5" y="-310.5" font-family="Helvetica,sans-Serif" font-size="10.00"> </text>
</a>
</g>
</g>
<!-- Node6&#45;&gt;Node1 -->
<g id="edge6" class="edge">
<title>Node6&#45;&gt;Node1</title>
<path fill="none" stroke="midnightblue" d="M479.81,-296.18C457.27,-274.18 427.07,-244.7 398.3,-216.63"/>
<polygon fill="none" stroke="midnightblue" points="477.55,-298.86 487.15,-303.34 482.44,-293.85 477.55,-298.86"/>
</g>
<!-- Node7 -->
<g id="node7" class="node">
<title>Node7</title>
<g id="a_node7"><a xlink:title=" ">
<polygon fill="none" stroke="#bfbfbf" points="600.5,-303.5 600.5,-360.5 674.5,-360.5 674.5,-303.5 600.5,-303.5"/>
<text text-anchor="middle" x="637.5" y="-348.5" font-family="Helvetica,sans-Serif" font-size="10.00">IDisposable</text>
<polyline fill="none" stroke="#bfbfbf" points="600.5,-341.5 674.5,-341.5 "/>
<text text-anchor="middle" x="637.5" y="-329.5" font-family="Helvetica,sans-Serif" font-size="10.00"> </text>
<polyline fill="none" stroke="#bfbfbf" points="600.5,-322.5 674.5,-322.5 "/>
<text text-anchor="middle" x="637.5" y="-310.5" font-family="Helvetica,sans-Serif" font-size="10.00"> </text>
</a>
</g>
</g>
<!-- Node7&#45;&gt;Node1 -->
<g id="edge7" class="edge">
<title>Node7&#45;&gt;Node1</title>
<path fill="none" stroke="midnightblue" d="M598.53,-297.15C596.18,-295.37 593.83,-293.64 591.5,-292 529.47,-248.38 455.01,-205.84 398.03,-175.17"/>
<polygon fill="none" stroke="midnightblue" points="596.4,-299.93 606.43,-303.37 600.73,-294.43 596.4,-299.93"/>
</g>
</g>
</svg>
        <g id="navigator" transform="translate(0 0)" fill="#404254">
                <rect fill="#f2f5e9" fill-opacity="0.5" stroke="#606060" stroke-width=".5" x="0" y="0" width="60" height="60"/>
                <use id="zoomplus" xlink:href="#zoomPlus" x="17" y="9" onmousedown="handleZoom(evt,'in')"/>
                <use id="zoomminus" xlink:href="#zoomMin" x="42" y="9" onmousedown="handleZoom(evt,'out')"/>
                <use id="reset" xlink:href="#resetDef" x="30" y="36" onmousedown="handleReset()"/>
                <g id="arrowUp" xlink:href="#dirArrow" transform="translate(30 24)" onmousedown="handlePan(0,-1)">
                  <use xlink:href="#rim" fill="#404040">
                        <set attributeName="fill" to="#808080" begin="arrowUp.mouseover" end="arrowUp.mouseout"/>
                  </use>
                  <path fill="none" stroke="white" stroke-width="1.5" d="M0,-3.0v7 M-2.5,-0.5L0,-3.0L2.5,-0.5"/>
                </g>
                <g id="arrowRight" xlink:href="#dirArrow" transform="rotate(90) translate(36 -43)" onmousedown="handlePan(1,0)">
                  <use xlink:href="#rim" fill="#404040">
                        <set attributeName="fill" to="#808080" begin="arrowRight.mouseover" end="arrowRight.mouseout"/>
                  </use>
                  <path fill="none" stroke="white" stroke-width="1.5" d="M0,-3.0v7 M-2.5,-0.5L0,-3.0L2.5,-0.5"/>
                </g>
                <g id="arrowDown" xlink:href="#dirArrow" transform="rotate(180) translate(-30 -48)" onmousedown="handlePan(0,1)">
                  <use xlink:href="#rim" fill="#404040">
                        <set attributeName="fill" to="#808080" begin="arrowDown.mouseover" end="arrowDown.mouseout"/>
                  </use>
                  <path fill="none" stroke="white" stroke-width="1.5" d="M0,-3.0v7 M-2.5,-0.5L0,-3.0L2.5,-0.5"/>
                </g>
                <g id="arrowLeft" xlink:href="#dirArrow" transform="rotate(270) translate(-36 17)" onmousedown="handlePan(-1,0)">
                  <use xlink:href="#rim" fill="#404040">
                        <set attributeName="fill" to="#808080" begin="arrowLeft.mouseover" end="arrowLeft.mouseout"/>
                  </use>
                  <path fill="none" stroke="white" stroke-width="1.5" d="M0,-3.0v7 M-2.5,-0.5L0,-3.0L2.5,-0.5"/>
                </g>
        </g>
        <svg viewBox="0 0 15 15" width="100%" height="30px" preserveAspectRatio="xMaxYMin meet">
         <g id="arrow_out" transform="scale(0.3 0.3)">
          <a xlink:href="class_volume_control_1_1_core_audio_1_1_audio_session__coll__graph_org.svg" target="_base">
           <rect id="button" ry="5" rx="5" y="6" x="6" height="38" width="38"
                fill="#f2f5e9" fill-opacity="0.5" stroke="#606060" stroke-width="1.0"/>
           <path id="arrow"
             d="M 11.500037,31.436501 C 11.940474,20.09759 22.043105,11.32322 32.158766,21.979434 L 37.068811,17.246167 C 37.068811,17.246167 37.088388,32 37.088388,32 L 22.160133,31.978069 C 22.160133,31.978069 26.997745,27.140456 26.997745,27.140456 C 18.528582,18.264221 13.291696,25.230495 11.500037,31.436501 z"
             style="fill:#404040;"/>
          </a>
         </g>
        </svg>
</svg>
