<?xml version="1.0" encoding="UTF-8" standalone="no"?>
<!DOCTYPE svg PUBLIC "-//W3C//DTD SVG 1.1//EN"
 "http://www.w3.org/Graphics/SVG/1.1/DTD/svg11.dtd">
<!-- Generated by graphviz version 2.43.0 (0)
 -->
<!-- Title: VolumeControl.Log.Timestamp Pages: 1 -->
<svg width="339pt" height="347pt"
 viewBox="0.00 0.00 338.50 347.00" xmlns="http://www.w3.org/2000/svg" xmlns:xlink="http://www.w3.org/1999/xlink">
<g id="graph0" class="graph" transform="scale(1 1) rotate(0) translate(4 343)">
<title>VolumeControl.Log.Timestamp</title>
<!-- Node1 -->
<g id="node1" class="node">
<title>Node1</title>
<g id="a_node1"><a xlink:title="Implements ITimestamp using UTC format.">
<polygon fill="#bfbfbf" stroke="black" points="53,-0.5 53,-134.5 220,-134.5 220,-0.5 53,-0.5"/>
<text text-anchor="middle" x="136.5" y="-122.5" font-family="Helvetica,sans-Serif" font-size="10.00">VolumeControl.Log.Timestamp</text>
<polyline fill="none" stroke="black" points="53,-115.5 220,-115.5 "/>
<text text-anchor="start" x="61" y="-103.5" font-family="Helvetica,sans-Serif" font-size="10.00">+ TimePointSegmentLength</text>
<text text-anchor="start" x="61" y="-92.5" font-family="Helvetica,sans-Serif" font-size="10.00">+ EventTypeSegmentLength</text>
<text text-anchor="start" x="61" y="-81.5" font-family="Helvetica,sans-Serif" font-size="10.00">+ MarginSegmentLength</text>
<text text-anchor="start" x="61" y="-70.5" font-family="Helvetica,sans-Serif" font-size="10.00">+ TimePoint</text>
<text text-anchor="start" x="61" y="-59.5" font-family="Helvetica,sans-Serif" font-size="10.00">+ EventType</text>
<polyline fill="none" stroke="black" points="53,-52.5 220,-52.5 "/>
<text text-anchor="start" x="61" y="-40.5" font-family="Helvetica,sans-Serif" font-size="10.00">+ Timestamp()</text>
<text text-anchor="start" x="61" y="-29.5" font-family="Helvetica,sans-Serif" font-size="10.00">+ ToString()</text>
<text text-anchor="start" x="61" y="-18.5" font-family="Helvetica,sans-Serif" font-size="10.00">+ Now()</text>
<text text-anchor="start" x="61" y="-7.5" font-family="Helvetica,sans-Serif" font-size="10.00">+ Blank()</text>
</a>
</g>
</g>
<!-- Node2 -->
<g id="node2" class="node">
<title>Node2</title>
<g id="a_node2"><a xlink:href="interface_volume_control_1_1_log_1_1_interfaces_1_1_i_timestamp.html" target="_top" xlink:title="Interface for the timestamps on each log message, which contain a DateTime and Enum....">
<polygon fill="none" stroke="black" points="0,-226.5 0,-338.5 155,-338.5 155,-226.5 0,-226.5"/>
<text text-anchor="middle" x="77.5" y="-326.5" font-family="Helvetica,sans-Serif" font-size="10.00">ITimestamp</text>
<polyline fill="none" stroke="black" points="0,-319.5 155,-319.5 "/>
<text text-anchor="start" x="8" y="-307.5" font-family="Helvetica,sans-Serif" font-size="10.00">+ TimePoint</text>
<text text-anchor="start" x="8" y="-296.5" font-family="Helvetica,sans-Serif" font-size="10.00">+ EventType</text>
<text text-anchor="start" x="8" y="-285.5" font-family="Helvetica,sans-Serif" font-size="10.00">+ TimePointSegmentLength</text>
<text text-anchor="start" x="8" y="-274.5" font-family="Helvetica,sans-Serif" font-size="10.00">+ EventTypeSegmentLength</text>
<text text-anchor="start" x="8" y="-263.5" font-family="Helvetica,sans-Serif" font-size="10.00">+ MarginSegmentLength</text>
<polyline fill="none" stroke="black" points="0,-256.5 155,-256.5 "/>
<text text-anchor="start" x="8" y="-244.5" font-family="Helvetica,sans-Serif" font-size="10.00">+ ToString()</text>
<text text-anchor="start" x="8" y="-233.5" font-family="Helvetica,sans-Serif" font-size="10.00">+ MakeHeader()</text>
</a>
</g>
</g>
<!-- Node2&#45;&gt;Node1 -->
<g id="edge1" class="edge">
<title>Node2&#45;&gt;Node1</title>
<path fill="none" stroke="midnightblue" d="M95.47,-216.64C102.65,-190.7 110.92,-160.86 118.14,-134.78"/>
<polygon fill="none" stroke="midnightblue" points="92.07,-215.8 92.77,-226.37 98.81,-217.67 92.07,-215.8"/>
</g>
<!-- Node3 -->
<g id="node3" class="node">
<title>Node3</title>
<g id="a_node3"><a xlink:title=" ">
<polygon fill="none" stroke="#bfbfbf" points="173.5,-254 173.5,-311 217.5,-311 217.5,-254 173.5,-254"/>
<text text-anchor="middle" x="195.5" y="-299" font-family="Helvetica,sans-Serif" font-size="10.00">static</text>
<polyline fill="none" stroke="#bfbfbf" points="173.5,-292 217.5,-292 "/>
<text text-anchor="middle" x="195.5" y="-280" font-family="Helvetica,sans-Serif" font-size="10.00"> </text>
<polyline fill="none" stroke="#bfbfbf" points="173.5,-273 217.5,-273 "/>
<text text-anchor="middle" x="195.5" y="-261" font-family="Helvetica,sans-Serif" font-size="10.00"> </text>
</a>
</g>
</g>
<!-- Node3&#45;&gt;Node1 -->
<g id="edge2" class="edge">
<title>Node3&#45;&gt;Node1</title>
<path fill="none" stroke="#404040" d="M187.79,-253.65C180.29,-226.59 168.55,-184.21 158.19,-146.82"/>
<polygon fill="none" stroke="#404040" points="158.09,-146.45 152.63,-141.73 154.89,-134.88 160.34,-139.6 158.09,-146.45"/>
<text text-anchor="middle" x="252.5" y="-200" font-family="Helvetica,sans-Serif" font-size="10.00"> +LineSegmentLengthMargin</text>
<text text-anchor="middle" x="252.5" y="-189" font-family="Helvetica,sans-Serif" font-size="10.00">+LineSegmentLengthEventType</text>
<text text-anchor="middle" x="252.5" y="-178" font-family="Helvetica,sans-Serif" font-size="10.00">+LineHeaderLength</text>
<text text-anchor="middle" x="252.5" y="-167" font-family="Helvetica,sans-Serif" font-size="10.00">+LineHeaderTotalLength</text>
<text text-anchor="middle" x="252.5" y="-156" font-family="Helvetica,sans-Serif" font-size="10.00">+LineSegmentLengthDateTime</text>
</g>
</g>
</svg>
