<?xml version="1.0" encoding="UTF-8" standalone="no"?>
<!DOCTYPE svg PUBLIC "-//W3C//DTD SVG 1.1//EN"
 "http://www.w3.org/Graphics/SVG/1.1/DTD/svg11.dtd">
<!-- Generated by graphviz version 2.43.0 (0)
 -->
<!-- Title: VolumeControl.CoreAudio.AudioSession Pages: 1 -->
<svg width="683pt" height="551pt"
 viewBox="0.00 0.00 682.50 551.00" xmlns="http://www.w3.org/2000/svg" xmlns:xlink="http://www.w3.org/1999/xlink">
<g id="graph0" class="graph" transform="scale(1 1) rotate(0) translate(4 547)">
<title>VolumeControl.CoreAudio.AudioSession</title>
<!-- Node1 -->
<g id="node1" class="node">
<title>Node1</title>
<g id="a_node1"><a xlink:title="A single audio session running on an audio device.">
<polygon fill="#bfbfbf" stroke="black" points="219,-0.5 219,-288.5 398,-288.5 398,-0.5 219,-0.5"/>
<text text-anchor="start" x="227" y="-276.5" font-family="Helvetica,sans-Serif" font-size="10.00">VolumeControl.CoreAudio.</text>
<text text-anchor="middle" x="308.5" y="-265.5" font-family="Helvetica,sans-Serif" font-size="10.00">AudioSession</text>
<polyline fill="none" stroke="black" points="219,-258.5 398,-258.5 "/>
<text text-anchor="start" x="227" y="-246.5" font-family="Helvetica,sans-Serif" font-size="10.00">+ ProcessIdentifierSeparatorChar</text>
<text text-anchor="start" x="227" y="-235.5" font-family="Helvetica,sans-Serif" font-size="10.00">+ ProcessIdentifierInputChar</text>
<text text-anchor="start" x="227" y="-224.5" font-family="Helvetica,sans-Serif" font-size="10.00">+ ProcessIdentifierOutputChar</text>
<text text-anchor="start" x="227" y="-213.5" font-family="Helvetica,sans-Serif" font-size="10.00">+ processId</text>
<text text-anchor="start" x="227" y="-202.5" font-family="Helvetica,sans-Serif" font-size="10.00">+ AudioDevice</text>
<text text-anchor="start" x="227" y="-191.5" font-family="Helvetica,sans-Serif" font-size="10.00">+ AudioSessionControl</text>
<text text-anchor="start" x="227" y="-180.5" font-family="Helvetica,sans-Serif" font-size="10.00">+ SimpleAudioVolume</text>
<text text-anchor="start" x="227" y="-169.5" font-family="Helvetica,sans-Serif" font-size="10.00">+ AudioMeterInformation</text>
<text text-anchor="start" x="227" y="-158.5" font-family="Helvetica,sans-Serif" font-size="10.00">+ DataFlow</text>
<text text-anchor="start" x="227" y="-147.5" font-family="Helvetica,sans-Serif" font-size="10.00">+ State</text>
<text text-anchor="start" x="227" y="-136.5" font-family="Helvetica,sans-Serif" font-size="10.00">+ DeviceName</text>
<text text-anchor="start" x="227" y="-125.5" font-family="Helvetica,sans-Serif" font-size="10.00">+ FlowName</text>
<text text-anchor="start" x="227" y="-114.5" font-family="Helvetica,sans-Serif" font-size="10.00">+ DeviceFlowName</text>
<text text-anchor="start" x="227" y="-103.5" font-family="Helvetica,sans-Serif" font-size="10.00">+ PID</text>
<text text-anchor="start" x="227" y="-92.5" font-family="Helvetica,sans-Serif" font-size="10.00">and 12 more...</text>
<polyline fill="none" stroke="black" points="219,-85.5 398,-85.5 "/>
<text text-anchor="start" x="227" y="-73.5" font-family="Helvetica,sans-Serif" font-size="10.00">+ ToString()</text>
<text text-anchor="start" x="227" y="-62.5" font-family="Helvetica,sans-Serif" font-size="10.00">+ GetProcess()</text>
<text text-anchor="start" x="227" y="-51.5" font-family="Helvetica,sans-Serif" font-size="10.00">+ GetTargetInfo()</text>
<text text-anchor="start" x="227" y="-40.5" font-family="Helvetica,sans-Serif" font-size="10.00">+ HasMatchingName()</text>
<text text-anchor="start" x="227" y="-29.5" font-family="Helvetica,sans-Serif" font-size="10.00">+ Dispose()</text>
<text text-anchor="start" x="227" y="-18.5" font-family="Helvetica,sans-Serif" font-size="10.00">+ TryParseProcessIdentifier()</text>
<text text-anchor="start" x="227" y="-7.5" font-family="Helvetica,sans-Serif" font-size="10.00">~ AudioSession()</text>
</a>
</g>
</g>
<!-- Node2 -->
<g id="node2" class="node">
<title>Node2</title>
<g id="a_node2"><a xlink:href="interface_volume_control_1_1_core_audio_1_1_interfaces_1_1_i_audio_control.html" target="_top" xlink:title="Represents an audio instance with a controllable volume level and mute state.">
<polygon fill="none" stroke="black" points="0,-452.5 0,-542.5 97,-542.5 97,-452.5 0,-452.5"/>
<text text-anchor="middle" x="48.5" y="-530.5" font-family="Helvetica,sans-Serif" font-size="10.00">IAudioControl</text>
<polyline fill="none" stroke="black" points="0,-523.5 97,-523.5 "/>
<text text-anchor="start" x="8" y="-511.5" font-family="Helvetica,sans-Serif" font-size="10.00">+ NativeVolume</text>
<text text-anchor="start" x="8" y="-500.5" font-family="Helvetica,sans-Serif" font-size="10.00">+ Volume</text>
<text text-anchor="start" x="8" y="-489.5" font-family="Helvetica,sans-Serif" font-size="10.00">+ Mute</text>
<text text-anchor="start" x="8" y="-478.5" font-family="Helvetica,sans-Serif" font-size="10.00">+ DataFlow</text>
<polyline fill="none" stroke="black" points="0,-471.5 97,-471.5 "/>
<text text-anchor="middle" x="48.5" y="-459.5" font-family="Helvetica,sans-Serif" font-size="10.00"> </text>
</a>
</g>
</g>
<!-- Node2&#45;&gt;Node1 -->
<g id="edge1" class="edge">
<title>Node2&#45;&gt;Node1</title>
<path fill="none" stroke="midnightblue" d="M23.71,-442.56C11.28,-407.13 2.65,-360.89 22.5,-325 63.99,-249.97 151.42,-202.09 218.75,-174.82"/>
<polygon fill="none" stroke="midnightblue" points="20.54,-444.08 27.29,-452.24 27.1,-441.65 20.54,-444.08"/>
</g>
<!-- Node4 -->
<g id="node4" class="node">
<title>Node4</title>
<g id="a_node4"><a xlink:href="interface_volume_control_1_1_core_audio_1_1_interfaces_1_1_i_hideable_audio_control.html" target="_top" xlink:title="Represents an audio instance that can be prevented from becoming selected.">
<polygon fill="none" stroke="black" points="31.5,-342 31.5,-399 157.5,-399 157.5,-342 31.5,-342"/>
<text text-anchor="middle" x="94.5" y="-387" font-family="Helvetica,sans-Serif" font-size="10.00">IHideableAudioControl</text>
<polyline fill="none" stroke="black" points="31.5,-380 157.5,-380 "/>
<text text-anchor="start" x="39.5" y="-368" font-family="Helvetica,sans-Serif" font-size="10.00">+ IsHidden</text>
<polyline fill="none" stroke="black" points="31.5,-361 157.5,-361 "/>
<text text-anchor="middle" x="94.5" y="-349" font-family="Helvetica,sans-Serif" font-size="10.00"> </text>
</a>
</g>
</g>
<!-- Node2&#45;&gt;Node4 -->
<g id="edge4" class="edge">
<title>Node2&#45;&gt;Node4</title>
<path fill="none" stroke="midnightblue" d="M68.3,-442.71C73.82,-427.71 79.59,-412.03 84.3,-399.21"/>
<polygon fill="none" stroke="midnightblue" points="64.89,-441.84 64.72,-452.43 71.46,-444.25 64.89,-441.84"/>
</g>
<!-- Node3 -->
<g id="node3" class="node">
<title>Node3</title>
<g id="a_node3"><a xlink:href="interface_volume_control_1_1_core_audio_1_1_interfaces_1_1_i_read_only_audio_control.html" target="_top" xlink:title="Represents an audio instance with a read&#45;only volume level and mute state.">
<polygon fill="none" stroke="black" points="175.5,-325.5 175.5,-415.5 305.5,-415.5 305.5,-325.5 175.5,-325.5"/>
<text text-anchor="middle" x="240.5" y="-403.5" font-family="Helvetica,sans-Serif" font-size="10.00">IReadOnlyAudioControl</text>
<polyline fill="none" stroke="black" points="175.5,-396.5 305.5,-396.5 "/>
<text text-anchor="start" x="183.5" y="-384.5" font-family="Helvetica,sans-Serif" font-size="10.00">+ NativeVolume</text>
<text text-anchor="start" x="183.5" y="-373.5" font-family="Helvetica,sans-Serif" font-size="10.00">+ Volume</text>
<text text-anchor="start" x="183.5" y="-362.5" font-family="Helvetica,sans-Serif" font-size="10.00">+ Mute</text>
<text text-anchor="start" x="183.5" y="-351.5" font-family="Helvetica,sans-Serif" font-size="10.00">+ DataFlow</text>
<polyline fill="none" stroke="black" points="175.5,-344.5 305.5,-344.5 "/>
<text text-anchor="middle" x="240.5" y="-332.5" font-family="Helvetica,sans-Serif" font-size="10.00"> </text>
</a>
</g>
</g>
<!-- Node3&#45;&gt;Node1 -->
<g id="edge2" class="edge">
<title>Node3&#45;&gt;Node1</title>
<path fill="none" stroke="midnightblue" d="M256.87,-315.57C259.45,-307.07 262.22,-297.95 265.09,-288.51"/>
<polygon fill="none" stroke="midnightblue" points="253.49,-314.66 253.93,-325.24 260.19,-316.69 253.49,-314.66"/>
</g>
<!-- Node4&#45;&gt;Node1 -->
<g id="edge3" class="edge">
<title>Node4&#45;&gt;Node1</title>
<path fill="none" stroke="midnightblue" d="M128.09,-334.34C152.48,-308.81 186.69,-273 218.78,-239.41"/>
<polygon fill="none" stroke="midnightblue" points="125.55,-331.93 121.17,-341.58 130.61,-336.77 125.55,-331.93"/>
</g>
<!-- Node5 -->
<g id="node5" class="node">
<title>Node5</title>
<g id="a_node5"><a xlink:href="interface_volume_control_1_1_core_audio_1_1_interfaces_1_1_i_audio_peak_meter.html" target="_top" xlink:title="Represents some kind of object that has an audio peak meter.">
<polygon fill="none" stroke="black" points="324,-342 324,-399 431,-399 431,-342 324,-342"/>
<text text-anchor="middle" x="377.5" y="-387" font-family="Helvetica,sans-Serif" font-size="10.00">IAudioPeakMeter</text>
<polyline fill="none" stroke="black" points="324,-380 431,-380 "/>
<text text-anchor="start" x="332" y="-368" font-family="Helvetica,sans-Serif" font-size="10.00">+ PeakMeterValue</text>
<polyline fill="none" stroke="black" points="324,-361 431,-361 "/>
<text text-anchor="middle" x="377.5" y="-349" font-family="Helvetica,sans-Serif" font-size="10.00"> </text>
</a>
</g>
</g>
<!-- Node5&#45;&gt;Node1 -->
<g id="edge5" class="edge">
<title>Node5&#45;&gt;Node1</title>
<path fill="none" stroke="midnightblue" d="M365.94,-331.98C362.05,-319.35 357.45,-304.42 352.57,-288.58"/>
<polygon fill="none" stroke="midnightblue" points="362.61,-333.06 368.9,-341.58 369.3,-331 362.61,-333.06"/>
</g>
<!-- Node6 -->
<g id="node6" class="node">
<title>Node6</title>
<g id="a_node6"><a xlink:title=" ">
<polygon fill="none" stroke="#bfbfbf" points="449,-342 449,-399 582,-399 582,-342 449,-342"/>
<text text-anchor="middle" x="515.5" y="-387" font-family="Helvetica,sans-Serif" font-size="10.00">INotifyPropertyChanged</text>
<polyline fill="none" stroke="#bfbfbf" points="449,-380 582,-380 "/>
<text text-anchor="middle" x="515.5" y="-368" font-family="Helvetica,sans-Serif" font-size="10.00"> </text>
<polyline fill="none" stroke="#bfbfbf" points="449,-361 582,-361 "/>
<text text-anchor="middle" x="515.5" y="-349" font-family="Helvetica,sans-Serif" font-size="10.00"> </text>
</a>
</g>
</g>
<!-- Node6&#45;&gt;Node1 -->
<g id="edge6" class="edge">
<title>Node6&#45;&gt;Node1</title>
<path fill="none" stroke="midnightblue" d="M482.9,-334.22C460.03,-309.47 428.26,-275.09 398.1,-242.45"/>
<polygon fill="none" stroke="midnightblue" points="480.34,-336.61 489.7,-341.58 485.49,-331.86 480.34,-336.61"/>
</g>
<!-- Node7 -->
<g id="node7" class="node">
<title>Node7</title>
<g id="a_node7"><a xlink:title=" ">
<polygon fill="none" stroke="#bfbfbf" points="600.5,-342 600.5,-399 674.5,-399 674.5,-342 600.5,-342"/>
<text text-anchor="middle" x="637.5" y="-387" font-family="Helvetica,sans-Serif" font-size="10.00">IDisposable</text>
<polyline fill="none" stroke="#bfbfbf" points="600.5,-380 674.5,-380 "/>
<text text-anchor="middle" x="637.5" y="-368" font-family="Helvetica,sans-Serif" font-size="10.00"> </text>
<polyline fill="none" stroke="#bfbfbf" points="600.5,-361 674.5,-361 "/>
<text text-anchor="middle" x="637.5" y="-349" font-family="Helvetica,sans-Serif" font-size="10.00"> </text>
</a>
</g>
</g>
<!-- Node7&#45;&gt;Node1 -->
<g id="edge7" class="edge">
<title>Node7&#45;&gt;Node1</title>
<path fill="none" stroke="midnightblue" d="M603,-334.7C599.21,-331.31 595.34,-328.02 591.5,-325 530.13,-276.68 455.3,-229.67 398,-195.89"/>
<polygon fill="none" stroke="midnightblue" points="600.88,-337.51 610.6,-341.72 605.63,-332.37 600.88,-337.51"/>
</g>
</g>
</svg>
