<?xml version="1.0" encoding="UTF-8" standalone="no"?>
<!DOCTYPE svg PUBLIC "-//W3C//DTD SVG 1.1//EN"
 "http://www.w3.org/Graphics/SVG/1.1/DTD/svg11.dtd">
<!-- Generated by graphviz version 2.43.0 (0)
 -->
<!-- Title: VolumeControl.CoreAudio.AudioSessionMultiSelector.SetSelectedSessionsOrCurrentSession Pages: 1 -->
<svg width="594pt" height="110pt"
 viewBox="0.00 0.00 594.00 110.00" xmlns="http://www.w3.org/2000/svg" xmlns:xlink="http://www.w3.org/1999/xlink">
<g id="graph0" class="graph" transform="scale(1 1) rotate(0) translate(4 106)">
<title>VolumeControl.CoreAudio.AudioSessionMultiSelector.SetSelectedSessionsOrCurrentSession</title>
<!-- Node1 -->
<g id="node1" class="node">
<title>Node1</title>
<g id="a_node1"><a xlink:title="Sets only the specified sessions &#160;as selected, unless sessions &#160;contains exactly 1 session in which c...">
<polygon fill="#bfbfbf" stroke="black" points="0,-30.5 0,-71.5 186,-71.5 186,-30.5 0,-30.5"/>
<text text-anchor="start" x="8" y="-59.5" font-family="Helvetica,sans-Serif" font-size="10.00">VolumeControl.CoreAudio.</text>
<text text-anchor="start" x="8" y="-48.5" font-family="Helvetica,sans-Serif" font-size="10.00">AudioSessionMultiSelector.Set</text>
<text text-anchor="middle" x="93" y="-37.5" font-family="Helvetica,sans-Serif" font-size="10.00">SelectedSessionsOrCurrentSession</text>
</a>
</g>
</g>
<!-- Node2 -->
<g id="node2" class="node">
<title>Node2</title>
<g id="a_node2"><a xlink:href="class_volume_control_1_1_core_audio_1_1_audio_session_multi_selector.html#a6fc89905cebf16eeebb1a70120967c75" target="_top" xlink:title="Sets whether all AudioSession instances in the Sessions list are selected or not.">
<polygon fill="none" stroke="black" points="222,-60.5 222,-101.5 386,-101.5 386,-60.5 222,-60.5"/>
<text text-anchor="start" x="230" y="-89.5" font-family="Helvetica,sans-Serif" font-size="10.00">VolumeControl.CoreAudio.</text>
<text text-anchor="start" x="230" y="-78.5" font-family="Helvetica,sans-Serif" font-size="10.00">AudioSessionMultiSelector.Set</text>
<text text-anchor="middle" x="304" y="-67.5" font-family="Helvetica,sans-Serif" font-size="10.00">AllSessionSelectionStates</text>
</a>
</g>
</g>
<!-- Node1&#45;&gt;Node2 -->
<g id="edge1" class="edge">
<title>Node1&#45;&gt;Node2</title>
<path fill="none" stroke="midnightblue" d="M186.28,-64.25C194.68,-65.45 203.18,-66.67 211.57,-67.88"/>
<polygon fill="midnightblue" stroke="midnightblue" points="211.33,-71.38 221.73,-69.33 212.33,-64.45 211.33,-71.38"/>
</g>
<!-- Node4 -->
<g id="node4" class="node">
<title>Node4</title>
<g id="a_node4"><a xlink:href="class_volume_control_1_1_core_audio_1_1_audio_session_multi_selector.html#aefed066323178ba08dce36d09e368c3f" target="_top" xlink:title="Sets only the specified sessions &#160;as selected.">
<polygon fill="none" stroke="black" points="222,-0.5 222,-41.5 386,-41.5 386,-0.5 222,-0.5"/>
<text text-anchor="start" x="230" y="-29.5" font-family="Helvetica,sans-Serif" font-size="10.00">VolumeControl.CoreAudio.</text>
<text text-anchor="start" x="230" y="-18.5" font-family="Helvetica,sans-Serif" font-size="10.00">AudioSessionMultiSelector.Set</text>
<text text-anchor="middle" x="304" y="-7.5" font-family="Helvetica,sans-Serif" font-size="10.00">SelectedSessions</text>
</a>
</g>
</g>
<!-- Node1&#45;&gt;Node4 -->
<g id="edge3" class="edge">
<title>Node1&#45;&gt;Node4</title>
<path fill="none" stroke="midnightblue" d="M186.28,-37.75C194.68,-36.55 203.18,-35.33 211.57,-34.12"/>
<polygon fill="midnightblue" stroke="midnightblue" points="212.33,-37.55 221.73,-32.67 211.33,-30.62 212.33,-37.55"/>
</g>
<!-- Node3 -->
<g id="node3" class="node">
<title>Node3</title>
<g id="a_node3"><a xlink:href="class_volume_control_1_1_core_audio_1_1_audio_session_multi_selector.html#a0d99654cef7569144f231abe71830718" target="_top" xlink:title="Sets whether the specified audioSession &#160;is selected or not.">
<polygon fill="none" stroke="black" points="422,-30.5 422,-71.5 586,-71.5 586,-30.5 422,-30.5"/>
<text text-anchor="start" x="430" y="-59.5" font-family="Helvetica,sans-Serif" font-size="10.00">VolumeControl.CoreAudio.</text>
<text text-anchor="start" x="430" y="-48.5" font-family="Helvetica,sans-Serif" font-size="10.00">AudioSessionMultiSelector.Set</text>
<text text-anchor="middle" x="504" y="-37.5" font-family="Helvetica,sans-Serif" font-size="10.00">SessionIsSelected</text>
</a>
</g>
</g>
<!-- Node2&#45;&gt;Node3 -->
<g id="edge2" class="edge">
<title>Node2&#45;&gt;Node3</title>
<path fill="none" stroke="midnightblue" d="M386.11,-68.71C394.55,-67.43 403.17,-66.13 411.72,-64.83"/>
<polygon fill="midnightblue" stroke="midnightblue" points="412.34,-68.28 421.7,-63.32 411.29,-61.36 412.34,-68.28"/>
</g>
<!-- Node4&#45;&gt;Node3 -->
<g id="edge4" class="edge">
<title>Node4&#45;&gt;Node3</title>
<path fill="none" stroke="midnightblue" d="M386.11,-33.29C394.55,-34.57 403.17,-35.87 411.72,-37.17"/>
<polygon fill="midnightblue" stroke="midnightblue" points="411.29,-40.64 421.7,-38.68 412.34,-33.72 411.29,-40.64"/>
</g>
</g>
</svg>
