<?xml version="1.0" encoding="UTF-8" standalone="no"?>
<!DOCTYPE svg PUBLIC "-//W3C//DTD SVG 1.1//EN"
 "http://www.w3.org/Graphics/SVG/1.1/DTD/svg11.dtd">
<!-- Generated by graphviz version 2.43.0 (0)
 -->
<!-- Title: VolumeControl.Audio.AudioSession Pages: 1 -->
<svg width="465pt" height="568pt"
 viewBox="0.00 0.00 464.50 568.00" xmlns="http://www.w3.org/2000/svg" xmlns:xlink="http://www.w3.org/1999/xlink">
<g id="graph0" class="graph" transform="scale(1 1) rotate(0) translate(4 564)">
<title>VolumeControl.Audio.AudioSession</title>
<!-- Node1 -->
<g id="node1" class="node">
<title>Node1</title>
<g id="a_node1"><a xlink:title="Represents an audio session playing on the system.">
<polygon fill="#bfbfbf" stroke="black" points="173.5,-0.5 173.5,-233.5 323.5,-233.5 323.5,-0.5 173.5,-0.5"/>
<text text-anchor="start" x="181.5" y="-221.5" font-family="Helvetica,sans-Serif" font-size="10.00">VolumeControl.Audio.Audio</text>
<text text-anchor="middle" x="248.5" y="-210.5" font-family="Helvetica,sans-Serif" font-size="10.00">Session</text>
<polyline fill="none" stroke="black" points="173.5,-203.5 323.5,-203.5 "/>
<text text-anchor="start" x="181.5" y="-191.5" font-family="Helvetica,sans-Serif" font-size="10.00">+ VolumeController</text>
<text text-anchor="start" x="181.5" y="-180.5" font-family="Helvetica,sans-Serif" font-size="10.00">+ State</text>
<text text-anchor="start" x="181.5" y="-169.5" font-family="Helvetica,sans-Serif" font-size="10.00">+ IconPath</text>
<text text-anchor="start" x="181.5" y="-158.5" font-family="Helvetica,sans-Serif" font-size="10.00">+ SmallIcon</text>
<text text-anchor="start" x="181.5" y="-147.5" font-family="Helvetica,sans-Serif" font-size="10.00">+ LargeIcon</text>
<text text-anchor="start" x="181.5" y="-136.5" font-family="Helvetica,sans-Serif" font-size="10.00">+ Icon</text>
<text text-anchor="start" x="181.5" y="-125.5" font-family="Helvetica,sans-Serif" font-size="10.00">+ ProcessIdentifier</text>
<text text-anchor="start" x="181.5" y="-114.5" font-family="Helvetica,sans-Serif" font-size="10.00">+ int</text>
<text text-anchor="start" x="181.5" y="-103.5" font-family="Helvetica,sans-Serif" font-size="10.00">+ Volume</text>
<text text-anchor="start" x="181.5" y="-92.5" font-family="Helvetica,sans-Serif" font-size="10.00">+ NativeVolume</text>
<text text-anchor="start" x="181.5" y="-81.5" font-family="Helvetica,sans-Serif" font-size="10.00">+ Muted</text>
<text text-anchor="start" x="181.5" y="-70.5" font-family="Helvetica,sans-Serif" font-size="10.00">+ ProcessName</text>
<text text-anchor="start" x="181.5" y="-59.5" font-family="Helvetica,sans-Serif" font-size="10.00">+ PID</text>
<text text-anchor="start" x="181.5" y="-48.5" font-family="Helvetica,sans-Serif" font-size="10.00">+ IsRunning</text>
<polyline fill="none" stroke="black" points="173.5,-41.5 323.5,-41.5 "/>
<text text-anchor="start" x="181.5" y="-29.5" font-family="Helvetica,sans-Serif" font-size="10.00">+ AudioSession()</text>
<text text-anchor="start" x="181.5" y="-18.5" font-family="Helvetica,sans-Serif" font-size="10.00">+ GetProcess()</text>
<text text-anchor="start" x="181.5" y="-7.5" font-family="Helvetica,sans-Serif" font-size="10.00">+ Dispose()</text>
</a>
</g>
</g>
<!-- Node2 -->
<g id="node2" class="node">
<title>Node2</title>
<g id="a_node2"><a xlink:href="interface_volume_control_1_1_audio_1_1_interfaces_1_1_i_session.html" target="_top" xlink:title="Represents an audio session.">
<polygon fill="none" stroke="black" points="60,-270.5 60,-349.5 157,-349.5 157,-270.5 60,-270.5"/>
<text text-anchor="middle" x="108.5" y="-337.5" font-family="Helvetica,sans-Serif" font-size="10.00">ISession</text>
<polyline fill="none" stroke="black" points="60,-330.5 157,-330.5 "/>
<text text-anchor="start" x="68" y="-318.5" font-family="Helvetica,sans-Serif" font-size="10.00">+ Volume</text>
<text text-anchor="start" x="68" y="-307.5" font-family="Helvetica,sans-Serif" font-size="10.00">+ NativeVolume</text>
<text text-anchor="start" x="68" y="-296.5" font-family="Helvetica,sans-Serif" font-size="10.00">+ Muted</text>
<polyline fill="none" stroke="black" points="60,-289.5 157,-289.5 "/>
<text text-anchor="middle" x="108.5" y="-277.5" font-family="Helvetica,sans-Serif" font-size="10.00"> </text>
</a>
</g>
</g>
<!-- Node2&#45;&gt;Node1 -->
<g id="edge1" class="edge">
<title>Node2&#45;&gt;Node1</title>
<path fill="none" stroke="midnightblue" d="M142.79,-262.22C152.13,-249.48 162.62,-235.16 173.28,-220.62"/>
<polygon fill="none" stroke="midnightblue" points="139.92,-260.21 136.83,-270.35 145.57,-264.35 139.92,-260.21"/>
</g>
<!-- Node3 -->
<g id="node3" class="node">
<title>Node3</title>
<g id="a_node3"><a xlink:href="interface_volume_control_1_1_audio_1_1_interfaces_1_1_i_process.html" target="_top" xlink:title="Represents read&#45;only information about a process running on the local system.">
<polygon fill="none" stroke="black" points="23,-386.5 23,-465.5 132,-465.5 132,-386.5 23,-386.5"/>
<text text-anchor="middle" x="77.5" y="-453.5" font-family="Helvetica,sans-Serif" font-size="10.00">IProcess</text>
<polyline fill="none" stroke="black" points="23,-446.5 132,-446.5 "/>
<text text-anchor="start" x="31" y="-434.5" font-family="Helvetica,sans-Serif" font-size="10.00">+ ProcessName</text>
<text text-anchor="start" x="31" y="-423.5" font-family="Helvetica,sans-Serif" font-size="10.00">+ PID</text>
<text text-anchor="start" x="31" y="-412.5" font-family="Helvetica,sans-Serif" font-size="10.00">+ ProcessIdentifier</text>
<polyline fill="none" stroke="black" points="23,-405.5 132,-405.5 "/>
<text text-anchor="middle" x="77.5" y="-393.5" font-family="Helvetica,sans-Serif" font-size="10.00"> </text>
</a>
</g>
</g>
<!-- Node3&#45;&gt;Node2 -->
<g id="edge2" class="edge">
<title>Node3&#45;&gt;Node2</title>
<path fill="none" stroke="midnightblue" d="M90.63,-376.73C93.09,-367.65 95.64,-358.28 98.02,-349.56"/>
<polygon fill="none" stroke="midnightblue" points="87.24,-375.84 88,-386.4 94,-377.67 87.24,-375.84"/>
</g>
<!-- Node4 -->
<g id="node4" class="node">
<title>Node4</title>
<g id="a_node4"><a xlink:href="interface_volume_control_1_1_audio_1_1_interfaces_1_1_i_targetable.html" target="_top" xlink:title="Base interface type for IDevice and IProcess/ISession.">
<polygon fill="none" stroke="black" points="0,-502.5 0,-559.5 71,-559.5 71,-502.5 0,-502.5"/>
<text text-anchor="middle" x="35.5" y="-547.5" font-family="Helvetica,sans-Serif" font-size="10.00">ITargetable</text>
<polyline fill="none" stroke="black" points="0,-540.5 71,-540.5 "/>
<text text-anchor="middle" x="35.5" y="-528.5" font-family="Helvetica,sans-Serif" font-size="10.00"> </text>
<polyline fill="none" stroke="black" points="0,-521.5 71,-521.5 "/>
<text text-anchor="middle" x="35.5" y="-509.5" font-family="Helvetica,sans-Serif" font-size="10.00"> </text>
</a>
</g>
</g>
<!-- Node4&#45;&gt;Node2 -->
<g id="edge4" class="edge">
<title>Node4&#45;&gt;Node2</title>
<path fill="none" stroke="midnightblue" d="M18.44,-492.99C7.14,-462.8 -2.87,-419.78 13.5,-386 23.4,-365.58 41.85,-349.04 59.88,-336.74"/>
<polygon fill="none" stroke="midnightblue" points="15.19,-494.3 22.12,-502.31 21.7,-491.72 15.19,-494.3"/>
</g>
<!-- Node4&#45;&gt;Node3 -->
<g id="edge3" class="edge">
<title>Node4&#45;&gt;Node3</title>
<path fill="none" stroke="midnightblue" d="M50.58,-493.01C54.22,-484.08 58.12,-474.52 61.79,-465.52"/>
<polygon fill="none" stroke="midnightblue" points="47.29,-491.82 46.76,-502.4 53.77,-494.46 47.29,-491.82"/>
</g>
<!-- Node5 -->
<g id="node5" class="node">
<title>Node5</title>
<g id="a_node5"><a xlink:title=" ">
<polygon fill="none" stroke="#bfbfbf" points="150,-397.5 150,-454.5 283,-454.5 283,-397.5 150,-397.5"/>
<text text-anchor="middle" x="216.5" y="-442.5" font-family="Helvetica,sans-Serif" font-size="10.00">INotifyPropertyChanged</text>
<polyline fill="none" stroke="#bfbfbf" points="150,-435.5 283,-435.5 "/>
<text text-anchor="middle" x="216.5" y="-423.5" font-family="Helvetica,sans-Serif" font-size="10.00"> </text>
<polyline fill="none" stroke="#bfbfbf" points="150,-416.5 283,-416.5 "/>
<text text-anchor="middle" x="216.5" y="-404.5" font-family="Helvetica,sans-Serif" font-size="10.00"> </text>
</a>
</g>
</g>
<!-- Node5&#45;&gt;Node1 -->
<g id="edge6" class="edge">
<title>Node5&#45;&gt;Node1</title>
<path fill="none" stroke="midnightblue" d="M215.45,-387.39C215,-355.94 215.34,-309.92 219.5,-270 220.73,-258.24 222.39,-246.04 224.3,-233.88"/>
<polygon fill="none" stroke="midnightblue" points="211.96,-387.54 215.63,-397.47 218.96,-387.41 211.96,-387.54"/>
</g>
<!-- Node5&#45;&gt;Node2 -->
<g id="edge5" class="edge">
<title>Node5&#45;&gt;Node2</title>
<path fill="none" stroke="midnightblue" d="M183.42,-390.08C171.27,-377.26 157.45,-362.67 145.01,-349.54"/>
<polygon fill="none" stroke="midnightblue" points="180.94,-392.55 190.36,-397.4 186.02,-387.74 180.94,-392.55"/>
</g>
<!-- Node6 -->
<g id="node6" class="node">
<title>Node6</title>
<g id="a_node6"><a xlink:title=" ">
<polygon fill="none" stroke="#bfbfbf" points="228.5,-281.5 228.5,-338.5 364.5,-338.5 364.5,-281.5 228.5,-281.5"/>
<text text-anchor="middle" x="296.5" y="-326.5" font-family="Helvetica,sans-Serif" font-size="10.00">INotifyPropertyChanging</text>
<polyline fill="none" stroke="#bfbfbf" points="228.5,-319.5 364.5,-319.5 "/>
<text text-anchor="middle" x="296.5" y="-307.5" font-family="Helvetica,sans-Serif" font-size="10.00"> </text>
<polyline fill="none" stroke="#bfbfbf" points="228.5,-300.5 364.5,-300.5 "/>
<text text-anchor="middle" x="296.5" y="-288.5" font-family="Helvetica,sans-Serif" font-size="10.00"> </text>
</a>
</g>
</g>
<!-- Node6&#45;&gt;Node1 -->
<g id="edge7" class="edge">
<title>Node6&#45;&gt;Node1</title>
<path fill="none" stroke="midnightblue" d="M287.06,-271.44C284.24,-260.22 280.99,-247.29 277.6,-233.79"/>
<polygon fill="none" stroke="midnightblue" points="283.69,-272.38 289.52,-281.23 290.48,-270.68 283.69,-272.38"/>
</g>
<!-- Node7 -->
<g id="node7" class="node">
<title>Node7</title>
<g id="a_node7"><a xlink:title=" ">
<polygon fill="none" stroke="#bfbfbf" points="382.5,-281.5 382.5,-338.5 456.5,-338.5 456.5,-281.5 382.5,-281.5"/>
<text text-anchor="middle" x="419.5" y="-326.5" font-family="Helvetica,sans-Serif" font-size="10.00">IDisposable</text>
<polyline fill="none" stroke="#bfbfbf" points="382.5,-319.5 456.5,-319.5 "/>
<text text-anchor="middle" x="419.5" y="-307.5" font-family="Helvetica,sans-Serif" font-size="10.00"> </text>
<polyline fill="none" stroke="#bfbfbf" points="382.5,-300.5 456.5,-300.5 "/>
<text text-anchor="middle" x="419.5" y="-288.5" font-family="Helvetica,sans-Serif" font-size="10.00"> </text>
</a>
</g>
</g>
<!-- Node7&#45;&gt;Node1 -->
<g id="edge8" class="edge">
<title>Node7&#45;&gt;Node1</title>
<path fill="none" stroke="midnightblue" d="M387.74,-273.53C369.68,-253.36 346.25,-227.18 323.77,-202.07"/>
<polygon fill="none" stroke="midnightblue" points="385.36,-276.11 394.64,-281.23 390.57,-271.44 385.36,-276.11"/>
</g>
</g>
</svg>
