<?xml version="1.0" encoding="UTF-8" standalone="no"?>
<!DOCTYPE svg PUBLIC "-//W3C//DTD SVG 1.1//EN"
 "http://www.w3.org/Graphics/SVG/1.1/DTD/svg11.dtd">
<!-- Generated by graphviz version 2.43.0 (0)
 -->
<!-- Title: VolumeControl.Log.Endpoints.ConsoleEndpoint Pages: 1 -->
<svg width="270pt" height="408pt"
 viewBox="0.00 0.00 269.50 408.00" xmlns="http://www.w3.org/2000/svg" xmlns:xlink="http://www.w3.org/1999/xlink">
<g id="graph0" class="graph" transform="scale(1 1) rotate(0) translate(4 404)">
<title>VolumeControl.Log.Endpoints.ConsoleEndpoint</title>
<!-- Node1 -->
<g id="node1" class="node">
<title>Node1</title>
<g id="a_node1"><a xlink:title="Allows using the Console as a logging endpoint.">
<polygon fill="#bfbfbf" stroke="black" points="43.5,-0.5 43.5,-112.5 206.5,-112.5 206.5,-0.5 43.5,-0.5"/>
<text text-anchor="start" x="51.5" y="-100.5" font-family="Helvetica,sans-Serif" font-size="10.00">VolumeControl.Log.Endpoints.</text>
<text text-anchor="middle" x="125" y="-89.5" font-family="Helvetica,sans-Serif" font-size="10.00">ConsoleEndpoint</text>
<polyline fill="none" stroke="black" points="43.5,-82.5 206.5,-82.5 "/>
<text text-anchor="middle" x="125" y="-70.5" font-family="Helvetica,sans-Serif" font-size="10.00"> </text>
<polyline fill="none" stroke="black" points="43.5,-63.5 206.5,-63.5 "/>
<text text-anchor="start" x="51.5" y="-51.5" font-family="Helvetica,sans-Serif" font-size="10.00">+ ConsoleEndpoint()</text>
<text text-anchor="start" x="51.5" y="-40.5" font-family="Helvetica,sans-Serif" font-size="10.00">+ GetTextWriter()</text>
<text text-anchor="start" x="51.5" y="-29.5" font-family="Helvetica,sans-Serif" font-size="10.00">+ Reset()</text>
<text text-anchor="start" x="51.5" y="-18.5" font-family="Helvetica,sans-Serif" font-size="10.00">+ GetSTDOUT()</text>
<text text-anchor="start" x="51.5" y="-7.5" font-family="Helvetica,sans-Serif" font-size="10.00">+ GetSTDERR()</text>
</a>
</g>
</g>
<!-- Node2 -->
<g id="node2" class="node">
<title>Node2</title>
<g id="a_node2"><a xlink:href="class_volume_control_1_1_log_1_1_endpoints_1_1_base_endpoint_writer.html" target="_top" xlink:title="Abstract base class for endpoint writers.">
<polygon fill="none" stroke="black" points="50.5,-149.5 50.5,-272.5 199.5,-272.5 199.5,-149.5 50.5,-149.5"/>
<text text-anchor="middle" x="125" y="-260.5" font-family="Helvetica,sans-Serif" font-size="10.00">BaseEndpointWriter</text>
<polyline fill="none" stroke="black" points="50.5,-253.5 199.5,-253.5 "/>
<text text-anchor="start" x="58.5" y="-241.5" font-family="Helvetica,sans-Serif" font-size="10.00">+ IsWritingEnabled</text>
<polyline fill="none" stroke="black" points="50.5,-234.5 199.5,-234.5 "/>
<text text-anchor="start" x="58.5" y="-222.5" font-family="Helvetica,sans-Serif" font-size="10.00">+ GetTextWriter()</text>
<text text-anchor="start" x="58.5" y="-211.5" font-family="Helvetica,sans-Serif" font-size="10.00">+ Reset()</text>
<text text-anchor="start" x="58.5" y="-200.5" font-family="Helvetica,sans-Serif" font-size="10.00">+ Write()</text>
<text text-anchor="start" x="58.5" y="-189.5" font-family="Helvetica,sans-Serif" font-size="10.00">+ WriteLine()</text>
<text text-anchor="start" x="58.5" y="-178.5" font-family="Helvetica,sans-Serif" font-size="10.00">+ WriteLine()</text>
<text text-anchor="start" x="58.5" y="-167.5" font-family="Helvetica,sans-Serif" font-size="10.00"># BaseEndpointWriter()</text>
<text text-anchor="start" x="58.5" y="-156.5" font-family="Helvetica,sans-Serif" font-size="10.00"># NotifyPropertyChanged()</text>
</a>
</g>
</g>
<!-- Node2&#45;&gt;Node1 -->
<g id="edge1" class="edge">
<title>Node2&#45;&gt;Node1</title>
<path fill="none" stroke="midnightblue" d="M125,-139.25C125,-130.29 125,-121.23 125,-112.56"/>
<polygon fill="none" stroke="midnightblue" points="121.5,-139.29 125,-149.29 128.5,-139.29 121.5,-139.29"/>
</g>
<!-- Node3 -->
<g id="node3" class="node">
<title>Node3</title>
<g id="a_node3"><a xlink:href="interface_volume_control_1_1_log_1_1_interfaces_1_1_i_endpoint_writer.html" target="_top" xlink:title="Represents an endpoint that text can be written to.">
<polygon fill="none" stroke="black" points="0,-309.5 0,-399.5 110,-399.5 110,-309.5 0,-309.5"/>
<text text-anchor="middle" x="55" y="-387.5" font-family="Helvetica,sans-Serif" font-size="10.00">IEndpointWriter</text>
<polyline fill="none" stroke="black" points="0,-380.5 110,-380.5 "/>
<text text-anchor="start" x="8" y="-368.5" font-family="Helvetica,sans-Serif" font-size="10.00">+ IsWritingEnabled</text>
<polyline fill="none" stroke="black" points="0,-361.5 110,-361.5 "/>
<text text-anchor="start" x="8" y="-349.5" font-family="Helvetica,sans-Serif" font-size="10.00">+ GetTextWriter()</text>
<text text-anchor="start" x="8" y="-338.5" font-family="Helvetica,sans-Serif" font-size="10.00">+ Write()</text>
<text text-anchor="start" x="8" y="-327.5" font-family="Helvetica,sans-Serif" font-size="10.00">+ WriteLine()</text>
<text text-anchor="start" x="8" y="-316.5" font-family="Helvetica,sans-Serif" font-size="10.00">+ Reset()</text>
</a>
</g>
</g>
<!-- Node3&#45;&gt;Node2 -->
<g id="edge2" class="edge">
<title>Node3&#45;&gt;Node2</title>
<path fill="none" stroke="midnightblue" d="M81.49,-299.96C85.91,-291.01 90.53,-281.67 95.04,-272.56"/>
<polygon fill="none" stroke="midnightblue" points="78.25,-298.6 76.96,-309.12 84.53,-301.71 78.25,-298.6"/>
</g>
<!-- Node4 -->
<g id="node4" class="node">
<title>Node4</title>
<g id="a_node4"><a xlink:title=" ">
<polygon fill="none" stroke="#bfbfbf" points="128.5,-326 128.5,-383 261.5,-383 261.5,-326 128.5,-326"/>
<text text-anchor="middle" x="195" y="-371" font-family="Helvetica,sans-Serif" font-size="10.00">INotifyPropertyChanged</text>
<polyline fill="none" stroke="#bfbfbf" points="128.5,-364 261.5,-364 "/>
<text text-anchor="middle" x="195" y="-352" font-family="Helvetica,sans-Serif" font-size="10.00"> </text>
<polyline fill="none" stroke="#bfbfbf" points="128.5,-345 261.5,-345 "/>
<text text-anchor="middle" x="195" y="-333" font-family="Helvetica,sans-Serif" font-size="10.00"> </text>
</a>
</g>
</g>
<!-- Node4&#45;&gt;Node2 -->
<g id="edge3" class="edge">
<title>Node4&#45;&gt;Node2</title>
<path fill="none" stroke="midnightblue" d="M176.9,-316.91C170.22,-303.4 162.45,-287.71 155,-272.63"/>
<polygon fill="none" stroke="midnightblue" points="173.77,-318.47 181.34,-325.88 180.04,-315.37 173.77,-318.47"/>
</g>
</g>
</svg>
