<?xml version="1.0" encoding="UTF-8" standalone="no"?>
<!DOCTYPE svg PUBLIC "-//W3C//DTD SVG 1.1//EN"
 "http://www.w3.org/Graphics/SVG/1.1/DTD/svg11.dtd">
<!-- Generated by graphviz version 2.43.0 (0)
 -->
<!-- Title: VolumeControl.Audio.AudioAPI Pages: 1 -->
<svg width="2079pt" height="1043pt"
 viewBox="0.00 0.00 2078.65 1043.00" xmlns="http://www.w3.org/2000/svg" xmlns:xlink="http://www.w3.org/1999/xlink">
<g id="graph0" class="graph" transform="scale(1 1) rotate(0) translate(4 1039)">
<title>VolumeControl.Audio.AudioAPI</title>
<!-- Node1 -->
<g id="node1" class="node">
<title>Node1</title>
<g id="a_node1"><a xlink:title="Contains methods related to audio devices, sessions, and the underlying selection mechanics responsib...">
<polygon fill="#bfbfbf" stroke="black" points="198.65,-0.5 198.65,-244.5 400.65,-244.5 400.65,-0.5 198.65,-0.5"/>
<text text-anchor="middle" x="299.65" y="-232.5" font-family="Helvetica,sans-Serif" font-size="10.00">VolumeControl.Audio.AudioAPI</text>
<polyline fill="none" stroke="black" points="198.65,-225.5 400.65,-225.5 "/>
<text text-anchor="start" x="206.65" y="-213.5" font-family="Helvetica,sans-Serif" font-size="10.00">+ Devices</text>
<text text-anchor="start" x="206.65" y="-202.5" font-family="Helvetica,sans-Serif" font-size="10.00">+ LockSelectedSession</text>
<text text-anchor="start" x="206.65" y="-191.5" font-family="Helvetica,sans-Serif" font-size="10.00">+ Target</text>
<text text-anchor="start" x="206.65" y="-180.5" font-family="Helvetica,sans-Serif" font-size="10.00">+ TargetGuid</text>
<text text-anchor="start" x="206.65" y="-169.5" font-family="Helvetica,sans-Serif" font-size="10.00">+ VolumeStepSize</text>
<text text-anchor="start" x="206.65" y="-158.5" font-family="Helvetica,sans-Serif" font-size="10.00">+ SelectedSession</text>
<text text-anchor="start" x="206.65" y="-147.5" font-family="Helvetica,sans-Serif" font-size="10.00">+ Sessions</text>
<polyline fill="none" stroke="black" points="198.65,-140.5 400.65,-140.5 "/>
<text text-anchor="start" x="206.65" y="-128.5" font-family="Helvetica,sans-Serif" font-size="10.00">+ AudioAPI()</text>
<text text-anchor="start" x="206.65" y="-117.5" font-family="Helvetica,sans-Serif" font-size="10.00">+ ForceReloadAudioDevices()</text>
<text text-anchor="start" x="206.65" y="-106.5" font-family="Helvetica,sans-Serif" font-size="10.00">+ FindDevice()</text>
<text text-anchor="start" x="206.65" y="-95.5" font-family="Helvetica,sans-Serif" font-size="10.00">+ FindDeviceWithID()</text>
<text text-anchor="start" x="206.65" y="-84.5" font-family="Helvetica,sans-Serif" font-size="10.00">+ ForceReloadSessionList()</text>
<text text-anchor="start" x="206.65" y="-73.5" font-family="Helvetica,sans-Serif" font-size="10.00">+ FindSession()</text>
<text text-anchor="start" x="206.65" y="-62.5" font-family="Helvetica,sans-Serif" font-size="10.00">+ FindSessionWithSessionInstance</text>
<text text-anchor="start" x="206.65" y="-51.5" font-family="Helvetica,sans-Serif" font-size="10.00">Identifier()</text>
<text text-anchor="start" x="206.65" y="-40.5" font-family="Helvetica,sans-Serif" font-size="10.00">+ FindSessionsWithSessionIdentifier()</text>
<text text-anchor="start" x="206.65" y="-29.5" font-family="Helvetica,sans-Serif" font-size="10.00">+ FindSessionWithID()</text>
<text text-anchor="start" x="206.65" y="-18.5" font-family="Helvetica,sans-Serif" font-size="10.00">+ FindSessionWithName()</text>
<text text-anchor="start" x="206.65" y="-7.5" font-family="Helvetica,sans-Serif" font-size="10.00">and 15 more...</text>
</a>
</g>
</g>
<!-- Node2 -->
<g id="node2" class="node">
<title>Node2</title>
<g id="a_node2"><a xlink:title=" ">
<polygon fill="none" stroke="#bfbfbf" points="1825.15,-977.5 1825.15,-1034.5 1958.15,-1034.5 1958.15,-977.5 1825.15,-977.5"/>
<text text-anchor="middle" x="1891.65" y="-1022.5" font-family="Helvetica,sans-Serif" font-size="10.00">INotifyPropertyChanged</text>
<polyline fill="none" stroke="#bfbfbf" points="1825.15,-1015.5 1958.15,-1015.5 "/>
<text text-anchor="middle" x="1891.65" y="-1003.5" font-family="Helvetica,sans-Serif" font-size="10.00"> </text>
<polyline fill="none" stroke="#bfbfbf" points="1825.15,-996.5 1958.15,-996.5 "/>
<text text-anchor="middle" x="1891.65" y="-984.5" font-family="Helvetica,sans-Serif" font-size="10.00"> </text>
</a>
</g>
</g>
<!-- Node2&#45;&gt;Node1 -->
<g id="edge1" class="edge">
<title>Node2&#45;&gt;Node1</title>
<path fill="none" stroke="midnightblue" d="M1814.87,-1005.22C1474.95,-1005.81 119.55,-1004.13 57.65,-940 12.97,-893.7 -72.23,-681.18 122.65,-292 140.6,-256.15 169.42,-223.81 198.64,-197.27"/>
<polygon fill="none" stroke="midnightblue" points="1815.11,-1008.72 1825.11,-1005.2 1815.1,-1001.72 1815.11,-1008.72"/>
</g>
<!-- Node5 -->
<g id="node5" class="node">
<title>Node5</title>
<g id="a_node5"><a xlink:href="class_volume_control_1_1_audio_1_1_audio_device.html" target="_top" xlink:title="Represents an audio device endpoint. Note that this object cannot be constructed externally....">
<polygon fill="none" stroke="black" points="683.65,-292.5 683.65,-800.5 867.65,-800.5 867.65,-292.5 683.65,-292.5"/>
<text text-anchor="start" x="691.65" y="-788.5" font-family="Helvetica,sans-Serif" font-size="10.00">VolumeControl.Audio.Audio</text>
<text text-anchor="middle" x="775.65" y="-777.5" font-family="Helvetica,sans-Serif" font-size="10.00">Device</text>
<polyline fill="none" stroke="black" points="683.65,-770.5 867.65,-770.5 "/>
<text text-anchor="start" x="691.65" y="-758.5" font-family="Helvetica,sans-Serif" font-size="10.00">+ InterfaceName</text>
<text text-anchor="start" x="691.65" y="-747.5" font-family="Helvetica,sans-Serif" font-size="10.00">+ InstanceID</text>
<text text-anchor="start" x="691.65" y="-736.5" font-family="Helvetica,sans-Serif" font-size="10.00">+ IconPath</text>
<text text-anchor="start" x="691.65" y="-725.5" font-family="Helvetica,sans-Serif" font-size="10.00">+ SmallIcon</text>
<text text-anchor="start" x="691.65" y="-714.5" font-family="Helvetica,sans-Serif" font-size="10.00">+ LargeIcon</text>
<text text-anchor="start" x="691.65" y="-703.5" font-family="Helvetica,sans-Serif" font-size="10.00">+ Icon</text>
<text text-anchor="start" x="691.65" y="-692.5" font-family="Helvetica,sans-Serif" font-size="10.00">+ DeviceFriendlyName</text>
<text text-anchor="start" x="691.65" y="-681.5" font-family="Helvetica,sans-Serif" font-size="10.00">+ FriendlyName</text>
<text text-anchor="start" x="691.65" y="-670.5" font-family="Helvetica,sans-Serif" font-size="10.00">+ Properties</text>
<text text-anchor="start" x="691.65" y="-659.5" font-family="Helvetica,sans-Serif" font-size="10.00">+ State</text>
<text text-anchor="start" x="691.65" y="-648.5" font-family="Helvetica,sans-Serif" font-size="10.00">and 7 more...</text>
<text text-anchor="start" x="691.65" y="-637.5" font-family="Helvetica,sans-Serif" font-size="10.00">+ MMDevice</text>
<text text-anchor="start" x="691.65" y="-626.5" font-family="Helvetica,sans-Serif" font-size="10.00">+ Enabled</text>
<text text-anchor="start" x="691.65" y="-615.5" font-family="Helvetica,sans-Serif" font-size="10.00">+ Name</text>
<text text-anchor="start" x="691.65" y="-604.5" font-family="Helvetica,sans-Serif" font-size="10.00">+ DeviceID</text>
<text text-anchor="start" x="691.65" y="-593.5" font-family="Helvetica,sans-Serif" font-size="10.00">+ VolumeRange</text>
<text text-anchor="start" x="691.65" y="-582.5" font-family="Helvetica,sans-Serif" font-size="10.00">+ NativeEndpointVolume</text>
<text text-anchor="start" x="691.65" y="-571.5" font-family="Helvetica,sans-Serif" font-size="10.00">+ EndpointVolume</text>
<text text-anchor="start" x="691.65" y="-560.5" font-family="Helvetica,sans-Serif" font-size="10.00">+ EndpointMuted</text>
<text text-anchor="start" x="691.65" y="-549.5" font-family="Helvetica,sans-Serif" font-size="10.00">+ Sessions</text>
<text text-anchor="start" x="691.65" y="-538.5" font-family="Helvetica,sans-Serif" font-size="10.00">+ this[int index]</text>
<text text-anchor="start" x="691.65" y="-527.5" font-family="Helvetica,sans-Serif" font-size="10.00">+ this[int index]</text>
<text text-anchor="start" x="691.65" y="-516.5" font-family="Helvetica,sans-Serif" font-size="10.00">+ CollectionChanged</text>
<text text-anchor="start" x="691.65" y="-505.5" font-family="Helvetica,sans-Serif" font-size="10.00">~ float</text>
<polyline fill="none" stroke="black" points="683.65,-498.5 867.65,-498.5 "/>
<text text-anchor="start" x="691.65" y="-486.5" font-family="Helvetica,sans-Serif" font-size="10.00">+ GetDeviceName()</text>
<text text-anchor="start" x="691.65" y="-475.5" font-family="Helvetica,sans-Serif" font-size="10.00">+ FindAll()</text>
<text text-anchor="start" x="691.65" y="-464.5" font-family="Helvetica,sans-Serif" font-size="10.00">+ Dispose()</text>
<text text-anchor="start" x="691.65" y="-453.5" font-family="Helvetica,sans-Serif" font-size="10.00">+ Equals()</text>
<text text-anchor="start" x="691.65" y="-442.5" font-family="Helvetica,sans-Serif" font-size="10.00">+ Equals()</text>
<text text-anchor="start" x="691.65" y="-431.5" font-family="Helvetica,sans-Serif" font-size="10.00">+ Equals()</text>
<text text-anchor="start" x="691.65" y="-420.5" font-family="Helvetica,sans-Serif" font-size="10.00">+ GetHashCode()</text>
<text text-anchor="start" x="691.65" y="-409.5" font-family="Helvetica,sans-Serif" font-size="10.00">+ Add()</text>
<text text-anchor="start" x="691.65" y="-398.5" font-family="Helvetica,sans-Serif" font-size="10.00">+ Clear()</text>
<text text-anchor="start" x="691.65" y="-387.5" font-family="Helvetica,sans-Serif" font-size="10.00">+ Contains()</text>
<text text-anchor="start" x="691.65" y="-376.5" font-family="Helvetica,sans-Serif" font-size="10.00">and 22 more...</text>
<text text-anchor="start" x="691.65" y="-365.5" font-family="Helvetica,sans-Serif" font-size="10.00">~ AudioDevice()</text>
<text text-anchor="start" x="691.65" y="-354.5" font-family="Helvetica,sans-Serif" font-size="10.00">~ ForwardPropertyStoreChanged()</text>
<text text-anchor="start" x="691.65" y="-343.5" font-family="Helvetica,sans-Serif" font-size="10.00">~ ForwardRemoved()</text>
<text text-anchor="start" x="691.65" y="-332.5" font-family="Helvetica,sans-Serif" font-size="10.00">~ ForwardStateChanged()</text>
<text text-anchor="start" x="691.65" y="-321.5" font-family="Helvetica,sans-Serif" font-size="10.00">~ ForwardVolumeChanged()</text>
<text text-anchor="start" x="691.65" y="-310.5" font-family="Helvetica,sans-Serif" font-size="10.00">~ ReloadSessions()</text>
<text text-anchor="start" x="691.65" y="-299.5" font-family="Helvetica,sans-Serif" font-size="10.00">~ GetAudioSessions()</text>
</a>
</g>
</g>
<!-- Node2&#45;&gt;Node5 -->
<g id="edge21" class="edge">
<title>Node2&#45;&gt;Node5</title>
<path fill="none" stroke="midnightblue" d="M1902.65,-967.7C1911.38,-929.5 1917.19,-871.16 1883.65,-838 1843.85,-798.64 922.4,-833.26 876.65,-801 873.65,-798.88 870.74,-796.66 867.92,-794.35"/>
<polygon fill="none" stroke="midnightblue" points="1899.25,-966.88 1900.27,-977.43 1906.05,-968.55 1899.25,-966.88"/>
</g>
<!-- Node6 -->
<g id="node6" class="node">
<title>Node6</title>
<g id="a_node6"><a xlink:href="interface_volume_control_1_1_audio_1_1_interfaces_1_1_i_device.html" target="_top" xlink:title="Represents an audio device.">
<polygon fill="none" stroke="black" points="1930.65,-838.5 1930.65,-939.5 2070.65,-939.5 2070.65,-838.5 1930.65,-838.5"/>
<text text-anchor="middle" x="2000.65" y="-927.5" font-family="Helvetica,sans-Serif" font-size="10.00">IDevice</text>
<polyline fill="none" stroke="black" points="1930.65,-920.5 2070.65,-920.5 "/>
<text text-anchor="start" x="1938.65" y="-908.5" font-family="Helvetica,sans-Serif" font-size="10.00">+ Name</text>
<text text-anchor="start" x="1938.65" y="-897.5" font-family="Helvetica,sans-Serif" font-size="10.00">+ DeviceID</text>
<text text-anchor="start" x="1938.65" y="-886.5" font-family="Helvetica,sans-Serif" font-size="10.00">+ NativeEndpointVolume</text>
<text text-anchor="start" x="1938.65" y="-875.5" font-family="Helvetica,sans-Serif" font-size="10.00">+ EndpointVolume</text>
<text text-anchor="start" x="1938.65" y="-864.5" font-family="Helvetica,sans-Serif" font-size="10.00">+ EndpointMuted</text>
<polyline fill="none" stroke="black" points="1930.65,-857.5 2070.65,-857.5 "/>
<text text-anchor="middle" x="2000.65" y="-845.5" font-family="Helvetica,sans-Serif" font-size="10.00"> </text>
</a>
</g>
</g>
<!-- Node2&#45;&gt;Node6 -->
<g id="edge7" class="edge">
<title>Node2&#45;&gt;Node6</title>
<path fill="none" stroke="midnightblue" d="M1924.78,-970.05C1933.82,-960.51 1943.78,-950 1953.44,-939.81"/>
<polygon fill="none" stroke="midnightblue" points="1922.1,-967.79 1917.76,-977.45 1927.18,-972.6 1922.1,-967.79"/>
</g>
<!-- Node3 -->
<g id="node3" class="node">
<title>Node3</title>
<g id="a_node3"><a xlink:title=" ">
<polygon fill="none" stroke="#bfbfbf" points="885.65,-518 885.65,-575 1021.65,-575 1021.65,-518 885.65,-518"/>
<text text-anchor="middle" x="953.65" y="-563" font-family="Helvetica,sans-Serif" font-size="10.00">INotifyPropertyChanging</text>
<polyline fill="none" stroke="#bfbfbf" points="885.65,-556 1021.65,-556 "/>
<text text-anchor="middle" x="953.65" y="-544" font-family="Helvetica,sans-Serif" font-size="10.00"> </text>
<polyline fill="none" stroke="#bfbfbf" points="885.65,-537 1021.65,-537 "/>
<text text-anchor="middle" x="953.65" y="-525" font-family="Helvetica,sans-Serif" font-size="10.00"> </text>
</a>
</g>
</g>
<!-- Node3&#45;&gt;Node1 -->
<g id="edge2" class="edge">
<title>Node3&#45;&gt;Node1</title>
<path fill="none" stroke="midnightblue" d="M952.93,-507.91C949.8,-452.85 935.79,-350.5 876.65,-292 747.94,-164.66 528.66,-132.53 400.7,-125.05"/>
<polygon fill="none" stroke="midnightblue" points="949.44,-508.12 953.41,-517.94 956.43,-507.78 949.44,-508.12"/>
</g>
<!-- Node4 -->
<g id="node4" class="node">
<title>Node4</title>
<g id="a_node4"><a xlink:title=" ">
<polygon fill="none" stroke="#bfbfbf" points="66.65,-860.5 66.65,-917.5 140.65,-917.5 140.65,-860.5 66.65,-860.5"/>
<text text-anchor="middle" x="103.65" y="-905.5" font-family="Helvetica,sans-Serif" font-size="10.00">IDisposable</text>
<polyline fill="none" stroke="#bfbfbf" points="66.65,-898.5 140.65,-898.5 "/>
<text text-anchor="middle" x="103.65" y="-886.5" font-family="Helvetica,sans-Serif" font-size="10.00"> </text>
<polyline fill="none" stroke="#bfbfbf" points="66.65,-879.5 140.65,-879.5 "/>
<text text-anchor="middle" x="103.65" y="-867.5" font-family="Helvetica,sans-Serif" font-size="10.00"> </text>
</a>
</g>
</g>
<!-- Node4&#45;&gt;Node1 -->
<g id="edge3" class="edge">
<title>Node4&#45;&gt;Node1</title>
<path fill="none" stroke="midnightblue" d="M113.27,-850.47C141.21,-741.52 223.18,-421.77 268.55,-244.8"/>
<polygon fill="none" stroke="midnightblue" points="109.84,-849.78 110.74,-860.34 116.62,-851.52 109.84,-849.78"/>
</g>
<!-- Node4&#45;&gt;Node5 -->
<g id="edge8" class="edge">
<title>Node4&#45;&gt;Node5</title>
<path fill="none" stroke="midnightblue" d="M132.55,-852.95C137.9,-847.56 143.69,-842.35 149.65,-838 321.4,-712.58 555.93,-621.42 683.61,-577.31"/>
<polygon fill="none" stroke="midnightblue" points="129.88,-850.68 125.54,-860.35 134.96,-855.49 129.88,-850.68"/>
</g>
<!-- Node5&#45;&gt;Node1 -->
<g id="edge4" class="edge">
<title>Node5&#45;&gt;Node1</title>
<path fill="none" stroke="#404040" d="M683.59,-463.88C605.44,-394.6 493.11,-295.01 410.12,-221.44"/>
<polygon fill="none" stroke="#404040" points="409.9,-221.24 402.75,-220.25 400.92,-213.28 408.06,-214.26 409.9,-221.24"/>
<text text-anchor="middle" x="508.65" y="-266" font-family="Helvetica,sans-Serif" font-size="10.00"> +DefaultDevice</text>
</g>
<!-- Node6&#45;&gt;Node5 -->
<g id="edge5" class="edge">
<title>Node6&#45;&gt;Node5</title>
<path fill="none" stroke="midnightblue" d="M1942.44,-832.35C1934.27,-826.96 1925.59,-822.29 1916.65,-819 1862.42,-799.05 924.2,-833.84 876.65,-801 873.63,-798.91 870.7,-796.72 867.86,-794.43"/>
<polygon fill="none" stroke="midnightblue" points="1940.57,-835.31 1950.77,-838.19 1944.59,-829.58 1940.57,-835.31"/>
</g>
<!-- Node7 -->
<g id="node7" class="node">
<title>Node7</title>
<g id="a_node7"><a xlink:href="interface_volume_control_1_1_audio_1_1_interfaces_1_1_i_targetable.html" target="_top" xlink:title="Base interface type for IDevice and IProcess/ISession.">
<polygon fill="none" stroke="black" points="1976.15,-977.5 1976.15,-1034.5 2047.15,-1034.5 2047.15,-977.5 1976.15,-977.5"/>
<text text-anchor="middle" x="2011.65" y="-1022.5" font-family="Helvetica,sans-Serif" font-size="10.00">ITargetable</text>
<polyline fill="none" stroke="black" points="1976.15,-1015.5 2047.15,-1015.5 "/>
<text text-anchor="middle" x="2011.65" y="-1003.5" font-family="Helvetica,sans-Serif" font-size="10.00"> </text>
<polyline fill="none" stroke="black" points="1976.15,-996.5 2047.15,-996.5 "/>
<text text-anchor="middle" x="2011.65" y="-984.5" font-family="Helvetica,sans-Serif" font-size="10.00"> </text>
</a>
</g>
</g>
<!-- Node7&#45;&gt;Node6 -->
<g id="edge6" class="edge">
<title>Node7&#45;&gt;Node6</title>
<path fill="none" stroke="midnightblue" d="M2008.06,-967.47C2007.22,-958.64 2006.3,-949.09 2005.42,-939.81"/>
<polygon fill="none" stroke="midnightblue" points="2004.58,-967.83 2009.02,-977.45 2011.55,-967.17 2004.58,-967.83"/>
</g>
<!-- Node8 -->
<g id="node8" class="node">
<title>Node8</title>
<g id="a_node8"><a xlink:title=" ">
<polygon fill="none" stroke="#bfbfbf" points="158.65,-860.5 158.65,-917.5 310.65,-917.5 310.65,-860.5 158.65,-860.5"/>
<text text-anchor="middle" x="234.65" y="-905.5" font-family="Helvetica,sans-Serif" font-size="10.00">IEquatable&lt; AudioDevice &gt;</text>
<polyline fill="none" stroke="#bfbfbf" points="158.65,-898.5 310.65,-898.5 "/>
<text text-anchor="middle" x="234.65" y="-886.5" font-family="Helvetica,sans-Serif" font-size="10.00"> </text>
<polyline fill="none" stroke="#bfbfbf" points="158.65,-879.5 310.65,-879.5 "/>
<text text-anchor="middle" x="234.65" y="-867.5" font-family="Helvetica,sans-Serif" font-size="10.00"> </text>
</a>
</g>
</g>
<!-- Node8&#45;&gt;Node5 -->
<g id="edge9" class="edge">
<title>Node8&#45;&gt;Node5</title>
<path fill="none" stroke="midnightblue" d="M287.02,-855.04C378.7,-797.34 569.34,-677.35 683.51,-605.49"/>
<polygon fill="none" stroke="midnightblue" points="285.07,-852.14 278.47,-860.42 288.79,-858.06 285.07,-852.14"/>
</g>
<!-- Node9 -->
<g id="node9" class="node">
<title>Node9</title>
<g id="a_node9"><a xlink:title=" ">
<polygon fill="none" stroke="#bfbfbf" points="328.65,-860.5 328.65,-917.5 456.65,-917.5 456.65,-860.5 328.65,-860.5"/>
<text text-anchor="middle" x="392.65" y="-905.5" font-family="Helvetica,sans-Serif" font-size="10.00">IEquatable&lt; IDevice &gt;</text>
<polyline fill="none" stroke="#bfbfbf" points="328.65,-898.5 456.65,-898.5 "/>
<text text-anchor="middle" x="392.65" y="-886.5" font-family="Helvetica,sans-Serif" font-size="10.00"> </text>
<polyline fill="none" stroke="#bfbfbf" points="328.65,-879.5 456.65,-879.5 "/>
<text text-anchor="middle" x="392.65" y="-867.5" font-family="Helvetica,sans-Serif" font-size="10.00"> </text>
</a>
</g>
</g>
<!-- Node9&#45;&gt;Node5 -->
<g id="edge10" class="edge">
<title>Node9&#45;&gt;Node5</title>
<path fill="none" stroke="midnightblue" d="M431.22,-853.71C489.81,-801.62 602.92,-701.06 683.54,-629.4"/>
<polygon fill="none" stroke="midnightblue" points="428.82,-851.16 423.67,-860.42 433.47,-856.4 428.82,-851.16"/>
</g>
<!-- Node10 -->
<g id="node10" class="node">
<title>Node10</title>
<g id="a_node10"><a xlink:title=" ">
<polygon fill="none" stroke="#bfbfbf" points="475.15,-860.5 475.15,-917.5 512.15,-917.5 512.15,-860.5 475.15,-860.5"/>
<text text-anchor="middle" x="493.65" y="-905.5" font-family="Helvetica,sans-Serif" font-size="10.00">IList</text>
<polyline fill="none" stroke="#bfbfbf" points="475.15,-898.5 512.15,-898.5 "/>
<text text-anchor="middle" x="493.65" y="-886.5" font-family="Helvetica,sans-Serif" font-size="10.00"> </text>
<polyline fill="none" stroke="#bfbfbf" points="475.15,-879.5 512.15,-879.5 "/>
<text text-anchor="middle" x="493.65" y="-867.5" font-family="Helvetica,sans-Serif" font-size="10.00"> </text>
</a>
</g>
</g>
<!-- Node10&#45;&gt;Node5 -->
<g id="edge11" class="edge">
<title>Node10&#45;&gt;Node5</title>
<path fill="none" stroke="midnightblue" d="M512.91,-851.51C515.7,-846.87 518.65,-842.26 521.65,-838 570.41,-768.89 632.86,-697.29 683.63,-642.47"/>
<polygon fill="none" stroke="midnightblue" points="509.75,-849.98 507.77,-860.39 515.81,-853.49 509.75,-849.98"/>
</g>
<!-- Node11 -->
<g id="node11" class="node">
<title>Node11</title>
<g id="a_node11"><a xlink:title=" ">
<polygon fill="none" stroke="#bfbfbf" points="530.65,-860.5 530.65,-917.5 598.65,-917.5 598.65,-860.5 530.65,-860.5"/>
<text text-anchor="middle" x="564.65" y="-905.5" font-family="Helvetica,sans-Serif" font-size="10.00">ICollection</text>
<polyline fill="none" stroke="#bfbfbf" points="530.65,-898.5 598.65,-898.5 "/>
<text text-anchor="middle" x="564.65" y="-886.5" font-family="Helvetica,sans-Serif" font-size="10.00"> </text>
<polyline fill="none" stroke="#bfbfbf" points="530.65,-879.5 598.65,-879.5 "/>
<text text-anchor="middle" x="564.65" y="-867.5" font-family="Helvetica,sans-Serif" font-size="10.00"> </text>
</a>
</g>
</g>
<!-- Node11&#45;&gt;Node5 -->
<g id="edge12" class="edge">
<title>Node11&#45;&gt;Node5</title>
<path fill="none" stroke="midnightblue" d="M587.02,-851.91C610.17,-814.55 647.87,-753.71 683.5,-696.21"/>
<polygon fill="none" stroke="midnightblue" points="584.03,-850.08 581.74,-860.42 589.98,-853.77 584.03,-850.08"/>
</g>
<!-- Node12 -->
<g id="node12" class="node">
<title>Node12</title>
<g id="a_node12"><a xlink:title=" ">
<polygon fill="none" stroke="#bfbfbf" points="616.65,-860.5 616.65,-917.5 694.65,-917.5 694.65,-860.5 616.65,-860.5"/>
<text text-anchor="middle" x="655.65" y="-905.5" font-family="Helvetica,sans-Serif" font-size="10.00">IEnumerable</text>
<polyline fill="none" stroke="#bfbfbf" points="616.65,-898.5 694.65,-898.5 "/>
<text text-anchor="middle" x="655.65" y="-886.5" font-family="Helvetica,sans-Serif" font-size="10.00"> </text>
<polyline fill="none" stroke="#bfbfbf" points="616.65,-879.5 694.65,-879.5 "/>
<text text-anchor="middle" x="655.65" y="-867.5" font-family="Helvetica,sans-Serif" font-size="10.00"> </text>
</a>
</g>
</g>
<!-- Node12&#45;&gt;Node5 -->
<g id="edge13" class="edge">
<title>Node12&#45;&gt;Node5</title>
<path fill="none" stroke="midnightblue" d="M668.75,-850.83C673.68,-836.85 679.73,-819.69 686.41,-800.72"/>
<polygon fill="none" stroke="midnightblue" points="665.39,-849.83 665.37,-860.42 672,-852.16 665.39,-849.83"/>
</g>
<!-- Node13 -->
<g id="node13" class="node">
<title>Node13</title>
<g id="a_node13"><a xlink:title=" ">
<polygon fill="none" stroke="#bfbfbf" points="713.15,-860.5 713.15,-917.5 838.15,-917.5 838.15,-860.5 713.15,-860.5"/>
<text text-anchor="middle" x="775.65" y="-905.5" font-family="Helvetica,sans-Serif" font-size="10.00">IList&lt; AudioSession &gt;</text>
<polyline fill="none" stroke="#bfbfbf" points="713.15,-898.5 838.15,-898.5 "/>
<text text-anchor="middle" x="775.65" y="-886.5" font-family="Helvetica,sans-Serif" font-size="10.00"> </text>
<polyline fill="none" stroke="#bfbfbf" points="713.15,-879.5 838.15,-879.5 "/>
<text text-anchor="middle" x="775.65" y="-867.5" font-family="Helvetica,sans-Serif" font-size="10.00"> </text>
</a>
</g>
</g>
<!-- Node13&#45;&gt;Node5 -->
<g id="edge14" class="edge">
<title>Node13&#45;&gt;Node5</title>
<path fill="none" stroke="midnightblue" d="M775.65,-850.42C775.65,-836.51 775.65,-819.51 775.65,-800.72"/>
<polygon fill="none" stroke="midnightblue" points="772.15,-850.42 775.65,-860.42 779.15,-850.42 772.15,-850.42"/>
</g>
<!-- Node14 -->
<g id="node14" class="node">
<title>Node14</title>
<g id="a_node14"><a xlink:title=" ">
<polygon fill="none" stroke="#bfbfbf" points="856.65,-860.5 856.65,-917.5 1034.65,-917.5 1034.65,-860.5 856.65,-860.5"/>
<text text-anchor="middle" x="945.65" y="-905.5" font-family="Helvetica,sans-Serif" font-size="10.00">IImmutableList&lt; AudioSession &gt;</text>
<polyline fill="none" stroke="#bfbfbf" points="856.65,-898.5 1034.65,-898.5 "/>
<text text-anchor="middle" x="945.65" y="-886.5" font-family="Helvetica,sans-Serif" font-size="10.00"> </text>
<polyline fill="none" stroke="#bfbfbf" points="856.65,-879.5 1034.65,-879.5 "/>
<text text-anchor="middle" x="945.65" y="-867.5" font-family="Helvetica,sans-Serif" font-size="10.00"> </text>
</a>
</g>
</g>
<!-- Node14&#45;&gt;Node5 -->
<g id="edge15" class="edge">
<title>Node14&#45;&gt;Node5</title>
<path fill="none" stroke="midnightblue" d="M913.3,-852.1C900.78,-837.03 887,-818.88 876.65,-801 873.63,-795.77 870.65,-790.44 867.73,-785.02"/>
<polygon fill="none" stroke="midnightblue" points="910.96,-854.76 920.09,-860.13 916.31,-850.24 910.96,-854.76"/>
</g>
<!-- Node15 -->
<g id="node15" class="node">
<title>Node15</title>
<g id="a_node15"><a xlink:title=" ">
<polygon fill="none" stroke="#bfbfbf" points="1052.65,-860.5 1052.65,-917.5 1208.65,-917.5 1208.65,-860.5 1052.65,-860.5"/>
<text text-anchor="middle" x="1130.65" y="-905.5" font-family="Helvetica,sans-Serif" font-size="10.00">ICollection&lt; AudioSession &gt;</text>
<polyline fill="none" stroke="#bfbfbf" points="1052.65,-898.5 1208.65,-898.5 "/>
<text text-anchor="middle" x="1130.65" y="-886.5" font-family="Helvetica,sans-Serif" font-size="10.00"> </text>
<polyline fill="none" stroke="#bfbfbf" points="1052.65,-879.5 1208.65,-879.5 "/>
<text text-anchor="middle" x="1130.65" y="-867.5" font-family="Helvetica,sans-Serif" font-size="10.00"> </text>
</a>
</g>
</g>
<!-- Node15&#45;&gt;Node5 -->
<g id="edge16" class="edge">
<title>Node15&#45;&gt;Node5</title>
<path fill="none" stroke="midnightblue" d="M1079.56,-855.23C1068.07,-848.83 1055.7,-842.67 1043.65,-838 972.77,-810.52 934.56,-850.26 876.65,-801 873.58,-798.39 870.61,-795.68 867.72,-792.86"/>
<polygon fill="none" stroke="midnightblue" points="1078.15,-858.45 1088.57,-860.38 1081.63,-852.38 1078.15,-858.45"/>
</g>
<!-- Node16 -->
<g id="node16" class="node">
<title>Node16</title>
<g id="a_node16"><a xlink:title=" ">
<polygon fill="none" stroke="#bfbfbf" points="1226.65,-860.5 1226.65,-917.5 1392.65,-917.5 1392.65,-860.5 1226.65,-860.5"/>
<text text-anchor="middle" x="1309.65" y="-905.5" font-family="Helvetica,sans-Serif" font-size="10.00">IEnumerable&lt; AudioSession &gt;</text>
<polyline fill="none" stroke="#bfbfbf" points="1226.65,-898.5 1392.65,-898.5 "/>
<text text-anchor="middle" x="1309.65" y="-886.5" font-family="Helvetica,sans-Serif" font-size="10.00"> </text>
<polyline fill="none" stroke="#bfbfbf" points="1226.65,-879.5 1392.65,-879.5 "/>
<text text-anchor="middle" x="1309.65" y="-867.5" font-family="Helvetica,sans-Serif" font-size="10.00"> </text>
</a>
</g>
</g>
<!-- Node16&#45;&gt;Node5 -->
<g id="edge17" class="edge">
<title>Node16&#45;&gt;Node5</title>
<path fill="none" stroke="midnightblue" d="M1258.12,-855.45C1245.32,-848.66 1231.33,-842.28 1217.65,-838 1144.9,-815.26 937.34,-847.12 876.65,-801 873.63,-798.71 870.71,-796.31 867.87,-793.82"/>
<polygon fill="none" stroke="midnightblue" points="1256.76,-858.7 1267.21,-860.45 1260.13,-852.56 1256.76,-858.7"/>
</g>
<!-- Node17 -->
<g id="node17" class="node">
<title>Node17</title>
<g id="a_node17"><a xlink:title=" ">
<polygon fill="none" stroke="#bfbfbf" points="1410.65,-860.5 1410.65,-917.5 1582.65,-917.5 1582.65,-860.5 1410.65,-860.5"/>
<text text-anchor="middle" x="1496.65" y="-905.5" font-family="Helvetica,sans-Serif" font-size="10.00">IReadOnlyList&lt; AudioSession &gt;</text>
<polyline fill="none" stroke="#bfbfbf" points="1410.65,-898.5 1582.65,-898.5 "/>
<text text-anchor="middle" x="1496.65" y="-886.5" font-family="Helvetica,sans-Serif" font-size="10.00"> </text>
<polyline fill="none" stroke="#bfbfbf" points="1410.65,-879.5 1582.65,-879.5 "/>
<text text-anchor="middle" x="1496.65" y="-867.5" font-family="Helvetica,sans-Serif" font-size="10.00"> </text>
</a>
</g>
</g>
<!-- Node17&#45;&gt;Node5 -->
<g id="edge18" class="edge">
<title>Node17&#45;&gt;Node5</title>
<path fill="none" stroke="midnightblue" d="M1444.24,-855.5C1430.81,-848.57 1416.07,-842.11 1401.65,-838 1345.41,-821.98 923.87,-835.5 876.65,-801 873.59,-798.76 870.62,-796.42 867.75,-793.98"/>
<polygon fill="none" stroke="midnightblue" points="1442.84,-858.72 1453.31,-860.35 1446.14,-852.55 1442.84,-858.72"/>
</g>
<!-- Node18 -->
<g id="node18" class="node">
<title>Node18</title>
<g id="a_node18"><a xlink:title=" ">
<polygon fill="none" stroke="#bfbfbf" points="1600.65,-855 1600.65,-923 1716.65,-923 1716.65,-855 1600.65,-855"/>
<text text-anchor="start" x="1608.65" y="-911" font-family="Helvetica,sans-Serif" font-size="10.00">IReadOnlyCollection</text>
<text text-anchor="middle" x="1658.65" y="-900" font-family="Helvetica,sans-Serif" font-size="10.00">&lt; AudioSession &gt;</text>
<polyline fill="none" stroke="#bfbfbf" points="1600.65,-893 1716.65,-893 "/>
<text text-anchor="middle" x="1658.65" y="-881" font-family="Helvetica,sans-Serif" font-size="10.00"> </text>
<polyline fill="none" stroke="#bfbfbf" points="1600.65,-874 1716.65,-874 "/>
<text text-anchor="middle" x="1658.65" y="-862" font-family="Helvetica,sans-Serif" font-size="10.00"> </text>
</a>
</g>
</g>
<!-- Node18&#45;&gt;Node5 -->
<g id="edge19" class="edge">
<title>Node18&#45;&gt;Node5</title>
<path fill="none" stroke="midnightblue" d="M1613.69,-849.08C1606.68,-844.64 1599.24,-840.74 1591.65,-838 1554.24,-824.5 908.99,-824.17 876.65,-801 873.57,-798.79 870.58,-796.48 867.69,-794.06"/>
<polygon fill="none" stroke="midnightblue" points="1612.08,-852.21 1622.32,-854.93 1616.01,-846.42 1612.08,-852.21"/>
</g>
<!-- Node19 -->
<g id="node19" class="node">
<title>Node19</title>
<g id="a_node19"><a xlink:title=" ">
<polygon fill="none" stroke="#bfbfbf" points="1734.65,-860.5 1734.65,-917.5 1874.65,-917.5 1874.65,-860.5 1734.65,-860.5"/>
<text text-anchor="middle" x="1804.65" y="-905.5" font-family="Helvetica,sans-Serif" font-size="10.00">INotifyCollectionChanged</text>
<polyline fill="none" stroke="#bfbfbf" points="1734.65,-898.5 1874.65,-898.5 "/>
<text text-anchor="middle" x="1804.65" y="-886.5" font-family="Helvetica,sans-Serif" font-size="10.00"> </text>
<polyline fill="none" stroke="#bfbfbf" points="1734.65,-879.5 1874.65,-879.5 "/>
<text text-anchor="middle" x="1804.65" y="-867.5" font-family="Helvetica,sans-Serif" font-size="10.00"> </text>
</a>
</g>
</g>
<!-- Node19&#45;&gt;Node5 -->
<g id="edge20" class="edge">
<title>Node19&#45;&gt;Node5</title>
<path fill="none" stroke="midnightblue" d="M1761.09,-854.82C1750.07,-848.05 1737.87,-841.83 1725.65,-838 1703.13,-830.94 895.9,-814.67 876.65,-801 873.56,-798.81 870.57,-796.5 867.66,-794.09"/>
<polygon fill="none" stroke="midnightblue" points="1759.35,-857.87 1769.65,-860.34 1763.14,-851.98 1759.35,-857.87"/>
</g>
</g>
</svg>
