<?xml version="1.0" encoding="UTF-8" standalone="no"?>
<!DOCTYPE svg PUBLIC "-//W3C//DTD SVG 1.1//EN"
 "http://www.w3.org/Graphics/SVG/1.1/DTD/svg11.dtd">
<!-- Generated by graphviz version 2.44.1 (20200629.0800)
 -->
<!-- Title: VolumeControl.Log.LogMessage Pages: 1 -->
<svg width="216pt" height="430pt"
 viewBox="0.00 0.00 216.00 430.00" xmlns="http://www.w3.org/2000/svg" xmlns:xlink="http://www.w3.org/1999/xlink">
<g id="graph0" class="graph" transform="scale(1 1) rotate(0) translate(4 426)">
<title>VolumeControl.Log.LogMessage</title>
<!-- Node1 -->
<g id="node1" class="node">
<title>Node1</title>
<g id="a_node1"><a xlink:title="This is an entirely optional object that maintains an internal MemoryStream and emulates the LogWrite...">
<polygon fill="#bfbfbf" stroke="black" points="19,-0.5 19,-57.5 177,-57.5 177,-0.5 19,-0.5"/>
<text text-anchor="middle" x="98" y="-45.5" font-family="Helvetica,sans-Serif" font-size="10.00">VolumeControl.Log.LogMessage</text>
<polyline fill="none" stroke="black" points="19,-38.5 177,-38.5 "/>
<text text-anchor="middle" x="98" y="-26.5" font-family="Helvetica,sans-Serif" font-size="10.00"> </text>
<polyline fill="none" stroke="black" points="19,-19.5 177,-19.5 "/>
<text text-anchor="start" x="27" y="-7.5" font-family="Helvetica,sans-Serif" font-size="10.00">+ LogMessage()</text>
</a>
</g>
</g>
<!-- Node2 -->
<g id="node2" class="node">
<title>Node2</title>
<g id="a_node2"><a xlink:href="class_volume_control_1_1_log_1_1_log_writer.html" target="_top" xlink:title="Basic log writer object.">
<polygon fill="none" stroke="black" points="80,-94.5 80,-316.5 208,-316.5 208,-94.5 80,-94.5"/>
<text text-anchor="middle" x="144" y="-304.5" font-family="Helvetica,sans-Serif" font-size="10.00">LogWriter</text>
<polyline fill="none" stroke="black" points="80,-297.5 208,-297.5 "/>
<text text-anchor="start" x="88" y="-285.5" font-family="Helvetica,sans-Serif" font-size="10.00">+ Endpoint</text>
<text text-anchor="start" x="88" y="-274.5" font-family="Helvetica,sans-Serif" font-size="10.00">+ EventTypeFilter</text>
<text text-anchor="start" x="88" y="-263.5" font-family="Helvetica,sans-Serif" font-size="10.00">+ LastEventType</text>
<polyline fill="none" stroke="black" points="80,-256.5 208,-256.5 "/>
<text text-anchor="start" x="88" y="-244.5" font-family="Helvetica,sans-Serif" font-size="10.00">+ LogWriter()</text>
<text text-anchor="start" x="88" y="-233.5" font-family="Helvetica,sans-Serif" font-size="10.00">+ FilterEventType()</text>
<text text-anchor="start" x="88" y="-222.5" font-family="Helvetica,sans-Serif" font-size="10.00">+ MakeTimestamp()</text>
<text text-anchor="start" x="88" y="-211.5" font-family="Helvetica,sans-Serif" font-size="10.00">+ Write()</text>
<text text-anchor="start" x="88" y="-200.5" font-family="Helvetica,sans-Serif" font-size="10.00">+ WriteLine()</text>
<text text-anchor="start" x="88" y="-189.5" font-family="Helvetica,sans-Serif" font-size="10.00">+ GetMessage()</text>
<text text-anchor="start" x="88" y="-178.5" font-family="Helvetica,sans-Serif" font-size="10.00">+ WriteWithTimestamp()</text>
<text text-anchor="start" x="88" y="-167.5" font-family="Helvetica,sans-Serif" font-size="10.00">+ WriteWithTimestamp()</text>
<text text-anchor="start" x="88" y="-156.5" font-family="Helvetica,sans-Serif" font-size="10.00">+ Conditional()</text>
<text text-anchor="start" x="88" y="-145.5" font-family="Helvetica,sans-Serif" font-size="10.00">+ WriteMessage()</text>
<text text-anchor="start" x="88" y="-134.5" font-family="Helvetica,sans-Serif" font-size="10.00">and 19 more...</text>
<text text-anchor="start" x="88" y="-123.5" font-family="Helvetica,sans-Serif" font-size="10.00">+ MakeBlankTimestamp()</text>
<text text-anchor="start" x="88" y="-112.5" font-family="Helvetica,sans-Serif" font-size="10.00">+ GetTrace()</text>
<text text-anchor="start" x="88" y="-101.5" font-family="Helvetica,sans-Serif" font-size="10.00"># Dispose()</text>
</a>
</g>
</g>
<!-- Node2&#45;&gt;Node1 -->
<g id="edge1" class="edge">
<title>Node2&#45;&gt;Node1</title>
<path fill="none" stroke="midnightblue" d="M112.38,-84.54C109.81,-74.79 107.41,-65.68 105.33,-57.81"/>
<polygon fill="none" stroke="midnightblue" points="109.06,-85.7 115,-94.48 115.83,-83.92 109.06,-85.7"/>
</g>
<!-- Node3 -->
<g id="node3" class="node">
<title>Node3</title>
<g id="a_node3"><a xlink:href="interface_volume_control_1_1_log_1_1_interfaces_1_1_i_log_writer.html" target="_top" xlink:title="Represents a log writer object, which is responsible for exposing logging methods,...">
<polygon fill="none" stroke="black" points="0,-353.5 0,-421.5 104,-421.5 104,-353.5 0,-353.5"/>
<text text-anchor="middle" x="52" y="-409.5" font-family="Helvetica,sans-Serif" font-size="10.00">ILogWriter</text>
<polyline fill="none" stroke="black" points="0,-402.5 104,-402.5 "/>
<text text-anchor="start" x="8" y="-390.5" font-family="Helvetica,sans-Serif" font-size="10.00">+ Endpoint</text>
<polyline fill="none" stroke="black" points="0,-383.5 104,-383.5 "/>
<text text-anchor="start" x="8" y="-371.5" font-family="Helvetica,sans-Serif" font-size="10.00">+ MakeTimestamp()</text>
<text text-anchor="start" x="8" y="-360.5" font-family="Helvetica,sans-Serif" font-size="10.00">+ FilterEventType()</text>
</a>
</g>
</g>
<!-- Node3&#45;&gt;Node1 -->
<g id="edge4" class="edge">
<title>Node3&#45;&gt;Node1</title>
<path fill="none" stroke="midnightblue" d="M50.34,-342.85C49.17,-285.09 50.56,-180.48 71,-94 73.91,-81.68 78.98,-68.7 83.94,-57.67"/>
<polygon fill="none" stroke="midnightblue" points="46.85,-343.16 50.59,-353.07 53.85,-342.99 46.85,-343.16"/>
</g>
<!-- Node3&#45;&gt;Node2 -->
<g id="edge2" class="edge">
<title>Node3&#45;&gt;Node2</title>
<path fill="none" stroke="midnightblue" d="M73.49,-344.46C77.91,-335.81 82.75,-326.34 87.77,-316.52"/>
<polygon fill="none" stroke="midnightblue" points="70.31,-342.99 68.87,-353.49 76.54,-346.17 70.31,-342.99"/>
</g>
<!-- Node4 -->
<g id="node4" class="node">
<title>Node4</title>
<g id="a_node4"><a xlink:title=" ">
<polygon fill="none" stroke="#bfbfbf" points="122.5,-359 122.5,-416 189.5,-416 189.5,-359 122.5,-359"/>
<text text-anchor="middle" x="156" y="-404" font-family="Helvetica,sans-Serif" font-size="10.00">IDisposable</text>
<polyline fill="none" stroke="#bfbfbf" points="122.5,-397 189.5,-397 "/>
<text text-anchor="middle" x="156" y="-385" font-family="Helvetica,sans-Serif" font-size="10.00"> </text>
<polyline fill="none" stroke="#bfbfbf" points="122.5,-378 189.5,-378 "/>
<text text-anchor="middle" x="156" y="-366" font-family="Helvetica,sans-Serif" font-size="10.00"> </text>
</a>
</g>
</g>
<!-- Node4&#45;&gt;Node2 -->
<g id="edge3" class="edge">
<title>Node4&#45;&gt;Node2</title>
<path fill="none" stroke="midnightblue" d="M153.49,-348.78C152.84,-339.09 152.11,-328.17 151.35,-316.79"/>
<polygon fill="none" stroke="midnightblue" points="149.99,-349.02 154.15,-358.77 156.98,-348.56 149.99,-349.02"/>
</g>
</g>
</svg>
