<?xml version="1.0" encoding="UTF-8" standalone="no"?>
<!DOCTYPE svg PUBLIC "-//W3C//DTD SVG 1.1//EN"
 "http://www.w3.org/Graphics/SVG/1.1/DTD/svg11.dtd">
<!-- Generated by graphviz version 2.43.0 (0)
 -->
<!-- Title: HotkeyLib.KeysList Pages: 1 -->
<svg width="886pt" height="402pt"
 viewBox="0.00 0.00 885.50 402.00" xmlns="http://www.w3.org/2000/svg" xmlns:xlink="http://www.w3.org/1999/xlink">
<g id="graph0" class="graph" transform="scale(1 1) rotate(0) translate(4 398)">
<title>HotkeyLib.KeysList</title>
<!-- Node1 -->
<g id="node1" class="node">
<title>Node1</title>
<g id="a_node1"><a xlink:title="This is a simple list wrapper that is available as an items source for data bindings.">
<polygon fill="#bfbfbf" stroke="black" points="416,-0.5 416,-288.5 526,-288.5 526,-0.5 416,-0.5"/>
<text text-anchor="middle" x="471" y="-276.5" font-family="Helvetica,sans-Serif" font-size="10.00">HotkeyLib.KeysList</text>
<polyline fill="none" stroke="black" points="416,-269.5 526,-269.5 "/>
<text text-anchor="start" x="424" y="-257.5" font-family="Helvetica,sans-Serif" font-size="10.00">+ Count</text>
<text text-anchor="start" x="424" y="-246.5" font-family="Helvetica,sans-Serif" font-size="10.00">+ IsReadOnly</text>
<text text-anchor="start" x="424" y="-235.5" font-family="Helvetica,sans-Serif" font-size="10.00">+ IsSynchronized</text>
<text text-anchor="start" x="424" y="-224.5" font-family="Helvetica,sans-Serif" font-size="10.00">+ SyncRoot</text>
<text text-anchor="start" x="424" y="-213.5" font-family="Helvetica,sans-Serif" font-size="10.00">+ IsFixedSize</text>
<text text-anchor="start" x="424" y="-202.5" font-family="Helvetica,sans-Serif" font-size="10.00">+ this[int index]</text>
<text text-anchor="start" x="424" y="-191.5" font-family="Helvetica,sans-Serif" font-size="10.00">+ this[int index]</text>
<text text-anchor="start" x="424" y="-180.5" font-family="Helvetica,sans-Serif" font-size="10.00">+ Keys</text>
<polyline fill="none" stroke="black" points="416,-173.5 526,-173.5 "/>
<text text-anchor="start" x="424" y="-161.5" font-family="Helvetica,sans-Serif" font-size="10.00">+ Add()</text>
<text text-anchor="start" x="424" y="-150.5" font-family="Helvetica,sans-Serif" font-size="10.00">+ Add()</text>
<text text-anchor="start" x="424" y="-139.5" font-family="Helvetica,sans-Serif" font-size="10.00">+ Clear()</text>
<text text-anchor="start" x="424" y="-128.5" font-family="Helvetica,sans-Serif" font-size="10.00">+ Contains()</text>
<text text-anchor="start" x="424" y="-117.5" font-family="Helvetica,sans-Serif" font-size="10.00">+ Contains()</text>
<text text-anchor="start" x="424" y="-106.5" font-family="Helvetica,sans-Serif" font-size="10.00">+ CopyTo()</text>
<text text-anchor="start" x="424" y="-95.5" font-family="Helvetica,sans-Serif" font-size="10.00">+ CopyTo()</text>
<text text-anchor="start" x="424" y="-84.5" font-family="Helvetica,sans-Serif" font-size="10.00">+ GetEnumerator()</text>
<text text-anchor="start" x="424" y="-73.5" font-family="Helvetica,sans-Serif" font-size="10.00">+ IndexOf()</text>
<text text-anchor="start" x="424" y="-62.5" font-family="Helvetica,sans-Serif" font-size="10.00">+ IndexOf()</text>
<text text-anchor="start" x="424" y="-51.5" font-family="Helvetica,sans-Serif" font-size="10.00">+ Insert()</text>
<text text-anchor="start" x="424" y="-40.5" font-family="Helvetica,sans-Serif" font-size="10.00">+ Insert()</text>
<text text-anchor="start" x="424" y="-29.5" font-family="Helvetica,sans-Serif" font-size="10.00">+ Remove()</text>
<text text-anchor="start" x="424" y="-18.5" font-family="Helvetica,sans-Serif" font-size="10.00">+ Remove()</text>
<text text-anchor="start" x="424" y="-7.5" font-family="Helvetica,sans-Serif" font-size="10.00">+ RemoveAt()</text>
</a>
</g>
</g>
<!-- Node2 -->
<g id="node2" class="node">
<title>Node2</title>
<g id="a_node2"><a xlink:title=" ">
<polygon fill="none" stroke="#bfbfbf" points="0,-331 0,-388 114,-388 114,-331 0,-331"/>
<text text-anchor="middle" x="57" y="-376" font-family="Helvetica,sans-Serif" font-size="10.00">ICollection&lt; Keys &gt;</text>
<polyline fill="none" stroke="#bfbfbf" points="0,-369 114,-369 "/>
<text text-anchor="middle" x="57" y="-357" font-family="Helvetica,sans-Serif" font-size="10.00"> </text>
<polyline fill="none" stroke="#bfbfbf" points="0,-350 114,-350 "/>
<text text-anchor="middle" x="57" y="-338" font-family="Helvetica,sans-Serif" font-size="10.00"> </text>
</a>
</g>
</g>
<!-- Node2&#45;&gt;Node1 -->
<g id="edge1" class="edge">
<title>Node2&#45;&gt;Node1</title>
<path fill="none" stroke="midnightblue" d="M119.75,-326.21C200.35,-284.75 338.96,-213.44 415.75,-173.93"/>
<polygon fill="none" stroke="midnightblue" points="117.99,-323.19 110.7,-330.87 121.19,-329.41 117.99,-323.19"/>
</g>
<!-- Node3 -->
<g id="node3" class="node">
<title>Node3</title>
<g id="a_node3"><a xlink:title=" ">
<polygon fill="none" stroke="#bfbfbf" points="132,-331 132,-388 256,-388 256,-331 132,-331"/>
<text text-anchor="middle" x="194" y="-376" font-family="Helvetica,sans-Serif" font-size="10.00">IEnumerable&lt; Keys &gt;</text>
<polyline fill="none" stroke="#bfbfbf" points="132,-369 256,-369 "/>
<text text-anchor="middle" x="194" y="-357" font-family="Helvetica,sans-Serif" font-size="10.00"> </text>
<polyline fill="none" stroke="#bfbfbf" points="132,-350 256,-350 "/>
<text text-anchor="middle" x="194" y="-338" font-family="Helvetica,sans-Serif" font-size="10.00"> </text>
</a>
</g>
</g>
<!-- Node3&#45;&gt;Node1 -->
<g id="edge2" class="edge">
<title>Node3&#45;&gt;Node1</title>
<path fill="none" stroke="midnightblue" d="M237.99,-324.68C286.17,-287.62 363.54,-228.13 415.78,-187.96"/>
<polygon fill="none" stroke="midnightblue" points="235.72,-322 229.93,-330.87 239.99,-327.55 235.72,-322"/>
</g>
<!-- Node4 -->
<g id="node4" class="node">
<title>Node4</title>
<g id="a_node4"><a xlink:title=" ">
<polygon fill="none" stroke="#bfbfbf" points="274,-331 274,-388 352,-388 352,-331 274,-331"/>
<text text-anchor="middle" x="313" y="-376" font-family="Helvetica,sans-Serif" font-size="10.00">IEnumerable</text>
<polyline fill="none" stroke="#bfbfbf" points="274,-369 352,-369 "/>
<text text-anchor="middle" x="313" y="-357" font-family="Helvetica,sans-Serif" font-size="10.00"> </text>
<polyline fill="none" stroke="#bfbfbf" points="274,-350 352,-350 "/>
<text text-anchor="middle" x="313" y="-338" font-family="Helvetica,sans-Serif" font-size="10.00"> </text>
</a>
</g>
</g>
<!-- Node4&#45;&gt;Node1 -->
<g id="edge3" class="edge">
<title>Node4&#45;&gt;Node1</title>
<path fill="none" stroke="midnightblue" d="M339.82,-322.34C360.64,-294.27 390.21,-254.42 416,-219.65"/>
<polygon fill="none" stroke="midnightblue" points="336.8,-320.54 333.66,-330.65 342.42,-324.71 336.8,-320.54"/>
</g>
<!-- Node5 -->
<g id="node5" class="node">
<title>Node5</title>
<g id="a_node5"><a xlink:title=" ">
<polygon fill="none" stroke="#bfbfbf" points="370.5,-331 370.5,-388 453.5,-388 453.5,-331 370.5,-331"/>
<text text-anchor="middle" x="412" y="-376" font-family="Helvetica,sans-Serif" font-size="10.00">IList&lt; Keys &gt;</text>
<polyline fill="none" stroke="#bfbfbf" points="370.5,-369 453.5,-369 "/>
<text text-anchor="middle" x="412" y="-357" font-family="Helvetica,sans-Serif" font-size="10.00"> </text>
<polyline fill="none" stroke="#bfbfbf" points="370.5,-350 453.5,-350 "/>
<text text-anchor="middle" x="412" y="-338" font-family="Helvetica,sans-Serif" font-size="10.00"> </text>
</a>
</g>
</g>
<!-- Node5&#45;&gt;Node1 -->
<g id="edge4" class="edge">
<title>Node5&#45;&gt;Node1</title>
<path fill="none" stroke="midnightblue" d="M422.43,-320.83C425.08,-311.28 428.08,-300.45 431.26,-288.95"/>
<polygon fill="none" stroke="midnightblue" points="419.01,-320.08 419.71,-330.65 425.76,-321.95 419.01,-320.08"/>
</g>
<!-- Node6 -->
<g id="node6" class="node">
<title>Node6</title>
<g id="a_node6"><a xlink:title=" ">
<polygon fill="none" stroke="#bfbfbf" points="472,-325.5 472,-393.5 588,-393.5 588,-325.5 472,-325.5"/>
<text text-anchor="start" x="480" y="-381.5" font-family="Helvetica,sans-Serif" font-size="10.00">IReadOnlyCollection</text>
<text text-anchor="middle" x="530" y="-370.5" font-family="Helvetica,sans-Serif" font-size="10.00">&lt; Keys &gt;</text>
<polyline fill="none" stroke="#bfbfbf" points="472,-363.5 588,-363.5 "/>
<text text-anchor="middle" x="530" y="-351.5" font-family="Helvetica,sans-Serif" font-size="10.00"> </text>
<polyline fill="none" stroke="#bfbfbf" points="472,-344.5 588,-344.5 "/>
<text text-anchor="middle" x="530" y="-332.5" font-family="Helvetica,sans-Serif" font-size="10.00"> </text>
</a>
</g>
</g>
<!-- Node6&#45;&gt;Node1 -->
<g id="edge5" class="edge">
<title>Node6&#45;&gt;Node1</title>
<path fill="none" stroke="midnightblue" d="M518.1,-315.54C515.8,-307.25 513.28,-298.15 510.64,-288.61"/>
<polygon fill="none" stroke="midnightblue" points="514.74,-316.52 520.78,-325.22 521.48,-314.65 514.74,-316.52"/>
</g>
<!-- Node7 -->
<g id="node7" class="node">
<title>Node7</title>
<g id="a_node7"><a xlink:title=" ">
<polygon fill="none" stroke="#bfbfbf" points="606,-331 606,-388 736,-388 736,-331 606,-331"/>
<text text-anchor="middle" x="671" y="-376" font-family="Helvetica,sans-Serif" font-size="10.00">IReadOnlyList&lt; Keys &gt;</text>
<polyline fill="none" stroke="#bfbfbf" points="606,-369 736,-369 "/>
<text text-anchor="middle" x="671" y="-357" font-family="Helvetica,sans-Serif" font-size="10.00"> </text>
<polyline fill="none" stroke="#bfbfbf" points="606,-350 736,-350 "/>
<text text-anchor="middle" x="671" y="-338" font-family="Helvetica,sans-Serif" font-size="10.00"> </text>
</a>
</g>
</g>
<!-- Node7&#45;&gt;Node1 -->
<g id="edge6" class="edge">
<title>Node7&#45;&gt;Node1</title>
<path fill="none" stroke="midnightblue" d="M637.86,-323.21C607.54,-290.91 562.06,-242.48 526.24,-204.33"/>
<polygon fill="none" stroke="midnightblue" points="635.46,-325.76 644.85,-330.65 640.56,-320.97 635.46,-325.76"/>
</g>
<!-- Node8 -->
<g id="node8" class="node">
<title>Node8</title>
<g id="a_node8"><a xlink:title=" ">
<polygon fill="none" stroke="#bfbfbf" points="754,-331 754,-388 822,-388 822,-331 754,-331"/>
<text text-anchor="middle" x="788" y="-376" font-family="Helvetica,sans-Serif" font-size="10.00">ICollection</text>
<polyline fill="none" stroke="#bfbfbf" points="754,-369 822,-369 "/>
<text text-anchor="middle" x="788" y="-357" font-family="Helvetica,sans-Serif" font-size="10.00"> </text>
<polyline fill="none" stroke="#bfbfbf" points="754,-350 822,-350 "/>
<text text-anchor="middle" x="788" y="-338" font-family="Helvetica,sans-Serif" font-size="10.00"> </text>
</a>
</g>
</g>
<!-- Node8&#45;&gt;Node1 -->
<g id="edge7" class="edge">
<title>Node8&#45;&gt;Node1</title>
<path fill="none" stroke="midnightblue" d="M745.82,-325.59C745.55,-325.39 745.27,-325.2 745,-325 670.88,-271.98 582.19,-215 526.21,-179.8"/>
<polygon fill="none" stroke="midnightblue" points="743.79,-328.44 753.92,-331.55 747.94,-322.8 743.79,-328.44"/>
</g>
<!-- Node9 -->
<g id="node9" class="node">
<title>Node9</title>
<g id="a_node9"><a xlink:title=" ">
<polygon fill="none" stroke="#bfbfbf" points="840.5,-331 840.5,-388 877.5,-388 877.5,-331 840.5,-331"/>
<text text-anchor="middle" x="859" y="-376" font-family="Helvetica,sans-Serif" font-size="10.00">IList</text>
<polyline fill="none" stroke="#bfbfbf" points="840.5,-369 877.5,-369 "/>
<text text-anchor="middle" x="859" y="-357" font-family="Helvetica,sans-Serif" font-size="10.00"> </text>
<polyline fill="none" stroke="#bfbfbf" points="840.5,-350 877.5,-350 "/>
<text text-anchor="middle" x="859" y="-338" font-family="Helvetica,sans-Serif" font-size="10.00"> </text>
</a>
</g>
</g>
<!-- Node9&#45;&gt;Node1 -->
<g id="edge8" class="edge">
<title>Node9&#45;&gt;Node1</title>
<path fill="none" stroke="midnightblue" d="M832.79,-326.47C832.2,-325.97 831.6,-325.48 831,-325 734.55,-248.81 600.56,-192.54 526.24,-164.81"/>
<polygon fill="none" stroke="midnightblue" points="830.57,-329.19 840.21,-333.58 835.42,-324.13 830.57,-329.19"/>
</g>
</g>
</svg>
