<?xml version="1.0" encoding="UTF-8" standalone="no"?>
<!DOCTYPE svg PUBLIC "-//W3C//DTD SVG 1.1//EN"
 "http://www.w3.org/Graphics/SVG/1.1/DTD/svg11.dtd">
<!-- Generated by graphviz version 2.43.0 (0)
 -->
<!-- Title: VolumeControl.Log.AsyncLogWriter Pages: 1 -->
<!--zoomable 617 -->
<svg id="main" version="1.1" xmlns="http://www.w3.org/2000/svg" xmlns:xlink="http://www.w3.org/1999/xlink" xml:space="preserve" onload="init(evt)">
<style type="text/css"><![CDATA[
.edge:hover path { stroke: red; }
.edge:hover polygon { stroke: red; fill: red; }
]]></style>
<script type="text/javascript"><![CDATA[
var edges = document.getElementsByTagName('g');
if (edges && edges.length) {
  for (var i=0;i<edges.length;i++) {
    if (edges[i].id.substr(0,4)=='edge') {
      edges[i].setAttribute('class','edge');
    }
  }
}
]]></script>
        <defs>
                <circle id="rim" cx="0" cy="0" r="7"/>
                <circle id="rim2" cx="0" cy="0" r="3.5"/>
                <g id="zoomPlus">
                        <use xlink:href="#rim" fill="#404040">
                                <set attributeName="fill" to="#808080" begin="zoomplus.mouseover" end="zoomplus.mouseout"/>
                        </use>
                        <path d="M-4,0h8M0,-4v8" fill="none" stroke="white" stroke-width="1.5" pointer-events="none"/>
                </g>
                <g id="zoomMin">
                        <use xlink:href="#rim" fill="#404040">
                                <set attributeName="fill" to="#808080" begin="zoomminus.mouseover" end="zoomminus.mouseout"/>
                        </use>
                        <path d="M-4,0h8" fill="none" stroke="white" stroke-width="1.5" pointer-events="none"/>
                </g>
                <g id="dirArrow">
                        <path fill="none" stroke="white" stroke-width="1.5" d="M0,-3.0v7 M-2.5,-0.5L0,-3.0L2.5,-0.5"/>
                </g>
               <g id="resetDef">
                       <use xlink:href="#rim2" fill="#404040">
                               <set attributeName="fill" to="#808080" begin="reset.mouseover" end="reset.mouseout"/>
                       </use>
               </g>
        </defs>

<script type="text/javascript">
var viewWidth = 455;
var viewHeight = 617;
var sectionId = 'dynsection-0';
</script>
<script xlink:href="svgpan.js"/>
<svg id="graph" class="graph">
<g id="viewport">
<title>VolumeControl.Log.AsyncLogWriter</title>
<!-- Node1 -->
<g id="node1" class="node">
<title>Node1</title>
<g id="a_node1"><a xlink:title="Asynchonously writes messages to the log endpoint.">
<polygon fill="#bfbfbf" stroke="black" points="88.81,-0.5 88.81,-321.5 246.81,-321.5 246.81,-0.5 88.81,-0.5"/>
<text text-anchor="start" x="96.81" y="-309.5" font-family="Helvetica,sans-Serif" font-size="10.00">VolumeControl.Log.AsyncLog</text>
<text text-anchor="middle" x="167.81" y="-298.5" font-family="Helvetica,sans-Serif" font-size="10.00">Writer</text>
<polyline fill="none" stroke="black" points="88.81,-291.5 246.81,-291.5 "/>
<text text-anchor="start" x="96.81" y="-279.5" font-family="Helvetica,sans-Serif" font-size="10.00">+ DateTimeFormatString</text>
<text text-anchor="start" x="96.81" y="-268.5" font-family="Helvetica,sans-Serif" font-size="10.00">+ TimestampLength</text>
<text text-anchor="start" x="96.81" y="-257.5" font-family="Helvetica,sans-Serif" font-size="10.00">+ EventTypeLength</text>
<text text-anchor="start" x="96.81" y="-246.5" font-family="Helvetica,sans-Serif" font-size="10.00">+ BlankLineHeader</text>
<text text-anchor="start" x="96.81" y="-235.5" font-family="Helvetica,sans-Serif" font-size="10.00">+ AlwaysVisibleEventTypes</text>
<text text-anchor="start" x="96.81" y="-224.5" font-family="Helvetica,sans-Serif" font-size="10.00">+ EndpointEnabled</text>
<text text-anchor="start" x="96.81" y="-213.5" font-family="Helvetica,sans-Serif" font-size="10.00">+ EventTypeFilter</text>
<text text-anchor="start" x="96.81" y="-202.5" font-family="Helvetica,sans-Serif" font-size="10.00">+ IsAsyncEnabled</text>
<text text-anchor="start" x="96.81" y="-191.5" font-family="Helvetica,sans-Serif" font-size="10.00">~ Endpoint</text>
<polyline fill="none" stroke="black" points="88.81,-184.5 246.81,-184.5 "/>
<text text-anchor="start" x="96.81" y="-172.5" font-family="Helvetica,sans-Serif" font-size="10.00">+ AsyncLogWriter()</text>
<text text-anchor="start" x="96.81" y="-161.5" font-family="Helvetica,sans-Serif" font-size="10.00">+ FilterEventType()</text>
<text text-anchor="start" x="96.81" y="-150.5" font-family="Helvetica,sans-Serif" font-size="10.00">+ ResetEndpoint()</text>
<text text-anchor="start" x="96.81" y="-139.5" font-family="Helvetica,sans-Serif" font-size="10.00">+ ResetEndpoint()</text>
<text text-anchor="start" x="96.81" y="-128.5" font-family="Helvetica,sans-Serif" font-size="10.00">+ LogMessage()</text>
<text text-anchor="start" x="96.81" y="-117.5" font-family="Helvetica,sans-Serif" font-size="10.00">+ Trace()</text>
<text text-anchor="start" x="96.81" y="-106.5" font-family="Helvetica,sans-Serif" font-size="10.00">+ Debug()</text>
<text text-anchor="start" x="96.81" y="-95.5" font-family="Helvetica,sans-Serif" font-size="10.00">+ Info()</text>
<text text-anchor="start" x="96.81" y="-84.5" font-family="Helvetica,sans-Serif" font-size="10.00">+ Warning()</text>
<text text-anchor="start" x="96.81" y="-73.5" font-family="Helvetica,sans-Serif" font-size="10.00">+ Error()</text>
<text text-anchor="start" x="96.81" y="-62.5" font-family="Helvetica,sans-Serif" font-size="10.00">+ Fatal()</text>
<text text-anchor="start" x="96.81" y="-51.5" font-family="Helvetica,sans-Serif" font-size="10.00">+ Critical()</text>
<text text-anchor="start" x="96.81" y="-40.5" font-family="Helvetica,sans-Serif" font-size="10.00">+ Blank()</text>
<text text-anchor="start" x="96.81" y="-29.5" font-family="Helvetica,sans-Serif" font-size="10.00">+ DisableAsyncNoFlush()</text>
<text text-anchor="start" x="96.81" y="-18.5" font-family="Helvetica,sans-Serif" font-size="10.00">+ Dispose()</text>
<text text-anchor="start" x="96.81" y="-7.5" font-family="Helvetica,sans-Serif" font-size="10.00">~ Indent()</text>
</a>
</g>
</g>
<!-- Node2 -->
<g id="node2" class="node">
<title>Node2</title>
<g id="a_node2"><a xlink:href="class_volume_control_1_1_log_1_1_helpers_1_1_threaded_action_queue.html" target="_top" xlink:title="Manages a background thread to execute queued actions.">
<polygon fill="none" stroke="black" points="24.31,-380.5 24.31,-492.5 167.31,-492.5 167.31,-380.5 24.31,-380.5"/>
<text text-anchor="middle" x="95.81" y="-480.5" font-family="Helvetica,sans-Serif" font-size="10.00">ThreadedActionQueue</text>
<polyline fill="none" stroke="black" points="24.31,-473.5 167.31,-473.5 "/>
<text text-anchor="middle" x="95.81" y="-461.5" font-family="Helvetica,sans-Serif" font-size="10.00"> </text>
<polyline fill="none" stroke="black" points="24.31,-454.5 167.31,-454.5 "/>
<text text-anchor="start" x="32.31" y="-442.5" font-family="Helvetica,sans-Serif" font-size="10.00">+ Flush()</text>
<text text-anchor="start" x="32.31" y="-431.5" font-family="Helvetica,sans-Serif" font-size="10.00">+ Flush()</text>
<text text-anchor="start" x="32.31" y="-420.5" font-family="Helvetica,sans-Serif" font-size="10.00">+ Flush()</text>
<text text-anchor="start" x="32.31" y="-409.5" font-family="Helvetica,sans-Serif" font-size="10.00">+ Dispose()</text>
<text text-anchor="start" x="32.31" y="-398.5" font-family="Helvetica,sans-Serif" font-size="10.00"># ThreadedActionQueue()</text>
<text text-anchor="start" x="32.31" y="-387.5" font-family="Helvetica,sans-Serif" font-size="10.00"># Enqueue()</text>
</a>
</g>
</g>
<!-- Node2&#45;&gt;Node1 -->
<g id="edge1" class="edge">
<title>Node2&#45;&gt;Node1</title>
<path fill="none" stroke="midnightblue" d="M112.84,-370.8C116.82,-355.7 121.23,-338.95 125.77,-321.7"/>
<polygon fill="none" stroke="midnightblue" points="109.45,-369.92 110.29,-380.48 116.22,-371.7 109.45,-369.92"/>
</g>
<!-- Node3 -->
<g id="node3" class="node">
<title>Node3</title>
<g id="a_node3"><a xlink:title=" ">
<polygon fill="none" stroke="#bfbfbf" points="8.81,-551.5 8.81,-608.5 82.81,-608.5 82.81,-551.5 8.81,-551.5"/>
<text text-anchor="middle" x="45.81" y="-596.5" font-family="Helvetica,sans-Serif" font-size="10.00">IDisposable</text>
<polyline fill="none" stroke="#bfbfbf" points="8.81,-589.5 82.81,-589.5 "/>
<text text-anchor="middle" x="45.81" y="-577.5" font-family="Helvetica,sans-Serif" font-size="10.00"> </text>
<polyline fill="none" stroke="#bfbfbf" points="8.81,-570.5 82.81,-570.5 "/>
<text text-anchor="middle" x="45.81" y="-558.5" font-family="Helvetica,sans-Serif" font-size="10.00"> </text>
</a>
</g>
</g>
<!-- Node3&#45;&gt;Node1 -->
<g id="edge5" class="edge">
<title>Node3&#45;&gt;Node1</title>
<path fill="none" stroke="midnightblue" d="M24.55,-542.26C20.53,-533.59 16.92,-524.19 14.81,-515 -0.8,-446.99 -7.89,-423.98 14.81,-358 29.98,-313.92 59.58,-272.14 88.74,-238.58"/>
<polygon fill="none" stroke="midnightblue" points="21.47,-543.92 29.04,-551.34 27.75,-540.83 21.47,-543.92"/>
</g>
<!-- Node3&#45;&gt;Node2 -->
<g id="edge2" class="edge">
<title>Node3&#45;&gt;Node2</title>
<path fill="none" stroke="midnightblue" d="M58.92,-541.9C64.24,-526.83 70.51,-509.1 76.35,-492.57"/>
<polygon fill="none" stroke="midnightblue" points="55.6,-540.79 55.57,-551.38 62.2,-543.12 55.6,-540.79"/>
</g>
<!-- Node4 -->
<g id="node4" class="node">
<title>Node4</title>
<g id="a_node4"><a xlink:href="interface_volume_control_1_1_log_1_1_interfaces_1_1_i_log_writer.html" target="_top" xlink:title="Represents a log writer instance.">
<polygon fill="none" stroke="black" points="185.81,-358.5 185.81,-514.5 295.81,-514.5 295.81,-358.5 185.81,-358.5"/>
<text text-anchor="middle" x="240.81" y="-502.5" font-family="Helvetica,sans-Serif" font-size="10.00">ILogWriter</text>
<polyline fill="none" stroke="black" points="185.81,-495.5 295.81,-495.5 "/>
<text text-anchor="middle" x="240.81" y="-483.5" font-family="Helvetica,sans-Serif" font-size="10.00"> </text>
<polyline fill="none" stroke="black" points="185.81,-476.5 295.81,-476.5 "/>
<text text-anchor="start" x="193.81" y="-464.5" font-family="Helvetica,sans-Serif" font-size="10.00">+ FilterEventType()</text>
<text text-anchor="start" x="193.81" y="-453.5" font-family="Helvetica,sans-Serif" font-size="10.00">+ LogMessage()</text>
<text text-anchor="start" x="193.81" y="-442.5" font-family="Helvetica,sans-Serif" font-size="10.00">+ Trace()</text>
<text text-anchor="start" x="193.81" y="-431.5" font-family="Helvetica,sans-Serif" font-size="10.00">+ Debug()</text>
<text text-anchor="start" x="193.81" y="-420.5" font-family="Helvetica,sans-Serif" font-size="10.00">+ Info()</text>
<text text-anchor="start" x="193.81" y="-409.5" font-family="Helvetica,sans-Serif" font-size="10.00">+ Warning()</text>
<text text-anchor="start" x="193.81" y="-398.5" font-family="Helvetica,sans-Serif" font-size="10.00">+ Error()</text>
<text text-anchor="start" x="193.81" y="-387.5" font-family="Helvetica,sans-Serif" font-size="10.00">+ Fatal()</text>
<text text-anchor="start" x="193.81" y="-376.5" font-family="Helvetica,sans-Serif" font-size="10.00">+ Critical()</text>
<text text-anchor="start" x="193.81" y="-365.5" font-family="Helvetica,sans-Serif" font-size="10.00">+ Blank()</text>
</a>
</g>
</g>
<!-- Node4&#45;&gt;Node1 -->
<g id="edge3" class="edge">
<title>Node4&#45;&gt;Node1</title>
<path fill="none" stroke="midnightblue" d="M217.6,-348.55C215.28,-339.85 212.88,-330.85 210.44,-321.7"/>
<polygon fill="none" stroke="midnightblue" points="214.22,-349.46 220.18,-358.22 220.99,-347.66 214.22,-349.46"/>
</g>
<!-- Node5 -->
<g id="node5" class="node">
<title>Node5</title>
<g id="a_node5"><a xlink:title=" ">
<polygon fill="none" stroke="#bfbfbf" points="314.31,-408 314.31,-465 447.31,-465 447.31,-408 314.31,-408"/>
<text text-anchor="middle" x="380.81" y="-453" font-family="Helvetica,sans-Serif" font-size="10.00">INotifyPropertyChanged</text>
<polyline fill="none" stroke="#bfbfbf" points="314.31,-446 447.31,-446 "/>
<text text-anchor="middle" x="380.81" y="-434" font-family="Helvetica,sans-Serif" font-size="10.00"> </text>
<polyline fill="none" stroke="#bfbfbf" points="314.31,-427 447.31,-427 "/>
<text text-anchor="middle" x="380.81" y="-415" font-family="Helvetica,sans-Serif" font-size="10.00"> </text>
</a>
</g>
</g>
<!-- Node5&#45;&gt;Node1 -->
<g id="edge4" class="edge">
<title>Node5&#45;&gt;Node1</title>
<path fill="none" stroke="midnightblue" d="M353.05,-399.85C326.16,-365.32 284.09,-311.3 246.83,-263.47"/>
<polygon fill="none" stroke="midnightblue" points="350.31,-402.03 359.21,-407.77 355.83,-397.73 350.31,-402.03"/>
</g>
</g>
</svg>
        <g id="navigator" transform="translate(0 0)" fill="#404254">
                <rect fill="#f2f5e9" fill-opacity="0.5" stroke="#606060" stroke-width=".5" x="0" y="0" width="60" height="60"/>
                <use id="zoomplus" xlink:href="#zoomPlus" x="17" y="9" onmousedown="handleZoom(evt,'in')"/>
                <use id="zoomminus" xlink:href="#zoomMin" x="42" y="9" onmousedown="handleZoom(evt,'out')"/>
                <use id="reset" xlink:href="#resetDef" x="30" y="36" onmousedown="handleReset()"/>
                <g id="arrowUp" xlink:href="#dirArrow" transform="translate(30 24)" onmousedown="handlePan(0,-1)">
                  <use xlink:href="#rim" fill="#404040">
                        <set attributeName="fill" to="#808080" begin="arrowUp.mouseover" end="arrowUp.mouseout"/>
                  </use>
                  <path fill="none" stroke="white" stroke-width="1.5" d="M0,-3.0v7 M-2.5,-0.5L0,-3.0L2.5,-0.5"/>
                </g>
                <g id="arrowRight" xlink:href="#dirArrow" transform="rotate(90) translate(36 -43)" onmousedown="handlePan(1,0)">
                  <use xlink:href="#rim" fill="#404040">
                        <set attributeName="fill" to="#808080" begin="arrowRight.mouseover" end="arrowRight.mouseout"/>
                  </use>
                  <path fill="none" stroke="white" stroke-width="1.5" d="M0,-3.0v7 M-2.5,-0.5L0,-3.0L2.5,-0.5"/>
                </g>
                <g id="arrowDown" xlink:href="#dirArrow" transform="rotate(180) translate(-30 -48)" onmousedown="handlePan(0,1)">
                  <use xlink:href="#rim" fill="#404040">
                        <set attributeName="fill" to="#808080" begin="arrowDown.mouseover" end="arrowDown.mouseout"/>
                  </use>
                  <path fill="none" stroke="white" stroke-width="1.5" d="M0,-3.0v7 M-2.5,-0.5L0,-3.0L2.5,-0.5"/>
                </g>
                <g id="arrowLeft" xlink:href="#dirArrow" transform="rotate(270) translate(-36 17)" onmousedown="handlePan(-1,0)">
                  <use xlink:href="#rim" fill="#404040">
                        <set attributeName="fill" to="#808080" begin="arrowLeft.mouseover" end="arrowLeft.mouseout"/>
                  </use>
                  <path fill="none" stroke="white" stroke-width="1.5" d="M0,-3.0v7 M-2.5,-0.5L0,-3.0L2.5,-0.5"/>
                </g>
        </g>
        <svg viewBox="0 0 15 15" width="100%" height="30px" preserveAspectRatio="xMaxYMin meet">
         <g id="arrow_out" transform="scale(0.3 0.3)">
          <a xlink:href="class_volume_control_1_1_log_1_1_async_log_writer__inherit__graph_org.svg" target="_base">
           <rect id="button" ry="5" rx="5" y="6" x="6" height="38" width="38"
                fill="#f2f5e9" fill-opacity="0.5" stroke="#606060" stroke-width="1.0"/>
           <path id="arrow"
             d="M 11.500037,31.436501 C 11.940474,20.09759 22.043105,11.32322 32.158766,21.979434 L 37.068811,17.246167 C 37.068811,17.246167 37.088388,32 37.088388,32 L 22.160133,31.978069 C 22.160133,31.978069 26.997745,27.140456 26.997745,27.140456 C 18.528582,18.264221 13.291696,25.230495 11.500037,31.436501 z"
             style="fill:#404040;"/>
          </a>
         </g>
        </svg>
</svg>
