<?xml version="1.0" encoding="UTF-8" standalone="no"?>
<!DOCTYPE svg PUBLIC "-//W3C//DTD SVG 1.1//EN"
 "http://www.w3.org/Graphics/SVG/1.1/DTD/svg11.dtd">
<!-- Generated by graphviz version 2.43.0 (0)
 -->
<!-- Title: VolumeControl.Log.AsyncLogWriter Pages: 1 -->
<svg width="279pt" height="628pt"
 viewBox="0.00 0.00 279.00 628.00" xmlns="http://www.w3.org/2000/svg" xmlns:xlink="http://www.w3.org/1999/xlink">
<g id="graph0" class="graph" transform="scale(1 1) rotate(0) translate(4 624)">
<title>VolumeControl.Log.AsyncLogWriter</title>
<!-- Node1 -->
<g id="node1" class="node">
<title>Node1</title>
<g id="a_node1"><a xlink:title="Asynchonously writes messages to the log endpoint.">
<polygon fill="#bfbfbf" stroke="black" points="3,-0.5 3,-332.5 161,-332.5 161,-0.5 3,-0.5"/>
<text text-anchor="start" x="11" y="-320.5" font-family="Helvetica,sans-Serif" font-size="10.00">VolumeControl.Log.AsyncLog</text>
<text text-anchor="middle" x="82" y="-309.5" font-family="Helvetica,sans-Serif" font-size="10.00">Writer</text>
<polyline fill="none" stroke="black" points="3,-302.5 161,-302.5 "/>
<text text-anchor="start" x="11" y="-290.5" font-family="Helvetica,sans-Serif" font-size="10.00">+ DateTimeFormatString</text>
<text text-anchor="start" x="11" y="-279.5" font-family="Helvetica,sans-Serif" font-size="10.00">+ TimestampLength</text>
<text text-anchor="start" x="11" y="-268.5" font-family="Helvetica,sans-Serif" font-size="10.00">+ EventTypeLength</text>
<text text-anchor="start" x="11" y="-257.5" font-family="Helvetica,sans-Serif" font-size="10.00">+ BlankLineHeader</text>
<text text-anchor="start" x="11" y="-246.5" font-family="Helvetica,sans-Serif" font-size="10.00">+ AlwaysVisibleEventTypes</text>
<text text-anchor="start" x="11" y="-235.5" font-family="Helvetica,sans-Serif" font-size="10.00">+ EndpointEnabled</text>
<text text-anchor="start" x="11" y="-224.5" font-family="Helvetica,sans-Serif" font-size="10.00">+ EventTypeFilter</text>
<text text-anchor="start" x="11" y="-213.5" font-family="Helvetica,sans-Serif" font-size="10.00">+ IsAsyncEnabled</text>
<text text-anchor="start" x="11" y="-202.5" font-family="Helvetica,sans-Serif" font-size="10.00">~ Endpoint</text>
<polyline fill="none" stroke="black" points="3,-195.5 161,-195.5 "/>
<text text-anchor="start" x="11" y="-183.5" font-family="Helvetica,sans-Serif" font-size="10.00">+ AsyncLogWriter()</text>
<text text-anchor="start" x="11" y="-172.5" font-family="Helvetica,sans-Serif" font-size="10.00">+ FilterEventType()</text>
<text text-anchor="start" x="11" y="-161.5" font-family="Helvetica,sans-Serif" font-size="10.00">+ ResetEndpoint()</text>
<text text-anchor="start" x="11" y="-150.5" font-family="Helvetica,sans-Serif" font-size="10.00">+ ResetEndpoint()</text>
<text text-anchor="start" x="11" y="-139.5" font-family="Helvetica,sans-Serif" font-size="10.00">+ LogMessage()</text>
<text text-anchor="start" x="11" y="-128.5" font-family="Helvetica,sans-Serif" font-size="10.00">+ Trace()</text>
<text text-anchor="start" x="11" y="-117.5" font-family="Helvetica,sans-Serif" font-size="10.00">+ Debug()</text>
<text text-anchor="start" x="11" y="-106.5" font-family="Helvetica,sans-Serif" font-size="10.00">+ Info()</text>
<text text-anchor="start" x="11" y="-95.5" font-family="Helvetica,sans-Serif" font-size="10.00">+ Warning()</text>
<text text-anchor="start" x="11" y="-84.5" font-family="Helvetica,sans-Serif" font-size="10.00">+ Error()</text>
<text text-anchor="start" x="11" y="-73.5" font-family="Helvetica,sans-Serif" font-size="10.00">+ Fatal()</text>
<text text-anchor="start" x="11" y="-62.5" font-family="Helvetica,sans-Serif" font-size="10.00">+ Critical()</text>
<text text-anchor="start" x="11" y="-51.5" font-family="Helvetica,sans-Serif" font-size="10.00">+ Blank()</text>
<text text-anchor="start" x="11" y="-40.5" font-family="Helvetica,sans-Serif" font-size="10.00">+ DisableAsyncNoFlush()</text>
<text text-anchor="start" x="11" y="-29.5" font-family="Helvetica,sans-Serif" font-size="10.00">+ Dispose()</text>
<text text-anchor="start" x="11" y="-18.5" font-family="Helvetica,sans-Serif" font-size="10.00">~ Indent()</text>
<text text-anchor="start" x="11" y="-7.5" font-family="Helvetica,sans-Serif" font-size="10.00"># WriteLogMessage()</text>
</a>
</g>
</g>
<!-- Node2 -->
<g id="node2" class="node">
<title>Node2</title>
<g id="a_node2"><a xlink:href="class_volume_control_1_1_log_1_1_threaded_logger.html" target="_top" xlink:title="Manages a background thread to write queued log messages. The queue can be disabled at runtime to swi...">
<polygon fill="none" stroke="black" points="21,-397 21,-498 143,-498 143,-397 21,-397"/>
<text text-anchor="middle" x="82" y="-486" font-family="Helvetica,sans-Serif" font-size="10.00">ThreadedLogger</text>
<polyline fill="none" stroke="black" points="21,-479 143,-479 "/>
<text text-anchor="middle" x="82" y="-467" font-family="Helvetica,sans-Serif" font-size="10.00"> </text>
<polyline fill="none" stroke="black" points="21,-460 143,-460 "/>
<text text-anchor="start" x="29" y="-448" font-family="Helvetica,sans-Serif" font-size="10.00">+ ThreadedLogger()</text>
<text text-anchor="start" x="29" y="-437" font-family="Helvetica,sans-Serif" font-size="10.00">+ Flush()</text>
<text text-anchor="start" x="29" y="-426" font-family="Helvetica,sans-Serif" font-size="10.00">+ Dispose()</text>
<text text-anchor="start" x="29" y="-415" font-family="Helvetica,sans-Serif" font-size="10.00"># WriteLogMessage()</text>
<text text-anchor="start" x="29" y="-404" font-family="Helvetica,sans-Serif" font-size="10.00"># LogMessage()</text>
</a>
</g>
</g>
<!-- Node2&#45;&gt;Node1 -->
<g id="edge1" class="edge">
<title>Node2&#45;&gt;Node1</title>
<path fill="none" stroke="midnightblue" d="M82,-386.55C82,-370.24 82,-351.74 82,-332.58"/>
<polygon fill="none" stroke="midnightblue" points="78.5,-386.94 82,-396.94 85.5,-386.94 78.5,-386.94"/>
</g>
<!-- Node3 -->
<g id="node3" class="node">
<title>Node3</title>
<g id="a_node3"><a xlink:title=" ">
<polygon fill="none" stroke="#bfbfbf" points="0,-562.5 0,-619.5 74,-619.5 74,-562.5 0,-562.5"/>
<text text-anchor="middle" x="37" y="-607.5" font-family="Helvetica,sans-Serif" font-size="10.00">IDisposable</text>
<polyline fill="none" stroke="#bfbfbf" points="0,-600.5 74,-600.5 "/>
<text text-anchor="middle" x="37" y="-588.5" font-family="Helvetica,sans-Serif" font-size="10.00"> </text>
<polyline fill="none" stroke="#bfbfbf" points="0,-581.5 74,-581.5 "/>
<text text-anchor="middle" x="37" y="-569.5" font-family="Helvetica,sans-Serif" font-size="10.00"> </text>
</a>
</g>
</g>
<!-- Node3&#45;&gt;Node1 -->
<g id="edge4" class="edge">
<title>Node3&#45;&gt;Node1</title>
<path fill="none" stroke="midnightblue" d="M19.83,-552.88C16.59,-544.24 13.68,-534.94 12,-526 -0.92,-457.43 0.39,-437.8 12,-369 14.02,-357.04 16.67,-344.84 19.75,-332.66"/>
<polygon fill="none" stroke="midnightblue" points="16.63,-554.32 23.59,-562.31 23.14,-551.73 16.63,-554.32"/>
</g>
<!-- Node3&#45;&gt;Node2 -->
<g id="edge2" class="edge">
<title>Node3&#45;&gt;Node2</title>
<path fill="none" stroke="midnightblue" d="M48.94,-552.46C54.24,-535.8 60.55,-515.96 66.22,-498.1"/>
<polygon fill="none" stroke="midnightblue" points="45.48,-551.79 45.78,-562.38 52.15,-553.91 45.48,-551.79"/>
</g>
<!-- Node4 -->
<g id="node4" class="node">
<title>Node4</title>
<g id="a_node4"><a xlink:href="interface_volume_control_1_1_log_1_1_i_log_writer.html" target="_top" xlink:title="Represents a log writer instance.">
<polygon fill="none" stroke="black" points="161,-369.5 161,-525.5 271,-525.5 271,-369.5 161,-369.5"/>
<text text-anchor="middle" x="216" y="-513.5" font-family="Helvetica,sans-Serif" font-size="10.00">ILogWriter</text>
<polyline fill="none" stroke="black" points="161,-506.5 271,-506.5 "/>
<text text-anchor="middle" x="216" y="-494.5" font-family="Helvetica,sans-Serif" font-size="10.00"> </text>
<polyline fill="none" stroke="black" points="161,-487.5 271,-487.5 "/>
<text text-anchor="start" x="169" y="-475.5" font-family="Helvetica,sans-Serif" font-size="10.00">+ FilterEventType()</text>
<text text-anchor="start" x="169" y="-464.5" font-family="Helvetica,sans-Serif" font-size="10.00">+ LogMessage()</text>
<text text-anchor="start" x="169" y="-453.5" font-family="Helvetica,sans-Serif" font-size="10.00">+ Trace()</text>
<text text-anchor="start" x="169" y="-442.5" font-family="Helvetica,sans-Serif" font-size="10.00">+ Debug()</text>
<text text-anchor="start" x="169" y="-431.5" font-family="Helvetica,sans-Serif" font-size="10.00">+ Info()</text>
<text text-anchor="start" x="169" y="-420.5" font-family="Helvetica,sans-Serif" font-size="10.00">+ Warning()</text>
<text text-anchor="start" x="169" y="-409.5" font-family="Helvetica,sans-Serif" font-size="10.00">+ Error()</text>
<text text-anchor="start" x="169" y="-398.5" font-family="Helvetica,sans-Serif" font-size="10.00">+ Fatal()</text>
<text text-anchor="start" x="169" y="-387.5" font-family="Helvetica,sans-Serif" font-size="10.00">+ Critical()</text>
<text text-anchor="start" x="169" y="-376.5" font-family="Helvetica,sans-Serif" font-size="10.00">+ Blank()</text>
</a>
</g>
</g>
<!-- Node4&#45;&gt;Node1 -->
<g id="edge3" class="edge">
<title>Node4&#45;&gt;Node1</title>
<path fill="none" stroke="midnightblue" d="M174.41,-359.91C170.09,-350.91 165.6,-341.56 161.04,-332.06"/>
<polygon fill="none" stroke="midnightblue" points="171.37,-361.65 178.85,-369.15 177.68,-358.62 171.37,-361.65"/>
</g>
</g>
</svg>
