<?xml version="1.0" encoding="UTF-8" standalone="no"?>
<!DOCTYPE svg PUBLIC "-//W3C//DTD SVG 1.1//EN"
 "http://www.w3.org/Graphics/SVG/1.1/DTD/svg11.dtd">
<!-- Generated by graphviz version 2.43.0 (0)
 -->
<!-- Title: VolumeControl.HotkeyActions.NumericUpDown_DataTemplateProvider Pages: 1 -->
<svg width="358pt" height="320pt"
 viewBox="0.00 0.00 358.00 320.00" xmlns="http://www.w3.org/2000/svg" xmlns:xlink="http://www.w3.org/1999/xlink">
<g id="graph0" class="graph" transform="scale(1 1) rotate(0) translate(4 316)">
<title>VolumeControl.HotkeyActions.NumericUpDown_DataTemplateProvider</title>
<!-- Node1 -->
<g id="node1" class="node">
<title>Node1</title>
<g id="a_node1"><a xlink:title=" ">
<polygon fill="#bfbfbf" stroke="black" points="69,-116.5 69,-184.5 282,-184.5 282,-116.5 69,-116.5"/>
<text text-anchor="start" x="77" y="-172.5" font-family="Helvetica,sans-Serif" font-size="10.00">VolumeControl.HotkeyActions.</text>
<text text-anchor="middle" x="175.5" y="-161.5" font-family="Helvetica,sans-Serif" font-size="10.00">NumericUpDown_DataTemplateProvider</text>
<polyline fill="none" stroke="black" points="69,-154.5 282,-154.5 "/>
<text text-anchor="middle" x="175.5" y="-142.5" font-family="Helvetica,sans-Serif" font-size="10.00"> </text>
<polyline fill="none" stroke="black" points="69,-135.5 282,-135.5 "/>
<text text-anchor="start" x="77" y="-123.5" font-family="Helvetica,sans-Serif" font-size="10.00"># GetNumericUpDownFactory()</text>
</a>
</g>
</g>
<!-- Node3 -->
<g id="node3" class="node">
<title>Node3</title>
<g id="a_node3"><a xlink:href="class_volume_control_1_1_hotkey_actions_1_1_volume_level___numeric_up_down___data_template_provider.html" target="_top" xlink:title="NumericUpDown_DataTemplateProvider with MinValue 0 and MaxValue 100">
<polygon fill="none" stroke="black" points="0,-0.5 0,-79.5 167,-79.5 167,-0.5 0,-0.5"/>
<text text-anchor="start" x="8" y="-67.5" font-family="Helvetica,sans-Serif" font-size="10.00">VolumeControl.HotkeyActions.</text>
<text text-anchor="start" x="8" y="-56.5" font-family="Helvetica,sans-Serif" font-size="10.00">VolumeLevel_NumericUpDown</text>
<text text-anchor="middle" x="83.5" y="-45.5" font-family="Helvetica,sans-Serif" font-size="10.00">_DataTemplateProvider</text>
<polyline fill="none" stroke="black" points="0,-38.5 167,-38.5 "/>
<text text-anchor="middle" x="83.5" y="-26.5" font-family="Helvetica,sans-Serif" font-size="10.00"> </text>
<polyline fill="none" stroke="black" points="0,-19.5 167,-19.5 "/>
<text text-anchor="start" x="8" y="-7.5" font-family="Helvetica,sans-Serif" font-size="10.00">+ ProvideDataTemplate()</text>
</a>
</g>
</g>
<!-- Node1&#45;&gt;Node3 -->
<g id="edge2" class="edge">
<title>Node1&#45;&gt;Node3</title>
<path fill="none" stroke="midnightblue" d="M140.78,-108.56C132.75,-99.08 124.22,-89.03 116.27,-79.65"/>
<polygon fill="none" stroke="midnightblue" points="138.26,-110.99 147.4,-116.36 143.6,-106.47 138.26,-110.99"/>
</g>
<!-- Node4 -->
<g id="node4" class="node">
<title>Node4</title>
<g id="a_node4"><a xlink:href="class_volume_control_1_1_hotkey_actions_1_1_volume_step___numeric_up_down___data_template_provider.html" target="_top" xlink:title="NumericUpDown_DataTemplateProvider with MinValue 1 and MaxValue 100">
<polygon fill="none" stroke="black" points="185,-0.5 185,-79.5 350,-79.5 350,-0.5 185,-0.5"/>
<text text-anchor="start" x="193" y="-67.5" font-family="Helvetica,sans-Serif" font-size="10.00">VolumeControl.HotkeyActions.</text>
<text text-anchor="start" x="193" y="-56.5" font-family="Helvetica,sans-Serif" font-size="10.00">VolumeStep_NumericUpDown</text>
<text text-anchor="middle" x="267.5" y="-45.5" font-family="Helvetica,sans-Serif" font-size="10.00">_DataTemplateProvider</text>
<polyline fill="none" stroke="black" points="185,-38.5 350,-38.5 "/>
<text text-anchor="middle" x="267.5" y="-26.5" font-family="Helvetica,sans-Serif" font-size="10.00"> </text>
<polyline fill="none" stroke="black" points="185,-19.5 350,-19.5 "/>
<text text-anchor="start" x="193" y="-7.5" font-family="Helvetica,sans-Serif" font-size="10.00">+ ProvideDataTemplate()</text>
</a>
</g>
</g>
<!-- Node1&#45;&gt;Node4 -->
<g id="edge3" class="edge">
<title>Node1&#45;&gt;Node4</title>
<path fill="none" stroke="midnightblue" d="M210.22,-108.56C218.25,-99.08 226.78,-89.03 234.73,-79.65"/>
<polygon fill="none" stroke="midnightblue" points="207.4,-106.47 203.6,-116.36 212.74,-110.99 207.4,-106.47"/>
</g>
<!-- Node2 -->
<g id="node2" class="node">
<title>Node2</title>
<g id="a_node2"><a xlink:href="class_volume_control_1_1_core_1_1_data_template_provider.html" target="_top" xlink:title="Provides a DataTemplate for some hardcoded type. &#160;The Type of a derived class can be specified for th...">
<polygon fill="none" stroke="black" points="85,-221.5 85,-311.5 266,-311.5 266,-221.5 85,-221.5"/>
<text text-anchor="middle" x="175.5" y="-299.5" font-family="Helvetica,sans-Serif" font-size="10.00">DataTemplateProvider</text>
<polyline fill="none" stroke="black" points="85,-292.5 266,-292.5 "/>
<text text-anchor="middle" x="175.5" y="-280.5" font-family="Helvetica,sans-Serif" font-size="10.00"> </text>
<polyline fill="none" stroke="black" points="85,-273.5 266,-273.5 "/>
<text text-anchor="start" x="93" y="-261.5" font-family="Helvetica,sans-Serif" font-size="10.00">+ ProvideDataTemplate()</text>
<text text-anchor="start" x="93" y="-250.5" font-family="Helvetica,sans-Serif" font-size="10.00">+ LoadEmbeddedXamlResource()</text>
<text text-anchor="start" x="93" y="-239.5" font-family="Helvetica,sans-Serif" font-size="10.00">+ FromEmbeddedResource()</text>
<text text-anchor="start" x="93" y="-228.5" font-family="Helvetica,sans-Serif" font-size="10.00">+ FromEmbeddedResource()</text>
</a>
</g>
</g>
<!-- Node2&#45;&gt;Node1 -->
<g id="edge1" class="edge">
<title>Node2&#45;&gt;Node1</title>
<path fill="none" stroke="midnightblue" d="M175.5,-211.32C175.5,-202.28 175.5,-193.16 175.5,-184.85"/>
<polygon fill="none" stroke="midnightblue" points="172,-211.42 175.5,-221.42 179,-211.42 172,-211.42"/>
</g>
</g>
</svg>
