<?xml version="1.0" encoding="UTF-8" standalone="no"?>
<!DOCTYPE svg PUBLIC "-//W3C//DTD SVG 1.1//EN"
 "http://www.w3.org/Graphics/SVG/1.1/DTD/svg11.dtd">
<!-- Generated by graphviz version 2.43.0 (0)
 -->
<!-- Title: VolumeControl.Audio.AudioDevice Pages: 1 -->
<!--zoomable 981 -->
<svg id="main" version="1.1" xmlns="http://www.w3.org/2000/svg" xmlns:xlink="http://www.w3.org/1999/xlink" xml:space="preserve" onload="init(evt)">
<style type="text/css"><![CDATA[
.edge:hover path { stroke: red; }
.edge:hover polygon { stroke: red; fill: red; }
]]></style>
<script type="text/javascript"><![CDATA[
var edges = document.getElementsByTagName('g');
if (edges && edges.length) {
  for (var i=0;i<edges.length;i++) {
    if (edges[i].id.substr(0,4)=='edge') {
      edges[i].setAttribute('class','edge');
    }
  }
}
]]></script>
        <defs>
                <circle id="rim" cx="0" cy="0" r="7"/>
                <circle id="rim2" cx="0" cy="0" r="3.5"/>
                <g id="zoomPlus">
                        <use xlink:href="#rim" fill="#404040">
                                <set attributeName="fill" to="#808080" begin="zoomplus.mouseover" end="zoomplus.mouseout"/>
                        </use>
                        <path d="M-4,0h8M0,-4v8" fill="none" stroke="white" stroke-width="1.5" pointer-events="none"/>
                </g>
                <g id="zoomMin">
                        <use xlink:href="#rim" fill="#404040">
                                <set attributeName="fill" to="#808080" begin="zoomminus.mouseover" end="zoomminus.mouseout"/>
                        </use>
                        <path d="M-4,0h8" fill="none" stroke="white" stroke-width="1.5" pointer-events="none"/>
                </g>
                <g id="dirArrow">
                        <path fill="none" stroke="white" stroke-width="1.5" d="M0,-3.0v7 M-2.5,-0.5L0,-3.0L2.5,-0.5"/>
                </g>
               <g id="resetDef">
                       <use xlink:href="#rim2" fill="#404040">
                               <set attributeName="fill" to="#808080" begin="reset.mouseover" end="reset.mouseout"/>
                       </use>
               </g>
        </defs>

<script type="text/javascript">
var viewWidth = 2178;
var viewHeight = 981;
var sectionId = 'dynsection-1';
</script>
<script xlink:href="svgpan.js"/>
<svg id="graph" class="graph">
<g id="viewport">
<title>VolumeControl.Audio.AudioDevice</title>
<!-- Node1 -->
<g id="node1" class="node">
<title>Node1</title>
<g id="a_node1"><a xlink:title="Represents an audio device endpoint. Note that this object cannot be constructed externally....">
<polygon fill="#bfbfbf" stroke="black" points="768.06,-0.5 768.06,-519.5 952.06,-519.5 952.06,-0.5 768.06,-0.5"/>
<text text-anchor="start" x="776.06" y="-507.5" font-family="Helvetica,sans-Serif" font-size="10.00">VolumeControl.Audio.Audio</text>
<text text-anchor="middle" x="860.06" y="-496.5" font-family="Helvetica,sans-Serif" font-size="10.00">Device</text>
<polyline fill="none" stroke="black" points="768.06,-489.5 952.06,-489.5 "/>
<text text-anchor="start" x="776.06" y="-477.5" font-family="Helvetica,sans-Serif" font-size="10.00">+ AudioMeterInformation</text>
<text text-anchor="start" x="776.06" y="-466.5" font-family="Helvetica,sans-Serif" font-size="10.00">+ PeakMeterValue</text>
<text text-anchor="start" x="776.06" y="-455.5" font-family="Helvetica,sans-Serif" font-size="10.00">+ InterfaceName</text>
<text text-anchor="start" x="776.06" y="-444.5" font-family="Helvetica,sans-Serif" font-size="10.00">+ InstanceID</text>
<text text-anchor="start" x="776.06" y="-433.5" font-family="Helvetica,sans-Serif" font-size="10.00">+ IconPath</text>
<text text-anchor="start" x="776.06" y="-422.5" font-family="Helvetica,sans-Serif" font-size="10.00">+ Icon</text>
<text text-anchor="start" x="776.06" y="-411.5" font-family="Helvetica,sans-Serif" font-size="10.00">+ DeviceFriendlyName</text>
<text text-anchor="start" x="776.06" y="-400.5" font-family="Helvetica,sans-Serif" font-size="10.00">+ FriendlyName</text>
<text text-anchor="start" x="776.06" y="-389.5" font-family="Helvetica,sans-Serif" font-size="10.00">+ Properties</text>
<text text-anchor="start" x="776.06" y="-378.5" font-family="Helvetica,sans-Serif" font-size="10.00">+ State</text>
<text text-anchor="start" x="776.06" y="-367.5" font-family="Helvetica,sans-Serif" font-size="10.00">and 8 more...</text>
<text text-anchor="start" x="776.06" y="-356.5" font-family="Helvetica,sans-Serif" font-size="10.00">+ MMDevice</text>
<text text-anchor="start" x="776.06" y="-345.5" font-family="Helvetica,sans-Serif" font-size="10.00">+ Enabled</text>
<text text-anchor="start" x="776.06" y="-334.5" font-family="Helvetica,sans-Serif" font-size="10.00">+ Name</text>
<text text-anchor="start" x="776.06" y="-323.5" font-family="Helvetica,sans-Serif" font-size="10.00">+ DeviceID</text>
<text text-anchor="start" x="776.06" y="-312.5" font-family="Helvetica,sans-Serif" font-size="10.00">+ Icons</text>
<text text-anchor="start" x="776.06" y="-301.5" font-family="Helvetica,sans-Serif" font-size="10.00">+ EndpointVolumeObject</text>
<text text-anchor="start" x="776.06" y="-290.5" font-family="Helvetica,sans-Serif" font-size="10.00">+ NativeVolume</text>
<text text-anchor="start" x="776.06" y="-279.5" font-family="Helvetica,sans-Serif" font-size="10.00">+ Volume</text>
<text text-anchor="start" x="776.06" y="-268.5" font-family="Helvetica,sans-Serif" font-size="10.00">+ Muted</text>
<text text-anchor="start" x="776.06" y="-257.5" font-family="Helvetica,sans-Serif" font-size="10.00">+ DisplayText</text>
<text text-anchor="start" x="776.06" y="-246.5" font-family="Helvetica,sans-Serif" font-size="10.00">+ Sessions</text>
<text text-anchor="start" x="776.06" y="-235.5" font-family="Helvetica,sans-Serif" font-size="10.00">+ this[int index]</text>
<text text-anchor="start" x="776.06" y="-224.5" font-family="Helvetica,sans-Serif" font-size="10.00">+ this[int index]</text>
<text text-anchor="start" x="776.06" y="-213.5" font-family="Helvetica,sans-Serif" font-size="10.00">+ CollectionChanged</text>
<polyline fill="none" stroke="black" points="768.06,-206.5 952.06,-206.5 "/>
<text text-anchor="start" x="776.06" y="-194.5" font-family="Helvetica,sans-Serif" font-size="10.00">+ GetDeviceName()</text>
<text text-anchor="start" x="776.06" y="-183.5" font-family="Helvetica,sans-Serif" font-size="10.00">+ FindAll()</text>
<text text-anchor="start" x="776.06" y="-172.5" font-family="Helvetica,sans-Serif" font-size="10.00">+ GetIcons()</text>
<text text-anchor="start" x="776.06" y="-161.5" font-family="Helvetica,sans-Serif" font-size="10.00">+ Dispose()</text>
<text text-anchor="start" x="776.06" y="-150.5" font-family="Helvetica,sans-Serif" font-size="10.00">+ Equals()</text>
<text text-anchor="start" x="776.06" y="-139.5" font-family="Helvetica,sans-Serif" font-size="10.00">+ Equals()</text>
<text text-anchor="start" x="776.06" y="-128.5" font-family="Helvetica,sans-Serif" font-size="10.00">+ Equals()</text>
<text text-anchor="start" x="776.06" y="-117.5" font-family="Helvetica,sans-Serif" font-size="10.00">+ GetHashCode()</text>
<text text-anchor="start" x="776.06" y="-106.5" font-family="Helvetica,sans-Serif" font-size="10.00">+ Add()</text>
<text text-anchor="start" x="776.06" y="-95.5" font-family="Helvetica,sans-Serif" font-size="10.00">+ Clear()</text>
<text text-anchor="start" x="776.06" y="-84.5" font-family="Helvetica,sans-Serif" font-size="10.00">and 23 more...</text>
<text text-anchor="start" x="776.06" y="-73.5" font-family="Helvetica,sans-Serif" font-size="10.00">~ AudioDevice()</text>
<text text-anchor="start" x="776.06" y="-62.5" font-family="Helvetica,sans-Serif" font-size="10.00">~ ForwardPropertyStoreChanged()</text>
<text text-anchor="start" x="776.06" y="-51.5" font-family="Helvetica,sans-Serif" font-size="10.00">~ ForwardRemoved()</text>
<text text-anchor="start" x="776.06" y="-40.5" font-family="Helvetica,sans-Serif" font-size="10.00">~ ForwardStateChanged()</text>
<text text-anchor="start" x="776.06" y="-29.5" font-family="Helvetica,sans-Serif" font-size="10.00">~ ForwardVolumeChanged()</text>
<text text-anchor="start" x="776.06" y="-18.5" font-family="Helvetica,sans-Serif" font-size="10.00">~ ReloadSessions()</text>
<text text-anchor="start" x="776.06" y="-7.5" font-family="Helvetica,sans-Serif" font-size="10.00">~ GetAudioSessions()</text>
</a>
</g>
</g>
<!-- Node2 -->
<g id="node2" class="node">
<title>Node2</title>
<g id="a_node2"><a xlink:href="interface_volume_control_1_1_audio_1_1_interfaces_1_1_i_volume_control.html" target="_top" xlink:title="Represents some kind of controllable audio playback instance.">
<polygon fill="none" stroke="black" points="153.06,-755.5 153.06,-856.5 317.06,-856.5 317.06,-755.5 153.06,-755.5"/>
<text text-anchor="middle" x="235.06" y="-844.5" font-family="Helvetica,sans-Serif" font-size="10.00">IVolumeControl</text>
<polyline fill="none" stroke="black" points="153.06,-837.5 317.06,-837.5 "/>
<text text-anchor="start" x="161.06" y="-825.5" font-family="Helvetica,sans-Serif" font-size="10.00">+ PeakMeterValue</text>
<text text-anchor="start" x="161.06" y="-814.5" font-family="Helvetica,sans-Serif" font-size="10.00">+ NativeVolume</text>
<text text-anchor="start" x="161.06" y="-803.5" font-family="Helvetica,sans-Serif" font-size="10.00">+ Volume</text>
<text text-anchor="start" x="161.06" y="-792.5" font-family="Helvetica,sans-Serif" font-size="10.00">+ Muted</text>
<polyline fill="none" stroke="black" points="153.06,-785.5 317.06,-785.5 "/>
<text text-anchor="start" x="161.06" y="-773.5" font-family="Helvetica,sans-Serif" font-size="10.00">~ MakeListDisplayableControl</text>
<text text-anchor="start" x="161.06" y="-762.5" font-family="Helvetica,sans-Serif" font-size="10.00">Template()</text>
</a>
</g>
</g>
<!-- Node2&#45;&gt;Node1 -->
<g id="edge1" class="edge">
<title>Node2&#45;&gt;Node1</title>
<path fill="none" stroke="midnightblue" d="M295.03,-747.37C302.21,-738.4 308.83,-728.83 314.06,-719 349.04,-653.24 308.61,-615.78 353.06,-556 458.18,-414.62 652.76,-329.6 767.88,-289.34"/>
<polygon fill="none" stroke="midnightblue" points="292.32,-745.16 288.61,-755.09 297.7,-749.64 292.32,-745.16"/>
</g>
<!-- Node5 -->
<g id="node5" class="node">
<title>Node5</title>
<g id="a_node5"><a xlink:href="interface_volume_control_1_1_audio_1_1_interfaces_1_1_i_audio_control.html" target="_top" xlink:title="Base interface type for IDevice and IProcess/ISession.">
<polygon fill="none" stroke="black" points="164.56,-661.5 164.56,-718.5 305.56,-718.5 305.56,-661.5 164.56,-661.5"/>
<text text-anchor="middle" x="235.06" y="-706.5" font-family="Helvetica,sans-Serif" font-size="10.00">IAudioControl</text>
<polyline fill="none" stroke="black" points="164.56,-699.5 305.56,-699.5 "/>
<text text-anchor="start" x="172.56" y="-687.5" font-family="Helvetica,sans-Serif" font-size="10.00">+ AudioMeterInformation</text>
<polyline fill="none" stroke="black" points="164.56,-680.5 305.56,-680.5 "/>
<text text-anchor="middle" x="235.06" y="-668.5" font-family="Helvetica,sans-Serif" font-size="10.00"> </text>
</a>
</g>
</g>
<!-- Node2&#45;&gt;Node5 -->
<g id="edge6" class="edge">
<title>Node2&#45;&gt;Node5</title>
<path fill="none" stroke="midnightblue" d="M235.06,-745.23C235.06,-735.92 235.06,-726.71 235.06,-718.59"/>
<polygon fill="none" stroke="midnightblue" points="231.56,-745.33 235.06,-755.33 238.56,-745.33 231.56,-745.33"/>
</g>
<!-- Node3 -->
<g id="node3" class="node">
<title>Node3</title>
<g id="a_node3"><a xlink:href="interface_volume_control_1_1_core_1_1_interfaces_1_1_i_list_displayable.html" target="_top" xlink:title="Represents an object that, when it is a member of a list of similar items, can be displayed in the Li...">
<polygon fill="none" stroke="black" points="57.56,-893.5 57.56,-972.5 162.56,-972.5 162.56,-893.5 57.56,-893.5"/>
<text text-anchor="middle" x="110.06" y="-960.5" font-family="Helvetica,sans-Serif" font-size="10.00">IListDisplayable</text>
<polyline fill="none" stroke="black" points="57.56,-953.5 162.56,-953.5 "/>
<text text-anchor="start" x="65.56" y="-941.5" font-family="Helvetica,sans-Serif" font-size="10.00">+ DisplayText</text>
<text text-anchor="start" x="65.56" y="-930.5" font-family="Helvetica,sans-Serif" font-size="10.00">+ DisplayControls</text>
<text text-anchor="start" x="65.56" y="-919.5" font-family="Helvetica,sans-Serif" font-size="10.00">+ DisplayIcon</text>
<polyline fill="none" stroke="black" points="57.56,-912.5 162.56,-912.5 "/>
<text text-anchor="middle" x="110.06" y="-900.5" font-family="Helvetica,sans-Serif" font-size="10.00"> </text>
</a>
</g>
</g>
<!-- Node3&#45;&gt;Node1 -->
<g id="edge3" class="edge">
<title>Node3&#45;&gt;Node1</title>
<path fill="none" stroke="midnightblue" d="M78.52,-884.74C52.76,-843.11 18.35,-779.81 4.06,-719 -16.35,-632.19 45.3,-603.04 121.06,-556 336.57,-422.2 623.13,-328.57 767.93,-286.32"/>
<polygon fill="none" stroke="midnightblue" points="75.6,-886.67 83.87,-893.28 81.53,-882.95 75.6,-886.67"/>
</g>
<!-- Node3&#45;&gt;Node2 -->
<g id="edge2" class="edge">
<title>Node3&#45;&gt;Node2</title>
<path fill="none" stroke="midnightblue" d="M155.81,-886.25C165.43,-876.63 175.61,-866.44 185.37,-856.69"/>
<polygon fill="none" stroke="midnightblue" points="153.18,-883.93 148.58,-893.48 158.13,-888.88 153.18,-883.93"/>
</g>
<!-- Node4 -->
<g id="node4" class="node">
<title>Node4</title>
<g id="a_node4"><a xlink:href="interface_volume_control_1_1_audio_1_1_interfaces_1_1_i_device.html" target="_top" xlink:title="Represents an audio device.">
<polygon fill="none" stroke="black" points="199.06,-556.5 199.06,-624.5 271.06,-624.5 271.06,-556.5 199.06,-556.5"/>
<text text-anchor="middle" x="235.06" y="-612.5" font-family="Helvetica,sans-Serif" font-size="10.00">IDevice</text>
<polyline fill="none" stroke="black" points="199.06,-605.5 271.06,-605.5 "/>
<text text-anchor="start" x="207.06" y="-593.5" font-family="Helvetica,sans-Serif" font-size="10.00">+ Name</text>
<text text-anchor="start" x="207.06" y="-582.5" font-family="Helvetica,sans-Serif" font-size="10.00">+ DeviceID</text>
<polyline fill="none" stroke="black" points="199.06,-575.5 271.06,-575.5 "/>
<text text-anchor="middle" x="235.06" y="-563.5" font-family="Helvetica,sans-Serif" font-size="10.00"> </text>
</a>
</g>
</g>
<!-- Node4&#45;&gt;Node1 -->
<g id="edge4" class="edge">
<title>Node4&#45;&gt;Node1</title>
<path fill="none" stroke="midnightblue" d="M280.49,-565.62C382.59,-511.96 631.88,-380.93 767.87,-309.45"/>
<polygon fill="none" stroke="midnightblue" points="278.59,-562.67 271.36,-570.42 281.84,-568.86 278.59,-562.67"/>
</g>
<!-- Node5&#45;&gt;Node4 -->
<g id="edge5" class="edge">
<title>Node5&#45;&gt;Node4</title>
<path fill="none" stroke="midnightblue" d="M235.06,-651.06C235.06,-642.39 235.06,-633.24 235.06,-624.79"/>
<polygon fill="none" stroke="midnightblue" points="231.56,-651.32 235.06,-661.32 238.56,-651.32 231.56,-651.32"/>
</g>
<!-- Node6 -->
<g id="node6" class="node">
<title>Node6</title>
<g id="a_node6"><a xlink:title=" ">
<polygon fill="none" stroke="#bfbfbf" points="13.56,-661.5 13.56,-718.5 146.56,-718.5 146.56,-661.5 13.56,-661.5"/>
<text text-anchor="middle" x="80.06" y="-706.5" font-family="Helvetica,sans-Serif" font-size="10.00">INotifyPropertyChanged</text>
<polyline fill="none" stroke="#bfbfbf" points="13.56,-699.5 146.56,-699.5 "/>
<text text-anchor="middle" x="80.06" y="-687.5" font-family="Helvetica,sans-Serif" font-size="10.00"> </text>
<polyline fill="none" stroke="#bfbfbf" points="13.56,-680.5 146.56,-680.5 "/>
<text text-anchor="middle" x="80.06" y="-668.5" font-family="Helvetica,sans-Serif" font-size="10.00"> </text>
</a>
</g>
</g>
<!-- Node6&#45;&gt;Node1 -->
<g id="edge21" class="edge">
<title>Node6&#45;&gt;Node1</title>
<path fill="none" stroke="midnightblue" d="M102.87,-652.98C122.91,-623.71 154.38,-582.97 190.06,-556 373.32,-417.47 631.8,-327.5 767.92,-286.58"/>
<polygon fill="none" stroke="midnightblue" points="99.96,-651.05 97.28,-661.3 105.76,-654.95 99.96,-651.05"/>
</g>
<!-- Node6&#45;&gt;Node4 -->
<g id="edge7" class="edge">
<title>Node6&#45;&gt;Node4</title>
<path fill="none" stroke="midnightblue" d="M132.59,-655.95C154.46,-642.2 179.3,-626.57 199.04,-614.15"/>
<polygon fill="none" stroke="midnightblue" points="130.66,-653.03 124.06,-661.32 134.39,-658.96 130.66,-653.03"/>
</g>
<!-- Node7 -->
<g id="node7" class="node">
<title>Node7</title>
<g id="a_node7"><a xlink:title=" ">
<polygon fill="none" stroke="#bfbfbf" points="362.06,-562 362.06,-619 436.06,-619 436.06,-562 362.06,-562"/>
<text text-anchor="middle" x="399.06" y="-607" font-family="Helvetica,sans-Serif" font-size="10.00">IDisposable</text>
<polyline fill="none" stroke="#bfbfbf" points="362.06,-600 436.06,-600 "/>
<text text-anchor="middle" x="399.06" y="-588" font-family="Helvetica,sans-Serif" font-size="10.00"> </text>
<polyline fill="none" stroke="#bfbfbf" points="362.06,-581 436.06,-581 "/>
<text text-anchor="middle" x="399.06" y="-569" font-family="Helvetica,sans-Serif" font-size="10.00"> </text>
</a>
</g>
</g>
<!-- Node7&#45;&gt;Node1 -->
<g id="edge8" class="edge">
<title>Node7&#45;&gt;Node1</title>
<path fill="none" stroke="midnightblue" d="M444.52,-556.39C444.7,-556.26 444.88,-556.13 445.06,-556 555.74,-476.36 683.71,-385.59 767.95,-326.02"/>
<polygon fill="none" stroke="midnightblue" points="442.25,-553.71 436.19,-562.4 446.35,-559.39 442.25,-553.71"/>
</g>
<!-- Node8 -->
<g id="node8" class="node">
<title>Node8</title>
<g id="a_node8"><a xlink:title=" ">
<polygon fill="none" stroke="#bfbfbf" points="454.06,-562 454.06,-619 606.06,-619 606.06,-562 454.06,-562"/>
<text text-anchor="middle" x="530.06" y="-607" font-family="Helvetica,sans-Serif" font-size="10.00">IEquatable&lt; AudioDevice &gt;</text>
<polyline fill="none" stroke="#bfbfbf" points="454.06,-600 606.06,-600 "/>
<text text-anchor="middle" x="530.06" y="-588" font-family="Helvetica,sans-Serif" font-size="10.00"> </text>
<polyline fill="none" stroke="#bfbfbf" points="454.06,-581 606.06,-581 "/>
<text text-anchor="middle" x="530.06" y="-569" font-family="Helvetica,sans-Serif" font-size="10.00"> </text>
</a>
</g>
</g>
<!-- Node8&#45;&gt;Node1 -->
<g id="edge9" class="edge">
<title>Node8&#45;&gt;Node1</title>
<path fill="none" stroke="midnightblue" d="M565.25,-554.47C613.17,-506.77 700.67,-419.66 767.94,-352.7"/>
<polygon fill="none" stroke="midnightblue" points="562.53,-552.24 557.91,-561.78 567.47,-557.2 562.53,-552.24"/>
</g>
<!-- Node9 -->
<g id="node9" class="node">
<title>Node9</title>
<g id="a_node9"><a xlink:title=" ">
<polygon fill="none" stroke="#bfbfbf" points="624.06,-562 624.06,-619 752.06,-619 752.06,-562 624.06,-562"/>
<text text-anchor="middle" x="688.06" y="-607" font-family="Helvetica,sans-Serif" font-size="10.00">IEquatable&lt; IDevice &gt;</text>
<polyline fill="none" stroke="#bfbfbf" points="624.06,-600 752.06,-600 "/>
<text text-anchor="middle" x="688.06" y="-588" font-family="Helvetica,sans-Serif" font-size="10.00"> </text>
<polyline fill="none" stroke="#bfbfbf" points="624.06,-581 752.06,-581 "/>
<text text-anchor="middle" x="688.06" y="-569" font-family="Helvetica,sans-Serif" font-size="10.00"> </text>
</a>
</g>
</g>
<!-- Node9&#45;&gt;Node1 -->
<g id="edge10" class="edge">
<title>Node9&#45;&gt;Node1</title>
<path fill="none" stroke="midnightblue" d="M707.25,-552.85C722.45,-523.81 744.9,-480.94 767.94,-436.94"/>
<polygon fill="none" stroke="midnightblue" points="704.11,-551.29 702.57,-561.78 710.31,-554.54 704.11,-551.29"/>
</g>
<!-- Node10 -->
<g id="node10" class="node">
<title>Node10</title>
<g id="a_node10"><a xlink:title=" ">
<polygon fill="none" stroke="#bfbfbf" points="770.56,-562 770.56,-619 807.56,-619 807.56,-562 770.56,-562"/>
<text text-anchor="middle" x="789.06" y="-607" font-family="Helvetica,sans-Serif" font-size="10.00">IList</text>
<polyline fill="none" stroke="#bfbfbf" points="770.56,-600 807.56,-600 "/>
<text text-anchor="middle" x="789.06" y="-588" font-family="Helvetica,sans-Serif" font-size="10.00"> </text>
<polyline fill="none" stroke="#bfbfbf" points="770.56,-581 807.56,-581 "/>
<text text-anchor="middle" x="789.06" y="-569" font-family="Helvetica,sans-Serif" font-size="10.00"> </text>
</a>
</g>
</g>
<!-- Node10&#45;&gt;Node1 -->
<g id="edge11" class="edge">
<title>Node10&#45;&gt;Node1</title>
<path fill="none" stroke="midnightblue" d="M797.22,-551.74C799.26,-542.3 801.6,-531.45 804.16,-519.61"/>
<polygon fill="none" stroke="midnightblue" points="793.74,-551.26 795.05,-561.78 800.58,-552.74 793.74,-551.26"/>
</g>
<!-- Node11 -->
<g id="node11" class="node">
<title>Node11</title>
<g id="a_node11"><a xlink:title=" ">
<polygon fill="none" stroke="#bfbfbf" points="826.06,-562 826.06,-619 894.06,-619 894.06,-562 826.06,-562"/>
<text text-anchor="middle" x="860.06" y="-607" font-family="Helvetica,sans-Serif" font-size="10.00">ICollection</text>
<polyline fill="none" stroke="#bfbfbf" points="826.06,-600 894.06,-600 "/>
<text text-anchor="middle" x="860.06" y="-588" font-family="Helvetica,sans-Serif" font-size="10.00"> </text>
<polyline fill="none" stroke="#bfbfbf" points="826.06,-581 894.06,-581 "/>
<text text-anchor="middle" x="860.06" y="-569" font-family="Helvetica,sans-Serif" font-size="10.00"> </text>
</a>
</g>
</g>
<!-- Node11&#45;&gt;Node1 -->
<g id="edge12" class="edge">
<title>Node11&#45;&gt;Node1</title>
<path fill="none" stroke="midnightblue" d="M860.06,-551.74C860.06,-542.3 860.06,-531.45 860.06,-519.61"/>
<polygon fill="none" stroke="midnightblue" points="856.56,-551.78 860.06,-561.78 863.56,-551.78 856.56,-551.78"/>
</g>
<!-- Node12 -->
<g id="node12" class="node">
<title>Node12</title>
<g id="a_node12"><a xlink:title=" ">
<polygon fill="none" stroke="#bfbfbf" points="912.06,-562 912.06,-619 990.06,-619 990.06,-562 912.06,-562"/>
<text text-anchor="middle" x="951.06" y="-607" font-family="Helvetica,sans-Serif" font-size="10.00">IEnumerable</text>
<polyline fill="none" stroke="#bfbfbf" points="912.06,-600 990.06,-600 "/>
<text text-anchor="middle" x="951.06" y="-588" font-family="Helvetica,sans-Serif" font-size="10.00"> </text>
<polyline fill="none" stroke="#bfbfbf" points="912.06,-581 990.06,-581 "/>
<text text-anchor="middle" x="951.06" y="-569" font-family="Helvetica,sans-Serif" font-size="10.00"> </text>
</a>
</g>
</g>
<!-- Node12&#45;&gt;Node1 -->
<g id="edge13" class="edge">
<title>Node12&#45;&gt;Node1</title>
<path fill="none" stroke="midnightblue" d="M940.68,-552.05C938.05,-542.54 935.01,-531.58 931.7,-519.61"/>
<polygon fill="none" stroke="midnightblue" points="937.34,-553.07 943.38,-561.78 944.08,-551.2 937.34,-553.07"/>
</g>
<!-- Node13 -->
<g id="node13" class="node">
<title>Node13</title>
<g id="a_node13"><a xlink:title=" ">
<polygon fill="none" stroke="#bfbfbf" points="1008.56,-562 1008.56,-619 1133.56,-619 1133.56,-562 1008.56,-562"/>
<text text-anchor="middle" x="1071.06" y="-607" font-family="Helvetica,sans-Serif" font-size="10.00">IList&lt; AudioSession &gt;</text>
<polyline fill="none" stroke="#bfbfbf" points="1008.56,-600 1133.56,-600 "/>
<text text-anchor="middle" x="1071.06" y="-588" font-family="Helvetica,sans-Serif" font-size="10.00"> </text>
<polyline fill="none" stroke="#bfbfbf" points="1008.56,-581 1133.56,-581 "/>
<text text-anchor="middle" x="1071.06" y="-569" font-family="Helvetica,sans-Serif" font-size="10.00"> </text>
</a>
</g>
</g>
<!-- Node13&#45;&gt;Node1 -->
<g id="edge14" class="edge">
<title>Node13&#45;&gt;Node1</title>
<path fill="none" stroke="midnightblue" d="M1047.66,-553.07C1024.45,-516.93 987.37,-459.21 952.29,-404.59"/>
<polygon fill="none" stroke="midnightblue" points="1044.9,-555.25 1053.25,-561.78 1050.79,-551.47 1044.9,-555.25"/>
</g>
<!-- Node14 -->
<g id="node14" class="node">
<title>Node14</title>
<g id="a_node14"><a xlink:title=" ">
<polygon fill="none" stroke="#bfbfbf" points="1152.06,-562 1152.06,-619 1330.06,-619 1330.06,-562 1152.06,-562"/>
<text text-anchor="middle" x="1241.06" y="-607" font-family="Helvetica,sans-Serif" font-size="10.00">IImmutableList&lt; AudioSession &gt;</text>
<polyline fill="none" stroke="#bfbfbf" points="1152.06,-600 1330.06,-600 "/>
<text text-anchor="middle" x="1241.06" y="-588" font-family="Helvetica,sans-Serif" font-size="10.00"> </text>
<polyline fill="none" stroke="#bfbfbf" points="1152.06,-581 1330.06,-581 "/>
<text text-anchor="middle" x="1241.06" y="-569" font-family="Helvetica,sans-Serif" font-size="10.00"> </text>
</a>
</g>
</g>
<!-- Node14&#45;&gt;Node1 -->
<g id="edge15" class="edge">
<title>Node14&#45;&gt;Node1</title>
<path fill="none" stroke="midnightblue" d="M1200.98,-554.95C1142.35,-504.39 1031.52,-408.84 952.14,-340.39"/>
<polygon fill="none" stroke="midnightblue" points="1199.04,-557.9 1208.9,-561.78 1203.61,-552.59 1199.04,-557.9"/>
</g>
<!-- Node15 -->
<g id="node15" class="node">
<title>Node15</title>
<g id="a_node15"><a xlink:title=" ">
<polygon fill="none" stroke="#bfbfbf" points="1348.06,-562 1348.06,-619 1504.06,-619 1504.06,-562 1348.06,-562"/>
<text text-anchor="middle" x="1426.06" y="-607" font-family="Helvetica,sans-Serif" font-size="10.00">ICollection&lt; AudioSession &gt;</text>
<polyline fill="none" stroke="#bfbfbf" points="1348.06,-600 1504.06,-600 "/>
<text text-anchor="middle" x="1426.06" y="-588" font-family="Helvetica,sans-Serif" font-size="10.00"> </text>
<polyline fill="none" stroke="#bfbfbf" points="1348.06,-581 1504.06,-581 "/>
<text text-anchor="middle" x="1426.06" y="-569" font-family="Helvetica,sans-Serif" font-size="10.00"> </text>
</a>
</g>
</g>
<!-- Node15&#45;&gt;Node1 -->
<g id="edge16" class="edge">
<title>Node15&#45;&gt;Node1</title>
<path fill="none" stroke="midnightblue" d="M1369.44,-556.64C1271.7,-499.91 1070.43,-383.09 952.25,-314.51"/>
<polygon fill="none" stroke="midnightblue" points="1367.88,-559.78 1378.29,-561.78 1371.4,-553.73 1367.88,-559.78"/>
</g>
<!-- Node16 -->
<g id="node16" class="node">
<title>Node16</title>
<g id="a_node16"><a xlink:title=" ">
<polygon fill="none" stroke="#bfbfbf" points="1522.06,-562 1522.06,-619 1688.06,-619 1688.06,-562 1522.06,-562"/>
<text text-anchor="middle" x="1605.06" y="-607" font-family="Helvetica,sans-Serif" font-size="10.00">IEnumerable&lt; AudioSession &gt;</text>
<polyline fill="none" stroke="#bfbfbf" points="1522.06,-600 1688.06,-600 "/>
<text text-anchor="middle" x="1605.06" y="-588" font-family="Helvetica,sans-Serif" font-size="10.00"> </text>
<polyline fill="none" stroke="#bfbfbf" points="1522.06,-581 1688.06,-581 "/>
<text text-anchor="middle" x="1605.06" y="-569" font-family="Helvetica,sans-Serif" font-size="10.00"> </text>
</a>
</g>
</g>
<!-- Node16&#45;&gt;Node1 -->
<g id="edge17" class="edge">
<title>Node16&#45;&gt;Node1</title>
<path fill="none" stroke="midnightblue" d="M1532.98,-557.72C1396.94,-497.73 1102.51,-367.91 952.28,-301.67"/>
<polygon fill="none" stroke="midnightblue" points="1531.94,-561.08 1542.5,-561.92 1534.76,-554.68 1531.94,-561.08"/>
</g>
<!-- Node17 -->
<g id="node17" class="node">
<title>Node17</title>
<g id="a_node17"><a xlink:title=" ">
<polygon fill="none" stroke="#bfbfbf" points="1706.06,-562 1706.06,-619 1878.06,-619 1878.06,-562 1706.06,-562"/>
<text text-anchor="middle" x="1792.06" y="-607" font-family="Helvetica,sans-Serif" font-size="10.00">IReadOnlyList&lt; AudioSession &gt;</text>
<polyline fill="none" stroke="#bfbfbf" points="1706.06,-600 1878.06,-600 "/>
<text text-anchor="middle" x="1792.06" y="-588" font-family="Helvetica,sans-Serif" font-size="10.00"> </text>
<polyline fill="none" stroke="#bfbfbf" points="1706.06,-581 1878.06,-581 "/>
<text text-anchor="middle" x="1792.06" y="-569" font-family="Helvetica,sans-Serif" font-size="10.00"> </text>
</a>
</g>
</g>
<!-- Node17&#45;&gt;Node1 -->
<g id="edge18" class="edge">
<title>Node17&#45;&gt;Node1</title>
<path fill="none" stroke="midnightblue" d="M1704.4,-558.59C1701.93,-557.72 1699.48,-556.85 1697.06,-556 1426.42,-460.59 1106.55,-347.86 952.33,-293.52"/>
<polygon fill="none" stroke="midnightblue" points="1703.44,-561.96 1714.03,-561.99 1705.77,-555.36 1703.44,-561.96"/>
</g>
<!-- Node18 -->
<g id="node18" class="node">
<title>Node18</title>
<g id="a_node18"><a xlink:title=" ">
<polygon fill="none" stroke="#bfbfbf" points="1896.06,-556.5 1896.06,-624.5 2012.06,-624.5 2012.06,-556.5 1896.06,-556.5"/>
<text text-anchor="start" x="1904.06" y="-612.5" font-family="Helvetica,sans-Serif" font-size="10.00">IReadOnlyCollection</text>
<text text-anchor="middle" x="1954.06" y="-601.5" font-family="Helvetica,sans-Serif" font-size="10.00">&lt; AudioSession &gt;</text>
<polyline fill="none" stroke="#bfbfbf" points="1896.06,-594.5 2012.06,-594.5 "/>
<text text-anchor="middle" x="1954.06" y="-582.5" font-family="Helvetica,sans-Serif" font-size="10.00"> </text>
<polyline fill="none" stroke="#bfbfbf" points="1896.06,-575.5 2012.06,-575.5 "/>
<text text-anchor="middle" x="1954.06" y="-563.5" font-family="Helvetica,sans-Serif" font-size="10.00"> </text>
</a>
</g>
</g>
<!-- Node18&#45;&gt;Node1 -->
<g id="edge19" class="edge">
<title>Node18&#45;&gt;Node1</title>
<path fill="none" stroke="midnightblue" d="M1886.53,-555.99C1544.01,-423.37 1132.67,-322.77 952.24,-281.45"/>
<polygon fill="none" stroke="midnightblue" points="1885.29,-559.26 1895.88,-559.62 1887.83,-552.74 1885.29,-559.26"/>
</g>
<!-- Node19 -->
<g id="node19" class="node">
<title>Node19</title>
<g id="a_node19"><a xlink:title=" ">
<polygon fill="none" stroke="#bfbfbf" points="2030.06,-562 2030.06,-619 2170.06,-619 2170.06,-562 2030.06,-562"/>
<text text-anchor="middle" x="2100.06" y="-607" font-family="Helvetica,sans-Serif" font-size="10.00">INotifyCollectionChanged</text>
<polyline fill="none" stroke="#bfbfbf" points="2030.06,-600 2170.06,-600 "/>
<text text-anchor="middle" x="2100.06" y="-588" font-family="Helvetica,sans-Serif" font-size="10.00"> </text>
<polyline fill="none" stroke="#bfbfbf" points="2030.06,-581 2170.06,-581 "/>
<text text-anchor="middle" x="2100.06" y="-569" font-family="Helvetica,sans-Serif" font-size="10.00"> </text>
</a>
</g>
</g>
<!-- Node19&#45;&gt;Node1 -->
<g id="edge20" class="edge">
<title>Node19&#45;&gt;Node1</title>
<path fill="none" stroke="midnightblue" d="M2027.92,-558.39C2025.61,-557.56 2023.32,-556.76 2021.06,-556 1631.08,-424.62 1150.33,-320.09 952.12,-279.4"/>
<polygon fill="none" stroke="midnightblue" points="2026.84,-561.72 2037.43,-561.93 2029.28,-555.16 2026.84,-561.72"/>
</g>
</g>
</svg>
        <g id="navigator" transform="translate(0 0)" fill="#404254">
                <rect fill="#f2f5e9" fill-opacity="0.5" stroke="#606060" stroke-width=".5" x="0" y="0" width="60" height="60"/>
                <use id="zoomplus" xlink:href="#zoomPlus" x="17" y="9" onmousedown="handleZoom(evt,'in')"/>
                <use id="zoomminus" xlink:href="#zoomMin" x="42" y="9" onmousedown="handleZoom(evt,'out')"/>
                <use id="reset" xlink:href="#resetDef" x="30" y="36" onmousedown="handleReset()"/>
                <g id="arrowUp" xlink:href="#dirArrow" transform="translate(30 24)" onmousedown="handlePan(0,-1)">
                  <use xlink:href="#rim" fill="#404040">
                        <set attributeName="fill" to="#808080" begin="arrowUp.mouseover" end="arrowUp.mouseout"/>
                  </use>
                  <path fill="none" stroke="white" stroke-width="1.5" d="M0,-3.0v7 M-2.5,-0.5L0,-3.0L2.5,-0.5"/>
                </g>
                <g id="arrowRight" xlink:href="#dirArrow" transform="rotate(90) translate(36 -43)" onmousedown="handlePan(1,0)">
                  <use xlink:href="#rim" fill="#404040">
                        <set attributeName="fill" to="#808080" begin="arrowRight.mouseover" end="arrowRight.mouseout"/>
                  </use>
                  <path fill="none" stroke="white" stroke-width="1.5" d="M0,-3.0v7 M-2.5,-0.5L0,-3.0L2.5,-0.5"/>
                </g>
                <g id="arrowDown" xlink:href="#dirArrow" transform="rotate(180) translate(-30 -48)" onmousedown="handlePan(0,1)">
                  <use xlink:href="#rim" fill="#404040">
                        <set attributeName="fill" to="#808080" begin="arrowDown.mouseover" end="arrowDown.mouseout"/>
                  </use>
                  <path fill="none" stroke="white" stroke-width="1.5" d="M0,-3.0v7 M-2.5,-0.5L0,-3.0L2.5,-0.5"/>
                </g>
                <g id="arrowLeft" xlink:href="#dirArrow" transform="rotate(270) translate(-36 17)" onmousedown="handlePan(-1,0)">
                  <use xlink:href="#rim" fill="#404040">
                        <set attributeName="fill" to="#808080" begin="arrowLeft.mouseover" end="arrowLeft.mouseout"/>
                  </use>
                  <path fill="none" stroke="white" stroke-width="1.5" d="M0,-3.0v7 M-2.5,-0.5L0,-3.0L2.5,-0.5"/>
                </g>
        </g>
        <svg viewBox="0 0 15 15" width="100%" height="30px" preserveAspectRatio="xMaxYMin meet">
         <g id="arrow_out" transform="scale(0.3 0.3)">
          <a xlink:href="class_volume_control_1_1_audio_1_1_audio_device__coll__graph_org.svg" target="_base">
           <rect id="button" ry="5" rx="5" y="6" x="6" height="38" width="38"
                fill="#f2f5e9" fill-opacity="0.5" stroke="#606060" stroke-width="1.0"/>
           <path id="arrow"
             d="M 11.500037,31.436501 C 11.940474,20.09759 22.043105,11.32322 32.158766,21.979434 L 37.068811,17.246167 C 37.068811,17.246167 37.088388,32 37.088388,32 L 22.160133,31.978069 C 22.160133,31.978069 26.997745,27.140456 26.997745,27.140456 C 18.528582,18.264221 13.291696,25.230495 11.500037,31.436501 z"
             style="fill:#404040;"/>
          </a>
         </g>
        </svg>
</svg>
