<?xml version="1.0" encoding="UTF-8" standalone="no"?>
<!DOCTYPE svg PUBLIC "-//W3C//DTD SVG 1.1//EN"
 "http://www.w3.org/Graphics/SVG/1.1/DTD/svg11.dtd">
<!-- Generated by graphviz version 2.43.0 (0)
 -->
<!-- Title: VolumeControl.SDK.VCAPI.ShowSessionListNotification Pages: 1 -->
<svg width="403pt" height="110pt"
 viewBox="0.00 0.00 403.00 110.00" xmlns="http://www.w3.org/2000/svg" xmlns:xlink="http://www.w3.org/1999/xlink">
<g id="graph0" class="graph" transform="scale(1 1) rotate(0) translate(4 106)">
<title>VolumeControl.SDK.VCAPI.ShowSessionListNotification</title>
<!-- Node1 -->
<g id="node1" class="node">
<title>Node1</title>
<g id="a_node1"><a xlink:title="Display the SessionListNotification window.">
<polygon fill="#bfbfbf" stroke="black" points="0,-36 0,-66 154,-66 154,-36 0,-36"/>
<text text-anchor="start" x="8" y="-54" font-family="Helvetica,sans-Serif" font-size="10.00">VolumeControl.SDK.VCAPI.</text>
<text text-anchor="middle" x="77" y="-43" font-family="Helvetica,sans-Serif" font-size="10.00">ShowSessionListNotification</text>
</a>
</g>
</g>
<!-- Node2 -->
<g id="node2" class="node">
<title>Node2</title>
<g id="a_node2"><a xlink:href="class_volume_control_1_1_core_audio_1_1_audio_session_multi_selector.html#a59c57daafb6d319b9a9e91ab8029d04a" target="_top" xlink:title="Gets whether the session notification would be empty after applying all filters.">
<polygon fill="none" stroke="black" points="190,-60.5 190,-101.5 395,-101.5 395,-60.5 190,-60.5"/>
<text text-anchor="start" x="198" y="-89.5" font-family="Helvetica,sans-Serif" font-size="10.00">VolumeControl.CoreAudio.</text>
<text text-anchor="start" x="198" y="-78.5" font-family="Helvetica,sans-Serif" font-size="10.00">AudioSessionMultiSelector.Notification</text>
<text text-anchor="middle" x="292.5" y="-67.5" font-family="Helvetica,sans-Serif" font-size="10.00">IsEmpty</text>
</a>
</g>
</g>
<!-- Node1&#45;&gt;Node2 -->
<g id="edge1" class="edge">
<title>Node1&#45;&gt;Node2</title>
<path fill="none" stroke="midnightblue" d="M154.17,-61.7C162.52,-62.88 171.14,-64.09 179.81,-65.31"/>
<polygon fill="midnightblue" stroke="midnightblue" points="179.6,-68.81 189.99,-66.74 180.57,-61.88 179.6,-68.81"/>
</g>
<!-- Node3 -->
<g id="node3" class="node">
<title>Node3</title>
<g id="a_node3"><a xlink:href="class_volume_control_1_1_core_audio_1_1_audio_session_multi_selector.html#a34d9287cb61ec8f31b0613208f22caaf" target="_top" xlink:title="Occurs when the ActiveSession is changed for any reason.">
<polygon fill="none" stroke="black" points="203.5,-0.5 203.5,-41.5 381.5,-41.5 381.5,-0.5 203.5,-0.5"/>
<text text-anchor="start" x="211.5" y="-29.5" font-family="Helvetica,sans-Serif" font-size="10.00">VolumeControl.CoreAudio.</text>
<text text-anchor="start" x="211.5" y="-18.5" font-family="Helvetica,sans-Serif" font-size="10.00">AudioSessionMultiSelector.Notify</text>
<text text-anchor="middle" x="292.5" y="-7.5" font-family="Helvetica,sans-Serif" font-size="10.00">ActiveSessionChanged</text>
</a>
</g>
</g>
<!-- Node1&#45;&gt;Node3 -->
<g id="edge2" class="edge">
<title>Node1&#45;&gt;Node3</title>
<path fill="none" stroke="midnightblue" d="M154.17,-40.3C166.87,-38.51 180.19,-36.64 193.34,-34.79"/>
<polygon fill="midnightblue" stroke="midnightblue" points="193.93,-38.25 203.34,-33.39 192.95,-31.31 193.93,-38.25"/>
</g>
</g>
</svg>
