<?xml version="1.0" encoding="UTF-8" standalone="no"?>
<!DOCTYPE svg PUBLIC "-//W3C//DTD SVG 1.1//EN"
 "http://www.w3.org/Graphics/SVG/1.1/DTD/svg11.dtd">
<!-- Generated by graphviz version 2.43.0 (0)
 -->
<!-- Title: VolumeControl.Audio.Collections.AudioSessionCollection Pages: 1 -->
<!--zoomable 1127 -->
<svg id="main" version="1.1" xmlns="http://www.w3.org/2000/svg" xmlns:xlink="http://www.w3.org/1999/xlink" xml:space="preserve" onload="init(evt)">
<style type="text/css"><![CDATA[
.edge:hover path { stroke: red; }
.edge:hover polygon { stroke: red; fill: red; }
]]></style>
<script type="text/javascript"><![CDATA[
var edges = document.getElementsByTagName('g');
if (edges && edges.length) {
  for (var i=0;i<edges.length;i++) {
    if (edges[i].id.substr(0,4)=='edge') {
      edges[i].setAttribute('class','edge');
    }
  }
}
]]></script>
        <defs>
                <circle id="rim" cx="0" cy="0" r="7"/>
                <circle id="rim2" cx="0" cy="0" r="3.5"/>
                <g id="zoomPlus">
                        <use xlink:href="#rim" fill="#404040">
                                <set attributeName="fill" to="#808080" begin="zoomplus.mouseover" end="zoomplus.mouseout"/>
                        </use>
                        <path d="M-4,0h8M0,-4v8" fill="none" stroke="white" stroke-width="1.5" pointer-events="none"/>
                </g>
                <g id="zoomMin">
                        <use xlink:href="#rim" fill="#404040">
                                <set attributeName="fill" to="#808080" begin="zoomminus.mouseover" end="zoomminus.mouseout"/>
                        </use>
                        <path d="M-4,0h8" fill="none" stroke="white" stroke-width="1.5" pointer-events="none"/>
                </g>
                <g id="dirArrow">
                        <path fill="none" stroke="white" stroke-width="1.5" d="M0,-3.0v7 M-2.5,-0.5L0,-3.0L2.5,-0.5"/>
                </g>
               <g id="resetDef">
                       <use xlink:href="#rim2" fill="#404040">
                               <set attributeName="fill" to="#808080" begin="reset.mouseover" end="reset.mouseout"/>
                       </use>
               </g>
        </defs>

<script type="text/javascript">
var viewWidth = 1921;
var viewHeight = 1127;
var sectionId = 'dynsection-1';
</script>
<script xlink:href="svgpan.js"/>
<svg id="graph" class="graph">
<g id="viewport">
<title>VolumeControl.Audio.Collections.AudioSessionCollection</title>
<!-- Node1 -->
<g id="node1" class="node">
<title>Node1</title>
<g id="a_node1"><a xlink:title="AudioSession management container type. &#160;This is implemented as a viewmodel in the AudioAPI class.">
<polygon fill="#bfbfbf" stroke="black" points="492.5,-0.5 492.5,-277.5 671.5,-277.5 671.5,-0.5 492.5,-0.5"/>
<text text-anchor="start" x="500.5" y="-265.5" font-family="Helvetica,sans-Serif" font-size="10.00">VolumeControl.Audio.Collections.</text>
<text text-anchor="middle" x="582" y="-254.5" font-family="Helvetica,sans-Serif" font-size="10.00">AudioSessionCollection</text>
<polyline fill="none" stroke="black" points="492.5,-247.5 671.5,-247.5 "/>
<text text-anchor="start" x="500.5" y="-235.5" font-family="Helvetica,sans-Serif" font-size="10.00">+ Count</text>
<text text-anchor="start" x="500.5" y="-224.5" font-family="Helvetica,sans-Serif" font-size="10.00">+ IsSynchronized</text>
<text text-anchor="start" x="500.5" y="-213.5" font-family="Helvetica,sans-Serif" font-size="10.00">+ SyncRoot</text>
<text text-anchor="start" x="500.5" y="-202.5" font-family="Helvetica,sans-Serif" font-size="10.00">+ IsFixedSize</text>
<text text-anchor="start" x="500.5" y="-191.5" font-family="Helvetica,sans-Serif" font-size="10.00">+ IsReadOnly</text>
<text text-anchor="start" x="500.5" y="-180.5" font-family="Helvetica,sans-Serif" font-size="10.00">+ Items</text>
<text text-anchor="start" x="500.5" y="-169.5" font-family="Helvetica,sans-Serif" font-size="10.00">+ CollectionChanged</text>
<polyline fill="none" stroke="black" points="492.5,-162.5 671.5,-162.5 "/>
<text text-anchor="start" x="500.5" y="-150.5" font-family="Helvetica,sans-Serif" font-size="10.00">+ Remove()</text>
<text text-anchor="start" x="500.5" y="-139.5" font-family="Helvetica,sans-Serif" font-size="10.00">+ CopyTo()</text>
<text text-anchor="start" x="500.5" y="-128.5" font-family="Helvetica,sans-Serif" font-size="10.00">+ GetEnumerator()</text>
<text text-anchor="start" x="500.5" y="-117.5" font-family="Helvetica,sans-Serif" font-size="10.00">+ Add()</text>
<text text-anchor="start" x="500.5" y="-106.5" font-family="Helvetica,sans-Serif" font-size="10.00">+ Clear()</text>
<text text-anchor="start" x="500.5" y="-95.5" font-family="Helvetica,sans-Serif" font-size="10.00">+ Contains()</text>
<text text-anchor="start" x="500.5" y="-84.5" font-family="Helvetica,sans-Serif" font-size="10.00">+ IndexOf()</text>
<text text-anchor="start" x="500.5" y="-73.5" font-family="Helvetica,sans-Serif" font-size="10.00">+ Insert()</text>
<text text-anchor="start" x="500.5" y="-62.5" font-family="Helvetica,sans-Serif" font-size="10.00">+ Remove()</text>
<text text-anchor="start" x="500.5" y="-51.5" font-family="Helvetica,sans-Serif" font-size="10.00">+ RemoveAt()</text>
<text text-anchor="start" x="500.5" y="-40.5" font-family="Helvetica,sans-Serif" font-size="10.00">and 16 more...</text>
<text text-anchor="start" x="500.5" y="-29.5" font-family="Helvetica,sans-Serif" font-size="10.00">~ AudioSessionCollection()</text>
<text text-anchor="start" x="500.5" y="-18.5" font-family="Helvetica,sans-Serif" font-size="10.00">~ RefreshFromDevices()</text>
<text text-anchor="start" x="500.5" y="-7.5" font-family="Helvetica,sans-Serif" font-size="10.00">~ RefreshFromDevices()</text>
</a>
</g>
</g>
<!-- Node2 -->
<g id="node2" class="node">
<title>Node2</title>
<g id="a_node2"><a xlink:title=" ">
<polygon fill="none" stroke="#bfbfbf" points="0,-501.5 0,-558.5 140,-558.5 140,-501.5 0,-501.5"/>
<text text-anchor="middle" x="70" y="-546.5" font-family="Helvetica,sans-Serif" font-size="10.00">INotifyCollectionChanged</text>
<polyline fill="none" stroke="#bfbfbf" points="0,-539.5 140,-539.5 "/>
<text text-anchor="middle" x="70" y="-527.5" font-family="Helvetica,sans-Serif" font-size="10.00"> </text>
<polyline fill="none" stroke="#bfbfbf" points="0,-520.5 140,-520.5 "/>
<text text-anchor="middle" x="70" y="-508.5" font-family="Helvetica,sans-Serif" font-size="10.00"> </text>
</a>
</g>
</g>
<!-- Node2&#45;&gt;Node1 -->
<g id="edge1" class="edge">
<title>Node2&#45;&gt;Node1</title>
<path fill="none" stroke="midnightblue" d="M73.73,-491.37C80.73,-440.47 100.33,-349.86 154,-296 245.83,-203.84 396.37,-165.71 492.25,-150.22"/>
<polygon fill="none" stroke="midnightblue" points="70.26,-490.94 72.46,-501.3 77.2,-491.83 70.26,-490.94"/>
</g>
<!-- Node3 -->
<g id="node3" class="node">
<title>Node3</title>
<g id="a_node3"><a xlink:title=" ">
<polygon fill="none" stroke="#bfbfbf" points="1155.5,-906 1155.5,-963 1288.5,-963 1288.5,-906 1155.5,-906"/>
<text text-anchor="middle" x="1222" y="-951" font-family="Helvetica,sans-Serif" font-size="10.00">INotifyPropertyChanged</text>
<polyline fill="none" stroke="#bfbfbf" points="1155.5,-944 1288.5,-944 "/>
<text text-anchor="middle" x="1222" y="-932" font-family="Helvetica,sans-Serif" font-size="10.00"> </text>
<polyline fill="none" stroke="#bfbfbf" points="1155.5,-925 1288.5,-925 "/>
<text text-anchor="middle" x="1222" y="-913" font-family="Helvetica,sans-Serif" font-size="10.00"> </text>
</a>
</g>
</g>
<!-- Node3&#45;&gt;Node1 -->
<g id="edge2" class="edge">
<title>Node3&#45;&gt;Node1</title>
<path fill="none" stroke="midnightblue" d="M1145.35,-930.91C926.96,-921.76 309.33,-883.03 187,-735 157.98,-699.88 162.56,-363.44 187,-325 253.84,-219.88 397.88,-173.47 492.31,-153.72"/>
<polygon fill="none" stroke="midnightblue" points="1145.31,-934.41 1155.45,-931.32 1145.6,-927.42 1145.31,-934.41"/>
</g>
<!-- Node13 -->
<g id="node13" class="node">
<title>Node13</title>
<g id="a_node13"><a xlink:href="class_volume_control_1_1_audio_1_1_audio_session.html" target="_top" xlink:title="Represents an audio session playing on the system.">
<polygon fill="none" stroke="black" points="1456,-325.5 1456,-734.5 1606,-734.5 1606,-325.5 1456,-325.5"/>
<text text-anchor="start" x="1464" y="-722.5" font-family="Helvetica,sans-Serif" font-size="10.00">VolumeControl.Audio.Audio</text>
<text text-anchor="middle" x="1531" y="-711.5" font-family="Helvetica,sans-Serif" font-size="10.00">Session</text>
<polyline fill="none" stroke="black" points="1456,-704.5 1606,-704.5 "/>
<text text-anchor="start" x="1464" y="-692.5" font-family="Helvetica,sans-Serif" font-size="10.00">+ AudioMeterInformation</text>
<text text-anchor="start" x="1464" y="-681.5" font-family="Helvetica,sans-Serif" font-size="10.00">+ PeakMeterValue</text>
<text text-anchor="start" x="1464" y="-670.5" font-family="Helvetica,sans-Serif" font-size="10.00">+ HashCode</text>
<text text-anchor="start" x="1464" y="-659.5" font-family="Helvetica,sans-Serif" font-size="10.00">+ VolumeController</text>
<text text-anchor="start" x="1464" y="-648.5" font-family="Helvetica,sans-Serif" font-size="10.00">+ State</text>
<text text-anchor="start" x="1464" y="-637.5" font-family="Helvetica,sans-Serif" font-size="10.00">+ IconPath</text>
<text text-anchor="start" x="1464" y="-626.5" font-family="Helvetica,sans-Serif" font-size="10.00">+ Icon</text>
<text text-anchor="start" x="1464" y="-615.5" font-family="Helvetica,sans-Serif" font-size="10.00">+ ProcessIdentifier</text>
<text text-anchor="start" x="1464" y="-604.5" font-family="Helvetica,sans-Serif" font-size="10.00">+ Active</text>
<text text-anchor="start" x="1464" y="-593.5" font-family="Helvetica,sans-Serif" font-size="10.00">+ int</text>
<text text-anchor="start" x="1464" y="-582.5" font-family="Helvetica,sans-Serif" font-size="10.00">+ SessionIdentifier</text>
<text text-anchor="start" x="1464" y="-571.5" font-family="Helvetica,sans-Serif" font-size="10.00">+ SessionInstanceIdentifier</text>
<text text-anchor="start" x="1464" y="-560.5" font-family="Helvetica,sans-Serif" font-size="10.00">+ Icons</text>
<text text-anchor="start" x="1464" y="-549.5" font-family="Helvetica,sans-Serif" font-size="10.00">+ Volume</text>
<text text-anchor="start" x="1464" y="-538.5" font-family="Helvetica,sans-Serif" font-size="10.00">+ NativeVolume</text>
<text text-anchor="start" x="1464" y="-527.5" font-family="Helvetica,sans-Serif" font-size="10.00">+ Muted</text>
<text text-anchor="start" x="1464" y="-516.5" font-family="Helvetica,sans-Serif" font-size="10.00">+ GroupingParam</text>
<text text-anchor="start" x="1464" y="-505.5" font-family="Helvetica,sans-Serif" font-size="10.00">+ DisplayName</text>
<text text-anchor="start" x="1464" y="-494.5" font-family="Helvetica,sans-Serif" font-size="10.00">+ ProcessName</text>
<text text-anchor="start" x="1464" y="-483.5" font-family="Helvetica,sans-Serif" font-size="10.00">+ PID</text>
<text text-anchor="start" x="1464" y="-472.5" font-family="Helvetica,sans-Serif" font-size="10.00">+ IsRunning</text>
<text text-anchor="start" x="1464" y="-461.5" font-family="Helvetica,sans-Serif" font-size="10.00">+ NotificationClient</text>
<text text-anchor="start" x="1464" y="-450.5" font-family="Helvetica,sans-Serif" font-size="10.00">+ Process</text>
<text text-anchor="start" x="1464" y="-439.5" font-family="Helvetica,sans-Serif" font-size="10.00">+ Name</text>
<polyline fill="none" stroke="black" points="1456,-432.5 1606,-432.5 "/>
<text text-anchor="start" x="1464" y="-420.5" font-family="Helvetica,sans-Serif" font-size="10.00">+ GetIcons()</text>
<text text-anchor="start" x="1464" y="-409.5" font-family="Helvetica,sans-Serif" font-size="10.00">+ GetProcess()</text>
<text text-anchor="start" x="1464" y="-398.5" font-family="Helvetica,sans-Serif" font-size="10.00">+ Dispose()</text>
<text text-anchor="start" x="1464" y="-387.5" font-family="Helvetica,sans-Serif" font-size="10.00">+ Equals()</text>
<text text-anchor="start" x="1464" y="-376.5" font-family="Helvetica,sans-Serif" font-size="10.00">+ Equals()</text>
<text text-anchor="start" x="1464" y="-365.5" font-family="Helvetica,sans-Serif" font-size="10.00">+ Equals()</text>
<text text-anchor="start" x="1464" y="-354.5" font-family="Helvetica,sans-Serif" font-size="10.00">+ GetHashCode()</text>
<text text-anchor="start" x="1464" y="-343.5" font-family="Helvetica,sans-Serif" font-size="10.00">~ AudioSession()</text>
<text text-anchor="start" x="1464" y="-332.5" font-family="Helvetica,sans-Serif" font-size="10.00">~ NotifyExited()</text>
</a>
</g>
</g>
<!-- Node3&#45;&gt;Node13 -->
<g id="edge20" class="edge">
<title>Node3&#45;&gt;Node13</title>
<path fill="none" stroke="midnightblue" d="M1217.88,-895.54C1216.16,-858.83 1219.94,-804.18 1252,-772 1314.26,-709.5 1378.62,-790.73 1447,-735 1449.97,-732.58 1452.83,-730.04 1455.6,-727.39"/>
<polygon fill="none" stroke="midnightblue" points="1214.41,-896.09 1218.53,-905.85 1221.4,-895.65 1214.41,-896.09"/>
</g>
<!-- Node17 -->
<g id="node17" class="node">
<title>Node17</title>
<g id="a_node17"><a xlink:href="interface_volume_control_1_1_audio_1_1_interfaces_1_1_i_session.html" target="_top" xlink:title="Represents an audio session.">
<polygon fill="none" stroke="black" points="1261,-772.5 1261,-851.5 1411,-851.5 1411,-772.5 1261,-772.5"/>
<text text-anchor="middle" x="1336" y="-839.5" font-family="Helvetica,sans-Serif" font-size="10.00">ISession</text>
<polyline fill="none" stroke="black" points="1261,-832.5 1411,-832.5 "/>
<text text-anchor="start" x="1269" y="-820.5" font-family="Helvetica,sans-Serif" font-size="10.00">+ Name</text>
<text text-anchor="start" x="1269" y="-809.5" font-family="Helvetica,sans-Serif" font-size="10.00">+ SessionIdentifier</text>
<text text-anchor="start" x="1269" y="-798.5" font-family="Helvetica,sans-Serif" font-size="10.00">+ SessionInstanceIdentifier</text>
<polyline fill="none" stroke="black" points="1261,-791.5 1411,-791.5 "/>
<text text-anchor="middle" x="1336" y="-779.5" font-family="Helvetica,sans-Serif" font-size="10.00"> </text>
</a>
</g>
</g>
<!-- Node3&#45;&gt;Node17 -->
<g id="edge19" class="edge">
<title>Node3&#45;&gt;Node17</title>
<path fill="none" stroke="midnightblue" d="M1255.14,-898.47C1268.93,-883.89 1285,-866.9 1299.17,-851.93"/>
<polygon fill="none" stroke="midnightblue" points="1252.48,-896.19 1248.15,-905.85 1257.57,-901 1252.48,-896.19"/>
</g>
<!-- Node4 -->
<g id="node4" class="node">
<title>Node4</title>
<g id="a_node4"><a xlink:title=" ">
<polygon fill="none" stroke="#bfbfbf" points="196.5,-501.5 196.5,-558.5 233.5,-558.5 233.5,-501.5 196.5,-501.5"/>
<text text-anchor="middle" x="215" y="-546.5" font-family="Helvetica,sans-Serif" font-size="10.00">IList</text>
<polyline fill="none" stroke="#bfbfbf" points="196.5,-539.5 233.5,-539.5 "/>
<text text-anchor="middle" x="215" y="-527.5" font-family="Helvetica,sans-Serif" font-size="10.00"> </text>
<polyline fill="none" stroke="#bfbfbf" points="196.5,-520.5 233.5,-520.5 "/>
<text text-anchor="middle" x="215" y="-508.5" font-family="Helvetica,sans-Serif" font-size="10.00"> </text>
</a>
</g>
</g>
<!-- Node4&#45;&gt;Node1 -->
<g id="edge3" class="edge">
<title>Node4&#45;&gt;Node1</title>
<path fill="none" stroke="midnightblue" d="M210.6,-491.25C207.49,-447.36 208.78,-374.61 243,-325 301.82,-239.73 413.11,-190 492.12,-163.97"/>
<polygon fill="none" stroke="midnightblue" points="207.13,-491.81 211.44,-501.49 214.11,-491.24 207.13,-491.81"/>
</g>
<!-- Node5 -->
<g id="node5" class="node">
<title>Node5</title>
<g id="a_node5"><a xlink:title=" ">
<polygon fill="none" stroke="#bfbfbf" points="252,-501.5 252,-558.5 320,-558.5 320,-501.5 252,-501.5"/>
<text text-anchor="middle" x="286" y="-546.5" font-family="Helvetica,sans-Serif" font-size="10.00">ICollection</text>
<polyline fill="none" stroke="#bfbfbf" points="252,-539.5 320,-539.5 "/>
<text text-anchor="middle" x="286" y="-527.5" font-family="Helvetica,sans-Serif" font-size="10.00"> </text>
<polyline fill="none" stroke="#bfbfbf" points="252,-520.5 320,-520.5 "/>
<text text-anchor="middle" x="286" y="-508.5" font-family="Helvetica,sans-Serif" font-size="10.00"> </text>
</a>
</g>
</g>
<!-- Node5&#45;&gt;Node1 -->
<g id="edge4" class="edge">
<title>Node5&#45;&gt;Node1</title>
<path fill="none" stroke="midnightblue" d="M286.06,-491.11C287.83,-447.69 296.07,-375.98 329,-325 368.79,-263.41 436.79,-215.4 492.27,-183.74"/>
<polygon fill="none" stroke="midnightblue" points="282.56,-491.14 285.75,-501.24 289.56,-491.36 282.56,-491.14"/>
</g>
<!-- Node6 -->
<g id="node6" class="node">
<title>Node6</title>
<g id="a_node6"><a xlink:title=" ">
<polygon fill="none" stroke="#bfbfbf" points="338,-501.5 338,-558.5 416,-558.5 416,-501.5 338,-501.5"/>
<text text-anchor="middle" x="377" y="-546.5" font-family="Helvetica,sans-Serif" font-size="10.00">IEnumerable</text>
<polyline fill="none" stroke="#bfbfbf" points="338,-539.5 416,-539.5 "/>
<text text-anchor="middle" x="377" y="-527.5" font-family="Helvetica,sans-Serif" font-size="10.00"> </text>
<polyline fill="none" stroke="#bfbfbf" points="338,-520.5 416,-520.5 "/>
<text text-anchor="middle" x="377" y="-508.5" font-family="Helvetica,sans-Serif" font-size="10.00"> </text>
</a>
</g>
</g>
<!-- Node6&#45;&gt;Node1 -->
<g id="edge5" class="edge">
<title>Node6&#45;&gt;Node1</title>
<path fill="none" stroke="midnightblue" d="M380.54,-491.03C385.69,-448.64 397.8,-378.9 425,-325 442.37,-290.59 467.38,-257.14 492.35,-228.37"/>
<polygon fill="none" stroke="midnightblue" points="377.04,-490.86 379.38,-501.2 383.99,-491.66 377.04,-490.86"/>
</g>
<!-- Node7 -->
<g id="node7" class="node">
<title>Node7</title>
<g id="a_node7"><a xlink:title=" ">
<polygon fill="none" stroke="#bfbfbf" points="434.5,-501.5 434.5,-558.5 559.5,-558.5 559.5,-501.5 434.5,-501.5"/>
<text text-anchor="middle" x="497" y="-546.5" font-family="Helvetica,sans-Serif" font-size="10.00">IList&lt; AudioSession &gt;</text>
<polyline fill="none" stroke="#bfbfbf" points="434.5,-539.5 559.5,-539.5 "/>
<text text-anchor="middle" x="497" y="-527.5" font-family="Helvetica,sans-Serif" font-size="10.00"> </text>
<polyline fill="none" stroke="#bfbfbf" points="434.5,-520.5 559.5,-520.5 "/>
<text text-anchor="middle" x="497" y="-508.5" font-family="Helvetica,sans-Serif" font-size="10.00"> </text>
</a>
</g>
</g>
<!-- Node7&#45;&gt;Node1 -->
<g id="edge6" class="edge">
<title>Node7&#45;&gt;Node1</title>
<path fill="none" stroke="midnightblue" d="M505.2,-491.48C515.92,-442.39 535.31,-353.67 551.92,-277.65"/>
<polygon fill="none" stroke="midnightblue" points="501.76,-490.82 503.04,-501.34 508.6,-492.31 501.76,-490.82"/>
</g>
<!-- Node8 -->
<g id="node8" class="node">
<title>Node8</title>
<g id="a_node8"><a xlink:title=" ">
<polygon fill="none" stroke="#bfbfbf" points="578,-501.5 578,-558.5 756,-558.5 756,-501.5 578,-501.5"/>
<text text-anchor="middle" x="667" y="-546.5" font-family="Helvetica,sans-Serif" font-size="10.00">IImmutableList&lt; AudioSession &gt;</text>
<polyline fill="none" stroke="#bfbfbf" points="578,-539.5 756,-539.5 "/>
<text text-anchor="middle" x="667" y="-527.5" font-family="Helvetica,sans-Serif" font-size="10.00"> </text>
<polyline fill="none" stroke="#bfbfbf" points="578,-520.5 756,-520.5 "/>
<text text-anchor="middle" x="667" y="-508.5" font-family="Helvetica,sans-Serif" font-size="10.00"> </text>
</a>
</g>
</g>
<!-- Node8&#45;&gt;Node1 -->
<g id="edge7" class="edge">
<title>Node8&#45;&gt;Node1</title>
<path fill="none" stroke="midnightblue" d="M658.8,-491.48C648.08,-442.39 628.69,-353.67 612.08,-277.65"/>
<polygon fill="none" stroke="midnightblue" points="655.4,-492.31 660.96,-501.34 662.24,-490.82 655.4,-492.31"/>
</g>
<!-- Node9 -->
<g id="node9" class="node">
<title>Node9</title>
<g id="a_node9"><a xlink:title=" ">
<polygon fill="none" stroke="#bfbfbf" points="774,-501.5 774,-558.5 930,-558.5 930,-501.5 774,-501.5"/>
<text text-anchor="middle" x="852" y="-546.5" font-family="Helvetica,sans-Serif" font-size="10.00">ICollection&lt; AudioSession &gt;</text>
<polyline fill="none" stroke="#bfbfbf" points="774,-539.5 930,-539.5 "/>
<text text-anchor="middle" x="852" y="-527.5" font-family="Helvetica,sans-Serif" font-size="10.00"> </text>
<polyline fill="none" stroke="#bfbfbf" points="774,-520.5 930,-520.5 "/>
<text text-anchor="middle" x="852" y="-508.5" font-family="Helvetica,sans-Serif" font-size="10.00"> </text>
</a>
</g>
</g>
<!-- Node9&#45;&gt;Node1 -->
<g id="edge8" class="edge">
<title>Node9&#45;&gt;Node1</title>
<path fill="none" stroke="midnightblue" d="M840.79,-491.61C826.99,-449.01 800.88,-378.41 765,-325 738.93,-286.19 704.02,-248.52 671.69,-217.41"/>
<polygon fill="none" stroke="midnightblue" points="837.51,-492.82 843.87,-501.29 844.18,-490.7 837.51,-492.82"/>
</g>
<!-- Node10 -->
<g id="node10" class="node">
<title>Node10</title>
<g id="a_node10"><a xlink:title=" ">
<polygon fill="none" stroke="#bfbfbf" points="948,-501.5 948,-558.5 1114,-558.5 1114,-501.5 948,-501.5"/>
<text text-anchor="middle" x="1031" y="-546.5" font-family="Helvetica,sans-Serif" font-size="10.00">IEnumerable&lt; AudioSession &gt;</text>
<polyline fill="none" stroke="#bfbfbf" points="948,-539.5 1114,-539.5 "/>
<text text-anchor="middle" x="1031" y="-527.5" font-family="Helvetica,sans-Serif" font-size="10.00"> </text>
<polyline fill="none" stroke="#bfbfbf" points="948,-520.5 1114,-520.5 "/>
<text text-anchor="middle" x="1031" y="-508.5" font-family="Helvetica,sans-Serif" font-size="10.00"> </text>
</a>
</g>
</g>
<!-- Node10&#45;&gt;Node1 -->
<g id="edge9" class="edge">
<title>Node10&#45;&gt;Node1</title>
<path fill="none" stroke="midnightblue" d="M1022.16,-491.46C1010.02,-446.98 984.35,-372.89 939,-325 865.08,-246.94 750.91,-195.85 671.66,-167.53"/>
<polygon fill="none" stroke="midnightblue" points="1018.81,-492.51 1024.75,-501.29 1025.58,-490.73 1018.81,-492.51"/>
</g>
<!-- Node11 -->
<g id="node11" class="node">
<title>Node11</title>
<g id="a_node11"><a xlink:title=" ">
<polygon fill="none" stroke="#bfbfbf" points="1132,-501.5 1132,-558.5 1304,-558.5 1304,-501.5 1132,-501.5"/>
<text text-anchor="middle" x="1218" y="-546.5" font-family="Helvetica,sans-Serif" font-size="10.00">IReadOnlyList&lt; AudioSession &gt;</text>
<polyline fill="none" stroke="#bfbfbf" points="1132,-539.5 1304,-539.5 "/>
<text text-anchor="middle" x="1218" y="-527.5" font-family="Helvetica,sans-Serif" font-size="10.00"> </text>
<polyline fill="none" stroke="#bfbfbf" points="1132,-520.5 1304,-520.5 "/>
<text text-anchor="middle" x="1218" y="-508.5" font-family="Helvetica,sans-Serif" font-size="10.00"> </text>
</a>
</g>
</g>
<!-- Node11&#45;&gt;Node1 -->
<g id="edge10" class="edge">
<title>Node11&#45;&gt;Node1</title>
<path fill="none" stroke="midnightblue" d="M1210.07,-491.66C1198.54,-446.15 1172.84,-369.8 1123,-325 993.91,-208.95 788.73,-165.12 671.66,-149"/>
<polygon fill="none" stroke="midnightblue" points="1206.69,-492.54 1212.45,-501.43 1213.49,-490.88 1206.69,-492.54"/>
</g>
<!-- Node12 -->
<g id="node12" class="node">
<title>Node12</title>
<g id="a_node12"><a xlink:title=" ">
<polygon fill="none" stroke="#bfbfbf" points="1322,-496 1322,-564 1438,-564 1438,-496 1322,-496"/>
<text text-anchor="start" x="1330" y="-552" font-family="Helvetica,sans-Serif" font-size="10.00">IReadOnlyCollection</text>
<text text-anchor="middle" x="1380" y="-541" font-family="Helvetica,sans-Serif" font-size="10.00">&lt; AudioSession &gt;</text>
<polyline fill="none" stroke="#bfbfbf" points="1322,-534 1438,-534 "/>
<text text-anchor="middle" x="1380" y="-522" font-family="Helvetica,sans-Serif" font-size="10.00"> </text>
<polyline fill="none" stroke="#bfbfbf" points="1322,-515 1438,-515 "/>
<text text-anchor="middle" x="1380" y="-503" font-family="Helvetica,sans-Serif" font-size="10.00"> </text>
</a>
</g>
</g>
<!-- Node12&#45;&gt;Node1 -->
<g id="edge11" class="edge">
<title>Node12&#45;&gt;Node1</title>
<path fill="none" stroke="midnightblue" d="M1377.67,-485.92C1372.81,-439.59 1357.98,-366.96 1313,-325 1219.79,-238.05 845.35,-176.33 671.51,-151.77"/>
<polygon fill="none" stroke="midnightblue" points="1374.19,-486.32 1378.61,-495.95 1381.16,-485.67 1374.19,-486.32"/>
</g>
<!-- Node13&#45;&gt;Node1 -->
<g id="edge12" class="edge">
<title>Node13&#45;&gt;Node1</title>
<path fill="none" stroke="#404040" d="M1455.93,-333.11C1453.06,-330.29 1450.09,-327.58 1447,-325 1331.53,-228.63 886.36,-171.43 683.63,-149.87"/>
<polygon fill="none" stroke="#404040" points="683.44,-149.86 677.06,-153.2 671.51,-148.6 677.89,-145.25 683.44,-149.86"/>
<text text-anchor="middle" x="1454" y="-299" font-family="Helvetica,sans-Serif" font-size="10.00"> +this[int index]</text>
</g>
<!-- Node14 -->
<g id="node14" class="node">
<title>Node14</title>
<g id="a_node14"><a xlink:href="interface_volume_control_1_1_audio_1_1_interfaces_1_1_i_process.html" target="_top" xlink:title="Represents read&#45;only information about a process running on the local system.">
<polygon fill="none" stroke="black" points="1345.5,-889.5 1345.5,-979.5 1454.5,-979.5 1454.5,-889.5 1345.5,-889.5"/>
<text text-anchor="middle" x="1400" y="-967.5" font-family="Helvetica,sans-Serif" font-size="10.00">IProcess</text>
<polyline fill="none" stroke="black" points="1345.5,-960.5 1454.5,-960.5 "/>
<text text-anchor="start" x="1353.5" y="-948.5" font-family="Helvetica,sans-Serif" font-size="10.00">+ ProcessName</text>
<text text-anchor="start" x="1353.5" y="-937.5" font-family="Helvetica,sans-Serif" font-size="10.00">+ PID</text>
<text text-anchor="start" x="1353.5" y="-926.5" font-family="Helvetica,sans-Serif" font-size="10.00">+ ProcessIdentifier</text>
<text text-anchor="start" x="1353.5" y="-915.5" font-family="Helvetica,sans-Serif" font-size="10.00">+ HashCode</text>
<polyline fill="none" stroke="black" points="1345.5,-908.5 1454.5,-908.5 "/>
<text text-anchor="middle" x="1400" y="-896.5" font-family="Helvetica,sans-Serif" font-size="10.00"> </text>
</a>
</g>
</g>
<!-- Node14&#45;&gt;Node13 -->
<g id="edge13" class="edge">
<title>Node14&#45;&gt;Node13</title>
<path fill="none" stroke="midnightblue" d="M1417.58,-879.49C1429.93,-841.55 1447.29,-788.21 1464.72,-734.65"/>
<polygon fill="none" stroke="midnightblue" points="1414.16,-878.68 1414.39,-889.27 1420.82,-880.85 1414.16,-878.68"/>
</g>
<!-- Node14&#45;&gt;Node17 -->
<g id="edge17" class="edge">
<title>Node14&#45;&gt;Node17</title>
<path fill="none" stroke="midnightblue" d="M1371.69,-880.2C1366.58,-870.58 1361.34,-860.71 1356.51,-851.61"/>
<polygon fill="none" stroke="midnightblue" points="1368.75,-882.12 1376.53,-889.31 1374.93,-878.84 1368.75,-882.12"/>
</g>
<!-- Node15 -->
<g id="node15" class="node">
<title>Node15</title>
<g id="a_node15"><a xlink:href="interface_volume_control_1_1_audio_1_1_interfaces_1_1_i_audio_controllable.html" target="_top" xlink:title="Base interface type for IDevice and IProcess/ISession.">
<polygon fill="none" stroke="black" points="1252.5,-1017.5 1252.5,-1118.5 1393.5,-1118.5 1393.5,-1017.5 1252.5,-1017.5"/>
<text text-anchor="middle" x="1323" y="-1106.5" font-family="Helvetica,sans-Serif" font-size="10.00">IAudioControllable</text>
<polyline fill="none" stroke="black" points="1252.5,-1099.5 1393.5,-1099.5 "/>
<text text-anchor="start" x="1260.5" y="-1087.5" font-family="Helvetica,sans-Serif" font-size="10.00">+ AudioMeterInformation</text>
<text text-anchor="start" x="1260.5" y="-1076.5" font-family="Helvetica,sans-Serif" font-size="10.00">+ PeakMeterValue</text>
<text text-anchor="start" x="1260.5" y="-1065.5" font-family="Helvetica,sans-Serif" font-size="10.00">+ NativeVolume</text>
<text text-anchor="start" x="1260.5" y="-1054.5" font-family="Helvetica,sans-Serif" font-size="10.00">+ Volume</text>
<text text-anchor="start" x="1260.5" y="-1043.5" font-family="Helvetica,sans-Serif" font-size="10.00">+ Muted</text>
<polyline fill="none" stroke="black" points="1252.5,-1036.5 1393.5,-1036.5 "/>
<text text-anchor="middle" x="1323" y="-1024.5" font-family="Helvetica,sans-Serif" font-size="10.00"> </text>
</a>
</g>
</g>
<!-- Node15&#45;&gt;Node14 -->
<g id="edge14" class="edge">
<title>Node15&#45;&gt;Node14</title>
<path fill="none" stroke="midnightblue" d="M1357.26,-1008.48C1362.93,-998.81 1368.72,-988.92 1374.13,-979.67"/>
<polygon fill="none" stroke="midnightblue" points="1354.14,-1006.89 1352.11,-1017.29 1360.18,-1010.42 1354.14,-1006.89"/>
</g>
<!-- Node15&#45;&gt;Node17 -->
<g id="edge18" class="edge">
<title>Node15&#45;&gt;Node17</title>
<path fill="none" stroke="midnightblue" d="M1326.06,-1007.15C1328.52,-959.08 1331.91,-893 1334.02,-851.66"/>
<polygon fill="none" stroke="midnightblue" points="1322.55,-1007.26 1325.54,-1017.42 1329.54,-1007.62 1322.55,-1007.26"/>
</g>
<!-- Node16 -->
<g id="node16" class="node">
<title>Node16</title>
<g id="a_node16"><a xlink:title=" ">
<polygon fill="none" stroke="#bfbfbf" points="1414.5,-1039.5 1414.5,-1096.5 1545.5,-1096.5 1545.5,-1039.5 1414.5,-1039.5"/>
<text text-anchor="middle" x="1480" y="-1084.5" font-family="Helvetica,sans-Serif" font-size="10.00">IEquatable&lt; ISession &gt;</text>
<polyline fill="none" stroke="#bfbfbf" points="1414.5,-1077.5 1545.5,-1077.5 "/>
<text text-anchor="middle" x="1480" y="-1065.5" font-family="Helvetica,sans-Serif" font-size="10.00"> </text>
<polyline fill="none" stroke="#bfbfbf" points="1414.5,-1058.5 1545.5,-1058.5 "/>
<text text-anchor="middle" x="1480" y="-1046.5" font-family="Helvetica,sans-Serif" font-size="10.00"> </text>
</a>
</g>
</g>
<!-- Node16&#45;&gt;Node13 -->
<g id="edge24" class="edge">
<title>Node16&#45;&gt;Node13</title>
<path fill="none" stroke="midnightblue" d="M1482.27,-1029.12C1485.77,-972.93 1493.02,-864.2 1502,-772 1503.18,-759.84 1504.47,-747.34 1505.83,-734.73"/>
<polygon fill="none" stroke="midnightblue" points="1478.77,-1029.11 1481.65,-1039.31 1485.75,-1029.54 1478.77,-1029.11"/>
</g>
<!-- Node16&#45;&gt;Node14 -->
<g id="edge15" class="edge">
<title>Node16&#45;&gt;Node14</title>
<path fill="none" stroke="midnightblue" d="M1457.8,-1030.51C1448.2,-1014.73 1436.89,-996.13 1426.82,-979.59"/>
<polygon fill="none" stroke="midnightblue" points="1455.04,-1032.71 1463.23,-1039.43 1461.02,-1029.07 1455.04,-1032.71"/>
</g>
<!-- Node17&#45;&gt;Node13 -->
<g id="edge16" class="edge">
<title>Node17&#45;&gt;Node13</title>
<path fill="none" stroke="midnightblue" d="M1407.51,-766.63C1424.92,-754.82 1440.43,-743.11 1447,-735 1450.01,-731.28 1452.93,-727.43 1455.76,-723.49"/>
<polygon fill="none" stroke="midnightblue" points="1405.22,-763.96 1398.84,-772.42 1409.1,-769.78 1405.22,-763.96"/>
</g>
<!-- Node18 -->
<g id="node18" class="node">
<title>Node18</title>
<g id="a_node18"><a xlink:title=" ">
<polygon fill="none" stroke="#bfbfbf" points="1511,-783.5 1511,-840.5 1647,-840.5 1647,-783.5 1511,-783.5"/>
<text text-anchor="middle" x="1579" y="-828.5" font-family="Helvetica,sans-Serif" font-size="10.00">INotifyPropertyChanging</text>
<polyline fill="none" stroke="#bfbfbf" points="1511,-821.5 1647,-821.5 "/>
<text text-anchor="middle" x="1579" y="-809.5" font-family="Helvetica,sans-Serif" font-size="10.00"> </text>
<polyline fill="none" stroke="#bfbfbf" points="1511,-802.5 1647,-802.5 "/>
<text text-anchor="middle" x="1579" y="-790.5" font-family="Helvetica,sans-Serif" font-size="10.00"> </text>
</a>
</g>
</g>
<!-- Node18&#45;&gt;Node13 -->
<g id="edge21" class="edge">
<title>Node18&#45;&gt;Node13</title>
<path fill="none" stroke="midnightblue" d="M1572.53,-773.27C1570.61,-762.09 1568.37,-748.98 1565.93,-734.76"/>
<polygon fill="none" stroke="midnightblue" points="1569.13,-774.12 1574.27,-783.39 1576.03,-772.94 1569.13,-774.12"/>
</g>
<!-- Node19 -->
<g id="node19" class="node">
<title>Node19</title>
<g id="a_node19"><a xlink:title=" ">
<polygon fill="none" stroke="#bfbfbf" points="1665,-783.5 1665,-840.5 1739,-840.5 1739,-783.5 1665,-783.5"/>
<text text-anchor="middle" x="1702" y="-828.5" font-family="Helvetica,sans-Serif" font-size="10.00">IDisposable</text>
<polyline fill="none" stroke="#bfbfbf" points="1665,-821.5 1739,-821.5 "/>
<text text-anchor="middle" x="1702" y="-809.5" font-family="Helvetica,sans-Serif" font-size="10.00"> </text>
<polyline fill="none" stroke="#bfbfbf" points="1665,-802.5 1739,-802.5 "/>
<text text-anchor="middle" x="1702" y="-790.5" font-family="Helvetica,sans-Serif" font-size="10.00"> </text>
</a>
</g>
</g>
<!-- Node19&#45;&gt;Node13 -->
<g id="edge22" class="edge">
<title>Node19&#45;&gt;Node13</title>
<path fill="none" stroke="midnightblue" d="M1679.85,-774.73C1661.03,-743.92 1632.89,-697.84 1606.13,-654.02"/>
<polygon fill="none" stroke="midnightblue" points="1676.94,-776.68 1685.14,-783.39 1682.91,-773.03 1676.94,-776.68"/>
</g>
<!-- Node20 -->
<g id="node20" class="node">
<title>Node20</title>
<g id="a_node20"><a xlink:title=" ">
<polygon fill="none" stroke="#bfbfbf" points="1757,-783.5 1757,-840.5 1913,-840.5 1913,-783.5 1757,-783.5"/>
<text text-anchor="middle" x="1835" y="-828.5" font-family="Helvetica,sans-Serif" font-size="10.00">IEquatable&lt; AudioSession &gt;</text>
<polyline fill="none" stroke="#bfbfbf" points="1757,-821.5 1913,-821.5 "/>
<text text-anchor="middle" x="1835" y="-809.5" font-family="Helvetica,sans-Serif" font-size="10.00"> </text>
<polyline fill="none" stroke="#bfbfbf" points="1757,-802.5 1913,-802.5 "/>
<text text-anchor="middle" x="1835" y="-790.5" font-family="Helvetica,sans-Serif" font-size="10.00"> </text>
</a>
</g>
</g>
<!-- Node20&#45;&gt;Node13 -->
<g id="edge23" class="edge">
<title>Node20&#45;&gt;Node13</title>
<path fill="none" stroke="midnightblue" d="M1797.42,-776.39C1749.87,-732.59 1666.87,-656.15 1606.12,-600.19"/>
<polygon fill="none" stroke="midnightblue" points="1795.29,-779.19 1805.02,-783.39 1800.04,-774.04 1795.29,-779.19"/>
</g>
</g>
</svg>
        <g id="navigator" transform="translate(0 0)" fill="#404254">
                <rect fill="#f2f5e9" fill-opacity="0.5" stroke="#606060" stroke-width=".5" x="0" y="0" width="60" height="60"/>
                <use id="zoomplus" xlink:href="#zoomPlus" x="17" y="9" onmousedown="handleZoom(evt,'in')"/>
                <use id="zoomminus" xlink:href="#zoomMin" x="42" y="9" onmousedown="handleZoom(evt,'out')"/>
                <use id="reset" xlink:href="#resetDef" x="30" y="36" onmousedown="handleReset()"/>
                <g id="arrowUp" xlink:href="#dirArrow" transform="translate(30 24)" onmousedown="handlePan(0,-1)">
                  <use xlink:href="#rim" fill="#404040">
                        <set attributeName="fill" to="#808080" begin="arrowUp.mouseover" end="arrowUp.mouseout"/>
                  </use>
                  <path fill="none" stroke="white" stroke-width="1.5" d="M0,-3.0v7 M-2.5,-0.5L0,-3.0L2.5,-0.5"/>
                </g>
                <g id="arrowRight" xlink:href="#dirArrow" transform="rotate(90) translate(36 -43)" onmousedown="handlePan(1,0)">
                  <use xlink:href="#rim" fill="#404040">
                        <set attributeName="fill" to="#808080" begin="arrowRight.mouseover" end="arrowRight.mouseout"/>
                  </use>
                  <path fill="none" stroke="white" stroke-width="1.5" d="M0,-3.0v7 M-2.5,-0.5L0,-3.0L2.5,-0.5"/>
                </g>
                <g id="arrowDown" xlink:href="#dirArrow" transform="rotate(180) translate(-30 -48)" onmousedown="handlePan(0,1)">
                  <use xlink:href="#rim" fill="#404040">
                        <set attributeName="fill" to="#808080" begin="arrowDown.mouseover" end="arrowDown.mouseout"/>
                  </use>
                  <path fill="none" stroke="white" stroke-width="1.5" d="M0,-3.0v7 M-2.5,-0.5L0,-3.0L2.5,-0.5"/>
                </g>
                <g id="arrowLeft" xlink:href="#dirArrow" transform="rotate(270) translate(-36 17)" onmousedown="handlePan(-1,0)">
                  <use xlink:href="#rim" fill="#404040">
                        <set attributeName="fill" to="#808080" begin="arrowLeft.mouseover" end="arrowLeft.mouseout"/>
                  </use>
                  <path fill="none" stroke="white" stroke-width="1.5" d="M0,-3.0v7 M-2.5,-0.5L0,-3.0L2.5,-0.5"/>
                </g>
        </g>
        <svg viewBox="0 0 15 15" width="100%" height="30px" preserveAspectRatio="xMaxYMin meet">
         <g id="arrow_out" transform="scale(0.3 0.3)">
          <a xlink:href="class_volume_control_1_1_audio_1_1_collections_1_1_audio_session_collection__coll__graph_org.svg" target="_base">
           <rect id="button" ry="5" rx="5" y="6" x="6" height="38" width="38"
                fill="#f2f5e9" fill-opacity="0.5" stroke="#606060" stroke-width="1.0"/>
           <path id="arrow"
             d="M 11.500037,31.436501 C 11.940474,20.09759 22.043105,11.32322 32.158766,21.979434 L 37.068811,17.246167 C 37.068811,17.246167 37.088388,32 37.088388,32 L 22.160133,31.978069 C 22.160133,31.978069 26.997745,27.140456 26.997745,27.140456 C 18.528582,18.264221 13.291696,25.230495 11.500037,31.436501 z"
             style="fill:#404040;"/>
          </a>
         </g>
        </svg>
</svg>
