<?xml version="1.0" encoding="UTF-8" standalone="no"?>
<!DOCTYPE svg PUBLIC "-//W3C//DTD SVG 1.1//EN"
 "http://www.w3.org/Graphics/SVG/1.1/DTD/svg11.dtd">
<!-- Generated by graphviz version 2.43.0 (0)
 -->
<!-- Title: VolumeControl.Audio.AudioDevice Pages: 1 -->
<svg width="2210pt" height="893pt"
 viewBox="0.00 0.00 2209.87 893.00" xmlns="http://www.w3.org/2000/svg" xmlns:xlink="http://www.w3.org/1999/xlink">
<g id="graph0" class="graph" transform="scale(1 1) rotate(0) translate(4 889)">
<title>VolumeControl.Audio.AudioDevice</title>
<!-- Node1 -->
<g id="node1" class="node">
<title>Node1</title>
<g id="a_node1"><a xlink:title="An audio device.">
<polygon fill="#bfbfbf" stroke="black" points="788.87,-0.5 788.87,-376.5 994.87,-376.5 994.87,-0.5 788.87,-0.5"/>
<text text-anchor="start" x="796.87" y="-364.5" font-family="Helvetica,sans-Serif" font-size="10.00">VolumeControl.Audio.Audio</text>
<text text-anchor="middle" x="891.87" y="-353.5" font-family="Helvetica,sans-Serif" font-size="10.00">Device</text>
<polyline fill="none" stroke="black" points="788.87,-346.5 994.87,-346.5 "/>
<text text-anchor="start" x="796.87" y="-334.5" font-family="Helvetica,sans-Serif" font-size="10.00">+ AudioMeterInformation</text>
<text text-anchor="start" x="796.87" y="-323.5" font-family="Helvetica,sans-Serif" font-size="10.00">+ PeakMeterValue</text>
<text text-anchor="start" x="796.87" y="-312.5" font-family="Helvetica,sans-Serif" font-size="10.00">+ Log</text>
<text text-anchor="start" x="796.87" y="-301.5" font-family="Helvetica,sans-Serif" font-size="10.00">+ MMDevice</text>
<text text-anchor="start" x="796.87" y="-290.5" font-family="Helvetica,sans-Serif" font-size="10.00">+ Enabled</text>
<text text-anchor="start" x="796.87" y="-279.5" font-family="Helvetica,sans-Serif" font-size="10.00">+ Name</text>
<text text-anchor="start" x="796.87" y="-268.5" font-family="Helvetica,sans-Serif" font-size="10.00">+ InterfaceName</text>
<text text-anchor="start" x="796.87" y="-257.5" font-family="Helvetica,sans-Serif" font-size="10.00">+ DeviceID</text>
<text text-anchor="start" x="796.87" y="-246.5" font-family="Helvetica,sans-Serif" font-size="10.00">+ InstanceID</text>
<text text-anchor="start" x="796.87" y="-235.5" font-family="Helvetica,sans-Serif" font-size="10.00">+ IconPath</text>
<text text-anchor="start" x="796.87" y="-224.5" font-family="Helvetica,sans-Serif" font-size="10.00">and 24 more...</text>
<polyline fill="none" stroke="black" points="788.87,-217.5 994.87,-217.5 "/>
<text text-anchor="start" x="796.87" y="-205.5" font-family="Helvetica,sans-Serif" font-size="10.00">+ GetDeviceName()</text>
<text text-anchor="start" x="796.87" y="-194.5" font-family="Helvetica,sans-Serif" font-size="10.00">+ FindAll()</text>
<text text-anchor="start" x="796.87" y="-183.5" font-family="Helvetica,sans-Serif" font-size="10.00">+ GetIcons()</text>
<text text-anchor="start" x="796.87" y="-172.5" font-family="Helvetica,sans-Serif" font-size="10.00">+ Dispose()</text>
<text text-anchor="start" x="796.87" y="-161.5" font-family="Helvetica,sans-Serif" font-size="10.00">+ Equals()</text>
<text text-anchor="start" x="796.87" y="-150.5" font-family="Helvetica,sans-Serif" font-size="10.00">+ Equals()</text>
<text text-anchor="start" x="796.87" y="-139.5" font-family="Helvetica,sans-Serif" font-size="10.00">+ Equals()</text>
<text text-anchor="start" x="796.87" y="-128.5" font-family="Helvetica,sans-Serif" font-size="10.00">+ GetHashCode()</text>
<text text-anchor="start" x="796.87" y="-117.5" font-family="Helvetica,sans-Serif" font-size="10.00">+ Add()</text>
<text text-anchor="start" x="796.87" y="-106.5" font-family="Helvetica,sans-Serif" font-size="10.00">+ Clear()</text>
<text text-anchor="start" x="796.87" y="-95.5" font-family="Helvetica,sans-Serif" font-size="10.00">and 27 more...</text>
<text text-anchor="start" x="796.87" y="-84.5" font-family="Helvetica,sans-Serif" font-size="10.00">+ GetDeviceNameFromDeviceFriendly</text>
<text text-anchor="start" x="796.87" y="-73.5" font-family="Helvetica,sans-Serif" font-size="10.00">Name()</text>
<text text-anchor="start" x="796.87" y="-62.5" font-family="Helvetica,sans-Serif" font-size="10.00">~ AudioDevice()</text>
<text text-anchor="start" x="796.87" y="-51.5" font-family="Helvetica,sans-Serif" font-size="10.00">~ ForwardPropertyStoreChanged()</text>
<text text-anchor="start" x="796.87" y="-40.5" font-family="Helvetica,sans-Serif" font-size="10.00">~ ForwardRemoved()</text>
<text text-anchor="start" x="796.87" y="-29.5" font-family="Helvetica,sans-Serif" font-size="10.00">~ ForwardStateChanged()</text>
<text text-anchor="start" x="796.87" y="-18.5" font-family="Helvetica,sans-Serif" font-size="10.00">~ ReloadSessions()</text>
<text text-anchor="start" x="796.87" y="-7.5" font-family="Helvetica,sans-Serif" font-size="10.00">~ GetAudioSessions()</text>
</a>
</g>
</g>
<!-- Node2 -->
<g id="node2" class="node">
<title>Node2</title>
<g id="a_node2"><a xlink:href="interface_volume_control_1_1_audio_1_1_interfaces_1_1_i_volume_control.html" target="_top" xlink:title="Represents some kind of controllable audio playback instance.">
<polygon fill="none" stroke="black" points="228.87,-634.5 228.87,-768.5 392.87,-768.5 392.87,-634.5 228.87,-634.5"/>
<text text-anchor="middle" x="310.87" y="-756.5" font-family="Helvetica,sans-Serif" font-size="10.00">IVolumeControl</text>
<polyline fill="none" stroke="black" points="228.87,-749.5 392.87,-749.5 "/>
<text text-anchor="start" x="236.87" y="-737.5" font-family="Helvetica,sans-Serif" font-size="10.00">+ NativeVolume</text>
<text text-anchor="start" x="236.87" y="-726.5" font-family="Helvetica,sans-Serif" font-size="10.00">+ Volume</text>
<text text-anchor="start" x="236.87" y="-715.5" font-family="Helvetica,sans-Serif" font-size="10.00">+ Muted</text>
<polyline fill="none" stroke="black" points="228.87,-708.5 392.87,-708.5 "/>
<text text-anchor="start" x="236.87" y="-696.5" font-family="Helvetica,sans-Serif" font-size="10.00">+ IncreaseVolume()</text>
<text text-anchor="start" x="236.87" y="-685.5" font-family="Helvetica,sans-Serif" font-size="10.00">+ IncreaseVolume()</text>
<text text-anchor="start" x="236.87" y="-674.5" font-family="Helvetica,sans-Serif" font-size="10.00">+ DecreaseVolume()</text>
<text text-anchor="start" x="236.87" y="-663.5" font-family="Helvetica,sans-Serif" font-size="10.00">+ DecreaseVolume()</text>
<text text-anchor="start" x="236.87" y="-652.5" font-family="Helvetica,sans-Serif" font-size="10.00">~ MakeListDisplayableControl</text>
<text text-anchor="start" x="236.87" y="-641.5" font-family="Helvetica,sans-Serif" font-size="10.00">Template()</text>
</a>
</g>
</g>
<!-- Node2&#45;&gt;Node1 -->
<g id="edge1" class="edge">
<title>Node2&#45;&gt;Node1</title>
<path fill="none" stroke="midnightblue" d="M338.74,-624.8C341.67,-615.82 344.45,-606.74 346.87,-598 369.27,-517.11 332.15,-478.32 384.87,-413 486.22,-287.43 672.44,-230.46 788.79,-206.1"/>
<polygon fill="none" stroke="midnightblue" points="335.36,-623.88 335.53,-634.47 342,-626.09 335.36,-623.88"/>
</g>
<!-- Node5 -->
<g id="node5" class="node">
<title>Node5</title>
<g id="a_node5"><a xlink:href="interface_volume_control_1_1_audio_1_1_interfaces_1_1_i_metered_volume_control.html" target="_top" xlink:title="Extends the IMeteredVolumeControl interface with the AudioMeterInformation property.">
<polygon fill="none" stroke="black" points="173.87,-518.5 173.87,-597.5 337.87,-597.5 337.87,-518.5 173.87,-518.5"/>
<text text-anchor="middle" x="255.87" y="-585.5" font-family="Helvetica,sans-Serif" font-size="10.00">IMeteredVolumeControl</text>
<polyline fill="none" stroke="black" points="173.87,-578.5 337.87,-578.5 "/>
<text text-anchor="start" x="181.87" y="-566.5" font-family="Helvetica,sans-Serif" font-size="10.00">+ PeakMeterValue</text>
<text text-anchor="start" x="181.87" y="-555.5" font-family="Helvetica,sans-Serif" font-size="10.00">+ AudioMeterInformation</text>
<polyline fill="none" stroke="black" points="173.87,-548.5 337.87,-548.5 "/>
<text text-anchor="start" x="181.87" y="-536.5" font-family="Helvetica,sans-Serif" font-size="10.00">~ MakeListDisplayableControl</text>
<text text-anchor="start" x="181.87" y="-525.5" font-family="Helvetica,sans-Serif" font-size="10.00">Template()</text>
</a>
</g>
</g>
<!-- Node2&#45;&gt;Node5 -->
<g id="edge6" class="edge">
<title>Node2&#45;&gt;Node5</title>
<path fill="none" stroke="midnightblue" d="M281.49,-624.91C277.84,-615.53 274.24,-606.25 270.94,-597.76"/>
<polygon fill="none" stroke="midnightblue" points="278.26,-626.25 285.14,-634.31 284.78,-623.72 278.26,-626.25"/>
</g>
<!-- Node3 -->
<g id="node3" class="node">
<title>Node3</title>
<g id="a_node3"><a xlink:href="interface_volume_control_1_1_core_1_1_interfaces_1_1_i_list_displayable.html" target="_top" xlink:title="Represents an object that, when it is a member of a list of similar items, can be displayed in the Li...">
<polygon fill="none" stroke="black" points="148.37,-805.5 148.37,-884.5 253.37,-884.5 253.37,-805.5 148.37,-805.5"/>
<text text-anchor="middle" x="200.87" y="-872.5" font-family="Helvetica,sans-Serif" font-size="10.00">IListDisplayable</text>
<polyline fill="none" stroke="black" points="148.37,-865.5 253.37,-865.5 "/>
<text text-anchor="start" x="156.37" y="-853.5" font-family="Helvetica,sans-Serif" font-size="10.00">+ DisplayText</text>
<text text-anchor="start" x="156.37" y="-842.5" font-family="Helvetica,sans-Serif" font-size="10.00">+ DisplayControls</text>
<text text-anchor="start" x="156.37" y="-831.5" font-family="Helvetica,sans-Serif" font-size="10.00">+ DisplayIcon</text>
<polyline fill="none" stroke="black" points="148.37,-824.5 253.37,-824.5 "/>
<text text-anchor="middle" x="200.87" y="-812.5" font-family="Helvetica,sans-Serif" font-size="10.00"> </text>
</a>
</g>
</g>
<!-- Node3&#45;&gt;Node1 -->
<g id="edge3" class="edge">
<title>Node3&#45;&gt;Node1</title>
<path fill="none" stroke="midnightblue" d="M142.84,-798.76C71.18,-737.02 -35.66,-622.13 12.87,-518 81.12,-371.53 571.41,-254.81 788.68,-209.68"/>
<polygon fill="none" stroke="midnightblue" points="140.64,-801.48 150.53,-805.29 145.18,-796.15 140.64,-801.48"/>
</g>
<!-- Node3&#45;&gt;Node2 -->
<g id="edge2" class="edge">
<title>Node3&#45;&gt;Node2</title>
<path fill="none" stroke="midnightblue" d="M237.09,-797.41C244.26,-788.18 251.92,-778.33 259.48,-768.6"/>
<polygon fill="none" stroke="midnightblue" points="234.3,-795.29 230.93,-805.33 239.83,-799.59 234.3,-795.29"/>
</g>
<!-- Node3&#45;&gt;Node5 -->
<g id="edge7" class="edge">
<title>Node3&#45;&gt;Node5</title>
<path fill="none" stroke="midnightblue" d="M200.4,-795.11C201.14,-751.98 205.05,-687.8 219.87,-634 223.25,-621.75 228.55,-609.06 234.07,-597.67"/>
<polygon fill="none" stroke="midnightblue" points="196.9,-795.29 200.28,-805.33 203.9,-795.38 196.9,-795.29"/>
</g>
<!-- Node4 -->
<g id="node4" class="node">
<title>Node4</title>
<g id="a_node4"><a xlink:href="interface_volume_control_1_1_audio_1_1_interfaces_1_1_i_device.html" target="_top" xlink:title="Represents an audio device.">
<polygon fill="none" stroke="black" points="219.87,-413.5 219.87,-481.5 291.87,-481.5 291.87,-413.5 219.87,-413.5"/>
<text text-anchor="middle" x="255.87" y="-469.5" font-family="Helvetica,sans-Serif" font-size="10.00">IDevice</text>
<polyline fill="none" stroke="black" points="219.87,-462.5 291.87,-462.5 "/>
<text text-anchor="start" x="227.87" y="-450.5" font-family="Helvetica,sans-Serif" font-size="10.00">+ Name</text>
<text text-anchor="start" x="227.87" y="-439.5" font-family="Helvetica,sans-Serif" font-size="10.00">+ DeviceID</text>
<polyline fill="none" stroke="black" points="219.87,-432.5 291.87,-432.5 "/>
<text text-anchor="middle" x="255.87" y="-420.5" font-family="Helvetica,sans-Serif" font-size="10.00"> </text>
</a>
</g>
</g>
<!-- Node4&#45;&gt;Node1 -->
<g id="edge4" class="edge">
<title>Node4&#45;&gt;Node1</title>
<path fill="none" stroke="midnightblue" d="M301.2,-428.18C402.26,-387.34 648.14,-287.99 788.73,-231.18"/>
<polygon fill="none" stroke="midnightblue" points="299.85,-424.95 291.89,-431.95 302.47,-431.44 299.85,-424.95"/>
</g>
<!-- Node5&#45;&gt;Node4 -->
<g id="edge5" class="edge">
<title>Node5&#45;&gt;Node4</title>
<path fill="none" stroke="midnightblue" d="M255.87,-508.35C255.87,-499.28 255.87,-490 255.87,-481.54"/>
<polygon fill="none" stroke="midnightblue" points="252.37,-508.44 255.87,-518.44 259.37,-508.44 252.37,-508.44"/>
</g>
<!-- Node6 -->
<g id="node6" class="node">
<title>Node6</title>
<g id="a_node6"><a xlink:title=" ">
<polygon fill="none" stroke="#bfbfbf" points="22.37,-529.5 22.37,-586.5 155.37,-586.5 155.37,-529.5 22.37,-529.5"/>
<text text-anchor="middle" x="88.87" y="-574.5" font-family="Helvetica,sans-Serif" font-size="10.00">INotifyPropertyChanged</text>
<polyline fill="none" stroke="#bfbfbf" points="22.37,-567.5 155.37,-567.5 "/>
<text text-anchor="middle" x="88.87" y="-555.5" font-family="Helvetica,sans-Serif" font-size="10.00"> </text>
<polyline fill="none" stroke="#bfbfbf" points="22.37,-548.5 155.37,-548.5 "/>
<text text-anchor="middle" x="88.87" y="-536.5" font-family="Helvetica,sans-Serif" font-size="10.00"> </text>
</a>
</g>
</g>
<!-- Node6&#45;&gt;Node1 -->
<g id="edge22" class="edge">
<title>Node6&#45;&gt;Node1</title>
<path fill="none" stroke="midnightblue" d="M111.21,-520.65C132.93,-488.13 168.76,-441.35 210.87,-413 393.19,-290.26 648.1,-230.5 788.64,-205.24"/>
<polygon fill="none" stroke="midnightblue" points="108.02,-519.13 105.46,-529.41 113.87,-522.97 108.02,-519.13"/>
</g>
<!-- Node6&#45;&gt;Node4 -->
<g id="edge8" class="edge">
<title>Node6&#45;&gt;Node4</title>
<path fill="none" stroke="midnightblue" d="M139.97,-523.8C165.71,-507.08 196.31,-487.2 219.6,-472.06"/>
<polygon fill="none" stroke="midnightblue" points="137.92,-520.96 131.44,-529.34 141.73,-526.83 137.92,-520.96"/>
</g>
<!-- Node7 -->
<g id="node7" class="node">
<title>Node7</title>
<g id="a_node7"><a xlink:title=" ">
<polygon fill="none" stroke="#bfbfbf" points="393.87,-419 393.87,-476 467.87,-476 467.87,-419 393.87,-419"/>
<text text-anchor="middle" x="430.87" y="-464" font-family="Helvetica,sans-Serif" font-size="10.00">IDisposable</text>
<polyline fill="none" stroke="#bfbfbf" points="393.87,-457 467.87,-457 "/>
<text text-anchor="middle" x="430.87" y="-445" font-family="Helvetica,sans-Serif" font-size="10.00"> </text>
<polyline fill="none" stroke="#bfbfbf" points="393.87,-438 467.87,-438 "/>
<text text-anchor="middle" x="430.87" y="-426" font-family="Helvetica,sans-Serif" font-size="10.00"> </text>
</a>
</g>
</g>
<!-- Node7&#45;&gt;Node1 -->
<g id="edge9" class="edge">
<title>Node7&#45;&gt;Node1</title>
<path fill="none" stroke="midnightblue" d="M476.3,-413.36C476.49,-413.24 476.68,-413.12 476.87,-413 579.89,-348.16 703.3,-283.21 788.63,-240.17"/>
<polygon fill="none" stroke="midnightblue" points="474.16,-410.58 467.73,-419 478,-416.43 474.16,-410.58"/>
</g>
<!-- Node8 -->
<g id="node8" class="node">
<title>Node8</title>
<g id="a_node8"><a xlink:title=" ">
<polygon fill="none" stroke="#bfbfbf" points="485.87,-419 485.87,-476 637.87,-476 637.87,-419 485.87,-419"/>
<text text-anchor="middle" x="561.87" y="-464" font-family="Helvetica,sans-Serif" font-size="10.00">IEquatable&lt; AudioDevice &gt;</text>
<polyline fill="none" stroke="#bfbfbf" points="485.87,-457 637.87,-457 "/>
<text text-anchor="middle" x="561.87" y="-445" font-family="Helvetica,sans-Serif" font-size="10.00"> </text>
<polyline fill="none" stroke="#bfbfbf" points="485.87,-438 637.87,-438 "/>
<text text-anchor="middle" x="561.87" y="-426" font-family="Helvetica,sans-Serif" font-size="10.00"> </text>
</a>
</g>
</g>
<!-- Node8&#45;&gt;Node1 -->
<g id="edge10" class="edge">
<title>Node8&#45;&gt;Node1</title>
<path fill="none" stroke="midnightblue" d="M605.23,-412.73C651.68,-376.56 727.05,-317.86 788.85,-269.73"/>
<polygon fill="none" stroke="midnightblue" points="602.92,-410.09 597.18,-419 607.23,-415.61 602.92,-410.09"/>
</g>
<!-- Node9 -->
<g id="node9" class="node">
<title>Node9</title>
<g id="a_node9"><a xlink:title=" ">
<polygon fill="none" stroke="#bfbfbf" points="655.87,-419 655.87,-476 783.87,-476 783.87,-419 655.87,-419"/>
<text text-anchor="middle" x="719.87" y="-464" font-family="Helvetica,sans-Serif" font-size="10.00">IEquatable&lt; IDevice &gt;</text>
<polyline fill="none" stroke="#bfbfbf" points="655.87,-457 783.87,-457 "/>
<text text-anchor="middle" x="719.87" y="-445" font-family="Helvetica,sans-Serif" font-size="10.00"> </text>
<polyline fill="none" stroke="#bfbfbf" points="655.87,-438 783.87,-438 "/>
<text text-anchor="middle" x="719.87" y="-426" font-family="Helvetica,sans-Serif" font-size="10.00"> </text>
</a>
</g>
</g>
<!-- Node9&#45;&gt;Node1 -->
<g id="edge11" class="edge">
<title>Node9&#45;&gt;Node1</title>
<path fill="none" stroke="midnightblue" d="M744,-410.45C756.26,-392.13 772.08,-368.48 788.81,-343.5"/>
<polygon fill="none" stroke="midnightblue" points="740.93,-408.74 738.28,-419 746.75,-412.63 740.93,-408.74"/>
</g>
<!-- Node10 -->
<g id="node10" class="node">
<title>Node10</title>
<g id="a_node10"><a xlink:title=" ">
<polygon fill="none" stroke="#bfbfbf" points="802.37,-419 802.37,-476 839.37,-476 839.37,-419 802.37,-419"/>
<text text-anchor="middle" x="820.87" y="-464" font-family="Helvetica,sans-Serif" font-size="10.00">IList</text>
<polyline fill="none" stroke="#bfbfbf" points="802.37,-457 839.37,-457 "/>
<text text-anchor="middle" x="820.87" y="-445" font-family="Helvetica,sans-Serif" font-size="10.00"> </text>
<polyline fill="none" stroke="#bfbfbf" points="802.37,-438 839.37,-438 "/>
<text text-anchor="middle" x="820.87" y="-426" font-family="Helvetica,sans-Serif" font-size="10.00"> </text>
</a>
</g>
</g>
<!-- Node10&#45;&gt;Node1 -->
<g id="edge12" class="edge">
<title>Node10&#45;&gt;Node1</title>
<path fill="none" stroke="midnightblue" d="M831.18,-409.16C833.84,-399.57 836.87,-388.57 840.14,-376.73"/>
<polygon fill="none" stroke="midnightblue" points="827.76,-408.43 828.47,-419 834.5,-410.29 827.76,-408.43"/>
</g>
<!-- Node11 -->
<g id="node11" class="node">
<title>Node11</title>
<g id="a_node11"><a xlink:title=" ">
<polygon fill="none" stroke="#bfbfbf" points="857.87,-419 857.87,-476 925.87,-476 925.87,-419 857.87,-419"/>
<text text-anchor="middle" x="891.87" y="-464" font-family="Helvetica,sans-Serif" font-size="10.00">ICollection</text>
<polyline fill="none" stroke="#bfbfbf" points="857.87,-457 925.87,-457 "/>
<text text-anchor="middle" x="891.87" y="-445" font-family="Helvetica,sans-Serif" font-size="10.00"> </text>
<polyline fill="none" stroke="#bfbfbf" points="857.87,-438 925.87,-438 "/>
<text text-anchor="middle" x="891.87" y="-426" font-family="Helvetica,sans-Serif" font-size="10.00"> </text>
</a>
</g>
</g>
<!-- Node11&#45;&gt;Node1 -->
<g id="edge13" class="edge">
<title>Node11&#45;&gt;Node1</title>
<path fill="none" stroke="midnightblue" d="M891.87,-408.85C891.87,-399.33 891.87,-388.45 891.87,-376.73"/>
<polygon fill="none" stroke="midnightblue" points="888.37,-409 891.87,-419 895.37,-409 888.37,-409"/>
</g>
<!-- Node12 -->
<g id="node12" class="node">
<title>Node12</title>
<g id="a_node12"><a xlink:title=" ">
<polygon fill="none" stroke="#bfbfbf" points="943.87,-419 943.87,-476 1021.87,-476 1021.87,-419 943.87,-419"/>
<text text-anchor="middle" x="982.87" y="-464" font-family="Helvetica,sans-Serif" font-size="10.00">IEnumerable</text>
<polyline fill="none" stroke="#bfbfbf" points="943.87,-457 1021.87,-457 "/>
<text text-anchor="middle" x="982.87" y="-445" font-family="Helvetica,sans-Serif" font-size="10.00"> </text>
<polyline fill="none" stroke="#bfbfbf" points="943.87,-438 1021.87,-438 "/>
<text text-anchor="middle" x="982.87" y="-426" font-family="Helvetica,sans-Serif" font-size="10.00"> </text>
</a>
</g>
</g>
<!-- Node12&#45;&gt;Node1 -->
<g id="edge14" class="edge">
<title>Node12&#45;&gt;Node1</title>
<path fill="none" stroke="midnightblue" d="M969.76,-409.47C966.33,-399.8 962.4,-388.7 958.17,-376.73"/>
<polygon fill="none" stroke="midnightblue" points="966.49,-410.74 973.13,-419 973.09,-408.4 966.49,-410.74"/>
</g>
<!-- Node13 -->
<g id="node13" class="node">
<title>Node13</title>
<g id="a_node13"><a xlink:title=" ">
<polygon fill="none" stroke="#bfbfbf" points="1040.37,-419 1040.37,-476 1165.37,-476 1165.37,-419 1040.37,-419"/>
<text text-anchor="middle" x="1102.87" y="-464" font-family="Helvetica,sans-Serif" font-size="10.00">IList&lt; AudioSession &gt;</text>
<polyline fill="none" stroke="#bfbfbf" points="1040.37,-457 1165.37,-457 "/>
<text text-anchor="middle" x="1102.87" y="-445" font-family="Helvetica,sans-Serif" font-size="10.00"> </text>
<polyline fill="none" stroke="#bfbfbf" points="1040.37,-438 1165.37,-438 "/>
<text text-anchor="middle" x="1102.87" y="-426" font-family="Helvetica,sans-Serif" font-size="10.00"> </text>
</a>
</g>
</g>
<!-- Node13&#45;&gt;Node1 -->
<g id="edge15" class="edge">
<title>Node13&#45;&gt;Node1</title>
<path fill="none" stroke="midnightblue" d="M1073.88,-411.19C1053.18,-385.98 1023.99,-350.42 995.03,-315.15"/>
<polygon fill="none" stroke="midnightblue" points="1071.24,-413.49 1080.29,-419 1076.65,-409.05 1071.24,-413.49"/>
</g>
<!-- Node14 -->
<g id="node14" class="node">
<title>Node14</title>
<g id="a_node14"><a xlink:title=" ">
<polygon fill="none" stroke="#bfbfbf" points="1183.87,-419 1183.87,-476 1361.87,-476 1361.87,-419 1183.87,-419"/>
<text text-anchor="middle" x="1272.87" y="-464" font-family="Helvetica,sans-Serif" font-size="10.00">IImmutableList&lt; AudioSession &gt;</text>
<polyline fill="none" stroke="#bfbfbf" points="1183.87,-457 1361.87,-457 "/>
<text text-anchor="middle" x="1272.87" y="-445" font-family="Helvetica,sans-Serif" font-size="10.00"> </text>
<polyline fill="none" stroke="#bfbfbf" points="1183.87,-438 1361.87,-438 "/>
<text text-anchor="middle" x="1272.87" y="-426" font-family="Helvetica,sans-Serif" font-size="10.00"> </text>
</a>
</g>
</g>
<!-- Node14&#45;&gt;Node1 -->
<g id="edge16" class="edge">
<title>Node14&#45;&gt;Node1</title>
<path fill="none" stroke="midnightblue" d="M1223.54,-413.23C1165.94,-374.37 1069.1,-309.05 994.89,-258.99"/>
<polygon fill="none" stroke="midnightblue" points="1221.85,-416.31 1232.1,-419 1225.76,-410.5 1221.85,-416.31"/>
</g>
<!-- Node15 -->
<g id="node15" class="node">
<title>Node15</title>
<g id="a_node15"><a xlink:title=" ">
<polygon fill="none" stroke="#bfbfbf" points="1379.87,-419 1379.87,-476 1535.87,-476 1535.87,-419 1379.87,-419"/>
<text text-anchor="middle" x="1457.87" y="-464" font-family="Helvetica,sans-Serif" font-size="10.00">ICollection&lt; AudioSession &gt;</text>
<polyline fill="none" stroke="#bfbfbf" points="1379.87,-457 1535.87,-457 "/>
<text text-anchor="middle" x="1457.87" y="-445" font-family="Helvetica,sans-Serif" font-size="10.00"> </text>
<polyline fill="none" stroke="#bfbfbf" points="1379.87,-438 1535.87,-438 "/>
<text text-anchor="middle" x="1457.87" y="-426" font-family="Helvetica,sans-Serif" font-size="10.00"> </text>
</a>
</g>
</g>
<!-- Node15&#45;&gt;Node1 -->
<g id="edge17" class="edge">
<title>Node15&#45;&gt;Node1</title>
<path fill="none" stroke="midnightblue" d="M1388.02,-414.78C1289.48,-370.04 1108.96,-288.07 994.96,-236.31"/>
<polygon fill="none" stroke="midnightblue" points="1386.74,-418.05 1397.3,-419 1389.64,-411.68 1386.74,-418.05"/>
</g>
<!-- Node16 -->
<g id="node16" class="node">
<title>Node16</title>
<g id="a_node16"><a xlink:title=" ">
<polygon fill="none" stroke="#bfbfbf" points="1553.87,-419 1553.87,-476 1719.87,-476 1719.87,-419 1553.87,-419"/>
<text text-anchor="middle" x="1636.87" y="-464" font-family="Helvetica,sans-Serif" font-size="10.00">IEnumerable&lt; AudioSession &gt;</text>
<polyline fill="none" stroke="#bfbfbf" points="1553.87,-457 1719.87,-457 "/>
<text text-anchor="middle" x="1636.87" y="-445" font-family="Helvetica,sans-Serif" font-size="10.00"> </text>
<polyline fill="none" stroke="#bfbfbf" points="1553.87,-438 1719.87,-438 "/>
<text text-anchor="middle" x="1636.87" y="-426" font-family="Helvetica,sans-Serif" font-size="10.00"> </text>
</a>
</g>
</g>
<!-- Node16&#45;&gt;Node1 -->
<g id="edge18" class="edge">
<title>Node16&#45;&gt;Node1</title>
<path fill="none" stroke="midnightblue" d="M1552.11,-415.57C1549.67,-414.7 1547.25,-413.84 1544.87,-413 1351.1,-344.57 1123.89,-267.52 995,-224.11"/>
<polygon fill="none" stroke="midnightblue" points="1551.01,-418.89 1561.6,-418.96 1553.36,-412.3 1551.01,-418.89"/>
</g>
<!-- Node17 -->
<g id="node17" class="node">
<title>Node17</title>
<g id="a_node17"><a xlink:title=" ">
<polygon fill="none" stroke="#bfbfbf" points="1737.87,-419 1737.87,-476 1909.87,-476 1909.87,-419 1737.87,-419"/>
<text text-anchor="middle" x="1823.87" y="-464" font-family="Helvetica,sans-Serif" font-size="10.00">IReadOnlyList&lt; AudioSession &gt;</text>
<polyline fill="none" stroke="#bfbfbf" points="1737.87,-457 1909.87,-457 "/>
<text text-anchor="middle" x="1823.87" y="-445" font-family="Helvetica,sans-Serif" font-size="10.00"> </text>
<polyline fill="none" stroke="#bfbfbf" points="1737.87,-438 1909.87,-438 "/>
<text text-anchor="middle" x="1823.87" y="-426" font-family="Helvetica,sans-Serif" font-size="10.00"> </text>
</a>
</g>
</g>
<!-- Node17&#45;&gt;Node1 -->
<g id="edge19" class="edge">
<title>Node17&#45;&gt;Node1</title>
<path fill="none" stroke="midnightblue" d="M1737.72,-415.79C1734.74,-414.83 1731.78,-413.9 1728.87,-413 1467,-332 1153.78,-253.06 995.04,-214.29"/>
<polygon fill="none" stroke="midnightblue" points="1736.71,-419.14 1747.3,-418.92 1738.88,-412.49 1736.71,-419.14"/>
</g>
<!-- Node18 -->
<g id="node18" class="node">
<title>Node18</title>
<g id="a_node18"><a xlink:title=" ">
<polygon fill="none" stroke="#bfbfbf" points="1927.87,-413.5 1927.87,-481.5 2043.87,-481.5 2043.87,-413.5 1927.87,-413.5"/>
<text text-anchor="start" x="1935.87" y="-469.5" font-family="Helvetica,sans-Serif" font-size="10.00">IReadOnlyCollection</text>
<text text-anchor="middle" x="1985.87" y="-458.5" font-family="Helvetica,sans-Serif" font-size="10.00">&lt; AudioSession &gt;</text>
<polyline fill="none" stroke="#bfbfbf" points="1927.87,-451.5 2043.87,-451.5 "/>
<text text-anchor="middle" x="1985.87" y="-439.5" font-family="Helvetica,sans-Serif" font-size="10.00"> </text>
<polyline fill="none" stroke="#bfbfbf" points="1927.87,-432.5 2043.87,-432.5 "/>
<text text-anchor="middle" x="1985.87" y="-420.5" font-family="Helvetica,sans-Serif" font-size="10.00"> </text>
</a>
</g>
</g>
<!-- Node18&#45;&gt;Node1 -->
<g id="edge20" class="edge">
<title>Node18&#45;&gt;Node1</title>
<path fill="none" stroke="midnightblue" d="M1917.9,-412.92C1583.3,-296.18 1181.12,-229.92 995.15,-203.26"/>
<polygon fill="none" stroke="midnightblue" points="1917.18,-416.37 1927.78,-416.39 1919.5,-409.77 1917.18,-416.37"/>
</g>
<!-- Node19 -->
<g id="node19" class="node">
<title>Node19</title>
<g id="a_node19"><a xlink:title=" ">
<polygon fill="none" stroke="#bfbfbf" points="2061.87,-419 2061.87,-476 2201.87,-476 2201.87,-419 2061.87,-419"/>
<text text-anchor="middle" x="2131.87" y="-464" font-family="Helvetica,sans-Serif" font-size="10.00">INotifyCollectionChanged</text>
<polyline fill="none" stroke="#bfbfbf" points="2061.87,-457 2201.87,-457 "/>
<text text-anchor="middle" x="2131.87" y="-445" font-family="Helvetica,sans-Serif" font-size="10.00"> </text>
<polyline fill="none" stroke="#bfbfbf" points="2061.87,-438 2201.87,-438 "/>
<text text-anchor="middle" x="2131.87" y="-426" font-family="Helvetica,sans-Serif" font-size="10.00"> </text>
</a>
</g>
</g>
<!-- Node19&#45;&gt;Node1 -->
<g id="edge21" class="edge">
<title>Node19&#45;&gt;Node1</title>
<path fill="none" stroke="midnightblue" d="M2060.69,-415.52C2058.07,-414.63 2055.45,-413.79 2052.87,-413 1671.2,-296.76 1199.8,-228.19 994.96,-201.91"/>
<polygon fill="none" stroke="midnightblue" points="2059.63,-418.86 2070.23,-418.91 2061.98,-412.26 2059.63,-418.86"/>
</g>
</g>
</svg>
