<?xml version="1.0" encoding="UTF-8" standalone="no"?>
<!DOCTYPE svg PUBLIC "-//W3C//DTD SVG 1.1//EN"
 "http://www.w3.org/Graphics/SVG/1.1/DTD/svg11.dtd">
<!-- Generated by graphviz version 2.43.0 (0)
 -->
<!-- Title: VolumeControl.Core.Helpers.VCSettingsContainer Pages: 1 -->
<svg width="484pt" height="486pt"
 viewBox="0.00 0.00 483.50 486.00" xmlns="http://www.w3.org/2000/svg" xmlns:xlink="http://www.w3.org/1999/xlink">
<g id="graph0" class="graph" transform="scale(1 1) rotate(0) translate(4 482)">
<title>VolumeControl.Core.Helpers.VCSettingsContainer</title>
<!-- Node1 -->
<g id="node1" class="node">
<title>Node1</title>
<g id="a_node1"><a xlink:title="Responsible for containing the runtime state settings.">
<polygon fill="#bfbfbf" stroke="black" points="125,-0.5 125,-211.5 314,-211.5 314,-0.5 125,-0.5"/>
<text text-anchor="start" x="133" y="-199.5" font-family="Helvetica,sans-Serif" font-size="10.00">VolumeControl.Core.Helpers.</text>
<text text-anchor="middle" x="219.5" y="-188.5" font-family="Helvetica,sans-Serif" font-size="10.00">VCSettingsContainer</text>
<polyline fill="none" stroke="black" points="125,-181.5 314,-181.5 "/>
<text text-anchor="start" x="133" y="-169.5" font-family="Helvetica,sans-Serif" font-size="10.00">+ ExecutablePath</text>
<text text-anchor="start" x="133" y="-158.5" font-family="Helvetica,sans-Serif" font-size="10.00">+ ShowIcons</text>
<text text-anchor="start" x="133" y="-147.5" font-family="Helvetica,sans-Serif" font-size="10.00">+ AdvancedHotkeyMode</text>
<text text-anchor="start" x="133" y="-136.5" font-family="Helvetica,sans-Serif" font-size="10.00">+ RunAtStartup</text>
<text text-anchor="start" x="133" y="-125.5" font-family="Helvetica,sans-Serif" font-size="10.00">+ StartMinimized</text>
<text text-anchor="start" x="133" y="-114.5" font-family="Helvetica,sans-Serif" font-size="10.00">+ CheckForUpdates</text>
<text text-anchor="start" x="133" y="-103.5" font-family="Helvetica,sans-Serif" font-size="10.00">+ AllowUpdateToPreRelease</text>
<text text-anchor="start" x="133" y="-92.5" font-family="Helvetica,sans-Serif" font-size="10.00">+ ShowUpdateMessageBox</text>
<text text-anchor="start" x="133" y="-81.5" font-family="Helvetica,sans-Serif" font-size="10.00">+ NotificationEnabled</text>
<text text-anchor="start" x="133" y="-70.5" font-family="Helvetica,sans-Serif" font-size="10.00">+ NotificationTimeout</text>
<text text-anchor="start" x="133" y="-59.5" font-family="Helvetica,sans-Serif" font-size="10.00">+ NotificationMode</text>
<text text-anchor="start" x="133" y="-48.5" font-family="Helvetica,sans-Serif" font-size="10.00">+ NotificationShowsVolumeChange</text>
<polyline fill="none" stroke="black" points="125,-41.5 314,-41.5 "/>
<text text-anchor="start" x="133" y="-29.5" font-family="Helvetica,sans-Serif" font-size="10.00">+ VCSettingsContainer()</text>
<text text-anchor="start" x="133" y="-18.5" font-family="Helvetica,sans-Serif" font-size="10.00"># NotifyPropertyChanged()</text>
<text text-anchor="start" x="133" y="-7.5" font-family="Helvetica,sans-Serif" font-size="10.00"># NotifyPropertyChanging()</text>
</a>
</g>
</g>
<!-- Node2 -->
<g id="node2" class="node">
<title>Node2</title>
<g id="a_node2"><a xlink:title=" ">
<polygon fill="none" stroke="#bfbfbf" points="0,-292.5 0,-349.5 133,-349.5 133,-292.5 0,-292.5"/>
<text text-anchor="middle" x="66.5" y="-337.5" font-family="Helvetica,sans-Serif" font-size="10.00">INotifyPropertyChanged</text>
<polyline fill="none" stroke="#bfbfbf" points="0,-330.5 133,-330.5 "/>
<text text-anchor="middle" x="66.5" y="-318.5" font-family="Helvetica,sans-Serif" font-size="10.00"> </text>
<polyline fill="none" stroke="#bfbfbf" points="0,-311.5 133,-311.5 "/>
<text text-anchor="middle" x="66.5" y="-299.5" font-family="Helvetica,sans-Serif" font-size="10.00"> </text>
</a>
</g>
</g>
<!-- Node2&#45;&gt;Node1 -->
<g id="edge1" class="edge">
<title>Node2&#45;&gt;Node1</title>
<path fill="none" stroke="midnightblue" d="M92.41,-283.92C106.86,-263.81 125.68,-237.61 144.38,-211.57"/>
<polygon fill="none" stroke="midnightblue" points="89.49,-281.99 86.5,-292.15 95.18,-286.07 89.49,-281.99"/>
</g>
<!-- Node3 -->
<g id="node3" class="node">
<title>Node3</title>
<g id="a_node3"><a xlink:title=" ">
<polygon fill="none" stroke="#bfbfbf" points="151.5,-292.5 151.5,-349.5 287.5,-349.5 287.5,-292.5 151.5,-292.5"/>
<text text-anchor="middle" x="219.5" y="-337.5" font-family="Helvetica,sans-Serif" font-size="10.00">INotifyPropertyChanging</text>
<polyline fill="none" stroke="#bfbfbf" points="151.5,-330.5 287.5,-330.5 "/>
<text text-anchor="middle" x="219.5" y="-318.5" font-family="Helvetica,sans-Serif" font-size="10.00"> </text>
<polyline fill="none" stroke="#bfbfbf" points="151.5,-311.5 287.5,-311.5 "/>
<text text-anchor="middle" x="219.5" y="-299.5" font-family="Helvetica,sans-Serif" font-size="10.00"> </text>
</a>
</g>
</g>
<!-- Node3&#45;&gt;Node1 -->
<g id="edge2" class="edge">
<title>Node3&#45;&gt;Node1</title>
<path fill="none" stroke="midnightblue" d="M219.5,-282.02C219.5,-262.17 219.5,-236.8 219.5,-211.57"/>
<polygon fill="none" stroke="midnightblue" points="216,-282.15 219.5,-292.15 223,-282.15 216,-282.15"/>
</g>
<!-- Node4 -->
<g id="node4" class="node">
<title>Node4</title>
<g id="a_node4"><a xlink:href="class_volume_control_1_1_w_p_f_1_1_h_wnd_hook.html" target="_top" xlink:title="Handles receiving windows event messages.">
<polygon fill="none" stroke="black" points="305.5,-259.5 305.5,-382.5 475.5,-382.5 475.5,-259.5 305.5,-259.5"/>
<text text-anchor="middle" x="390.5" y="-370.5" font-family="Helvetica,sans-Serif" font-size="10.00">VolumeControl.WPF.HWndHook</text>
<polyline fill="none" stroke="black" points="305.5,-363.5 475.5,-363.5 "/>
<text text-anchor="start" x="313.5" y="-351.5" font-family="Helvetica,sans-Serif" font-size="10.00">+ Handle</text>
<text text-anchor="start" x="313.5" y="-340.5" font-family="Helvetica,sans-Serif" font-size="10.00">+ Hooks</text>
<polyline fill="none" stroke="black" points="305.5,-333.5 475.5,-333.5 "/>
<text text-anchor="start" x="313.5" y="-321.5" font-family="Helvetica,sans-Serif" font-size="10.00">+ HWndHook()</text>
<text text-anchor="start" x="313.5" y="-310.5" font-family="Helvetica,sans-Serif" font-size="10.00">+ HWndHook()</text>
<text text-anchor="start" x="313.5" y="-299.5" font-family="Helvetica,sans-Serif" font-size="10.00">+ SetSource()</text>
<text text-anchor="start" x="313.5" y="-288.5" font-family="Helvetica,sans-Serif" font-size="10.00">+ AddHook()</text>
<text text-anchor="start" x="313.5" y="-277.5" font-family="Helvetica,sans-Serif" font-size="10.00">+ RemoveHook()</text>
<text text-anchor="start" x="313.5" y="-266.5" font-family="Helvetica,sans-Serif" font-size="10.00">+ Dispose()</text>
</a>
</g>
</g>
<!-- Node4&#45;&gt;Node1 -->
<g id="edge3" class="edge">
<title>Node4&#45;&gt;Node1</title>
<path fill="none" stroke="#404040" d="M341.73,-259.25C332.12,-247.28 321.74,-234.35 311.24,-221.27"/>
<polygon fill="none" stroke="#404040" points="311.09,-221.08 304.21,-218.91 303.58,-211.73 310.45,-213.9 311.09,-221.08"/>
<text text-anchor="middle" x="343" y="-233" font-family="Helvetica,sans-Serif" font-size="10.00"> +Hook</text>
</g>
<!-- Node5 -->
<g id="node5" class="node">
<title>Node5</title>
<g id="a_node5"><a xlink:title=" ">
<polygon fill="none" stroke="#bfbfbf" points="353.5,-420.5 353.5,-477.5 427.5,-477.5 427.5,-420.5 353.5,-420.5"/>
<text text-anchor="middle" x="390.5" y="-465.5" font-family="Helvetica,sans-Serif" font-size="10.00">IDisposable</text>
<polyline fill="none" stroke="#bfbfbf" points="353.5,-458.5 427.5,-458.5 "/>
<text text-anchor="middle" x="390.5" y="-446.5" font-family="Helvetica,sans-Serif" font-size="10.00"> </text>
<polyline fill="none" stroke="#bfbfbf" points="353.5,-439.5 427.5,-439.5 "/>
<text text-anchor="middle" x="390.5" y="-427.5" font-family="Helvetica,sans-Serif" font-size="10.00"> </text>
</a>
</g>
</g>
<!-- Node5&#45;&gt;Node4 -->
<g id="edge4" class="edge">
<title>Node5&#45;&gt;Node4</title>
<path fill="none" stroke="midnightblue" d="M390.5,-410.18C390.5,-401.49 390.5,-392.03 390.5,-382.65"/>
<polygon fill="none" stroke="midnightblue" points="387,-410.35 390.5,-420.35 394,-410.35 387,-410.35"/>
</g>
</g>
</svg>
