<?xml version="1.0" encoding="UTF-8" standalone="no"?>
<!DOCTYPE svg PUBLIC "-//W3C//DTD SVG 1.1//EN"
 "http://www.w3.org/Graphics/SVG/1.1/DTD/svg11.dtd">
<!-- Generated by graphviz version 2.43.0 (0)
 -->
<!-- Title: VolumeControl.Log.AsyncLogWriter Pages: 1 -->
<svg width="667pt" height="585pt"
 viewBox="0.00 0.00 667.00 585.00" xmlns="http://www.w3.org/2000/svg" xmlns:xlink="http://www.w3.org/1999/xlink">
<g id="graph0" class="graph" transform="scale(1 1) rotate(0) translate(4 581)">
<title>VolumeControl.Log.AsyncLogWriter</title>
<!-- Node1 -->
<g id="node1" class="node">
<title>Node1</title>
<g id="a_node1"><a xlink:title="Asynchonously writes messages to the log endpoint.">
<polygon fill="#bfbfbf" stroke="black" points="191,-0.5 191,-266.5 349,-266.5 349,-0.5 191,-0.5"/>
<text text-anchor="start" x="199" y="-254.5" font-family="Helvetica,sans-Serif" font-size="10.00">VolumeControl.Log.AsyncLog</text>
<text text-anchor="middle" x="270" y="-243.5" font-family="Helvetica,sans-Serif" font-size="10.00">Writer</text>
<polyline fill="none" stroke="black" points="191,-236.5 349,-236.5 "/>
<text text-anchor="start" x="199" y="-224.5" font-family="Helvetica,sans-Serif" font-size="10.00">+ DateTimeFormatString</text>
<text text-anchor="start" x="199" y="-213.5" font-family="Helvetica,sans-Serif" font-size="10.00">+ TimestampLength</text>
<text text-anchor="start" x="199" y="-202.5" font-family="Helvetica,sans-Serif" font-size="10.00">+ EventTypeLength</text>
<text text-anchor="start" x="199" y="-191.5" font-family="Helvetica,sans-Serif" font-size="10.00">+ BlankLineHeader</text>
<text text-anchor="start" x="199" y="-180.5" font-family="Helvetica,sans-Serif" font-size="10.00">+ AlwaysVisibleEventTypes</text>
<text text-anchor="start" x="199" y="-169.5" font-family="Helvetica,sans-Serif" font-size="10.00">+ EndpointEnabled</text>
<text text-anchor="start" x="199" y="-158.5" font-family="Helvetica,sans-Serif" font-size="10.00">+ EventTypeFilter</text>
<text text-anchor="start" x="199" y="-147.5" font-family="Helvetica,sans-Serif" font-size="10.00">+ IsAsyncEnabled</text>
<polyline fill="none" stroke="black" points="191,-140.5 349,-140.5 "/>
<text text-anchor="start" x="199" y="-128.5" font-family="Helvetica,sans-Serif" font-size="10.00">+ AsyncLogWriter()</text>
<text text-anchor="start" x="199" y="-117.5" font-family="Helvetica,sans-Serif" font-size="10.00">+ FilterEventType()</text>
<text text-anchor="start" x="199" y="-106.5" font-family="Helvetica,sans-Serif" font-size="10.00">+ ResetEndpoint()</text>
<text text-anchor="start" x="199" y="-95.5" font-family="Helvetica,sans-Serif" font-size="10.00">+ ResetEndpoint()</text>
<text text-anchor="start" x="199" y="-84.5" font-family="Helvetica,sans-Serif" font-size="10.00">+ LogMessage()</text>
<text text-anchor="start" x="199" y="-73.5" font-family="Helvetica,sans-Serif" font-size="10.00">+ Trace()</text>
<text text-anchor="start" x="199" y="-62.5" font-family="Helvetica,sans-Serif" font-size="10.00">+ Trace()</text>
<text text-anchor="start" x="199" y="-51.5" font-family="Helvetica,sans-Serif" font-size="10.00">+ Debug()</text>
<text text-anchor="start" x="199" y="-40.5" font-family="Helvetica,sans-Serif" font-size="10.00">+ Debug()</text>
<text text-anchor="start" x="199" y="-29.5" font-family="Helvetica,sans-Serif" font-size="10.00">+ Info()</text>
<text text-anchor="start" x="199" y="-18.5" font-family="Helvetica,sans-Serif" font-size="10.00">and 13 more...</text>
<text text-anchor="start" x="199" y="-7.5" font-family="Helvetica,sans-Serif" font-size="10.00">~ Indent()</text>
</a>
</g>
</g>
<!-- Node2 -->
<g id="node2" class="node">
<title>Node2</title>
<g id="a_node2"><a xlink:href="class_volume_control_1_1_log_1_1_helpers_1_1_threaded_action_queue.html" target="_top" xlink:title="Manages a background thread to execute queued actions.">
<polygon fill="none" stroke="black" points="53.5,-342 53.5,-454 196.5,-454 196.5,-342 53.5,-342"/>
<text text-anchor="middle" x="125" y="-442" font-family="Helvetica,sans-Serif" font-size="10.00">ThreadedActionQueue</text>
<polyline fill="none" stroke="black" points="53.5,-435 196.5,-435 "/>
<text text-anchor="middle" x="125" y="-423" font-family="Helvetica,sans-Serif" font-size="10.00"> </text>
<polyline fill="none" stroke="black" points="53.5,-416 196.5,-416 "/>
<text text-anchor="start" x="61.5" y="-404" font-family="Helvetica,sans-Serif" font-size="10.00">+ Flush()</text>
<text text-anchor="start" x="61.5" y="-393" font-family="Helvetica,sans-Serif" font-size="10.00">+ Flush()</text>
<text text-anchor="start" x="61.5" y="-382" font-family="Helvetica,sans-Serif" font-size="10.00">+ Flush()</text>
<text text-anchor="start" x="61.5" y="-371" font-family="Helvetica,sans-Serif" font-size="10.00">+ Dispose()</text>
<text text-anchor="start" x="61.5" y="-360" font-family="Helvetica,sans-Serif" font-size="10.00"># ThreadedActionQueue()</text>
<text text-anchor="start" x="61.5" y="-349" font-family="Helvetica,sans-Serif" font-size="10.00"># Enqueue()</text>
</a>
</g>
</g>
<!-- Node2&#45;&gt;Node1 -->
<g id="edge1" class="edge">
<title>Node2&#45;&gt;Node1</title>
<path fill="none" stroke="midnightblue" d="M160.25,-333.18C171.44,-312.93 184.25,-289.74 197.07,-266.52"/>
<polygon fill="none" stroke="midnightblue" points="157.17,-331.53 155.4,-341.97 163.3,-334.91 157.17,-331.53"/>
</g>
<!-- Node3 -->
<g id="node3" class="node">
<title>Node3</title>
<g id="a_node3"><a xlink:title=" ">
<polygon fill="none" stroke="#bfbfbf" points="0,-519.5 0,-576.5 74,-576.5 74,-519.5 0,-519.5"/>
<text text-anchor="middle" x="37" y="-564.5" font-family="Helvetica,sans-Serif" font-size="10.00">IDisposable</text>
<polyline fill="none" stroke="#bfbfbf" points="0,-557.5 74,-557.5 "/>
<text text-anchor="middle" x="37" y="-545.5" font-family="Helvetica,sans-Serif" font-size="10.00"> </text>
<polyline fill="none" stroke="#bfbfbf" points="0,-538.5 74,-538.5 "/>
<text text-anchor="middle" x="37" y="-526.5" font-family="Helvetica,sans-Serif" font-size="10.00"> </text>
</a>
</g>
</g>
<!-- Node3&#45;&gt;Node1 -->
<g id="edge5" class="edge">
<title>Node3&#45;&gt;Node1</title>
<path fill="none" stroke="midnightblue" d="M28.88,-509.38C20.48,-461.27 12.57,-376.69 44,-314 75.16,-251.85 138.93,-204.34 190.81,-173.86"/>
<polygon fill="none" stroke="midnightblue" points="25.46,-510.16 30.72,-519.36 32.34,-508.89 25.46,-510.16"/>
</g>
<!-- Node3&#45;&gt;Node2 -->
<g id="edge2" class="edge">
<title>Node3&#45;&gt;Node2</title>
<path fill="none" stroke="midnightblue" d="M58.89,-510.18C68.92,-493.31 81.02,-472.96 92.12,-454.3"/>
<polygon fill="none" stroke="midnightblue" points="55.65,-508.78 53.55,-519.16 61.67,-512.36 55.65,-508.78"/>
</g>
<!-- Node4 -->
<g id="node4" class="node">
<title>Node4</title>
<g id="a_node4"><a xlink:href="interface_volume_control_1_1_log_1_1_interfaces_1_1_i_log_writer.html" target="_top" xlink:title="Represents a log writer instance.">
<polygon fill="none" stroke="black" points="215,-314.5 215,-481.5 325,-481.5 325,-314.5 215,-314.5"/>
<text text-anchor="middle" x="270" y="-469.5" font-family="Helvetica,sans-Serif" font-size="10.00">ILogWriter</text>
<polyline fill="none" stroke="black" points="215,-462.5 325,-462.5 "/>
<text text-anchor="middle" x="270" y="-450.5" font-family="Helvetica,sans-Serif" font-size="10.00"> </text>
<polyline fill="none" stroke="black" points="215,-443.5 325,-443.5 "/>
<text text-anchor="start" x="223" y="-431.5" font-family="Helvetica,sans-Serif" font-size="10.00">+ FilterEventType()</text>
<text text-anchor="start" x="223" y="-420.5" font-family="Helvetica,sans-Serif" font-size="10.00">+ LogMessage()</text>
<text text-anchor="start" x="223" y="-409.5" font-family="Helvetica,sans-Serif" font-size="10.00">+ Trace()</text>
<text text-anchor="start" x="223" y="-398.5" font-family="Helvetica,sans-Serif" font-size="10.00">+ Debug()</text>
<text text-anchor="start" x="223" y="-387.5" font-family="Helvetica,sans-Serif" font-size="10.00">+ Debug()</text>
<text text-anchor="start" x="223" y="-376.5" font-family="Helvetica,sans-Serif" font-size="10.00">+ Info()</text>
<text text-anchor="start" x="223" y="-365.5" font-family="Helvetica,sans-Serif" font-size="10.00">+ Info()</text>
<text text-anchor="start" x="223" y="-354.5" font-family="Helvetica,sans-Serif" font-size="10.00">+ Warning()</text>
<text text-anchor="start" x="223" y="-343.5" font-family="Helvetica,sans-Serif" font-size="10.00">+ Warning()</text>
<text text-anchor="start" x="223" y="-332.5" font-family="Helvetica,sans-Serif" font-size="10.00">+ Error()</text>
<text text-anchor="start" x="223" y="-321.5" font-family="Helvetica,sans-Serif" font-size="10.00">and 7 more...</text>
</a>
</g>
</g>
<!-- Node4&#45;&gt;Node1 -->
<g id="edge3" class="edge">
<title>Node4&#45;&gt;Node1</title>
<path fill="none" stroke="midnightblue" d="M270,-304.21C270,-292.04 270,-279.39 270,-266.73"/>
<polygon fill="none" stroke="midnightblue" points="266.5,-304.3 270,-314.3 273.5,-304.3 266.5,-304.3"/>
</g>
<!-- Node5 -->
<g id="node5" class="node">
<title>Node5</title>
<g id="a_node5"><a xlink:title=" ">
<polygon fill="none" stroke="#bfbfbf" points="343.5,-369.5 343.5,-426.5 476.5,-426.5 476.5,-369.5 343.5,-369.5"/>
<text text-anchor="middle" x="410" y="-414.5" font-family="Helvetica,sans-Serif" font-size="10.00">INotifyPropertyChanged</text>
<polyline fill="none" stroke="#bfbfbf" points="343.5,-407.5 476.5,-407.5 "/>
<text text-anchor="middle" x="410" y="-395.5" font-family="Helvetica,sans-Serif" font-size="10.00"> </text>
<polyline fill="none" stroke="#bfbfbf" points="343.5,-388.5 476.5,-388.5 "/>
<text text-anchor="middle" x="410" y="-376.5" font-family="Helvetica,sans-Serif" font-size="10.00"> </text>
</a>
</g>
</g>
<!-- Node5&#45;&gt;Node1 -->
<g id="edge4" class="edge">
<title>Node5&#45;&gt;Node1</title>
<path fill="none" stroke="midnightblue" d="M390.48,-360.39C377.25,-335.6 358.9,-301.19 340.5,-266.69"/>
<polygon fill="none" stroke="midnightblue" points="387.49,-362.23 395.28,-369.4 393.66,-358.93 387.49,-362.23"/>
</g>
<!-- Node6 -->
<g id="node6" class="node">
<title>Node6</title>
<g id="a_node6"><a xlink:href="interface_volume_control_1_1_log_1_1_interfaces_1_1_i_endpoint_writer.html" target="_top" xlink:title="Represents an endpoint that text can be written to.">
<polygon fill="none" stroke="black" points="495,-347.5 495,-448.5 659,-448.5 659,-347.5 495,-347.5"/>
<text text-anchor="start" x="503" y="-436.5" font-family="Helvetica,sans-Serif" font-size="10.00">VolumeControl.Log.Interfaces.</text>
<text text-anchor="middle" x="577" y="-425.5" font-family="Helvetica,sans-Serif" font-size="10.00">IEndpointWriter</text>
<polyline fill="none" stroke="black" points="495,-418.5 659,-418.5 "/>
<text text-anchor="start" x="503" y="-406.5" font-family="Helvetica,sans-Serif" font-size="10.00">+ IsWritingEnabled</text>
<polyline fill="none" stroke="black" points="495,-399.5 659,-399.5 "/>
<text text-anchor="start" x="503" y="-387.5" font-family="Helvetica,sans-Serif" font-size="10.00">+ GetTextWriter()</text>
<text text-anchor="start" x="503" y="-376.5" font-family="Helvetica,sans-Serif" font-size="10.00">+ Write()</text>
<text text-anchor="start" x="503" y="-365.5" font-family="Helvetica,sans-Serif" font-size="10.00">+ WriteLine()</text>
<text text-anchor="start" x="503" y="-354.5" font-family="Helvetica,sans-Serif" font-size="10.00">+ Reset()</text>
</a>
</g>
</g>
<!-- Node6&#45;&gt;Node1 -->
<g id="edge6" class="edge">
<title>Node6&#45;&gt;Node1</title>
<path fill="none" stroke="#404040" d="M523.48,-347.43C511.26,-336.32 498.26,-324.67 486,-314 444.64,-277.98 397.92,-238.96 358.54,-206.53"/>
<polygon fill="none" stroke="#404040" points="358.49,-206.49 351.31,-205.77 349.22,-198.86 356.4,-199.59 358.49,-206.49"/>
<text text-anchor="middle" x="490.5" y="-288" font-family="Helvetica,sans-Serif" font-size="10.00"> ~Endpoint</text>
</g>
</g>
</svg>
