<?xml version="1.0" encoding="UTF-8" standalone="no"?>
<!DOCTYPE svg PUBLIC "-//W3C//DTD SVG 1.1//EN"
 "http://www.w3.org/Graphics/SVG/1.1/DTD/svg11.dtd">
<!-- Generated by graphviz version 2.43.0 (0)
 -->
<!-- Title: VolumeControl.CoreAudio.AudioDevice Pages: 1 -->
<svg width="623pt" height="358pt"
 viewBox="0.00 0.00 622.50 358.00" xmlns="http://www.w3.org/2000/svg" xmlns:xlink="http://www.w3.org/1999/xlink">
<g id="graph0" class="graph" transform="scale(1 1) rotate(0) translate(4 354)">
<title>VolumeControl.CoreAudio.AudioDevice</title>
<!-- Node1 -->
<g id="node1" class="node">
<title>Node1</title>
<g id="a_node1"><a xlink:title="An audio endpoint device.">
<polygon fill="#bfbfbf" stroke="black" points="245,-0.5 245,-233.5 390,-233.5 390,-0.5 245,-0.5"/>
<text text-anchor="start" x="253" y="-221.5" font-family="Helvetica,sans-Serif" font-size="10.00">VolumeControl.CoreAudio.</text>
<text text-anchor="middle" x="317.5" y="-210.5" font-family="Helvetica,sans-Serif" font-size="10.00">AudioDevice</text>
<polyline fill="none" stroke="black" points="245,-203.5 390,-203.5 "/>
<text text-anchor="start" x="253" y="-191.5" font-family="Helvetica,sans-Serif" font-size="10.00">+ MMDevice</text>
<text text-anchor="start" x="253" y="-180.5" font-family="Helvetica,sans-Serif" font-size="10.00">+ AudioEndpointVolume</text>
<text text-anchor="start" x="253" y="-169.5" font-family="Helvetica,sans-Serif" font-size="10.00">+ AudioSessionManager</text>
<text text-anchor="start" x="253" y="-158.5" font-family="Helvetica,sans-Serif" font-size="10.00">+ AudioMeterInformation</text>
<text text-anchor="start" x="253" y="-147.5" font-family="Helvetica,sans-Serif" font-size="10.00">+ SessionManager</text>
<text text-anchor="start" x="253" y="-136.5" font-family="Helvetica,sans-Serif" font-size="10.00">+ FullName</text>
<text text-anchor="start" x="253" y="-125.5" font-family="Helvetica,sans-Serif" font-size="10.00">+ Name</text>
<text text-anchor="start" x="253" y="-114.5" font-family="Helvetica,sans-Serif" font-size="10.00">+ ID</text>
<text text-anchor="start" x="253" y="-103.5" font-family="Helvetica,sans-Serif" font-size="10.00">+ IsDefault</text>
<text text-anchor="start" x="253" y="-92.5" font-family="Helvetica,sans-Serif" font-size="10.00">+ IconPath</text>
<text text-anchor="start" x="253" y="-81.5" font-family="Helvetica,sans-Serif" font-size="10.00">+ NativeVolume</text>
<text text-anchor="start" x="253" y="-70.5" font-family="Helvetica,sans-Serif" font-size="10.00">+ Volume</text>
<text text-anchor="start" x="253" y="-59.5" font-family="Helvetica,sans-Serif" font-size="10.00">+ Mute</text>
<text text-anchor="start" x="253" y="-48.5" font-family="Helvetica,sans-Serif" font-size="10.00">+ PeakMeterValue</text>
<polyline fill="none" stroke="black" points="245,-41.5 390,-41.5 "/>
<text text-anchor="start" x="253" y="-29.5" font-family="Helvetica,sans-Serif" font-size="10.00">+ Dispose()</text>
<text text-anchor="start" x="253" y="-18.5" font-family="Helvetica,sans-Serif" font-size="10.00">+ ToString()</text>
<text text-anchor="start" x="253" y="-7.5" font-family="Helvetica,sans-Serif" font-size="10.00">~ AudioDevice()</text>
</a>
</g>
</g>
<!-- Node2 -->
<g id="node2" class="node">
<title>Node2</title>
<g id="a_node2"><a xlink:href="interface_volume_control_1_1_core_audio_1_1_interfaces_1_1_i_audio_control.html" target="_top" xlink:title="Represents an audio instance with a controllable volume level and mute state.">
<polygon fill="none" stroke="black" points="0,-270.5 0,-349.5 97,-349.5 97,-270.5 0,-270.5"/>
<text text-anchor="middle" x="48.5" y="-337.5" font-family="Helvetica,sans-Serif" font-size="10.00">IAudioControl</text>
<polyline fill="none" stroke="black" points="0,-330.5 97,-330.5 "/>
<text text-anchor="start" x="8" y="-318.5" font-family="Helvetica,sans-Serif" font-size="10.00">+ NativeVolume</text>
<text text-anchor="start" x="8" y="-307.5" font-family="Helvetica,sans-Serif" font-size="10.00">+ Volume</text>
<text text-anchor="start" x="8" y="-296.5" font-family="Helvetica,sans-Serif" font-size="10.00">+ Mute</text>
<polyline fill="none" stroke="black" points="0,-289.5 97,-289.5 "/>
<text text-anchor="middle" x="48.5" y="-277.5" font-family="Helvetica,sans-Serif" font-size="10.00"> </text>
</a>
</g>
</g>
<!-- Node2&#45;&gt;Node1 -->
<g id="edge1" class="edge">
<title>Node2&#45;&gt;Node1</title>
<path fill="none" stroke="midnightblue" d="M105.4,-268.6C146.02,-239.75 201.01,-200.71 244.82,-169.61"/>
<polygon fill="none" stroke="midnightblue" points="103.34,-265.77 97.21,-274.41 107.39,-271.48 103.34,-265.77"/>
</g>
<!-- Node3 -->
<g id="node3" class="node">
<title>Node3</title>
<g id="a_node3"><a xlink:href="interface_volume_control_1_1_core_audio_1_1_interfaces_1_1_i_read_only_audio_control.html" target="_top" xlink:title="Represents an audio instance with a read&#45;only volume level and mute state.">
<polygon fill="none" stroke="black" points="115.5,-270.5 115.5,-349.5 245.5,-349.5 245.5,-270.5 115.5,-270.5"/>
<text text-anchor="middle" x="180.5" y="-337.5" font-family="Helvetica,sans-Serif" font-size="10.00">IReadOnlyAudioControl</text>
<polyline fill="none" stroke="black" points="115.5,-330.5 245.5,-330.5 "/>
<text text-anchor="start" x="123.5" y="-318.5" font-family="Helvetica,sans-Serif" font-size="10.00">+ NativeVolume</text>
<text text-anchor="start" x="123.5" y="-307.5" font-family="Helvetica,sans-Serif" font-size="10.00">+ Volume</text>
<text text-anchor="start" x="123.5" y="-296.5" font-family="Helvetica,sans-Serif" font-size="10.00">+ Mute</text>
<polyline fill="none" stroke="black" points="115.5,-289.5 245.5,-289.5 "/>
<text text-anchor="middle" x="180.5" y="-277.5" font-family="Helvetica,sans-Serif" font-size="10.00"> </text>
</a>
</g>
</g>
<!-- Node3&#45;&gt;Node1 -->
<g id="edge2" class="edge">
<title>Node3&#45;&gt;Node1</title>
<path fill="none" stroke="midnightblue" d="M214.19,-262.03C223.54,-248.99 234.08,-234.31 244.75,-219.43"/>
<polygon fill="none" stroke="midnightblue" points="211.21,-260.18 208.22,-270.35 216.9,-264.26 211.21,-260.18"/>
</g>
<!-- Node4 -->
<g id="node4" class="node">
<title>Node4</title>
<g id="a_node4"><a xlink:href="interface_volume_control_1_1_core_audio_1_1_interfaces_1_1_i_audio_peak_meter.html" target="_top" xlink:title="Represents some kind of object that has an audio peak meter.">
<polygon fill="none" stroke="black" points="264,-281.5 264,-338.5 371,-338.5 371,-281.5 264,-281.5"/>
<text text-anchor="middle" x="317.5" y="-326.5" font-family="Helvetica,sans-Serif" font-size="10.00">IAudioPeakMeter</text>
<polyline fill="none" stroke="black" points="264,-319.5 371,-319.5 "/>
<text text-anchor="start" x="272" y="-307.5" font-family="Helvetica,sans-Serif" font-size="10.00">+ PeakMeterValue</text>
<polyline fill="none" stroke="black" points="264,-300.5 371,-300.5 "/>
<text text-anchor="middle" x="317.5" y="-288.5" font-family="Helvetica,sans-Serif" font-size="10.00"> </text>
</a>
</g>
</g>
<!-- Node4&#45;&gt;Node1 -->
<g id="edge3" class="edge">
<title>Node4&#45;&gt;Node1</title>
<path fill="none" stroke="midnightblue" d="M317.5,-271.1C317.5,-259.96 317.5,-247.15 317.5,-233.79"/>
<polygon fill="none" stroke="midnightblue" points="314,-271.23 317.5,-281.23 321,-271.23 314,-271.23"/>
</g>
<!-- Node5 -->
<g id="node5" class="node">
<title>Node5</title>
<g id="a_node5"><a xlink:title=" ">
<polygon fill="none" stroke="#bfbfbf" points="389,-281.5 389,-338.5 522,-338.5 522,-281.5 389,-281.5"/>
<text text-anchor="middle" x="455.5" y="-326.5" font-family="Helvetica,sans-Serif" font-size="10.00">INotifyPropertyChanged</text>
<polyline fill="none" stroke="#bfbfbf" points="389,-319.5 522,-319.5 "/>
<text text-anchor="middle" x="455.5" y="-307.5" font-family="Helvetica,sans-Serif" font-size="10.00"> </text>
<polyline fill="none" stroke="#bfbfbf" points="389,-300.5 522,-300.5 "/>
<text text-anchor="middle" x="455.5" y="-288.5" font-family="Helvetica,sans-Serif" font-size="10.00"> </text>
</a>
</g>
</g>
<!-- Node5&#45;&gt;Node1 -->
<g id="edge4" class="edge">
<title>Node5&#45;&gt;Node1</title>
<path fill="none" stroke="midnightblue" d="M429.43,-272.92C418.12,-257.27 404.26,-238.09 390.2,-218.62"/>
<polygon fill="none" stroke="midnightblue" points="426.74,-275.17 435.43,-281.23 432.41,-271.07 426.74,-275.17"/>
</g>
<!-- Node6 -->
<g id="node6" class="node">
<title>Node6</title>
<g id="a_node6"><a xlink:title=" ">
<polygon fill="none" stroke="#bfbfbf" points="540.5,-281.5 540.5,-338.5 614.5,-338.5 614.5,-281.5 540.5,-281.5"/>
<text text-anchor="middle" x="577.5" y="-326.5" font-family="Helvetica,sans-Serif" font-size="10.00">IDisposable</text>
<polyline fill="none" stroke="#bfbfbf" points="540.5,-319.5 614.5,-319.5 "/>
<text text-anchor="middle" x="577.5" y="-307.5" font-family="Helvetica,sans-Serif" font-size="10.00"> </text>
<polyline fill="none" stroke="#bfbfbf" points="540.5,-300.5 614.5,-300.5 "/>
<text text-anchor="middle" x="577.5" y="-288.5" font-family="Helvetica,sans-Serif" font-size="10.00"> </text>
</a>
</g>
</g>
<!-- Node6&#45;&gt;Node1 -->
<g id="edge5" class="edge">
<title>Node6&#45;&gt;Node1</title>
<path fill="none" stroke="midnightblue" d="M537.65,-274.86C535.59,-273.2 533.53,-271.57 531.5,-270 485.61,-234.36 432.35,-196.51 390.44,-167.5"/>
<polygon fill="none" stroke="midnightblue" points="535.66,-277.75 545.62,-281.37 540.09,-272.33 535.66,-277.75"/>
</g>
</g>
</svg>
