<?xml version="1.0" encoding="UTF-8" standalone="no"?>
<!DOCTYPE svg PUBLIC "-//W3C//DTD SVG 1.1//EN"
 "http://www.w3.org/Graphics/SVG/1.1/DTD/svg11.dtd">
<!-- Generated by graphviz version 2.43.0 (0)
 -->
<!-- Title: VolumeControl.Hotkeys.HotkeyManager Pages: 1 -->
<svg width="572pt" height="486pt"
 viewBox="0.00 0.00 572.00 486.00" xmlns="http://www.w3.org/2000/svg" xmlns:xlink="http://www.w3.org/1999/xlink">
<g id="graph0" class="graph" transform="scale(1 1) rotate(0) translate(4 482)">
<title>VolumeControl.Hotkeys.HotkeyManager</title>
<!-- Node1 -->
<g id="node1" class="node">
<title>Node1</title>
<g id="a_node1"><a xlink:title="This object is responsible for managing hotkeys at runtime.">
<polygon fill="#bfbfbf" stroke="black" points="110.5,-0.5 110.5,-233.5 279.5,-233.5 279.5,-0.5 110.5,-0.5"/>
<text text-anchor="start" x="118.5" y="-221.5" font-family="Helvetica,sans-Serif" font-size="10.00">VolumeControl.Hotkeys.Hotkey</text>
<text text-anchor="middle" x="195" y="-210.5" font-family="Helvetica,sans-Serif" font-size="10.00">Manager</text>
<polyline fill="none" stroke="black" points="110.5,-203.5 279.5,-203.5 "/>
<text text-anchor="start" x="118.5" y="-191.5" font-family="Helvetica,sans-Serif" font-size="10.00">+ OwnerHandle</text>
<text text-anchor="start" x="118.5" y="-180.5" font-family="Helvetica,sans-Serif" font-size="10.00">+ CollectionChanged</text>
<text text-anchor="start" x="118.5" y="-169.5" font-family="Helvetica,sans-Serif" font-size="10.00">+ Hotkeys</text>
<polyline fill="none" stroke="black" points="110.5,-162.5 279.5,-162.5 "/>
<text text-anchor="start" x="118.5" y="-150.5" font-family="Helvetica,sans-Serif" font-size="10.00">+ HotkeyManager()</text>
<text text-anchor="start" x="118.5" y="-139.5" font-family="Helvetica,sans-Serif" font-size="10.00">+ AddHotkey()</text>
<text text-anchor="start" x="118.5" y="-128.5" font-family="Helvetica,sans-Serif" font-size="10.00">+ AddHotkey()</text>
<text text-anchor="start" x="118.5" y="-117.5" font-family="Helvetica,sans-Serif" font-size="10.00">+ DelHotkey()</text>
<text text-anchor="start" x="118.5" y="-106.5" font-family="Helvetica,sans-Serif" font-size="10.00">+ DelHotkey()</text>
<text text-anchor="start" x="118.5" y="-95.5" font-family="Helvetica,sans-Serif" font-size="10.00">+ DelAllHotkeys()</text>
<text text-anchor="start" x="118.5" y="-84.5" font-family="Helvetica,sans-Serif" font-size="10.00">+ GetHotkey()</text>
<text text-anchor="start" x="118.5" y="-73.5" font-family="Helvetica,sans-Serif" font-size="10.00">+ LoadHotkeys()</text>
<text text-anchor="start" x="118.5" y="-62.5" font-family="Helvetica,sans-Serif" font-size="10.00">+ SaveHotkeys()</text>
<text text-anchor="start" x="118.5" y="-51.5" font-family="Helvetica,sans-Serif" font-size="10.00">+ ResetHotkeys()</text>
<text text-anchor="start" x="118.5" y="-40.5" font-family="Helvetica,sans-Serif" font-size="10.00">+ Dispose()</text>
<text text-anchor="start" x="118.5" y="-29.5" font-family="Helvetica,sans-Serif" font-size="10.00"># HwndHook()</text>
<text text-anchor="start" x="118.5" y="-18.5" font-family="Helvetica,sans-Serif" font-size="10.00"># AddHook()</text>
<text text-anchor="start" x="118.5" y="-7.5" font-family="Helvetica,sans-Serif" font-size="10.00"># RemoveHook()</text>
</a>
</g>
</g>
<!-- Node2 -->
<g id="node2" class="node">
<title>Node2</title>
<g id="a_node2"><a xlink:title=" ">
<polygon fill="none" stroke="#bfbfbf" points="0,-298 0,-355 140,-355 140,-298 0,-298"/>
<text text-anchor="middle" x="70" y="-343" font-family="Helvetica,sans-Serif" font-size="10.00">INotifyCollectionChanged</text>
<polyline fill="none" stroke="#bfbfbf" points="0,-336 140,-336 "/>
<text text-anchor="middle" x="70" y="-324" font-family="Helvetica,sans-Serif" font-size="10.00"> </text>
<polyline fill="none" stroke="#bfbfbf" points="0,-317 140,-317 "/>
<text text-anchor="middle" x="70" y="-305" font-family="Helvetica,sans-Serif" font-size="10.00"> </text>
</a>
</g>
</g>
<!-- Node2&#45;&gt;Node1 -->
<g id="edge1" class="edge">
<title>Node2&#45;&gt;Node1</title>
<path fill="none" stroke="midnightblue" d="M91.95,-289.06C101.5,-273.21 113.27,-253.67 125.4,-233.53"/>
<polygon fill="none" stroke="midnightblue" points="88.76,-287.57 86.6,-297.95 94.76,-291.19 88.76,-287.57"/>
</g>
<!-- Node3 -->
<g id="node3" class="node">
<title>Node3</title>
<g id="a_node3"><a xlink:title=" ">
<polygon fill="none" stroke="#bfbfbf" points="158,-298 158,-355 232,-355 232,-298 158,-298"/>
<text text-anchor="middle" x="195" y="-343" font-family="Helvetica,sans-Serif" font-size="10.00">IDisposable</text>
<polyline fill="none" stroke="#bfbfbf" points="158,-336 232,-336 "/>
<text text-anchor="middle" x="195" y="-324" font-family="Helvetica,sans-Serif" font-size="10.00"> </text>
<polyline fill="none" stroke="#bfbfbf" points="158,-317 232,-317 "/>
<text text-anchor="middle" x="195" y="-305" font-family="Helvetica,sans-Serif" font-size="10.00"> </text>
</a>
</g>
</g>
<!-- Node3&#45;&gt;Node1 -->
<g id="edge2" class="edge">
<title>Node3&#45;&gt;Node1</title>
<path fill="none" stroke="midnightblue" d="M195,-287.72C195,-272.12 195,-253.11 195,-233.53"/>
<polygon fill="none" stroke="midnightblue" points="191.5,-287.95 195,-297.95 198.5,-287.95 191.5,-287.95"/>
</g>
<!-- Node4 -->
<g id="node4" class="node">
<title>Node4</title>
<g id="a_node4"><a xlink:href="interface_volume_control_1_1_hotkeys_1_1_interfaces_1_1_i_hotkey_action_manager.html" target="_top" xlink:title="Represents a hotkey action manager object, which contains the list of IActionBindings used in the hot...">
<polygon fill="none" stroke="black" points="250,-281.5 250,-371.5 436,-371.5 436,-281.5 250,-281.5"/>
<text text-anchor="start" x="258" y="-359.5" font-family="Helvetica,sans-Serif" font-size="10.00">VolumeControl.Hotkeys.Interfaces.</text>
<text text-anchor="middle" x="343" y="-348.5" font-family="Helvetica,sans-Serif" font-size="10.00">IHotkeyActionManager</text>
<polyline fill="none" stroke="black" points="250,-341.5 436,-341.5 "/>
<text text-anchor="start" x="258" y="-329.5" font-family="Helvetica,sans-Serif" font-size="10.00">+ NullAction</text>
<text text-anchor="start" x="258" y="-318.5" font-family="Helvetica,sans-Serif" font-size="10.00">+ Bindings</text>
<text text-anchor="start" x="258" y="-307.5" font-family="Helvetica,sans-Serif" font-size="10.00">+ this[string actionName]</text>
<polyline fill="none" stroke="black" points="250,-300.5 436,-300.5 "/>
<text text-anchor="start" x="258" y="-288.5" font-family="Helvetica,sans-Serif" font-size="10.00">+ GetActionNames()</text>
</a>
</g>
</g>
<!-- Node4&#45;&gt;Node1 -->
<g id="edge3" class="edge">
<title>Node4&#45;&gt;Node1</title>
<path fill="none" stroke="#404040" d="M311.61,-281.49C303.42,-270.01 294.17,-257.04 284.55,-243.55"/>
<polygon fill="none" stroke="#404040" points="284.46,-243.43 277.72,-240.86 277.49,-233.66 284.23,-236.22 284.46,-243.43"/>
<text text-anchor="middle" x="320" y="-255" font-family="Helvetica,sans-Serif" font-size="10.00"> +Actions</text>
</g>
<!-- Node5 -->
<g id="node5" class="node">
<title>Node5</title>
<g id="a_node5"><a xlink:href="interface_volume_control_1_1_core_1_1_i_base_addon.html" target="_top" xlink:title="Represents an addon object. &#160;You can&#39;t directly implement this interface; inherit from the abstract c...">
<polygon fill="none" stroke="black" points="147.5,-409.5 147.5,-477.5 258.5,-477.5 258.5,-409.5 147.5,-409.5"/>
<text text-anchor="middle" x="203" y="-465.5" font-family="Helvetica,sans-Serif" font-size="10.00">IBaseAddon</text>
<polyline fill="none" stroke="black" points="147.5,-458.5 258.5,-458.5 "/>
<text text-anchor="start" x="155.5" y="-446.5" font-family="Helvetica,sans-Serif" font-size="10.00">+ Attribute</text>
<text text-anchor="start" x="155.5" y="-435.5" font-family="Helvetica,sans-Serif" font-size="10.00">+ Types</text>
<polyline fill="none" stroke="black" points="147.5,-428.5 258.5,-428.5 "/>
<text text-anchor="start" x="155.5" y="-416.5" font-family="Helvetica,sans-Serif" font-size="10.00">+ LoadFromTypes()</text>
</a>
</g>
</g>
<!-- Node5&#45;&gt;Node4 -->
<g id="edge4" class="edge">
<title>Node5&#45;&gt;Node4</title>
<path fill="none" stroke="midnightblue" d="M251.38,-402.76C263.61,-392.71 276.82,-381.86 289.31,-371.61"/>
<polygon fill="none" stroke="midnightblue" points="249,-400.19 243.49,-409.24 253.44,-405.59 249,-400.19"/>
</g>
<!-- Node6 -->
<g id="node6" class="node">
<title>Node6</title>
<g id="a_node6"><a xlink:title=" ">
<polygon fill="none" stroke="#bfbfbf" points="276.5,-415 276.5,-472 409.5,-472 409.5,-415 276.5,-415"/>
<text text-anchor="middle" x="343" y="-460" font-family="Helvetica,sans-Serif" font-size="10.00">INotifyPropertyChanged</text>
<polyline fill="none" stroke="#bfbfbf" points="276.5,-453 409.5,-453 "/>
<text text-anchor="middle" x="343" y="-441" font-family="Helvetica,sans-Serif" font-size="10.00"> </text>
<polyline fill="none" stroke="#bfbfbf" points="276.5,-434 409.5,-434 "/>
<text text-anchor="middle" x="343" y="-422" font-family="Helvetica,sans-Serif" font-size="10.00"> </text>
</a>
</g>
</g>
<!-- Node6&#45;&gt;Node4 -->
<g id="edge5" class="edge">
<title>Node6&#45;&gt;Node4</title>
<path fill="none" stroke="midnightblue" d="M343,-404.83C343,-394.3 343,-382.76 343,-371.88"/>
<polygon fill="none" stroke="midnightblue" points="339.5,-404.95 343,-414.95 346.5,-404.95 339.5,-404.95"/>
</g>
<!-- Node7 -->
<g id="node7" class="node">
<title>Node7</title>
<g id="a_node7"><a xlink:title=" ">
<polygon fill="none" stroke="#bfbfbf" points="428,-415 428,-472 564,-472 564,-415 428,-415"/>
<text text-anchor="middle" x="496" y="-460" font-family="Helvetica,sans-Serif" font-size="10.00">INotifyPropertyChanging</text>
<polyline fill="none" stroke="#bfbfbf" points="428,-453 564,-453 "/>
<text text-anchor="middle" x="496" y="-441" font-family="Helvetica,sans-Serif" font-size="10.00"> </text>
<polyline fill="none" stroke="#bfbfbf" points="428,-434 564,-434 "/>
<text text-anchor="middle" x="496" y="-422" font-family="Helvetica,sans-Serif" font-size="10.00"> </text>
</a>
</g>
</g>
<!-- Node7&#45;&gt;Node4 -->
<g id="edge6" class="edge">
<title>Node7&#45;&gt;Node4</title>
<path fill="none" stroke="midnightblue" d="M451.02,-408.69C435.59,-397.1 418.1,-383.95 401.75,-371.66"/>
<polygon fill="none" stroke="midnightblue" points="449.26,-411.74 459.35,-414.95 453.46,-406.15 449.26,-411.74"/>
</g>
</g>
</svg>
