<?xml version="1.0" encoding="UTF-8" standalone="no"?>
<!DOCTYPE svg PUBLIC "-//W3C//DTD SVG 1.1//EN"
 "http://www.w3.org/Graphics/SVG/1.1/DTD/svg11.dtd">
<!-- Generated by graphviz version 2.43.0 (0)
 -->
<!-- Title: VolumeControl.Core.Input.HotkeyPressedEventArgs Pages: 1 -->
<svg width="166pt" height="281pt"
 viewBox="0.00 0.00 166.00 281.00" xmlns="http://www.w3.org/2000/svg" xmlns:xlink="http://www.w3.org/1999/xlink">
<g id="graph0" class="graph" transform="scale(1 1) rotate(0) translate(4 277)">
<title>VolumeControl.Core.Input.HotkeyPressedEventArgs</title>
<!-- Node1 -->
<g id="node1" class="node">
<title>Node1</title>
<g id="a_node1"><a xlink:title="Event arguments for hotkey action events.">
<polygon fill="#bfbfbf" stroke="black" points="0,-0.5 0,-178.5 158,-178.5 158,-0.5 0,-0.5"/>
<text text-anchor="start" x="8" y="-166.5" font-family="Helvetica,sans-Serif" font-size="10.00">VolumeControl.Core.Input.</text>
<text text-anchor="middle" x="79" y="-155.5" font-family="Helvetica,sans-Serif" font-size="10.00">HotkeyPressedEventArgs</text>
<polyline fill="none" stroke="black" points="0,-148.5 158,-148.5 "/>
<text text-anchor="start" x="8" y="-136.5" font-family="Helvetica,sans-Serif" font-size="10.00">+ Settings</text>
<polyline fill="none" stroke="black" points="0,-129.5 158,-129.5 "/>
<text text-anchor="start" x="8" y="-117.5" font-family="Helvetica,sans-Serif" font-size="10.00">+ HotkeyPressedEventArgs()</text>
<text text-anchor="start" x="8" y="-106.5" font-family="Helvetica,sans-Serif" font-size="10.00">+ HotkeyPressedEventArgs()</text>
<text text-anchor="start" x="8" y="-95.5" font-family="Helvetica,sans-Serif" font-size="10.00">+ HotkeyPressedEventArgs()</text>
<text text-anchor="start" x="8" y="-84.5" font-family="Helvetica,sans-Serif" font-size="10.00">+ HotkeyPressedEventArgs()</text>
<text text-anchor="start" x="8" y="-73.5" font-family="Helvetica,sans-Serif" font-size="10.00">+ GetSetting()</text>
<text text-anchor="start" x="8" y="-62.5" font-family="Helvetica,sans-Serif" font-size="10.00">+ GetSetting()</text>
<text text-anchor="start" x="8" y="-51.5" font-family="Helvetica,sans-Serif" font-size="10.00">+ GetSetting&lt; T &gt;()</text>
<text text-anchor="start" x="8" y="-40.5" font-family="Helvetica,sans-Serif" font-size="10.00">+ TryGetSetting()</text>
<text text-anchor="start" x="8" y="-29.5" font-family="Helvetica,sans-Serif" font-size="10.00">+ TryGetSetting()</text>
<text text-anchor="start" x="8" y="-18.5" font-family="Helvetica,sans-Serif" font-size="10.00">+ TryGetSetting()</text>
<text text-anchor="start" x="8" y="-7.5" font-family="Helvetica,sans-Serif" font-size="10.00">and 17 more...</text>
</a>
</g>
</g>
<!-- Node2 -->
<g id="node2" class="node">
<title>Node2</title>
<g id="a_node2"><a xlink:title=" ">
<polygon fill="none" stroke="#bfbfbf" points="25.5,-215.5 25.5,-272.5 132.5,-272.5 132.5,-215.5 25.5,-215.5"/>
<text text-anchor="middle" x="79" y="-260.5" font-family="Helvetica,sans-Serif" font-size="10.00">HandledEventArgs</text>
<polyline fill="none" stroke="#bfbfbf" points="25.5,-253.5 132.5,-253.5 "/>
<text text-anchor="middle" x="79" y="-241.5" font-family="Helvetica,sans-Serif" font-size="10.00"> </text>
<polyline fill="none" stroke="#bfbfbf" points="25.5,-234.5 132.5,-234.5 "/>
<text text-anchor="middle" x="79" y="-222.5" font-family="Helvetica,sans-Serif" font-size="10.00"> </text>
</a>
</g>
</g>
<!-- Node2&#45;&gt;Node1 -->
<g id="edge1" class="edge">
<title>Node2&#45;&gt;Node1</title>
<path fill="none" stroke="midnightblue" d="M79,-205.37C79,-197.09 79,-187.98 79,-178.62"/>
<polygon fill="none" stroke="midnightblue" points="75.5,-205.38 79,-215.38 82.5,-205.38 75.5,-205.38"/>
</g>
</g>
</svg>
