<?xml version="1.0" encoding="UTF-8" standalone="no"?>
<!DOCTYPE svg PUBLIC "-//W3C//DTD SVG 1.1//EN"
 "http://www.w3.org/Graphics/SVG/1.1/DTD/svg11.dtd">
<!-- Generated by graphviz version 2.43.0 (0)
 -->
<!-- Title: VolumeControl.WPF.Behaviors.TextBoxEnterUpdatesTextSourceBehavior Pages: 1 -->
<svg width="226pt" height="193pt"
 viewBox="0.00 0.00 226.00 193.00" xmlns="http://www.w3.org/2000/svg" xmlns:xlink="http://www.w3.org/1999/xlink">
<g id="graph0" class="graph" transform="scale(1 1) rotate(0) translate(4 189)">
<title>VolumeControl.WPF.Behaviors.TextBoxEnterUpdatesTextSourceBehavior</title>
<!-- Node1 -->
<g id="node1" class="node">
<title>Node1</title>
<g id="a_node1"><a xlink:title="Forces the TextBox.Text property&#39;s data binding to update its source when the Enter key is pressed or...">
<polygon fill="#bfbfbf" stroke="black" points="0,-0.5 0,-90.5 218,-90.5 218,-0.5 0,-0.5"/>
<text text-anchor="start" x="8" y="-78.5" font-family="Helvetica,sans-Serif" font-size="10.00">VolumeControl.WPF.Behaviors.</text>
<text text-anchor="middle" x="109" y="-67.5" font-family="Helvetica,sans-Serif" font-size="10.00">TextBoxEnterUpdatesTextSourceBehavior</text>
<polyline fill="none" stroke="black" points="0,-60.5 218,-60.5 "/>
<text text-anchor="start" x="8" y="-48.5" font-family="Helvetica,sans-Serif" font-size="10.00">+ OnKeyEventProperty</text>
<text text-anchor="start" x="8" y="-37.5" font-family="Helvetica,sans-Serif" font-size="10.00">+ OnKeyEvent</text>
<polyline fill="none" stroke="black" points="0,-30.5 218,-30.5 "/>
<text text-anchor="start" x="8" y="-18.5" font-family="Helvetica,sans-Serif" font-size="10.00"># OnAttached()</text>
<text text-anchor="start" x="8" y="-7.5" font-family="Helvetica,sans-Serif" font-size="10.00"># OnDetaching()</text>
</a>
</g>
</g>
<!-- Node2 -->
<g id="node2" class="node">
<title>Node2</title>
<g id="a_node2"><a xlink:title=" ">
<polygon fill="none" stroke="#bfbfbf" points="36,-127.5 36,-184.5 182,-184.5 182,-127.5 36,-127.5"/>
<text text-anchor="middle" x="109" y="-172.5" font-family="Helvetica,sans-Serif" font-size="10.00">Behavior&lt; TextBoxBase &gt;</text>
<polyline fill="none" stroke="#bfbfbf" points="36,-165.5 182,-165.5 "/>
<text text-anchor="middle" x="109" y="-153.5" font-family="Helvetica,sans-Serif" font-size="10.00"> </text>
<polyline fill="none" stroke="#bfbfbf" points="36,-146.5 182,-146.5 "/>
<text text-anchor="middle" x="109" y="-134.5" font-family="Helvetica,sans-Serif" font-size="10.00"> </text>
</a>
</g>
</g>
<!-- Node2&#45;&gt;Node1 -->
<g id="edge1" class="edge">
<title>Node2&#45;&gt;Node1</title>
<path fill="none" stroke="midnightblue" d="M109,-117.21C109,-108.61 109,-99.39 109,-90.55"/>
<polygon fill="none" stroke="midnightblue" points="105.5,-117.34 109,-127.34 112.5,-117.34 105.5,-117.34"/>
</g>
</g>
</svg>
