<?xml version="1.0" encoding="UTF-8" standalone="no"?>
<!DOCTYPE svg PUBLIC "-//W3C//DTD SVG 1.1//EN"
 "http://www.w3.org/Graphics/SVG/1.1/DTD/svg11.dtd">
<!-- Generated by graphviz version 2.44.1 (20200629.0800)
 -->
<!-- Title: VolumeControl.Audio.Events.TargetChangingEventArgs Pages: 1 -->
<svg width="151pt" height="193pt"
 viewBox="0.00 0.00 151.00 193.00" xmlns="http://www.w3.org/2000/svg" xmlns:xlink="http://www.w3.org/1999/xlink">
<g id="graph0" class="graph" transform="scale(1 1) rotate(0) translate(4 189)">
<title>VolumeControl.Audio.Events.TargetChangingEventArgs</title>
<!-- Node1 -->
<g id="node1" class="node">
<title>Node1</title>
<g id="a_node1"><a xlink:title="Event arguments for the TargetChangedEventHandler event.">
<polygon fill="#bfbfbf" stroke="black" points="0,-0.5 0,-90.5 143,-90.5 143,-0.5 0,-0.5"/>
<text text-anchor="start" x="8" y="-78.5" font-family="Helvetica,sans-Serif" font-size="10.00">VolumeControl.Audio.Events.</text>
<text text-anchor="middle" x="71.5" y="-67.5" font-family="Helvetica,sans-Serif" font-size="10.00">TargetChangingEventArgs</text>
<polyline fill="none" stroke="black" points="0,-60.5 143,-60.5 "/>
<text text-anchor="start" x="8" y="-48.5" font-family="Helvetica,sans-Serif" font-size="10.00">+ Outgoing</text>
<text text-anchor="start" x="8" y="-37.5" font-family="Helvetica,sans-Serif" font-size="10.00">+ Incoming</text>
<text text-anchor="start" x="8" y="-26.5" font-family="Helvetica,sans-Serif" font-size="10.00">+ Cancel</text>
<polyline fill="none" stroke="black" points="0,-19.5 143,-19.5 "/>
<text text-anchor="start" x="8" y="-7.5" font-family="Helvetica,sans-Serif" font-size="10.00">+ TargetChangingEventArgs()</text>
</a>
</g>
</g>
<!-- Node2 -->
<g id="node2" class="node">
<title>Node2</title>
<g id="a_node2"><a xlink:title=" ">
<polygon fill="none" stroke="#bfbfbf" points="41,-127.5 41,-184.5 102,-184.5 102,-127.5 41,-127.5"/>
<text text-anchor="middle" x="71.5" y="-172.5" font-family="Helvetica,sans-Serif" font-size="10.00">EventArgs</text>
<polyline fill="none" stroke="#bfbfbf" points="41,-165.5 102,-165.5 "/>
<text text-anchor="middle" x="71.5" y="-153.5" font-family="Helvetica,sans-Serif" font-size="10.00"> </text>
<polyline fill="none" stroke="#bfbfbf" points="41,-146.5 102,-146.5 "/>
<text text-anchor="middle" x="71.5" y="-134.5" font-family="Helvetica,sans-Serif" font-size="10.00"> </text>
</a>
</g>
</g>
<!-- Node2&#45;&gt;Node1 -->
<g id="edge1" class="edge">
<title>Node2&#45;&gt;Node1</title>
<path fill="none" stroke="midnightblue" d="M71.5,-117.21C71.5,-108.61 71.5,-99.39 71.5,-90.55"/>
<polygon fill="none" stroke="midnightblue" points="68,-117.34 71.5,-127.34 75,-117.34 68,-117.34"/>
</g>
</g>
</svg>
