<?xml version="1.0" encoding="UTF-8" standalone="no"?>
<!DOCTYPE svg PUBLIC "-//W3C//DTD SVG 1.1//EN"
 "http://www.w3.org/Graphics/SVG/1.1/DTD/svg11.dtd">
<!-- Generated by graphviz version 2.43.0 (0)
 -->
<!-- Title: VolumeControl.WPF.Behaviors.TextBoxInputFilterBehavior Pages: 1 -->
<svg width="169pt" height="168pt"
 viewBox="0.00 0.00 169.00 168.00" xmlns="http://www.w3.org/2000/svg" xmlns:xlink="http://www.w3.org/1999/xlink">
<g id="graph0" class="graph" transform="scale(1 1) rotate(0) translate(4 164)">
<title>VolumeControl.WPF.Behaviors.TextBoxInputFilterBehavior</title>
<!-- Node1 -->
<g id="Node000001" class="node">
<title>Node1</title>
<g id="a_Node000001"><a xlink:title="TextBox behavior that uses regular expressions to only allow certain types of input.">
<polygon fill="#999999" stroke="transparent" points="161,-75 0,-75 0,0 161,0 161,-75"/>
<text text-anchor="start" x="5.5" y="-62.5" font-family="Helvetica,sans-Serif" font-size="10.00">VolumeControl.WPF.Behaviors.</text>
<text text-anchor="start" x="14.5" y="-51.5" font-family="Helvetica,sans-Serif" font-size="10.00">TextBoxInputFilterBehavior</text>
<text text-anchor="start" x="21.5" y="-36.5" font-family="Helvetica,sans-Serif" font-size="10.00">+</text>
<text text-anchor="start" x="51.5" y="-36.5" font-family="Helvetica,sans-Serif" font-size="10.00">Regex</text>
<text text-anchor="start" x="21.5" y="-21.5" font-family="Helvetica,sans-Serif" font-size="10.00">#</text>
<text text-anchor="start" x="51.5" y="-21.5" font-family="Helvetica,sans-Serif" font-size="10.00">OnAttached()</text>
<text text-anchor="start" x="21.5" y="-6.5" font-family="Helvetica,sans-Serif" font-size="10.00">#</text>
<text text-anchor="start" x="51.5" y="-6.5" font-family="Helvetica,sans-Serif" font-size="10.00">OnDetaching()</text>
<polygon fill="#666666" stroke="#666666" points="0.5,-46.5 0.5,-46.5 161.5,-46.5 161.5,-46.5 0.5,-46.5"/>
<polygon fill="#666666" stroke="#666666" points="0.5,-31.5 0.5,-31.5 49.5,-31.5 49.5,-31.5 0.5,-31.5"/>
<polygon fill="#666666" stroke="#666666" points="49.5,-31.5 49.5,-31.5 161.5,-31.5 161.5,-31.5 49.5,-31.5"/>
<polygon fill="none" stroke="#666666" points="0,0 0,-75 161,-75 161,0 0,0"/>
</a>
</g>
</g>
<!-- Node2 -->
<g id="Node000002" class="node">
<title>Node2</title>
<g id="a_Node000002"><a xlink:title=" ">
<polygon fill="white" stroke="transparent" points="150.5,-160 10.5,-160 10.5,-111 150.5,-111 150.5,-160"/>
<text text-anchor="start" x="15.5" y="-147.5" font-family="Helvetica,sans-Serif" font-size="10.00">Behavior&lt; TextBoxBase &gt;</text>
<text text-anchor="start" x="78.5" y="-132.5" font-family="Helvetica,sans-Serif" font-size="10.00"> </text>
<text text-anchor="start" x="78.5" y="-117.5" font-family="Helvetica,sans-Serif" font-size="10.00"> </text>
<polygon fill="#bfbfbf" stroke="#bfbfbf" points="10.5,-142.5 10.5,-142.5 150.5,-142.5 150.5,-142.5 10.5,-142.5"/>
<polygon fill="#bfbfbf" stroke="#bfbfbf" points="10.5,-127.5 10.5,-127.5 150.5,-127.5 150.5,-127.5 10.5,-127.5"/>
<polygon fill="none" stroke="#bfbfbf" points="10.5,-111 10.5,-160 150.5,-160 150.5,-111 10.5,-111"/>
</a>
</g>
</g>
<!-- Node2&#45;&gt;Node1 -->
<g id="edge1_Node000001_Node000002" class="edge">
<title>Node2&#45;&gt;Node1</title>
<g id="a_edge1_Node000001_Node000002"><a xlink:title=" ">
<path fill="none" stroke="#63b8ff" d="M80.5,-100.68C80.5,-92.38 80.5,-83.46 80.5,-75.04"/>
<polygon fill="none" stroke="#63b8ff" points="77,-100.77 80.5,-110.77 84,-100.77 77,-100.77"/>
</a>
</g>
</g>
</g>
</svg>
