<?xml version="1.0" encoding="UTF-8" standalone="no"?>
<!DOCTYPE svg PUBLIC "-//W3C//DTD SVG 1.1//EN"
 "http://www.w3.org/Graphics/SVG/1.1/DTD/svg11.dtd">
<!-- Generated by graphviz version 2.44.1 (20200629.0800)
 -->
<!-- Title: HotkeyLib.WindowsHotkeyConverter Pages: 1 -->
<svg width="182pt" height="182pt"
 viewBox="0.00 0.00 182.00 182.00" xmlns="http://www.w3.org/2000/svg" xmlns:xlink="http://www.w3.org/1999/xlink">
<g id="graph0" class="graph" transform="scale(1 1) rotate(0) translate(4 178)">
<title>HotkeyLib.WindowsHotkeyConverter</title>
<!-- Node1 -->
<g id="node1" class="node">
<title>Node1</title>
<g id="a_node1"><a xlink:title=" ">
<polygon fill="#bfbfbf" stroke="black" points="0,-0.5 0,-79.5 174,-79.5 174,-0.5 0,-0.5"/>
<text text-anchor="middle" x="87" y="-67.5" font-family="Helvetica,sans-Serif" font-size="10.00">HotkeyLib.WindowsHotkeyConverter</text>
<polyline fill="none" stroke="black" points="0,-60.5 174,-60.5 "/>
<text text-anchor="middle" x="87" y="-48.5" font-family="Helvetica,sans-Serif" font-size="10.00"> </text>
<polyline fill="none" stroke="black" points="0,-41.5 174,-41.5 "/>
<text text-anchor="start" x="8" y="-29.5" font-family="Helvetica,sans-Serif" font-size="10.00">+ ConvertTo()</text>
<text text-anchor="start" x="8" y="-18.5" font-family="Helvetica,sans-Serif" font-size="10.00">+ CanConvertFrom()</text>
<text text-anchor="start" x="8" y="-7.5" font-family="Helvetica,sans-Serif" font-size="10.00">+ ConvertFrom()</text>
</a>
</g>
</g>
<!-- Node2 -->
<g id="node2" class="node">
<title>Node2</title>
<g id="a_node2"><a xlink:title=" ">
<polygon fill="none" stroke="#bfbfbf" points="48,-116.5 48,-173.5 126,-173.5 126,-116.5 48,-116.5"/>
<text text-anchor="middle" x="87" y="-161.5" font-family="Helvetica,sans-Serif" font-size="10.00">TypeConverter</text>
<polyline fill="none" stroke="#bfbfbf" points="48,-154.5 126,-154.5 "/>
<text text-anchor="middle" x="87" y="-142.5" font-family="Helvetica,sans-Serif" font-size="10.00"> </text>
<polyline fill="none" stroke="#bfbfbf" points="48,-135.5 126,-135.5 "/>
<text text-anchor="middle" x="87" y="-123.5" font-family="Helvetica,sans-Serif" font-size="10.00"> </text>
</a>
</g>
</g>
<!-- Node2&#45;&gt;Node1 -->
<g id="edge1" class="edge">
<title>Node2&#45;&gt;Node1</title>
<path fill="none" stroke="midnightblue" d="M87,-106.16C87,-97.47 87,-88.23 87,-79.52"/>
<polygon fill="none" stroke="midnightblue" points="83.5,-106.4 87,-116.4 90.5,-106.4 83.5,-106.4"/>
</g>
</g>
</svg>
