<?xml version="1.0" encoding="UTF-8" standalone="no"?>
<!DOCTYPE svg PUBLIC "-//W3C//DTD SVG 1.1//EN"
 "http://www.w3.org/Graphics/SVG/1.1/DTD/svg11.dtd">
<!-- Generated by graphviz version 2.43.0 (0)
 -->
<!-- Title: HotkeyLib.Hotkey Pages: 1 -->
<svg width="235pt" height="463pt"
 viewBox="0.00 0.00 234.50 463.00" xmlns="http://www.w3.org/2000/svg" xmlns:xlink="http://www.w3.org/1999/xlink">
<g id="graph0" class="graph" transform="scale(1 1) rotate(0) translate(4 459)">
<title>HotkeyLib.Hotkey</title>
<!-- Node1 -->
<g id="node1" class="node">
<title>Node1</title>
<g id="a_node1"><a xlink:title="Abstract base hotkey class.">
<polygon fill="#bfbfbf" stroke="black" points="47,-0.5 47,-200.5 150,-200.5 150,-0.5 47,-0.5"/>
<text text-anchor="middle" x="98.5" y="-188.5" font-family="Helvetica,sans-Serif" font-size="10.00">HotkeyLib.Hotkey</text>
<polyline fill="none" stroke="black" points="47,-181.5 150,-181.5 "/>
<text text-anchor="start" x="55" y="-169.5" font-family="Helvetica,sans-Serif" font-size="10.00">+ Valid</text>
<text text-anchor="start" x="55" y="-158.5" font-family="Helvetica,sans-Serif" font-size="10.00">+ Owner</text>
<text text-anchor="start" x="55" y="-147.5" font-family="Helvetica,sans-Serif" font-size="10.00">+ Registered</text>
<text text-anchor="start" x="55" y="-136.5" font-family="Helvetica,sans-Serif" font-size="10.00">+ Key</text>
<text text-anchor="start" x="55" y="-125.5" font-family="Helvetica,sans-Serif" font-size="10.00">+ Mod</text>
<text text-anchor="start" x="55" y="-114.5" font-family="Helvetica,sans-Serif" font-size="10.00">+ Alt</text>
<text text-anchor="start" x="55" y="-103.5" font-family="Helvetica,sans-Serif" font-size="10.00">+ Shift</text>
<text text-anchor="start" x="55" y="-92.5" font-family="Helvetica,sans-Serif" font-size="10.00">+ Ctrl</text>
<text text-anchor="start" x="55" y="-81.5" font-family="Helvetica,sans-Serif" font-size="10.00">+ Win</text>
<text text-anchor="start" x="55" y="-70.5" font-family="Helvetica,sans-Serif" font-size="10.00">+ ID</text>
<polyline fill="none" stroke="black" points="47,-63.5 150,-63.5 "/>
<text text-anchor="start" x="55" y="-51.5" font-family="Helvetica,sans-Serif" font-size="10.00">+ Hotkey()</text>
<text text-anchor="start" x="55" y="-40.5" font-family="Helvetica,sans-Serif" font-size="10.00">+ Dispose()</text>
<text text-anchor="start" x="55" y="-29.5" font-family="Helvetica,sans-Serif" font-size="10.00">~ Register()</text>
<text text-anchor="start" x="55" y="-18.5" font-family="Helvetica,sans-Serif" font-size="10.00">~ Unregister()</text>
<text text-anchor="start" x="55" y="-7.5" font-family="Helvetica,sans-Serif" font-size="10.00">~ Reregister()</text>
</a>
</g>
</g>
<!-- Node2 -->
<g id="node2" class="node">
<title>Node2</title>
<g id="a_node2"><a xlink:href="interface_hotkey_lib_1_1_i_key_combo.html" target="_top" xlink:title="Represents a combination of one keyboard key and any number of modifier keys.">
<polygon fill="none" stroke="black" points="62.5,-237.5 62.5,-360.5 134.5,-360.5 134.5,-237.5 62.5,-237.5"/>
<text text-anchor="middle" x="98.5" y="-348.5" font-family="Helvetica,sans-Serif" font-size="10.00">IKeyCombo</text>
<polyline fill="none" stroke="black" points="62.5,-341.5 134.5,-341.5 "/>
<text text-anchor="start" x="70.5" y="-329.5" font-family="Helvetica,sans-Serif" font-size="10.00">+ Key</text>
<text text-anchor="start" x="70.5" y="-318.5" font-family="Helvetica,sans-Serif" font-size="10.00">+ Mod</text>
<text text-anchor="start" x="70.5" y="-307.5" font-family="Helvetica,sans-Serif" font-size="10.00">+ Alt</text>
<text text-anchor="start" x="70.5" y="-296.5" font-family="Helvetica,sans-Serif" font-size="10.00">+ Ctrl</text>
<text text-anchor="start" x="70.5" y="-285.5" font-family="Helvetica,sans-Serif" font-size="10.00">+ Shift</text>
<text text-anchor="start" x="70.5" y="-274.5" font-family="Helvetica,sans-Serif" font-size="10.00">+ Win</text>
<text text-anchor="start" x="70.5" y="-263.5" font-family="Helvetica,sans-Serif" font-size="10.00">+ Valid</text>
<polyline fill="none" stroke="black" points="62.5,-256.5 134.5,-256.5 "/>
<text text-anchor="middle" x="98.5" y="-244.5" font-family="Helvetica,sans-Serif" font-size="10.00"> </text>
</a>
</g>
</g>
<!-- Node2&#45;&gt;Node1 -->
<g id="edge1" class="edge">
<title>Node2&#45;&gt;Node1</title>
<path fill="none" stroke="midnightblue" d="M98.5,-227.36C98.5,-218.64 98.5,-209.6 98.5,-200.55"/>
<polygon fill="none" stroke="midnightblue" points="95,-227.44 98.5,-237.44 102,-227.44 95,-227.44"/>
</g>
<!-- Node3 -->
<g id="node3" class="node">
<title>Node3</title>
<g id="a_node3"><a xlink:title=" ">
<polygon fill="none" stroke="#bfbfbf" points="0,-397.5 0,-454.5 133,-454.5 133,-397.5 0,-397.5"/>
<text text-anchor="middle" x="66.5" y="-442.5" font-family="Helvetica,sans-Serif" font-size="10.00">INotifyPropertyChanged</text>
<polyline fill="none" stroke="#bfbfbf" points="0,-435.5 133,-435.5 "/>
<text text-anchor="middle" x="66.5" y="-423.5" font-family="Helvetica,sans-Serif" font-size="10.00"> </text>
<polyline fill="none" stroke="#bfbfbf" points="0,-416.5 133,-416.5 "/>
<text text-anchor="middle" x="66.5" y="-404.5" font-family="Helvetica,sans-Serif" font-size="10.00"> </text>
</a>
</g>
</g>
<!-- Node3&#45;&gt;Node1 -->
<g id="edge4" class="edge">
<title>Node3&#45;&gt;Node1</title>
<path fill="none" stroke="midnightblue" d="M57.6,-387.6C55.89,-378.92 54.37,-369.68 53.5,-361 47.99,-306.17 44.7,-291.4 53.5,-237 55.42,-225.13 58.23,-212.9 61.52,-200.86"/>
<polygon fill="none" stroke="midnightblue" points="54.18,-388.39 59.65,-397.46 61.04,-386.96 54.18,-388.39"/>
</g>
<!-- Node3&#45;&gt;Node2 -->
<g id="edge2" class="edge">
<title>Node3&#45;&gt;Node2</title>
<path fill="none" stroke="midnightblue" d="M76.13,-387.38C78.29,-378.94 80.64,-369.78 82.97,-360.67"/>
<polygon fill="none" stroke="midnightblue" points="72.69,-386.7 73.6,-397.26 79.47,-388.44 72.69,-386.7"/>
</g>
<!-- Node4 -->
<g id="node4" class="node">
<title>Node4</title>
<g id="a_node4"><a xlink:title=" ">
<polygon fill="none" stroke="#bfbfbf" points="152.5,-270.5 152.5,-327.5 226.5,-327.5 226.5,-270.5 152.5,-270.5"/>
<text text-anchor="middle" x="189.5" y="-315.5" font-family="Helvetica,sans-Serif" font-size="10.00">IDisposable</text>
<polyline fill="none" stroke="#bfbfbf" points="152.5,-308.5 226.5,-308.5 "/>
<text text-anchor="middle" x="189.5" y="-296.5" font-family="Helvetica,sans-Serif" font-size="10.00"> </text>
<polyline fill="none" stroke="#bfbfbf" points="152.5,-289.5 226.5,-289.5 "/>
<text text-anchor="middle" x="189.5" y="-277.5" font-family="Helvetica,sans-Serif" font-size="10.00"> </text>
</a>
</g>
</g>
<!-- Node4&#45;&gt;Node1 -->
<g id="edge3" class="edge">
<title>Node4&#45;&gt;Node1</title>
<path fill="none" stroke="midnightblue" d="M172.41,-261.09C164.38,-243.76 154.38,-222.17 144.36,-200.53"/>
<polygon fill="none" stroke="midnightblue" points="169.28,-262.66 176.65,-270.26 175.63,-259.72 169.28,-262.66"/>
</g>
</g>
</svg>
