<?xml version="1.0" encoding="UTF-8" standalone="no"?>
<!DOCTYPE svg PUBLIC "-//W3C//DTD SVG 1.1//EN"
 "http://www.w3.org/Graphics/SVG/1.1/DTD/svg11.dtd">
<!-- Generated by graphviz version 2.43.0 (0)
 -->
<!-- Title: VolumeControl.WPF.FilteredTextItemsSource Pages: 1 -->
<svg width="175pt" height="248pt"
 viewBox="0.00 0.00 175.00 248.00" xmlns="http://www.w3.org/2000/svg" xmlns:xlink="http://www.w3.org/1999/xlink">
<g id="graph0" class="graph" transform="scale(1 1) rotate(0) translate(4 244)">
<title>VolumeControl.WPF.FilteredTextItemsSource</title>
<!-- Node1 -->
<g id="node1" class="node">
<title>Node1</title>
<g id="a_node1"><a xlink:title="Helper object for creating autocomplete suggestion dropdowns for textboxes.">
<polygon fill="#bfbfbf" stroke="black" points="0,-0.5 0,-145.5 167,-145.5 167,-0.5 0,-0.5"/>
<text text-anchor="start" x="8" y="-133.5" font-family="Helvetica,sans-Serif" font-size="10.00">VolumeControl.WPF.Filtered</text>
<text text-anchor="middle" x="83.5" y="-122.5" font-family="Helvetica,sans-Serif" font-size="10.00">TextItemsSource</text>
<polyline fill="none" stroke="black" points="0,-115.5 167,-115.5 "/>
<text text-anchor="start" x="8" y="-103.5" font-family="Helvetica,sans-Serif" font-size="10.00">+ ItemsSourceProperty</text>
<text text-anchor="start" x="8" y="-92.5" font-family="Helvetica,sans-Serif" font-size="10.00">+ FilterTextProperty</text>
<text text-anchor="start" x="8" y="-81.5" font-family="Helvetica,sans-Serif" font-size="10.00">+ StringComparisonProperty</text>
<text text-anchor="start" x="8" y="-70.5" font-family="Helvetica,sans-Serif" font-size="10.00">+ FilteredItemsSourceProperty</text>
<text text-anchor="start" x="8" y="-59.5" font-family="Helvetica,sans-Serif" font-size="10.00">+ ItemsSource</text>
<text text-anchor="start" x="8" y="-48.5" font-family="Helvetica,sans-Serif" font-size="10.00">+ FilterText</text>
<text text-anchor="start" x="8" y="-37.5" font-family="Helvetica,sans-Serif" font-size="10.00">+ StringComparison</text>
<text text-anchor="start" x="8" y="-26.5" font-family="Helvetica,sans-Serif" font-size="10.00">+ FilteredItemsSource</text>
<polyline fill="none" stroke="black" points="0,-19.5 167,-19.5 "/>
<text text-anchor="start" x="8" y="-7.5" font-family="Helvetica,sans-Serif" font-size="10.00"># GetFilteredItemsSource()</text>
</a>
</g>
</g>
<!-- Node2 -->
<g id="node2" class="node">
<title>Node2</title>
<g id="a_node2"><a xlink:title=" ">
<polygon fill="none" stroke="#bfbfbf" points="29,-182.5 29,-239.5 138,-239.5 138,-182.5 29,-182.5"/>
<text text-anchor="middle" x="83.5" y="-227.5" font-family="Helvetica,sans-Serif" font-size="10.00">DependencyObject</text>
<polyline fill="none" stroke="#bfbfbf" points="29,-220.5 138,-220.5 "/>
<text text-anchor="middle" x="83.5" y="-208.5" font-family="Helvetica,sans-Serif" font-size="10.00"> </text>
<polyline fill="none" stroke="#bfbfbf" points="29,-201.5 138,-201.5 "/>
<text text-anchor="middle" x="83.5" y="-189.5" font-family="Helvetica,sans-Serif" font-size="10.00"> </text>
</a>
</g>
</g>
<!-- Node2&#45;&gt;Node1 -->
<g id="edge1" class="edge">
<title>Node2&#45;&gt;Node1</title>
<path fill="none" stroke="midnightblue" d="M83.5,-172.36C83.5,-164 83.5,-154.87 83.5,-145.66"/>
<polygon fill="none" stroke="midnightblue" points="80,-172.48 83.5,-182.48 87,-172.48 80,-172.48"/>
</g>
</g>
</svg>
