<?xml version="1.0" encoding="UTF-8" standalone="no"?>
<!DOCTYPE svg PUBLIC "-//W3C//DTD SVG 1.1//EN"
 "http://www.w3.org/Graphics/SVG/1.1/DTD/svg11.dtd">
<!-- Generated by graphviz version 2.43.0 (0)
 -->
<!-- Title: VolumeControl.CoreAudio.AudioDeviceSessionManager Pages: 1 -->
<svg width="185pt" height="237pt"
 viewBox="0.00 0.00 185.00 237.00" xmlns="http://www.w3.org/2000/svg" xmlns:xlink="http://www.w3.org/1999/xlink">
<g id="graph0" class="graph" transform="scale(1 1) rotate(0) translate(4 233)">
<title>VolumeControl.CoreAudio.AudioDeviceSessionManager</title>
<!-- Node1 -->
<g id="node1" class="node">
<title>Node1</title>
<g id="a_node1"><a xlink:title="Manages a list of AudioSession instances and their related events for a single CoreAudio....">
<polygon fill="#bfbfbf" stroke="black" points="0,-0.5 0,-134.5 177,-134.5 177,-0.5 0,-0.5"/>
<text text-anchor="start" x="8" y="-122.5" font-family="Helvetica,sans-Serif" font-size="10.00">VolumeControl.CoreAudio.</text>
<text text-anchor="middle" x="88.5" y="-111.5" font-family="Helvetica,sans-Serif" font-size="10.00">AudioDeviceSessionManager</text>
<polyline fill="none" stroke="black" points="0,-104.5 177,-104.5 "/>
<text text-anchor="start" x="8" y="-92.5" font-family="Helvetica,sans-Serif" font-size="10.00">+ AudioDevice</text>
<text text-anchor="start" x="8" y="-81.5" font-family="Helvetica,sans-Serif" font-size="10.00">+ Sessions</text>
<polyline fill="none" stroke="black" points="0,-74.5 177,-74.5 "/>
<text text-anchor="start" x="8" y="-62.5" font-family="Helvetica,sans-Serif" font-size="10.00">+ FindSessionBySessionInstance</text>
<text text-anchor="start" x="8" y="-51.5" font-family="Helvetica,sans-Serif" font-size="10.00">Identifier()</text>
<text text-anchor="start" x="8" y="-40.5" font-family="Helvetica,sans-Serif" font-size="10.00">+ FindSessionByAudioSession</text>
<text text-anchor="start" x="8" y="-29.5" font-family="Helvetica,sans-Serif" font-size="10.00">Control()</text>
<text text-anchor="start" x="8" y="-18.5" font-family="Helvetica,sans-Serif" font-size="10.00">+ Dispose()</text>
<text text-anchor="start" x="8" y="-7.5" font-family="Helvetica,sans-Serif" font-size="10.00">~ AudioDeviceSessionManager()</text>
</a>
</g>
</g>
<!-- Node2 -->
<g id="node2" class="node">
<title>Node2</title>
<g id="a_node2"><a xlink:title=" ">
<polygon fill="none" stroke="#bfbfbf" points="51.5,-171.5 51.5,-228.5 125.5,-228.5 125.5,-171.5 51.5,-171.5"/>
<text text-anchor="middle" x="88.5" y="-216.5" font-family="Helvetica,sans-Serif" font-size="10.00">IDisposable</text>
<polyline fill="none" stroke="#bfbfbf" points="51.5,-209.5 125.5,-209.5 "/>
<text text-anchor="middle" x="88.5" y="-197.5" font-family="Helvetica,sans-Serif" font-size="10.00"> </text>
<polyline fill="none" stroke="#bfbfbf" points="51.5,-190.5 125.5,-190.5 "/>
<text text-anchor="middle" x="88.5" y="-178.5" font-family="Helvetica,sans-Serif" font-size="10.00"> </text>
</a>
</g>
</g>
<!-- Node2&#45;&gt;Node1 -->
<g id="edge1" class="edge">
<title>Node2&#45;&gt;Node1</title>
<path fill="none" stroke="midnightblue" d="M88.5,-161.16C88.5,-152.78 88.5,-143.67 88.5,-134.53"/>
<polygon fill="none" stroke="midnightblue" points="85,-161.32 88.5,-171.32 92,-161.32 85,-161.32"/>
</g>
</g>
</svg>
