<?xml version="1.0" encoding="UTF-8" standalone="no"?>
<!DOCTYPE svg PUBLIC "-//W3C//DTD SVG 1.1//EN"
 "http://www.w3.org/Graphics/SVG/1.1/DTD/svg11.dtd">
<!-- Generated by graphviz version 2.43.0 (0)
 -->
<!-- Title: VolumeControl.WPF.Collections.LogEventTypeFilter Pages: 1 -->
<svg width="1441pt" height="518pt"
 viewBox="0.00 0.00 1440.50 518.00" xmlns="http://www.w3.org/2000/svg" xmlns:xlink="http://www.w3.org/1999/xlink">
<g id="graph0" class="graph" transform="scale(1 1) rotate(0) translate(4 514)">
<title>VolumeControl.WPF.Collections.LogEventTypeFilter</title>
<!-- Node1 -->
<g id="node1" class="node">
<title>Node1</title>
<g id="a_node1"><a xlink:title="This is an extension of the BindableEventType object that initializes the BindableEventType....">
<polygon fill="#bfbfbf" stroke="black" points="718.5,-0.5 718.5,-68.5 890.5,-68.5 890.5,-0.5 718.5,-0.5"/>
<text text-anchor="start" x="726.5" y="-56.5" font-family="Helvetica,sans-Serif" font-size="10.00">VolumeControl.WPF.Collections.</text>
<text text-anchor="middle" x="804.5" y="-45.5" font-family="Helvetica,sans-Serif" font-size="10.00">LogEventTypeFilter</text>
<polyline fill="none" stroke="black" points="718.5,-38.5 890.5,-38.5 "/>
<text text-anchor="middle" x="804.5" y="-26.5" font-family="Helvetica,sans-Serif" font-size="10.00"> </text>
<polyline fill="none" stroke="black" points="718.5,-19.5 890.5,-19.5 "/>
<text text-anchor="start" x="726.5" y="-7.5" font-family="Helvetica,sans-Serif" font-size="10.00">+ LogEventTypeFilter()</text>
</a>
</g>
</g>
<!-- Node2 -->
<g id="node2" class="node">
<title>Node2</title>
<g id="a_node2"><a xlink:href="class_volume_control_1_1_w_p_f_1_1_collections_1_1_bindable_event_type.html" target="_top" xlink:title="Provides the source for a WPF list component&#39;s ItemsSource property to expose a readable and writable...">
<polygon fill="none" stroke="black" points="726.5,-105.5 726.5,-393.5 882.5,-393.5 882.5,-105.5 726.5,-105.5"/>
<text text-anchor="middle" x="804.5" y="-381.5" font-family="Helvetica,sans-Serif" font-size="10.00">BindableEventType</text>
<polyline fill="none" stroke="black" points="726.5,-374.5 882.5,-374.5 "/>
<text text-anchor="start" x="734.5" y="-362.5" font-family="Helvetica,sans-Serif" font-size="10.00">+ Name</text>
<text text-anchor="start" x="734.5" y="-351.5" font-family="Helvetica,sans-Serif" font-size="10.00">+ Count</text>
<text text-anchor="start" x="734.5" y="-340.5" font-family="Helvetica,sans-Serif" font-size="10.00">+ IsReadOnly</text>
<text text-anchor="start" x="734.5" y="-329.5" font-family="Helvetica,sans-Serif" font-size="10.00">+ IsSynchronized</text>
<text text-anchor="start" x="734.5" y="-318.5" font-family="Helvetica,sans-Serif" font-size="10.00">+ SyncRoot</text>
<text text-anchor="start" x="734.5" y="-307.5" font-family="Helvetica,sans-Serif" font-size="10.00">+ IsFixedSize</text>
<text text-anchor="start" x="734.5" y="-296.5" font-family="Helvetica,sans-Serif" font-size="10.00">+ this[int index]</text>
<text text-anchor="start" x="734.5" y="-285.5" font-family="Helvetica,sans-Serif" font-size="10.00">+ this[int index]</text>
<text text-anchor="start" x="734.5" y="-274.5" font-family="Helvetica,sans-Serif" font-size="10.00">+ Value</text>
<text text-anchor="start" x="734.5" y="-263.5" font-family="Helvetica,sans-Serif" font-size="10.00">+ Options</text>
<polyline fill="none" stroke="black" points="726.5,-256.5 882.5,-256.5 "/>
<text text-anchor="start" x="734.5" y="-244.5" font-family="Helvetica,sans-Serif" font-size="10.00">+ BindableEventType()</text>
<text text-anchor="start" x="734.5" y="-233.5" font-family="Helvetica,sans-Serif" font-size="10.00">+ BindableEventType()</text>
<text text-anchor="start" x="734.5" y="-222.5" font-family="Helvetica,sans-Serif" font-size="10.00">+ Add()</text>
<text text-anchor="start" x="734.5" y="-211.5" font-family="Helvetica,sans-Serif" font-size="10.00">+ Add()</text>
<text text-anchor="start" x="734.5" y="-200.5" font-family="Helvetica,sans-Serif" font-size="10.00">+ Clear()</text>
<text text-anchor="start" x="734.5" y="-189.5" font-family="Helvetica,sans-Serif" font-size="10.00">+ Contains()</text>
<text text-anchor="start" x="734.5" y="-178.5" font-family="Helvetica,sans-Serif" font-size="10.00">+ Contains()</text>
<text text-anchor="start" x="734.5" y="-167.5" font-family="Helvetica,sans-Serif" font-size="10.00">+ CopyTo()</text>
<text text-anchor="start" x="734.5" y="-156.5" font-family="Helvetica,sans-Serif" font-size="10.00">+ CopyTo()</text>
<text text-anchor="start" x="734.5" y="-145.5" font-family="Helvetica,sans-Serif" font-size="10.00">+ GetEnumerator()</text>
<text text-anchor="start" x="734.5" y="-134.5" font-family="Helvetica,sans-Serif" font-size="10.00">and 7 more...</text>
<text text-anchor="start" x="734.5" y="-123.5" font-family="Helvetica,sans-Serif" font-size="10.00"># NotifyPropertyChanged()</text>
<text text-anchor="start" x="734.5" y="-112.5" font-family="Helvetica,sans-Serif" font-size="10.00"># NotifyCollectionChanged()</text>
</a>
</g>
</g>
<!-- Node2&#45;&gt;Node1 -->
<g id="edge1" class="edge">
<title>Node2&#45;&gt;Node1</title>
<path fill="none" stroke="midnightblue" d="M804.5,-95.08C804.5,-85.52 804.5,-76.6 804.5,-68.72"/>
<polygon fill="none" stroke="midnightblue" points="801,-95.24 804.5,-105.24 808,-95.24 801,-95.24"/>
</g>
<!-- Node3 -->
<g id="node3" class="node">
<title>Node3</title>
<g id="a_node3"><a xlink:title=" ">
<polygon fill="none" stroke="#bfbfbf" points="0,-436 0,-504 167,-504 167,-436 0,-436"/>
<text text-anchor="start" x="8" y="-492" font-family="Helvetica,sans-Serif" font-size="10.00">ICollection&lt; BindableEvent</text>
<text text-anchor="middle" x="83.5" y="-481" font-family="Helvetica,sans-Serif" font-size="10.00">Type.BindableEventTypeFlag &gt;</text>
<polyline fill="none" stroke="#bfbfbf" points="0,-474 167,-474 "/>
<text text-anchor="middle" x="83.5" y="-462" font-family="Helvetica,sans-Serif" font-size="10.00"> </text>
<polyline fill="none" stroke="#bfbfbf" points="0,-455 167,-455 "/>
<text text-anchor="middle" x="83.5" y="-443" font-family="Helvetica,sans-Serif" font-size="10.00"> </text>
</a>
</g>
</g>
<!-- Node3&#45;&gt;Node2 -->
<g id="edge2" class="edge">
<title>Node3&#45;&gt;Node2</title>
<path fill="none" stroke="midnightblue" d="M169.06,-432.32C171.23,-431.53 173.37,-430.75 175.5,-430 370.39,-361.18 606.09,-299.49 726.06,-269.57"/>
<polygon fill="none" stroke="midnightblue" points="167.64,-429.12 159.52,-435.92 170.12,-435.67 167.64,-429.12"/>
</g>
<!-- Node4 -->
<g id="node4" class="node">
<title>Node4</title>
<g id="a_node4"><a xlink:title=" ">
<polygon fill="none" stroke="#bfbfbf" points="185,-436 185,-504 352,-504 352,-436 185,-436"/>
<text text-anchor="start" x="193" y="-492" font-family="Helvetica,sans-Serif" font-size="10.00">IEnumerable&lt; BindableEvent</text>
<text text-anchor="middle" x="268.5" y="-481" font-family="Helvetica,sans-Serif" font-size="10.00">Type.BindableEventTypeFlag &gt;</text>
<polyline fill="none" stroke="#bfbfbf" points="185,-474 352,-474 "/>
<text text-anchor="middle" x="268.5" y="-462" font-family="Helvetica,sans-Serif" font-size="10.00"> </text>
<polyline fill="none" stroke="#bfbfbf" points="185,-455 352,-455 "/>
<text text-anchor="middle" x="268.5" y="-443" font-family="Helvetica,sans-Serif" font-size="10.00"> </text>
</a>
</g>
</g>
<!-- Node4&#45;&gt;Node2 -->
<g id="edge3" class="edge">
<title>Node4&#45;&gt;Node2</title>
<path fill="none" stroke="midnightblue" d="M356.62,-432.02C358.26,-431.34 359.89,-430.67 361.5,-430 489.05,-377.42 637.76,-317.43 726.36,-281.83"/>
<polygon fill="none" stroke="midnightblue" points="355.02,-428.89 347.12,-435.95 357.7,-435.36 355.02,-428.89"/>
</g>
<!-- Node5 -->
<g id="node5" class="node">
<title>Node5</title>
<g id="a_node5"><a xlink:title=" ">
<polygon fill="none" stroke="#bfbfbf" points="370.5,-441.5 370.5,-498.5 448.5,-498.5 448.5,-441.5 370.5,-441.5"/>
<text text-anchor="middle" x="409.5" y="-486.5" font-family="Helvetica,sans-Serif" font-size="10.00">IEnumerable</text>
<polyline fill="none" stroke="#bfbfbf" points="370.5,-479.5 448.5,-479.5 "/>
<text text-anchor="middle" x="409.5" y="-467.5" font-family="Helvetica,sans-Serif" font-size="10.00"> </text>
<polyline fill="none" stroke="#bfbfbf" points="370.5,-460.5 448.5,-460.5 "/>
<text text-anchor="middle" x="409.5" y="-448.5" font-family="Helvetica,sans-Serif" font-size="10.00"> </text>
</a>
</g>
</g>
<!-- Node5&#45;&gt;Node2 -->
<g id="edge4" class="edge">
<title>Node5&#45;&gt;Node2</title>
<path fill="none" stroke="midnightblue" d="M450.01,-435.15C452.51,-433.36 455.02,-431.63 457.5,-430 545.59,-372.31 654.45,-318.57 726.5,-285.21"/>
<polygon fill="none" stroke="midnightblue" points="447.53,-432.64 441.61,-441.43 451.72,-438.24 447.53,-432.64"/>
</g>
<!-- Node6 -->
<g id="node6" class="node">
<title>Node6</title>
<g id="a_node6"><a xlink:title=" ">
<polygon fill="none" stroke="#bfbfbf" points="466.5,-436 466.5,-504 610.5,-504 610.5,-436 466.5,-436"/>
<text text-anchor="start" x="474.5" y="-492" font-family="Helvetica,sans-Serif" font-size="10.00">IList&lt; BindableEventType.</text>
<text text-anchor="middle" x="538.5" y="-481" font-family="Helvetica,sans-Serif" font-size="10.00">BindableEventTypeFlag &gt;</text>
<polyline fill="none" stroke="#bfbfbf" points="466.5,-474 610.5,-474 "/>
<text text-anchor="middle" x="538.5" y="-462" font-family="Helvetica,sans-Serif" font-size="10.00"> </text>
<polyline fill="none" stroke="#bfbfbf" points="466.5,-455 610.5,-455 "/>
<text text-anchor="middle" x="538.5" y="-443" font-family="Helvetica,sans-Serif" font-size="10.00"> </text>
</a>
</g>
</g>
<!-- Node6&#45;&gt;Node2 -->
<g id="edge5" class="edge">
<title>Node6&#45;&gt;Node2</title>
<path fill="none" stroke="midnightblue" d="M586.94,-429.21C625.86,-397.24 681.27,-351.72 726.43,-314.63"/>
<polygon fill="none" stroke="midnightblue" points="584.41,-426.76 578.9,-435.81 588.85,-432.17 584.41,-426.76"/>
</g>
<!-- Node7 -->
<g id="node7" class="node">
<title>Node7</title>
<g id="a_node7"><a xlink:title=" ">
<polygon fill="none" stroke="#bfbfbf" points="629,-430.5 629,-509.5 796,-509.5 796,-430.5 629,-430.5"/>
<text text-anchor="start" x="637" y="-497.5" font-family="Helvetica,sans-Serif" font-size="10.00">IReadOnlyCollection</text>
<text text-anchor="start" x="637" y="-486.5" font-family="Helvetica,sans-Serif" font-size="10.00">&lt; BindableEventType.Bindable</text>
<text text-anchor="middle" x="712.5" y="-475.5" font-family="Helvetica,sans-Serif" font-size="10.00">EventTypeFlag &gt;</text>
<polyline fill="none" stroke="#bfbfbf" points="629,-468.5 796,-468.5 "/>
<text text-anchor="middle" x="712.5" y="-456.5" font-family="Helvetica,sans-Serif" font-size="10.00"> </text>
<polyline fill="none" stroke="#bfbfbf" points="629,-449.5 796,-449.5 "/>
<text text-anchor="middle" x="712.5" y="-437.5" font-family="Helvetica,sans-Serif" font-size="10.00"> </text>
</a>
</g>
</g>
<!-- Node7&#45;&gt;Node2 -->
<g id="edge6" class="edge">
<title>Node7&#45;&gt;Node2</title>
<path fill="none" stroke="midnightblue" d="M732.65,-421.14C736.24,-412.62 740.14,-403.35 744.21,-393.69"/>
<polygon fill="none" stroke="midnightblue" points="729.39,-419.86 728.74,-430.44 735.84,-422.58 729.39,-419.86"/>
</g>
<!-- Node8 -->
<g id="node8" class="node">
<title>Node8</title>
<g id="a_node8"><a xlink:title=" ">
<polygon fill="none" stroke="#bfbfbf" points="814,-436 814,-504 981,-504 981,-436 814,-436"/>
<text text-anchor="start" x="822" y="-492" font-family="Helvetica,sans-Serif" font-size="10.00">IReadOnlyList&lt; BindableEvent</text>
<text text-anchor="middle" x="897.5" y="-481" font-family="Helvetica,sans-Serif" font-size="10.00">Type.BindableEventTypeFlag &gt;</text>
<polyline fill="none" stroke="#bfbfbf" points="814,-474 981,-474 "/>
<text text-anchor="middle" x="897.5" y="-462" font-family="Helvetica,sans-Serif" font-size="10.00"> </text>
<polyline fill="none" stroke="#bfbfbf" points="814,-455 981,-455 "/>
<text text-anchor="middle" x="897.5" y="-443" font-family="Helvetica,sans-Serif" font-size="10.00"> </text>
</a>
</g>
</g>
<!-- Node8&#45;&gt;Node2 -->
<g id="edge7" class="edge">
<title>Node8&#45;&gt;Node2</title>
<path fill="none" stroke="midnightblue" d="M879.34,-426.33C875.13,-416.44 870.41,-405.36 865.46,-393.72"/>
<polygon fill="none" stroke="midnightblue" points="876.24,-427.98 883.38,-435.81 882.68,-425.24 876.24,-427.98"/>
</g>
<!-- Node9 -->
<g id="node9" class="node">
<title>Node9</title>
<g id="a_node9"><a xlink:title=" ">
<polygon fill="none" stroke="#bfbfbf" points="999.5,-441.5 999.5,-498.5 1067.5,-498.5 1067.5,-441.5 999.5,-441.5"/>
<text text-anchor="middle" x="1033.5" y="-486.5" font-family="Helvetica,sans-Serif" font-size="10.00">ICollection</text>
<polyline fill="none" stroke="#bfbfbf" points="999.5,-479.5 1067.5,-479.5 "/>
<text text-anchor="middle" x="1033.5" y="-467.5" font-family="Helvetica,sans-Serif" font-size="10.00"> </text>
<polyline fill="none" stroke="#bfbfbf" points="999.5,-460.5 1067.5,-460.5 "/>
<text text-anchor="middle" x="1033.5" y="-448.5" font-family="Helvetica,sans-Serif" font-size="10.00"> </text>
</a>
</g>
</g>
<!-- Node9&#45;&gt;Node2 -->
<g id="edge8" class="edge">
<title>Node9&#45;&gt;Node2</title>
<path fill="none" stroke="midnightblue" d="M997.03,-434.2C966.41,-404.98 921.58,-362.21 882.88,-325.29"/>
<polygon fill="none" stroke="midnightblue" points="994.85,-436.96 1004.5,-441.33 999.68,-431.89 994.85,-436.96"/>
</g>
<!-- Node10 -->
<g id="node10" class="node">
<title>Node10</title>
<g id="a_node10"><a xlink:title=" ">
<polygon fill="none" stroke="#bfbfbf" points="1086,-441.5 1086,-498.5 1123,-498.5 1123,-441.5 1086,-441.5"/>
<text text-anchor="middle" x="1104.5" y="-486.5" font-family="Helvetica,sans-Serif" font-size="10.00">IList</text>
<polyline fill="none" stroke="#bfbfbf" points="1086,-479.5 1123,-479.5 "/>
<text text-anchor="middle" x="1104.5" y="-467.5" font-family="Helvetica,sans-Serif" font-size="10.00"> </text>
<polyline fill="none" stroke="#bfbfbf" points="1086,-460.5 1123,-460.5 "/>
<text text-anchor="middle" x="1104.5" y="-448.5" font-family="Helvetica,sans-Serif" font-size="10.00"> </text>
</a>
</g>
</g>
<!-- Node10&#45;&gt;Node2 -->
<g id="edge9" class="edge">
<title>Node10&#45;&gt;Node2</title>
<path fill="none" stroke="midnightblue" d="M1079.72,-433.27C1078.66,-432.14 1077.59,-431.05 1076.5,-430 1018.18,-373.93 940.14,-324.49 882.61,-291.77"/>
<polygon fill="none" stroke="midnightblue" points="1077.26,-435.78 1086.41,-441.11 1082.58,-431.23 1077.26,-435.78"/>
</g>
<!-- Node11 -->
<g id="node11" class="node">
<title>Node11</title>
<g id="a_node11"><a xlink:title=" ">
<polygon fill="none" stroke="#bfbfbf" points="1141,-441.5 1141,-498.5 1274,-498.5 1274,-441.5 1141,-441.5"/>
<text text-anchor="middle" x="1207.5" y="-486.5" font-family="Helvetica,sans-Serif" font-size="10.00">INotifyPropertyChanged</text>
<polyline fill="none" stroke="#bfbfbf" points="1141,-479.5 1274,-479.5 "/>
<text text-anchor="middle" x="1207.5" y="-467.5" font-family="Helvetica,sans-Serif" font-size="10.00"> </text>
<polyline fill="none" stroke="#bfbfbf" points="1141,-460.5 1274,-460.5 "/>
<text text-anchor="middle" x="1207.5" y="-448.5" font-family="Helvetica,sans-Serif" font-size="10.00"> </text>
</a>
</g>
</g>
<!-- Node11&#45;&gt;Node2 -->
<g id="edge10" class="edge">
<title>Node11&#45;&gt;Node2</title>
<path fill="none" stroke="midnightblue" d="M1147.26,-436.34C1076.85,-398.17 960.13,-334.88 882.76,-292.93"/>
<polygon fill="none" stroke="midnightblue" points="1146,-439.64 1156.46,-441.33 1149.34,-433.48 1146,-439.64"/>
</g>
<!-- Node12 -->
<g id="node12" class="node">
<title>Node12</title>
<g id="a_node12"><a xlink:title=" ">
<polygon fill="none" stroke="#bfbfbf" points="1292.5,-441.5 1292.5,-498.5 1432.5,-498.5 1432.5,-441.5 1292.5,-441.5"/>
<text text-anchor="middle" x="1362.5" y="-486.5" font-family="Helvetica,sans-Serif" font-size="10.00">INotifyCollectionChanged</text>
<polyline fill="none" stroke="#bfbfbf" points="1292.5,-479.5 1432.5,-479.5 "/>
<text text-anchor="middle" x="1362.5" y="-467.5" font-family="Helvetica,sans-Serif" font-size="10.00"> </text>
<polyline fill="none" stroke="#bfbfbf" points="1292.5,-460.5 1432.5,-460.5 "/>
<text text-anchor="middle" x="1362.5" y="-448.5" font-family="Helvetica,sans-Serif" font-size="10.00"> </text>
</a>
</g>
</g>
<!-- Node12&#45;&gt;Node2 -->
<g id="edge11" class="edge">
<title>Node12&#45;&gt;Node2</title>
<path fill="none" stroke="midnightblue" d="M1299.05,-436.99C1293.82,-434.56 1288.59,-432.2 1283.5,-430 1144.55,-369.84 978.21,-310.2 882.6,-277.06"/>
<polygon fill="none" stroke="midnightblue" points="1297.9,-440.32 1308.44,-441.42 1300.89,-433.99 1297.9,-440.32"/>
</g>
</g>
</svg>
