<?xml version="1.0" encoding="UTF-8" standalone="no"?>
<!DOCTYPE svg PUBLIC "-//W3C//DTD SVG 1.1//EN"
 "http://www.w3.org/Graphics/SVG/1.1/DTD/svg11.dtd">
<!-- Generated by graphviz version 2.43.0 (0)
 -->
<!-- Title: VolumeControl.Log.LogWriter.Debug Pages: 1 -->
<svg width="390pt" height="198pt"
 viewBox="0.00 0.00 390.00 198.00" xmlns="http://www.w3.org/2000/svg" xmlns:xlink="http://www.w3.org/1999/xlink">
<g id="graph0" class="graph" transform="scale(1 1) rotate(0) translate(4 194)">
<title>VolumeControl.Log.LogWriter.Debug</title>
<!-- Node1 -->
<g id="node1" class="node">
<title>Node1</title>
<g id="a_node1"><a xlink:title="Write a formatted EventType.DEBUG message to the log endpoint.">
<polygon fill="#bfbfbf" stroke="black" points="221,-76.5 221,-106.5 382,-106.5 382,-76.5 221,-76.5"/>
<text text-anchor="start" x="229" y="-94.5" font-family="Helvetica,sans-Serif" font-size="10.00">VolumeControl.Log.LogWriter.</text>
<text text-anchor="middle" x="301.5" y="-83.5" font-family="Helvetica,sans-Serif" font-size="10.00">Debug</text>
</a>
</g>
</g>
<!-- Node2 -->
<g id="node2" class="node">
<title>Node2</title>
<g id="a_node2"><a xlink:href="class_volume_control_1_1_w_p_f_1_1_h_wnd_hook.html#ac375922fcbe751d605d86b2fab01b17d" target="_top" xlink:title="Adds a message handler.">
<polygon fill="none" stroke="black" points="6,-159.5 6,-189.5 179,-189.5 179,-159.5 6,-159.5"/>
<text text-anchor="start" x="14" y="-177.5" font-family="Helvetica,sans-Serif" font-size="10.00">VolumeControl.WPF.HWndHook.</text>
<text text-anchor="middle" x="92.5" y="-166.5" font-family="Helvetica,sans-Serif" font-size="10.00">AddHook</text>
</a>
</g>
</g>
<!-- Node1&#45;&gt;Node2 -->
<g id="edge1" class="edge">
<title>Node1&#45;&gt;Node2</title>
<path fill="none" stroke="midnightblue" d="M265.29,-111.48C242.82,-123.65 212.81,-138.84 185,-149.5 175.47,-153.15 165.18,-156.51 155.07,-159.48"/>
<polygon fill="midnightblue" stroke="midnightblue" points="267.03,-114.52 274.11,-106.65 263.66,-108.38 267.03,-114.52"/>
</g>
<!-- Node3 -->
<g id="node3" class="node">
<title>Node3</title>
<g id="a_node3"><a xlink:href="class_volume_control_1_1_core_audio_1_1_audio_device_manager.html#ae1b209f85acd4384c68675e654150c24" target="_top" xlink:title="Creates a new AudioDeviceManager instance.">
<polygon fill="none" stroke="black" points="0,-99 0,-140 185,-140 185,-99 0,-99"/>
<text text-anchor="start" x="8" y="-128" font-family="Helvetica,sans-Serif" font-size="10.00">VolumeControl.CoreAudio.</text>
<text text-anchor="start" x="8" y="-117" font-family="Helvetica,sans-Serif" font-size="10.00">AudioDeviceManager.AudioDevice</text>
<text text-anchor="middle" x="92.5" y="-106" font-family="Helvetica,sans-Serif" font-size="10.00">Manager</text>
</a>
</g>
</g>
<!-- Node1&#45;&gt;Node3 -->
<g id="edge2" class="edge">
<title>Node1&#45;&gt;Node3</title>
<path fill="none" stroke="midnightblue" d="M210.6,-103.66C202.2,-104.8 193.69,-105.95 185.28,-107.09"/>
<polygon fill="midnightblue" stroke="midnightblue" points="211.32,-107.09 220.76,-102.29 210.39,-100.16 211.32,-107.09"/>
</g>
<!-- Node4 -->
<g id="node4" class="node">
<title>Node4</title>
<g id="a_node4"><a xlink:href="class_volume_control_1_1_w_p_f_1_1_h_wnd_hook.html#af0585367ed6c7c839158d03f4fd73830" target="_top" xlink:title="Removes a message handler.">
<polygon fill="none" stroke="black" points="6,-49.5 6,-79.5 179,-79.5 179,-49.5 6,-49.5"/>
<text text-anchor="start" x="14" y="-67.5" font-family="Helvetica,sans-Serif" font-size="10.00">VolumeControl.WPF.HWndHook.</text>
<text text-anchor="middle" x="92.5" y="-56.5" font-family="Helvetica,sans-Serif" font-size="10.00">RemoveHook</text>
</a>
</g>
</g>
<!-- Node1&#45;&gt;Node4 -->
<g id="edge3" class="edge">
<title>Node1&#45;&gt;Node4</title>
<path fill="none" stroke="midnightblue" d="M210.75,-79.79C200.22,-78.42 189.5,-77.02 179.03,-75.66"/>
<polygon fill="midnightblue" stroke="midnightblue" points="210.4,-83.28 220.76,-81.1 211.3,-76.34 210.4,-83.28"/>
</g>
<!-- Node5 -->
<g id="node5" class="node">
<title>Node5</title>
<g id="a_node5"><a xlink:href="class_volume_control_1_1_w_p_f_1_1_h_wnd_hook.html#a868775e4b7d5ddf507899f279feb7231" target="_top" xlink:title="Sets the HwndSource used to add and remove hooks.">
<polygon fill="none" stroke="black" points="6,-0.5 6,-30.5 179,-30.5 179,-0.5 6,-0.5"/>
<text text-anchor="start" x="14" y="-18.5" font-family="Helvetica,sans-Serif" font-size="10.00">VolumeControl.WPF.HWndHook.</text>
<text text-anchor="middle" x="92.5" y="-7.5" font-family="Helvetica,sans-Serif" font-size="10.00">SetSource</text>
</a>
</g>
</g>
<!-- Node1&#45;&gt;Node5 -->
<g id="edge4" class="edge">
<title>Node1&#45;&gt;Node5</title>
<path fill="none" stroke="midnightblue" d="M260.31,-71.99C238.38,-61.79 210.55,-49.57 185,-40.5 174.91,-36.92 164.05,-33.54 153.45,-30.5"/>
<polygon fill="midnightblue" stroke="midnightblue" points="259.1,-75.28 269.64,-76.36 262.07,-68.95 259.1,-75.28"/>
</g>
</g>
</svg>
