<?xml version="1.0" encoding="UTF-8" standalone="no"?>
<!DOCTYPE svg PUBLIC "-//W3C//DTD SVG 1.1//EN"
 "http://www.w3.org/Graphics/SVG/1.1/DTD/svg11.dtd">
<!-- Generated by graphviz version 2.43.0 (0)
 -->
<!-- Title: VolumeControl.Core.Input.Hotkey Pages: 1 -->
<!--zoomable 705 -->
<svg id="main" version="1.1" xmlns="http://www.w3.org/2000/svg" xmlns:xlink="http://www.w3.org/1999/xlink" xml:space="preserve" onload="init(evt)">
<style type="text/css"><![CDATA[
.edge:hover path { stroke: red; }
.edge:hover polygon { stroke: red; fill: red; }
]]></style>
<script type="text/javascript"><![CDATA[
var edges = document.getElementsByTagName('g');
if (edges && edges.length) {
  for (var i=0;i<edges.length;i++) {
    if (edges[i].id.substr(0,4)=='edge') {
      edges[i].setAttribute('class','edge');
    }
  }
}
]]></script>
        <defs>
                <circle id="rim" cx="0" cy="0" r="7"/>
                <circle id="rim2" cx="0" cy="0" r="3.5"/>
                <g id="zoomPlus">
                        <use xlink:href="#rim" fill="#404040">
                                <set attributeName="fill" to="#808080" begin="zoomplus.mouseover" end="zoomplus.mouseout"/>
                        </use>
                        <path d="M-4,0h8M0,-4v8" fill="none" stroke="white" stroke-width="1.5" pointer-events="none"/>
                </g>
                <g id="zoomMin">
                        <use xlink:href="#rim" fill="#404040">
                                <set attributeName="fill" to="#808080" begin="zoomminus.mouseover" end="zoomminus.mouseout"/>
                        </use>
                        <path d="M-4,0h8" fill="none" stroke="white" stroke-width="1.5" pointer-events="none"/>
                </g>
                <g id="dirArrow">
                        <path fill="none" stroke="white" stroke-width="1.5" d="M0,-3.0v7 M-2.5,-0.5L0,-3.0L2.5,-0.5"/>
                </g>
               <g id="resetDef">
                       <use xlink:href="#rim2" fill="#404040">
                               <set attributeName="fill" to="#808080" begin="reset.mouseover" end="reset.mouseout"/>
                       </use>
               </g>
        </defs>

<script type="text/javascript">
var viewWidth = 349;
var viewHeight = 705;
var sectionId = 'dynsection-0';
</script>
<script xlink:href="svgpan.js"/>
<svg id="graph" class="graph">
<g id="viewport">
<title>VolumeControl.Core.Input.Hotkey</title>
<!-- Node1 -->
<g id="node1" class="node">
<title>Node1</title>
<g id="a_node1"><a xlink:title="A hotkey that executes an action when pressed.">
<polygon fill="#bfbfbf" stroke="black" points="107,-182.5 107,-481.5 256,-481.5 256,-182.5 107,-182.5"/>
<text text-anchor="start" x="115" y="-469.5" font-family="Helvetica,sans-Serif" font-size="10.00">VolumeControl.Core.Input.</text>
<text text-anchor="middle" x="181.5" y="-458.5" font-family="Helvetica,sans-Serif" font-size="10.00">Hotkey</text>
<polyline fill="none" stroke="black" points="107,-451.5 256,-451.5 "/>
<text text-anchor="start" x="115" y="-439.5" font-family="Helvetica,sans-Serif" font-size="10.00">+ ID</text>
<text text-anchor="start" x="115" y="-428.5" font-family="Helvetica,sans-Serif" font-size="10.00">+ Name</text>
<text text-anchor="start" x="115" y="-417.5" font-family="Helvetica,sans-Serif" font-size="10.00">+ Key</text>
<text text-anchor="start" x="115" y="-406.5" font-family="Helvetica,sans-Serif" font-size="10.00">+ Modifiers</text>
<text text-anchor="start" x="115" y="-395.5" font-family="Helvetica,sans-Serif" font-size="10.00">+ Alt</text>
<text text-anchor="start" x="115" y="-384.5" font-family="Helvetica,sans-Serif" font-size="10.00">+ Shift</text>
<text text-anchor="start" x="115" y="-373.5" font-family="Helvetica,sans-Serif" font-size="10.00">+ Ctrl</text>
<text text-anchor="start" x="115" y="-362.5" font-family="Helvetica,sans-Serif" font-size="10.00">+ Win</text>
<text text-anchor="start" x="115" y="-351.5" font-family="Helvetica,sans-Serif" font-size="10.00">+ NoRepeat</text>
<text text-anchor="start" x="115" y="-340.5" font-family="Helvetica,sans-Serif" font-size="10.00">+ MessageHook</text>
<text text-anchor="start" x="115" y="-329.5" font-family="Helvetica,sans-Serif" font-size="10.00">+ IsRegistered</text>
<text text-anchor="start" x="115" y="-318.5" font-family="Helvetica,sans-Serif" font-size="10.00">+ Action</text>
<polyline fill="none" stroke="black" points="107,-311.5 256,-311.5 "/>
<text text-anchor="start" x="115" y="-299.5" font-family="Helvetica,sans-Serif" font-size="10.00">+ Hotkey()</text>
<text text-anchor="start" x="115" y="-288.5" font-family="Helvetica,sans-Serif" font-size="10.00">+ Hotkey()</text>
<text text-anchor="start" x="115" y="-277.5" font-family="Helvetica,sans-Serif" font-size="10.00">+ Hotkey()</text>
<text text-anchor="start" x="115" y="-266.5" font-family="Helvetica,sans-Serif" font-size="10.00">+ Hotkey()</text>
<text text-anchor="start" x="115" y="-255.5" font-family="Helvetica,sans-Serif" font-size="10.00">+ GetNewID()</text>
<text text-anchor="start" x="115" y="-244.5" font-family="Helvetica,sans-Serif" font-size="10.00">+ Dispose()</text>
<text text-anchor="start" x="115" y="-233.5" font-family="Helvetica,sans-Serif" font-size="10.00"># NotifyPropertyChanged()</text>
<text text-anchor="start" x="115" y="-222.5" font-family="Helvetica,sans-Serif" font-size="10.00"># Register()</text>
<text text-anchor="start" x="115" y="-211.5" font-family="Helvetica,sans-Serif" font-size="10.00"># Unregister()</text>
<text text-anchor="start" x="115" y="-200.5" font-family="Helvetica,sans-Serif" font-size="10.00"># Reregister()</text>
<text text-anchor="start" x="115" y="-189.5" font-family="Helvetica,sans-Serif" font-size="10.00"># Dispose()</text>
</a>
</g>
</g>
<!-- Node5 -->
<g id="node5" class="node">
<title>Node5</title>
<g id="a_node5"><a xlink:href="class_volume_control_1_1_core_1_1_input_1_1_hotkey_with_error.html" target="_top" xlink:title="A Hotkey that also tracks and reports registration errors.">
<polygon fill="none" stroke="black" points="109,-0.5 109,-145.5 254,-145.5 254,-0.5 109,-0.5"/>
<text text-anchor="start" x="117" y="-133.5" font-family="Helvetica,sans-Serif" font-size="10.00">VolumeControl.Core.Input.</text>
<text text-anchor="middle" x="181.5" y="-122.5" font-family="Helvetica,sans-Serif" font-size="10.00">HotkeyWithError</text>
<polyline fill="none" stroke="black" points="109,-115.5 254,-115.5 "/>
<text text-anchor="start" x="117" y="-103.5" font-family="Helvetica,sans-Serif" font-size="10.00">+ ErrorMessage</text>
<text text-anchor="start" x="117" y="-92.5" font-family="Helvetica,sans-Serif" font-size="10.00">+ HasError</text>
<polyline fill="none" stroke="black" points="109,-85.5 254,-85.5 "/>
<text text-anchor="start" x="117" y="-73.5" font-family="Helvetica,sans-Serif" font-size="10.00">+ HotkeyWithError()</text>
<text text-anchor="start" x="117" y="-62.5" font-family="Helvetica,sans-Serif" font-size="10.00">+ HotkeyWithError()</text>
<text text-anchor="start" x="117" y="-51.5" font-family="Helvetica,sans-Serif" font-size="10.00">+ HotkeyWithError()</text>
<text text-anchor="start" x="117" y="-40.5" font-family="Helvetica,sans-Serif" font-size="10.00">+ HotkeyWithError()</text>
<text text-anchor="start" x="117" y="-29.5" font-family="Helvetica,sans-Serif" font-size="10.00"># Register()</text>
<text text-anchor="start" x="117" y="-18.5" font-family="Helvetica,sans-Serif" font-size="10.00"># Unregister()</text>
<text text-anchor="start" x="117" y="-7.5" font-family="Helvetica,sans-Serif" font-size="10.00"># Reregister()</text>
</a>
</g>
</g>
<!-- Node1&#45;&gt;Node5 -->
<g id="edge4" class="edge">
<title>Node1&#45;&gt;Node5</title>
<path fill="none" stroke="midnightblue" d="M181.5,-172.23C181.5,-163.07 181.5,-154.12 181.5,-145.6"/>
<polygon fill="none" stroke="midnightblue" points="178,-172.25 181.5,-182.25 185,-172.25 178,-172.25"/>
</g>
<!-- Node2 -->
<g id="node2" class="node">
<title>Node2</title>
<g id="a_node2"><a xlink:href="interface_volume_control_1_1_core_1_1_input_1_1_i_hotkey.html" target="_top" xlink:title="Represents a Win32 global hotkey.">
<polygon fill="none" stroke="black" points="0,-518.5 0,-696.5 97,-696.5 97,-518.5 0,-518.5"/>
<text text-anchor="middle" x="48.5" y="-684.5" font-family="Helvetica,sans-Serif" font-size="10.00">IHotkey</text>
<polyline fill="none" stroke="black" points="0,-677.5 97,-677.5 "/>
<text text-anchor="start" x="8" y="-665.5" font-family="Helvetica,sans-Serif" font-size="10.00">+ Name</text>
<text text-anchor="start" x="8" y="-654.5" font-family="Helvetica,sans-Serif" font-size="10.00">+ ID</text>
<text text-anchor="start" x="8" y="-643.5" font-family="Helvetica,sans-Serif" font-size="10.00">+ Key</text>
<text text-anchor="start" x="8" y="-632.5" font-family="Helvetica,sans-Serif" font-size="10.00">+ Modifiers</text>
<text text-anchor="start" x="8" y="-621.5" font-family="Helvetica,sans-Serif" font-size="10.00">+ Alt</text>
<text text-anchor="start" x="8" y="-610.5" font-family="Helvetica,sans-Serif" font-size="10.00">+ Shift</text>
<text text-anchor="start" x="8" y="-599.5" font-family="Helvetica,sans-Serif" font-size="10.00">+ Ctrl</text>
<text text-anchor="start" x="8" y="-588.5" font-family="Helvetica,sans-Serif" font-size="10.00">+ Win</text>
<text text-anchor="start" x="8" y="-577.5" font-family="Helvetica,sans-Serif" font-size="10.00">+ NoRepeat</text>
<text text-anchor="start" x="8" y="-566.5" font-family="Helvetica,sans-Serif" font-size="10.00">+ MessageHook</text>
<text text-anchor="start" x="8" y="-555.5" font-family="Helvetica,sans-Serif" font-size="10.00">+ IsRegistered</text>
<text text-anchor="start" x="8" y="-544.5" font-family="Helvetica,sans-Serif" font-size="10.00">+ Action</text>
<polyline fill="none" stroke="black" points="0,-537.5 97,-537.5 "/>
<text text-anchor="middle" x="48.5" y="-525.5" font-family="Helvetica,sans-Serif" font-size="10.00"> </text>
</a>
</g>
</g>
<!-- Node2&#45;&gt;Node1 -->
<g id="edge1" class="edge">
<title>Node2&#45;&gt;Node1</title>
<path fill="none" stroke="midnightblue" d="M95.69,-509.46C100.11,-500.37 104.66,-491.02 109.24,-481.59"/>
<polygon fill="none" stroke="midnightblue" points="92.54,-507.93 91.31,-518.46 98.83,-510.99 92.54,-507.93"/>
</g>
<!-- Node3 -->
<g id="node3" class="node">
<title>Node3</title>
<g id="a_node3"><a xlink:title=" ">
<polygon fill="none" stroke="#bfbfbf" points="115,-579 115,-636 248,-636 248,-579 115,-579"/>
<text text-anchor="middle" x="181.5" y="-624" font-family="Helvetica,sans-Serif" font-size="10.00">INotifyPropertyChanged</text>
<polyline fill="none" stroke="#bfbfbf" points="115,-617 248,-617 "/>
<text text-anchor="middle" x="181.5" y="-605" font-family="Helvetica,sans-Serif" font-size="10.00"> </text>
<polyline fill="none" stroke="#bfbfbf" points="115,-598 248,-598 "/>
<text text-anchor="middle" x="181.5" y="-586" font-family="Helvetica,sans-Serif" font-size="10.00"> </text>
</a>
</g>
</g>
<!-- Node3&#45;&gt;Node1 -->
<g id="edge2" class="edge">
<title>Node3&#45;&gt;Node1</title>
<path fill="none" stroke="midnightblue" d="M181.5,-568.7C181.5,-545.46 181.5,-514.03 181.5,-481.69"/>
<polygon fill="none" stroke="midnightblue" points="178,-568.77 181.5,-578.77 185,-568.77 178,-568.77"/>
</g>
<!-- Node4 -->
<g id="node4" class="node">
<title>Node4</title>
<g id="a_node4"><a xlink:title=" ">
<polygon fill="none" stroke="#bfbfbf" points="266.5,-579 266.5,-636 340.5,-636 340.5,-579 266.5,-579"/>
<text text-anchor="middle" x="303.5" y="-624" font-family="Helvetica,sans-Serif" font-size="10.00">IDisposable</text>
<polyline fill="none" stroke="#bfbfbf" points="266.5,-617 340.5,-617 "/>
<text text-anchor="middle" x="303.5" y="-605" font-family="Helvetica,sans-Serif" font-size="10.00"> </text>
<polyline fill="none" stroke="#bfbfbf" points="266.5,-598 340.5,-598 "/>
<text text-anchor="middle" x="303.5" y="-586" font-family="Helvetica,sans-Serif" font-size="10.00"> </text>
</a>
</g>
</g>
<!-- Node4&#45;&gt;Node1 -->
<g id="edge3" class="edge">
<title>Node4&#45;&gt;Node1</title>
<path fill="none" stroke="midnightblue" d="M287.06,-569.64C276.65,-546.31 262.45,-514.46 247.83,-481.69"/>
<polygon fill="none" stroke="midnightblue" points="283.86,-571.06 291.13,-578.77 290.25,-568.21 283.86,-571.06"/>
</g>
</g>
</svg>
        <g id="navigator" transform="translate(0 0)" fill="#404254">
                <rect fill="#f2f5e9" fill-opacity="0.5" stroke="#606060" stroke-width=".5" x="0" y="0" width="60" height="60"/>
                <use id="zoomplus" xlink:href="#zoomPlus" x="17" y="9" onmousedown="handleZoom(evt,'in')"/>
                <use id="zoomminus" xlink:href="#zoomMin" x="42" y="9" onmousedown="handleZoom(evt,'out')"/>
                <use id="reset" xlink:href="#resetDef" x="30" y="36" onmousedown="handleReset()"/>
                <g id="arrowUp" xlink:href="#dirArrow" transform="translate(30 24)" onmousedown="handlePan(0,-1)">
                  <use xlink:href="#rim" fill="#404040">
                        <set attributeName="fill" to="#808080" begin="arrowUp.mouseover" end="arrowUp.mouseout"/>
                  </use>
                  <path fill="none" stroke="white" stroke-width="1.5" d="M0,-3.0v7 M-2.5,-0.5L0,-3.0L2.5,-0.5"/>
                </g>
                <g id="arrowRight" xlink:href="#dirArrow" transform="rotate(90) translate(36 -43)" onmousedown="handlePan(1,0)">
                  <use xlink:href="#rim" fill="#404040">
                        <set attributeName="fill" to="#808080" begin="arrowRight.mouseover" end="arrowRight.mouseout"/>
                  </use>
                  <path fill="none" stroke="white" stroke-width="1.5" d="M0,-3.0v7 M-2.5,-0.5L0,-3.0L2.5,-0.5"/>
                </g>
                <g id="arrowDown" xlink:href="#dirArrow" transform="rotate(180) translate(-30 -48)" onmousedown="handlePan(0,1)">
                  <use xlink:href="#rim" fill="#404040">
                        <set attributeName="fill" to="#808080" begin="arrowDown.mouseover" end="arrowDown.mouseout"/>
                  </use>
                  <path fill="none" stroke="white" stroke-width="1.5" d="M0,-3.0v7 M-2.5,-0.5L0,-3.0L2.5,-0.5"/>
                </g>
                <g id="arrowLeft" xlink:href="#dirArrow" transform="rotate(270) translate(-36 17)" onmousedown="handlePan(-1,0)">
                  <use xlink:href="#rim" fill="#404040">
                        <set attributeName="fill" to="#808080" begin="arrowLeft.mouseover" end="arrowLeft.mouseout"/>
                  </use>
                  <path fill="none" stroke="white" stroke-width="1.5" d="M0,-3.0v7 M-2.5,-0.5L0,-3.0L2.5,-0.5"/>
                </g>
        </g>
        <svg viewBox="0 0 15 15" width="100%" height="30px" preserveAspectRatio="xMaxYMin meet">
         <g id="arrow_out" transform="scale(0.3 0.3)">
          <a xlink:href="class_volume_control_1_1_core_1_1_input_1_1_hotkey__inherit__graph_org.svg" target="_base">
           <rect id="button" ry="5" rx="5" y="6" x="6" height="38" width="38"
                fill="#f2f5e9" fill-opacity="0.5" stroke="#606060" stroke-width="1.0"/>
           <path id="arrow"
             d="M 11.500037,31.436501 C 11.940474,20.09759 22.043105,11.32322 32.158766,21.979434 L 37.068811,17.246167 C 37.068811,17.246167 37.088388,32 37.088388,32 L 22.160133,31.978069 C 22.160133,31.978069 26.997745,27.140456 26.997745,27.140456 C 18.528582,18.264221 13.291696,25.230495 11.500037,31.436501 z"
             style="fill:#404040;"/>
          </a>
         </g>
        </svg>
</svg>
