<?xml version="1.0" encoding="UTF-8" standalone="no"?>
<!DOCTYPE svg PUBLIC "-//W3C//DTD SVG 1.1//EN"
 "http://www.w3.org/Graphics/SVG/1.1/DTD/svg11.dtd">
<!-- Generated by graphviz version 2.43.0 (0)
 -->
<!-- Title: VolumeControl.Log.LogMessage Pages: 1 -->
<svg width="238pt" height="270pt"
 viewBox="0.00 0.00 237.50 270.00" xmlns="http://www.w3.org/2000/svg" xmlns:xlink="http://www.w3.org/1999/xlink">
<g id="graph0" class="graph" transform="scale(1 1) rotate(0) translate(4 266)">
<title>VolumeControl.Log.LogMessage</title>
<!-- Node1 -->
<g id="node1" class="node">
<title>Node1</title>
<g id="a_node1"><a xlink:title="Represents a message to be written to the log.">
<polygon fill="#bfbfbf" stroke="black" points="42,-0.5 42,-167.5 215,-167.5 215,-0.5 42,-0.5"/>
<text text-anchor="middle" x="128.5" y="-155.5" font-family="Helvetica,sans-Serif" font-size="10.00">VolumeControl.Log.LogMessage</text>
<polyline fill="none" stroke="black" points="42,-148.5 215,-148.5 "/>
<text text-anchor="start" x="50" y="-136.5" font-family="Helvetica,sans-Serif" font-size="10.00">+ EventType</text>
<text text-anchor="start" x="50" y="-125.5" font-family="Helvetica,sans-Serif" font-size="10.00">+ HasEventType</text>
<text text-anchor="start" x="50" y="-114.5" font-family="Helvetica,sans-Serif" font-size="10.00">+ Lines</text>
<text text-anchor="start" x="50" y="-103.5" font-family="Helvetica,sans-Serif" font-size="10.00">+ IsEmpty</text>
<polyline fill="none" stroke="black" points="42,-96.5 215,-96.5 "/>
<text text-anchor="start" x="50" y="-84.5" font-family="Helvetica,sans-Serif" font-size="10.00">+ LogMessage()</text>
<text text-anchor="start" x="50" y="-73.5" font-family="Helvetica,sans-Serif" font-size="10.00">+ LogMessage()</text>
<text text-anchor="start" x="50" y="-62.5" font-family="Helvetica,sans-Serif" font-size="10.00">+ LogMessage()</text>
<text text-anchor="start" x="50" y="-51.5" font-family="Helvetica,sans-Serif" font-size="10.00">+ ToString()</text>
<text text-anchor="start" x="50" y="-40.5" font-family="Helvetica,sans-Serif" font-size="10.00">+ Add()</text>
<text text-anchor="start" x="50" y="-29.5" font-family="Helvetica,sans-Serif" font-size="10.00">+ SetEventType()</text>
<text text-anchor="start" x="50" y="-18.5" font-family="Helvetica,sans-Serif" font-size="10.00">+ GetEnumerator()</text>
<text text-anchor="start" x="50" y="-7.5" font-family="Helvetica,sans-Serif" font-size="10.00">+ operator LogMessage()</text>
</a>
</g>
</g>
<!-- Node2 -->
<g id="node2" class="node">
<title>Node2</title>
<g id="a_node2"><a xlink:title=" ">
<polygon fill="none" stroke="#bfbfbf" points="0,-204.5 0,-261.5 133,-261.5 133,-204.5 0,-204.5"/>
<text text-anchor="middle" x="66.5" y="-249.5" font-family="Helvetica,sans-Serif" font-size="10.00">IEnumerable&lt; object?&gt;</text>
<polyline fill="none" stroke="#bfbfbf" points="0,-242.5 133,-242.5 "/>
<text text-anchor="middle" x="66.5" y="-230.5" font-family="Helvetica,sans-Serif" font-size="10.00"> </text>
<polyline fill="none" stroke="#bfbfbf" points="0,-223.5 133,-223.5 "/>
<text text-anchor="middle" x="66.5" y="-211.5" font-family="Helvetica,sans-Serif" font-size="10.00"> </text>
</a>
</g>
</g>
<!-- Node2&#45;&gt;Node1 -->
<g id="edge1" class="edge">
<title>Node2&#45;&gt;Node1</title>
<path fill="none" stroke="midnightblue" d="M82.15,-194.9C85.7,-186.48 89.61,-177.21 93.6,-167.74"/>
<polygon fill="none" stroke="midnightblue" points="78.82,-193.78 78.16,-204.35 85.27,-196.5 78.82,-193.78"/>
</g>
<!-- Node3 -->
<g id="node3" class="node">
<title>Node3</title>
<g id="a_node3"><a xlink:title=" ">
<polygon fill="none" stroke="#bfbfbf" points="151.5,-204.5 151.5,-261.5 229.5,-261.5 229.5,-204.5 151.5,-204.5"/>
<text text-anchor="middle" x="190.5" y="-249.5" font-family="Helvetica,sans-Serif" font-size="10.00">IEnumerable</text>
<polyline fill="none" stroke="#bfbfbf" points="151.5,-242.5 229.5,-242.5 "/>
<text text-anchor="middle" x="190.5" y="-230.5" font-family="Helvetica,sans-Serif" font-size="10.00"> </text>
<polyline fill="none" stroke="#bfbfbf" points="151.5,-223.5 229.5,-223.5 "/>
<text text-anchor="middle" x="190.5" y="-211.5" font-family="Helvetica,sans-Serif" font-size="10.00"> </text>
</a>
</g>
</g>
<!-- Node3&#45;&gt;Node1 -->
<g id="edge2" class="edge">
<title>Node3&#45;&gt;Node1</title>
<path fill="none" stroke="midnightblue" d="M174.85,-194.9C171.3,-186.48 167.39,-177.21 163.4,-167.74"/>
<polygon fill="none" stroke="midnightblue" points="171.73,-196.5 178.84,-204.35 178.18,-193.78 171.73,-196.5"/>
</g>
</g>
</svg>
