<?xml version="1.0" encoding="UTF-8" standalone="no"?>
<!DOCTYPE svg PUBLIC "-//W3C//DTD SVG 1.1//EN"
 "http://www.w3.org/Graphics/SVG/1.1/DTD/svg11.dtd">
<!-- Generated by graphviz version 2.43.0 (0)
 -->
<!-- Title: VolumeControl.Core.Input.HotkeyActionAddonLoader.LoadActions Pages: 1 -->
<!--zoomable 535 -->
<svg id="main" version="1.1" xmlns="http://www.w3.org/2000/svg" xmlns:xlink="http://www.w3.org/1999/xlink" xml:space="preserve" onload="init(evt)">
<style type="text/css"><![CDATA[
.edge:hover path { stroke: red; }
.edge:hover polygon { stroke: red; fill: red; }
]]></style>
<script type="text/javascript"><![CDATA[
var edges = document.getElementsByTagName('g');
if (edges && edges.length) {
  for (var i=0;i<edges.length;i++) {
    if (edges[i].id.substr(0,4)=='edge') {
      edges[i].setAttribute('class','edge');
    }
  }
}
]]></script>
        <defs>
                <circle id="rim" cx="0" cy="0" r="7"/>
                <circle id="rim2" cx="0" cy="0" r="3.5"/>
                <g id="zoomPlus">
                        <use xlink:href="#rim" fill="#404040">
                                <set attributeName="fill" to="#808080" begin="zoomplus.mouseover" end="zoomplus.mouseout"/>
                        </use>
                        <path d="M-4,0h8M0,-4v8" fill="none" stroke="white" stroke-width="1.5" pointer-events="none"/>
                </g>
                <g id="zoomMin">
                        <use xlink:href="#rim" fill="#404040">
                                <set attributeName="fill" to="#808080" begin="zoomminus.mouseover" end="zoomminus.mouseout"/>
                        </use>
                        <path d="M-4,0h8" fill="none" stroke="white" stroke-width="1.5" pointer-events="none"/>
                </g>
                <g id="dirArrow">
                        <path fill="none" stroke="white" stroke-width="1.5" d="M0,-3.0v7 M-2.5,-0.5L0,-3.0L2.5,-0.5"/>
                </g>
               <g id="resetDef">
                       <use xlink:href="#rim2" fill="#404040">
                               <set attributeName="fill" to="#808080" begin="reset.mouseover" end="reset.mouseout"/>
                       </use>
               </g>
        </defs>

<script type="text/javascript">
var viewWidth = 899;
var viewHeight = 535;
var sectionId = 'dynsection-1';
</script>
<script xlink:href="svgpan.js"/>
<svg id="graph" class="graph">
<g id="viewport">
<title>VolumeControl.Core.Input.HotkeyActionAddonLoader.LoadActions</title>
<!-- Node1 -->
<g id="node1" class="node">
<title>Node1</title>
<g id="a_node1"><a xlink:title="Loads hotkey actions from the specified types .">
<polygon fill="#bfbfbf" stroke="black" points="0,-229.5 0,-259.5 207,-259.5 207,-229.5 0,-229.5"/>
<text text-anchor="start" x="8" y="-247.5" font-family="Helvetica,sans-Serif" font-size="10.00">VolumeControl.Core.Input.</text>
<text text-anchor="middle" x="103.5" y="-236.5" font-family="Helvetica,sans-Serif" font-size="10.00">HotkeyActionAddonLoader.LoadActions</text>
</a>
</g>
</g>
<!-- Node2 -->
<g id="node2" class="node">
<title>Node2</title>
<g id="a_node2"><a xlink:href="class_volume_control_1_1_log_1_1_async_log_writer.html#ae3c31ea63b3b7dfc04a08f42a2a3ab8a" target="_top" xlink:title="Queues writing an EventType.DEBUG message with the specified lines .">
<polygon fill="none" stroke="black" points="259.5,-384.5 259.5,-414.5 417.5,-414.5 417.5,-384.5 259.5,-384.5"/>
<text text-anchor="start" x="267.5" y="-402.5" font-family="Helvetica,sans-Serif" font-size="10.00">VolumeControl.Log.AsyncLog</text>
<text text-anchor="middle" x="338.5" y="-391.5" font-family="Helvetica,sans-Serif" font-size="10.00">Writer.Debug</text>
</a>
</g>
</g>
<!-- Node1&#45;&gt;Node2 -->
<g id="edge1" class="edge">
<title>Node1&#45;&gt;Node2</title>
<path fill="none" stroke="midnightblue" d="M117.44,-259.86C140.25,-285.99 190.18,-339.2 243,-369.5 250.59,-373.86 258.9,-377.67 267.34,-380.97"/>
<polygon fill="midnightblue" stroke="midnightblue" points="266.29,-384.32 276.88,-384.5 268.72,-377.75 266.29,-384.32"/>
</g>
<!-- Node3 -->
<g id="node3" class="node">
<title>Node3</title>
<g id="a_node3"><a xlink:href="class_volume_control_1_1_log_1_1_f_log.html#afe0e1fa95fcbb5d00e0c48be61b87eb0" target="_top" xlink:title=" ">
<polygon fill="none" stroke="black" points="709,-93 709,-112 879,-112 879,-93 709,-93"/>
<text text-anchor="middle" x="794" y="-100" font-family="Helvetica,sans-Serif" font-size="10.00">VolumeControl.Log.FLog.Debug</text>
</a>
</g>
</g>
<!-- Node1&#45;&gt;Node3 -->
<g id="edge2" class="edge">
<title>Node1&#45;&gt;Node3</title>
<path fill="none" stroke="midnightblue" d="M139.47,-229.4C203.59,-202.5 344.9,-146.82 470,-122.5 546.04,-107.72 633.86,-103.06 698.72,-101.9"/>
<polygon fill="midnightblue" stroke="midnightblue" points="698.98,-105.4 708.93,-101.75 698.88,-98.4 698.98,-105.4"/>
</g>
<!-- Node4 -->
<g id="node4" class="node">
<title>Node4</title>
<g id="a_node4"><a xlink:href="class_volume_control_1_1_log_1_1_f_log.html#a3f7c162caaa5e1ca78eff52678cd3813" target="_top" xlink:title=" ">
<polygon fill="none" stroke="black" points="485,-507 485,-526 646,-526 646,-507 485,-507"/>
<text text-anchor="middle" x="565.5" y="-514" font-family="Helvetica,sans-Serif" font-size="10.00">VolumeControl.Log.FLog.Error</text>
</a>
</g>
</g>
<!-- Node1&#45;&gt;Node4 -->
<g id="edge3" class="edge">
<title>Node1&#45;&gt;Node4</title>
<path fill="none" stroke="midnightblue" d="M122.45,-259.77C147.67,-280.42 195.82,-316.89 243,-336.5 323.01,-369.75 370.17,-316.91 434,-375.5 475.65,-413.73 428.3,-459.33 470,-497.5 471.94,-499.28 474.01,-500.91 476.17,-502.41"/>
<polygon fill="midnightblue" stroke="midnightblue" points="474.53,-505.51 484.93,-507.53 478.06,-499.46 474.53,-505.51"/>
</g>
<!-- Node5 -->
<g id="node5" class="node">
<title>Node5</title>
<g id="a_node5"><a xlink:href="class_volume_control_1_1_log_1_1_async_log_writer.html#a991ed5d730c4006309027e8b98304751" target="_top" xlink:title="Checks if messages with the specified eventType &#160;are shown in the log.">
<polygon fill="none" stroke="black" points="259.5,-49.5 259.5,-79.5 417.5,-79.5 417.5,-49.5 259.5,-49.5"/>
<text text-anchor="start" x="267.5" y="-67.5" font-family="Helvetica,sans-Serif" font-size="10.00">VolumeControl.Log.AsyncLog</text>
<text text-anchor="middle" x="338.5" y="-56.5" font-family="Helvetica,sans-Serif" font-size="10.00">Writer.FilterEventType</text>
</a>
</g>
</g>
<!-- Node1&#45;&gt;Node5 -->
<g id="edge4" class="edge">
<title>Node1&#45;&gt;Node5</title>
<path fill="none" stroke="midnightblue" d="M114.41,-229.33C134.84,-199.2 184.67,-131.58 243,-94.5 249.64,-90.28 256.92,-86.61 264.4,-83.43"/>
<polygon fill="midnightblue" stroke="midnightblue" points="265.94,-86.58 273.95,-79.66 263.36,-80.07 265.94,-86.58"/>
</g>
<!-- Node6 -->
<g id="node6" class="node">
<title>Node6</title>
<g id="a_node6"><a xlink:href="class_volume_control_1_1_log_1_1_f_log.html#a4dcec7039adc7659b074ba4122cea0f8" target="_top" xlink:title=" ">
<polygon fill="none" stroke="black" points="712.5,-317.5 712.5,-347.5 875.5,-347.5 875.5,-317.5 712.5,-317.5"/>
<text text-anchor="start" x="720.5" y="-335.5" font-family="Helvetica,sans-Serif" font-size="10.00">VolumeControl.Log.FLog.Filter</text>
<text text-anchor="middle" x="794" y="-324.5" font-family="Helvetica,sans-Serif" font-size="10.00">EventType</text>
</a>
</g>
</g>
<!-- Node1&#45;&gt;Node6 -->
<g id="edge5" class="edge">
<title>Node1&#45;&gt;Node6</title>
<path fill="none" stroke="midnightblue" d="M207.06,-253.08C272.16,-258.87 358.13,-267.14 434,-276.5 535.25,-288.99 560.24,-294.56 661,-310.5 674.39,-312.62 688.53,-314.91 702.38,-317.19"/>
<polygon fill="midnightblue" stroke="midnightblue" points="701.97,-320.67 712.41,-318.85 703.11,-313.77 701.97,-320.67"/>
</g>
<!-- Node7 -->
<g id="node7" class="node">
<title>Node7</title>
<g id="a_node7"><a xlink:href="class_volume_control_1_1_core_1_1_input_1_1_template_provider_manager.html#acfcbafeff4989d44913efe0f90a0a337" target="_top" xlink:title="Finds a suitable DataTemplate instance with the specified parameters.">
<polygon fill="none" stroke="black" points="243,-286 243,-327 434,-327 434,-286 243,-286"/>
<text text-anchor="start" x="251" y="-315" font-family="Helvetica,sans-Serif" font-size="10.00">VolumeControl.Core.Input.</text>
<text text-anchor="start" x="251" y="-304" font-family="Helvetica,sans-Serif" font-size="10.00">TemplateProviderManager.FindData</text>
<text text-anchor="middle" x="338.5" y="-293" font-family="Helvetica,sans-Serif" font-size="10.00">TemplateFor</text>
</a>
</g>
</g>
<!-- Node1&#45;&gt;Node7 -->
<g id="edge6" class="edge">
<title>Node1&#45;&gt;Node7</title>
<path fill="none" stroke="midnightblue" d="M160.9,-259.51C187.64,-266.62 220.2,-275.29 250.05,-283.23"/>
<polygon fill="midnightblue" stroke="midnightblue" points="249.49,-286.7 260.05,-285.89 251.29,-279.94 249.49,-286.7"/>
</g>
<!-- Node17 -->
<g id="node17" class="node">
<title>Node17</title>
<g id="a_node17"><a xlink:href="class_volume_control_1_1_log_1_1_async_log_writer.html#afb0da92d957da7dd6d92c86335f7ebce" target="_top" xlink:title=" ">
<polygon fill="none" stroke="black" points="259.5,-0.5 259.5,-30.5 417.5,-30.5 417.5,-0.5 259.5,-0.5"/>
<text text-anchor="start" x="267.5" y="-18.5" font-family="Helvetica,sans-Serif" font-size="10.00">VolumeControl.Log.AsyncLog</text>
<text text-anchor="middle" x="338.5" y="-7.5" font-family="Helvetica,sans-Serif" font-size="10.00">Writer.Trace</text>
</a>
</g>
</g>
<!-- Node1&#45;&gt;Node17 -->
<g id="edge24" class="edge">
<title>Node1&#45;&gt;Node17</title>
<path fill="none" stroke="midnightblue" d="M110.22,-229.36C125.49,-191.13 170.96,-90.13 243,-39.5 245.26,-37.91 247.61,-36.43 250.04,-35.04"/>
<polygon fill="midnightblue" stroke="midnightblue" points="251.79,-38.09 259.13,-30.45 248.62,-31.84 251.79,-38.09"/>
</g>
<!-- Node7&#45;&gt;Node3 -->
<g id="edge7" class="edge">
<title>Node7&#45;&gt;Node3</title>
<path fill="none" stroke="midnightblue" d="M352.28,-285.89C372.9,-254.49 416.68,-195.21 470,-165.5 491.9,-153.3 635.55,-128.22 723.75,-113.65"/>
<polygon fill="midnightblue" stroke="midnightblue" points="724.39,-117.1 733.69,-112.02 723.25,-110.19 724.39,-117.1"/>
</g>
<!-- Node7&#45;&gt;Node4 -->
<g id="edge8" class="edge">
<title>Node7&#45;&gt;Node4</title>
<path fill="none" stroke="midnightblue" d="M416.58,-327.14C423.07,-331.11 429.03,-335.85 434,-341.5 481,-394.93 418.98,-447.9 470,-497.5 471.89,-499.34 473.91,-501.02 476.02,-502.56"/>
<polygon fill="midnightblue" stroke="midnightblue" points="474.29,-505.6 484.65,-507.82 477.94,-499.63 474.29,-505.6"/>
</g>
<!-- Node7&#45;&gt;Node6 -->
<g id="edge9" class="edge">
<title>Node7&#45;&gt;Node6</title>
<path fill="none" stroke="midnightblue" d="M434.02,-311.92C512.77,-316.43 624.23,-322.82 701.99,-327.28"/>
<polygon fill="midnightblue" stroke="midnightblue" points="702.07,-330.79 712.26,-327.87 702.47,-323.8 702.07,-330.79"/>
</g>
<!-- Node8 -->
<g id="node8" class="node">
<title>Node8</title>
<g id="a_node8"><a xlink:href="class_volume_control_1_1_core_1_1_input_1_1_template_provider_manager.html#a7b12d07a6c84a53cadfd27a3adc8b88c" target="_top" xlink:title="Finds the DataTemplate with the specified key &#160;in the TemplateDictionaryProviders list.">
<polygon fill="none" stroke="black" points="470,-349 470,-390 661,-390 661,-349 470,-349"/>
<text text-anchor="start" x="478" y="-378" font-family="Helvetica,sans-Serif" font-size="10.00">VolumeControl.Core.Input.</text>
<text text-anchor="start" x="478" y="-367" font-family="Helvetica,sans-Serif" font-size="10.00">TemplateProviderManager.FindData</text>
<text text-anchor="middle" x="565.5" y="-356" font-family="Helvetica,sans-Serif" font-size="10.00">Template</text>
</a>
</g>
</g>
<!-- Node7&#45;&gt;Node8 -->
<g id="edge10" class="edge">
<title>Node7&#45;&gt;Node8</title>
<path fill="none" stroke="midnightblue" d="M412.86,-327.04C434.76,-333.17 458.91,-339.94 481.38,-346.23"/>
<polygon fill="midnightblue" stroke="midnightblue" points="480.66,-349.66 491.24,-348.99 482.55,-342.92 480.66,-349.66"/>
</g>
<!-- Node9 -->
<g id="node9" class="node">
<title>Node9</title>
<g id="a_node9"><a xlink:href="class_volume_control_1_1_log_1_1_f_log.html#ac7a8c27d69096fadba3f4b55cd405857" target="_top" xlink:title=" ">
<polygon fill="none" stroke="black" points="712,-388 712,-407 876,-407 876,-388 712,-388"/>
<text text-anchor="middle" x="794" y="-395" font-family="Helvetica,sans-Serif" font-size="10.00">VolumeControl.Log.FLog.Trace</text>
</a>
</g>
</g>
<!-- Node7&#45;&gt;Node9 -->
<g id="edge13" class="edge">
<title>Node7&#45;&gt;Node9</title>
<path fill="none" stroke="midnightblue" d="M410.95,-327.03C419.18,-331.07 427.09,-335.85 434,-341.5 457.5,-360.7 443.49,-384.75 470,-399.5 560.24,-449.7 687.79,-426.64 752.28,-409.75"/>
<polygon fill="midnightblue" stroke="midnightblue" points="753.33,-413.09 762.07,-407.1 751.5,-406.33 753.33,-413.09"/>
</g>
<!-- Node10 -->
<g id="node10" class="node">
<title>Node10</title>
<g id="a_node10"><a xlink:href="class_volume_control_1_1_core_1_1_input_1_1_template_provider_manager.html#a8c3fd49c36da88da9e1a49bd056d5df1" target="_top" xlink:title="Attempts to get the dictionaryProvider &#160;instance with the specified dictionaryProviderType .">
<polygon fill="none" stroke="black" points="476,-175 476,-216 655,-216 655,-175 476,-175"/>
<text text-anchor="start" x="484" y="-204" font-family="Helvetica,sans-Serif" font-size="10.00">VolumeControl.Core.Input.</text>
<text text-anchor="start" x="484" y="-193" font-family="Helvetica,sans-Serif" font-size="10.00">TemplateProviderManager.TryGet</text>
<text text-anchor="middle" x="565.5" y="-182" font-family="Helvetica,sans-Serif" font-size="10.00">DictionaryProvider</text>
</a>
</g>
</g>
<!-- Node7&#45;&gt;Node10 -->
<g id="edge14" class="edge">
<title>Node7&#45;&gt;Node10</title>
<path fill="none" stroke="midnightblue" d="M381.29,-285.88C418.79,-267.39 473.9,-240.2 513.88,-220.47"/>
<polygon fill="midnightblue" stroke="midnightblue" points="515.51,-223.57 522.93,-216.01 512.41,-217.29 515.51,-223.57"/>
</g>
<!-- Node14 -->
<g id="node14" class="node">
<title>Node14</title>
<g id="a_node14"><a xlink:href="class_volume_control_1_1_log_1_1_f_log.html#af4ed552556c83a4c76016fe6b4d103d4" target="_top" xlink:title=" ">
<polygon fill="none" stroke="black" points="705,-279 705,-298 883,-298 883,-279 705,-279"/>
<text text-anchor="middle" x="794" y="-286" font-family="Helvetica,sans-Serif" font-size="10.00">VolumeControl.Log.FLog.Warning</text>
</a>
</g>
</g>
<!-- Node7&#45;&gt;Node14 -->
<g id="edge23" class="edge">
<title>Node7&#45;&gt;Node14</title>
<path fill="none" stroke="midnightblue" d="M434.02,-302.75C510.28,-299.72 617.23,-295.48 694.54,-292.41"/>
<polygon fill="midnightblue" stroke="midnightblue" points="694.91,-295.9 704.76,-292 694.63,-288.9 694.91,-295.9"/>
</g>
<!-- Node15 -->
<g id="node15" class="node">
<title>Node15</title>
<g id="a_node15"><a xlink:href="class_volume_control_1_1_core_1_1_input_1_1_template_provider_manager.html#a1c96f7a45ee2b45ca285cd65ec6191b1" target="_top" xlink:title="Attempts to get the provider &#160;instance with the specified providerType .">
<polygon fill="none" stroke="black" points="476,-447 476,-488 655,-488 655,-447 476,-447"/>
<text text-anchor="start" x="484" y="-476" font-family="Helvetica,sans-Serif" font-size="10.00">VolumeControl.Core.Input.</text>
<text text-anchor="start" x="484" y="-465" font-family="Helvetica,sans-Serif" font-size="10.00">TemplateProviderManager.TryGet</text>
<text text-anchor="middle" x="565.5" y="-454" font-family="Helvetica,sans-Serif" font-size="10.00">Provider</text>
</a>
</g>
</g>
<!-- Node7&#45;&gt;Node15 -->
<g id="edge21" class="edge">
<title>Node7&#45;&gt;Node15</title>
<path fill="none" stroke="midnightblue" d="M414.33,-327.15C421.51,-331.14 428.25,-335.87 434,-341.5 465.09,-371.91 438.91,-402.09 470,-432.5 473.33,-435.75 476.98,-438.71 480.86,-441.39"/>
<polygon fill="midnightblue" stroke="midnightblue" points="479.33,-444.56 489.67,-446.85 483.01,-438.61 479.33,-444.56"/>
</g>
<!-- Node8&#45;&gt;Node6 -->
<g id="edge11" class="edge">
<title>Node8&#45;&gt;Node6</title>
<path fill="none" stroke="midnightblue" d="M661.24,-354.02C674.77,-351.81 688.65,-349.55 702.1,-347.35"/>
<polygon fill="midnightblue" stroke="midnightblue" points="702.98,-350.75 712.29,-345.68 701.85,-343.84 702.98,-350.75"/>
</g>
<!-- Node8&#45;&gt;Node9 -->
<g id="edge12" class="edge">
<title>Node8&#45;&gt;Node9</title>
<path fill="none" stroke="midnightblue" d="M661.24,-381.21C676.02,-383.04 691.22,-384.92 705.82,-386.72"/>
<polygon fill="midnightblue" stroke="midnightblue" points="705.46,-390.2 715.81,-387.96 706.32,-383.26 705.46,-390.2"/>
</g>
<!-- Node10&#45;&gt;Node3 -->
<g id="edge16" class="edge">
<title>Node10&#45;&gt;Node3</title>
<path fill="none" stroke="midnightblue" d="M634.01,-174.99C643.43,-170.86 652.71,-166.05 661,-160.5 680.6,-147.38 676.42,-133.02 697,-121.5 701.14,-119.18 705.51,-117.15 710.03,-115.36"/>
<polygon fill="midnightblue" stroke="midnightblue" points="711.2,-118.65 719.45,-112.01 708.86,-112.06 711.2,-118.65"/>
</g>
<!-- Node10&#45;&gt;Node6 -->
<g id="edge17" class="edge">
<title>Node10&#45;&gt;Node6</title>
<path fill="none" stroke="midnightblue" d="M640.04,-216.01C647.64,-220.03 654.82,-224.81 661,-230.5 688.79,-256.09 667.96,-283.33 697,-307.5 699.03,-309.19 701.16,-310.76 703.36,-312.23"/>
<polygon fill="midnightblue" stroke="midnightblue" points="701.85,-315.4 712.25,-317.4 705.36,-309.34 701.85,-315.4"/>
</g>
<!-- Node11 -->
<g id="node11" class="node">
<title>Node11</title>
<g id="a_node11"><a xlink:href="class_volume_control_1_1_log_1_1_log_message.html#a58f384161f2f0f7388add93e27b6ad77" target="_top" xlink:title="Appends the specified line &#160;to the message.">
<polygon fill="none" stroke="black" points="697,-131 697,-150 891,-150 891,-131 697,-131"/>
<text text-anchor="middle" x="794" y="-138" font-family="Helvetica,sans-Serif" font-size="10.00">VolumeControl.Log.LogMessage.Add</text>
</a>
</g>
</g>
<!-- Node10&#45;&gt;Node11 -->
<g id="edge15" class="edge">
<title>Node10&#45;&gt;Node11</title>
<path fill="none" stroke="midnightblue" d="M637.37,-174.93C656.64,-169.61 677.56,-164.1 697,-159.5 708,-156.9 719.76,-154.37 731.15,-152.04"/>
<polygon fill="midnightblue" stroke="midnightblue" points="731.92,-155.46 741.03,-150.06 730.54,-148.6 731.92,-155.46"/>
</g>
<!-- Node12 -->
<g id="node12" class="node">
<title>Node12</title>
<g id="a_node12"><a xlink:href="class_volume_control_1_1_core_1_1_input_1_1_template_provider_manager.html#a45dcb0ab3fcfe3333722b73ce9d0bbd8" target="_top" xlink:title="Gets the index of the ITemplateDictionaryProvider type specified by dictionaryProviderType &#160;in Dictio...">
<polygon fill="none" stroke="black" points="701.5,-219 701.5,-260 886.5,-260 886.5,-219 701.5,-219"/>
<text text-anchor="start" x="709.5" y="-248" font-family="Helvetica,sans-Serif" font-size="10.00">VolumeControl.Core.Input.</text>
<text text-anchor="start" x="709.5" y="-237" font-family="Helvetica,sans-Serif" font-size="10.00">TemplateProviderManager.IndexOf</text>
<text text-anchor="middle" x="794" y="-226" font-family="Helvetica,sans-Serif" font-size="10.00">DictionaryProviderType</text>
</a>
</g>
</g>
<!-- Node10&#45;&gt;Node12 -->
<g id="edge18" class="edge">
<title>Node10&#45;&gt;Node12</title>
<path fill="none" stroke="midnightblue" d="M655.04,-212.7C666.87,-215 679.07,-217.37 691.1,-219.71"/>
<polygon fill="midnightblue" stroke="midnightblue" points="690.67,-223.19 701.16,-221.66 692.01,-216.32 690.67,-223.19"/>
</g>
<!-- Node13 -->
<g id="node13" class="node">
<title>Node13</title>
<g id="a_node13"><a xlink:href="class_volume_control_1_1_log_1_1_f_log.html#a85772588881c3b883612f2238ecb5c1c" target="_top" xlink:title=" ">
<polygon fill="none" stroke="black" points="716.5,-169.5 716.5,-199.5 871.5,-199.5 871.5,-169.5 716.5,-169.5"/>
<text text-anchor="start" x="724.5" y="-187.5" font-family="Helvetica,sans-Serif" font-size="10.00">VolumeControl.Log.FLog.Log</text>
<text text-anchor="middle" x="794" y="-176.5" font-family="Helvetica,sans-Serif" font-size="10.00">Message</text>
</a>
</g>
</g>
<!-- Node10&#45;&gt;Node13 -->
<g id="edge19" class="edge">
<title>Node10&#45;&gt;Node13</title>
<path fill="none" stroke="midnightblue" d="M655.04,-191.2C671.79,-190.39 689.3,-189.54 706,-188.73"/>
<polygon fill="midnightblue" stroke="midnightblue" points="706.46,-192.21 716.28,-188.23 706.12,-185.22 706.46,-192.21"/>
</g>
<!-- Node10&#45;&gt;Node14 -->
<g id="edge20" class="edge">
<title>Node10&#45;&gt;Node14</title>
<path fill="none" stroke="midnightblue" d="M634.01,-216.01C643.43,-220.14 652.71,-224.95 661,-230.5 680.6,-243.62 676.42,-257.98 697,-269.5 701.14,-271.82 705.51,-273.85 710.03,-275.64"/>
<polygon fill="midnightblue" stroke="midnightblue" points="708.86,-278.94 719.45,-278.99 711.2,-272.35 708.86,-278.94"/>
</g>
<!-- Node16 -->
<g id="node16" class="node">
<title>Node16</title>
<g id="a_node16"><a xlink:href="class_volume_control_1_1_core_1_1_input_1_1_template_provider_manager.html#ab05a1e9263dfe8ccd7b6166abefd84d5" target="_top" xlink:title="Gets the index of the ITemplateProvider type specified by providerType &#160;in TemplateProviders.">
<polygon fill="none" stroke="black" points="701.5,-447 701.5,-488 886.5,-488 886.5,-447 701.5,-447"/>
<text text-anchor="start" x="709.5" y="-476" font-family="Helvetica,sans-Serif" font-size="10.00">VolumeControl.Core.Input.</text>
<text text-anchor="start" x="709.5" y="-465" font-family="Helvetica,sans-Serif" font-size="10.00">TemplateProviderManager.IndexOf</text>
<text text-anchor="middle" x="794" y="-454" font-family="Helvetica,sans-Serif" font-size="10.00">ProviderType</text>
</a>
</g>
</g>
<!-- Node15&#45;&gt;Node16 -->
<g id="edge22" class="edge">
<title>Node15&#45;&gt;Node16</title>
<path fill="none" stroke="midnightblue" d="M655.04,-467.5C666.87,-467.5 679.07,-467.5 691.1,-467.5"/>
<polygon fill="midnightblue" stroke="midnightblue" points="691.16,-471 701.16,-467.5 691.16,-464 691.16,-471"/>
</g>
</g>
</svg>
        <g id="navigator" transform="translate(0 0)" fill="#404254">
                <rect fill="#f2f5e9" fill-opacity="0.5" stroke="#606060" stroke-width=".5" x="0" y="0" width="60" height="60"/>
                <use id="zoomplus" xlink:href="#zoomPlus" x="17" y="9" onmousedown="handleZoom(evt,'in')"/>
                <use id="zoomminus" xlink:href="#zoomMin" x="42" y="9" onmousedown="handleZoom(evt,'out')"/>
                <use id="reset" xlink:href="#resetDef" x="30" y="36" onmousedown="handleReset()"/>
                <g id="arrowUp" xlink:href="#dirArrow" transform="translate(30 24)" onmousedown="handlePan(0,-1)">
                  <use xlink:href="#rim" fill="#404040">
                        <set attributeName="fill" to="#808080" begin="arrowUp.mouseover" end="arrowUp.mouseout"/>
                  </use>
                  <path fill="none" stroke="white" stroke-width="1.5" d="M0,-3.0v7 M-2.5,-0.5L0,-3.0L2.5,-0.5"/>
                </g>
                <g id="arrowRight" xlink:href="#dirArrow" transform="rotate(90) translate(36 -43)" onmousedown="handlePan(1,0)">
                  <use xlink:href="#rim" fill="#404040">
                        <set attributeName="fill" to="#808080" begin="arrowRight.mouseover" end="arrowRight.mouseout"/>
                  </use>
                  <path fill="none" stroke="white" stroke-width="1.5" d="M0,-3.0v7 M-2.5,-0.5L0,-3.0L2.5,-0.5"/>
                </g>
                <g id="arrowDown" xlink:href="#dirArrow" transform="rotate(180) translate(-30 -48)" onmousedown="handlePan(0,1)">
                  <use xlink:href="#rim" fill="#404040">
                        <set attributeName="fill" to="#808080" begin="arrowDown.mouseover" end="arrowDown.mouseout"/>
                  </use>
                  <path fill="none" stroke="white" stroke-width="1.5" d="M0,-3.0v7 M-2.5,-0.5L0,-3.0L2.5,-0.5"/>
                </g>
                <g id="arrowLeft" xlink:href="#dirArrow" transform="rotate(270) translate(-36 17)" onmousedown="handlePan(-1,0)">
                  <use xlink:href="#rim" fill="#404040">
                        <set attributeName="fill" to="#808080" begin="arrowLeft.mouseover" end="arrowLeft.mouseout"/>
                  </use>
                  <path fill="none" stroke="white" stroke-width="1.5" d="M0,-3.0v7 M-2.5,-0.5L0,-3.0L2.5,-0.5"/>
                </g>
        </g>
        <svg viewBox="0 0 15 15" width="100%" height="30px" preserveAspectRatio="xMaxYMin meet">
         <g id="arrow_out" transform="scale(0.3 0.3)">
          <a xlink:href="class_volume_control_1_1_core_1_1_input_1_1_hotkey_action_addon_loader_a4433627a745c3edd66508a6cbc685e48_cgraph_org.svg" target="_base">
           <rect id="button" ry="5" rx="5" y="6" x="6" height="38" width="38"
                fill="#f2f5e9" fill-opacity="0.5" stroke="#606060" stroke-width="1.0"/>
           <path id="arrow"
             d="M 11.500037,31.436501 C 11.940474,20.09759 22.043105,11.32322 32.158766,21.979434 L 37.068811,17.246167 C 37.068811,17.246167 37.088388,32 37.088388,32 L 22.160133,31.978069 C 22.160133,31.978069 26.997745,27.140456 26.997745,27.140456 C 18.528582,18.264221 13.291696,25.230495 11.500037,31.436501 z"
             style="fill:#404040;"/>
          </a>
         </g>
        </svg>
</svg>
