<?xml version="1.0" encoding="UTF-8" standalone="no"?>
<!DOCTYPE svg PUBLIC "-//W3C//DTD SVG 1.1//EN"
 "http://www.w3.org/Graphics/SVG/1.1/DTD/svg11.dtd">
<!-- Generated by graphviz version 2.43.0 (0)
 -->
<!-- Title: VolumeControl.Log.LogWriter.Info Pages: 1 -->
<svg width="376pt" height="88pt"
 viewBox="0.00 0.00 376.00 88.00" xmlns="http://www.w3.org/2000/svg" xmlns:xlink="http://www.w3.org/1999/xlink">
<g id="graph0" class="graph" transform="scale(1 1) rotate(0) translate(4 84)">
<title>VolumeControl.Log.LogWriter.Info</title>
<!-- Node1 -->
<g id="node1" class="node">
<title>Node1</title>
<g id="a_node1"><a xlink:title="Write a formatted EventType.INFO message to the log endpoint.">
<polygon fill="#bfbfbf" stroke="black" points="188,-30 188,-49 368,-49 368,-30 188,-30"/>
<text text-anchor="middle" x="278" y="-37" font-family="Helvetica,sans-Serif" font-size="10.00">VolumeControl.Log.LogWriter.Info</text>
</a>
</g>
</g>
<!-- Node2 -->
<g id="node2" class="node">
<title>Node2</title>
<g id="a_node2"><a xlink:href="class_volume_control_1_1_core_1_1_hotkey_manager.html#a0e20a3549552cc2102c7aa42b91fd7d9" target="_top" xlink:title="Create a new hotkey and add it to Hotkeys.">
<polygon fill="none" stroke="black" points="0,-49.5 0,-79.5 152,-79.5 152,-49.5 0,-49.5"/>
<text text-anchor="start" x="8" y="-67.5" font-family="Helvetica,sans-Serif" font-size="10.00">VolumeControl.Core.Hotkey</text>
<text text-anchor="middle" x="76" y="-56.5" font-family="Helvetica,sans-Serif" font-size="10.00">Manager.AddHotkey</text>
</a>
</g>
</g>
<!-- Node1&#45;&gt;Node2 -->
<g id="edge1" class="edge">
<title>Node1&#45;&gt;Node2</title>
<path fill="none" stroke="midnightblue" d="M190.66,-50.29C177.9,-51.89 164.83,-53.52 152.31,-55.09"/>
<polygon fill="midnightblue" stroke="midnightblue" points="191.33,-53.74 200.82,-49.02 190.46,-46.79 191.33,-53.74"/>
</g>
<!-- Node3 -->
<g id="node3" class="node">
<title>Node3</title>
<g id="a_node3"><a xlink:href="class_volume_control_1_1_core_1_1_hotkey_manager.html#a894a71e030f3ab2e6632f22557394428" target="_top" xlink:title="Remove the specified hotkey from Hotkeys.">
<polygon fill="none" stroke="black" points="0,-0.5 0,-30.5 152,-30.5 152,-0.5 0,-0.5"/>
<text text-anchor="start" x="8" y="-18.5" font-family="Helvetica,sans-Serif" font-size="10.00">VolumeControl.Core.Hotkey</text>
<text text-anchor="middle" x="76" y="-7.5" font-family="Helvetica,sans-Serif" font-size="10.00">Manager.DelHotkey</text>
</a>
</g>
</g>
<!-- Node1&#45;&gt;Node3 -->
<g id="edge2" class="edge">
<title>Node1&#45;&gt;Node3</title>
<path fill="none" stroke="midnightblue" d="M187.71,-28.79C175.78,-27.35 163.65,-25.9 152,-24.5"/>
<polygon fill="midnightblue" stroke="midnightblue" points="187.32,-32.26 197.67,-29.98 188.16,-25.31 187.32,-32.26"/>
</g>
</g>
</svg>
