<?xml version="1.0" encoding="UTF-8" standalone="no"?>
<!DOCTYPE svg PUBLIC "-//W3C//DTD SVG 1.1//EN"
 "http://www.w3.org/Graphics/SVG/1.1/DTD/svg11.dtd">
<!-- Generated by graphviz version 2.43.0 (0)
 -->
<!-- Title: VolumeControl.WPF.Behaviors.TextBoxHorizontalScrollBehavior Pages: 1 -->
<svg width="178pt" height="183pt"
 viewBox="0.00 0.00 178.00 183.00" xmlns="http://www.w3.org/2000/svg" xmlns:xlink="http://www.w3.org/1999/xlink">

<svg id="main" version="1.1" xmlns="http://www.w3.org/2000/svg" xmlns:xlink="http://www.w3.org/1999/xlink" xml:space="preserve" onload="init(evt)">
<style type="text/css"><![CDATA[
.node, .edge {opacity: 0.7;}
.node.selected, .edge.selected {opacity: 1;}
.edge:hover path { stroke: red; }
.edge:hover polygon { stroke: red; fill: red; }
]]></style>
<script type="application/ecmascript" xlink:href="svg.min.js"/>
<svg id="graph" class="graph">
<g id="graph0" class="graph" transform="scale(1 1) rotate(0) translate(4 179)">
<title>VolumeControl.WPF.Behaviors.TextBoxHorizontalScrollBehavior</title>
<!-- Node1 -->
<g id="Node000001" class="node">
<title>Node1</title>
<g id="a_Node000001"><a xlink:title="Scrolls horizontally when scrolling while holding SHIFT in TextBoxBase controls.">
<polygon fill="#999999" stroke="transparent" points="170,-90 0,-90 0,0 170,0 170,-90"/>
<text text-anchor="start" x="5" y="-78" font-family="Helvetica,sans-Serif" font-size="10.00">VolumeControl.WPF.Behaviors.</text>
<text text-anchor="start" x="5" y="-67" font-family="Helvetica,sans-Serif" font-size="10.00">TextBoxHorizontalScrollBehavior</text>
<text text-anchor="start" x="17.5" y="-52" font-family="Helvetica,sans-Serif" font-size="10.00">+</text>
<text text-anchor="start" x="44" y="-52" font-family="Helvetica,sans-Serif" font-size="10.00">MagnitudeProperty</text>
<text text-anchor="start" x="17.5" y="-37" font-family="Helvetica,sans-Serif" font-size="10.00">+</text>
<text text-anchor="start" x="44" y="-37" font-family="Helvetica,sans-Serif" font-size="10.00">Magnitude</text>
<text text-anchor="start" x="17.5" y="-22" font-family="Helvetica,sans-Serif" font-size="10.00">#</text>
<text text-anchor="start" x="44" y="-22" font-family="Helvetica,sans-Serif" font-size="10.00">OnAttached()</text>
<text text-anchor="start" x="17.5" y="-7" font-family="Helvetica,sans-Serif" font-size="10.00">#</text>
<text text-anchor="start" x="44" y="-7" font-family="Helvetica,sans-Serif" font-size="10.00">OnDetaching()</text>
<polygon fill="#666666" stroke="#666666" points="0,-62 0,-62 170,-62 170,-62 0,-62"/>
<polygon fill="#666666" stroke="#666666" points="0,-32 0,-32 42,-32 42,-32 0,-32"/>
<polygon fill="#666666" stroke="#666666" points="42,-32 42,-32 170,-32 170,-32 42,-32"/>
<polygon fill="none" stroke="#666666" points="0,0 0,-90 170,-90 170,0 0,0"/>
</a>
</g>
</g>
<!-- Node2 -->
<g id="Node000002" class="node">
<title>Node2</title>
<g id="a_Node000002"><a xlink:title=" ">
<polygon fill="white" stroke="transparent" points="155,-175 15,-175 15,-126 155,-126 155,-175"/>
<text text-anchor="start" x="20" y="-162.5" font-family="Helvetica,sans-Serif" font-size="10.00">Behavior&lt; TextBoxBase &gt;</text>
<text text-anchor="start" x="83" y="-147.5" font-family="Helvetica,sans-Serif" font-size="10.00"> </text>
<text text-anchor="start" x="83" y="-132.5" font-family="Helvetica,sans-Serif" font-size="10.00"> </text>
<polygon fill="#bfbfbf" stroke="#bfbfbf" points="15,-157.5 15,-157.5 155,-157.5 155,-157.5 15,-157.5"/>
<polygon fill="#bfbfbf" stroke="#bfbfbf" points="15,-142.5 15,-142.5 155,-142.5 155,-142.5 15,-142.5"/>
<polygon fill="none" stroke="#bfbfbf" points="15,-126 15,-175 155,-175 155,-126 15,-126"/>
</a>
</g>
</g>
<!-- Node2&#45;&gt;Node1 -->
<g id="edge1_Node000001_Node000002" class="edge">
<title>Node2&#45;&gt;Node1</title>
<g id="a_edge1_Node000001_Node000002"><a xlink:title=" ">
<path fill="none" stroke="#63b8ff" d="M85,-115.62C85,-107.56 85,-98.84 85,-90.39"/>
<polygon fill="none" stroke="#63b8ff" points="81.5,-115.75 85,-125.76 88.5,-115.76 81.5,-115.75"/>
</a>
</g>
</g>
</g>
</svg>
</svg>

<style type='text/css'>
<![CDATA[
[data-mouse-over-selected='false'] { opacity: 0.7; }
[data-mouse-over-selected='true']  { opacity: 1.0; }
]]>
</style>
<script type="application/ecmascript"><![CDATA[
document.addEventListener('DOMContentLoaded', (event) => {
  highlightEdges();
  highlightAdjacentNodes();
});
]]></script>
</svg>
