<?xml version="1.0" encoding="UTF-8" standalone="no"?>
<!DOCTYPE svg PUBLIC "-//W3C//DTD SVG 1.1//EN"
 "http://www.w3.org/Graphics/SVG/1.1/DTD/svg11.dtd">
<!-- Generated by graphviz version 2.43.0 (0)
 -->
<!-- Title: VolumeControl.Audio.AudioDevice Pages: 1 -->
<!--zoomable 871 -->
<svg id="main" version="1.1" xmlns="http://www.w3.org/2000/svg" xmlns:xlink="http://www.w3.org/1999/xlink" xml:space="preserve" onload="init(evt)">
<style type="text/css"><![CDATA[
.edge:hover path { stroke: red; }
.edge:hover polygon { stroke: red; fill: red; }
]]></style>
<script type="text/javascript"><![CDATA[
var edges = document.getElementsByTagName('g');
if (edges && edges.length) {
  for (var i=0;i<edges.length;i++) {
    if (edges[i].id.substr(0,4)=='edge') {
      edges[i].setAttribute('class','edge');
    }
  }
}
]]></script>
        <defs>
                <circle id="rim" cx="0" cy="0" r="7"/>
                <circle id="rim2" cx="0" cy="0" r="3.5"/>
                <g id="zoomPlus">
                        <use xlink:href="#rim" fill="#404040">
                                <set attributeName="fill" to="#808080" begin="zoomplus.mouseover" end="zoomplus.mouseout"/>
                        </use>
                        <path d="M-4,0h8M0,-4v8" fill="none" stroke="white" stroke-width="1.5" pointer-events="none"/>
                </g>
                <g id="zoomMin">
                        <use xlink:href="#rim" fill="#404040">
                                <set attributeName="fill" to="#808080" begin="zoomminus.mouseover" end="zoomminus.mouseout"/>
                        </use>
                        <path d="M-4,0h8" fill="none" stroke="white" stroke-width="1.5" pointer-events="none"/>
                </g>
                <g id="dirArrow">
                        <path fill="none" stroke="white" stroke-width="1.5" d="M0,-3.0v7 M-2.5,-0.5L0,-3.0L2.5,-0.5"/>
                </g>
               <g id="resetDef">
                       <use xlink:href="#rim2" fill="#404040">
                               <set attributeName="fill" to="#808080" begin="reset.mouseover" end="reset.mouseout"/>
                       </use>
               </g>
        </defs>

<script type="text/javascript">
var viewWidth = 2210;
var viewHeight = 871;
var sectionId = 'dynsection-1';
</script>
<script xlink:href="svgpan.js"/>
<svg id="graph" class="graph">
<g id="viewport">
<title>VolumeControl.Audio.AudioDevice</title>
<!-- Node1 -->
<g id="node1" class="node">
<title>Node1</title>
<g id="a_node1"><a xlink:title="An audio device.">
<polygon fill="#bfbfbf" stroke="black" points="799.79,-0.5 799.79,-354.5 983.79,-354.5 983.79,-0.5 799.79,-0.5"/>
<text text-anchor="start" x="807.79" y="-342.5" font-family="Helvetica,sans-Serif" font-size="10.00">VolumeControl.Audio.Audio</text>
<text text-anchor="middle" x="891.79" y="-331.5" font-family="Helvetica,sans-Serif" font-size="10.00">Device</text>
<polyline fill="none" stroke="black" points="799.79,-324.5 983.79,-324.5 "/>
<text text-anchor="start" x="807.79" y="-312.5" font-family="Helvetica,sans-Serif" font-size="10.00">+ AudioMeterInformation</text>
<text text-anchor="start" x="807.79" y="-301.5" font-family="Helvetica,sans-Serif" font-size="10.00">+ PeakMeterValue</text>
<text text-anchor="start" x="807.79" y="-290.5" font-family="Helvetica,sans-Serif" font-size="10.00">+ Log</text>
<text text-anchor="start" x="807.79" y="-279.5" font-family="Helvetica,sans-Serif" font-size="10.00">+ MMDevice</text>
<text text-anchor="start" x="807.79" y="-268.5" font-family="Helvetica,sans-Serif" font-size="10.00">+ Enabled</text>
<text text-anchor="start" x="807.79" y="-257.5" font-family="Helvetica,sans-Serif" font-size="10.00">+ Name</text>
<text text-anchor="start" x="807.79" y="-246.5" font-family="Helvetica,sans-Serif" font-size="10.00">+ InterfaceName</text>
<text text-anchor="start" x="807.79" y="-235.5" font-family="Helvetica,sans-Serif" font-size="10.00">+ DeviceID</text>
<text text-anchor="start" x="807.79" y="-224.5" font-family="Helvetica,sans-Serif" font-size="10.00">+ InstanceID</text>
<text text-anchor="start" x="807.79" y="-213.5" font-family="Helvetica,sans-Serif" font-size="10.00">+ IconPath</text>
<text text-anchor="start" x="807.79" y="-202.5" font-family="Helvetica,sans-Serif" font-size="10.00">and 24 more...</text>
<polyline fill="none" stroke="black" points="799.79,-195.5 983.79,-195.5 "/>
<text text-anchor="start" x="807.79" y="-183.5" font-family="Helvetica,sans-Serif" font-size="10.00">+ GetDeviceName()</text>
<text text-anchor="start" x="807.79" y="-172.5" font-family="Helvetica,sans-Serif" font-size="10.00">+ FindAll()</text>
<text text-anchor="start" x="807.79" y="-161.5" font-family="Helvetica,sans-Serif" font-size="10.00">+ GetIcons()</text>
<text text-anchor="start" x="807.79" y="-150.5" font-family="Helvetica,sans-Serif" font-size="10.00">+ Dispose()</text>
<text text-anchor="start" x="807.79" y="-139.5" font-family="Helvetica,sans-Serif" font-size="10.00">+ Equals()</text>
<text text-anchor="start" x="807.79" y="-128.5" font-family="Helvetica,sans-Serif" font-size="10.00">+ Equals()</text>
<text text-anchor="start" x="807.79" y="-117.5" font-family="Helvetica,sans-Serif" font-size="10.00">+ Equals()</text>
<text text-anchor="start" x="807.79" y="-106.5" font-family="Helvetica,sans-Serif" font-size="10.00">+ GetHashCode()</text>
<text text-anchor="start" x="807.79" y="-95.5" font-family="Helvetica,sans-Serif" font-size="10.00">+ Add()</text>
<text text-anchor="start" x="807.79" y="-84.5" font-family="Helvetica,sans-Serif" font-size="10.00">+ Clear()</text>
<text text-anchor="start" x="807.79" y="-73.5" font-family="Helvetica,sans-Serif" font-size="10.00">and 27 more...</text>
<text text-anchor="start" x="807.79" y="-62.5" font-family="Helvetica,sans-Serif" font-size="10.00">~ AudioDevice()</text>
<text text-anchor="start" x="807.79" y="-51.5" font-family="Helvetica,sans-Serif" font-size="10.00">~ ForwardPropertyStoreChanged()</text>
<text text-anchor="start" x="807.79" y="-40.5" font-family="Helvetica,sans-Serif" font-size="10.00">~ ForwardRemoved()</text>
<text text-anchor="start" x="807.79" y="-29.5" font-family="Helvetica,sans-Serif" font-size="10.00">~ ForwardStateChanged()</text>
<text text-anchor="start" x="807.79" y="-18.5" font-family="Helvetica,sans-Serif" font-size="10.00">~ ReloadSessions()</text>
<text text-anchor="start" x="807.79" y="-7.5" font-family="Helvetica,sans-Serif" font-size="10.00">~ GetAudioSessions()</text>
</a>
</g>
</g>
<!-- Node2 -->
<g id="node2" class="node">
<title>Node2</title>
<g id="a_node2"><a xlink:href="interface_volume_control_1_1_audio_1_1_interfaces_1_1_i_volume_control.html" target="_top" xlink:title="Represents some kind of controllable audio playback instance.">
<polygon fill="none" stroke="black" points="228.79,-612.5 228.79,-746.5 392.79,-746.5 392.79,-612.5 228.79,-612.5"/>
<text text-anchor="middle" x="310.79" y="-734.5" font-family="Helvetica,sans-Serif" font-size="10.00">IVolumeControl</text>
<polyline fill="none" stroke="black" points="228.79,-727.5 392.79,-727.5 "/>
<text text-anchor="start" x="236.79" y="-715.5" font-family="Helvetica,sans-Serif" font-size="10.00">+ NativeVolume</text>
<text text-anchor="start" x="236.79" y="-704.5" font-family="Helvetica,sans-Serif" font-size="10.00">+ Volume</text>
<text text-anchor="start" x="236.79" y="-693.5" font-family="Helvetica,sans-Serif" font-size="10.00">+ Muted</text>
<polyline fill="none" stroke="black" points="228.79,-686.5 392.79,-686.5 "/>
<text text-anchor="start" x="236.79" y="-674.5" font-family="Helvetica,sans-Serif" font-size="10.00">+ IncreaseVolume()</text>
<text text-anchor="start" x="236.79" y="-663.5" font-family="Helvetica,sans-Serif" font-size="10.00">+ IncreaseVolume()</text>
<text text-anchor="start" x="236.79" y="-652.5" font-family="Helvetica,sans-Serif" font-size="10.00">+ DecreaseVolume()</text>
<text text-anchor="start" x="236.79" y="-641.5" font-family="Helvetica,sans-Serif" font-size="10.00">+ DecreaseVolume()</text>
<text text-anchor="start" x="236.79" y="-630.5" font-family="Helvetica,sans-Serif" font-size="10.00">~ MakeListDisplayableControl</text>
<text text-anchor="start" x="236.79" y="-619.5" font-family="Helvetica,sans-Serif" font-size="10.00">Template()</text>
</a>
</g>
</g>
<!-- Node2&#45;&gt;Node1 -->
<g id="edge1" class="edge">
<title>Node2&#45;&gt;Node1</title>
<path fill="none" stroke="midnightblue" d="M338.66,-602.8C341.58,-593.82 344.37,-584.74 346.79,-576 369.19,-495.11 331.47,-455.83 384.79,-391 489.66,-263.48 684.33,-211.26 799.53,-190.81"/>
<polygon fill="none" stroke="midnightblue" points="335.28,-601.88 335.45,-612.47 341.92,-604.09 335.28,-601.88"/>
</g>
<!-- Node5 -->
<g id="node5" class="node">
<title>Node5</title>
<g id="a_node5"><a xlink:href="interface_volume_control_1_1_audio_1_1_interfaces_1_1_i_metered_volume_control.html" target="_top" xlink:title="Extends the IMeteredVolumeControl interface with the AudioMeterInformation property.">
<polygon fill="none" stroke="black" points="173.79,-496.5 173.79,-575.5 337.79,-575.5 337.79,-496.5 173.79,-496.5"/>
<text text-anchor="middle" x="255.79" y="-563.5" font-family="Helvetica,sans-Serif" font-size="10.00">IMeteredVolumeControl</text>
<polyline fill="none" stroke="black" points="173.79,-556.5 337.79,-556.5 "/>
<text text-anchor="start" x="181.79" y="-544.5" font-family="Helvetica,sans-Serif" font-size="10.00">+ PeakMeterValue</text>
<text text-anchor="start" x="181.79" y="-533.5" font-family="Helvetica,sans-Serif" font-size="10.00">+ AudioMeterInformation</text>
<polyline fill="none" stroke="black" points="173.79,-526.5 337.79,-526.5 "/>
<text text-anchor="start" x="181.79" y="-514.5" font-family="Helvetica,sans-Serif" font-size="10.00">~ MakeListDisplayableControl</text>
<text text-anchor="start" x="181.79" y="-503.5" font-family="Helvetica,sans-Serif" font-size="10.00">Template()</text>
</a>
</g>
</g>
<!-- Node2&#45;&gt;Node5 -->
<g id="edge6" class="edge">
<title>Node2&#45;&gt;Node5</title>
<path fill="none" stroke="midnightblue" d="M281.41,-602.91C277.76,-593.53 274.15,-584.25 270.85,-575.76"/>
<polygon fill="none" stroke="midnightblue" points="278.17,-604.25 285.06,-612.31 284.7,-601.72 278.17,-604.25"/>
</g>
<!-- Node3 -->
<g id="node3" class="node">
<title>Node3</title>
<g id="a_node3"><a xlink:href="interface_volume_control_1_1_core_1_1_interfaces_1_1_i_list_displayable.html" target="_top" xlink:title="Represents an object that, when it is a member of a list of similar items, can be displayed in the Li...">
<polygon fill="none" stroke="black" points="148.29,-783.5 148.29,-862.5 253.29,-862.5 253.29,-783.5 148.29,-783.5"/>
<text text-anchor="middle" x="200.79" y="-850.5" font-family="Helvetica,sans-Serif" font-size="10.00">IListDisplayable</text>
<polyline fill="none" stroke="black" points="148.29,-843.5 253.29,-843.5 "/>
<text text-anchor="start" x="156.29" y="-831.5" font-family="Helvetica,sans-Serif" font-size="10.00">+ DisplayText</text>
<text text-anchor="start" x="156.29" y="-820.5" font-family="Helvetica,sans-Serif" font-size="10.00">+ DisplayControls</text>
<text text-anchor="start" x="156.29" y="-809.5" font-family="Helvetica,sans-Serif" font-size="10.00">+ DisplayIcon</text>
<polyline fill="none" stroke="black" points="148.29,-802.5 253.29,-802.5 "/>
<text text-anchor="middle" x="200.79" y="-790.5" font-family="Helvetica,sans-Serif" font-size="10.00"> </text>
</a>
</g>
</g>
<!-- Node3&#45;&gt;Node1 -->
<g id="edge3" class="edge">
<title>Node3&#45;&gt;Node1</title>
<path fill="none" stroke="midnightblue" d="M142.82,-776.79C71.23,-715.08 -35.53,-600.23 12.79,-496 43.16,-430.48 73.02,-424.89 136.79,-391 358.49,-273.18 652.47,-214.84 799.62,-191.43"/>
<polygon fill="none" stroke="midnightblue" points="140.61,-779.5 150.5,-783.32 145.15,-774.17 140.61,-779.5"/>
</g>
<!-- Node3&#45;&gt;Node2 -->
<g id="edge2" class="edge">
<title>Node3&#45;&gt;Node2</title>
<path fill="none" stroke="midnightblue" d="M237.01,-775.41C244.18,-766.18 251.84,-756.33 259.4,-746.6"/>
<polygon fill="none" stroke="midnightblue" points="234.22,-773.29 230.84,-783.33 239.75,-777.59 234.22,-773.29"/>
</g>
<!-- Node3&#45;&gt;Node5 -->
<g id="edge7" class="edge">
<title>Node3&#45;&gt;Node5</title>
<path fill="none" stroke="midnightblue" d="M200.32,-773.11C201.06,-729.98 204.96,-665.8 219.79,-612 223.16,-599.75 228.47,-587.06 233.99,-575.67"/>
<polygon fill="none" stroke="midnightblue" points="196.82,-773.29 200.2,-783.33 203.82,-773.38 196.82,-773.29"/>
</g>
<!-- Node4 -->
<g id="node4" class="node">
<title>Node4</title>
<g id="a_node4"><a xlink:href="interface_volume_control_1_1_audio_1_1_interfaces_1_1_i_device.html" target="_top" xlink:title="Represents an audio device.">
<polygon fill="none" stroke="black" points="219.79,-391.5 219.79,-459.5 291.79,-459.5 291.79,-391.5 219.79,-391.5"/>
<text text-anchor="middle" x="255.79" y="-447.5" font-family="Helvetica,sans-Serif" font-size="10.00">IDevice</text>
<polyline fill="none" stroke="black" points="219.79,-440.5 291.79,-440.5 "/>
<text text-anchor="start" x="227.79" y="-428.5" font-family="Helvetica,sans-Serif" font-size="10.00">+ Name</text>
<text text-anchor="start" x="227.79" y="-417.5" font-family="Helvetica,sans-Serif" font-size="10.00">+ DeviceID</text>
<polyline fill="none" stroke="black" points="219.79,-410.5 291.79,-410.5 "/>
<text text-anchor="middle" x="255.79" y="-398.5" font-family="Helvetica,sans-Serif" font-size="10.00"> </text>
</a>
</g>
</g>
<!-- Node4&#45;&gt;Node1 -->
<g id="edge4" class="edge">
<title>Node4&#45;&gt;Node1</title>
<path fill="none" stroke="midnightblue" d="M301.37,-406.87C405.28,-366.68 661.34,-267.64 799.63,-214.14"/>
<polygon fill="none" stroke="midnightblue" points="299.87,-403.7 291.8,-410.57 302.39,-410.23 299.87,-403.7"/>
</g>
<!-- Node5&#45;&gt;Node4 -->
<g id="edge5" class="edge">
<title>Node5&#45;&gt;Node4</title>
<path fill="none" stroke="midnightblue" d="M255.79,-486.35C255.79,-477.28 255.79,-468 255.79,-459.54"/>
<polygon fill="none" stroke="midnightblue" points="252.29,-486.44 255.79,-496.44 259.29,-486.44 252.29,-486.44"/>
</g>
<!-- Node6 -->
<g id="node6" class="node">
<title>Node6</title>
<g id="a_node6"><a xlink:title=" ">
<polygon fill="none" stroke="#bfbfbf" points="22.29,-507.5 22.29,-564.5 155.29,-564.5 155.29,-507.5 22.29,-507.5"/>
<text text-anchor="middle" x="88.79" y="-552.5" font-family="Helvetica,sans-Serif" font-size="10.00">INotifyPropertyChanged</text>
<polyline fill="none" stroke="#bfbfbf" points="22.29,-545.5 155.29,-545.5 "/>
<text text-anchor="middle" x="88.79" y="-533.5" font-family="Helvetica,sans-Serif" font-size="10.00"> </text>
<polyline fill="none" stroke="#bfbfbf" points="22.29,-526.5 155.29,-526.5 "/>
<text text-anchor="middle" x="88.79" y="-514.5" font-family="Helvetica,sans-Serif" font-size="10.00"> </text>
</a>
</g>
</g>
<!-- Node6&#45;&gt;Node1 -->
<g id="edge22" class="edge">
<title>Node6&#45;&gt;Node1</title>
<path fill="none" stroke="midnightblue" d="M111.03,-498.5C132.69,-465.88 168.47,-419.04 210.79,-391 398.04,-266.92 661.8,-211.99 799.66,-190.51"/>
<polygon fill="none" stroke="midnightblue" points="107.83,-497.01 105.3,-507.3 113.69,-500.83 107.83,-497.01"/>
</g>
<!-- Node6&#45;&gt;Node4 -->
<g id="edge8" class="edge">
<title>Node6&#45;&gt;Node4</title>
<path fill="none" stroke="midnightblue" d="M139.88,-501.8C165.62,-485.08 196.22,-465.2 219.52,-450.06"/>
<polygon fill="none" stroke="midnightblue" points="137.84,-498.96 131.36,-507.34 141.65,-504.83 137.84,-498.96"/>
</g>
<!-- Node7 -->
<g id="node7" class="node">
<title>Node7</title>
<g id="a_node7"><a xlink:title=" ">
<polygon fill="none" stroke="#bfbfbf" points="393.79,-397 393.79,-454 467.79,-454 467.79,-397 393.79,-397"/>
<text text-anchor="middle" x="430.79" y="-442" font-family="Helvetica,sans-Serif" font-size="10.00">IDisposable</text>
<polyline fill="none" stroke="#bfbfbf" points="393.79,-435 467.79,-435 "/>
<text text-anchor="middle" x="430.79" y="-423" font-family="Helvetica,sans-Serif" font-size="10.00"> </text>
<polyline fill="none" stroke="#bfbfbf" points="393.79,-416 467.79,-416 "/>
<text text-anchor="middle" x="430.79" y="-404" font-family="Helvetica,sans-Serif" font-size="10.00"> </text>
</a>
</g>
</g>
<!-- Node7&#45;&gt;Node1 -->
<g id="edge9" class="edge">
<title>Node7&#45;&gt;Node1</title>
<path fill="none" stroke="midnightblue" d="M476.22,-391.35C476.41,-391.23 476.6,-391.12 476.79,-391 584.01,-325.07 714.09,-260.83 799.7,-220.55"/>
<polygon fill="none" stroke="midnightblue" points="474.09,-388.56 467.6,-396.93 477.9,-394.43 474.09,-388.56"/>
</g>
<!-- Node8 -->
<g id="node8" class="node">
<title>Node8</title>
<g id="a_node8"><a xlink:title=" ">
<polygon fill="none" stroke="#bfbfbf" points="485.79,-397 485.79,-454 637.79,-454 637.79,-397 485.79,-397"/>
<text text-anchor="middle" x="561.79" y="-442" font-family="Helvetica,sans-Serif" font-size="10.00">IEquatable&lt; AudioDevice &gt;</text>
<polyline fill="none" stroke="#bfbfbf" points="485.79,-435 637.79,-435 "/>
<text text-anchor="middle" x="561.79" y="-423" font-family="Helvetica,sans-Serif" font-size="10.00"> </text>
<polyline fill="none" stroke="#bfbfbf" points="485.79,-416 637.79,-416 "/>
<text text-anchor="middle" x="561.79" y="-404" font-family="Helvetica,sans-Serif" font-size="10.00"> </text>
</a>
</g>
</g>
<!-- Node8&#45;&gt;Node1 -->
<g id="edge10" class="edge">
<title>Node8&#45;&gt;Node1</title>
<path fill="none" stroke="midnightblue" d="M606.93,-390.85C656.33,-354.03 736.84,-294.01 799.69,-247.15"/>
<polygon fill="none" stroke="midnightblue" points="604.61,-388.21 598.68,-397 608.79,-393.83 604.61,-388.21"/>
</g>
<!-- Node9 -->
<g id="node9" class="node">
<title>Node9</title>
<g id="a_node9"><a xlink:title=" ">
<polygon fill="none" stroke="#bfbfbf" points="655.79,-397 655.79,-454 783.79,-454 783.79,-397 655.79,-397"/>
<text text-anchor="middle" x="719.79" y="-442" font-family="Helvetica,sans-Serif" font-size="10.00">IEquatable&lt; IDevice &gt;</text>
<polyline fill="none" stroke="#bfbfbf" points="655.79,-435 783.79,-435 "/>
<text text-anchor="middle" x="719.79" y="-423" font-family="Helvetica,sans-Serif" font-size="10.00"> </text>
<polyline fill="none" stroke="#bfbfbf" points="655.79,-416 783.79,-416 "/>
<text text-anchor="middle" x="719.79" y="-404" font-family="Helvetica,sans-Serif" font-size="10.00"> </text>
</a>
</g>
</g>
<!-- Node9&#45;&gt;Node1 -->
<g id="edge11" class="edge">
<title>Node9&#45;&gt;Node1</title>
<path fill="none" stroke="midnightblue" d="M745.01,-388.43C759.8,-367.27 779.51,-339.08 799.67,-310.25"/>
<polygon fill="none" stroke="midnightblue" points="742.05,-386.56 739.18,-396.76 747.78,-390.57 742.05,-386.56"/>
</g>
<!-- Node10 -->
<g id="node10" class="node">
<title>Node10</title>
<g id="a_node10"><a xlink:title=" ">
<polygon fill="none" stroke="#bfbfbf" points="802.29,-397 802.29,-454 839.29,-454 839.29,-397 802.29,-397"/>
<text text-anchor="middle" x="820.79" y="-442" font-family="Helvetica,sans-Serif" font-size="10.00">IList</text>
<polyline fill="none" stroke="#bfbfbf" points="802.29,-435 839.29,-435 "/>
<text text-anchor="middle" x="820.79" y="-423" font-family="Helvetica,sans-Serif" font-size="10.00"> </text>
<polyline fill="none" stroke="#bfbfbf" points="802.29,-416 839.29,-416 "/>
<text text-anchor="middle" x="820.79" y="-404" font-family="Helvetica,sans-Serif" font-size="10.00"> </text>
</a>
</g>
</g>
<!-- Node10&#45;&gt;Node1 -->
<g id="edge12" class="edge">
<title>Node10&#45;&gt;Node1</title>
<path fill="none" stroke="midnightblue" d="M831.64,-386.9C834.41,-377.3 837.58,-366.33 840.97,-354.55"/>
<polygon fill="none" stroke="midnightblue" points="828.2,-386.18 828.79,-396.76 834.93,-388.12 828.2,-386.18"/>
</g>
<!-- Node11 -->
<g id="node11" class="node">
<title>Node11</title>
<g id="a_node11"><a xlink:title=" ">
<polygon fill="none" stroke="#bfbfbf" points="857.79,-397 857.79,-454 925.79,-454 925.79,-397 857.79,-397"/>
<text text-anchor="middle" x="891.79" y="-442" font-family="Helvetica,sans-Serif" font-size="10.00">ICollection</text>
<polyline fill="none" stroke="#bfbfbf" points="857.79,-435 925.79,-435 "/>
<text text-anchor="middle" x="891.79" y="-423" font-family="Helvetica,sans-Serif" font-size="10.00"> </text>
<polyline fill="none" stroke="#bfbfbf" points="857.79,-416 925.79,-416 "/>
<text text-anchor="middle" x="891.79" y="-404" font-family="Helvetica,sans-Serif" font-size="10.00"> </text>
</a>
</g>
</g>
<!-- Node11&#45;&gt;Node1 -->
<g id="edge13" class="edge">
<title>Node11&#45;&gt;Node1</title>
<path fill="none" stroke="midnightblue" d="M891.79,-386.6C891.79,-377.07 891.79,-366.2 891.79,-354.55"/>
<polygon fill="none" stroke="midnightblue" points="888.29,-386.76 891.79,-396.76 895.29,-386.76 888.29,-386.76"/>
</g>
<!-- Node12 -->
<g id="node12" class="node">
<title>Node12</title>
<g id="a_node12"><a xlink:title=" ">
<polygon fill="none" stroke="#bfbfbf" points="943.79,-397 943.79,-454 1021.79,-454 1021.79,-397 943.79,-397"/>
<text text-anchor="middle" x="982.79" y="-442" font-family="Helvetica,sans-Serif" font-size="10.00">IEnumerable</text>
<polyline fill="none" stroke="#bfbfbf" points="943.79,-435 1021.79,-435 "/>
<text text-anchor="middle" x="982.79" y="-423" font-family="Helvetica,sans-Serif" font-size="10.00"> </text>
<polyline fill="none" stroke="#bfbfbf" points="943.79,-416 1021.79,-416 "/>
<text text-anchor="middle" x="982.79" y="-404" font-family="Helvetica,sans-Serif" font-size="10.00"> </text>
</a>
</g>
</g>
<!-- Node12&#45;&gt;Node1 -->
<g id="edge14" class="edge">
<title>Node12&#45;&gt;Node1</title>
<path fill="none" stroke="midnightblue" d="M968.99,-387.21C965.41,-377.54 961.31,-366.45 956.91,-354.55"/>
<polygon fill="none" stroke="midnightblue" points="965.77,-388.59 972.53,-396.76 972.34,-386.17 965.77,-388.59"/>
</g>
<!-- Node13 -->
<g id="node13" class="node">
<title>Node13</title>
<g id="a_node13"><a xlink:title=" ">
<polygon fill="none" stroke="#bfbfbf" points="1040.29,-397 1040.29,-454 1165.29,-454 1165.29,-397 1040.29,-397"/>
<text text-anchor="middle" x="1102.79" y="-442" font-family="Helvetica,sans-Serif" font-size="10.00">IList&lt; AudioSession &gt;</text>
<polyline fill="none" stroke="#bfbfbf" points="1040.29,-435 1165.29,-435 "/>
<text text-anchor="middle" x="1102.79" y="-423" font-family="Helvetica,sans-Serif" font-size="10.00"> </text>
<polyline fill="none" stroke="#bfbfbf" points="1040.29,-416 1165.29,-416 "/>
<text text-anchor="middle" x="1102.79" y="-404" font-family="Helvetica,sans-Serif" font-size="10.00"> </text>
</a>
</g>
</g>
<!-- Node13&#45;&gt;Node1 -->
<g id="edge15" class="edge">
<title>Node13&#45;&gt;Node1</title>
<path fill="none" stroke="midnightblue" d="M1072.4,-389.07C1049.09,-361.89 1015.62,-322.87 983.81,-285.78"/>
<polygon fill="none" stroke="midnightblue" points="1069.83,-391.45 1078.99,-396.76 1075.14,-386.89 1069.83,-391.45"/>
</g>
<!-- Node14 -->
<g id="node14" class="node">
<title>Node14</title>
<g id="a_node14"><a xlink:title=" ">
<polygon fill="none" stroke="#bfbfbf" points="1183.79,-397 1183.79,-454 1361.79,-454 1361.79,-397 1183.79,-397"/>
<text text-anchor="middle" x="1272.79" y="-442" font-family="Helvetica,sans-Serif" font-size="10.00">IImmutableList&lt; AudioSession &gt;</text>
<polyline fill="none" stroke="#bfbfbf" points="1183.79,-435 1361.79,-435 "/>
<text text-anchor="middle" x="1272.79" y="-423" font-family="Helvetica,sans-Serif" font-size="10.00"> </text>
<polyline fill="none" stroke="#bfbfbf" points="1183.79,-416 1361.79,-416 "/>
<text text-anchor="middle" x="1272.79" y="-404" font-family="Helvetica,sans-Serif" font-size="10.00"> </text>
</a>
</g>
</g>
<!-- Node14&#45;&gt;Node1 -->
<g id="edge16" class="edge">
<title>Node14&#45;&gt;Node1</title>
<path fill="none" stroke="midnightblue" d="M1221.54,-391.41C1160.84,-352.22 1058.55,-286.17 983.96,-238.01"/>
<polygon fill="none" stroke="midnightblue" points="1219.89,-394.51 1230.19,-397 1223.69,-388.63 1219.89,-394.51"/>
</g>
<!-- Node15 -->
<g id="node15" class="node">
<title>Node15</title>
<g id="a_node15"><a xlink:title=" ">
<polygon fill="none" stroke="#bfbfbf" points="1379.79,-397 1379.79,-454 1535.79,-454 1535.79,-397 1379.79,-397"/>
<text text-anchor="middle" x="1457.79" y="-442" font-family="Helvetica,sans-Serif" font-size="10.00">ICollection&lt; AudioSession &gt;</text>
<polyline fill="none" stroke="#bfbfbf" points="1379.79,-435 1535.79,-435 "/>
<text text-anchor="middle" x="1457.79" y="-423" font-family="Helvetica,sans-Serif" font-size="10.00"> </text>
<polyline fill="none" stroke="#bfbfbf" points="1379.79,-416 1535.79,-416 "/>
<text text-anchor="middle" x="1457.79" y="-404" font-family="Helvetica,sans-Serif" font-size="10.00"> </text>
</a>
</g>
</g>
<!-- Node15&#45;&gt;Node1 -->
<g id="edge17" class="edge">
<title>Node15&#45;&gt;Node1</title>
<path fill="none" stroke="midnightblue" d="M1385.17,-392.94C1282.82,-348.46 1096.14,-267.32 984.08,-218.61"/>
<polygon fill="none" stroke="midnightblue" points="1383.94,-396.22 1394.51,-397 1386.73,-389.8 1383.94,-396.22"/>
</g>
<!-- Node16 -->
<g id="node16" class="node">
<title>Node16</title>
<g id="a_node16"><a xlink:title=" ">
<polygon fill="none" stroke="#bfbfbf" points="1553.79,-397 1553.79,-454 1719.79,-454 1719.79,-397 1553.79,-397"/>
<text text-anchor="middle" x="1636.79" y="-442" font-family="Helvetica,sans-Serif" font-size="10.00">IEnumerable&lt; AudioSession &gt;</text>
<polyline fill="none" stroke="#bfbfbf" points="1553.79,-435 1719.79,-435 "/>
<text text-anchor="middle" x="1636.79" y="-423" font-family="Helvetica,sans-Serif" font-size="10.00"> </text>
<polyline fill="none" stroke="#bfbfbf" points="1553.79,-416 1719.79,-416 "/>
<text text-anchor="middle" x="1636.79" y="-404" font-family="Helvetica,sans-Serif" font-size="10.00"> </text>
</a>
</g>
</g>
<!-- Node16&#45;&gt;Node1 -->
<g id="edge18" class="edge">
<title>Node16&#45;&gt;Node1</title>
<path fill="none" stroke="midnightblue" d="M1552.04,-393.52C1549.6,-392.67 1547.18,-391.82 1544.79,-391 1345.85,-322.43 1110.83,-247.4 984.04,-207.41"/>
<polygon fill="none" stroke="midnightblue" points="1550.96,-396.85 1561.55,-396.86 1553.28,-390.24 1550.96,-396.85"/>
</g>
<!-- Node17 -->
<g id="node17" class="node">
<title>Node17</title>
<g id="a_node17"><a xlink:title=" ">
<polygon fill="none" stroke="#bfbfbf" points="1737.79,-397 1737.79,-454 1909.79,-454 1909.79,-397 1737.79,-397"/>
<text text-anchor="middle" x="1823.79" y="-442" font-family="Helvetica,sans-Serif" font-size="10.00">IReadOnlyList&lt; AudioSession &gt;</text>
<polyline fill="none" stroke="#bfbfbf" points="1737.79,-435 1909.79,-435 "/>
<text text-anchor="middle" x="1823.79" y="-423" font-family="Helvetica,sans-Serif" font-size="10.00"> </text>
<polyline fill="none" stroke="#bfbfbf" points="1737.79,-416 1909.79,-416 "/>
<text text-anchor="middle" x="1823.79" y="-404" font-family="Helvetica,sans-Serif" font-size="10.00"> </text>
</a>
</g>
</g>
<!-- Node17&#45;&gt;Node1 -->
<g id="edge19" class="edge">
<title>Node17&#45;&gt;Node1</title>
<path fill="none" stroke="midnightblue" d="M1737.78,-393.79C1734.75,-392.83 1731.75,-391.9 1728.79,-391 1460.98,-309.97 1138.82,-234.15 983.88,-199.01"/>
<polygon fill="none" stroke="midnightblue" points="1736.91,-397.18 1747.51,-396.93 1739.06,-390.52 1736.91,-397.18"/>
</g>
<!-- Node18 -->
<g id="node18" class="node">
<title>Node18</title>
<g id="a_node18"><a xlink:title=" ">
<polygon fill="none" stroke="#bfbfbf" points="1927.79,-391.5 1927.79,-459.5 2043.79,-459.5 2043.79,-391.5 1927.79,-391.5"/>
<text text-anchor="start" x="1935.79" y="-447.5" font-family="Helvetica,sans-Serif" font-size="10.00">IReadOnlyCollection</text>
<text text-anchor="middle" x="1985.79" y="-436.5" font-family="Helvetica,sans-Serif" font-size="10.00">&lt; AudioSession &gt;</text>
<polyline fill="none" stroke="#bfbfbf" points="1927.79,-429.5 2043.79,-429.5 "/>
<text text-anchor="middle" x="1985.79" y="-417.5" font-family="Helvetica,sans-Serif" font-size="10.00"> </text>
<polyline fill="none" stroke="#bfbfbf" points="1927.79,-410.5 2043.79,-410.5 "/>
<text text-anchor="middle" x="1985.79" y="-398.5" font-family="Helvetica,sans-Serif" font-size="10.00"> </text>
</a>
</g>
</g>
<!-- Node18&#45;&gt;Node1 -->
<g id="edge20" class="edge">
<title>Node18&#45;&gt;Node1</title>
<path fill="none" stroke="midnightblue" d="M1918.14,-391.04C1576.89,-273.95 1164.58,-212.53 983.9,-189.4"/>
<polygon fill="none" stroke="midnightblue" points="1917.11,-394.39 1927.71,-394.35 1919.4,-387.78 1917.11,-394.39"/>
</g>
<!-- Node19 -->
<g id="node19" class="node">
<title>Node19</title>
<g id="a_node19"><a xlink:title=" ">
<polygon fill="none" stroke="#bfbfbf" points="2061.79,-397 2061.79,-454 2201.79,-454 2201.79,-397 2061.79,-397"/>
<text text-anchor="middle" x="2131.79" y="-442" font-family="Helvetica,sans-Serif" font-size="10.00">INotifyCollectionChanged</text>
<polyline fill="none" stroke="#bfbfbf" points="2061.79,-435 2201.79,-435 "/>
<text text-anchor="middle" x="2131.79" y="-423" font-family="Helvetica,sans-Serif" font-size="10.00"> </text>
<polyline fill="none" stroke="#bfbfbf" points="2061.79,-416 2201.79,-416 "/>
<text text-anchor="middle" x="2131.79" y="-404" font-family="Helvetica,sans-Serif" font-size="10.00"> </text>
</a>
</g>
</g>
<!-- Node19&#45;&gt;Node1 -->
<g id="edge21" class="edge">
<title>Node19&#45;&gt;Node1</title>
<path fill="none" stroke="midnightblue" d="M2060.62,-393.49C2057.99,-392.61 2055.37,-391.77 2052.79,-391 1664.37,-274.65 1182.77,-211.21 984.09,-188.4"/>
<polygon fill="none" stroke="midnightblue" points="2059.57,-396.83 2070.16,-396.85 2061.89,-390.23 2059.57,-396.83"/>
</g>
</g>
</svg>
        <g id="navigator" transform="translate(0 0)" fill="#404254">
                <rect fill="#f2f5e9" fill-opacity="0.5" stroke="#606060" stroke-width=".5" x="0" y="0" width="60" height="60"/>
                <use id="zoomplus" xlink:href="#zoomPlus" x="17" y="9" onmousedown="handleZoom(evt,'in')"/>
                <use id="zoomminus" xlink:href="#zoomMin" x="42" y="9" onmousedown="handleZoom(evt,'out')"/>
                <use id="reset" xlink:href="#resetDef" x="30" y="36" onmousedown="handleReset()"/>
                <g id="arrowUp" xlink:href="#dirArrow" transform="translate(30 24)" onmousedown="handlePan(0,-1)">
                  <use xlink:href="#rim" fill="#404040">
                        <set attributeName="fill" to="#808080" begin="arrowUp.mouseover" end="arrowUp.mouseout"/>
                  </use>
                  <path fill="none" stroke="white" stroke-width="1.5" d="M0,-3.0v7 M-2.5,-0.5L0,-3.0L2.5,-0.5"/>
                </g>
                <g id="arrowRight" xlink:href="#dirArrow" transform="rotate(90) translate(36 -43)" onmousedown="handlePan(1,0)">
                  <use xlink:href="#rim" fill="#404040">
                        <set attributeName="fill" to="#808080" begin="arrowRight.mouseover" end="arrowRight.mouseout"/>
                  </use>
                  <path fill="none" stroke="white" stroke-width="1.5" d="M0,-3.0v7 M-2.5,-0.5L0,-3.0L2.5,-0.5"/>
                </g>
                <g id="arrowDown" xlink:href="#dirArrow" transform="rotate(180) translate(-30 -48)" onmousedown="handlePan(0,1)">
                  <use xlink:href="#rim" fill="#404040">
                        <set attributeName="fill" to="#808080" begin="arrowDown.mouseover" end="arrowDown.mouseout"/>
                  </use>
                  <path fill="none" stroke="white" stroke-width="1.5" d="M0,-3.0v7 M-2.5,-0.5L0,-3.0L2.5,-0.5"/>
                </g>
                <g id="arrowLeft" xlink:href="#dirArrow" transform="rotate(270) translate(-36 17)" onmousedown="handlePan(-1,0)">
                  <use xlink:href="#rim" fill="#404040">
                        <set attributeName="fill" to="#808080" begin="arrowLeft.mouseover" end="arrowLeft.mouseout"/>
                  </use>
                  <path fill="none" stroke="white" stroke-width="1.5" d="M0,-3.0v7 M-2.5,-0.5L0,-3.0L2.5,-0.5"/>
                </g>
        </g>
        <svg viewBox="0 0 15 15" width="100%" height="30px" preserveAspectRatio="xMaxYMin meet">
         <g id="arrow_out" transform="scale(0.3 0.3)">
          <a xlink:href="class_volume_control_1_1_audio_1_1_audio_device__coll__graph_org.svg" target="_base">
           <rect id="button" ry="5" rx="5" y="6" x="6" height="38" width="38"
                fill="#f2f5e9" fill-opacity="0.5" stroke="#606060" stroke-width="1.0"/>
           <path id="arrow"
             d="M 11.500037,31.436501 C 11.940474,20.09759 22.043105,11.32322 32.158766,21.979434 L 37.068811,17.246167 C 37.068811,17.246167 37.088388,32 37.088388,32 L 22.160133,31.978069 C 22.160133,31.978069 26.997745,27.140456 26.997745,27.140456 C 18.528582,18.264221 13.291696,25.230495 11.500037,31.436501 z"
             style="fill:#404040;"/>
          </a>
         </g>
        </svg>
</svg>
