<?xml version="1.0" encoding="UTF-8" standalone="no"?>
<!DOCTYPE svg PUBLIC "-//W3C//DTD SVG 1.1//EN"
 "http://www.w3.org/Graphics/SVG/1.1/DTD/svg11.dtd">
<!-- Generated by graphviz version 2.43.0 (0)
 -->
<!-- Title: VolumeControl.Core.Helpers.VCSettingsContainer Pages: 1 -->
<svg width="296pt" height="292pt"
 viewBox="0.00 0.00 295.50 292.00" xmlns="http://www.w3.org/2000/svg" xmlns:xlink="http://www.w3.org/1999/xlink">
<g id="graph0" class="graph" transform="scale(1 1) rotate(0) translate(4 288)">
<title>VolumeControl.Core.Helpers.VCSettingsContainer</title>
<!-- Node1 -->
<g id="node1" class="node">
<title>Node1</title>
<g id="a_node1"><a xlink:title="Responsible for containing the runtime state settings.">
<polygon fill="#bfbfbf" stroke="black" points="48,-0.5 48,-189.5 237,-189.5 237,-0.5 48,-0.5"/>
<text text-anchor="start" x="56" y="-177.5" font-family="Helvetica,sans-Serif" font-size="10.00">VolumeControl.Core.Helpers.</text>
<text text-anchor="middle" x="142.5" y="-166.5" font-family="Helvetica,sans-Serif" font-size="10.00">VCSettingsContainer</text>
<polyline fill="none" stroke="black" points="48,-159.5 237,-159.5 "/>
<text text-anchor="start" x="56" y="-147.5" font-family="Helvetica,sans-Serif" font-size="10.00">+ ExecutablePath</text>
<text text-anchor="start" x="56" y="-136.5" font-family="Helvetica,sans-Serif" font-size="10.00">+ ShowIcons</text>
<text text-anchor="start" x="56" y="-125.5" font-family="Helvetica,sans-Serif" font-size="10.00">+ AdvancedHotkeyMode</text>
<text text-anchor="start" x="56" y="-114.5" font-family="Helvetica,sans-Serif" font-size="10.00">+ RunAtStartup</text>
<text text-anchor="start" x="56" y="-103.5" font-family="Helvetica,sans-Serif" font-size="10.00">+ StartMinimized</text>
<text text-anchor="start" x="56" y="-92.5" font-family="Helvetica,sans-Serif" font-size="10.00">+ CheckForUpdates</text>
<text text-anchor="start" x="56" y="-81.5" font-family="Helvetica,sans-Serif" font-size="10.00">+ NotificationEnabled</text>
<text text-anchor="start" x="56" y="-70.5" font-family="Helvetica,sans-Serif" font-size="10.00">+ NotificationTimeout</text>
<text text-anchor="start" x="56" y="-59.5" font-family="Helvetica,sans-Serif" font-size="10.00">+ NotificationMode</text>
<text text-anchor="start" x="56" y="-48.5" font-family="Helvetica,sans-Serif" font-size="10.00">+ NotificationShowsVolumeChange</text>
<polyline fill="none" stroke="black" points="48,-41.5 237,-41.5 "/>
<text text-anchor="start" x="56" y="-29.5" font-family="Helvetica,sans-Serif" font-size="10.00">+ VCSettingsContainer()</text>
<text text-anchor="start" x="56" y="-18.5" font-family="Helvetica,sans-Serif" font-size="10.00"># NotifyPropertyChanged()</text>
<text text-anchor="start" x="56" y="-7.5" font-family="Helvetica,sans-Serif" font-size="10.00"># NotifyPropertyChanging()</text>
</a>
</g>
</g>
<!-- Node2 -->
<g id="node2" class="node">
<title>Node2</title>
<g id="a_node2"><a xlink:title=" ">
<polygon fill="none" stroke="#bfbfbf" points="0,-226.5 0,-283.5 133,-283.5 133,-226.5 0,-226.5"/>
<text text-anchor="middle" x="66.5" y="-271.5" font-family="Helvetica,sans-Serif" font-size="10.00">INotifyPropertyChanged</text>
<polyline fill="none" stroke="#bfbfbf" points="0,-264.5 133,-264.5 "/>
<text text-anchor="middle" x="66.5" y="-252.5" font-family="Helvetica,sans-Serif" font-size="10.00"> </text>
<polyline fill="none" stroke="#bfbfbf" points="0,-245.5 133,-245.5 "/>
<text text-anchor="middle" x="66.5" y="-233.5" font-family="Helvetica,sans-Serif" font-size="10.00"> </text>
</a>
</g>
</g>
<!-- Node2&#45;&gt;Node1 -->
<g id="edge1" class="edge">
<title>Node2&#45;&gt;Node1</title>
<path fill="none" stroke="midnightblue" d="M84.15,-217.32C88.23,-208.82 92.76,-199.4 97.44,-189.68"/>
<polygon fill="none" stroke="midnightblue" points="80.92,-215.95 79.74,-226.48 87.23,-218.98 80.92,-215.95"/>
</g>
<!-- Node3 -->
<g id="node3" class="node">
<title>Node3</title>
<g id="a_node3"><a xlink:title=" ">
<polygon fill="none" stroke="#bfbfbf" points="151.5,-226.5 151.5,-283.5 287.5,-283.5 287.5,-226.5 151.5,-226.5"/>
<text text-anchor="middle" x="219.5" y="-271.5" font-family="Helvetica,sans-Serif" font-size="10.00">INotifyPropertyChanging</text>
<polyline fill="none" stroke="#bfbfbf" points="151.5,-264.5 287.5,-264.5 "/>
<text text-anchor="middle" x="219.5" y="-252.5" font-family="Helvetica,sans-Serif" font-size="10.00"> </text>
<polyline fill="none" stroke="#bfbfbf" points="151.5,-245.5 287.5,-245.5 "/>
<text text-anchor="middle" x="219.5" y="-233.5" font-family="Helvetica,sans-Serif" font-size="10.00"> </text>
</a>
</g>
</g>
<!-- Node3&#45;&gt;Node1 -->
<g id="edge2" class="edge">
<title>Node3&#45;&gt;Node1</title>
<path fill="none" stroke="midnightblue" d="M201.62,-217.32C197.48,-208.82 192.89,-199.4 188.15,-189.68"/>
<polygon fill="none" stroke="midnightblue" points="198.56,-219.02 206.09,-226.48 204.85,-215.96 198.56,-219.02"/>
</g>
</g>
</svg>
