<?xml version="1.0" encoding="UTF-8" standalone="no"?>
<!DOCTYPE svg PUBLIC "-//W3C//DTD SVG 1.1//EN"
 "http://www.w3.org/Graphics/SVG/1.1/DTD/svg11.dtd">
<!-- Generated by graphviz version 2.44.1 (20200629.0800)
 -->
<!-- Title: VolumeControl.Audio.AudioDevice Pages: 1 -->
<svg width="259pt" height="441pt"
 viewBox="0.00 0.00 259.00 441.00" xmlns="http://www.w3.org/2000/svg" xmlns:xlink="http://www.w3.org/1999/xlink">
<g id="graph0" class="graph" transform="scale(1 1) rotate(0) translate(4 437)">
<title>VolumeControl.Audio.AudioDevice</title>
<!-- Node1 -->
<g id="node1" class="node">
<title>Node1</title>
<g id="a_node1"><a xlink:title="Represents an audio device endpoint.">
<polygon fill="#bfbfbf" stroke="black" points="36.5,-0.5 36.5,-200.5 172.5,-200.5 172.5,-0.5 36.5,-0.5"/>
<text text-anchor="start" x="44.5" y="-188.5" font-family="Helvetica,sans-Serif" font-size="10.00">VolumeControl.Audio.Audio</text>
<text text-anchor="middle" x="104.5" y="-177.5" font-family="Helvetica,sans-Serif" font-size="10.00">Device</text>
<polyline fill="none" stroke="black" points="36.5,-170.5 172.5,-170.5 "/>
<text text-anchor="start" x="44.5" y="-158.5" font-family="Helvetica,sans-Serif" font-size="10.00">+ Name</text>
<text text-anchor="start" x="44.5" y="-147.5" font-family="Helvetica,sans-Serif" font-size="10.00">+ DeviceID</text>
<text text-anchor="start" x="44.5" y="-136.5" font-family="Helvetica,sans-Serif" font-size="10.00">+ InstanceID</text>
<text text-anchor="start" x="44.5" y="-125.5" font-family="Helvetica,sans-Serif" font-size="10.00">+ IconPath</text>
<text text-anchor="start" x="44.5" y="-114.5" font-family="Helvetica,sans-Serif" font-size="10.00">+ SmallIcon</text>
<text text-anchor="start" x="44.5" y="-103.5" font-family="Helvetica,sans-Serif" font-size="10.00">+ LargeIcon</text>
<text text-anchor="start" x="44.5" y="-92.5" font-family="Helvetica,sans-Serif" font-size="10.00">+ Icon</text>
<text text-anchor="start" x="44.5" y="-81.5" font-family="Helvetica,sans-Serif" font-size="10.00">+ DeviceFriendlyName</text>
<text text-anchor="start" x="44.5" y="-70.5" font-family="Helvetica,sans-Serif" font-size="10.00">+ FriendlyName</text>
<text text-anchor="start" x="44.5" y="-59.5" font-family="Helvetica,sans-Serif" font-size="10.00">+ Properties</text>
<text text-anchor="start" x="44.5" y="-48.5" font-family="Helvetica,sans-Serif" font-size="10.00">and 6 more...</text>
<polyline fill="none" stroke="black" points="36.5,-41.5 172.5,-41.5 "/>
<text text-anchor="start" x="44.5" y="-29.5" font-family="Helvetica,sans-Serif" font-size="10.00">+ AudioDevice()</text>
<text text-anchor="start" x="44.5" y="-18.5" font-family="Helvetica,sans-Serif" font-size="10.00">+ GetAudioSessions()</text>
<text text-anchor="start" x="44.5" y="-7.5" font-family="Helvetica,sans-Serif" font-size="10.00">+ Dispose()</text>
</a>
</g>
</g>
<!-- Node2 -->
<g id="node2" class="node">
<title>Node2</title>
<g id="a_node2"><a xlink:href="interface_volume_control_1_1_audio_1_1_interfaces_1_1_i_device.html" target="_top" xlink:title="Represents an audio device.">
<polygon fill="none" stroke="black" points="43,-237.5 43,-338.5 166,-338.5 166,-237.5 43,-237.5"/>
<text text-anchor="middle" x="104.5" y="-326.5" font-family="Helvetica,sans-Serif" font-size="10.00">IDevice</text>
<polyline fill="none" stroke="black" points="43,-319.5 166,-319.5 "/>
<text text-anchor="start" x="51" y="-307.5" font-family="Helvetica,sans-Serif" font-size="10.00">+ Name</text>
<text text-anchor="start" x="51" y="-296.5" font-family="Helvetica,sans-Serif" font-size="10.00">+ DeviceID</text>
<text text-anchor="start" x="51" y="-285.5" font-family="Helvetica,sans-Serif" font-size="10.00">+ NativeEndpointVolume</text>
<text text-anchor="start" x="51" y="-274.5" font-family="Helvetica,sans-Serif" font-size="10.00">+ EndpointVolume</text>
<text text-anchor="start" x="51" y="-263.5" font-family="Helvetica,sans-Serif" font-size="10.00">+ EndpointMuted</text>
<polyline fill="none" stroke="black" points="43,-256.5 166,-256.5 "/>
<text text-anchor="middle" x="104.5" y="-244.5" font-family="Helvetica,sans-Serif" font-size="10.00"> </text>
</a>
</g>
</g>
<!-- Node2&#45;&gt;Node1 -->
<g id="edge1" class="edge">
<title>Node2&#45;&gt;Node1</title>
<path fill="none" stroke="midnightblue" d="M104.5,-227.17C104.5,-218.68 104.5,-209.77 104.5,-200.78"/>
<polygon fill="none" stroke="midnightblue" points="101,-227.29 104.5,-237.29 108,-227.29 101,-227.29"/>
</g>
<!-- Node3 -->
<g id="node3" class="node">
<title>Node3</title>
<g id="a_node3"><a xlink:title=" ">
<polygon fill="none" stroke="#bfbfbf" points="0,-375.5 0,-432.5 119,-432.5 119,-375.5 0,-375.5"/>
<text text-anchor="middle" x="59.5" y="-420.5" font-family="Helvetica,sans-Serif" font-size="10.00">INotifyPropertyChanged</text>
<polyline fill="none" stroke="#bfbfbf" points="0,-413.5 119,-413.5 "/>
<text text-anchor="middle" x="59.5" y="-401.5" font-family="Helvetica,sans-Serif" font-size="10.00"> </text>
<polyline fill="none" stroke="#bfbfbf" points="0,-394.5 119,-394.5 "/>
<text text-anchor="middle" x="59.5" y="-382.5" font-family="Helvetica,sans-Serif" font-size="10.00"> </text>
</a>
</g>
</g>
<!-- Node3&#45;&gt;Node1 -->
<g id="edge3" class="edge">
<title>Node3&#45;&gt;Node1</title>
<path fill="none" stroke="midnightblue" d="M41.64,-365.94C38.27,-357.29 35.25,-347.98 33.5,-339 24.81,-294.51 22.67,-281.02 33.5,-237 36.48,-224.88 40.76,-212.64 45.77,-200.74"/>
<polygon fill="none" stroke="midnightblue" points="38.49,-367.47 45.55,-375.37 44.96,-364.79 38.49,-367.47"/>
</g>
<!-- Node3&#45;&gt;Node2 -->
<g id="edge2" class="edge">
<title>Node3&#45;&gt;Node2</title>
<path fill="none" stroke="midnightblue" d="M74.14,-365.92C77.58,-357.2 81.3,-347.78 84.92,-338.61"/>
<polygon fill="none" stroke="midnightblue" points="70.81,-364.82 70.39,-375.4 77.32,-367.39 70.81,-364.82"/>
</g>
<!-- Node4 -->
<g id="node4" class="node">
<title>Node4</title>
<g id="a_node4"><a xlink:title=" ">
<polygon fill="none" stroke="#bfbfbf" points="184,-259.5 184,-316.5 251,-316.5 251,-259.5 184,-259.5"/>
<text text-anchor="middle" x="217.5" y="-304.5" font-family="Helvetica,sans-Serif" font-size="10.00">IDisposable</text>
<polyline fill="none" stroke="#bfbfbf" points="184,-297.5 251,-297.5 "/>
<text text-anchor="middle" x="217.5" y="-285.5" font-family="Helvetica,sans-Serif" font-size="10.00"> </text>
<polyline fill="none" stroke="#bfbfbf" points="184,-278.5 251,-278.5 "/>
<text text-anchor="middle" x="217.5" y="-266.5" font-family="Helvetica,sans-Serif" font-size="10.00"> </text>
</a>
</g>
</g>
<!-- Node4&#45;&gt;Node1 -->
<g id="edge4" class="edge">
<title>Node4&#45;&gt;Node1</title>
<path fill="none" stroke="midnightblue" d="M195.3,-250.56C186.42,-235.98 175.72,-218.42 164.83,-200.54"/>
<polygon fill="none" stroke="midnightblue" points="192.39,-252.51 200.58,-259.23 198.37,-248.87 192.39,-252.51"/>
</g>
</g>
</svg>
