<?xml version="1.0" encoding="UTF-8" standalone="no"?>
<!DOCTYPE svg PUBLIC "-//W3C//DTD SVG 1.1//EN"
 "http://www.w3.org/Graphics/SVG/1.1/DTD/svg11.dtd">
<!-- Generated by graphviz version 2.44.1 (20200629.0800)
 -->
<!-- Title: VolumeControl.Audio.AudioSession.AudioSession Pages: 1 -->
<svg width="499pt" height="127pt"
 viewBox="0.00 0.00 499.00 127.00" xmlns="http://www.w3.org/2000/svg" xmlns:xlink="http://www.w3.org/1999/xlink">
<g id="graph0" class="graph" transform="scale(1 1) rotate(0) translate(4 123)">
<title>VolumeControl.Audio.AudioSession.AudioSession</title>
<!-- Node1 -->
<g id="node1" class="node">
<title>Node1</title>
<g id="a_node1"><a xlink:title=" ">
<polygon fill="#bfbfbf" stroke="black" points="0,-44.5 0,-74.5 136,-74.5 136,-44.5 0,-44.5"/>
<text text-anchor="start" x="8" y="-62.5" font-family="Helvetica,sans-Serif" font-size="10.00">VolumeControl.Audio.Audio</text>
<text text-anchor="middle" x="68" y="-51.5" font-family="Helvetica,sans-Serif" font-size="10.00">Session.AudioSession</text>
</a>
</g>
</g>
<!-- Node2 -->
<g id="node2" class="node">
<title>Node2</title>
<g id="a_node2"><a xlink:href="class_volume_control_1_1_audio_1_1_audio_session.html#a13f918b85f4b1281f9e5ecb5fb7d5583" target="_top" xlink:title=" ">
<polygon fill="none" stroke="black" points="172,-88.5 172,-118.5 308,-118.5 308,-88.5 172,-88.5"/>
<text text-anchor="start" x="180" y="-106.5" font-family="Helvetica,sans-Serif" font-size="10.00">VolumeControl.Audio.Audio</text>
<text text-anchor="middle" x="240" y="-95.5" font-family="Helvetica,sans-Serif" font-size="10.00">Session.Dispose</text>
</a>
</g>
</g>
<!-- Node1&#45;&gt;Node2 -->
<g id="edge1" class="edge">
<title>Node1&#45;&gt;Node2</title>
<path fill="none" stroke="midnightblue" d="M127.03,-74.52C141.17,-78.18 156.43,-82.13 170.99,-85.9"/>
<polygon fill="midnightblue" stroke="midnightblue" points="170.39,-89.36 180.94,-88.47 172.14,-82.58 170.39,-89.36"/>
</g>
<!-- Node3 -->
<g id="node3" class="node">
<title>Node3</title>
<g id="a_node3"><a xlink:href="class_volume_control_1_1_log_1_1_log_writer.html#ae7780f22869e53ce4a1aad3fc6fa0bf7" target="_top" xlink:title="Write a formatted EventType.ERROR message to the log endpoint.">
<polygon fill="none" stroke="black" points="344,-22.5 344,-52.5 491,-52.5 491,-22.5 344,-22.5"/>
<text text-anchor="start" x="352" y="-40.5" font-family="Helvetica,sans-Serif" font-size="10.00">VolumeControl.Log.LogWriter.</text>
<text text-anchor="middle" x="417.5" y="-29.5" font-family="Helvetica,sans-Serif" font-size="10.00">Error</text>
</a>
</g>
</g>
<!-- Node1&#45;&gt;Node3 -->
<g id="edge2" class="edge">
<title>Node1&#45;&gt;Node3</title>
<path fill="none" stroke="midnightblue" d="M136,-55.26C192.31,-51.69 273.03,-46.58 333.43,-42.76"/>
<polygon fill="midnightblue" stroke="midnightblue" points="333.95,-46.23 343.71,-42.11 333.5,-39.25 333.95,-46.23"/>
</g>
<!-- Node4 -->
<g id="node4" class="node">
<title>Node4</title>
<g id="a_node4"><a xlink:href="class_volume_control_1_1_audio_1_1_audio_session.html#a59a3626b8a1cde96c65a68b65d5182da" target="_top" xlink:title="Gets the process associated with this audio session instance.">
<polygon fill="none" stroke="black" points="172,-0.5 172,-30.5 308,-30.5 308,-0.5 172,-0.5"/>
<text text-anchor="start" x="180" y="-18.5" font-family="Helvetica,sans-Serif" font-size="10.00">VolumeControl.Audio.Audio</text>
<text text-anchor="middle" x="240" y="-7.5" font-family="Helvetica,sans-Serif" font-size="10.00">Session.GetProcess</text>
</a>
</g>
</g>
<!-- Node1&#45;&gt;Node4 -->
<g id="edge3" class="edge">
<title>Node1&#45;&gt;Node4</title>
<path fill="none" stroke="midnightblue" d="M127.03,-44.48C141.17,-40.82 156.43,-36.87 170.99,-33.1"/>
<polygon fill="midnightblue" stroke="midnightblue" points="172.14,-36.42 180.94,-30.53 170.39,-29.64 172.14,-36.42"/>
</g>
<!-- Node4&#45;&gt;Node3 -->
<g id="edge4" class="edge">
<title>Node4&#45;&gt;Node3</title>
<path fill="none" stroke="midnightblue" d="M308.1,-23.91C316.52,-24.97 325.2,-26.06 333.82,-27.14"/>
<polygon fill="midnightblue" stroke="midnightblue" points="333.53,-30.63 343.89,-28.4 334.4,-23.68 333.53,-30.63"/>
</g>
</g>
</svg>
