<?xml version="1.0" encoding="UTF-8" standalone="no"?>
<!DOCTYPE svg PUBLIC "-//W3C//DTD SVG 1.1//EN"
 "http://www.w3.org/Graphics/SVG/1.1/DTD/svg11.dtd">
<!-- Generated by graphviz version 2.43.0 (0)
 -->
<!-- Title: VolumeControl.WPF.CustomMessageBox.CustomMessageBoxButton Pages: 1 -->
<!--zoomable 512 -->
<svg id="main" version="1.1" xmlns="http://www.w3.org/2000/svg" xmlns:xlink="http://www.w3.org/1999/xlink" xml:space="preserve" onload="init(evt)">
<style type="text/css"><![CDATA[
.edge:hover path { stroke: red; }
.edge:hover polygon { stroke: red; fill: red; }
]]></style>
<script type="text/javascript"><![CDATA[
var edges = document.getElementsByTagName('g');
if (edges && edges.length) {
  for (var i=0;i<edges.length;i++) {
    if (edges[i].id.substr(0,4)=='edge') {
      edges[i].setAttribute('class','edge');
    }
  }
}
]]></script>
        <defs>
                <circle id="rim" cx="0" cy="0" r="7"/>
                <circle id="rim2" cx="0" cy="0" r="3.5"/>
                <g id="zoomPlus">
                        <use xlink:href="#rim" fill="#404040">
                                <set attributeName="fill" to="#808080" begin="zoomplus.mouseover" end="zoomplus.mouseout"/>
                        </use>
                        <path d="M-4,0h8M0,-4v8" fill="none" stroke="white" stroke-width="1.5" pointer-events="none"/>
                </g>
                <g id="zoomMin">
                        <use xlink:href="#rim" fill="#404040">
                                <set attributeName="fill" to="#808080" begin="zoomminus.mouseover" end="zoomminus.mouseout"/>
                        </use>
                        <path d="M-4,0h8" fill="none" stroke="white" stroke-width="1.5" pointer-events="none"/>
                </g>
                <g id="dirArrow">
                        <path fill="none" stroke="white" stroke-width="1.5" d="M0,-3.0v7 M-2.5,-0.5L0,-3.0L2.5,-0.5"/>
                </g>
               <g id="resetDef">
                       <use xlink:href="#rim2" fill="#404040">
                               <set attributeName="fill" to="#808080" begin="reset.mouseover" end="reset.mouseout"/>
                       </use>
               </g>
        </defs>

<script type="text/javascript">
var viewWidth = 639;
var viewHeight = 512;
var sectionId = 'dynsection-0';
</script>
<script xlink:href="svgpan.js"/>
<svg id="graph" class="graph">
<g id="viewport">
<title>VolumeControl.WPF.CustomMessageBox.CustomMessageBoxButton</title>
<!-- Node1 -->
<g id="node1" class="node">
<title>Node1</title>
<g id="a_node1"><a xlink:title="A button for use in a CustomMessageBox.">
<polygon fill="#bfbfbf" stroke="black" points="198.5,-0.5 198.5,-398.5 412.5,-398.5 412.5,-0.5 198.5,-0.5"/>
<text text-anchor="start" x="206.5" y="-386.5" font-family="Helvetica,sans-Serif" font-size="10.00">VolumeControl.WPF.Custom</text>
<text text-anchor="middle" x="305.5" y="-375.5" font-family="Helvetica,sans-Serif" font-size="10.00">MessageBox.CustomMessageBoxButton</text>
<polyline fill="none" stroke="black" points="198.5,-368.5 412.5,-368.5 "/>
<text text-anchor="start" x="206.5" y="-356.5" font-family="Helvetica,sans-Serif" font-size="10.00">+ Name</text>
<text text-anchor="start" x="206.5" y="-345.5" font-family="Helvetica,sans-Serif" font-size="10.00">+ Content</text>
<polyline fill="none" stroke="black" points="198.5,-338.5 412.5,-338.5 "/>
<text text-anchor="start" x="206.5" y="-326.5" font-family="Helvetica,sans-Serif" font-size="10.00">+ CustomMessageBoxButton()</text>
<text text-anchor="start" x="206.5" y="-315.5" font-family="Helvetica,sans-Serif" font-size="10.00">+ CustomMessageBoxButton()</text>
<text text-anchor="start" x="206.5" y="-304.5" font-family="Helvetica,sans-Serif" font-size="10.00">+ ToString()</text>
<text text-anchor="start" x="206.5" y="-293.5" font-family="Helvetica,sans-Serif" font-size="10.00">+ ToMessageBoxResult()</text>
<text text-anchor="start" x="206.5" y="-282.5" font-family="Helvetica,sans-Serif" font-size="10.00">+ TryGetMessageBoxResult()</text>
<text text-anchor="start" x="206.5" y="-271.5" font-family="Helvetica,sans-Serif" font-size="10.00">+ TryGetMessageBoxResult()</text>
<text text-anchor="start" x="206.5" y="-260.5" font-family="Helvetica,sans-Serif" font-size="10.00">+ Equals()</text>
<text text-anchor="start" x="206.5" y="-249.5" font-family="Helvetica,sans-Serif" font-size="10.00">+ Equals()</text>
<text text-anchor="start" x="206.5" y="-238.5" font-family="Helvetica,sans-Serif" font-size="10.00">+ Equals()</text>
<text text-anchor="start" x="206.5" y="-227.5" font-family="Helvetica,sans-Serif" font-size="10.00">+ Equals()</text>
<text text-anchor="start" x="206.5" y="-216.5" font-family="Helvetica,sans-Serif" font-size="10.00">+ Equals()</text>
<text text-anchor="start" x="206.5" y="-205.5" font-family="Helvetica,sans-Serif" font-size="10.00">+ Equals()</text>
<text text-anchor="start" x="206.5" y="-194.5" font-family="Helvetica,sans-Serif" font-size="10.00">+ Equals()</text>
<text text-anchor="start" x="206.5" y="-183.5" font-family="Helvetica,sans-Serif" font-size="10.00">+ GetHashCode()</text>
<text text-anchor="start" x="206.5" y="-172.5" font-family="Helvetica,sans-Serif" font-size="10.00">+ operator CustomMessageBox</text>
<text text-anchor="start" x="206.5" y="-161.5" font-family="Helvetica,sans-Serif" font-size="10.00">Button()</text>
<text text-anchor="start" x="206.5" y="-150.5" font-family="Helvetica,sans-Serif" font-size="10.00">+ operator CustomMessageBox</text>
<text text-anchor="start" x="206.5" y="-139.5" font-family="Helvetica,sans-Serif" font-size="10.00">Button()</text>
<text text-anchor="start" x="206.5" y="-128.5" font-family="Helvetica,sans-Serif" font-size="10.00">+ operator CustomMessageBox</text>
<text text-anchor="start" x="206.5" y="-117.5" font-family="Helvetica,sans-Serif" font-size="10.00">Button()</text>
<text text-anchor="start" x="206.5" y="-106.5" font-family="Helvetica,sans-Serif" font-size="10.00">+ operator MessageBoxResult()</text>
<text text-anchor="start" x="206.5" y="-95.5" font-family="Helvetica,sans-Serif" font-size="10.00">+ operator string?()</text>
<text text-anchor="start" x="206.5" y="-84.5" font-family="Helvetica,sans-Serif" font-size="10.00">+ operator==()</text>
<text text-anchor="start" x="206.5" y="-73.5" font-family="Helvetica,sans-Serif" font-size="10.00">+ operator!=()</text>
<text text-anchor="start" x="206.5" y="-62.5" font-family="Helvetica,sans-Serif" font-size="10.00">+ operator==()</text>
<text text-anchor="start" x="206.5" y="-51.5" font-family="Helvetica,sans-Serif" font-size="10.00">+ operator!=()</text>
<text text-anchor="start" x="206.5" y="-40.5" font-family="Helvetica,sans-Serif" font-size="10.00">+ operator==()</text>
<text text-anchor="start" x="206.5" y="-29.5" font-family="Helvetica,sans-Serif" font-size="10.00">+ operator!=()</text>
<text text-anchor="start" x="206.5" y="-18.5" font-family="Helvetica,sans-Serif" font-size="10.00">+ operator==()</text>
<text text-anchor="start" x="206.5" y="-7.5" font-family="Helvetica,sans-Serif" font-size="10.00">+ operator!=()</text>
</a>
</g>
</g>
<!-- Node2 -->
<g id="node2" class="node">
<title>Node2</title>
<g id="a_node2"><a xlink:title=" ">
<polygon fill="none" stroke="#bfbfbf" points="0,-435.5 0,-503.5 161,-503.5 161,-435.5 0,-435.5"/>
<text text-anchor="start" x="8" y="-491.5" font-family="Helvetica,sans-Serif" font-size="10.00">IEquatable&lt; CustomMessage</text>
<text text-anchor="middle" x="80.5" y="-480.5" font-family="Helvetica,sans-Serif" font-size="10.00">BoxButton &gt;</text>
<polyline fill="none" stroke="#bfbfbf" points="0,-473.5 161,-473.5 "/>
<text text-anchor="middle" x="80.5" y="-461.5" font-family="Helvetica,sans-Serif" font-size="10.00"> </text>
<polyline fill="none" stroke="#bfbfbf" points="0,-454.5 161,-454.5 "/>
<text text-anchor="middle" x="80.5" y="-442.5" font-family="Helvetica,sans-Serif" font-size="10.00"> </text>
</a>
</g>
</g>
<!-- Node2&#45;&gt;Node1 -->
<g id="edge1" class="edge">
<title>Node2&#45;&gt;Node1</title>
<path fill="none" stroke="midnightblue" d="M115.03,-427.37C137.54,-400.55 168.26,-363.97 198.45,-328.01"/>
<polygon fill="none" stroke="midnightblue" points="112.06,-425.46 108.32,-435.37 117.43,-429.96 112.06,-425.46"/>
</g>
<!-- Node3 -->
<g id="node3" class="node">
<title>Node3</title>
<g id="a_node3"><a xlink:title=" ">
<polygon fill="none" stroke="#bfbfbf" points="179,-441 179,-498 298,-498 298,-441 179,-441"/>
<text text-anchor="middle" x="238.5" y="-486" font-family="Helvetica,sans-Serif" font-size="10.00">IEquatable&lt; string &gt;</text>
<polyline fill="none" stroke="#bfbfbf" points="179,-479 298,-479 "/>
<text text-anchor="middle" x="238.5" y="-467" font-family="Helvetica,sans-Serif" font-size="10.00"> </text>
<polyline fill="none" stroke="#bfbfbf" points="179,-460 298,-460 "/>
<text text-anchor="middle" x="238.5" y="-448" font-family="Helvetica,sans-Serif" font-size="10.00"> </text>
</a>
</g>
</g>
<!-- Node3&#45;&gt;Node1 -->
<g id="edge2" class="edge">
<title>Node3&#45;&gt;Node1</title>
<path fill="none" stroke="midnightblue" d="M247.87,-431.01C250.27,-421.43 253.01,-410.45 255.98,-398.6"/>
<polygon fill="none" stroke="midnightblue" points="244.45,-430.28 245.42,-440.83 251.24,-431.98 244.45,-430.28"/>
</g>
<!-- Node4 -->
<g id="node4" class="node">
<title>Node4</title>
<g id="a_node4"><a xlink:title=" ">
<polygon fill="none" stroke="#bfbfbf" points="316.5,-441 316.5,-498 428.5,-498 428.5,-441 316.5,-441"/>
<text text-anchor="middle" x="372.5" y="-486" font-family="Helvetica,sans-Serif" font-size="10.00">IEquatable&lt; char &gt;</text>
<polyline fill="none" stroke="#bfbfbf" points="316.5,-479 428.5,-479 "/>
<text text-anchor="middle" x="372.5" y="-467" font-family="Helvetica,sans-Serif" font-size="10.00"> </text>
<polyline fill="none" stroke="#bfbfbf" points="316.5,-460 428.5,-460 "/>
<text text-anchor="middle" x="372.5" y="-448" font-family="Helvetica,sans-Serif" font-size="10.00"> </text>
</a>
</g>
</g>
<!-- Node4&#45;&gt;Node1 -->
<g id="edge3" class="edge">
<title>Node4&#45;&gt;Node1</title>
<path fill="none" stroke="midnightblue" d="M363.13,-431.01C360.73,-421.43 357.99,-410.45 355.02,-398.6"/>
<polygon fill="none" stroke="midnightblue" points="359.76,-431.98 365.58,-440.83 366.55,-430.28 359.76,-431.98"/>
</g>
<!-- Node5 -->
<g id="node5" class="node">
<title>Node5</title>
<g id="a_node5"><a xlink:title=" ">
<polygon fill="none" stroke="#bfbfbf" points="446.5,-441 446.5,-498 630.5,-498 630.5,-441 446.5,-441"/>
<text text-anchor="middle" x="538.5" y="-486" font-family="Helvetica,sans-Serif" font-size="10.00">IEquatable&lt; MessageBoxResult &gt;</text>
<polyline fill="none" stroke="#bfbfbf" points="446.5,-479 630.5,-479 "/>
<text text-anchor="middle" x="538.5" y="-467" font-family="Helvetica,sans-Serif" font-size="10.00"> </text>
<polyline fill="none" stroke="#bfbfbf" points="446.5,-460 630.5,-460 "/>
<text text-anchor="middle" x="538.5" y="-448" font-family="Helvetica,sans-Serif" font-size="10.00"> </text>
</a>
</g>
</g>
<!-- Node5&#45;&gt;Node1 -->
<g id="edge4" class="edge">
<title>Node5&#45;&gt;Node1</title>
<path fill="none" stroke="midnightblue" d="M507.84,-433.23C483.32,-405.03 447.41,-363.72 412.61,-323.7"/>
<polygon fill="none" stroke="midnightblue" points="505.24,-435.58 514.44,-440.83 510.52,-430.99 505.24,-435.58"/>
</g>
</g>
</svg>
        <g id="navigator" transform="translate(0 0)" fill="#404254">
                <rect fill="#f2f5e9" fill-opacity="0.5" stroke="#606060" stroke-width=".5" x="0" y="0" width="60" height="60"/>
                <use id="zoomplus" xlink:href="#zoomPlus" x="17" y="9" onmousedown="handleZoom(evt,'in')"/>
                <use id="zoomminus" xlink:href="#zoomMin" x="42" y="9" onmousedown="handleZoom(evt,'out')"/>
                <use id="reset" xlink:href="#resetDef" x="30" y="36" onmousedown="handleReset()"/>
                <g id="arrowUp" xlink:href="#dirArrow" transform="translate(30 24)" onmousedown="handlePan(0,-1)">
                  <use xlink:href="#rim" fill="#404040">
                        <set attributeName="fill" to="#808080" begin="arrowUp.mouseover" end="arrowUp.mouseout"/>
                  </use>
                  <path fill="none" stroke="white" stroke-width="1.5" d="M0,-3.0v7 M-2.5,-0.5L0,-3.0L2.5,-0.5"/>
                </g>
                <g id="arrowRight" xlink:href="#dirArrow" transform="rotate(90) translate(36 -43)" onmousedown="handlePan(1,0)">
                  <use xlink:href="#rim" fill="#404040">
                        <set attributeName="fill" to="#808080" begin="arrowRight.mouseover" end="arrowRight.mouseout"/>
                  </use>
                  <path fill="none" stroke="white" stroke-width="1.5" d="M0,-3.0v7 M-2.5,-0.5L0,-3.0L2.5,-0.5"/>
                </g>
                <g id="arrowDown" xlink:href="#dirArrow" transform="rotate(180) translate(-30 -48)" onmousedown="handlePan(0,1)">
                  <use xlink:href="#rim" fill="#404040">
                        <set attributeName="fill" to="#808080" begin="arrowDown.mouseover" end="arrowDown.mouseout"/>
                  </use>
                  <path fill="none" stroke="white" stroke-width="1.5" d="M0,-3.0v7 M-2.5,-0.5L0,-3.0L2.5,-0.5"/>
                </g>
                <g id="arrowLeft" xlink:href="#dirArrow" transform="rotate(270) translate(-36 17)" onmousedown="handlePan(-1,0)">
                  <use xlink:href="#rim" fill="#404040">
                        <set attributeName="fill" to="#808080" begin="arrowLeft.mouseover" end="arrowLeft.mouseout"/>
                  </use>
                  <path fill="none" stroke="white" stroke-width="1.5" d="M0,-3.0v7 M-2.5,-0.5L0,-3.0L2.5,-0.5"/>
                </g>
        </g>
        <svg viewBox="0 0 15 15" width="100%" height="30px" preserveAspectRatio="xMaxYMin meet">
         <g id="arrow_out" transform="scale(0.3 0.3)">
          <a xlink:href="class_volume_control_1_1_w_p_f_1_1_custom_message_box_1_1_custom_message_box_button__inherit__graph_org.svg" target="_base">
           <rect id="button" ry="5" rx="5" y="6" x="6" height="38" width="38"
                fill="#f2f5e9" fill-opacity="0.5" stroke="#606060" stroke-width="1.0"/>
           <path id="arrow"
             d="M 11.500037,31.436501 C 11.940474,20.09759 22.043105,11.32322 32.158766,21.979434 L 37.068811,17.246167 C 37.068811,17.246167 37.088388,32 37.088388,32 L 22.160133,31.978069 C 22.160133,31.978069 26.997745,27.140456 26.997745,27.140456 C 18.528582,18.264221 13.291696,25.230495 11.500037,31.436501 z"
             style="fill:#404040;"/>
          </a>
         </g>
        </svg>
</svg>
