<?xml version="1.0" encoding="UTF-8" standalone="no"?>
<!DOCTYPE svg PUBLIC "-//W3C//DTD SVG 1.1//EN"
 "http://www.w3.org/Graphics/SVG/1.1/DTD/svg11.dtd">
<!-- Generated by graphviz version 2.43.0 (0)
 -->
<!-- Title: VolumeControl.Log.Endpoints.FileEndpoint Pages: 1 -->
<!--zoomable 604 -->

<svg id="main" version="1.1" xmlns="http://www.w3.org/2000/svg" xmlns:xlink="http://www.w3.org/1999/xlink" xml:space="preserve" onload="init(evt)">
<style type="text/css"><![CDATA[
.node, .edge {opacity: 0.7;}
.node.selected, .edge.selected {opacity: 1;}
.edge:hover path { stroke: red; }
.edge:hover polygon { stroke: red; fill: red; }
]]></style>

<defs>
  <circle id="rim" cx="0" cy="0" r="7"/>
  <circle id="rim2" cx="0" cy="0" r="3.5"/>
  <g id="zoomPlus">
    <use xlink:href="#rim" fill="#404040"><set attributeName="fill" to="#808080" begin="zoomplus.mouseover" end="zoomplus.mouseout"/></use>
    <path d="M-4,0h8M0,-4v8" fill="none" stroke="white" stroke-width="1.5" pointer-events="none"/>
  </g>
  <g id="zoomMin">
    <use xlink:href="#rim" fill="#404040"><set attributeName="fill" to="#808080" begin="zoomminus.mouseover" end="zoomminus.mouseout"/></use>
    <path d="M-4,0h8" fill="none" stroke="white" stroke-width="1.5" pointer-events="none"/>
  </g>
  <g id="arrowUp" transform="translate(30 24)">
    <use xlink:href="#rim"/>
    <path pointer-events="none" fill="none" stroke="white" stroke-width="1.5" d="M0,-3.0v7 M-2.5,-0.5L0,-3.0L2.5,-0.5"/>
  </g>
  <g id="arrowRight" transform="rotate(90) translate(36 -43)">
    <use xlink:href="#rim"/>
    <path pointer-events="none" fill="none" stroke="white" stroke-width="1.5" d="M0,-3.0v7 M-2.5,-0.5L0,-3.0L2.5,-0.5"/>
  </g>
  <g id="arrowDown" transform="rotate(180) translate(-30 -48)">
    <use xlink:href="#rim"/>
    <path pointer-events="none" fill="none" stroke="white" stroke-width="1.5" d="M0,-3.0v7 M-2.5,-0.5L0,-3.0L2.5,-0.5"/>
  </g>
  <g id="arrowLeft" transform="rotate(270) translate(-36 17)">
    <use xlink:href="#rim"/>
    <path pointer-events="none" fill="none" stroke="white" stroke-width="1.5" d="M0,-3.0v7 M-2.5,-0.5L0,-3.0L2.5,-0.5"/>
  </g>
  <g id="resetDef">
    <use xlink:href="#rim2" fill="#404040"><set attributeName="fill" to="#808080" begin="reset.mouseover" end="reset.mouseout"/></use>
  </g>
</defs>
<script type="application/ecmascript">
var viewWidth = 258;
var viewHeight = 604;
var sectionId = 'dynsection-0';
</script>
<script type="application/ecmascript" xlink:href="svg.min.js"/>
<svg id="graph" class="graph">
<g id="viewport">
<title>VolumeControl.Log.Endpoints.FileEndpoint</title>
<!-- Node1 -->
<g id="Node000001" class="node">
<title>Node1</title>
<g id="a_Node000001"><a xlink:title="Log endpoint that allows writing logs directly to a file on disk.">
<polygon fill="#999999" stroke="transparent" points="179.5,-291 22.5,-291 22.5,-156 179.5,-156 179.5,-291"/>
<text text-anchor="start" x="28" y="-278.5" font-family="Helvetica,sans-Serif" font-size="10.00">VolumeControl.Log.Endpoints.</text>
<text text-anchor="start" x="71" y="-267.5" font-family="Helvetica,sans-Serif" font-size="10.00">FileEndpoint</text>
<text text-anchor="start" x="38" y="-252.5" font-family="Helvetica,sans-Serif" font-size="10.00">+</text>
<text text-anchor="start" x="62" y="-252.5" font-family="Helvetica,sans-Serif" font-size="10.00">FileInfo</text>
<text text-anchor="start" x="38" y="-237.5" font-family="Helvetica,sans-Serif" font-size="10.00">+</text>
<text text-anchor="start" x="62" y="-237.5" font-family="Helvetica,sans-Serif" font-size="10.00">Path</text>
<text text-anchor="start" x="38" y="-222.5" font-family="Helvetica,sans-Serif" font-size="10.00">+</text>
<text text-anchor="start" x="62" y="-222.5" font-family="Helvetica,sans-Serif" font-size="10.00">PathIsEmpty</text>
<text text-anchor="start" x="38" y="-207.5" font-family="Helvetica,sans-Serif" font-size="10.00">+</text>
<text text-anchor="start" x="62" y="-207.5" font-family="Helvetica,sans-Serif" font-size="10.00">FileEndpoint()</text>
<text text-anchor="start" x="38" y="-192.5" font-family="Helvetica,sans-Serif" font-size="10.00">+</text>
<text text-anchor="start" x="62" y="-192.5" font-family="Helvetica,sans-Serif" font-size="10.00">GetStreamWriter()</text>
<text text-anchor="start" x="38" y="-177.5" font-family="Helvetica,sans-Serif" font-size="10.00">+</text>
<text text-anchor="start" x="62" y="-177.5" font-family="Helvetica,sans-Serif" font-size="10.00">GetTextWriter()</text>
<text text-anchor="start" x="38" y="-162.5" font-family="Helvetica,sans-Serif" font-size="10.00">+</text>
<text text-anchor="start" x="62" y="-162.5" font-family="Helvetica,sans-Serif" font-size="10.00">Reset()</text>
<polygon fill="#666666" stroke="#666666" points="23,-262.5 23,-262.5 180,-262.5 180,-262.5 23,-262.5"/>
<polygon fill="#666666" stroke="#666666" points="23,-217.5 23,-217.5 60,-217.5 60,-217.5 23,-217.5"/>
<polygon fill="#666666" stroke="#666666" points="60,-217.5 60,-217.5 180,-217.5 180,-217.5 60,-217.5"/>
<polygon fill="none" stroke="#666666" points="22.5,-156 22.5,-291 179.5,-291 179.5,-156 22.5,-156"/>
</a>
</g>
</g>
<!-- Node5 -->
<g id="Node000005" class="node">
<title>Node5</title>
<g id="a_Node000005"><a xlink:href="class_volume_control_1_1_log_1_1_endpoints_1_1_persistent_file_endpoint.html" target="_top" xlink:title="Log endpoint that allows writing logs directly to a file on disk, and keeps the file stream open.">
<polygon fill="white" stroke="transparent" points="179.5,-120 22.5,-120 22.5,0 179.5,0 179.5,-120"/>
<text text-anchor="start" x="28" y="-108" font-family="Helvetica,sans-Serif" font-size="10.00">VolumeControl.Log.Endpoints.</text>
<text text-anchor="start" x="47" y="-97" font-family="Helvetica,sans-Serif" font-size="10.00">PersistentFileEndpoint</text>
<text text-anchor="start" x="99.5" y="-82" font-family="Helvetica,sans-Serif" font-size="10.00"> </text>
<text text-anchor="start" x="31.5" y="-67" font-family="Helvetica,sans-Serif" font-size="10.00">+</text>
<text text-anchor="start" x="49" y="-67" font-family="Helvetica,sans-Serif" font-size="10.00">PersistentFileEndpoint()</text>
<text text-anchor="start" x="31.5" y="-52" font-family="Helvetica,sans-Serif" font-size="10.00">+</text>
<text text-anchor="start" x="49" y="-52" font-family="Helvetica,sans-Serif" font-size="10.00">GetTextWriter()</text>
<text text-anchor="start" x="31.5" y="-37" font-family="Helvetica,sans-Serif" font-size="10.00">+</text>
<text text-anchor="start" x="49" y="-37" font-family="Helvetica,sans-Serif" font-size="10.00">GetStreamWriter()</text>
<text text-anchor="start" x="31.5" y="-22" font-family="Helvetica,sans-Serif" font-size="10.00">+</text>
<text text-anchor="start" x="49" y="-22" font-family="Helvetica,sans-Serif" font-size="10.00">Reset()</text>
<text text-anchor="start" x="31.5" y="-7" font-family="Helvetica,sans-Serif" font-size="10.00">+</text>
<text text-anchor="start" x="49" y="-7" font-family="Helvetica,sans-Serif" font-size="10.00">Dispose()</text>
<polygon fill="#666666" stroke="#666666" points="23,-92 23,-92 180,-92 180,-92 23,-92"/>
<polygon fill="#666666" stroke="#666666" points="23,-77 23,-77 180,-77 180,-77 23,-77"/>
<polygon fill="none" stroke="#666666" points="22.5,0 22.5,-120 179.5,-120 179.5,0 22.5,0"/>
</a>
</g>
</g>
<!-- Node1&#45;&gt;Node5 -->
<g id="edge5_Node000001_Node000005" class="edge">
<title>Node1&#45;&gt;Node5</title>
<g id="a_edge5_Node000001_Node000005"><a xlink:title=" ">
<path fill="none" stroke="#63b8ff" d="M101,-145.83C101,-137.23 101,-128.57 101,-120.23"/>
<polygon fill="none" stroke="#63b8ff" points="97.5,-145.88 101,-155.88 104.5,-145.88 97.5,-145.88"/>
</a>
</g>
</g>
<!-- Node2 -->
<g id="Node000002" class="node">
<title>Node2</title>
<g id="a_Node000002"><a xlink:href="class_volume_control_1_1_log_1_1_endpoints_1_1_base_endpoint_writer.html" target="_top" xlink:title="Abstract base class for endpoint writers.">
<polygon fill="white" stroke="transparent" points="222,-466 80,-466 80,-327 222,-327 222,-466"/>
<text text-anchor="start" x="102.5" y="-453.5" font-family="Helvetica,sans-Serif" font-size="10.00">BaseEndpointWriter</text>
<text text-anchor="start" x="84" y="-438.5" font-family="Helvetica,sans-Serif" font-size="10.00">+</text>
<text text-anchor="start" x="97" y="-438.5" font-family="Helvetica,sans-Serif" font-size="10.00">IsWritingEnabled</text>
<text text-anchor="start" x="84" y="-423.5" font-family="Helvetica,sans-Serif" font-size="10.00">+</text>
<text text-anchor="start" x="97" y="-423.5" font-family="Helvetica,sans-Serif" font-size="10.00">GetTextWriter()</text>
<text text-anchor="start" x="84" y="-408.5" font-family="Helvetica,sans-Serif" font-size="10.00">+</text>
<text text-anchor="start" x="97" y="-408.5" font-family="Helvetica,sans-Serif" font-size="10.00">Reset()</text>
<text text-anchor="start" x="84" y="-393.5" font-family="Helvetica,sans-Serif" font-size="10.00">+</text>
<text text-anchor="start" x="97" y="-393.5" font-family="Helvetica,sans-Serif" font-size="10.00">Write()</text>
<text text-anchor="start" x="84" y="-378.5" font-family="Helvetica,sans-Serif" font-size="10.00">+</text>
<text text-anchor="start" x="97" y="-378.5" font-family="Helvetica,sans-Serif" font-size="10.00">WriteLine()</text>
<text text-anchor="start" x="84" y="-363.5" font-family="Helvetica,sans-Serif" font-size="10.00">+</text>
<text text-anchor="start" x="97" y="-363.5" font-family="Helvetica,sans-Serif" font-size="10.00">WriteLine()</text>
<text text-anchor="start" x="84" y="-348.5" font-family="Helvetica,sans-Serif" font-size="10.00">#</text>
<text text-anchor="start" x="97" y="-348.5" font-family="Helvetica,sans-Serif" font-size="10.00">BaseEndpointWriter()</text>
<text text-anchor="start" x="84" y="-333.5" font-family="Helvetica,sans-Serif" font-size="10.00">#</text>
<text text-anchor="start" x="97" y="-333.5" font-family="Helvetica,sans-Serif" font-size="10.00">NotifyPropertyChanged()</text>
<polygon fill="#666666" stroke="#666666" points="80,-448.5 80,-448.5 222,-448.5 222,-448.5 80,-448.5"/>
<polygon fill="#666666" stroke="#666666" points="80,-433.5 80,-433.5 95,-433.5 95,-433.5 80,-433.5"/>
<polygon fill="#666666" stroke="#666666" points="95,-433.5 95,-433.5 222,-433.5 222,-433.5 95,-433.5"/>
<polygon fill="none" stroke="#666666" points="80,-327 80,-466 222,-466 222,-327 80,-327"/>
</a>
</g>
</g>
<!-- Node2&#45;&gt;Node1 -->
<g id="edge1_Node000001_Node000002" class="edge">
<title>Node2&#45;&gt;Node1</title>
<g id="a_edge1_Node000001_Node000002"><a xlink:title=" ">
<path fill="none" stroke="#63b8ff" d="M128.1,-317.17C125.55,-308.47 122.98,-299.67 120.48,-291.14"/>
<polygon fill="none" stroke="#63b8ff" points="124.79,-318.32 130.95,-326.93 131.5,-316.35 124.79,-318.32"/>
</a>
</g>
</g>
<!-- Node3 -->
<g id="Node000003" class="node">
<title>Node3</title>
<g id="a_Node000003"><a xlink:href="interface_volume_control_1_1_log_1_1_interfaces_1_1_i_endpoint_writer.html" target="_top" xlink:title="Represents an endpoint that text can be written to.">
<polygon fill="white" stroke="transparent" points="104,-596 0,-596 0,-502 104,-502 104,-596"/>
<text text-anchor="start" x="14" y="-584" font-family="Helvetica,sans-Serif" font-size="10.00">IEndpointWriter</text>
<text text-anchor="start" x="4" y="-569" font-family="Helvetica,sans-Serif" font-size="10.00">+</text>
<text text-anchor="start" x="17" y="-569" font-family="Helvetica,sans-Serif" font-size="10.00">IsWritingEnabled</text>
<text text-anchor="start" x="4" y="-554" font-family="Helvetica,sans-Serif" font-size="10.00">+</text>
<text text-anchor="start" x="17" y="-554" font-family="Helvetica,sans-Serif" font-size="10.00">GetTextWriter()</text>
<text text-anchor="start" x="4" y="-539" font-family="Helvetica,sans-Serif" font-size="10.00">+</text>
<text text-anchor="start" x="17" y="-539" font-family="Helvetica,sans-Serif" font-size="10.00">Write()</text>
<text text-anchor="start" x="4" y="-524" font-family="Helvetica,sans-Serif" font-size="10.00">+</text>
<text text-anchor="start" x="17" y="-524" font-family="Helvetica,sans-Serif" font-size="10.00">WriteLine()</text>
<text text-anchor="start" x="4" y="-509" font-family="Helvetica,sans-Serif" font-size="10.00">+</text>
<text text-anchor="start" x="17" y="-509" font-family="Helvetica,sans-Serif" font-size="10.00">Reset()</text>
<polygon fill="#666666" stroke="#666666" points="0,-579 0,-579 104,-579 104,-579 0,-579"/>
<polygon fill="#666666" stroke="#666666" points="0,-564 0,-564 15,-564 15,-564 0,-564"/>
<polygon fill="#666666" stroke="#666666" points="15,-564 15,-564 104,-564 104,-564 15,-564"/>
<polygon fill="none" stroke="#666666" points="0,-502 0,-596 104,-596 104,-502 0,-502"/>
</a>
</g>
</g>
<!-- Node3&#45;&gt;Node1 -->
<g id="edge4_Node000001_Node000003" class="edge">
<title>Node3&#45;&gt;Node1</title>
<g id="a_edge4_Node000001_Node000003"><a xlink:title=" ">
<path fill="none" stroke="#63b8ff" d="M53.75,-491.8C55.88,-446.88 60.6,-382.48 71,-327 73.2,-315.25 76.2,-302.91 79.45,-291.03"/>
<polygon fill="none" stroke="#63b8ff" points="50.25,-491.78 53.29,-501.93 57.24,-492.09 50.25,-491.78"/>
</a>
</g>
</g>
<!-- Node3&#45;&gt;Node2 -->
<g id="edge2_Node000002_Node000003" class="edge">
<title>Node3&#45;&gt;Node2</title>
<g id="a_edge2_Node000002_Node000003"><a xlink:title=" ">
<path fill="none" stroke="#63b8ff" d="M88.16,-493.03C93.91,-484.28 99.92,-475.15 105.85,-466.14"/>
<polygon fill="none" stroke="#63b8ff" points="85.08,-491.34 82.51,-501.62 90.93,-495.19 85.08,-491.34"/>
</a>
</g>
</g>
<!-- Node4 -->
<g id="Node000004" class="node">
<title>Node4</title>
<g id="a_Node000004"><a xlink:title=" ">
<polygon fill="white" stroke="transparent" points="249.5,-573.5 122.5,-573.5 122.5,-524.5 249.5,-524.5 249.5,-573.5"/>
<text text-anchor="start" x="128" y="-561" font-family="Helvetica,sans-Serif" font-size="10.00">INotifyPropertyChanged</text>
<text text-anchor="start" x="184.5" y="-546" font-family="Helvetica,sans-Serif" font-size="10.00"> </text>
<text text-anchor="start" x="184.5" y="-531" font-family="Helvetica,sans-Serif" font-size="10.00"> </text>
<polygon fill="#bfbfbf" stroke="#bfbfbf" points="123,-556 123,-556 250,-556 250,-556 123,-556"/>
<polygon fill="#bfbfbf" stroke="#bfbfbf" points="123,-541 123,-541 250,-541 250,-541 123,-541"/>
<polygon fill="none" stroke="#bfbfbf" points="122.5,-524.5 122.5,-573.5 249.5,-573.5 249.5,-524.5 122.5,-524.5"/>
</a>
</g>
</g>
<!-- Node4&#45;&gt;Node2 -->
<g id="edge3_Node000002_Node000004" class="edge">
<title>Node4&#45;&gt;Node2</title>
<g id="a_edge3_Node000002_Node000004"><a xlink:title=" ">
<path fill="none" stroke="#63b8ff" d="M178.23,-514.61C174.9,-500.25 170.86,-482.92 166.94,-466.03"/>
<polygon fill="none" stroke="#63b8ff" points="174.86,-515.54 180.53,-524.48 181.68,-513.95 174.86,-515.54"/>
</a>
</g>
</g>
</g>
</svg>

<g id="navigator" transform="translate(0 0)" fill="#404254">
  <rect fill="#f2f5e9" fill-opacity="0.5" stroke="#606060" stroke-width=".5" x="0" y="0" width="60" height="60"/>
  <use id="zoomplus" xlink:href="#zoomPlus" x="17" y="9" onmousedown="handleZoom(evt,'in')"/>
  <use id="zoomminus" xlink:href="#zoomMin" x="42" y="9" onmousedown="handleZoom(evt,'out')"/>
  <use id="reset" xlink:href="#resetDef" x="30" y="36" onmousedown="handleReset()"/>
   <use id="arrowup" xlink:href="#arrowUp" x="0" y="0" onmousedown="handlePan(0,-1)"/>
  <use id="arrowright" xlink:href="#arrowRight" x="0" y="0" onmousedown="handlePan(1,0)"/>
  <use id="arrowdown" xlink:href="#arrowDown" x="0" y="0" onmousedown="handlePan(0,1)"/>
  <use id="arrowleft" xlink:href="#arrowLeft" x="0" y="0" onmousedown="handlePan(-1,0)"/>
</g>
<svg viewBox="0 0 15 15" width="100%" height="30px" preserveAspectRatio="xMaxYMin meet">
 <g id="arrow_out" transform="scale(0.3 0.3)">
  <a xlink:href="class_volume_control_1_1_log_1_1_endpoints_1_1_file_endpoint__inherit__graph_org.svg" target="_base">
   <rect id="button" ry="5" rx="5" y="6" x="6" height="38" width="38"
        fill="#f2f5e9" fill-opacity="0.5" stroke="#606060" stroke-width="1.0"/>
   <path id="arrow"
     d="M 11.500037,31.436501 C 11.940474,20.09759 22.043105,11.32322 32.158766,21.979434 L 37.068811,17.246167 C 37.068811,17.246167 37.088388,32 37.088388,32 L 22.160133,31.978069 C 22.160133,31.978069 26.997745,27.140456 26.997745,27.140456 C 18.528582,18.264221 13.291696,25.230495 11.500037,31.436501 z"
     style="fill:#404040;"/>
  </a>
 </g>
</svg>

<style type='text/css'>
<![CDATA[
[data-mouse-over-selected='false'] { opacity: 0.7; }
[data-mouse-over-selected='true']  { opacity: 1.0; }
]]>
</style>
<script type="application/ecmascript"><![CDATA[
document.addEventListener('DOMContentLoaded', (event) => {
  highlightEdges();
  highlightAdjacentNodes();
});
]]></script>
</svg>
