<?xml version="1.0" encoding="UTF-8" standalone="no"?>
<!DOCTYPE svg PUBLIC "-//W3C//DTD SVG 1.1//EN"
 "http://www.w3.org/Graphics/SVG/1.1/DTD/svg11.dtd">
<!-- Generated by graphviz version 2.43.0 (0)
 -->
<!-- Title: VolumeControl.Audio.Events.VolumeChangedEventArgs Pages: 1 -->
<svg width="172pt" height="204pt"
 viewBox="0.00 0.00 172.00 204.00" xmlns="http://www.w3.org/2000/svg" xmlns:xlink="http://www.w3.org/1999/xlink">
<g id="graph0" class="graph" transform="scale(1 1) rotate(0) translate(4 200)">
<title>VolumeControl.Audio.Events.VolumeChangedEventArgs</title>
<!-- Node1 -->
<g id="node1" class="node">
<title>Node1</title>
<g id="a_node1"><a xlink:title="Event arguments for volume change events.">
<polygon fill="#bfbfbf" stroke="black" points="0,-0.5 0,-101.5 164,-101.5 164,-0.5 0,-0.5"/>
<text text-anchor="start" x="8" y="-89.5" font-family="Helvetica,sans-Serif" font-size="10.00">VolumeControl.Audio.Events.</text>
<text text-anchor="middle" x="82" y="-78.5" font-family="Helvetica,sans-Serif" font-size="10.00">VolumeChangedEventArgs</text>
<polyline fill="none" stroke="black" points="0,-71.5 164,-71.5 "/>
<text text-anchor="start" x="8" y="-59.5" font-family="Helvetica,sans-Serif" font-size="10.00">+ Empty</text>
<text text-anchor="start" x="8" y="-48.5" font-family="Helvetica,sans-Serif" font-size="10.00">+ Volume</text>
<text text-anchor="start" x="8" y="-37.5" font-family="Helvetica,sans-Serif" font-size="10.00">+ Muted</text>
<polyline fill="none" stroke="black" points="0,-30.5 164,-30.5 "/>
<text text-anchor="start" x="8" y="-18.5" font-family="Helvetica,sans-Serif" font-size="10.00">+ VolumeChangedEventArgs()</text>
<text text-anchor="start" x="8" y="-7.5" font-family="Helvetica,sans-Serif" font-size="10.00">+ VolumeChangedEventArgs()</text>
</a>
</g>
</g>
<!-- Node2 -->
<g id="node2" class="node">
<title>Node2</title>
<g id="a_node2"><a xlink:title=" ">
<polygon fill="none" stroke="#bfbfbf" points="49,-138.5 49,-195.5 115,-195.5 115,-138.5 49,-138.5"/>
<text text-anchor="middle" x="82" y="-183.5" font-family="Helvetica,sans-Serif" font-size="10.00">EventArgs</text>
<polyline fill="none" stroke="#bfbfbf" points="49,-176.5 115,-176.5 "/>
<text text-anchor="middle" x="82" y="-164.5" font-family="Helvetica,sans-Serif" font-size="10.00"> </text>
<polyline fill="none" stroke="#bfbfbf" points="49,-157.5 115,-157.5 "/>
<text text-anchor="middle" x="82" y="-145.5" font-family="Helvetica,sans-Serif" font-size="10.00"> </text>
</a>
</g>
</g>
<!-- Node2&#45;&gt;Node1 -->
<g id="edge1" class="edge">
<title>Node2&#45;&gt;Node1</title>
<path fill="none" stroke="midnightblue" d="M82,-128.35C82,-119.8 82,-110.58 82,-101.61"/>
<polygon fill="none" stroke="midnightblue" points="78.5,-128.4 82,-138.4 85.5,-128.4 78.5,-128.4"/>
</g>
</g>
</svg>
