<?xml version="1.0" encoding="UTF-8" standalone="no"?>
<!DOCTYPE svg PUBLIC "-//W3C//DTD SVG 1.1//EN"
 "http://www.w3.org/Graphics/SVG/1.1/DTD/svg11.dtd">
<!-- Generated by graphviz version 2.43.0 (0)
 -->
<!-- Title: VolumeControl.Hotkeys.HotkeyManager.SaveHotkeys Pages: 1 -->
<svg width="390pt" height="137pt"
 viewBox="0.00 0.00 390.00 137.00" xmlns="http://www.w3.org/2000/svg" xmlns:xlink="http://www.w3.org/1999/xlink">
<g id="graph0" class="graph" transform="scale(1 1) rotate(0) translate(4 133)">
<title>VolumeControl.Hotkeys.HotkeyManager.SaveHotkeys</title>
<!-- Node1 -->
<g id="node1" class="node">
<title>Node1</title>
<g id="a_node1"><a xlink:title="Saves all hotkeys to the settings file.">
<polygon fill="#bfbfbf" stroke="black" points="0,-49.5 0,-79.5 169,-79.5 169,-49.5 0,-49.5"/>
<text text-anchor="start" x="8" y="-67.5" font-family="Helvetica,sans-Serif" font-size="10.00">VolumeControl.Hotkeys.Hotkey</text>
<text text-anchor="middle" x="84.5" y="-56.5" font-family="Helvetica,sans-Serif" font-size="10.00">Manager.SaveHotkeys</text>
</a>
</g>
</g>
<!-- Node2 -->
<g id="node2" class="node">
<title>Node2</title>
<g id="a_node2"><a xlink:href="class_volume_control_1_1_log_1_1_log_writer.html#a09e652d1c8049b4b137d45dd2a6466a4" target="_top" xlink:title="Write a formatted EventType.DEBUG message to the log endpoint.">
<polygon fill="none" stroke="black" points="213,-98.5 213,-128.5 374,-128.5 374,-98.5 213,-98.5"/>
<text text-anchor="start" x="221" y="-116.5" font-family="Helvetica,sans-Serif" font-size="10.00">VolumeControl.Log.LogWriter.</text>
<text text-anchor="middle" x="293.5" y="-105.5" font-family="Helvetica,sans-Serif" font-size="10.00">Debug</text>
</a>
</g>
</g>
<!-- Node1&#45;&gt;Node2 -->
<g id="edge1" class="edge">
<title>Node1&#45;&gt;Node2</title>
<path fill="none" stroke="midnightblue" d="M149.01,-79.53C171.17,-84.78 196.21,-90.71 219.1,-96.13"/>
<polygon fill="midnightblue" stroke="midnightblue" points="218.57,-99.6 229.11,-98.49 220.18,-92.78 218.57,-99.6"/>
</g>
<!-- Node3 -->
<g id="node3" class="node">
<title>Node3</title>
<g id="a_node3"><a xlink:href="class_volume_control_1_1_hotkeys_1_1_bindable_windows_hotkey.html#aa4fbd47c57a4f7d236bf59fefc8e5f4e" target="_top" xlink:title="Gets all properties in a pseudo&#45;json format for dumping them to the log.">
<polygon fill="none" stroke="black" points="205,-49.5 205,-79.5 382,-79.5 382,-49.5 205,-49.5"/>
<text text-anchor="start" x="213" y="-67.5" font-family="Helvetica,sans-Serif" font-size="10.00">VolumeControl.Hotkeys.Bindable</text>
<text text-anchor="middle" x="293.5" y="-56.5" font-family="Helvetica,sans-Serif" font-size="10.00">WindowsHotkey.GetFullIdentifier</text>
</a>
</g>
</g>
<!-- Node1&#45;&gt;Node3 -->
<g id="edge2" class="edge">
<title>Node1&#45;&gt;Node3</title>
<path fill="none" stroke="midnightblue" d="M169.1,-64.5C177.57,-64.5 186.22,-64.5 194.82,-64.5"/>
<polygon fill="midnightblue" stroke="midnightblue" points="194.87,-68 204.87,-64.5 194.87,-61 194.87,-68"/>
</g>
<!-- Node4 -->
<g id="node4" class="node">
<title>Node4</title>
<g id="a_node4"><a xlink:href="class_volume_control_1_1_hotkeys_1_1_bindable_windows_hotkey.html#a1c7af5d6a0957de3ddb9033625ddb51b" target="_top" xlink:title="Serializes this hotkey into a string format. &#160;This is used when saving the hotkey to the configuratio...">
<polygon fill="none" stroke="black" points="205,-0.5 205,-30.5 382,-30.5 382,-0.5 205,-0.5"/>
<text text-anchor="start" x="213" y="-18.5" font-family="Helvetica,sans-Serif" font-size="10.00">VolumeControl.Hotkeys.Bindable</text>
<text text-anchor="middle" x="293.5" y="-7.5" font-family="Helvetica,sans-Serif" font-size="10.00">WindowsHotkey.Serialize</text>
</a>
</g>
</g>
<!-- Node1&#45;&gt;Node4 -->
<g id="edge3" class="edge">
<title>Node1&#45;&gt;Node4</title>
<path fill="none" stroke="midnightblue" d="M149.01,-49.47C171.17,-44.22 196.21,-38.29 219.1,-32.87"/>
<polygon fill="midnightblue" stroke="midnightblue" points="220.18,-36.22 229.11,-30.51 218.57,-29.4 220.18,-36.22"/>
</g>
</g>
</svg>
