<?xml version="1.0" encoding="UTF-8" standalone="no"?>
<!DOCTYPE svg PUBLIC "-//W3C//DTD SVG 1.1//EN"
 "http://www.w3.org/Graphics/SVG/1.1/DTD/svg11.dtd">
<!-- Generated by graphviz version 2.43.0 (0)
 -->
<!-- Title: VolumeControl.WPF.Converters.ConverterChain Pages: 1 -->
<svg width="256pt" height="182pt"
 viewBox="0.00 0.00 255.50 182.00" xmlns="http://www.w3.org/2000/svg" xmlns:xlink="http://www.w3.org/1999/xlink">
<g id="graph0" class="graph" transform="scale(1 1) rotate(0) translate(4 178)">
<title>VolumeControl.WPF.Converters.ConverterChain</title>
<!-- Node1 -->
<g id="node1" class="node">
<title>Node1</title>
<g id="a_node1"><a xlink:title="Any number of IValueConverter objects that are used in assembly&#45;line fashion on a given value.">
<polygon fill="#bfbfbf" stroke="black" points="47.5,-0.5 47.5,-79.5 218.5,-79.5 218.5,-0.5 47.5,-0.5"/>
<text text-anchor="start" x="55.5" y="-67.5" font-family="Helvetica,sans-Serif" font-size="10.00">VolumeControl.WPF.Converters.</text>
<text text-anchor="middle" x="133" y="-56.5" font-family="Helvetica,sans-Serif" font-size="10.00">ConverterChain</text>
<polyline fill="none" stroke="black" points="47.5,-49.5 218.5,-49.5 "/>
<text text-anchor="middle" x="133" y="-37.5" font-family="Helvetica,sans-Serif" font-size="10.00"> </text>
<polyline fill="none" stroke="black" points="47.5,-30.5 218.5,-30.5 "/>
<text text-anchor="start" x="55.5" y="-18.5" font-family="Helvetica,sans-Serif" font-size="10.00">+ Convert()</text>
<text text-anchor="start" x="55.5" y="-7.5" font-family="Helvetica,sans-Serif" font-size="10.00">+ ConvertBack()</text>
</a>
</g>
</g>
<!-- Node2 -->
<g id="node2" class="node">
<title>Node2</title>
<g id="a_node2"><a xlink:title=" ">
<polygon fill="none" stroke="#bfbfbf" points="0,-116.5 0,-173.5 134,-173.5 134,-116.5 0,-116.5"/>
<text text-anchor="middle" x="67" y="-161.5" font-family="Helvetica,sans-Serif" font-size="10.00">List&lt; IValueConverter &gt;</text>
<polyline fill="none" stroke="#bfbfbf" points="0,-154.5 134,-154.5 "/>
<text text-anchor="middle" x="67" y="-142.5" font-family="Helvetica,sans-Serif" font-size="10.00"> </text>
<polyline fill="none" stroke="#bfbfbf" points="0,-135.5 134,-135.5 "/>
<text text-anchor="middle" x="67" y="-123.5" font-family="Helvetica,sans-Serif" font-size="10.00"> </text>
</a>
</g>
</g>
<!-- Node2&#45;&gt;Node1 -->
<g id="edge1" class="edge">
<title>Node2&#45;&gt;Node1</title>
<path fill="none" stroke="midnightblue" d="M90.15,-107.87C96.03,-98.69 102.37,-88.81 108.32,-79.52"/>
<polygon fill="none" stroke="midnightblue" points="87.14,-106.09 84.69,-116.4 93.03,-109.87 87.14,-106.09"/>
</g>
<!-- Node3 -->
<g id="node3" class="node">
<title>Node3</title>
<g id="a_node3"><a xlink:title=" ">
<polygon fill="none" stroke="#bfbfbf" points="152.5,-116.5 152.5,-173.5 247.5,-173.5 247.5,-116.5 152.5,-116.5"/>
<text text-anchor="middle" x="200" y="-161.5" font-family="Helvetica,sans-Serif" font-size="10.00">IValueConverter</text>
<polyline fill="none" stroke="#bfbfbf" points="152.5,-154.5 247.5,-154.5 "/>
<text text-anchor="middle" x="200" y="-142.5" font-family="Helvetica,sans-Serif" font-size="10.00"> </text>
<polyline fill="none" stroke="#bfbfbf" points="152.5,-135.5 247.5,-135.5 "/>
<text text-anchor="middle" x="200" y="-123.5" font-family="Helvetica,sans-Serif" font-size="10.00"> </text>
</a>
</g>
</g>
<!-- Node3&#45;&gt;Node1 -->
<g id="edge2" class="edge">
<title>Node3&#45;&gt;Node1</title>
<path fill="none" stroke="midnightblue" d="M176.5,-107.87C170.53,-98.69 164.1,-88.81 158.06,-79.52"/>
<polygon fill="none" stroke="midnightblue" points="173.66,-109.92 182.05,-116.4 179.53,-106.11 173.66,-109.92"/>
</g>
</g>
</svg>
