<?xml version="1.0" encoding="UTF-8" standalone="no"?>
<!DOCTYPE svg PUBLIC "-//W3C//DTD SVG 1.1//EN"
 "http://www.w3.org/Graphics/SVG/1.1/DTD/svg11.dtd">
<!-- Generated by graphviz version 2.44.1 (20200629.0800)
 -->
<!-- Title: VolumeControl.WPF.WindowHandleGetter.GetWindowHandle Pages: 1 -->
<svg width="543pt" height="39pt"
 viewBox="0.00 0.00 543.00 39.00" xmlns="http://www.w3.org/2000/svg" xmlns:xlink="http://www.w3.org/1999/xlink">
<g id="graph0" class="graph" transform="scale(1 1) rotate(0) translate(4 35)">
<title>VolumeControl.WPF.WindowHandleGetter.GetWindowHandle</title>
<!-- Node1 -->
<g id="node1" class="node">
<title>Node1</title>
<g id="a_node1"><a xlink:title="Gets the primary WPF window&#39;s handle. This uses WindowInteropHelper.EnsureHandle to ensure that a val...">
<polygon fill="#bfbfbf" stroke="black" points="378,-0.5 378,-30.5 535,-30.5 535,-0.5 378,-0.5"/>
<text text-anchor="start" x="386" y="-18.5" font-family="Helvetica,sans-Serif" font-size="10.00">VolumeControl.WPF.Window</text>
<text text-anchor="middle" x="456.5" y="-7.5" font-family="Helvetica,sans-Serif" font-size="10.00">HandleGetter.GetWindowHandle</text>
</a>
</g>
</g>
<!-- Node2 -->
<g id="node2" class="node">
<title>Node2</title>
<g id="a_node2"><a xlink:href="class_volume_control_1_1_hotkeys_1_1_hotkey_manager.html#a57c8d96dc5d4178d5b6d15a5df8fa374" target="_top" xlink:title="Adds a window message hook to receive hotkey press messages and route them to the associated event tr...">
<polygon fill="none" stroke="black" points="189,-0.5 189,-30.5 342,-30.5 342,-0.5 189,-0.5"/>
<text text-anchor="start" x="197" y="-18.5" font-family="Helvetica,sans-Serif" font-size="10.00">VolumeControl.Hotkeys.Hotkey</text>
<text text-anchor="middle" x="265.5" y="-7.5" font-family="Helvetica,sans-Serif" font-size="10.00">Manager.AddHook</text>
</a>
</g>
</g>
<!-- Node1&#45;&gt;Node2 -->
<g id="edge1" class="edge">
<title>Node1&#45;&gt;Node2</title>
<path fill="none" stroke="midnightblue" d="M367.77,-15.5C359.18,-15.5 350.52,-15.5 342.06,-15.5"/>
<polygon fill="midnightblue" stroke="midnightblue" points="367.81,-19 377.81,-15.5 367.81,-12 367.81,-19"/>
</g>
<!-- Node3 -->
<g id="node3" class="node">
<title>Node3</title>
<g id="a_node3"><a xlink:href="class_volume_control_1_1_hotkeys_1_1_hotkey_manager.html#ac4e52046790fdd5d2e75a1c50510da22" target="_top" xlink:title=" ">
<polygon fill="none" stroke="black" points="0,-0.5 0,-30.5 153,-30.5 153,-0.5 0,-0.5"/>
<text text-anchor="start" x="8" y="-18.5" font-family="Helvetica,sans-Serif" font-size="10.00">VolumeControl.Hotkeys.Hotkey</text>
<text text-anchor="middle" x="76.5" y="-7.5" font-family="Helvetica,sans-Serif" font-size="10.00">Manager.HotkeyManager</text>
</a>
</g>
</g>
<!-- Node2&#45;&gt;Node3 -->
<g id="edge2" class="edge">
<title>Node2&#45;&gt;Node3</title>
<path fill="none" stroke="midnightblue" d="M178.7,-15.5C170.23,-15.5 161.67,-15.5 153.3,-15.5"/>
<polygon fill="midnightblue" stroke="midnightblue" points="178.98,-19 188.98,-15.5 178.98,-12 178.98,-19"/>
</g>
</g>
</svg>
