<?xml version="1.0" encoding="UTF-8" standalone="no"?>
<!DOCTYPE svg PUBLIC "-//W3C//DTD SVG 1.1//EN"
 "http://www.w3.org/Graphics/SVG/1.1/DTD/svg11.dtd">
<!-- Generated by graphviz version 2.43.0 (0)
 -->
<!-- Title: VolumeControl.Log.LogWriter.Debug Pages: 1 -->
<svg width="395pt" height="198pt"
 viewBox="0.00 0.00 395.00 198.00" xmlns="http://www.w3.org/2000/svg" xmlns:xlink="http://www.w3.org/1999/xlink">
<g id="graph0" class="graph" transform="scale(1 1) rotate(0) translate(4 194)">
<title>VolumeControl.Log.LogWriter.Debug</title>
<!-- Node1 -->
<g id="node1" class="node">
<title>Node1</title>
<g id="a_node1"><a xlink:title="Write a formatted EventType.DEBUG message to the log endpoint.">
<polygon fill="#bfbfbf" stroke="black" points="226,-76.5 226,-106.5 387,-106.5 387,-76.5 226,-76.5"/>
<text text-anchor="start" x="234" y="-94.5" font-family="Helvetica,sans-Serif" font-size="10.00">VolumeControl.Log.LogWriter.</text>
<text text-anchor="middle" x="306.5" y="-83.5" font-family="Helvetica,sans-Serif" font-size="10.00">Debug</text>
</a>
</g>
</g>
<!-- Node2 -->
<g id="node2" class="node">
<title>Node2</title>
<g id="a_node2"><a xlink:href="class_volume_control_1_1_hotkeys_1_1_hotkey_manager.html#a57c8d96dc5d4178d5b6d15a5df8fa374" target="_top" xlink:title="Adds a window message hook to receive hotkey press messages and route them to the associated event tr...">
<polygon fill="none" stroke="black" points="10.5,-159.5 10.5,-189.5 179.5,-189.5 179.5,-159.5 10.5,-159.5"/>
<text text-anchor="start" x="18.5" y="-177.5" font-family="Helvetica,sans-Serif" font-size="10.00">VolumeControl.Hotkeys.Hotkey</text>
<text text-anchor="middle" x="95" y="-166.5" font-family="Helvetica,sans-Serif" font-size="10.00">Manager.AddHook</text>
</a>
</g>
</g>
<!-- Node1&#45;&gt;Node2 -->
<g id="edge1" class="edge">
<title>Node1&#45;&gt;Node2</title>
<path fill="none" stroke="midnightblue" d="M270.31,-111.55C247.86,-123.74 217.84,-138.94 190,-149.5 180.37,-153.15 169.99,-156.49 159.77,-159.44"/>
<polygon fill="midnightblue" stroke="midnightblue" points="272.06,-114.58 279.14,-106.7 268.69,-108.45 272.06,-114.58"/>
</g>
<!-- Node3 -->
<g id="node3" class="node">
<title>Node3</title>
<g id="a_node3"><a xlink:href="class_volume_control_1_1_core_1_1_helpers_1_1_v_c_settings_container.html#aa8da953cf652bcf19a11825223535ae3" target="_top" xlink:title="Triggers the PropertyChanged event.">
<polygon fill="none" stroke="black" points="0,-99 0,-140 190,-140 190,-99 0,-99"/>
<text text-anchor="start" x="8" y="-128" font-family="Helvetica,sans-Serif" font-size="10.00">VolumeControl.Core.Helpers.</text>
<text text-anchor="start" x="8" y="-117" font-family="Helvetica,sans-Serif" font-size="10.00">VCSettingsContainer.NotifyProperty</text>
<text text-anchor="middle" x="95" y="-106" font-family="Helvetica,sans-Serif" font-size="10.00">Changed</text>
</a>
</g>
</g>
<!-- Node1&#45;&gt;Node3 -->
<g id="edge2" class="edge">
<title>Node1&#45;&gt;Node3</title>
<path fill="none" stroke="midnightblue" d="M216.04,-103.46C207.49,-104.6 198.81,-105.76 190.22,-106.91"/>
<polygon fill="midnightblue" stroke="midnightblue" points="216.55,-106.92 226,-102.13 215.62,-99.98 216.55,-106.92"/>
</g>
<!-- Node4 -->
<g id="node4" class="node">
<title>Node4</title>
<g id="a_node4"><a xlink:href="class_volume_control_1_1_hotkeys_1_1_hotkey_manager.html#a43f5e3e31ab161cd9e8701fe39d1114e" target="_top" xlink:title="Removes the message hook from the application&#39;s handle.">
<polygon fill="none" stroke="black" points="10.5,-49.5 10.5,-79.5 179.5,-79.5 179.5,-49.5 10.5,-49.5"/>
<text text-anchor="start" x="18.5" y="-67.5" font-family="Helvetica,sans-Serif" font-size="10.00">VolumeControl.Hotkeys.Hotkey</text>
<text text-anchor="middle" x="95" y="-56.5" font-family="Helvetica,sans-Serif" font-size="10.00">Manager.RemoveHook</text>
</a>
</g>
</g>
<!-- Node1&#45;&gt;Node4 -->
<g id="edge3" class="edge">
<title>Node1&#45;&gt;Node4</title>
<path fill="none" stroke="midnightblue" d="M215.95,-79.96C203.9,-78.41 191.58,-76.82 179.63,-75.28"/>
<polygon fill="midnightblue" stroke="midnightblue" points="215.63,-83.45 226,-81.25 216.53,-76.5 215.63,-83.45"/>
</g>
<!-- Node5 -->
<g id="node5" class="node">
<title>Node5</title>
<g id="a_node5"><a xlink:href="class_volume_control_1_1_hotkeys_1_1_hotkey_manager.html#ad179564abe8e8dcf492a365cffdcad6c" target="_top" xlink:title="Saves all hotkeys to the settings file.">
<polygon fill="none" stroke="black" points="10.5,-0.5 10.5,-30.5 179.5,-30.5 179.5,-0.5 10.5,-0.5"/>
<text text-anchor="start" x="18.5" y="-18.5" font-family="Helvetica,sans-Serif" font-size="10.00">VolumeControl.Hotkeys.Hotkey</text>
<text text-anchor="middle" x="95" y="-7.5" font-family="Helvetica,sans-Serif" font-size="10.00">Manager.SaveHotkeys</text>
</a>
</g>
</g>
<!-- Node1&#45;&gt;Node5 -->
<g id="edge4" class="edge">
<title>Node1&#45;&gt;Node5</title>
<path fill="none" stroke="midnightblue" d="M265.34,-71.92C243.41,-61.7 215.58,-49.49 190,-40.5 179.8,-36.92 168.83,-33.56 158.11,-30.55"/>
<polygon fill="midnightblue" stroke="midnightblue" points="264.12,-75.21 274.66,-76.31 267.1,-68.88 264.12,-75.21"/>
</g>
</g>
</svg>
