<?xml version="1.0" encoding="UTF-8" standalone="no"?>
<!DOCTYPE svg PUBLIC "-//W3C//DTD SVG 1.1//EN"
 "http://www.w3.org/Graphics/SVG/1.1/DTD/svg11.dtd">
<!-- Generated by graphviz version 2.43.0 (0)
 -->
<!-- Title: VolumeControl.Core.Input.Exceptions.ActionSettingNotFoundException Pages: 1 -->
<svg width="203pt" height="204pt"
 viewBox="0.00 0.00 203.00 204.00" xmlns="http://www.w3.org/2000/svg" xmlns:xlink="http://www.w3.org/1999/xlink">
<g id="graph0" class="graph" transform="scale(1 1) rotate(0) translate(4 200)">
<title>VolumeControl.Core.Input.Exceptions.ActionSettingNotFoundException</title>
<!-- Node1 -->
<g id="node1" class="node">
<title>Node1</title>
<g id="a_node1"><a xlink:title="Represents errors that occur when a hotkey action setting wasn&#39;t found in a HotkeyActionPressedEventA...">
<polygon fill="#bfbfbf" stroke="black" points="0,-0.5 0,-101.5 195,-101.5 195,-0.5 0,-0.5"/>
<text text-anchor="start" x="8" y="-89.5" font-family="Helvetica,sans-Serif" font-size="10.00">VolumeControl.Core.Input.</text>
<text text-anchor="start" x="8" y="-78.5" font-family="Helvetica,sans-Serif" font-size="10.00">Exceptions.ActionSettingNotFound</text>
<text text-anchor="middle" x="97.5" y="-67.5" font-family="Helvetica,sans-Serif" font-size="10.00">Exception</text>
<polyline fill="none" stroke="black" points="0,-60.5 195,-60.5 "/>
<text text-anchor="start" x="8" y="-48.5" font-family="Helvetica,sans-Serif" font-size="10.00">+ ActionSettingName</text>
<polyline fill="none" stroke="black" points="0,-41.5 195,-41.5 "/>
<text text-anchor="start" x="8" y="-29.5" font-family="Helvetica,sans-Serif" font-size="10.00">~ ActionSettingNotFoundException()</text>
<text text-anchor="start" x="8" y="-18.5" font-family="Helvetica,sans-Serif" font-size="10.00">~ ActionSettingNotFoundException()</text>
<text text-anchor="start" x="8" y="-7.5" font-family="Helvetica,sans-Serif" font-size="10.00">~ ActionSettingNotFoundException()</text>
</a>
</g>
</g>
<!-- Node2 -->
<g id="node2" class="node">
<title>Node2</title>
<g id="a_node2"><a xlink:title=" ">
<polygon fill="none" stroke="#bfbfbf" points="65,-138.5 65,-195.5 130,-195.5 130,-138.5 65,-138.5"/>
<text text-anchor="middle" x="97.5" y="-183.5" font-family="Helvetica,sans-Serif" font-size="10.00">Exception</text>
<polyline fill="none" stroke="#bfbfbf" points="65,-176.5 130,-176.5 "/>
<text text-anchor="middle" x="97.5" y="-164.5" font-family="Helvetica,sans-Serif" font-size="10.00"> </text>
<polyline fill="none" stroke="#bfbfbf" points="65,-157.5 130,-157.5 "/>
<text text-anchor="middle" x="97.5" y="-145.5" font-family="Helvetica,sans-Serif" font-size="10.00"> </text>
</a>
</g>
</g>
<!-- Node2&#45;&gt;Node1 -->
<g id="edge1" class="edge">
<title>Node2&#45;&gt;Node1</title>
<path fill="none" stroke="midnightblue" d="M97.5,-128.35C97.5,-119.8 97.5,-110.58 97.5,-101.61"/>
<polygon fill="none" stroke="midnightblue" points="94,-128.4 97.5,-138.4 101,-128.4 94,-128.4"/>
</g>
</g>
</svg>
