<?xml version="1.0" encoding="UTF-8" standalone="no"?>
<!DOCTYPE svg PUBLIC "-//W3C//DTD SVG 1.1//EN"
 "http://www.w3.org/Graphics/SVG/1.1/DTD/svg11.dtd">
<!-- Generated by graphviz version 2.43.0 (0)
 -->
<!-- Title: VolumeControl.CoreAudio.AudioDeviceSelector.AudioDeviceSelector Pages: 1 -->
<svg width="860pt" height="88pt"
 viewBox="0.00 0.00 860.00 88.00" xmlns="http://www.w3.org/2000/svg" xmlns:xlink="http://www.w3.org/1999/xlink">
<g id="graph0" class="graph" transform="scale(1 1) rotate(0) translate(4 84)">
<title>VolumeControl.CoreAudio.AudioDeviceSelector.AudioDeviceSelector</title>
<!-- Node1 -->
<g id="node1" class="node">
<title>Node1</title>
<g id="a_node1"><a xlink:title="Creates a new AudioDeviceSelector instance bound to the given audioDeviceManager .">
<polygon fill="#bfbfbf" stroke="black" points="0,-19 0,-60 182,-60 182,-19 0,-19"/>
<text text-anchor="start" x="8" y="-48" font-family="Helvetica,sans-Serif" font-size="10.00">VolumeControl.CoreAudio.</text>
<text text-anchor="start" x="8" y="-37" font-family="Helvetica,sans-Serif" font-size="10.00">AudioDeviceSelector.AudioDevice</text>
<text text-anchor="middle" x="91" y="-26" font-family="Helvetica,sans-Serif" font-size="10.00">Selector</text>
</a>
</g>
</g>
<!-- Node2 -->
<g id="node2" class="node">
<title>Node2</title>
<g id="a_node2"><a xlink:href="class_volume_control_1_1_core_audio_1_1_audio_device_selector.html#aa034046c08eabe307454d98622e9a3b8" target="_top" xlink:title="Changes the Selected item to the default Multimedia audio device.">
<polygon fill="none" stroke="black" points="218,-19 218,-60 404,-60 404,-19 218,-19"/>
<text text-anchor="start" x="226" y="-48" font-family="Helvetica,sans-Serif" font-size="10.00">VolumeControl.CoreAudio.</text>
<text text-anchor="start" x="226" y="-37" font-family="Helvetica,sans-Serif" font-size="10.00">AudioDeviceSelector.SelectDefault</text>
<text text-anchor="middle" x="311" y="-26" font-family="Helvetica,sans-Serif" font-size="10.00">Device</text>
</a>
</g>
</g>
<!-- Node1&#45;&gt;Node2 -->
<g id="edge1" class="edge">
<title>Node1&#45;&gt;Node2</title>
<path fill="none" stroke="midnightblue" d="M182.24,-39.5C190.57,-39.5 199.05,-39.5 207.47,-39.5"/>
<polygon fill="midnightblue" stroke="midnightblue" points="207.71,-43 217.71,-39.5 207.71,-36 207.71,-43"/>
</g>
<!-- Node3 -->
<g id="node3" class="node">
<title>Node3</title>
<g id="a_node3"><a xlink:href="class_volume_control_1_1_core_audio_1_1_audio_device_manager.html#a4cb7f138bdd481ea15b97ed57664ddcb" target="_top" xlink:title="Gets the default device for the specified deviceRole .">
<polygon fill="none" stroke="black" points="440,-19 440,-60 616,-60 616,-19 440,-19"/>
<text text-anchor="start" x="448" y="-48" font-family="Helvetica,sans-Serif" font-size="10.00">VolumeControl.CoreAudio.</text>
<text text-anchor="start" x="448" y="-37" font-family="Helvetica,sans-Serif" font-size="10.00">AudioDeviceManager.GetDefault</text>
<text text-anchor="middle" x="528" y="-26" font-family="Helvetica,sans-Serif" font-size="10.00">Device</text>
</a>
</g>
</g>
<!-- Node2&#45;&gt;Node3 -->
<g id="edge2" class="edge">
<title>Node2&#45;&gt;Node3</title>
<path fill="none" stroke="midnightblue" d="M404.11,-39.5C412.54,-39.5 421.1,-39.5 429.57,-39.5"/>
<polygon fill="midnightblue" stroke="midnightblue" points="429.85,-43 439.85,-39.5 429.85,-36 429.85,-43"/>
</g>
<!-- Node4 -->
<g id="node4" class="node">
<title>Node4</title>
<g id="a_node4"><a xlink:href="class_volume_control_1_1_log_1_1_log_writer.html#ae7780f22869e53ce4a1aad3fc6fa0bf7" target="_top" xlink:title="Write a formatted EventType.ERROR message to the log endpoint.">
<polygon fill="none" stroke="black" points="671.5,-49.5 671.5,-79.5 832.5,-79.5 832.5,-49.5 671.5,-49.5"/>
<text text-anchor="start" x="679.5" y="-67.5" font-family="Helvetica,sans-Serif" font-size="10.00">VolumeControl.Log.LogWriter.</text>
<text text-anchor="middle" x="752" y="-56.5" font-family="Helvetica,sans-Serif" font-size="10.00">Error</text>
</a>
</g>
</g>
<!-- Node3&#45;&gt;Node4 -->
<g id="edge3" class="edge">
<title>Node3&#45;&gt;Node4</title>
<path fill="none" stroke="midnightblue" d="M616.1,-49.31C630.91,-50.98 646.31,-52.71 661.18,-54.39"/>
<polygon fill="midnightblue" stroke="midnightblue" points="661.05,-57.89 671.38,-55.53 661.83,-50.94 661.05,-57.89"/>
</g>
<!-- Node5 -->
<g id="node5" class="node">
<title>Node5</title>
<g id="a_node5"><a xlink:href="class_volume_control_1_1_core_audio_1_1_audio_device_manager.html#ae55cdb8375a591e11e444aa62dd355a9" target="_top" xlink:title="Gets the AudioDevice instance associated with the given deviceID &#160;string. (MMDevice....">
<polygon fill="none" stroke="black" points="652,-0.5 652,-30.5 852,-30.5 852,-0.5 652,-0.5"/>
<text text-anchor="start" x="660" y="-18.5" font-family="Helvetica,sans-Serif" font-size="10.00">VolumeControl.CoreAudio.</text>
<text text-anchor="middle" x="752" y="-7.5" font-family="Helvetica,sans-Serif" font-size="10.00">AudioDeviceManager.FindDeviceByID</text>
</a>
</g>
</g>
<!-- Node3&#45;&gt;Node5 -->
<g id="edge4" class="edge">
<title>Node3&#45;&gt;Node5</title>
<path fill="none" stroke="midnightblue" d="M616.1,-30.08C624.48,-29.18 633.06,-28.25 641.62,-27.33"/>
<polygon fill="midnightblue" stroke="midnightblue" points="642.08,-30.8 651.65,-26.24 641.33,-23.84 642.08,-30.8"/>
</g>
</g>
</svg>
