<?xml version="1.0" encoding="UTF-8" standalone="no"?>
<!DOCTYPE svg PUBLIC "-//W3C//DTD SVG 1.1//EN"
 "http://www.w3.org/Graphics/SVG/1.1/DTD/svg11.dtd">
<!-- Generated by graphviz version 2.43.0 (0)
 -->
<!-- Title: VolumeControl.Log.AsyncLogWriter Pages: 1 -->
<!--zoomable 607 -->
<svg id="main" version="1.1" xmlns="http://www.w3.org/2000/svg" xmlns:xlink="http://www.w3.org/1999/xlink" xml:space="preserve" onload="init(evt)">
<style type="text/css"><![CDATA[
.edge:hover path { stroke: red; }
.edge:hover polygon { stroke: red; fill: red; }
]]></style>
<script type="text/javascript"><![CDATA[
var edges = document.getElementsByTagName('g');
if (edges && edges.length) {
  for (var i=0;i<edges.length;i++) {
    if (edges[i].id.substr(0,4)=='edge') {
      edges[i].setAttribute('class','edge');
    }
  }
}
]]></script>
        <defs>
                <circle id="rim" cx="0" cy="0" r="7"/>
                <circle id="rim2" cx="0" cy="0" r="3.5"/>
                <g id="zoomPlus">
                        <use xlink:href="#rim" fill="#404040">
                                <set attributeName="fill" to="#808080" begin="zoomplus.mouseover" end="zoomplus.mouseout"/>
                        </use>
                        <path d="M-4,0h8M0,-4v8" fill="none" stroke="white" stroke-width="1.5" pointer-events="none"/>
                </g>
                <g id="zoomMin">
                        <use xlink:href="#rim" fill="#404040">
                                <set attributeName="fill" to="#808080" begin="zoomminus.mouseover" end="zoomminus.mouseout"/>
                        </use>
                        <path d="M-4,0h8" fill="none" stroke="white" stroke-width="1.5" pointer-events="none"/>
                </g>
                <g id="dirArrow">
                        <path fill="none" stroke="white" stroke-width="1.5" d="M0,-3.0v7 M-2.5,-0.5L0,-3.0L2.5,-0.5"/>
                </g>
               <g id="resetDef">
                       <use xlink:href="#rim2" fill="#404040">
                               <set attributeName="fill" to="#808080" begin="reset.mouseover" end="reset.mouseout"/>
                       </use>
               </g>
        </defs>

<script type="text/javascript">
var viewWidth = 365;
var viewHeight = 607;
var sectionId = 'dynsection-1';
</script>
<script xlink:href="svgpan.js"/>
<svg id="graph" class="graph">
<g id="viewport">
<title>VolumeControl.Log.AsyncLogWriter</title>
<!-- Node1 -->
<g id="node1" class="node">
<title>Node1</title>
<g id="a_node1"><a xlink:title="Asynchonously writes messages to the log endpoint.">
<polygon fill="#bfbfbf" stroke="black" points="35,-0.5 35,-321.5 193,-321.5 193,-0.5 35,-0.5"/>
<text text-anchor="start" x="43" y="-309.5" font-family="Helvetica,sans-Serif" font-size="10.00">VolumeControl.Log.AsyncLog</text>
<text text-anchor="middle" x="114" y="-298.5" font-family="Helvetica,sans-Serif" font-size="10.00">Writer</text>
<polyline fill="none" stroke="black" points="35,-291.5 193,-291.5 "/>
<text text-anchor="start" x="43" y="-279.5" font-family="Helvetica,sans-Serif" font-size="10.00">+ DateTimeFormatString</text>
<text text-anchor="start" x="43" y="-268.5" font-family="Helvetica,sans-Serif" font-size="10.00">+ TimestampLength</text>
<text text-anchor="start" x="43" y="-257.5" font-family="Helvetica,sans-Serif" font-size="10.00">+ EventTypeLength</text>
<text text-anchor="start" x="43" y="-246.5" font-family="Helvetica,sans-Serif" font-size="10.00">+ BlankLineHeader</text>
<text text-anchor="start" x="43" y="-235.5" font-family="Helvetica,sans-Serif" font-size="10.00">+ AlwaysVisibleEventTypes</text>
<text text-anchor="start" x="43" y="-224.5" font-family="Helvetica,sans-Serif" font-size="10.00">+ EndpointEnabled</text>
<text text-anchor="start" x="43" y="-213.5" font-family="Helvetica,sans-Serif" font-size="10.00">+ EventTypeFilter</text>
<text text-anchor="start" x="43" y="-202.5" font-family="Helvetica,sans-Serif" font-size="10.00">+ IsAsyncEnabled</text>
<polyline fill="none" stroke="black" points="35,-195.5 193,-195.5 "/>
<text text-anchor="start" x="43" y="-183.5" font-family="Helvetica,sans-Serif" font-size="10.00">+ AsyncLogWriter()</text>
<text text-anchor="start" x="43" y="-172.5" font-family="Helvetica,sans-Serif" font-size="10.00">+ FilterEventType()</text>
<text text-anchor="start" x="43" y="-161.5" font-family="Helvetica,sans-Serif" font-size="10.00">+ ResetEndpoint()</text>
<text text-anchor="start" x="43" y="-150.5" font-family="Helvetica,sans-Serif" font-size="10.00">+ ResetEndpoint()</text>
<text text-anchor="start" x="43" y="-139.5" font-family="Helvetica,sans-Serif" font-size="10.00">+ LogMessage()</text>
<text text-anchor="start" x="43" y="-128.5" font-family="Helvetica,sans-Serif" font-size="10.00">+ Trace()</text>
<text text-anchor="start" x="43" y="-117.5" font-family="Helvetica,sans-Serif" font-size="10.00">+ Debug()</text>
<text text-anchor="start" x="43" y="-106.5" font-family="Helvetica,sans-Serif" font-size="10.00">+ Info()</text>
<text text-anchor="start" x="43" y="-95.5" font-family="Helvetica,sans-Serif" font-size="10.00">+ Warning()</text>
<text text-anchor="start" x="43" y="-84.5" font-family="Helvetica,sans-Serif" font-size="10.00">+ Error()</text>
<text text-anchor="start" x="43" y="-73.5" font-family="Helvetica,sans-Serif" font-size="10.00">+ Fatal()</text>
<text text-anchor="start" x="43" y="-62.5" font-family="Helvetica,sans-Serif" font-size="10.00">+ Critical()</text>
<text text-anchor="start" x="43" y="-51.5" font-family="Helvetica,sans-Serif" font-size="10.00">+ Blank()</text>
<text text-anchor="start" x="43" y="-40.5" font-family="Helvetica,sans-Serif" font-size="10.00">+ DisableAsyncNoFlush()</text>
<text text-anchor="start" x="43" y="-29.5" font-family="Helvetica,sans-Serif" font-size="10.00">+ Dispose()</text>
<text text-anchor="start" x="43" y="-18.5" font-family="Helvetica,sans-Serif" font-size="10.00">~ Indent()</text>
<text text-anchor="start" x="43" y="-7.5" font-family="Helvetica,sans-Serif" font-size="10.00"># WriteLogMessage()</text>
</a>
</g>
</g>
<!-- Node2 -->
<g id="node2" class="node">
<title>Node2</title>
<g id="a_node2"><a xlink:href="class_volume_control_1_1_log_1_1_threaded_logger.html" target="_top" xlink:title="Manages a background thread to write queued log messages. The queue can be disabled at runtime to swi...">
<polygon fill="none" stroke="black" points="53,-386 53,-487 175,-487 175,-386 53,-386"/>
<text text-anchor="middle" x="114" y="-475" font-family="Helvetica,sans-Serif" font-size="10.00">ThreadedLogger</text>
<polyline fill="none" stroke="black" points="53,-468 175,-468 "/>
<text text-anchor="middle" x="114" y="-456" font-family="Helvetica,sans-Serif" font-size="10.00"> </text>
<polyline fill="none" stroke="black" points="53,-449 175,-449 "/>
<text text-anchor="start" x="61" y="-437" font-family="Helvetica,sans-Serif" font-size="10.00">+ ThreadedLogger()</text>
<text text-anchor="start" x="61" y="-426" font-family="Helvetica,sans-Serif" font-size="10.00">+ Flush()</text>
<text text-anchor="start" x="61" y="-415" font-family="Helvetica,sans-Serif" font-size="10.00">+ Dispose()</text>
<text text-anchor="start" x="61" y="-404" font-family="Helvetica,sans-Serif" font-size="10.00"># WriteLogMessage()</text>
<text text-anchor="start" x="61" y="-393" font-family="Helvetica,sans-Serif" font-size="10.00"># LogMessage()</text>
</a>
</g>
</g>
<!-- Node2&#45;&gt;Node1 -->
<g id="edge1" class="edge">
<title>Node2&#45;&gt;Node1</title>
<path fill="none" stroke="midnightblue" d="M114,-375.59C114,-359.29 114,-340.84 114,-321.77"/>
<polygon fill="none" stroke="midnightblue" points="110.5,-375.97 114,-385.97 117.5,-375.97 110.5,-375.97"/>
</g>
<!-- Node3 -->
<g id="node3" class="node">
<title>Node3</title>
<g id="a_node3"><a xlink:title=" ">
<polygon fill="none" stroke="#bfbfbf" points="0,-541.5 0,-598.5 74,-598.5 74,-541.5 0,-541.5"/>
<text text-anchor="middle" x="37" y="-586.5" font-family="Helvetica,sans-Serif" font-size="10.00">IDisposable</text>
<polyline fill="none" stroke="#bfbfbf" points="0,-579.5 74,-579.5 "/>
<text text-anchor="middle" x="37" y="-567.5" font-family="Helvetica,sans-Serif" font-size="10.00"> </text>
<polyline fill="none" stroke="#bfbfbf" points="0,-560.5 74,-560.5 "/>
<text text-anchor="middle" x="37" y="-548.5" font-family="Helvetica,sans-Serif" font-size="10.00"> </text>
</a>
</g>
</g>
<!-- Node3&#45;&gt;Node1 -->
<g id="edge3" class="edge">
<title>Node3&#45;&gt;Node1</title>
<path fill="none" stroke="midnightblue" d="M35.07,-531.01C33.77,-490.51 33.83,-424.69 44,-369 46.84,-353.42 50.62,-337.41 54.95,-321.54"/>
<polygon fill="none" stroke="midnightblue" points="31.58,-531.36 35.45,-541.23 38.58,-531.11 31.58,-531.36"/>
</g>
<!-- Node3&#45;&gt;Node2 -->
<g id="edge2" class="edge">
<title>Node3&#45;&gt;Node2</title>
<path fill="none" stroke="midnightblue" d="M58.34,-532.55C66.58,-518.49 76.13,-502.18 84.97,-487.08"/>
<polygon fill="none" stroke="midnightblue" points="55.17,-531.04 53.14,-541.43 61.22,-534.57 55.17,-531.04"/>
</g>
<!-- Node4 -->
<g id="node4" class="node">
<title>Node4</title>
<g id="a_node4"><a xlink:href="interface_volume_control_1_1_log_1_1_endpoints_1_1_i_endpoint.html" target="_top" xlink:title="Represents an endpoint output target for a log writer, and exposes helper methods for interacting wit...">
<polygon fill="none" stroke="black" points="193.5,-369.5 193.5,-503.5 356.5,-503.5 356.5,-369.5 193.5,-369.5"/>
<text text-anchor="start" x="201.5" y="-491.5" font-family="Helvetica,sans-Serif" font-size="10.00">VolumeControl.Log.Endpoints.</text>
<text text-anchor="middle" x="275" y="-480.5" font-family="Helvetica,sans-Serif" font-size="10.00">IEndpoint</text>
<polyline fill="none" stroke="black" points="193.5,-473.5 356.5,-473.5 "/>
<text text-anchor="start" x="201.5" y="-461.5" font-family="Helvetica,sans-Serif" font-size="10.00">+ Enabled</text>
<polyline fill="none" stroke="black" points="193.5,-454.5 356.5,-454.5 "/>
<text text-anchor="start" x="201.5" y="-442.5" font-family="Helvetica,sans-Serif" font-size="10.00">+ GetReader()</text>
<text text-anchor="start" x="201.5" y="-431.5" font-family="Helvetica,sans-Serif" font-size="10.00">+ GetWriter()</text>
<text text-anchor="start" x="201.5" y="-420.5" font-family="Helvetica,sans-Serif" font-size="10.00">+ WriteRaw()</text>
<text text-anchor="start" x="201.5" y="-409.5" font-family="Helvetica,sans-Serif" font-size="10.00">+ WriteRawLine()</text>
<text text-anchor="start" x="201.5" y="-398.5" font-family="Helvetica,sans-Serif" font-size="10.00">+ ReadRaw()</text>
<text text-anchor="start" x="201.5" y="-387.5" font-family="Helvetica,sans-Serif" font-size="10.00">+ ReadRawLine()</text>
<text text-anchor="start" x="201.5" y="-376.5" font-family="Helvetica,sans-Serif" font-size="10.00">+ Reset()</text>
</a>
</g>
</g>
<!-- Node4&#45;&gt;Node1 -->
<g id="edge4" class="edge">
<title>Node4&#45;&gt;Node1</title>
<path fill="none" stroke="#404040" d="M236.03,-369.29C224.78,-350.19 212.04,-328.55 199.15,-306.64"/>
<polygon fill="none" stroke="#404040" points="199.1,-306.56 192.61,-303.42 193.01,-296.22 199.5,-299.36 199.1,-306.56"/>
<text text-anchor="middle" x="249.5" y="-343" font-family="Helvetica,sans-Serif" font-size="10.00"> ~Endpoint</text>
</g>
</g>
</svg>
        <g id="navigator" transform="translate(0 0)" fill="#404254">
                <rect fill="#f2f5e9" fill-opacity="0.5" stroke="#606060" stroke-width=".5" x="0" y="0" width="60" height="60"/>
                <use id="zoomplus" xlink:href="#zoomPlus" x="17" y="9" onmousedown="handleZoom(evt,'in')"/>
                <use id="zoomminus" xlink:href="#zoomMin" x="42" y="9" onmousedown="handleZoom(evt,'out')"/>
                <use id="reset" xlink:href="#resetDef" x="30" y="36" onmousedown="handleReset()"/>
                <g id="arrowUp" xlink:href="#dirArrow" transform="translate(30 24)" onmousedown="handlePan(0,-1)">
                  <use xlink:href="#rim" fill="#404040">
                        <set attributeName="fill" to="#808080" begin="arrowUp.mouseover" end="arrowUp.mouseout"/>
                  </use>
                  <path fill="none" stroke="white" stroke-width="1.5" d="M0,-3.0v7 M-2.5,-0.5L0,-3.0L2.5,-0.5"/>
                </g>
                <g id="arrowRight" xlink:href="#dirArrow" transform="rotate(90) translate(36 -43)" onmousedown="handlePan(1,0)">
                  <use xlink:href="#rim" fill="#404040">
                        <set attributeName="fill" to="#808080" begin="arrowRight.mouseover" end="arrowRight.mouseout"/>
                  </use>
                  <path fill="none" stroke="white" stroke-width="1.5" d="M0,-3.0v7 M-2.5,-0.5L0,-3.0L2.5,-0.5"/>
                </g>
                <g id="arrowDown" xlink:href="#dirArrow" transform="rotate(180) translate(-30 -48)" onmousedown="handlePan(0,1)">
                  <use xlink:href="#rim" fill="#404040">
                        <set attributeName="fill" to="#808080" begin="arrowDown.mouseover" end="arrowDown.mouseout"/>
                  </use>
                  <path fill="none" stroke="white" stroke-width="1.5" d="M0,-3.0v7 M-2.5,-0.5L0,-3.0L2.5,-0.5"/>
                </g>
                <g id="arrowLeft" xlink:href="#dirArrow" transform="rotate(270) translate(-36 17)" onmousedown="handlePan(-1,0)">
                  <use xlink:href="#rim" fill="#404040">
                        <set attributeName="fill" to="#808080" begin="arrowLeft.mouseover" end="arrowLeft.mouseout"/>
                  </use>
                  <path fill="none" stroke="white" stroke-width="1.5" d="M0,-3.0v7 M-2.5,-0.5L0,-3.0L2.5,-0.5"/>
                </g>
        </g>
        <svg viewBox="0 0 15 15" width="100%" height="30px" preserveAspectRatio="xMaxYMin meet">
         <g id="arrow_out" transform="scale(0.3 0.3)">
          <a xlink:href="class_volume_control_1_1_log_1_1_async_log_writer__coll__graph_org.svg" target="_base">
           <rect id="button" ry="5" rx="5" y="6" x="6" height="38" width="38"
                fill="#f2f5e9" fill-opacity="0.5" stroke="#606060" stroke-width="1.0"/>
           <path id="arrow"
             d="M 11.500037,31.436501 C 11.940474,20.09759 22.043105,11.32322 32.158766,21.979434 L 37.068811,17.246167 C 37.068811,17.246167 37.088388,32 37.088388,32 L 22.160133,31.978069 C 22.160133,31.978069 26.997745,27.140456 26.997745,27.140456 C 18.528582,18.264221 13.291696,25.230495 11.500037,31.436501 z"
             style="fill:#404040;"/>
          </a>
         </g>
        </svg>
</svg>
