<?xml version="1.0" encoding="UTF-8" standalone="no"?>
<!DOCTYPE svg PUBLIC "-//W3C//DTD SVG 1.1//EN"
 "http://www.w3.org/Graphics/SVG/1.1/DTD/svg11.dtd">
<!-- Generated by graphviz version 2.43.0 (0)
 -->
<!-- Title: VolumeControl.CoreAudio.AudioSession Pages: 1 -->
<svg width="683pt" height="529pt"
 viewBox="0.00 0.00 682.50 529.00" xmlns="http://www.w3.org/2000/svg" xmlns:xlink="http://www.w3.org/1999/xlink">
<g id="graph0" class="graph" transform="scale(1 1) rotate(0) translate(4 525)">
<title>VolumeControl.CoreAudio.AudioSession</title>
<!-- Node1 -->
<g id="node1" class="node">
<title>Node1</title>
<g id="a_node1"><a xlink:title="A single audio session running on an audio device.">
<polygon fill="#bfbfbf" stroke="black" points="219,-0.5 219,-288.5 398,-288.5 398,-0.5 219,-0.5"/>
<text text-anchor="start" x="227" y="-276.5" font-family="Helvetica,sans-Serif" font-size="10.00">VolumeControl.CoreAudio.</text>
<text text-anchor="middle" x="308.5" y="-265.5" font-family="Helvetica,sans-Serif" font-size="10.00">AudioSession</text>
<polyline fill="none" stroke="black" points="219,-258.5 398,-258.5 "/>
<text text-anchor="start" x="227" y="-246.5" font-family="Helvetica,sans-Serif" font-size="10.00">+ ProcessIdentifierSeparatorChar</text>
<text text-anchor="start" x="227" y="-235.5" font-family="Helvetica,sans-Serif" font-size="10.00">+ ProcessIdentifierInputChar</text>
<text text-anchor="start" x="227" y="-224.5" font-family="Helvetica,sans-Serif" font-size="10.00">+ ProcessIdentifierOutputChar</text>
<text text-anchor="start" x="227" y="-213.5" font-family="Helvetica,sans-Serif" font-size="10.00">+ processId</text>
<text text-anchor="start" x="227" y="-202.5" font-family="Helvetica,sans-Serif" font-size="10.00">+ AudioDevice</text>
<text text-anchor="start" x="227" y="-191.5" font-family="Helvetica,sans-Serif" font-size="10.00">+ AudioSessionControl</text>
<text text-anchor="start" x="227" y="-180.5" font-family="Helvetica,sans-Serif" font-size="10.00">+ SimpleAudioVolume</text>
<text text-anchor="start" x="227" y="-169.5" font-family="Helvetica,sans-Serif" font-size="10.00">+ AudioMeterInformation</text>
<text text-anchor="start" x="227" y="-158.5" font-family="Helvetica,sans-Serif" font-size="10.00">+ DataFlow</text>
<text text-anchor="start" x="227" y="-147.5" font-family="Helvetica,sans-Serif" font-size="10.00">+ PID</text>
<text text-anchor="start" x="227" y="-136.5" font-family="Helvetica,sans-Serif" font-size="10.00">+ ProcessName</text>
<text text-anchor="start" x="227" y="-125.5" font-family="Helvetica,sans-Serif" font-size="10.00">+ Name</text>
<text text-anchor="start" x="227" y="-114.5" font-family="Helvetica,sans-Serif" font-size="10.00">+ HasCustomName</text>
<text text-anchor="start" x="227" y="-103.5" font-family="Helvetica,sans-Serif" font-size="10.00">+ ProcessIdentifier</text>
<text text-anchor="start" x="227" y="-92.5" font-family="Helvetica,sans-Serif" font-size="10.00">and 7 more...</text>
<polyline fill="none" stroke="black" points="219,-85.5 398,-85.5 "/>
<text text-anchor="start" x="227" y="-73.5" font-family="Helvetica,sans-Serif" font-size="10.00">+ ToString()</text>
<text text-anchor="start" x="227" y="-62.5" font-family="Helvetica,sans-Serif" font-size="10.00">+ GetProcess()</text>
<text text-anchor="start" x="227" y="-51.5" font-family="Helvetica,sans-Serif" font-size="10.00">+ GetTargetInfo()</text>
<text text-anchor="start" x="227" y="-40.5" font-family="Helvetica,sans-Serif" font-size="10.00">+ HasMatchingName()</text>
<text text-anchor="start" x="227" y="-29.5" font-family="Helvetica,sans-Serif" font-size="10.00">+ Dispose()</text>
<text text-anchor="start" x="227" y="-18.5" font-family="Helvetica,sans-Serif" font-size="10.00">+ TryParseProcessIdentifier()</text>
<text text-anchor="start" x="227" y="-7.5" font-family="Helvetica,sans-Serif" font-size="10.00">~ AudioSession()</text>
</a>
</g>
</g>
<!-- Node2 -->
<g id="node2" class="node">
<title>Node2</title>
<g id="a_node2"><a xlink:href="interface_volume_control_1_1_core_audio_1_1_interfaces_1_1_i_audio_control.html" target="_top" xlink:title="Represents an audio instance with a controllable volume level and mute state.">
<polygon fill="none" stroke="black" points="0,-441.5 0,-520.5 97,-520.5 97,-441.5 0,-441.5"/>
<text text-anchor="middle" x="48.5" y="-508.5" font-family="Helvetica,sans-Serif" font-size="10.00">IAudioControl</text>
<polyline fill="none" stroke="black" points="0,-501.5 97,-501.5 "/>
<text text-anchor="start" x="8" y="-489.5" font-family="Helvetica,sans-Serif" font-size="10.00">+ NativeVolume</text>
<text text-anchor="start" x="8" y="-478.5" font-family="Helvetica,sans-Serif" font-size="10.00">+ Volume</text>
<text text-anchor="start" x="8" y="-467.5" font-family="Helvetica,sans-Serif" font-size="10.00">+ Mute</text>
<polyline fill="none" stroke="black" points="0,-460.5 97,-460.5 "/>
<text text-anchor="middle" x="48.5" y="-448.5" font-family="Helvetica,sans-Serif" font-size="10.00"> </text>
</a>
</g>
</g>
<!-- Node2&#45;&gt;Node1 -->
<g id="edge1" class="edge">
<title>Node2&#45;&gt;Node1</title>
<path fill="none" stroke="midnightblue" d="M25.1,-431.76C13.11,-399.71 4.43,-357.68 22.5,-325 63.99,-249.97 151.42,-202.09 218.75,-174.82"/>
<polygon fill="none" stroke="midnightblue" points="21.97,-433.35 28.9,-441.36 28.48,-430.77 21.97,-433.35"/>
</g>
<!-- Node4 -->
<g id="node4" class="node">
<title>Node4</title>
<g id="a_node4"><a xlink:href="interface_volume_control_1_1_core_audio_1_1_interfaces_1_1_i_hideable_audio_control.html" target="_top" xlink:title="Represents an audio instance that can be prevented from becoming selected.">
<polygon fill="none" stroke="black" points="31.5,-336.5 31.5,-393.5 157.5,-393.5 157.5,-336.5 31.5,-336.5"/>
<text text-anchor="middle" x="94.5" y="-381.5" font-family="Helvetica,sans-Serif" font-size="10.00">IHideableAudioControl</text>
<polyline fill="none" stroke="black" points="31.5,-374.5 157.5,-374.5 "/>
<text text-anchor="start" x="39.5" y="-362.5" font-family="Helvetica,sans-Serif" font-size="10.00">+ IsHidden</text>
<polyline fill="none" stroke="black" points="31.5,-355.5 157.5,-355.5 "/>
<text text-anchor="middle" x="94.5" y="-343.5" font-family="Helvetica,sans-Serif" font-size="10.00"> </text>
</a>
</g>
</g>
<!-- Node2&#45;&gt;Node4 -->
<g id="edge4" class="edge">
<title>Node2&#45;&gt;Node4</title>
<path fill="none" stroke="midnightblue" d="M67.85,-432.05C73.12,-418.99 78.65,-405.28 83.3,-393.75"/>
<polygon fill="none" stroke="midnightblue" points="64.57,-430.82 64.07,-441.4 71.06,-433.44 64.57,-430.82"/>
</g>
<!-- Node3 -->
<g id="node3" class="node">
<title>Node3</title>
<g id="a_node3"><a xlink:href="interface_volume_control_1_1_core_audio_1_1_interfaces_1_1_i_read_only_audio_control.html" target="_top" xlink:title="Represents an audio instance with a read&#45;only volume level and mute state.">
<polygon fill="none" stroke="black" points="175.5,-325.5 175.5,-404.5 305.5,-404.5 305.5,-325.5 175.5,-325.5"/>
<text text-anchor="middle" x="240.5" y="-392.5" font-family="Helvetica,sans-Serif" font-size="10.00">IReadOnlyAudioControl</text>
<polyline fill="none" stroke="black" points="175.5,-385.5 305.5,-385.5 "/>
<text text-anchor="start" x="183.5" y="-373.5" font-family="Helvetica,sans-Serif" font-size="10.00">+ NativeVolume</text>
<text text-anchor="start" x="183.5" y="-362.5" font-family="Helvetica,sans-Serif" font-size="10.00">+ Volume</text>
<text text-anchor="start" x="183.5" y="-351.5" font-family="Helvetica,sans-Serif" font-size="10.00">+ Mute</text>
<polyline fill="none" stroke="black" points="175.5,-344.5 305.5,-344.5 "/>
<text text-anchor="middle" x="240.5" y="-332.5" font-family="Helvetica,sans-Serif" font-size="10.00"> </text>
</a>
</g>
</g>
<!-- Node3&#45;&gt;Node1 -->
<g id="edge2" class="edge">
<title>Node3&#45;&gt;Node1</title>
<path fill="none" stroke="midnightblue" d="M255.48,-315.87C258.11,-307.42 260.96,-298.25 263.94,-288.69"/>
<polygon fill="none" stroke="midnightblue" points="252.13,-314.85 252.5,-325.44 258.81,-316.93 252.13,-314.85"/>
</g>
<!-- Node4&#45;&gt;Node1 -->
<g id="edge3" class="edge">
<title>Node4&#45;&gt;Node1</title>
<path fill="none" stroke="midnightblue" d="M128.83,-328.95C153.13,-304.13 186.93,-269.63 218.65,-237.24"/>
<polygon fill="none" stroke="midnightblue" points="126.1,-326.73 121.6,-336.33 131.1,-331.63 126.1,-326.73"/>
</g>
<!-- Node5 -->
<g id="node5" class="node">
<title>Node5</title>
<g id="a_node5"><a xlink:href="interface_volume_control_1_1_core_audio_1_1_interfaces_1_1_i_audio_peak_meter.html" target="_top" xlink:title="Represents some kind of object that has an audio peak meter.">
<polygon fill="none" stroke="black" points="324,-336.5 324,-393.5 431,-393.5 431,-336.5 324,-336.5"/>
<text text-anchor="middle" x="377.5" y="-381.5" font-family="Helvetica,sans-Serif" font-size="10.00">IAudioPeakMeter</text>
<polyline fill="none" stroke="black" points="324,-374.5 431,-374.5 "/>
<text text-anchor="start" x="332" y="-362.5" font-family="Helvetica,sans-Serif" font-size="10.00">+ PeakMeterValue</text>
<polyline fill="none" stroke="black" points="324,-355.5 431,-355.5 "/>
<text text-anchor="middle" x="377.5" y="-343.5" font-family="Helvetica,sans-Serif" font-size="10.00"> </text>
</a>
</g>
</g>
<!-- Node5&#45;&gt;Node1 -->
<g id="edge5" class="edge">
<title>Node5&#45;&gt;Node1</title>
<path fill="none" stroke="midnightblue" d="M365.7,-326.64C362.19,-315.52 358.11,-302.61 353.79,-288.9"/>
<polygon fill="none" stroke="midnightblue" points="362.41,-327.84 368.76,-336.33 369.09,-325.74 362.41,-327.84"/>
</g>
<!-- Node6 -->
<g id="node6" class="node">
<title>Node6</title>
<g id="a_node6"><a xlink:title=" ">
<polygon fill="none" stroke="#bfbfbf" points="449,-336.5 449,-393.5 582,-393.5 582,-336.5 449,-336.5"/>
<text text-anchor="middle" x="515.5" y="-381.5" font-family="Helvetica,sans-Serif" font-size="10.00">INotifyPropertyChanged</text>
<polyline fill="none" stroke="#bfbfbf" points="449,-374.5 582,-374.5 "/>
<text text-anchor="middle" x="515.5" y="-362.5" font-family="Helvetica,sans-Serif" font-size="10.00"> </text>
<polyline fill="none" stroke="#bfbfbf" points="449,-355.5 582,-355.5 "/>
<text text-anchor="middle" x="515.5" y="-343.5" font-family="Helvetica,sans-Serif" font-size="10.00"> </text>
</a>
</g>
</g>
<!-- Node6&#45;&gt;Node1 -->
<g id="edge6" class="edge">
<title>Node6&#45;&gt;Node1</title>
<path fill="none" stroke="midnightblue" d="M482.2,-328.85C459.41,-304.79 428.03,-271.67 398.21,-240.2"/>
<polygon fill="none" stroke="midnightblue" points="479.86,-331.47 489.28,-336.33 484.95,-326.66 479.86,-331.47"/>
</g>
<!-- Node7 -->
<g id="node7" class="node">
<title>Node7</title>
<g id="a_node7"><a xlink:title=" ">
<polygon fill="none" stroke="#bfbfbf" points="600.5,-336.5 600.5,-393.5 674.5,-393.5 674.5,-336.5 600.5,-336.5"/>
<text text-anchor="middle" x="637.5" y="-381.5" font-family="Helvetica,sans-Serif" font-size="10.00">IDisposable</text>
<polyline fill="none" stroke="#bfbfbf" points="600.5,-374.5 674.5,-374.5 "/>
<text text-anchor="middle" x="637.5" y="-362.5" font-family="Helvetica,sans-Serif" font-size="10.00"> </text>
<polyline fill="none" stroke="#bfbfbf" points="600.5,-355.5 674.5,-355.5 "/>
<text text-anchor="middle" x="637.5" y="-343.5" font-family="Helvetica,sans-Serif" font-size="10.00"> </text>
</a>
</g>
</g>
<!-- Node7&#45;&gt;Node1 -->
<g id="edge7" class="edge">
<title>Node7&#45;&gt;Node1</title>
<path fill="none" stroke="midnightblue" d="M597.86,-329.82C595.73,-328.16 593.6,-326.55 591.5,-325 529.05,-279.06 454.94,-232.31 398.23,-198.05"/>
<polygon fill="none" stroke="midnightblue" points="596.04,-332.84 606.04,-336.35 600.41,-327.37 596.04,-332.84"/>
</g>
</g>
</svg>
