<?xml version="1.0" encoding="UTF-8" standalone="no"?>
<!DOCTYPE svg PUBLIC "-//W3C//DTD SVG 1.1//EN"
 "http://www.w3.org/Graphics/SVG/1.1/DTD/svg11.dtd">
<!-- Generated by graphviz version 2.43.0 (0)
 -->
<!-- Title: VolumeControl.WPF.HorizontalScroll.RemovePreviewMouseWheelHorizontalHandler Pages: 1 -->
<svg width="483pt" height="110pt"
 viewBox="0.00 0.00 483.00 110.00" xmlns="http://www.w3.org/2000/svg" xmlns:xlink="http://www.w3.org/1999/xlink">
<g id="graph0" class="graph" transform="scale(1 1) rotate(0) translate(4 106)">
<title>VolumeControl.WPF.HorizontalScroll.RemovePreviewMouseWheelHorizontalHandler</title>
<!-- Node1 -->
<g id="node1" class="node">
<title>Node1</title>
<g id="a_node1"><a xlink:title="Removes the specified handler &#160;from the PreviewMouseWheelHorizontalEvent.">
<polygon fill="#bfbfbf" stroke="black" points="236,-30.5 236,-71.5 475,-71.5 475,-30.5 236,-30.5"/>
<text text-anchor="start" x="244" y="-59.5" font-family="Helvetica,sans-Serif" font-size="10.00">VolumeControl.WPF.Horizontal</text>
<text text-anchor="start" x="244" y="-48.5" font-family="Helvetica,sans-Serif" font-size="10.00">Scroll.RemovePreviewMouseWheelHorizontal</text>
<text text-anchor="middle" x="355.5" y="-37.5" font-family="Helvetica,sans-Serif" font-size="10.00">Handler</text>
</a>
</g>
</g>
<!-- Node2 -->
<g id="node2" class="node">
<title>Node2</title>
<g id="a_node2"><a xlink:href="class_volume_control_1_1_w_p_f_1_1_behaviors_1_1_scroll_viewer_horizontal_scroll_behavior.html#aaafc40efe99949c47faabdee5104170d" target="_top" xlink:title=" ">
<polygon fill="none" stroke="black" points="0,-60.5 0,-101.5 200,-101.5 200,-60.5 0,-60.5"/>
<text text-anchor="start" x="8" y="-89.5" font-family="Helvetica,sans-Serif" font-size="10.00">VolumeControl.WPF.Behaviors.</text>
<text text-anchor="start" x="8" y="-78.5" font-family="Helvetica,sans-Serif" font-size="10.00">ScrollViewerHorizontalScrollBehavior.</text>
<text text-anchor="middle" x="100" y="-67.5" font-family="Helvetica,sans-Serif" font-size="10.00">OnDetaching</text>
</a>
</g>
</g>
<!-- Node1&#45;&gt;Node2 -->
<g id="edge1" class="edge">
<title>Node1&#45;&gt;Node2</title>
<path fill="none" stroke="midnightblue" d="M225.79,-66.23C217.16,-67.25 208.54,-68.27 200.1,-69.27"/>
<polygon fill="midnightblue" stroke="midnightblue" points="226.4,-69.68 235.91,-65.03 225.57,-62.73 226.4,-69.68"/>
</g>
<!-- Node3 -->
<g id="node3" class="node">
<title>Node3</title>
<g id="a_node3"><a xlink:href="class_volume_control_1_1_w_p_f_1_1_behaviors_1_1_text_box_horizontal_scroll_behavior.html#af6da2297216c6b24b9a50e4ada300a15" target="_top" xlink:title=" ">
<polygon fill="none" stroke="black" points="10.5,-0.5 10.5,-41.5 189.5,-41.5 189.5,-0.5 10.5,-0.5"/>
<text text-anchor="start" x="18.5" y="-29.5" font-family="Helvetica,sans-Serif" font-size="10.00">VolumeControl.WPF.Behaviors.</text>
<text text-anchor="start" x="18.5" y="-18.5" font-family="Helvetica,sans-Serif" font-size="10.00">TextBoxHorizontalScrollBehavior.</text>
<text text-anchor="middle" x="100" y="-7.5" font-family="Helvetica,sans-Serif" font-size="10.00">OnDetaching</text>
</a>
</g>
</g>
<!-- Node1&#45;&gt;Node3 -->
<g id="edge2" class="edge">
<title>Node1&#45;&gt;Node3</title>
<path fill="none" stroke="midnightblue" d="M225.67,-35.75C213.47,-34.31 201.29,-32.87 189.59,-31.48"/>
<polygon fill="midnightblue" stroke="midnightblue" points="225.57,-39.27 235.91,-36.97 226.4,-32.32 225.57,-39.27"/>
</g>
</g>
</svg>
