<?xml version="1.0" encoding="UTF-8" standalone="no"?>
<!DOCTYPE svg PUBLIC "-//W3C//DTD SVG 1.1//EN"
 "http://www.w3.org/Graphics/SVG/1.1/DTD/svg11.dtd">
<!-- Generated by graphviz version 2.43.0 (0)
 -->
<!-- Title: VolumeControl.SDK.AudioDeviceSelector.SelectDefaultDevice Pages: 1 -->
<svg width="564pt" height="39pt"
 viewBox="0.00 0.00 564.00 39.00" xmlns="http://www.w3.org/2000/svg" xmlns:xlink="http://www.w3.org/1999/xlink">
<g id="graph0" class="graph" transform="scale(1 1) rotate(0) translate(4 35)">
<title>VolumeControl.SDK.AudioDeviceSelector.SelectDefaultDevice</title>
<!-- Node1 -->
<g id="node1" class="node">
<title>Node1</title>
<g id="a_node1"><a xlink:title="Changes the Selected item to the default Multimedia audio device.">
<polygon fill="#bfbfbf" stroke="black" points="0,-0.5 0,-30.5 176,-30.5 176,-0.5 0,-0.5"/>
<text text-anchor="start" x="8" y="-18.5" font-family="Helvetica,sans-Serif" font-size="10.00">VolumeControl.SDK.AudioDevice</text>
<text text-anchor="middle" x="88" y="-7.5" font-family="Helvetica,sans-Serif" font-size="10.00">Selector.SelectDefaultDevice</text>
</a>
</g>
</g>
<!-- Node2 -->
<g id="node2" class="node">
<title>Node2</title>
<g id="a_node2"><a xlink:href="class_audio_1_1_audio_device_manager.html#af13e3db11d5d147097fa6d53010cd4e7" target="_top" xlink:title="Gets the default device for the specified deviceRole .">
<polygon fill="none" stroke="black" points="212,-0.5 212,-30.5 366,-30.5 366,-0.5 212,-0.5"/>
<text text-anchor="start" x="220" y="-18.5" font-family="Helvetica,sans-Serif" font-size="10.00">Audio.AudioDeviceManager.</text>
<text text-anchor="middle" x="289" y="-7.5" font-family="Helvetica,sans-Serif" font-size="10.00">GetDefaultDevice</text>
</a>
</g>
</g>
<!-- Node1&#45;&gt;Node2 -->
<g id="edge1" class="edge">
<title>Node1&#45;&gt;Node2</title>
<path fill="none" stroke="midnightblue" d="M176.28,-15.5C184.67,-15.5 193.18,-15.5 201.56,-15.5"/>
<polygon fill="midnightblue" stroke="midnightblue" points="201.71,-19 211.71,-15.5 201.71,-12 201.71,-19"/>
</g>
<!-- Node3 -->
<g id="node3" class="node">
<title>Node3</title>
<g id="a_node3"><a xlink:href="class_audio_1_1_audio_device_manager.html#a713202294566061e48e7f3415a7691e3" target="_top" xlink:title="Gets the AudioDevice instance associated with the given deviceID &#160;string. (MMDevice....">
<polygon fill="none" stroke="black" points="402,-0.5 402,-30.5 556,-30.5 556,-0.5 402,-0.5"/>
<text text-anchor="start" x="410" y="-18.5" font-family="Helvetica,sans-Serif" font-size="10.00">Audio.AudioDeviceManager.</text>
<text text-anchor="middle" x="479" y="-7.5" font-family="Helvetica,sans-Serif" font-size="10.00">FindDeviceByID</text>
</a>
</g>
</g>
<!-- Node2&#45;&gt;Node3 -->
<g id="edge2" class="edge">
<title>Node2&#45;&gt;Node3</title>
<path fill="none" stroke="midnightblue" d="M366.2,-15.5C374.52,-15.5 383.03,-15.5 391.47,-15.5"/>
<polygon fill="midnightblue" stroke="midnightblue" points="391.7,-19 401.7,-15.5 391.7,-12 391.7,-19"/>
</g>
</g>
</svg>
