<?xml version="1.0" encoding="UTF-8" standalone="no"?>
<!DOCTYPE svg PUBLIC "-//W3C//DTD SVG 1.1//EN"
 "http://www.w3.org/Graphics/SVG/1.1/DTD/svg11.dtd">
<!-- Generated by graphviz version 2.43.0 (0)
 -->
<!-- Title: VolumeControl.Audio.Collections.AudioDeviceCollection.FindDeviceWithMMDevice Pages: 1 -->
<svg width="729pt" height="88pt"
 viewBox="0.00 0.00 729.00 88.00" xmlns="http://www.w3.org/2000/svg" xmlns:xlink="http://www.w3.org/1999/xlink">
<g id="graph0" class="graph" transform="scale(1 1) rotate(0) translate(4 84)">
<title>VolumeControl.Audio.Collections.AudioDeviceCollection.FindDeviceWithMMDevice</title>
<!-- Node1 -->
<g id="node1" class="node">
<title>Node1</title>
<g id="a_node1"><a xlink:title="Gets the AudioDevice associated with the given mmDevice .">
<polygon fill="#bfbfbf" stroke="black" points="515,-19 515,-60 721,-60 721,-19 515,-19"/>
<text text-anchor="start" x="523" y="-48" font-family="Helvetica,sans-Serif" font-size="10.00">VolumeControl.Audio.Collections.</text>
<text text-anchor="start" x="523" y="-37" font-family="Helvetica,sans-Serif" font-size="10.00">AudioDeviceCollection.FindDeviceWith</text>
<text text-anchor="middle" x="618" y="-26" font-family="Helvetica,sans-Serif" font-size="10.00">MMDevice</text>
</a>
</g>
</g>
<!-- Node2 -->
<g id="node2" class="node">
<title>Node2</title>
<g id="a_node2"><a xlink:href="class_volume_control_1_1_audio_1_1_collections_1_1_audio_device_collection.html#acd7d7cf31e128ba32f3c98397e0c1f52" target="_top" xlink:title="Reloads all AudioDevices using the default MMDeviceEnumerator.">
<polygon fill="none" stroke="black" points="276,-24.5 276,-54.5 479,-54.5 479,-24.5 276,-24.5"/>
<text text-anchor="start" x="284" y="-42.5" font-family="Helvetica,sans-Serif" font-size="10.00">VolumeControl.Audio.Collections.</text>
<text text-anchor="middle" x="377.5" y="-31.5" font-family="Helvetica,sans-Serif" font-size="10.00">AudioDeviceCollection.ReloadDevices</text>
</a>
</g>
</g>
<!-- Node1&#45;&gt;Node2 -->
<g id="edge1" class="edge">
<title>Node1&#45;&gt;Node2</title>
<path fill="none" stroke="midnightblue" d="M504.57,-39.5C496.15,-39.5 487.68,-39.5 479.33,-39.5"/>
<polygon fill="midnightblue" stroke="midnightblue" points="504.82,-43 514.82,-39.5 504.82,-36 504.82,-43"/>
</g>
<!-- Node3 -->
<g id="node3" class="node">
<title>Node3</title>
<g id="a_node3"><a xlink:href="class_volume_control_1_1_audio_1_1_collections_1_1_audio_device_collection.html#ab766b6fcbad7a94910be4cced22c018a" target="_top" xlink:title="Creates a new AudioDeviceCollection instance with the given NAudio.CoreAudioApi.DataFlow.">
<polygon fill="none" stroke="black" points="0,-49.5 0,-79.5 240,-79.5 240,-49.5 0,-49.5"/>
<text text-anchor="start" x="8" y="-67.5" font-family="Helvetica,sans-Serif" font-size="10.00">VolumeControl.Audio.Collections.</text>
<text text-anchor="middle" x="120" y="-56.5" font-family="Helvetica,sans-Serif" font-size="10.00">AudioDeviceCollection.AudioDeviceCollection</text>
</a>
</g>
</g>
<!-- Node2&#45;&gt;Node3 -->
<g id="edge2" class="edge">
<title>Node2&#45;&gt;Node3</title>
<path fill="none" stroke="midnightblue" d="M265.92,-50.32C257.39,-51.16 248.75,-52 240.16,-52.84"/>
<polygon fill="midnightblue" stroke="midnightblue" points="266.27,-53.8 275.89,-49.34 265.59,-46.84 266.27,-53.8"/>
</g>
<!-- Node4 -->
<g id="node4" class="node">
<title>Node4</title>
<g id="a_node4"><a xlink:href="class_volume_control_1_1_audio_1_1_audio_a_p_i.html#aacaf1126bb40b289448d4172a6aae268" target="_top" xlink:title="Clears and reloads all audio devices.">
<polygon fill="none" stroke="black" points="39,-0.5 39,-30.5 201,-30.5 201,-0.5 39,-0.5"/>
<text text-anchor="start" x="47" y="-18.5" font-family="Helvetica,sans-Serif" font-size="10.00">VolumeControl.Audio.Audio</text>
<text text-anchor="middle" x="120" y="-7.5" font-family="Helvetica,sans-Serif" font-size="10.00">API.ForceReloadAudioDevices</text>
</a>
</g>
</g>
<!-- Node2&#45;&gt;Node4 -->
<g id="edge3" class="edge">
<title>Node2&#45;&gt;Node4</title>
<path fill="none" stroke="midnightblue" d="M265.92,-29.11C244.09,-27.06 221.58,-24.95 201.01,-23.02"/>
<polygon fill="midnightblue" stroke="midnightblue" points="265.6,-32.6 275.89,-30.05 266.26,-25.63 265.6,-32.6"/>
</g>
</g>
</svg>
