<?xml version="1.0" encoding="UTF-8" standalone="no"?>
<!DOCTYPE svg PUBLIC "-//W3C//DTD SVG 1.1//EN"
 "http://www.w3.org/Graphics/SVG/1.1/DTD/svg11.dtd">
<!-- Generated by graphviz version 2.44.1 (20200629.0800)
 -->
<!-- Title: VolumeControl.WPF.Converters.BoolToValueConverter&lt; T &gt; Pages: 1 -->
<svg width="202pt" height="215pt"
 viewBox="0.00 0.00 202.00 215.00" xmlns="http://www.w3.org/2000/svg" xmlns:xlink="http://www.w3.org/1999/xlink">
<g id="graph0" class="graph" transform="scale(1 1) rotate(0) translate(4 211)">
<title>VolumeControl.WPF.Converters.BoolToValueConverter&lt; T &gt;</title>
<!-- Node1 -->
<g id="node1" class="node">
<title>Node1</title>
<g id="a_node1"><a xlink:title="Use as the base class for BoolToXXX style converters">
<polygon fill="#bfbfbf" stroke="black" points="20,-0.5 20,-112.5 178,-112.5 178,-0.5 20,-0.5"/>
<text text-anchor="start" x="28" y="-100.5" font-family="Helvetica,sans-Serif" font-size="10.00">VolumeControl.WPF.Converters.</text>
<text text-anchor="middle" x="99" y="-89.5" font-family="Helvetica,sans-Serif" font-size="10.00">BoolToValueConverter&lt; T &gt;</text>
<polyline fill="none" stroke="black" points="20,-82.5 178,-82.5 "/>
<text text-anchor="start" x="28" y="-70.5" font-family="Helvetica,sans-Serif" font-size="10.00">+ FalseValue</text>
<text text-anchor="start" x="28" y="-59.5" font-family="Helvetica,sans-Serif" font-size="10.00">+ TrueValue</text>
<polyline fill="none" stroke="black" points="20,-52.5 178,-52.5 "/>
<text text-anchor="start" x="28" y="-40.5" font-family="Helvetica,sans-Serif" font-size="10.00">+ Convert()</text>
<text text-anchor="start" x="28" y="-29.5" font-family="Helvetica,sans-Serif" font-size="10.00">+ ConvertBack()</text>
<text text-anchor="start" x="28" y="-18.5" font-family="Helvetica,sans-Serif" font-size="10.00">+ ProvideValue()</text>
<text text-anchor="start" x="28" y="-7.5" font-family="Helvetica,sans-Serif" font-size="10.00"># BoolToValueConverter()</text>
</a>
</g>
</g>
<!-- Node2 -->
<g id="node2" class="node">
<title>Node2</title>
<g id="a_node2"><a xlink:title=" ">
<polygon fill="none" stroke="#bfbfbf" points="0,-149.5 0,-206.5 92,-206.5 92,-149.5 0,-149.5"/>
<text text-anchor="middle" x="46" y="-194.5" font-family="Helvetica,sans-Serif" font-size="10.00">MarkupExtension</text>
<polyline fill="none" stroke="#bfbfbf" points="0,-187.5 92,-187.5 "/>
<text text-anchor="middle" x="46" y="-175.5" font-family="Helvetica,sans-Serif" font-size="10.00"> </text>
<polyline fill="none" stroke="#bfbfbf" points="0,-168.5 92,-168.5 "/>
<text text-anchor="middle" x="46" y="-156.5" font-family="Helvetica,sans-Serif" font-size="10.00"> </text>
</a>
</g>
</g>
<!-- Node2&#45;&gt;Node1 -->
<g id="edge1" class="edge">
<title>Node2&#45;&gt;Node1</title>
<path fill="none" stroke="midnightblue" d="M62.44,-139.94C66.25,-131.35 70.38,-122.02 74.46,-112.83"/>
<polygon fill="none" stroke="midnightblue" points="59.15,-138.72 58.29,-149.28 65.55,-141.56 59.15,-138.72"/>
</g>
<!-- Node3 -->
<g id="node3" class="node">
<title>Node3</title>
<g id="a_node3"><a xlink:title=" ">
<polygon fill="none" stroke="#bfbfbf" points="110,-149.5 110,-206.5 194,-206.5 194,-149.5 110,-149.5"/>
<text text-anchor="middle" x="152" y="-194.5" font-family="Helvetica,sans-Serif" font-size="10.00">IValueConverter</text>
<polyline fill="none" stroke="#bfbfbf" points="110,-187.5 194,-187.5 "/>
<text text-anchor="middle" x="152" y="-175.5" font-family="Helvetica,sans-Serif" font-size="10.00"> </text>
<polyline fill="none" stroke="#bfbfbf" points="110,-168.5 194,-168.5 "/>
<text text-anchor="middle" x="152" y="-156.5" font-family="Helvetica,sans-Serif" font-size="10.00"> </text>
</a>
</g>
</g>
<!-- Node3&#45;&gt;Node1 -->
<g id="edge2" class="edge">
<title>Node3&#45;&gt;Node1</title>
<path fill="none" stroke="midnightblue" d="M135.56,-139.94C131.75,-131.35 127.62,-122.02 123.54,-112.83"/>
<polygon fill="none" stroke="midnightblue" points="132.45,-141.56 139.71,-149.28 138.85,-138.72 132.45,-141.56"/>
</g>
</g>
</svg>
