<?xml version="1.0" encoding="UTF-8" standalone="no"?>
<!DOCTYPE svg PUBLIC "-//W3C//DTD SVG 1.1//EN"
 "http://www.w3.org/Graphics/SVG/1.1/DTD/svg11.dtd">
<!-- Generated by graphviz version 2.43.0 (0)
 -->
<!-- Title: Audio.AudioDeviceManager.FindDeviceByID Pages: 1 -->
<svg width="564pt" height="39pt"
 viewBox="0.00 0.00 564.00 39.00" xmlns="http://www.w3.org/2000/svg" xmlns:xlink="http://www.w3.org/1999/xlink">
<g id="graph0" class="graph" transform="scale(1 1) rotate(0) translate(4 35)">
<title>Audio.AudioDeviceManager.FindDeviceByID</title>
<!-- Node1 -->
<g id="node1" class="node">
<title>Node1</title>
<g id="a_node1"><a xlink:title="Gets the AudioDevice instance associated with the given deviceID &#160;string. (MMDevice....">
<polygon fill="#bfbfbf" stroke="black" points="402,-0.5 402,-30.5 556,-30.5 556,-0.5 402,-0.5"/>
<text text-anchor="start" x="410" y="-18.5" font-family="Helvetica,sans-Serif" font-size="10.00">Audio.AudioDeviceManager.</text>
<text text-anchor="middle" x="479" y="-7.5" font-family="Helvetica,sans-Serif" font-size="10.00">FindDeviceByID</text>
</a>
</g>
</g>
<!-- Node2 -->
<g id="node2" class="node">
<title>Node2</title>
<g id="a_node2"><a xlink:href="class_audio_1_1_audio_device_manager.html#af13e3db11d5d147097fa6d53010cd4e7" target="_top" xlink:title="Gets the default device for the specified deviceRole .">
<polygon fill="none" stroke="black" points="212,-0.5 212,-30.5 366,-30.5 366,-0.5 212,-0.5"/>
<text text-anchor="start" x="220" y="-18.5" font-family="Helvetica,sans-Serif" font-size="10.00">Audio.AudioDeviceManager.</text>
<text text-anchor="middle" x="289" y="-7.5" font-family="Helvetica,sans-Serif" font-size="10.00">GetDefaultDevice</text>
</a>
</g>
</g>
<!-- Node1&#45;&gt;Node2 -->
<g id="edge1" class="edge">
<title>Node1&#45;&gt;Node2</title>
<path fill="none" stroke="midnightblue" d="M391.58,-15.5C383.14,-15.5 374.63,-15.5 366.3,-15.5"/>
<polygon fill="midnightblue" stroke="midnightblue" points="391.8,-19 401.8,-15.5 391.8,-12 391.8,-19"/>
</g>
<!-- Node3 -->
<g id="node3" class="node">
<title>Node3</title>
<g id="a_node3"><a xlink:href="class_volume_control_1_1_s_d_k_1_1_audio_device_selector.html#a6a191b0bbc318c2cc70aa2079551414b" target="_top" xlink:title="Changes the Selected item to the default Multimedia audio device.">
<polygon fill="none" stroke="black" points="0,-0.5 0,-30.5 176,-30.5 176,-0.5 0,-0.5"/>
<text text-anchor="start" x="8" y="-18.5" font-family="Helvetica,sans-Serif" font-size="10.00">VolumeControl.SDK.AudioDevice</text>
<text text-anchor="middle" x="88" y="-7.5" font-family="Helvetica,sans-Serif" font-size="10.00">Selector.SelectDefaultDevice</text>
</a>
</g>
</g>
<!-- Node2&#45;&gt;Node3 -->
<g id="edge2" class="edge">
<title>Node2&#45;&gt;Node3</title>
<path fill="none" stroke="midnightblue" d="M201.64,-15.5C193.14,-15.5 184.52,-15.5 176.02,-15.5"/>
<polygon fill="midnightblue" stroke="midnightblue" points="201.91,-19 211.91,-15.5 201.91,-12 201.91,-19"/>
</g>
</g>
</svg>
