<?xml version="1.0" encoding="UTF-8" standalone="no"?>
<!DOCTYPE svg PUBLIC "-//W3C//DTD SVG 1.1//EN"
 "http://www.w3.org/Graphics/SVG/1.1/DTD/svg11.dtd">
<!-- Generated by graphviz version 2.44.1 (20200629.0800)
 -->
<!-- Title: VolumeControl.Core.BaseAddonAttribute Pages: 1 -->
<svg width="199pt" height="320pt"
 viewBox="0.00 0.00 199.00 320.00" xmlns="http://www.w3.org/2000/svg" xmlns:xlink="http://www.w3.org/1999/xlink">
<g id="graph0" class="graph" transform="scale(1 1) rotate(0) translate(4 316)">
<title>VolumeControl.Core.BaseAddonAttribute</title>
<!-- Node1 -->
<g id="node1" class="node">
<title>Node1</title>
<g id="a_node1"><a xlink:title="Abstract base class that all other addon attributes inherit from. Unless you&#39;re implementing a new ad...">
<polygon fill="#bfbfbf" stroke="black" points="5,-116.5 5,-206.5 162,-206.5 162,-116.5 5,-116.5"/>
<text text-anchor="start" x="13" y="-194.5" font-family="Helvetica,sans-Serif" font-size="10.00">VolumeControl.Core.BaseAddon</text>
<text text-anchor="middle" x="83.5" y="-183.5" font-family="Helvetica,sans-Serif" font-size="10.00">Attribute</text>
<polyline fill="none" stroke="black" points="5,-176.5 162,-176.5 "/>
<text text-anchor="start" x="13" y="-164.5" font-family="Helvetica,sans-Serif" font-size="10.00">+ AddonName</text>
<text text-anchor="start" x="13" y="-153.5" font-family="Helvetica,sans-Serif" font-size="10.00">+ CompatibleVersions</text>
<polyline fill="none" stroke="black" points="5,-146.5 162,-146.5 "/>
<text text-anchor="start" x="13" y="-134.5" font-family="Helvetica,sans-Serif" font-size="10.00"># BaseAddonAttribute()</text>
<text text-anchor="start" x="13" y="-123.5" font-family="Helvetica,sans-Serif" font-size="10.00"># BaseAddonAttribute()</text>
</a>
</g>
</g>
<!-- Node4 -->
<g id="node4" class="node">
<title>Node4</title>
<g id="a_node4"><a xlink:href="class_volume_control_1_1_hotkeys_1_1_attributes_1_1_action_addon_attribute.html" target="_top" xlink:title="Marks the attached class type as a Hotkey Actions addon type.">
<polygon fill="none" stroke="black" points="0,-0.5 0,-79.5 167,-79.5 167,-0.5 0,-0.5"/>
<text text-anchor="start" x="8" y="-67.5" font-family="Helvetica,sans-Serif" font-size="10.00">VolumeControl.Hotkeys.Attributes.</text>
<text text-anchor="middle" x="83.5" y="-56.5" font-family="Helvetica,sans-Serif" font-size="10.00">ActionAddonAttribute</text>
<polyline fill="none" stroke="black" points="0,-49.5 167,-49.5 "/>
<text text-anchor="middle" x="83.5" y="-37.5" font-family="Helvetica,sans-Serif" font-size="10.00"> </text>
<polyline fill="none" stroke="black" points="0,-30.5 167,-30.5 "/>
<text text-anchor="start" x="8" y="-18.5" font-family="Helvetica,sans-Serif" font-size="10.00">+ ActionAddonAttribute()</text>
<text text-anchor="start" x="8" y="-7.5" font-family="Helvetica,sans-Serif" font-size="10.00">+ ActionAddonAttribute()</text>
</a>
</g>
</g>
<!-- Node1&#45;&gt;Node4 -->
<g id="edge3" class="edge">
<title>Node1&#45;&gt;Node4</title>
<path fill="none" stroke="midnightblue" d="M83.5,-106.08C83.5,-97.23 83.5,-88.23 83.5,-79.86"/>
<polygon fill="none" stroke="midnightblue" points="80,-106.34 83.5,-116.34 87,-106.34 80,-106.34"/>
</g>
<!-- Node2 -->
<g id="node2" class="node">
<title>Node2</title>
<g id="a_node2"><a xlink:title=" ">
<polygon fill="none" stroke="#bfbfbf" points="7,-249 7,-306 60,-306 60,-249 7,-249"/>
<text text-anchor="middle" x="33.5" y="-294" font-family="Helvetica,sans-Serif" font-size="10.00">Attribute</text>
<polyline fill="none" stroke="#bfbfbf" points="7,-287 60,-287 "/>
<text text-anchor="middle" x="33.5" y="-275" font-family="Helvetica,sans-Serif" font-size="10.00"> </text>
<polyline fill="none" stroke="#bfbfbf" points="7,-268 60,-268 "/>
<text text-anchor="middle" x="33.5" y="-256" font-family="Helvetica,sans-Serif" font-size="10.00"> </text>
</a>
</g>
</g>
<!-- Node2&#45;&gt;Node1 -->
<g id="edge1" class="edge">
<title>Node2&#45;&gt;Node1</title>
<path fill="none" stroke="midnightblue" d="M49.68,-239.62C54.27,-229.13 59.33,-217.61 64.1,-206.74"/>
<polygon fill="none" stroke="midnightblue" points="46.42,-238.34 45.6,-248.9 52.83,-241.15 46.42,-238.34"/>
</g>
<!-- Node3 -->
<g id="node3" class="node">
<title>Node3</title>
<g id="a_node3"><a xlink:href="interface_volume_control_1_1_core_1_1_i_base_addon_attribute.html" target="_top" xlink:title="Represents an addon attribute of any type.">
<polygon fill="none" stroke="black" points="78,-243.5 78,-311.5 191,-311.5 191,-243.5 78,-243.5"/>
<text text-anchor="middle" x="134.5" y="-299.5" font-family="Helvetica,sans-Serif" font-size="10.00">IBaseAddonAttribute</text>
<polyline fill="none" stroke="black" points="78,-292.5 191,-292.5 "/>
<text text-anchor="start" x="86" y="-280.5" font-family="Helvetica,sans-Serif" font-size="10.00">+ AddonName</text>
<text text-anchor="start" x="86" y="-269.5" font-family="Helvetica,sans-Serif" font-size="10.00">+ CompatibleVersions</text>
<polyline fill="none" stroke="black" points="78,-262.5 191,-262.5 "/>
<text text-anchor="middle" x="134.5" y="-250.5" font-family="Helvetica,sans-Serif" font-size="10.00"> </text>
</a>
</g>
</g>
<!-- Node3&#45;&gt;Node1 -->
<g id="edge2" class="edge">
<title>Node3&#45;&gt;Node1</title>
<path fill="none" stroke="midnightblue" d="M115.41,-233.82C111.44,-224.94 107.24,-215.57 103.25,-206.64"/>
<polygon fill="none" stroke="midnightblue" points="112.33,-235.52 119.61,-243.22 118.72,-232.66 112.33,-235.52"/>
</g>
</g>
</svg>
