<?xml version="1.0" encoding="UTF-8" standalone="no"?>
<!DOCTYPE svg PUBLIC "-//W3C//DTD SVG 1.1//EN"
 "http://www.w3.org/Graphics/SVG/1.1/DTD/svg11.dtd">
<!-- Generated by graphviz version 2.43.0 (0)
 -->
<!-- Title: VolumeControl.Audio.AudioAPI Pages: 1 -->
<svg width="2080pt" height="1021pt"
 viewBox="0.00 0.00 2080.49 1021.00" xmlns="http://www.w3.org/2000/svg" xmlns:xlink="http://www.w3.org/1999/xlink">
<g id="graph0" class="graph" transform="scale(1 1) rotate(0) translate(4 1017)">
<title>VolumeControl.Audio.AudioAPI</title>
<!-- Node1 -->
<g id="node1" class="node">
<title>Node1</title>
<g id="a_node1"><a xlink:title="Contains methods related to audio devices, sessions, and the underlying selection mechanics responsib...">
<polygon fill="#bfbfbf" stroke="black" points="218.49,-0.5 218.49,-222.5 384.49,-222.5 384.49,-0.5 218.49,-0.5"/>
<text text-anchor="middle" x="301.49" y="-210.5" font-family="Helvetica,sans-Serif" font-size="10.00">VolumeControl.Audio.AudioAPI</text>
<polyline fill="none" stroke="black" points="218.49,-203.5 384.49,-203.5 "/>
<text text-anchor="start" x="226.49" y="-191.5" font-family="Helvetica,sans-Serif" font-size="10.00">+ Devices</text>
<text text-anchor="start" x="226.49" y="-180.5" font-family="Helvetica,sans-Serif" font-size="10.00">+ LockSelectedSession</text>
<text text-anchor="start" x="226.49" y="-169.5" font-family="Helvetica,sans-Serif" font-size="10.00">+ Target</text>
<text text-anchor="start" x="226.49" y="-158.5" font-family="Helvetica,sans-Serif" font-size="10.00">+ VolumeStepSize</text>
<text text-anchor="start" x="226.49" y="-147.5" font-family="Helvetica,sans-Serif" font-size="10.00">+ SelectedSession</text>
<text text-anchor="start" x="226.49" y="-136.5" font-family="Helvetica,sans-Serif" font-size="10.00">+ Sessions</text>
<polyline fill="none" stroke="black" points="218.49,-129.5 384.49,-129.5 "/>
<text text-anchor="start" x="226.49" y="-117.5" font-family="Helvetica,sans-Serif" font-size="10.00">+ AudioAPI()</text>
<text text-anchor="start" x="226.49" y="-106.5" font-family="Helvetica,sans-Serif" font-size="10.00">+ ForceReloadAudioDevices()</text>
<text text-anchor="start" x="226.49" y="-95.5" font-family="Helvetica,sans-Serif" font-size="10.00">+ FindDevice()</text>
<text text-anchor="start" x="226.49" y="-84.5" font-family="Helvetica,sans-Serif" font-size="10.00">+ FindDeviceWithID()</text>
<text text-anchor="start" x="226.49" y="-73.5" font-family="Helvetica,sans-Serif" font-size="10.00">+ ForceReloadSessionList()</text>
<text text-anchor="start" x="226.49" y="-62.5" font-family="Helvetica,sans-Serif" font-size="10.00">+ FindSession()</text>
<text text-anchor="start" x="226.49" y="-51.5" font-family="Helvetica,sans-Serif" font-size="10.00">+ FindSessionWithID()</text>
<text text-anchor="start" x="226.49" y="-40.5" font-family="Helvetica,sans-Serif" font-size="10.00">+ FindSessionWithName()</text>
<text text-anchor="start" x="226.49" y="-29.5" font-family="Helvetica,sans-Serif" font-size="10.00">+ FindSessionWithIdentifier()</text>
<text text-anchor="start" x="226.49" y="-18.5" font-family="Helvetica,sans-Serif" font-size="10.00">+ GetSessionNames()</text>
<text text-anchor="start" x="226.49" y="-7.5" font-family="Helvetica,sans-Serif" font-size="10.00">and 13 more...</text>
</a>
</g>
</g>
<!-- Node2 -->
<g id="node2" class="node">
<title>Node2</title>
<g id="a_node2"><a xlink:title=" ">
<polygon fill="none" stroke="#bfbfbf" points="1826.99,-955.5 1826.99,-1012.5 1959.99,-1012.5 1959.99,-955.5 1826.99,-955.5"/>
<text text-anchor="middle" x="1893.49" y="-1000.5" font-family="Helvetica,sans-Serif" font-size="10.00">INotifyPropertyChanged</text>
<polyline fill="none" stroke="#bfbfbf" points="1826.99,-993.5 1959.99,-993.5 "/>
<text text-anchor="middle" x="1893.49" y="-981.5" font-family="Helvetica,sans-Serif" font-size="10.00"> </text>
<polyline fill="none" stroke="#bfbfbf" points="1826.99,-974.5 1959.99,-974.5 "/>
<text text-anchor="middle" x="1893.49" y="-962.5" font-family="Helvetica,sans-Serif" font-size="10.00"> </text>
</a>
</g>
</g>
<!-- Node2&#45;&gt;Node1 -->
<g id="edge1" class="edge">
<title>Node2&#45;&gt;Node1</title>
<path fill="none" stroke="midnightblue" d="M1816.7,-983.22C1476.78,-983.81 121.38,-982.13 59.49,-918 13.74,-870.6 -74.47,-653.56 125.49,-270 146.9,-228.91 183.71,-193.41 218.14,-166.57"/>
<polygon fill="none" stroke="midnightblue" points="1816.95,-986.72 1826.94,-983.2 1816.93,-979.72 1816.95,-986.72"/>
</g>
<!-- Node5 -->
<g id="node5" class="node">
<title>Node5</title>
<g id="a_node5"><a xlink:href="class_volume_control_1_1_audio_1_1_audio_device.html" target="_top" xlink:title="Represents an audio device endpoint. Note that this object cannot be constructed externally....">
<polygon fill="none" stroke="black" points="685.49,-270.5 685.49,-778.5 869.49,-778.5 869.49,-270.5 685.49,-270.5"/>
<text text-anchor="start" x="693.49" y="-766.5" font-family="Helvetica,sans-Serif" font-size="10.00">VolumeControl.Audio.Audio</text>
<text text-anchor="middle" x="777.49" y="-755.5" font-family="Helvetica,sans-Serif" font-size="10.00">Device</text>
<polyline fill="none" stroke="black" points="685.49,-748.5 869.49,-748.5 "/>
<text text-anchor="start" x="693.49" y="-736.5" font-family="Helvetica,sans-Serif" font-size="10.00">+ InterfaceName</text>
<text text-anchor="start" x="693.49" y="-725.5" font-family="Helvetica,sans-Serif" font-size="10.00">+ InstanceID</text>
<text text-anchor="start" x="693.49" y="-714.5" font-family="Helvetica,sans-Serif" font-size="10.00">+ IconPath</text>
<text text-anchor="start" x="693.49" y="-703.5" font-family="Helvetica,sans-Serif" font-size="10.00">+ SmallIcon</text>
<text text-anchor="start" x="693.49" y="-692.5" font-family="Helvetica,sans-Serif" font-size="10.00">+ LargeIcon</text>
<text text-anchor="start" x="693.49" y="-681.5" font-family="Helvetica,sans-Serif" font-size="10.00">+ Icon</text>
<text text-anchor="start" x="693.49" y="-670.5" font-family="Helvetica,sans-Serif" font-size="10.00">+ DeviceFriendlyName</text>
<text text-anchor="start" x="693.49" y="-659.5" font-family="Helvetica,sans-Serif" font-size="10.00">+ FriendlyName</text>
<text text-anchor="start" x="693.49" y="-648.5" font-family="Helvetica,sans-Serif" font-size="10.00">+ Properties</text>
<text text-anchor="start" x="693.49" y="-637.5" font-family="Helvetica,sans-Serif" font-size="10.00">+ State</text>
<text text-anchor="start" x="693.49" y="-626.5" font-family="Helvetica,sans-Serif" font-size="10.00">and 7 more...</text>
<text text-anchor="start" x="693.49" y="-615.5" font-family="Helvetica,sans-Serif" font-size="10.00">+ MMDevice</text>
<text text-anchor="start" x="693.49" y="-604.5" font-family="Helvetica,sans-Serif" font-size="10.00">+ Enabled</text>
<text text-anchor="start" x="693.49" y="-593.5" font-family="Helvetica,sans-Serif" font-size="10.00">+ Name</text>
<text text-anchor="start" x="693.49" y="-582.5" font-family="Helvetica,sans-Serif" font-size="10.00">+ DeviceID</text>
<text text-anchor="start" x="693.49" y="-571.5" font-family="Helvetica,sans-Serif" font-size="10.00">+ VolumeRange</text>
<text text-anchor="start" x="693.49" y="-560.5" font-family="Helvetica,sans-Serif" font-size="10.00">+ NativeEndpointVolume</text>
<text text-anchor="start" x="693.49" y="-549.5" font-family="Helvetica,sans-Serif" font-size="10.00">+ EndpointVolume</text>
<text text-anchor="start" x="693.49" y="-538.5" font-family="Helvetica,sans-Serif" font-size="10.00">+ EndpointMuted</text>
<text text-anchor="start" x="693.49" y="-527.5" font-family="Helvetica,sans-Serif" font-size="10.00">+ Sessions</text>
<text text-anchor="start" x="693.49" y="-516.5" font-family="Helvetica,sans-Serif" font-size="10.00">+ this[int index]</text>
<text text-anchor="start" x="693.49" y="-505.5" font-family="Helvetica,sans-Serif" font-size="10.00">+ this[int index]</text>
<text text-anchor="start" x="693.49" y="-494.5" font-family="Helvetica,sans-Serif" font-size="10.00">+ CollectionChanged</text>
<text text-anchor="start" x="693.49" y="-483.5" font-family="Helvetica,sans-Serif" font-size="10.00">~ float</text>
<polyline fill="none" stroke="black" points="685.49,-476.5 869.49,-476.5 "/>
<text text-anchor="start" x="693.49" y="-464.5" font-family="Helvetica,sans-Serif" font-size="10.00">+ GetDeviceName()</text>
<text text-anchor="start" x="693.49" y="-453.5" font-family="Helvetica,sans-Serif" font-size="10.00">+ FindAll()</text>
<text text-anchor="start" x="693.49" y="-442.5" font-family="Helvetica,sans-Serif" font-size="10.00">+ Dispose()</text>
<text text-anchor="start" x="693.49" y="-431.5" font-family="Helvetica,sans-Serif" font-size="10.00">+ Equals()</text>
<text text-anchor="start" x="693.49" y="-420.5" font-family="Helvetica,sans-Serif" font-size="10.00">+ Equals()</text>
<text text-anchor="start" x="693.49" y="-409.5" font-family="Helvetica,sans-Serif" font-size="10.00">+ Equals()</text>
<text text-anchor="start" x="693.49" y="-398.5" font-family="Helvetica,sans-Serif" font-size="10.00">+ GetHashCode()</text>
<text text-anchor="start" x="693.49" y="-387.5" font-family="Helvetica,sans-Serif" font-size="10.00">+ Add()</text>
<text text-anchor="start" x="693.49" y="-376.5" font-family="Helvetica,sans-Serif" font-size="10.00">+ Clear()</text>
<text text-anchor="start" x="693.49" y="-365.5" font-family="Helvetica,sans-Serif" font-size="10.00">+ Contains()</text>
<text text-anchor="start" x="693.49" y="-354.5" font-family="Helvetica,sans-Serif" font-size="10.00">and 22 more...</text>
<text text-anchor="start" x="693.49" y="-343.5" font-family="Helvetica,sans-Serif" font-size="10.00">~ AudioDevice()</text>
<text text-anchor="start" x="693.49" y="-332.5" font-family="Helvetica,sans-Serif" font-size="10.00">~ ForwardPropertyStoreChanged()</text>
<text text-anchor="start" x="693.49" y="-321.5" font-family="Helvetica,sans-Serif" font-size="10.00">~ ForwardRemoved()</text>
<text text-anchor="start" x="693.49" y="-310.5" font-family="Helvetica,sans-Serif" font-size="10.00">~ ForwardStateChanged()</text>
<text text-anchor="start" x="693.49" y="-299.5" font-family="Helvetica,sans-Serif" font-size="10.00">~ ForwardVolumeChanged()</text>
<text text-anchor="start" x="693.49" y="-288.5" font-family="Helvetica,sans-Serif" font-size="10.00">~ ReloadSessions()</text>
<text text-anchor="start" x="693.49" y="-277.5" font-family="Helvetica,sans-Serif" font-size="10.00">~ GetAudioSessions()</text>
</a>
</g>
</g>
<!-- Node2&#45;&gt;Node5 -->
<g id="edge21" class="edge">
<title>Node2&#45;&gt;Node5</title>
<path fill="none" stroke="midnightblue" d="M1904.49,-945.7C1913.21,-907.5 1919.02,-849.16 1885.49,-816 1845.68,-776.64 924.24,-811.26 878.49,-779 875.48,-776.88 872.57,-774.66 869.75,-772.35"/>
<polygon fill="none" stroke="midnightblue" points="1901.09,-944.88 1902.11,-955.43 1907.88,-946.55 1901.09,-944.88"/>
</g>
<!-- Node6 -->
<g id="node6" class="node">
<title>Node6</title>
<g id="a_node6"><a xlink:href="interface_volume_control_1_1_audio_1_1_interfaces_1_1_i_device.html" target="_top" xlink:title="Represents an audio device.">
<polygon fill="none" stroke="black" points="1932.49,-816.5 1932.49,-917.5 2072.49,-917.5 2072.49,-816.5 1932.49,-816.5"/>
<text text-anchor="middle" x="2002.49" y="-905.5" font-family="Helvetica,sans-Serif" font-size="10.00">IDevice</text>
<polyline fill="none" stroke="black" points="1932.49,-898.5 2072.49,-898.5 "/>
<text text-anchor="start" x="1940.49" y="-886.5" font-family="Helvetica,sans-Serif" font-size="10.00">+ Name</text>
<text text-anchor="start" x="1940.49" y="-875.5" font-family="Helvetica,sans-Serif" font-size="10.00">+ DeviceID</text>
<text text-anchor="start" x="1940.49" y="-864.5" font-family="Helvetica,sans-Serif" font-size="10.00">+ NativeEndpointVolume</text>
<text text-anchor="start" x="1940.49" y="-853.5" font-family="Helvetica,sans-Serif" font-size="10.00">+ EndpointVolume</text>
<text text-anchor="start" x="1940.49" y="-842.5" font-family="Helvetica,sans-Serif" font-size="10.00">+ EndpointMuted</text>
<polyline fill="none" stroke="black" points="1932.49,-835.5 2072.49,-835.5 "/>
<text text-anchor="middle" x="2002.49" y="-823.5" font-family="Helvetica,sans-Serif" font-size="10.00"> </text>
</a>
</g>
</g>
<!-- Node2&#45;&gt;Node6 -->
<g id="edge7" class="edge">
<title>Node2&#45;&gt;Node6</title>
<path fill="none" stroke="midnightblue" d="M1926.62,-948.05C1935.65,-938.51 1945.62,-928 1955.27,-917.81"/>
<polygon fill="none" stroke="midnightblue" points="1923.93,-945.79 1919.59,-955.45 1929.01,-950.6 1923.93,-945.79"/>
</g>
<!-- Node3 -->
<g id="node3" class="node">
<title>Node3</title>
<g id="a_node3"><a xlink:title=" ">
<polygon fill="none" stroke="#bfbfbf" points="887.49,-496 887.49,-553 1023.49,-553 1023.49,-496 887.49,-496"/>
<text text-anchor="middle" x="955.49" y="-541" font-family="Helvetica,sans-Serif" font-size="10.00">INotifyPropertyChanging</text>
<polyline fill="none" stroke="#bfbfbf" points="887.49,-534 1023.49,-534 "/>
<text text-anchor="middle" x="955.49" y="-522" font-family="Helvetica,sans-Serif" font-size="10.00"> </text>
<polyline fill="none" stroke="#bfbfbf" points="887.49,-515 1023.49,-515 "/>
<text text-anchor="middle" x="955.49" y="-503" font-family="Helvetica,sans-Serif" font-size="10.00"> </text>
</a>
</g>
</g>
<!-- Node3&#45;&gt;Node1 -->
<g id="edge2" class="edge">
<title>Node3&#45;&gt;Node1</title>
<path fill="none" stroke="midnightblue" d="M954.9,-485.77C951.93,-430.55 938.13,-327.98 878.49,-270 808.07,-201.56 526.78,-148.28 384.62,-125.12"/>
<polygon fill="none" stroke="midnightblue" points="951.4,-486 955.34,-495.84 958.4,-485.69 951.4,-486"/>
</g>
<!-- Node4 -->
<g id="node4" class="node">
<title>Node4</title>
<g id="a_node4"><a xlink:title=" ">
<polygon fill="none" stroke="#bfbfbf" points="68.49,-838.5 68.49,-895.5 142.49,-895.5 142.49,-838.5 68.49,-838.5"/>
<text text-anchor="middle" x="105.49" y="-883.5" font-family="Helvetica,sans-Serif" font-size="10.00">IDisposable</text>
<polyline fill="none" stroke="#bfbfbf" points="68.49,-876.5 142.49,-876.5 "/>
<text text-anchor="middle" x="105.49" y="-864.5" font-family="Helvetica,sans-Serif" font-size="10.00"> </text>
<polyline fill="none" stroke="#bfbfbf" points="68.49,-857.5 142.49,-857.5 "/>
<text text-anchor="middle" x="105.49" y="-845.5" font-family="Helvetica,sans-Serif" font-size="10.00"> </text>
</a>
</g>
</g>
<!-- Node4&#45;&gt;Node1 -->
<g id="edge3" class="edge">
<title>Node4&#45;&gt;Node1</title>
<path fill="none" stroke="midnightblue" d="M115.29,-828.33C143.89,-718.35 228.09,-394.68 272.81,-222.75"/>
<polygon fill="none" stroke="midnightblue" points="111.82,-827.73 112.69,-838.29 118.6,-829.49 111.82,-827.73"/>
</g>
<!-- Node4&#45;&gt;Node5 -->
<g id="edge8" class="edge">
<title>Node4&#45;&gt;Node5</title>
<path fill="none" stroke="midnightblue" d="M134.38,-830.95C139.73,-825.56 145.53,-820.35 151.49,-816 323.23,-690.58 557.76,-599.42 685.45,-555.31"/>
<polygon fill="none" stroke="midnightblue" points="131.71,-828.68 127.38,-838.35 136.79,-833.49 131.71,-828.68"/>
</g>
<!-- Node5&#45;&gt;Node1 -->
<g id="edge4" class="edge">
<title>Node5&#45;&gt;Node1</title>
<path fill="none" stroke="#404040" d="M685.43,-444.01C601.42,-371.47 477.9,-264.82 393.81,-192.21"/>
<polygon fill="none" stroke="#404040" points="393.6,-192.04 386.45,-191.14 384.52,-184.19 391.67,-185.09 393.6,-192.04"/>
<text text-anchor="middle" x="496.49" y="-244" font-family="Helvetica,sans-Serif" font-size="10.00"> +DefaultDevice</text>
</g>
<!-- Node6&#45;&gt;Node5 -->
<g id="edge5" class="edge">
<title>Node6&#45;&gt;Node5</title>
<path fill="none" stroke="midnightblue" d="M1944.28,-810.35C1936.1,-804.96 1927.42,-800.29 1918.49,-797 1864.25,-777.05 926.03,-811.84 878.49,-779 875.46,-776.91 872.53,-774.72 869.69,-772.43"/>
<polygon fill="none" stroke="midnightblue" points="1942.41,-813.31 1952.6,-816.19 1946.43,-807.58 1942.41,-813.31"/>
</g>
<!-- Node7 -->
<g id="node7" class="node">
<title>Node7</title>
<g id="a_node7"><a xlink:href="interface_volume_control_1_1_audio_1_1_interfaces_1_1_i_targetable.html" target="_top" xlink:title="Base interface type for IDevice and IProcess/ISession.">
<polygon fill="none" stroke="black" points="1977.99,-955.5 1977.99,-1012.5 2048.99,-1012.5 2048.99,-955.5 1977.99,-955.5"/>
<text text-anchor="middle" x="2013.49" y="-1000.5" font-family="Helvetica,sans-Serif" font-size="10.00">ITargetable</text>
<polyline fill="none" stroke="black" points="1977.99,-993.5 2048.99,-993.5 "/>
<text text-anchor="middle" x="2013.49" y="-981.5" font-family="Helvetica,sans-Serif" font-size="10.00"> </text>
<polyline fill="none" stroke="black" points="1977.99,-974.5 2048.99,-974.5 "/>
<text text-anchor="middle" x="2013.49" y="-962.5" font-family="Helvetica,sans-Serif" font-size="10.00"> </text>
</a>
</g>
</g>
<!-- Node7&#45;&gt;Node6 -->
<g id="edge6" class="edge">
<title>Node7&#45;&gt;Node6</title>
<path fill="none" stroke="midnightblue" d="M2009.9,-945.47C2009.05,-936.64 2008.14,-927.09 2007.25,-917.81"/>
<polygon fill="none" stroke="midnightblue" points="2006.41,-945.83 2010.85,-955.45 2013.38,-945.17 2006.41,-945.83"/>
</g>
<!-- Node8 -->
<g id="node8" class="node">
<title>Node8</title>
<g id="a_node8"><a xlink:title=" ">
<polygon fill="none" stroke="#bfbfbf" points="160.49,-838.5 160.49,-895.5 312.49,-895.5 312.49,-838.5 160.49,-838.5"/>
<text text-anchor="middle" x="236.49" y="-883.5" font-family="Helvetica,sans-Serif" font-size="10.00">IEquatable&lt; AudioDevice &gt;</text>
<polyline fill="none" stroke="#bfbfbf" points="160.49,-876.5 312.49,-876.5 "/>
<text text-anchor="middle" x="236.49" y="-864.5" font-family="Helvetica,sans-Serif" font-size="10.00"> </text>
<polyline fill="none" stroke="#bfbfbf" points="160.49,-857.5 312.49,-857.5 "/>
<text text-anchor="middle" x="236.49" y="-845.5" font-family="Helvetica,sans-Serif" font-size="10.00"> </text>
</a>
</g>
</g>
<!-- Node8&#45;&gt;Node5 -->
<g id="edge9" class="edge">
<title>Node8&#45;&gt;Node5</title>
<path fill="none" stroke="midnightblue" d="M288.86,-833.04C380.53,-775.34 571.18,-655.35 685.34,-583.49"/>
<polygon fill="none" stroke="midnightblue" points="286.9,-830.14 280.3,-838.42 290.63,-836.06 286.9,-830.14"/>
</g>
<!-- Node9 -->
<g id="node9" class="node">
<title>Node9</title>
<g id="a_node9"><a xlink:title=" ">
<polygon fill="none" stroke="#bfbfbf" points="330.49,-838.5 330.49,-895.5 458.49,-895.5 458.49,-838.5 330.49,-838.5"/>
<text text-anchor="middle" x="394.49" y="-883.5" font-family="Helvetica,sans-Serif" font-size="10.00">IEquatable&lt; IDevice &gt;</text>
<polyline fill="none" stroke="#bfbfbf" points="330.49,-876.5 458.49,-876.5 "/>
<text text-anchor="middle" x="394.49" y="-864.5" font-family="Helvetica,sans-Serif" font-size="10.00"> </text>
<polyline fill="none" stroke="#bfbfbf" points="330.49,-857.5 458.49,-857.5 "/>
<text text-anchor="middle" x="394.49" y="-845.5" font-family="Helvetica,sans-Serif" font-size="10.00"> </text>
</a>
</g>
</g>
<!-- Node9&#45;&gt;Node5 -->
<g id="edge10" class="edge">
<title>Node9&#45;&gt;Node5</title>
<path fill="none" stroke="midnightblue" d="M433.06,-831.71C491.64,-779.62 604.76,-679.06 685.37,-607.4"/>
<polygon fill="none" stroke="midnightblue" points="430.65,-829.16 425.5,-838.42 435.3,-834.4 430.65,-829.16"/>
</g>
<!-- Node10 -->
<g id="node10" class="node">
<title>Node10</title>
<g id="a_node10"><a xlink:title=" ">
<polygon fill="none" stroke="#bfbfbf" points="476.99,-838.5 476.99,-895.5 513.99,-895.5 513.99,-838.5 476.99,-838.5"/>
<text text-anchor="middle" x="495.49" y="-883.5" font-family="Helvetica,sans-Serif" font-size="10.00">IList</text>
<polyline fill="none" stroke="#bfbfbf" points="476.99,-876.5 513.99,-876.5 "/>
<text text-anchor="middle" x="495.49" y="-864.5" font-family="Helvetica,sans-Serif" font-size="10.00"> </text>
<polyline fill="none" stroke="#bfbfbf" points="476.99,-857.5 513.99,-857.5 "/>
<text text-anchor="middle" x="495.49" y="-845.5" font-family="Helvetica,sans-Serif" font-size="10.00"> </text>
</a>
</g>
</g>
<!-- Node10&#45;&gt;Node5 -->
<g id="edge11" class="edge">
<title>Node10&#45;&gt;Node5</title>
<path fill="none" stroke="midnightblue" d="M514.74,-829.51C517.53,-824.87 520.48,-820.26 523.49,-816 572.25,-746.89 634.69,-675.29 685.46,-620.47"/>
<polygon fill="none" stroke="midnightblue" points="511.59,-827.98 509.6,-838.39 517.64,-831.49 511.59,-827.98"/>
</g>
<!-- Node11 -->
<g id="node11" class="node">
<title>Node11</title>
<g id="a_node11"><a xlink:title=" ">
<polygon fill="none" stroke="#bfbfbf" points="532.49,-838.5 532.49,-895.5 600.49,-895.5 600.49,-838.5 532.49,-838.5"/>
<text text-anchor="middle" x="566.49" y="-883.5" font-family="Helvetica,sans-Serif" font-size="10.00">ICollection</text>
<polyline fill="none" stroke="#bfbfbf" points="532.49,-876.5 600.49,-876.5 "/>
<text text-anchor="middle" x="566.49" y="-864.5" font-family="Helvetica,sans-Serif" font-size="10.00"> </text>
<polyline fill="none" stroke="#bfbfbf" points="532.49,-857.5 600.49,-857.5 "/>
<text text-anchor="middle" x="566.49" y="-845.5" font-family="Helvetica,sans-Serif" font-size="10.00"> </text>
</a>
</g>
</g>
<!-- Node11&#45;&gt;Node5 -->
<g id="edge12" class="edge">
<title>Node11&#45;&gt;Node5</title>
<path fill="none" stroke="midnightblue" d="M588.85,-829.91C612,-792.55 649.7,-731.71 685.33,-674.21"/>
<polygon fill="none" stroke="midnightblue" points="585.87,-828.08 583.57,-838.42 591.82,-831.77 585.87,-828.08"/>
</g>
<!-- Node12 -->
<g id="node12" class="node">
<title>Node12</title>
<g id="a_node12"><a xlink:title=" ">
<polygon fill="none" stroke="#bfbfbf" points="618.49,-838.5 618.49,-895.5 696.49,-895.5 696.49,-838.5 618.49,-838.5"/>
<text text-anchor="middle" x="657.49" y="-883.5" font-family="Helvetica,sans-Serif" font-size="10.00">IEnumerable</text>
<polyline fill="none" stroke="#bfbfbf" points="618.49,-876.5 696.49,-876.5 "/>
<text text-anchor="middle" x="657.49" y="-864.5" font-family="Helvetica,sans-Serif" font-size="10.00"> </text>
<polyline fill="none" stroke="#bfbfbf" points="618.49,-857.5 696.49,-857.5 "/>
<text text-anchor="middle" x="657.49" y="-845.5" font-family="Helvetica,sans-Serif" font-size="10.00"> </text>
</a>
</g>
</g>
<!-- Node12&#45;&gt;Node5 -->
<g id="edge13" class="edge">
<title>Node12&#45;&gt;Node5</title>
<path fill="none" stroke="midnightblue" d="M670.59,-828.83C675.51,-814.85 681.56,-797.69 688.25,-778.72"/>
<polygon fill="none" stroke="midnightblue" points="667.23,-827.83 667.2,-838.42 673.83,-830.16 667.23,-827.83"/>
</g>
<!-- Node13 -->
<g id="node13" class="node">
<title>Node13</title>
<g id="a_node13"><a xlink:title=" ">
<polygon fill="none" stroke="#bfbfbf" points="714.99,-838.5 714.99,-895.5 839.99,-895.5 839.99,-838.5 714.99,-838.5"/>
<text text-anchor="middle" x="777.49" y="-883.5" font-family="Helvetica,sans-Serif" font-size="10.00">IList&lt; AudioSession &gt;</text>
<polyline fill="none" stroke="#bfbfbf" points="714.99,-876.5 839.99,-876.5 "/>
<text text-anchor="middle" x="777.49" y="-864.5" font-family="Helvetica,sans-Serif" font-size="10.00"> </text>
<polyline fill="none" stroke="#bfbfbf" points="714.99,-857.5 839.99,-857.5 "/>
<text text-anchor="middle" x="777.49" y="-845.5" font-family="Helvetica,sans-Serif" font-size="10.00"> </text>
</a>
</g>
</g>
<!-- Node13&#45;&gt;Node5 -->
<g id="edge14" class="edge">
<title>Node13&#45;&gt;Node5</title>
<path fill="none" stroke="midnightblue" d="M777.49,-828.42C777.49,-814.51 777.49,-797.51 777.49,-778.72"/>
<polygon fill="none" stroke="midnightblue" points="773.99,-828.42 777.49,-838.42 780.99,-828.42 773.99,-828.42"/>
</g>
<!-- Node14 -->
<g id="node14" class="node">
<title>Node14</title>
<g id="a_node14"><a xlink:title=" ">
<polygon fill="none" stroke="#bfbfbf" points="858.49,-838.5 858.49,-895.5 1036.49,-895.5 1036.49,-838.5 858.49,-838.5"/>
<text text-anchor="middle" x="947.49" y="-883.5" font-family="Helvetica,sans-Serif" font-size="10.00">IImmutableList&lt; AudioSession &gt;</text>
<polyline fill="none" stroke="#bfbfbf" points="858.49,-876.5 1036.49,-876.5 "/>
<text text-anchor="middle" x="947.49" y="-864.5" font-family="Helvetica,sans-Serif" font-size="10.00"> </text>
<polyline fill="none" stroke="#bfbfbf" points="858.49,-857.5 1036.49,-857.5 "/>
<text text-anchor="middle" x="947.49" y="-845.5" font-family="Helvetica,sans-Serif" font-size="10.00"> </text>
</a>
</g>
</g>
<!-- Node14&#45;&gt;Node5 -->
<g id="edge15" class="edge">
<title>Node14&#45;&gt;Node5</title>
<path fill="none" stroke="midnightblue" d="M915.13,-830.1C902.61,-815.03 888.84,-796.88 878.49,-779 875.46,-773.77 872.48,-768.44 869.56,-763.02"/>
<polygon fill="none" stroke="midnightblue" points="912.79,-832.76 921.93,-838.13 918.14,-828.24 912.79,-832.76"/>
</g>
<!-- Node15 -->
<g id="node15" class="node">
<title>Node15</title>
<g id="a_node15"><a xlink:title=" ">
<polygon fill="none" stroke="#bfbfbf" points="1054.49,-838.5 1054.49,-895.5 1210.49,-895.5 1210.49,-838.5 1054.49,-838.5"/>
<text text-anchor="middle" x="1132.49" y="-883.5" font-family="Helvetica,sans-Serif" font-size="10.00">ICollection&lt; AudioSession &gt;</text>
<polyline fill="none" stroke="#bfbfbf" points="1054.49,-876.5 1210.49,-876.5 "/>
<text text-anchor="middle" x="1132.49" y="-864.5" font-family="Helvetica,sans-Serif" font-size="10.00"> </text>
<polyline fill="none" stroke="#bfbfbf" points="1054.49,-857.5 1210.49,-857.5 "/>
<text text-anchor="middle" x="1132.49" y="-845.5" font-family="Helvetica,sans-Serif" font-size="10.00"> </text>
</a>
</g>
</g>
<!-- Node15&#45;&gt;Node5 -->
<g id="edge16" class="edge">
<title>Node15&#45;&gt;Node5</title>
<path fill="none" stroke="midnightblue" d="M1081.4,-833.23C1069.9,-826.83 1057.53,-820.67 1045.49,-816 974.6,-788.52 936.39,-828.26 878.49,-779 875.42,-776.39 872.44,-773.68 869.56,-770.86"/>
<polygon fill="none" stroke="midnightblue" points="1079.99,-836.45 1090.4,-838.38 1083.46,-830.38 1079.99,-836.45"/>
</g>
<!-- Node16 -->
<g id="node16" class="node">
<title>Node16</title>
<g id="a_node16"><a xlink:title=" ">
<polygon fill="none" stroke="#bfbfbf" points="1228.49,-838.5 1228.49,-895.5 1394.49,-895.5 1394.49,-838.5 1228.49,-838.5"/>
<text text-anchor="middle" x="1311.49" y="-883.5" font-family="Helvetica,sans-Serif" font-size="10.00">IEnumerable&lt; AudioSession &gt;</text>
<polyline fill="none" stroke="#bfbfbf" points="1228.49,-876.5 1394.49,-876.5 "/>
<text text-anchor="middle" x="1311.49" y="-864.5" font-family="Helvetica,sans-Serif" font-size="10.00"> </text>
<polyline fill="none" stroke="#bfbfbf" points="1228.49,-857.5 1394.49,-857.5 "/>
<text text-anchor="middle" x="1311.49" y="-845.5" font-family="Helvetica,sans-Serif" font-size="10.00"> </text>
</a>
</g>
</g>
<!-- Node16&#45;&gt;Node5 -->
<g id="edge17" class="edge">
<title>Node16&#45;&gt;Node5</title>
<path fill="none" stroke="midnightblue" d="M1259.95,-833.45C1247.15,-826.66 1233.17,-820.28 1219.49,-816 1146.73,-793.26 939.17,-825.12 878.49,-779 875.47,-776.71 872.54,-774.31 869.7,-771.82"/>
<polygon fill="none" stroke="midnightblue" points="1258.59,-836.7 1269.04,-838.45 1261.96,-830.56 1258.59,-836.7"/>
</g>
<!-- Node17 -->
<g id="node17" class="node">
<title>Node17</title>
<g id="a_node17"><a xlink:title=" ">
<polygon fill="none" stroke="#bfbfbf" points="1412.49,-838.5 1412.49,-895.5 1584.49,-895.5 1584.49,-838.5 1412.49,-838.5"/>
<text text-anchor="middle" x="1498.49" y="-883.5" font-family="Helvetica,sans-Serif" font-size="10.00">IReadOnlyList&lt; AudioSession &gt;</text>
<polyline fill="none" stroke="#bfbfbf" points="1412.49,-876.5 1584.49,-876.5 "/>
<text text-anchor="middle" x="1498.49" y="-864.5" font-family="Helvetica,sans-Serif" font-size="10.00"> </text>
<polyline fill="none" stroke="#bfbfbf" points="1412.49,-857.5 1584.49,-857.5 "/>
<text text-anchor="middle" x="1498.49" y="-845.5" font-family="Helvetica,sans-Serif" font-size="10.00"> </text>
</a>
</g>
</g>
<!-- Node17&#45;&gt;Node5 -->
<g id="edge18" class="edge">
<title>Node17&#45;&gt;Node5</title>
<path fill="none" stroke="midnightblue" d="M1446.07,-833.5C1432.64,-826.57 1417.9,-820.11 1403.49,-816 1347.24,-799.98 925.7,-813.5 878.49,-779 875.43,-776.76 872.46,-774.42 869.58,-771.98"/>
<polygon fill="none" stroke="midnightblue" points="1444.67,-836.72 1455.14,-838.35 1447.98,-830.55 1444.67,-836.72"/>
</g>
<!-- Node18 -->
<g id="node18" class="node">
<title>Node18</title>
<g id="a_node18"><a xlink:title=" ">
<polygon fill="none" stroke="#bfbfbf" points="1602.49,-833 1602.49,-901 1718.49,-901 1718.49,-833 1602.49,-833"/>
<text text-anchor="start" x="1610.49" y="-889" font-family="Helvetica,sans-Serif" font-size="10.00">IReadOnlyCollection</text>
<text text-anchor="middle" x="1660.49" y="-878" font-family="Helvetica,sans-Serif" font-size="10.00">&lt; AudioSession &gt;</text>
<polyline fill="none" stroke="#bfbfbf" points="1602.49,-871 1718.49,-871 "/>
<text text-anchor="middle" x="1660.49" y="-859" font-family="Helvetica,sans-Serif" font-size="10.00"> </text>
<polyline fill="none" stroke="#bfbfbf" points="1602.49,-852 1718.49,-852 "/>
<text text-anchor="middle" x="1660.49" y="-840" font-family="Helvetica,sans-Serif" font-size="10.00"> </text>
</a>
</g>
</g>
<!-- Node18&#45;&gt;Node5 -->
<g id="edge19" class="edge">
<title>Node18&#45;&gt;Node5</title>
<path fill="none" stroke="midnightblue" d="M1615.53,-827.08C1608.52,-822.64 1601.07,-818.74 1593.49,-816 1556.07,-802.5 910.82,-802.17 878.49,-779 875.4,-776.79 872.42,-774.48 869.52,-772.06"/>
<polygon fill="none" stroke="midnightblue" points="1613.92,-830.21 1624.16,-832.93 1617.85,-824.42 1613.92,-830.21"/>
</g>
<!-- Node19 -->
<g id="node19" class="node">
<title>Node19</title>
<g id="a_node19"><a xlink:title=" ">
<polygon fill="none" stroke="#bfbfbf" points="1736.49,-838.5 1736.49,-895.5 1876.49,-895.5 1876.49,-838.5 1736.49,-838.5"/>
<text text-anchor="middle" x="1806.49" y="-883.5" font-family="Helvetica,sans-Serif" font-size="10.00">INotifyCollectionChanged</text>
<polyline fill="none" stroke="#bfbfbf" points="1736.49,-876.5 1876.49,-876.5 "/>
<text text-anchor="middle" x="1806.49" y="-864.5" font-family="Helvetica,sans-Serif" font-size="10.00"> </text>
<polyline fill="none" stroke="#bfbfbf" points="1736.49,-857.5 1876.49,-857.5 "/>
<text text-anchor="middle" x="1806.49" y="-845.5" font-family="Helvetica,sans-Serif" font-size="10.00"> </text>
</a>
</g>
</g>
<!-- Node19&#45;&gt;Node5 -->
<g id="edge20" class="edge">
<title>Node19&#45;&gt;Node5</title>
<path fill="none" stroke="midnightblue" d="M1762.92,-832.82C1751.9,-826.05 1739.71,-819.83 1727.49,-816 1704.96,-808.94 897.73,-792.67 878.49,-779 875.4,-776.81 872.4,-774.5 869.5,-772.09"/>
<polygon fill="none" stroke="midnightblue" points="1761.18,-835.87 1771.48,-838.34 1764.97,-829.98 1761.18,-835.87"/>
</g>
</g>
</svg>
