<?xml version="1.0" encoding="UTF-8" standalone="no"?>
<!DOCTYPE svg PUBLIC "-//W3C//DTD SVG 1.1//EN"
 "http://www.w3.org/Graphics/SVG/1.1/DTD/svg11.dtd">
<!-- Generated by graphviz version 2.43.0 (0)
 -->
<!-- Title: VolumeControl.Core.Config Pages: 1 -->
<svg width="356pt" height="614pt"
 viewBox="0.00 0.00 355.50 614.00" xmlns="http://www.w3.org/2000/svg" xmlns:xlink="http://www.w3.org/1999/xlink">
<g id="graph0" class="graph" transform="scale(1 1) rotate(0) translate(4 610)">
<title>VolumeControl.Core.Config</title>
<!-- Node1 -->
<g id="node1" class="node">
<title>Node1</title>
<g id="a_node1"><a xlink:title="Contains the application configuration and logic to read from and write to JSON files.">
<polygon fill="#bfbfbf" stroke="black" points="79,-0.5 79,-211.5 258,-211.5 258,-0.5 79,-0.5"/>
<text text-anchor="middle" x="168.5" y="-199.5" font-family="Helvetica,sans-Serif" font-size="10.00">VolumeControl.Core.Config</text>
<polyline fill="none" stroke="black" points="79,-192.5 258,-192.5 "/>
<text text-anchor="start" x="87" y="-180.5" font-family="Helvetica,sans-Serif" font-size="10.00">+ KeyBlacklist</text>
<text text-anchor="start" x="87" y="-169.5" font-family="Helvetica,sans-Serif" font-size="10.00">+ PeakMeterMinValue</text>
<text text-anchor="start" x="87" y="-158.5" font-family="Helvetica,sans-Serif" font-size="10.00">+ PeakMeterMaxValue</text>
<text text-anchor="start" x="87" y="-147.5" font-family="Helvetica,sans-Serif" font-size="10.00">+ LanguageName</text>
<text text-anchor="start" x="87" y="-136.5" font-family="Helvetica,sans-Serif" font-size="10.00">+ CreateDefaultTranslation</text>
<text text-anchor="start" x="87" y="-125.5" font-family="Helvetica,sans-Serif" font-size="10.00">Files</text>
<text text-anchor="start" x="87" y="-114.5" font-family="Helvetica,sans-Serif" font-size="10.00">+ CustomLocalizationDirectories</text>
<text text-anchor="start" x="87" y="-103.5" font-family="Helvetica,sans-Serif" font-size="10.00">+ AllowMultipleDistinctInstances</text>
<text text-anchor="start" x="87" y="-92.5" font-family="Helvetica,sans-Serif" font-size="10.00">+ RunAtStartup</text>
<text text-anchor="start" x="87" y="-81.5" font-family="Helvetica,sans-Serif" font-size="10.00">+ StartMinimized</text>
<text text-anchor="start" x="87" y="-70.5" font-family="Helvetica,sans-Serif" font-size="10.00">+ ShowInTaskbar</text>
<text text-anchor="start" x="87" y="-59.5" font-family="Helvetica,sans-Serif" font-size="10.00">+ AlwaysOnTop</text>
<text text-anchor="start" x="87" y="-48.5" font-family="Helvetica,sans-Serif" font-size="10.00">+ AdvancedHotkeys</text>
<text text-anchor="start" x="87" y="-37.5" font-family="Helvetica,sans-Serif" font-size="10.00">+ ShowIcons</text>
<text text-anchor="start" x="87" y="-26.5" font-family="Helvetica,sans-Serif" font-size="10.00">and 25 more...</text>
<polyline fill="none" stroke="black" points="79,-19.5 258,-19.5 "/>
<text text-anchor="middle" x="168.5" y="-7.5" font-family="Helvetica,sans-Serif" font-size="10.00"> </text>
</a>
</g>
</g>
<!-- Node2 -->
<g id="node2" class="node">
<title>Node2</title>
<g id="a_node2"><a xlink:href="class_app_config_1_1_configuration_file.html" target="_top" xlink:title="Extends the Configuration class with a built&#45;in file Location, and adds methods that use this filepat...">
<polygon fill="none" stroke="black" points="0,-276 0,-355 155,-355 155,-276 0,-276"/>
<text text-anchor="middle" x="77.5" y="-343" font-family="Helvetica,sans-Serif" font-size="10.00">AppConfig::ConfigurationFile</text>
<polyline fill="none" stroke="black" points="0,-336 155,-336 "/>
<text text-anchor="start" x="8" y="-324" font-family="Helvetica,sans-Serif" font-size="10.00">+ Location</text>
<polyline fill="none" stroke="black" points="0,-317 155,-317 "/>
<text text-anchor="start" x="8" y="-305" font-family="Helvetica,sans-Serif" font-size="10.00">+ ConfigurationFile()</text>
<text text-anchor="start" x="8" y="-294" font-family="Helvetica,sans-Serif" font-size="10.00">+ Load()</text>
<text text-anchor="start" x="8" y="-283" font-family="Helvetica,sans-Serif" font-size="10.00">+ Save()</text>
</a>
</g>
</g>
<!-- Node2&#45;&gt;Node1 -->
<g id="edge1" class="edge">
<title>Node2&#45;&gt;Node1</title>
<path fill="none" stroke="midnightblue" d="M98.53,-266.55C105.78,-250.01 114.22,-230.77 122.67,-211.5"/>
<polygon fill="none" stroke="midnightblue" points="95.21,-265.39 94.4,-275.96 101.62,-268.2 95.21,-265.39"/>
</g>
<!-- Node3 -->
<g id="node3" class="node">
<title>Node3</title>
<g id="a_node3"><a xlink:href="class_app_config_1_1_configuration.html" target="_top" xlink:title="The most basic abstract class in the AppConfig project.">
<polygon fill="none" stroke="black" points="21.5,-409.5 21.5,-510.5 133.5,-510.5 133.5,-409.5 21.5,-409.5"/>
<text text-anchor="middle" x="77.5" y="-498.5" font-family="Helvetica,sans-Serif" font-size="10.00">Configuration</text>
<polyline fill="none" stroke="black" points="21.5,-491.5 133.5,-491.5 "/>
<text text-anchor="start" x="29.5" y="-479.5" font-family="Helvetica,sans-Serif" font-size="10.00">+ Default</text>
<text text-anchor="start" x="29.5" y="-468.5" font-family="Helvetica,sans-Serif" font-size="10.00">+ this[string name]</text>
<polyline fill="none" stroke="black" points="21.5,-461.5 133.5,-461.5 "/>
<text text-anchor="start" x="29.5" y="-449.5" font-family="Helvetica,sans-Serif" font-size="10.00">+ Configuration()</text>
<text text-anchor="start" x="29.5" y="-438.5" font-family="Helvetica,sans-Serif" font-size="10.00">+ SetTo()</text>
<text text-anchor="start" x="29.5" y="-427.5" font-family="Helvetica,sans-Serif" font-size="10.00"># Load()</text>
<text text-anchor="start" x="29.5" y="-416.5" font-family="Helvetica,sans-Serif" font-size="10.00"># Save()</text>
</a>
</g>
</g>
<!-- Node3&#45;&gt;Node2 -->
<g id="edge2" class="edge">
<title>Node3&#45;&gt;Node2</title>
<path fill="none" stroke="midnightblue" d="M77.5,-399.06C77.5,-384.26 77.5,-368.8 77.5,-355.31"/>
<polygon fill="none" stroke="midnightblue" points="74,-399.16 77.5,-409.16 81,-399.16 74,-399.16"/>
</g>
<!-- Node4 -->
<g id="node4" class="node">
<title>Node4</title>
<g id="a_node4"><a xlink:title=" ">
<polygon fill="none" stroke="#bfbfbf" points="11,-548.5 11,-605.5 144,-605.5 144,-548.5 11,-548.5"/>
<text text-anchor="middle" x="77.5" y="-593.5" font-family="Helvetica,sans-Serif" font-size="10.00">INotifyPropertyChanged</text>
<polyline fill="none" stroke="#bfbfbf" points="11,-586.5 144,-586.5 "/>
<text text-anchor="middle" x="77.5" y="-574.5" font-family="Helvetica,sans-Serif" font-size="10.00"> </text>
<polyline fill="none" stroke="#bfbfbf" points="11,-567.5 144,-567.5 "/>
<text text-anchor="middle" x="77.5" y="-555.5" font-family="Helvetica,sans-Serif" font-size="10.00"> </text>
</a>
</g>
</g>
<!-- Node4&#45;&gt;Node3 -->
<g id="edge3" class="edge">
<title>Node4&#45;&gt;Node3</title>
<path fill="none" stroke="midnightblue" d="M77.5,-538.19C77.5,-529.43 77.5,-519.99 77.5,-510.81"/>
<polygon fill="none" stroke="midnightblue" points="74,-538.45 77.5,-548.45 81,-538.45 74,-538.45"/>
</g>
<!-- Node5 -->
<g id="node5" class="node">
<title>Node5</title>
<g id="a_node5"><a xlink:href="struct_volume_control_1_1_core_1_1_input_1_1_bindable_hotkey_json_wrapper.html" target="_top" xlink:title="Acts as a temporary wrapper for the BindableHotkey class so that the JSON parser can read and write i...">
<polygon fill="none" stroke="black" points="173.5,-259.5 173.5,-371.5 347.5,-371.5 347.5,-259.5 173.5,-259.5"/>
<text text-anchor="start" x="181.5" y="-359.5" font-family="Helvetica,sans-Serif" font-size="10.00">VolumeControl.Core.Input.</text>
<text text-anchor="middle" x="260.5" y="-348.5" font-family="Helvetica,sans-Serif" font-size="10.00">BindableHotkeyJsonWrapper</text>
<polyline fill="none" stroke="black" points="173.5,-341.5 347.5,-341.5 "/>
<text text-anchor="start" x="181.5" y="-329.5" font-family="Helvetica,sans-Serif" font-size="10.00">+ Name</text>
<text text-anchor="start" x="181.5" y="-318.5" font-family="Helvetica,sans-Serif" font-size="10.00">+ Registered</text>
<text text-anchor="start" x="181.5" y="-307.5" font-family="Helvetica,sans-Serif" font-size="10.00">+ Key</text>
<text text-anchor="start" x="181.5" y="-296.5" font-family="Helvetica,sans-Serif" font-size="10.00">+ Modifier</text>
<text text-anchor="start" x="181.5" y="-285.5" font-family="Helvetica,sans-Serif" font-size="10.00">+ ActionIdentifier</text>
<polyline fill="none" stroke="black" points="173.5,-278.5 347.5,-278.5 "/>
<text text-anchor="start" x="181.5" y="-266.5" font-family="Helvetica,sans-Serif" font-size="10.00">+ BindableHotkeyJsonWrapper()</text>
</a>
</g>
</g>
<!-- Node5&#45;&gt;Node1 -->
<g id="edge4" class="edge">
<title>Node5&#45;&gt;Node1</title>
<path fill="none" stroke="#404040" d="M236.09,-259.44C231.02,-248.02 225.51,-235.58 219.88,-222.89"/>
<polygon fill="none" stroke="#404040" points="219.78,-222.67 213.7,-218.81 214.92,-211.7 221.01,-215.56 219.78,-222.67"/>
<text text-anchor="middle" x="272" y="-233" font-family="Helvetica,sans-Serif" font-size="10.00"> +Hotkeys_Default</text>
</g>
</g>
</svg>
