<?xml version="1.0" encoding="UTF-8" standalone="no"?>
<!DOCTYPE svg PUBLIC "-//W3C//DTD SVG 1.1//EN"
 "http://www.w3.org/Graphics/SVG/1.1/DTD/svg11.dtd">
<!-- Generated by graphviz version 2.43.0 (0)
 -->
<!-- Title: VolumeControl.Core.Input.Actions.ActionTargetSpecifier Pages: 1 -->
<svg width="376pt" height="182pt"
 viewBox="0.00 0.00 376.00 182.00" xmlns="http://www.w3.org/2000/svg" xmlns:xlink="http://www.w3.org/1999/xlink">
<g id="graph0" class="graph" transform="scale(1 1) rotate(0) translate(4 178)">
<title>VolumeControl.Core.Input.Actions.ActionTargetSpecifier</title>
<!-- Node1 -->
<g id="node1" class="node">
<title>Node1</title>
<g id="a_node1"><a xlink:title="Specifies a target of a hotkey action.">
<polygon fill="#bfbfbf" stroke="black" points="104.5,-105.5 104.5,-173.5 262.5,-173.5 262.5,-105.5 104.5,-105.5"/>
<text text-anchor="start" x="112.5" y="-161.5" font-family="Helvetica,sans-Serif" font-size="10.00">VolumeControl.Core.Input.</text>
<text text-anchor="middle" x="183.5" y="-150.5" font-family="Helvetica,sans-Serif" font-size="10.00">Actions.ActionTargetSpecifier</text>
<polyline fill="none" stroke="black" points="104.5,-143.5 262.5,-143.5 "/>
<text text-anchor="start" x="112.5" y="-131.5" font-family="Helvetica,sans-Serif" font-size="10.00">+ Targets</text>
<polyline fill="none" stroke="black" points="104.5,-124.5 262.5,-124.5 "/>
<text text-anchor="start" x="112.5" y="-112.5" font-family="Helvetica,sans-Serif" font-size="10.00">+ AddNewTarget()</text>
</a>
</g>
</g>
<!-- Node2 -->
<g id="node2" class="node">
<title>Node2</title>
<g id="a_node2"><a xlink:href="class_volume_control_1_1_hotkeys_1_1_helpers_1_1_device_specifier.html" target="_top" xlink:title="Used to specify AudioDevice targets for hotkey actions.">
<polygon fill="none" stroke="black" points="0,-0.5 0,-68.5 175,-68.5 175,-0.5 0,-0.5"/>
<text text-anchor="start" x="8" y="-56.5" font-family="Helvetica,sans-Serif" font-size="10.00">VolumeControl.Hotkeys.Helpers.</text>
<text text-anchor="middle" x="87.5" y="-45.5" font-family="Helvetica,sans-Serif" font-size="10.00">DeviceSpecifier</text>
<polyline fill="none" stroke="black" points="0,-38.5 175,-38.5 "/>
<text text-anchor="middle" x="87.5" y="-26.5" font-family="Helvetica,sans-Serif" font-size="10.00"> </text>
<polyline fill="none" stroke="black" points="0,-19.5 175,-19.5 "/>
<text text-anchor="start" x="8" y="-7.5" font-family="Helvetica,sans-Serif" font-size="10.00">+ AddNewTarget()</text>
</a>
</g>
</g>
<!-- Node1&#45;&gt;Node2 -->
<g id="edge1" class="edge">
<title>Node1&#45;&gt;Node2</title>
<path fill="none" stroke="midnightblue" d="M145.77,-98.02C136.68,-88.27 127.08,-77.96 118.35,-68.59"/>
<polygon fill="none" stroke="midnightblue" points="143.22,-100.41 152.6,-105.34 148.34,-95.64 143.22,-100.41"/>
</g>
<!-- Node3 -->
<g id="node3" class="node">
<title>Node3</title>
<g id="a_node3"><a xlink:href="class_volume_control_1_1_hotkeys_1_1_helpers_1_1_session_specifier.html" target="_top" xlink:title="Used to specify AudioSession targets for hotkey actions.">
<polygon fill="none" stroke="black" points="193,-0.5 193,-68.5 368,-68.5 368,-0.5 193,-0.5"/>
<text text-anchor="start" x="201" y="-56.5" font-family="Helvetica,sans-Serif" font-size="10.00">VolumeControl.Hotkeys.Helpers.</text>
<text text-anchor="middle" x="280.5" y="-45.5" font-family="Helvetica,sans-Serif" font-size="10.00">SessionSpecifier</text>
<polyline fill="none" stroke="black" points="193,-38.5 368,-38.5 "/>
<text text-anchor="middle" x="280.5" y="-26.5" font-family="Helvetica,sans-Serif" font-size="10.00"> </text>
<polyline fill="none" stroke="black" points="193,-19.5 368,-19.5 "/>
<text text-anchor="start" x="201" y="-7.5" font-family="Helvetica,sans-Serif" font-size="10.00">+ AddNewTarget()</text>
</a>
</g>
</g>
<!-- Node1&#45;&gt;Node3 -->
<g id="edge2" class="edge">
<title>Node1&#45;&gt;Node3</title>
<path fill="none" stroke="midnightblue" d="M221.62,-98.02C230.81,-88.27 240.51,-77.96 249.33,-68.59"/>
<polygon fill="none" stroke="midnightblue" points="219.03,-95.66 214.73,-105.34 224.13,-100.46 219.03,-95.66"/>
</g>
</g>
</svg>
