<?xml version="1.0" encoding="UTF-8" standalone="no"?>
<!DOCTYPE svg PUBLIC "-//W3C//DTD SVG 1.1//EN"
 "http://www.w3.org/Graphics/SVG/1.1/DTD/svg11.dtd">
<!-- Generated by graphviz version 2.43.0 (0)
 -->
<!-- Title: VolumeControl.Core.Input.Actions.HotkeyActionSetting Pages: 1 -->
<svg width="163pt" height="259pt"
 viewBox="0.00 0.00 163.00 259.00" xmlns="http://www.w3.org/2000/svg" xmlns:xlink="http://www.w3.org/1999/xlink">
<g id="graph0" class="graph" transform="scale(1 1) rotate(0) translate(4 255)">
<title>VolumeControl.Core.Input.Actions.HotkeyActionSetting</title>
<!-- Node1 -->
<g id="node1" class="node">
<title>Node1</title>
<g id="a_node1"><a xlink:title="Small container for hotkey action setting data">
<polygon fill="#bfbfbf" stroke="black" points="0,-0.5 0,-123.5 155,-123.5 155,-0.5 0,-0.5"/>
<text text-anchor="start" x="8" y="-111.5" font-family="Helvetica,sans-Serif" font-size="10.00">VolumeControl.Core.Input.</text>
<text text-anchor="middle" x="77.5" y="-100.5" font-family="Helvetica,sans-Serif" font-size="10.00">Actions.HotkeyActionSetting</text>
<polyline fill="none" stroke="black" points="0,-93.5 155,-93.5 "/>
<text text-anchor="start" x="8" y="-81.5" font-family="Helvetica,sans-Serif" font-size="10.00">+ Label</text>
<text text-anchor="start" x="8" y="-70.5" font-family="Helvetica,sans-Serif" font-size="10.00">+ ValueType</text>
<text text-anchor="start" x="8" y="-59.5" font-family="Helvetica,sans-Serif" font-size="10.00">+ Value</text>
<text text-anchor="start" x="8" y="-48.5" font-family="Helvetica,sans-Serif" font-size="10.00">+ Description</text>
<polyline fill="none" stroke="black" points="0,-41.5 155,-41.5 "/>
<text text-anchor="start" x="8" y="-29.5" font-family="Helvetica,sans-Serif" font-size="10.00">+ HotkeyActionSetting()</text>
<text text-anchor="start" x="8" y="-18.5" font-family="Helvetica,sans-Serif" font-size="10.00">+ HotkeyActionSetting()</text>
<text text-anchor="start" x="8" y="-7.5" font-family="Helvetica,sans-Serif" font-size="10.00">+ HotkeyActionSetting()</text>
</a>
</g>
</g>
<!-- Node2 -->
<g id="node2" class="node">
<title>Node2</title>
<g id="a_node2"><a xlink:href="interface_volume_control_1_1_core_1_1_input_1_1_actions_1_1_i_hotkey_action_setting.html" target="_top" xlink:title=" ">
<polygon fill="none" stroke="black" points="18,-160.5 18,-250.5 137,-250.5 137,-160.5 18,-160.5"/>
<text text-anchor="middle" x="77.5" y="-238.5" font-family="Helvetica,sans-Serif" font-size="10.00">IHotkeyActionSetting</text>
<polyline fill="none" stroke="black" points="18,-231.5 137,-231.5 "/>
<text text-anchor="start" x="26" y="-219.5" font-family="Helvetica,sans-Serif" font-size="10.00">+ Label</text>
<text text-anchor="start" x="26" y="-208.5" font-family="Helvetica,sans-Serif" font-size="10.00">+ ValueType</text>
<text text-anchor="start" x="26" y="-197.5" font-family="Helvetica,sans-Serif" font-size="10.00">+ Value</text>
<text text-anchor="start" x="26" y="-186.5" font-family="Helvetica,sans-Serif" font-size="10.00">+ Description</text>
<polyline fill="none" stroke="black" points="18,-179.5 137,-179.5 "/>
<text text-anchor="middle" x="77.5" y="-167.5" font-family="Helvetica,sans-Serif" font-size="10.00"> </text>
</a>
</g>
</g>
<!-- Node2&#45;&gt;Node1 -->
<g id="edge1" class="edge">
<title>Node2&#45;&gt;Node1</title>
<path fill="none" stroke="midnightblue" d="M77.5,-150.11C77.5,-141.42 77.5,-132.38 77.5,-123.56"/>
<polygon fill="none" stroke="midnightblue" points="74,-150.12 77.5,-160.12 81,-150.12 74,-150.12"/>
</g>
</g>
</svg>
