<?xml version="1.0" encoding="UTF-8" standalone="no"?>
<!DOCTYPE svg PUBLIC "-//W3C//DTD SVG 1.1//EN"
 "http://www.w3.org/Graphics/SVG/1.1/DTD/svg11.dtd">
<!-- Generated by graphviz version 2.43.0 (0)
 -->
<!-- Title: AppConfig.ConfigurationFile Pages: 1 -->
<svg width="187pt" height="579pt"
 viewBox="0.00 0.00 187.00 579.00" xmlns="http://www.w3.org/2000/svg" xmlns:xlink="http://www.w3.org/1999/xlink">
<g id="graph0" class="graph" transform="scale(1 1) rotate(0) translate(4 575)">
<title>AppConfig.ConfigurationFile</title>
<!-- Node1 -->
<g id="node1" class="node">
<title>Node1</title>
<g id="a_node1"><a xlink:title="Extends the Configuration class with a built&#45;in file Location, and adds methods that use this filepat...">
<polygon fill="#bfbfbf" stroke="black" points="13.5,-259.5 13.5,-338.5 165.5,-338.5 165.5,-259.5 13.5,-259.5"/>
<text text-anchor="middle" x="89.5" y="-326.5" font-family="Helvetica,sans-Serif" font-size="10.00">AppConfig.ConfigurationFile</text>
<polyline fill="none" stroke="black" points="13.5,-319.5 165.5,-319.5 "/>
<text text-anchor="start" x="21.5" y="-307.5" font-family="Helvetica,sans-Serif" font-size="10.00">+ Location</text>
<polyline fill="none" stroke="black" points="13.5,-300.5 165.5,-300.5 "/>
<text text-anchor="start" x="21.5" y="-288.5" font-family="Helvetica,sans-Serif" font-size="10.00">+ ConfigurationFile()</text>
<text text-anchor="start" x="21.5" y="-277.5" font-family="Helvetica,sans-Serif" font-size="10.00">+ Load()</text>
<text text-anchor="start" x="21.5" y="-266.5" font-family="Helvetica,sans-Serif" font-size="10.00">+ Save()</text>
</a>
</g>
</g>
<!-- Node4 -->
<g id="node4" class="node">
<title>Node4</title>
<g id="a_node4"><a xlink:href="class_volume_control_1_1_core_1_1_config.html" target="_top" xlink:title="Contains the application configuration and logic to read from and write to JSON files.">
<polygon fill="none" stroke="black" points="0,-0.5 0,-222.5 179,-222.5 179,-0.5 0,-0.5"/>
<text text-anchor="middle" x="89.5" y="-210.5" font-family="Helvetica,sans-Serif" font-size="10.00">VolumeControl.Core.Config</text>
<polyline fill="none" stroke="black" points="0,-203.5 179,-203.5 "/>
<text text-anchor="start" x="8" y="-191.5" font-family="Helvetica,sans-Serif" font-size="10.00">+ KeyBlacklist</text>
<text text-anchor="start" x="8" y="-180.5" font-family="Helvetica,sans-Serif" font-size="10.00">+ Hotkeys_Default</text>
<text text-anchor="start" x="8" y="-169.5" font-family="Helvetica,sans-Serif" font-size="10.00">+ PeakMeterMinValue</text>
<text text-anchor="start" x="8" y="-158.5" font-family="Helvetica,sans-Serif" font-size="10.00">+ PeakMeterMaxValue</text>
<text text-anchor="start" x="8" y="-147.5" font-family="Helvetica,sans-Serif" font-size="10.00">+ LanguageName</text>
<text text-anchor="start" x="8" y="-136.5" font-family="Helvetica,sans-Serif" font-size="10.00">+ CreateDefaultTranslation</text>
<text text-anchor="start" x="8" y="-125.5" font-family="Helvetica,sans-Serif" font-size="10.00">Files</text>
<text text-anchor="start" x="8" y="-114.5" font-family="Helvetica,sans-Serif" font-size="10.00">+ CustomLocalizationDirectories</text>
<text text-anchor="start" x="8" y="-103.5" font-family="Helvetica,sans-Serif" font-size="10.00">+ AllowMultipleDistinctInstances</text>
<text text-anchor="start" x="8" y="-92.5" font-family="Helvetica,sans-Serif" font-size="10.00">+ RunAtStartup</text>
<text text-anchor="start" x="8" y="-81.5" font-family="Helvetica,sans-Serif" font-size="10.00">+ StartMinimized</text>
<text text-anchor="start" x="8" y="-70.5" font-family="Helvetica,sans-Serif" font-size="10.00">+ ShowInTaskbar</text>
<text text-anchor="start" x="8" y="-59.5" font-family="Helvetica,sans-Serif" font-size="10.00">+ AlwaysOnTop</text>
<text text-anchor="start" x="8" y="-48.5" font-family="Helvetica,sans-Serif" font-size="10.00">+ AdvancedHotkeys</text>
<text text-anchor="start" x="8" y="-37.5" font-family="Helvetica,sans-Serif" font-size="10.00">+ ShowIcons</text>
<text text-anchor="start" x="8" y="-26.5" font-family="Helvetica,sans-Serif" font-size="10.00">and 25 more...</text>
<polyline fill="none" stroke="black" points="0,-19.5 179,-19.5 "/>
<text text-anchor="middle" x="89.5" y="-7.5" font-family="Helvetica,sans-Serif" font-size="10.00"> </text>
</a>
</g>
</g>
<!-- Node1&#45;&gt;Node4 -->
<g id="edge3" class="edge">
<title>Node1&#45;&gt;Node4</title>
<path fill="none" stroke="midnightblue" d="M89.5,-248.99C89.5,-240.72 89.5,-231.85 89.5,-222.75"/>
<polygon fill="none" stroke="midnightblue" points="86,-249.11 89.5,-259.11 93,-249.11 86,-249.11"/>
</g>
<!-- Node2 -->
<g id="node2" class="node">
<title>Node2</title>
<g id="a_node2"><a xlink:href="class_app_config_1_1_configuration.html" target="_top" xlink:title="The most basic abstract class in the AppConfig project.">
<polygon fill="none" stroke="black" points="33.5,-375.5 33.5,-476.5 145.5,-476.5 145.5,-375.5 33.5,-375.5"/>
<text text-anchor="middle" x="89.5" y="-464.5" font-family="Helvetica,sans-Serif" font-size="10.00">Configuration</text>
<polyline fill="none" stroke="black" points="33.5,-457.5 145.5,-457.5 "/>
<text text-anchor="start" x="41.5" y="-445.5" font-family="Helvetica,sans-Serif" font-size="10.00">+ Default</text>
<text text-anchor="start" x="41.5" y="-434.5" font-family="Helvetica,sans-Serif" font-size="10.00">+ this[string name]</text>
<polyline fill="none" stroke="black" points="33.5,-427.5 145.5,-427.5 "/>
<text text-anchor="start" x="41.5" y="-415.5" font-family="Helvetica,sans-Serif" font-size="10.00">+ Configuration()</text>
<text text-anchor="start" x="41.5" y="-404.5" font-family="Helvetica,sans-Serif" font-size="10.00">+ SetTo()</text>
<text text-anchor="start" x="41.5" y="-393.5" font-family="Helvetica,sans-Serif" font-size="10.00"># Load()</text>
<text text-anchor="start" x="41.5" y="-382.5" font-family="Helvetica,sans-Serif" font-size="10.00"># Save()</text>
</a>
</g>
</g>
<!-- Node2&#45;&gt;Node1 -->
<g id="edge1" class="edge">
<title>Node2&#45;&gt;Node1</title>
<path fill="none" stroke="midnightblue" d="M89.5,-365.19C89.5,-356.22 89.5,-347.18 89.5,-338.81"/>
<polygon fill="none" stroke="midnightblue" points="86,-365.24 89.5,-375.24 93,-365.24 86,-365.24"/>
</g>
<!-- Node3 -->
<g id="node3" class="node">
<title>Node3</title>
<g id="a_node3"><a xlink:title=" ">
<polygon fill="none" stroke="#bfbfbf" points="23,-513.5 23,-570.5 156,-570.5 156,-513.5 23,-513.5"/>
<text text-anchor="middle" x="89.5" y="-558.5" font-family="Helvetica,sans-Serif" font-size="10.00">INotifyPropertyChanged</text>
<polyline fill="none" stroke="#bfbfbf" points="23,-551.5 156,-551.5 "/>
<text text-anchor="middle" x="89.5" y="-539.5" font-family="Helvetica,sans-Serif" font-size="10.00"> </text>
<polyline fill="none" stroke="#bfbfbf" points="23,-532.5 156,-532.5 "/>
<text text-anchor="middle" x="89.5" y="-520.5" font-family="Helvetica,sans-Serif" font-size="10.00"> </text>
</a>
</g>
</g>
<!-- Node3&#45;&gt;Node2 -->
<g id="edge2" class="edge">
<title>Node3&#45;&gt;Node2</title>
<path fill="none" stroke="midnightblue" d="M89.5,-503.35C89.5,-494.8 89.5,-485.58 89.5,-476.61"/>
<polygon fill="none" stroke="midnightblue" points="86,-503.4 89.5,-513.4 93,-503.4 86,-503.4"/>
</g>
</g>
</svg>
