<?xml version="1.0" encoding="UTF-8" standalone="no"?>
<!DOCTYPE svg PUBLIC "-//W3C//DTD SVG 1.1//EN"
 "http://www.w3.org/Graphics/SVG/1.1/DTD/svg11.dtd">
<!-- Generated by graphviz version 2.43.0 (0)
 -->
<!-- Title: VolumeControl.Log.LogWriter.Debug Pages: 1 -->
<svg width="564pt" height="235pt"
 viewBox="0.00 0.00 564.00 235.00" xmlns="http://www.w3.org/2000/svg" xmlns:xlink="http://www.w3.org/1999/xlink">
<g id="graph0" class="graph" transform="scale(1 1) rotate(0) translate(4 231)">
<title>VolumeControl.Log.LogWriter.Debug</title>
<!-- Node1 -->
<g id="node1" class="node">
<title>Node1</title>
<g id="a_node1"><a xlink:title="Write a formatted EventType.DEBUG message to the log endpoint.">
<polygon fill="#bfbfbf" stroke="black" points="395,-98.5 395,-128.5 556,-128.5 556,-98.5 395,-98.5"/>
<text text-anchor="start" x="403" y="-116.5" font-family="Helvetica,sans-Serif" font-size="10.00">VolumeControl.Log.LogWriter.</text>
<text text-anchor="middle" x="475.5" y="-105.5" font-family="Helvetica,sans-Serif" font-size="10.00">Debug</text>
</a>
</g>
</g>
<!-- Node2 -->
<g id="node2" class="node">
<title>Node2</title>
<g id="a_node2"><a xlink:href="class_volume_control_1_1_w_p_f_1_1_h_wnd_hook.html#ac375922fcbe751d605d86b2fab01b17d" target="_top" xlink:title="Adds a message handler.">
<polygon fill="none" stroke="black" points="186,-196.5 186,-226.5 359,-226.5 359,-196.5 186,-196.5"/>
<text text-anchor="start" x="194" y="-214.5" font-family="Helvetica,sans-Serif" font-size="10.00">VolumeControl.WPF.HWndHook.</text>
<text text-anchor="middle" x="272.5" y="-203.5" font-family="Helvetica,sans-Serif" font-size="10.00">AddHook</text>
</a>
</g>
</g>
<!-- Node1&#45;&gt;Node2 -->
<g id="edge1" class="edge">
<title>Node1&#45;&gt;Node2</title>
<path fill="none" stroke="midnightblue" d="M446.98,-134.46C424.37,-150.84 390.98,-173.15 359,-187.5 351.54,-190.84 343.51,-193.83 335.46,-196.47"/>
<polygon fill="midnightblue" stroke="midnightblue" points="449.1,-137.25 455.09,-128.51 444.95,-131.61 449.1,-137.25"/>
</g>
<!-- Node3 -->
<g id="node3" class="node">
<title>Node3</title>
<g id="a_node3"><a xlink:href="class_volume_control_1_1_w_p_f_1_1_icon_getter.html#ae57feab69f052d45a780d8153d87af54" target="_top" xlink:title="Gets the large and small variants of the specified icon from the specified DLL.">
<polygon fill="none" stroke="black" points="188.5,-147.5 188.5,-177.5 356.5,-177.5 356.5,-147.5 188.5,-147.5"/>
<text text-anchor="start" x="196.5" y="-165.5" font-family="Helvetica,sans-Serif" font-size="10.00">VolumeControl.WPF.IconGetter.</text>
<text text-anchor="middle" x="272.5" y="-154.5" font-family="Helvetica,sans-Serif" font-size="10.00">GetIcons</text>
</a>
</g>
</g>
<!-- Node1&#45;&gt;Node3 -->
<g id="edge2" class="edge">
<title>Node1&#45;&gt;Node3</title>
<path fill="none" stroke="midnightblue" d="M403.11,-130.9C380.87,-136.32 356.56,-142.25 335.06,-147.49"/>
<polygon fill="midnightblue" stroke="midnightblue" points="403.94,-134.3 412.83,-128.53 402.28,-127.5 403.94,-134.3"/>
</g>
<!-- Node6 -->
<g id="node6" class="node">
<title>Node6</title>
<g id="a_node6"><a xlink:href="class_volume_control_1_1_core_1_1_config.html#a6c890b9f23d737235d707b288ae0899f" target="_top" xlink:title="Pauses automatic saving of the config to disk whenever a PropertyChanged event is triggered.">
<polygon fill="none" stroke="black" points="197,-98.5 197,-128.5 348,-128.5 348,-98.5 197,-98.5"/>
<text text-anchor="start" x="205" y="-116.5" font-family="Helvetica,sans-Serif" font-size="10.00">VolumeControl.Core.Config.</text>
<text text-anchor="middle" x="272.5" y="-105.5" font-family="Helvetica,sans-Serif" font-size="10.00">PauseAutoSave</text>
</a>
</g>
</g>
<!-- Node1&#45;&gt;Node6 -->
<g id="edge5" class="edge">
<title>Node1&#45;&gt;Node6</title>
<path fill="none" stroke="midnightblue" d="M384.62,-113.5C372.46,-113.5 360.09,-113.5 348.23,-113.5"/>
<polygon fill="midnightblue" stroke="midnightblue" points="384.77,-117 394.77,-113.5 384.77,-110 384.77,-117"/>
</g>
<!-- Node7 -->
<g id="node7" class="node">
<title>Node7</title>
<g id="a_node7"><a xlink:href="class_volume_control_1_1_w_p_f_1_1_h_wnd_hook.html#af0585367ed6c7c839158d03f4fd73830" target="_top" xlink:title="Removes a message handler.">
<polygon fill="none" stroke="black" points="186,-49.5 186,-79.5 359,-79.5 359,-49.5 186,-49.5"/>
<text text-anchor="start" x="194" y="-67.5" font-family="Helvetica,sans-Serif" font-size="10.00">VolumeControl.WPF.HWndHook.</text>
<text text-anchor="middle" x="272.5" y="-56.5" font-family="Helvetica,sans-Serif" font-size="10.00">RemoveHook</text>
</a>
</g>
</g>
<!-- Node1&#45;&gt;Node7 -->
<g id="edge6" class="edge">
<title>Node1&#45;&gt;Node7</title>
<path fill="none" stroke="midnightblue" d="M403.11,-96.1C380.87,-90.68 356.56,-84.75 335.06,-79.51"/>
<polygon fill="midnightblue" stroke="midnightblue" points="402.28,-99.5 412.83,-98.47 403.94,-92.7 402.28,-99.5"/>
</g>
<!-- Node8 -->
<g id="node8" class="node">
<title>Node8</title>
<g id="a_node8"><a xlink:href="class_volume_control_1_1_w_p_f_1_1_h_wnd_hook.html#a868775e4b7d5ddf507899f279feb7231" target="_top" xlink:title="Sets the HwndSource used to add and remove hooks.">
<polygon fill="none" stroke="black" points="186,-0.5 186,-30.5 359,-30.5 359,-0.5 186,-0.5"/>
<text text-anchor="start" x="194" y="-18.5" font-family="Helvetica,sans-Serif" font-size="10.00">VolumeControl.WPF.HWndHook.</text>
<text text-anchor="middle" x="272.5" y="-7.5" font-family="Helvetica,sans-Serif" font-size="10.00">SetSource</text>
</a>
</g>
</g>
<!-- Node1&#45;&gt;Node8 -->
<g id="edge7" class="edge">
<title>Node1&#45;&gt;Node8</title>
<path fill="none" stroke="midnightblue" d="M446.48,-92.64C423.83,-76.58 390.63,-54.78 359,-40.5 350.82,-36.81 341.96,-33.51 333.15,-30.61"/>
<polygon fill="midnightblue" stroke="midnightblue" points="444.45,-95.5 454.62,-98.49 448.54,-89.81 444.45,-95.5"/>
</g>
<!-- Node4 -->
<g id="node4" class="node">
<title>Node4</title>
<g id="a_node4"><a xlink:href="class_volume_control_1_1_audio_1_1_audio_device.html#ab0260c210a99e81c0f78deef4abeeb7e" target="_top" xlink:title=" ">
<polygon fill="none" stroke="black" points="0,-171.5 0,-201.5 150,-201.5 150,-171.5 0,-171.5"/>
<text text-anchor="start" x="8" y="-189.5" font-family="Helvetica,sans-Serif" font-size="10.00">VolumeControl.Audio.Audio</text>
<text text-anchor="middle" x="75" y="-178.5" font-family="Helvetica,sans-Serif" font-size="10.00">Device.GetIcons</text>
</a>
</g>
</g>
<!-- Node3&#45;&gt;Node4 -->
<g id="edge3" class="edge">
<title>Node3&#45;&gt;Node4</title>
<path fill="none" stroke="midnightblue" d="M178.15,-173.96C168.75,-175.11 159.3,-176.27 150.15,-177.4"/>
<polygon fill="midnightblue" stroke="midnightblue" points="178.81,-177.41 188.31,-172.71 177.95,-170.46 178.81,-177.41"/>
</g>
<!-- Node5 -->
<g id="node5" class="node">
<title>Node5</title>
<g id="a_node5"><a xlink:href="class_volume_control_1_1_audio_1_1_audio_session.html#ac0154b840ada9e66ac201e3660ec714c" target="_top" xlink:title=" ">
<polygon fill="none" stroke="black" points="0,-122.5 0,-152.5 150,-152.5 150,-122.5 0,-122.5"/>
<text text-anchor="start" x="8" y="-140.5" font-family="Helvetica,sans-Serif" font-size="10.00">VolumeControl.Audio.Audio</text>
<text text-anchor="middle" x="75" y="-129.5" font-family="Helvetica,sans-Serif" font-size="10.00">Session.GetIcons</text>
</a>
</g>
</g>
<!-- Node3&#45;&gt;Node5 -->
<g id="edge4" class="edge">
<title>Node3&#45;&gt;Node5</title>
<path fill="none" stroke="midnightblue" d="M178.15,-150.56C168.75,-149.36 159.3,-148.15 150.15,-146.98"/>
<polygon fill="midnightblue" stroke="midnightblue" points="177.94,-154.06 188.31,-151.86 178.83,-147.12 177.94,-154.06"/>
</g>
</g>
</svg>
