<?xml version="1.0" encoding="UTF-8" standalone="no"?>
<!DOCTYPE svg PUBLIC "-//W3C//DTD SVG 1.1//EN"
 "http://www.w3.org/Graphics/SVG/1.1/DTD/svg11.dtd">
<!-- Generated by graphviz version 2.43.0 (0)
 -->
<!-- Title: VolumeControl.Hotkeys.HotkeyManager Pages: 1 -->
<svg width="691pt" height="496pt"
 viewBox="0.00 0.00 691.00 496.00" xmlns="http://www.w3.org/2000/svg" xmlns:xlink="http://www.w3.org/1999/xlink">
<g id="graph0" class="graph" transform="scale(1 1) rotate(0) translate(4 492)">
<title>VolumeControl.Hotkeys.HotkeyManager</title>
<!-- Node1 -->
<g id="node1" class="node">
<title>Node1</title>
<g id="a_node1"><a xlink:title="This object is responsible for managing hotkeys at runtime.">
<polygon fill="#bfbfbf" stroke="black" points="121.5,-0.5 121.5,-222.5 290.5,-222.5 290.5,-0.5 121.5,-0.5"/>
<text text-anchor="start" x="129.5" y="-210.5" font-family="Helvetica,sans-Serif" font-size="10.00">VolumeControl.Hotkeys.Hotkey</text>
<text text-anchor="middle" x="206" y="-199.5" font-family="Helvetica,sans-Serif" font-size="10.00">Manager</text>
<polyline fill="none" stroke="black" points="121.5,-192.5 290.5,-192.5 "/>
<text text-anchor="start" x="129.5" y="-180.5" font-family="Helvetica,sans-Serif" font-size="10.00">+ CollectionChanged</text>
<text text-anchor="start" x="129.5" y="-169.5" font-family="Helvetica,sans-Serif" font-size="10.00">+ Hotkeys</text>
<text text-anchor="start" x="129.5" y="-158.5" font-family="Helvetica,sans-Serif" font-size="10.00">+ AllSelected</text>
<polyline fill="none" stroke="black" points="121.5,-151.5 290.5,-151.5 "/>
<text text-anchor="start" x="129.5" y="-139.5" font-family="Helvetica,sans-Serif" font-size="10.00">+ HotkeyManager()</text>
<text text-anchor="start" x="129.5" y="-128.5" font-family="Helvetica,sans-Serif" font-size="10.00">+ AddHotkey()</text>
<text text-anchor="start" x="129.5" y="-117.5" font-family="Helvetica,sans-Serif" font-size="10.00">+ AddHotkey()</text>
<text text-anchor="start" x="129.5" y="-106.5" font-family="Helvetica,sans-Serif" font-size="10.00">+ AddHotkey()</text>
<text text-anchor="start" x="129.5" y="-95.5" font-family="Helvetica,sans-Serif" font-size="10.00">+ DelHotkey()</text>
<text text-anchor="start" x="129.5" y="-84.5" font-family="Helvetica,sans-Serif" font-size="10.00">+ DelHotkey()</text>
<text text-anchor="start" x="129.5" y="-73.5" font-family="Helvetica,sans-Serif" font-size="10.00">+ DelAllHotkeys()</text>
<text text-anchor="start" x="129.5" y="-62.5" font-family="Helvetica,sans-Serif" font-size="10.00">+ GetHotkey()</text>
<text text-anchor="start" x="129.5" y="-51.5" font-family="Helvetica,sans-Serif" font-size="10.00">+ LoadHotkeys()</text>
<text text-anchor="start" x="129.5" y="-40.5" font-family="Helvetica,sans-Serif" font-size="10.00">+ SaveHotkeys()</text>
<text text-anchor="start" x="129.5" y="-29.5" font-family="Helvetica,sans-Serif" font-size="10.00">+ ResetHotkeys()</text>
<text text-anchor="start" x="129.5" y="-18.5" font-family="Helvetica,sans-Serif" font-size="10.00">+ Dispose()</text>
<text text-anchor="start" x="129.5" y="-7.5" font-family="Helvetica,sans-Serif" font-size="10.00"># NotifyPropertyChanged()</text>
</a>
</g>
</g>
<!-- Node2 -->
<g id="node2" class="node">
<title>Node2</title>
<g id="a_node2"><a xlink:title=" ">
<polygon fill="none" stroke="#bfbfbf" points="0,-287 0,-344 140,-344 140,-287 0,-287"/>
<text text-anchor="middle" x="70" y="-332" font-family="Helvetica,sans-Serif" font-size="10.00">INotifyCollectionChanged</text>
<polyline fill="none" stroke="#bfbfbf" points="0,-325 140,-325 "/>
<text text-anchor="middle" x="70" y="-313" font-family="Helvetica,sans-Serif" font-size="10.00"> </text>
<polyline fill="none" stroke="#bfbfbf" points="0,-306 140,-306 "/>
<text text-anchor="middle" x="70" y="-294" font-family="Helvetica,sans-Serif" font-size="10.00"> </text>
</a>
</g>
</g>
<!-- Node2&#45;&gt;Node1 -->
<g id="edge1" class="edge">
<title>Node2&#45;&gt;Node1</title>
<path fill="none" stroke="midnightblue" d="M94.3,-278.41C105,-262.52 118.2,-242.9 131.74,-222.79"/>
<polygon fill="none" stroke="midnightblue" points="91.31,-276.59 88.63,-286.84 97.11,-280.5 91.31,-276.59"/>
</g>
<!-- Node3 -->
<g id="node3" class="node">
<title>Node3</title>
<g id="a_node3"><a xlink:title=" ">
<polygon fill="none" stroke="#bfbfbf" points="82.5,-419.5 82.5,-476.5 215.5,-476.5 215.5,-419.5 82.5,-419.5"/>
<text text-anchor="middle" x="149" y="-464.5" font-family="Helvetica,sans-Serif" font-size="10.00">INotifyPropertyChanged</text>
<polyline fill="none" stroke="#bfbfbf" points="82.5,-457.5 215.5,-457.5 "/>
<text text-anchor="middle" x="149" y="-445.5" font-family="Helvetica,sans-Serif" font-size="10.00"> </text>
<polyline fill="none" stroke="#bfbfbf" points="82.5,-438.5 215.5,-438.5 "/>
<text text-anchor="middle" x="149" y="-426.5" font-family="Helvetica,sans-Serif" font-size="10.00"> </text>
</a>
</g>
</g>
<!-- Node3&#45;&gt;Node1 -->
<g id="edge2" class="edge">
<title>Node3&#45;&gt;Node1</title>
<path fill="none" stroke="midnightblue" d="M155.4,-409.45C163.06,-364.49 176.23,-287.19 187.22,-222.73"/>
<polygon fill="none" stroke="midnightblue" points="151.94,-408.9 153.71,-419.34 158.84,-410.07 151.94,-408.9"/>
</g>
<!-- Node5 -->
<g id="node5" class="node">
<title>Node5</title>
<g id="a_node5"><a xlink:href="interface_volume_control_1_1_hotkeys_1_1_interfaces_1_1_i_hotkey_action_manager.html" target="_top" xlink:title="Represents a hotkey action manager object, which contains the list of IActionBindings used in the hot...">
<polygon fill="none" stroke="black" points="196,-270.5 196,-360.5 382,-360.5 382,-270.5 196,-270.5"/>
<text text-anchor="start" x="204" y="-348.5" font-family="Helvetica,sans-Serif" font-size="10.00">VolumeControl.Hotkeys.Interfaces.</text>
<text text-anchor="middle" x="289" y="-337.5" font-family="Helvetica,sans-Serif" font-size="10.00">IHotkeyActionManager</text>
<polyline fill="none" stroke="black" points="196,-330.5 382,-330.5 "/>
<text text-anchor="start" x="204" y="-318.5" font-family="Helvetica,sans-Serif" font-size="10.00">+ NullActionHandler</text>
<text text-anchor="start" x="204" y="-307.5" font-family="Helvetica,sans-Serif" font-size="10.00">+ Bindings</text>
<text text-anchor="start" x="204" y="-296.5" font-family="Helvetica,sans-Serif" font-size="10.00">+ this[string identifier]</text>
<polyline fill="none" stroke="black" points="196,-289.5 382,-289.5 "/>
<text text-anchor="middle" x="289" y="-277.5" font-family="Helvetica,sans-Serif" font-size="10.00"> </text>
</a>
</g>
</g>
<!-- Node3&#45;&gt;Node5 -->
<g id="edge6" class="edge">
<title>Node3&#45;&gt;Node5</title>
<path fill="none" stroke="midnightblue" d="M186.26,-412.27C203.28,-396.4 223.64,-377.43 241.72,-360.57"/>
<polygon fill="none" stroke="midnightblue" points="183.62,-409.95 178.69,-419.32 188.39,-415.07 183.62,-409.95"/>
</g>
<!-- Node4 -->
<g id="node4" class="node">
<title>Node4</title>
<g id="a_node4"><a xlink:title=" ">
<polygon fill="none" stroke="#bfbfbf" points="400,-287 400,-344 474,-344 474,-287 400,-287"/>
<text text-anchor="middle" x="437" y="-332" font-family="Helvetica,sans-Serif" font-size="10.00">IDisposable</text>
<polyline fill="none" stroke="#bfbfbf" points="400,-325 474,-325 "/>
<text text-anchor="middle" x="437" y="-313" font-family="Helvetica,sans-Serif" font-size="10.00"> </text>
<polyline fill="none" stroke="#bfbfbf" points="400,-306 474,-306 "/>
<text text-anchor="middle" x="437" y="-294" font-family="Helvetica,sans-Serif" font-size="10.00"> </text>
</a>
</g>
</g>
<!-- Node4&#45;&gt;Node1 -->
<g id="edge3" class="edge">
<title>Node4&#45;&gt;Node1</title>
<path fill="none" stroke="midnightblue" d="M401.74,-279.95C398.14,-276.56 394.52,-273.19 391,-270 358.83,-240.8 322.6,-209.6 290.78,-182.74"/>
<polygon fill="none" stroke="midnightblue" points="399.39,-282.55 409.05,-286.91 404.22,-277.48 399.39,-282.55"/>
</g>
<!-- Node5&#45;&gt;Node1 -->
<g id="edge4" class="edge">
<title>Node5&#45;&gt;Node1</title>
<path fill="none" stroke="#404040" d="M270.79,-270.17C266.25,-259.12 261.16,-246.74 255.88,-233.89"/>
<polygon fill="none" stroke="#404040" points="255.76,-233.61 249.78,-229.58 251.2,-222.51 257.18,-226.54 255.76,-233.61"/>
<text text-anchor="middle" x="287" y="-244" font-family="Helvetica,sans-Serif" font-size="10.00"> +Actions</text>
</g>
<!-- Node6 -->
<g id="node6" class="node">
<title>Node6</title>
<g id="a_node6"><a xlink:href="interface_volume_control_1_1_core_1_1_i_base_addon.html" target="_top" xlink:title="Represents any type of Volume Control addon definition object. &#160;This interface is implemented by the ...">
<polygon fill="none" stroke="black" points="233.5,-414 233.5,-482 344.5,-482 344.5,-414 233.5,-414"/>
<text text-anchor="middle" x="289" y="-470" font-family="Helvetica,sans-Serif" font-size="10.00">IBaseAddon</text>
<polyline fill="none" stroke="black" points="233.5,-463 344.5,-463 "/>
<text text-anchor="start" x="241.5" y="-451" font-family="Helvetica,sans-Serif" font-size="10.00">+ Attribute</text>
<text text-anchor="start" x="241.5" y="-440" font-family="Helvetica,sans-Serif" font-size="10.00">+ Types</text>
<polyline fill="none" stroke="black" points="233.5,-433 344.5,-433 "/>
<text text-anchor="start" x="241.5" y="-421" font-family="Helvetica,sans-Serif" font-size="10.00">+ LoadFromTypes()</text>
</a>
</g>
</g>
<!-- Node6&#45;&gt;Node5 -->
<g id="edge5" class="edge">
<title>Node6&#45;&gt;Node5</title>
<path fill="none" stroke="midnightblue" d="M289,-403.5C289,-389.69 289,-374.4 289,-360.55"/>
<polygon fill="none" stroke="midnightblue" points="285.5,-403.73 289,-413.73 292.5,-403.73 285.5,-403.73"/>
</g>
<!-- Node7 -->
<g id="node7" class="node">
<title>Node7</title>
<g id="a_node7"><a xlink:title=" ">
<polygon fill="none" stroke="#bfbfbf" points="363,-419.5 363,-476.5 499,-476.5 499,-419.5 363,-419.5"/>
<text text-anchor="middle" x="431" y="-464.5" font-family="Helvetica,sans-Serif" font-size="10.00">INotifyPropertyChanging</text>
<polyline fill="none" stroke="#bfbfbf" points="363,-457.5 499,-457.5 "/>
<text text-anchor="middle" x="431" y="-445.5" font-family="Helvetica,sans-Serif" font-size="10.00"> </text>
<polyline fill="none" stroke="#bfbfbf" points="363,-438.5 499,-438.5 "/>
<text text-anchor="middle" x="431" y="-426.5" font-family="Helvetica,sans-Serif" font-size="10.00"> </text>
</a>
</g>
</g>
<!-- Node7&#45;&gt;Node5 -->
<g id="edge7" class="edge">
<title>Node7&#45;&gt;Node5</title>
<path fill="none" stroke="midnightblue" d="M393.21,-412.27C375.94,-396.4 355.3,-377.43 336.95,-360.57"/>
<polygon fill="none" stroke="midnightblue" points="391.15,-415.13 400.89,-419.32 395.89,-409.98 391.15,-415.13"/>
</g>
<!-- Node8 -->
<g id="node8" class="node">
<title>Node8</title>
<g id="a_node8"><a xlink:href="interface_volume_control_1_1_core_1_1_keyboard_1_1_actions_1_1_i_action_binding.html" target="_top" xlink:title="Represents an action binding object, which is a container for reflective method information used to c...">
<polygon fill="none" stroke="black" points="517,-408.5 517,-487.5 683,-487.5 683,-408.5 517,-408.5"/>
<text text-anchor="start" x="525" y="-475.5" font-family="Helvetica,sans-Serif" font-size="10.00">VolumeControl.Core.Keyboard.</text>
<text text-anchor="middle" x="600" y="-464.5" font-family="Helvetica,sans-Serif" font-size="10.00">Actions.IActionBinding</text>
<polyline fill="none" stroke="black" points="517,-457.5 683,-457.5 "/>
<text text-anchor="start" x="525" y="-445.5" font-family="Helvetica,sans-Serif" font-size="10.00">+ Data</text>
<text text-anchor="start" x="525" y="-434.5" font-family="Helvetica,sans-Serif" font-size="10.00">+ Identifier</text>
<polyline fill="none" stroke="black" points="517,-427.5 683,-427.5 "/>
<text text-anchor="start" x="525" y="-415.5" font-family="Helvetica,sans-Serif" font-size="10.00">+ HandleKeyEvent()</text>
</a>
</g>
</g>
<!-- Node8&#45;&gt;Node5 -->
<g id="edge8" class="edge">
<title>Node8&#45;&gt;Node5</title>
<path fill="none" stroke="#404040" d="M516.78,-411.64C513.82,-410.41 510.89,-409.19 508,-408 459.54,-388 444.59,-383.23 393.22,-361.89"/>
<polygon fill="none" stroke="#404040" points="393.14,-361.86 386.06,-363.24 382.06,-357.24 389.14,-355.86 393.14,-361.86"/>
<text text-anchor="middle" x="492" y="-382" font-family="Helvetica,sans-Serif" font-size="10.00"> +NullAction</text>
</g>
</g>
</svg>
