<?xml version="1.0" encoding="UTF-8" standalone="no"?>
<!DOCTYPE svg PUBLIC "-//W3C//DTD SVG 1.1//EN"
 "http://www.w3.org/Graphics/SVG/1.1/DTD/svg11.dtd">
<!-- Generated by graphviz version 2.43.0 (0)
 -->
<!-- Title: VolumeControl.Hotkeys.HotkeyManager Pages: 1 -->
<svg width="240pt" height="347pt"
 viewBox="0.00 0.00 240.00 347.00" xmlns="http://www.w3.org/2000/svg" xmlns:xlink="http://www.w3.org/1999/xlink">
<g id="graph0" class="graph" transform="scale(1 1) rotate(0) translate(4 343)">
<title>VolumeControl.Hotkeys.HotkeyManager</title>
<!-- Node1 -->
<g id="node1" class="node">
<title>Node1</title>
<g id="a_node1"><a xlink:title="This object is responsible for managing hotkeys at runtime.">
<polygon fill="#bfbfbf" stroke="black" points="47.5,-0.5 47.5,-244.5 216.5,-244.5 216.5,-0.5 47.5,-0.5"/>
<text text-anchor="start" x="55.5" y="-232.5" font-family="Helvetica,sans-Serif" font-size="10.00">VolumeControl.Hotkeys.Hotkey</text>
<text text-anchor="middle" x="132" y="-221.5" font-family="Helvetica,sans-Serif" font-size="10.00">Manager</text>
<polyline fill="none" stroke="black" points="47.5,-214.5 216.5,-214.5 "/>
<text text-anchor="start" x="55.5" y="-202.5" font-family="Helvetica,sans-Serif" font-size="10.00">+ OwnerHandle</text>
<text text-anchor="start" x="55.5" y="-191.5" font-family="Helvetica,sans-Serif" font-size="10.00">+ Actions</text>
<text text-anchor="start" x="55.5" y="-180.5" font-family="Helvetica,sans-Serif" font-size="10.00">+ CollectionChanged</text>
<text text-anchor="start" x="55.5" y="-169.5" font-family="Helvetica,sans-Serif" font-size="10.00">+ Hotkeys</text>
<polyline fill="none" stroke="black" points="47.5,-162.5 216.5,-162.5 "/>
<text text-anchor="start" x="55.5" y="-150.5" font-family="Helvetica,sans-Serif" font-size="10.00">+ HotkeyManager()</text>
<text text-anchor="start" x="55.5" y="-139.5" font-family="Helvetica,sans-Serif" font-size="10.00">+ AddHotkey()</text>
<text text-anchor="start" x="55.5" y="-128.5" font-family="Helvetica,sans-Serif" font-size="10.00">+ AddHotkey()</text>
<text text-anchor="start" x="55.5" y="-117.5" font-family="Helvetica,sans-Serif" font-size="10.00">+ DelHotkey()</text>
<text text-anchor="start" x="55.5" y="-106.5" font-family="Helvetica,sans-Serif" font-size="10.00">+ DelHotkey()</text>
<text text-anchor="start" x="55.5" y="-95.5" font-family="Helvetica,sans-Serif" font-size="10.00">+ DelAllHotkeys()</text>
<text text-anchor="start" x="55.5" y="-84.5" font-family="Helvetica,sans-Serif" font-size="10.00">+ GetHotkey()</text>
<text text-anchor="start" x="55.5" y="-73.5" font-family="Helvetica,sans-Serif" font-size="10.00">+ LoadHotkeys()</text>
<text text-anchor="start" x="55.5" y="-62.5" font-family="Helvetica,sans-Serif" font-size="10.00">+ SaveHotkeys()</text>
<text text-anchor="start" x="55.5" y="-51.5" font-family="Helvetica,sans-Serif" font-size="10.00">+ ResetHotkeys()</text>
<text text-anchor="start" x="55.5" y="-40.5" font-family="Helvetica,sans-Serif" font-size="10.00">+ Dispose()</text>
<text text-anchor="start" x="55.5" y="-29.5" font-family="Helvetica,sans-Serif" font-size="10.00"># HwndHook()</text>
<text text-anchor="start" x="55.5" y="-18.5" font-family="Helvetica,sans-Serif" font-size="10.00"># AddHook()</text>
<text text-anchor="start" x="55.5" y="-7.5" font-family="Helvetica,sans-Serif" font-size="10.00"># RemoveHook()</text>
</a>
</g>
</g>
<!-- Node2 -->
<g id="node2" class="node">
<title>Node2</title>
<g id="a_node2"><a xlink:title=" ">
<polygon fill="none" stroke="#bfbfbf" points="0,-281.5 0,-338.5 140,-338.5 140,-281.5 0,-281.5"/>
<text text-anchor="middle" x="70" y="-326.5" font-family="Helvetica,sans-Serif" font-size="10.00">INotifyCollectionChanged</text>
<polyline fill="none" stroke="#bfbfbf" points="0,-319.5 140,-319.5 "/>
<text text-anchor="middle" x="70" y="-307.5" font-family="Helvetica,sans-Serif" font-size="10.00"> </text>
<polyline fill="none" stroke="#bfbfbf" points="0,-300.5 140,-300.5 "/>
<text text-anchor="middle" x="70" y="-288.5" font-family="Helvetica,sans-Serif" font-size="10.00"> </text>
</a>
</g>
</g>
<!-- Node2&#45;&gt;Node1 -->
<g id="edge1" class="edge">
<title>Node2&#45;&gt;Node1</title>
<path fill="none" stroke="midnightblue" d="M82.47,-271.68C85.22,-263.46 88.28,-254.31 91.49,-244.72"/>
<polygon fill="none" stroke="midnightblue" points="79.13,-270.63 79.28,-281.23 85.77,-272.85 79.13,-270.63"/>
</g>
<!-- Node3 -->
<g id="node3" class="node">
<title>Node3</title>
<g id="a_node3"><a xlink:title=" ">
<polygon fill="none" stroke="#bfbfbf" points="158,-281.5 158,-338.5 232,-338.5 232,-281.5 158,-281.5"/>
<text text-anchor="middle" x="195" y="-326.5" font-family="Helvetica,sans-Serif" font-size="10.00">IDisposable</text>
<polyline fill="none" stroke="#bfbfbf" points="158,-319.5 232,-319.5 "/>
<text text-anchor="middle" x="195" y="-307.5" font-family="Helvetica,sans-Serif" font-size="10.00"> </text>
<polyline fill="none" stroke="#bfbfbf" points="158,-300.5 232,-300.5 "/>
<text text-anchor="middle" x="195" y="-288.5" font-family="Helvetica,sans-Serif" font-size="10.00"> </text>
</a>
</g>
</g>
<!-- Node3&#45;&gt;Node1 -->
<g id="edge2" class="edge">
<title>Node3&#45;&gt;Node1</title>
<path fill="none" stroke="midnightblue" d="M182.33,-271.68C179.53,-263.46 176.43,-254.31 173.17,-244.72"/>
<polygon fill="none" stroke="midnightblue" points="179.04,-272.89 185.57,-281.23 185.67,-270.63 179.04,-272.89"/>
</g>
</g>
</svg>
