<?xml version="1.0" encoding="UTF-8" standalone="no"?>
<!DOCTYPE svg PUBLIC "-//W3C//DTD SVG 1.1//EN"
 "http://www.w3.org/Graphics/SVG/1.1/DTD/svg11.dtd">
<!-- Generated by graphviz version 2.43.0 (0)
 -->
<!-- Title: VolumeControl.CoreAudio.Events.VolumeChangedEventArgs Pages: 1 -->
<svg width="222pt" height="226pt"
 viewBox="0.00 0.00 222.00 226.00" xmlns="http://www.w3.org/2000/svg" xmlns:xlink="http://www.w3.org/1999/xlink">
<g id="graph0" class="graph" transform="scale(1 1) rotate(0) translate(4 222)">
<title>VolumeControl.CoreAudio.Events.VolumeChangedEventArgs</title>
<!-- Node1 -->
<g id="node1" class="node">
<title>Node1</title>
<g id="a_node1"><a xlink:title="Contains event data for the VolumeChangedEventHandler event type.">
<polygon fill="#bfbfbf" stroke="black" points="0,-0.5 0,-101.5 182,-101.5 182,-0.5 0,-0.5"/>
<text text-anchor="start" x="8" y="-89.5" font-family="Helvetica,sans-Serif" font-size="10.00">VolumeControl.CoreAudio.</text>
<text text-anchor="middle" x="91" y="-78.5" font-family="Helvetica,sans-Serif" font-size="10.00">Events.VolumeChangedEventArgs</text>
<polyline fill="none" stroke="black" points="0,-71.5 182,-71.5 "/>
<text text-anchor="start" x="8" y="-59.5" font-family="Helvetica,sans-Serif" font-size="10.00">+ NativeVolume</text>
<text text-anchor="start" x="8" y="-48.5" font-family="Helvetica,sans-Serif" font-size="10.00">+ Volume</text>
<text text-anchor="start" x="8" y="-37.5" font-family="Helvetica,sans-Serif" font-size="10.00">+ Mute</text>
<polyline fill="none" stroke="black" points="0,-30.5 182,-30.5 "/>
<text text-anchor="start" x="8" y="-18.5" font-family="Helvetica,sans-Serif" font-size="10.00">+ VolumeChangedEventArgs()</text>
<text text-anchor="start" x="8" y="-7.5" font-family="Helvetica,sans-Serif" font-size="10.00">+ VolumeChangedEventArgs()</text>
</a>
</g>
</g>
<!-- Node2 -->
<g id="node2" class="node">
<title>Node2</title>
<g id="a_node2"><a xlink:title=" ">
<polygon fill="none" stroke="#bfbfbf" points="0,-149.5 0,-206.5 66,-206.5 66,-149.5 0,-149.5"/>
<text text-anchor="middle" x="33" y="-194.5" font-family="Helvetica,sans-Serif" font-size="10.00">EventArgs</text>
<polyline fill="none" stroke="#bfbfbf" points="0,-187.5 66,-187.5 "/>
<text text-anchor="middle" x="33" y="-175.5" font-family="Helvetica,sans-Serif" font-size="10.00"> </text>
<polyline fill="none" stroke="#bfbfbf" points="0,-168.5 66,-168.5 "/>
<text text-anchor="middle" x="33" y="-156.5" font-family="Helvetica,sans-Serif" font-size="10.00"> </text>
</a>
</g>
</g>
<!-- Node2&#45;&gt;Node1 -->
<g id="edge1" class="edge">
<title>Node2&#45;&gt;Node1</title>
<path fill="none" stroke="midnightblue" d="M50.16,-140.02C55.72,-128.04 61.98,-114.55 67.89,-101.8"/>
<polygon fill="none" stroke="midnightblue" points="46.91,-138.71 45.87,-149.26 53.26,-141.66 46.91,-138.71"/>
</g>
<!-- Node3 -->
<g id="node3" class="node">
<title>Node3</title>
<g id="a_node3"><a xlink:href="interface_volume_control_1_1_core_audio_1_1_interfaces_1_1_i_read_only_audio_control.html" target="_top" xlink:title="Represents an audio instance with a read&#45;only volume level and mute state.">
<polygon fill="none" stroke="black" points="84,-138.5 84,-217.5 214,-217.5 214,-138.5 84,-138.5"/>
<text text-anchor="middle" x="149" y="-205.5" font-family="Helvetica,sans-Serif" font-size="10.00">IReadOnlyAudioControl</text>
<polyline fill="none" stroke="black" points="84,-198.5 214,-198.5 "/>
<text text-anchor="start" x="92" y="-186.5" font-family="Helvetica,sans-Serif" font-size="10.00">+ NativeVolume</text>
<text text-anchor="start" x="92" y="-175.5" font-family="Helvetica,sans-Serif" font-size="10.00">+ Volume</text>
<text text-anchor="start" x="92" y="-164.5" font-family="Helvetica,sans-Serif" font-size="10.00">+ Mute</text>
<polyline fill="none" stroke="black" points="84,-157.5 214,-157.5 "/>
<text text-anchor="middle" x="149" y="-145.5" font-family="Helvetica,sans-Serif" font-size="10.00"> </text>
</a>
</g>
</g>
<!-- Node3&#45;&gt;Node1 -->
<g id="edge2" class="edge">
<title>Node3&#45;&gt;Node1</title>
<path fill="none" stroke="midnightblue" d="M126.85,-129.26C122.66,-120.24 118.27,-110.77 114.06,-101.69"/>
<polygon fill="none" stroke="midnightblue" points="123.74,-130.88 131.12,-138.48 130.09,-127.93 123.74,-130.88"/>
</g>
</g>
</svg>
