<?xml version="1.0" encoding="UTF-8" standalone="no"?>
<!DOCTYPE svg PUBLIC "-//W3C//DTD SVG 1.1//EN"
 "http://www.w3.org/Graphics/SVG/1.1/DTD/svg11.dtd">
<!-- Generated by graphviz version 2.43.0 (0)
 -->
<!-- Title: VolumeControl.Audio.AudioSession Pages: 1 -->
<svg width="765pt" height="799pt"
 viewBox="0.00 0.00 764.50 799.00" xmlns="http://www.w3.org/2000/svg" xmlns:xlink="http://www.w3.org/1999/xlink">
<g id="graph0" class="graph" transform="scale(1 1) rotate(0) translate(4 795)">
<title>VolumeControl.Audio.AudioSession</title>
<!-- Node1 -->
<g id="node1" class="node">
<title>Node1</title>
<g id="a_node1"><a xlink:title="Represents an audio session playing on the system.">
<polygon fill="#bfbfbf" stroke="black" points="251.5,-0.5 251.5,-409.5 401.5,-409.5 401.5,-0.5 251.5,-0.5"/>
<text text-anchor="start" x="259.5" y="-397.5" font-family="Helvetica,sans-Serif" font-size="10.00">VolumeControl.Audio.Audio</text>
<text text-anchor="middle" x="326.5" y="-386.5" font-family="Helvetica,sans-Serif" font-size="10.00">Session</text>
<polyline fill="none" stroke="black" points="251.5,-379.5 401.5,-379.5 "/>
<text text-anchor="start" x="259.5" y="-367.5" font-family="Helvetica,sans-Serif" font-size="10.00">+ AudioMeterInformation</text>
<text text-anchor="start" x="259.5" y="-356.5" font-family="Helvetica,sans-Serif" font-size="10.00">+ PeakMeterValue</text>
<text text-anchor="start" x="259.5" y="-345.5" font-family="Helvetica,sans-Serif" font-size="10.00">+ HashCode</text>
<text text-anchor="start" x="259.5" y="-334.5" font-family="Helvetica,sans-Serif" font-size="10.00">+ VolumeController</text>
<text text-anchor="start" x="259.5" y="-323.5" font-family="Helvetica,sans-Serif" font-size="10.00">+ State</text>
<text text-anchor="start" x="259.5" y="-312.5" font-family="Helvetica,sans-Serif" font-size="10.00">+ IconPath</text>
<text text-anchor="start" x="259.5" y="-301.5" font-family="Helvetica,sans-Serif" font-size="10.00">+ Icon</text>
<text text-anchor="start" x="259.5" y="-290.5" font-family="Helvetica,sans-Serif" font-size="10.00">+ ProcessIdentifier</text>
<text text-anchor="start" x="259.5" y="-279.5" font-family="Helvetica,sans-Serif" font-size="10.00">+ Active</text>
<text text-anchor="start" x="259.5" y="-268.5" font-family="Helvetica,sans-Serif" font-size="10.00">+ int</text>
<text text-anchor="start" x="259.5" y="-257.5" font-family="Helvetica,sans-Serif" font-size="10.00">+ SessionIdentifier</text>
<text text-anchor="start" x="259.5" y="-246.5" font-family="Helvetica,sans-Serif" font-size="10.00">+ SessionInstanceIdentifier</text>
<text text-anchor="start" x="259.5" y="-235.5" font-family="Helvetica,sans-Serif" font-size="10.00">+ Icons</text>
<text text-anchor="start" x="259.5" y="-224.5" font-family="Helvetica,sans-Serif" font-size="10.00">+ Volume</text>
<text text-anchor="start" x="259.5" y="-213.5" font-family="Helvetica,sans-Serif" font-size="10.00">+ NativeVolume</text>
<text text-anchor="start" x="259.5" y="-202.5" font-family="Helvetica,sans-Serif" font-size="10.00">+ Muted</text>
<text text-anchor="start" x="259.5" y="-191.5" font-family="Helvetica,sans-Serif" font-size="10.00">+ GroupingParam</text>
<text text-anchor="start" x="259.5" y="-180.5" font-family="Helvetica,sans-Serif" font-size="10.00">+ DisplayName</text>
<text text-anchor="start" x="259.5" y="-169.5" font-family="Helvetica,sans-Serif" font-size="10.00">+ ProcessName</text>
<text text-anchor="start" x="259.5" y="-158.5" font-family="Helvetica,sans-Serif" font-size="10.00">+ PID</text>
<text text-anchor="start" x="259.5" y="-147.5" font-family="Helvetica,sans-Serif" font-size="10.00">+ IsRunning</text>
<text text-anchor="start" x="259.5" y="-136.5" font-family="Helvetica,sans-Serif" font-size="10.00">+ NotificationClient</text>
<text text-anchor="start" x="259.5" y="-125.5" font-family="Helvetica,sans-Serif" font-size="10.00">+ Process</text>
<text text-anchor="start" x="259.5" y="-114.5" font-family="Helvetica,sans-Serif" font-size="10.00">+ Name</text>
<polyline fill="none" stroke="black" points="251.5,-107.5 401.5,-107.5 "/>
<text text-anchor="start" x="259.5" y="-95.5" font-family="Helvetica,sans-Serif" font-size="10.00">+ GetIcons()</text>
<text text-anchor="start" x="259.5" y="-84.5" font-family="Helvetica,sans-Serif" font-size="10.00">+ GetProcess()</text>
<text text-anchor="start" x="259.5" y="-73.5" font-family="Helvetica,sans-Serif" font-size="10.00">+ Dispose()</text>
<text text-anchor="start" x="259.5" y="-62.5" font-family="Helvetica,sans-Serif" font-size="10.00">+ Equals()</text>
<text text-anchor="start" x="259.5" y="-51.5" font-family="Helvetica,sans-Serif" font-size="10.00">+ Equals()</text>
<text text-anchor="start" x="259.5" y="-40.5" font-family="Helvetica,sans-Serif" font-size="10.00">+ Equals()</text>
<text text-anchor="start" x="259.5" y="-29.5" font-family="Helvetica,sans-Serif" font-size="10.00">+ GetHashCode()</text>
<text text-anchor="start" x="259.5" y="-18.5" font-family="Helvetica,sans-Serif" font-size="10.00">~ AudioSession()</text>
<text text-anchor="start" x="259.5" y="-7.5" font-family="Helvetica,sans-Serif" font-size="10.00">~ NotifyExited()</text>
</a>
</g>
</g>
<!-- Node2 -->
<g id="node2" class="node">
<title>Node2</title>
<g id="a_node2"><a xlink:href="interface_volume_control_1_1_audio_1_1_interfaces_1_1_i_process.html" target="_top" xlink:title="Represents read&#45;only information about a process running on the local system.">
<polygon fill="none" stroke="black" points="88,-562.5 88,-652.5 197,-652.5 197,-562.5 88,-562.5"/>
<text text-anchor="middle" x="142.5" y="-640.5" font-family="Helvetica,sans-Serif" font-size="10.00">IProcess</text>
<polyline fill="none" stroke="black" points="88,-633.5 197,-633.5 "/>
<text text-anchor="start" x="96" y="-621.5" font-family="Helvetica,sans-Serif" font-size="10.00">+ ProcessName</text>
<text text-anchor="start" x="96" y="-610.5" font-family="Helvetica,sans-Serif" font-size="10.00">+ PID</text>
<text text-anchor="start" x="96" y="-599.5" font-family="Helvetica,sans-Serif" font-size="10.00">+ ProcessIdentifier</text>
<text text-anchor="start" x="96" y="-588.5" font-family="Helvetica,sans-Serif" font-size="10.00">+ HashCode</text>
<polyline fill="none" stroke="black" points="88,-581.5 197,-581.5 "/>
<text text-anchor="middle" x="142.5" y="-569.5" font-family="Helvetica,sans-Serif" font-size="10.00"> </text>
</a>
</g>
</g>
<!-- Node2&#45;&gt;Node1 -->
<g id="edge1" class="edge">
<title>Node2&#45;&gt;Node1</title>
<path fill="none" stroke="midnightblue" d="M132.4,-552.32C128.67,-520.51 127.81,-480.01 139.5,-446 161.81,-381.06 209.69,-320.18 251.41,-275.99"/>
<polygon fill="none" stroke="midnightblue" points="128.94,-552.86 133.69,-562.32 135.88,-551.96 128.94,-552.86"/>
</g>
<!-- Node5 -->
<g id="node5" class="node">
<title>Node5</title>
<g id="a_node5"><a xlink:href="interface_volume_control_1_1_audio_1_1_interfaces_1_1_i_session.html" target="_top" xlink:title="Represents an audio session.">
<polygon fill="none" stroke="black" points="148.5,-446.5 148.5,-525.5 298.5,-525.5 298.5,-446.5 148.5,-446.5"/>
<text text-anchor="middle" x="223.5" y="-513.5" font-family="Helvetica,sans-Serif" font-size="10.00">ISession</text>
<polyline fill="none" stroke="black" points="148.5,-506.5 298.5,-506.5 "/>
<text text-anchor="start" x="156.5" y="-494.5" font-family="Helvetica,sans-Serif" font-size="10.00">+ Name</text>
<text text-anchor="start" x="156.5" y="-483.5" font-family="Helvetica,sans-Serif" font-size="10.00">+ SessionIdentifier</text>
<text text-anchor="start" x="156.5" y="-472.5" font-family="Helvetica,sans-Serif" font-size="10.00">+ SessionInstanceIdentifier</text>
<polyline fill="none" stroke="black" points="148.5,-465.5 298.5,-465.5 "/>
<text text-anchor="middle" x="223.5" y="-453.5" font-family="Helvetica,sans-Serif" font-size="10.00"> </text>
</a>
</g>
</g>
<!-- Node2&#45;&gt;Node5 -->
<g id="edge5" class="edge">
<title>Node2&#45;&gt;Node5</title>
<path fill="none" stroke="midnightblue" d="M178.22,-553.81C184.59,-544.41 191.11,-534.78 197.16,-525.86"/>
<polygon fill="none" stroke="midnightblue" points="175.14,-552.1 172.43,-562.34 180.94,-556.03 175.14,-552.1"/>
</g>
<!-- Node3 -->
<g id="node3" class="node">
<title>Node3</title>
<g id="a_node3"><a xlink:href="interface_volume_control_1_1_audio_1_1_interfaces_1_1_i_audio_controllable.html" target="_top" xlink:title="Base interface type for IDevice and IProcess/ISession.">
<polygon fill="none" stroke="black" points="152,-689.5 152,-790.5 293,-790.5 293,-689.5 152,-689.5"/>
<text text-anchor="middle" x="222.5" y="-778.5" font-family="Helvetica,sans-Serif" font-size="10.00">IAudioControllable</text>
<polyline fill="none" stroke="black" points="152,-771.5 293,-771.5 "/>
<text text-anchor="start" x="160" y="-759.5" font-family="Helvetica,sans-Serif" font-size="10.00">+ AudioMeterInformation</text>
<text text-anchor="start" x="160" y="-748.5" font-family="Helvetica,sans-Serif" font-size="10.00">+ PeakMeterValue</text>
<text text-anchor="start" x="160" y="-737.5" font-family="Helvetica,sans-Serif" font-size="10.00">+ NativeVolume</text>
<text text-anchor="start" x="160" y="-726.5" font-family="Helvetica,sans-Serif" font-size="10.00">+ Volume</text>
<text text-anchor="start" x="160" y="-715.5" font-family="Helvetica,sans-Serif" font-size="10.00">+ Muted</text>
<polyline fill="none" stroke="black" points="152,-708.5 293,-708.5 "/>
<text text-anchor="middle" x="222.5" y="-696.5" font-family="Helvetica,sans-Serif" font-size="10.00"> </text>
</a>
</g>
</g>
<!-- Node3&#45;&gt;Node2 -->
<g id="edge2" class="edge">
<title>Node3&#45;&gt;Node2</title>
<path fill="none" stroke="midnightblue" d="M186.75,-680.68C180.95,-671.22 175.03,-661.56 169.48,-652.52"/>
<polygon fill="none" stroke="midnightblue" points="183.82,-682.59 192.03,-689.29 189.78,-678.94 183.82,-682.59"/>
</g>
<!-- Node3&#45;&gt;Node5 -->
<g id="edge6" class="edge">
<title>Node3&#45;&gt;Node5</title>
<path fill="none" stroke="midnightblue" d="M222.74,-679.04C222.93,-631.48 223.18,-566.42 223.35,-525.56"/>
<polygon fill="none" stroke="midnightblue" points="219.24,-679.2 222.7,-689.21 226.24,-679.23 219.24,-679.2"/>
</g>
<!-- Node4 -->
<g id="node4" class="node">
<title>Node4</title>
<g id="a_node4"><a xlink:title=" ">
<polygon fill="none" stroke="#bfbfbf" points="0,-711.5 0,-768.5 131,-768.5 131,-711.5 0,-711.5"/>
<text text-anchor="middle" x="65.5" y="-756.5" font-family="Helvetica,sans-Serif" font-size="10.00">IEquatable&lt; ISession &gt;</text>
<polyline fill="none" stroke="#bfbfbf" points="0,-749.5 131,-749.5 "/>
<text text-anchor="middle" x="65.5" y="-737.5" font-family="Helvetica,sans-Serif" font-size="10.00"> </text>
<polyline fill="none" stroke="#bfbfbf" points="0,-730.5 131,-730.5 "/>
<text text-anchor="middle" x="65.5" y="-718.5" font-family="Helvetica,sans-Serif" font-size="10.00"> </text>
</a>
</g>
</g>
<!-- Node4&#45;&gt;Node1 -->
<g id="edge12" class="edge">
<title>Node4&#45;&gt;Node1</title>
<path fill="none" stroke="midnightblue" d="M64.82,-701.18C64.98,-664.98 67.34,-609.07 78.5,-562 105.09,-449.86 188.48,-344.6 251.28,-278.06"/>
<polygon fill="none" stroke="midnightblue" points="61.32,-701.3 64.83,-711.3 68.32,-701.29 61.32,-701.3"/>
</g>
<!-- Node4&#45;&gt;Node2 -->
<g id="edge3" class="edge">
<title>Node4&#45;&gt;Node2</title>
<path fill="none" stroke="midnightblue" d="M87.01,-702.54C96.16,-687.04 106.91,-668.82 116.5,-652.57"/>
<polygon fill="none" stroke="midnightblue" points="83.9,-700.93 81.83,-711.32 89.93,-704.49 83.9,-700.93"/>
</g>
<!-- Node5&#45;&gt;Node1 -->
<g id="edge4" class="edge">
<title>Node5&#45;&gt;Node1</title>
<path fill="none" stroke="midnightblue" d="M241.26,-436.89C244.41,-428.37 247.85,-419.03 251.5,-409.16"/>
<polygon fill="none" stroke="midnightblue" points="237.89,-435.91 237.71,-446.5 244.46,-438.33 237.89,-435.91"/>
</g>
<!-- Node6 -->
<g id="node6" class="node">
<title>Node6</title>
<g id="a_node6"><a xlink:title=" ">
<polygon fill="none" stroke="#bfbfbf" points="258,-579 258,-636 391,-636 391,-579 258,-579"/>
<text text-anchor="middle" x="324.5" y="-624" font-family="Helvetica,sans-Serif" font-size="10.00">INotifyPropertyChanged</text>
<polyline fill="none" stroke="#bfbfbf" points="258,-617 391,-617 "/>
<text text-anchor="middle" x="324.5" y="-605" font-family="Helvetica,sans-Serif" font-size="10.00"> </text>
<polyline fill="none" stroke="#bfbfbf" points="258,-598 391,-598 "/>
<text text-anchor="middle" x="324.5" y="-586" font-family="Helvetica,sans-Serif" font-size="10.00"> </text>
</a>
</g>
</g>
<!-- Node6&#45;&gt;Node1 -->
<g id="edge8" class="edge">
<title>Node6&#45;&gt;Node1</title>
<path fill="none" stroke="midnightblue" d="M324.69,-568.57C324.88,-531.09 325.18,-470.71 325.48,-409.88"/>
<polygon fill="none" stroke="midnightblue" points="321.19,-568.95 324.64,-578.97 328.19,-568.99 321.19,-568.95"/>
</g>
<!-- Node6&#45;&gt;Node5 -->
<g id="edge7" class="edge">
<title>Node6&#45;&gt;Node5</title>
<path fill="none" stroke="midnightblue" d="M294.61,-571.13C282.58,-556.9 268.67,-540.45 256.36,-525.88"/>
<polygon fill="none" stroke="midnightblue" points="291.95,-573.41 301.07,-578.78 297.29,-568.89 291.95,-573.41"/>
</g>
<!-- Node7 -->
<g id="node7" class="node">
<title>Node7</title>
<g id="a_node7"><a xlink:title=" ">
<polygon fill="none" stroke="#bfbfbf" points="354.5,-457.5 354.5,-514.5 490.5,-514.5 490.5,-457.5 354.5,-457.5"/>
<text text-anchor="middle" x="422.5" y="-502.5" font-family="Helvetica,sans-Serif" font-size="10.00">INotifyPropertyChanging</text>
<polyline fill="none" stroke="#bfbfbf" points="354.5,-495.5 490.5,-495.5 "/>
<text text-anchor="middle" x="422.5" y="-483.5" font-family="Helvetica,sans-Serif" font-size="10.00"> </text>
<polyline fill="none" stroke="#bfbfbf" points="354.5,-476.5 490.5,-476.5 "/>
<text text-anchor="middle" x="422.5" y="-464.5" font-family="Helvetica,sans-Serif" font-size="10.00"> </text>
</a>
</g>
</g>
<!-- Node7&#45;&gt;Node1 -->
<g id="edge9" class="edge">
<title>Node7&#45;&gt;Node1</title>
<path fill="none" stroke="midnightblue" d="M409.72,-447.86C405.9,-436.77 401.43,-423.76 396.56,-409.62"/>
<polygon fill="none" stroke="midnightblue" points="406.47,-449.17 413.03,-457.48 413.09,-446.89 406.47,-449.17"/>
</g>
<!-- Node8 -->
<g id="node8" class="node">
<title>Node8</title>
<g id="a_node8"><a xlink:title=" ">
<polygon fill="none" stroke="#bfbfbf" points="508.5,-457.5 508.5,-514.5 582.5,-514.5 582.5,-457.5 508.5,-457.5"/>
<text text-anchor="middle" x="545.5" y="-502.5" font-family="Helvetica,sans-Serif" font-size="10.00">IDisposable</text>
<polyline fill="none" stroke="#bfbfbf" points="508.5,-495.5 582.5,-495.5 "/>
<text text-anchor="middle" x="545.5" y="-483.5" font-family="Helvetica,sans-Serif" font-size="10.00"> </text>
<polyline fill="none" stroke="#bfbfbf" points="508.5,-476.5 582.5,-476.5 "/>
<text text-anchor="middle" x="545.5" y="-464.5" font-family="Helvetica,sans-Serif" font-size="10.00"> </text>
</a>
</g>
</g>
<!-- Node8&#45;&gt;Node1 -->
<g id="edge10" class="edge">
<title>Node8&#45;&gt;Node1</title>
<path fill="none" stroke="midnightblue" d="M517.61,-449.47C488.49,-412.37 441.57,-352.6 401.51,-301.56"/>
<polygon fill="none" stroke="midnightblue" points="514.97,-451.78 523.9,-457.48 520.48,-447.46 514.97,-451.78"/>
</g>
<!-- Node9 -->
<g id="node9" class="node">
<title>Node9</title>
<g id="a_node9"><a xlink:title=" ">
<polygon fill="none" stroke="#bfbfbf" points="600.5,-457.5 600.5,-514.5 756.5,-514.5 756.5,-457.5 600.5,-457.5"/>
<text text-anchor="middle" x="678.5" y="-502.5" font-family="Helvetica,sans-Serif" font-size="10.00">IEquatable&lt; AudioSession &gt;</text>
<polyline fill="none" stroke="#bfbfbf" points="600.5,-495.5 756.5,-495.5 "/>
<text text-anchor="middle" x="678.5" y="-483.5" font-family="Helvetica,sans-Serif" font-size="10.00"> </text>
<polyline fill="none" stroke="#bfbfbf" points="600.5,-476.5 756.5,-476.5 "/>
<text text-anchor="middle" x="678.5" y="-464.5" font-family="Helvetica,sans-Serif" font-size="10.00"> </text>
</a>
</g>
</g>
<!-- Node9&#45;&gt;Node1 -->
<g id="edge11" class="edge">
<title>Node9&#45;&gt;Node1</title>
<path fill="none" stroke="midnightblue" d="M635.92,-451.25C577.92,-405.28 473.14,-322.23 401.73,-265.63"/>
<polygon fill="none" stroke="midnightblue" points="633.77,-454.02 643.79,-457.48 638.12,-448.53 633.77,-454.02"/>
</g>
</g>
</svg>
