<?xml version="1.0" encoding="UTF-8" standalone="no"?>
<!DOCTYPE svg PUBLIC "-//W3C//DTD SVG 1.1//EN"
 "http://www.w3.org/Graphics/SVG/1.1/DTD/svg11.dtd">
<!-- Generated by graphviz version 2.43.0 (0)
 -->
<!-- Title: VolumeControl.Core.Input.BindableHotkey Pages: 1 -->
<svg width="234pt" height="601pt"
 viewBox="0.00 0.00 233.50 601.00" xmlns="http://www.w3.org/2000/svg" xmlns:xlink="http://www.w3.org/1999/xlink">
<g id="graph0" class="graph" transform="scale(1 1) rotate(0) translate(4 597)">
<title>VolumeControl.Core.Input.BindableHotkey</title>
<!-- Node1 -->
<g id="node1" class="node">
<title>Node1</title>
<g id="a_node1"><a xlink:title="Wraps a Input.Hotkey instance and exposes an action binding point. (see Action)">
<polygon fill="#bfbfbf" stroke="black" points="32,-0.5 32,-200.5 177,-200.5 177,-0.5 32,-0.5"/>
<text text-anchor="start" x="40" y="-188.5" font-family="Helvetica,sans-Serif" font-size="10.00">VolumeControl.Core.Input.</text>
<text text-anchor="middle" x="104.5" y="-177.5" font-family="Helvetica,sans-Serif" font-size="10.00">BindableHotkey</text>
<polyline fill="none" stroke="black" points="32,-170.5 177,-170.5 "/>
<text text-anchor="start" x="40" y="-158.5" font-family="Helvetica,sans-Serif" font-size="10.00">+ Hotkey</text>
<text text-anchor="start" x="40" y="-147.5" font-family="Helvetica,sans-Serif" font-size="10.00">+ ID</text>
<text text-anchor="start" x="40" y="-136.5" font-family="Helvetica,sans-Serif" font-size="10.00">+ Key</text>
<text text-anchor="start" x="40" y="-125.5" font-family="Helvetica,sans-Serif" font-size="10.00">+ Modifier</text>
<text text-anchor="start" x="40" y="-114.5" font-family="Helvetica,sans-Serif" font-size="10.00">+ Registered</text>
<text text-anchor="start" x="40" y="-103.5" font-family="Helvetica,sans-Serif" font-size="10.00">+ Alt</text>
<text text-anchor="start" x="40" y="-92.5" font-family="Helvetica,sans-Serif" font-size="10.00">+ Ctrl</text>
<text text-anchor="start" x="40" y="-81.5" font-family="Helvetica,sans-Serif" font-size="10.00">+ Shift</text>
<text text-anchor="start" x="40" y="-70.5" font-family="Helvetica,sans-Serif" font-size="10.00">+ Win</text>
<text text-anchor="start" x="40" y="-59.5" font-family="Helvetica,sans-Serif" font-size="10.00">+ NoRepeat</text>
<text text-anchor="start" x="40" y="-48.5" font-family="Helvetica,sans-Serif" font-size="10.00">and 8 more...</text>
<polyline fill="none" stroke="black" points="32,-41.5 177,-41.5 "/>
<text text-anchor="start" x="40" y="-29.5" font-family="Helvetica,sans-Serif" font-size="10.00">+ BindableHotkey()</text>
<text text-anchor="start" x="40" y="-18.5" font-family="Helvetica,sans-Serif" font-size="10.00">+ BindableHotkey()</text>
<text text-anchor="start" x="40" y="-7.5" font-family="Helvetica,sans-Serif" font-size="10.00">+ Dispose()</text>
</a>
</g>
</g>
<!-- Node2 -->
<g id="node2" class="node">
<title>Node2</title>
<g id="a_node2"><a xlink:href="interface_volume_control_1_1_core_1_1_interfaces_1_1_i_bindable_hotkey.html" target="_top" xlink:title="Represents a BindableHotkey.">
<polygon fill="none" stroke="black" points="95,-237.5 95,-360.5 192,-360.5 192,-237.5 95,-237.5"/>
<text text-anchor="middle" x="143.5" y="-348.5" font-family="Helvetica,sans-Serif" font-size="10.00">IBindableHotkey</text>
<polyline fill="none" stroke="black" points="95,-341.5 192,-341.5 "/>
<text text-anchor="start" x="103" y="-329.5" font-family="Helvetica,sans-Serif" font-size="10.00">+ Name</text>
<text text-anchor="start" x="103" y="-318.5" font-family="Helvetica,sans-Serif" font-size="10.00">+ Action</text>
<text text-anchor="start" x="103" y="-307.5" font-family="Helvetica,sans-Serif" font-size="10.00">+ Alt</text>
<text text-anchor="start" x="103" y="-296.5" font-family="Helvetica,sans-Serif" font-size="10.00">+ Ctrl</text>
<text text-anchor="start" x="103" y="-285.5" font-family="Helvetica,sans-Serif" font-size="10.00">+ Shift</text>
<text text-anchor="start" x="103" y="-274.5" font-family="Helvetica,sans-Serif" font-size="10.00">+ Win</text>
<text text-anchor="start" x="103" y="-263.5" font-family="Helvetica,sans-Serif" font-size="10.00">+ NoRepeat</text>
<polyline fill="none" stroke="black" points="95,-256.5 192,-256.5 "/>
<text text-anchor="middle" x="143.5" y="-244.5" font-family="Helvetica,sans-Serif" font-size="10.00"> </text>
</a>
</g>
</g>
<!-- Node2&#45;&gt;Node1 -->
<g id="edge1" class="edge">
<title>Node2&#45;&gt;Node1</title>
<path fill="none" stroke="midnightblue" d="M129.48,-227.36C127.75,-218.64 125.95,-209.6 124.16,-200.55"/>
<polygon fill="none" stroke="midnightblue" points="126.1,-228.31 131.48,-237.44 132.97,-226.95 126.1,-228.31"/>
</g>
<!-- Node3 -->
<g id="node3" class="node">
<title>Node3</title>
<g id="a_node3"><a xlink:href="interface_volume_control_1_1_core_1_1_input_1_1_i_hotkey.html" target="_top" xlink:title="Represents a hotkey instance.">
<polygon fill="none" stroke="black" points="94.5,-397.5 94.5,-498.5 192.5,-498.5 192.5,-397.5 94.5,-397.5"/>
<text text-anchor="middle" x="143.5" y="-486.5" font-family="Helvetica,sans-Serif" font-size="10.00">IHotkey</text>
<polyline fill="none" stroke="black" points="94.5,-479.5 192.5,-479.5 "/>
<text text-anchor="start" x="102.5" y="-467.5" font-family="Helvetica,sans-Serif" font-size="10.00">+ ID</text>
<text text-anchor="start" x="102.5" y="-456.5" font-family="Helvetica,sans-Serif" font-size="10.00">+ Key</text>
<text text-anchor="start" x="102.5" y="-445.5" font-family="Helvetica,sans-Serif" font-size="10.00">+ Modifier</text>
<text text-anchor="start" x="102.5" y="-434.5" font-family="Helvetica,sans-Serif" font-size="10.00">+ Registered</text>
<text text-anchor="start" x="102.5" y="-423.5" font-family="Helvetica,sans-Serif" font-size="10.00">+ ActionSettings</text>
<polyline fill="none" stroke="black" points="94.5,-416.5 192.5,-416.5 "/>
<text text-anchor="middle" x="143.5" y="-404.5" font-family="Helvetica,sans-Serif" font-size="10.00"> </text>
</a>
</g>
</g>
<!-- Node3&#45;&gt;Node2 -->
<g id="edge2" class="edge">
<title>Node3&#45;&gt;Node2</title>
<path fill="none" stroke="midnightblue" d="M143.5,-387.14C143.5,-378.41 143.5,-369.42 143.5,-360.67"/>
<polygon fill="none" stroke="midnightblue" points="140,-387.23 143.5,-397.23 147,-387.23 140,-387.23"/>
</g>
<!-- Node4 -->
<g id="node4" class="node">
<title>Node4</title>
<g id="a_node4"><a xlink:title=" ">
<polygon fill="none" stroke="#bfbfbf" points="0,-535.5 0,-592.5 133,-592.5 133,-535.5 0,-535.5"/>
<text text-anchor="middle" x="66.5" y="-580.5" font-family="Helvetica,sans-Serif" font-size="10.00">INotifyPropertyChanged</text>
<polyline fill="none" stroke="#bfbfbf" points="0,-573.5 133,-573.5 "/>
<text text-anchor="middle" x="66.5" y="-561.5" font-family="Helvetica,sans-Serif" font-size="10.00"> </text>
<polyline fill="none" stroke="#bfbfbf" points="0,-554.5 133,-554.5 "/>
<text text-anchor="middle" x="66.5" y="-542.5" font-family="Helvetica,sans-Serif" font-size="10.00"> </text>
</a>
</g>
</g>
<!-- Node4&#45;&gt;Node1 -->
<g id="edge5" class="edge">
<title>Node4&#45;&gt;Node1</title>
<path fill="none" stroke="midnightblue" d="M67.95,-525.21C70.48,-464.4 76.41,-341.09 86.5,-237 87.65,-225.19 89.03,-212.82 90.52,-200.57"/>
<polygon fill="none" stroke="midnightblue" points="64.44,-525.34 67.53,-535.47 71.44,-525.62 64.44,-525.34"/>
</g>
<!-- Node4&#45;&gt;Node3 -->
<g id="edge3" class="edge">
<title>Node4&#45;&gt;Node3</title>
<path fill="none" stroke="midnightblue" d="M90.79,-527.04C96.89,-518.01 103.53,-508.17 109.99,-498.61"/>
<polygon fill="none" stroke="midnightblue" points="87.84,-525.16 85.14,-535.4 93.64,-529.08 87.84,-525.16"/>
</g>
<!-- Node5 -->
<g id="node5" class="node">
<title>Node5</title>
<g id="a_node5"><a xlink:title=" ">
<polygon fill="none" stroke="#bfbfbf" points="151.5,-535.5 151.5,-592.5 225.5,-592.5 225.5,-535.5 151.5,-535.5"/>
<text text-anchor="middle" x="188.5" y="-580.5" font-family="Helvetica,sans-Serif" font-size="10.00">IDisposable</text>
<polyline fill="none" stroke="#bfbfbf" points="151.5,-573.5 225.5,-573.5 "/>
<text text-anchor="middle" x="188.5" y="-561.5" font-family="Helvetica,sans-Serif" font-size="10.00"> </text>
<polyline fill="none" stroke="#bfbfbf" points="151.5,-554.5 225.5,-554.5 "/>
<text text-anchor="middle" x="188.5" y="-542.5" font-family="Helvetica,sans-Serif" font-size="10.00"> </text>
</a>
</g>
</g>
<!-- Node5&#45;&gt;Node3 -->
<g id="edge4" class="edge">
<title>Node5&#45;&gt;Node3</title>
<path fill="none" stroke="midnightblue" d="M173.86,-525.92C170.42,-517.2 166.7,-507.78 163.08,-498.61"/>
<polygon fill="none" stroke="midnightblue" points="170.68,-527.39 177.61,-535.4 177.19,-524.82 170.68,-527.39"/>
</g>
</g>
</svg>
