<?xml version="1.0" encoding="UTF-8" standalone="no"?>
<!DOCTYPE svg PUBLIC "-//W3C//DTD SVG 1.1//EN"
 "http://www.w3.org/Graphics/SVG/1.1/DTD/svg11.dtd">
<!-- Generated by graphviz version 2.43.0 (0)
 -->
<!-- Title: VolumeControl.Core.Input.Hotkey.Reregister Pages: 1 -->
<svg width="771pt" height="137pt"
 viewBox="0.00 0.00 771.00 137.00" xmlns="http://www.w3.org/2000/svg" xmlns:xlink="http://www.w3.org/1999/xlink">
<g id="graph0" class="graph" transform="scale(1 1) rotate(0) translate(4 133)">
<title>VolumeControl.Core.Input.Hotkey.Reregister</title>
<!-- Node1 -->
<g id="node1" class="node">
<title>Node1</title>
<g id="a_node1"><a xlink:title="Re&#45;registers the hotkey with the Win32 API.">
<polygon fill="#bfbfbf" stroke="black" points="0,-49.5 0,-79.5 145,-79.5 145,-49.5 0,-49.5"/>
<text text-anchor="start" x="8" y="-67.5" font-family="Helvetica,sans-Serif" font-size="10.00">VolumeControl.Core.Input.</text>
<text text-anchor="middle" x="72.5" y="-56.5" font-family="Helvetica,sans-Serif" font-size="10.00">Hotkey.Reregister</text>
</a>
</g>
</g>
<!-- Node2 -->
<g id="node2" class="node">
<title>Node2</title>
<g id="a_node2"><a xlink:href="class_volume_control_1_1_core_1_1_input_1_1_hotkey.html#af1b38ffd4641fc08ac64b72da5cb232a" target="_top" xlink:title="Triggers the PropertyChanged event.">
<polygon fill="none" stroke="black" points="181,-98.5 181,-128.5 347,-128.5 347,-98.5 181,-98.5"/>
<text text-anchor="start" x="189" y="-116.5" font-family="Helvetica,sans-Serif" font-size="10.00">VolumeControl.Core.Input.</text>
<text text-anchor="middle" x="264" y="-105.5" font-family="Helvetica,sans-Serif" font-size="10.00">Hotkey.NotifyPropertyChanged</text>
</a>
</g>
</g>
<!-- Node1&#45;&gt;Node2 -->
<g id="edge1" class="edge">
<title>Node1&#45;&gt;Node2</title>
<path fill="none" stroke="midnightblue" d="M131.64,-79.53C151.74,-84.73 174.44,-90.6 195.24,-95.98"/>
<polygon fill="midnightblue" stroke="midnightblue" points="194.41,-99.38 204.97,-98.49 196.16,-92.6 194.41,-99.38"/>
</g>
<!-- Node3 -->
<g id="node3" class="node">
<title>Node3</title>
<g id="a_node3"><a xlink:href="class_volume_control_1_1_core_1_1_input_1_1_hotkey.html#a5e045269416e451b3493230fc43fb161" target="_top" xlink:title="Registers the hotkey with the Win32 API.">
<polygon fill="none" stroke="black" points="191.5,-49.5 191.5,-79.5 336.5,-79.5 336.5,-49.5 191.5,-49.5"/>
<text text-anchor="start" x="199.5" y="-67.5" font-family="Helvetica,sans-Serif" font-size="10.00">VolumeControl.Core.Input.</text>
<text text-anchor="middle" x="264" y="-56.5" font-family="Helvetica,sans-Serif" font-size="10.00">Hotkey.Register</text>
</a>
</g>
</g>
<!-- Node1&#45;&gt;Node3 -->
<g id="edge2" class="edge">
<title>Node1&#45;&gt;Node3</title>
<path fill="none" stroke="midnightblue" d="M145.14,-64.5C156.93,-64.5 169.23,-64.5 181.25,-64.5"/>
<polygon fill="midnightblue" stroke="midnightblue" points="181.26,-68 191.26,-64.5 181.26,-61 181.26,-68"/>
</g>
<!-- Node6 -->
<g id="node6" class="node">
<title>Node6</title>
<g id="a_node6"><a xlink:href="class_volume_control_1_1_core_1_1_input_1_1_hotkey.html#a9cdb123b8b415f401289241b2bfa6d6c" target="_top" xlink:title="Unregisters the hotkey with the Win32 API.">
<polygon fill="none" stroke="black" points="191.5,-0.5 191.5,-30.5 336.5,-30.5 336.5,-0.5 191.5,-0.5"/>
<text text-anchor="start" x="199.5" y="-18.5" font-family="Helvetica,sans-Serif" font-size="10.00">VolumeControl.Core.Input.</text>
<text text-anchor="middle" x="264" y="-7.5" font-family="Helvetica,sans-Serif" font-size="10.00">Hotkey.Unregister</text>
</a>
</g>
</g>
<!-- Node1&#45;&gt;Node6 -->
<g id="edge5" class="edge">
<title>Node1&#45;&gt;Node6</title>
<path fill="none" stroke="midnightblue" d="M131.64,-49.47C151.74,-44.27 174.44,-38.4 195.24,-33.02"/>
<polygon fill="midnightblue" stroke="midnightblue" points="196.16,-36.4 204.97,-30.51 194.41,-29.62 196.16,-36.4"/>
</g>
<!-- Node4 -->
<g id="node4" class="node">
<title>Node4</title>
<g id="a_node4"><a xlink:href="class_volume_control_1_1_core_1_1_input_1_1_windows_hotkey_a_p_i.html#af8c24312d3cae1e662904a58b65a92f0" target="_top" xlink:title="Attempts to register the specified hotkey .">
<polygon fill="none" stroke="black" points="388,-49.5 388,-79.5 557,-79.5 557,-49.5 388,-49.5"/>
<text text-anchor="start" x="396" y="-67.5" font-family="Helvetica,sans-Serif" font-size="10.00">VolumeControl.Core.Input.</text>
<text text-anchor="middle" x="472.5" y="-56.5" font-family="Helvetica,sans-Serif" font-size="10.00">WindowsHotkeyAPI.TryRegister</text>
</a>
</g>
</g>
<!-- Node3&#45;&gt;Node4 -->
<g id="edge3" class="edge">
<title>Node3&#45;&gt;Node4</title>
<path fill="none" stroke="midnightblue" d="M336.64,-64.5C349.95,-64.5 364.04,-64.5 377.89,-64.5"/>
<polygon fill="midnightblue" stroke="midnightblue" points="377.92,-68 387.92,-64.5 377.92,-61 377.92,-68"/>
</g>
<!-- Node5 -->
<g id="node5" class="node">
<title>Node5</title>
<g id="a_node5"><a xlink:href="class_volume_control_1_1_core_1_1_input_1_1_windows_hotkey_a_p_i.html#a7c20042ad11dd7ff58944353abe1b2d5" target="_top" xlink:title="Registers the specified hotkey .">
<polygon fill="none" stroke="black" points="603,-49.5 603,-79.5 758,-79.5 758,-49.5 603,-49.5"/>
<text text-anchor="start" x="611" y="-67.5" font-family="Helvetica,sans-Serif" font-size="10.00">VolumeControl.Core.Input.</text>
<text text-anchor="middle" x="680.5" y="-56.5" font-family="Helvetica,sans-Serif" font-size="10.00">WindowsHotkeyAPI.Register</text>
</a>
</g>
</g>
<!-- Node4&#45;&gt;Node5 -->
<g id="edge4" class="edge">
<title>Node4&#45;&gt;Node5</title>
<path fill="none" stroke="midnightblue" d="M557.29,-64.5C568.92,-64.5 580.89,-64.5 592.58,-64.5"/>
<polygon fill="midnightblue" stroke="midnightblue" points="592.76,-68 602.76,-64.5 592.76,-61 592.76,-68"/>
</g>
<!-- Node7 -->
<g id="node7" class="node">
<title>Node7</title>
<g id="a_node7"><a xlink:href="class_volume_control_1_1_core_1_1_input_1_1_windows_hotkey_a_p_i.html#ac001f386c8766c5af77db645f9aea101" target="_top" xlink:title="Attempts to unregister the specified hotkey .">
<polygon fill="none" stroke="black" points="383,-0.5 383,-30.5 562,-30.5 562,-0.5 383,-0.5"/>
<text text-anchor="start" x="391" y="-18.5" font-family="Helvetica,sans-Serif" font-size="10.00">VolumeControl.Core.Input.</text>
<text text-anchor="middle" x="472.5" y="-7.5" font-family="Helvetica,sans-Serif" font-size="10.00">WindowsHotkeyAPI.TryUnregister</text>
</a>
</g>
</g>
<!-- Node6&#45;&gt;Node7 -->
<g id="edge6" class="edge">
<title>Node6&#45;&gt;Node7</title>
<path fill="none" stroke="midnightblue" d="M336.64,-15.5C348.29,-15.5 360.54,-15.5 372.7,-15.5"/>
<polygon fill="midnightblue" stroke="midnightblue" points="372.88,-19 382.88,-15.5 372.88,-12 372.88,-19"/>
</g>
<!-- Node8 -->
<g id="node8" class="node">
<title>Node8</title>
<g id="a_node8"><a xlink:href="class_volume_control_1_1_core_1_1_input_1_1_windows_hotkey_a_p_i.html#a07ed6bb5aaebdc268b01ac666511d1e6" target="_top" xlink:title="Unregisters the specified hotkey .">
<polygon fill="none" stroke="black" points="598,-0.5 598,-30.5 763,-30.5 763,-0.5 598,-0.5"/>
<text text-anchor="start" x="606" y="-18.5" font-family="Helvetica,sans-Serif" font-size="10.00">VolumeControl.Core.Input.</text>
<text text-anchor="middle" x="680.5" y="-7.5" font-family="Helvetica,sans-Serif" font-size="10.00">WindowsHotkeyAPI.Unregister</text>
</a>
</g>
</g>
<!-- Node7&#45;&gt;Node8 -->
<g id="edge7" class="edge">
<title>Node7&#45;&gt;Node8</title>
<path fill="none" stroke="midnightblue" d="M562.06,-15.5C570.51,-15.5 579.09,-15.5 587.57,-15.5"/>
<polygon fill="midnightblue" stroke="midnightblue" points="587.85,-19 597.85,-15.5 587.85,-12 587.85,-19"/>
</g>
</g>
</svg>
