<?xml version="1.0" encoding="UTF-8" standalone="no"?>
<!DOCTYPE svg PUBLIC "-//W3C//DTD SVG 1.1//EN"
 "http://www.w3.org/Graphics/SVG/1.1/DTD/svg11.dtd">
<!-- Generated by graphviz version 2.43.0 (0)
 -->
<!-- Title: VolumeControl.Log.LogWriter.Conditional Pages: 1 -->
<svg width="366pt" height="88pt"
 viewBox="0.00 0.00 366.00 88.00" xmlns="http://www.w3.org/2000/svg" xmlns:xlink="http://www.w3.org/1999/xlink">
<g id="graph0" class="graph" transform="scale(1 1) rotate(0) translate(4 84)">
<title>VolumeControl.Log.LogWriter.Conditional</title>
<!-- Node1 -->
<g id="node1" class="node">
<title>Node1</title>
<g id="a_node1"><a xlink:title="Conditional log message, allows you to write different messages depending on the current log filter l...">
<polygon fill="#bfbfbf" stroke="black" points="0,-24.5 0,-54.5 161,-54.5 161,-24.5 0,-24.5"/>
<text text-anchor="start" x="8" y="-42.5" font-family="Helvetica,sans-Serif" font-size="10.00">VolumeControl.Log.LogWriter.</text>
<text text-anchor="middle" x="80.5" y="-31.5" font-family="Helvetica,sans-Serif" font-size="10.00">Conditional</text>
</a>
</g>
</g>
<!-- Node2 -->
<g id="node2" class="node">
<title>Node2</title>
<g id="a_node2"><a xlink:href="class_volume_control_1_1_log_1_1_log_writer.html#a927e2b5b79ae2c3a0b243246bb2e5a3d" target="_top" xlink:title="Determines whether the given EventType should be written to the Endpoint or not.">
<polygon fill="none" stroke="black" points="197,-49.5 197,-79.5 358,-79.5 358,-49.5 197,-49.5"/>
<text text-anchor="start" x="205" y="-67.5" font-family="Helvetica,sans-Serif" font-size="10.00">VolumeControl.Log.LogWriter.</text>
<text text-anchor="middle" x="277.5" y="-56.5" font-family="Helvetica,sans-Serif" font-size="10.00">FilterEventType</text>
</a>
</g>
</g>
<!-- Node1&#45;&gt;Node2 -->
<g id="edge1" class="edge">
<title>Node1&#45;&gt;Node2</title>
<path fill="none" stroke="midnightblue" d="M161.1,-49.7C169.57,-50.79 178.24,-51.9 186.82,-53"/>
<polygon fill="midnightblue" stroke="midnightblue" points="186.48,-56.49 196.84,-54.29 187.37,-49.54 186.48,-56.49"/>
</g>
<!-- Node3 -->
<g id="node3" class="node">
<title>Node3</title>
<g id="a_node3"><a xlink:href="class_volume_control_1_1_log_1_1_log_writer.html#af9f117f9eb6d41820bc271ac0f0d4f76" target="_top" xlink:title="Writes a log message with a timestamp and log level header.">
<polygon fill="none" stroke="black" points="197,-0.5 197,-30.5 358,-30.5 358,-0.5 197,-0.5"/>
<text text-anchor="start" x="205" y="-18.5" font-family="Helvetica,sans-Serif" font-size="10.00">VolumeControl.Log.LogWriter.</text>
<text text-anchor="middle" x="277.5" y="-7.5" font-family="Helvetica,sans-Serif" font-size="10.00">WriteEvent</text>
</a>
</g>
</g>
<!-- Node1&#45;&gt;Node3 -->
<g id="edge2" class="edge">
<title>Node1&#45;&gt;Node3</title>
<path fill="none" stroke="midnightblue" d="M161.1,-29.7C169.57,-28.66 178.24,-27.59 186.82,-26.54"/>
<polygon fill="midnightblue" stroke="midnightblue" points="187.35,-30 196.84,-25.3 186.49,-23.05 187.35,-30"/>
</g>
</g>
</svg>
