<?xml version="1.0" encoding="UTF-8" standalone="no"?>
<!DOCTYPE svg PUBLIC "-//W3C//DTD SVG 1.1//EN"
 "http://www.w3.org/Graphics/SVG/1.1/DTD/svg11.dtd">
<!-- Generated by graphviz version 2.43.0 (0)
 -->
<!-- Title: VolumeControl.Audio.AudioAPI Pages: 1 -->
<!--zoomable 1266 -->
<svg id="main" version="1.1" xmlns="http://www.w3.org/2000/svg" xmlns:xlink="http://www.w3.org/1999/xlink" xml:space="preserve" onload="init(evt)">
<style type="text/css"><![CDATA[
.edge:hover path { stroke: red; }
.edge:hover polygon { stroke: red; fill: red; }
]]></style>
<script type="text/javascript"><![CDATA[
var edges = document.getElementsByTagName('g');
if (edges && edges.length) {
  for (var i=0;i<edges.length;i++) {
    if (edges[i].id.substr(0,4)=='edge') {
      edges[i].setAttribute('class','edge');
    }
  }
}
]]></script>
        <defs>
                <circle id="rim" cx="0" cy="0" r="7"/>
                <circle id="rim2" cx="0" cy="0" r="3.5"/>
                <g id="zoomPlus">
                        <use xlink:href="#rim" fill="#404040">
                                <set attributeName="fill" to="#808080" begin="zoomplus.mouseover" end="zoomplus.mouseout"/>
                        </use>
                        <path d="M-4,0h8M0,-4v8" fill="none" stroke="white" stroke-width="1.5" pointer-events="none"/>
                </g>
                <g id="zoomMin">
                        <use xlink:href="#rim" fill="#404040">
                                <set attributeName="fill" to="#808080" begin="zoomminus.mouseover" end="zoomminus.mouseout"/>
                        </use>
                        <path d="M-4,0h8" fill="none" stroke="white" stroke-width="1.5" pointer-events="none"/>
                </g>
                <g id="dirArrow">
                        <path fill="none" stroke="white" stroke-width="1.5" d="M0,-3.0v7 M-2.5,-0.5L0,-3.0L2.5,-0.5"/>
                </g>
               <g id="resetDef">
                       <use xlink:href="#rim2" fill="#404040">
                               <set attributeName="fill" to="#808080" begin="reset.mouseover" end="reset.mouseout"/>
                       </use>
               </g>
        </defs>

<script type="text/javascript">
var viewWidth = 2160;
var viewHeight = 1266;
var sectionId = 'dynsection-1';
</script>
<script xlink:href="svgpan.js"/>
<svg id="graph" class="graph">
<g id="viewport">
<title>VolumeControl.Audio.AudioAPI</title>
<!-- Node1 -->
<g id="node1" class="node">
<title>Node1</title>
<g id="a_node1"><a xlink:title="Contains methods related to audio devices, sessions, and the underlying selection mechanics responsib...">
<polygon fill="#bfbfbf" stroke="black" points="210.34,-0.5 210.34,-244.5 412.34,-244.5 412.34,-0.5 210.34,-0.5"/>
<text text-anchor="middle" x="311.34" y="-232.5" font-family="Helvetica,sans-Serif" font-size="10.00">VolumeControl.Audio.AudioAPI</text>
<polyline fill="none" stroke="black" points="210.34,-225.5 412.34,-225.5 "/>
<text text-anchor="start" x="218.34" y="-213.5" font-family="Helvetica,sans-Serif" font-size="10.00">+ Devices</text>
<text text-anchor="start" x="218.34" y="-202.5" font-family="Helvetica,sans-Serif" font-size="10.00">+ LockSelectedSession</text>
<text text-anchor="start" x="218.34" y="-191.5" font-family="Helvetica,sans-Serif" font-size="10.00">+ Target</text>
<text text-anchor="start" x="218.34" y="-180.5" font-family="Helvetica,sans-Serif" font-size="10.00">+ TargetGuid</text>
<text text-anchor="start" x="218.34" y="-169.5" font-family="Helvetica,sans-Serif" font-size="10.00">+ VolumeStepSize</text>
<text text-anchor="start" x="218.34" y="-158.5" font-family="Helvetica,sans-Serif" font-size="10.00">+ SelectedSession</text>
<text text-anchor="start" x="218.34" y="-147.5" font-family="Helvetica,sans-Serif" font-size="10.00">+ Sessions</text>
<polyline fill="none" stroke="black" points="210.34,-140.5 412.34,-140.5 "/>
<text text-anchor="start" x="218.34" y="-128.5" font-family="Helvetica,sans-Serif" font-size="10.00">+ AudioAPI()</text>
<text text-anchor="start" x="218.34" y="-117.5" font-family="Helvetica,sans-Serif" font-size="10.00">+ SaveEnabledDevices()</text>
<text text-anchor="start" x="218.34" y="-106.5" font-family="Helvetica,sans-Serif" font-size="10.00">+ ForceReloadAudioDevices()</text>
<text text-anchor="start" x="218.34" y="-95.5" font-family="Helvetica,sans-Serif" font-size="10.00">+ FindDevice()</text>
<text text-anchor="start" x="218.34" y="-84.5" font-family="Helvetica,sans-Serif" font-size="10.00">+ FindDeviceWithID()</text>
<text text-anchor="start" x="218.34" y="-73.5" font-family="Helvetica,sans-Serif" font-size="10.00">+ ForceReloadSessionList()</text>
<text text-anchor="start" x="218.34" y="-62.5" font-family="Helvetica,sans-Serif" font-size="10.00">+ FindSession()</text>
<text text-anchor="start" x="218.34" y="-51.5" font-family="Helvetica,sans-Serif" font-size="10.00">+ FindSessionWithSessionInstance</text>
<text text-anchor="start" x="218.34" y="-40.5" font-family="Helvetica,sans-Serif" font-size="10.00">Identifier()</text>
<text text-anchor="start" x="218.34" y="-29.5" font-family="Helvetica,sans-Serif" font-size="10.00">+ FindSessionsWithSessionIdentifier()</text>
<text text-anchor="start" x="218.34" y="-18.5" font-family="Helvetica,sans-Serif" font-size="10.00">+ FindSessionWithID()</text>
<text text-anchor="start" x="218.34" y="-7.5" font-family="Helvetica,sans-Serif" font-size="10.00">and 16 more...</text>
</a>
</g>
</g>
<!-- Node2 -->
<g id="node2" class="node">
<title>Node2</title>
<g id="a_node2"><a xlink:title=" ">
<polygon fill="none" stroke="#bfbfbf" points="1859.84,-944.5 1859.84,-1001.5 1992.84,-1001.5 1992.84,-944.5 1859.84,-944.5"/>
<text text-anchor="middle" x="1926.34" y="-989.5" font-family="Helvetica,sans-Serif" font-size="10.00">INotifyPropertyChanged</text>
<polyline fill="none" stroke="#bfbfbf" points="1859.84,-982.5 1992.84,-982.5 "/>
<text text-anchor="middle" x="1926.34" y="-970.5" font-family="Helvetica,sans-Serif" font-size="10.00"> </text>
<polyline fill="none" stroke="#bfbfbf" points="1859.84,-963.5 1992.84,-963.5 "/>
<text text-anchor="middle" x="1926.34" y="-951.5" font-family="Helvetica,sans-Serif" font-size="10.00"> </text>
</a>
</g>
</g>
<!-- Node2&#45;&gt;Node1 -->
<g id="edge1" class="edge">
<title>Node2&#45;&gt;Node1</title>
<path fill="none" stroke="midnightblue" d="M1849.44,-972.21C1509.8,-972.77 158.08,-970.98 96.34,-907 55.6,-864.78 -127.96,-914.2 155.34,-292 168.55,-262.97 188.74,-235.63 210.26,-211.76"/>
<polygon fill="none" stroke="midnightblue" points="1849.68,-975.71 1859.67,-972.19 1849.67,-968.71 1849.68,-975.71"/>
</g>
<!-- Node5 -->
<g id="node5" class="node">
<title>Node5</title>
<g id="a_node5"><a xlink:href="class_volume_control_1_1_audio_1_1_audio_device.html" target="_top" xlink:title="Represents an audio device endpoint. Note that this object cannot be constructed externally....">
<polygon fill="none" stroke="black" points="678.34,-292.5 678.34,-800.5 862.34,-800.5 862.34,-292.5 678.34,-292.5"/>
<text text-anchor="start" x="686.34" y="-788.5" font-family="Helvetica,sans-Serif" font-size="10.00">VolumeControl.Audio.Audio</text>
<text text-anchor="middle" x="770.34" y="-777.5" font-family="Helvetica,sans-Serif" font-size="10.00">Device</text>
<polyline fill="none" stroke="black" points="678.34,-770.5 862.34,-770.5 "/>
<text text-anchor="start" x="686.34" y="-758.5" font-family="Helvetica,sans-Serif" font-size="10.00">+ AudioMeterInformation</text>
<text text-anchor="start" x="686.34" y="-747.5" font-family="Helvetica,sans-Serif" font-size="10.00">+ PeakMeterValue</text>
<text text-anchor="start" x="686.34" y="-736.5" font-family="Helvetica,sans-Serif" font-size="10.00">+ InterfaceName</text>
<text text-anchor="start" x="686.34" y="-725.5" font-family="Helvetica,sans-Serif" font-size="10.00">+ InstanceID</text>
<text text-anchor="start" x="686.34" y="-714.5" font-family="Helvetica,sans-Serif" font-size="10.00">+ IconPath</text>
<text text-anchor="start" x="686.34" y="-703.5" font-family="Helvetica,sans-Serif" font-size="10.00">+ Icon</text>
<text text-anchor="start" x="686.34" y="-692.5" font-family="Helvetica,sans-Serif" font-size="10.00">+ DeviceFriendlyName</text>
<text text-anchor="start" x="686.34" y="-681.5" font-family="Helvetica,sans-Serif" font-size="10.00">+ FriendlyName</text>
<text text-anchor="start" x="686.34" y="-670.5" font-family="Helvetica,sans-Serif" font-size="10.00">+ Properties</text>
<text text-anchor="start" x="686.34" y="-659.5" font-family="Helvetica,sans-Serif" font-size="10.00">+ State</text>
<text text-anchor="start" x="686.34" y="-648.5" font-family="Helvetica,sans-Serif" font-size="10.00">and 8 more...</text>
<text text-anchor="start" x="686.34" y="-637.5" font-family="Helvetica,sans-Serif" font-size="10.00">+ MMDevice</text>
<text text-anchor="start" x="686.34" y="-626.5" font-family="Helvetica,sans-Serif" font-size="10.00">+ Enabled</text>
<text text-anchor="start" x="686.34" y="-615.5" font-family="Helvetica,sans-Serif" font-size="10.00">+ Name</text>
<text text-anchor="start" x="686.34" y="-604.5" font-family="Helvetica,sans-Serif" font-size="10.00">+ DeviceID</text>
<text text-anchor="start" x="686.34" y="-593.5" font-family="Helvetica,sans-Serif" font-size="10.00">+ Icons</text>
<text text-anchor="start" x="686.34" y="-582.5" font-family="Helvetica,sans-Serif" font-size="10.00">+ EndpointVolumeObject</text>
<text text-anchor="start" x="686.34" y="-571.5" font-family="Helvetica,sans-Serif" font-size="10.00">+ NativeVolume</text>
<text text-anchor="start" x="686.34" y="-560.5" font-family="Helvetica,sans-Serif" font-size="10.00">+ Volume</text>
<text text-anchor="start" x="686.34" y="-549.5" font-family="Helvetica,sans-Serif" font-size="10.00">+ Muted</text>
<text text-anchor="start" x="686.34" y="-538.5" font-family="Helvetica,sans-Serif" font-size="10.00">+ DisplayText</text>
<text text-anchor="start" x="686.34" y="-527.5" font-family="Helvetica,sans-Serif" font-size="10.00">+ Sessions</text>
<text text-anchor="start" x="686.34" y="-516.5" font-family="Helvetica,sans-Serif" font-size="10.00">+ this[int index]</text>
<text text-anchor="start" x="686.34" y="-505.5" font-family="Helvetica,sans-Serif" font-size="10.00">+ this[int index]</text>
<text text-anchor="start" x="686.34" y="-494.5" font-family="Helvetica,sans-Serif" font-size="10.00">+ CollectionChanged</text>
<polyline fill="none" stroke="black" points="678.34,-487.5 862.34,-487.5 "/>
<text text-anchor="start" x="686.34" y="-475.5" font-family="Helvetica,sans-Serif" font-size="10.00">+ GetDeviceName()</text>
<text text-anchor="start" x="686.34" y="-464.5" font-family="Helvetica,sans-Serif" font-size="10.00">+ FindAll()</text>
<text text-anchor="start" x="686.34" y="-453.5" font-family="Helvetica,sans-Serif" font-size="10.00">+ GetIcons()</text>
<text text-anchor="start" x="686.34" y="-442.5" font-family="Helvetica,sans-Serif" font-size="10.00">+ Dispose()</text>
<text text-anchor="start" x="686.34" y="-431.5" font-family="Helvetica,sans-Serif" font-size="10.00">+ Equals()</text>
<text text-anchor="start" x="686.34" y="-420.5" font-family="Helvetica,sans-Serif" font-size="10.00">+ Equals()</text>
<text text-anchor="start" x="686.34" y="-409.5" font-family="Helvetica,sans-Serif" font-size="10.00">+ Equals()</text>
<text text-anchor="start" x="686.34" y="-398.5" font-family="Helvetica,sans-Serif" font-size="10.00">+ GetHashCode()</text>
<text text-anchor="start" x="686.34" y="-387.5" font-family="Helvetica,sans-Serif" font-size="10.00">+ Add()</text>
<text text-anchor="start" x="686.34" y="-376.5" font-family="Helvetica,sans-Serif" font-size="10.00">+ Clear()</text>
<text text-anchor="start" x="686.34" y="-365.5" font-family="Helvetica,sans-Serif" font-size="10.00">and 23 more...</text>
<text text-anchor="start" x="686.34" y="-354.5" font-family="Helvetica,sans-Serif" font-size="10.00">~ AudioDevice()</text>
<text text-anchor="start" x="686.34" y="-343.5" font-family="Helvetica,sans-Serif" font-size="10.00">~ ForwardPropertyStoreChanged()</text>
<text text-anchor="start" x="686.34" y="-332.5" font-family="Helvetica,sans-Serif" font-size="10.00">~ ForwardRemoved()</text>
<text text-anchor="start" x="686.34" y="-321.5" font-family="Helvetica,sans-Serif" font-size="10.00">~ ForwardStateChanged()</text>
<text text-anchor="start" x="686.34" y="-310.5" font-family="Helvetica,sans-Serif" font-size="10.00">~ ReloadSessions()</text>
<text text-anchor="start" x="686.34" y="-299.5" font-family="Helvetica,sans-Serif" font-size="10.00">~ GetAudioSessions()</text>
</a>
</g>
</g>
<!-- Node2&#45;&gt;Node5 -->
<g id="edge25" class="edge">
<title>Node2&#45;&gt;Node5</title>
<path fill="none" stroke="midnightblue" d="M1976.03,-937.48C1985.09,-928.67 1993.27,-918.41 1998.34,-907 2010.79,-878.98 2019.66,-860.04 1998.34,-838 1954.77,-792.98 922.6,-837 871.34,-801 868.33,-798.89 865.42,-796.68 862.59,-794.36"/>
<polygon fill="none" stroke="midnightblue" points="1973.66,-934.91 1968.62,-944.23 1978.37,-940.09 1973.66,-934.91"/>
</g>
<!-- Node8 -->
<g id="node8" class="node">
<title>Node8</title>
<g id="a_node8"><a xlink:href="interface_volume_control_1_1_audio_1_1_interfaces_1_1_i_device.html" target="_top" xlink:title="Represents an audio device.">
<polygon fill="none" stroke="black" points="2045.34,-838.5 2045.34,-906.5 2117.34,-906.5 2117.34,-838.5 2045.34,-838.5"/>
<text text-anchor="middle" x="2081.34" y="-894.5" font-family="Helvetica,sans-Serif" font-size="10.00">IDevice</text>
<polyline fill="none" stroke="black" points="2045.34,-887.5 2117.34,-887.5 "/>
<text text-anchor="start" x="2053.34" y="-875.5" font-family="Helvetica,sans-Serif" font-size="10.00">+ Name</text>
<text text-anchor="start" x="2053.34" y="-864.5" font-family="Helvetica,sans-Serif" font-size="10.00">+ DeviceID</text>
<polyline fill="none" stroke="black" points="2045.34,-857.5 2117.34,-857.5 "/>
<text text-anchor="middle" x="2081.34" y="-845.5" font-family="Helvetica,sans-Serif" font-size="10.00"> </text>
</a>
</g>
</g>
<!-- Node2&#45;&gt;Node8 -->
<g id="edge11" class="edge">
<title>Node2&#45;&gt;Node8</title>
<path fill="none" stroke="midnightblue" d="M2001.92,-943.27C2012.17,-938.13 2022.26,-932.36 2031.34,-926 2039.17,-920.51 2046.76,-913.65 2053.56,-906.72"/>
<polygon fill="none" stroke="midnightblue" points="2000.4,-940.12 1992.91,-947.62 2003.44,-946.42 2000.4,-940.12"/>
</g>
<!-- Node3 -->
<g id="node3" class="node">
<title>Node3</title>
<g id="a_node3"><a xlink:title=" ">
<polygon fill="none" stroke="#bfbfbf" points="880.34,-518 880.34,-575 1016.34,-575 1016.34,-518 880.34,-518"/>
<text text-anchor="middle" x="948.34" y="-563" font-family="Helvetica,sans-Serif" font-size="10.00">INotifyPropertyChanging</text>
<polyline fill="none" stroke="#bfbfbf" points="880.34,-556 1016.34,-556 "/>
<text text-anchor="middle" x="948.34" y="-544" font-family="Helvetica,sans-Serif" font-size="10.00"> </text>
<polyline fill="none" stroke="#bfbfbf" points="880.34,-537 1016.34,-537 "/>
<text text-anchor="middle" x="948.34" y="-525" font-family="Helvetica,sans-Serif" font-size="10.00"> </text>
</a>
</g>
</g>
<!-- Node3&#45;&gt;Node1 -->
<g id="edge2" class="edge">
<title>Node3&#45;&gt;Node1</title>
<path fill="none" stroke="midnightblue" d="M947.55,-507.97C944.34,-453 930.23,-350.74 871.34,-292 747.61,-168.59 537.1,-134.96 412.44,-126.17"/>
<polygon fill="none" stroke="midnightblue" points="944.06,-508.17 948.05,-517.99 951.05,-507.83 944.06,-508.17"/>
</g>
<!-- Node4 -->
<g id="node4" class="node">
<title>Node4</title>
<g id="a_node4"><a xlink:title=" ">
<polygon fill="none" stroke="#bfbfbf" points="105.34,-844 105.34,-901 179.34,-901 179.34,-844 105.34,-844"/>
<text text-anchor="middle" x="142.34" y="-889" font-family="Helvetica,sans-Serif" font-size="10.00">IDisposable</text>
<polyline fill="none" stroke="#bfbfbf" points="105.34,-882 179.34,-882 "/>
<text text-anchor="middle" x="142.34" y="-870" font-family="Helvetica,sans-Serif" font-size="10.00"> </text>
<polyline fill="none" stroke="#bfbfbf" points="105.34,-863 179.34,-863 "/>
<text text-anchor="middle" x="142.34" y="-851" font-family="Helvetica,sans-Serif" font-size="10.00"> </text>
</a>
</g>
</g>
<!-- Node4&#45;&gt;Node1 -->
<g id="edge3" class="edge">
<title>Node4&#45;&gt;Node1</title>
<path fill="none" stroke="midnightblue" d="M150.81,-834C174.95,-727.16 244.87,-417.71 284,-244.52"/>
<polygon fill="none" stroke="midnightblue" points="147.34,-833.47 148.55,-843.99 154.17,-835.01 147.34,-833.47"/>
</g>
<!-- Node4&#45;&gt;Node5 -->
<g id="edge12" class="edge">
<title>Node4&#45;&gt;Node5</title>
<path fill="none" stroke="midnightblue" d="M172.8,-836.54C179.21,-830.26 186.2,-824.09 193.34,-819 349.8,-707.34 559.44,-622.25 678.16,-579.06"/>
<polygon fill="none" stroke="midnightblue" points="170.07,-834.32 165.57,-843.92 175.07,-839.22 170.07,-834.32"/>
</g>
<!-- Node5&#45;&gt;Node1 -->
<g id="edge4" class="edge">
<title>Node5&#45;&gt;Node1</title>
<path fill="none" stroke="#404040" d="M678.28,-460.86C604.2,-392.75 499.86,-296.82 421.37,-224.66"/>
<polygon fill="none" stroke="#404040" points="421.25,-224.55 414.12,-223.43 412.41,-216.43 419.54,-217.54 421.25,-224.55"/>
<text text-anchor="middle" x="514.34" y="-266" font-family="Helvetica,sans-Serif" font-size="10.00"> +DefaultDevice</text>
</g>
<!-- Node6 -->
<g id="node6" class="node">
<title>Node6</title>
<g id="a_node6"><a xlink:href="interface_volume_control_1_1_audio_1_1_interfaces_1_1_i_volume_control.html" target="_top" xlink:title="Represents some kind of controllable audio playback instance.">
<polygon fill="none" stroke="black" points="235.34,-1039.5 235.34,-1140.5 399.34,-1140.5 399.34,-1039.5 235.34,-1039.5"/>
<text text-anchor="middle" x="317.34" y="-1128.5" font-family="Helvetica,sans-Serif" font-size="10.00">IVolumeControl</text>
<polyline fill="none" stroke="black" points="235.34,-1121.5 399.34,-1121.5 "/>
<text text-anchor="start" x="243.34" y="-1109.5" font-family="Helvetica,sans-Serif" font-size="10.00">+ PeakMeterValue</text>
<text text-anchor="start" x="243.34" y="-1098.5" font-family="Helvetica,sans-Serif" font-size="10.00">+ NativeVolume</text>
<text text-anchor="start" x="243.34" y="-1087.5" font-family="Helvetica,sans-Serif" font-size="10.00">+ Volume</text>
<text text-anchor="start" x="243.34" y="-1076.5" font-family="Helvetica,sans-Serif" font-size="10.00">+ Muted</text>
<polyline fill="none" stroke="black" points="235.34,-1069.5 399.34,-1069.5 "/>
<text text-anchor="start" x="243.34" y="-1057.5" font-family="Helvetica,sans-Serif" font-size="10.00">~ MakeListDisplayableControl</text>
<text text-anchor="start" x="243.34" y="-1046.5" font-family="Helvetica,sans-Serif" font-size="10.00">Template()</text>
</a>
</g>
</g>
<!-- Node6&#45;&gt;Node5 -->
<g id="edge5" class="edge">
<title>Node6&#45;&gt;Node5</title>
<path fill="none" stroke="midnightblue" d="M282.72,-1030.06C256.32,-976.7 229.85,-897.57 264.34,-838 353.41,-684.15 558.16,-604.72 678.13,-569.97"/>
<polygon fill="none" stroke="midnightblue" points="279.64,-1031.72 287.29,-1039.05 285.88,-1028.55 279.64,-1031.72"/>
</g>
<!-- Node9 -->
<g id="node9" class="node">
<title>Node9</title>
<g id="a_node9"><a xlink:href="interface_volume_control_1_1_audio_1_1_interfaces_1_1_i_audio_control.html" target="_top" xlink:title="Base interface type for IDevice and IProcess/ISession.">
<polygon fill="none" stroke="black" points="2010.84,-944.5 2010.84,-1001.5 2151.84,-1001.5 2151.84,-944.5 2010.84,-944.5"/>
<text text-anchor="middle" x="2081.34" y="-989.5" font-family="Helvetica,sans-Serif" font-size="10.00">IAudioControl</text>
<polyline fill="none" stroke="black" points="2010.84,-982.5 2151.84,-982.5 "/>
<text text-anchor="start" x="2018.84" y="-970.5" font-family="Helvetica,sans-Serif" font-size="10.00">+ AudioMeterInformation</text>
<polyline fill="none" stroke="black" points="2010.84,-963.5 2151.84,-963.5 "/>
<text text-anchor="middle" x="2081.34" y="-951.5" font-family="Helvetica,sans-Serif" font-size="10.00"> </text>
</a>
</g>
</g>
<!-- Node6&#45;&gt;Node9 -->
<g id="edge10" class="edge">
<title>Node6&#45;&gt;Node9</title>
<path fill="none" stroke="midnightblue" d="M409.67,-1087.74C715.52,-1083.01 1693.58,-1063.34 2002.34,-1002 2005.05,-1001.46 2007.79,-1000.85 2010.55,-1000.18"/>
<polygon fill="none" stroke="midnightblue" points="409.46,-1084.24 399.51,-1087.89 409.56,-1091.24 409.46,-1084.24"/>
</g>
<!-- Node7 -->
<g id="node7" class="node">
<title>Node7</title>
<g id="a_node7"><a xlink:href="interface_volume_control_1_1_core_1_1_interfaces_1_1_i_list_displayable.html" target="_top" xlink:title="Represents an object that, when it is a member of a list of similar items, can be displayed in the Li...">
<polygon fill="none" stroke="black" points="166.84,-1178.5 166.84,-1257.5 271.84,-1257.5 271.84,-1178.5 166.84,-1178.5"/>
<text text-anchor="middle" x="219.34" y="-1245.5" font-family="Helvetica,sans-Serif" font-size="10.00">IListDisplayable</text>
<polyline fill="none" stroke="black" points="166.84,-1238.5 271.84,-1238.5 "/>
<text text-anchor="start" x="174.84" y="-1226.5" font-family="Helvetica,sans-Serif" font-size="10.00">+ DisplayText</text>
<text text-anchor="start" x="174.84" y="-1215.5" font-family="Helvetica,sans-Serif" font-size="10.00">+ DisplayControls</text>
<text text-anchor="start" x="174.84" y="-1204.5" font-family="Helvetica,sans-Serif" font-size="10.00">+ DisplayIcon</text>
<polyline fill="none" stroke="black" points="166.84,-1197.5 271.84,-1197.5 "/>
<text text-anchor="middle" x="219.34" y="-1185.5" font-family="Helvetica,sans-Serif" font-size="10.00"> </text>
</a>
</g>
</g>
<!-- Node7&#45;&gt;Node5 -->
<g id="edge7" class="edge">
<title>Node7&#45;&gt;Node5</title>
<path fill="none" stroke="midnightblue" d="M212.55,-1168.47C209.83,-1145.1 207.34,-1116.65 207.34,-1091 207.34,-1091 207.34,-1091 207.34,-871.5 207.34,-764.15 518.69,-637.29 678.32,-579.3"/>
<polygon fill="none" stroke="midnightblue" points="209.08,-1168.98 213.76,-1178.49 216.03,-1168.14 209.08,-1168.98"/>
</g>
<!-- Node7&#45;&gt;Node6 -->
<g id="edge6" class="edge">
<title>Node7&#45;&gt;Node6</title>
<path fill="none" stroke="midnightblue" d="M255.73,-1170.21C263.23,-1160.57 271.16,-1150.38 278.74,-1140.63"/>
<polygon fill="none" stroke="midnightblue" points="252.92,-1168.13 249.54,-1178.17 258.44,-1172.42 252.92,-1168.13"/>
</g>
<!-- Node8&#45;&gt;Node5 -->
<g id="edge8" class="edge">
<title>Node8&#45;&gt;Node5</title>
<path fill="none" stroke="midnightblue" d="M2050,-831.23C2044.34,-826.29 2038.08,-821.95 2031.34,-819 1972.3,-793.15 924.4,-837.58 871.34,-801 868.32,-798.92 865.38,-796.73 862.54,-794.44"/>
<polygon fill="none" stroke="midnightblue" points="2047.7,-833.86 2057.33,-838.26 2052.54,-828.81 2047.7,-833.86"/>
</g>
<!-- Node9&#45;&gt;Node8 -->
<g id="edge9" class="edge">
<title>Node9&#45;&gt;Node8</title>
<path fill="none" stroke="midnightblue" d="M2081.34,-934.01C2081.34,-924.96 2081.34,-915.38 2081.34,-906.58"/>
<polygon fill="none" stroke="midnightblue" points="2077.84,-934.3 2081.34,-944.3 2084.84,-934.3 2077.84,-934.3"/>
</g>
<!-- Node10 -->
<g id="node10" class="node">
<title>Node10</title>
<g id="a_node10"><a xlink:title=" ">
<polygon fill="none" stroke="#bfbfbf" points="273.34,-844 273.34,-901 425.34,-901 425.34,-844 273.34,-844"/>
<text text-anchor="middle" x="349.34" y="-889" font-family="Helvetica,sans-Serif" font-size="10.00">IEquatable&lt; AudioDevice &gt;</text>
<polyline fill="none" stroke="#bfbfbf" points="273.34,-882 425.34,-882 "/>
<text text-anchor="middle" x="349.34" y="-870" font-family="Helvetica,sans-Serif" font-size="10.00"> </text>
<polyline fill="none" stroke="#bfbfbf" points="273.34,-863 425.34,-863 "/>
<text text-anchor="middle" x="349.34" y="-851" font-family="Helvetica,sans-Serif" font-size="10.00"> </text>
</a>
</g>
</g>
<!-- Node10&#45;&gt;Node5 -->
<g id="edge13" class="edge">
<title>Node10&#45;&gt;Node5</title>
<path fill="none" stroke="midnightblue" d="M393.51,-837.51C460.7,-785.79 590.11,-686.2 678.33,-618.31"/>
<polygon fill="none" stroke="midnightblue" points="391.02,-835 385.23,-843.88 395.29,-840.55 391.02,-835"/>
</g>
<!-- Node11 -->
<g id="node11" class="node">
<title>Node11</title>
<g id="a_node11"><a xlink:title=" ">
<polygon fill="none" stroke="#bfbfbf" points="443.34,-844 443.34,-901 571.34,-901 571.34,-844 443.34,-844"/>
<text text-anchor="middle" x="507.34" y="-889" font-family="Helvetica,sans-Serif" font-size="10.00">IEquatable&lt; IDevice &gt;</text>
<polyline fill="none" stroke="#bfbfbf" points="443.34,-882 571.34,-882 "/>
<text text-anchor="middle" x="507.34" y="-870" font-family="Helvetica,sans-Serif" font-size="10.00"> </text>
<polyline fill="none" stroke="#bfbfbf" points="443.34,-863 571.34,-863 "/>
<text text-anchor="middle" x="507.34" y="-851" font-family="Helvetica,sans-Serif" font-size="10.00"> </text>
</a>
</g>
</g>
<!-- Node11&#45;&gt;Node5 -->
<g id="edge14" class="edge">
<title>Node11&#45;&gt;Node5</title>
<path fill="none" stroke="midnightblue" d="M536.23,-835.91C570.22,-794.04 628.34,-722.44 678.16,-661.05"/>
<polygon fill="none" stroke="midnightblue" points="533.35,-833.91 529.76,-843.88 538.78,-838.32 533.35,-833.91"/>
</g>
<!-- Node12 -->
<g id="node12" class="node">
<title>Node12</title>
<g id="a_node12"><a xlink:title=" ">
<polygon fill="none" stroke="#bfbfbf" points="589.84,-844 589.84,-901 626.84,-901 626.84,-844 589.84,-844"/>
<text text-anchor="middle" x="608.34" y="-889" font-family="Helvetica,sans-Serif" font-size="10.00">IList</text>
<polyline fill="none" stroke="#bfbfbf" points="589.84,-882 626.84,-882 "/>
<text text-anchor="middle" x="608.34" y="-870" font-family="Helvetica,sans-Serif" font-size="10.00"> </text>
<polyline fill="none" stroke="#bfbfbf" points="589.84,-863 626.84,-863 "/>
<text text-anchor="middle" x="608.34" y="-851" font-family="Helvetica,sans-Serif" font-size="10.00"> </text>
</a>
</g>
</g>
<!-- Node12&#45;&gt;Node5 -->
<g id="edge15" class="edge">
<title>Node12&#45;&gt;Node5</title>
<path fill="none" stroke="midnightblue" d="M626.73,-834.72C639.87,-808.44 658.65,-770.89 678.3,-731.57"/>
<polygon fill="none" stroke="midnightblue" points="623.49,-833.37 622.15,-843.88 629.75,-836.5 623.49,-833.37"/>
</g>
<!-- Node13 -->
<g id="node13" class="node">
<title>Node13</title>
<g id="a_node13"><a xlink:title=" ">
<polygon fill="none" stroke="#bfbfbf" points="645.34,-844 645.34,-901 713.34,-901 713.34,-844 645.34,-844"/>
<text text-anchor="middle" x="679.34" y="-889" font-family="Helvetica,sans-Serif" font-size="10.00">ICollection</text>
<polyline fill="none" stroke="#bfbfbf" points="645.34,-882 713.34,-882 "/>
<text text-anchor="middle" x="679.34" y="-870" font-family="Helvetica,sans-Serif" font-size="10.00"> </text>
<polyline fill="none" stroke="#bfbfbf" points="645.34,-863 713.34,-863 "/>
<text text-anchor="middle" x="679.34" y="-851" font-family="Helvetica,sans-Serif" font-size="10.00"> </text>
</a>
</g>
</g>
<!-- Node13&#45;&gt;Node5 -->
<g id="edge16" class="edge">
<title>Node13&#45;&gt;Node5</title>
<path fill="none" stroke="midnightblue" d="M689.81,-834.22C692.57,-824.4 695.76,-813.03 699.25,-800.59"/>
<polygon fill="none" stroke="midnightblue" points="686.43,-833.3 687.1,-843.88 693.17,-835.19 686.43,-833.3"/>
</g>
<!-- Node14 -->
<g id="node14" class="node">
<title>Node14</title>
<g id="a_node14"><a xlink:title=" ">
<polygon fill="none" stroke="#bfbfbf" points="731.34,-844 731.34,-901 809.34,-901 809.34,-844 731.34,-844"/>
<text text-anchor="middle" x="770.34" y="-889" font-family="Helvetica,sans-Serif" font-size="10.00">IEnumerable</text>
<polyline fill="none" stroke="#bfbfbf" points="731.34,-882 809.34,-882 "/>
<text text-anchor="middle" x="770.34" y="-870" font-family="Helvetica,sans-Serif" font-size="10.00"> </text>
<polyline fill="none" stroke="#bfbfbf" points="731.34,-863 809.34,-863 "/>
<text text-anchor="middle" x="770.34" y="-851" font-family="Helvetica,sans-Serif" font-size="10.00"> </text>
</a>
</g>
</g>
<!-- Node14&#45;&gt;Node5 -->
<g id="edge17" class="edge">
<title>Node14&#45;&gt;Node5</title>
<path fill="none" stroke="midnightblue" d="M770.34,-833.6C770.34,-823.92 770.34,-812.76 770.34,-800.59"/>
<polygon fill="none" stroke="midnightblue" points="766.84,-833.88 770.34,-843.88 773.84,-833.88 766.84,-833.88"/>
</g>
<!-- Node15 -->
<g id="node15" class="node">
<title>Node15</title>
<g id="a_node15"><a xlink:title=" ">
<polygon fill="none" stroke="#bfbfbf" points="827.84,-844 827.84,-901 952.84,-901 952.84,-844 827.84,-844"/>
<text text-anchor="middle" x="890.34" y="-889" font-family="Helvetica,sans-Serif" font-size="10.00">IList&lt; AudioSession &gt;</text>
<polyline fill="none" stroke="#bfbfbf" points="827.84,-882 952.84,-882 "/>
<text text-anchor="middle" x="890.34" y="-870" font-family="Helvetica,sans-Serif" font-size="10.00"> </text>
<polyline fill="none" stroke="#bfbfbf" points="827.84,-863 952.84,-863 "/>
<text text-anchor="middle" x="890.34" y="-851" font-family="Helvetica,sans-Serif" font-size="10.00"> </text>
</a>
</g>
</g>
<!-- Node15&#45;&gt;Node5 -->
<g id="edge18" class="edge">
<title>Node15&#45;&gt;Node5</title>
<path fill="none" stroke="midnightblue" d="M876.56,-834.3C872.47,-823.25 867.65,-810.23 862.36,-795.95"/>
<polygon fill="none" stroke="midnightblue" points="873.35,-835.71 880.11,-843.88 879.92,-833.28 873.35,-835.71"/>
</g>
<!-- Node16 -->
<g id="node16" class="node">
<title>Node16</title>
<g id="a_node16"><a xlink:title=" ">
<polygon fill="none" stroke="#bfbfbf" points="971.34,-844 971.34,-901 1149.34,-901 1149.34,-844 971.34,-844"/>
<text text-anchor="middle" x="1060.34" y="-889" font-family="Helvetica,sans-Serif" font-size="10.00">IImmutableList&lt; AudioSession &gt;</text>
<polyline fill="none" stroke="#bfbfbf" points="971.34,-882 1149.34,-882 "/>
<text text-anchor="middle" x="1060.34" y="-870" font-family="Helvetica,sans-Serif" font-size="10.00"> </text>
<polyline fill="none" stroke="#bfbfbf" points="971.34,-863 1149.34,-863 "/>
<text text-anchor="middle" x="1060.34" y="-851" font-family="Helvetica,sans-Serif" font-size="10.00"> </text>
</a>
</g>
</g>
<!-- Node16&#45;&gt;Node5 -->
<g id="edge19" class="edge">
<title>Node16&#45;&gt;Node5</title>
<path fill="none" stroke="midnightblue" d="M972.62,-840.55C925.2,-823.51 875.45,-805.02 871.34,-801 868.29,-798.02 865.33,-794.93 862.46,-791.76"/>
<polygon fill="none" stroke="midnightblue" points="971.46,-843.85 982.05,-843.93 973.82,-837.26 971.46,-843.85"/>
</g>
<!-- Node17 -->
<g id="node17" class="node">
<title>Node17</title>
<g id="a_node17"><a xlink:title=" ">
<polygon fill="none" stroke="#bfbfbf" points="1167.34,-844 1167.34,-901 1323.34,-901 1323.34,-844 1167.34,-844"/>
<text text-anchor="middle" x="1245.34" y="-889" font-family="Helvetica,sans-Serif" font-size="10.00">ICollection&lt; AudioSession &gt;</text>
<polyline fill="none" stroke="#bfbfbf" points="1167.34,-882 1323.34,-882 "/>
<text text-anchor="middle" x="1245.34" y="-870" font-family="Helvetica,sans-Serif" font-size="10.00"> </text>
<polyline fill="none" stroke="#bfbfbf" points="1167.34,-863 1323.34,-863 "/>
<text text-anchor="middle" x="1245.34" y="-851" font-family="Helvetica,sans-Serif" font-size="10.00"> </text>
</a>
</g>
</g>
<!-- Node17&#45;&gt;Node5 -->
<g id="edge20" class="edge">
<title>Node17&#45;&gt;Node5</title>
<path fill="none" stroke="midnightblue" d="M1168.64,-840.84C1165.18,-839.81 1161.74,-838.86 1158.34,-838 1127.17,-830.11 896.74,-820.71 871.34,-801 868.25,-798.6 865.26,-796.1 862.35,-793.49"/>
<polygon fill="none" stroke="midnightblue" points="1167.82,-844.25 1178.41,-843.91 1169.92,-837.57 1167.82,-844.25"/>
</g>
<!-- Node18 -->
<g id="node18" class="node">
<title>Node18</title>
<g id="a_node18"><a xlink:title=" ">
<polygon fill="none" stroke="#bfbfbf" points="1341.34,-844 1341.34,-901 1507.34,-901 1507.34,-844 1341.34,-844"/>
<text text-anchor="middle" x="1424.34" y="-889" font-family="Helvetica,sans-Serif" font-size="10.00">IEnumerable&lt; AudioSession &gt;</text>
<polyline fill="none" stroke="#bfbfbf" points="1341.34,-882 1507.34,-882 "/>
<text text-anchor="middle" x="1424.34" y="-870" font-family="Helvetica,sans-Serif" font-size="10.00"> </text>
<polyline fill="none" stroke="#bfbfbf" points="1341.34,-863 1507.34,-863 "/>
<text text-anchor="middle" x="1424.34" y="-851" font-family="Helvetica,sans-Serif" font-size="10.00"> </text>
</a>
</g>
</g>
<!-- Node18&#45;&gt;Node5 -->
<g id="edge21" class="edge">
<title>Node18&#45;&gt;Node5</title>
<path fill="none" stroke="midnightblue" d="M1344.96,-841.11C1340.72,-839.96 1336.5,-838.91 1332.34,-838 1307.23,-832.53 892.01,-816.26 871.34,-801 868.29,-798.75 865.33,-796.39 862.46,-793.94"/>
<polygon fill="none" stroke="midnightblue" points="1344.27,-844.56 1354.85,-843.98 1346.22,-837.83 1344.27,-844.56"/>
</g>
<!-- Node19 -->
<g id="node19" class="node">
<title>Node19</title>
<g id="a_node19"><a xlink:title=" ">
<polygon fill="none" stroke="#bfbfbf" points="1525.34,-844 1525.34,-901 1697.34,-901 1697.34,-844 1525.34,-844"/>
<text text-anchor="middle" x="1611.34" y="-889" font-family="Helvetica,sans-Serif" font-size="10.00">IReadOnlyList&lt; AudioSession &gt;</text>
<polyline fill="none" stroke="#bfbfbf" points="1525.34,-882 1697.34,-882 "/>
<text text-anchor="middle" x="1611.34" y="-870" font-family="Helvetica,sans-Serif" font-size="10.00"> </text>
<polyline fill="none" stroke="#bfbfbf" points="1525.34,-863 1697.34,-863 "/>
<text text-anchor="middle" x="1611.34" y="-851" font-family="Helvetica,sans-Serif" font-size="10.00"> </text>
</a>
</g>
</g>
<!-- Node19&#45;&gt;Node5 -->
<g id="edge22" class="edge">
<title>Node19&#45;&gt;Node5</title>
<path fill="none" stroke="midnightblue" d="M1530.41,-841.27C1525.68,-840.04 1520.97,-838.93 1516.34,-838 1481.15,-830.93 900.46,-821.99 871.34,-801 868.26,-798.78 865.28,-796.46 862.39,-794.03"/>
<polygon fill="none" stroke="midnightblue" points="1529.53,-844.66 1540.1,-843.98 1531.41,-837.92 1529.53,-844.66"/>
</g>
<!-- Node20 -->
<g id="node20" class="node">
<title>Node20</title>
<g id="a_node20"><a xlink:title=" ">
<polygon fill="none" stroke="#bfbfbf" points="1715.34,-838.5 1715.34,-906.5 1831.34,-906.5 1831.34,-838.5 1715.34,-838.5"/>
<text text-anchor="start" x="1723.34" y="-894.5" font-family="Helvetica,sans-Serif" font-size="10.00">IReadOnlyCollection</text>
<text text-anchor="middle" x="1773.34" y="-883.5" font-family="Helvetica,sans-Serif" font-size="10.00">&lt; AudioSession &gt;</text>
<polyline fill="none" stroke="#bfbfbf" points="1715.34,-876.5 1831.34,-876.5 "/>
<text text-anchor="middle" x="1773.34" y="-864.5" font-family="Helvetica,sans-Serif" font-size="10.00"> </text>
<polyline fill="none" stroke="#bfbfbf" points="1715.34,-857.5 1831.34,-857.5 "/>
<text text-anchor="middle" x="1773.34" y="-845.5" font-family="Helvetica,sans-Serif" font-size="10.00"> </text>
</a>
</g>
</g>
<!-- Node20&#45;&gt;Node5 -->
<g id="edge23" class="edge">
<title>Node20&#45;&gt;Node5</title>
<path fill="none" stroke="midnightblue" d="M1704.91,-839.3C1606.74,-830.41 889.32,-813.78 871.34,-801 868.25,-798.8 865.25,-796.5 862.35,-794.09"/>
<polygon fill="none" stroke="midnightblue" points="1704.69,-842.8 1715.06,-840.63 1705.6,-835.86 1704.69,-842.8"/>
</g>
<!-- Node21 -->
<g id="node21" class="node">
<title>Node21</title>
<g id="a_node21"><a xlink:title=" ">
<polygon fill="none" stroke="#bfbfbf" points="1849.34,-844 1849.34,-901 1989.34,-901 1989.34,-844 1849.34,-844"/>
<text text-anchor="middle" x="1919.34" y="-889" font-family="Helvetica,sans-Serif" font-size="10.00">INotifyCollectionChanged</text>
<polyline fill="none" stroke="#bfbfbf" points="1849.34,-882 1989.34,-882 "/>
<text text-anchor="middle" x="1919.34" y="-870" font-family="Helvetica,sans-Serif" font-size="10.00"> </text>
<polyline fill="none" stroke="#bfbfbf" points="1849.34,-863 1989.34,-863 "/>
<text text-anchor="middle" x="1919.34" y="-851" font-family="Helvetica,sans-Serif" font-size="10.00"> </text>
</a>
</g>
</g>
<!-- Node21&#45;&gt;Node5 -->
<g id="edge24" class="edge">
<title>Node21&#45;&gt;Node5</title>
<path fill="none" stroke="midnightblue" d="M1850.76,-840.71C1847.27,-839.68 1843.79,-838.77 1840.34,-838 1827.19,-835.07 882.34,-808.77 871.34,-801 868.34,-798.88 865.43,-796.66 862.61,-794.34"/>
<polygon fill="none" stroke="midnightblue" points="1849.98,-844.14 1860.58,-843.87 1852.13,-837.47 1849.98,-844.14"/>
</g>
</g>
</svg>
        <g id="navigator" transform="translate(0 0)" fill="#404254">
                <rect fill="#f2f5e9" fill-opacity="0.5" stroke="#606060" stroke-width=".5" x="0" y="0" width="60" height="60"/>
                <use id="zoomplus" xlink:href="#zoomPlus" x="17" y="9" onmousedown="handleZoom(evt,'in')"/>
                <use id="zoomminus" xlink:href="#zoomMin" x="42" y="9" onmousedown="handleZoom(evt,'out')"/>
                <use id="reset" xlink:href="#resetDef" x="30" y="36" onmousedown="handleReset()"/>
                <g id="arrowUp" xlink:href="#dirArrow" transform="translate(30 24)" onmousedown="handlePan(0,-1)">
                  <use xlink:href="#rim" fill="#404040">
                        <set attributeName="fill" to="#808080" begin="arrowUp.mouseover" end="arrowUp.mouseout"/>
                  </use>
                  <path fill="none" stroke="white" stroke-width="1.5" d="M0,-3.0v7 M-2.5,-0.5L0,-3.0L2.5,-0.5"/>
                </g>
                <g id="arrowRight" xlink:href="#dirArrow" transform="rotate(90) translate(36 -43)" onmousedown="handlePan(1,0)">
                  <use xlink:href="#rim" fill="#404040">
                        <set attributeName="fill" to="#808080" begin="arrowRight.mouseover" end="arrowRight.mouseout"/>
                  </use>
                  <path fill="none" stroke="white" stroke-width="1.5" d="M0,-3.0v7 M-2.5,-0.5L0,-3.0L2.5,-0.5"/>
                </g>
                <g id="arrowDown" xlink:href="#dirArrow" transform="rotate(180) translate(-30 -48)" onmousedown="handlePan(0,1)">
                  <use xlink:href="#rim" fill="#404040">
                        <set attributeName="fill" to="#808080" begin="arrowDown.mouseover" end="arrowDown.mouseout"/>
                  </use>
                  <path fill="none" stroke="white" stroke-width="1.5" d="M0,-3.0v7 M-2.5,-0.5L0,-3.0L2.5,-0.5"/>
                </g>
                <g id="arrowLeft" xlink:href="#dirArrow" transform="rotate(270) translate(-36 17)" onmousedown="handlePan(-1,0)">
                  <use xlink:href="#rim" fill="#404040">
                        <set attributeName="fill" to="#808080" begin="arrowLeft.mouseover" end="arrowLeft.mouseout"/>
                  </use>
                  <path fill="none" stroke="white" stroke-width="1.5" d="M0,-3.0v7 M-2.5,-0.5L0,-3.0L2.5,-0.5"/>
                </g>
        </g>
        <svg viewBox="0 0 15 15" width="100%" height="30px" preserveAspectRatio="xMaxYMin meet">
         <g id="arrow_out" transform="scale(0.3 0.3)">
          <a xlink:href="class_volume_control_1_1_audio_1_1_audio_a_p_i__coll__graph_org.svg" target="_base">
           <rect id="button" ry="5" rx="5" y="6" x="6" height="38" width="38"
                fill="#f2f5e9" fill-opacity="0.5" stroke="#606060" stroke-width="1.0"/>
           <path id="arrow"
             d="M 11.500037,31.436501 C 11.940474,20.09759 22.043105,11.32322 32.158766,21.979434 L 37.068811,17.246167 C 37.068811,17.246167 37.088388,32 37.088388,32 L 22.160133,31.978069 C 22.160133,31.978069 26.997745,27.140456 26.997745,27.140456 C 18.528582,18.264221 13.291696,25.230495 11.500037,31.436501 z"
             style="fill:#404040;"/>
          </a>
         </g>
        </svg>
</svg>
