<?xml version="1.0" encoding="UTF-8" standalone="no"?>
<!DOCTYPE svg PUBLIC "-//W3C//DTD SVG 1.1//EN"
 "http://www.w3.org/Graphics/SVG/1.1/DTD/svg11.dtd">
<!-- Generated by graphviz version 2.43.0 (0)
 -->
<!-- Title: VolumeControl.Core.Input.Actions.Settings.ActionSettingInstance&lt; T &gt; Pages: 1 -->
<!--zoomable 507 -->
<svg id="main" version="1.1" xmlns="http://www.w3.org/2000/svg" xmlns:xlink="http://www.w3.org/1999/xlink" xml:space="preserve" onload="init(evt)">
<style type="text/css"><![CDATA[
.edge:hover path { stroke: red; }
.edge:hover polygon { stroke: red; fill: red; }
]]></style>
<script type="text/javascript"><![CDATA[
var edges = document.getElementsByTagName('g');
if (edges && edges.length) {
  for (var i=0;i<edges.length;i++) {
    if (edges[i].id.substr(0,4)=='edge') {
      edges[i].setAttribute('class','edge');
    }
  }
}
]]></script>
        <defs>
                <circle id="rim" cx="0" cy="0" r="7"/>
                <circle id="rim2" cx="0" cy="0" r="3.5"/>
                <g id="zoomPlus">
                        <use xlink:href="#rim" fill="#404040">
                                <set attributeName="fill" to="#808080" begin="zoomplus.mouseover" end="zoomplus.mouseout"/>
                        </use>
                        <path d="M-4,0h8M0,-4v8" fill="none" stroke="white" stroke-width="1.5" pointer-events="none"/>
                </g>
                <g id="zoomMin">
                        <use xlink:href="#rim" fill="#404040">
                                <set attributeName="fill" to="#808080" begin="zoomminus.mouseover" end="zoomminus.mouseout"/>
                        </use>
                        <path d="M-4,0h8" fill="none" stroke="white" stroke-width="1.5" pointer-events="none"/>
                </g>
                <g id="dirArrow">
                        <path fill="none" stroke="white" stroke-width="1.5" d="M0,-3.0v7 M-2.5,-0.5L0,-3.0L2.5,-0.5"/>
                </g>
               <g id="resetDef">
                       <use xlink:href="#rim2" fill="#404040">
                               <set attributeName="fill" to="#808080" begin="reset.mouseover" end="reset.mouseout"/>
                       </use>
               </g>
        </defs>

<script type="text/javascript">
var viewWidth = 352;
var viewHeight = 507;
var sectionId = 'dynsection-1';
</script>
<script xlink:href="svgpan.js"/>
<svg id="graph" class="graph">
<g id="viewport">
<title>VolumeControl.Core.Input.Actions.Settings.ActionSettingInstance&lt; T &gt;</title>
<!-- Node1 -->
<g id="node1" class="node">
<title>Node1</title>
<g id="a_node1"><a xlink:title="Container for a named parameter that is passed to an action method when invoked.">
<polygon fill="#bfbfbf" stroke="black" points="25.92,-0.5 25.92,-200.5 189.92,-200.5 189.92,-0.5 25.92,-0.5"/>
<text text-anchor="start" x="33.92" y="-188.5" font-family="Helvetica,sans-Serif" font-size="10.00">VolumeControl.Core.Input.</text>
<text text-anchor="start" x="33.92" y="-177.5" font-family="Helvetica,sans-Serif" font-size="10.00">Actions.Settings.ActionSetting</text>
<text text-anchor="middle" x="107.92" y="-166.5" font-family="Helvetica,sans-Serif" font-size="10.00">Instance&lt; T &gt;</text>
<polyline fill="none" stroke="black" points="25.92,-159.5 189.92,-159.5 "/>
<text text-anchor="start" x="33.92" y="-147.5" font-family="Helvetica,sans-Serif" font-size="10.00">+ ActionSettingDefinition</text>
<text text-anchor="start" x="33.92" y="-136.5" font-family="Helvetica,sans-Serif" font-size="10.00">+ Name</text>
<text text-anchor="start" x="33.92" y="-125.5" font-family="Helvetica,sans-Serif" font-size="10.00">+ Description</text>
<text text-anchor="start" x="33.92" y="-114.5" font-family="Helvetica,sans-Serif" font-size="10.00">+ ValueType</text>
<text text-anchor="start" x="33.92" y="-103.5" font-family="Helvetica,sans-Serif" font-size="10.00">+ IsToggleable</text>
<text text-anchor="start" x="33.92" y="-92.5" font-family="Helvetica,sans-Serif" font-size="10.00">+ DefaultValue</text>
<text text-anchor="start" x="33.92" y="-81.5" font-family="Helvetica,sans-Serif" font-size="10.00">+ DefaultValue</text>
<text text-anchor="start" x="33.92" y="-70.5" font-family="Helvetica,sans-Serif" font-size="10.00">+ Value</text>
<text text-anchor="start" x="33.92" y="-59.5" font-family="Helvetica,sans-Serif" font-size="10.00">+ Value</text>
<text text-anchor="start" x="33.92" y="-48.5" font-family="Helvetica,sans-Serif" font-size="10.00">+ IsEnabled</text>
<polyline fill="none" stroke="black" points="25.92,-41.5 189.92,-41.5 "/>
<text text-anchor="start" x="33.92" y="-29.5" font-family="Helvetica,sans-Serif" font-size="10.00">+ Deconstruct()</text>
<text text-anchor="start" x="33.92" y="-18.5" font-family="Helvetica,sans-Serif" font-size="10.00">~ ActionSettingInstance()</text>
<text text-anchor="start" x="33.92" y="-7.5" font-family="Helvetica,sans-Serif" font-size="10.00">~ ActionSettingInstance()</text>
</a>
</g>
</g>
<!-- Node2 -->
<g id="node2" class="node">
<title>Node2</title>
<g id="a_node2"><a xlink:href="interface_volume_control_1_1_core_1_1_input_1_1_actions_1_1_settings_1_1_i_action_setting_instance.html" target="_top" xlink:title="Represents an action setting instance.">
<polygon fill="none" stroke="black" points="30.42,-237.5 30.42,-404.5 185.42,-404.5 185.42,-237.5 30.42,-237.5"/>
<text text-anchor="middle" x="107.92" y="-392.5" font-family="Helvetica,sans-Serif" font-size="10.00">IActionSettingInstance&lt; T &gt;</text>
<polyline fill="none" stroke="black" points="30.42,-385.5 185.42,-385.5 "/>
<text text-anchor="start" x="38.42" y="-373.5" font-family="Helvetica,sans-Serif" font-size="10.00">+ ActionSettingDefinition</text>
<text text-anchor="start" x="38.42" y="-362.5" font-family="Helvetica,sans-Serif" font-size="10.00">+ Name</text>
<text text-anchor="start" x="38.42" y="-351.5" font-family="Helvetica,sans-Serif" font-size="10.00">+ Description</text>
<text text-anchor="start" x="38.42" y="-340.5" font-family="Helvetica,sans-Serif" font-size="10.00">+ Value</text>
<text text-anchor="start" x="38.42" y="-329.5" font-family="Helvetica,sans-Serif" font-size="10.00">+ ValueType</text>
<text text-anchor="start" x="38.42" y="-318.5" font-family="Helvetica,sans-Serif" font-size="10.00">+ DefaultValue</text>
<text text-anchor="start" x="38.42" y="-307.5" font-family="Helvetica,sans-Serif" font-size="10.00">+ IsToggleable</text>
<text text-anchor="start" x="38.42" y="-296.5" font-family="Helvetica,sans-Serif" font-size="10.00">+ IsEnabled</text>
<text text-anchor="start" x="38.42" y="-285.5" font-family="Helvetica,sans-Serif" font-size="10.00">+ Value</text>
<text text-anchor="start" x="38.42" y="-274.5" font-family="Helvetica,sans-Serif" font-size="10.00">+ DefaultValue</text>
<polyline fill="none" stroke="black" points="30.42,-267.5 185.42,-267.5 "/>
<text text-anchor="start" x="38.42" y="-255.5" font-family="Helvetica,sans-Serif" font-size="10.00">+ Deconstruct()</text>
<text text-anchor="start" x="38.42" y="-244.5" font-family="Helvetica,sans-Serif" font-size="10.00">+ Deconstruct()</text>
</a>
</g>
</g>
<!-- Node2&#45;&gt;Node1 -->
<g id="edge1" class="edge">
<title>Node2&#45;&gt;Node1</title>
<path fill="none" stroke="midnightblue" d="M107.92,-227.21C107.92,-218.46 107.92,-209.57 107.92,-200.76"/>
<polygon fill="none" stroke="midnightblue" points="104.42,-227.39 107.92,-237.39 111.42,-227.39 104.42,-227.39"/>
</g>
<!-- Node3 -->
<g id="node3" class="node">
<title>Node3</title>
<g id="a_node3"><a xlink:title=" ">
<polygon fill="none" stroke="#bfbfbf" points="41.42,-441.5 41.42,-498.5 174.42,-498.5 174.42,-441.5 41.42,-441.5"/>
<text text-anchor="middle" x="107.92" y="-486.5" font-family="Helvetica,sans-Serif" font-size="10.00">INotifyPropertyChanged</text>
<polyline fill="none" stroke="#bfbfbf" points="41.42,-479.5 174.42,-479.5 "/>
<text text-anchor="middle" x="107.92" y="-467.5" font-family="Helvetica,sans-Serif" font-size="10.00"> </text>
<polyline fill="none" stroke="#bfbfbf" points="41.42,-460.5 174.42,-460.5 "/>
<text text-anchor="middle" x="107.92" y="-448.5" font-family="Helvetica,sans-Serif" font-size="10.00"> </text>
</a>
</g>
</g>
<!-- Node3&#45;&gt;Node1 -->
<g id="edge7" class="edge">
<title>Node3&#45;&gt;Node1</title>
<path fill="none" stroke="midnightblue" d="M45.96,-435.04C35.85,-426.61 26.78,-416.6 20.92,-405 -12.78,-338.37 -0.1,-308.65 20.92,-237 24.54,-224.66 29.67,-212.38 35.64,-200.54"/>
<polygon fill="none" stroke="midnightblue" points="43.82,-437.81 53.86,-441.18 48.11,-432.28 43.82,-437.81"/>
</g>
<!-- Node3&#45;&gt;Node2 -->
<g id="edge2" class="edge">
<title>Node3&#45;&gt;Node2</title>
<path fill="none" stroke="midnightblue" d="M101.94,-431.35C101.55,-423.08 101.31,-414.01 101.21,-404.74"/>
<polygon fill="none" stroke="midnightblue" points="98.44,-431.56 102.51,-441.35 105.43,-431.17 98.44,-431.56"/>
</g>
<!-- Node3&#45;&gt;Node2 -->
<g id="edge3" class="edge">
<title>Node3&#45;&gt;Node2</title>
<path fill="none" stroke="midnightblue" d="M113.9,-431.35C114.28,-423.08 114.52,-414.01 114.62,-404.74"/>
<polygon fill="none" stroke="midnightblue" points="110.4,-431.17 113.33,-441.35 117.39,-431.56 110.4,-431.17"/>
</g>
<!-- Node4 -->
<g id="node4" class="node">
<title>Node4</title>
<g id="a_node4"><a xlink:href="interface_volume_control_1_1_core_1_1_input_1_1_actions_1_1_settings_1_1_i_action_setting_instance.html" target="_top" xlink:title="Represents an action setting instance.">
<polygon fill="none" stroke="black" points="203.92,-237.5 203.92,-404.5 343.92,-404.5 343.92,-237.5 203.92,-237.5"/>
<text text-anchor="middle" x="273.92" y="-392.5" font-family="Helvetica,sans-Serif" font-size="10.00">IActionSettingInstance</text>
<polyline fill="none" stroke="black" points="203.92,-385.5 343.92,-385.5 "/>
<text text-anchor="start" x="211.92" y="-373.5" font-family="Helvetica,sans-Serif" font-size="10.00">+ ActionSettingDefinition</text>
<text text-anchor="start" x="211.92" y="-362.5" font-family="Helvetica,sans-Serif" font-size="10.00">+ Name</text>
<text text-anchor="start" x="211.92" y="-351.5" font-family="Helvetica,sans-Serif" font-size="10.00">+ Description</text>
<text text-anchor="start" x="211.92" y="-340.5" font-family="Helvetica,sans-Serif" font-size="10.00">+ Value</text>
<text text-anchor="start" x="211.92" y="-329.5" font-family="Helvetica,sans-Serif" font-size="10.00">+ ValueType</text>
<text text-anchor="start" x="211.92" y="-318.5" font-family="Helvetica,sans-Serif" font-size="10.00">+ DefaultValue</text>
<text text-anchor="start" x="211.92" y="-307.5" font-family="Helvetica,sans-Serif" font-size="10.00">+ IsToggleable</text>
<text text-anchor="start" x="211.92" y="-296.5" font-family="Helvetica,sans-Serif" font-size="10.00">+ IsEnabled</text>
<text text-anchor="start" x="211.92" y="-285.5" font-family="Helvetica,sans-Serif" font-size="10.00">+ Value</text>
<text text-anchor="start" x="211.92" y="-274.5" font-family="Helvetica,sans-Serif" font-size="10.00">+ DefaultValue</text>
<polyline fill="none" stroke="black" points="203.92,-267.5 343.92,-267.5 "/>
<text text-anchor="start" x="211.92" y="-255.5" font-family="Helvetica,sans-Serif" font-size="10.00">+ Deconstruct()</text>
<text text-anchor="start" x="211.92" y="-244.5" font-family="Helvetica,sans-Serif" font-size="10.00">+ Deconstruct()</text>
</a>
</g>
</g>
<!-- Node3&#45;&gt;Node4 -->
<g id="edge5" class="edge">
<title>Node3&#45;&gt;Node4</title>
<path fill="none" stroke="midnightblue" d="M148.06,-435.41C160.51,-426 174.03,-415.47 185.92,-405 191.89,-399.74 197.92,-394.1 203.89,-388.32"/>
<polygon fill="none" stroke="midnightblue" points="145.95,-432.62 140.06,-441.42 150.15,-438.22 145.95,-432.62"/>
</g>
<!-- Node3&#45;&gt;Node4 -->
<g id="edge6" class="edge">
<title>Node3&#45;&gt;Node4</title>
<path fill="none" stroke="midnightblue" d="M165.41,-435.41C178.51,-426 192.03,-415.47 203.92,-405 204.07,-404.87 204.22,-404.74 204.36,-404.6"/>
<polygon fill="none" stroke="midnightblue" points="163.04,-432.8 156.88,-441.42 167.07,-438.52 163.04,-432.8"/>
</g>
<!-- Node4&#45;&gt;Node1 -->
<g id="edge4" class="edge">
<title>Node4&#45;&gt;Node1</title>
<path fill="none" stroke="midnightblue" d="M204.93,-229.2C197.8,-219.81 190.53,-210.24 183.33,-200.76"/>
<polygon fill="none" stroke="midnightblue" points="202.32,-231.55 211.16,-237.39 207.9,-227.31 202.32,-231.55"/>
</g>
</g>
</svg>
        <g id="navigator" transform="translate(0 0)" fill="#404254">
                <rect fill="#f2f5e9" fill-opacity="0.5" stroke="#606060" stroke-width=".5" x="0" y="0" width="60" height="60"/>
                <use id="zoomplus" xlink:href="#zoomPlus" x="17" y="9" onmousedown="handleZoom(evt,'in')"/>
                <use id="zoomminus" xlink:href="#zoomMin" x="42" y="9" onmousedown="handleZoom(evt,'out')"/>
                <use id="reset" xlink:href="#resetDef" x="30" y="36" onmousedown="handleReset()"/>
                <g id="arrowUp" xlink:href="#dirArrow" transform="translate(30 24)" onmousedown="handlePan(0,-1)">
                  <use xlink:href="#rim" fill="#404040">
                        <set attributeName="fill" to="#808080" begin="arrowUp.mouseover" end="arrowUp.mouseout"/>
                  </use>
                  <path fill="none" stroke="white" stroke-width="1.5" d="M0,-3.0v7 M-2.5,-0.5L0,-3.0L2.5,-0.5"/>
                </g>
                <g id="arrowRight" xlink:href="#dirArrow" transform="rotate(90) translate(36 -43)" onmousedown="handlePan(1,0)">
                  <use xlink:href="#rim" fill="#404040">
                        <set attributeName="fill" to="#808080" begin="arrowRight.mouseover" end="arrowRight.mouseout"/>
                  </use>
                  <path fill="none" stroke="white" stroke-width="1.5" d="M0,-3.0v7 M-2.5,-0.5L0,-3.0L2.5,-0.5"/>
                </g>
                <g id="arrowDown" xlink:href="#dirArrow" transform="rotate(180) translate(-30 -48)" onmousedown="handlePan(0,1)">
                  <use xlink:href="#rim" fill="#404040">
                        <set attributeName="fill" to="#808080" begin="arrowDown.mouseover" end="arrowDown.mouseout"/>
                  </use>
                  <path fill="none" stroke="white" stroke-width="1.5" d="M0,-3.0v7 M-2.5,-0.5L0,-3.0L2.5,-0.5"/>
                </g>
                <g id="arrowLeft" xlink:href="#dirArrow" transform="rotate(270) translate(-36 17)" onmousedown="handlePan(-1,0)">
                  <use xlink:href="#rim" fill="#404040">
                        <set attributeName="fill" to="#808080" begin="arrowLeft.mouseover" end="arrowLeft.mouseout"/>
                  </use>
                  <path fill="none" stroke="white" stroke-width="1.5" d="M0,-3.0v7 M-2.5,-0.5L0,-3.0L2.5,-0.5"/>
                </g>
        </g>
        <svg viewBox="0 0 15 15" width="100%" height="30px" preserveAspectRatio="xMaxYMin meet">
         <g id="arrow_out" transform="scale(0.3 0.3)">
          <a xlink:href="class_volume_control_1_1_core_1_1_input_1_1_actions_1_1_settings_1_1_action_setting_instance__coll__graph_org.svg" target="_base">
           <rect id="button" ry="5" rx="5" y="6" x="6" height="38" width="38"
                fill="#f2f5e9" fill-opacity="0.5" stroke="#606060" stroke-width="1.0"/>
           <path id="arrow"
             d="M 11.500037,31.436501 C 11.940474,20.09759 22.043105,11.32322 32.158766,21.979434 L 37.068811,17.246167 C 37.068811,17.246167 37.088388,32 37.088388,32 L 22.160133,31.978069 C 22.160133,31.978069 26.997745,27.140456 26.997745,27.140456 C 18.528582,18.264221 13.291696,25.230495 11.500037,31.436501 z"
             style="fill:#404040;"/>
          </a>
         </g>
        </svg>
</svg>
