<?xml version="1.0" encoding="UTF-8" standalone="no"?>
<!DOCTYPE svg PUBLIC "-//W3C//DTD SVG 1.1//EN"
 "http://www.w3.org/Graphics/SVG/1.1/DTD/svg11.dtd">
<!-- Generated by graphviz version 2.43.0 (0)
 -->
<!-- Title: VolumeControl.Audio.Collections.AudioDeviceCollection Pages: 1 -->
<svg width="1632pt" height="468pt"
 viewBox="0.00 0.00 1631.50 468.00" xmlns="http://www.w3.org/2000/svg" xmlns:xlink="http://www.w3.org/1999/xlink">
<g id="graph0" class="graph" transform="scale(1 1) rotate(0) translate(4 464)">
<title>VolumeControl.Audio.Collections.AudioDeviceCollection</title>
<!-- Node1 -->
<g id="node1" class="node">
<title>Node1</title>
<g id="a_node1"><a xlink:title="Management container object for the AudioDevice class.">
<polygon fill="#bfbfbf" stroke="black" points="643,-0.5 643,-354.5 822,-354.5 822,-0.5 643,-0.5"/>
<text text-anchor="start" x="651" y="-342.5" font-family="Helvetica,sans-Serif" font-size="10.00">VolumeControl.Audio.Collections.</text>
<text text-anchor="middle" x="732.5" y="-331.5" font-family="Helvetica,sans-Serif" font-size="10.00">AudioDeviceCollection</text>
<polyline fill="none" stroke="black" points="643,-324.5 822,-324.5 "/>
<text text-anchor="start" x="651" y="-312.5" font-family="Helvetica,sans-Serif" font-size="10.00">+ CollectionChanged</text>
<text text-anchor="start" x="651" y="-301.5" font-family="Helvetica,sans-Serif" font-size="10.00">+ Items</text>
<text text-anchor="start" x="651" y="-290.5" font-family="Helvetica,sans-Serif" font-size="10.00">+ Log</text>
<text text-anchor="start" x="651" y="-279.5" font-family="Helvetica,sans-Serif" font-size="10.00">+ Settings</text>
<text text-anchor="start" x="651" y="-268.5" font-family="Helvetica,sans-Serif" font-size="10.00">+ DeviceNotificationClient</text>
<text text-anchor="start" x="651" y="-257.5" font-family="Helvetica,sans-Serif" font-size="10.00">+ DataFlow</text>
<text text-anchor="start" x="651" y="-246.5" font-family="Helvetica,sans-Serif" font-size="10.00">+ Default</text>
<text text-anchor="start" x="651" y="-235.5" font-family="Helvetica,sans-Serif" font-size="10.00">+ AllDevicesEnabled</text>
<text text-anchor="start" x="651" y="-224.5" font-family="Helvetica,sans-Serif" font-size="10.00">+ IsFixedSize</text>
<text text-anchor="start" x="651" y="-213.5" font-family="Helvetica,sans-Serif" font-size="10.00">+ IsReadOnly</text>
<text text-anchor="start" x="651" y="-202.5" font-family="Helvetica,sans-Serif" font-size="10.00">and 6 more...</text>
<polyline fill="none" stroke="black" points="643,-195.5 822,-195.5 "/>
<text text-anchor="start" x="651" y="-183.5" font-family="Helvetica,sans-Serif" font-size="10.00">+ FindDevice()</text>
<text text-anchor="start" x="651" y="-172.5" font-family="Helvetica,sans-Serif" font-size="10.00">+ Dispose()</text>
<text text-anchor="start" x="651" y="-161.5" font-family="Helvetica,sans-Serif" font-size="10.00">+ Add()</text>
<text text-anchor="start" x="651" y="-150.5" font-family="Helvetica,sans-Serif" font-size="10.00">+ Clear()</text>
<text text-anchor="start" x="651" y="-139.5" font-family="Helvetica,sans-Serif" font-size="10.00">+ Contains()</text>
<text text-anchor="start" x="651" y="-128.5" font-family="Helvetica,sans-Serif" font-size="10.00">+ IndexOf()</text>
<text text-anchor="start" x="651" y="-117.5" font-family="Helvetica,sans-Serif" font-size="10.00">+ Insert()</text>
<text text-anchor="start" x="651" y="-106.5" font-family="Helvetica,sans-Serif" font-size="10.00">+ Remove()</text>
<text text-anchor="start" x="651" y="-95.5" font-family="Helvetica,sans-Serif" font-size="10.00">+ RemoveAt()</text>
<text text-anchor="start" x="651" y="-84.5" font-family="Helvetica,sans-Serif" font-size="10.00">+ CopyTo()</text>
<text text-anchor="start" x="651" y="-73.5" font-family="Helvetica,sans-Serif" font-size="10.00">and 17 more...</text>
<text text-anchor="start" x="651" y="-62.5" font-family="Helvetica,sans-Serif" font-size="10.00">~ AudioDeviceCollection()</text>
<text text-anchor="start" x="651" y="-51.5" font-family="Helvetica,sans-Serif" font-size="10.00">~ FindDeviceWithMMDevice()</text>
<text text-anchor="start" x="651" y="-40.5" font-family="Helvetica,sans-Serif" font-size="10.00">~ CreateDeviceFromMMDevice()</text>
<text text-anchor="start" x="651" y="-29.5" font-family="Helvetica,sans-Serif" font-size="10.00">~ Reload()</text>
<text text-anchor="start" x="651" y="-18.5" font-family="Helvetica,sans-Serif" font-size="10.00">~ Reload()</text>
<text text-anchor="start" x="651" y="-7.5" font-family="Helvetica,sans-Serif" font-size="10.00"># Dispose()</text>
</a>
</g>
</g>
<!-- Node2 -->
<g id="node2" class="node">
<title>Node2</title>
<g id="a_node2"><a xlink:title=" ">
<polygon fill="none" stroke="#bfbfbf" points="0,-397 0,-454 37,-454 37,-397 0,-397"/>
<text text-anchor="middle" x="18.5" y="-442" font-family="Helvetica,sans-Serif" font-size="10.00">IList</text>
<polyline fill="none" stroke="#bfbfbf" points="0,-435 37,-435 "/>
<text text-anchor="middle" x="18.5" y="-423" font-family="Helvetica,sans-Serif" font-size="10.00"> </text>
<polyline fill="none" stroke="#bfbfbf" points="0,-416 37,-416 "/>
<text text-anchor="middle" x="18.5" y="-404" font-family="Helvetica,sans-Serif" font-size="10.00"> </text>
</a>
</g>
</g>
<!-- Node2&#45;&gt;Node1 -->
<g id="edge1" class="edge">
<title>Node2&#45;&gt;Node1</title>
<path fill="none" stroke="midnightblue" d="M44.98,-392.06C45.48,-391.69 45.99,-391.34 46.5,-391 236.15,-264.71 504.62,-210.44 642.73,-189.72"/>
<polygon fill="none" stroke="midnightblue" points="42.52,-389.55 37.25,-398.75 47.1,-394.85 42.52,-389.55"/>
</g>
<!-- Node3 -->
<g id="node3" class="node">
<title>Node3</title>
<g id="a_node3"><a xlink:title=" ">
<polygon fill="none" stroke="#bfbfbf" points="55.5,-397 55.5,-454 123.5,-454 123.5,-397 55.5,-397"/>
<text text-anchor="middle" x="89.5" y="-442" font-family="Helvetica,sans-Serif" font-size="10.00">ICollection</text>
<polyline fill="none" stroke="#bfbfbf" points="55.5,-435 123.5,-435 "/>
<text text-anchor="middle" x="89.5" y="-423" font-family="Helvetica,sans-Serif" font-size="10.00"> </text>
<polyline fill="none" stroke="#bfbfbf" points="55.5,-416 123.5,-416 "/>
<text text-anchor="middle" x="89.5" y="-404" font-family="Helvetica,sans-Serif" font-size="10.00"> </text>
</a>
</g>
</g>
<!-- Node3&#45;&gt;Node1 -->
<g id="edge2" class="edge">
<title>Node3&#45;&gt;Node1</title>
<path fill="none" stroke="midnightblue" d="M131.61,-391.49C131.91,-391.33 132.2,-391.16 132.5,-391 302.84,-297.7 522.08,-232.35 642.8,-200.55"/>
<polygon fill="none" stroke="midnightblue" points="129.75,-388.53 123.08,-396.75 133.43,-394.49 129.75,-388.53"/>
</g>
<!-- Node4 -->
<g id="node4" class="node">
<title>Node4</title>
<g id="a_node4"><a xlink:title=" ">
<polygon fill="none" stroke="#bfbfbf" points="141.5,-397 141.5,-454 219.5,-454 219.5,-397 141.5,-397"/>
<text text-anchor="middle" x="180.5" y="-442" font-family="Helvetica,sans-Serif" font-size="10.00">IEnumerable</text>
<polyline fill="none" stroke="#bfbfbf" points="141.5,-435 219.5,-435 "/>
<text text-anchor="middle" x="180.5" y="-423" font-family="Helvetica,sans-Serif" font-size="10.00"> </text>
<polyline fill="none" stroke="#bfbfbf" points="141.5,-416 219.5,-416 "/>
<text text-anchor="middle" x="180.5" y="-404" font-family="Helvetica,sans-Serif" font-size="10.00"> </text>
</a>
</g>
</g>
<!-- Node4&#45;&gt;Node1 -->
<g id="edge3" class="edge">
<title>Node4&#45;&gt;Node1</title>
<path fill="none" stroke="midnightblue" d="M227.26,-391.69C227.68,-391.46 228.09,-391.23 228.5,-391 367.56,-314.28 540.04,-247.1 642.92,-209.75"/>
<polygon fill="none" stroke="midnightblue" points="225.35,-388.76 218.55,-396.88 228.93,-394.77 225.35,-388.76"/>
</g>
<!-- Node5 -->
<g id="node5" class="node">
<title>Node5</title>
<g id="a_node5"><a xlink:title=" ">
<polygon fill="none" stroke="#bfbfbf" points="238,-397 238,-454 359,-454 359,-397 238,-397"/>
<text text-anchor="middle" x="298.5" y="-442" font-family="Helvetica,sans-Serif" font-size="10.00">IList&lt; AudioDevice &gt;</text>
<polyline fill="none" stroke="#bfbfbf" points="238,-435 359,-435 "/>
<text text-anchor="middle" x="298.5" y="-423" font-family="Helvetica,sans-Serif" font-size="10.00"> </text>
<polyline fill="none" stroke="#bfbfbf" points="238,-416 359,-416 "/>
<text text-anchor="middle" x="298.5" y="-404" font-family="Helvetica,sans-Serif" font-size="10.00"> </text>
</a>
</g>
</g>
<!-- Node5&#45;&gt;Node1 -->
<g id="edge4" class="edge">
<title>Node5&#45;&gt;Node1</title>
<path fill="none" stroke="midnightblue" d="M356.12,-391.84C429.44,-350.28 556.86,-278.05 642.9,-229.28"/>
<polygon fill="none" stroke="midnightblue" points="354,-389.02 347.02,-397 357.45,-395.11 354,-389.02"/>
</g>
<!-- Node6 -->
<g id="node6" class="node">
<title>Node6</title>
<g id="a_node6"><a xlink:title=" ">
<polygon fill="none" stroke="#bfbfbf" points="377.5,-397 377.5,-454 551.5,-454 551.5,-397 377.5,-397"/>
<text text-anchor="middle" x="464.5" y="-442" font-family="Helvetica,sans-Serif" font-size="10.00">IImmutableList&lt; AudioDevice &gt;</text>
<polyline fill="none" stroke="#bfbfbf" points="377.5,-435 551.5,-435 "/>
<text text-anchor="middle" x="464.5" y="-423" font-family="Helvetica,sans-Serif" font-size="10.00"> </text>
<polyline fill="none" stroke="#bfbfbf" points="377.5,-416 551.5,-416 "/>
<text text-anchor="middle" x="464.5" y="-404" font-family="Helvetica,sans-Serif" font-size="10.00"> </text>
</a>
</g>
</g>
<!-- Node6&#45;&gt;Node1 -->
<g id="edge5" class="edge">
<title>Node6&#45;&gt;Node1</title>
<path fill="none" stroke="midnightblue" d="M501.91,-390.16C538.28,-356.77 594.92,-304.78 642.97,-260.68"/>
<polygon fill="none" stroke="midnightblue" points="499.46,-387.66 494.46,-397 504.2,-392.81 499.46,-387.66"/>
</g>
<!-- Node7 -->
<g id="node7" class="node">
<title>Node7</title>
<g id="a_node7"><a xlink:title=" ">
<polygon fill="none" stroke="#bfbfbf" points="569.5,-397 569.5,-454 721.5,-454 721.5,-397 569.5,-397"/>
<text text-anchor="middle" x="645.5" y="-442" font-family="Helvetica,sans-Serif" font-size="10.00">ICollection&lt; AudioDevice &gt;</text>
<polyline fill="none" stroke="#bfbfbf" points="569.5,-435 721.5,-435 "/>
<text text-anchor="middle" x="645.5" y="-423" font-family="Helvetica,sans-Serif" font-size="10.00"> </text>
<polyline fill="none" stroke="#bfbfbf" points="569.5,-416 721.5,-416 "/>
<text text-anchor="middle" x="645.5" y="-404" font-family="Helvetica,sans-Serif" font-size="10.00"> </text>
</a>
</g>
</g>
<!-- Node7&#45;&gt;Node1 -->
<g id="edge6" class="edge">
<title>Node7&#45;&gt;Node1</title>
<path fill="none" stroke="midnightblue" d="M658.69,-387.21C662.11,-377.54 666.03,-366.45 670.24,-354.55"/>
<polygon fill="none" stroke="midnightblue" points="655.35,-386.16 655.31,-396.76 661.94,-388.5 655.35,-386.16"/>
</g>
<!-- Node8 -->
<g id="node8" class="node">
<title>Node8</title>
<g id="a_node8"><a xlink:title=" ">
<polygon fill="none" stroke="#bfbfbf" points="739.5,-397 739.5,-454 901.5,-454 901.5,-397 739.5,-397"/>
<text text-anchor="middle" x="820.5" y="-442" font-family="Helvetica,sans-Serif" font-size="10.00">IEnumerable&lt; AudioDevice &gt;</text>
<polyline fill="none" stroke="#bfbfbf" points="739.5,-435 901.5,-435 "/>
<text text-anchor="middle" x="820.5" y="-423" font-family="Helvetica,sans-Serif" font-size="10.00"> </text>
<polyline fill="none" stroke="#bfbfbf" points="739.5,-416 901.5,-416 "/>
<text text-anchor="middle" x="820.5" y="-404" font-family="Helvetica,sans-Serif" font-size="10.00"> </text>
</a>
</g>
</g>
<!-- Node8&#45;&gt;Node1 -->
<g id="edge7" class="edge">
<title>Node8&#45;&gt;Node1</title>
<path fill="none" stroke="midnightblue" d="M807.16,-387.21C803.7,-377.54 799.74,-366.45 795.48,-354.55"/>
<polygon fill="none" stroke="midnightblue" points="803.91,-388.52 810.58,-396.76 810.5,-386.16 803.91,-388.52"/>
</g>
<!-- Node9 -->
<g id="node9" class="node">
<title>Node9</title>
<g id="a_node9"><a xlink:title=" ">
<polygon fill="none" stroke="#bfbfbf" points="919.5,-397 919.5,-454 1087.5,-454 1087.5,-397 919.5,-397"/>
<text text-anchor="middle" x="1003.5" y="-442" font-family="Helvetica,sans-Serif" font-size="10.00">IReadOnlyList&lt; AudioDevice &gt;</text>
<polyline fill="none" stroke="#bfbfbf" points="919.5,-435 1087.5,-435 "/>
<text text-anchor="middle" x="1003.5" y="-423" font-family="Helvetica,sans-Serif" font-size="10.00"> </text>
<polyline fill="none" stroke="#bfbfbf" points="919.5,-416 1087.5,-416 "/>
<text text-anchor="middle" x="1003.5" y="-404" font-family="Helvetica,sans-Serif" font-size="10.00"> </text>
</a>
</g>
</g>
<!-- Node9&#45;&gt;Node1 -->
<g id="edge8" class="edge">
<title>Node9&#45;&gt;Node1</title>
<path fill="none" stroke="midnightblue" d="M965.63,-390.12C928.62,-356.53 870.89,-304.12 822.14,-259.87"/>
<polygon fill="none" stroke="midnightblue" points="963.44,-392.87 973.2,-397 968.15,-387.68 963.44,-392.87"/>
</g>
<!-- Node10 -->
<g id="node10" class="node">
<title>Node10</title>
<g id="a_node10"><a xlink:title=" ">
<polygon fill="none" stroke="#bfbfbf" points="1105.5,-391.5 1105.5,-459.5 1221.5,-459.5 1221.5,-391.5 1105.5,-391.5"/>
<text text-anchor="start" x="1113.5" y="-447.5" font-family="Helvetica,sans-Serif" font-size="10.00">IReadOnlyCollection</text>
<text text-anchor="middle" x="1163.5" y="-436.5" font-family="Helvetica,sans-Serif" font-size="10.00">&lt; AudioDevice &gt;</text>
<polyline fill="none" stroke="#bfbfbf" points="1105.5,-429.5 1221.5,-429.5 "/>
<text text-anchor="middle" x="1163.5" y="-417.5" font-family="Helvetica,sans-Serif" font-size="10.00"> </text>
<polyline fill="none" stroke="#bfbfbf" points="1105.5,-410.5 1221.5,-410.5 "/>
<text text-anchor="middle" x="1163.5" y="-398.5" font-family="Helvetica,sans-Serif" font-size="10.00"> </text>
</a>
</g>
</g>
<!-- Node10&#45;&gt;Node1 -->
<g id="edge9" class="edge">
<title>Node10&#45;&gt;Node1</title>
<path fill="none" stroke="midnightblue" d="M1096.62,-386.32C1022.92,-344.26 904.03,-276.4 822.27,-229.74"/>
<polygon fill="none" stroke="midnightblue" points="1094.95,-389.41 1105.37,-391.32 1098.42,-383.33 1094.95,-389.41"/>
</g>
<!-- Node11 -->
<g id="node11" class="node">
<title>Node11</title>
<g id="a_node11"><a xlink:title=" ">
<polygon fill="none" stroke="#bfbfbf" points="1239.5,-397 1239.5,-454 1379.5,-454 1379.5,-397 1239.5,-397"/>
<text text-anchor="middle" x="1309.5" y="-442" font-family="Helvetica,sans-Serif" font-size="10.00">INotifyCollectionChanged</text>
<polyline fill="none" stroke="#bfbfbf" points="1239.5,-435 1379.5,-435 "/>
<text text-anchor="middle" x="1309.5" y="-423" font-family="Helvetica,sans-Serif" font-size="10.00"> </text>
<polyline fill="none" stroke="#bfbfbf" points="1239.5,-416 1379.5,-416 "/>
<text text-anchor="middle" x="1309.5" y="-404" font-family="Helvetica,sans-Serif" font-size="10.00"> </text>
</a>
</g>
</g>
<!-- Node11&#45;&gt;Node1 -->
<g id="edge10" class="edge">
<title>Node11&#45;&gt;Node1</title>
<path fill="none" stroke="midnightblue" d="M1235.67,-393.02C1129.98,-347.96 935.78,-265.17 822.04,-216.67"/>
<polygon fill="none" stroke="midnightblue" points="1234.42,-396.29 1244.99,-397 1237.16,-389.86 1234.42,-396.29"/>
</g>
<!-- Node12 -->
<g id="node12" class="node">
<title>Node12</title>
<g id="a_node12"><a xlink:title=" ">
<polygon fill="none" stroke="#bfbfbf" points="1398,-397 1398,-454 1531,-454 1531,-397 1398,-397"/>
<text text-anchor="middle" x="1464.5" y="-442" font-family="Helvetica,sans-Serif" font-size="10.00">INotifyPropertyChanged</text>
<polyline fill="none" stroke="#bfbfbf" points="1398,-435 1531,-435 "/>
<text text-anchor="middle" x="1464.5" y="-423" font-family="Helvetica,sans-Serif" font-size="10.00"> </text>
<polyline fill="none" stroke="#bfbfbf" points="1398,-416 1531,-416 "/>
<text text-anchor="middle" x="1464.5" y="-404" font-family="Helvetica,sans-Serif" font-size="10.00"> </text>
</a>
</g>
</g>
<!-- Node12&#45;&gt;Node1 -->
<g id="edge11" class="edge">
<title>Node12&#45;&gt;Node1</title>
<path fill="none" stroke="midnightblue" d="M1394.01,-393.14C1392.16,-392.41 1390.32,-391.69 1388.5,-391 1189.11,-314.99 949.34,-241.8 822.1,-204.36"/>
<polygon fill="none" stroke="midnightblue" points="1392.75,-396.4 1403.33,-396.9 1395.37,-389.91 1392.75,-396.4"/>
</g>
<!-- Node13 -->
<g id="node13" class="node">
<title>Node13</title>
<g id="a_node13"><a xlink:title=" ">
<polygon fill="none" stroke="#bfbfbf" points="1549.5,-397 1549.5,-454 1623.5,-454 1623.5,-397 1549.5,-397"/>
<text text-anchor="middle" x="1586.5" y="-442" font-family="Helvetica,sans-Serif" font-size="10.00">IDisposable</text>
<polyline fill="none" stroke="#bfbfbf" points="1549.5,-435 1623.5,-435 "/>
<text text-anchor="middle" x="1586.5" y="-423" font-family="Helvetica,sans-Serif" font-size="10.00"> </text>
<polyline fill="none" stroke="#bfbfbf" points="1549.5,-416 1623.5,-416 "/>
<text text-anchor="middle" x="1586.5" y="-404" font-family="Helvetica,sans-Serif" font-size="10.00"> </text>
</a>
</g>
</g>
<!-- Node13&#45;&gt;Node1 -->
<g id="edge12" class="edge">
<title>Node13&#45;&gt;Node1</title>
<path fill="none" stroke="midnightblue" d="M1542.56,-392.01C1541.87,-391.66 1541.19,-391.33 1540.5,-391 1294.66,-274.27 975.15,-214.5 822.02,-190.9"/>
<polygon fill="none" stroke="midnightblue" points="1540.97,-395.13 1551.4,-396.98 1544.4,-389.03 1540.97,-395.13"/>
</g>
</g>
</svg>
