<?xml version="1.0" encoding="UTF-8" standalone="no"?>
<!DOCTYPE svg PUBLIC "-//W3C//DTD SVG 1.1//EN"
 "http://www.w3.org/Graphics/SVG/1.1/DTD/svg11.dtd">
<!-- Generated by graphviz version 2.43.0 (0)
 -->
<!-- Title: VolumeControl.Core.Input.TemplateProviderManager.FindDataTemplate Pages: 1 -->
<svg width="399pt" height="78pt"
 viewBox="0.00 0.00 399.00 77.50" xmlns="http://www.w3.org/2000/svg" xmlns:xlink="http://www.w3.org/1999/xlink">
<g id="graph0" class="graph" transform="scale(1 1) rotate(0) translate(4 73.5)">
<title>VolumeControl.Core.Input.TemplateProviderManager.FindDataTemplate</title>
<!-- Node1 -->
<g id="node1" class="node">
<title>Node1</title>
<g id="a_node1"><a xlink:title="Finds the DataTemplate with the specified key &#160;in the TemplateDictionaryProviders list.">
<polygon fill="#bfbfbf" stroke="black" points="0,-11.5 0,-52.5 191,-52.5 191,-11.5 0,-11.5"/>
<text text-anchor="start" x="8" y="-40.5" font-family="Helvetica,sans-Serif" font-size="10.00">VolumeControl.Core.Input.</text>
<text text-anchor="start" x="8" y="-29.5" font-family="Helvetica,sans-Serif" font-size="10.00">TemplateProviderManager.FindData</text>
<text text-anchor="middle" x="95.5" y="-18.5" font-family="Helvetica,sans-Serif" font-size="10.00">Template</text>
</a>
</g>
</g>
<!-- Node2 -->
<g id="node2" class="node">
<title>Node2</title>
<g id="a_node2"><a xlink:href="class_volume_control_1_1_log_1_1_f_log.html#a4dcec7039adc7659b074ba4122cea0f8" target="_top" xlink:title=" ">
<polygon fill="none" stroke="black" points="227.5,-39 227.5,-69 390.5,-69 390.5,-39 227.5,-39"/>
<text text-anchor="start" x="235.5" y="-57" font-family="Helvetica,sans-Serif" font-size="10.00">VolumeControl.Log.FLog.Filter</text>
<text text-anchor="middle" x="309" y="-46" font-family="Helvetica,sans-Serif" font-size="10.00">EventType</text>
</a>
</g>
</g>
<!-- Node1&#45;&gt;Node2 -->
<g id="edge1" class="edge">
<title>Node1&#45;&gt;Node2</title>
<path fill="none" stroke="midnightblue" d="M191.12,-41.84C199.81,-42.75 208.61,-43.66 217.27,-44.56"/>
<polygon fill="midnightblue" stroke="midnightblue" points="217.05,-48.06 227.36,-45.61 217.77,-41.1 217.05,-48.06"/>
</g>
<!-- Node3 -->
<g id="node3" class="node">
<title>Node3</title>
<g id="a_node3"><a xlink:href="class_volume_control_1_1_log_1_1_f_log.html#ac7a8c27d69096fadba3f4b55cd405857" target="_top" xlink:title=" ">
<polygon fill="none" stroke="black" points="227,-0.5 227,-19.5 391,-19.5 391,-0.5 227,-0.5"/>
<text text-anchor="middle" x="309" y="-7.5" font-family="Helvetica,sans-Serif" font-size="10.00">VolumeControl.Log.FLog.Trace</text>
</a>
</g>
</g>
<!-- Node1&#45;&gt;Node3 -->
<g id="edge2" class="edge">
<title>Node1&#45;&gt;Node3</title>
<path fill="none" stroke="midnightblue" d="M191.12,-22.16C199.56,-21.28 208.1,-20.39 216.52,-19.52"/>
<polygon fill="midnightblue" stroke="midnightblue" points="217.13,-22.97 226.71,-18.46 216.4,-16.01 217.13,-22.97"/>
</g>
</g>
</svg>
