<?xml version="1.0" encoding="UTF-8" standalone="no"?>
<!DOCTYPE svg PUBLIC "-//W3C//DTD SVG 1.1//EN"
 "http://www.w3.org/Graphics/SVG/1.1/DTD/svg11.dtd">
<!-- Generated by graphviz version 2.43.0 (0)
 -->
<!-- Title: VolumeControl.SDK.DataTemplates.DataTemplateDictionary Pages: 1 -->
<svg width="294pt" height="414pt"
 viewBox="0.00 0.00 293.50 414.00" xmlns="http://www.w3.org/2000/svg" xmlns:xlink="http://www.w3.org/1999/xlink">
<g id="graph0" class="graph" transform="scale(1 1) rotate(0) translate(4 410)">
<title>VolumeControl.SDK.DataTemplates.DataTemplateDictionary</title>
<!-- Node1 -->
<g id="node1" class="node">
<title>Node1</title>
<g id="a_node1"><a xlink:title="Provides all of the default DataTemplate instances used by the built&#45;in hotkey actions.">
<polygon fill="#bfbfbf" stroke="black" points="58.5,-0.5 58.5,-68.5 249.5,-68.5 249.5,-0.5 58.5,-0.5"/>
<text text-anchor="start" x="66.5" y="-56.5" font-family="Helvetica,sans-Serif" font-size="10.00">VolumeControl.SDK.DataTemplates.</text>
<text text-anchor="middle" x="154" y="-45.5" font-family="Helvetica,sans-Serif" font-size="10.00">DataTemplateDictionary</text>
<polyline fill="none" stroke="black" points="58.5,-38.5 249.5,-38.5 "/>
<text text-anchor="start" x="66.5" y="-26.5" font-family="Helvetica,sans-Serif" font-size="10.00">+ VCAPI</text>
<polyline fill="none" stroke="black" points="58.5,-19.5 249.5,-19.5 "/>
<text text-anchor="start" x="66.5" y="-7.5" font-family="Helvetica,sans-Serif" font-size="10.00">+ DataTemplateDictionary()</text>
</a>
</g>
</g>
<!-- Node2 -->
<g id="node2" class="node">
<title>Node2</title>
<g id="a_node2"><a xlink:href="class_volume_control_1_1_core_1_1_resource_dictionary_template_provider.html" target="_top" xlink:title="Abstract ITemplateDictionaryProvider base implementation that inherits from ResourceDictionary.">
<polygon fill="none" stroke="black" points="22.5,-105.5 22.5,-195.5 179.5,-195.5 179.5,-105.5 22.5,-105.5"/>
<text text-anchor="start" x="30.5" y="-183.5" font-family="Helvetica,sans-Serif" font-size="10.00">ResourceDictionaryTemplate</text>
<text text-anchor="middle" x="101" y="-172.5" font-family="Helvetica,sans-Serif" font-size="10.00">Provider</text>
<polyline fill="none" stroke="black" points="22.5,-165.5 179.5,-165.5 "/>
<text text-anchor="middle" x="101" y="-153.5" font-family="Helvetica,sans-Serif" font-size="10.00"> </text>
<polyline fill="none" stroke="black" points="22.5,-146.5 179.5,-146.5 "/>
<text text-anchor="start" x="30.5" y="-134.5" font-family="Helvetica,sans-Serif" font-size="10.00">+ ProvideDataTemplate()</text>
<text text-anchor="start" x="30.5" y="-123.5" font-family="Helvetica,sans-Serif" font-size="10.00">+ ProvideDataTemplate()</text>
<text text-anchor="start" x="30.5" y="-112.5" font-family="Helvetica,sans-Serif" font-size="10.00">+ AsEnumerable()</text>
</a>
</g>
</g>
<!-- Node2&#45;&gt;Node1 -->
<g id="edge1" class="edge">
<title>Node2&#45;&gt;Node1</title>
<path fill="none" stroke="midnightblue" d="M125.78,-96.19C130.12,-86.87 134.51,-77.43 138.5,-68.85"/>
<polygon fill="none" stroke="midnightblue" points="122.53,-94.88 121.49,-105.42 128.88,-97.83 122.53,-94.88"/>
</g>
<!-- Node3 -->
<g id="node3" class="node">
<title>Node3</title>
<g id="a_node3"><a xlink:title=" ">
<polygon fill="none" stroke="#bfbfbf" points="0,-243.5 0,-300.5 112,-300.5 112,-243.5 0,-243.5"/>
<text text-anchor="middle" x="56" y="-288.5" font-family="Helvetica,sans-Serif" font-size="10.00">ResourceDictionary</text>
<polyline fill="none" stroke="#bfbfbf" points="0,-281.5 112,-281.5 "/>
<text text-anchor="middle" x="56" y="-269.5" font-family="Helvetica,sans-Serif" font-size="10.00"> </text>
<polyline fill="none" stroke="#bfbfbf" points="0,-262.5 112,-262.5 "/>
<text text-anchor="middle" x="56" y="-250.5" font-family="Helvetica,sans-Serif" font-size="10.00"> </text>
</a>
</g>
</g>
<!-- Node3&#45;&gt;Node2 -->
<g id="edge2" class="edge">
<title>Node3&#45;&gt;Node2</title>
<path fill="none" stroke="midnightblue" d="M70.08,-233.62C74.58,-221.67 79.6,-208.32 84.28,-195.91"/>
<polygon fill="none" stroke="midnightblue" points="66.69,-232.69 66.44,-243.28 73.24,-235.16 66.69,-232.69"/>
</g>
<!-- Node4 -->
<g id="node4" class="node">
<title>Node4</title>
<g id="a_node4"><a xlink:href="interface_volume_control_1_1_core_1_1_i_template_dictionary_provider.html" target="_top" xlink:title="An alternative to ITemplateProvider that can be combined with a ResourceDictionary (with a codebehind...">
<polygon fill="none" stroke="black" points="130.5,-232.5 130.5,-311.5 285.5,-311.5 285.5,-232.5 130.5,-232.5"/>
<text text-anchor="middle" x="208" y="-299.5" font-family="Helvetica,sans-Serif" font-size="10.00">ITemplateDictionaryProvider</text>
<polyline fill="none" stroke="black" points="130.5,-292.5 285.5,-292.5 "/>
<text text-anchor="middle" x="208" y="-280.5" font-family="Helvetica,sans-Serif" font-size="10.00"> </text>
<polyline fill="none" stroke="black" points="130.5,-273.5 285.5,-273.5 "/>
<text text-anchor="start" x="138.5" y="-261.5" font-family="Helvetica,sans-Serif" font-size="10.00">+ ProvideDataTemplate()</text>
<text text-anchor="start" x="138.5" y="-250.5" font-family="Helvetica,sans-Serif" font-size="10.00">+ ProvideDataTemplate()</text>
<text text-anchor="start" x="138.5" y="-239.5" font-family="Helvetica,sans-Serif" font-size="10.00">+ AsEnumerable()</text>
</a>
</g>
</g>
<!-- Node4&#45;&gt;Node1 -->
<g id="edge5" class="edge">
<title>Node4&#45;&gt;Node1</title>
<path fill="none" stroke="midnightblue" d="M206.92,-222.3C205.1,-188.73 200.47,-143.41 189,-105 185.33,-92.7 179.56,-79.96 173.76,-68.8"/>
<polygon fill="none" stroke="midnightblue" points="203.43,-222.5 207.4,-232.32 210.42,-222.17 203.43,-222.5"/>
</g>
<!-- Node4&#45;&gt;Node2 -->
<g id="edge3" class="edge">
<title>Node4&#45;&gt;Node2</title>
<path fill="none" stroke="midnightblue" d="M166.57,-224.73C158.09,-215.26 149.18,-205.31 140.77,-195.91"/>
<polygon fill="none" stroke="midnightblue" points="163.98,-227.09 173.26,-232.2 169.2,-222.42 163.98,-227.09"/>
</g>
<!-- Node5 -->
<g id="node5" class="node">
<title>Node5</title>
<g id="a_node5"><a xlink:title=" ">
<polygon fill="none" stroke="#bfbfbf" points="169,-348.5 169,-405.5 247,-405.5 247,-348.5 169,-348.5"/>
<text text-anchor="middle" x="208" y="-393.5" font-family="Helvetica,sans-Serif" font-size="10.00">IEnumerable</text>
<polyline fill="none" stroke="#bfbfbf" points="169,-386.5 247,-386.5 "/>
<text text-anchor="middle" x="208" y="-374.5" font-family="Helvetica,sans-Serif" font-size="10.00"> </text>
<polyline fill="none" stroke="#bfbfbf" points="169,-367.5 247,-367.5 "/>
<text text-anchor="middle" x="208" y="-355.5" font-family="Helvetica,sans-Serif" font-size="10.00"> </text>
</a>
</g>
</g>
<!-- Node5&#45;&gt;Node4 -->
<g id="edge4" class="edge">
<title>Node5&#45;&gt;Node4</title>
<path fill="none" stroke="midnightblue" d="M208,-338.16C208,-329.47 208,-320.23 208,-311.52"/>
<polygon fill="none" stroke="midnightblue" points="204.5,-338.4 208,-348.4 211.5,-338.4 204.5,-338.4"/>
</g>
</g>
</svg>
