<?xml version="1.0" encoding="UTF-8" standalone="no"?>
<!DOCTYPE svg PUBLIC "-//W3C//DTD SVG 1.1//EN"
 "http://www.w3.org/Graphics/SVG/1.1/DTD/svg11.dtd">
<!-- Generated by graphviz version 2.43.0 (0)
 -->
<!-- Title: VolumeControl.Log.AsyncLogWriter.Error Pages: 1 -->
<svg width="399pt" height="198pt"
 viewBox="0.00 0.00 399.00 197.50" xmlns="http://www.w3.org/2000/svg" xmlns:xlink="http://www.w3.org/1999/xlink">
<g id="graph0" class="graph" transform="scale(1 1) rotate(0) translate(4 193.5)">
<title>VolumeControl.Log.AsyncLogWriter.Error</title>
<!-- Node1 -->
<g id="node1" class="node">
<title>Node1</title>
<g id="a_node1"><a xlink:title="Queues writing a EventType.ERROR message with the specified lines .">
<polygon fill="#bfbfbf" stroke="black" points="233,-73.5 233,-103.5 391,-103.5 391,-73.5 233,-73.5"/>
<text text-anchor="start" x="241" y="-91.5" font-family="Helvetica,sans-Serif" font-size="10.00">VolumeControl.Log.AsyncLog</text>
<text text-anchor="middle" x="312" y="-80.5" font-family="Helvetica,sans-Serif" font-size="10.00">Writer.Error</text>
</a>
</g>
</g>
<!-- Node2 -->
<g id="node2" class="node">
<title>Node2</title>
<g id="a_node2"><a xlink:href="struct_volume_control_1_1_core_1_1_input_1_1_structs_1_1_json_hotkey.html#a8e3667369549bda43b0bdac71f0004e9" target="_top" xlink:title="Creates a new THotkey &#160;instance from this JsonHotkey struct, using the specified actionManager &#160;to re...">
<polygon fill="none" stroke="black" points="7,-148 7,-189 190,-189 190,-148 7,-148"/>
<text text-anchor="start" x="15" y="-177" font-family="Helvetica,sans-Serif" font-size="10.00">VolumeControl.Core.Input.</text>
<text text-anchor="start" x="15" y="-166" font-family="Helvetica,sans-Serif" font-size="10.00">Structs.JsonHotkey.CreateInstance</text>
<text text-anchor="middle" x="98.5" y="-155" font-family="Helvetica,sans-Serif" font-size="10.00">&lt; THotkey &gt;</text>
</a>
</g>
</g>
<!-- Node1&#45;&gt;Node2 -->
<g id="edge1" class="edge">
<title>Node1&#45;&gt;Node2</title>
<path fill="none" stroke="midnightblue" d="M270.28,-107.72C248.74,-117.54 221.7,-129.32 197,-138.5 188.2,-141.77 178.87,-144.97 169.6,-147.99"/>
<polygon fill="midnightblue" stroke="midnightblue" points="271.83,-110.86 279.46,-103.5 268.91,-104.49 271.83,-110.86"/>
</g>
<!-- Node3 -->
<g id="node3" class="node">
<title>Node3</title>
<g id="a_node3"><a xlink:href="class_volume_control_1_1_s_d_k_1_1_internal_1_1_initializer.html#ad14db55893cfb34948ed62a314a9e8ce" target="_top" xlink:title=" ">
<polygon fill="none" stroke="black" points="21,-98.5 21,-128.5 176,-128.5 176,-98.5 21,-98.5"/>
<text text-anchor="start" x="29" y="-116.5" font-family="Helvetica,sans-Serif" font-size="10.00">VolumeControl.SDK.Internal.</text>
<text text-anchor="middle" x="98.5" y="-105.5" font-family="Helvetica,sans-Serif" font-size="10.00">Initializer.Initialize</text>
</a>
</g>
</g>
<!-- Node1&#45;&gt;Node3 -->
<g id="edge2" class="edge">
<title>Node1&#45;&gt;Node3</title>
<path fill="none" stroke="midnightblue" d="M222.78,-98.93C207.34,-100.75 191.38,-102.64 176.28,-104.42"/>
<polygon fill="midnightblue" stroke="midnightblue" points="223.33,-102.39 232.85,-97.74 222.5,-95.44 223.33,-102.39"/>
</g>
<!-- Node4 -->
<g id="node4" class="node">
<title>Node4</title>
<g id="a_node4"><a xlink:href="class_volume_control_1_1_core_1_1_input_1_1_actions_1_1_hotkey_action_instance.html#a5f9ed283ca3d13a3c3e7220a23627c47" target="_top" xlink:title="Invokes the method specified by the HotkeyActionDefinition">
<polygon fill="none" stroke="black" points="0,-49.5 0,-79.5 197,-79.5 197,-49.5 0,-49.5"/>
<text text-anchor="start" x="8" y="-67.5" font-family="Helvetica,sans-Serif" font-size="10.00">VolumeControl.Core.Input.</text>
<text text-anchor="middle" x="98.5" y="-56.5" font-family="Helvetica,sans-Serif" font-size="10.00">Actions.HotkeyActionInstance.Invoke</text>
</a>
</g>
</g>
<!-- Node1&#45;&gt;Node4 -->
<g id="edge3" class="edge">
<title>Node1&#45;&gt;Node4</title>
<path fill="none" stroke="midnightblue" d="M222.64,-78.47C214.2,-77.52 205.6,-76.54 197.08,-75.57"/>
<polygon fill="midnightblue" stroke="midnightblue" points="222.52,-81.98 232.85,-79.63 223.3,-75.03 222.52,-81.98"/>
</g>
<!-- Node5 -->
<g id="node5" class="node">
<title>Node5</title>
<g id="a_node5"><a xlink:href="class_volume_control_1_1_core_1_1_input_1_1_hotkey_action_addon_loader.html#a037e4a9483554fd7e6ed40f89e2be559" target="_top" xlink:title="Loads hotkey actions from the specified types .">
<polygon fill="none" stroke="black" points="13,-0.5 13,-30.5 184,-30.5 184,-0.5 13,-0.5"/>
<text text-anchor="start" x="21" y="-18.5" font-family="Helvetica,sans-Serif" font-size="10.00">VolumeControl.Core.Input.</text>
<text text-anchor="middle" x="98.5" y="-7.5" font-family="Helvetica,sans-Serif" font-size="10.00">HotkeyActionAddonLoader.Load</text>
</a>
</g>
</g>
<!-- Node1&#45;&gt;Node5 -->
<g id="edge4" class="edge">
<title>Node1&#45;&gt;Node5</title>
<path fill="none" stroke="midnightblue" d="M269.17,-69.14C247.85,-59.72 221.36,-48.7 197,-40.5 186.32,-36.9 174.83,-33.53 163.62,-30.5"/>
<polygon fill="midnightblue" stroke="midnightblue" points="268.01,-72.45 278.57,-73.33 270.86,-66.06 268.01,-72.45"/>
</g>
</g>
</svg>
