<?xml version="1.0" encoding="UTF-8" standalone="no"?>
<!DOCTYPE svg PUBLIC "-//W3C//DTD SVG 1.1//EN"
 "http://www.w3.org/Graphics/SVG/1.1/DTD/svg11.dtd">
<!-- Generated by graphviz version 2.43.0 (0)
 -->
<!-- Title: VolumeControl.Core.Input.WindowsHotkeyAPI.Register Pages: 1 -->
<svg width="730pt" height="112pt"
 viewBox="0.00 0.00 730.00 112.00" xmlns="http://www.w3.org/2000/svg" xmlns:xlink="http://www.w3.org/1999/xlink">
<g id="graph0" class="graph" transform="scale(1 1) rotate(0) translate(4 108)">
<title>VolumeControl.Core.Input.WindowsHotkeyAPI.Register</title>
<!-- Node1 -->
<g id="node1" class="node">
<title>Node1</title>
<g id="a_node1"><a xlink:title="Registers the specified hotkey .">
<polygon fill="#bfbfbf" stroke="black" points="567,-48.5 567,-78.5 722,-78.5 722,-48.5 567,-48.5"/>
<text text-anchor="start" x="575" y="-66.5" font-family="Helvetica,sans-Serif" font-size="10.00">VolumeControl.Core.Input.</text>
<text text-anchor="middle" x="644.5" y="-55.5" font-family="Helvetica,sans-Serif" font-size="10.00">WindowsHotkeyAPI.Register</text>
</a>
</g>
</g>
<!-- Node2 -->
<g id="node2" class="node">
<title>Node2</title>
<g id="a_node2"><a xlink:href="class_volume_control_1_1_core_1_1_input_1_1_hotkey_with_error.html#ab714b40b19f008c8b92890eed7e7b8cd" target="_top" xlink:title="Registers the hotkey with the Win32 API.">
<polygon fill="none" stroke="black" points="374,-73.5 374,-103.5 519,-103.5 519,-73.5 374,-73.5"/>
<text text-anchor="start" x="382" y="-91.5" font-family="Helvetica,sans-Serif" font-size="10.00">VolumeControl.Core.Input.</text>
<text text-anchor="middle" x="446.5" y="-80.5" font-family="Helvetica,sans-Serif" font-size="10.00">HotkeyWithError.Register</text>
</a>
</g>
</g>
<!-- Node1&#45;&gt;Node2 -->
<g id="edge1" class="edge">
<title>Node1&#45;&gt;Node2</title>
<path fill="none" stroke="midnightblue" d="M556.87,-74.55C544.31,-76.15 531.49,-77.79 519.26,-79.35"/>
<polygon fill="midnightblue" stroke="midnightblue" points="557.4,-78.01 566.88,-73.27 556.52,-71.07 557.4,-78.01"/>
</g>
<!-- Node3 -->
<g id="node3" class="node">
<title>Node3</title>
<g id="a_node3"><a xlink:href="class_volume_control_1_1_core_1_1_input_1_1_windows_hotkey_a_p_i.html#af8c24312d3cae1e662904a58b65a92f0" target="_top" xlink:title="Attempts to register the specified hotkey .">
<polygon fill="none" stroke="black" points="362,-24.5 362,-54.5 531,-54.5 531,-24.5 362,-24.5"/>
<text text-anchor="start" x="370" y="-42.5" font-family="Helvetica,sans-Serif" font-size="10.00">VolumeControl.Core.Input.</text>
<text text-anchor="middle" x="446.5" y="-31.5" font-family="Helvetica,sans-Serif" font-size="10.00">WindowsHotkeyAPI.TryRegister</text>
</a>
</g>
</g>
<!-- Node1&#45;&gt;Node3 -->
<g id="edge2" class="edge">
<title>Node1&#45;&gt;Node3</title>
<path fill="none" stroke="midnightblue" d="M556.92,-52.9C548.38,-51.85 539.71,-50.79 531.2,-49.75"/>
<polygon fill="midnightblue" stroke="midnightblue" points="556.53,-56.38 566.88,-54.12 557.38,-49.43 556.53,-56.38"/>
</g>
<!-- Node4 -->
<g id="node4" class="node">
<title>Node4</title>
<g id="a_node4"><a xlink:href="class_volume_control_1_1_core_1_1_input_1_1_hotkey.html#a5e045269416e451b3493230fc43fb161" target="_top" xlink:title="Registers the hotkey with the Win32 API.">
<polygon fill="none" stroke="black" points="181,-24.5 181,-54.5 326,-54.5 326,-24.5 181,-24.5"/>
<text text-anchor="start" x="189" y="-42.5" font-family="Helvetica,sans-Serif" font-size="10.00">VolumeControl.Core.Input.</text>
<text text-anchor="middle" x="253.5" y="-31.5" font-family="Helvetica,sans-Serif" font-size="10.00">Hotkey.Register</text>
</a>
</g>
</g>
<!-- Node3&#45;&gt;Node4 -->
<g id="edge3" class="edge">
<title>Node3&#45;&gt;Node4</title>
<path fill="none" stroke="midnightblue" d="M351.7,-39.5C343.15,-39.5 334.57,-39.5 326.25,-39.5"/>
<polygon fill="midnightblue" stroke="midnightblue" points="351.72,-43 361.72,-39.5 351.72,-36 351.72,-43"/>
</g>
<!-- Node5 -->
<g id="node5" class="node">
<title>Node5</title>
<g id="a_node5"><a xlink:href="class_volume_control_1_1_core_1_1_input_1_1_hotkey.html#a1fd7fba5f867f685108e249ff892df77" target="_top" xlink:title="Gets a new ID from the WindowsHotkeyAPI.">
<polygon fill="none" stroke="black" points="0,-49.5 0,-79.5 145,-79.5 145,-49.5 0,-49.5"/>
<text text-anchor="start" x="8" y="-67.5" font-family="Helvetica,sans-Serif" font-size="10.00">VolumeControl.Core.Input.</text>
<text text-anchor="middle" x="72.5" y="-56.5" font-family="Helvetica,sans-Serif" font-size="10.00">Hotkey.GetNewID</text>
</a>
</g>
</g>
<!-- Node4&#45;&gt;Node5 -->
<g id="edge4" class="edge">
<title>Node4&#45;&gt;Node5</title>
<path fill="none" stroke="midnightblue" d="M170.96,-50.89C162.36,-52.09 153.67,-53.3 145.2,-54.49"/>
<polygon fill="midnightblue" stroke="midnightblue" points="171.56,-54.34 180.98,-49.49 170.59,-47.41 171.56,-54.34"/>
</g>
<!-- Node6 -->
<g id="node6" class="node">
<title>Node6</title>
<g id="a_node6"><a xlink:href="class_volume_control_1_1_core_1_1_input_1_1_hotkey.html#adaa021dd26938a28ed57c3f558d68668" target="_top" xlink:title="Re&#45;registers the hotkey with the Win32 API.">
<polygon fill="none" stroke="black" points="0,-0.5 0,-30.5 145,-30.5 145,-0.5 0,-0.5"/>
<text text-anchor="start" x="8" y="-18.5" font-family="Helvetica,sans-Serif" font-size="10.00">VolumeControl.Core.Input.</text>
<text text-anchor="middle" x="72.5" y="-7.5" font-family="Helvetica,sans-Serif" font-size="10.00">Hotkey.Reregister</text>
</a>
</g>
</g>
<!-- Node4&#45;&gt;Node6 -->
<g id="edge5" class="edge">
<title>Node4&#45;&gt;Node6</title>
<path fill="none" stroke="midnightblue" d="M170.96,-28.57C162.36,-27.41 153.67,-26.25 145.2,-25.11"/>
<polygon fill="midnightblue" stroke="midnightblue" points="170.61,-32.05 180.98,-29.91 171.54,-25.11 170.61,-32.05"/>
</g>
</g>
</svg>
