<?xml version="1.0" encoding="UTF-8" standalone="no"?>
<!DOCTYPE svg PUBLIC "-//W3C//DTD SVG 1.1//EN"
 "http://www.w3.org/Graphics/SVG/1.1/DTD/svg11.dtd">
<!-- Generated by graphviz version 2.43.0 (0)
 -->
<!-- Title: VolumeControl.Log.Endpoints.PersistentFileEndpoint Pages: 1 -->
<!--zoomable 557 -->
<svg id="main" version="1.1" xmlns="http://www.w3.org/2000/svg" xmlns:xlink="http://www.w3.org/1999/xlink" xml:space="preserve" onload="init(evt)">
<style type="text/css"><![CDATA[
.edge:hover path { stroke: red; }
.edge:hover polygon { stroke: red; fill: red; }
]]></style>
<script type="text/javascript"><![CDATA[
var edges = document.getElementsByTagName('g');
if (edges && edges.length) {
  for (var i=0;i<edges.length;i++) {
    if (edges[i].id.substr(0,4)=='edge') {
      edges[i].setAttribute('class','edge');
    }
  }
}
]]></script>
        <defs>
                <circle id="rim" cx="0" cy="0" r="7"/>
                <circle id="rim2" cx="0" cy="0" r="3.5"/>
                <g id="zoomPlus">
                        <use xlink:href="#rim" fill="#404040">
                                <set attributeName="fill" to="#808080" begin="zoomplus.mouseover" end="zoomplus.mouseout"/>
                        </use>
                        <path d="M-4,0h8M0,-4v8" fill="none" stroke="white" stroke-width="1.5" pointer-events="none"/>
                </g>
                <g id="zoomMin">
                        <use xlink:href="#rim" fill="#404040">
                                <set attributeName="fill" to="#808080" begin="zoomminus.mouseover" end="zoomminus.mouseout"/>
                        </use>
                        <path d="M-4,0h8" fill="none" stroke="white" stroke-width="1.5" pointer-events="none"/>
                </g>
                <g id="dirArrow">
                        <path fill="none" stroke="white" stroke-width="1.5" d="M0,-3.0v7 M-2.5,-0.5L0,-3.0L2.5,-0.5"/>
                </g>
               <g id="resetDef">
                       <use xlink:href="#rim2" fill="#404040">
                               <set attributeName="fill" to="#808080" begin="reset.mouseover" end="reset.mouseout"/>
                       </use>
               </g>
        </defs>

<script type="text/javascript">
var viewWidth = 270;
var viewHeight = 557;
var sectionId = 'dynsection-0';
</script>
<script xlink:href="svgpan.js"/>
<svg id="graph" class="graph">
<g id="viewport">
<title>VolumeControl.Log.Endpoints.PersistentFileEndpoint</title>
<!-- Node1 -->
<g id="node1" class="node">
<title>Node1</title>
<g id="a_node1"><a xlink:title="Log endpoint that allows writing logs directly to a file on disk, and keeps the file stream open.">
<polygon fill="#bfbfbf" stroke="black" points="81.5,-0.5 81.5,-112.5 244.5,-112.5 244.5,-0.5 81.5,-0.5"/>
<text text-anchor="start" x="89.5" y="-100.5" font-family="Helvetica,sans-Serif" font-size="10.00">VolumeControl.Log.Endpoints.</text>
<text text-anchor="middle" x="163" y="-89.5" font-family="Helvetica,sans-Serif" font-size="10.00">PersistentFileEndpoint</text>
<polyline fill="none" stroke="black" points="81.5,-82.5 244.5,-82.5 "/>
<text text-anchor="middle" x="163" y="-70.5" font-family="Helvetica,sans-Serif" font-size="10.00"> </text>
<polyline fill="none" stroke="black" points="81.5,-63.5 244.5,-63.5 "/>
<text text-anchor="start" x="89.5" y="-51.5" font-family="Helvetica,sans-Serif" font-size="10.00">+ PersistentFileEndpoint()</text>
<text text-anchor="start" x="89.5" y="-40.5" font-family="Helvetica,sans-Serif" font-size="10.00">+ GetTextWriter()</text>
<text text-anchor="start" x="89.5" y="-29.5" font-family="Helvetica,sans-Serif" font-size="10.00">+ GetStreamWriter()</text>
<text text-anchor="start" x="89.5" y="-18.5" font-family="Helvetica,sans-Serif" font-size="10.00">+ Reset()</text>
<text text-anchor="start" x="89.5" y="-7.5" font-family="Helvetica,sans-Serif" font-size="10.00">+ Dispose()</text>
</a>
</g>
</g>
<!-- Node2 -->
<g id="node2" class="node">
<title>Node2</title>
<g id="a_node2"><a xlink:href="class_volume_control_1_1_log_1_1_endpoints_1_1_file_endpoint.html" target="_top" xlink:title="Log endpoint that allows writing logs directly to a file on disk.">
<polygon fill="none" stroke="black" points="47,-149.5 47,-261.5 165,-261.5 165,-149.5 47,-149.5"/>
<text text-anchor="middle" x="106" y="-249.5" font-family="Helvetica,sans-Serif" font-size="10.00">FileEndpoint</text>
<polyline fill="none" stroke="black" points="47,-242.5 165,-242.5 "/>
<text text-anchor="start" x="55" y="-230.5" font-family="Helvetica,sans-Serif" font-size="10.00">+ FileInfo</text>
<text text-anchor="start" x="55" y="-219.5" font-family="Helvetica,sans-Serif" font-size="10.00">+ Path</text>
<text text-anchor="start" x="55" y="-208.5" font-family="Helvetica,sans-Serif" font-size="10.00">+ PathIsEmpty</text>
<polyline fill="none" stroke="black" points="47,-201.5 165,-201.5 "/>
<text text-anchor="start" x="55" y="-189.5" font-family="Helvetica,sans-Serif" font-size="10.00">+ FileEndpoint()</text>
<text text-anchor="start" x="55" y="-178.5" font-family="Helvetica,sans-Serif" font-size="10.00">+ GetStreamWriter()</text>
<text text-anchor="start" x="55" y="-167.5" font-family="Helvetica,sans-Serif" font-size="10.00">+ GetTextWriter()</text>
<text text-anchor="start" x="55" y="-156.5" font-family="Helvetica,sans-Serif" font-size="10.00">+ Reset()</text>
</a>
</g>
</g>
<!-- Node2&#45;&gt;Node1 -->
<g id="edge1" class="edge">
<title>Node2&#45;&gt;Node1</title>
<path fill="none" stroke="midnightblue" d="M131.11,-139.75C134.57,-130.81 138.1,-121.71 141.49,-112.96"/>
<polygon fill="none" stroke="midnightblue" points="127.74,-138.76 127.39,-149.34 134.27,-141.29 127.74,-138.76"/>
</g>
<!-- Node3 -->
<g id="node3" class="node">
<title>Node3</title>
<g id="a_node3"><a xlink:href="class_volume_control_1_1_log_1_1_endpoints_1_1_base_endpoint_writer.html" target="_top" xlink:title="Abstract base class for endpoint writers.">
<polygon fill="none" stroke="black" points="82.5,-298.5 82.5,-421.5 231.5,-421.5 231.5,-298.5 82.5,-298.5"/>
<text text-anchor="middle" x="157" y="-409.5" font-family="Helvetica,sans-Serif" font-size="10.00">BaseEndpointWriter</text>
<polyline fill="none" stroke="black" points="82.5,-402.5 231.5,-402.5 "/>
<text text-anchor="start" x="90.5" y="-390.5" font-family="Helvetica,sans-Serif" font-size="10.00">+ IsWritingEnabled</text>
<polyline fill="none" stroke="black" points="82.5,-383.5 231.5,-383.5 "/>
<text text-anchor="start" x="90.5" y="-371.5" font-family="Helvetica,sans-Serif" font-size="10.00">+ GetTextWriter()</text>
<text text-anchor="start" x="90.5" y="-360.5" font-family="Helvetica,sans-Serif" font-size="10.00">+ Reset()</text>
<text text-anchor="start" x="90.5" y="-349.5" font-family="Helvetica,sans-Serif" font-size="10.00">+ Write()</text>
<text text-anchor="start" x="90.5" y="-338.5" font-family="Helvetica,sans-Serif" font-size="10.00">+ WriteLine()</text>
<text text-anchor="start" x="90.5" y="-327.5" font-family="Helvetica,sans-Serif" font-size="10.00">+ WriteLine()</text>
<text text-anchor="start" x="90.5" y="-316.5" font-family="Helvetica,sans-Serif" font-size="10.00"># BaseEndpointWriter()</text>
<text text-anchor="start" x="90.5" y="-305.5" font-family="Helvetica,sans-Serif" font-size="10.00"># NotifyPropertyChanged()</text>
</a>
</g>
</g>
<!-- Node3&#45;&gt;Node2 -->
<g id="edge2" class="edge">
<title>Node3&#45;&gt;Node2</title>
<path fill="none" stroke="midnightblue" d="M133.43,-288.53C130.41,-279.48 127.34,-270.32 124.41,-261.56"/>
<polygon fill="none" stroke="midnightblue" points="130.21,-289.92 136.7,-298.29 136.84,-287.7 130.21,-289.92"/>
</g>
<!-- Node4 -->
<g id="node4" class="node">
<title>Node4</title>
<g id="a_node4"><a xlink:href="interface_volume_control_1_1_log_1_1_interfaces_1_1_i_endpoint_writer.html" target="_top" xlink:title="Represents an endpoint that text can be written to.">
<polygon fill="none" stroke="black" points="0,-458.5 0,-548.5 110,-548.5 110,-458.5 0,-458.5"/>
<text text-anchor="middle" x="55" y="-536.5" font-family="Helvetica,sans-Serif" font-size="10.00">IEndpointWriter</text>
<polyline fill="none" stroke="black" points="0,-529.5 110,-529.5 "/>
<text text-anchor="start" x="8" y="-517.5" font-family="Helvetica,sans-Serif" font-size="10.00">+ IsWritingEnabled</text>
<polyline fill="none" stroke="black" points="0,-510.5 110,-510.5 "/>
<text text-anchor="start" x="8" y="-498.5" font-family="Helvetica,sans-Serif" font-size="10.00">+ GetTextWriter()</text>
<text text-anchor="start" x="8" y="-487.5" font-family="Helvetica,sans-Serif" font-size="10.00">+ Write()</text>
<text text-anchor="start" x="8" y="-476.5" font-family="Helvetica,sans-Serif" font-size="10.00">+ WriteLine()</text>
<text text-anchor="start" x="8" y="-465.5" font-family="Helvetica,sans-Serif" font-size="10.00">+ Reset()</text>
</a>
</g>
</g>
<!-- Node4&#45;&gt;Node2 -->
<g id="edge5" class="edge">
<title>Node4&#45;&gt;Node2</title>
<path fill="none" stroke="midnightblue" d="M55.98,-447.94C57.65,-406.41 61.97,-348.05 73,-298 75.62,-286.13 79.37,-273.69 83.42,-261.96"/>
<polygon fill="none" stroke="midnightblue" points="52.48,-448 55.62,-458.12 59.47,-448.25 52.48,-448"/>
</g>
<!-- Node4&#45;&gt;Node3 -->
<g id="edge3" class="edge">
<title>Node4&#45;&gt;Node3</title>
<path fill="none" stroke="midnightblue" d="M92.98,-449.81C99.62,-440.6 106.57,-430.96 113.34,-421.56"/>
<polygon fill="none" stroke="midnightblue" points="90,-447.96 86.99,-458.12 95.68,-452.05 90,-447.96"/>
</g>
<!-- Node5 -->
<g id="node5" class="node">
<title>Node5</title>
<g id="a_node5"><a xlink:title=" ">
<polygon fill="none" stroke="#bfbfbf" points="128.5,-475 128.5,-532 261.5,-532 261.5,-475 128.5,-475"/>
<text text-anchor="middle" x="195" y="-520" font-family="Helvetica,sans-Serif" font-size="10.00">INotifyPropertyChanged</text>
<polyline fill="none" stroke="#bfbfbf" points="128.5,-513 261.5,-513 "/>
<text text-anchor="middle" x="195" y="-501" font-family="Helvetica,sans-Serif" font-size="10.00"> </text>
<polyline fill="none" stroke="#bfbfbf" points="128.5,-494 261.5,-494 "/>
<text text-anchor="middle" x="195" y="-482" font-family="Helvetica,sans-Serif" font-size="10.00"> </text>
</a>
</g>
</g>
<!-- Node5&#45;&gt;Node3 -->
<g id="edge4" class="edge">
<title>Node5&#45;&gt;Node3</title>
<path fill="none" stroke="midnightblue" d="M184.96,-465.13C181.38,-451.8 177.25,-436.42 173.28,-421.63"/>
<polygon fill="none" stroke="midnightblue" points="181.61,-466.13 187.58,-474.88 188.37,-464.32 181.61,-466.13"/>
</g>
<!-- Node6 -->
<g id="node6" class="node">
<title>Node6</title>
<g id="a_node6"><a xlink:title=" ">
<polygon fill="none" stroke="#bfbfbf" points="183,-177 183,-234 257,-234 257,-177 183,-177"/>
<text text-anchor="middle" x="220" y="-222" font-family="Helvetica,sans-Serif" font-size="10.00">IDisposable</text>
<polyline fill="none" stroke="#bfbfbf" points="183,-215 257,-215 "/>
<text text-anchor="middle" x="220" y="-203" font-family="Helvetica,sans-Serif" font-size="10.00"> </text>
<polyline fill="none" stroke="#bfbfbf" points="183,-196 257,-196 "/>
<text text-anchor="middle" x="220" y="-184" font-family="Helvetica,sans-Serif" font-size="10.00"> </text>
</a>
</g>
</g>
<!-- Node6&#45;&gt;Node1 -->
<g id="edge6" class="edge">
<title>Node6&#45;&gt;Node1</title>
<path fill="none" stroke="midnightblue" d="M205.66,-167.51C199.23,-150.93 191.51,-131.02 184.42,-112.73"/>
<polygon fill="none" stroke="midnightblue" points="202.4,-168.79 209.28,-176.85 208.93,-166.26 202.4,-168.79"/>
</g>
</g>
</svg>
        <g id="navigator" transform="translate(0 0)" fill="#404254">
                <rect fill="#f2f5e9" fill-opacity="0.5" stroke="#606060" stroke-width=".5" x="0" y="0" width="60" height="60"/>
                <use id="zoomplus" xlink:href="#zoomPlus" x="17" y="9" onmousedown="handleZoom(evt,'in')"/>
                <use id="zoomminus" xlink:href="#zoomMin" x="42" y="9" onmousedown="handleZoom(evt,'out')"/>
                <use id="reset" xlink:href="#resetDef" x="30" y="36" onmousedown="handleReset()"/>
                <g id="arrowUp" xlink:href="#dirArrow" transform="translate(30 24)" onmousedown="handlePan(0,-1)">
                  <use xlink:href="#rim" fill="#404040">
                        <set attributeName="fill" to="#808080" begin="arrowUp.mouseover" end="arrowUp.mouseout"/>
                  </use>
                  <path fill="none" stroke="white" stroke-width="1.5" d="M0,-3.0v7 M-2.5,-0.5L0,-3.0L2.5,-0.5"/>
                </g>
                <g id="arrowRight" xlink:href="#dirArrow" transform="rotate(90) translate(36 -43)" onmousedown="handlePan(1,0)">
                  <use xlink:href="#rim" fill="#404040">
                        <set attributeName="fill" to="#808080" begin="arrowRight.mouseover" end="arrowRight.mouseout"/>
                  </use>
                  <path fill="none" stroke="white" stroke-width="1.5" d="M0,-3.0v7 M-2.5,-0.5L0,-3.0L2.5,-0.5"/>
                </g>
                <g id="arrowDown" xlink:href="#dirArrow" transform="rotate(180) translate(-30 -48)" onmousedown="handlePan(0,1)">
                  <use xlink:href="#rim" fill="#404040">
                        <set attributeName="fill" to="#808080" begin="arrowDown.mouseover" end="arrowDown.mouseout"/>
                  </use>
                  <path fill="none" stroke="white" stroke-width="1.5" d="M0,-3.0v7 M-2.5,-0.5L0,-3.0L2.5,-0.5"/>
                </g>
                <g id="arrowLeft" xlink:href="#dirArrow" transform="rotate(270) translate(-36 17)" onmousedown="handlePan(-1,0)">
                  <use xlink:href="#rim" fill="#404040">
                        <set attributeName="fill" to="#808080" begin="arrowLeft.mouseover" end="arrowLeft.mouseout"/>
                  </use>
                  <path fill="none" stroke="white" stroke-width="1.5" d="M0,-3.0v7 M-2.5,-0.5L0,-3.0L2.5,-0.5"/>
                </g>
        </g>
        <svg viewBox="0 0 15 15" width="100%" height="30px" preserveAspectRatio="xMaxYMin meet">
         <g id="arrow_out" transform="scale(0.3 0.3)">
          <a xlink:href="class_volume_control_1_1_log_1_1_endpoints_1_1_persistent_file_endpoint__inherit__graph_org.svg" target="_base">
           <rect id="button" ry="5" rx="5" y="6" x="6" height="38" width="38"
                fill="#f2f5e9" fill-opacity="0.5" stroke="#606060" stroke-width="1.0"/>
           <path id="arrow"
             d="M 11.500037,31.436501 C 11.940474,20.09759 22.043105,11.32322 32.158766,21.979434 L 37.068811,17.246167 C 37.068811,17.246167 37.088388,32 37.088388,32 L 22.160133,31.978069 C 22.160133,31.978069 26.997745,27.140456 26.997745,27.140456 C 18.528582,18.264221 13.291696,25.230495 11.500037,31.436501 z"
             style="fill:#404040;"/>
          </a>
         </g>
        </svg>
</svg>
