<?xml version="1.0" encoding="UTF-8" standalone="no"?>
<!DOCTYPE svg PUBLIC "-//W3C//DTD SVG 1.1//EN"
 "http://www.w3.org/Graphics/SVG/1.1/DTD/svg11.dtd">
<!-- Generated by graphviz version 2.43.0 (0)
 -->
<!-- Title: VolumeControl.WPF.IconExtractor.TryExtractFromPath Pages: 1 -->
<svg width="626pt" height="235pt"
 viewBox="0.00 0.00 626.00 235.00" xmlns="http://www.w3.org/2000/svg" xmlns:xlink="http://www.w3.org/1999/xlink">
<g id="graph0" class="graph" transform="scale(1 1) rotate(0) translate(4 231)">
<title>VolumeControl.WPF.IconExtractor.TryExtractFromPath</title>
<!-- Node1 -->
<g id="node1" class="node">
<title>Node1</title>
<g id="a_node1"><a xlink:title="Attempts to get an ImageSource from the specified iconPath .">
<polygon fill="#bfbfbf" stroke="black" points="0,-98.5 0,-128.5 182,-128.5 182,-98.5 0,-98.5"/>
<text text-anchor="start" x="8" y="-116.5" font-family="Helvetica,sans-Serif" font-size="10.00">VolumeControl.WPF.IconExtractor.</text>
<text text-anchor="middle" x="91" y="-105.5" font-family="Helvetica,sans-Serif" font-size="10.00">TryExtractFromPath</text>
</a>
</g>
</g>
<!-- Node2 -->
<g id="node2" class="node">
<title>Node2</title>
<g id="a_node2"><a xlink:href="class_volume_control_1_1_w_p_f_1_1_icon_extractor.html#abe1f24fc610d292ead5bdd98ef816da9" target="_top" xlink:title="Gets an ImageSource from the specified iconPath .">
<polygon fill="none" stroke="black" points="218,-98.5 218,-128.5 400,-128.5 400,-98.5 218,-98.5"/>
<text text-anchor="start" x="226" y="-116.5" font-family="Helvetica,sans-Serif" font-size="10.00">VolumeControl.WPF.IconExtractor.</text>
<text text-anchor="middle" x="309" y="-105.5" font-family="Helvetica,sans-Serif" font-size="10.00">ExtractFromPath</text>
</a>
</g>
</g>
<!-- Node1&#45;&gt;Node2 -->
<g id="edge1" class="edge">
<title>Node1&#45;&gt;Node2</title>
<path fill="none" stroke="midnightblue" d="M182.04,-113.5C190.53,-113.5 199.16,-113.5 207.74,-113.5"/>
<polygon fill="midnightblue" stroke="midnightblue" points="207.76,-117 217.76,-113.5 207.76,-110 207.76,-117"/>
</g>
<!-- Node3 -->
<g id="node3" class="node">
<title>Node3</title>
<g id="a_node3"><a xlink:href="class_volume_control_1_1_w_p_f_1_1_icon_extractor.html#ab4461a26a9a48953388762f80f1d8549" target="_top" xlink:title="Gets an ImageSource for the specified directory.">
<polygon fill="none" stroke="black" points="436,-196.5 436,-226.5 618,-226.5 618,-196.5 436,-196.5"/>
<text text-anchor="start" x="444" y="-214.5" font-family="Helvetica,sans-Serif" font-size="10.00">VolumeControl.WPF.IconExtractor.</text>
<text text-anchor="middle" x="527" y="-203.5" font-family="Helvetica,sans-Serif" font-size="10.00">ExtractFromDirectory</text>
</a>
</g>
</g>
<!-- Node2&#45;&gt;Node3 -->
<g id="edge2" class="edge">
<title>Node2&#45;&gt;Node3</title>
<path fill="none" stroke="midnightblue" d="M331.8,-128.79C356.2,-145.29 397.38,-171.36 436,-187.5 440.94,-189.57 446.11,-191.5 451.37,-193.3"/>
<polygon fill="midnightblue" stroke="midnightblue" points="450.3,-196.63 460.89,-196.39 452.46,-189.97 450.3,-196.63"/>
</g>
<!-- Node4 -->
<g id="node4" class="node">
<title>Node4</title>
<g id="a_node4"><a xlink:href="class_volume_control_1_1_w_p_f_1_1_icon_extractor.html#ab73ef1f9865f6b6af8089e323a241fa3" target="_top" xlink:title="Gets an ImageSource from an icon in the specified dynamic&#45;link library file (.dll).">
<polygon fill="none" stroke="black" points="436,-147.5 436,-177.5 618,-177.5 618,-147.5 436,-147.5"/>
<text text-anchor="start" x="444" y="-165.5" font-family="Helvetica,sans-Serif" font-size="10.00">VolumeControl.WPF.IconExtractor.</text>
<text text-anchor="middle" x="527" y="-154.5" font-family="Helvetica,sans-Serif" font-size="10.00">ExtractFromDll</text>
</a>
</g>
</g>
<!-- Node2&#45;&gt;Node4 -->
<g id="edge3" class="edge">
<title>Node2&#45;&gt;Node4</title>
<path fill="none" stroke="midnightblue" d="M376.28,-128.53C399.6,-133.83 425.99,-139.81 450.05,-145.27"/>
<polygon fill="midnightblue" stroke="midnightblue" points="449.32,-148.69 459.85,-147.49 450.87,-141.87 449.32,-148.69"/>
</g>
<!-- Node5 -->
<g id="node5" class="node">
<title>Node5</title>
<g id="a_node5"><a xlink:href="class_volume_control_1_1_w_p_f_1_1_icon_extractor.html#a94b8170e8716109a23d06abdb7f89900" target="_top" xlink:title="Gets an ImageSource for the icon of a regular file, including executable files (.exe).">
<polygon fill="none" stroke="black" points="436,-98.5 436,-128.5 618,-128.5 618,-98.5 436,-98.5"/>
<text text-anchor="start" x="444" y="-116.5" font-family="Helvetica,sans-Serif" font-size="10.00">VolumeControl.WPF.IconExtractor.</text>
<text text-anchor="middle" x="527" y="-105.5" font-family="Helvetica,sans-Serif" font-size="10.00">ExtractFromFile</text>
</a>
</g>
</g>
<!-- Node2&#45;&gt;Node5 -->
<g id="edge4" class="edge">
<title>Node2&#45;&gt;Node5</title>
<path fill="none" stroke="midnightblue" d="M400.04,-113.5C408.53,-113.5 417.16,-113.5 425.74,-113.5"/>
<polygon fill="midnightblue" stroke="midnightblue" points="425.76,-117 435.76,-113.5 425.76,-110 425.76,-117"/>
</g>
<!-- Node6 -->
<g id="node6" class="node">
<title>Node6</title>
<g id="a_node6"><a xlink:href="class_volume_control_1_1_w_p_f_1_1_icon_extractor.html#a6e2dd06ef8fba196e0d4c3a0feb58c3e" target="_top" xlink:title="Gets an ImageSource from an icon file (.ico).">
<polygon fill="none" stroke="black" points="436,-49.5 436,-79.5 618,-79.5 618,-49.5 436,-49.5"/>
<text text-anchor="start" x="444" y="-67.5" font-family="Helvetica,sans-Serif" font-size="10.00">VolumeControl.WPF.IconExtractor.</text>
<text text-anchor="middle" x="527" y="-56.5" font-family="Helvetica,sans-Serif" font-size="10.00">ExtractFromIcoFile</text>
</a>
</g>
</g>
<!-- Node2&#45;&gt;Node6 -->
<g id="edge5" class="edge">
<title>Node2&#45;&gt;Node6</title>
<path fill="none" stroke="midnightblue" d="M376.28,-98.47C399.6,-93.17 425.99,-87.19 450.05,-81.73"/>
<polygon fill="midnightblue" stroke="midnightblue" points="450.87,-85.13 459.85,-79.51 449.32,-78.31 450.87,-85.13"/>
</g>
<!-- Node7 -->
<g id="node7" class="node">
<title>Node7</title>
<g id="a_node7"><a xlink:href="class_volume_control_1_1_w_p_f_1_1_icon_extractor.html#a897e852ff93374eec7af0622e8a2eb19" target="_top" xlink:title="Parses the specified iconPath &#160;by separating the filepath and the icon index.">
<polygon fill="none" stroke="black" points="436,-0.5 436,-30.5 618,-30.5 618,-0.5 436,-0.5"/>
<text text-anchor="start" x="444" y="-18.5" font-family="Helvetica,sans-Serif" font-size="10.00">VolumeControl.WPF.IconExtractor.</text>
<text text-anchor="middle" x="527" y="-7.5" font-family="Helvetica,sans-Serif" font-size="10.00">ParseIconPath</text>
</a>
</g>
</g>
<!-- Node2&#45;&gt;Node7 -->
<g id="edge6" class="edge">
<title>Node2&#45;&gt;Node7</title>
<path fill="none" stroke="midnightblue" d="M332.31,-98.22C356.82,-82.01 397.78,-56.57 436,-40.5 441.79,-38.07 447.88,-35.8 454.06,-33.7"/>
<polygon fill="midnightblue" stroke="midnightblue" points="455.37,-36.95 463.81,-30.54 453.21,-30.29 455.37,-36.95"/>
</g>
</g>
</svg>
