<?xml version="1.0" encoding="UTF-8" standalone="no"?>
<!DOCTYPE svg PUBLIC "-//W3C//DTD SVG 1.1//EN"
 "http://www.w3.org/Graphics/SVG/1.1/DTD/svg11.dtd">
<!-- Generated by graphviz version 2.43.0 (0)
 -->
<!-- Title: VolumeControl.Audio.AudioAPI.ReloadDeviceList Pages: 1 -->
<svg width="530pt" height="161pt"
 viewBox="0.00 0.00 530.00 161.00" xmlns="http://www.w3.org/2000/svg" xmlns:xlink="http://www.w3.org/1999/xlink">
<g id="graph0" class="graph" transform="scale(1 1) rotate(0) translate(4 157)">
<title>VolumeControl.Audio.AudioAPI.ReloadDeviceList</title>
<!-- Node1 -->
<g id="node1" class="node">
<title>Node1</title>
<g id="a_node1"><a xlink:title="Performs a selective update on the Devices list property by removing old/disabled/unplugged entries a...">
<polygon fill="#bfbfbf" stroke="black" points="372,-49.5 372,-79.5 522,-79.5 522,-49.5 372,-49.5"/>
<text text-anchor="start" x="380" y="-67.5" font-family="Helvetica,sans-Serif" font-size="10.00">VolumeControl.Audio.Audio</text>
<text text-anchor="middle" x="447" y="-56.5" font-family="Helvetica,sans-Serif" font-size="10.00">API.ReloadDeviceList</text>
</a>
</g>
</g>
<!-- Node2 -->
<g id="node2" class="node">
<title>Node2</title>
<g id="a_node2"><a xlink:href="class_volume_control_1_1_audio_1_1_audio_a_p_i.html#ac3e7afbc0735865b41053dca511119b3" target="_top" xlink:title="Performs a selective update on the Sessions list property by removing old/exited entries and adding n...">
<polygon fill="none" stroke="black" points="186,-98.5 186,-128.5 336,-128.5 336,-98.5 186,-98.5"/>
<text text-anchor="start" x="194" y="-116.5" font-family="Helvetica,sans-Serif" font-size="10.00">VolumeControl.Audio.Audio</text>
<text text-anchor="middle" x="261" y="-105.5" font-family="Helvetica,sans-Serif" font-size="10.00">API.ReloadSessionList</text>
</a>
</g>
</g>
<!-- Node1&#45;&gt;Node2 -->
<g id="edge1" class="edge">
<title>Node1&#45;&gt;Node2</title>
<path fill="none" stroke="midnightblue" d="M379.82,-82.12C359.69,-87.48 337.77,-93.32 318.35,-98.49"/>
<polygon fill="midnightblue" stroke="midnightblue" points="380.78,-85.49 389.54,-79.53 378.98,-78.73 380.78,-85.49"/>
</g>
<!-- Node5 -->
<g id="node5" class="node">
<title>Node5</title>
<g id="a_node5"><a xlink:href="class_volume_control_1_1_audio_1_1_audio_a_p_i.html#aa690fde5b4d6e42488899e644143606a" target="_top" xlink:title="Sets SelectedDevice to the device occurring after this one in Devices. &#160;Automatically loops back arou...">
<polygon fill="none" stroke="black" points="186,-49.5 186,-79.5 336,-79.5 336,-49.5 186,-49.5"/>
<text text-anchor="start" x="194" y="-67.5" font-family="Helvetica,sans-Serif" font-size="10.00">VolumeControl.Audio.Audio</text>
<text text-anchor="middle" x="261" y="-56.5" font-family="Helvetica,sans-Serif" font-size="10.00">API.SelectNextDevice</text>
</a>
</g>
</g>
<!-- Node1&#45;&gt;Node5 -->
<g id="edge4" class="edge">
<title>Node1&#45;&gt;Node5</title>
<path fill="none" stroke="midnightblue" d="M361.93,-64.5C353.35,-64.5 344.66,-64.5 336.19,-64.5"/>
<polygon fill="midnightblue" stroke="midnightblue" points="361.96,-68 371.96,-64.5 361.96,-61 361.96,-68"/>
</g>
<!-- Node6 -->
<g id="node6" class="node">
<title>Node6</title>
<g id="a_node6"><a xlink:href="class_volume_control_1_1_audio_1_1_audio_a_p_i.html#a9b72b7ddf1e303e35f3b60c507c10943" target="_top" xlink:title="Sets SelectedDevice to the device occurring before this one in Devices. &#160;Automatically loops back aro...">
<polygon fill="none" stroke="black" points="186,-0.5 186,-30.5 336,-30.5 336,-0.5 186,-0.5"/>
<text text-anchor="start" x="194" y="-18.5" font-family="Helvetica,sans-Serif" font-size="10.00">VolumeControl.Audio.Audio</text>
<text text-anchor="middle" x="261" y="-7.5" font-family="Helvetica,sans-Serif" font-size="10.00">API.SelectPreviousDevice</text>
</a>
</g>
</g>
<!-- Node1&#45;&gt;Node6 -->
<g id="edge5" class="edge">
<title>Node1&#45;&gt;Node6</title>
<path fill="none" stroke="midnightblue" d="M379.82,-46.88C359.69,-41.52 337.77,-35.68 318.35,-30.51"/>
<polygon fill="midnightblue" stroke="midnightblue" points="378.98,-50.27 389.54,-49.47 380.78,-43.51 378.98,-50.27"/>
</g>
<!-- Node3 -->
<g id="node3" class="node">
<title>Node3</title>
<g id="a_node3"><a xlink:href="class_volume_control_1_1_audio_1_1_audio_a_p_i.html#ac4d6652e0c43e1e6ad382e7ee27aa852" target="_top" xlink:title="Sets SelectedSession to the session occurring after this one in Sessions. &#160;Automatically loops back a...">
<polygon fill="none" stroke="black" points="0,-122.5 0,-152.5 150,-152.5 150,-122.5 0,-122.5"/>
<text text-anchor="start" x="8" y="-140.5" font-family="Helvetica,sans-Serif" font-size="10.00">VolumeControl.Audio.Audio</text>
<text text-anchor="middle" x="75" y="-129.5" font-family="Helvetica,sans-Serif" font-size="10.00">API.SelectNextSession</text>
</a>
</g>
</g>
<!-- Node2&#45;&gt;Node3 -->
<g id="edge2" class="edge">
<title>Node2&#45;&gt;Node3</title>
<path fill="none" stroke="midnightblue" d="M175.93,-124.47C167.35,-125.59 158.66,-126.72 150.19,-127.82"/>
<polygon fill="midnightblue" stroke="midnightblue" points="176.49,-127.92 185.96,-123.16 175.59,-120.98 176.49,-127.92"/>
</g>
<!-- Node4 -->
<g id="node4" class="node">
<title>Node4</title>
<g id="a_node4"><a xlink:href="class_volume_control_1_1_audio_1_1_audio_a_p_i.html#a26b47e154c1d12a394a95a5bea66047d" target="_top" xlink:title="Sets SelectedSession to the session occurring before this one in Sessions. &#160;Automatically loops back ...">
<polygon fill="none" stroke="black" points="0,-73.5 0,-103.5 150,-103.5 150,-73.5 0,-73.5"/>
<text text-anchor="start" x="8" y="-91.5" font-family="Helvetica,sans-Serif" font-size="10.00">VolumeControl.Audio.Audio</text>
<text text-anchor="middle" x="75" y="-80.5" font-family="Helvetica,sans-Serif" font-size="10.00">API.SelectPreviousSession</text>
</a>
</g>
</g>
<!-- Node2&#45;&gt;Node4 -->
<g id="edge3" class="edge">
<title>Node2&#45;&gt;Node4</title>
<path fill="none" stroke="midnightblue" d="M175.93,-102.08C167.35,-100.91 158.66,-99.73 150.19,-98.58"/>
<polygon fill="midnightblue" stroke="midnightblue" points="175.58,-105.56 185.96,-103.44 176.52,-98.63 175.58,-105.56"/>
</g>
</g>
</svg>
