<?xml version="1.0" encoding="UTF-8" standalone="no"?>
<!DOCTYPE svg PUBLIC "-//W3C//DTD SVG 1.1//EN"
 "http://www.w3.org/Graphics/SVG/1.1/DTD/svg11.dtd">
<!-- Generated by graphviz version 2.43.0 (0)
 -->
<!-- Title: VolumeControl.Hotkeys.HotkeyManager Pages: 1 -->
<!--zoomable 518 -->
<svg id="main" version="1.1" xmlns="http://www.w3.org/2000/svg" xmlns:xlink="http://www.w3.org/1999/xlink" xml:space="preserve" onload="init(evt)">
<style type="text/css"><![CDATA[
.edge:hover path { stroke: red; }
.edge:hover polygon { stroke: red; fill: red; }
]]></style>
<script type="text/javascript"><![CDATA[
var edges = document.getElementsByTagName('g');
if (edges && edges.length) {
  for (var i=0;i<edges.length;i++) {
    if (edges[i].id.substr(0,4)=='edge') {
      edges[i].setAttribute('class','edge');
    }
  }
}
]]></script>
        <defs>
                <circle id="rim" cx="0" cy="0" r="7"/>
                <circle id="rim2" cx="0" cy="0" r="3.5"/>
                <g id="zoomPlus">
                        <use xlink:href="#rim" fill="#404040">
                                <set attributeName="fill" to="#808080" begin="zoomplus.mouseover" end="zoomplus.mouseout"/>
                        </use>
                        <path d="M-4,0h8M0,-4v8" fill="none" stroke="white" stroke-width="1.5" pointer-events="none"/>
                </g>
                <g id="zoomMin">
                        <use xlink:href="#rim" fill="#404040">
                                <set attributeName="fill" to="#808080" begin="zoomminus.mouseover" end="zoomminus.mouseout"/>
                        </use>
                        <path d="M-4,0h8" fill="none" stroke="white" stroke-width="1.5" pointer-events="none"/>
                </g>
                <g id="dirArrow">
                        <path fill="none" stroke="white" stroke-width="1.5" d="M0,-3.0v7 M-2.5,-0.5L0,-3.0L2.5,-0.5"/>
                </g>
               <g id="resetDef">
                       <use xlink:href="#rim2" fill="#404040">
                               <set attributeName="fill" to="#808080" begin="reset.mouseover" end="reset.mouseout"/>
                       </use>
               </g>
        </defs>

<script type="text/javascript">
var viewWidth = 711;
var viewHeight = 518;
var sectionId = 'dynsection-1';
</script>
<script xlink:href="svgpan.js"/>
<svg id="graph" class="graph">
<g id="viewport">
<title>VolumeControl.Hotkeys.HotkeyManager</title>
<!-- Node1 -->
<g id="node1" class="node">
<title>Node1</title>
<g id="a_node1"><a xlink:title="This object is responsible for managing hotkeys at runtime.">
<polygon fill="#bfbfbf" stroke="black" points="121.5,-0.5 121.5,-244.5 290.5,-244.5 290.5,-0.5 121.5,-0.5"/>
<text text-anchor="start" x="129.5" y="-232.5" font-family="Helvetica,sans-Serif" font-size="10.00">VolumeControl.Hotkeys.Hotkey</text>
<text text-anchor="middle" x="206" y="-221.5" font-family="Helvetica,sans-Serif" font-size="10.00">Manager</text>
<polyline fill="none" stroke="black" points="121.5,-214.5 290.5,-214.5 "/>
<text text-anchor="start" x="129.5" y="-202.5" font-family="Helvetica,sans-Serif" font-size="10.00">+ OwnerHandle</text>
<text text-anchor="start" x="129.5" y="-191.5" font-family="Helvetica,sans-Serif" font-size="10.00">+ CollectionChanged</text>
<text text-anchor="start" x="129.5" y="-180.5" font-family="Helvetica,sans-Serif" font-size="10.00">+ Hotkeys</text>
<text text-anchor="start" x="129.5" y="-169.5" font-family="Helvetica,sans-Serif" font-size="10.00">+ AllSelected</text>
<polyline fill="none" stroke="black" points="121.5,-162.5 290.5,-162.5 "/>
<text text-anchor="start" x="129.5" y="-150.5" font-family="Helvetica,sans-Serif" font-size="10.00">+ HotkeyManager()</text>
<text text-anchor="start" x="129.5" y="-139.5" font-family="Helvetica,sans-Serif" font-size="10.00">+ AddHotkey()</text>
<text text-anchor="start" x="129.5" y="-128.5" font-family="Helvetica,sans-Serif" font-size="10.00">+ AddHotkey()</text>
<text text-anchor="start" x="129.5" y="-117.5" font-family="Helvetica,sans-Serif" font-size="10.00">+ AddHotkey()</text>
<text text-anchor="start" x="129.5" y="-106.5" font-family="Helvetica,sans-Serif" font-size="10.00">+ DelHotkey()</text>
<text text-anchor="start" x="129.5" y="-95.5" font-family="Helvetica,sans-Serif" font-size="10.00">+ DelHotkey()</text>
<text text-anchor="start" x="129.5" y="-84.5" font-family="Helvetica,sans-Serif" font-size="10.00">+ DelAllHotkeys()</text>
<text text-anchor="start" x="129.5" y="-73.5" font-family="Helvetica,sans-Serif" font-size="10.00">+ GetHotkey()</text>
<text text-anchor="start" x="129.5" y="-62.5" font-family="Helvetica,sans-Serif" font-size="10.00">+ LoadHotkeys()</text>
<text text-anchor="start" x="129.5" y="-51.5" font-family="Helvetica,sans-Serif" font-size="10.00">+ SaveHotkeys()</text>
<text text-anchor="start" x="129.5" y="-40.5" font-family="Helvetica,sans-Serif" font-size="10.00">+ ResetHotkeys()</text>
<text text-anchor="start" x="129.5" y="-29.5" font-family="Helvetica,sans-Serif" font-size="10.00">+ Dispose()</text>
<text text-anchor="start" x="129.5" y="-18.5" font-family="Helvetica,sans-Serif" font-size="10.00"># NotifyPropertyChanged()</text>
<text text-anchor="start" x="129.5" y="-7.5" font-family="Helvetica,sans-Serif" font-size="10.00"># HwndHook()</text>
</a>
</g>
</g>
<!-- Node2 -->
<g id="node2" class="node">
<title>Node2</title>
<g id="a_node2"><a xlink:title=" ">
<polygon fill="none" stroke="#bfbfbf" points="0,-309 0,-366 140,-366 140,-309 0,-309"/>
<text text-anchor="middle" x="70" y="-354" font-family="Helvetica,sans-Serif" font-size="10.00">INotifyCollectionChanged</text>
<polyline fill="none" stroke="#bfbfbf" points="0,-347 140,-347 "/>
<text text-anchor="middle" x="70" y="-335" font-family="Helvetica,sans-Serif" font-size="10.00"> </text>
<polyline fill="none" stroke="#bfbfbf" points="0,-328 140,-328 "/>
<text text-anchor="middle" x="70" y="-316" font-family="Helvetica,sans-Serif" font-size="10.00"> </text>
</a>
</g>
</g>
<!-- Node2&#45;&gt;Node1 -->
<g id="edge1" class="edge">
<title>Node2&#45;&gt;Node1</title>
<path fill="none" stroke="midnightblue" d="M93.39,-299.87C103.39,-284.2 115.7,-264.92 128.47,-244.92"/>
<polygon fill="none" stroke="midnightblue" points="90.21,-298.34 87.78,-308.65 96.11,-302.11 90.21,-298.34"/>
</g>
<!-- Node3 -->
<g id="node3" class="node">
<title>Node3</title>
<g id="a_node3"><a xlink:title=" ">
<polygon fill="none" stroke="#bfbfbf" points="82.5,-441.5 82.5,-498.5 215.5,-498.5 215.5,-441.5 82.5,-441.5"/>
<text text-anchor="middle" x="149" y="-486.5" font-family="Helvetica,sans-Serif" font-size="10.00">INotifyPropertyChanged</text>
<polyline fill="none" stroke="#bfbfbf" points="82.5,-479.5 215.5,-479.5 "/>
<text text-anchor="middle" x="149" y="-467.5" font-family="Helvetica,sans-Serif" font-size="10.00"> </text>
<polyline fill="none" stroke="#bfbfbf" points="82.5,-460.5 215.5,-460.5 "/>
<text text-anchor="middle" x="149" y="-448.5" font-family="Helvetica,sans-Serif" font-size="10.00"> </text>
</a>
</g>
</g>
<!-- Node3&#45;&gt;Node1 -->
<g id="edge2" class="edge">
<title>Node3&#45;&gt;Node1</title>
<path fill="none" stroke="midnightblue" d="M155.23,-431.22C162.59,-386.64 175.18,-310.3 185.99,-244.8"/>
<polygon fill="none" stroke="midnightblue" points="151.74,-430.87 153.57,-441.31 158.65,-432.01 151.74,-430.87"/>
</g>
<!-- Node5 -->
<g id="node5" class="node">
<title>Node5</title>
<g id="a_node5"><a xlink:href="interface_volume_control_1_1_hotkeys_1_1_interfaces_1_1_i_hotkey_action_manager.html" target="_top" xlink:title="Represents a hotkey action manager object, which contains the list of IActionBindings used in the hot...">
<polygon fill="none" stroke="black" points="196,-292.5 196,-382.5 382,-382.5 382,-292.5 196,-292.5"/>
<text text-anchor="start" x="204" y="-370.5" font-family="Helvetica,sans-Serif" font-size="10.00">VolumeControl.Hotkeys.Interfaces.</text>
<text text-anchor="middle" x="289" y="-359.5" font-family="Helvetica,sans-Serif" font-size="10.00">IHotkeyActionManager</text>
<polyline fill="none" stroke="black" points="196,-352.5 382,-352.5 "/>
<text text-anchor="start" x="204" y="-340.5" font-family="Helvetica,sans-Serif" font-size="10.00">+ NullActionHandler</text>
<text text-anchor="start" x="204" y="-329.5" font-family="Helvetica,sans-Serif" font-size="10.00">+ Bindings</text>
<text text-anchor="start" x="204" y="-318.5" font-family="Helvetica,sans-Serif" font-size="10.00">+ this[string identifier]</text>
<polyline fill="none" stroke="black" points="196,-311.5 382,-311.5 "/>
<text text-anchor="middle" x="289" y="-299.5" font-family="Helvetica,sans-Serif" font-size="10.00"> </text>
</a>
</g>
</g>
<!-- Node3&#45;&gt;Node5 -->
<g id="edge6" class="edge">
<title>Node3&#45;&gt;Node5</title>
<path fill="none" stroke="midnightblue" d="M186.26,-434.27C203.28,-418.4 223.64,-399.43 241.72,-382.57"/>
<polygon fill="none" stroke="midnightblue" points="183.62,-431.95 178.69,-441.32 188.39,-437.07 183.62,-431.95"/>
</g>
<!-- Node4 -->
<g id="node4" class="node">
<title>Node4</title>
<g id="a_node4"><a xlink:title=" ">
<polygon fill="none" stroke="#bfbfbf" points="400,-309 400,-366 474,-366 474,-309 400,-309"/>
<text text-anchor="middle" x="437" y="-354" font-family="Helvetica,sans-Serif" font-size="10.00">IDisposable</text>
<polyline fill="none" stroke="#bfbfbf" points="400,-347 474,-347 "/>
<text text-anchor="middle" x="437" y="-335" font-family="Helvetica,sans-Serif" font-size="10.00"> </text>
<polyline fill="none" stroke="#bfbfbf" points="400,-328 474,-328 "/>
<text text-anchor="middle" x="437" y="-316" font-family="Helvetica,sans-Serif" font-size="10.00"> </text>
</a>
</g>
</g>
<!-- Node4&#45;&gt;Node1 -->
<g id="edge3" class="edge">
<title>Node4&#45;&gt;Node1</title>
<path fill="none" stroke="midnightblue" d="M401.06,-301.53C397.67,-298.29 394.28,-295.08 391,-292 358.53,-261.52 322.41,-228.44 290.76,-199.72"/>
<polygon fill="none" stroke="midnightblue" points="398.78,-304.19 408.42,-308.59 403.63,-299.14 398.78,-304.19"/>
</g>
<!-- Node5&#45;&gt;Node1 -->
<g id="edge4" class="edge">
<title>Node5&#45;&gt;Node1</title>
<path fill="none" stroke="#404040" d="M271.8,-292.37C267.54,-281.43 262.75,-269.15 257.76,-256.32"/>
<polygon fill="none" stroke="#404040" points="257.67,-256.1 251.77,-251.97 253.32,-244.92 259.22,-249.06 257.67,-256.1"/>
<text text-anchor="middle" x="289" y="-266" font-family="Helvetica,sans-Serif" font-size="10.00"> +Actions</text>
</g>
<!-- Node6 -->
<g id="node6" class="node">
<title>Node6</title>
<g id="a_node6"><a xlink:href="interface_volume_control_1_1_core_1_1_i_base_addon.html" target="_top" xlink:title="Represents any type of Volume Control addon definition object. &#160;This interface is implemented by the ...">
<polygon fill="none" stroke="black" points="233.5,-436 233.5,-504 344.5,-504 344.5,-436 233.5,-436"/>
<text text-anchor="middle" x="289" y="-492" font-family="Helvetica,sans-Serif" font-size="10.00">IBaseAddon</text>
<polyline fill="none" stroke="black" points="233.5,-485 344.5,-485 "/>
<text text-anchor="start" x="241.5" y="-473" font-family="Helvetica,sans-Serif" font-size="10.00">+ Attribute</text>
<text text-anchor="start" x="241.5" y="-462" font-family="Helvetica,sans-Serif" font-size="10.00">+ Types</text>
<polyline fill="none" stroke="black" points="233.5,-455 344.5,-455 "/>
<text text-anchor="start" x="241.5" y="-443" font-family="Helvetica,sans-Serif" font-size="10.00">+ LoadFromTypes()</text>
</a>
</g>
</g>
<!-- Node6&#45;&gt;Node5 -->
<g id="edge5" class="edge">
<title>Node6&#45;&gt;Node5</title>
<path fill="none" stroke="midnightblue" d="M289,-425.5C289,-411.69 289,-396.4 289,-382.55"/>
<polygon fill="none" stroke="midnightblue" points="285.5,-425.73 289,-435.73 292.5,-425.73 285.5,-425.73"/>
</g>
<!-- Node7 -->
<g id="node7" class="node">
<title>Node7</title>
<g id="a_node7"><a xlink:title=" ">
<polygon fill="none" stroke="#bfbfbf" points="363,-441.5 363,-498.5 499,-498.5 499,-441.5 363,-441.5"/>
<text text-anchor="middle" x="431" y="-486.5" font-family="Helvetica,sans-Serif" font-size="10.00">INotifyPropertyChanging</text>
<polyline fill="none" stroke="#bfbfbf" points="363,-479.5 499,-479.5 "/>
<text text-anchor="middle" x="431" y="-467.5" font-family="Helvetica,sans-Serif" font-size="10.00"> </text>
<polyline fill="none" stroke="#bfbfbf" points="363,-460.5 499,-460.5 "/>
<text text-anchor="middle" x="431" y="-448.5" font-family="Helvetica,sans-Serif" font-size="10.00"> </text>
</a>
</g>
</g>
<!-- Node7&#45;&gt;Node5 -->
<g id="edge7" class="edge">
<title>Node7&#45;&gt;Node5</title>
<path fill="none" stroke="midnightblue" d="M393.21,-434.27C375.94,-418.4 355.3,-399.43 336.95,-382.57"/>
<polygon fill="none" stroke="midnightblue" points="391.15,-437.13 400.89,-441.32 395.89,-431.98 391.15,-437.13"/>
</g>
<!-- Node8 -->
<g id="node8" class="node">
<title>Node8</title>
<g id="a_node8"><a xlink:href="interface_volume_control_1_1_hotkeys_1_1_interfaces_1_1_i_action_binding.html" target="_top" xlink:title="Represents an action binding object, which is a container for reflective method information used to c...">
<polygon fill="none" stroke="black" points="517,-430.5 517,-509.5 703,-509.5 703,-430.5 517,-430.5"/>
<text text-anchor="start" x="525" y="-497.5" font-family="Helvetica,sans-Serif" font-size="10.00">VolumeControl.Hotkeys.Interfaces.</text>
<text text-anchor="middle" x="610" y="-486.5" font-family="Helvetica,sans-Serif" font-size="10.00">IActionBinding</text>
<polyline fill="none" stroke="black" points="517,-479.5 703,-479.5 "/>
<text text-anchor="start" x="525" y="-467.5" font-family="Helvetica,sans-Serif" font-size="10.00">+ Data</text>
<text text-anchor="start" x="525" y="-456.5" font-family="Helvetica,sans-Serif" font-size="10.00">+ Identifier</text>
<polyline fill="none" stroke="black" points="517,-449.5 703,-449.5 "/>
<text text-anchor="start" x="525" y="-437.5" font-family="Helvetica,sans-Serif" font-size="10.00">+ HandleKeyEvent()</text>
</a>
</g>
</g>
<!-- Node8&#45;&gt;Node5 -->
<g id="edge8" class="edge">
<title>Node8&#45;&gt;Node5</title>
<path fill="none" stroke="#404040" d="M516.99,-433.35C480.92,-419.32 439.07,-402.79 393.42,-383.97"/>
<polygon fill="none" stroke="#404040" points="393.14,-383.85 386.07,-385.25 382.05,-379.27 389.12,-377.86 393.14,-383.85"/>
<text text-anchor="middle" x="487" y="-404" font-family="Helvetica,sans-Serif" font-size="10.00"> +NullAction</text>
</g>
</g>
</svg>
        <g id="navigator" transform="translate(0 0)" fill="#404254">
                <rect fill="#f2f5e9" fill-opacity="0.5" stroke="#606060" stroke-width=".5" x="0" y="0" width="60" height="60"/>
                <use id="zoomplus" xlink:href="#zoomPlus" x="17" y="9" onmousedown="handleZoom(evt,'in')"/>
                <use id="zoomminus" xlink:href="#zoomMin" x="42" y="9" onmousedown="handleZoom(evt,'out')"/>
                <use id="reset" xlink:href="#resetDef" x="30" y="36" onmousedown="handleReset()"/>
                <g id="arrowUp" xlink:href="#dirArrow" transform="translate(30 24)" onmousedown="handlePan(0,-1)">
                  <use xlink:href="#rim" fill="#404040">
                        <set attributeName="fill" to="#808080" begin="arrowUp.mouseover" end="arrowUp.mouseout"/>
                  </use>
                  <path fill="none" stroke="white" stroke-width="1.5" d="M0,-3.0v7 M-2.5,-0.5L0,-3.0L2.5,-0.5"/>
                </g>
                <g id="arrowRight" xlink:href="#dirArrow" transform="rotate(90) translate(36 -43)" onmousedown="handlePan(1,0)">
                  <use xlink:href="#rim" fill="#404040">
                        <set attributeName="fill" to="#808080" begin="arrowRight.mouseover" end="arrowRight.mouseout"/>
                  </use>
                  <path fill="none" stroke="white" stroke-width="1.5" d="M0,-3.0v7 M-2.5,-0.5L0,-3.0L2.5,-0.5"/>
                </g>
                <g id="arrowDown" xlink:href="#dirArrow" transform="rotate(180) translate(-30 -48)" onmousedown="handlePan(0,1)">
                  <use xlink:href="#rim" fill="#404040">
                        <set attributeName="fill" to="#808080" begin="arrowDown.mouseover" end="arrowDown.mouseout"/>
                  </use>
                  <path fill="none" stroke="white" stroke-width="1.5" d="M0,-3.0v7 M-2.5,-0.5L0,-3.0L2.5,-0.5"/>
                </g>
                <g id="arrowLeft" xlink:href="#dirArrow" transform="rotate(270) translate(-36 17)" onmousedown="handlePan(-1,0)">
                  <use xlink:href="#rim" fill="#404040">
                        <set attributeName="fill" to="#808080" begin="arrowLeft.mouseover" end="arrowLeft.mouseout"/>
                  </use>
                  <path fill="none" stroke="white" stroke-width="1.5" d="M0,-3.0v7 M-2.5,-0.5L0,-3.0L2.5,-0.5"/>
                </g>
        </g>
        <svg viewBox="0 0 15 15" width="100%" height="30px" preserveAspectRatio="xMaxYMin meet">
         <g id="arrow_out" transform="scale(0.3 0.3)">
          <a xlink:href="class_volume_control_1_1_hotkeys_1_1_hotkey_manager__coll__graph_org.svg" target="_base">
           <rect id="button" ry="5" rx="5" y="6" x="6" height="38" width="38"
                fill="#f2f5e9" fill-opacity="0.5" stroke="#606060" stroke-width="1.0"/>
           <path id="arrow"
             d="M 11.500037,31.436501 C 11.940474,20.09759 22.043105,11.32322 32.158766,21.979434 L 37.068811,17.246167 C 37.068811,17.246167 37.088388,32 37.088388,32 L 22.160133,31.978069 C 22.160133,31.978069 26.997745,27.140456 26.997745,27.140456 C 18.528582,18.264221 13.291696,25.230495 11.500037,31.436501 z"
             style="fill:#404040;"/>
          </a>
         </g>
        </svg>
</svg>
