<?xml version="1.0" encoding="UTF-8" standalone="no"?>
<!DOCTYPE svg PUBLIC "-//W3C//DTD SVG 1.1//EN"
 "http://www.w3.org/Graphics/SVG/1.1/DTD/svg11.dtd">
<!-- Generated by graphviz version 2.43.0 (0)
 -->
<!-- Title: VolumeControl.Core.Helpers.VCSettingsContainer Pages: 1 -->
<svg width="296pt" height="325pt"
 viewBox="0.00 0.00 295.50 325.00" xmlns="http://www.w3.org/2000/svg" xmlns:xlink="http://www.w3.org/1999/xlink">
<g id="graph0" class="graph" transform="scale(1 1) rotate(0) translate(4 321)">
<title>VolumeControl.Core.Helpers.VCSettingsContainer</title>
<!-- Node1 -->
<g id="node1" class="node">
<title>Node1</title>
<g id="a_node1"><a xlink:title="Responsible for containing the runtime state settings.">
<polygon fill="#bfbfbf" stroke="black" points="48,-0.5 48,-222.5 237,-222.5 237,-0.5 48,-0.5"/>
<text text-anchor="start" x="56" y="-210.5" font-family="Helvetica,sans-Serif" font-size="10.00">VolumeControl.Core.Helpers.</text>
<text text-anchor="middle" x="142.5" y="-199.5" font-family="Helvetica,sans-Serif" font-size="10.00">VCSettingsContainer</text>
<polyline fill="none" stroke="black" points="48,-192.5 237,-192.5 "/>
<text text-anchor="start" x="56" y="-180.5" font-family="Helvetica,sans-Serif" font-size="10.00">+ ExecutablePath</text>
<text text-anchor="start" x="56" y="-169.5" font-family="Helvetica,sans-Serif" font-size="10.00">+ Hook</text>
<text text-anchor="start" x="56" y="-158.5" font-family="Helvetica,sans-Serif" font-size="10.00">+ ShowIcons</text>
<text text-anchor="start" x="56" y="-147.5" font-family="Helvetica,sans-Serif" font-size="10.00">+ AdvancedHotkeyMode</text>
<text text-anchor="start" x="56" y="-136.5" font-family="Helvetica,sans-Serif" font-size="10.00">+ RunAtStartup</text>
<text text-anchor="start" x="56" y="-125.5" font-family="Helvetica,sans-Serif" font-size="10.00">+ StartMinimized</text>
<text text-anchor="start" x="56" y="-114.5" font-family="Helvetica,sans-Serif" font-size="10.00">+ CheckForUpdates</text>
<text text-anchor="start" x="56" y="-103.5" font-family="Helvetica,sans-Serif" font-size="10.00">+ AllowUpdateToPreRelease</text>
<text text-anchor="start" x="56" y="-92.5" font-family="Helvetica,sans-Serif" font-size="10.00">+ ShowUpdateMessageBox</text>
<text text-anchor="start" x="56" y="-81.5" font-family="Helvetica,sans-Serif" font-size="10.00">+ NotificationEnabled</text>
<text text-anchor="start" x="56" y="-70.5" font-family="Helvetica,sans-Serif" font-size="10.00">+ NotificationTimeout</text>
<text text-anchor="start" x="56" y="-59.5" font-family="Helvetica,sans-Serif" font-size="10.00">+ NotificationMode</text>
<text text-anchor="start" x="56" y="-48.5" font-family="Helvetica,sans-Serif" font-size="10.00">+ NotificationShowsVolumeChange</text>
<polyline fill="none" stroke="black" points="48,-41.5 237,-41.5 "/>
<text text-anchor="start" x="56" y="-29.5" font-family="Helvetica,sans-Serif" font-size="10.00">+ VCSettingsContainer()</text>
<text text-anchor="start" x="56" y="-18.5" font-family="Helvetica,sans-Serif" font-size="10.00"># NotifyPropertyChanged()</text>
<text text-anchor="start" x="56" y="-7.5" font-family="Helvetica,sans-Serif" font-size="10.00"># NotifyPropertyChanging()</text>
</a>
</g>
</g>
<!-- Node2 -->
<g id="node2" class="node">
<title>Node2</title>
<g id="a_node2"><a xlink:title=" ">
<polygon fill="none" stroke="#bfbfbf" points="0,-259.5 0,-316.5 133,-316.5 133,-259.5 0,-259.5"/>
<text text-anchor="middle" x="66.5" y="-304.5" font-family="Helvetica,sans-Serif" font-size="10.00">INotifyPropertyChanged</text>
<polyline fill="none" stroke="#bfbfbf" points="0,-297.5 133,-297.5 "/>
<text text-anchor="middle" x="66.5" y="-285.5" font-family="Helvetica,sans-Serif" font-size="10.00"> </text>
<polyline fill="none" stroke="#bfbfbf" points="0,-278.5 133,-278.5 "/>
<text text-anchor="middle" x="66.5" y="-266.5" font-family="Helvetica,sans-Serif" font-size="10.00"> </text>
</a>
</g>
</g>
<!-- Node2&#45;&gt;Node1 -->
<g id="edge1" class="edge">
<title>Node2&#45;&gt;Node1</title>
<path fill="none" stroke="midnightblue" d="M82.61,-250.02C86.24,-241.69 90.27,-232.42 94.48,-222.75"/>
<polygon fill="none" stroke="midnightblue" points="79.33,-248.78 78.54,-259.35 85.74,-251.58 79.33,-248.78"/>
</g>
<!-- Node3 -->
<g id="node3" class="node">
<title>Node3</title>
<g id="a_node3"><a xlink:title=" ">
<polygon fill="none" stroke="#bfbfbf" points="151.5,-259.5 151.5,-316.5 287.5,-316.5 287.5,-259.5 151.5,-259.5"/>
<text text-anchor="middle" x="219.5" y="-304.5" font-family="Helvetica,sans-Serif" font-size="10.00">INotifyPropertyChanging</text>
<polyline fill="none" stroke="#bfbfbf" points="151.5,-297.5 287.5,-297.5 "/>
<text text-anchor="middle" x="219.5" y="-285.5" font-family="Helvetica,sans-Serif" font-size="10.00"> </text>
<polyline fill="none" stroke="#bfbfbf" points="151.5,-278.5 287.5,-278.5 "/>
<text text-anchor="middle" x="219.5" y="-266.5" font-family="Helvetica,sans-Serif" font-size="10.00"> </text>
</a>
</g>
</g>
<!-- Node3&#45;&gt;Node1 -->
<g id="edge2" class="edge">
<title>Node3&#45;&gt;Node1</title>
<path fill="none" stroke="midnightblue" d="M203.18,-250.02C199.5,-241.69 195.42,-232.42 191.15,-222.75"/>
<polygon fill="none" stroke="midnightblue" points="200.06,-251.61 207.3,-259.35 206.46,-248.79 200.06,-251.61"/>
</g>
</g>
</svg>
