<?xml version="1.0" encoding="UTF-8" standalone="no"?>
<!DOCTYPE svg PUBLIC "-//W3C//DTD SVG 1.1//EN"
 "http://www.w3.org/Graphics/SVG/1.1/DTD/svg11.dtd">
<!-- Generated by graphviz version 2.43.0 (0)
 -->
<!-- Title: VolumeControl.Hotkeys.BindableWindowsHotkey Pages: 1 -->
<!--zoomable 584 -->
<svg id="main" version="1.1" xmlns="http://www.w3.org/2000/svg" xmlns:xlink="http://www.w3.org/1999/xlink" xml:space="preserve" onload="init(evt)">
<style type="text/css"><![CDATA[
.edge:hover path { stroke: red; }
.edge:hover polygon { stroke: red; fill: red; }
]]></style>
<script type="text/javascript"><![CDATA[
var edges = document.getElementsByTagName('g');
if (edges && edges.length) {
  for (var i=0;i<edges.length;i++) {
    if (edges[i].id.substr(0,4)=='edge') {
      edges[i].setAttribute('class','edge');
    }
  }
}
]]></script>
        <defs>
                <circle id="rim" cx="0" cy="0" r="7"/>
                <circle id="rim2" cx="0" cy="0" r="3.5"/>
                <g id="zoomPlus">
                        <use xlink:href="#rim" fill="#404040">
                                <set attributeName="fill" to="#808080" begin="zoomplus.mouseover" end="zoomplus.mouseout"/>
                        </use>
                        <path d="M-4,0h8M0,-4v8" fill="none" stroke="white" stroke-width="1.5" pointer-events="none"/>
                </g>
                <g id="zoomMin">
                        <use xlink:href="#rim" fill="#404040">
                                <set attributeName="fill" to="#808080" begin="zoomminus.mouseover" end="zoomminus.mouseout"/>
                        </use>
                        <path d="M-4,0h8" fill="none" stroke="white" stroke-width="1.5" pointer-events="none"/>
                </g>
                <g id="dirArrow">
                        <path fill="none" stroke="white" stroke-width="1.5" d="M0,-3.0v7 M-2.5,-0.5L0,-3.0L2.5,-0.5"/>
                </g>
               <g id="resetDef">
                       <use xlink:href="#rim2" fill="#404040">
                               <set attributeName="fill" to="#808080" begin="reset.mouseover" end="reset.mouseout"/>
                       </use>
               </g>
        </defs>

<script type="text/javascript">
var viewWidth = 210;
var viewHeight = 584;
var sectionId = 'dynsection-1';
</script>
<script xlink:href="svgpan.js"/>
<svg id="graph" class="graph">
<g id="viewport">
<title>VolumeControl.Hotkeys.BindableWindowsHotkey</title>
<!-- Node1 -->
<g id="node1" class="node">
<title>Node1</title>
<g id="a_node1"><a xlink:title=" ">
<polygon fill="#bfbfbf" stroke="black" points="25,-0.5 25,-310.5 202,-310.5 202,-0.5 25,-0.5"/>
<text text-anchor="start" x="33" y="-298.5" font-family="Helvetica,sans-Serif" font-size="10.00">VolumeControl.Hotkeys.Bindable</text>
<text text-anchor="middle" x="113.5" y="-287.5" font-family="Helvetica,sans-Serif" font-size="10.00">WindowsHotkey</text>
<polyline fill="none" stroke="black" points="25,-280.5 202,-280.5 "/>
<text text-anchor="start" x="33" y="-268.5" font-family="Helvetica,sans-Serif" font-size="10.00">+ Valid</text>
<text text-anchor="start" x="33" y="-257.5" font-family="Helvetica,sans-Serif" font-size="10.00">+ ID</text>
<text text-anchor="start" x="33" y="-246.5" font-family="Helvetica,sans-Serif" font-size="10.00">+ Hotkey</text>
<text text-anchor="start" x="33" y="-235.5" font-family="Helvetica,sans-Serif" font-size="10.00">+ Name</text>
<text text-anchor="start" x="33" y="-224.5" font-family="Helvetica,sans-Serif" font-size="10.00">+ Registered</text>
<text text-anchor="start" x="33" y="-213.5" font-family="Helvetica,sans-Serif" font-size="10.00">+ Action</text>
<text text-anchor="start" x="33" y="-202.5" font-family="Helvetica,sans-Serif" font-size="10.00">+ Key</text>
<text text-anchor="start" x="33" y="-191.5" font-family="Helvetica,sans-Serif" font-size="10.00">+ Mod</text>
<text text-anchor="start" x="33" y="-180.5" font-family="Helvetica,sans-Serif" font-size="10.00">+ Alt</text>
<text text-anchor="start" x="33" y="-169.5" font-family="Helvetica,sans-Serif" font-size="10.00">+ Ctrl</text>
<text text-anchor="start" x="33" y="-158.5" font-family="Helvetica,sans-Serif" font-size="10.00">+ Shift</text>
<text text-anchor="start" x="33" y="-147.5" font-family="Helvetica,sans-Serif" font-size="10.00">+ Win</text>
<text text-anchor="start" x="33" y="-136.5" font-family="Helvetica,sans-Serif" font-size="10.00">+ Key</text>
<text text-anchor="start" x="33" y="-125.5" font-family="Helvetica,sans-Serif" font-size="10.00">+ Pressed</text>
<text text-anchor="start" x="33" y="-114.5" font-family="Helvetica,sans-Serif" font-size="10.00">+ KeysChanged</text>
<text text-anchor="start" x="33" y="-103.5" font-family="Helvetica,sans-Serif" font-size="10.00">+ PropertyChanged</text>
<polyline fill="none" stroke="black" points="25,-96.5 202,-96.5 "/>
<text text-anchor="start" x="33" y="-84.5" font-family="Helvetica,sans-Serif" font-size="10.00">+ BindableWindowsHotkey()</text>
<text text-anchor="start" x="33" y="-73.5" font-family="Helvetica,sans-Serif" font-size="10.00">+ Dispose()</text>
<text text-anchor="start" x="33" y="-62.5" font-family="Helvetica,sans-Serif" font-size="10.00">+ NotifyPressed()</text>
<text text-anchor="start" x="33" y="-51.5" font-family="Helvetica,sans-Serif" font-size="10.00">+ NotifyPressed()</text>
<text text-anchor="start" x="33" y="-40.5" font-family="Helvetica,sans-Serif" font-size="10.00">+ ToString()</text>
<text text-anchor="start" x="33" y="-29.5" font-family="Helvetica,sans-Serif" font-size="10.00">+ Serialize()</text>
<text text-anchor="start" x="33" y="-18.5" font-family="Helvetica,sans-Serif" font-size="10.00">+ GetFullIdentifier()</text>
<text text-anchor="start" x="33" y="-7.5" font-family="Helvetica,sans-Serif" font-size="10.00">+ Parse()</text>
</a>
</g>
</g>
<!-- Node2 -->
<g id="node2" class="node">
<title>Node2</title>
<g id="a_node2"><a xlink:href="interface_hotkey_lib_1_1_i_key_combo.html" target="_top" xlink:title="Represents a combination of one keyboard key and any number of modifier keys.">
<polygon fill="none" stroke="black" points="28,-347.5 28,-481.5 105,-481.5 105,-347.5 28,-347.5"/>
<text text-anchor="middle" x="66.5" y="-469.5" font-family="Helvetica,sans-Serif" font-size="10.00">IKeyCombo</text>
<polyline fill="none" stroke="black" points="28,-462.5 105,-462.5 "/>
<text text-anchor="start" x="36" y="-450.5" font-family="Helvetica,sans-Serif" font-size="10.00">+ Key</text>
<text text-anchor="start" x="36" y="-439.5" font-family="Helvetica,sans-Serif" font-size="10.00">+ Mod</text>
<text text-anchor="start" x="36" y="-428.5" font-family="Helvetica,sans-Serif" font-size="10.00">+ Alt</text>
<text text-anchor="start" x="36" y="-417.5" font-family="Helvetica,sans-Serif" font-size="10.00">+ Ctrl</text>
<text text-anchor="start" x="36" y="-406.5" font-family="Helvetica,sans-Serif" font-size="10.00">+ Shift</text>
<text text-anchor="start" x="36" y="-395.5" font-family="Helvetica,sans-Serif" font-size="10.00">+ Win</text>
<text text-anchor="start" x="36" y="-384.5" font-family="Helvetica,sans-Serif" font-size="10.00">+ Valid</text>
<polyline fill="none" stroke="black" points="28,-377.5 105,-377.5 "/>
<text text-anchor="start" x="36" y="-365.5" font-family="Helvetica,sans-Serif" font-size="10.00">+ ToString()</text>
<text text-anchor="start" x="36" y="-354.5" font-family="Helvetica,sans-Serif" font-size="10.00">+ Serialize()</text>
</a>
</g>
</g>
<!-- Node2&#45;&gt;Node1 -->
<g id="edge1" class="edge">
<title>Node2&#45;&gt;Node1</title>
<path fill="none" stroke="midnightblue" d="M80.41,-337.46C81.97,-328.9 83.6,-319.98 85.27,-310.87"/>
<polygon fill="none" stroke="midnightblue" points="76.96,-336.85 78.6,-347.32 83.85,-338.11 76.96,-336.85"/>
</g>
<!-- Node3 -->
<g id="node3" class="node">
<title>Node3</title>
<g id="a_node3"><a xlink:title=" ">
<polygon fill="none" stroke="#bfbfbf" points="0,-518.5 0,-575.5 133,-575.5 133,-518.5 0,-518.5"/>
<text text-anchor="middle" x="66.5" y="-563.5" font-family="Helvetica,sans-Serif" font-size="10.00">INotifyPropertyChanged</text>
<polyline fill="none" stroke="#bfbfbf" points="0,-556.5 133,-556.5 "/>
<text text-anchor="middle" x="66.5" y="-544.5" font-family="Helvetica,sans-Serif" font-size="10.00"> </text>
<polyline fill="none" stroke="#bfbfbf" points="0,-537.5 133,-537.5 "/>
<text text-anchor="middle" x="66.5" y="-525.5" font-family="Helvetica,sans-Serif" font-size="10.00"> </text>
</a>
</g>
</g>
<!-- Node3&#45;&gt;Node2 -->
<g id="edge2" class="edge">
<title>Node3&#45;&gt;Node2</title>
<path fill="none" stroke="midnightblue" d="M66.5,-508.16C66.5,-499.78 66.5,-490.67 66.5,-481.53"/>
<polygon fill="none" stroke="midnightblue" points="63,-508.32 66.5,-518.32 70,-508.32 63,-508.32"/>
</g>
<!-- Node4 -->
<g id="node4" class="node">
<title>Node4</title>
<g id="a_node4"><a xlink:title=" ">
<polygon fill="none" stroke="#bfbfbf" points="123.5,-386 123.5,-443 197.5,-443 197.5,-386 123.5,-386"/>
<text text-anchor="middle" x="160.5" y="-431" font-family="Helvetica,sans-Serif" font-size="10.00">IDisposable</text>
<polyline fill="none" stroke="#bfbfbf" points="123.5,-424 197.5,-424 "/>
<text text-anchor="middle" x="160.5" y="-412" font-family="Helvetica,sans-Serif" font-size="10.00"> </text>
<polyline fill="none" stroke="#bfbfbf" points="123.5,-405 197.5,-405 "/>
<text text-anchor="middle" x="160.5" y="-393" font-family="Helvetica,sans-Serif" font-size="10.00"> </text>
</a>
</g>
</g>
<!-- Node4&#45;&gt;Node1 -->
<g id="edge3" class="edge">
<title>Node4&#45;&gt;Node1</title>
<path fill="none" stroke="midnightblue" d="M153.64,-375.97C150.34,-357.94 146.14,-335 141.72,-310.79"/>
<polygon fill="none" stroke="midnightblue" points="150.23,-376.79 155.47,-386 157.11,-375.53 150.23,-376.79"/>
</g>
</g>
</svg>
        <g id="navigator" transform="translate(0 0)" fill="#404254">
                <rect fill="#f2f5e9" fill-opacity="0.5" stroke="#606060" stroke-width=".5" x="0" y="0" width="60" height="60"/>
                <use id="zoomplus" xlink:href="#zoomPlus" x="17" y="9" onmousedown="handleZoom(evt,'in')"/>
                <use id="zoomminus" xlink:href="#zoomMin" x="42" y="9" onmousedown="handleZoom(evt,'out')"/>
                <use id="reset" xlink:href="#resetDef" x="30" y="36" onmousedown="handleReset()"/>
                <g id="arrowUp" xlink:href="#dirArrow" transform="translate(30 24)" onmousedown="handlePan(0,-1)">
                  <use xlink:href="#rim" fill="#404040">
                        <set attributeName="fill" to="#808080" begin="arrowUp.mouseover" end="arrowUp.mouseout"/>
                  </use>
                  <path fill="none" stroke="white" stroke-width="1.5" d="M0,-3.0v7 M-2.5,-0.5L0,-3.0L2.5,-0.5"/>
                </g>
                <g id="arrowRight" xlink:href="#dirArrow" transform="rotate(90) translate(36 -43)" onmousedown="handlePan(1,0)">
                  <use xlink:href="#rim" fill="#404040">
                        <set attributeName="fill" to="#808080" begin="arrowRight.mouseover" end="arrowRight.mouseout"/>
                  </use>
                  <path fill="none" stroke="white" stroke-width="1.5" d="M0,-3.0v7 M-2.5,-0.5L0,-3.0L2.5,-0.5"/>
                </g>
                <g id="arrowDown" xlink:href="#dirArrow" transform="rotate(180) translate(-30 -48)" onmousedown="handlePan(0,1)">
                  <use xlink:href="#rim" fill="#404040">
                        <set attributeName="fill" to="#808080" begin="arrowDown.mouseover" end="arrowDown.mouseout"/>
                  </use>
                  <path fill="none" stroke="white" stroke-width="1.5" d="M0,-3.0v7 M-2.5,-0.5L0,-3.0L2.5,-0.5"/>
                </g>
                <g id="arrowLeft" xlink:href="#dirArrow" transform="rotate(270) translate(-36 17)" onmousedown="handlePan(-1,0)">
                  <use xlink:href="#rim" fill="#404040">
                        <set attributeName="fill" to="#808080" begin="arrowLeft.mouseover" end="arrowLeft.mouseout"/>
                  </use>
                  <path fill="none" stroke="white" stroke-width="1.5" d="M0,-3.0v7 M-2.5,-0.5L0,-3.0L2.5,-0.5"/>
                </g>
        </g>
        <svg viewBox="0 0 15 15" width="100%" height="30px" preserveAspectRatio="xMaxYMin meet">
         <g id="arrow_out" transform="scale(0.3 0.3)">
          <a xlink:href="class_volume_control_1_1_hotkeys_1_1_bindable_windows_hotkey__coll__graph_org.svg" target="_base">
           <rect id="button" ry="5" rx="5" y="6" x="6" height="38" width="38"
                fill="#f2f5e9" fill-opacity="0.5" stroke="#606060" stroke-width="1.0"/>
           <path id="arrow"
             d="M 11.500037,31.436501 C 11.940474,20.09759 22.043105,11.32322 32.158766,21.979434 L 37.068811,17.246167 C 37.068811,17.246167 37.088388,32 37.088388,32 L 22.160133,31.978069 C 22.160133,31.978069 26.997745,27.140456 26.997745,27.140456 C 18.528582,18.264221 13.291696,25.230495 11.500037,31.436501 z"
             style="fill:#404040;"/>
          </a>
         </g>
        </svg>
</svg>
