<?xml version="1.0" encoding="UTF-8" standalone="no"?>
<!DOCTYPE svg PUBLIC "-//W3C//DTD SVG 1.1//EN"
 "http://www.w3.org/Graphics/SVG/1.1/DTD/svg11.dtd">
<!-- Generated by graphviz version 2.43.0 (0)
 -->
<!-- Title: VolumeControl.WPF.IconExtractor.ParseIconPath Pages: 1 -->
<svg width="626pt" height="39pt"
 viewBox="0.00 0.00 626.00 39.00" xmlns="http://www.w3.org/2000/svg" xmlns:xlink="http://www.w3.org/1999/xlink">
<g id="graph0" class="graph" transform="scale(1 1) rotate(0) translate(4 35)">
<title>VolumeControl.WPF.IconExtractor.ParseIconPath</title>
<!-- Node1 -->
<g id="node1" class="node">
<title>Node1</title>
<g id="a_node1"><a xlink:title="Parses the specified iconPath &#160;by separating the filepath and the icon index.">
<polygon fill="#bfbfbf" stroke="black" points="436,-0.5 436,-30.5 618,-30.5 618,-0.5 436,-0.5"/>
<text text-anchor="start" x="444" y="-18.5" font-family="Helvetica,sans-Serif" font-size="10.00">VolumeControl.WPF.IconExtractor.</text>
<text text-anchor="middle" x="527" y="-7.5" font-family="Helvetica,sans-Serif" font-size="10.00">ParseIconPath</text>
</a>
</g>
</g>
<!-- Node2 -->
<g id="node2" class="node">
<title>Node2</title>
<g id="a_node2"><a xlink:href="class_volume_control_1_1_w_p_f_1_1_icon_extractor.html#abe1f24fc610d292ead5bdd98ef816da9" target="_top" xlink:title="Gets an ImageSource from the specified iconPath .">
<polygon fill="none" stroke="black" points="218,-0.5 218,-30.5 400,-30.5 400,-0.5 218,-0.5"/>
<text text-anchor="start" x="226" y="-18.5" font-family="Helvetica,sans-Serif" font-size="10.00">VolumeControl.WPF.IconExtractor.</text>
<text text-anchor="middle" x="309" y="-7.5" font-family="Helvetica,sans-Serif" font-size="10.00">ExtractFromPath</text>
</a>
</g>
</g>
<!-- Node1&#45;&gt;Node2 -->
<g id="edge1" class="edge">
<title>Node1&#45;&gt;Node2</title>
<path fill="none" stroke="midnightblue" d="M425.94,-15.5C417.37,-15.5 408.73,-15.5 400.24,-15.5"/>
<polygon fill="midnightblue" stroke="midnightblue" points="425.96,-19 435.96,-15.5 425.96,-12 425.96,-19"/>
</g>
<!-- Node3 -->
<g id="node3" class="node">
<title>Node3</title>
<g id="a_node3"><a xlink:href="class_volume_control_1_1_w_p_f_1_1_icon_extractor.html#ae445c5f5e403b12ae40e9c196e8af6ac" target="_top" xlink:title="Attempts to get an ImageSource from the specified iconPath .">
<polygon fill="none" stroke="black" points="0,-0.5 0,-30.5 182,-30.5 182,-0.5 0,-0.5"/>
<text text-anchor="start" x="8" y="-18.5" font-family="Helvetica,sans-Serif" font-size="10.00">VolumeControl.WPF.IconExtractor.</text>
<text text-anchor="middle" x="91" y="-7.5" font-family="Helvetica,sans-Serif" font-size="10.00">TryExtractFromPath</text>
</a>
</g>
</g>
<!-- Node2&#45;&gt;Node3 -->
<g id="edge2" class="edge">
<title>Node2&#45;&gt;Node3</title>
<path fill="none" stroke="midnightblue" d="M207.94,-15.5C199.37,-15.5 190.73,-15.5 182.24,-15.5"/>
<polygon fill="midnightblue" stroke="midnightblue" points="207.96,-19 217.96,-15.5 207.96,-12 207.96,-19"/>
</g>
</g>
</svg>
