<?xml version="1.0" encoding="UTF-8" standalone="no"?>
<!DOCTYPE svg PUBLIC "-//W3C//DTD SVG 1.1//EN"
 "http://www.w3.org/Graphics/SVG/1.1/DTD/svg11.dtd">
<!-- Generated by graphviz version 2.43.0 (0)
 -->
<!-- Title: VolumeControl.Audio.Collections.AudioSessionCollection Pages: 1 -->
<svg width="1559pt" height="424pt"
 viewBox="0.00 0.00 1559.00 424.00" xmlns="http://www.w3.org/2000/svg" xmlns:xlink="http://www.w3.org/1999/xlink">
<g id="graph0" class="graph" transform="scale(1 1) rotate(0) translate(4 420)">
<title>VolumeControl.Audio.Collections.AudioSessionCollection</title>
<!-- Node1 -->
<g id="node1" class="node">
<title>Node1</title>
<g id="a_node1"><a xlink:title="AudioSession management container type. &#160;This is implemented as a viewmodel in the AudioAPI class.">
<polygon fill="#bfbfbf" stroke="black" points="520.5,-0.5 520.5,-310.5 699.5,-310.5 699.5,-0.5 520.5,-0.5"/>
<text text-anchor="start" x="528.5" y="-298.5" font-family="Helvetica,sans-Serif" font-size="10.00">VolumeControl.Audio.Collections.</text>
<text text-anchor="middle" x="610" y="-287.5" font-family="Helvetica,sans-Serif" font-size="10.00">AudioSessionCollection</text>
<polyline fill="none" stroke="black" points="520.5,-280.5 699.5,-280.5 "/>
<text text-anchor="start" x="528.5" y="-268.5" font-family="Helvetica,sans-Serif" font-size="10.00">+ Items</text>
<text text-anchor="start" x="528.5" y="-257.5" font-family="Helvetica,sans-Serif" font-size="10.00">+ Count</text>
<text text-anchor="start" x="528.5" y="-246.5" font-family="Helvetica,sans-Serif" font-size="10.00">+ IsSynchronized</text>
<text text-anchor="start" x="528.5" y="-235.5" font-family="Helvetica,sans-Serif" font-size="10.00">+ SyncRoot</text>
<text text-anchor="start" x="528.5" y="-224.5" font-family="Helvetica,sans-Serif" font-size="10.00">+ IsFixedSize</text>
<text text-anchor="start" x="528.5" y="-213.5" font-family="Helvetica,sans-Serif" font-size="10.00">+ IsReadOnly</text>
<text text-anchor="start" x="528.5" y="-202.5" font-family="Helvetica,sans-Serif" font-size="10.00">+ this[int index]</text>
<text text-anchor="start" x="528.5" y="-191.5" font-family="Helvetica,sans-Serif" font-size="10.00">+ this[int index]</text>
<text text-anchor="start" x="528.5" y="-180.5" font-family="Helvetica,sans-Serif" font-size="10.00">+ this[int index]</text>
<text text-anchor="start" x="528.5" y="-169.5" font-family="Helvetica,sans-Serif" font-size="10.00">+ CollectionChanged</text>
<polyline fill="none" stroke="black" points="520.5,-162.5 699.5,-162.5 "/>
<text text-anchor="start" x="528.5" y="-150.5" font-family="Helvetica,sans-Serif" font-size="10.00">+ Remove()</text>
<text text-anchor="start" x="528.5" y="-139.5" font-family="Helvetica,sans-Serif" font-size="10.00">+ CopyTo()</text>
<text text-anchor="start" x="528.5" y="-128.5" font-family="Helvetica,sans-Serif" font-size="10.00">+ GetEnumerator()</text>
<text text-anchor="start" x="528.5" y="-117.5" font-family="Helvetica,sans-Serif" font-size="10.00">+ Add()</text>
<text text-anchor="start" x="528.5" y="-106.5" font-family="Helvetica,sans-Serif" font-size="10.00">+ Clear()</text>
<text text-anchor="start" x="528.5" y="-95.5" font-family="Helvetica,sans-Serif" font-size="10.00">+ Contains()</text>
<text text-anchor="start" x="528.5" y="-84.5" font-family="Helvetica,sans-Serif" font-size="10.00">+ IndexOf()</text>
<text text-anchor="start" x="528.5" y="-73.5" font-family="Helvetica,sans-Serif" font-size="10.00">+ Insert()</text>
<text text-anchor="start" x="528.5" y="-62.5" font-family="Helvetica,sans-Serif" font-size="10.00">+ Remove()</text>
<text text-anchor="start" x="528.5" y="-51.5" font-family="Helvetica,sans-Serif" font-size="10.00">+ RemoveAt()</text>
<text text-anchor="start" x="528.5" y="-40.5" font-family="Helvetica,sans-Serif" font-size="10.00">and 16 more...</text>
<text text-anchor="start" x="528.5" y="-29.5" font-family="Helvetica,sans-Serif" font-size="10.00">~ AudioSessionCollection()</text>
<text text-anchor="start" x="528.5" y="-18.5" font-family="Helvetica,sans-Serif" font-size="10.00">~ RefreshFromDevices()</text>
<text text-anchor="start" x="528.5" y="-7.5" font-family="Helvetica,sans-Serif" font-size="10.00">~ RefreshFromDevices()</text>
</a>
</g>
</g>
<!-- Node2 -->
<g id="node2" class="node">
<title>Node2</title>
<g id="a_node2"><a xlink:title=" ">
<polygon fill="none" stroke="#bfbfbf" points="0,-353 0,-410 140,-410 140,-353 0,-353"/>
<text text-anchor="middle" x="70" y="-398" font-family="Helvetica,sans-Serif" font-size="10.00">INotifyCollectionChanged</text>
<polyline fill="none" stroke="#bfbfbf" points="0,-391 140,-391 "/>
<text text-anchor="middle" x="70" y="-379" font-family="Helvetica,sans-Serif" font-size="10.00"> </text>
<polyline fill="none" stroke="#bfbfbf" points="0,-372 140,-372 "/>
<text text-anchor="middle" x="70" y="-360" font-family="Helvetica,sans-Serif" font-size="10.00"> </text>
</a>
</g>
</g>
<!-- Node2&#45;&gt;Node1 -->
<g id="edge1" class="edge">
<title>Node2&#45;&gt;Node1</title>
<path fill="none" stroke="midnightblue" d="M144.71,-348.8C146.15,-348.19 147.58,-347.59 149,-347 277.81,-293.08 427.25,-231.5 520.23,-193.31"/>
<polygon fill="none" stroke="midnightblue" points="142.94,-345.75 135.08,-352.85 145.65,-352.2 142.94,-345.75"/>
</g>
<!-- Node3 -->
<g id="node3" class="node">
<title>Node3</title>
<g id="a_node3"><a xlink:title=" ">
<polygon fill="none" stroke="#bfbfbf" points="158.5,-353 158.5,-410 291.5,-410 291.5,-353 158.5,-353"/>
<text text-anchor="middle" x="225" y="-398" font-family="Helvetica,sans-Serif" font-size="10.00">INotifyPropertyChanged</text>
<polyline fill="none" stroke="#bfbfbf" points="158.5,-391 291.5,-391 "/>
<text text-anchor="middle" x="225" y="-379" font-family="Helvetica,sans-Serif" font-size="10.00"> </text>
<polyline fill="none" stroke="#bfbfbf" points="158.5,-372 291.5,-372 "/>
<text text-anchor="middle" x="225" y="-360" font-family="Helvetica,sans-Serif" font-size="10.00"> </text>
</a>
</g>
</g>
<!-- Node3&#45;&gt;Node1 -->
<g id="edge2" class="edge">
<title>Node3&#45;&gt;Node1</title>
<path fill="none" stroke="midnightblue" d="M281.57,-347.59C344.38,-311.04 446.63,-251.55 520.37,-208.65"/>
<polygon fill="none" stroke="midnightblue" points="279.48,-344.75 272.59,-352.81 283,-350.8 279.48,-344.75"/>
</g>
<!-- Node4 -->
<g id="node4" class="node">
<title>Node4</title>
<g id="a_node4"><a xlink:title=" ">
<polygon fill="none" stroke="#bfbfbf" points="309.5,-353 309.5,-410 346.5,-410 346.5,-353 309.5,-353"/>
<text text-anchor="middle" x="328" y="-398" font-family="Helvetica,sans-Serif" font-size="10.00">IList</text>
<polyline fill="none" stroke="#bfbfbf" points="309.5,-391 346.5,-391 "/>
<text text-anchor="middle" x="328" y="-379" font-family="Helvetica,sans-Serif" font-size="10.00"> </text>
<polyline fill="none" stroke="#bfbfbf" points="309.5,-372 346.5,-372 "/>
<text text-anchor="middle" x="328" y="-360" font-family="Helvetica,sans-Serif" font-size="10.00"> </text>
</a>
</g>
</g>
<!-- Node4&#45;&gt;Node1 -->
<g id="edge3" class="edge">
<title>Node4&#45;&gt;Node1</title>
<path fill="none" stroke="midnightblue" d="M353.61,-349.33C354.41,-348.53 355.2,-347.76 356,-347 406.89,-298.73 469.94,-251.37 520.5,-215.96"/>
<polygon fill="none" stroke="midnightblue" points="350.89,-347.12 346.62,-356.81 356,-351.9 350.89,-347.12"/>
</g>
<!-- Node5 -->
<g id="node5" class="node">
<title>Node5</title>
<g id="a_node5"><a xlink:title=" ">
<polygon fill="none" stroke="#bfbfbf" points="365,-353 365,-410 433,-410 433,-353 365,-353"/>
<text text-anchor="middle" x="399" y="-398" font-family="Helvetica,sans-Serif" font-size="10.00">ICollection</text>
<polyline fill="none" stroke="#bfbfbf" points="365,-391 433,-391 "/>
<text text-anchor="middle" x="399" y="-379" font-family="Helvetica,sans-Serif" font-size="10.00"> </text>
<polyline fill="none" stroke="#bfbfbf" points="365,-372 433,-372 "/>
<text text-anchor="middle" x="399" y="-360" font-family="Helvetica,sans-Serif" font-size="10.00"> </text>
</a>
</g>
</g>
<!-- Node5&#45;&gt;Node1 -->
<g id="edge4" class="edge">
<title>Node5&#45;&gt;Node1</title>
<path fill="none" stroke="midnightblue" d="M432.35,-345.1C456.08,-319.91 489.16,-284.79 520.34,-251.68"/>
<polygon fill="none" stroke="midnightblue" points="429.61,-342.9 425.3,-352.58 434.7,-347.7 429.61,-342.9"/>
</g>
<!-- Node6 -->
<g id="node6" class="node">
<title>Node6</title>
<g id="a_node6"><a xlink:title=" ">
<polygon fill="none" stroke="#bfbfbf" points="451,-353 451,-410 529,-410 529,-353 451,-353"/>
<text text-anchor="middle" x="490" y="-398" font-family="Helvetica,sans-Serif" font-size="10.00">IEnumerable</text>
<polyline fill="none" stroke="#bfbfbf" points="451,-391 529,-391 "/>
<text text-anchor="middle" x="490" y="-379" font-family="Helvetica,sans-Serif" font-size="10.00"> </text>
<polyline fill="none" stroke="#bfbfbf" points="451,-372 529,-372 "/>
<text text-anchor="middle" x="490" y="-360" font-family="Helvetica,sans-Serif" font-size="10.00"> </text>
</a>
</g>
</g>
<!-- Node6&#45;&gt;Node1 -->
<g id="edge5" class="edge">
<title>Node6&#45;&gt;Node1</title>
<path fill="none" stroke="midnightblue" d="M509.73,-343.67C514.97,-333.9 520.96,-322.7 527.36,-310.76"/>
<polygon fill="none" stroke="midnightblue" points="506.59,-342.12 504.96,-352.58 512.76,-345.42 506.59,-342.12"/>
</g>
<!-- Node7 -->
<g id="node7" class="node">
<title>Node7</title>
<g id="a_node7"><a xlink:title=" ">
<polygon fill="none" stroke="#bfbfbf" points="547.5,-353 547.5,-410 672.5,-410 672.5,-353 547.5,-353"/>
<text text-anchor="middle" x="610" y="-398" font-family="Helvetica,sans-Serif" font-size="10.00">IList&lt; AudioSession &gt;</text>
<polyline fill="none" stroke="#bfbfbf" points="547.5,-391 672.5,-391 "/>
<text text-anchor="middle" x="610" y="-379" font-family="Helvetica,sans-Serif" font-size="10.00"> </text>
<polyline fill="none" stroke="#bfbfbf" points="547.5,-372 672.5,-372 "/>
<text text-anchor="middle" x="610" y="-360" font-family="Helvetica,sans-Serif" font-size="10.00"> </text>
</a>
</g>
</g>
<!-- Node7&#45;&gt;Node1 -->
<g id="edge6" class="edge">
<title>Node7&#45;&gt;Node1</title>
<path fill="none" stroke="midnightblue" d="M610,-342.45C610,-332.97 610,-322.21 610,-310.76"/>
<polygon fill="none" stroke="midnightblue" points="606.5,-342.58 610,-352.58 613.5,-342.58 606.5,-342.58"/>
</g>
<!-- Node8 -->
<g id="node8" class="node">
<title>Node8</title>
<g id="a_node8"><a xlink:title=" ">
<polygon fill="none" stroke="#bfbfbf" points="691,-353 691,-410 869,-410 869,-353 691,-353"/>
<text text-anchor="middle" x="780" y="-398" font-family="Helvetica,sans-Serif" font-size="10.00">IImmutableList&lt; AudioSession &gt;</text>
<polyline fill="none" stroke="#bfbfbf" points="691,-391 869,-391 "/>
<text text-anchor="middle" x="780" y="-379" font-family="Helvetica,sans-Serif" font-size="10.00"> </text>
<polyline fill="none" stroke="#bfbfbf" points="691,-372 869,-372 "/>
<text text-anchor="middle" x="780" y="-360" font-family="Helvetica,sans-Serif" font-size="10.00"> </text>
</a>
</g>
</g>
<!-- Node8&#45;&gt;Node1 -->
<g id="edge7" class="edge">
<title>Node8&#45;&gt;Node1</title>
<path fill="none" stroke="midnightblue" d="M752.6,-344.4C737.94,-325.08 718.96,-300.07 699.65,-274.63"/>
<polygon fill="none" stroke="midnightblue" points="749.98,-346.73 758.81,-352.58 755.56,-342.5 749.98,-346.73"/>
</g>
<!-- Node9 -->
<g id="node9" class="node">
<title>Node9</title>
<g id="a_node9"><a xlink:title=" ">
<polygon fill="none" stroke="#bfbfbf" points="887,-353 887,-410 1043,-410 1043,-353 887,-353"/>
<text text-anchor="middle" x="965" y="-398" font-family="Helvetica,sans-Serif" font-size="10.00">ICollection&lt; AudioSession &gt;</text>
<polyline fill="none" stroke="#bfbfbf" points="887,-391 1043,-391 "/>
<text text-anchor="middle" x="965" y="-379" font-family="Helvetica,sans-Serif" font-size="10.00"> </text>
<polyline fill="none" stroke="#bfbfbf" points="887,-372 1043,-372 "/>
<text text-anchor="middle" x="965" y="-360" font-family="Helvetica,sans-Serif" font-size="10.00"> </text>
</a>
</g>
</g>
<!-- Node9&#45;&gt;Node1 -->
<g id="edge8" class="edge">
<title>Node9&#45;&gt;Node1</title>
<path fill="none" stroke="midnightblue" d="M912.43,-347.33C856.46,-312.01 766.88,-255.49 699.72,-213.11"/>
<polygon fill="none" stroke="midnightblue" points="910.79,-350.43 921.11,-352.81 914.52,-344.51 910.79,-350.43"/>
</g>
<!-- Node10 -->
<g id="node10" class="node">
<title>Node10</title>
<g id="a_node10"><a xlink:title=" ">
<polygon fill="none" stroke="#bfbfbf" points="1061,-353 1061,-410 1227,-410 1227,-353 1061,-353"/>
<text text-anchor="middle" x="1144" y="-398" font-family="Helvetica,sans-Serif" font-size="10.00">IEnumerable&lt; AudioSession &gt;</text>
<polyline fill="none" stroke="#bfbfbf" points="1061,-391 1227,-391 "/>
<text text-anchor="middle" x="1144" y="-379" font-family="Helvetica,sans-Serif" font-size="10.00"> </text>
<polyline fill="none" stroke="#bfbfbf" points="1061,-372 1227,-372 "/>
<text text-anchor="middle" x="1144" y="-360" font-family="Helvetica,sans-Serif" font-size="10.00"> </text>
</a>
</g>
</g>
<!-- Node10&#45;&gt;Node1 -->
<g id="edge9" class="edge">
<title>Node10&#45;&gt;Node1</title>
<path fill="none" stroke="midnightblue" d="M1068.8,-348.96C971.75,-308.24 803.08,-237.49 699.52,-194.05"/>
<polygon fill="none" stroke="midnightblue" points="1067.68,-352.28 1078.25,-352.92 1070.39,-345.83 1067.68,-352.28"/>
</g>
<!-- Node11 -->
<g id="node11" class="node">
<title>Node11</title>
<g id="a_node11"><a xlink:title=" ">
<polygon fill="none" stroke="#bfbfbf" points="1245,-353 1245,-410 1417,-410 1417,-353 1245,-353"/>
<text text-anchor="middle" x="1331" y="-398" font-family="Helvetica,sans-Serif" font-size="10.00">IReadOnlyList&lt; AudioSession &gt;</text>
<polyline fill="none" stroke="#bfbfbf" points="1245,-391 1417,-391 "/>
<text text-anchor="middle" x="1331" y="-379" font-family="Helvetica,sans-Serif" font-size="10.00"> </text>
<polyline fill="none" stroke="#bfbfbf" points="1245,-372 1417,-372 "/>
<text text-anchor="middle" x="1331" y="-360" font-family="Helvetica,sans-Serif" font-size="10.00"> </text>
</a>
</g>
</g>
<!-- Node11&#45;&gt;Node1 -->
<g id="edge10" class="edge">
<title>Node11&#45;&gt;Node1</title>
<path fill="none" stroke="midnightblue" d="M1244.28,-349.75C1241.49,-348.81 1238.73,-347.89 1236,-347 1046.04,-284.64 821.39,-217.98 699.54,-182.41"/>
<polygon fill="none" stroke="midnightblue" points="1243.25,-353.09 1253.84,-352.98 1245.49,-346.46 1243.25,-353.09"/>
</g>
<!-- Node12 -->
<g id="node12" class="node">
<title>Node12</title>
<g id="a_node12"><a xlink:title=" ">
<polygon fill="none" stroke="#bfbfbf" points="1435,-347.5 1435,-415.5 1551,-415.5 1551,-347.5 1435,-347.5"/>
<text text-anchor="start" x="1443" y="-403.5" font-family="Helvetica,sans-Serif" font-size="10.00">IReadOnlyCollection</text>
<text text-anchor="middle" x="1493" y="-392.5" font-family="Helvetica,sans-Serif" font-size="10.00">&lt; AudioSession &gt;</text>
<polyline fill="none" stroke="#bfbfbf" points="1435,-385.5 1551,-385.5 "/>
<text text-anchor="middle" x="1493" y="-373.5" font-family="Helvetica,sans-Serif" font-size="10.00"> </text>
<polyline fill="none" stroke="#bfbfbf" points="1435,-366.5 1551,-366.5 "/>
<text text-anchor="middle" x="1493" y="-354.5" font-family="Helvetica,sans-Serif" font-size="10.00"> </text>
</a>
</g>
</g>
<!-- Node12&#45;&gt;Node1 -->
<g id="edge11" class="edge">
<title>Node12&#45;&gt;Node1</title>
<path fill="none" stroke="midnightblue" d="M1425.16,-346.94C1162.05,-253.05 849.96,-195.09 699.51,-170.32"/>
<polygon fill="none" stroke="midnightblue" points="1424.29,-350.35 1434.89,-350.44 1426.66,-343.76 1424.29,-350.35"/>
</g>
</g>
</svg>
