<?xml version="1.0" encoding="UTF-8" standalone="no"?>
<!DOCTYPE svg PUBLIC "-//W3C//DTD SVG 1.1//EN"
 "http://www.w3.org/Graphics/SVG/1.1/DTD/svg11.dtd">
<!-- Generated by graphviz version 2.43.0 (0)
 -->
<!-- Title: VolumeControl.Core.Input.HotkeyManager.SetHotkeysFromJsonHotkeys&lt; THotkey &gt; Pages: 1 -->
<!--zoomable 100 -->
<svg id="main" version="1.1" xmlns="http://www.w3.org/2000/svg" xmlns:xlink="http://www.w3.org/1999/xlink" xml:space="preserve" onload="init(evt)">
<style type="text/css"><![CDATA[
.edge:hover path { stroke: red; }
.edge:hover polygon { stroke: red; fill: red; }
]]></style>
<script type="text/javascript"><![CDATA[
var edges = document.getElementsByTagName('g');
if (edges && edges.length) {
  for (var i=0;i<edges.length;i++) {
    if (edges[i].id.substr(0,4)=='edge') {
      edges[i].setAttribute('class','edge');
    }
  }
}
]]></script>
        <defs>
                <circle id="rim" cx="0" cy="0" r="7"/>
                <circle id="rim2" cx="0" cy="0" r="3.5"/>
                <g id="zoomPlus">
                        <use xlink:href="#rim" fill="#404040">
                                <set attributeName="fill" to="#808080" begin="zoomplus.mouseover" end="zoomplus.mouseout"/>
                        </use>
                        <path d="M-4,0h8M0,-4v8" fill="none" stroke="white" stroke-width="1.5" pointer-events="none"/>
                </g>
                <g id="zoomMin">
                        <use xlink:href="#rim" fill="#404040">
                                <set attributeName="fill" to="#808080" begin="zoomminus.mouseover" end="zoomminus.mouseout"/>
                        </use>
                        <path d="M-4,0h8" fill="none" stroke="white" stroke-width="1.5" pointer-events="none"/>
                </g>
                <g id="dirArrow">
                        <path fill="none" stroke="white" stroke-width="1.5" d="M0,-3.0v7 M-2.5,-0.5L0,-3.0L2.5,-0.5"/>
                </g>
               <g id="resetDef">
                       <use xlink:href="#rim2" fill="#404040">
                               <set attributeName="fill" to="#808080" begin="reset.mouseover" end="reset.mouseout"/>
                       </use>
               </g>
        </defs>

<script type="text/javascript">
var viewWidth = 1401;
var viewHeight = 100;
var sectionId = 'dynsection-8';
</script>
<script xlink:href="svgpan.js"/>
<svg id="graph" class="graph">
<g id="viewport">
<title>VolumeControl.Core.Input.HotkeyManager.SetHotkeysFromJsonHotkeys&lt; THotkey &gt;</title>
<!-- Node1 -->
<g id="node1" class="node">
<title>Node1</title>
<g id="a_node1"><a xlink:title="Sets the list of managed hotkeys from the specified hotkeyJsonObjects .">
<polygon fill="#bfbfbf" stroke="black" points="0,-22 0,-63 197,-63 197,-22 0,-22"/>
<text text-anchor="start" x="8" y="-51" font-family="Helvetica,sans-Serif" font-size="10.00">VolumeControl.Core.Input.</text>
<text text-anchor="start" x="8" y="-40" font-family="Helvetica,sans-Serif" font-size="10.00">HotkeyManager.SetHotkeysFromJson</text>
<text text-anchor="middle" x="98.5" y="-29" font-family="Helvetica,sans-Serif" font-size="10.00">Hotkeys&lt; THotkey &gt;</text>
</a>
</g>
</g>
<!-- Node2 -->
<g id="node2" class="node">
<title>Node2</title>
<g id="a_node2"><a xlink:href="class_volume_control_1_1_core_1_1_input_1_1_hotkey_manager.html#aaa4e6d47e4cc375b65398bc0231efcac" target="_top" xlink:title="Creates and adds a Hotkey for each element of the specified hotkeyJsonObjects .">
<polygon fill="none" stroke="black" points="233,-50 233,-91 408,-91 408,-50 233,-50"/>
<text text-anchor="start" x="241" y="-79" font-family="Helvetica,sans-Serif" font-size="10.00">VolumeControl.Core.Input.</text>
<text text-anchor="start" x="241" y="-68" font-family="Helvetica,sans-Serif" font-size="10.00">HotkeyManager.AddJsonHotkeys</text>
<text text-anchor="middle" x="320.5" y="-57" font-family="Helvetica,sans-Serif" font-size="10.00">&lt; THotkey &gt;</text>
</a>
</g>
</g>
<!-- Node1&#45;&gt;Node2 -->
<g id="edge1" class="edge">
<title>Node1&#45;&gt;Node2</title>
<path fill="none" stroke="midnightblue" d="M197.28,-54.94C205.68,-56.01 214.18,-57.1 222.58,-58.16"/>
<polygon fill="midnightblue" stroke="midnightblue" points="222.39,-61.67 232.75,-59.46 223.28,-54.72 222.39,-61.67"/>
</g>
<!-- Node4 -->
<g id="node4" class="node">
<title>Node4</title>
<g id="a_node4"><a xlink:href="class_volume_control_1_1_core_1_1_input_1_1_hotkey_manager.html#a8c873d37958d80a9ebbbe1887bd0c2d0" target="_top" xlink:title="Removes all hotkeys from the manager.">
<polygon fill="none" stroke="black" points="240,-0.5 240,-30.5 401,-30.5 401,-0.5 240,-0.5"/>
<text text-anchor="start" x="248" y="-18.5" font-family="Helvetica,sans-Serif" font-size="10.00">VolumeControl.Core.Input.</text>
<text text-anchor="middle" x="320.5" y="-7.5" font-family="Helvetica,sans-Serif" font-size="10.00">HotkeyManager.ClearHotkeys</text>
</a>
</g>
</g>
<!-- Node1&#45;&gt;Node4 -->
<g id="edge3" class="edge">
<title>Node1&#45;&gt;Node4</title>
<path fill="none" stroke="midnightblue" d="M197.28,-30.5C208.06,-29.18 219,-27.83 229.68,-26.52"/>
<polygon fill="midnightblue" stroke="midnightblue" points="230.33,-29.97 239.83,-25.28 229.48,-23.02 230.33,-29.97"/>
</g>
<!-- Node3 -->
<g id="node3" class="node">
<title>Node3</title>
<g id="a_node3"><a xlink:href="class_volume_control_1_1_core_1_1_input_1_1_hotkey_manager.html#a8341c348e8787a903fde69522d3ce107" target="_top" xlink:title="Adds the specified hotkey &#160;to the manager.">
<polygon fill="none" stroke="black" points="455,-55.5 455,-85.5 604,-85.5 604,-55.5 455,-55.5"/>
<text text-anchor="start" x="463" y="-73.5" font-family="Helvetica,sans-Serif" font-size="10.00">VolumeControl.Core.Input.</text>
<text text-anchor="middle" x="529.5" y="-62.5" font-family="Helvetica,sans-Serif" font-size="10.00">HotkeyManager.AddHotkey</text>
</a>
</g>
</g>
<!-- Node2&#45;&gt;Node3 -->
<g id="edge2" class="edge">
<title>Node2&#45;&gt;Node3</title>
<path fill="none" stroke="midnightblue" d="M408.09,-70.5C420.2,-70.5 432.64,-70.5 444.7,-70.5"/>
<polygon fill="midnightblue" stroke="midnightblue" points="444.74,-74 454.74,-70.5 444.74,-67 444.74,-74"/>
</g>
<!-- Node5 -->
<g id="node5" class="node">
<title>Node5</title>
<g id="a_node5"><a xlink:href="class_volume_control_1_1_core_1_1_input_1_1_hotkey_manager.html#a8c582a292d4a72ef3caada32eff31cfe" target="_top" xlink:title="Removes the specified hotkey &#160;from the manager.">
<polygon fill="none" stroke="black" points="444,-0.5 444,-30.5 615,-30.5 615,-0.5 444,-0.5"/>
<text text-anchor="start" x="452" y="-18.5" font-family="Helvetica,sans-Serif" font-size="10.00">VolumeControl.Core.Input.</text>
<text text-anchor="middle" x="529.5" y="-7.5" font-family="Helvetica,sans-Serif" font-size="10.00">HotkeyManager.RemoveHotkey</text>
</a>
</g>
</g>
<!-- Node4&#45;&gt;Node5 -->
<g id="edge4" class="edge">
<title>Node4&#45;&gt;Node5</title>
<path fill="none" stroke="midnightblue" d="M401.24,-15.5C411.77,-15.5 422.64,-15.5 433.4,-15.5"/>
<polygon fill="midnightblue" stroke="midnightblue" points="433.66,-19 443.66,-15.5 433.66,-12 433.66,-19"/>
</g>
<!-- Node6 -->
<g id="node6" class="node">
<title>Node6</title>
<g id="a_node6"><a xlink:href="class_volume_control_1_1_core_1_1_input_1_1_hotkey.html#a32d7855fa82b1806411aa54d64e4c099" target="_top" xlink:title=" ">
<polygon fill="none" stroke="black" points="651,-0.5 651,-30.5 796,-30.5 796,-0.5 651,-0.5"/>
<text text-anchor="start" x="659" y="-18.5" font-family="Helvetica,sans-Serif" font-size="10.00">VolumeControl.Core.Input.</text>
<text text-anchor="middle" x="723.5" y="-7.5" font-family="Helvetica,sans-Serif" font-size="10.00">Hotkey.Dispose</text>
</a>
</g>
</g>
<!-- Node5&#45;&gt;Node6 -->
<g id="edge5" class="edge">
<title>Node5&#45;&gt;Node6</title>
<path fill="none" stroke="midnightblue" d="M615.27,-15.5C623.7,-15.5 632.24,-15.5 640.64,-15.5"/>
<polygon fill="midnightblue" stroke="midnightblue" points="640.79,-19 650.79,-15.5 640.79,-12 640.79,-19"/>
</g>
<!-- Node7 -->
<g id="node7" class="node">
<title>Node7</title>
<g id="a_node7"><a xlink:href="class_volume_control_1_1_core_1_1_input_1_1_hotkey.html#a9cdb123b8b415f401289241b2bfa6d6c" target="_top" xlink:title="Unregisters the hotkey with the Win32 API.">
<polygon fill="none" stroke="black" points="832,-0.5 832,-30.5 977,-30.5 977,-0.5 832,-0.5"/>
<text text-anchor="start" x="840" y="-18.5" font-family="Helvetica,sans-Serif" font-size="10.00">VolumeControl.Core.Input.</text>
<text text-anchor="middle" x="904.5" y="-7.5" font-family="Helvetica,sans-Serif" font-size="10.00">Hotkey.Unregister</text>
</a>
</g>
</g>
<!-- Node6&#45;&gt;Node7 -->
<g id="edge6" class="edge">
<title>Node6&#45;&gt;Node7</title>
<path fill="none" stroke="midnightblue" d="M796.02,-15.5C804.49,-15.5 813.18,-15.5 821.78,-15.5"/>
<polygon fill="midnightblue" stroke="midnightblue" points="821.8,-19 831.8,-15.5 821.8,-12 821.8,-19"/>
</g>
<!-- Node8 -->
<g id="node8" class="node">
<title>Node8</title>
<g id="a_node8"><a xlink:href="class_volume_control_1_1_core_1_1_input_1_1_windows_hotkey_a_p_i.html#ac001f386c8766c5af77db645f9aea101" target="_top" xlink:title="Attempts to unregister the specified hotkey .">
<polygon fill="none" stroke="black" points="1013,-0.5 1013,-30.5 1192,-30.5 1192,-0.5 1013,-0.5"/>
<text text-anchor="start" x="1021" y="-18.5" font-family="Helvetica,sans-Serif" font-size="10.00">VolumeControl.Core.Input.</text>
<text text-anchor="middle" x="1102.5" y="-7.5" font-family="Helvetica,sans-Serif" font-size="10.00">WindowsHotkeyAPI.TryUnregister</text>
</a>
</g>
</g>
<!-- Node7&#45;&gt;Node8 -->
<g id="edge7" class="edge">
<title>Node7&#45;&gt;Node8</title>
<path fill="none" stroke="midnightblue" d="M977.09,-15.5C985.42,-15.5 994.03,-15.5 1002.65,-15.5"/>
<polygon fill="midnightblue" stroke="midnightblue" points="1002.75,-19 1012.75,-15.5 1002.75,-12 1002.75,-19"/>
</g>
<!-- Node9 -->
<g id="node9" class="node">
<title>Node9</title>
<g id="a_node9"><a xlink:href="class_volume_control_1_1_core_1_1_input_1_1_windows_hotkey_a_p_i.html#a07ed6bb5aaebdc268b01ac666511d1e6" target="_top" xlink:title="Unregisters the specified hotkey .">
<polygon fill="none" stroke="black" points="1228,-0.5 1228,-30.5 1393,-30.5 1393,-0.5 1228,-0.5"/>
<text text-anchor="start" x="1236" y="-18.5" font-family="Helvetica,sans-Serif" font-size="10.00">VolumeControl.Core.Input.</text>
<text text-anchor="middle" x="1310.5" y="-7.5" font-family="Helvetica,sans-Serif" font-size="10.00">WindowsHotkeyAPI.Unregister</text>
</a>
</g>
</g>
<!-- Node8&#45;&gt;Node9 -->
<g id="edge8" class="edge">
<title>Node8&#45;&gt;Node9</title>
<path fill="none" stroke="midnightblue" d="M1192.06,-15.5C1200.51,-15.5 1209.09,-15.5 1217.57,-15.5"/>
<polygon fill="midnightblue" stroke="midnightblue" points="1217.85,-19 1227.85,-15.5 1217.85,-12 1217.85,-19"/>
</g>
</g>
</svg>
        <g id="navigator" transform="translate(0 0)" fill="#404254">
                <rect fill="#f2f5e9" fill-opacity="0.5" stroke="#606060" stroke-width=".5" x="0" y="0" width="60" height="60"/>
                <use id="zoomplus" xlink:href="#zoomPlus" x="17" y="9" onmousedown="handleZoom(evt,'in')"/>
                <use id="zoomminus" xlink:href="#zoomMin" x="42" y="9" onmousedown="handleZoom(evt,'out')"/>
                <use id="reset" xlink:href="#resetDef" x="30" y="36" onmousedown="handleReset()"/>
                <g id="arrowUp" xlink:href="#dirArrow" transform="translate(30 24)" onmousedown="handlePan(0,-1)">
                  <use xlink:href="#rim" fill="#404040">
                        <set attributeName="fill" to="#808080" begin="arrowUp.mouseover" end="arrowUp.mouseout"/>
                  </use>
                  <path fill="none" stroke="white" stroke-width="1.5" d="M0,-3.0v7 M-2.5,-0.5L0,-3.0L2.5,-0.5"/>
                </g>
                <g id="arrowRight" xlink:href="#dirArrow" transform="rotate(90) translate(36 -43)" onmousedown="handlePan(1,0)">
                  <use xlink:href="#rim" fill="#404040">
                        <set attributeName="fill" to="#808080" begin="arrowRight.mouseover" end="arrowRight.mouseout"/>
                  </use>
                  <path fill="none" stroke="white" stroke-width="1.5" d="M0,-3.0v7 M-2.5,-0.5L0,-3.0L2.5,-0.5"/>
                </g>
                <g id="arrowDown" xlink:href="#dirArrow" transform="rotate(180) translate(-30 -48)" onmousedown="handlePan(0,1)">
                  <use xlink:href="#rim" fill="#404040">
                        <set attributeName="fill" to="#808080" begin="arrowDown.mouseover" end="arrowDown.mouseout"/>
                  </use>
                  <path fill="none" stroke="white" stroke-width="1.5" d="M0,-3.0v7 M-2.5,-0.5L0,-3.0L2.5,-0.5"/>
                </g>
                <g id="arrowLeft" xlink:href="#dirArrow" transform="rotate(270) translate(-36 17)" onmousedown="handlePan(-1,0)">
                  <use xlink:href="#rim" fill="#404040">
                        <set attributeName="fill" to="#808080" begin="arrowLeft.mouseover" end="arrowLeft.mouseout"/>
                  </use>
                  <path fill="none" stroke="white" stroke-width="1.5" d="M0,-3.0v7 M-2.5,-0.5L0,-3.0L2.5,-0.5"/>
                </g>
        </g>
        <svg viewBox="0 0 15 15" width="100%" height="30px" preserveAspectRatio="xMaxYMin meet">
         <g id="arrow_out" transform="scale(0.3 0.3)">
          <a xlink:href="class_volume_control_1_1_core_1_1_input_1_1_hotkey_manager_afe1c1e67278a9ec7562b37b514bc0998_cgraph_org.svg" target="_base">
           <rect id="button" ry="5" rx="5" y="6" x="6" height="38" width="38"
                fill="#f2f5e9" fill-opacity="0.5" stroke="#606060" stroke-width="1.0"/>
           <path id="arrow"
             d="M 11.500037,31.436501 C 11.940474,20.09759 22.043105,11.32322 32.158766,21.979434 L 37.068811,17.246167 C 37.068811,17.246167 37.088388,32 37.088388,32 L 22.160133,31.978069 C 22.160133,31.978069 26.997745,27.140456 26.997745,27.140456 C 18.528582,18.264221 13.291696,25.230495 11.500037,31.436501 z"
             style="fill:#404040;"/>
          </a>
         </g>
        </svg>
</svg>
