<?xml version="1.0" encoding="UTF-8" standalone="no"?>
<!DOCTYPE svg PUBLIC "-//W3C//DTD SVG 1.1//EN"
 "http://www.w3.org/Graphics/SVG/1.1/DTD/svg11.dtd">
<!-- Generated by graphviz version 2.44.1 (20200629.0800)
 -->
<!-- Title: Graphical Class Hierarchy Pages: 1 -->
<svg width="294pt" height="186pt"
 viewBox="0.00 0.00 294.00 186.00" xmlns="http://www.w3.org/2000/svg" xmlns:xlink="http://www.w3.org/1999/xlink">
<g id="graph0" class="graph" transform="scale(1 1) rotate(0) translate(4 182)">
<title>Graphical Class Hierarchy</title>
<!-- Node66 -->
<g id="node1" class="node">
<title>Node66</title>
<g id="a_node1"><a xlink:title=" ">
<polygon fill="none" stroke="#bfbfbf" points="4,-80 4,-99 88,-99 88,-80 4,-80"/>
<text text-anchor="middle" x="46" y="-87" font-family="Helvetica,sans-Serif" font-size="10.00">IValueConverter</text>
</a>
</g>
</g>
<!-- Node0 -->
<g id="node2" class="node">
<title>Node0</title>
<g id="a_node2"><a xlink:href="class_volume_control_1_1_w_p_f_1_1_converters_1_1_bool_to_value_converter.html" target="_top" xlink:title="Use as the base class for BoolToXXX style converters">
<polygon fill="none" stroke="black" points="128,-147.5 128,-177.5 286,-177.5 286,-147.5 128,-147.5"/>
<text text-anchor="start" x="136" y="-165.5" font-family="Helvetica,sans-Serif" font-size="10.00">VolumeControl.WPF.Converters.</text>
<text text-anchor="middle" x="207" y="-154.5" font-family="Helvetica,sans-Serif" font-size="10.00">BoolToValueConverter&lt; T &gt;</text>
</a>
</g>
</g>
<!-- Node66&#45;&gt;Node0 -->
<g id="edge1" class="edge">
<title>Node66&#45;&gt;Node0</title>
<path fill="none" stroke="midnightblue" d="M69.02,-104.86C84.87,-115.4 107.06,-129.12 128,-138.5 135.24,-141.74 143.05,-144.72 150.82,-147.38"/>
<polygon fill="midnightblue" stroke="midnightblue" points="70.72,-101.78 60.48,-99.08 66.8,-107.58 70.72,-101.78"/>
</g>
<!-- Node68 -->
<g id="node3" class="node">
<title>Node68</title>
<g id="a_node3"><a xlink:href="class_volume_control_1_1_w_p_f_1_1_converters_1_1_boolean_inverter.html" target="_top" xlink:title="Binding converter for boolean types that negates the expression.">
<polygon fill="none" stroke="black" points="128,-98.5 128,-128.5 286,-128.5 286,-98.5 128,-98.5"/>
<text text-anchor="start" x="136" y="-116.5" font-family="Helvetica,sans-Serif" font-size="10.00">VolumeControl.WPF.Converters.</text>
<text text-anchor="middle" x="207" y="-105.5" font-family="Helvetica,sans-Serif" font-size="10.00">BooleanInverter</text>
</a>
</g>
</g>
<!-- Node66&#45;&gt;Node68 -->
<g id="edge2" class="edge">
<title>Node66&#45;&gt;Node68</title>
<path fill="none" stroke="midnightblue" d="M98.34,-97.25C107.78,-98.67 117.83,-100.19 127.86,-101.7"/>
<polygon fill="midnightblue" stroke="midnightblue" points="98.77,-93.77 88.36,-95.74 97.73,-100.7 98.77,-93.77"/>
</g>
<!-- Node69 -->
<g id="node4" class="node">
<title>Node69</title>
<g id="a_node4"><a xlink:href="class_volume_control_1_1_w_p_f_1_1_converters_1_1_converter_chain.html" target="_top" xlink:title=" ">
<polygon fill="none" stroke="black" points="128,-0.5 128,-30.5 286,-30.5 286,-0.5 128,-0.5"/>
<text text-anchor="start" x="136" y="-18.5" font-family="Helvetica,sans-Serif" font-size="10.00">VolumeControl.WPF.Converters.</text>
<text text-anchor="middle" x="207" y="-7.5" font-family="Helvetica,sans-Serif" font-size="10.00">ConverterChain</text>
</a>
</g>
</g>
<!-- Node66&#45;&gt;Node69 -->
<g id="edge3" class="edge">
<title>Node66&#45;&gt;Node69</title>
<path fill="none" stroke="midnightblue" d="M69.06,-74.22C84.92,-63.71 107.12,-50 128,-40.5 136.02,-36.85 144.74,-33.5 153.33,-30.52"/>
<polygon fill="midnightblue" stroke="midnightblue" points="66.85,-71.49 60.5,-79.97 70.75,-77.29 66.85,-71.49"/>
</g>
<!-- Node70 -->
<g id="node5" class="node">
<title>Node70</title>
<g id="a_node5"><a xlink:href="class_volume_control_1_1_w_p_f_1_1_converters_1_1_null_to_boolean_converter.html" target="_top" xlink:title="Converts from any object type to bool depending on whether or not that object is null.">
<polygon fill="none" stroke="black" points="128,-49.5 128,-79.5 286,-79.5 286,-49.5 128,-49.5"/>
<text text-anchor="start" x="136" y="-67.5" font-family="Helvetica,sans-Serif" font-size="10.00">VolumeControl.WPF.Converters.</text>
<text text-anchor="middle" x="207" y="-56.5" font-family="Helvetica,sans-Serif" font-size="10.00">NullToBooleanConverter</text>
</a>
</g>
</g>
<!-- Node66&#45;&gt;Node70 -->
<g id="edge4" class="edge">
<title>Node66&#45;&gt;Node70</title>
<path fill="none" stroke="midnightblue" d="M98.34,-81.43C107.78,-79.94 117.83,-78.36 127.86,-76.79"/>
<polygon fill="midnightblue" stroke="midnightblue" points="97.7,-77.99 88.36,-83 98.78,-84.9 97.7,-77.99"/>
</g>
<!-- Node72 -->
<g id="node6" class="node">
<title>Node72</title>
<g id="a_node6"><a xlink:title=" ">
<polygon fill="none" stroke="#bfbfbf" points="30,-6 30,-25 62,-25 62,-6 30,-6"/>
<text text-anchor="middle" x="46" y="-13" font-family="Helvetica,sans-Serif" font-size="10.00">List</text>
</a>
</g>
</g>
<!-- Node72&#45;&gt;Node69 -->
<g id="edge5" class="edge">
<title>Node72&#45;&gt;Node69</title>
<path fill="none" stroke="midnightblue" d="M72.34,-15.5C87.53,-15.5 107.75,-15.5 127.86,-15.5"/>
<polygon fill="midnightblue" stroke="midnightblue" points="72.25,-12 62.25,-15.5 72.25,-19 72.25,-12"/>
</g>
<!-- Node74 -->
<g id="node7" class="node">
<title>Node74</title>
<g id="a_node7"><a xlink:title=" ">
<polygon fill="none" stroke="#bfbfbf" points="0,-153 0,-172 92,-172 92,-153 0,-153"/>
<text text-anchor="middle" x="46" y="-160" font-family="Helvetica,sans-Serif" font-size="10.00">MarkupExtension</text>
</a>
</g>
</g>
<!-- Node74&#45;&gt;Node0 -->
<g id="edge6" class="edge">
<title>Node74&#45;&gt;Node0</title>
<path fill="none" stroke="midnightblue" d="M102.38,-162.5C110.65,-162.5 119.31,-162.5 127.95,-162.5"/>
<polygon fill="midnightblue" stroke="midnightblue" points="102.14,-159 92.14,-162.5 102.14,-166 102.14,-159"/>
</g>
</g>
</svg>
