<?xml version="1.0" encoding="UTF-8" standalone="no"?>
<!DOCTYPE svg PUBLIC "-//W3C//DTD SVG 1.1//EN"
 "http://www.w3.org/Graphics/SVG/1.1/DTD/svg11.dtd">
<!-- Generated by graphviz version 2.43.0 (0)
 -->
<!-- Title: Graphical Class Hierarchy Pages: 1 -->
<svg width="316pt" height="382pt"
 viewBox="0.00 0.00 316.00 382.00" xmlns="http://www.w3.org/2000/svg" xmlns:xlink="http://www.w3.org/1999/xlink">
<g id="graph0" class="graph" transform="scale(1 1) rotate(0) translate(4 378)">
<title>Graphical Class Hierarchy</title>
<!-- Node31 -->
<g id="node1" class="node">
<title>Node31</title>
<g id="a_node1"><a xlink:title=" ">
<polygon fill="none" stroke="#bfbfbf" points="3,-178 3,-197 98,-197 98,-178 3,-178"/>
<text text-anchor="middle" x="50.5" y="-185" font-family="Helvetica,sans-Serif" font-size="10.00">IValueConverter</text>
</a>
</g>
</g>
<!-- Node32 -->
<g id="node2" class="node">
<title>Node32</title>
<g id="a_node2"><a xlink:href="class_volume_control_1_1_w_p_f_1_1_converters_1_1_boolean_inverter.html" target="_top" xlink:title="Binding converter for boolean types that negates the expression.">
<polygon fill="none" stroke="black" points="137,-294.5 137,-324.5 308,-324.5 308,-294.5 137,-294.5"/>
<text text-anchor="start" x="145" y="-312.5" font-family="Helvetica,sans-Serif" font-size="10.00">VolumeControl.WPF.Converters.</text>
<text text-anchor="middle" x="222.5" y="-301.5" font-family="Helvetica,sans-Serif" font-size="10.00">BooleanInverter</text>
</a>
</g>
</g>
<!-- Node31&#45;&gt;Node32 -->
<g id="edge1" class="edge">
<title>Node31&#45;&gt;Node32</title>
<path fill="none" stroke="midnightblue" d="M62.61,-205.71C77.04,-227.83 104.3,-264.76 137,-285.5 142.41,-288.93 148.32,-291.88 154.42,-294.42"/>
<polygon fill="midnightblue" stroke="midnightblue" points="65.54,-203.79 57.23,-197.22 59.63,-207.54 65.54,-203.79"/>
</g>
<!-- Node33 -->
<g id="node3" class="node">
<title>Node33</title>
<g id="a_node3"><a xlink:href="class_volume_control_1_1_w_p_f_1_1_converters_1_1_bool_to_check_visible_converter.html" target="_top" xlink:title="Converts from bool types to thickness types.">
<polygon fill="none" stroke="black" points="137,-245.5 137,-275.5 308,-275.5 308,-245.5 137,-245.5"/>
<text text-anchor="start" x="145" y="-263.5" font-family="Helvetica,sans-Serif" font-size="10.00">VolumeControl.WPF.Converters.</text>
<text text-anchor="middle" x="222.5" y="-252.5" font-family="Helvetica,sans-Serif" font-size="10.00">BoolToCheckVisibleConverter</text>
</a>
</g>
</g>
<!-- Node31&#45;&gt;Node33 -->
<g id="edge2" class="edge">
<title>Node31&#45;&gt;Node33</title>
<path fill="none" stroke="midnightblue" d="M74.33,-202.63C91.12,-213.24 114.78,-227.14 137,-236.5 144.73,-239.76 153.04,-242.72 161.32,-245.37"/>
<polygon fill="midnightblue" stroke="midnightblue" points="76.07,-199.59 65.77,-197.13 72.29,-205.48 76.07,-199.59"/>
</g>
<!-- Node34 -->
<g id="node4" class="node">
<title>Node34</title>
<g id="a_node4"><a xlink:href="class_volume_control_1_1_w_p_f_1_1_converters_1_1_bool_to_thickness_converter.html" target="_top" xlink:title="Converts from bool types to thickness types.">
<polygon fill="none" stroke="black" points="137,-196.5 137,-226.5 308,-226.5 308,-196.5 137,-196.5"/>
<text text-anchor="start" x="145" y="-214.5" font-family="Helvetica,sans-Serif" font-size="10.00">VolumeControl.WPF.Converters.</text>
<text text-anchor="middle" x="222.5" y="-203.5" font-family="Helvetica,sans-Serif" font-size="10.00">BoolToThicknessConverter</text>
</a>
</g>
</g>
<!-- Node31&#45;&gt;Node34 -->
<g id="edge3" class="edge">
<title>Node31&#45;&gt;Node34</title>
<path fill="none" stroke="midnightblue" d="M108.5,-195.55C117.65,-196.84 127.28,-198.2 136.91,-199.56"/>
<polygon fill="midnightblue" stroke="midnightblue" points="108.79,-192.05 98.4,-194.12 107.82,-198.99 108.79,-192.05"/>
</g>
<!-- Node0 -->
<g id="node5" class="node">
<title>Node0</title>
<g id="a_node5"><a xlink:href="class_volume_control_1_1_w_p_f_1_1_converters_1_1_bool_to_value_converter.html" target="_top" xlink:title="Use as the base class for BoolToXXX style converters">
<polygon fill="none" stroke="black" points="137,-343.5 137,-373.5 308,-373.5 308,-343.5 137,-343.5"/>
<text text-anchor="start" x="145" y="-361.5" font-family="Helvetica,sans-Serif" font-size="10.00">VolumeControl.WPF.Converters.</text>
<text text-anchor="middle" x="222.5" y="-350.5" font-family="Helvetica,sans-Serif" font-size="10.00">BoolToValueConverter&lt; T &gt;</text>
</a>
</g>
</g>
<!-- Node31&#45;&gt;Node0 -->
<g id="edge4" class="edge">
<title>Node31&#45;&gt;Node0</title>
<path fill="none" stroke="midnightblue" d="M57.44,-206.87C68.13,-238.44 93.62,-300.8 137,-334.5 141.46,-337.96 146.39,-340.92 151.57,-343.46"/>
<polygon fill="midnightblue" stroke="midnightblue" points="60.69,-205.53 54.28,-197.09 54.03,-207.68 60.69,-205.53"/>
</g>
<!-- Node30 -->
<g id="node6" class="node">
<title>Node30</title>
<g id="a_node6"><a xlink:href="class_volume_control_1_1_w_p_f_1_1_converters_1_1_converter_chain.html" target="_top" xlink:title="Any number of IValueConverter objects that are used in assembly&#45;line fashion on a given value.">
<polygon fill="none" stroke="black" points="137,-0.5 137,-30.5 308,-30.5 308,-0.5 137,-0.5"/>
<text text-anchor="start" x="145" y="-18.5" font-family="Helvetica,sans-Serif" font-size="10.00">VolumeControl.WPF.Converters.</text>
<text text-anchor="middle" x="222.5" y="-7.5" font-family="Helvetica,sans-Serif" font-size="10.00">ConverterChain</text>
</a>
</g>
</g>
<!-- Node31&#45;&gt;Node30 -->
<g id="edge5" class="edge">
<title>Node31&#45;&gt;Node30</title>
<path fill="none" stroke="midnightblue" d="M57.48,-168.18C68.23,-136.69 93.8,-74.43 137,-40.5 141.93,-36.63 147.45,-33.35 153.25,-30.58"/>
<polygon fill="midnightblue" stroke="midnightblue" points="54.08,-167.34 54.3,-177.93 60.73,-169.52 54.08,-167.34"/>
</g>
<!-- Node35 -->
<g id="node7" class="node">
<title>Node35</title>
<g id="a_node7"><a xlink:href="class_volume_control_1_1_w_p_f_1_1_converters_1_1_null_to_boolean_converter.html" target="_top" xlink:title="Converts from any object type to bool depending on whether or not that object is null.">
<polygon fill="none" stroke="black" points="137,-147.5 137,-177.5 308,-177.5 308,-147.5 137,-147.5"/>
<text text-anchor="start" x="145" y="-165.5" font-family="Helvetica,sans-Serif" font-size="10.00">VolumeControl.WPF.Converters.</text>
<text text-anchor="middle" x="222.5" y="-154.5" font-family="Helvetica,sans-Serif" font-size="10.00">NullToBooleanConverter</text>
</a>
</g>
</g>
<!-- Node31&#45;&gt;Node35 -->
<g id="edge6" class="edge">
<title>Node31&#45;&gt;Node35</title>
<path fill="none" stroke="midnightblue" d="M108.5,-179.12C117.65,-177.77 127.28,-176.36 136.91,-174.94"/>
<polygon fill="midnightblue" stroke="midnightblue" points="107.79,-175.68 98.4,-180.6 108.81,-182.61 107.79,-175.68"/>
</g>
<!-- Node36 -->
<g id="node8" class="node">
<title>Node36</title>
<g id="a_node8"><a xlink:href="class_volume_control_1_1_w_p_f_1_1_converters_1_1_squared_corner_radius_converter.html" target="_top" xlink:title="This converter removes specific rounded corners depending on the Squared property....">
<polygon fill="none" stroke="black" points="137,-98.5 137,-128.5 308,-128.5 308,-98.5 137,-98.5"/>
<text text-anchor="start" x="145" y="-116.5" font-family="Helvetica,sans-Serif" font-size="10.00">VolumeControl.WPF.Converters.</text>
<text text-anchor="middle" x="222.5" y="-105.5" font-family="Helvetica,sans-Serif" font-size="10.00">SquaredCornerRadiusConverter</text>
</a>
</g>
</g>
<!-- Node31&#45;&gt;Node36 -->
<g id="edge7" class="edge">
<title>Node31&#45;&gt;Node36</title>
<path fill="none" stroke="midnightblue" d="M74.37,-172.44C91.17,-161.87 114.83,-147.98 137,-138.5 145.58,-134.83 154.87,-131.49 164.04,-128.53"/>
<polygon fill="midnightblue" stroke="midnightblue" points="72.33,-169.59 65.79,-177.92 76.1,-175.48 72.33,-169.59"/>
</g>
<!-- Node37 -->
<g id="node9" class="node">
<title>Node37</title>
<g id="a_node9"><a xlink:href="class_volume_control_1_1_w_p_f_1_1_converters_1_1_tag_double_converter.html" target="_top" xlink:title=" ">
<polygon fill="none" stroke="black" points="137,-49.5 137,-79.5 308,-79.5 308,-49.5 137,-49.5"/>
<text text-anchor="start" x="145" y="-67.5" font-family="Helvetica,sans-Serif" font-size="10.00">VolumeControl.WPF.Converters.</text>
<text text-anchor="middle" x="222.5" y="-56.5" font-family="Helvetica,sans-Serif" font-size="10.00">TagDoubleConverter</text>
</a>
</g>
</g>
<!-- Node31&#45;&gt;Node37 -->
<g id="edge8" class="edge">
<title>Node31&#45;&gt;Node37</title>
<path fill="none" stroke="midnightblue" d="M62.64,-169.35C77.11,-147.29 104.41,-110.41 137,-89.5 143.05,-85.62 149.73,-82.32 156.6,-79.52"/>
<polygon fill="midnightblue" stroke="midnightblue" points="59.68,-167.5 57.25,-177.81 65.58,-171.26 59.68,-167.5"/>
</g>
<!-- Node29 -->
<g id="node10" class="node">
<title>Node29</title>
<g id="a_node10"><a xlink:title=" ">
<polygon fill="none" stroke="#bfbfbf" points="33.5,-6 33.5,-25 67.5,-25 67.5,-6 33.5,-6"/>
<text text-anchor="middle" x="50.5" y="-13" font-family="Helvetica,sans-Serif" font-size="10.00">List</text>
</a>
</g>
</g>
<!-- Node29&#45;&gt;Node30 -->
<g id="edge9" class="edge">
<title>Node29&#45;&gt;Node30</title>
<path fill="none" stroke="midnightblue" d="M77.96,-15.5C93.97,-15.5 115.36,-15.5 136.74,-15.5"/>
<polygon fill="midnightblue" stroke="midnightblue" points="77.8,-12 67.8,-15.5 77.8,-19 77.8,-12"/>
</g>
<!-- Node26 -->
<g id="node11" class="node">
<title>Node26</title>
<g id="a_node11"><a xlink:title=" ">
<polygon fill="none" stroke="#bfbfbf" points="0,-349 0,-368 101,-368 101,-349 0,-349"/>
<text text-anchor="middle" x="50.5" y="-356" font-family="Helvetica,sans-Serif" font-size="10.00">MarkupExtension</text>
</a>
</g>
</g>
<!-- Node26&#45;&gt;Node0 -->
<g id="edge10" class="edge">
<title>Node26&#45;&gt;Node0</title>
<path fill="none" stroke="midnightblue" d="M111.13,-358.5C119.5,-358.5 128.22,-358.5 136.95,-358.5"/>
<polygon fill="midnightblue" stroke="midnightblue" points="111.13,-355 101.13,-358.5 111.13,-362 111.13,-355"/>
</g>
</g>
</svg>
