<?xml version="1.0" encoding="UTF-8" standalone="no"?>
<!DOCTYPE svg PUBLIC "-//W3C//DTD SVG 1.1//EN"
 "http://www.w3.org/Graphics/SVG/1.1/DTD/svg11.dtd">
<!-- Generated by graphviz version 2.43.0 (0)
 -->
<!-- Title: Graphical Class Hierarchy Pages: 1 -->
<svg width="310pt" height="333pt"
 viewBox="0.00 0.00 310.00 333.00" xmlns="http://www.w3.org/2000/svg" xmlns:xlink="http://www.w3.org/1999/xlink">
<g id="graph0" class="graph" transform="scale(1 1) rotate(0) translate(4 329)">
<title>Graphical Class Hierarchy</title>
<!-- Node28 -->
<g id="node1" class="node">
<title>Node28</title>
<g id="a_node1"><a xlink:title=" ">
<polygon fill="none" stroke="#bfbfbf" points="0,-153 0,-172 95,-172 95,-153 0,-153"/>
<text text-anchor="middle" x="47.5" y="-160" font-family="Helvetica,sans-Serif" font-size="10.00">IValueConverter</text>
</a>
</g>
</g>
<!-- Node29 -->
<g id="node2" class="node">
<title>Node29</title>
<g id="a_node2"><a xlink:href="class_volume_control_1_1_w_p_f_1_1_converters_1_1_boolean_inverter.html" target="_top" xlink:title="Binding converter for boolean types that negates the expression.">
<polygon fill="none" stroke="black" points="131,-294.5 131,-324.5 302,-324.5 302,-294.5 131,-294.5"/>
<text text-anchor="start" x="139" y="-312.5" font-family="Helvetica,sans-Serif" font-size="10.00">VolumeControl.WPF.Converters.</text>
<text text-anchor="middle" x="216.5" y="-301.5" font-family="Helvetica,sans-Serif" font-size="10.00">BooleanInverter</text>
</a>
</g>
</g>
<!-- Node28&#45;&gt;Node29 -->
<g id="edge1" class="edge">
<title>Node28&#45;&gt;Node29</title>
<path fill="none" stroke="midnightblue" d="M56.25,-181.75C68.21,-208.97 93.72,-258.41 131,-285.5 135.69,-288.91 140.85,-291.83 146.23,-294.34"/>
<polygon fill="midnightblue" stroke="midnightblue" points="59.33,-180.04 52.21,-172.19 52.88,-182.76 59.33,-180.04"/>
</g>
<!-- Node30 -->
<g id="node3" class="node">
<title>Node30</title>
<g id="a_node3"><a xlink:href="class_volume_control_1_1_w_p_f_1_1_converters_1_1_bool_to_check_visible_converter.html" target="_top" xlink:title="Converts from bool types to thickness types.">
<polygon fill="none" stroke="black" points="131,-245.5 131,-275.5 302,-275.5 302,-245.5 131,-245.5"/>
<text text-anchor="start" x="139" y="-263.5" font-family="Helvetica,sans-Serif" font-size="10.00">VolumeControl.WPF.Converters.</text>
<text text-anchor="middle" x="216.5" y="-252.5" font-family="Helvetica,sans-Serif" font-size="10.00">BoolToCheckVisibleConverter</text>
</a>
</g>
</g>
<!-- Node28&#45;&gt;Node30 -->
<g id="edge2" class="edge">
<title>Node28&#45;&gt;Node30</title>
<path fill="none" stroke="midnightblue" d="M63.28,-179.69C78.6,-196.49 104.07,-221.65 131,-236.5 137.14,-239.89 143.81,-242.83 150.61,-245.38"/>
<polygon fill="midnightblue" stroke="midnightblue" points="65.87,-177.34 56.6,-172.2 60.64,-181.99 65.87,-177.34"/>
</g>
<!-- Node31 -->
<g id="node4" class="node">
<title>Node31</title>
<g id="a_node4"><a xlink:href="class_volume_control_1_1_w_p_f_1_1_converters_1_1_bool_to_thickness_converter.html" target="_top" xlink:title="Converts from bool types to thickness types.">
<polygon fill="none" stroke="black" points="131,-196.5 131,-226.5 302,-226.5 302,-196.5 131,-196.5"/>
<text text-anchor="start" x="139" y="-214.5" font-family="Helvetica,sans-Serif" font-size="10.00">VolumeControl.WPF.Converters.</text>
<text text-anchor="middle" x="216.5" y="-203.5" font-family="Helvetica,sans-Serif" font-size="10.00">BoolToThicknessConverter</text>
</a>
</g>
</g>
<!-- Node28&#45;&gt;Node31 -->
<g id="edge3" class="edge">
<title>Node28&#45;&gt;Node31</title>
<path fill="none" stroke="midnightblue" d="M89.23,-175C102.53,-179.04 117.38,-183.5 131,-187.5 140.95,-190.42 151.58,-193.48 161.82,-196.41"/>
<polygon fill="midnightblue" stroke="midnightblue" points="90,-171.57 79.41,-172.01 87.96,-178.27 90,-171.57"/>
</g>
<!-- Node0 -->
<g id="node5" class="node">
<title>Node0</title>
<g id="a_node5"><a xlink:href="class_volume_control_1_1_w_p_f_1_1_converters_1_1_converter_chain.html" target="_top" xlink:title="Any number of IValueConverter objects that are used in assembly&#45;line fashion on a given value.">
<polygon fill="none" stroke="black" points="131,-0.5 131,-30.5 302,-30.5 302,-0.5 131,-0.5"/>
<text text-anchor="start" x="139" y="-18.5" font-family="Helvetica,sans-Serif" font-size="10.00">VolumeControl.WPF.Converters.</text>
<text text-anchor="middle" x="216.5" y="-7.5" font-family="Helvetica,sans-Serif" font-size="10.00">ConverterChain</text>
</a>
</g>
</g>
<!-- Node28&#45;&gt;Node0 -->
<g id="edge4" class="edge">
<title>Node28&#45;&gt;Node0</title>
<path fill="none" stroke="midnightblue" d="M56.34,-143.46C68.39,-116.53 94.03,-67.57 131,-40.5 136.31,-36.61 142.22,-33.33 148.38,-30.55"/>
<polygon fill="midnightblue" stroke="midnightblue" points="53,-142.35 52.26,-152.92 59.43,-145.12 53,-142.35"/>
</g>
<!-- Node32 -->
<g id="node6" class="node">
<title>Node32</title>
<g id="a_node6"><a xlink:href="class_volume_control_1_1_w_p_f_1_1_converters_1_1_null_to_boolean_converter.html" target="_top" xlink:title="Converts from any object type to bool depending on whether or not that object is null.">
<polygon fill="none" stroke="black" points="131,-147.5 131,-177.5 302,-177.5 302,-147.5 131,-147.5"/>
<text text-anchor="start" x="139" y="-165.5" font-family="Helvetica,sans-Serif" font-size="10.00">VolumeControl.WPF.Converters.</text>
<text text-anchor="middle" x="216.5" y="-154.5" font-family="Helvetica,sans-Serif" font-size="10.00">NullToBooleanConverter</text>
</a>
</g>
</g>
<!-- Node28&#45;&gt;Node32 -->
<g id="edge5" class="edge">
<title>Node28&#45;&gt;Node32</title>
<path fill="none" stroke="midnightblue" d="M105.26,-162.5C113.52,-162.5 122.18,-162.5 130.86,-162.5"/>
<polygon fill="midnightblue" stroke="midnightblue" points="105.02,-159 95.02,-162.5 105.02,-166 105.02,-159"/>
</g>
<!-- Node33 -->
<g id="node7" class="node">
<title>Node33</title>
<g id="a_node7"><a xlink:href="class_volume_control_1_1_w_p_f_1_1_converters_1_1_squared_corner_radius_converter.html" target="_top" xlink:title="This converter removes specific rounded corners depending on the Squared property....">
<polygon fill="none" stroke="black" points="131,-98.5 131,-128.5 302,-128.5 302,-98.5 131,-98.5"/>
<text text-anchor="start" x="139" y="-116.5" font-family="Helvetica,sans-Serif" font-size="10.00">VolumeControl.WPF.Converters.</text>
<text text-anchor="middle" x="216.5" y="-105.5" font-family="Helvetica,sans-Serif" font-size="10.00">SquaredCornerRadiusConverter</text>
</a>
</g>
</g>
<!-- Node28&#45;&gt;Node33 -->
<g id="edge6" class="edge">
<title>Node28&#45;&gt;Node33</title>
<path fill="none" stroke="midnightblue" d="M90.95,-150.05C113.25,-143.5 140.76,-135.43 164.25,-128.54"/>
<polygon fill="midnightblue" stroke="midnightblue" points="89.71,-146.76 81.1,-152.94 91.68,-153.48 89.71,-146.76"/>
</g>
<!-- Node34 -->
<g id="node8" class="node">
<title>Node34</title>
<g id="a_node8"><a xlink:href="class_volume_control_1_1_w_p_f_1_1_converters_1_1_tag_double_converter.html" target="_top" xlink:title=" ">
<polygon fill="none" stroke="black" points="131,-49.5 131,-79.5 302,-79.5 302,-49.5 131,-49.5"/>
<text text-anchor="start" x="139" y="-67.5" font-family="Helvetica,sans-Serif" font-size="10.00">VolumeControl.WPF.Converters.</text>
<text text-anchor="middle" x="216.5" y="-56.5" font-family="Helvetica,sans-Serif" font-size="10.00">TagDoubleConverter</text>
</a>
</g>
</g>
<!-- Node28&#45;&gt;Node34 -->
<g id="edge7" class="edge">
<title>Node28&#45;&gt;Node34</title>
<path fill="none" stroke="midnightblue" d="M63.78,-145.16C79.21,-128.64 104.5,-104.18 131,-89.5 137.82,-85.72 145.28,-82.45 152.85,-79.64"/>
<polygon fill="midnightblue" stroke="midnightblue" points="60.8,-143.23 56.65,-152.98 65.98,-147.94 60.8,-143.23"/>
</g>
<!-- Node26 -->
<g id="node9" class="node">
<title>Node26</title>
<g id="a_node9"><a xlink:title=" ">
<polygon fill="none" stroke="#bfbfbf" points="30.5,-6 30.5,-25 64.5,-25 64.5,-6 30.5,-6"/>
<text text-anchor="middle" x="47.5" y="-13" font-family="Helvetica,sans-Serif" font-size="10.00">List</text>
</a>
</g>
</g>
<!-- Node26&#45;&gt;Node0 -->
<g id="edge8" class="edge">
<title>Node26&#45;&gt;Node0</title>
<path fill="none" stroke="midnightblue" d="M74.71,-15.5C90.02,-15.5 110.28,-15.5 130.65,-15.5"/>
<polygon fill="midnightblue" stroke="midnightblue" points="74.51,-12 64.51,-15.5 74.51,-19 74.51,-12"/>
</g>
</g>
</svg>
