<?xml version="1.0" encoding="UTF-8" standalone="no"?>
<!DOCTYPE svg PUBLIC "-//W3C//DTD SVG 1.1//EN"
 "http://www.w3.org/Graphics/SVG/1.1/DTD/svg11.dtd">
<!-- Generated by graphviz version 2.43.0 (0)
 -->
<!-- Title: Graphical Class Hierarchy Pages: 1 -->
<svg width="392pt" height="78pt"
 viewBox="0.00 0.00 392.00 77.50" xmlns="http://www.w3.org/2000/svg" xmlns:xlink="http://www.w3.org/1999/xlink">
<g id="graph0" class="graph" transform="scale(1 1) rotate(0) translate(4 73.5)">
<title>Graphical Class Hierarchy</title>
<!-- Node0 -->
<g id="node1" class="node">
<title>Node0</title>
<g id="a_node1"><a xlink:href="interface_volume_control_1_1_core_1_1_i_template_dictionary_provider.html" target="_top" xlink:title="An alternative to ITemplateProvider that can be combined with a ResourceDictionary (with a codebehind...">
<polygon fill="none" stroke="black" points="0,-39 0,-69 165,-69 165,-39 0,-39"/>
<text text-anchor="start" x="8" y="-57" font-family="Helvetica,sans-Serif" font-size="10.00">VolumeControl.Core.ITemplate</text>
<text text-anchor="middle" x="82.5" y="-46" font-family="Helvetica,sans-Serif" font-size="10.00">DictionaryProvider</text>
</a>
</g>
</g>
<!-- Node1 -->
<g id="node2" class="node">
<title>Node1</title>
<g id="a_node2"><a xlink:href="class_volume_control_1_1_s_d_k_1_1_data_template_providers_1_1_data_template_providers.html" target="_top" xlink:title="Provides all of the default DataTemplate instances used by the built&#45;in hotkey actions.">
<polygon fill="none" stroke="black" points="201,-17 201,-47 384,-47 384,-17 201,-17"/>
<text text-anchor="start" x="209" y="-35" font-family="Helvetica,sans-Serif" font-size="10.00">VolumeControl.SDK.DataTemplate</text>
<text text-anchor="middle" x="292.5" y="-24" font-family="Helvetica,sans-Serif" font-size="10.00">Providers.DataTemplateProviders</text>
</a>
</g>
</g>
<!-- Node0&#45;&gt;Node1 -->
<g id="edge1" class="edge">
<title>Node0&#45;&gt;Node1</title>
<path fill="none" stroke="midnightblue" d="M175.08,-44.31C183.63,-43.41 192.3,-42.49 200.84,-41.59"/>
<polygon fill="midnightblue" stroke="midnightblue" points="174.69,-40.84 165.11,-45.37 175.42,-47.8 174.69,-40.84"/>
</g>
<!-- Node161 -->
<g id="node3" class="node">
<title>Node161</title>
<g id="a_node3"><a xlink:title=" ">
<polygon fill="none" stroke="#bfbfbf" points="26.5,-0.5 26.5,-19.5 138.5,-19.5 138.5,-0.5 26.5,-0.5"/>
<text text-anchor="middle" x="82.5" y="-7.5" font-family="Helvetica,sans-Serif" font-size="10.00">ResourceDictionary</text>
</a>
</g>
</g>
<!-- Node161&#45;&gt;Node1 -->
<g id="edge2" class="edge">
<title>Node161&#45;&gt;Node1</title>
<path fill="none" stroke="midnightblue" d="M148.73,-16.9C165.19,-18.64 183.17,-20.54 200.64,-22.39"/>
<polygon fill="midnightblue" stroke="midnightblue" points="149.01,-13.41 138.69,-15.84 148.27,-20.37 149.01,-13.41"/>
</g>
</g>
</svg>
