<?xml version="1.0" encoding="UTF-8" standalone="no"?>
<!DOCTYPE svg PUBLIC "-//W3C//DTD SVG 1.1//EN"
 "http://www.w3.org/Graphics/SVG/1.1/DTD/svg11.dtd">
<!-- Generated by graphviz version 2.43.0 (0)
 -->
<!-- Title: Graphical Class Hierarchy Pages: 1 -->
<svg width="271pt" height="137pt"
 viewBox="0.00 0.00 271.00 137.00" xmlns="http://www.w3.org/2000/svg" xmlns:xlink="http://www.w3.org/1999/xlink">
<g id="graph0" class="graph" transform="scale(1 1) rotate(0) translate(4 133)">
<title>Graphical Class Hierarchy</title>
<!-- Node3 -->
<g id="node1" class="node">
<title>Node3</title>
<g id="a_node1"><a xlink:title=" ">
<polygon fill="none" stroke="#bfbfbf" points="0,-55 0,-74 59,-74 59,-55 0,-55"/>
<text text-anchor="middle" x="29.5" y="-62" font-family="Helvetica,sans-Serif" font-size="10.00">Attribute</text>
</a>
</g>
</g>
<!-- Node0 -->
<g id="node2" class="node">
<title>Node0</title>
<g id="a_node2"><a xlink:href="class_volume_control_1_1_core_1_1_attributes_1_1_hotkey_action_attribute.html" target="_top" xlink:title="Indicates that a method is a valid hotkey action. If you don&#39;t specify a name parameter,...">
<polygon fill="none" stroke="black" points="95,-98.5 95,-128.5 263,-128.5 263,-98.5 95,-98.5"/>
<text text-anchor="start" x="103" y="-116.5" font-family="Helvetica,sans-Serif" font-size="10.00">VolumeControl.Core.Attributes.</text>
<text text-anchor="middle" x="179" y="-105.5" font-family="Helvetica,sans-Serif" font-size="10.00">HotkeyActionAttribute</text>
</a>
</g>
</g>
<!-- Node3&#45;&gt;Node0 -->
<g id="edge1" class="edge">
<title>Node3&#45;&gt;Node0</title>
<path fill="none" stroke="midnightblue" d="M62.96,-77.72C73.15,-81.7 84.48,-85.95 95,-89.5 104.1,-92.57 113.83,-95.61 123.32,-98.43"/>
<polygon fill="midnightblue" stroke="midnightblue" points="64.19,-74.45 53.61,-74.03 61.62,-80.96 64.19,-74.45"/>
</g>
<!-- Node5 -->
<g id="node3" class="node">
<title>Node5</title>
<g id="a_node3"><a xlink:href="class_volume_control_1_1_core_1_1_attributes_1_1_hotkey_action_group_attribute.html" target="_top" xlink:title="(Optional) Marks the attached class type as a Hotkey Actions addon type.">
<polygon fill="none" stroke="black" points="95,-49.5 95,-79.5 263,-79.5 263,-49.5 95,-49.5"/>
<text text-anchor="start" x="103" y="-67.5" font-family="Helvetica,sans-Serif" font-size="10.00">VolumeControl.Core.Attributes.</text>
<text text-anchor="middle" x="179" y="-56.5" font-family="Helvetica,sans-Serif" font-size="10.00">HotkeyActionGroupAttribute</text>
</a>
</g>
</g>
<!-- Node3&#45;&gt;Node5 -->
<g id="edge2" class="edge">
<title>Node3&#45;&gt;Node5</title>
<path fill="none" stroke="midnightblue" d="M69.55,-64.5C77.43,-64.5 85.98,-64.5 94.72,-64.5"/>
<polygon fill="midnightblue" stroke="midnightblue" points="69.29,-61 59.29,-64.5 69.29,-68 69.29,-61"/>
</g>
<!-- Node6 -->
<g id="node4" class="node">
<title>Node6</title>
<g id="a_node4"><a xlink:href="class_volume_control_1_1_core_1_1_attributes_1_1_hotkey_action_setting_attribute.html" target="_top" xlink:title="Attribute that specifies a hotkey action setting. This can be applied to methods, or directly to para...">
<polygon fill="none" stroke="black" points="95,-0.5 95,-30.5 263,-30.5 263,-0.5 95,-0.5"/>
<text text-anchor="start" x="103" y="-18.5" font-family="Helvetica,sans-Serif" font-size="10.00">VolumeControl.Core.Attributes.</text>
<text text-anchor="middle" x="179" y="-7.5" font-family="Helvetica,sans-Serif" font-size="10.00">HotkeyActionSettingAttribute</text>
</a>
</g>
</g>
<!-- Node3&#45;&gt;Node6 -->
<g id="edge3" class="edge">
<title>Node3&#45;&gt;Node6</title>
<path fill="none" stroke="midnightblue" d="M64.58,-51.36C74.36,-47.71 85.06,-43.84 95,-40.5 104.99,-37.14 115.72,-33.75 126.04,-30.6"/>
<polygon fill="midnightblue" stroke="midnightblue" points="63.3,-48.1 55.18,-54.9 65.77,-54.65 63.3,-48.1"/>
</g>
</g>
</svg>
