<?xml version="1.0" encoding="UTF-8" standalone="no"?>
<!DOCTYPE svg PUBLIC "-//W3C//DTD SVG 1.1//EN"
 "http://www.w3.org/Graphics/SVG/1.1/DTD/svg11.dtd">
<!-- Generated by graphviz version 2.44.1 (20200629.0800)
 -->
<!-- Title: Graphical Class Hierarchy Pages: 1 -->
<svg width="800pt" height="799pt"
 viewBox="0.00 0.00 800.00 798.50" xmlns="http://www.w3.org/2000/svg" xmlns:xlink="http://www.w3.org/1999/xlink">
<g id="graph0" class="graph" transform="scale(1 1) rotate(0) translate(4 794.5)">
<title>Graphical Class Hierarchy</title>
<!-- Node0 -->
<g id="node1" class="node">
<title>Node0</title>
<g id="a_node1"><a xlink:href="interface_volume_control_1_1_core_1_1_i_base_addon.html" target="_top" xlink:title="Represents an addon object. &#160;You can&#39;t directly implement this interface; inherit from the abstract c...">
<polygon fill="none" stroke="black" points="228,-755.5 228,-785.5 359,-785.5 359,-755.5 228,-755.5"/>
<text text-anchor="start" x="236" y="-773.5" font-family="Helvetica,sans-Serif" font-size="10.00">VolumeControl.Core.IBase</text>
<text text-anchor="middle" x="293.5" y="-762.5" font-family="Helvetica,sans-Serif" font-size="10.00">Addon</text>
</a>
</g>
</g>
<!-- Node1 -->
<g id="node2" class="node">
<title>Node1</title>
<g id="a_node2"><a xlink:href="class_volume_control_1_1_core_1_1_base_addon.html" target="_top" xlink:title="abstract base class for an object that manages an addon.">
<polygon fill="none" stroke="black" points="436,-761 436,-780 593,-780 593,-761 436,-761"/>
<text text-anchor="middle" x="514.5" y="-768" font-family="Helvetica,sans-Serif" font-size="10.00">VolumeControl.Core.BaseAddon</text>
</a>
</g>
</g>
<!-- Node0&#45;&gt;Node1 -->
<g id="edge1" class="edge">
<title>Node0&#45;&gt;Node1</title>
<path fill="none" stroke="midnightblue" d="M369.09,-770.5C390.63,-770.5 414.18,-770.5 435.89,-770.5"/>
<polygon fill="midnightblue" stroke="midnightblue" points="369.02,-767 359.02,-770.5 369.02,-774 369.02,-767"/>
</g>
<!-- Node2 -->
<g id="node3" class="node">
<title>Node2</title>
<g id="a_node3"><a xlink:href="interface_volume_control_1_1_hotkeys_1_1_interfaces_1_1_i_hotkey_action_manager.html" target="_top" xlink:title="Represents a hotkey action manager object, which contains the list of IActionBindings used in the hot...">
<polygon fill="none" stroke="black" points="431,-623.5 431,-653.5 598,-653.5 598,-623.5 431,-623.5"/>
<text text-anchor="start" x="439" y="-641.5" font-family="Helvetica,sans-Serif" font-size="10.00">VolumeControl.Hotkeys.Interfaces.</text>
<text text-anchor="middle" x="514.5" y="-630.5" font-family="Helvetica,sans-Serif" font-size="10.00">IHotkeyActionManager</text>
</a>
</g>
</g>
<!-- Node0&#45;&gt;Node2 -->
<g id="edge2" class="edge">
<title>Node0&#45;&gt;Node2</title>
<path fill="none" stroke="midnightblue" d="M369.03,-756.38C378.03,-753.4 386.9,-749.81 395,-745.5 439.78,-721.67 481.09,-677.23 501.01,-653.83"/>
<polygon fill="midnightblue" stroke="midnightblue" points="367.77,-753.1 359.24,-759.38 369.82,-759.79 367.77,-753.1"/>
</g>
<!-- Node29 -->
<g id="node4" class="node">
<title>Node29</title>
<g id="a_node4"><a xlink:title=" ">
<polygon fill="none" stroke="#bfbfbf" points="47,-619 47,-638 109,-638 109,-619 47,-619"/>
<text text-anchor="middle" x="78" y="-626" font-family="Helvetica,sans-Serif" font-size="10.00">ICollection</text>
</a>
</g>
</g>
<!-- Node30 -->
<g id="node5" class="node">
<title>Node30</title>
<g id="a_node5"><a xlink:href="class_hotkey_lib_1_1_keys_list.html" target="_top" xlink:title=" ">
<polygon fill="none" stroke="black" points="243,-717 243,-736 344,-736 344,-717 243,-717"/>
<text text-anchor="middle" x="293.5" y="-724" font-family="Helvetica,sans-Serif" font-size="10.00">HotkeyLib.KeysList</text>
</a>
</g>
</g>
<!-- Node29&#45;&gt;Node30 -->
<g id="edge3" class="edge">
<title>Node29&#45;&gt;Node30</title>
<path fill="none" stroke="midnightblue" d="M119.07,-632.26C131.81,-634.99 145.34,-639.63 156,-647.5 181.02,-665.98 166.49,-689.72 192,-707.5 206.71,-717.75 225.46,-722.87 242.77,-725.32"/>
<polygon fill="midnightblue" stroke="midnightblue" points="119.56,-628.79 109.1,-630.46 118.32,-635.68 119.56,-628.79"/>
</g>
<!-- Node31 -->
<g id="node6" class="node">
<title>Node31</title>
<g id="a_node6"><a xlink:href="class_volume_control_1_1_w_p_f_1_1_collections_1_1_bindable_event_type.html" target="_top" xlink:title="Provides the source for a WPF list component&#39;s ItemsSource property to expose a readable and writable...">
<polygon fill="none" stroke="black" points="213.5,-667.5 213.5,-697.5 373.5,-697.5 373.5,-667.5 213.5,-667.5"/>
<text text-anchor="start" x="221.5" y="-685.5" font-family="Helvetica,sans-Serif" font-size="10.00">VolumeControl.WPF.Collections.</text>
<text text-anchor="middle" x="293.5" y="-674.5" font-family="Helvetica,sans-Serif" font-size="10.00">BindableEventType</text>
</a>
</g>
</g>
<!-- Node29&#45;&gt;Node31 -->
<g id="edge4" class="edge">
<title>Node29&#45;&gt;Node31</title>
<path fill="none" stroke="midnightblue" d="M118.73,-638.23C130.72,-641.19 143.9,-644.46 156,-647.5 181.74,-653.98 210.18,-661.25 234.41,-667.48"/>
<polygon fill="midnightblue" stroke="midnightblue" points="119.55,-634.83 109,-635.84 117.87,-641.62 119.55,-634.83"/>
</g>
<!-- Node33 -->
<g id="node7" class="node">
<title>Node33</title>
<g id="a_node7"><a xlink:title=" ">
<polygon fill="none" stroke="#bfbfbf" points="260,-301 260,-320 327,-320 327,-301 260,-301"/>
<text text-anchor="middle" x="293.5" y="-308" font-family="Helvetica,sans-Serif" font-size="10.00">IDisposable</text>
</a>
</g>
</g>
<!-- Node34 -->
<g id="node8" class="node">
<title>Node34</title>
<g id="a_node8"><a xlink:href="class_hotkey_lib_1_1_windows_hotkey.html" target="_top" xlink:title=" ">
<polygon fill="none" stroke="black" points="447.5,-356 447.5,-375 581.5,-375 581.5,-356 447.5,-356"/>
<text text-anchor="middle" x="514.5" y="-363" font-family="Helvetica,sans-Serif" font-size="10.00">HotkeyLib.WindowsHotkey</text>
</a>
</g>
</g>
<!-- Node33&#45;&gt;Node34 -->
<g id="edge5" class="edge">
<title>Node33&#45;&gt;Node34</title>
<path fill="none" stroke="midnightblue" d="M337.14,-316.1C355.25,-319.11 376.42,-323.47 395,-329.5 411.83,-334.97 414.28,-340.7 431,-346.5 441.55,-350.16 453.11,-353.32 464.15,-355.96"/>
<polygon fill="midnightblue" stroke="midnightblue" points="337.58,-312.63 327.16,-314.53 336.49,-319.54 337.58,-312.63"/>
</g>
<!-- Node35 -->
<g id="node9" class="node">
<title>Node35</title>
<g id="a_node9"><a xlink:href="class_volume_control_1_1_audio_1_1_audio_a_p_i.html" target="_top" xlink:title="Contains methods related to audio devices, sessions, and the underlying selection mechanics responsib...">
<polygon fill="none" stroke="black" points="438.5,-465 438.5,-484 590.5,-484 590.5,-465 438.5,-465"/>
<text text-anchor="middle" x="514.5" y="-472" font-family="Helvetica,sans-Serif" font-size="10.00">VolumeControl.Audio.AudioAPI</text>
</a>
</g>
</g>
<!-- Node33&#45;&gt;Node35 -->
<g id="edge6" class="edge">
<title>Node33&#45;&gt;Node35</title>
<path fill="none" stroke="midnightblue" d="M337.53,-309.5C357,-311.17 379.15,-316.31 395,-329.5 429.07,-357.85 402.83,-388.28 431,-422.5 446.93,-441.84 472.01,-456.2 490.34,-464.87"/>
<polygon fill="midnightblue" stroke="midnightblue" points="337.52,-306 327.34,-308.91 337.12,-312.99 337.52,-306"/>
</g>
<!-- Node36 -->
<g id="node10" class="node">
<title>Node36</title>
<g id="a_node10"><a xlink:href="class_volume_control_1_1_audio_1_1_audio_device.html" target="_top" xlink:title="Represents an audio device endpoint.">
<polygon fill="none" stroke="black" points="446.5,-257.5 446.5,-287.5 582.5,-287.5 582.5,-257.5 446.5,-257.5"/>
<text text-anchor="start" x="454.5" y="-275.5" font-family="Helvetica,sans-Serif" font-size="10.00">VolumeControl.Audio.Audio</text>
<text text-anchor="middle" x="514.5" y="-264.5" font-family="Helvetica,sans-Serif" font-size="10.00">Device</text>
</a>
</g>
</g>
<!-- Node33&#45;&gt;Node36 -->
<g id="edge7" class="edge">
<title>Node33&#45;&gt;Node36</title>
<path fill="none" stroke="midnightblue" d="M337.34,-303.07C368.38,-297.68 410.96,-290.29 446.48,-284.13"/>
<polygon fill="midnightblue" stroke="midnightblue" points="336.54,-299.65 327.29,-304.81 337.74,-306.55 336.54,-299.65"/>
</g>
<!-- Node37 -->
<g id="node11" class="node">
<title>Node37</title>
<g id="a_node11"><a xlink:href="class_volume_control_1_1_audio_1_1_audio_session.html" target="_top" xlink:title="Represents an audio session playing on the system.">
<polygon fill="none" stroke="black" points="446.5,-522.5 446.5,-552.5 582.5,-552.5 582.5,-522.5 446.5,-522.5"/>
<text text-anchor="start" x="454.5" y="-540.5" font-family="Helvetica,sans-Serif" font-size="10.00">VolumeControl.Audio.Audio</text>
<text text-anchor="middle" x="514.5" y="-529.5" font-family="Helvetica,sans-Serif" font-size="10.00">Session</text>
</a>
</g>
</g>
<!-- Node33&#45;&gt;Node37 -->
<g id="edge8" class="edge">
<title>Node33&#45;&gt;Node37</title>
<path fill="none" stroke="midnightblue" d="M337.34,-308.37C357.3,-309.69 379.92,-314.86 395,-329.5 448.53,-381.49 385.93,-434.02 431,-493.5 440.61,-506.18 454.95,-515.6 468.99,-522.4"/>
<polygon fill="midnightblue" stroke="midnightblue" points="337.31,-304.87 327.19,-308 337.06,-311.86 337.31,-304.87"/>
</g>
<!-- Node38 -->
<g id="node12" class="node">
<title>Node38</title>
<g id="a_node12"><a xlink:href="class_volume_control_1_1_hotkeys_1_1_bindable_windows_hotkey.html" target="_top" xlink:title=" ">
<polygon fill="none" stroke="black" points="434.5,-306.5 434.5,-336.5 594.5,-336.5 594.5,-306.5 434.5,-306.5"/>
<text text-anchor="start" x="442.5" y="-324.5" font-family="Helvetica,sans-Serif" font-size="10.00">VolumeControl.Hotkeys.Bindable</text>
<text text-anchor="middle" x="514.5" y="-313.5" font-family="Helvetica,sans-Serif" font-size="10.00">WindowsHotkey</text>
</a>
</g>
</g>
<!-- Node33&#45;&gt;Node38 -->
<g id="edge9" class="edge">
<title>Node33&#45;&gt;Node38</title>
<path fill="none" stroke="midnightblue" d="M337.35,-312.65C364.85,-314.03 401.38,-315.87 434.05,-317.51"/>
<polygon fill="midnightblue" stroke="midnightblue" points="337.45,-309.15 327.29,-312.15 337.1,-316.14 337.45,-309.15"/>
</g>
<!-- Node39 -->
<g id="node13" class="node">
<title>Node39</title>
<g id="a_node13"><a xlink:href="class_volume_control_1_1_hotkeys_1_1_hotkey_manager.html" target="_top" xlink:title="This object is responsible for managing hotkeys at runtime.">
<polygon fill="none" stroke="black" points="438,-208.5 438,-238.5 591,-238.5 591,-208.5 438,-208.5"/>
<text text-anchor="start" x="446" y="-226.5" font-family="Helvetica,sans-Serif" font-size="10.00">VolumeControl.Hotkeys.Hotkey</text>
<text text-anchor="middle" x="514.5" y="-215.5" font-family="Helvetica,sans-Serif" font-size="10.00">Manager</text>
</a>
</g>
</g>
<!-- Node33&#45;&gt;Node39 -->
<g id="edge10" class="edge">
<title>Node33&#45;&gt;Node39</title>
<path fill="none" stroke="midnightblue" d="M322.93,-296.25C350.22,-282.9 392.82,-262.88 431,-248.5 440.24,-245.02 450.2,-241.67 459.9,-238.62"/>
<polygon fill="midnightblue" stroke="midnightblue" points="321.02,-293.29 313.6,-300.85 324.12,-299.57 321.02,-293.29"/>
</g>
<!-- Node40 -->
<g id="node14" class="node">
<title>Node40</title>
<g id="a_node14"><a xlink:href="class_volume_control_1_1_log_1_1_endpoints_1_1_memory_endpoint.html" target="_top" xlink:title="A log endpoint that implements IEndpoint and uses a MemoryStream as an endpoint.">
<polygon fill="none" stroke="black" points="440,-159.5 440,-189.5 589,-189.5 589,-159.5 440,-159.5"/>
<text text-anchor="start" x="448" y="-177.5" font-family="Helvetica,sans-Serif" font-size="10.00">VolumeControl.Log.Endpoints.</text>
<text text-anchor="middle" x="514.5" y="-166.5" font-family="Helvetica,sans-Serif" font-size="10.00">MemoryEndpoint</text>
</a>
</g>
</g>
<!-- Node33&#45;&gt;Node40 -->
<g id="edge11" class="edge">
<title>Node33&#45;&gt;Node40</title>
<path fill="none" stroke="midnightblue" d="M327.21,-296.76C348.2,-286.85 375.13,-271.98 395,-253.5 416.12,-233.85 407.84,-216.69 431,-199.5 436.17,-195.66 441.93,-192.41 447.93,-189.66"/>
<polygon fill="midnightblue" stroke="midnightblue" points="325.67,-293.62 318.04,-300.96 328.59,-299.98 325.67,-293.62"/>
</g>
<!-- Node41 -->
<g id="node15" class="node">
<title>Node41</title>
<g id="a_node15"><a xlink:href="class_volume_control_1_1_log_1_1_log_writer.html" target="_top" xlink:title="Basic log writer object.">
<polygon fill="none" stroke="black" points="442.5,-121 442.5,-140 586.5,-140 586.5,-121 442.5,-121"/>
<text text-anchor="middle" x="514.5" y="-128" font-family="Helvetica,sans-Serif" font-size="10.00">VolumeControl.Log.LogWriter</text>
</a>
</g>
</g>
<!-- Node33&#45;&gt;Node41 -->
<g id="edge12" class="edge">
<title>Node33&#45;&gt;Node41</title>
<path fill="none" stroke="midnightblue" d="M331.81,-297.05C352.95,-287.73 378.39,-273.4 395,-253.5 426.08,-216.27 395.07,-183.06 431,-150.5 435.7,-146.24 441.14,-142.85 446.95,-140.16"/>
<polygon fill="midnightblue" stroke="midnightblue" points="330.32,-293.88 322.46,-300.98 333.03,-300.33 330.32,-293.88"/>
</g>
<!-- Node42 -->
<g id="node16" class="node">
<title>Node42</title>
<g id="a_node16"><a xlink:href="class_volume_control_1_1_log_1_1_log_message.html" target="_top" xlink:title="This is an entirely optional object that maintains an internal MemoryStream and emulates the LogWrite...">
<polygon fill="none" stroke="black" points="634,-52 634,-71 792,-71 792,-52 634,-52"/>
<text text-anchor="middle" x="713" y="-59" font-family="Helvetica,sans-Serif" font-size="10.00">VolumeControl.Log.LogMessage</text>
</a>
</g>
</g>
<!-- Node41&#45;&gt;Node42 -->
<g id="edge13" class="edge">
<title>Node41&#45;&gt;Node42</title>
<path fill="none" stroke="midnightblue" d="M573.82,-118.51C582.01,-116.41 590.26,-114.06 598,-111.5 632.47,-100.08 670.79,-82.12 693.07,-71.12"/>
<polygon fill="midnightblue" stroke="midnightblue" points="572.78,-115.16 563.91,-120.94 574.45,-121.95 572.78,-115.16"/>
</g>
<!-- Node43 -->
<g id="node17" class="node">
<title>Node43</title>
<g id="a_node17"><a xlink:href="interface_volume_control_1_1_log_1_1_endpoints_1_1_i_endpoint.html" target="_top" xlink:title="Represents an endpoint output target for a log writer, and exposes helper methods for interacting wit...">
<polygon fill="none" stroke="black" points="219,-71.5 219,-101.5 368,-101.5 368,-71.5 219,-71.5"/>
<text text-anchor="start" x="227" y="-89.5" font-family="Helvetica,sans-Serif" font-size="10.00">VolumeControl.Log.Endpoints.</text>
<text text-anchor="middle" x="293.5" y="-78.5" font-family="Helvetica,sans-Serif" font-size="10.00">IEndpoint</text>
</a>
</g>
</g>
<!-- Node43&#45;&gt;Node40 -->
<g id="edge16" class="edge">
<title>Node43&#45;&gt;Node40</title>
<path fill="none" stroke="midnightblue" d="M333.19,-106.1C360.19,-119.34 397.28,-136.68 431,-149.5 440.23,-153.01 450.19,-156.37 459.88,-159.43"/>
<polygon fill="midnightblue" stroke="midnightblue" points="334.6,-102.89 324.08,-101.6 331.5,-109.17 334.6,-102.89"/>
</g>
<!-- Node44 -->
<g id="node18" class="node">
<title>Node44</title>
<g id="a_node18"><a xlink:href="class_volume_control_1_1_log_1_1_endpoints_1_1_console_endpoint.html" target="_top" xlink:title="Allows using the Console as a logging endpoint.">
<polygon fill="none" stroke="black" points="440,-71.5 440,-101.5 589,-101.5 589,-71.5 440,-71.5"/>
<text text-anchor="start" x="448" y="-89.5" font-family="Helvetica,sans-Serif" font-size="10.00">VolumeControl.Log.Endpoints.</text>
<text text-anchor="middle" x="514.5" y="-78.5" font-family="Helvetica,sans-Serif" font-size="10.00">ConsoleEndpoint</text>
</a>
</g>
</g>
<!-- Node43&#45;&gt;Node44 -->
<g id="edge14" class="edge">
<title>Node43&#45;&gt;Node44</title>
<path fill="none" stroke="midnightblue" d="M378.19,-86.5C398.47,-86.5 420.01,-86.5 439.79,-86.5"/>
<polygon fill="midnightblue" stroke="midnightblue" points="378.03,-83 368.03,-86.5 378.03,-90 378.03,-83"/>
</g>
<!-- Node45 -->
<g id="node19" class="node">
<title>Node45</title>
<g id="a_node19"><a xlink:href="class_volume_control_1_1_log_1_1_endpoints_1_1_file_endpoint.html" target="_top" xlink:title="Log endpoint that allows writing logs directly to a file on disk.">
<polygon fill="none" stroke="black" points="440,-22.5 440,-52.5 589,-52.5 589,-22.5 440,-22.5"/>
<text text-anchor="start" x="448" y="-40.5" font-family="Helvetica,sans-Serif" font-size="10.00">VolumeControl.Log.Endpoints.</text>
<text text-anchor="middle" x="514.5" y="-29.5" font-family="Helvetica,sans-Serif" font-size="10.00">FileEndpoint</text>
</a>
</g>
</g>
<!-- Node43&#45;&gt;Node45 -->
<g id="edge15" class="edge">
<title>Node43&#45;&gt;Node45</title>
<path fill="none" stroke="midnightblue" d="M371.63,-69.24C396.04,-63.78 422.79,-57.79 446.43,-52.51"/>
<polygon fill="midnightblue" stroke="midnightblue" points="370.69,-65.87 361.7,-71.47 372.22,-72.7 370.69,-65.87"/>
</g>
<!-- Node46 -->
<g id="node20" class="node">
<title>Node46</title>
<g id="a_node20"><a xlink:title=" ">
<polygon fill="none" stroke="#bfbfbf" points="42.5,-771 42.5,-790 113.5,-790 113.5,-771 42.5,-771"/>
<text text-anchor="middle" x="78" y="-778" font-family="Helvetica,sans-Serif" font-size="10.00">IEnumerable</text>
</a>
</g>
</g>
<!-- Node46&#45;&gt;Node30 -->
<g id="edge17" class="edge">
<title>Node46&#45;&gt;Node30</title>
<path fill="none" stroke="midnightblue" d="M123.79,-770.68C134.44,-768 145.69,-764.9 156,-761.5 172.46,-756.07 175.42,-751.55 192,-746.5 208.34,-741.52 226.55,-737.47 242.94,-734.34"/>
<polygon fill="midnightblue" stroke="midnightblue" points="122.71,-767.34 113.82,-773.1 124.36,-774.14 122.71,-767.34"/>
</g>
<!-- Node46&#45;&gt;Node31 -->
<g id="edge18" class="edge">
<title>Node46&#45;&gt;Node31</title>
<path fill="none" stroke="midnightblue" d="M123.97,-775.24C135.14,-772.42 146.6,-768.1 156,-761.5 179.6,-744.92 168.41,-724.1 192,-707.5 198.54,-702.89 205.85,-699.14 213.45,-696.07"/>
<polygon fill="midnightblue" stroke="midnightblue" points="122.89,-771.89 113.86,-777.43 124.38,-778.74 122.89,-771.89"/>
</g>
<!-- Node47 -->
<g id="node21" class="node">
<title>Node47</title>
<g id="a_node21"><a xlink:title=" ">
<polygon fill="none" stroke="#bfbfbf" points="60.5,-733 60.5,-752 95.5,-752 95.5,-733 60.5,-733"/>
<text text-anchor="middle" x="78" y="-740" font-family="Helvetica,sans-Serif" font-size="10.00">IList</text>
</a>
</g>
</g>
<!-- Node47&#45;&gt;Node30 -->
<g id="edge19" class="edge">
<title>Node47&#45;&gt;Node30</title>
<path fill="none" stroke="midnightblue" d="M105.92,-740.48C140.16,-737.92 199.96,-733.44 242.63,-730.24"/>
<polygon fill="midnightblue" stroke="midnightblue" points="105.46,-737.01 95.75,-741.24 105.99,-743.99 105.46,-737.01"/>
</g>
<!-- Node47&#45;&gt;Node31 -->
<g id="edge20" class="edge">
<title>Node47&#45;&gt;Node31</title>
<path fill="none" stroke="midnightblue" d="M105.87,-737.09C120.82,-733.78 139.65,-729.1 156,-723.5 172.56,-717.83 175.44,-713.19 192,-707.5 202.54,-703.88 213.87,-700.54 224.99,-697.57"/>
<polygon fill="midnightblue" stroke="midnightblue" points="104.81,-733.74 95.77,-739.25 106.28,-740.58 104.81,-733.74"/>
</g>
<!-- Node48 -->
<g id="node22" class="node">
<title>Node48</title>
<g id="a_node22"><a xlink:href="interface_volume_control_1_1_log_1_1_interfaces_1_1_i_log_writer.html" target="_top" xlink:title="Represents a log writer object, which is responsible for exposing logging methods,...">
<polygon fill="none" stroke="black" points="220,-0.5 220,-30.5 367,-30.5 367,-0.5 220,-0.5"/>
<text text-anchor="start" x="228" y="-18.5" font-family="Helvetica,sans-Serif" font-size="10.00">VolumeControl.Log.Interfaces.</text>
<text text-anchor="middle" x="293.5" y="-7.5" font-family="Helvetica,sans-Serif" font-size="10.00">ILogWriter</text>
</a>
</g>
</g>
<!-- Node48&#45;&gt;Node41 -->
<g id="edge22" class="edge">
<title>Node48&#45;&gt;Node41</title>
<path fill="none" stroke="midnightblue" d="M348.12,-34.63C364.18,-41.87 381.19,-51.16 395,-62.5 415.89,-79.65 408.42,-96.65 431,-111.5 436.89,-115.38 443.48,-118.47 450.29,-120.93"/>
<polygon fill="midnightblue" stroke="midnightblue" points="349.36,-31.35 338.8,-30.6 346.59,-37.78 349.36,-31.35"/>
</g>
<!-- Node48&#45;&gt;Node42 -->
<g id="edge21" class="edge">
<title>Node48&#45;&gt;Node42</title>
<path fill="none" stroke="midnightblue" d="M377.12,-5.33C438.67,-0.01 524.42,2.64 598,-12.5 634.71,-20.06 674.19,-39.98 695.7,-51.96"/>
<polygon fill="midnightblue" stroke="midnightblue" points="376.72,-1.86 367.07,-6.25 377.35,-8.83 376.72,-1.86"/>
</g>
<!-- Node52 -->
<g id="node23" class="node">
<title>Node52</title>
<g id="a_node23"><a xlink:title=" ">
<polygon fill="none" stroke="#bfbfbf" points="231,-175 231,-194 356,-194 356,-175 231,-175"/>
<text text-anchor="middle" x="293.5" y="-182" font-family="Helvetica,sans-Serif" font-size="10.00">INotifyCollectionChanged</text>
</a>
</g>
</g>
<!-- Node52&#45;&gt;Node39 -->
<g id="edge23" class="edge">
<title>Node52&#45;&gt;Node39</title>
<path fill="none" stroke="midnightblue" d="M358.13,-195.83C383.02,-200.26 411.78,-205.39 437.74,-210.01"/>
<polygon fill="midnightblue" stroke="midnightblue" points="358.53,-192.35 348.07,-194.04 357.3,-199.24 358.53,-192.35"/>
</g>
<!-- Node53 -->
<g id="node24" class="node">
<title>Node53</title>
<g id="a_node24"><a xlink:title=" ">
<polygon fill="none" stroke="#bfbfbf" points="18.5,-443 18.5,-462 137.5,-462 137.5,-443 18.5,-443"/>
<text text-anchor="middle" x="78" y="-450" font-family="Helvetica,sans-Serif" font-size="10.00">INotifyPropertyChanged</text>
</a>
</g>
</g>
<!-- Node53&#45;&gt;Node2 -->
<g id="edge36" class="edge">
<title>Node53&#45;&gt;Node2</title>
<path fill="none" stroke="midnightblue" d="M98.25,-468.7C115.24,-483.81 139.77,-507.68 156,-532.5 178.91,-567.52 157.91,-595.23 192,-619.5 229.01,-645.85 348.57,-646.4 430.98,-643.29"/>
<polygon fill="midnightblue" stroke="midnightblue" points="100.42,-465.95 90.58,-462.02 95.82,-471.23 100.42,-465.95"/>
</g>
<!-- Node53&#45;&gt;Node31 -->
<g id="edge37" class="edge">
<title>Node53&#45;&gt;Node31</title>
<path fill="none" stroke="midnightblue" d="M99.15,-468.57C116.53,-483.44 141.12,-507.04 156,-532.5 184.09,-580.57 152.6,-613.15 192,-652.5 198.18,-658.68 205.58,-663.59 213.52,-667.5"/>
<polygon fill="midnightblue" stroke="midnightblue" points="101.19,-465.72 91.27,-462 96.71,-471.1 101.19,-465.72"/>
</g>
<!-- Node53&#45;&gt;Node34 -->
<g id="edge28" class="edge">
<title>Node53&#45;&gt;Node34</title>
<path fill="none" stroke="midnightblue" d="M107.34,-438.56C129.78,-428.11 162.2,-414.32 192,-406.5 278.53,-383.78 381.6,-373.47 447.28,-368.91"/>
<polygon fill="midnightblue" stroke="midnightblue" points="105.61,-435.5 98.07,-442.94 108.61,-441.83 105.61,-435.5"/>
</g>
<!-- Node53&#45;&gt;Node35 -->
<g id="edge29" class="edge">
<title>Node53&#45;&gt;Node35</title>
<path fill="none" stroke="midnightblue" d="M147.95,-455.99C227.16,-460 356.66,-466.56 438.37,-470.7"/>
<polygon fill="midnightblue" stroke="midnightblue" points="147.76,-452.48 137.6,-455.47 147.41,-459.47 147.76,-452.48"/>
</g>
<!-- Node53&#45;&gt;Node36 -->
<g id="edge30" class="edge">
<title>Node53&#45;&gt;Node36</title>
<path fill="none" stroke="midnightblue" d="M85.89,-433.4C99.76,-398.13 134.71,-323.47 192,-291.5 270.73,-247.57 377.84,-251.44 446.33,-260.33"/>
<polygon fill="midnightblue" stroke="midnightblue" points="82.53,-432.4 82.26,-442.99 89.08,-434.88 82.53,-432.4"/>
</g>
<!-- Node53&#45;&gt;Node37 -->
<g id="edge31" class="edge">
<title>Node53&#45;&gt;Node37</title>
<path fill="none" stroke="midnightblue" d="M132.55,-464.12C151.33,-468.13 172.58,-472.6 192,-476.5 279.72,-494.14 381.2,-513.16 446.3,-525.19"/>
<polygon fill="midnightblue" stroke="midnightblue" points="133.2,-460.68 122.69,-462.01 131.73,-467.53 133.2,-460.68"/>
</g>
<!-- Node54 -->
<g id="node25" class="node">
<title>Node54</title>
<g id="a_node25"><a xlink:href="interface_hotkey_lib_1_1_i_key_combo.html" target="_top" xlink:title="Represents a combination of one keyboard key and any number of modifier keys.">
<polygon fill="none" stroke="black" points="237,-339 237,-358 350,-358 350,-339 237,-339"/>
<text text-anchor="middle" x="293.5" y="-346" font-family="Helvetica,sans-Serif" font-size="10.00">HotkeyLib.IKeyCombo</text>
</a>
</g>
</g>
<!-- Node53&#45;&gt;Node54 -->
<g id="edge24" class="edge">
<title>Node53&#45;&gt;Node54</title>
<path fill="none" stroke="midnightblue" d="M97.27,-436.17C118.55,-418.01 155.47,-389.04 192,-372.5 206.05,-366.14 222.01,-361.34 237,-357.77"/>
<polygon fill="midnightblue" stroke="midnightblue" points="94.92,-433.58 89.66,-442.78 99.51,-438.87 94.92,-433.58"/>
</g>
<!-- Node56 -->
<g id="node27" class="node">
<title>Node56</title>
<g id="a_node27"><a xlink:href="interface_volume_control_1_1_audio_1_1_interfaces_1_1_i_device.html" target="_top" xlink:title="Represents an audio device.">
<polygon fill="none" stroke="black" points="215.5,-213.5 215.5,-243.5 371.5,-243.5 371.5,-213.5 215.5,-213.5"/>
<text text-anchor="start" x="223.5" y="-231.5" font-family="Helvetica,sans-Serif" font-size="10.00">VolumeControl.Audio.Interfaces.</text>
<text text-anchor="middle" x="293.5" y="-220.5" font-family="Helvetica,sans-Serif" font-size="10.00">IDevice</text>
</a>
</g>
</g>
<!-- Node53&#45;&gt;Node56 -->
<g id="edge32" class="edge">
<title>Node53&#45;&gt;Node56</title>
<path fill="none" stroke="midnightblue" d="M84.9,-433.08C97.76,-394.01 132.08,-305.65 192,-258.5 199.8,-252.36 208.83,-247.48 218.22,-243.59"/>
<polygon fill="midnightblue" stroke="midnightblue" points="81.53,-432.12 81.83,-442.71 88.2,-434.24 81.53,-432.12"/>
</g>
<!-- Node57 -->
<g id="node28" class="node">
<title>Node57</title>
<g id="a_node28"><a xlink:href="interface_volume_control_1_1_audio_1_1_interfaces_1_1_i_session.html" target="_top" xlink:title="Represents an audio session.">
<polygon fill="none" stroke="black" points="215.5,-541.5 215.5,-571.5 371.5,-571.5 371.5,-541.5 215.5,-541.5"/>
<text text-anchor="start" x="223.5" y="-559.5" font-family="Helvetica,sans-Serif" font-size="10.00">VolumeControl.Audio.Interfaces.</text>
<text text-anchor="middle" x="293.5" y="-548.5" font-family="Helvetica,sans-Serif" font-size="10.00">ISession</text>
</a>
</g>
</g>
<!-- Node53&#45;&gt;Node57 -->
<g id="edge34" class="edge">
<title>Node53&#45;&gt;Node57</title>
<path fill="none" stroke="midnightblue" d="M99.34,-468.45C121.18,-484.92 157.42,-510.43 192,-526.5 204.47,-532.29 218.32,-537.28 231.66,-541.43"/>
<polygon fill="midnightblue" stroke="midnightblue" points="101.24,-465.5 91.18,-462.2 96.99,-471.06 101.24,-465.5"/>
</g>
<!-- Node58 -->
<g id="node29" class="node">
<title>Node58</title>
<g id="a_node29"><a xlink:href="class_volume_control_1_1_w_p_f_1_1_collections_1_1_bindable_event_type_1_1_bindable_event_type_flag.html" target="_top" xlink:title="This represents a single flag value of the EventType enum.">
<polygon fill="none" stroke="black" points="192,-415.5 192,-445.5 395,-445.5 395,-415.5 192,-415.5"/>
<text text-anchor="start" x="200" y="-433.5" font-family="Helvetica,sans-Serif" font-size="10.00">VolumeControl.WPF.Collections.</text>
<text text-anchor="middle" x="293.5" y="-422.5" font-family="Helvetica,sans-Serif" font-size="10.00">BindableEventType.BindableEventTypeFlag</text>
</a>
</g>
</g>
<!-- Node53&#45;&gt;Node58 -->
<g id="edge38" class="edge">
<title>Node53&#45;&gt;Node58</title>
<path fill="none" stroke="midnightblue" d="M147.67,-445.42C161.74,-443.97 176.83,-442.42 191.76,-440.88"/>
<polygon fill="midnightblue" stroke="midnightblue" points="147.21,-441.95 137.62,-446.46 147.93,-448.92 147.21,-441.95"/>
</g>
<!-- Node54&#45;&gt;Node34 -->
<g id="edge26" class="edge">
<title>Node54&#45;&gt;Node34</title>
<path fill="none" stroke="midnightblue" d="M360.38,-353.61C387.94,-355.75 419.91,-358.24 447.49,-360.38"/>
<polygon fill="midnightblue" stroke="midnightblue" points="360.29,-350.1 350.05,-352.81 359.75,-357.08 360.29,-350.1"/>
</g>
<!-- Node54&#45;&gt;Node38 -->
<g id="edge27" class="edge">
<title>Node54&#45;&gt;Node38</title>
<path fill="none" stroke="midnightblue" d="M360.19,-340.4C383.55,-337.52 410.09,-334.25 434.45,-331.25"/>
<polygon fill="midnightblue" stroke="midnightblue" points="359.54,-336.95 350.05,-341.65 360.4,-343.9 359.54,-336.95"/>
</g>
<!-- Node55 -->
<g id="node26" class="node">
<title>Node55</title>
<g id="a_node26"><a xlink:href="struct_hotkey_lib_1_1_key_combo.html" target="_top" xlink:title="Represents a combination of one keyboard key and any number of modifier keys.">
<polygon fill="none" stroke="black" points="459,-394 459,-413 570,-413 570,-394 459,-394"/>
<text text-anchor="middle" x="514.5" y="-401" font-family="Helvetica,sans-Serif" font-size="10.00">HotkeyLib.KeyCombo</text>
</a>
</g>
</g>
<!-- Node54&#45;&gt;Node55 -->
<g id="edge25" class="edge">
<title>Node54&#45;&gt;Node55</title>
<path fill="none" stroke="midnightblue" d="M339.28,-360.69C365.88,-367.84 400.3,-376.92 431,-384.5 443.98,-387.71 458.16,-391.03 471.05,-393.99"/>
<polygon fill="midnightblue" stroke="midnightblue" points="340.06,-357.27 329.49,-358.05 338.24,-364.03 340.06,-357.27"/>
</g>
<!-- Node56&#45;&gt;Node36 -->
<g id="edge33" class="edge">
<title>Node56&#45;&gt;Node36</title>
<path fill="none" stroke="midnightblue" d="M379.36,-245.55C401.59,-250.02 425.26,-254.77 446.42,-259.02"/>
<polygon fill="midnightblue" stroke="midnightblue" points="379.75,-242.06 369.25,-243.52 378.37,-248.92 379.75,-242.06"/>
</g>
<!-- Node57&#45;&gt;Node37 -->
<g id="edge35" class="edge">
<title>Node57&#45;&gt;Node37</title>
<path fill="none" stroke="midnightblue" d="M381.83,-548.92C403.34,-547.06 426.05,-545.09 446.44,-543.32"/>
<polygon fill="midnightblue" stroke="midnightblue" points="381.37,-545.45 371.71,-549.8 381.98,-552.42 381.37,-545.45"/>
</g>
<!-- Node59 -->
<g id="node30" class="node">
<title>Node59</title>
<g id="a_node30"><a xlink:title=" ">
<polygon fill="none" stroke="#bfbfbf" points="233,-591 233,-610 354,-610 354,-591 233,-591"/>
<text text-anchor="middle" x="293.5" y="-598" font-family="Helvetica,sans-Serif" font-size="10.00">INotifyPropertyChanging</text>
</a>
</g>
</g>
<!-- Node59&#45;&gt;Node2 -->
<g id="edge41" class="edge">
<title>Node59&#45;&gt;Node2</title>
<path fill="none" stroke="midnightblue" d="M359.52,-611.78C381.86,-615.66 407.17,-620.05 430.73,-624.14"/>
<polygon fill="midnightblue" stroke="midnightblue" points="359.93,-608.3 349.48,-610.04 358.73,-615.2 359.93,-608.3"/>
</g>
<!-- Node59&#45;&gt;Node35 -->
<g id="edge39" class="edge">
<title>Node59&#45;&gt;Node35</title>
<path fill="none" stroke="midnightblue" d="M363.96,-595.82C375.06,-592.78 385.88,-588.22 395,-581.5 422.52,-561.21 406.28,-537.13 431,-513.5 445.2,-499.93 465,-490.35 481.64,-484.09"/>
<polygon fill="midnightblue" stroke="midnightblue" points="363.1,-592.43 354.17,-598.13 364.7,-599.24 363.1,-592.43"/>
</g>
<!-- Node59&#45;&gt;Node37 -->
<g id="edge40" class="edge">
<title>Node59&#45;&gt;Node37</title>
<path fill="none" stroke="midnightblue" d="M363.86,-588.97C374.36,-586.77 385.02,-584.28 395,-581.5 423.33,-573.62 454.47,-561.94 477.72,-552.59"/>
<polygon fill="midnightblue" stroke="midnightblue" points="362.98,-585.58 353.87,-590.99 364.37,-592.44 362.98,-585.58"/>
</g>
<!-- Node61 -->
<g id="node31" class="node">
<title>Node61</title>
<g id="a_node31"><a xlink:href="interface_volume_control_1_1_audio_1_1_interfaces_1_1_i_process.html" target="_top" xlink:title="Represents read&#45;only information about a process running on the local system.">
<polygon fill="none" stroke="black" points="0,-541.5 0,-571.5 156,-571.5 156,-541.5 0,-541.5"/>
<text text-anchor="start" x="8" y="-559.5" font-family="Helvetica,sans-Serif" font-size="10.00">VolumeControl.Audio.Interfaces.</text>
<text text-anchor="middle" x="78" y="-548.5" font-family="Helvetica,sans-Serif" font-size="10.00">IProcess</text>
</a>
</g>
</g>
<!-- Node61&#45;&gt;Node57 -->
<g id="edge42" class="edge">
<title>Node61&#45;&gt;Node57</title>
<path fill="none" stroke="midnightblue" d="M166.1,-556.5C182.36,-556.5 199.24,-556.5 215.18,-556.5"/>
<polygon fill="midnightblue" stroke="midnightblue" points="166.08,-553 156.08,-556.5 166.08,-560 166.08,-553"/>
</g>
<!-- Node62 -->
<g id="node32" class="node">
<title>Node62</title>
<g id="a_node32"><a xlink:title=" ">
<polygon fill="none" stroke="#bfbfbf" points="26,-695 26,-714 130,-714 130,-695 26,-695"/>
<text text-anchor="middle" x="78" y="-702" font-family="Helvetica,sans-Serif" font-size="10.00">IReadOnlyCollection</text>
</a>
</g>
</g>
<!-- Node62&#45;&gt;Node30 -->
<g id="edge43" class="edge">
<title>Node62&#45;&gt;Node30</title>
<path fill="none" stroke="midnightblue" d="M140.43,-710.83C172.94,-714.18 212.34,-718.24 242.88,-721.39"/>
<polygon fill="midnightblue" stroke="midnightblue" points="140.44,-707.31 130.14,-709.77 139.73,-714.28 140.44,-707.31"/>
</g>
<!-- Node62&#45;&gt;Node31 -->
<g id="edge44" class="edge">
<title>Node62&#45;&gt;Node31</title>
<path fill="none" stroke="midnightblue" d="M140.34,-698.18C163.12,-695.83 189.28,-693.14 213.42,-690.65"/>
<polygon fill="midnightblue" stroke="midnightblue" points="139.73,-694.72 130.14,-699.23 140.44,-701.69 139.73,-694.72"/>
</g>
<!-- Node63 -->
<g id="node33" class="node">
<title>Node63</title>
<g id="a_node33"><a xlink:title=" ">
<polygon fill="none" stroke="#bfbfbf" points="39.5,-657 39.5,-676 116.5,-676 116.5,-657 39.5,-657"/>
<text text-anchor="middle" x="78" y="-664" font-family="Helvetica,sans-Serif" font-size="10.00">IReadOnlyList</text>
</a>
</g>
</g>
<!-- Node63&#45;&gt;Node30 -->
<g id="edge45" class="edge">
<title>Node63&#45;&gt;Node30</title>
<path fill="none" stroke="midnightblue" d="M126.36,-675.76C136.34,-678.38 146.66,-681.6 156,-685.5 173.31,-692.72 174.5,-700.76 192,-707.5 208.07,-713.69 226.39,-717.92 242.95,-720.78"/>
<polygon fill="midnightblue" stroke="midnightblue" points="127.1,-672.34 116.56,-673.34 125.43,-679.13 127.1,-672.34"/>
</g>
<!-- Node63&#45;&gt;Node31 -->
<g id="edge46" class="edge">
<title>Node63&#45;&gt;Node31</title>
<path fill="none" stroke="midnightblue" d="M126.8,-670.08C152.23,-671.99 184.17,-674.38 213.2,-676.56"/>
<polygon fill="midnightblue" stroke="midnightblue" points="126.91,-666.58 116.68,-669.32 126.39,-673.56 126.91,-666.58"/>
</g>
</g>
</svg>
