<?xml version="1.0" encoding="UTF-8" standalone="no"?>
<!DOCTYPE svg PUBLIC "-//W3C//DTD SVG 1.1//EN"
 "http://www.w3.org/Graphics/SVG/1.1/DTD/svg11.dtd">
<!-- Generated by graphviz version 2.43.0 (0)
 -->
<!-- Title: Graphical Class Hierarchy Pages: 1 -->
<svg width="877pt" height="996pt"
 viewBox="0.00 0.00 877.00 996.00" xmlns="http://www.w3.org/2000/svg" xmlns:xlink="http://www.w3.org/1999/xlink">
<g id="graph0" class="graph" transform="scale(1 1) rotate(0) translate(4 992)">
<title>Graphical Class Hierarchy</title>
<!-- Node80 -->
<g id="node1" class="node">
<title>Node80</title>
<g id="a_node1"><a xlink:href="interface_volume_control_1_1_core_1_1_i_base_addon.html" target="_top" xlink:title="Represents an addon object. &#160;You can&#39;t directly implement this interface; inherit from the abstract c...">
<polygon fill="none" stroke="black" points="461.5,-957.5 461.5,-987.5 605.5,-987.5 605.5,-957.5 461.5,-957.5"/>
<text text-anchor="start" x="469.5" y="-975.5" font-family="Helvetica,sans-Serif" font-size="10.00">VolumeControl.Core.IBase</text>
<text text-anchor="middle" x="533.5" y="-964.5" font-family="Helvetica,sans-Serif" font-size="10.00">Addon</text>
</a>
</g>
</g>
<!-- Node81 -->
<g id="node2" class="node">
<title>Node81</title>
<g id="a_node2"><a xlink:href="class_volume_control_1_1_core_1_1_base_addon.html" target="_top" xlink:title="abstract base class for an object that manages an addon.">
<polygon fill="none" stroke="black" points="690,-963 690,-982 862,-982 862,-963 690,-963"/>
<text text-anchor="middle" x="776" y="-970" font-family="Helvetica,sans-Serif" font-size="10.00">VolumeControl.Core.BaseAddon</text>
</a>
</g>
</g>
<!-- Node80&#45;&gt;Node81 -->
<g id="edge1" class="edge">
<title>Node80&#45;&gt;Node81</title>
<path fill="none" stroke="midnightblue" d="M615.77,-972.5C639.67,-972.5 665.86,-972.5 689.99,-972.5"/>
<polygon fill="midnightblue" stroke="midnightblue" points="615.68,-969 605.68,-972.5 615.68,-976 615.68,-969"/>
</g>
<!-- Node54 -->
<g id="node3" class="node">
<title>Node54</title>
<g id="a_node3"><a xlink:href="interface_volume_control_1_1_hotkeys_1_1_interfaces_1_1_i_hotkey_action_manager.html" target="_top" xlink:title="Represents a hotkey action manager object, which contains the list of IActionBindings used in the hot...">
<polygon fill="none" stroke="black" points="683,-913.5 683,-943.5 869,-943.5 869,-913.5 683,-913.5"/>
<text text-anchor="start" x="691" y="-931.5" font-family="Helvetica,sans-Serif" font-size="10.00">VolumeControl.Hotkeys.Interfaces.</text>
<text text-anchor="middle" x="776" y="-920.5" font-family="Helvetica,sans-Serif" font-size="10.00">IHotkeyActionManager</text>
</a>
</g>
</g>
<!-- Node80&#45;&gt;Node54 -->
<g id="edge2" class="edge">
<title>Node80&#45;&gt;Node54</title>
<path fill="none" stroke="midnightblue" d="M615.81,-957.62C640.7,-953.07 668.08,-948.06 693.01,-943.5"/>
<polygon fill="midnightblue" stroke="midnightblue" points="614.89,-954.23 605.68,-959.48 616.15,-961.12 614.89,-954.23"/>
</g>
<!-- Node76 -->
<g id="node4" class="node">
<title>Node76</title>
<g id="a_node4"><a xlink:title=" ">
<polygon fill="none" stroke="#bfbfbf" points="499.5,-112 499.5,-131 567.5,-131 567.5,-112 499.5,-112"/>
<text text-anchor="middle" x="533.5" y="-119" font-family="Helvetica,sans-Serif" font-size="10.00">ICollection</text>
</a>
</g>
</g>
<!-- Node45 -->
<g id="node5" class="node">
<title>Node45</title>
<g id="a_node5"><a xlink:href="class_hotkey_lib_1_1_keys_list.html" target="_top" xlink:title="This is a simple list wrapper that is available as an items source for data bindings.">
<polygon fill="none" stroke="black" points="721.5,-123 721.5,-142 830.5,-142 830.5,-123 721.5,-123"/>
<text text-anchor="middle" x="776" y="-130" font-family="Helvetica,sans-Serif" font-size="10.00">HotkeyLib.KeysList</text>
</a>
</g>
</g>
<!-- Node76&#45;&gt;Node45 -->
<g id="edge3" class="edge">
<title>Node76&#45;&gt;Node45</title>
<path fill="none" stroke="midnightblue" d="M577.72,-123.48C617.97,-125.32 678.1,-128.07 721.39,-130.05"/>
<polygon fill="midnightblue" stroke="midnightblue" points="577.84,-119.98 567.69,-123.02 577.52,-126.97 577.84,-119.98"/>
</g>
<!-- Node46 -->
<g id="node6" class="node">
<title>Node46</title>
<g id="a_node6"><a xlink:href="class_volume_control_1_1_w_p_f_1_1_collections_1_1_bindable_event_type.html" target="_top" xlink:title="Provides the source for a WPF list component&#39;s ItemsSource property to expose a readable and writable...">
<polygon fill="none" stroke="black" points="690,-210.5 690,-240.5 862,-240.5 862,-210.5 690,-210.5"/>
<text text-anchor="start" x="698" y="-228.5" font-family="Helvetica,sans-Serif" font-size="10.00">VolumeControl.WPF.Collections.</text>
<text text-anchor="middle" x="776" y="-217.5" font-family="Helvetica,sans-Serif" font-size="10.00">BindableEventType</text>
</a>
</g>
</g>
<!-- Node76&#45;&gt;Node46 -->
<g id="edge4" class="edge">
<title>Node76&#45;&gt;Node46</title>
<path fill="none" stroke="midnightblue" d="M577.98,-120.45C600.3,-121.88 626.94,-126.81 647,-140.5 672.69,-158.03 658.2,-181.73 683,-200.5 688.15,-204.4 693.86,-207.68 699.85,-210.46"/>
<polygon fill="midnightblue" stroke="midnightblue" points="577.88,-116.94 567.74,-120.02 577.58,-123.94 577.88,-116.94"/>
</g>
<!-- Node73 -->
<g id="node7" class="node">
<title>Node73</title>
<g id="a_node7"><a xlink:title=" ">
<polygon fill="none" stroke="#bfbfbf" points="496.5,-515 496.5,-534 570.5,-534 570.5,-515 496.5,-515"/>
<text text-anchor="middle" x="533.5" y="-522" font-family="Helvetica,sans-Serif" font-size="10.00">IDisposable</text>
</a>
</g>
</g>
<!-- Node50 -->
<g id="node8" class="node">
<title>Node50</title>
<g id="a_node8"><a xlink:href="class_hotkey_lib_1_1_windows_hotkey.html" target="_top" xlink:title="A simple Windows hotkey.">
<polygon fill="none" stroke="black" points="702.5,-726 702.5,-745 849.5,-745 849.5,-726 702.5,-726"/>
<text text-anchor="middle" x="776" y="-733" font-family="Helvetica,sans-Serif" font-size="10.00">HotkeyLib.WindowsHotkey</text>
</a>
</g>
</g>
<!-- Node73&#45;&gt;Node50 -->
<g id="edge5" class="edge">
<title>Node73&#45;&gt;Node50</title>
<path fill="none" stroke="midnightblue" d="M580.76,-521.37C603.52,-522.37 629.71,-527.73 647,-544.5 703.06,-598.88 627.7,-661.35 683,-716.5 688.54,-722.03 695.24,-726.15 702.47,-729.2"/>
<polygon fill="midnightblue" stroke="midnightblue" points="580.64,-517.86 570.58,-521.19 580.52,-524.86 580.64,-517.86"/>
</g>
<!-- Node51 -->
<g id="node9" class="node">
<title>Node51</title>
<g id="a_node9"><a xlink:href="class_volume_control_1_1_audio_1_1_audio_a_p_i.html" target="_top" xlink:title="Contains methods related to audio devices, sessions, and the underlying selection mechanics responsib...">
<polygon fill="none" stroke="black" points="693,-638 693,-657 859,-657 859,-638 693,-638"/>
<text text-anchor="middle" x="776" y="-645" font-family="Helvetica,sans-Serif" font-size="10.00">VolumeControl.Audio.AudioAPI</text>
</a>
</g>
</g>
<!-- Node73&#45;&gt;Node51 -->
<g id="edge6" class="edge">
<title>Node73&#45;&gt;Node51</title>
<path fill="none" stroke="midnightblue" d="M580.69,-523.64C602.59,-525.36 628.04,-530.68 647,-544.5 674.63,-564.64 657.37,-589.86 683,-612.5 696.57,-624.49 714.68,-632.56 731.24,-637.89"/>
<polygon fill="midnightblue" stroke="midnightblue" points="580.77,-520.14 570.59,-523.07 580.38,-527.12 580.77,-520.14"/>
</g>
<!-- Node2 -->
<g id="node10" class="node">
<title>Node2</title>
<g id="a_node10"><a xlink:href="class_volume_control_1_1_audio_1_1_audio_device.html" target="_top" xlink:title="Represents an audio device endpoint.">
<polygon fill="none" stroke="black" points="701,-468.5 701,-498.5 851,-498.5 851,-468.5 701,-468.5"/>
<text text-anchor="start" x="709" y="-486.5" font-family="Helvetica,sans-Serif" font-size="10.00">VolumeControl.Audio.Audio</text>
<text text-anchor="middle" x="776" y="-475.5" font-family="Helvetica,sans-Serif" font-size="10.00">Device</text>
</a>
</g>
</g>
<!-- Node73&#45;&gt;Node2 -->
<g id="edge7" class="edge">
<title>Node73&#45;&gt;Node2</title>
<path fill="none" stroke="midnightblue" d="M580.62,-516.64C614.64,-510.84 661.64,-502.83 700.9,-496.13"/>
<polygon fill="midnightblue" stroke="midnightblue" points="579.77,-513.23 570.51,-518.36 580.95,-520.13 579.77,-513.23"/>
</g>
<!-- Node5 -->
<g id="node11" class="node">
<title>Node5</title>
<g id="a_node11"><a xlink:href="class_volume_control_1_1_audio_1_1_audio_session.html" target="_top" xlink:title="Represents an audio session playing on the system.">
<polygon fill="none" stroke="black" points="701,-572.5 701,-602.5 851,-602.5 851,-572.5 701,-572.5"/>
<text text-anchor="start" x="709" y="-590.5" font-family="Helvetica,sans-Serif" font-size="10.00">VolumeControl.Audio.Audio</text>
<text text-anchor="middle" x="776" y="-579.5" font-family="Helvetica,sans-Serif" font-size="10.00">Session</text>
</a>
</g>
</g>
<!-- Node73&#45;&gt;Node5 -->
<g id="edge8" class="edge">
<title>Node73&#45;&gt;Node5</title>
<path fill="none" stroke="midnightblue" d="M580.54,-531.1C601.03,-534.45 625.38,-538.98 647,-544.5 677.1,-552.19 710.33,-563.43 735.39,-572.5"/>
<polygon fill="midnightblue" stroke="midnightblue" points="580.93,-527.62 570.51,-529.51 579.84,-534.54 580.93,-527.62"/>
</g>
<!-- Node53 -->
<g id="node12" class="node">
<title>Node53</title>
<g id="a_node12"><a xlink:href="class_volume_control_1_1_hotkeys_1_1_bindable_windows_hotkey.html" target="_top" xlink:title="This is a wrapper object around HotkeyLib.WindowsHotkey that is designed for data binding.">
<polygon fill="none" stroke="black" points="687.5,-676.5 687.5,-706.5 864.5,-706.5 864.5,-676.5 687.5,-676.5"/>
<text text-anchor="start" x="695.5" y="-694.5" font-family="Helvetica,sans-Serif" font-size="10.00">VolumeControl.Hotkeys.Bindable</text>
<text text-anchor="middle" x="776" y="-683.5" font-family="Helvetica,sans-Serif" font-size="10.00">WindowsHotkey</text>
</a>
</g>
</g>
<!-- Node73&#45;&gt;Node53 -->
<g id="edge9" class="edge">
<title>Node73&#45;&gt;Node53</title>
<path fill="none" stroke="midnightblue" d="M580.69,-521.98C603.2,-523.19 629.18,-528.56 647,-544.5 689.13,-582.2 642.6,-626.96 683,-666.5 686.9,-670.32 691.33,-673.57 696.08,-676.34"/>
<polygon fill="midnightblue" stroke="midnightblue" points="580.74,-518.48 570.64,-521.69 580.54,-525.48 580.74,-518.48"/>
</g>
<!-- Node58 -->
<g id="node13" class="node">
<title>Node58</title>
<g id="a_node13"><a xlink:href="class_volume_control_1_1_hotkeys_1_1_hotkey_manager.html" target="_top" xlink:title="This object is responsible for managing hotkeys at runtime.">
<polygon fill="none" stroke="black" points="691.5,-334.5 691.5,-364.5 860.5,-364.5 860.5,-334.5 691.5,-334.5"/>
<text text-anchor="start" x="699.5" y="-352.5" font-family="Helvetica,sans-Serif" font-size="10.00">VolumeControl.Hotkeys.Hotkey</text>
<text text-anchor="middle" x="776" y="-341.5" font-family="Helvetica,sans-Serif" font-size="10.00">Manager</text>
</a>
</g>
</g>
<!-- Node73&#45;&gt;Node58 -->
<g id="edge10" class="edge">
<title>Node73&#45;&gt;Node58</title>
<path fill="none" stroke="midnightblue" d="M575.03,-511.14C598.34,-501.84 626.89,-487.49 647,-467.5 671.81,-442.84 658.34,-422.31 683,-397.5 697.1,-383.32 716.27,-372.41 733.46,-364.6"/>
<polygon fill="midnightblue" stroke="midnightblue" points="573.49,-507.98 565.4,-514.82 575.99,-514.52 573.49,-507.98"/>
</g>
<!-- Node72 -->
<g id="node14" class="node">
<title>Node72</title>
<g id="a_node14"><a xlink:href="class_volume_control_1_1_log_1_1_endpoints_1_1_memory_endpoint.html" target="_top" xlink:title="A log endpoint that implements IEndpoint and uses a MemoryStream as an endpoint.">
<polygon fill="none" stroke="black" points="694.5,-161.5 694.5,-191.5 857.5,-191.5 857.5,-161.5 694.5,-161.5"/>
<text text-anchor="start" x="702.5" y="-179.5" font-family="Helvetica,sans-Serif" font-size="10.00">VolumeControl.Log.Endpoints.</text>
<text text-anchor="middle" x="776" y="-168.5" font-family="Helvetica,sans-Serif" font-size="10.00">MemoryEndpoint</text>
</a>
</g>
</g>
<!-- Node73&#45;&gt;Node72 -->
<g id="edge11" class="edge">
<title>Node73&#45;&gt;Node72</title>
<path fill="none" stroke="midnightblue" d="M580.13,-512.57C603.84,-503.98 631.11,-489.85 647,-467.5 716.37,-369.9 603.61,-290.14 683,-200.5 686.28,-196.79 690.06,-193.62 694.17,-190.92"/>
<polygon fill="midnightblue" stroke="midnightblue" points="578.92,-509.29 570.57,-515.82 581.17,-515.92 578.92,-509.29"/>
</g>
<!-- Node65 -->
<g id="node15" class="node">
<title>Node65</title>
<g id="a_node15"><a xlink:href="class_volume_control_1_1_log_1_1_log_writer.html" target="_top" xlink:title="Basic log writer object.">
<polygon fill="none" stroke="black" points="696.5,-407 696.5,-426 855.5,-426 855.5,-407 696.5,-407"/>
<text text-anchor="middle" x="776" y="-414" font-family="Helvetica,sans-Serif" font-size="10.00">VolumeControl.Log.LogWriter</text>
</a>
</g>
</g>
<!-- Node73&#45;&gt;Node65 -->
<g id="edge12" class="edge">
<title>Node73&#45;&gt;Node65</title>
<path fill="none" stroke="midnightblue" d="M565.08,-510.77C614.57,-488.54 710.96,-445.26 753.71,-426.06"/>
<polygon fill="midnightblue" stroke="midnightblue" points="563.53,-507.63 555.84,-514.92 566.4,-514.01 563.53,-507.63"/>
</g>
<!-- Node74 -->
<g id="node16" class="node">
<title>Node74</title>
<g id="a_node16"><a xlink:href="class_volume_control_1_1_w_p_f_1_1_h_wnd_hook.html" target="_top" xlink:title="Handles receiving windows event messages.">
<polygon fill="none" stroke="black" points="691,-518 691,-537 861,-537 861,-518 691,-518"/>
<text text-anchor="middle" x="776" y="-525" font-family="Helvetica,sans-Serif" font-size="10.00">VolumeControl.WPF.HWndHook</text>
</a>
</g>
</g>
<!-- Node73&#45;&gt;Node74 -->
<g id="edge13" class="edge">
<title>Node73&#45;&gt;Node74</title>
<path fill="none" stroke="midnightblue" d="M580.63,-525.08C611.78,-525.46 653.82,-525.99 690.83,-526.45"/>
<polygon fill="midnightblue" stroke="midnightblue" points="580.55,-521.57 570.51,-524.95 580.46,-528.57 580.55,-521.57"/>
</g>
<!-- Node69 -->
<g id="node17" class="node">
<title>Node69</title>
<g id="a_node17"><a xlink:href="interface_volume_control_1_1_log_1_1_endpoints_1_1_i_endpoint.html" target="_top" xlink:title="Represents an endpoint output target for a log writer, and exposes helper methods for interacting wit...">
<polygon fill="none" stroke="black" points="452,-24.5 452,-54.5 615,-54.5 615,-24.5 452,-24.5"/>
<text text-anchor="start" x="460" y="-42.5" font-family="Helvetica,sans-Serif" font-size="10.00">VolumeControl.Log.Endpoints.</text>
<text text-anchor="middle" x="533.5" y="-31.5" font-family="Helvetica,sans-Serif" font-size="10.00">IEndpoint</text>
</a>
</g>
</g>
<!-- Node69&#45;&gt;Node72 -->
<g id="edge16" class="edge">
<title>Node69&#45;&gt;Node72</title>
<path fill="none" stroke="midnightblue" d="M624.79,-51.1C632.82,-54.56 640.39,-58.95 647,-64.5 679.04,-91.41 651.59,-123.85 683,-151.5 687.35,-155.33 692.23,-158.58 697.41,-161.33"/>
<polygon fill="midnightblue" stroke="midnightblue" points="625.78,-47.73 615.19,-47.45 623.29,-54.27 625.78,-47.73"/>
</g>
<!-- Node70 -->
<g id="node18" class="node">
<title>Node70</title>
<g id="a_node18"><a xlink:href="class_volume_control_1_1_log_1_1_endpoints_1_1_console_endpoint.html" target="_top" xlink:title="Allows using the Console as a logging endpoint.">
<polygon fill="none" stroke="black" points="694.5,-0.5 694.5,-30.5 857.5,-30.5 857.5,-0.5 694.5,-0.5"/>
<text text-anchor="start" x="702.5" y="-18.5" font-family="Helvetica,sans-Serif" font-size="10.00">VolumeControl.Log.Endpoints.</text>
<text text-anchor="middle" x="776" y="-7.5" font-family="Helvetica,sans-Serif" font-size="10.00">ConsoleEndpoint</text>
</a>
</g>
</g>
<!-- Node69&#45;&gt;Node70 -->
<g id="edge14" class="edge">
<title>Node69&#45;&gt;Node70</title>
<path fill="none" stroke="midnightblue" d="M625.24,-30.44C647.99,-28.17 672.25,-25.75 694.46,-23.54"/>
<polygon fill="midnightblue" stroke="midnightblue" points="624.86,-26.97 615.25,-31.44 625.55,-33.93 624.86,-26.97"/>
</g>
<!-- Node71 -->
<g id="node19" class="node">
<title>Node71</title>
<g id="a_node19"><a xlink:href="class_volume_control_1_1_log_1_1_endpoints_1_1_file_endpoint.html" target="_top" xlink:title="Log endpoint that allows writing logs directly to a file on disk.">
<polygon fill="none" stroke="black" points="694.5,-49.5 694.5,-79.5 857.5,-79.5 857.5,-49.5 694.5,-49.5"/>
<text text-anchor="start" x="702.5" y="-67.5" font-family="Helvetica,sans-Serif" font-size="10.00">VolumeControl.Log.Endpoints.</text>
<text text-anchor="middle" x="776" y="-56.5" font-family="Helvetica,sans-Serif" font-size="10.00">FileEndpoint</text>
</a>
</g>
</g>
<!-- Node69&#45;&gt;Node71 -->
<g id="edge15" class="edge">
<title>Node69&#45;&gt;Node71</title>
<path fill="none" stroke="midnightblue" d="M625.24,-48.93C647.99,-51.3 672.25,-53.82 694.46,-56.13"/>
<polygon fill="midnightblue" stroke="midnightblue" points="625.56,-45.45 615.25,-47.89 624.84,-52.41 625.56,-45.45"/>
</g>
<!-- Node68 -->
<g id="node20" class="node">
<title>Node68</title>
<g id="a_node20"><a xlink:title=" ">
<polygon fill="none" stroke="#bfbfbf" points="494.5,-74 494.5,-93 572.5,-93 572.5,-74 494.5,-74"/>
<text text-anchor="middle" x="533.5" y="-81" font-family="Helvetica,sans-Serif" font-size="10.00">IEnumerable</text>
</a>
</g>
</g>
<!-- Node68&#45;&gt;Node45 -->
<g id="edge17" class="edge">
<title>Node68&#45;&gt;Node45</title>
<path fill="none" stroke="midnightblue" d="M582.72,-90.96C602.67,-94.22 626,-98.27 647,-102.5 677.43,-108.63 711.65,-116.71 737.05,-122.94"/>
<polygon fill="midnightblue" stroke="midnightblue" points="583.05,-87.47 572.62,-89.33 581.94,-94.38 583.05,-87.47"/>
</g>
<!-- Node68&#45;&gt;Node46 -->
<g id="edge18" class="edge">
<title>Node68&#45;&gt;Node46</title>
<path fill="none" stroke="midnightblue" d="M582.71,-81.16C604.52,-82.53 629.31,-87.81 647,-102.5 682.7,-132.14 648.8,-169.14 683,-200.5 687.15,-204.3 691.82,-207.54 696.8,-210.29"/>
<polygon fill="midnightblue" stroke="midnightblue" points="582.74,-77.66 572.62,-80.78 582.48,-84.65 582.74,-77.66"/>
</g>
<!-- Node67 -->
<g id="node21" class="node">
<title>Node67</title>
<g id="a_node21"><a xlink:title=" ">
<polygon fill="none" stroke="#bfbfbf" points="53,-559 53,-578 121,-578 121,-559 53,-559"/>
<text text-anchor="middle" x="87" y="-566" font-family="Helvetica,sans-Serif" font-size="10.00">IEquatable</text>
</a>
</g>
</g>
<!-- Node3 -->
<g id="node22" class="node">
<title>Node3</title>
<g id="a_node22"><a xlink:href="interface_volume_control_1_1_audio_1_1_interfaces_1_1_i_process.html" target="_top" xlink:title="Represents read&#45;only information about a process running on the local system.">
<polygon fill="none" stroke="black" points="210,-553.5 210,-583.5 384,-583.5 384,-553.5 210,-553.5"/>
<text text-anchor="start" x="218" y="-571.5" font-family="Helvetica,sans-Serif" font-size="10.00">VolumeControl.Audio.Interfaces.</text>
<text text-anchor="middle" x="297" y="-560.5" font-family="Helvetica,sans-Serif" font-size="10.00">IProcess</text>
</a>
</g>
</g>
<!-- Node67&#45;&gt;Node3 -->
<g id="edge19" class="edge">
<title>Node67&#45;&gt;Node3</title>
<path fill="none" stroke="midnightblue" d="M131.71,-568.5C154.37,-568.5 182.85,-568.5 209.71,-568.5"/>
<polygon fill="midnightblue" stroke="midnightblue" points="131.42,-565 121.42,-568.5 131.42,-572 131.42,-565"/>
</g>
<!-- Node4 -->
<g id="node23" class="node">
<title>Node4</title>
<g id="a_node23"><a xlink:href="interface_volume_control_1_1_audio_1_1_interfaces_1_1_i_session.html" target="_top" xlink:title="Represents an audio session.">
<polygon fill="none" stroke="black" points="446.5,-553.5 446.5,-583.5 620.5,-583.5 620.5,-553.5 446.5,-553.5"/>
<text text-anchor="start" x="454.5" y="-571.5" font-family="Helvetica,sans-Serif" font-size="10.00">VolumeControl.Audio.Interfaces.</text>
<text text-anchor="middle" x="533.5" y="-560.5" font-family="Helvetica,sans-Serif" font-size="10.00">ISession</text>
</a>
</g>
</g>
<!-- Node3&#45;&gt;Node4 -->
<g id="edge20" class="edge">
<title>Node3&#45;&gt;Node4</title>
<path fill="none" stroke="midnightblue" d="M394.38,-568.5C411.6,-568.5 429.45,-568.5 446.36,-568.5"/>
<polygon fill="midnightblue" stroke="midnightblue" points="394.32,-565 384.32,-568.5 394.32,-572 394.32,-565"/>
</g>
<!-- Node4&#45;&gt;Node5 -->
<g id="edge21" class="edge">
<title>Node4&#45;&gt;Node5</title>
<path fill="none" stroke="midnightblue" d="M630.92,-576.12C654.26,-577.96 678.86,-579.9 700.99,-581.65"/>
<polygon fill="midnightblue" stroke="midnightblue" points="630.89,-572.6 620.65,-575.31 630.34,-579.58 630.89,-572.6"/>
</g>
<!-- Node66 -->
<g id="node24" class="node">
<title>Node66</title>
<g id="a_node24"><a xlink:title=" ">
<polygon fill="none" stroke="#bfbfbf" points="515,-226 515,-245 552,-245 552,-226 515,-226"/>
<text text-anchor="middle" x="533.5" y="-233" font-family="Helvetica,sans-Serif" font-size="10.00">IList</text>
</a>
</g>
</g>
<!-- Node66&#45;&gt;Node45 -->
<g id="edge22" class="edge">
<title>Node66&#45;&gt;Node45</title>
<path fill="none" stroke="midnightblue" d="M562.32,-237.25C586.77,-237.39 622.22,-234.05 647,-216.5 673.95,-197.42 656.4,-171.07 683,-151.5 694.03,-143.38 707.73,-138.54 721.16,-135.71"/>
<polygon fill="midnightblue" stroke="midnightblue" points="562.34,-233.75 552.26,-237 562.16,-240.75 562.34,-233.75"/>
</g>
<!-- Node66&#45;&gt;Node46 -->
<g id="edge23" class="edge">
<title>Node66&#45;&gt;Node46</title>
<path fill="none" stroke="midnightblue" d="M562.25,-234.35C593.3,-233.06 645.1,-230.9 689.82,-229.04"/>
<polygon fill="midnightblue" stroke="midnightblue" points="562.03,-230.85 552.18,-234.76 562.32,-237.85 562.03,-230.85"/>
</g>
<!-- Node64 -->
<g id="node25" class="node">
<title>Node64</title>
<g id="a_node25"><a xlink:href="interface_volume_control_1_1_log_1_1_interfaces_1_1_i_log_writer.html" target="_top" xlink:title="Represents a log writer object, which is responsible for exposing logging methods,...">
<polygon fill="none" stroke="black" points="451.5,-378.5 451.5,-408.5 615.5,-408.5 615.5,-378.5 451.5,-378.5"/>
<text text-anchor="start" x="459.5" y="-396.5" font-family="Helvetica,sans-Serif" font-size="10.00">VolumeControl.Log.Interfaces.</text>
<text text-anchor="middle" x="533.5" y="-385.5" font-family="Helvetica,sans-Serif" font-size="10.00">ILogWriter</text>
</a>
</g>
</g>
<!-- Node64&#45;&gt;Node65 -->
<g id="edge24" class="edge">
<title>Node64&#45;&gt;Node65</title>
<path fill="none" stroke="midnightblue" d="M625.78,-402.23C649.01,-404.45 673.77,-406.82 696.3,-408.97"/>
<polygon fill="midnightblue" stroke="midnightblue" points="625.87,-398.72 615.59,-401.25 625.21,-405.69 625.87,-398.72"/>
</g>
<!-- Node60 -->
<g id="node26" class="node">
<title>Node60</title>
<g id="a_node26"><a xlink:title=" ">
<polygon fill="none" stroke="#bfbfbf" points="463.5,-302 463.5,-321 603.5,-321 603.5,-302 463.5,-302"/>
<text text-anchor="middle" x="533.5" y="-309" font-family="Helvetica,sans-Serif" font-size="10.00">INotifyCollectionChanged</text>
</a>
</g>
</g>
<!-- Node60&#45;&gt;Node46 -->
<g id="edge26" class="edge">
<title>Node60&#45;&gt;Node46</title>
<path fill="none" stroke="midnightblue" d="M602.35,-299.79C617.25,-296.45 632.8,-292.37 647,-287.5 683.43,-275 722.99,-254.71 748.34,-240.77"/>
<polygon fill="midnightblue" stroke="midnightblue" points="601.21,-296.45 592.17,-301.97 602.68,-303.29 601.21,-296.45"/>
</g>
<!-- Node60&#45;&gt;Node58 -->
<g id="edge25" class="edge">
<title>Node60&#45;&gt;Node58</title>
<path fill="none" stroke="midnightblue" d="M605.04,-322.65C632.1,-326.92 663.25,-331.84 691.42,-336.29"/>
<polygon fill="midnightblue" stroke="midnightblue" points="605.3,-319.14 594.88,-321.04 604.21,-326.06 605.3,-319.14"/>
</g>
<!-- Node55 -->
<g id="node27" class="node">
<title>Node55</title>
<g id="a_node27"><a xlink:title=" ">
<polygon fill="none" stroke="#bfbfbf" points="230.5,-641 230.5,-660 363.5,-660 363.5,-641 230.5,-641"/>
<text text-anchor="middle" x="297" y="-648" font-family="Helvetica,sans-Serif" font-size="10.00">INotifyPropertyChanged</text>
</a>
</g>
</g>
<!-- Node55&#45;&gt;Node54 -->
<g id="edge41" class="edge">
<title>Node55&#45;&gt;Node54</title>
<path fill="none" stroke="midnightblue" d="M300.53,-670.45C308.07,-720.72 335.44,-852.63 420,-909.5 461.42,-937.36 592.22,-937.6 682.92,-934"/>
<polygon fill="midnightblue" stroke="midnightblue" points="303.95,-669.68 299.11,-660.26 297.02,-670.65 303.95,-669.68"/>
</g>
<!-- Node55&#45;&gt;Node46 -->
<g id="edge42" class="edge">
<title>Node55&#45;&gt;Node46</title>
<path fill="none" stroke="midnightblue" d="M332.21,-636.52C350.65,-627.15 372.02,-612.94 384,-593.5 454.68,-478.8 326.99,-389.97 420,-292.5 455.31,-255.5 596.82,-264.38 647,-254.5 668.24,-250.32 691.34,-245.25 712,-240.52"/>
<polygon fill="midnightblue" stroke="midnightblue" points="330.68,-633.38 323.17,-640.86 333.7,-639.69 330.68,-633.38"/>
</g>
<!-- Node55&#45;&gt;Node50 -->
<g id="edge31" class="edge">
<title>Node55&#45;&gt;Node50</title>
<path fill="none" stroke="midnightblue" d="M307.93,-668.8C325.69,-699.38 366.17,-759.83 420,-783.5 512.36,-824.11 551.85,-817.06 647,-783.5 666.38,-776.67 664.42,-763.27 683,-754.5 691.26,-750.6 700.31,-747.5 709.41,-745.03"/>
<polygon fill="midnightblue" stroke="midnightblue" points="310.93,-667 302.97,-660.01 304.83,-670.44 310.93,-667"/>
</g>
<!-- Node55&#45;&gt;Node51 -->
<g id="edge32" class="edge">
<title>Node55&#45;&gt;Node51</title>
<path fill="none" stroke="midnightblue" d="M373.89,-650.02C460.91,-649.48 603.04,-648.58 692.67,-648.02"/>
<polygon fill="midnightblue" stroke="midnightblue" points="373.8,-646.52 363.82,-650.09 373.85,-653.52 373.8,-646.52"/>
</g>
<!-- Node55&#45;&gt;Node2 -->
<g id="edge33" class="edge">
<title>Node55&#45;&gt;Node2</title>
<path fill="none" stroke="midnightblue" d="M328.43,-636.2C346.61,-626.36 369.01,-611.78 384,-593.5 410.8,-560.83 385.66,-530.13 420,-505.5 463.4,-474.37 610.27,-475.27 700.93,-479.12"/>
<polygon fill="midnightblue" stroke="midnightblue" points="326.64,-633.19 319.37,-640.91 329.86,-639.4 326.64,-633.19"/>
</g>
<!-- Node55&#45;&gt;Node5 -->
<g id="edge34" class="edge">
<title>Node55&#45;&gt;Node5</title>
<path fill="none" stroke="midnightblue" d="M373.93,-640.47C463.64,-628.62 611.91,-609.04 700.85,-597.29"/>
<polygon fill="midnightblue" stroke="midnightblue" points="373.28,-637.03 363.82,-641.81 374.2,-643.97 373.28,-637.03"/>
</g>
<!-- Node55&#45;&gt;Node53 -->
<g id="edge39" class="edge">
<title>Node55&#45;&gt;Node53</title>
<path fill="none" stroke="midnightblue" d="M373.5,-658.12C388.88,-659.62 404.96,-661.15 420,-662.5 511.15,-670.71 615.56,-679.12 687.43,-684.75"/>
<polygon fill="midnightblue" stroke="midnightblue" points="373.81,-654.64 363.51,-657.14 373.12,-661.6 373.81,-654.64"/>
</g>
<!-- Node55&#45;&gt;Node58 -->
<g id="edge40" class="edge">
<title>Node55&#45;&gt;Node58</title>
<path fill="none" stroke="midnightblue" d="M331.55,-636.53C349.98,-627.1 371.56,-612.83 384,-593.5 438.83,-508.35 344.72,-436.25 420,-368.5 458.48,-333.87 598.96,-336.47 691.24,-342.37"/>
<polygon fill="midnightblue" stroke="midnightblue" points="330.01,-633.38 322.54,-640.89 333.07,-639.68 330.01,-633.38"/>
</g>
<!-- Node55&#45;&gt;Node4 -->
<g id="edge37" class="edge">
<title>Node55&#45;&gt;Node4</title>
<path fill="none" stroke="midnightblue" d="M327.03,-636.74C351.46,-625.5 387.52,-609.69 420,-598.5 435.96,-593 453.47,-587.9 469.84,-583.52"/>
<polygon fill="midnightblue" stroke="midnightblue" points="325.54,-633.57 317.95,-640.96 328.49,-639.92 325.54,-633.57"/>
</g>
<!-- Node56 -->
<g id="node28" class="node">
<title>Node56</title>
<g id="a_node28"><a xlink:href="interface_hotkey_lib_1_1_i_key_combo.html" target="_top" xlink:title="Represents a combination of one keyboard key and any number of modifier keys.">
<polygon fill="none" stroke="black" points="471.5,-755 471.5,-774 595.5,-774 595.5,-755 471.5,-755"/>
<text text-anchor="middle" x="533.5" y="-762" font-family="Helvetica,sans-Serif" font-size="10.00">HotkeyLib.IKeyCombo</text>
</a>
</g>
</g>
<!-- Node55&#45;&gt;Node56 -->
<g id="edge27" class="edge">
<title>Node55&#45;&gt;Node56</title>
<path fill="none" stroke="midnightblue" d="M314.16,-667.5C335.98,-689.32 377.11,-726.63 420,-745.5 435.96,-752.52 454.23,-756.96 471.35,-759.76"/>
<polygon fill="midnightblue" stroke="midnightblue" points="316.53,-664.91 307.03,-660.22 311.53,-669.81 316.53,-664.91"/>
</g>
<!-- Node1 -->
<g id="node30" class="node">
<title>Node1</title>
<g id="a_node30"><a xlink:href="interface_volume_control_1_1_audio_1_1_interfaces_1_1_i_device.html" target="_top" xlink:title="Represents an audio device.">
<polygon fill="none" stroke="black" points="446.5,-427.5 446.5,-457.5 620.5,-457.5 620.5,-427.5 446.5,-427.5"/>
<text text-anchor="start" x="454.5" y="-445.5" font-family="Helvetica,sans-Serif" font-size="10.00">VolumeControl.Audio.Interfaces.</text>
<text text-anchor="middle" x="533.5" y="-434.5" font-family="Helvetica,sans-Serif" font-size="10.00">IDevice</text>
</a>
</g>
</g>
<!-- Node55&#45;&gt;Node1 -->
<g id="edge35" class="edge">
<title>Node55&#45;&gt;Node1</title>
<path fill="none" stroke="midnightblue" d="M329.8,-636.33C348.09,-626.69 370.11,-612.26 384,-593.5 417.39,-548.41 379.76,-511.6 420,-472.5 427.54,-465.17 436.66,-459.59 446.4,-455.33"/>
<polygon fill="midnightblue" stroke="midnightblue" points="328,-633.32 320.64,-640.94 331.15,-639.57 328,-633.32"/>
</g>
<!-- Node52 -->
<g id="node31" class="node">
<title>Node52</title>
<g id="a_node31"><a xlink:href="class_volume_control_1_1_core_1_1_helpers_1_1_v_c_settings_container.html" target="_top" xlink:title="Responsible for containing the runtime state settings.">
<polygon fill="none" stroke="black" points="697,-812.5 697,-842.5 855,-842.5 855,-812.5 697,-812.5"/>
<text text-anchor="start" x="705" y="-830.5" font-family="Helvetica,sans-Serif" font-size="10.00">VolumeControl.Core.Helpers.</text>
<text text-anchor="middle" x="776" y="-819.5" font-family="Helvetica,sans-Serif" font-size="10.00">VCSettingsContainer</text>
</a>
</g>
</g>
<!-- Node55&#45;&gt;Node52 -->
<g id="edge38" class="edge">
<title>Node55&#45;&gt;Node52</title>
<path fill="none" stroke="midnightblue" d="M305.9,-669.58C321.64,-704.81 360.58,-779.29 420,-810.5 506.31,-855.83 621.31,-851.68 696.71,-841.86"/>
<polygon fill="midnightblue" stroke="midnightblue" points="308.94,-667.8 301.76,-660 302.51,-670.57 308.94,-667.8"/>
</g>
<!-- Node59 -->
<g id="node32" class="node">
<title>Node59</title>
<g id="a_node32"><a xlink:href="class_volume_control_1_1_w_p_f_1_1_collections_1_1_bindable_event_type_1_1_bindable_event_type_flag.html" target="_top" xlink:title="This represents a single flag value of the EventType enum.">
<polygon fill="none" stroke="black" points="420,-869.5 420,-899.5 647,-899.5 647,-869.5 420,-869.5"/>
<text text-anchor="start" x="428" y="-887.5" font-family="Helvetica,sans-Serif" font-size="10.00">VolumeControl.WPF.Collections.</text>
<text text-anchor="middle" x="533.5" y="-876.5" font-family="Helvetica,sans-Serif" font-size="10.00">BindableEventType.BindableEventTypeFlag</text>
</a>
</g>
</g>
<!-- Node55&#45;&gt;Node59 -->
<g id="edge43" class="edge">
<title>Node55&#45;&gt;Node59</title>
<path fill="none" stroke="midnightblue" d="M304.04,-669.99C317.7,-710.78 354.98,-805.46 420,-854.5 428.15,-860.65 437.46,-865.54 447.16,-869.42"/>
<polygon fill="midnightblue" stroke="midnightblue" points="307.35,-668.85 300.93,-660.41 300.69,-671 307.35,-668.85"/>
</g>
<!-- Node56&#45;&gt;Node50 -->
<g id="edge29" class="edge">
<title>Node56&#45;&gt;Node50</title>
<path fill="none" stroke="midnightblue" d="M605.91,-755.89C636.3,-752.22 671.71,-747.95 702.25,-744.27"/>
<polygon fill="midnightblue" stroke="midnightblue" points="605.32,-752.43 595.81,-757.11 606.16,-759.38 605.32,-752.43"/>
</g>
<!-- Node56&#45;&gt;Node53 -->
<g id="edge30" class="edge">
<title>Node56&#45;&gt;Node53</title>
<path fill="none" stroke="midnightblue" d="M605.86,-758.09C619.89,-755.28 634.21,-751.25 647,-745.5 665.74,-737.07 664.7,-725.84 683,-716.5 690.52,-712.66 698.69,-709.36 706.96,-706.54"/>
<polygon fill="midnightblue" stroke="midnightblue" points="604.93,-754.7 595.72,-759.93 606.18,-761.59 604.93,-754.7"/>
</g>
<!-- Node57 -->
<g id="node29" class="node">
<title>Node57</title>
<g id="a_node29"><a xlink:href="struct_hotkey_lib_1_1_key_combo.html" target="_top" xlink:title="Represents a combination of one keyboard key and any number of modifier keys.">
<polygon fill="none" stroke="black" points="715.5,-764 715.5,-783 836.5,-783 836.5,-764 715.5,-764"/>
<text text-anchor="middle" x="776" y="-771" font-family="Helvetica,sans-Serif" font-size="10.00">HotkeyLib.KeyCombo</text>
</a>
</g>
</g>
<!-- Node56&#45;&gt;Node57 -->
<g id="edge28" class="edge">
<title>Node56&#45;&gt;Node57</title>
<path fill="none" stroke="midnightblue" d="M605.94,-767.17C640.82,-768.48 682.32,-770.03 715.46,-771.27"/>
<polygon fill="midnightblue" stroke="midnightblue" points="605.93,-763.67 595.81,-766.79 605.67,-770.67 605.93,-763.67"/>
</g>
<!-- Node1&#45;&gt;Node2 -->
<g id="edge36" class="edge">
<title>Node1&#45;&gt;Node2</title>
<path fill="none" stroke="midnightblue" d="M630.6,-458.88C654.04,-462.88 678.76,-467.09 700.99,-470.88"/>
<polygon fill="midnightblue" stroke="midnightblue" points="631.09,-455.42 620.65,-457.19 629.92,-462.32 631.09,-455.42"/>
</g>
<!-- Node49 -->
<g id="node33" class="node">
<title>Node49</title>
<g id="a_node33"><a xlink:title=" ">
<polygon fill="none" stroke="#bfbfbf" points="465.5,-717 465.5,-736 601.5,-736 601.5,-717 465.5,-717"/>
<text text-anchor="middle" x="533.5" y="-724" font-family="Helvetica,sans-Serif" font-size="10.00">INotifyPropertyChanging</text>
</a>
</g>
</g>
<!-- Node49&#45;&gt;Node54 -->
<g id="edge49" class="edge">
<title>Node49&#45;&gt;Node54</title>
<path fill="none" stroke="midnightblue" d="M611.68,-728.25C624.56,-731.55 636.98,-736.94 647,-745.5 685.16,-778.08 654.57,-811.16 683,-852.5 700.61,-878.1 729.17,-899.8 749.8,-913.37"/>
<polygon fill="midnightblue" stroke="midnightblue" points="612.28,-724.8 601.77,-726.12 610.81,-731.65 612.28,-724.8"/>
</g>
<!-- Node49&#45;&gt;Node50 -->
<g id="edge44" class="edge">
<title>Node49&#45;&gt;Node50</title>
<path fill="none" stroke="midnightblue" d="M611.89,-729.4C640.87,-730.48 673.68,-731.71 702.23,-732.78"/>
<polygon fill="midnightblue" stroke="midnightblue" points="611.94,-725.9 601.81,-729.02 611.67,-732.89 611.94,-725.9"/>
</g>
<!-- Node49&#45;&gt;Node51 -->
<g id="edge45" class="edge">
<title>Node49&#45;&gt;Node51</title>
<path fill="none" stroke="midnightblue" d="M564.62,-712.84C594.26,-699.8 641.04,-680.3 683,-667.5 696.13,-663.49 710.55,-659.96 724,-657.03"/>
<polygon fill="midnightblue" stroke="midnightblue" points="562.98,-709.73 555.26,-716.99 565.82,-716.13 562.98,-709.73"/>
</g>
<!-- Node49&#45;&gt;Node5 -->
<g id="edge46" class="edge">
<title>Node49&#45;&gt;Node5</title>
<path fill="none" stroke="midnightblue" d="M555.87,-710.78C584.11,-690.38 635.82,-654.35 683,-628.5 700.48,-618.92 720.64,-609.74 737.62,-602.51"/>
<polygon fill="midnightblue" stroke="midnightblue" points="553.59,-708.11 547.56,-716.82 557.7,-713.77 553.59,-708.11"/>
</g>
<!-- Node49&#45;&gt;Node53 -->
<g id="edge48" class="edge">
<title>Node49&#45;&gt;Node53</title>
<path fill="none" stroke="midnightblue" d="M609.9,-715.53C634.52,-711.94 662.06,-707.94 687.49,-704.23"/>
<polygon fill="midnightblue" stroke="midnightblue" points="609.29,-712.08 599.9,-716.98 610.3,-719.01 609.29,-712.08"/>
</g>
<!-- Node49&#45;&gt;Node52 -->
<g id="edge47" class="edge">
<title>Node49&#45;&gt;Node52</title>
<path fill="none" stroke="midnightblue" d="M611.61,-731.62C624.02,-734.62 636.29,-739.05 647,-745.5 669.54,-759.08 661.9,-776.78 683,-792.5 694.1,-800.77 707.39,-807.31 720.36,-812.39"/>
<polygon fill="midnightblue" stroke="midnightblue" points="612.17,-728.16 601.66,-729.5 610.71,-735 612.17,-728.16"/>
</g>
<!-- Node47 -->
<g id="node34" class="node">
<title>Node47</title>
<g id="a_node34"><a xlink:title=" ">
<polygon fill="none" stroke="#bfbfbf" points="475.5,-188 475.5,-207 591.5,-207 591.5,-188 475.5,-188"/>
<text text-anchor="middle" x="533.5" y="-195" font-family="Helvetica,sans-Serif" font-size="10.00">IReadOnlyCollection</text>
</a>
</g>
</g>
<!-- Node47&#45;&gt;Node45 -->
<g id="edge50" class="edge">
<title>Node47&#45;&gt;Node45</title>
<path fill="none" stroke="midnightblue" d="M601.48,-191.55C616.84,-188.73 632.82,-184.59 647,-178.5 665.38,-170.61 664.77,-159.72 683,-151.5 694.89,-146.14 708.34,-142.27 721.2,-139.49"/>
<polygon fill="midnightblue" stroke="midnightblue" points="600.79,-188.11 591.5,-193.21 601.94,-195.02 600.79,-188.11"/>
</g>
<!-- Node47&#45;&gt;Node46 -->
<g id="edge51" class="edge">
<title>Node47&#45;&gt;Node46</title>
<path fill="none" stroke="midnightblue" d="M602.01,-205.36C629.28,-208.54 661.06,-212.24 689.89,-215.59"/>
<polygon fill="midnightblue" stroke="midnightblue" points="602.14,-201.85 591.8,-204.17 601.33,-208.8 602.14,-201.85"/>
</g>
<!-- Node44 -->
<g id="node35" class="node">
<title>Node44</title>
<g id="a_node35"><a xlink:title=" ">
<polygon fill="none" stroke="#bfbfbf" points="491.5,-150 491.5,-169 575.5,-169 575.5,-150 491.5,-150"/>
<text text-anchor="middle" x="533.5" y="-157" font-family="Helvetica,sans-Serif" font-size="10.00">IReadOnlyList</text>
</a>
</g>
</g>
<!-- Node44&#45;&gt;Node45 -->
<g id="edge52" class="edge">
<title>Node44&#45;&gt;Node45</title>
<path fill="none" stroke="midnightblue" d="M585.63,-153.76C625.56,-149.28 680.9,-143.06 721.44,-138.51"/>
<polygon fill="midnightblue" stroke="midnightblue" points="585.12,-150.3 575.57,-154.89 585.9,-157.25 585.12,-150.3"/>
</g>
<!-- Node44&#45;&gt;Node46 -->
<g id="edge53" class="edge">
<title>Node44&#45;&gt;Node46</title>
<path fill="none" stroke="midnightblue" d="M585.56,-163.95C605.2,-166.73 627.57,-171.23 647,-178.5 664.56,-185.07 665.78,-193.08 683,-200.5 691.66,-204.23 701.03,-207.54 710.36,-210.44"/>
<polygon fill="midnightblue" stroke="midnightblue" points="585.94,-160.47 575.57,-162.64 585.03,-167.41 585.94,-160.47"/>
</g>
<!-- Node0 -->
<g id="node36" class="node">
<title>Node0</title>
<g id="a_node36"><a xlink:href="interface_volume_control_1_1_audio_1_1_interfaces_1_1_i_targetable.html" target="_top" xlink:title="Base interface type for IDevice and IProcess/ISession.">
<polygon fill="none" stroke="black" points="0,-509.5 0,-539.5 174,-539.5 174,-509.5 0,-509.5"/>
<text text-anchor="start" x="8" y="-527.5" font-family="Helvetica,sans-Serif" font-size="10.00">VolumeControl.Audio.Interfaces.</text>
<text text-anchor="middle" x="87" y="-516.5" font-family="Helvetica,sans-Serif" font-size="10.00">ITargetable</text>
</a>
</g>
</g>
<!-- Node0&#45;&gt;Node3 -->
<g id="edge55" class="edge">
<title>Node0&#45;&gt;Node3</title>
<path fill="none" stroke="midnightblue" d="M168.86,-541.61C187.37,-545.52 206.91,-549.65 224.97,-553.47"/>
<polygon fill="midnightblue" stroke="midnightblue" points="169.51,-538.16 159,-539.52 168.06,-545.01 169.51,-538.16"/>
</g>
<!-- Node0&#45;&gt;Node4 -->
<g id="edge56" class="edge">
<title>Node0&#45;&gt;Node4</title>
<path fill="none" stroke="midnightblue" d="M184.26,-528.74C242.24,-531.86 317.5,-536.9 384,-544.5 404.89,-546.89 427.32,-550.15 448.27,-553.49"/>
<polygon fill="midnightblue" stroke="midnightblue" points="184.17,-525.23 174,-528.2 183.8,-532.22 184.17,-525.23"/>
</g>
<!-- Node0&#45;&gt;Node1 -->
<g id="edge54" class="edge">
<title>Node0&#45;&gt;Node1</title>
<path fill="none" stroke="midnightblue" d="M179.58,-507.6C259.5,-492.86 374.37,-471.67 451.11,-457.51"/>
<polygon fill="midnightblue" stroke="midnightblue" points="178.73,-504.2 169.53,-509.46 180,-511.09 178.73,-504.2"/>
</g>
</g>
</svg>
