<?xml version="1.0" encoding="UTF-8" standalone="no"?>
<!DOCTYPE svg PUBLIC "-//W3C//DTD SVG 1.1//EN"
 "http://www.w3.org/Graphics/SVG/1.1/DTD/svg11.dtd">
<!-- Generated by graphviz version 2.43.0 (0)
 -->
<!-- Title: Graphical Class Hierarchy Pages: 1 -->
<svg width="877pt" height="822pt"
 viewBox="0.00 0.00 877.00 821.50" xmlns="http://www.w3.org/2000/svg" xmlns:xlink="http://www.w3.org/1999/xlink">
<g id="graph0" class="graph" transform="scale(1 1) rotate(0) translate(4 817.5)">
<title>Graphical Class Hierarchy</title>
<!-- Node70 -->
<g id="node1" class="node">
<title>Node70</title>
<g id="a_node1"><a xlink:href="interface_volume_control_1_1_core_1_1_i_base_addon.html" target="_top" xlink:title="Represents an addon object. &#160;You can&#39;t directly implement this interface; inherit from the abstract c...">
<polygon fill="none" stroke="black" points="461.5,-762.5 461.5,-792.5 605.5,-792.5 605.5,-762.5 461.5,-762.5"/>
<text text-anchor="start" x="469.5" y="-780.5" font-family="Helvetica,sans-Serif" font-size="10.00">VolumeControl.Core.IBase</text>
<text text-anchor="middle" x="533.5" y="-769.5" font-family="Helvetica,sans-Serif" font-size="10.00">Addon</text>
</a>
</g>
</g>
<!-- Node71 -->
<g id="node2" class="node">
<title>Node71</title>
<g id="a_node2"><a xlink:href="class_volume_control_1_1_core_1_1_base_addon.html" target="_top" xlink:title="abstract base class for an object that manages an addon.">
<polygon fill="none" stroke="black" points="690,-768 690,-787 862,-787 862,-768 690,-768"/>
<text text-anchor="middle" x="776" y="-775" font-family="Helvetica,sans-Serif" font-size="10.00">VolumeControl.Core.BaseAddon</text>
</a>
</g>
</g>
<!-- Node70&#45;&gt;Node71 -->
<g id="edge1" class="edge">
<title>Node70&#45;&gt;Node71</title>
<path fill="none" stroke="midnightblue" d="M615.77,-777.5C639.67,-777.5 665.86,-777.5 689.99,-777.5"/>
<polygon fill="midnightblue" stroke="midnightblue" points="615.68,-774 605.68,-777.5 615.68,-781 615.68,-774"/>
</g>
<!-- Node44 -->
<g id="node3" class="node">
<title>Node44</title>
<g id="a_node3"><a xlink:href="interface_volume_control_1_1_hotkeys_1_1_interfaces_1_1_i_hotkey_action_manager.html" target="_top" xlink:title="Represents a hotkey action manager object, which contains the list of IActionBindings used in the hot...">
<polygon fill="none" stroke="black" points="683,-581.5 683,-611.5 869,-611.5 869,-581.5 683,-581.5"/>
<text text-anchor="start" x="691" y="-599.5" font-family="Helvetica,sans-Serif" font-size="10.00">VolumeControl.Hotkeys.Interfaces.</text>
<text text-anchor="middle" x="776" y="-588.5" font-family="Helvetica,sans-Serif" font-size="10.00">IHotkeyActionManager</text>
</a>
</g>
</g>
<!-- Node70&#45;&gt;Node44 -->
<g id="edge2" class="edge">
<title>Node70&#45;&gt;Node44</title>
<path fill="none" stroke="midnightblue" d="M615.46,-766.39C626.53,-762.94 637.38,-758.42 647,-752.5 705.8,-716.36 749.9,-643.46 767.11,-611.78"/>
<polygon fill="midnightblue" stroke="midnightblue" points="614.36,-763.07 605.7,-769.16 616.27,-769.8 614.36,-763.07"/>
</g>
<!-- Node66 -->
<g id="node4" class="node">
<title>Node66</title>
<g id="a_node4"><a xlink:title=" ">
<polygon fill="none" stroke="#bfbfbf" points="263,-794 263,-813 331,-813 331,-794 263,-794"/>
<text text-anchor="middle" x="297" y="-801" font-family="Helvetica,sans-Serif" font-size="10.00">ICollection</text>
</a>
</g>
</g>
<!-- Node37 -->
<g id="node5" class="node">
<title>Node37</title>
<g id="a_node5"><a xlink:href="class_hotkey_lib_1_1_keys_list.html" target="_top" xlink:title=" ">
<polygon fill="none" stroke="black" points="479,-724 479,-743 588,-743 588,-724 479,-724"/>
<text text-anchor="middle" x="533.5" y="-731" font-family="Helvetica,sans-Serif" font-size="10.00">HotkeyLib.KeysList</text>
</a>
</g>
</g>
<!-- Node66&#45;&gt;Node37 -->
<g id="edge3" class="edge">
<title>Node66&#45;&gt;Node37</title>
<path fill="none" stroke="midnightblue" d="M341.16,-798.26C355.32,-795.44 370.8,-791.11 384,-784.5 402.88,-775.05 400.93,-762.56 420,-753.5 438.19,-744.86 459.64,-739.93 478.9,-737.12"/>
<polygon fill="midnightblue" stroke="midnightblue" points="340.36,-794.85 331.13,-800.07 341.6,-801.74 340.36,-794.85"/>
</g>
<!-- Node38 -->
<g id="node6" class="node">
<title>Node38</title>
<g id="a_node6"><a xlink:href="class_volume_control_1_1_w_p_f_1_1_collections_1_1_bindable_event_type.html" target="_top" xlink:title="Provides the source for a WPF list component&#39;s ItemsSource property to expose a readable and writable...">
<polygon fill="none" stroke="black" points="447.5,-674.5 447.5,-704.5 619.5,-704.5 619.5,-674.5 447.5,-674.5"/>
<text text-anchor="start" x="455.5" y="-692.5" font-family="Helvetica,sans-Serif" font-size="10.00">VolumeControl.WPF.Collections.</text>
<text text-anchor="middle" x="533.5" y="-681.5" font-family="Helvetica,sans-Serif" font-size="10.00">BindableEventType</text>
</a>
</g>
</g>
<!-- Node66&#45;&gt;Node38 -->
<g id="edge4" class="edge">
<title>Node66&#45;&gt;Node38</title>
<path fill="none" stroke="midnightblue" d="M341.06,-801.39C355.88,-798.85 371.8,-793.9 384,-784.5 411.71,-763.14 392.3,-735.87 420,-714.5 428.16,-708.21 437.59,-703.43 447.44,-699.82"/>
<polygon fill="midnightblue" stroke="midnightblue" points="340.46,-797.94 331.04,-802.79 341.42,-804.87 340.46,-797.94"/>
</g>
<!-- Node64 -->
<g id="node7" class="node">
<title>Node64</title>
<g id="a_node7"><a xlink:title=" ">
<polygon fill="none" stroke="#bfbfbf" points="496.5,-321 496.5,-340 570.5,-340 570.5,-321 496.5,-321"/>
<text text-anchor="middle" x="533.5" y="-328" font-family="Helvetica,sans-Serif" font-size="10.00">IDisposable</text>
</a>
</g>
</g>
<!-- Node48 -->
<g id="node8" class="node">
<title>Node48</title>
<g id="a_node8"><a xlink:href="class_hotkey_lib_1_1_windows_hotkey.html" target="_top" xlink:title=" ">
<polygon fill="none" stroke="black" points="702.5,-364 702.5,-383 849.5,-383 849.5,-364 702.5,-364"/>
<text text-anchor="middle" x="776" y="-371" font-family="Helvetica,sans-Serif" font-size="10.00">HotkeyLib.WindowsHotkey</text>
</a>
</g>
</g>
<!-- Node64&#45;&gt;Node48 -->
<g id="edge5" class="edge">
<title>Node64&#45;&gt;Node48</title>
<path fill="none" stroke="midnightblue" d="M580.6,-338.74C620.92,-345.95 679.5,-356.42 721.8,-363.99"/>
<polygon fill="midnightblue" stroke="midnightblue" points="580.97,-335.25 570.51,-336.94 579.73,-342.14 580.97,-335.25"/>
</g>
<!-- Node42 -->
<g id="node9" class="node">
<title>Node42</title>
<g id="a_node9"><a xlink:href="class_volume_control_1_1_audio_1_1_audio_a_p_i.html" target="_top" xlink:title="Contains methods related to audio devices, sessions, and the underlying selection mechanics responsib...">
<polygon fill="none" stroke="black" points="693,-440 693,-459 859,-459 859,-440 693,-440"/>
<text text-anchor="middle" x="776" y="-447" font-family="Helvetica,sans-Serif" font-size="10.00">VolumeControl.Audio.AudioAPI</text>
</a>
</g>
</g>
<!-- Node64&#45;&gt;Node42 -->
<g id="edge6" class="edge">
<title>Node64&#45;&gt;Node42</title>
<path fill="none" stroke="midnightblue" d="M569.86,-344.01C593.17,-353.94 623.6,-368.91 647,-387.5 666.52,-403 661.61,-417.71 683,-430.5 689.44,-434.35 696.54,-437.43 703.84,-439.89"/>
<polygon fill="midnightblue" stroke="midnightblue" points="570.92,-340.66 560.35,-340.07 568.24,-347.13 570.92,-340.66"/>
</g>
<!-- Node2 -->
<g id="node10" class="node">
<title>Node2</title>
<g id="a_node10"><a xlink:href="class_volume_control_1_1_audio_1_1_audio_device.html" target="_top" xlink:title="Represents an audio device endpoint.">
<polygon fill="none" stroke="black" points="701,-265.5 701,-295.5 851,-295.5 851,-265.5 701,-265.5"/>
<text text-anchor="start" x="709" y="-283.5" font-family="Helvetica,sans-Serif" font-size="10.00">VolumeControl.Audio.Audio</text>
<text text-anchor="middle" x="776" y="-272.5" font-family="Helvetica,sans-Serif" font-size="10.00">Device</text>
</a>
</g>
</g>
<!-- Node64&#45;&gt;Node2 -->
<g id="edge7" class="edge">
<title>Node64&#45;&gt;Node2</title>
<path fill="none" stroke="midnightblue" d="M580.3,-320.98C614.77,-313.81 662.71,-303.85 702.39,-295.6"/>
<polygon fill="midnightblue" stroke="midnightblue" points="579.58,-317.55 570.51,-323.01 581.01,-324.41 579.58,-317.55"/>
</g>
<!-- Node5 -->
<g id="node11" class="node">
<title>Node5</title>
<g id="a_node11"><a xlink:href="class_volume_control_1_1_audio_1_1_audio_session.html" target="_top" xlink:title="Represents an audio session playing on the system.">
<polygon fill="none" stroke="black" points="701,-480.5 701,-510.5 851,-510.5 851,-480.5 701,-480.5"/>
<text text-anchor="start" x="709" y="-498.5" font-family="Helvetica,sans-Serif" font-size="10.00">VolumeControl.Audio.Audio</text>
<text text-anchor="middle" x="776" y="-487.5" font-family="Helvetica,sans-Serif" font-size="10.00">Session</text>
</a>
</g>
</g>
<!-- Node64&#45;&gt;Node5 -->
<g id="edge8" class="edge">
<title>Node64&#45;&gt;Node5</title>
<path fill="none" stroke="midnightblue" d="M575.93,-343.63C599.29,-352.8 627.6,-367.09 647,-387.5 674.14,-416.05 653.36,-442.55 683,-468.5 688.39,-473.21 694.56,-477.11 701.1,-480.32"/>
<polygon fill="midnightblue" stroke="midnightblue" points="576.85,-340.24 566.26,-340.01 574.4,-346.8 576.85,-340.24"/>
</g>
<!-- Node49 -->
<g id="node12" class="node">
<title>Node49</title>
<g id="a_node12"><a xlink:href="class_volume_control_1_1_hotkeys_1_1_bindable_windows_hotkey.html" target="_top" xlink:title=" ">
<polygon fill="none" stroke="black" points="687.5,-314.5 687.5,-344.5 864.5,-344.5 864.5,-314.5 687.5,-314.5"/>
<text text-anchor="start" x="695.5" y="-332.5" font-family="Helvetica,sans-Serif" font-size="10.00">VolumeControl.Hotkeys.Bindable</text>
<text text-anchor="middle" x="776" y="-321.5" font-family="Helvetica,sans-Serif" font-size="10.00">WindowsHotkey</text>
</a>
</g>
</g>
<!-- Node64&#45;&gt;Node49 -->
<g id="edge9" class="edge">
<title>Node64&#45;&gt;Node49</title>
<path fill="none" stroke="midnightblue" d="M580.74,-330.31C610.95,-330.18 651.36,-330.01 687.5,-329.86"/>
<polygon fill="midnightblue" stroke="midnightblue" points="580.49,-326.81 570.51,-330.35 580.52,-333.81 580.49,-326.81"/>
</g>
<!-- Node52 -->
<g id="node13" class="node">
<title>Node52</title>
<g id="a_node13"><a xlink:href="class_volume_control_1_1_hotkeys_1_1_hotkey_manager.html" target="_top" xlink:title="This object is responsible for managing hotkeys at runtime.">
<polygon fill="none" stroke="black" points="691.5,-214.5 691.5,-244.5 860.5,-244.5 860.5,-214.5 691.5,-214.5"/>
<text text-anchor="start" x="699.5" y="-232.5" font-family="Helvetica,sans-Serif" font-size="10.00">VolumeControl.Hotkeys.Hotkey</text>
<text text-anchor="middle" x="776" y="-221.5" font-family="Helvetica,sans-Serif" font-size="10.00">Manager</text>
</a>
</g>
</g>
<!-- Node64&#45;&gt;Node52 -->
<g id="edge10" class="edge">
<title>Node64&#45;&gt;Node52</title>
<path fill="none" stroke="midnightblue" d="M562.65,-316.13C602.25,-295.98 670.92,-261.24 683,-256.5 694.16,-252.12 706.32,-248.07 718.03,-244.51"/>
<polygon fill="midnightblue" stroke="midnightblue" points="560.59,-313.26 553.27,-320.92 563.76,-319.5 560.59,-313.26"/>
</g>
<!-- Node63 -->
<g id="node14" class="node">
<title>Node63</title>
<g id="a_node14"><a xlink:href="class_volume_control_1_1_log_1_1_endpoints_1_1_memory_endpoint.html" target="_top" xlink:title="A log endpoint that implements IEndpoint and uses a MemoryStream as an endpoint.">
<polygon fill="none" stroke="black" points="694.5,-114.5 694.5,-144.5 857.5,-144.5 857.5,-114.5 694.5,-114.5"/>
<text text-anchor="start" x="702.5" y="-132.5" font-family="Helvetica,sans-Serif" font-size="10.00">VolumeControl.Log.Endpoints.</text>
<text text-anchor="middle" x="776" y="-121.5" font-family="Helvetica,sans-Serif" font-size="10.00">MemoryEndpoint</text>
</a>
</g>
</g>
<!-- Node64&#45;&gt;Node63 -->
<g id="edge11" class="edge">
<title>Node64&#45;&gt;Node63</title>
<path fill="none" stroke="midnightblue" d="M578.44,-317.46C601.72,-308.5 629.13,-294.39 647,-273.5 680.72,-234.09 646.9,-199.73 683,-162.5 690.32,-154.95 699.5,-149.12 709.19,-144.62"/>
<polygon fill="midnightblue" stroke="midnightblue" points="576.95,-314.27 568.75,-320.98 579.34,-320.85 576.95,-314.27"/>
</g>
<!-- Node57 -->
<g id="node15" class="node">
<title>Node57</title>
<g id="a_node15"><a xlink:href="class_volume_control_1_1_log_1_1_log_writer.html" target="_top" xlink:title="Basic log writer object.">
<polygon fill="none" stroke="black" points="696.5,-172 696.5,-191 855.5,-191 855.5,-172 696.5,-172"/>
<text text-anchor="middle" x="776" y="-179" font-family="Helvetica,sans-Serif" font-size="10.00">VolumeControl.Log.LogWriter</text>
</a>
</g>
</g>
<!-- Node64&#45;&gt;Node57 -->
<g id="edge12" class="edge">
<title>Node64&#45;&gt;Node57</title>
<path fill="none" stroke="midnightblue" d="M574.47,-317.24C597.83,-307.92 626.63,-293.5 647,-273.5 671.4,-249.54 656.19,-226.72 683,-205.5 691.02,-199.15 700.56,-194.47 710.4,-191.02"/>
<polygon fill="midnightblue" stroke="midnightblue" points="572.92,-314.09 564.83,-320.93 575.42,-320.63 572.92,-314.09"/>
</g>
<!-- Node60 -->
<g id="node16" class="node">
<title>Node60</title>
<g id="a_node16"><a xlink:href="interface_volume_control_1_1_log_1_1_endpoints_1_1_i_endpoint.html" target="_top" xlink:title="Represents an endpoint output target for a log writer, and exposes helper methods for interacting wit...">
<polygon fill="none" stroke="black" points="452,-47.5 452,-77.5 615,-77.5 615,-47.5 452,-47.5"/>
<text text-anchor="start" x="460" y="-65.5" font-family="Helvetica,sans-Serif" font-size="10.00">VolumeControl.Log.Endpoints.</text>
<text text-anchor="middle" x="533.5" y="-54.5" font-family="Helvetica,sans-Serif" font-size="10.00">IEndpoint</text>
</a>
</g>
</g>
<!-- Node60&#45;&gt;Node63 -->
<g id="edge15" class="edge">
<title>Node60&#45;&gt;Node63</title>
<path fill="none" stroke="midnightblue" d="M616.82,-79.81C627.02,-82.24 637.28,-84.83 647,-87.5 675.87,-95.42 707.87,-105.92 732.65,-114.44"/>
<polygon fill="midnightblue" stroke="midnightblue" points="617.61,-76.4 607.08,-77.53 616.02,-83.22 617.61,-76.4"/>
</g>
<!-- Node61 -->
<g id="node17" class="node">
<title>Node61</title>
<g id="a_node17"><a xlink:href="class_volume_control_1_1_log_1_1_endpoints_1_1_console_endpoint.html" target="_top" xlink:title="Allows using the Console as a logging endpoint.">
<polygon fill="none" stroke="black" points="694.5,-0.5 694.5,-30.5 857.5,-30.5 857.5,-0.5 694.5,-0.5"/>
<text text-anchor="start" x="702.5" y="-18.5" font-family="Helvetica,sans-Serif" font-size="10.00">VolumeControl.Log.Endpoints.</text>
<text text-anchor="middle" x="776" y="-7.5" font-family="Helvetica,sans-Serif" font-size="10.00">ConsoleEndpoint</text>
</a>
</g>
</g>
<!-- Node60&#45;&gt;Node61 -->
<g id="edge13" class="edge">
<title>Node60&#45;&gt;Node61</title>
<path fill="none" stroke="midnightblue" d="M621.16,-45.57C646.32,-40.65 673.63,-35.31 698.15,-30.52"/>
<polygon fill="midnightblue" stroke="midnightblue" points="620.4,-42.15 611.26,-47.5 621.74,-49.02 620.4,-42.15"/>
</g>
<!-- Node62 -->
<g id="node18" class="node">
<title>Node62</title>
<g id="a_node18"><a xlink:href="class_volume_control_1_1_log_1_1_endpoints_1_1_file_endpoint.html" target="_top" xlink:title="Log endpoint that allows writing logs directly to a file on disk.">
<polygon fill="none" stroke="black" points="694.5,-49.5 694.5,-79.5 857.5,-79.5 857.5,-49.5 694.5,-49.5"/>
<text text-anchor="start" x="702.5" y="-67.5" font-family="Helvetica,sans-Serif" font-size="10.00">VolumeControl.Log.Endpoints.</text>
<text text-anchor="middle" x="776" y="-56.5" font-family="Helvetica,sans-Serif" font-size="10.00">FileEndpoint</text>
</a>
</g>
</g>
<!-- Node60&#45;&gt;Node62 -->
<g id="edge14" class="edge">
<title>Node60&#45;&gt;Node62</title>
<path fill="none" stroke="midnightblue" d="M625.55,-63.26C648.21,-63.45 672.35,-63.65 694.46,-63.83"/>
<polygon fill="midnightblue" stroke="midnightblue" points="625.28,-59.75 615.25,-63.17 625.22,-66.75 625.28,-59.75"/>
</g>
<!-- Node59 -->
<g id="node19" class="node">
<title>Node59</title>
<g id="a_node19"><a xlink:title=" ">
<polygon fill="none" stroke="#bfbfbf" points="258,-756 258,-775 336,-775 336,-756 258,-756"/>
<text text-anchor="middle" x="297" y="-763" font-family="Helvetica,sans-Serif" font-size="10.00">IEnumerable</text>
</a>
</g>
</g>
<!-- Node59&#45;&gt;Node37 -->
<g id="edge16" class="edge">
<title>Node59&#45;&gt;Node37</title>
<path fill="none" stroke="midnightblue" d="M346.16,-758.93C384.8,-753.65 439,-746.26 478.99,-740.8"/>
<polygon fill="midnightblue" stroke="midnightblue" points="345.63,-755.47 336.2,-760.29 346.58,-762.4 345.63,-755.47"/>
</g>
<!-- Node59&#45;&gt;Node38 -->
<g id="edge17" class="edge">
<title>Node59&#45;&gt;Node38</title>
<path fill="none" stroke="midnightblue" d="M346.26,-759.33C358.99,-756.51 372.39,-752.43 384,-746.5 403.07,-736.77 400.94,-724.25 420,-714.5 428.55,-710.13 437.85,-706.52 447.32,-703.53"/>
<polygon fill="midnightblue" stroke="midnightblue" points="345.37,-755.93 336.25,-761.32 346.74,-762.8 345.37,-755.93"/>
</g>
<!-- Node58 -->
<g id="node20" class="node">
<title>Node58</title>
<g id="a_node20"><a xlink:title=" ">
<polygon fill="none" stroke="#bfbfbf" points="278.5,-718 278.5,-737 315.5,-737 315.5,-718 278.5,-718"/>
<text text-anchor="middle" x="297" y="-725" font-family="Helvetica,sans-Serif" font-size="10.00">IList</text>
</a>
</g>
</g>
<!-- Node58&#45;&gt;Node37 -->
<g id="edge18" class="edge">
<title>Node58&#45;&gt;Node37</title>
<path fill="none" stroke="midnightblue" d="M325.82,-728.21C363.38,-729.17 431.09,-730.91 478.75,-732.12"/>
<polygon fill="midnightblue" stroke="midnightblue" points="325.71,-724.71 315.63,-727.95 325.53,-731.71 325.71,-724.71"/>
</g>
<!-- Node58&#45;&gt;Node38 -->
<g id="edge19" class="edge">
<title>Node58&#45;&gt;Node38</title>
<path fill="none" stroke="midnightblue" d="M325.71,-723.01C355.54,-718.18 404.49,-710.24 447.28,-703.31"/>
<polygon fill="midnightblue" stroke="midnightblue" points="324.94,-719.59 315.63,-724.64 326.06,-726.5 324.94,-719.59"/>
</g>
<!-- Node56 -->
<g id="node21" class="node">
<title>Node56</title>
<g id="a_node21"><a xlink:href="interface_volume_control_1_1_log_1_1_interfaces_1_1_i_log_writer.html" target="_top" xlink:title="Represents a log writer object, which is responsible for exposing logging methods,...">
<polygon fill="none" stroke="black" points="451.5,-96.5 451.5,-126.5 615.5,-126.5 615.5,-96.5 451.5,-96.5"/>
<text text-anchor="start" x="459.5" y="-114.5" font-family="Helvetica,sans-Serif" font-size="10.00">VolumeControl.Log.Interfaces.</text>
<text text-anchor="middle" x="533.5" y="-103.5" font-family="Helvetica,sans-Serif" font-size="10.00">ILogWriter</text>
</a>
</g>
</g>
<!-- Node56&#45;&gt;Node57 -->
<g id="edge20" class="edge">
<title>Node56&#45;&gt;Node57</title>
<path fill="none" stroke="midnightblue" d="M623.62,-129.17C631.6,-131.39 639.49,-133.83 647,-136.5 663.86,-142.49 666.35,-147.96 683,-154.5 700.35,-161.32 720.13,-167.34 736.89,-171.96"/>
<polygon fill="midnightblue" stroke="midnightblue" points="624.44,-125.77 613.87,-126.57 622.63,-132.53 624.44,-125.77"/>
</g>
<!-- Node51 -->
<g id="node22" class="node">
<title>Node51</title>
<g id="a_node22"><a xlink:title=" ">
<polygon fill="none" stroke="#bfbfbf" points="463.5,-146 463.5,-165 603.5,-165 603.5,-146 463.5,-146"/>
<text text-anchor="middle" x="533.5" y="-153" font-family="Helvetica,sans-Serif" font-size="10.00">INotifyCollectionChanged</text>
</a>
</g>
</g>
<!-- Node51&#45;&gt;Node52 -->
<g id="edge21" class="edge">
<title>Node51&#45;&gt;Node52</title>
<path fill="none" stroke="midnightblue" d="M613.66,-165.11C625.08,-167.77 636.51,-171.17 647,-175.5 665.01,-182.93 665.51,-191.92 683,-200.5 693.98,-205.89 706.17,-210.56 718,-214.49"/>
<polygon fill="midnightblue" stroke="midnightblue" points="614.17,-161.64 603.66,-162.96 612.7,-168.49 614.17,-161.64"/>
</g>
<!-- Node45 -->
<g id="node23" class="node">
<title>Node45</title>
<g id="a_node23"><a xlink:title=" ">
<polygon fill="none" stroke="#bfbfbf" points="230.5,-435 230.5,-454 363.5,-454 363.5,-435 230.5,-435"/>
<text text-anchor="middle" x="297" y="-442" font-family="Helvetica,sans-Serif" font-size="10.00">INotifyPropertyChanged</text>
</a>
</g>
</g>
<!-- Node45&#45;&gt;Node44 -->
<g id="edge35" class="edge">
<title>Node45&#45;&gt;Node44</title>
<path fill="none" stroke="midnightblue" d="M309.93,-462.68C329.29,-490.41 370.4,-542.5 420,-565.5 502.93,-603.95 608.38,-608.35 682.74,-605.19"/>
<polygon fill="midnightblue" stroke="midnightblue" points="312.74,-460.58 304.22,-454.28 306.95,-464.52 312.74,-460.58"/>
</g>
<!-- Node45&#45;&gt;Node38 -->
<g id="edge36" class="edge">
<title>Node45&#45;&gt;Node38</title>
<path fill="none" stroke="midnightblue" d="M310.5,-462.84C328.06,-488.98 360.48,-538.76 384,-583.5 402.52,-618.73 389.14,-640.36 420,-665.5 428.05,-672.06 437.47,-676.94 447.38,-680.56"/>
<polygon fill="midnightblue" stroke="midnightblue" points="313.25,-460.66 304.76,-454.33 307.45,-464.58 313.25,-460.66"/>
</g>
<!-- Node45&#45;&gt;Node48 -->
<g id="edge26" class="edge">
<title>Node45&#45;&gt;Node48</title>
<path fill="none" stroke="midnightblue" d="M322.16,-429.67C346.03,-415.89 384.1,-396.22 420,-387.5 515.6,-364.28 629.88,-364.56 702.45,-368.07"/>
<polygon fill="midnightblue" stroke="midnightblue" points="320.27,-426.72 313.44,-434.81 323.83,-432.75 320.27,-426.72"/>
</g>
<!-- Node45&#45;&gt;Node42 -->
<g id="edge27" class="edge">
<title>Node45&#45;&gt;Node42</title>
<path fill="none" stroke="midnightblue" d="M373.89,-445.3C460.91,-446.21 603.04,-447.7 692.67,-448.64"/>
<polygon fill="midnightblue" stroke="midnightblue" points="373.86,-441.8 363.82,-445.19 373.79,-448.79 373.86,-441.8"/>
</g>
<!-- Node45&#45;&gt;Node2 -->
<g id="edge28" class="edge">
<title>Node45&#45;&gt;Node2</title>
<path fill="none" stroke="midnightblue" d="M308.42,-426.26C326.66,-396.29 367.5,-337.37 420,-311.5 467.73,-287.98 611.57,-282.07 700.83,-280.73"/>
<polygon fill="midnightblue" stroke="midnightblue" points="305.39,-424.51 303.3,-434.9 311.41,-428.08 305.39,-424.51"/>
</g>
<!-- Node45&#45;&gt;Node5 -->
<g id="edge29" class="edge">
<title>Node45&#45;&gt;Node5</title>
<path fill="none" stroke="midnightblue" d="M373.74,-454.82C389.04,-456.79 405.03,-458.78 420,-460.5 516.9,-471.63 628.94,-482.31 700.81,-488.89"/>
<polygon fill="midnightblue" stroke="midnightblue" points="374.17,-451.34 363.8,-453.52 373.26,-458.29 374.17,-451.34"/>
</g>
<!-- Node46 -->
<g id="node24" class="node">
<title>Node46</title>
<g id="a_node24"><a xlink:href="interface_hotkey_lib_1_1_i_key_combo.html" target="_top" xlink:title="Represents a combination of one keyboard key and any number of modifier keys.">
<polygon fill="none" stroke="black" points="471.5,-397 471.5,-416 595.5,-416 595.5,-397 471.5,-397"/>
<text text-anchor="middle" x="533.5" y="-404" font-family="Helvetica,sans-Serif" font-size="10.00">HotkeyLib.IKeyCombo</text>
</a>
</g>
</g>
<!-- Node45&#45;&gt;Node46 -->
<g id="edge22" class="edge">
<title>Node45&#45;&gt;Node46</title>
<path fill="none" stroke="midnightblue" d="M367.15,-433.3C400.97,-427.81 441.26,-421.28 473.6,-416.04"/>
<polygon fill="midnightblue" stroke="midnightblue" points="366.18,-429.91 356.87,-434.96 367.3,-436.82 366.18,-429.91"/>
</g>
<!-- Node1 -->
<g id="node26" class="node">
<title>Node1</title>
<g id="a_node26"><a xlink:href="interface_volume_control_1_1_audio_1_1_interfaces_1_1_i_device.html" target="_top" xlink:title="Represents an audio device.">
<polygon fill="none" stroke="black" points="446.5,-184.5 446.5,-214.5 620.5,-214.5 620.5,-184.5 446.5,-184.5"/>
<text text-anchor="start" x="454.5" y="-202.5" font-family="Helvetica,sans-Serif" font-size="10.00">VolumeControl.Audio.Interfaces.</text>
<text text-anchor="middle" x="533.5" y="-191.5" font-family="Helvetica,sans-Serif" font-size="10.00">IDevice</text>
</a>
</g>
</g>
<!-- Node45&#45;&gt;Node1 -->
<g id="edge30" class="edge">
<title>Node45&#45;&gt;Node1</title>
<path fill="none" stroke="midnightblue" d="M311.99,-426.67C330.25,-402.81 362.43,-358.71 384,-317.5 404.56,-278.23 386.39,-253.39 420,-224.5 427.66,-217.91 436.68,-212.95 446.22,-209.23"/>
<polygon fill="midnightblue" stroke="midnightblue" points="309.07,-424.73 305.72,-434.78 314.61,-429.01 309.07,-424.73"/>
</g>
<!-- Node4 -->
<g id="node27" class="node">
<title>Node4</title>
<g id="a_node27"><a xlink:href="interface_volume_control_1_1_audio_1_1_interfaces_1_1_i_session.html" target="_top" xlink:title="Represents an audio session.">
<polygon fill="none" stroke="black" points="446.5,-625.5 446.5,-655.5 620.5,-655.5 620.5,-625.5 446.5,-625.5"/>
<text text-anchor="start" x="454.5" y="-643.5" font-family="Helvetica,sans-Serif" font-size="10.00">VolumeControl.Audio.Interfaces.</text>
<text text-anchor="middle" x="533.5" y="-632.5" font-family="Helvetica,sans-Serif" font-size="10.00">ISession</text>
</a>
</g>
</g>
<!-- Node45&#45;&gt;Node4 -->
<g id="edge32" class="edge">
<title>Node45&#45;&gt;Node4</title>
<path fill="none" stroke="midnightblue" d="M313.51,-461.73C331.42,-482.02 361.35,-517.07 384,-549.5 402.03,-575.31 394.92,-591.47 420,-610.5 428.13,-616.67 437.43,-621.57 447.13,-625.47"/>
<polygon fill="midnightblue" stroke="midnightblue" points="316.09,-459.38 306.83,-454.23 310.87,-464.03 316.09,-459.38"/>
</g>
<!-- Node43 -->
<g id="node28" class="node">
<title>Node43</title>
<g id="a_node28"><a xlink:href="class_volume_control_1_1_core_1_1_helpers_1_1_v_c_settings_container.html" target="_top" xlink:title="Responsible for containing the runtime state settings.">
<polygon fill="none" stroke="black" points="697,-531.5 697,-561.5 855,-561.5 855,-531.5 697,-531.5"/>
<text text-anchor="start" x="705" y="-549.5" font-family="Helvetica,sans-Serif" font-size="10.00">VolumeControl.Core.Helpers.</text>
<text text-anchor="middle" x="776" y="-538.5" font-family="Helvetica,sans-Serif" font-size="10.00">VCSettingsContainer</text>
</a>
</g>
</g>
<!-- Node45&#45;&gt;Node43 -->
<g id="edge34" class="edge">
<title>Node45&#45;&gt;Node43</title>
<path fill="none" stroke="midnightblue" d="M313.13,-461.78C334.34,-484.58 375.38,-523.68 420,-539.5 510.78,-571.68 623,-567.19 696.66,-558.8"/>
<polygon fill="midnightblue" stroke="midnightblue" points="315.55,-459.24 306.23,-454.18 310.36,-463.94 315.55,-459.24"/>
</g>
<!-- Node50 -->
<g id="node29" class="node">
<title>Node50</title>
<g id="a_node29"><a xlink:href="class_volume_control_1_1_w_p_f_1_1_collections_1_1_bindable_event_type_1_1_bindable_event_type_flag.html" target="_top" xlink:title="This represents a single flag value of the EventType enum.">
<polygon fill="none" stroke="black" points="420,-233.5 420,-263.5 647,-263.5 647,-233.5 420,-233.5"/>
<text text-anchor="start" x="428" y="-251.5" font-family="Helvetica,sans-Serif" font-size="10.00">VolumeControl.WPF.Collections.</text>
<text text-anchor="middle" x="533.5" y="-240.5" font-family="Helvetica,sans-Serif" font-size="10.00">BindableEventType.BindableEventTypeFlag</text>
</a>
</g>
</g>
<!-- Node45&#45;&gt;Node50 -->
<g id="edge37" class="edge">
<title>Node45&#45;&gt;Node50</title>
<path fill="none" stroke="midnightblue" d="M310.29,-426.4C338.2,-385.49 405.13,-288.65 420,-278.5 429.02,-272.35 439.23,-267.46 449.75,-263.57"/>
<polygon fill="midnightblue" stroke="midnightblue" points="307.25,-424.64 304.52,-434.88 313.04,-428.58 307.25,-424.64"/>
</g>
<!-- Node46&#45;&gt;Node48 -->
<g id="edge24" class="edge">
<title>Node46&#45;&gt;Node48</title>
<path fill="none" stroke="midnightblue" d="M605.86,-396.71C637.42,-392.38 674.41,-387.3 705.73,-383.01"/>
<polygon fill="midnightblue" stroke="midnightblue" points="605.24,-393.26 595.81,-398.09 606.19,-400.2 605.24,-393.26"/>
</g>
<!-- Node46&#45;&gt;Node49 -->
<g id="edge25" class="edge">
<title>Node46&#45;&gt;Node49</title>
<path fill="none" stroke="midnightblue" d="M569.65,-393.4C599.59,-382.42 643.86,-366.65 683,-354.5 693.91,-351.11 705.62,-347.74 716.91,-344.61"/>
<polygon fill="midnightblue" stroke="midnightblue" points="568.24,-390.18 560.07,-396.92 570.66,-396.75 568.24,-390.18"/>
</g>
<!-- Node47 -->
<g id="node25" class="node">
<title>Node47</title>
<g id="a_node25"><a xlink:href="struct_hotkey_lib_1_1_key_combo.html" target="_top" xlink:title="Represents a combination of one keyboard key and any number of modifier keys.">
<polygon fill="none" stroke="black" points="715.5,-402 715.5,-421 836.5,-421 836.5,-402 715.5,-402"/>
<text text-anchor="middle" x="776" y="-409" font-family="Helvetica,sans-Serif" font-size="10.00">HotkeyLib.KeyCombo</text>
</a>
</g>
</g>
<!-- Node46&#45;&gt;Node47 -->
<g id="edge23" class="edge">
<title>Node46&#45;&gt;Node47</title>
<path fill="none" stroke="midnightblue" d="M605.94,-407.99C640.82,-408.71 682.32,-409.57 715.46,-410.26"/>
<polygon fill="midnightblue" stroke="midnightblue" points="605.88,-404.48 595.81,-407.77 605.74,-411.48 605.88,-404.48"/>
</g>
<!-- Node1&#45;&gt;Node2 -->
<g id="edge31" class="edge">
<title>Node1&#45;&gt;Node2</title>
<path fill="none" stroke="midnightblue" d="M630.44,-217.47C636.14,-219.57 641.71,-221.9 647,-224.5 665.69,-233.68 664.58,-244.79 683,-254.5 691.08,-258.76 699.93,-262.38 708.85,-265.46"/>
<polygon fill="midnightblue" stroke="midnightblue" points="631.33,-214.08 620.73,-214.18 629.07,-220.71 631.33,-214.08"/>
</g>
<!-- Node4&#45;&gt;Node5 -->
<g id="edge33" class="edge">
<title>Node4&#45;&gt;Node5</title>
<path fill="none" stroke="midnightblue" d="M557.04,-617.89C584.54,-591.49 633.51,-548.17 683,-522.5 691.87,-517.9 701.63,-513.98 711.38,-510.66"/>
<polygon fill="midnightblue" stroke="midnightblue" points="554.27,-615.7 549.54,-625.18 559.15,-620.72 554.27,-615.7"/>
</g>
<!-- Node41 -->
<g id="node30" class="node">
<title>Node41</title>
<g id="a_node30"><a xlink:title=" ">
<polygon fill="none" stroke="#bfbfbf" points="465.5,-511 465.5,-530 601.5,-530 601.5,-511 465.5,-511"/>
<text text-anchor="middle" x="533.5" y="-518" font-family="Helvetica,sans-Serif" font-size="10.00">INotifyPropertyChanging</text>
</a>
</g>
</g>
<!-- Node41&#45;&gt;Node44 -->
<g id="edge41" class="edge">
<title>Node41&#45;&gt;Node44</title>
<path fill="none" stroke="midnightblue" d="M570.21,-533.5C600.16,-544.22 644.14,-559.56 683,-571.5 694.08,-574.9 705.97,-578.31 717.41,-581.47"/>
<polygon fill="midnightblue" stroke="midnightblue" points="571.21,-530.14 560.62,-530.05 568.84,-536.73 571.21,-530.14"/>
</g>
<!-- Node41&#45;&gt;Node42 -->
<g id="edge38" class="edge">
<title>Node41&#45;&gt;Node42</title>
<path fill="none" stroke="midnightblue" d="M570.71,-507.61C600.61,-497.19 644.29,-482.5 683,-471.5 698.8,-467.01 716.29,-462.67 731.75,-459.05"/>
<polygon fill="midnightblue" stroke="midnightblue" points="569.4,-504.36 561.12,-510.97 571.71,-510.96 569.4,-504.36"/>
</g>
<!-- Node41&#45;&gt;Node5 -->
<g id="edge39" class="edge">
<title>Node41&#45;&gt;Node5</title>
<path fill="none" stroke="midnightblue" d="M612.13,-512.43C640.62,-509.47 672.78,-506.13 700.95,-503.2"/>
<polygon fill="midnightblue" stroke="midnightblue" points="611.4,-508.99 601.81,-513.5 612.12,-515.95 611.4,-508.99"/>
</g>
<!-- Node41&#45;&gt;Node43 -->
<g id="edge40" class="edge">
<title>Node41&#45;&gt;Node43</title>
<path fill="none" stroke="midnightblue" d="M612.01,-528.88C639.09,-531.81 669.5,-535.09 696.64,-538.03"/>
<polygon fill="midnightblue" stroke="midnightblue" points="612.13,-525.37 601.81,-527.78 611.38,-532.33 612.13,-525.37"/>
</g>
<!-- Node39 -->
<g id="node31" class="node">
<title>Node39</title>
<g id="a_node31"><a xlink:title=" ">
<polygon fill="none" stroke="#bfbfbf" points="239,-680 239,-699 355,-699 355,-680 239,-680"/>
<text text-anchor="middle" x="297" y="-687" font-family="Helvetica,sans-Serif" font-size="10.00">IReadOnlyCollection</text>
</a>
</g>
</g>
<!-- Node39&#45;&gt;Node37 -->
<g id="edge42" class="edge">
<title>Node39&#45;&gt;Node37</title>
<path fill="none" stroke="midnightblue" d="M352.59,-701.11C373.63,-705.47 397.9,-710.37 420,-714.5 439.18,-718.08 460.25,-721.72 478.93,-724.84"/>
<polygon fill="midnightblue" stroke="midnightblue" points="353.05,-697.63 342.54,-699.02 351.62,-704.48 353.05,-697.63"/>
</g>
<!-- Node39&#45;&gt;Node38 -->
<g id="edge43" class="edge">
<title>Node39&#45;&gt;Node38</title>
<path fill="none" stroke="midnightblue" d="M365.37,-689.5C390.86,-689.5 420.22,-689.5 447.15,-689.5"/>
<polygon fill="midnightblue" stroke="midnightblue" points="365.07,-686 355.07,-689.5 365.07,-693 365.07,-686"/>
</g>
<!-- Node36 -->
<g id="node32" class="node">
<title>Node36</title>
<g id="a_node32"><a xlink:title=" ">
<polygon fill="none" stroke="#bfbfbf" points="255,-642 255,-661 339,-661 339,-642 255,-642"/>
<text text-anchor="middle" x="297" y="-649" font-family="Helvetica,sans-Serif" font-size="10.00">IReadOnlyList</text>
</a>
</g>
</g>
<!-- Node36&#45;&gt;Node37 -->
<g id="edge44" class="edge">
<title>Node36&#45;&gt;Node37</title>
<path fill="none" stroke="midnightblue" d="M349.07,-656.96C361.13,-659.79 373.52,-664.06 384,-670.5 405.52,-683.73 398.15,-701.81 420,-714.5 437.64,-724.75 459.3,-729.82 478.89,-732.23"/>
<polygon fill="midnightblue" stroke="midnightblue" points="349.56,-653.49 339.06,-654.91 348.15,-660.34 349.56,-653.49"/>
</g>
<!-- Node36&#45;&gt;Node38 -->
<g id="edge45" class="edge">
<title>Node36&#45;&gt;Node38</title>
<path fill="none" stroke="midnightblue" d="M349.29,-659.81C377.93,-664.45 414.35,-670.35 447.16,-675.67"/>
<polygon fill="midnightblue" stroke="midnightblue" points="349.55,-656.31 339.12,-658.16 348.43,-663.22 349.55,-656.31"/>
</g>
<!-- Node0 -->
<g id="node33" class="node">
<title>Node0</title>
<g id="a_node33"><a xlink:href="interface_volume_control_1_1_audio_1_1_interfaces_1_1_i_targetable.html" target="_top" xlink:title="Base interface type for IDevice and IProcess/ISession.">
<polygon fill="none" stroke="black" points="0,-548.5 0,-578.5 174,-578.5 174,-548.5 0,-548.5"/>
<text text-anchor="start" x="8" y="-566.5" font-family="Helvetica,sans-Serif" font-size="10.00">VolumeControl.Audio.Interfaces.</text>
<text text-anchor="middle" x="87" y="-555.5" font-family="Helvetica,sans-Serif" font-size="10.00">ITargetable</text>
</a>
</g>
</g>
<!-- Node0&#45;&gt;Node1 -->
<g id="edge46" class="edge">
<title>Node0&#45;&gt;Node1</title>
<path fill="none" stroke="midnightblue" d="M103.41,-539.68C145.57,-476.64 269.76,-304.85 420,-224.5 428.2,-220.11 437.14,-216.49 446.27,-213.51"/>
<polygon fill="midnightblue" stroke="midnightblue" points="100.39,-537.89 97.79,-548.16 106.23,-541.76 100.39,-537.89"/>
</g>
<!-- Node0&#45;&gt;Node4 -->
<g id="edge49" class="edge">
<title>Node0&#45;&gt;Node4</title>
<path fill="none" stroke="midnightblue" d="M184.38,-556.37C243.71,-555.27 320.32,-559.86 384,-583.5 402.75,-590.46 402.01,-601.76 420,-610.5 432.36,-616.5 446.1,-621.44 459.6,-625.44"/>
<polygon fill="midnightblue" stroke="midnightblue" points="184.17,-552.88 174.26,-556.62 184.34,-559.87 184.17,-552.88"/>
</g>
<!-- Node3 -->
<g id="node34" class="node">
<title>Node3</title>
<g id="a_node34"><a xlink:href="interface_volume_control_1_1_audio_1_1_interfaces_1_1_i_process.html" target="_top" xlink:title="Represents read&#45;only information about a process running on the local system.">
<polygon fill="none" stroke="black" points="210,-592.5 210,-622.5 384,-622.5 384,-592.5 210,-592.5"/>
<text text-anchor="start" x="218" y="-610.5" font-family="Helvetica,sans-Serif" font-size="10.00">VolumeControl.Audio.Interfaces.</text>
<text text-anchor="middle" x="297" y="-599.5" font-family="Helvetica,sans-Serif" font-size="10.00">IProcess</text>
</a>
</g>
</g>
<!-- Node0&#45;&gt;Node3 -->
<g id="edge47" class="edge">
<title>Node0&#45;&gt;Node3</title>
<path fill="none" stroke="midnightblue" d="M168.86,-580.61C187.37,-584.52 206.91,-588.65 224.97,-592.47"/>
<polygon fill="midnightblue" stroke="midnightblue" points="169.51,-577.16 159,-578.52 168.06,-584.01 169.51,-577.16"/>
</g>
<!-- Node3&#45;&gt;Node4 -->
<g id="edge48" class="edge">
<title>Node3&#45;&gt;Node4</title>
<path fill="none" stroke="midnightblue" d="M394.38,-621.06C411.6,-623.49 429.45,-626 446.36,-628.38"/>
<polygon fill="midnightblue" stroke="midnightblue" points="394.71,-617.58 384.32,-619.65 393.73,-624.51 394.71,-617.58"/>
</g>
</g>
</svg>
