<?xml version="1.0" encoding="UTF-8" standalone="no"?>
<!DOCTYPE svg PUBLIC "-//W3C//DTD SVG 1.1//EN"
 "http://www.w3.org/Graphics/SVG/1.1/DTD/svg11.dtd">
<!-- Generated by graphviz version 2.43.0 (0)
 -->
<!-- Title: Graphical Class Hierarchy Pages: 1 -->
<svg width="877pt" height="1279pt"
 viewBox="0.00 0.00 877.00 1278.78" xmlns="http://www.w3.org/2000/svg" xmlns:xlink="http://www.w3.org/1999/xlink">
<g id="graph0" class="graph" transform="scale(1 1) rotate(0) translate(4 1274.78)">
<title>Graphical Class Hierarchy</title>
<!-- Node86 -->
<g id="node1" class="node">
<title>Node86</title>
<g id="a_node1"><a xlink:href="interface_volume_control_1_1_core_1_1_i_base_addon.html" target="_top" xlink:title="Represents an addon object. &#160;You can&#39;t directly implement this interface; inherit from the abstract c...">
<polygon fill="none" stroke="black" points="461.5,-804.5 461.5,-834.5 605.5,-834.5 605.5,-804.5 461.5,-804.5"/>
<text text-anchor="start" x="469.5" y="-822.5" font-family="Helvetica,sans-Serif" font-size="10.00">VolumeControl.Core.IBase</text>
<text text-anchor="middle" x="533.5" y="-811.5" font-family="Helvetica,sans-Serif" font-size="10.00">Addon</text>
</a>
</g>
</g>
<!-- Node87 -->
<g id="node2" class="node">
<title>Node87</title>
<g id="a_node2"><a xlink:href="class_volume_control_1_1_core_1_1_base_addon.html" target="_top" xlink:title="abstract base class for an object that manages an addon.">
<polygon fill="none" stroke="black" points="690,-810 690,-829 862,-829 862,-810 690,-810"/>
<text text-anchor="middle" x="776" y="-817" font-family="Helvetica,sans-Serif" font-size="10.00">VolumeControl.Core.BaseAddon</text>
</a>
</g>
</g>
<!-- Node86&#45;&gt;Node87 -->
<g id="edge1" class="edge">
<title>Node86&#45;&gt;Node87</title>
<path fill="none" stroke="midnightblue" d="M615.77,-819.5C639.67,-819.5 665.86,-819.5 689.99,-819.5"/>
<polygon fill="midnightblue" stroke="midnightblue" points="615.68,-816 605.68,-819.5 615.68,-823 615.68,-816"/>
</g>
<!-- Node56 -->
<g id="node3" class="node">
<title>Node56</title>
<g id="a_node3"><a xlink:href="interface_volume_control_1_1_hotkeys_1_1_interfaces_1_1_i_hotkey_action_manager.html" target="_top" xlink:title="Represents a hotkey action manager object, which contains the list of IActionBindings used in the hot...">
<polygon fill="none" stroke="black" points="683,-760.5 683,-790.5 869,-790.5 869,-760.5 683,-760.5"/>
<text text-anchor="start" x="691" y="-778.5" font-family="Helvetica,sans-Serif" font-size="10.00">VolumeControl.Hotkeys.Interfaces.</text>
<text text-anchor="middle" x="776" y="-767.5" font-family="Helvetica,sans-Serif" font-size="10.00">IHotkeyActionManager</text>
</a>
</g>
</g>
<!-- Node86&#45;&gt;Node56 -->
<g id="edge2" class="edge">
<title>Node86&#45;&gt;Node56</title>
<path fill="none" stroke="midnightblue" d="M615.81,-804.62C640.7,-800.07 668.08,-795.06 693.01,-790.5"/>
<polygon fill="midnightblue" stroke="midnightblue" points="614.89,-801.23 605.68,-806.48 616.15,-808.12 614.89,-801.23"/>
</g>
<!-- Node82 -->
<g id="node4" class="node">
<title>Node82</title>
<g id="a_node4"><a xlink:title=" ">
<polygon fill="none" stroke="#bfbfbf" points="499.5,-930 499.5,-949 567.5,-949 567.5,-930 499.5,-930"/>
<text text-anchor="middle" x="533.5" y="-937" font-family="Helvetica,sans-Serif" font-size="10.00">ICollection</text>
</a>
</g>
</g>
<!-- Node46 -->
<g id="node5" class="node">
<title>Node46</title>
<g id="a_node5"><a xlink:href="class_hotkey_lib_1_1_keys_list.html" target="_top" xlink:title="This is a simple list wrapper that is available as an items source for data bindings.">
<polygon fill="none" stroke="black" points="721.5,-1009 721.5,-1028 830.5,-1028 830.5,-1009 721.5,-1009"/>
<text text-anchor="middle" x="776" y="-1016" font-family="Helvetica,sans-Serif" font-size="10.00">HotkeyLib.KeysList</text>
</a>
</g>
</g>
<!-- Node82&#45;&gt;Node46 -->
<g id="edge3" class="edge">
<title>Node82&#45;&gt;Node46</title>
<path fill="none" stroke="midnightblue" d="M577.91,-940.15C599.78,-942.09 626.02,-946.97 647,-958.5 667.96,-970.02 662.32,-986.49 683,-998.5 694.59,-1005.23 708.2,-1009.7 721.34,-1012.67"/>
<polygon fill="midnightblue" stroke="midnightblue" points="578.12,-936.66 567.89,-939.44 577.62,-943.64 578.12,-936.66"/>
</g>
<!-- Node47 -->
<g id="node6" class="node">
<title>Node47</title>
<g id="a_node6"><a xlink:href="class_observable_immutable_1_1_observable_immutable_list.html" target="_top" xlink:title=" ">
<polygon fill="none" stroke="black" points="684,-1076.5 684,-1106.5 868,-1106.5 868,-1076.5 684,-1076.5"/>
<text text-anchor="start" x="692" y="-1094.5" font-family="Helvetica,sans-Serif" font-size="10.00">ObservableImmutable.Observable</text>
<text text-anchor="middle" x="776" y="-1083.5" font-family="Helvetica,sans-Serif" font-size="10.00">ImmutableList&lt; T &gt;</text>
</a>
</g>
</g>
<!-- Node82&#45;&gt;Node47 -->
<g id="edge4" class="edge">
<title>Node82&#45;&gt;Node47</title>
<path fill="none" stroke="midnightblue" d="M577.61,-937.5C600.33,-938.57 627.46,-943.48 647,-958.5 677.59,-982.01 657.16,-1008.85 683,-1037.5 698.13,-1054.28 719.74,-1067.33 738.21,-1076.4"/>
<polygon fill="midnightblue" stroke="midnightblue" points="577.61,-933.99 567.53,-937.25 577.44,-940.99 577.61,-933.99"/>
</g>
<!-- Node48 -->
<g id="node7" class="node">
<title>Node48</title>
<g id="a_node7"><a xlink:href="class_volume_control_1_1_w_p_f_1_1_collections_1_1_bindable_event_type.html" target="_top" xlink:title="Provides the source for a WPF list component&#39;s ItemsSource property to expose a readable and writable...">
<polygon fill="none" stroke="black" points="690,-959.5 690,-989.5 862,-989.5 862,-959.5 690,-959.5"/>
<text text-anchor="start" x="698" y="-977.5" font-family="Helvetica,sans-Serif" font-size="10.00">VolumeControl.WPF.Collections.</text>
<text text-anchor="middle" x="776" y="-966.5" font-family="Helvetica,sans-Serif" font-size="10.00">BindableEventType</text>
</a>
</g>
</g>
<!-- Node82&#45;&gt;Node48 -->
<g id="edge5" class="edge">
<title>Node82&#45;&gt;Node48</title>
<path fill="none" stroke="midnightblue" d="M577.77,-945.8C608.93,-950.33 651.97,-956.6 689.9,-962.12"/>
<polygon fill="midnightblue" stroke="midnightblue" points="578.09,-942.31 567.69,-944.33 577.08,-949.23 578.09,-942.31"/>
</g>
<!-- Node79 -->
<g id="node8" class="node">
<title>Node79</title>
<g id="a_node8"><a xlink:title=" ">
<polygon fill="none" stroke="#bfbfbf" points="496.5,-374 496.5,-393 570.5,-393 570.5,-374 496.5,-374"/>
<text text-anchor="middle" x="533.5" y="-381" font-family="Helvetica,sans-Serif" font-size="10.00">IDisposable</text>
</a>
</g>
</g>
<!-- Node52 -->
<g id="node9" class="node">
<title>Node52</title>
<g id="a_node9"><a xlink:href="class_hotkey_lib_1_1_windows_hotkey.html" target="_top" xlink:title="A simple Windows hotkey.">
<polygon fill="none" stroke="black" points="702.5,-623 702.5,-642 849.5,-642 849.5,-623 702.5,-623"/>
<text text-anchor="middle" x="776" y="-630" font-family="Helvetica,sans-Serif" font-size="10.00">HotkeyLib.WindowsHotkey</text>
</a>
</g>
</g>
<!-- Node79&#45;&gt;Node52 -->
<g id="edge6" class="edge">
<title>Node79&#45;&gt;Node52</title>
<path fill="none" stroke="midnightblue" d="M580.73,-379.64C603.61,-380.33 629.91,-385.46 647,-402.5 714.04,-469.38 617.54,-544.07 683,-612.5 688.42,-618.17 695.05,-622.42 702.23,-625.57"/>
<polygon fill="midnightblue" stroke="midnightblue" points="580.52,-376.14 570.5,-379.61 580.49,-383.14 580.52,-376.14"/>
</g>
<!-- Node53 -->
<g id="node10" class="node">
<title>Node53</title>
<g id="a_node10"><a xlink:href="class_volume_control_1_1_audio_1_1_audio_a_p_i.html" target="_top" xlink:title="Contains methods related to audio devices, sessions, and the underlying selection mechanics responsib...">
<polygon fill="none" stroke="black" points="693,-535 693,-554 859,-554 859,-535 693,-535"/>
<text text-anchor="middle" x="776" y="-542" font-family="Helvetica,sans-Serif" font-size="10.00">VolumeControl.Audio.AudioAPI</text>
</a>
</g>
</g>
<!-- Node79&#45;&gt;Node53 -->
<g id="edge7" class="edge">
<title>Node79&#45;&gt;Node53</title>
<path fill="none" stroke="midnightblue" d="M580.91,-381.19C603.09,-382.43 628.72,-387.58 647,-402.5 681.34,-430.52 653.6,-462.34 683,-495.5 699.69,-514.32 725.38,-527.15 745.37,-534.94"/>
<polygon fill="midnightblue" stroke="midnightblue" points="580.78,-377.69 570.67,-380.87 580.56,-384.68 580.78,-377.69"/>
</g>
<!-- Node2 -->
<g id="node11" class="node">
<title>Node2</title>
<g id="a_node11"><a xlink:href="class_volume_control_1_1_audio_1_1_audio_device.html" target="_top" xlink:title="Represents an audio device endpoint.">
<polygon fill="none" stroke="black" points="701,-263.5 701,-293.5 851,-293.5 851,-263.5 701,-263.5"/>
<text text-anchor="start" x="709" y="-281.5" font-family="Helvetica,sans-Serif" font-size="10.00">VolumeControl.Audio.Audio</text>
<text text-anchor="middle" x="776" y="-270.5" font-family="Helvetica,sans-Serif" font-size="10.00">Device</text>
</a>
</g>
</g>
<!-- Node79&#45;&gt;Node2 -->
<g id="edge8" class="edge">
<title>Node79&#45;&gt;Node2</title>
<path fill="none" stroke="midnightblue" d="M565.08,-369.73C595.05,-356.27 642.08,-335.27 683,-317.5 701.46,-309.49 722.08,-300.73 739.11,-293.54"/>
<polygon fill="midnightblue" stroke="midnightblue" points="563.28,-366.69 555.6,-373.99 566.15,-373.08 563.28,-366.69"/>
</g>
<!-- Node5 -->
<g id="node12" class="node">
<title>Node5</title>
<g id="a_node12"><a xlink:href="class_volume_control_1_1_audio_1_1_audio_session.html" target="_top" xlink:title="Represents an audio session playing on the system.">
<polygon fill="none" stroke="black" points="701,-327.5 701,-357.5 851,-357.5 851,-327.5 701,-327.5"/>
<text text-anchor="start" x="709" y="-345.5" font-family="Helvetica,sans-Serif" font-size="10.00">VolumeControl.Audio.Audio</text>
<text text-anchor="middle" x="776" y="-334.5" font-family="Helvetica,sans-Serif" font-size="10.00">Session</text>
</a>
</g>
</g>
<!-- Node79&#45;&gt;Node5 -->
<g id="edge9" class="edge">
<title>Node79&#45;&gt;Node5</title>
<path fill="none" stroke="midnightblue" d="M580.62,-375.64C614.64,-369.84 661.64,-361.83 700.9,-355.13"/>
<polygon fill="midnightblue" stroke="midnightblue" points="579.77,-372.23 570.51,-377.36 580.95,-379.13 579.77,-372.23"/>
</g>
<!-- Node55 -->
<g id="node13" class="node">
<title>Node55</title>
<g id="a_node13"><a xlink:href="class_volume_control_1_1_hotkeys_1_1_bindable_windows_hotkey.html" target="_top" xlink:title="This is a wrapper object around HotkeyLib.WindowsHotkey that is designed for data binding.">
<polygon fill="none" stroke="black" points="687.5,-661.5 687.5,-691.5 864.5,-691.5 864.5,-661.5 687.5,-661.5"/>
<text text-anchor="start" x="695.5" y="-679.5" font-family="Helvetica,sans-Serif" font-size="10.00">VolumeControl.Hotkeys.Bindable</text>
<text text-anchor="middle" x="776" y="-668.5" font-family="Helvetica,sans-Serif" font-size="10.00">WindowsHotkey</text>
</a>
</g>
</g>
<!-- Node79&#45;&gt;Node55 -->
<g id="edge10" class="edge">
<title>Node79&#45;&gt;Node55</title>
<path fill="none" stroke="midnightblue" d="M580.91,-379.46C603.84,-380.1 630.14,-385.23 647,-402.5 725.12,-482.5 608.89,-567.77 683,-651.5 686.4,-655.34 690.33,-658.62 694.6,-661.41"/>
<polygon fill="midnightblue" stroke="midnightblue" points="580.66,-375.96 570.66,-379.45 580.66,-382.96 580.66,-375.96"/>
</g>
<!-- Node61 -->
<g id="node14" class="node">
<title>Node61</title>
<g id="a_node14"><a xlink:href="class_volume_control_1_1_hotkeys_1_1_hotkey_manager.html" target="_top" xlink:title="This object is responsible for managing hotkeys at runtime.">
<polygon fill="none" stroke="black" points="691.5,-456.5 691.5,-486.5 860.5,-486.5 860.5,-456.5 691.5,-456.5"/>
<text text-anchor="start" x="699.5" y="-474.5" font-family="Helvetica,sans-Serif" font-size="10.00">VolumeControl.Hotkeys.Hotkey</text>
<text text-anchor="middle" x="776" y="-463.5" font-family="Helvetica,sans-Serif" font-size="10.00">Manager</text>
</a>
</g>
</g>
<!-- Node79&#45;&gt;Node61 -->
<g id="edge11" class="edge">
<title>Node79&#45;&gt;Node61</title>
<path fill="none" stroke="midnightblue" d="M580.82,-387.86C601.46,-390.68 625.85,-395.23 647,-402.5 686.16,-415.95 727.68,-440.48 752.46,-456.38"/>
<polygon fill="midnightblue" stroke="midnightblue" points="581.07,-384.37 570.71,-386.58 580.19,-391.31 581.07,-384.37"/>
</g>
<!-- Node78 -->
<g id="node15" class="node">
<title>Node78</title>
<g id="a_node15"><a xlink:href="class_volume_control_1_1_log_1_1_endpoints_1_1_memory_endpoint.html" target="_top" xlink:title="A log endpoint that implements IEndpoint and uses a MemoryStream as an endpoint.">
<polygon fill="none" stroke="black" points="694.5,-129.5 694.5,-159.5 857.5,-159.5 857.5,-129.5 694.5,-129.5"/>
<text text-anchor="start" x="702.5" y="-147.5" font-family="Helvetica,sans-Serif" font-size="10.00">VolumeControl.Log.Endpoints.</text>
<text text-anchor="middle" x="776" y="-136.5" font-family="Helvetica,sans-Serif" font-size="10.00">MemoryEndpoint</text>
</a>
</g>
</g>
<!-- Node79&#45;&gt;Node78 -->
<g id="edge12" class="edge">
<title>Node79&#45;&gt;Node78</title>
<path fill="none" stroke="midnightblue" d="M558.52,-368.1C583.52,-351.01 622.4,-321.35 647,-287.5 671.6,-253.65 655.78,-232.28 683,-200.5 698.2,-182.75 720.49,-168.98 739.33,-159.54"/>
<polygon fill="midnightblue" stroke="midnightblue" points="556.35,-365.34 549.99,-373.81 560.25,-371.15 556.35,-365.34"/>
</g>
<!-- Node70 -->
<g id="node16" class="node">
<title>Node70</title>
<g id="a_node16"><a xlink:href="class_volume_control_1_1_log_1_1_log_writer.html" target="_top" xlink:title="Basic log writer object.">
<polygon fill="none" stroke="black" points="696.5,-210 696.5,-229 855.5,-229 855.5,-210 696.5,-210"/>
<text text-anchor="middle" x="776" y="-217" font-family="Helvetica,sans-Serif" font-size="10.00">VolumeControl.Log.LogWriter</text>
</a>
</g>
</g>
<!-- Node79&#45;&gt;Node70 -->
<g id="edge13" class="edge">
<title>Node79&#45;&gt;Node70</title>
<path fill="none" stroke="midnightblue" d="M554.03,-367.35C576.67,-348.5 614.98,-316.25 647,-287.5 663.38,-272.8 664.3,-265.1 683,-253.5 700.22,-242.82 721.31,-234.72 738.95,-229.11"/>
<polygon fill="midnightblue" stroke="midnightblue" points="551.62,-364.8 546.16,-373.88 556.09,-370.18 551.62,-364.8"/>
</g>
<!-- Node80 -->
<g id="node17" class="node">
<title>Node80</title>
<g id="a_node17"><a xlink:href="class_volume_control_1_1_w_p_f_1_1_h_wnd_hook.html" target="_top" xlink:title="Handles receiving windows event messages.">
<polygon fill="none" stroke="black" points="691,-377 691,-396 861,-396 861,-377 691,-377"/>
<text text-anchor="middle" x="776" y="-384" font-family="Helvetica,sans-Serif" font-size="10.00">VolumeControl.WPF.HWndHook</text>
</a>
</g>
</g>
<!-- Node79&#45;&gt;Node80 -->
<g id="edge14" class="edge">
<title>Node79&#45;&gt;Node80</title>
<path fill="none" stroke="midnightblue" d="M580.63,-384.08C611.78,-384.46 653.82,-384.99 690.83,-385.45"/>
<polygon fill="midnightblue" stroke="midnightblue" points="580.55,-380.57 570.51,-383.95 580.46,-387.57 580.55,-380.57"/>
</g>
<!-- Node75 -->
<g id="node18" class="node">
<title>Node75</title>
<g id="a_node18"><a xlink:href="interface_volume_control_1_1_log_1_1_endpoints_1_1_i_endpoint.html" target="_top" xlink:title="Represents an endpoint output target for a log writer, and exposes helper methods for interacting wit...">
<polygon fill="none" stroke="black" points="452,-24.5 452,-54.5 615,-54.5 615,-24.5 452,-24.5"/>
<text text-anchor="start" x="460" y="-42.5" font-family="Helvetica,sans-Serif" font-size="10.00">VolumeControl.Log.Endpoints.</text>
<text text-anchor="middle" x="533.5" y="-31.5" font-family="Helvetica,sans-Serif" font-size="10.00">IEndpoint</text>
</a>
</g>
</g>
<!-- Node75&#45;&gt;Node78 -->
<g id="edge17" class="edge">
<title>Node75&#45;&gt;Node78</title>
<path fill="none" stroke="midnightblue" d="M624.75,-55.39C632.4,-57.74 639.91,-60.43 647,-63.5 664.88,-71.24 666.67,-77.88 683,-88.5 705.1,-102.88 730.76,-118.41 749.36,-129.46"/>
<polygon fill="midnightblue" stroke="midnightblue" points="625.59,-51.99 615.01,-52.58 623.65,-58.71 625.59,-51.99"/>
</g>
<!-- Node76 -->
<g id="node19" class="node">
<title>Node76</title>
<g id="a_node19"><a xlink:href="class_volume_control_1_1_log_1_1_endpoints_1_1_console_endpoint.html" target="_top" xlink:title="Allows using the Console as a logging endpoint.">
<polygon fill="none" stroke="black" points="694.5,-0.5 694.5,-30.5 857.5,-30.5 857.5,-0.5 694.5,-0.5"/>
<text text-anchor="start" x="702.5" y="-18.5" font-family="Helvetica,sans-Serif" font-size="10.00">VolumeControl.Log.Endpoints.</text>
<text text-anchor="middle" x="776" y="-7.5" font-family="Helvetica,sans-Serif" font-size="10.00">ConsoleEndpoint</text>
</a>
</g>
</g>
<!-- Node75&#45;&gt;Node76 -->
<g id="edge15" class="edge">
<title>Node75&#45;&gt;Node76</title>
<path fill="none" stroke="midnightblue" d="M625.24,-30.44C647.99,-28.17 672.25,-25.75 694.46,-23.54"/>
<polygon fill="midnightblue" stroke="midnightblue" points="624.86,-26.97 615.25,-31.44 625.55,-33.93 624.86,-26.97"/>
</g>
<!-- Node77 -->
<g id="node20" class="node">
<title>Node77</title>
<g id="a_node20"><a xlink:href="class_volume_control_1_1_log_1_1_endpoints_1_1_file_endpoint.html" target="_top" xlink:title="Log endpoint that allows writing logs directly to a file on disk.">
<polygon fill="none" stroke="black" points="694.5,-49.5 694.5,-79.5 857.5,-79.5 857.5,-49.5 694.5,-49.5"/>
<text text-anchor="start" x="702.5" y="-67.5" font-family="Helvetica,sans-Serif" font-size="10.00">VolumeControl.Log.Endpoints.</text>
<text text-anchor="middle" x="776" y="-56.5" font-family="Helvetica,sans-Serif" font-size="10.00">FileEndpoint</text>
</a>
</g>
</g>
<!-- Node75&#45;&gt;Node77 -->
<g id="edge16" class="edge">
<title>Node75&#45;&gt;Node77</title>
<path fill="none" stroke="midnightblue" d="M625.24,-48.93C647.99,-51.3 672.25,-53.82 694.46,-56.13"/>
<polygon fill="midnightblue" stroke="midnightblue" points="625.56,-45.45 615.25,-47.89 624.84,-52.41 625.56,-45.45"/>
</g>
<!-- Node74 -->
<g id="node21" class="node">
<title>Node74</title>
<g id="a_node21"><a xlink:title=" ">
<polygon fill="none" stroke="#bfbfbf" points="494.5,-1082 494.5,-1101 572.5,-1101 572.5,-1082 494.5,-1082"/>
<text text-anchor="middle" x="533.5" y="-1089" font-family="Helvetica,sans-Serif" font-size="10.00">IEnumerable</text>
</a>
</g>
</g>
<!-- Node74&#45;&gt;Node46 -->
<g id="edge18" class="edge">
<title>Node74&#45;&gt;Node46</title>
<path fill="none" stroke="midnightblue" d="M582.91,-1085.83C602.98,-1082.84 626.35,-1078.51 647,-1072.5 687.06,-1060.84 731.43,-1040.28 755.99,-1028.17"/>
<polygon fill="midnightblue" stroke="midnightblue" points="582.16,-1082.41 572.75,-1087.28 583.14,-1089.34 582.16,-1082.41"/>
</g>
<!-- Node74&#45;&gt;Node47 -->
<g id="edge19" class="edge">
<title>Node74&#45;&gt;Node47</title>
<path fill="none" stroke="midnightblue" d="M582.85,-1091.5C611.79,-1091.5 649.51,-1091.5 683.86,-1091.5"/>
<polygon fill="midnightblue" stroke="midnightblue" points="582.61,-1088 572.61,-1091.5 582.61,-1095 582.61,-1088"/>
</g>
<!-- Node74&#45;&gt;Node48 -->
<g id="edge20" class="edge">
<title>Node74&#45;&gt;Node48</title>
<path fill="none" stroke="midnightblue" d="M582.82,-1092.93C604.29,-1091.29 628.77,-1086.07 647,-1072.5 676.02,-1050.9 655.08,-1022.5 683,-999.5 687.73,-995.61 693.01,-992.32 698.59,-989.54"/>
<polygon fill="midnightblue" stroke="midnightblue" points="582.36,-1089.44 572.56,-1093.46 582.72,-1096.44 582.36,-1089.44"/>
</g>
<!-- Node73 -->
<g id="node22" class="node">
<title>Node73</title>
<g id="a_node22"><a xlink:title=" ">
<polygon fill="none" stroke="#bfbfbf" points="53,-161 53,-180 121,-180 121,-161 53,-161"/>
<text text-anchor="middle" x="87" y="-168" font-family="Helvetica,sans-Serif" font-size="10.00">IEquatable</text>
</a>
</g>
</g>
<!-- Node73&#45;&gt;Node2 -->
<g id="edge21" class="edge">
<title>Node73&#45;&gt;Node2</title>
<path fill="none" stroke="midnightblue" d="M131.12,-163.31C247.09,-144.93 562.58,-101.36 647,-156.5 680.32,-178.26 654.81,-210.41 683,-238.5 693.86,-249.32 708.12,-257.43 722.17,-263.41"/>
<polygon fill="midnightblue" stroke="midnightblue" points="130.5,-159.87 121.18,-164.91 131.61,-166.78 130.5,-159.87"/>
</g>
<!-- Node73&#45;&gt;Node5 -->
<g id="edge22" class="edge">
<title>Node73&#45;&gt;Node5</title>
<path fill="none" stroke="midnightblue" d="M131.5,-169.14C255.82,-165.66 606.34,-158.7 647,-189.5 689.02,-221.32 647.67,-263.38 683,-302.5 692.81,-313.36 706.08,-321.4 719.49,-327.3"/>
<polygon fill="midnightblue" stroke="midnightblue" points="131.12,-165.65 121.22,-169.44 131.32,-172.65 131.12,-165.65"/>
</g>
<!-- Node3 -->
<g id="node23" class="node">
<title>Node3</title>
<g id="a_node23"><a xlink:href="interface_volume_control_1_1_audio_1_1_interfaces_1_1_i_process.html" target="_top" xlink:title="Represents read&#45;only information about a process running on the local system.">
<polygon fill="none" stroke="black" points="210,-199.5 210,-229.5 384,-229.5 384,-199.5 210,-199.5"/>
<text text-anchor="start" x="218" y="-217.5" font-family="Helvetica,sans-Serif" font-size="10.00">VolumeControl.Audio.Interfaces.</text>
<text text-anchor="middle" x="297" y="-206.5" font-family="Helvetica,sans-Serif" font-size="10.00">IProcess</text>
</a>
</g>
</g>
<!-- Node73&#45;&gt;Node3 -->
<g id="edge23" class="edge">
<title>Node73&#45;&gt;Node3</title>
<path fill="none" stroke="midnightblue" d="M131.33,-179.67C158.32,-185.38 193.7,-192.86 224.74,-199.43"/>
<polygon fill="midnightblue" stroke="midnightblue" points="131.93,-176.21 121.42,-177.57 130.48,-183.06 131.93,-176.21"/>
</g>
<!-- Node4 -->
<g id="node24" class="node">
<title>Node4</title>
<g id="a_node24"><a xlink:href="interface_volume_control_1_1_audio_1_1_interfaces_1_1_i_session.html" target="_top" xlink:title="Represents an audio session.">
<polygon fill="none" stroke="black" points="446.5,-199.5 446.5,-229.5 620.5,-229.5 620.5,-199.5 446.5,-199.5"/>
<text text-anchor="start" x="454.5" y="-217.5" font-family="Helvetica,sans-Serif" font-size="10.00">VolumeControl.Audio.Interfaces.</text>
<text text-anchor="middle" x="533.5" y="-206.5" font-family="Helvetica,sans-Serif" font-size="10.00">ISession</text>
</a>
</g>
</g>
<!-- Node3&#45;&gt;Node4 -->
<g id="edge24" class="edge">
<title>Node3&#45;&gt;Node4</title>
<path fill="none" stroke="midnightblue" d="M394.38,-214.5C411.6,-214.5 429.45,-214.5 446.36,-214.5"/>
<polygon fill="midnightblue" stroke="midnightblue" points="394.32,-211 384.32,-214.5 394.32,-218 394.32,-211"/>
</g>
<!-- Node4&#45;&gt;Node5 -->
<g id="edge25" class="edge">
<title>Node4&#45;&gt;Node5</title>
<path fill="none" stroke="midnightblue" d="M630.26,-228.73C636.18,-231.47 641.83,-234.69 647,-238.5 673.29,-257.84 658.77,-280.63 683,-302.5 694.77,-313.12 709.79,-321.24 724.27,-327.3"/>
<polygon fill="midnightblue" stroke="midnightblue" points="631.33,-225.39 620.75,-224.82 628.67,-231.86 631.33,-225.39"/>
</g>
<!-- Node72 -->
<g id="node25" class="node">
<title>Node72</title>
<g id="a_node25"><a xlink:title=" ">
<polygon fill="none" stroke="#bfbfbf" points="488.5,-1208 488.5,-1227 578.5,-1227 578.5,-1208 488.5,-1208"/>
<text text-anchor="middle" x="533.5" y="-1215" font-family="Helvetica,sans-Serif" font-size="10.00">IImmutableList</text>
</a>
</g>
</g>
<!-- Node72&#45;&gt;Node47 -->
<g id="edge26" class="edge">
<title>Node72&#45;&gt;Node47</title>
<path fill="none" stroke="midnightblue" d="M588.62,-1214.2C607.72,-1211.54 628.93,-1206.83 647,-1198.5 695.4,-1176.2 740.35,-1130.68 761.81,-1106.84"/>
<polygon fill="midnightblue" stroke="midnightblue" points="588.05,-1210.75 578.55,-1215.45 588.9,-1217.69 588.05,-1210.75"/>
</g>
<!-- Node71 -->
<g id="node26" class="node">
<title>Node71</title>
<g id="a_node26"><a xlink:title=" ">
<polygon fill="none" stroke="#bfbfbf" points="515,-1044 515,-1063 552,-1063 552,-1044 515,-1044"/>
<text text-anchor="middle" x="533.5" y="-1051" font-family="Helvetica,sans-Serif" font-size="10.00">IList</text>
</a>
</g>
</g>
<!-- Node71&#45;&gt;Node46 -->
<g id="edge27" class="edge">
<title>Node71&#45;&gt;Node46</title>
<path fill="none" stroke="midnightblue" d="M562.19,-1049.47C600.87,-1043.84 671.86,-1033.51 721.15,-1026.34"/>
<polygon fill="midnightblue" stroke="midnightblue" points="561.58,-1046.02 552.18,-1050.93 562.58,-1052.95 561.58,-1046.02"/>
</g>
<!-- Node71&#45;&gt;Node47 -->
<g id="edge28" class="edge">
<title>Node71&#45;&gt;Node47</title>
<path fill="none" stroke="midnightblue" d="M562.21,-1057.88C591.88,-1062.57 640.54,-1070.26 683.85,-1077.1"/>
<polygon fill="midnightblue" stroke="midnightblue" points="562.61,-1054.4 552.18,-1056.29 561.52,-1061.31 562.61,-1054.4"/>
</g>
<!-- Node71&#45;&gt;Node48 -->
<g id="edge29" class="edge">
<title>Node71&#45;&gt;Node48</title>
<path fill="none" stroke="midnightblue" d="M562.34,-1053.36C586.03,-1052.2 620.34,-1048.02 647,-1034.5 666.9,-1024.41 663.62,-1010.56 683,-999.5 689.76,-995.65 697.13,-992.36 704.68,-989.58"/>
<polygon fill="midnightblue" stroke="midnightblue" points="562.15,-1049.86 552.27,-1053.7 562.38,-1056.86 562.15,-1049.86"/>
</g>
<!-- Node69 -->
<g id="node27" class="node">
<title>Node69</title>
<g id="a_node27"><a xlink:href="interface_volume_control_1_1_log_1_1_interfaces_1_1_i_log_writer.html" target="_top" xlink:title="Represents a log writer object, which is responsible for exposing logging methods,...">
<polygon fill="none" stroke="black" points="451.5,-73.5 451.5,-103.5 615.5,-103.5 615.5,-73.5 451.5,-73.5"/>
<text text-anchor="start" x="459.5" y="-91.5" font-family="Helvetica,sans-Serif" font-size="10.00">VolumeControl.Log.Interfaces.</text>
<text text-anchor="middle" x="533.5" y="-80.5" font-family="Helvetica,sans-Serif" font-size="10.00">ILogWriter</text>
</a>
</g>
</g>
<!-- Node69&#45;&gt;Node70 -->
<g id="edge30" class="edge">
<title>Node69&#45;&gt;Node70</title>
<path fill="none" stroke="midnightblue" d="M625.1,-106.6C632.83,-109.92 640.26,-113.85 647,-118.5 669.54,-134.04 662.53,-150.31 683,-168.5 703.48,-186.7 731.54,-201.08 751.27,-209.87"/>
<polygon fill="midnightblue" stroke="midnightblue" points="626.14,-103.25 615.56,-102.84 623.58,-109.76 626.14,-103.25"/>
</g>
<!-- Node63 -->
<g id="node28" class="node">
<title>Node63</title>
<g id="a_node28"><a xlink:title=" ">
<polygon fill="none" stroke="#bfbfbf" points="227,-1028 227,-1047 367,-1047 367,-1028 227,-1028"/>
<text text-anchor="middle" x="297" y="-1035" font-family="Helvetica,sans-Serif" font-size="10.00">INotifyCollectionChanged</text>
</a>
</g>
</g>
<!-- Node63&#45;&gt;Node47 -->
<g id="edge33" class="edge">
<title>Node63&#45;&gt;Node47</title>
<path fill="none" stroke="midnightblue" d="M303.12,-1057.3C315.2,-1099.42 349.89,-1197.24 420,-1236.5 508.03,-1285.79 555.04,-1277.99 647,-1236.5 707.3,-1209.3 750.59,-1138.1 767.35,-1106.72"/>
<polygon fill="midnightblue" stroke="midnightblue" points="306.43,-1056.14 300.41,-1047.42 299.68,-1057.99 306.43,-1056.14"/>
</g>
<!-- Node63&#45;&gt;Node48 -->
<g id="edge35" class="edge">
<title>Node63&#45;&gt;Node48</title>
<path fill="none" stroke="midnightblue" d="M309.86,-1019.4C329.11,-991.87 370.1,-940.56 420,-920.5 513.61,-882.87 548.11,-900.49 647,-920.5 683.64,-927.91 722.84,-946.15 748.06,-959.38"/>
<polygon fill="midnightblue" stroke="midnightblue" points="306.91,-1017.51 304.18,-1027.74 312.7,-1021.44 306.91,-1017.51"/>
</g>
<!-- Node63&#45;&gt;Node61 -->
<g id="edge34" class="edge">
<title>Node63&#45;&gt;Node61</title>
<path fill="none" stroke="midnightblue" d="M297.64,-1017.75C297.5,-950.6 306.06,-728.41 420,-604.5 460.98,-559.93 626.45,-510.72 716.28,-486.57"/>
<polygon fill="midnightblue" stroke="midnightblue" points="294.14,-1017.83 297.73,-1027.8 301.14,-1017.77 294.14,-1017.83"/>
</g>
<!-- Node60 -->
<g id="node29" class="node">
<title>Node60</title>
<g id="a_node29"><a xlink:href="class_observable_immutable_1_1_observable_collection_object.html" target="_top" xlink:title=" ">
<polygon fill="none" stroke="black" points="441.5,-1158.5 441.5,-1188.5 625.5,-1188.5 625.5,-1158.5 441.5,-1158.5"/>
<text text-anchor="start" x="449.5" y="-1176.5" font-family="Helvetica,sans-Serif" font-size="10.00">ObservableImmutable.Observable</text>
<text text-anchor="middle" x="533.5" y="-1165.5" font-family="Helvetica,sans-Serif" font-size="10.00">CollectionObject</text>
</a>
</g>
</g>
<!-- Node63&#45;&gt;Node60 -->
<g id="edge31" class="edge">
<title>Node63&#45;&gt;Node60</title>
<path fill="none" stroke="midnightblue" d="M312.79,-1054.5C334.13,-1077.98 375.88,-1120.08 420,-1143.5 431.43,-1149.57 444.17,-1154.47 456.86,-1158.42"/>
<polygon fill="midnightblue" stroke="midnightblue" points="315.39,-1052.16 306.12,-1047.03 310.17,-1056.82 315.39,-1052.16"/>
</g>
<!-- Node60&#45;&gt;Node47 -->
<g id="edge32" class="edge">
<title>Node60&#45;&gt;Node47</title>
<path fill="none" stroke="midnightblue" d="M606.32,-1155.79C619.92,-1152.03 633.97,-1147.87 647,-1143.5 679.52,-1132.6 715.65,-1117.66 741.21,-1106.58"/>
<polygon fill="midnightblue" stroke="midnightblue" points="605.25,-1152.45 596.51,-1158.45 607.08,-1159.21 605.25,-1152.45"/>
</g>
<!-- Node57 -->
<g id="node30" class="node">
<title>Node57</title>
<g id="a_node30"><a xlink:title=" ">
<polygon fill="none" stroke="#bfbfbf" points="230.5,-576 230.5,-595 363.5,-595 363.5,-576 230.5,-576"/>
<text text-anchor="middle" x="297" y="-583" font-family="Helvetica,sans-Serif" font-size="10.00">INotifyPropertyChanged</text>
</a>
</g>
</g>
<!-- Node57&#45;&gt;Node56 -->
<g id="edge52" class="edge">
<title>Node57&#45;&gt;Node56</title>
<path fill="none" stroke="midnightblue" d="M306.28,-604.75C322.41,-639.6 361.67,-712.5 420,-744.5 500.69,-788.76 607.46,-792.05 682.77,-787.04"/>
<polygon fill="midnightblue" stroke="midnightblue" points="309.3,-602.93 302.02,-595.24 302.91,-605.8 309.3,-602.93"/>
</g>
<!-- Node57&#45;&gt;Node47 -->
<g id="edge42" class="edge">
<title>Node57&#45;&gt;Node47</title>
<path fill="none" stroke="midnightblue" d="M301.88,-605.27C320.35,-698.92 399.34,-1094.09 420,-1110.5 461.93,-1143.8 610.08,-1123.24 701.22,-1106.52"/>
<polygon fill="midnightblue" stroke="midnightblue" points="305.26,-604.31 299.89,-595.17 298.39,-605.66 305.26,-604.31"/>
</g>
<!-- Node57&#45;&gt;Node48 -->
<g id="edge53" class="edge">
<title>Node57&#45;&gt;Node48</title>
<path fill="none" stroke="midnightblue" d="M301.27,-605.2C310.43,-653.84 341.04,-780.29 420,-843.5 500.73,-908.12 551.35,-855.21 647,-894.5 688.21,-911.43 731.13,-941.15 755.32,-959.21"/>
<polygon fill="midnightblue" stroke="midnightblue" points="304.67,-604.3 299.47,-595.07 297.78,-605.53 304.67,-604.3"/>
</g>
<!-- Node57&#45;&gt;Node52 -->
<g id="edge40" class="edge">
<title>Node57&#45;&gt;Node52</title>
<path fill="none" stroke="midnightblue" d="M321.69,-600.4C345.48,-614.43 383.73,-634.45 420,-642.5 524.88,-665.79 651.46,-652.74 721.6,-642.03"/>
<polygon fill="midnightblue" stroke="midnightblue" points="323.38,-597.34 313.01,-595.18 319.77,-603.33 323.38,-597.34"/>
</g>
<!-- Node57&#45;&gt;Node53 -->
<g id="edge43" class="edge">
<title>Node57&#45;&gt;Node53</title>
<path fill="none" stroke="midnightblue" d="M373.89,-578.98C460.91,-571.5 603.04,-559.28 692.67,-551.58"/>
<polygon fill="midnightblue" stroke="midnightblue" points="373.49,-575.5 363.82,-579.84 374.09,-582.47 373.49,-575.5"/>
</g>
<!-- Node57&#45;&gt;Node2 -->
<g id="edge44" class="edge">
<title>Node57&#45;&gt;Node2</title>
<path fill="none" stroke="midnightblue" d="M301.27,-565.69C310.36,-517.38 340.7,-393.23 420,-334.5 442.19,-318.07 603.4,-297.59 700.78,-286.51"/>
<polygon fill="midnightblue" stroke="midnightblue" points="297.78,-565.31 299.48,-575.77 304.67,-566.53 297.78,-565.31"/>
</g>
<!-- Node57&#45;&gt;Node5 -->
<g id="edge45" class="edge">
<title>Node57&#45;&gt;Node5</title>
<path fill="none" stroke="midnightblue" d="M302.17,-565.78C312.81,-520.94 345.57,-411.59 420,-364.5 465.01,-336.02 610.55,-335.93 700.7,-338.91"/>
<polygon fill="midnightblue" stroke="midnightblue" points="298.72,-565.19 299.93,-575.71 305.55,-566.73 298.72,-565.19"/>
</g>
<!-- Node57&#45;&gt;Node55 -->
<g id="edge50" class="edge">
<title>Node57&#45;&gt;Node55</title>
<path fill="none" stroke="midnightblue" d="M307.93,-603.8C325.69,-634.38 366.17,-694.83 420,-718.5 512.36,-759.11 548.56,-740.58 647,-718.5 664.27,-714.63 666.4,-707.62 683,-701.5 692.78,-697.89 703.32,-694.55 713.65,-691.55"/>
<polygon fill="midnightblue" stroke="midnightblue" points="310.93,-602 302.97,-595.01 304.83,-605.44 310.93,-602"/>
</g>
<!-- Node57&#45;&gt;Node61 -->
<g id="edge51" class="edge">
<title>Node57&#45;&gt;Node61</title>
<path fill="none" stroke="midnightblue" d="M314.09,-568.77C335.83,-547.41 376.86,-511.32 420,-495.5 508.44,-463.06 617.49,-460.75 691.21,-464.19"/>
<polygon fill="midnightblue" stroke="midnightblue" points="311.56,-566.36 306.98,-575.91 316.52,-571.29 311.56,-566.36"/>
</g>
<!-- Node57&#45;&gt;Node4 -->
<g id="edge48" class="edge">
<title>Node57&#45;&gt;Node4</title>
<path fill="none" stroke="midnightblue" d="M298.59,-565.7C301.49,-506.2 318.64,-327.66 420,-238.5 427.65,-231.77 436.71,-226.77 446.33,-223.08"/>
<polygon fill="midnightblue" stroke="midnightblue" points="295.08,-565.82 298.18,-575.95 302.08,-566.1 295.08,-565.82"/>
</g>
<!-- Node57&#45;&gt;Node60 -->
<g id="edge41" class="edge">
<title>Node57&#45;&gt;Node60</title>
<path fill="none" stroke="midnightblue" d="M301.71,-605.17C320,-701.9 400.6,-1123.2 420,-1143.5 426.14,-1149.93 433.5,-1155.04 441.47,-1159.08"/>
<polygon fill="midnightblue" stroke="midnightblue" points="305.13,-604.43 299.83,-595.26 298.25,-605.73 305.13,-604.43"/>
</g>
<!-- Node58 -->
<g id="node31" class="node">
<title>Node58</title>
<g id="a_node31"><a xlink:href="interface_hotkey_lib_1_1_i_key_combo.html" target="_top" xlink:title="Represents a combination of one keyboard key and any number of modifier keys.">
<polygon fill="none" stroke="black" points="471.5,-690 471.5,-709 595.5,-709 595.5,-690 471.5,-690"/>
<text text-anchor="middle" x="533.5" y="-697" font-family="Helvetica,sans-Serif" font-size="10.00">HotkeyLib.IKeyCombo</text>
</a>
</g>
</g>
<!-- Node57&#45;&gt;Node58 -->
<g id="edge36" class="edge">
<title>Node57&#45;&gt;Node58</title>
<path fill="none" stroke="midnightblue" d="M315.15,-601.93C337.46,-622.37 378.53,-656.84 420,-675.5 436.03,-682.71 454.33,-687.8 471.45,-691.38"/>
<polygon fill="midnightblue" stroke="midnightblue" points="317.51,-599.35 307.81,-595.09 312.74,-604.47 317.51,-599.35"/>
</g>
<!-- Node1 -->
<g id="node33" class="node">
<title>Node1</title>
<g id="a_node33"><a xlink:href="interface_volume_control_1_1_audio_1_1_interfaces_1_1_i_device.html" target="_top" xlink:title="Represents an audio device.">
<polygon fill="none" stroke="black" points="446.5,-248.5 446.5,-278.5 620.5,-278.5 620.5,-248.5 446.5,-248.5"/>
<text text-anchor="start" x="454.5" y="-266.5" font-family="Helvetica,sans-Serif" font-size="10.00">VolumeControl.Audio.Interfaces.</text>
<text text-anchor="middle" x="533.5" y="-255.5" font-family="Helvetica,sans-Serif" font-size="10.00">IDevice</text>
</a>
</g>
</g>
<!-- Node57&#45;&gt;Node1 -->
<g id="edge46" class="edge">
<title>Node57&#45;&gt;Node1</title>
<path fill="none" stroke="midnightblue" d="M300.25,-565.94C307.36,-513.46 334.21,-368.41 420,-293.5 427.69,-286.79 436.72,-281.55 446.27,-277.48"/>
<polygon fill="midnightblue" stroke="midnightblue" points="296.77,-565.58 298.99,-575.94 303.72,-566.46 296.77,-565.58"/>
</g>
<!-- Node54 -->
<g id="node34" class="node">
<title>Node54</title>
<g id="a_node34"><a xlink:href="class_volume_control_1_1_core_1_1_helpers_1_1_v_c_settings_container.html" target="_top" xlink:title="Responsible for containing the runtime state settings.">
<polygon fill="none" stroke="black" points="697,-573.5 697,-603.5 855,-603.5 855,-573.5 697,-573.5"/>
<text text-anchor="start" x="705" y="-591.5" font-family="Helvetica,sans-Serif" font-size="10.00">VolumeControl.Core.Helpers.</text>
<text text-anchor="middle" x="776" y="-580.5" font-family="Helvetica,sans-Serif" font-size="10.00">VCSettingsContainer</text>
</a>
</g>
</g>
<!-- Node57&#45;&gt;Node54 -->
<g id="edge49" class="edge">
<title>Node57&#45;&gt;Node54</title>
<path fill="none" stroke="midnightblue" d="M374.05,-585.98C462.42,-586.53 607.51,-587.45 696.8,-588.01"/>
<polygon fill="midnightblue" stroke="midnightblue" points="373.85,-582.48 363.82,-585.91 373.8,-589.48 373.85,-582.48"/>
</g>
<!-- Node62 -->
<g id="node35" class="node">
<title>Node62</title>
<g id="a_node35"><a xlink:href="class_volume_control_1_1_w_p_f_1_1_collections_1_1_bindable_event_type_1_1_bindable_event_type_flag.html" target="_top" xlink:title="This represents a single flag value of the EventType enum.">
<polygon fill="none" stroke="black" points="420,-412.5 420,-442.5 647,-442.5 647,-412.5 420,-412.5"/>
<text text-anchor="start" x="428" y="-430.5" font-family="Helvetica,sans-Serif" font-size="10.00">VolumeControl.WPF.Collections.</text>
<text text-anchor="middle" x="533.5" y="-419.5" font-family="Helvetica,sans-Serif" font-size="10.00">BindableEventType.BindableEventTypeFlag</text>
</a>
</g>
</g>
<!-- Node57&#45;&gt;Node62 -->
<g id="edge54" class="edge">
<title>Node57&#45;&gt;Node62</title>
<path fill="none" stroke="midnightblue" d="M310.22,-567.33C329.97,-539.41 371.6,-486.19 420,-457.5 430.35,-451.37 441.96,-446.47 453.69,-442.55"/>
<polygon fill="midnightblue" stroke="midnightblue" points="307.2,-565.54 304.39,-575.75 312.96,-569.53 307.2,-565.54"/>
</g>
<!-- Node58&#45;&gt;Node52 -->
<g id="edge38" class="edge">
<title>Node58&#45;&gt;Node52</title>
<path fill="none" stroke="midnightblue" d="M605.72,-688.56C619.7,-685.24 634.04,-680.96 647,-675.5 664.72,-668.03 665.26,-658.91 683,-651.5 692.18,-647.66 702.21,-644.58 712.16,-642.1"/>
<polygon fill="midnightblue" stroke="midnightblue" points="604.62,-685.22 595.63,-690.82 606.15,-692.05 604.62,-685.22"/>
</g>
<!-- Node58&#45;&gt;Node55 -->
<g id="edge39" class="edge">
<title>Node58&#45;&gt;Node55</title>
<path fill="none" stroke="midnightblue" d="M605.81,-692.68C631.44,-690.23 660.64,-687.44 687.48,-684.87"/>
<polygon fill="midnightblue" stroke="midnightblue" points="605.43,-689.2 595.81,-693.64 606.1,-696.17 605.43,-689.2"/>
</g>
<!-- Node59 -->
<g id="node32" class="node">
<title>Node59</title>
<g id="a_node32"><a xlink:href="struct_hotkey_lib_1_1_key_combo.html" target="_top" xlink:title="Represents a combination of one keyboard key and any number of modifier keys.">
<polygon fill="none" stroke="black" points="715.5,-711 715.5,-730 836.5,-730 836.5,-711 715.5,-711"/>
<text text-anchor="middle" x="776" y="-718" font-family="Helvetica,sans-Serif" font-size="10.00">HotkeyLib.KeyCombo</text>
</a>
</g>
</g>
<!-- Node58&#45;&gt;Node59 -->
<g id="edge37" class="edge">
<title>Node58&#45;&gt;Node59</title>
<path fill="none" stroke="midnightblue" d="M605.94,-705.74C640.82,-708.78 682.32,-712.41 715.46,-715.3"/>
<polygon fill="midnightblue" stroke="midnightblue" points="606.08,-702.24 595.81,-704.85 605.47,-709.21 606.08,-702.24"/>
</g>
<!-- Node1&#45;&gt;Node2 -->
<g id="edge47" class="edge">
<title>Node1&#45;&gt;Node2</title>
<path fill="none" stroke="midnightblue" d="M630.92,-269.51C654.26,-270.97 678.86,-272.5 700.99,-273.88"/>
<polygon fill="midnightblue" stroke="midnightblue" points="630.85,-266 620.65,-268.87 630.41,-272.99 630.85,-266"/>
</g>
<!-- Node51 -->
<g id="node36" class="node">
<title>Node51</title>
<g id="a_node36"><a xlink:title=" ">
<polygon fill="none" stroke="#bfbfbf" points="465.5,-614 465.5,-633 601.5,-633 601.5,-614 465.5,-614"/>
<text text-anchor="middle" x="533.5" y="-621" font-family="Helvetica,sans-Serif" font-size="10.00">INotifyPropertyChanging</text>
</a>
</g>
</g>
<!-- Node51&#45;&gt;Node56 -->
<g id="edge60" class="edge">
<title>Node51&#45;&gt;Node56</title>
<path fill="none" stroke="midnightblue" d="M573.11,-636.83C596.47,-646.32 625.75,-660.87 647,-680.5 669.56,-701.35 659.47,-719.76 683,-739.5 693.51,-748.32 706.44,-755.14 719.24,-760.35"/>
<polygon fill="midnightblue" stroke="midnightblue" points="574.09,-633.46 563.5,-633.08 571.54,-639.98 574.09,-633.46"/>
</g>
<!-- Node51&#45;&gt;Node52 -->
<g id="edge55" class="edge">
<title>Node51&#45;&gt;Node52</title>
<path fill="none" stroke="midnightblue" d="M611.89,-626.4C640.87,-627.48 673.68,-628.71 702.23,-629.78"/>
<polygon fill="midnightblue" stroke="midnightblue" points="611.94,-622.9 601.81,-626.02 611.67,-629.89 611.94,-622.9"/>
</g>
<!-- Node51&#45;&gt;Node53 -->
<g id="edge56" class="edge">
<title>Node51&#45;&gt;Node53</title>
<path fill="none" stroke="midnightblue" d="M564.06,-609.71C593.63,-596.35 640.68,-576.31 683,-563.5 695.02,-559.86 708.13,-556.69 720.59,-554.04"/>
<polygon fill="midnightblue" stroke="midnightblue" points="562.39,-606.62 554.74,-613.96 565.29,-612.99 562.39,-606.62"/>
</g>
<!-- Node51&#45;&gt;Node5 -->
<g id="edge57" class="edge">
<title>Node51&#45;&gt;Node5</title>
<path fill="none" stroke="midnightblue" d="M547.85,-605.41C570.13,-574.76 615.53,-510.21 647,-451.5 666.19,-415.7 652.35,-394.15 683,-367.5 688.25,-362.94 694.25,-359.2 700.61,-356.14"/>
<polygon fill="midnightblue" stroke="midnightblue" points="544.8,-603.66 541.72,-613.79 550.45,-607.79 544.8,-603.66"/>
</g>
<!-- Node51&#45;&gt;Node55 -->
<g id="edge59" class="edge">
<title>Node51&#45;&gt;Node55</title>
<path fill="none" stroke="midnightblue" d="M587.8,-635.25C622.8,-642.96 668.91,-653.12 706.61,-661.43"/>
<polygon fill="midnightblue" stroke="midnightblue" points="588.29,-631.77 577.77,-633.04 586.79,-638.61 588.29,-631.77"/>
</g>
<!-- Node51&#45;&gt;Node54 -->
<g id="edge58" class="edge">
<title>Node51&#45;&gt;Node54</title>
<path fill="none" stroke="midnightblue" d="M609.91,-612.53C637.56,-608.5 668.9,-603.94 696.79,-599.88"/>
<polygon fill="midnightblue" stroke="midnightblue" points="609.29,-609.08 599.9,-613.98 610.3,-616.01 609.29,-609.08"/>
</g>
<!-- Node49 -->
<g id="node37" class="node">
<title>Node49</title>
<g id="a_node37"><a xlink:title=" ">
<polygon fill="none" stroke="#bfbfbf" points="475.5,-1006 475.5,-1025 591.5,-1025 591.5,-1006 475.5,-1006"/>
<text text-anchor="middle" x="533.5" y="-1013" font-family="Helvetica,sans-Serif" font-size="10.00">IReadOnlyCollection</text>
</a>
</g>
</g>
<!-- Node49&#45;&gt;Node46 -->
<g id="edge61" class="edge">
<title>Node49&#45;&gt;Node46</title>
<path fill="none" stroke="midnightblue" d="M602.2,-1016.34C639.93,-1016.82 686.25,-1017.39 721.43,-1017.83"/>
<polygon fill="midnightblue" stroke="midnightblue" points="601.84,-1012.84 591.8,-1016.21 601.76,-1019.84 601.84,-1012.84"/>
</g>
<!-- Node49&#45;&gt;Node47 -->
<g id="edge62" class="edge">
<title>Node49&#45;&gt;Node47</title>
<path fill="none" stroke="midnightblue" d="M601.79,-1024.02C616.83,-1026.71 632.59,-1030.15 647,-1034.5 682.63,-1045.25 721.39,-1063.51 746.82,-1076.47"/>
<polygon fill="midnightblue" stroke="midnightblue" points="601.95,-1020.5 591.51,-1022.28 600.78,-1027.4 601.95,-1020.5"/>
</g>
<!-- Node49&#45;&gt;Node48 -->
<g id="edge63" class="edge">
<title>Node49&#45;&gt;Node48</title>
<path fill="none" stroke="midnightblue" d="M601.39,-1004.24C616.4,-1001.7 632.25,-999.01 647,-996.5 660.89,-994.13 675.63,-991.61 689.97,-989.15"/>
<polygon fill="midnightblue" stroke="midnightblue" points="600.44,-1000.85 591.16,-1005.96 601.6,-1007.75 600.44,-1000.85"/>
</g>
<!-- Node45 -->
<g id="node38" class="node">
<title>Node45</title>
<g id="a_node38"><a xlink:title=" ">
<polygon fill="none" stroke="#bfbfbf" points="491.5,-968 491.5,-987 575.5,-987 575.5,-968 491.5,-968"/>
<text text-anchor="middle" x="533.5" y="-975" font-family="Helvetica,sans-Serif" font-size="10.00">IReadOnlyList</text>
</a>
</g>
</g>
<!-- Node45&#45;&gt;Node46 -->
<g id="edge64" class="edge">
<title>Node45&#45;&gt;Node46</title>
<path fill="none" stroke="midnightblue" d="M585.71,-986.12C604.93,-989.36 626.97,-993.09 647,-996.5 671.45,-1000.67 698.52,-1005.31 721.45,-1009.26"/>
<polygon fill="midnightblue" stroke="midnightblue" points="586.09,-982.63 575.65,-984.42 584.93,-989.53 586.09,-982.63"/>
</g>
<!-- Node45&#45;&gt;Node47 -->
<g id="edge65" class="edge">
<title>Node45&#45;&gt;Node47</title>
<path fill="none" stroke="midnightblue" d="M585.69,-978.83C605.83,-981.17 628.5,-986.18 647,-996.5 668.18,-1008.31 664.31,-1022.05 683,-1037.5 701.56,-1052.83 725,-1066.52 743.57,-1076.28"/>
<polygon fill="midnightblue" stroke="midnightblue" points="586.03,-975.35 575.74,-977.86 585.35,-982.31 586.03,-975.35"/>
</g>
<!-- Node45&#45;&gt;Node48 -->
<g id="edge66" class="edge">
<title>Node45&#45;&gt;Node48</title>
<path fill="none" stroke="midnightblue" d="M585.87,-976.86C616.07,-976.48 655.03,-976 689.73,-975.56"/>
<polygon fill="midnightblue" stroke="midnightblue" points="585.53,-973.36 575.57,-976.99 585.61,-980.36 585.53,-973.36"/>
</g>
<!-- Node0 -->
<g id="node39" class="node">
<title>Node0</title>
<g id="a_node39"><a xlink:href="interface_volume_control_1_1_audio_1_1_interfaces_1_1_i_targetable.html" target="_top" xlink:title="Base interface type for IDevice and IProcess/ISession.">
<polygon fill="none" stroke="black" points="0,-243.5 0,-273.5 174,-273.5 174,-243.5 0,-243.5"/>
<text text-anchor="start" x="8" y="-261.5" font-family="Helvetica,sans-Serif" font-size="10.00">VolumeControl.Audio.Interfaces.</text>
<text text-anchor="middle" x="87" y="-250.5" font-family="Helvetica,sans-Serif" font-size="10.00">ITargetable</text>
</a>
</g>
</g>
<!-- Node0&#45;&gt;Node3 -->
<g id="edge68" class="edge">
<title>Node0&#45;&gt;Node3</title>
<path fill="none" stroke="midnightblue" d="M168.86,-241.39C187.37,-237.48 206.91,-233.35 224.97,-229.53"/>
<polygon fill="midnightblue" stroke="midnightblue" points="168.06,-237.99 159,-243.48 169.51,-244.84 168.06,-237.99"/>
</g>
<!-- Node0&#45;&gt;Node4 -->
<g id="edge69" class="edge">
<title>Node0&#45;&gt;Node4</title>
<path fill="none" stroke="midnightblue" d="M184.26,-254.26C242.24,-251.14 317.5,-246.1 384,-238.5 404.89,-236.11 427.32,-232.85 448.27,-229.51"/>
<polygon fill="midnightblue" stroke="midnightblue" points="183.8,-250.78 174,-254.8 184.17,-257.77 183.8,-250.78"/>
</g>
<!-- Node0&#45;&gt;Node1 -->
<g id="edge67" class="edge">
<title>Node0&#45;&gt;Node1</title>
<path fill="none" stroke="midnightblue" d="M184.36,-270.59C193.02,-271.36 201.66,-272.02 210,-272.5 289.97,-277.07 381.22,-273.73 446.21,-269.89"/>
<polygon fill="midnightblue" stroke="midnightblue" points="184.49,-267.09 174.21,-269.63 183.83,-274.06 184.49,-267.09"/>
</g>
</g>
</svg>
