<?xml version="1.0" encoding="UTF-8" standalone="no"?>
<!DOCTYPE svg PUBLIC "-//W3C//DTD SVG 1.1//EN"
 "http://www.w3.org/Graphics/SVG/1.1/DTD/svg11.dtd">
<!-- Generated by graphviz version 2.44.1 (20200629.0800)
 -->
<!-- Title: Graphical Class Hierarchy Pages: 1 -->
<svg width="545pt" height="88pt"
 viewBox="0.00 0.00 545.00 88.00" xmlns="http://www.w3.org/2000/svg" xmlns:xlink="http://www.w3.org/1999/xlink">
<g id="graph0" class="graph" transform="scale(1 1) rotate(0) translate(4 84)">
<title>Graphical Class Hierarchy</title>
<!-- Node5 -->
<g id="node1" class="node">
<title>Node5</title>
<g id="a_node1"><a xlink:title=" ">
<polygon fill="none" stroke="#bfbfbf" points="39,-9 39,-28 92,-28 92,-9 39,-9"/>
<text text-anchor="middle" x="65.5" y="-16" font-family="Helvetica,sans-Serif" font-size="10.00">Attribute</text>
</a>
</g>
</g>
<!-- Node0 -->
<g id="node2" class="node">
<title>Node0</title>
<g id="a_node2"><a xlink:href="class_volume_control_1_1_core_1_1_base_addon_attribute.html" target="_top" xlink:title="Abstract base class that all other addon attributes inherit from. Unless you&#39;re implementing a new ad...">
<polygon fill="none" stroke="black" points="172,-49.5 172,-79.5 329,-79.5 329,-49.5 172,-49.5"/>
<text text-anchor="start" x="180" y="-67.5" font-family="Helvetica,sans-Serif" font-size="10.00">VolumeControl.Core.BaseAddon</text>
<text text-anchor="middle" x="250.5" y="-56.5" font-family="Helvetica,sans-Serif" font-size="10.00">Attribute</text>
</a>
</g>
</g>
<!-- Node5&#45;&gt;Node0 -->
<g id="edge1" class="edge">
<title>Node5&#45;&gt;Node0</title>
<path fill="none" stroke="midnightblue" d="M102.04,-27.43C126.83,-33.66 160.52,-42.13 189.45,-49.4"/>
<polygon fill="midnightblue" stroke="midnightblue" points="102.88,-24.04 92.33,-24.99 101.18,-30.83 102.88,-24.04"/>
</g>
<!-- Node8 -->
<g id="node4" class="node">
<title>Node8</title>
<g id="a_node4"><a xlink:href="class_volume_control_1_1_hotkeys_1_1_attributes_1_1_hotkey_action_attribute.html" target="_top" xlink:title="Indicates that a method is a valid hotkey action. If you don&#39;t specify a name parameter,...">
<polygon fill="none" stroke="black" points="167,-0.5 167,-30.5 334,-30.5 334,-0.5 167,-0.5"/>
<text text-anchor="start" x="175" y="-18.5" font-family="Helvetica,sans-Serif" font-size="10.00">VolumeControl.Hotkeys.Attributes.</text>
<text text-anchor="middle" x="250.5" y="-7.5" font-family="Helvetica,sans-Serif" font-size="10.00">HotkeyActionAttribute</text>
</a>
</g>
</g>
<!-- Node5&#45;&gt;Node8 -->
<g id="edge3" class="edge">
<title>Node5&#45;&gt;Node8</title>
<path fill="none" stroke="midnightblue" d="M102.57,-17.91C120.97,-17.61 144.18,-17.23 166.68,-16.86"/>
<polygon fill="midnightblue" stroke="midnightblue" points="102.27,-14.41 92.33,-18.08 102.39,-21.41 102.27,-14.41"/>
</g>
<!-- Node1 -->
<g id="node3" class="node">
<title>Node1</title>
<g id="a_node3"><a xlink:href="class_volume_control_1_1_hotkeys_1_1_attributes_1_1_action_addon_attribute.html" target="_top" xlink:title="Marks the attached class type as a Hotkey Actions addon type.">
<polygon fill="none" stroke="black" points="370,-49.5 370,-79.5 537,-79.5 537,-49.5 370,-49.5"/>
<text text-anchor="start" x="378" y="-67.5" font-family="Helvetica,sans-Serif" font-size="10.00">VolumeControl.Hotkeys.Attributes.</text>
<text text-anchor="middle" x="453.5" y="-56.5" font-family="Helvetica,sans-Serif" font-size="10.00">ActionAddonAttribute</text>
</a>
</g>
</g>
<!-- Node0&#45;&gt;Node1 -->
<g id="edge2" class="edge">
<title>Node0&#45;&gt;Node1</title>
<path fill="none" stroke="midnightblue" d="M339.24,-64.5C349.35,-64.5 359.63,-64.5 369.67,-64.5"/>
<polygon fill="midnightblue" stroke="midnightblue" points="339.21,-61 329.21,-64.5 339.21,-68 339.21,-61"/>
</g>
<!-- Node28 -->
<g id="node5" class="node">
<title>Node28</title>
<g id="a_node5"><a xlink:href="interface_volume_control_1_1_core_1_1_i_base_addon_attribute.html" target="_top" xlink:title="Represents an addon attribute of any type.">
<polygon fill="none" stroke="black" points="0,-49.5 0,-79.5 131,-79.5 131,-49.5 0,-49.5"/>
<text text-anchor="start" x="8" y="-67.5" font-family="Helvetica,sans-Serif" font-size="10.00">VolumeControl.Core.IBase</text>
<text text-anchor="middle" x="65.5" y="-56.5" font-family="Helvetica,sans-Serif" font-size="10.00">AddonAttribute</text>
</a>
</g>
</g>
<!-- Node28&#45;&gt;Node0 -->
<g id="edge4" class="edge">
<title>Node28&#45;&gt;Node0</title>
<path fill="none" stroke="midnightblue" d="M141.03,-64.5C151.16,-64.5 161.58,-64.5 171.76,-64.5"/>
<polygon fill="midnightblue" stroke="midnightblue" points="141.02,-61 131.02,-64.5 141.02,-68 141.02,-61"/>
</g>
</g>
</svg>
