<?xml version="1.0" encoding="UTF-8" standalone="no"?>
<!DOCTYPE svg PUBLIC "-//W3C//DTD SVG 1.1//EN"
 "http://www.w3.org/Graphics/SVG/1.1/DTD/svg11.dtd">
<!-- Generated by graphviz version 2.43.0 (0)
 -->
<!-- Title: Graphical Class Hierarchy Pages: 1 -->
<svg width="645pt" height="110pt"
 viewBox="0.00 0.00 645.00 110.00" xmlns="http://www.w3.org/2000/svg" xmlns:xlink="http://www.w3.org/1999/xlink">
<g id="graph0" class="graph" transform="scale(1 1) rotate(0) translate(4 106)">
<title>Graphical Class Hierarchy</title>
<!-- Node0 -->
<g id="node1" class="node">
<title>Node0</title>
<g id="a_node1"><a xlink:href="class_volume_control_1_1_core_1_1_data_template_provider.html" target="_top" xlink:title="Provides a DataTemplate for some hardcoded type. &#160;The Type of a derived class can be specified for th...">
<polygon fill="none" stroke="black" points="0,-36 0,-66 185,-66 185,-36 0,-36"/>
<text text-anchor="start" x="8" y="-54" font-family="Helvetica,sans-Serif" font-size="10.00">VolumeControl.Core.DataTemplate</text>
<text text-anchor="middle" x="92.5" y="-43" font-family="Helvetica,sans-Serif" font-size="10.00">Provider</text>
</a>
</g>
</g>
<!-- Node1 -->
<g id="node2" class="node">
<title>Node1</title>
<g id="a_node2"><a xlink:href="class_volume_control_1_1_hotkeys_1_1_numeric_up_down___data_template_provider.html" target="_top" xlink:title=" ">
<polygon fill="none" stroke="black" points="221,-36 221,-66 397,-66 397,-36 221,-36"/>
<text text-anchor="start" x="229" y="-54" font-family="Helvetica,sans-Serif" font-size="10.00">VolumeControl.Hotkeys.Numeric</text>
<text text-anchor="middle" x="309" y="-43" font-family="Helvetica,sans-Serif" font-size="10.00">UpDown_DataTemplateProvider</text>
</a>
</g>
</g>
<!-- Node0&#45;&gt;Node1 -->
<g id="edge1" class="edge">
<title>Node0&#45;&gt;Node1</title>
<path fill="none" stroke="midnightblue" d="M195.13,-51C203.71,-51 212.34,-51 220.8,-51"/>
<polygon fill="midnightblue" stroke="midnightblue" points="195.09,-47.5 185.09,-51 195.09,-54.5 195.09,-47.5"/>
</g>
<!-- Node2 -->
<g id="node3" class="node">
<title>Node2</title>
<g id="a_node3"><a xlink:href="class_volume_control_1_1_hotkeys_1_1_volume_level___numeric_up_down___data_template_provider.html" target="_top" xlink:title="NumericUpDown_DataTemplateProvider with MinValue 0 and MaxValue 100">
<polygon fill="none" stroke="black" points="433,-60.5 433,-101.5 637,-101.5 637,-60.5 433,-60.5"/>
<text text-anchor="start" x="441" y="-89.5" font-family="Helvetica,sans-Serif" font-size="10.00">VolumeControl.Hotkeys.Volume</text>
<text text-anchor="start" x="441" y="-78.5" font-family="Helvetica,sans-Serif" font-size="10.00">Level_NumericUpDown_DataTemplate</text>
<text text-anchor="middle" x="535" y="-67.5" font-family="Helvetica,sans-Serif" font-size="10.00">Provider</text>
</a>
</g>
</g>
<!-- Node1&#45;&gt;Node2 -->
<g id="edge2" class="edge">
<title>Node1&#45;&gt;Node2</title>
<path fill="none" stroke="midnightblue" d="M407.17,-64.01C415.68,-65.15 424.31,-66.31 432.85,-67.45"/>
<polygon fill="midnightblue" stroke="midnightblue" points="407.62,-60.54 397.25,-62.68 406.69,-67.48 407.62,-60.54"/>
</g>
<!-- Node3 -->
<g id="node4" class="node">
<title>Node3</title>
<g id="a_node4"><a xlink:href="class_volume_control_1_1_hotkeys_1_1_volume_step___numeric_up_down___data_template_provider.html" target="_top" xlink:title="NumericUpDown_DataTemplateProvider with MinValue 1 and MaxValue 100">
<polygon fill="none" stroke="black" points="435,-0.5 435,-41.5 635,-41.5 635,-0.5 435,-0.5"/>
<text text-anchor="start" x="443" y="-29.5" font-family="Helvetica,sans-Serif" font-size="10.00">VolumeControl.Hotkeys.Volume</text>
<text text-anchor="start" x="443" y="-18.5" font-family="Helvetica,sans-Serif" font-size="10.00">Step_NumericUpDown_DataTemplate</text>
<text text-anchor="middle" x="535" y="-7.5" font-family="Helvetica,sans-Serif" font-size="10.00">Provider</text>
</a>
</g>
</g>
<!-- Node1&#45;&gt;Node3 -->
<g id="edge3" class="edge">
<title>Node1&#45;&gt;Node3</title>
<path fill="none" stroke="midnightblue" d="M407.4,-37.95C416.46,-36.74 425.65,-35.51 434.72,-34.3"/>
<polygon fill="midnightblue" stroke="midnightblue" points="406.69,-34.52 397.25,-39.32 407.62,-41.46 406.69,-34.52"/>
</g>
</g>
</svg>
