<?xml version="1.0" encoding="UTF-8" standalone="no"?>
<!DOCTYPE svg PUBLIC "-//W3C//DTD SVG 1.1//EN"
 "http://www.w3.org/Graphics/SVG/1.1/DTD/svg11.dtd">
<!-- Generated by graphviz version 2.44.1 (20200629.0800)
 -->
<!-- Title: Graphical Class Hierarchy Pages: 1 -->
<svg width="248pt" height="88pt"
 viewBox="0.00 0.00 248.00 88.00" xmlns="http://www.w3.org/2000/svg" xmlns:xlink="http://www.w3.org/1999/xlink">
<g id="graph0" class="graph" transform="scale(1 1) rotate(0) translate(4 84)">
<title>Graphical Class Hierarchy</title>
<!-- Node15 -->
<g id="node1" class="node">
<title>Node15</title>
<g id="a_node1"><a xlink:title=" ">
<polygon fill="none" stroke="#bfbfbf" points="0,-30 0,-49 61,-49 61,-30 0,-30"/>
<text text-anchor="middle" x="30.5" y="-37" font-family="Helvetica,sans-Serif" font-size="10.00">EventArgs</text>
</a>
</g>
</g>
<!-- Node0 -->
<g id="node2" class="node">
<title>Node0</title>
<g id="a_node2"><a xlink:href="class_volume_control_1_1_audio_1_1_events_1_1_target_changed_event_args.html" target="_top" xlink:title="Event arguments for the TargetChangedEventHandler event type. &#160;This simply includes the TargetName pr...">
<polygon fill="none" stroke="black" points="97,-49.5 97,-79.5 240,-79.5 240,-49.5 97,-49.5"/>
<text text-anchor="start" x="105" y="-67.5" font-family="Helvetica,sans-Serif" font-size="10.00">VolumeControl.Audio.Events.</text>
<text text-anchor="middle" x="168.5" y="-56.5" font-family="Helvetica,sans-Serif" font-size="10.00">TargetChangedEventArgs</text>
</a>
</g>
</g>
<!-- Node15&#45;&gt;Node0 -->
<g id="edge1" class="edge">
<title>Node15&#45;&gt;Node0</title>
<path fill="none" stroke="midnightblue" d="M70.92,-46.75C79.06,-48.24 87.88,-49.86 96.75,-51.49"/>
<polygon fill="midnightblue" stroke="midnightblue" points="71.48,-43.29 61.01,-44.92 70.21,-50.17 71.48,-43.29"/>
</g>
<!-- Node17 -->
<g id="node3" class="node">
<title>Node17</title>
<g id="a_node3"><a xlink:href="class_volume_control_1_1_audio_1_1_events_1_1_target_changing_event_args.html" target="_top" xlink:title="Event arguments for the TargetChangedEventHandler event.">
<polygon fill="none" stroke="black" points="97,-0.5 97,-30.5 240,-30.5 240,-0.5 97,-0.5"/>
<text text-anchor="start" x="105" y="-18.5" font-family="Helvetica,sans-Serif" font-size="10.00">VolumeControl.Audio.Events.</text>
<text text-anchor="middle" x="168.5" y="-7.5" font-family="Helvetica,sans-Serif" font-size="10.00">TargetChangingEventArgs</text>
</a>
</g>
</g>
<!-- Node15&#45;&gt;Node17 -->
<g id="edge2" class="edge">
<title>Node15&#45;&gt;Node17</title>
<path fill="none" stroke="midnightblue" d="M70.92,-32.54C79.06,-31.11 87.88,-29.55 96.75,-27.99"/>
<polygon fill="midnightblue" stroke="midnightblue" points="70.25,-29.11 61.01,-34.29 71.47,-36 70.25,-29.11"/>
</g>
</g>
</svg>
