<?xml version="1.0" encoding="UTF-8" standalone="no"?>
<!DOCTYPE svg PUBLIC "-//W3C//DTD SVG 1.1//EN"
 "http://www.w3.org/Graphics/SVG/1.1/DTD/svg11.dtd">
<!-- Generated by graphviz version 2.43.0 (0)
 -->
<!-- Title: Graphical Class Hierarchy Pages: 1 -->
<svg width="400pt" height="78pt"
 viewBox="0.00 0.00 400.00 77.50" xmlns="http://www.w3.org/2000/svg" xmlns:xlink="http://www.w3.org/1999/xlink">
<g id="graph0" class="graph" transform="scale(1 1) rotate(0) translate(4 73.5)">
<title>Graphical Class Hierarchy</title>
<!-- Node0 -->
<g id="node1" class="node">
<title>Node0</title>
<g id="a_node1"><a xlink:href="interface_volume_control_1_1_core_1_1_i_template_dictionary_provider.html" target="_top" xlink:title="An alternative to ITemplateProvider that can be combined with a ResourceDictionary (with a codebehind...">
<polygon fill="none" stroke="black" points="0,-39 0,-69 165,-69 165,-39 0,-39"/>
<text text-anchor="start" x="8" y="-57" font-family="Helvetica,sans-Serif" font-size="10.00">VolumeControl.Core.ITemplate</text>
<text text-anchor="middle" x="82.5" y="-46" font-family="Helvetica,sans-Serif" font-size="10.00">DictionaryProvider</text>
</a>
</g>
</g>
<!-- Node1 -->
<g id="node2" class="node">
<title>Node1</title>
<g id="a_node2"><a xlink:href="class_volume_control_1_1_s_d_k_1_1_data_templates_1_1_data_template_dictionary.html" target="_top" xlink:title="Provides all of the default DataTemplate instances used by the built&#45;in hotkey actions.">
<polygon fill="none" stroke="black" points="201,-17 201,-47 392,-47 392,-17 201,-17"/>
<text text-anchor="start" x="209" y="-35" font-family="Helvetica,sans-Serif" font-size="10.00">VolumeControl.SDK.DataTemplates.</text>
<text text-anchor="middle" x="296.5" y="-24" font-family="Helvetica,sans-Serif" font-size="10.00">DataTemplateDictionary</text>
</a>
</g>
</g>
<!-- Node0&#45;&gt;Node1 -->
<g id="edge1" class="edge">
<title>Node0&#45;&gt;Node1</title>
<path fill="none" stroke="midnightblue" d="M175.37,-44.47C183.79,-43.59 192.34,-42.71 200.79,-41.83"/>
<polygon fill="midnightblue" stroke="midnightblue" points="174.75,-41.01 165.16,-45.53 175.47,-47.97 174.75,-41.01"/>
</g>
<!-- Node161 -->
<g id="node3" class="node">
<title>Node161</title>
<g id="a_node3"><a xlink:title=" ">
<polygon fill="none" stroke="#bfbfbf" points="26.5,-0.5 26.5,-19.5 138.5,-19.5 138.5,-0.5 26.5,-0.5"/>
<text text-anchor="middle" x="82.5" y="-7.5" font-family="Helvetica,sans-Serif" font-size="10.00">ResourceDictionary</text>
</a>
</g>
</g>
<!-- Node161&#45;&gt;Node1 -->
<g id="edge2" class="edge">
<title>Node161&#45;&gt;Node1</title>
<path fill="none" stroke="midnightblue" d="M148.69,-16.76C165.17,-18.47 183.2,-20.35 200.8,-22.17"/>
<polygon fill="midnightblue" stroke="midnightblue" points="148.95,-13.27 138.65,-15.72 148.23,-20.24 148.95,-13.27"/>
</g>
</g>
</svg>
