<?xml version="1.0" encoding="UTF-8" standalone="no"?>
<!DOCTYPE svg PUBLIC "-//W3C//DTD SVG 1.1//EN"
 "http://www.w3.org/Graphics/SVG/1.1/DTD/svg11.dtd">
<!-- Generated by graphviz version 2.43.0 (0)
 -->
<!-- Title: Graphical Class Hierarchy Pages: 1 -->
<svg width="316pt" height="284pt"
 viewBox="0.00 0.00 316.00 284.00" xmlns="http://www.w3.org/2000/svg" xmlns:xlink="http://www.w3.org/1999/xlink">
<g id="graph0" class="graph" transform="scale(1 1) rotate(0) translate(4 280)">
<title>Graphical Class Hierarchy</title>
<!-- Node26 -->
<g id="node1" class="node">
<title>Node26</title>
<g id="a_node1"><a xlink:title=" ">
<polygon fill="none" stroke="#bfbfbf" points="3,-128 3,-147 98,-147 98,-128 3,-128"/>
<text text-anchor="middle" x="50.5" y="-135" font-family="Helvetica,sans-Serif" font-size="10.00">IValueConverter</text>
</a>
</g>
</g>
<!-- Node27 -->
<g id="node2" class="node">
<title>Node27</title>
<g id="a_node2"><a xlink:href="class_volume_control_1_1_w_p_f_1_1_converters_1_1_boolean_inverter.html" target="_top" xlink:title="Binding converter for boolean types that negates the expression.">
<polygon fill="none" stroke="black" points="137,-147.5 137,-177.5 308,-177.5 308,-147.5 137,-147.5"/>
<text text-anchor="start" x="145" y="-165.5" font-family="Helvetica,sans-Serif" font-size="10.00">VolumeControl.WPF.Converters.</text>
<text text-anchor="middle" x="222.5" y="-154.5" font-family="Helvetica,sans-Serif" font-size="10.00">BooleanInverter</text>
</a>
</g>
</g>
<!-- Node26&#45;&gt;Node27 -->
<g id="edge1" class="edge">
<title>Node26&#45;&gt;Node27</title>
<path fill="none" stroke="midnightblue" d="M108.5,-145.88C117.65,-147.23 127.28,-148.64 136.91,-150.06"/>
<polygon fill="midnightblue" stroke="midnightblue" points="108.81,-142.39 98.4,-144.4 107.79,-149.32 108.81,-142.39"/>
</g>
<!-- Node28 -->
<g id="node3" class="node">
<title>Node28</title>
<g id="a_node3"><a xlink:href="class_volume_control_1_1_w_p_f_1_1_converters_1_1_bool_to_check_visible_converter.html" target="_top" xlink:title="Converts from bool types to thickness types.">
<polygon fill="none" stroke="black" points="137,-98.5 137,-128.5 308,-128.5 308,-98.5 137,-98.5"/>
<text text-anchor="start" x="145" y="-116.5" font-family="Helvetica,sans-Serif" font-size="10.00">VolumeControl.WPF.Converters.</text>
<text text-anchor="middle" x="222.5" y="-105.5" font-family="Helvetica,sans-Serif" font-size="10.00">BoolToCheckVisibleConverter</text>
</a>
</g>
</g>
<!-- Node26&#45;&gt;Node28 -->
<g id="edge2" class="edge">
<title>Node26&#45;&gt;Node28</title>
<path fill="none" stroke="midnightblue" d="M108.5,-129.45C117.65,-128.16 127.28,-126.8 136.91,-125.44"/>
<polygon fill="midnightblue" stroke="midnightblue" points="107.82,-126.01 98.4,-130.88 108.79,-132.95 107.82,-126.01"/>
</g>
<!-- Node29 -->
<g id="node4" class="node">
<title>Node29</title>
<g id="a_node4"><a xlink:href="class_volume_control_1_1_w_p_f_1_1_converters_1_1_bool_to_thickness_converter.html" target="_top" xlink:title="Converts from bool types to thickness types.">
<polygon fill="none" stroke="black" points="137,-245.5 137,-275.5 308,-275.5 308,-245.5 137,-245.5"/>
<text text-anchor="start" x="145" y="-263.5" font-family="Helvetica,sans-Serif" font-size="10.00">VolumeControl.WPF.Converters.</text>
<text text-anchor="middle" x="222.5" y="-252.5" font-family="Helvetica,sans-Serif" font-size="10.00">BoolToThicknessConverter</text>
</a>
</g>
</g>
<!-- Node26&#45;&gt;Node29 -->
<g id="edge3" class="edge">
<title>Node26&#45;&gt;Node29</title>
<path fill="none" stroke="midnightblue" d="M62.34,-155.55C76.67,-177.87 103.99,-215.45 137,-236.5 142.4,-239.94 148.3,-242.9 154.4,-245.44"/>
<polygon fill="midnightblue" stroke="midnightblue" points="65.28,-153.65 57.02,-147.02 59.34,-157.36 65.28,-153.65"/>
</g>
<!-- Node0 -->
<g id="node5" class="node">
<title>Node0</title>
<g id="a_node5"><a xlink:href="class_volume_control_1_1_w_p_f_1_1_converters_1_1_bool_to_value_converter.html" target="_top" xlink:title="Use as the base class for BoolToXXX style converters">
<polygon fill="none" stroke="black" points="137,-49.5 137,-79.5 308,-79.5 308,-49.5 137,-49.5"/>
<text text-anchor="start" x="145" y="-67.5" font-family="Helvetica,sans-Serif" font-size="10.00">VolumeControl.WPF.Converters.</text>
<text text-anchor="middle" x="222.5" y="-56.5" font-family="Helvetica,sans-Serif" font-size="10.00">BoolToValueConverter&lt; T &gt;</text>
</a>
</g>
</g>
<!-- Node26&#45;&gt;Node0 -->
<g id="edge4" class="edge">
<title>Node26&#45;&gt;Node0</title>
<path fill="none" stroke="midnightblue" d="M74.71,-122.59C91.51,-112.27 115.04,-98.78 137,-89.5 145.6,-85.87 154.89,-82.55 164.07,-79.6"/>
<polygon fill="midnightblue" stroke="midnightblue" points="72.75,-119.69 66.12,-127.95 76.46,-125.63 72.75,-119.69"/>
</g>
<!-- Node24 -->
<g id="node6" class="node">
<title>Node24</title>
<g id="a_node6"><a xlink:href="class_volume_control_1_1_w_p_f_1_1_converters_1_1_converter_chain.html" target="_top" xlink:title=" ">
<polygon fill="none" stroke="black" points="137,-0.5 137,-30.5 308,-30.5 308,-0.5 137,-0.5"/>
<text text-anchor="start" x="145" y="-18.5" font-family="Helvetica,sans-Serif" font-size="10.00">VolumeControl.WPF.Converters.</text>
<text text-anchor="middle" x="222.5" y="-7.5" font-family="Helvetica,sans-Serif" font-size="10.00">ConverterChain</text>
</a>
</g>
</g>
<!-- Node26&#45;&gt;Node24 -->
<g id="edge5" class="edge">
<title>Node26&#45;&gt;Node24</title>
<path fill="none" stroke="midnightblue" d="M67.6,-120.34C77.38,-109.81 90.05,-96 101,-83.5 117.43,-64.75 116.16,-54.17 137,-40.5 142.88,-36.64 149.38,-33.36 156.08,-30.57"/>
<polygon fill="midnightblue" stroke="midnightblue" points="65.02,-117.97 60.76,-127.67 70.14,-122.74 65.02,-117.97"/>
</g>
<!-- Node30 -->
<g id="node7" class="node">
<title>Node30</title>
<g id="a_node7"><a xlink:href="class_volume_control_1_1_w_p_f_1_1_converters_1_1_null_to_boolean_converter.html" target="_top" xlink:title="Converts from any object type to bool depending on whether or not that object is null.">
<polygon fill="none" stroke="black" points="137,-196.5 137,-226.5 308,-226.5 308,-196.5 137,-196.5"/>
<text text-anchor="start" x="145" y="-214.5" font-family="Helvetica,sans-Serif" font-size="10.00">VolumeControl.WPF.Converters.</text>
<text text-anchor="middle" x="222.5" y="-203.5" font-family="Helvetica,sans-Serif" font-size="10.00">NullToBooleanConverter</text>
</a>
</g>
</g>
<!-- Node26&#45;&gt;Node30 -->
<g id="edge6" class="edge">
<title>Node26&#45;&gt;Node30</title>
<path fill="none" stroke="midnightblue" d="M73.99,-152.78C90.77,-163.64 114.58,-177.94 137,-187.5 144.72,-190.79 153.02,-193.77 161.29,-196.43"/>
<polygon fill="midnightblue" stroke="midnightblue" points="75.72,-149.72 65.44,-147.15 71.87,-155.57 75.72,-149.72"/>
</g>
<!-- Node23 -->
<g id="node8" class="node">
<title>Node23</title>
<g id="a_node8"><a xlink:title=" ">
<polygon fill="none" stroke="#bfbfbf" points="33.5,-6 33.5,-25 67.5,-25 67.5,-6 33.5,-6"/>
<text text-anchor="middle" x="50.5" y="-13" font-family="Helvetica,sans-Serif" font-size="10.00">List</text>
</a>
</g>
</g>
<!-- Node23&#45;&gt;Node24 -->
<g id="edge7" class="edge">
<title>Node23&#45;&gt;Node24</title>
<path fill="none" stroke="midnightblue" d="M77.96,-15.5C93.97,-15.5 115.36,-15.5 136.74,-15.5"/>
<polygon fill="midnightblue" stroke="midnightblue" points="77.8,-12 67.8,-15.5 77.8,-19 77.8,-12"/>
</g>
<!-- Node20 -->
<g id="node9" class="node">
<title>Node20</title>
<g id="a_node9"><a xlink:title=" ">
<polygon fill="none" stroke="#bfbfbf" points="0,-55 0,-74 101,-74 101,-55 0,-55"/>
<text text-anchor="middle" x="50.5" y="-62" font-family="Helvetica,sans-Serif" font-size="10.00">MarkupExtension</text>
</a>
</g>
</g>
<!-- Node20&#45;&gt;Node0 -->
<g id="edge8" class="edge">
<title>Node20&#45;&gt;Node0</title>
<path fill="none" stroke="midnightblue" d="M111.13,-64.5C119.5,-64.5 128.22,-64.5 136.95,-64.5"/>
<polygon fill="midnightblue" stroke="midnightblue" points="111.13,-61 101.13,-64.5 111.13,-68 111.13,-61"/>
</g>
</g>
</svg>
