<?xml version="1.0" encoding="UTF-8" standalone="no"?>
<!DOCTYPE svg PUBLIC "-//W3C//DTD SVG 1.1//EN"
 "http://www.w3.org/Graphics/SVG/1.1/DTD/svg11.dtd">
<!-- Generated by graphviz version 2.43.0 (0)
 -->
<!-- Title: Graphical Class Hierarchy Pages: 1 -->
<svg width="324pt" height="160pt"
 viewBox="0.00 0.00 324.00 160.00" xmlns="http://www.w3.org/2000/svg" xmlns:xlink="http://www.w3.org/1999/xlink">
<g id="graph0" class="graph" transform="scale(1 1) rotate(0) translate(4 156)">
<title>Graphical Class Hierarchy</title>
<!-- Node50 -->
<g id="node1" class="node">
<title>Node50</title>
<g id="a_node1"><a xlink:title=" ">
<polygon fill="none" stroke="#bfbfbf" points="0,-66.5 0,-85.5 65,-85.5 65,-66.5 0,-66.5"/>
<text text-anchor="middle" x="32.5" y="-73.5" font-family="Helvetica,sans-Serif" font-size="10.00">Exception</text>
</a>
</g>
</g>
<!-- Node0 -->
<g id="node2" class="node">
<title>Node0</title>
<g id="a_node2"><a xlink:href="class_volume_control_1_1_core_1_1_input_1_1_exceptions_1_1_action_setting_not_found_exception.html" target="_top" xlink:title="Represents errors that occur when a hotkey action setting wasn&#39;t found in a HotkeyActionPressedEventA...">
<polygon fill="none" stroke="black" points="116,-110.5 116,-151.5 301,-151.5 301,-110.5 116,-110.5"/>
<text text-anchor="start" x="124" y="-139.5" font-family="Helvetica,sans-Serif" font-size="10.00">VolumeControl.Core.Input.</text>
<text text-anchor="start" x="124" y="-128.5" font-family="Helvetica,sans-Serif" font-size="10.00">Exceptions.ActionSettingNotFound</text>
<text text-anchor="middle" x="208.5" y="-117.5" font-family="Helvetica,sans-Serif" font-size="10.00">Exception</text>
</a>
</g>
</g>
<!-- Node50&#45;&gt;Node0 -->
<g id="edge1" class="edge">
<title>Node50&#45;&gt;Node0</title>
<path fill="none" stroke="midnightblue" d="M67.17,-89.07C77.91,-93.08 89.9,-97.39 101,-101 110.86,-104.21 121.3,-107.4 131.64,-110.44"/>
<polygon fill="midnightblue" stroke="midnightblue" points="68.3,-85.76 57.7,-85.5 65.82,-92.31 68.3,-85.76"/>
</g>
<!-- Node52 -->
<g id="node3" class="node">
<title>Node52</title>
<g id="a_node3"><a xlink:href="class_volume_control_1_1_core_1_1_input_1_1_exceptions_1_1_hotkey_registration_exception.html" target="_top" xlink:title=" ">
<polygon fill="none" stroke="black" points="101,-61 101,-91 316,-91 316,-61 101,-61"/>
<text text-anchor="start" x="109" y="-79" font-family="Helvetica,sans-Serif" font-size="10.00">VolumeControl.Core.Input.</text>
<text text-anchor="middle" x="208.5" y="-68" font-family="Helvetica,sans-Serif" font-size="10.00">Exceptions.HotkeyRegistrationException</text>
</a>
</g>
</g>
<!-- Node50&#45;&gt;Node52 -->
<g id="edge2" class="edge">
<title>Node50&#45;&gt;Node52</title>
<path fill="none" stroke="midnightblue" d="M75.07,-76C83.05,-76 91.75,-76 100.75,-76"/>
<polygon fill="midnightblue" stroke="midnightblue" points="75.01,-72.5 65.01,-76 75.01,-79.5 75.01,-72.5"/>
</g>
<!-- Node53 -->
<g id="node4" class="node">
<title>Node53</title>
<g id="a_node4"><a xlink:href="class_volume_control_1_1_core_1_1_input_1_1_exceptions_1_1_invalid_action_setting_value_type_exception.html" target="_top" xlink:title="Represents type errors that occur from the ActionSettingInstance&lt;T&gt; class.">
<polygon fill="none" stroke="black" points="123,-0.5 123,-41.5 294,-41.5 294,-0.5 123,-0.5"/>
<text text-anchor="start" x="131" y="-29.5" font-family="Helvetica,sans-Serif" font-size="10.00">VolumeControl.Core.Input.</text>
<text text-anchor="start" x="131" y="-18.5" font-family="Helvetica,sans-Serif" font-size="10.00">Exceptions.InvalidActionSetting</text>
<text text-anchor="middle" x="208.5" y="-7.5" font-family="Helvetica,sans-Serif" font-size="10.00">ValueTypeException</text>
</a>
</g>
</g>
<!-- Node50&#45;&gt;Node53 -->
<g id="edge3" class="edge">
<title>Node50&#45;&gt;Node53</title>
<path fill="none" stroke="midnightblue" d="M68.87,-62.99C79.18,-59.31 90.51,-55.39 101,-52 111.9,-48.48 123.49,-44.92 134.86,-41.53"/>
<polygon fill="midnightblue" stroke="midnightblue" points="67.57,-59.74 59.34,-66.41 69.94,-66.32 67.57,-59.74"/>
</g>
</g>
</svg>
