<?xml version="1.0" encoding="UTF-8" standalone="no"?>
<!DOCTYPE svg PUBLIC "-//W3C//DTD SVG 1.1//EN"
 "http://www.w3.org/Graphics/SVG/1.1/DTD/svg11.dtd">
<!-- Generated by graphviz version 2.43.0 (0)
 -->
<!-- Title: Graphical Class Hierarchy Pages: 1 -->
<svg width="322pt" height="382pt"
 viewBox="0.00 0.00 322.00 382.00" xmlns="http://www.w3.org/2000/svg" xmlns:xlink="http://www.w3.org/1999/xlink">
<g id="graph0" class="graph" transform="scale(1 1) rotate(0) translate(4 378)">
<title>Graphical Class Hierarchy</title>
<!-- Node14 -->
<g id="node1" class="node">
<title>Node14</title>
<g id="a_node1"><a xlink:title=" ">
<polygon fill="none" stroke="#bfbfbf" points="0,-177 0,-196 60,-196 60,-177 0,-177"/>
<text text-anchor="middle" x="30" y="-184" font-family="Helvetica,sans-Serif" font-size="10.00">Behavior</text>
</a>
</g>
</g>
<!-- Node0 -->
<g id="node2" class="node">
<title>Node0</title>
<g id="a_node2"><a xlink:href="class_volume_control_1_1_w_p_f_1_1_behaviors_1_1_escape_removes_focus_behavior.html" target="_top" xlink:title="Removes logical and/or keyboard focus from the attached control when the Escape key is pressed.">
<polygon fill="none" stroke="black" points="121,-343.5 121,-373.5 289,-373.5 289,-343.5 121,-343.5"/>
<text text-anchor="start" x="129" y="-361.5" font-family="Helvetica,sans-Serif" font-size="10.00">VolumeControl.WPF.Behaviors.</text>
<text text-anchor="middle" x="205" y="-350.5" font-family="Helvetica,sans-Serif" font-size="10.00">EscapeRemovesFocusBehavior</text>
</a>
</g>
</g>
<!-- Node14&#45;&gt;Node0 -->
<g id="edge1" class="edge">
<title>Node14&#45;&gt;Node0</title>
<path fill="none" stroke="midnightblue" d="M33.87,-206.18C39.62,-238.21 55.66,-301.35 96,-334.5 103.35,-340.54 111.89,-345.14 120.89,-348.63"/>
<polygon fill="midnightblue" stroke="midnightblue" points="37.31,-205.55 32.24,-196.25 30.41,-206.68 37.31,-205.55"/>
</g>
<!-- Node16 -->
<g id="node3" class="node">
<title>Node16</title>
<g id="a_node3"><a xlink:href="class_volume_control_1_1_w_p_f_1_1_behaviors_1_1_hyperlink_open_in_browser_behavior.html" target="_top" xlink:title="Hyperlink behavior that opens the link in the default browser.">
<polygon fill="none" stroke="black" points="114,-294.5 114,-324.5 296,-324.5 296,-294.5 114,-294.5"/>
<text text-anchor="start" x="122" y="-312.5" font-family="Helvetica,sans-Serif" font-size="10.00">VolumeControl.WPF.Behaviors.</text>
<text text-anchor="middle" x="205" y="-301.5" font-family="Helvetica,sans-Serif" font-size="10.00">HyperlinkOpenInBrowserBehavior</text>
</a>
</g>
</g>
<!-- Node14&#45;&gt;Node16 -->
<g id="edge2" class="edge">
<title>Node14&#45;&gt;Node16</title>
<path fill="none" stroke="midnightblue" d="M38.33,-205.76C48,-228.47 67.22,-265.63 96,-285.5 101.53,-289.32 107.57,-292.54 113.87,-295.26"/>
<polygon fill="midnightblue" stroke="midnightblue" points="41.45,-204.14 34.45,-196.18 34.96,-206.77 41.45,-204.14"/>
</g>
<!-- Node17 -->
<g id="node4" class="node">
<title>Node17</title>
<g id="a_node4"><a xlink:href="class_volume_control_1_1_w_p_f_1_1_behaviors_1_1_mouse_wheel_list_view_behavior.html" target="_top" xlink:title="Behavior&lt;T&gt; that enables the mouse wheel to increment/decrement the selected item in a ListView.">
<polygon fill="none" stroke="black" points="121.5,-245.5 121.5,-275.5 288.5,-275.5 288.5,-245.5 121.5,-245.5"/>
<text text-anchor="start" x="129.5" y="-263.5" font-family="Helvetica,sans-Serif" font-size="10.00">VolumeControl.WPF.Behaviors.</text>
<text text-anchor="middle" x="205" y="-252.5" font-family="Helvetica,sans-Serif" font-size="10.00">MouseWheelListViewBehavior</text>
</a>
</g>
</g>
<!-- Node14&#45;&gt;Node17 -->
<g id="edge3" class="edge">
<title>Node14&#45;&gt;Node17</title>
<path fill="none" stroke="midnightblue" d="M48.32,-203.24C60.67,-214.28 78.18,-228.17 96,-236.5 104,-240.24 112.62,-243.41 121.37,-246.1"/>
<polygon fill="midnightblue" stroke="midnightblue" points="50.38,-200.38 40.65,-196.17 45.63,-205.52 50.38,-200.38"/>
</g>
<!-- Node18 -->
<g id="node5" class="node">
<title>Node18</title>
<g id="a_node5"><a xlink:href="class_volume_control_1_1_w_p_f_1_1_behaviors_1_1_mouse_wheel_numeric_up_down_behavior.html" target="_top" xlink:title="Behavior&lt;T&gt; that enables the mouse wheel to change the value of NumericUpDown controls.">
<polygon fill="none" stroke="black" points="102,-196.5 102,-226.5 308,-226.5 308,-196.5 102,-196.5"/>
<text text-anchor="start" x="110" y="-214.5" font-family="Helvetica,sans-Serif" font-size="10.00">VolumeControl.WPF.Behaviors.</text>
<text text-anchor="middle" x="205" y="-203.5" font-family="Helvetica,sans-Serif" font-size="10.00">MouseWheelNumericUpDownBehavior</text>
</a>
</g>
</g>
<!-- Node14&#45;&gt;Node18 -->
<g id="edge4" class="edge">
<title>Node14&#45;&gt;Node18</title>
<path fill="none" stroke="midnightblue" d="M70.31,-192.18C79.93,-193.57 90.67,-195.12 101.77,-196.73"/>
<polygon fill="midnightblue" stroke="midnightblue" points="70.74,-188.71 60.35,-190.74 69.74,-195.64 70.74,-188.71"/>
</g>
<!-- Node19 -->
<g id="node6" class="node">
<title>Node19</title>
<g id="a_node6"><a xlink:href="class_volume_control_1_1_w_p_f_1_1_behaviors_1_1_mouse_wheel_range_base_behavior.html" target="_top" xlink:title="Behavior&lt;T&gt; that enables the mouse wheel to change the value of controls based on RangeBase.">
<polygon fill="none" stroke="black" points="116,-147.5 116,-177.5 294,-177.5 294,-147.5 116,-147.5"/>
<text text-anchor="start" x="124" y="-165.5" font-family="Helvetica,sans-Serif" font-size="10.00">VolumeControl.WPF.Behaviors.</text>
<text text-anchor="middle" x="205" y="-154.5" font-family="Helvetica,sans-Serif" font-size="10.00">MouseWheelRangeBaseBehavior</text>
</a>
</g>
</g>
<!-- Node14&#45;&gt;Node19 -->
<g id="edge5" class="edge">
<title>Node14&#45;&gt;Node19</title>
<path fill="none" stroke="midnightblue" d="M70.32,-181.05C83.98,-179.15 99.91,-176.94 115.91,-174.72"/>
<polygon fill="midnightblue" stroke="midnightblue" points="69.77,-177.59 60.35,-182.43 70.73,-184.52 69.77,-177.59"/>
</g>
<!-- Node20 -->
<g id="node7" class="node">
<title>Node20</title>
<g id="a_node7"><a xlink:href="class_volume_control_1_1_w_p_f_1_1_behaviors_1_1_text_box_autocomplete_behavior.html" target="_top" xlink:title="Behavior that implements autocomplete suggestions for TextBox controls.">
<polygon fill="none" stroke="black" points="121.5,-98.5 121.5,-128.5 288.5,-128.5 288.5,-98.5 121.5,-98.5"/>
<text text-anchor="start" x="129.5" y="-116.5" font-family="Helvetica,sans-Serif" font-size="10.00">VolumeControl.WPF.Behaviors.</text>
<text text-anchor="middle" x="205" y="-105.5" font-family="Helvetica,sans-Serif" font-size="10.00">TextBoxAutocompleteBehavior</text>
</a>
</g>
</g>
<!-- Node14&#45;&gt;Node20 -->
<g id="edge6" class="edge">
<title>Node14&#45;&gt;Node20</title>
<path fill="none" stroke="midnightblue" d="M48.9,-170.13C61.28,-159.63 78.61,-146.51 96,-138.5 104.39,-134.63 113.43,-131.34 122.58,-128.54"/>
<polygon fill="midnightblue" stroke="midnightblue" points="46.4,-167.66 41.17,-176.88 51.01,-172.93 46.4,-167.66"/>
</g>
<!-- Node21 -->
<g id="node8" class="node">
<title>Node21</title>
<g id="a_node8"><a xlink:href="class_volume_control_1_1_w_p_f_1_1_behaviors_1_1_text_box_enter_updates_text_source_behavior.html" target="_top" xlink:title="Forces the TextBox.Text property&#39;s data binding to update its source when the Enter key is pressed or...">
<polygon fill="none" stroke="black" points="96,-49.5 96,-79.5 314,-79.5 314,-49.5 96,-49.5"/>
<text text-anchor="start" x="104" y="-67.5" font-family="Helvetica,sans-Serif" font-size="10.00">VolumeControl.WPF.Behaviors.</text>
<text text-anchor="middle" x="205" y="-56.5" font-family="Helvetica,sans-Serif" font-size="10.00">TextBoxEnterUpdatesTextSourceBehavior</text>
</a>
</g>
</g>
<!-- Node14&#45;&gt;Node21 -->
<g id="edge7" class="edge">
<title>Node14&#45;&gt;Node21</title>
<path fill="none" stroke="midnightblue" d="M38.61,-167.33C48.46,-145.08 67.77,-108.98 96,-89.5 101.62,-85.62 107.76,-82.34 114.17,-79.56"/>
<polygon fill="midnightblue" stroke="midnightblue" points="35.31,-166.16 34.65,-176.73 41.76,-168.88 35.31,-166.16"/>
</g>
<!-- Node22 -->
<g id="node9" class="node">
<title>Node22</title>
<g id="a_node9"><a xlink:href="class_volume_control_1_1_w_p_f_1_1_behaviors_1_1_text_box_input_filter_behavior.html" target="_top" xlink:title="TextBox behavior that uses regular expressions to only allow certain types of input.">
<polygon fill="none" stroke="black" points="121.5,-0.5 121.5,-30.5 288.5,-30.5 288.5,-0.5 121.5,-0.5"/>
<text text-anchor="start" x="129.5" y="-18.5" font-family="Helvetica,sans-Serif" font-size="10.00">VolumeControl.WPF.Behaviors.</text>
<text text-anchor="middle" x="205" y="-7.5" font-family="Helvetica,sans-Serif" font-size="10.00">TextBoxInputFilterBehavior</text>
</a>
</g>
</g>
<!-- Node14&#45;&gt;Node22 -->
<g id="edge8" class="edge">
<title>Node14&#45;&gt;Node22</title>
<path fill="none" stroke="midnightblue" d="M34.06,-166.7C40.05,-135.03 56.35,-73.21 96,-40.5 103.5,-34.32 112.24,-29.6 121.44,-26.01"/>
<polygon fill="midnightblue" stroke="midnightblue" points="30.56,-166.45 32.3,-176.9 37.45,-167.64 30.56,-166.45"/>
</g>
</g>
</svg>
