<?xml version="1.0" encoding="UTF-8" standalone="no"?>
<!DOCTYPE svg PUBLIC "-//W3C//DTD SVG 1.1//EN"
 "http://www.w3.org/Graphics/SVG/1.1/DTD/svg11.dtd">
<!-- Generated by graphviz version 2.43.0 (0)
 -->
<!-- Title: Graphical Class Hierarchy Pages: 1 -->
<svg width="322pt" height="66pt"
 viewBox="0.00 0.00 322.00 66.00" xmlns="http://www.w3.org/2000/svg" xmlns:xlink="http://www.w3.org/1999/xlink">
<g id="graph0" class="graph" transform="scale(1 1) rotate(0) translate(4 62)">
<title>Graphical Class Hierarchy</title>
<!-- Node3 -->
<g id="node1" class="node">
<title>Node3</title>
<g id="a_node1"><a xlink:title=" ">
<polygon fill="none" stroke="#bfbfbf" points="18.5,-38.5 18.5,-57.5 73.5,-57.5 73.5,-38.5 18.5,-38.5"/>
<text text-anchor="middle" x="46" y="-45.5" font-family="Helvetica,sans-Serif" font-size="10.00">Adorner</text>
</a>
</g>
</g>
<!-- Node0 -->
<g id="node2" class="node">
<title>Node0</title>
<g id="a_node2"><a xlink:href="class_volume_control_1_1_w_p_f_1_1_custom_message_box_1_1_custom_adorner.html" target="_top" xlink:title=" ">
<polygon fill="none" stroke="black" points="128,-14 128,-44 314,-44 314,-14 128,-14"/>
<text text-anchor="start" x="136" y="-32" font-family="Helvetica,sans-Serif" font-size="10.00">VolumeControl.WPF.Custom</text>
<text text-anchor="middle" x="221" y="-21" font-family="Helvetica,sans-Serif" font-size="10.00">MessageBox.CustomAdorner&lt; T &gt;</text>
</a>
</g>
</g>
<!-- Node3&#45;&gt;Node0 -->
<g id="edge1" class="edge">
<title>Node3&#45;&gt;Node0</title>
<path fill="none" stroke="midnightblue" d="M83.65,-43.98C96.78,-42.53 112.25,-40.83 127.96,-39.11"/>
<polygon fill="midnightblue" stroke="midnightblue" points="83.21,-40.5 73.65,-45.07 83.97,-47.46 83.21,-40.5"/>
</g>
<!-- Node35 -->
<g id="node3" class="node">
<title>Node35</title>
<g id="a_node3"><a xlink:title=" ">
<polygon fill="none" stroke="#bfbfbf" points="0,-0.5 0,-19.5 92,-19.5 92,-0.5 0,-0.5"/>
<text text-anchor="middle" x="46" y="-7.5" font-family="Helvetica,sans-Serif" font-size="10.00">CustomAdorner</text>
</a>
</g>
</g>
<!-- Node35&#45;&gt;Node0 -->
<g id="edge2" class="edge">
<title>Node35&#45;&gt;Node0</title>
<path fill="none" stroke="midnightblue" d="M102.19,-16.06C110.44,-16.97 119.13,-17.92 127.89,-18.88"/>
<polygon fill="midnightblue" stroke="midnightblue" points="102.32,-12.56 92,-14.94 101.56,-19.51 102.32,-12.56"/>
</g>
</g>
</svg>
