<?xml version="1.0" encoding="UTF-8" standalone="no"?>
<!DOCTYPE svg PUBLIC "-//W3C//DTD SVG 1.1//EN"
 "http://www.w3.org/Graphics/SVG/1.1/DTD/svg11.dtd">
<!-- Generated by graphviz version 2.43.0 (0)
 -->
<!-- Title: Graphical Class Hierarchy Pages: 1 -->
<svg width="316pt" height="186pt"
 viewBox="0.00 0.00 316.00 186.00" xmlns="http://www.w3.org/2000/svg" xmlns:xlink="http://www.w3.org/1999/xlink">
<g id="graph0" class="graph" transform="scale(1 1) rotate(0) translate(4 182)">
<title>Graphical Class Hierarchy</title>
<!-- Node25 -->
<g id="node1" class="node">
<title>Node25</title>
<g id="a_node1"><a xlink:title=" ">
<polygon fill="none" stroke="#bfbfbf" points="3,-80 3,-99 98,-99 98,-80 3,-80"/>
<text text-anchor="middle" x="50.5" y="-87" font-family="Helvetica,sans-Serif" font-size="10.00">IValueConverter</text>
</a>
</g>
</g>
<!-- Node26 -->
<g id="node2" class="node">
<title>Node26</title>
<g id="a_node2"><a xlink:href="class_volume_control_1_1_w_p_f_1_1_converters_1_1_boolean_inverter.html" target="_top" xlink:title="Binding converter for boolean types that negates the expression.">
<polygon fill="none" stroke="black" points="137,-98.5 137,-128.5 308,-128.5 308,-98.5 137,-98.5"/>
<text text-anchor="start" x="145" y="-116.5" font-family="Helvetica,sans-Serif" font-size="10.00">VolumeControl.WPF.Converters.</text>
<text text-anchor="middle" x="222.5" y="-105.5" font-family="Helvetica,sans-Serif" font-size="10.00">BooleanInverter</text>
</a>
</g>
</g>
<!-- Node25&#45;&gt;Node26 -->
<g id="edge1" class="edge">
<title>Node25&#45;&gt;Node26</title>
<path fill="none" stroke="midnightblue" d="M108.5,-97.55C117.65,-98.84 127.28,-100.2 136.91,-101.56"/>
<polygon fill="midnightblue" stroke="midnightblue" points="108.79,-94.05 98.4,-96.12 107.82,-100.99 108.79,-94.05"/>
</g>
<!-- Node0 -->
<g id="node3" class="node">
<title>Node0</title>
<g id="a_node3"><a xlink:href="class_volume_control_1_1_w_p_f_1_1_converters_1_1_bool_to_value_converter.html" target="_top" xlink:title="Use as the base class for BoolToXXX style converters">
<polygon fill="none" stroke="black" points="137,-147.5 137,-177.5 308,-177.5 308,-147.5 137,-147.5"/>
<text text-anchor="start" x="145" y="-165.5" font-family="Helvetica,sans-Serif" font-size="10.00">VolumeControl.WPF.Converters.</text>
<text text-anchor="middle" x="222.5" y="-154.5" font-family="Helvetica,sans-Serif" font-size="10.00">BoolToValueConverter&lt; T &gt;</text>
</a>
</g>
</g>
<!-- Node25&#45;&gt;Node0 -->
<g id="edge2" class="edge">
<title>Node25&#45;&gt;Node0</title>
<path fill="none" stroke="midnightblue" d="M74.33,-104.63C91.12,-115.24 114.78,-129.14 137,-138.5 144.73,-141.76 153.04,-144.72 161.32,-147.37"/>
<polygon fill="midnightblue" stroke="midnightblue" points="76.07,-101.59 65.77,-99.13 72.29,-107.48 76.07,-101.59"/>
</g>
<!-- Node23 -->
<g id="node4" class="node">
<title>Node23</title>
<g id="a_node4"><a xlink:href="class_volume_control_1_1_w_p_f_1_1_converters_1_1_converter_chain.html" target="_top" xlink:title=" ">
<polygon fill="none" stroke="black" points="137,-0.5 137,-30.5 308,-30.5 308,-0.5 137,-0.5"/>
<text text-anchor="start" x="145" y="-18.5" font-family="Helvetica,sans-Serif" font-size="10.00">VolumeControl.WPF.Converters.</text>
<text text-anchor="middle" x="222.5" y="-7.5" font-family="Helvetica,sans-Serif" font-size="10.00">ConverterChain</text>
</a>
</g>
</g>
<!-- Node25&#45;&gt;Node23 -->
<g id="edge3" class="edge">
<title>Node25&#45;&gt;Node23</title>
<path fill="none" stroke="midnightblue" d="M74.37,-74.44C91.17,-63.87 114.83,-49.98 137,-40.5 145.58,-36.83 154.87,-33.49 164.04,-30.53"/>
<polygon fill="midnightblue" stroke="midnightblue" points="72.33,-71.59 65.79,-79.92 76.1,-77.48 72.33,-71.59"/>
</g>
<!-- Node27 -->
<g id="node5" class="node">
<title>Node27</title>
<g id="a_node5"><a xlink:href="class_volume_control_1_1_w_p_f_1_1_converters_1_1_null_to_boolean_converter.html" target="_top" xlink:title="Converts from any object type to bool depending on whether or not that object is null.">
<polygon fill="none" stroke="black" points="137,-49.5 137,-79.5 308,-79.5 308,-49.5 137,-49.5"/>
<text text-anchor="start" x="145" y="-67.5" font-family="Helvetica,sans-Serif" font-size="10.00">VolumeControl.WPF.Converters.</text>
<text text-anchor="middle" x="222.5" y="-56.5" font-family="Helvetica,sans-Serif" font-size="10.00">NullToBooleanConverter</text>
</a>
</g>
</g>
<!-- Node25&#45;&gt;Node27 -->
<g id="edge4" class="edge">
<title>Node25&#45;&gt;Node27</title>
<path fill="none" stroke="midnightblue" d="M108.5,-81.12C117.65,-79.77 127.28,-78.36 136.91,-76.94"/>
<polygon fill="midnightblue" stroke="midnightblue" points="107.79,-77.68 98.4,-82.6 108.81,-84.61 107.79,-77.68"/>
</g>
<!-- Node22 -->
<g id="node6" class="node">
<title>Node22</title>
<g id="a_node6"><a xlink:title=" ">
<polygon fill="none" stroke="#bfbfbf" points="33.5,-6 33.5,-25 67.5,-25 67.5,-6 33.5,-6"/>
<text text-anchor="middle" x="50.5" y="-13" font-family="Helvetica,sans-Serif" font-size="10.00">List</text>
</a>
</g>
</g>
<!-- Node22&#45;&gt;Node23 -->
<g id="edge5" class="edge">
<title>Node22&#45;&gt;Node23</title>
<path fill="none" stroke="midnightblue" d="M77.96,-15.5C93.97,-15.5 115.36,-15.5 136.74,-15.5"/>
<polygon fill="midnightblue" stroke="midnightblue" points="77.8,-12 67.8,-15.5 77.8,-19 77.8,-12"/>
</g>
<!-- Node19 -->
<g id="node7" class="node">
<title>Node19</title>
<g id="a_node7"><a xlink:title=" ">
<polygon fill="none" stroke="#bfbfbf" points="0,-153 0,-172 101,-172 101,-153 0,-153"/>
<text text-anchor="middle" x="50.5" y="-160" font-family="Helvetica,sans-Serif" font-size="10.00">MarkupExtension</text>
</a>
</g>
</g>
<!-- Node19&#45;&gt;Node0 -->
<g id="edge6" class="edge">
<title>Node19&#45;&gt;Node0</title>
<path fill="none" stroke="midnightblue" d="M111.13,-162.5C119.5,-162.5 128.22,-162.5 136.95,-162.5"/>
<polygon fill="midnightblue" stroke="midnightblue" points="111.13,-159 101.13,-162.5 111.13,-166 111.13,-159"/>
</g>
</g>
</svg>
