<?xml version="1.0" encoding="UTF-8" standalone="no"?>
<!DOCTYPE svg PUBLIC "-//W3C//DTD SVG 1.1//EN"
 "http://www.w3.org/Graphics/SVG/1.1/DTD/svg11.dtd">
<!-- Generated by graphviz version 2.43.0 (0)
 -->
<!-- Title: Graphical Class Hierarchy Pages: 1 -->
<svg width="271pt" height="186pt"
 viewBox="0.00 0.00 271.00 186.00" xmlns="http://www.w3.org/2000/svg" xmlns:xlink="http://www.w3.org/1999/xlink">
<g id="graph0" class="graph" transform="scale(1 1) rotate(0) translate(4 182)">
<title>Graphical Class Hierarchy</title>
<!-- Node9 -->
<g id="node1" class="node">
<title>Node9</title>
<g id="a_node1"><a xlink:title=" ">
<polygon fill="none" stroke="#bfbfbf" points="0,-79 0,-98 59,-98 59,-79 0,-79"/>
<text text-anchor="middle" x="29.5" y="-86" font-family="Helvetica,sans-Serif" font-size="10.00">Attribute</text>
</a>
</g>
</g>
<!-- Node0 -->
<g id="node2" class="node">
<title>Node0</title>
<g id="a_node2"><a xlink:href="class_volume_control_1_1_core_1_1_attributes_1_1_data_template_provider_attribute.html" target="_top" xlink:title="Indicates that this class is a ITemplateProvider or ITemplateDictionaryProvider for action setting Da...">
<polygon fill="none" stroke="black" points="95,-147.5 95,-177.5 263,-177.5 263,-147.5 95,-147.5"/>
<text text-anchor="start" x="103" y="-165.5" font-family="Helvetica,sans-Serif" font-size="10.00">VolumeControl.Core.Attributes.</text>
<text text-anchor="middle" x="179" y="-154.5" font-family="Helvetica,sans-Serif" font-size="10.00">DataTemplateProviderAttribute</text>
</a>
</g>
</g>
<!-- Node9&#45;&gt;Node0 -->
<g id="edge1" class="edge">
<title>Node9&#45;&gt;Node0</title>
<path fill="none" stroke="midnightblue" d="M48.27,-105.28C60.57,-116.1 77.76,-129.73 95,-138.5 101.69,-141.9 108.93,-144.89 116.25,-147.49"/>
<polygon fill="midnightblue" stroke="midnightblue" points="50.37,-102.46 40.6,-98.34 45.67,-107.64 50.37,-102.46"/>
</g>
<!-- Node11 -->
<g id="node3" class="node">
<title>Node11</title>
<g id="a_node3"><a xlink:href="class_volume_control_1_1_core_1_1_attributes_1_1_hotkey_action_attribute.html" target="_top" xlink:title="Indicates that this is a hotkey action method.">
<polygon fill="none" stroke="black" points="95,-98.5 95,-128.5 263,-128.5 263,-98.5 95,-98.5"/>
<text text-anchor="start" x="103" y="-116.5" font-family="Helvetica,sans-Serif" font-size="10.00">VolumeControl.Core.Attributes.</text>
<text text-anchor="middle" x="179" y="-105.5" font-family="Helvetica,sans-Serif" font-size="10.00">HotkeyActionAttribute</text>
</a>
</g>
</g>
<!-- Node9&#45;&gt;Node11 -->
<g id="edge2" class="edge">
<title>Node9&#45;&gt;Node11</title>
<path fill="none" stroke="midnightblue" d="M69.29,-95.07C77.23,-96.42 85.88,-97.89 94.72,-99.38"/>
<polygon fill="midnightblue" stroke="midnightblue" points="69.73,-91.6 59.29,-93.38 68.56,-98.5 69.73,-91.6"/>
</g>
<!-- Node12 -->
<g id="node4" class="node">
<title>Node12</title>
<g id="a_node4"><a xlink:href="class_volume_control_1_1_core_1_1_attributes_1_1_hotkey_action_group_attribute.html" target="_top" xlink:title="Indicates that the associated class contains hotkey action methods marked with HotkeyActionAttribute.">
<polygon fill="none" stroke="black" points="95,-49.5 95,-79.5 263,-79.5 263,-49.5 95,-49.5"/>
<text text-anchor="start" x="103" y="-67.5" font-family="Helvetica,sans-Serif" font-size="10.00">VolumeControl.Core.Attributes.</text>
<text text-anchor="middle" x="179" y="-56.5" font-family="Helvetica,sans-Serif" font-size="10.00">HotkeyActionGroupAttribute</text>
</a>
</g>
</g>
<!-- Node9&#45;&gt;Node12 -->
<g id="edge3" class="edge">
<title>Node9&#45;&gt;Node12</title>
<path fill="none" stroke="midnightblue" d="M69.29,-82.19C77.23,-80.9 85.88,-79.49 94.72,-78.05"/>
<polygon fill="midnightblue" stroke="midnightblue" points="68.6,-78.75 59.29,-83.82 69.72,-85.66 68.6,-78.75"/>
</g>
<!-- Node13 -->
<g id="node5" class="node">
<title>Node13</title>
<g id="a_node5"><a xlink:href="class_volume_control_1_1_core_1_1_attributes_1_1_hotkey_action_setting_attribute.html" target="_top" xlink:title="Specifies an action setting for the associated hotkey action method.">
<polygon fill="none" stroke="black" points="95,-0.5 95,-30.5 263,-30.5 263,-0.5 95,-0.5"/>
<text text-anchor="start" x="103" y="-18.5" font-family="Helvetica,sans-Serif" font-size="10.00">VolumeControl.Core.Attributes.</text>
<text text-anchor="middle" x="179" y="-7.5" font-family="Helvetica,sans-Serif" font-size="10.00">HotkeyActionSettingAttribute</text>
</a>
</g>
</g>
<!-- Node9&#45;&gt;Node13 -->
<g id="edge4" class="edge">
<title>Node9&#45;&gt;Node13</title>
<path fill="none" stroke="midnightblue" d="M48.86,-72.11C61.18,-61.83 78.18,-48.96 95,-40.5 102.39,-36.78 110.44,-33.5 118.52,-30.65"/>
<polygon fill="midnightblue" stroke="midnightblue" points="46.45,-69.57 41.14,-78.74 51.01,-74.88 46.45,-69.57"/>
</g>
</g>
</svg>
