<?xml version="1.0" encoding="UTF-8" standalone="no"?>
<!DOCTYPE svg PUBLIC "-//W3C//DTD SVG 1.1//EN"
 "http://www.w3.org/Graphics/SVG/1.1/DTD/svg11.dtd">
<!-- Generated by graphviz version 2.43.0 (0)
 -->
<!-- Title: Graphical Class Hierarchy Pages: 1 -->
<svg width="324pt" height="210pt"
 viewBox="0.00 0.00 324.00 209.50" xmlns="http://www.w3.org/2000/svg" xmlns:xlink="http://www.w3.org/1999/xlink">
<g id="graph0" class="graph" transform="scale(1 1) rotate(0) translate(4 205.5)">
<title>Graphical Class Hierarchy</title>
<!-- Node49 -->
<g id="node1" class="node">
<title>Node49</title>
<g id="a_node1"><a xlink:title=" ">
<polygon fill="none" stroke="#bfbfbf" points="0,-93.5 0,-112.5 65,-112.5 65,-93.5 0,-93.5"/>
<text text-anchor="middle" x="32.5" y="-100.5" font-family="Helvetica,sans-Serif" font-size="10.00">Exception</text>
</a>
</g>
</g>
<!-- Node0 -->
<g id="node2" class="node">
<title>Node0</title>
<g id="a_node2"><a xlink:href="class_volume_control_1_1_core_1_1_embedded_resource_not_found_exception.html" target="_top" xlink:title="Represents errors that occur while trying to access an embedded resource file.">
<polygon fill="none" stroke="black" points="124,-171 124,-201 293,-201 293,-171 124,-171"/>
<text text-anchor="start" x="132" y="-189" font-family="Helvetica,sans-Serif" font-size="10.00">VolumeControl.Core.Embedded</text>
<text text-anchor="middle" x="208.5" y="-178" font-family="Helvetica,sans-Serif" font-size="10.00">ResourceNotFoundException</text>
</a>
</g>
</g>
<!-- Node49&#45;&gt;Node0 -->
<g id="edge1" class="edge">
<title>Node49&#45;&gt;Node0</title>
<path fill="none" stroke="midnightblue" d="M49.1,-120.33C61.83,-133.41 80.92,-150.8 101,-161 108.62,-164.87 116.85,-168.16 125.24,-170.94"/>
<polygon fill="midnightblue" stroke="midnightblue" points="51.46,-117.72 42.05,-112.84 46.36,-122.52 51.46,-117.72"/>
</g>
<!-- Node51 -->
<g id="node3" class="node">
<title>Node51</title>
<g id="a_node3"><a xlink:href="class_volume_control_1_1_core_1_1_input_1_1_exceptions_1_1_action_setting_not_found_exception.html" target="_top" xlink:title="Represents errors that occur when a hotkey action setting wasn&#39;t found in a HotkeyActionPressedEventA...">
<polygon fill="none" stroke="black" points="116,-110.5 116,-151.5 301,-151.5 301,-110.5 116,-110.5"/>
<text text-anchor="start" x="124" y="-139.5" font-family="Helvetica,sans-Serif" font-size="10.00">VolumeControl.Core.Input.</text>
<text text-anchor="start" x="124" y="-128.5" font-family="Helvetica,sans-Serif" font-size="10.00">Exceptions.ActionSettingNotFound</text>
<text text-anchor="middle" x="208.5" y="-117.5" font-family="Helvetica,sans-Serif" font-size="10.00">Exception</text>
</a>
</g>
</g>
<!-- Node49&#45;&gt;Node51 -->
<g id="edge2" class="edge">
<title>Node49&#45;&gt;Node51</title>
<path fill="none" stroke="midnightblue" d="M74.99,-109.68C87.4,-111.67 101.53,-113.95 115.82,-116.25"/>
<polygon fill="midnightblue" stroke="midnightblue" points="75.44,-106.2 65.01,-108.07 74.33,-113.11 75.44,-106.2"/>
</g>
<!-- Node52 -->
<g id="node4" class="node">
<title>Node52</title>
<g id="a_node4"><a xlink:href="class_volume_control_1_1_core_1_1_input_1_1_exceptions_1_1_hotkey_registration_exception.html" target="_top" xlink:title=" ">
<polygon fill="none" stroke="black" points="101,-61 101,-91 316,-91 316,-61 101,-61"/>
<text text-anchor="start" x="109" y="-79" font-family="Helvetica,sans-Serif" font-size="10.00">VolumeControl.Core.Input.</text>
<text text-anchor="middle" x="208.5" y="-68" font-family="Helvetica,sans-Serif" font-size="10.00">Exceptions.HotkeyRegistrationException</text>
</a>
</g>
</g>
<!-- Node49&#45;&gt;Node52 -->
<g id="edge3" class="edge">
<title>Node49&#45;&gt;Node52</title>
<path fill="none" stroke="midnightblue" d="M75.02,-96.56C85.92,-94.87 98.14,-92.97 110.64,-91.03"/>
<polygon fill="midnightblue" stroke="midnightblue" points="74.36,-93.12 65.01,-98.11 75.43,-100.04 74.36,-93.12"/>
</g>
<!-- Node53 -->
<g id="node5" class="node">
<title>Node53</title>
<g id="a_node5"><a xlink:href="class_volume_control_1_1_core_1_1_input_1_1_exceptions_1_1_invalid_action_setting_value_type_exception.html" target="_top" xlink:title="Represents type errors that occur from the ActionSettingInstance&lt;T&gt; class.">
<polygon fill="none" stroke="black" points="123,-0.5 123,-41.5 294,-41.5 294,-0.5 123,-0.5"/>
<text text-anchor="start" x="131" y="-29.5" font-family="Helvetica,sans-Serif" font-size="10.00">VolumeControl.Core.Input.</text>
<text text-anchor="start" x="131" y="-18.5" font-family="Helvetica,sans-Serif" font-size="10.00">Exceptions.InvalidActionSetting</text>
<text text-anchor="middle" x="208.5" y="-7.5" font-family="Helvetica,sans-Serif" font-size="10.00">ValueTypeException</text>
</a>
</g>
</g>
<!-- Node49&#45;&gt;Node53 -->
<g id="edge4" class="edge">
<title>Node49&#45;&gt;Node53</title>
<path fill="none" stroke="midnightblue" d="M51.35,-86.63C64.3,-75.5 82.69,-61.19 101,-52 108.74,-48.11 117.06,-44.63 125.5,-41.54"/>
<polygon fill="midnightblue" stroke="midnightblue" points="48.86,-84.15 43.68,-93.39 53.49,-89.4 48.86,-84.15"/>
</g>
</g>
</svg>
