<?xml version="1.0" encoding="UTF-8" standalone="no"?>
<!DOCTYPE svg PUBLIC "-//W3C//DTD SVG 1.1//EN"
 "http://www.w3.org/Graphics/SVG/1.1/DTD/svg11.dtd">
<!-- Generated by graphviz version 2.43.0 (0)
 -->
<!-- Title: Graphical Class Hierarchy Pages: 1 -->
<svg width="594pt" height="88pt"
 viewBox="0.00 0.00 594.00 88.00" xmlns="http://www.w3.org/2000/svg" xmlns:xlink="http://www.w3.org/1999/xlink">
<g id="graph0" class="graph" transform="scale(1 1) rotate(0) translate(4 84)">
<title>Graphical Class Hierarchy</title>
<!-- Node106 -->
<g id="node1" class="node">
<title>Node106</title>
<g id="a_node1"><a xlink:title=" ">
<polygon fill="none" stroke="#bfbfbf" points="42.5,-9 42.5,-28 101.5,-28 101.5,-9 42.5,-9"/>
<text text-anchor="middle" x="72" y="-16" font-family="Helvetica,sans-Serif" font-size="10.00">Attribute</text>
</a>
</g>
</g>
<!-- Node1 -->
<g id="node2" class="node">
<title>Node1</title>
<g id="a_node2"><a xlink:href="class_volume_control_1_1_core_1_1_base_addon_attribute.html" target="_top" xlink:title="Abstract base class that all other addon attributes inherit from. Unless you&#39;re implementing a new ad...">
<polygon fill="none" stroke="black" points="186.5,-49.5 186.5,-79.5 358.5,-79.5 358.5,-49.5 186.5,-49.5"/>
<text text-anchor="start" x="194.5" y="-67.5" font-family="Helvetica,sans-Serif" font-size="10.00">VolumeControl.Core.BaseAddon</text>
<text text-anchor="middle" x="272.5" y="-56.5" font-family="Helvetica,sans-Serif" font-size="10.00">Attribute</text>
</a>
</g>
</g>
<!-- Node106&#45;&gt;Node1 -->
<g id="edge1" class="edge">
<title>Node106&#45;&gt;Node1</title>
<path fill="none" stroke="midnightblue" d="M111.68,-27.46C138.6,-33.7 175.14,-42.17 206.49,-49.44"/>
<polygon fill="midnightblue" stroke="midnightblue" points="112.4,-24.04 101.86,-25.19 110.82,-30.86 112.4,-24.04"/>
</g>
<!-- Node107 -->
<g id="node4" class="node">
<title>Node107</title>
<g id="a_node4"><a xlink:href="class_volume_control_1_1_hotkeys_1_1_attributes_1_1_hotkey_action_attribute.html" target="_top" xlink:title="Indicates that a method is a valid hotkey action. If you don&#39;t specify a name parameter,...">
<polygon fill="none" stroke="black" points="180,-0.5 180,-30.5 365,-30.5 365,-0.5 180,-0.5"/>
<text text-anchor="start" x="188" y="-18.5" font-family="Helvetica,sans-Serif" font-size="10.00">VolumeControl.Hotkeys.Attributes.</text>
<text text-anchor="middle" x="272.5" y="-7.5" font-family="Helvetica,sans-Serif" font-size="10.00">HotkeyActionAttribute</text>
</a>
</g>
</g>
<!-- Node106&#45;&gt;Node107 -->
<g id="edge3" class="edge">
<title>Node106&#45;&gt;Node107</title>
<path fill="none" stroke="midnightblue" d="M112.12,-17.91C131.56,-17.62 155.93,-17.25 179.73,-16.89"/>
<polygon fill="midnightblue" stroke="midnightblue" points="111.81,-14.41 101.86,-18.06 111.92,-21.41 111.81,-14.41"/>
</g>
<!-- Node2 -->
<g id="node3" class="node">
<title>Node2</title>
<g id="a_node3"><a xlink:href="class_volume_control_1_1_hotkeys_1_1_attributes_1_1_action_addon_attribute.html" target="_top" xlink:title="Marks the attached class type as a Hotkey Actions addon type.">
<polygon fill="none" stroke="black" points="401,-49.5 401,-79.5 586,-79.5 586,-49.5 401,-49.5"/>
<text text-anchor="start" x="409" y="-67.5" font-family="Helvetica,sans-Serif" font-size="10.00">VolumeControl.Hotkeys.Attributes.</text>
<text text-anchor="middle" x="493.5" y="-56.5" font-family="Helvetica,sans-Serif" font-size="10.00">ActionAddonAttribute</text>
</a>
</g>
</g>
<!-- Node1&#45;&gt;Node2 -->
<g id="edge2" class="edge">
<title>Node1&#45;&gt;Node2</title>
<path fill="none" stroke="midnightblue" d="M368.91,-64.5C379.54,-64.5 390.34,-64.5 400.92,-64.5"/>
<polygon fill="midnightblue" stroke="midnightblue" points="368.8,-61 358.8,-64.5 368.8,-68 368.8,-61"/>
</g>
<!-- Node0 -->
<g id="node5" class="node">
<title>Node0</title>
<g id="a_node5"><a xlink:href="interface_volume_control_1_1_core_1_1_i_base_addon_attribute.html" target="_top" xlink:title="Represents an addon attribute of any type.">
<polygon fill="none" stroke="black" points="0,-49.5 0,-79.5 144,-79.5 144,-49.5 0,-49.5"/>
<text text-anchor="start" x="8" y="-67.5" font-family="Helvetica,sans-Serif" font-size="10.00">VolumeControl.Core.IBase</text>
<text text-anchor="middle" x="72" y="-56.5" font-family="Helvetica,sans-Serif" font-size="10.00">AddonAttribute</text>
</a>
</g>
</g>
<!-- Node0&#45;&gt;Node1 -->
<g id="edge4" class="edge">
<title>Node0&#45;&gt;Node1</title>
<path fill="none" stroke="midnightblue" d="M154.16,-64.5C164.77,-64.5 175.66,-64.5 186.32,-64.5"/>
<polygon fill="midnightblue" stroke="midnightblue" points="154.1,-61 144.1,-64.5 154.1,-68 154.1,-61"/>
</g>
</g>
</svg>
