<?xml version="1.0" encoding="UTF-8" standalone="no"?>
<!DOCTYPE svg PUBLIC "-//W3C//DTD SVG 1.1//EN"
 "http://www.w3.org/Graphics/SVG/1.1/DTD/svg11.dtd">
<!-- Generated by graphviz version 2.43.0 (0)
 -->
<!-- Title: Graphical Class Hierarchy Pages: 1 -->
<svg width="509pt" height="284pt"
 viewBox="0.00 0.00 509.00 284.00" xmlns="http://www.w3.org/2000/svg" xmlns:xlink="http://www.w3.org/1999/xlink">
<g id="graph0" class="graph" transform="scale(1 1) rotate(0) translate(4 280)">
<title>Graphical Class Hierarchy</title>
<!-- Node97 -->
<g id="node1" class="node">
<title>Node97</title>
<g id="a_node1"><a xlink:title=" ">
<polygon fill="none" stroke="#bfbfbf" points="0,-104 0,-123 66,-123 66,-104 0,-104"/>
<text text-anchor="middle" x="33" y="-111" font-family="Helvetica,sans-Serif" font-size="10.00">EventArgs</text>
</a>
</g>
</g>
<!-- Node0 -->
<g id="node2" class="node">
<title>Node0</title>
<g id="a_node2"><a xlink:href="class_volume_control_1_1_audio_1_1_events_1_1_device_added_removed_event_args.html" target="_top" xlink:title="Event arguments for events related to the addition or removal of audio devices.">
<polygon fill="none" stroke="black" points="103,-196.5 103,-226.5 280,-226.5 280,-196.5 103,-196.5"/>
<text text-anchor="start" x="111" y="-214.5" font-family="Helvetica,sans-Serif" font-size="10.00">VolumeControl.Audio.Events.</text>
<text text-anchor="middle" x="191.5" y="-203.5" font-family="Helvetica,sans-Serif" font-size="10.00">DeviceAddedRemovedEventArgs</text>
</a>
</g>
</g>
<!-- Node97&#45;&gt;Node0 -->
<g id="edge1" class="edge">
<title>Node97&#45;&gt;Node0</title>
<path fill="none" stroke="midnightblue" d="M45.96,-131.5C58.12,-148.42 78.48,-173.2 102,-187.5 107.58,-190.89 113.64,-193.81 119.88,-196.32"/>
<polygon fill="midnightblue" stroke="midnightblue" points="48.66,-129.25 40.08,-123.04 42.91,-133.25 48.66,-129.25"/>
</g>
<!-- Node102 -->
<g id="node6" class="node">
<title>Node102</title>
<g id="a_node6"><a xlink:href="class_volume_control_1_1_audio_1_1_events_1_1_generic_read_only_event_args.html" target="_top" xlink:title="Generic read&#45;only data wrapper for the GenericReadOnlyEventHandler&lt;T&gt; event type.">
<polygon fill="none" stroke="black" points="102,-147.5 102,-177.5 281,-177.5 281,-147.5 102,-147.5"/>
<text text-anchor="start" x="110" y="-165.5" font-family="Helvetica,sans-Serif" font-size="10.00">VolumeControl.Audio.Events.</text>
<text text-anchor="middle" x="191.5" y="-154.5" font-family="Helvetica,sans-Serif" font-size="10.00">GenericReadOnlyEventArgs&lt; T &gt;</text>
</a>
</g>
</g>
<!-- Node97&#45;&gt;Node102 -->
<g id="edge5" class="edge">
<title>Node97&#45;&gt;Node102</title>
<path fill="none" stroke="midnightblue" d="M67.9,-126.63C78.73,-130.64 90.81,-134.93 102,-138.5 111.71,-141.59 122.09,-144.64 132.21,-147.47"/>
<polygon fill="midnightblue" stroke="midnightblue" points="68.96,-123.29 58.37,-123.05 66.5,-129.84 68.96,-123.29"/>
</g>
<!-- Node103 -->
<g id="node7" class="node">
<title>Node103</title>
<g id="a_node7"><a xlink:href="class_volume_control_1_1_audio_1_1_events_1_1_target_changed_event_args.html" target="_top" xlink:title="Event arguments for the TargetChangedEventHandler event type. &#160;This simply includes the TargetName pr...">
<polygon fill="none" stroke="black" points="112.5,-98.5 112.5,-128.5 270.5,-128.5 270.5,-98.5 112.5,-98.5"/>
<text text-anchor="start" x="120.5" y="-116.5" font-family="Helvetica,sans-Serif" font-size="10.00">VolumeControl.Audio.Events.</text>
<text text-anchor="middle" x="191.5" y="-105.5" font-family="Helvetica,sans-Serif" font-size="10.00">TargetChangedEventArgs</text>
</a>
</g>
</g>
<!-- Node97&#45;&gt;Node103 -->
<g id="edge6" class="edge">
<title>Node97&#45;&gt;Node103</title>
<path fill="none" stroke="midnightblue" d="M76.32,-113.5C87.48,-113.5 99.88,-113.5 112.28,-113.5"/>
<polygon fill="midnightblue" stroke="midnightblue" points="76.05,-110 66.05,-113.5 76.05,-117 76.05,-110"/>
</g>
<!-- Node104 -->
<g id="node8" class="node">
<title>Node104</title>
<g id="a_node8"><a xlink:href="class_volume_control_1_1_audio_1_1_events_1_1_target_changing_event_args.html" target="_top" xlink:title="Event arguments for the TargetChangedEventHandler event.">
<polygon fill="none" stroke="black" points="112.5,-49.5 112.5,-79.5 270.5,-79.5 270.5,-49.5 112.5,-49.5"/>
<text text-anchor="start" x="120.5" y="-67.5" font-family="Helvetica,sans-Serif" font-size="10.00">VolumeControl.Audio.Events.</text>
<text text-anchor="middle" x="191.5" y="-56.5" font-family="Helvetica,sans-Serif" font-size="10.00">TargetChangingEventArgs</text>
</a>
</g>
</g>
<!-- Node97&#45;&gt;Node104 -->
<g id="edge7" class="edge">
<title>Node97&#45;&gt;Node104</title>
<path fill="none" stroke="midnightblue" d="M69.35,-100.54C79.82,-96.84 91.33,-92.89 102,-89.5 112.65,-86.12 124.1,-82.72 135.1,-79.56"/>
<polygon fill="midnightblue" stroke="midnightblue" points="67.94,-97.33 59.7,-103.99 70.3,-103.92 67.94,-97.33"/>
</g>
<!-- Node105 -->
<g id="node9" class="node">
<title>Node105</title>
<g id="a_node9"><a xlink:href="class_volume_control_1_1_audio_1_1_events_1_1_volume_event_args.html" target="_top" xlink:title="Event arguments for the VolumeEventHandler event handler type.">
<polygon fill="none" stroke="black" points="112.5,-0.5 112.5,-30.5 270.5,-30.5 270.5,-0.5 112.5,-0.5"/>
<text text-anchor="start" x="120.5" y="-18.5" font-family="Helvetica,sans-Serif" font-size="10.00">VolumeControl.Audio.Events.</text>
<text text-anchor="middle" x="191.5" y="-7.5" font-family="Helvetica,sans-Serif" font-size="10.00">VolumeEventArgs</text>
</a>
</g>
</g>
<!-- Node97&#45;&gt;Node105 -->
<g id="edge8" class="edge">
<title>Node97&#45;&gt;Node105</title>
<path fill="none" stroke="midnightblue" d="M45.96,-95.5C58.12,-78.58 78.48,-53.8 102,-39.5 107.58,-36.11 113.64,-33.19 119.88,-30.68"/>
<polygon fill="midnightblue" stroke="midnightblue" points="42.91,-93.75 40.08,-103.96 48.66,-97.75 42.91,-93.75"/>
</g>
<!-- Node1 -->
<g id="node3" class="node">
<title>Node1</title>
<g id="a_node3"><a xlink:href="class_volume_control_1_1_audio_1_1_events_1_1_default_device_changed_event_args.html" target="_top" xlink:title="Event arguments for events related to device state change events.">
<polygon fill="none" stroke="black" points="319.5,-245.5 319.5,-275.5 498.5,-275.5 498.5,-245.5 319.5,-245.5"/>
<text text-anchor="start" x="327.5" y="-263.5" font-family="Helvetica,sans-Serif" font-size="10.00">VolumeControl.Audio.Events.</text>
<text text-anchor="middle" x="409" y="-252.5" font-family="Helvetica,sans-Serif" font-size="10.00">DefaultDeviceChangedEventArgs</text>
</a>
</g>
</g>
<!-- Node0&#45;&gt;Node1 -->
<g id="edge2" class="edge">
<title>Node0&#45;&gt;Node1</title>
<path fill="none" stroke="midnightblue" d="M268.4,-228.76C292.41,-234.22 318.74,-240.21 342,-245.49"/>
<polygon fill="midnightblue" stroke="midnightblue" points="269.15,-225.34 258.62,-226.53 267.6,-232.16 269.15,-225.34"/>
</g>
<!-- Node2 -->
<g id="node4" class="node">
<title>Node2</title>
<g id="a_node4"><a xlink:href="class_volume_control_1_1_audio_1_1_events_1_1_device_property_changed_event_args.html" target="_top" xlink:title="Event arguments for events related to device property change events.">
<polygon fill="none" stroke="black" points="317,-196.5 317,-226.5 501,-226.5 501,-196.5 317,-196.5"/>
<text text-anchor="start" x="325" y="-214.5" font-family="Helvetica,sans-Serif" font-size="10.00">VolumeControl.Audio.Events.</text>
<text text-anchor="middle" x="409" y="-203.5" font-family="Helvetica,sans-Serif" font-size="10.00">DevicePropertyChangedEventArgs</text>
</a>
</g>
</g>
<!-- Node0&#45;&gt;Node2 -->
<g id="edge3" class="edge">
<title>Node0&#45;&gt;Node2</title>
<path fill="none" stroke="midnightblue" d="M290.16,-211.5C299.07,-211.5 308.07,-211.5 316.92,-211.5"/>
<polygon fill="midnightblue" stroke="midnightblue" points="290.15,-208 280.15,-211.5 290.15,-215 290.15,-208"/>
</g>
<!-- Node3 -->
<g id="node5" class="node">
<title>Node3</title>
<g id="a_node5"><a xlink:href="class_volume_control_1_1_audio_1_1_events_1_1_device_state_changed_event_args.html" target="_top" xlink:title="Event arguments for events related to device state change events.">
<polygon fill="none" stroke="black" points="325,-147.5 325,-177.5 493,-177.5 493,-147.5 325,-147.5"/>
<text text-anchor="start" x="333" y="-165.5" font-family="Helvetica,sans-Serif" font-size="10.00">VolumeControl.Audio.Events.</text>
<text text-anchor="middle" x="409" y="-154.5" font-family="Helvetica,sans-Serif" font-size="10.00">DeviceStateChangedEventArgs</text>
</a>
</g>
</g>
<!-- Node0&#45;&gt;Node3 -->
<g id="edge4" class="edge">
<title>Node0&#45;&gt;Node3</title>
<path fill="none" stroke="midnightblue" d="M268.4,-194.24C292.41,-188.78 318.74,-182.79 342,-177.51"/>
<polygon fill="midnightblue" stroke="midnightblue" points="267.6,-190.84 258.62,-196.47 269.15,-197.66 267.6,-190.84"/>
</g>
</g>
</svg>
