<?xml version="1.0" encoding="UTF-8" standalone="no"?>
<!DOCTYPE svg PUBLIC "-//W3C//DTD SVG 1.1//EN"
 "http://www.w3.org/Graphics/SVG/1.1/DTD/svg11.dtd">
<!-- Generated by graphviz version 2.43.0 (0)
 -->
<!-- Title: VolumeControl.Log.Endpoints.IEndpoint Pages: 1 -->
<svg width="533pt" height="402pt"
 viewBox="0.00 0.00 533.00 402.00" xmlns="http://www.w3.org/2000/svg" xmlns:xlink="http://www.w3.org/1999/xlink">
<g id="graph0" class="graph" transform="scale(1 1) rotate(0) translate(4 398)">
<title>VolumeControl.Log.Endpoints.IEndpoint</title>
<!-- Node1 -->
<g id="node1" class="node">
<title>Node1</title>
<g id="a_node1"><a xlink:title="Represents an endpoint output target for a log writer, and exposes helper methods for interacting wit...">
<polygon fill="#bfbfbf" stroke="black" points="181,-259.5 181,-393.5 344,-393.5 344,-259.5 181,-259.5"/>
<text text-anchor="start" x="189" y="-381.5" font-family="Helvetica,sans-Serif" font-size="10.00">VolumeControl.Log.Endpoints.</text>
<text text-anchor="middle" x="262.5" y="-370.5" font-family="Helvetica,sans-Serif" font-size="10.00">IEndpoint</text>
<polyline fill="none" stroke="black" points="181,-363.5 344,-363.5 "/>
<text text-anchor="start" x="189" y="-351.5" font-family="Helvetica,sans-Serif" font-size="10.00">+ Enabled</text>
<polyline fill="none" stroke="black" points="181,-344.5 344,-344.5 "/>
<text text-anchor="start" x="189" y="-332.5" font-family="Helvetica,sans-Serif" font-size="10.00">+ GetReader()</text>
<text text-anchor="start" x="189" y="-321.5" font-family="Helvetica,sans-Serif" font-size="10.00">+ GetWriter()</text>
<text text-anchor="start" x="189" y="-310.5" font-family="Helvetica,sans-Serif" font-size="10.00">+ WriteRaw()</text>
<text text-anchor="start" x="189" y="-299.5" font-family="Helvetica,sans-Serif" font-size="10.00">+ WriteRawLine()</text>
<text text-anchor="start" x="189" y="-288.5" font-family="Helvetica,sans-Serif" font-size="10.00">+ ReadRaw()</text>
<text text-anchor="start" x="189" y="-277.5" font-family="Helvetica,sans-Serif" font-size="10.00">+ ReadRawLine()</text>
<text text-anchor="start" x="189" y="-266.5" font-family="Helvetica,sans-Serif" font-size="10.00">+ Reset()</text>
</a>
</g>
</g>
<!-- Node2 -->
<g id="node2" class="node">
<title>Node2</title>
<g id="a_node2"><a xlink:href="class_volume_control_1_1_log_1_1_endpoints_1_1_console_endpoint.html" target="_top" xlink:title="Allows using the Console as a logging endpoint.">
<polygon fill="none" stroke="black" points="0,-39 0,-184 163,-184 163,-39 0,-39"/>
<text text-anchor="start" x="8" y="-172" font-family="Helvetica,sans-Serif" font-size="10.00">VolumeControl.Log.Endpoints.</text>
<text text-anchor="middle" x="81.5" y="-161" font-family="Helvetica,sans-Serif" font-size="10.00">ConsoleEndpoint</text>
<polyline fill="none" stroke="black" points="0,-154 163,-154 "/>
<text text-anchor="start" x="8" y="-142" font-family="Helvetica,sans-Serif" font-size="10.00">+ Enabled</text>
<polyline fill="none" stroke="black" points="0,-135 163,-135 "/>
<text text-anchor="start" x="8" y="-123" font-family="Helvetica,sans-Serif" font-size="10.00">+ ConsoleEndpoint()</text>
<text text-anchor="start" x="8" y="-112" font-family="Helvetica,sans-Serif" font-size="10.00">+ GetReader()</text>
<text text-anchor="start" x="8" y="-101" font-family="Helvetica,sans-Serif" font-size="10.00">+ GetWriter()</text>
<text text-anchor="start" x="8" y="-90" font-family="Helvetica,sans-Serif" font-size="10.00">+ ReadRaw()</text>
<text text-anchor="start" x="8" y="-79" font-family="Helvetica,sans-Serif" font-size="10.00">+ ReadRawLine()</text>
<text text-anchor="start" x="8" y="-68" font-family="Helvetica,sans-Serif" font-size="10.00">+ Reset()</text>
<text text-anchor="start" x="8" y="-57" font-family="Helvetica,sans-Serif" font-size="10.00">+ WriteRaw()</text>
<text text-anchor="start" x="8" y="-46" font-family="Helvetica,sans-Serif" font-size="10.00">+ WriteRawLine()</text>
</a>
</g>
</g>
<!-- Node1&#45;&gt;Node2 -->
<g id="edge1" class="edge">
<title>Node1&#45;&gt;Node2</title>
<path fill="none" stroke="midnightblue" d="M196.36,-251.75C187.93,-242.13 179.47,-232.37 171.5,-223 160.92,-210.56 149.81,-197.19 139.16,-184.2"/>
<polygon fill="none" stroke="midnightblue" points="193.87,-254.22 203.1,-259.42 199.13,-249.6 193.87,-254.22"/>
</g>
<!-- Node3 -->
<g id="node3" class="node">
<title>Node3</title>
<g id="a_node3"><a xlink:href="class_volume_control_1_1_log_1_1_endpoints_1_1_file_endpoint.html" target="_top" xlink:title="Log endpoint that allows writing logs directly to a file on disk.">
<polygon fill="none" stroke="black" points="181,-0.5 181,-222.5 344,-222.5 344,-0.5 181,-0.5"/>
<text text-anchor="start" x="189" y="-210.5" font-family="Helvetica,sans-Serif" font-size="10.00">VolumeControl.Log.Endpoints.</text>
<text text-anchor="middle" x="262.5" y="-199.5" font-family="Helvetica,sans-Serif" font-size="10.00">FileEndpoint</text>
<polyline fill="none" stroke="black" points="181,-192.5 344,-192.5 "/>
<text text-anchor="start" x="189" y="-180.5" font-family="Helvetica,sans-Serif" font-size="10.00">+ Enabled</text>
<text text-anchor="start" x="189" y="-169.5" font-family="Helvetica,sans-Serif" font-size="10.00">+ Path</text>
<polyline fill="none" stroke="black" points="181,-162.5 344,-162.5 "/>
<text text-anchor="start" x="189" y="-150.5" font-family="Helvetica,sans-Serif" font-size="10.00">+ FileEndpoint()</text>
<text text-anchor="start" x="189" y="-139.5" font-family="Helvetica,sans-Serif" font-size="10.00">+ GetReader()</text>
<text text-anchor="start" x="189" y="-128.5" font-family="Helvetica,sans-Serif" font-size="10.00">+ GetWriter()</text>
<text text-anchor="start" x="189" y="-117.5" font-family="Helvetica,sans-Serif" font-size="10.00">+ WriteRaw()</text>
<text text-anchor="start" x="189" y="-106.5" font-family="Helvetica,sans-Serif" font-size="10.00">+ WriteRaw()</text>
<text text-anchor="start" x="189" y="-95.5" font-family="Helvetica,sans-Serif" font-size="10.00">+ WriteRawLine()</text>
<text text-anchor="start" x="189" y="-84.5" font-family="Helvetica,sans-Serif" font-size="10.00">+ WriteRawLine()</text>
<text text-anchor="start" x="189" y="-73.5" font-family="Helvetica,sans-Serif" font-size="10.00">+ ReadRaw()</text>
<text text-anchor="start" x="189" y="-62.5" font-family="Helvetica,sans-Serif" font-size="10.00">+ ReadRawLine()</text>
<text text-anchor="start" x="189" y="-51.5" font-family="Helvetica,sans-Serif" font-size="10.00">+ Reset()</text>
<text text-anchor="start" x="189" y="-40.5" font-family="Helvetica,sans-Serif" font-size="10.00">+ ReadRaw()</text>
<text text-anchor="start" x="189" y="-29.5" font-family="Helvetica,sans-Serif" font-size="10.00">+ ReadRawLine()</text>
<text text-anchor="start" x="189" y="-18.5" font-family="Helvetica,sans-Serif" font-size="10.00">~ GetReader()</text>
<text text-anchor="start" x="189" y="-7.5" font-family="Helvetica,sans-Serif" font-size="10.00">~ GetWriter()</text>
</a>
</g>
</g>
<!-- Node1&#45;&gt;Node3 -->
<g id="edge2" class="edge">
<title>Node1&#45;&gt;Node3</title>
<path fill="none" stroke="midnightblue" d="M262.5,-249.22C262.5,-240.52 262.5,-231.53 262.5,-222.51"/>
<polygon fill="none" stroke="midnightblue" points="259,-249.27 262.5,-259.27 266,-249.27 259,-249.27"/>
</g>
<!-- Node4 -->
<g id="node4" class="node">
<title>Node4</title>
<g id="a_node4"><a xlink:href="class_volume_control_1_1_log_1_1_endpoints_1_1_memory_endpoint.html" target="_top" xlink:title="A log endpoint that implements IEndpoint and uses a MemoryStream as an endpoint.">
<polygon fill="none" stroke="black" points="362,-28 362,-195 525,-195 525,-28 362,-28"/>
<text text-anchor="start" x="370" y="-183" font-family="Helvetica,sans-Serif" font-size="10.00">VolumeControl.Log.Endpoints.</text>
<text text-anchor="middle" x="443.5" y="-172" font-family="Helvetica,sans-Serif" font-size="10.00">MemoryEndpoint</text>
<polyline fill="none" stroke="black" points="362,-165 525,-165 "/>
<text text-anchor="start" x="370" y="-153" font-family="Helvetica,sans-Serif" font-size="10.00">+ Enabled</text>
<polyline fill="none" stroke="black" points="362,-146 525,-146 "/>
<text text-anchor="start" x="370" y="-134" font-family="Helvetica,sans-Serif" font-size="10.00">+ MemoryEndpoint()</text>
<text text-anchor="start" x="370" y="-123" font-family="Helvetica,sans-Serif" font-size="10.00">+ GetReader()</text>
<text text-anchor="start" x="370" y="-112" font-family="Helvetica,sans-Serif" font-size="10.00">+ GetWriter()</text>
<text text-anchor="start" x="370" y="-101" font-family="Helvetica,sans-Serif" font-size="10.00">+ ReadRaw()</text>
<text text-anchor="start" x="370" y="-90" font-family="Helvetica,sans-Serif" font-size="10.00">+ ReadRawLine()</text>
<text text-anchor="start" x="370" y="-79" font-family="Helvetica,sans-Serif" font-size="10.00">+ Reset()</text>
<text text-anchor="start" x="370" y="-68" font-family="Helvetica,sans-Serif" font-size="10.00">+ WriteRaw()</text>
<text text-anchor="start" x="370" y="-57" font-family="Helvetica,sans-Serif" font-size="10.00">+ WriteRawLine()</text>
<text text-anchor="start" x="370" y="-46" font-family="Helvetica,sans-Serif" font-size="10.00">+ Dispose()</text>
<text text-anchor="start" x="370" y="-35" font-family="Helvetica,sans-Serif" font-size="10.00">+ ToString()</text>
</a>
</g>
</g>
<!-- Node1&#45;&gt;Node4 -->
<g id="edge3" class="edge">
<title>Node1&#45;&gt;Node4</title>
<path fill="none" stroke="midnightblue" d="M328.64,-251.75C337.07,-242.13 345.53,-232.37 353.5,-223 361.11,-214.05 369,-204.61 376.8,-195.18"/>
<polygon fill="none" stroke="midnightblue" points="325.87,-249.6 321.9,-259.42 331.13,-254.22 325.87,-249.6"/>
</g>
</g>
</svg>
