<?xml version="1.0" encoding="UTF-8" standalone="no"?>
<!DOCTYPE svg PUBLIC "-//W3C//DTD SVG 1.1//EN"
 "http://www.w3.org/Graphics/SVG/1.1/DTD/svg11.dtd">
<!-- Generated by graphviz version 2.43.0 (0)
 -->
<!-- Title: VolumeControl.Audio.Interfaces.IProcess Pages: 1 -->
<svg width="312pt" height="1064pt"
 viewBox="0.00 0.00 312.00 1064.00" xmlns="http://www.w3.org/2000/svg" xmlns:xlink="http://www.w3.org/1999/xlink">
<g id="graph0" class="graph" transform="scale(1 1) rotate(0) translate(4 1060)">
<title>VolumeControl.Audio.Interfaces.IProcess</title>
<!-- Node1 -->
<g id="node1" class="node">
<title>Node1</title>
<g id="a_node1"><a xlink:title="Represents read&#45;only information about a process running on the local system.">
<polygon fill="#bfbfbf" stroke="black" points="72,-606.5 72,-707.5 246,-707.5 246,-606.5 72,-606.5"/>
<text text-anchor="start" x="80" y="-695.5" font-family="Helvetica,sans-Serif" font-size="10.00">VolumeControl.Audio.Interfaces.</text>
<text text-anchor="middle" x="159" y="-684.5" font-family="Helvetica,sans-Serif" font-size="10.00">IProcess</text>
<polyline fill="none" stroke="black" points="72,-677.5 246,-677.5 "/>
<text text-anchor="start" x="80" y="-665.5" font-family="Helvetica,sans-Serif" font-size="10.00">+ ProcessName</text>
<text text-anchor="start" x="80" y="-654.5" font-family="Helvetica,sans-Serif" font-size="10.00">+ PID</text>
<text text-anchor="start" x="80" y="-643.5" font-family="Helvetica,sans-Serif" font-size="10.00">+ ProcessIdentifier</text>
<text text-anchor="start" x="80" y="-632.5" font-family="Helvetica,sans-Serif" font-size="10.00">+ HashCode</text>
<polyline fill="none" stroke="black" points="72,-625.5 246,-625.5 "/>
<text text-anchor="middle" x="159" y="-613.5" font-family="Helvetica,sans-Serif" font-size="10.00"> </text>
</a>
</g>
</g>
<!-- Node6 -->
<g id="node6" class="node">
<title>Node6</title>
<g id="a_node6"><a xlink:href="class_volume_control_1_1_audio_1_1_audio_session.html" target="_top" xlink:title="Represents an audio session playing on the system.">
<polygon fill="none" stroke="black" points="84,-0.5 84,-442.5 234,-442.5 234,-0.5 84,-0.5"/>
<text text-anchor="start" x="92" y="-430.5" font-family="Helvetica,sans-Serif" font-size="10.00">VolumeControl.Audio.Audio</text>
<text text-anchor="middle" x="159" y="-419.5" font-family="Helvetica,sans-Serif" font-size="10.00">Session</text>
<polyline fill="none" stroke="black" points="84,-412.5 234,-412.5 "/>
<text text-anchor="start" x="92" y="-400.5" font-family="Helvetica,sans-Serif" font-size="10.00">+ AudioMeterInformation</text>
<text text-anchor="start" x="92" y="-389.5" font-family="Helvetica,sans-Serif" font-size="10.00">+ PeakMeterValue</text>
<text text-anchor="start" x="92" y="-378.5" font-family="Helvetica,sans-Serif" font-size="10.00">+ HashCode</text>
<text text-anchor="start" x="92" y="-367.5" font-family="Helvetica,sans-Serif" font-size="10.00">+ VolumeController</text>
<text text-anchor="start" x="92" y="-356.5" font-family="Helvetica,sans-Serif" font-size="10.00">+ State</text>
<text text-anchor="start" x="92" y="-345.5" font-family="Helvetica,sans-Serif" font-size="10.00">+ IconPath</text>
<text text-anchor="start" x="92" y="-334.5" font-family="Helvetica,sans-Serif" font-size="10.00">+ Icon</text>
<text text-anchor="start" x="92" y="-323.5" font-family="Helvetica,sans-Serif" font-size="10.00">+ ProcessIdentifier</text>
<text text-anchor="start" x="92" y="-312.5" font-family="Helvetica,sans-Serif" font-size="10.00">+ Active</text>
<text text-anchor="start" x="92" y="-301.5" font-family="Helvetica,sans-Serif" font-size="10.00">+ DisplayControls</text>
<text text-anchor="start" x="92" y="-290.5" font-family="Helvetica,sans-Serif" font-size="10.00">+ DisplayIcon</text>
<text text-anchor="start" x="92" y="-279.5" font-family="Helvetica,sans-Serif" font-size="10.00">+ int</text>
<text text-anchor="start" x="92" y="-268.5" font-family="Helvetica,sans-Serif" font-size="10.00">+ SessionIdentifier</text>
<text text-anchor="start" x="92" y="-257.5" font-family="Helvetica,sans-Serif" font-size="10.00">+ SessionInstanceIdentifier</text>
<text text-anchor="start" x="92" y="-246.5" font-family="Helvetica,sans-Serif" font-size="10.00">+ Icons</text>
<text text-anchor="start" x="92" y="-235.5" font-family="Helvetica,sans-Serif" font-size="10.00">+ Volume</text>
<text text-anchor="start" x="92" y="-224.5" font-family="Helvetica,sans-Serif" font-size="10.00">+ NativeVolume</text>
<text text-anchor="start" x="92" y="-213.5" font-family="Helvetica,sans-Serif" font-size="10.00">+ Muted</text>
<text text-anchor="start" x="92" y="-202.5" font-family="Helvetica,sans-Serif" font-size="10.00">+ GroupingParam</text>
<text text-anchor="start" x="92" y="-191.5" font-family="Helvetica,sans-Serif" font-size="10.00">+ DisplayName</text>
<text text-anchor="start" x="92" y="-180.5" font-family="Helvetica,sans-Serif" font-size="10.00">+ ProcessName</text>
<text text-anchor="start" x="92" y="-169.5" font-family="Helvetica,sans-Serif" font-size="10.00">+ PID</text>
<text text-anchor="start" x="92" y="-158.5" font-family="Helvetica,sans-Serif" font-size="10.00">+ IsRunning</text>
<text text-anchor="start" x="92" y="-147.5" font-family="Helvetica,sans-Serif" font-size="10.00">+ NotificationClient</text>
<text text-anchor="start" x="92" y="-136.5" font-family="Helvetica,sans-Serif" font-size="10.00">+ Process</text>
<text text-anchor="start" x="92" y="-125.5" font-family="Helvetica,sans-Serif" font-size="10.00">+ Name</text>
<text text-anchor="start" x="92" y="-114.5" font-family="Helvetica,sans-Serif" font-size="10.00">+ DisplayText</text>
<polyline fill="none" stroke="black" points="84,-107.5 234,-107.5 "/>
<text text-anchor="start" x="92" y="-95.5" font-family="Helvetica,sans-Serif" font-size="10.00">+ GetIcons()</text>
<text text-anchor="start" x="92" y="-84.5" font-family="Helvetica,sans-Serif" font-size="10.00">+ GetProcess()</text>
<text text-anchor="start" x="92" y="-73.5" font-family="Helvetica,sans-Serif" font-size="10.00">+ Dispose()</text>
<text text-anchor="start" x="92" y="-62.5" font-family="Helvetica,sans-Serif" font-size="10.00">+ Equals()</text>
<text text-anchor="start" x="92" y="-51.5" font-family="Helvetica,sans-Serif" font-size="10.00">+ Equals()</text>
<text text-anchor="start" x="92" y="-40.5" font-family="Helvetica,sans-Serif" font-size="10.00">+ Equals()</text>
<text text-anchor="start" x="92" y="-29.5" font-family="Helvetica,sans-Serif" font-size="10.00">+ GetHashCode()</text>
<text text-anchor="start" x="92" y="-18.5" font-family="Helvetica,sans-Serif" font-size="10.00">~ AudioSession()</text>
<text text-anchor="start" x="92" y="-7.5" font-family="Helvetica,sans-Serif" font-size="10.00">~ NotifyExited()</text>
</a>
</g>
</g>
<!-- Node1&#45;&gt;Node6 -->
<g id="edge5" class="edge">
<title>Node1&#45;&gt;Node6</title>
<path fill="none" stroke="midnightblue" d="M129.08,-596.83C125.75,-588.03 122.88,-578.91 121,-570 112.38,-529.18 111.13,-485.22 113.92,-442.75"/>
<polygon fill="none" stroke="midnightblue" points="125.89,-598.26 132.86,-606.24 132.38,-595.66 125.89,-598.26"/>
</g>
<!-- Node7 -->
<g id="node7" class="node">
<title>Node7</title>
<g id="a_node7"><a xlink:href="interface_volume_control_1_1_audio_1_1_interfaces_1_1_i_session.html" target="_top" xlink:title="Represents an audio session.">
<polygon fill="none" stroke="black" points="130,-479.5 130,-569.5 304,-569.5 304,-479.5 130,-479.5"/>
<text text-anchor="start" x="138" y="-557.5" font-family="Helvetica,sans-Serif" font-size="10.00">VolumeControl.Audio.Interfaces.</text>
<text text-anchor="middle" x="217" y="-546.5" font-family="Helvetica,sans-Serif" font-size="10.00">ISession</text>
<polyline fill="none" stroke="black" points="130,-539.5 304,-539.5 "/>
<text text-anchor="start" x="138" y="-527.5" font-family="Helvetica,sans-Serif" font-size="10.00">+ Name</text>
<text text-anchor="start" x="138" y="-516.5" font-family="Helvetica,sans-Serif" font-size="10.00">+ SessionIdentifier</text>
<text text-anchor="start" x="138" y="-505.5" font-family="Helvetica,sans-Serif" font-size="10.00">+ SessionInstanceIdentifier</text>
<polyline fill="none" stroke="black" points="130,-498.5 304,-498.5 "/>
<text text-anchor="middle" x="217" y="-486.5" font-family="Helvetica,sans-Serif" font-size="10.00"> </text>
</a>
</g>
</g>
<!-- Node1&#45;&gt;Node7 -->
<g id="edge6" class="edge">
<title>Node1&#45;&gt;Node7</title>
<path fill="none" stroke="midnightblue" d="M185.18,-597.1C189.3,-587.83 193.5,-578.38 197.44,-569.52"/>
<polygon fill="none" stroke="midnightblue" points="181.96,-595.73 181.09,-606.29 188.35,-598.57 181.96,-595.73"/>
</g>
<!-- Node2 -->
<g id="node2" class="node">
<title>Node2</title>
<g id="a_node2"><a xlink:href="interface_volume_control_1_1_audio_1_1_interfaces_1_1_i_audio_control.html" target="_top" xlink:title="Base interface type for IDevice and IProcess/ISession.">
<polygon fill="none" stroke="black" points="11.5,-744.5 11.5,-801.5 152.5,-801.5 152.5,-744.5 11.5,-744.5"/>
<text text-anchor="middle" x="82" y="-789.5" font-family="Helvetica,sans-Serif" font-size="10.00">IAudioControl</text>
<polyline fill="none" stroke="black" points="11.5,-782.5 152.5,-782.5 "/>
<text text-anchor="start" x="19.5" y="-770.5" font-family="Helvetica,sans-Serif" font-size="10.00">+ AudioMeterInformation</text>
<polyline fill="none" stroke="black" points="11.5,-763.5 152.5,-763.5 "/>
<text text-anchor="middle" x="82" y="-751.5" font-family="Helvetica,sans-Serif" font-size="10.00"> </text>
</a>
</g>
</g>
<!-- Node2&#45;&gt;Node1 -->
<g id="edge1" class="edge">
<title>Node2&#45;&gt;Node1</title>
<path fill="none" stroke="midnightblue" d="M106.29,-736.04C112.39,-727.01 119.03,-717.17 125.49,-707.61"/>
<polygon fill="none" stroke="midnightblue" points="103.34,-734.16 100.64,-744.4 109.14,-738.08 103.34,-734.16"/>
</g>
<!-- Node3 -->
<g id="node3" class="node">
<title>Node3</title>
<g id="a_node3"><a xlink:href="interface_volume_control_1_1_audio_1_1_interfaces_1_1_i_volume_control.html" target="_top" xlink:title="Represents some kind of controllable audio playback instance.">
<polygon fill="none" stroke="black" points="0,-838.5 0,-939.5 164,-939.5 164,-838.5 0,-838.5"/>
<text text-anchor="middle" x="82" y="-927.5" font-family="Helvetica,sans-Serif" font-size="10.00">IVolumeControl</text>
<polyline fill="none" stroke="black" points="0,-920.5 164,-920.5 "/>
<text text-anchor="start" x="8" y="-908.5" font-family="Helvetica,sans-Serif" font-size="10.00">+ PeakMeterValue</text>
<text text-anchor="start" x="8" y="-897.5" font-family="Helvetica,sans-Serif" font-size="10.00">+ NativeVolume</text>
<text text-anchor="start" x="8" y="-886.5" font-family="Helvetica,sans-Serif" font-size="10.00">+ Volume</text>
<text text-anchor="start" x="8" y="-875.5" font-family="Helvetica,sans-Serif" font-size="10.00">+ Muted</text>
<polyline fill="none" stroke="black" points="0,-868.5 164,-868.5 "/>
<text text-anchor="start" x="8" y="-856.5" font-family="Helvetica,sans-Serif" font-size="10.00">~ MakeListDisplayableControl</text>
<text text-anchor="start" x="8" y="-845.5" font-family="Helvetica,sans-Serif" font-size="10.00">Template()</text>
</a>
</g>
</g>
<!-- Node3&#45;&gt;Node2 -->
<g id="edge2" class="edge">
<title>Node3&#45;&gt;Node2</title>
<path fill="none" stroke="midnightblue" d="M82,-828.23C82,-818.92 82,-809.71 82,-801.59"/>
<polygon fill="none" stroke="midnightblue" points="78.5,-828.33 82,-838.33 85.5,-828.33 78.5,-828.33"/>
</g>
<!-- Node4 -->
<g id="node4" class="node">
<title>Node4</title>
<g id="a_node4"><a xlink:href="interface_volume_control_1_1_core_1_1_interfaces_1_1_i_list_displayable.html" target="_top" xlink:title="Represents an object that, when it is a member of a list of similar items, can be displayed in the Li...">
<polygon fill="none" stroke="black" points="29.5,-976.5 29.5,-1055.5 134.5,-1055.5 134.5,-976.5 29.5,-976.5"/>
<text text-anchor="middle" x="82" y="-1043.5" font-family="Helvetica,sans-Serif" font-size="10.00">IListDisplayable</text>
<polyline fill="none" stroke="black" points="29.5,-1036.5 134.5,-1036.5 "/>
<text text-anchor="start" x="37.5" y="-1024.5" font-family="Helvetica,sans-Serif" font-size="10.00">+ DisplayText</text>
<text text-anchor="start" x="37.5" y="-1013.5" font-family="Helvetica,sans-Serif" font-size="10.00">+ DisplayControls</text>
<text text-anchor="start" x="37.5" y="-1002.5" font-family="Helvetica,sans-Serif" font-size="10.00">+ DisplayIcon</text>
<polyline fill="none" stroke="black" points="29.5,-995.5 134.5,-995.5 "/>
<text text-anchor="middle" x="82" y="-983.5" font-family="Helvetica,sans-Serif" font-size="10.00"> </text>
</a>
</g>
</g>
<!-- Node4&#45;&gt;Node3 -->
<g id="edge3" class="edge">
<title>Node4&#45;&gt;Node3</title>
<path fill="none" stroke="midnightblue" d="M82,-966.41C82,-957.64 82,-948.49 82,-939.69"/>
<polygon fill="none" stroke="midnightblue" points="78.5,-966.48 82,-976.48 85.5,-966.48 78.5,-966.48"/>
</g>
<!-- Node5 -->
<g id="node5" class="node">
<title>Node5</title>
<g id="a_node5"><a xlink:title=" ">
<polygon fill="none" stroke="#bfbfbf" points="170.5,-744.5 170.5,-801.5 301.5,-801.5 301.5,-744.5 170.5,-744.5"/>
<text text-anchor="middle" x="236" y="-789.5" font-family="Helvetica,sans-Serif" font-size="10.00">IEquatable&lt; ISession &gt;</text>
<polyline fill="none" stroke="#bfbfbf" points="170.5,-782.5 301.5,-782.5 "/>
<text text-anchor="middle" x="236" y="-770.5" font-family="Helvetica,sans-Serif" font-size="10.00"> </text>
<polyline fill="none" stroke="#bfbfbf" points="170.5,-763.5 301.5,-763.5 "/>
<text text-anchor="middle" x="236" y="-751.5" font-family="Helvetica,sans-Serif" font-size="10.00"> </text>
</a>
</g>
</g>
<!-- Node5&#45;&gt;Node1 -->
<g id="edge4" class="edge">
<title>Node5&#45;&gt;Node1</title>
<path fill="none" stroke="midnightblue" d="M211.71,-736.04C205.61,-727.01 198.97,-717.17 192.51,-707.61"/>
<polygon fill="none" stroke="midnightblue" points="208.86,-738.08 217.36,-744.4 214.66,-734.16 208.86,-738.08"/>
</g>
<!-- Node7&#45;&gt;Node6 -->
<g id="edge7" class="edge">
<title>Node7&#45;&gt;Node6</title>
<path fill="none" stroke="midnightblue" d="M206.6,-469.55C204.99,-461.18 203.24,-452.11 201.41,-442.57"/>
<polygon fill="none" stroke="midnightblue" points="203.18,-470.25 208.5,-479.41 210.05,-468.93 203.18,-470.25"/>
</g>
</g>
</svg>
