<?xml version="1.0" encoding="UTF-8" standalone="no"?>
<!DOCTYPE svg PUBLIC "-//W3C//DTD SVG 1.1//EN"
 "http://www.w3.org/Graphics/SVG/1.1/DTD/svg11.dtd">
<!-- Generated by graphviz version 2.43.0 (0)
 -->
<!-- Title: HotkeyLib.IKeyCombo Pages: 1 -->
<svg width="250pt" height="463pt"
 viewBox="0.00 0.00 250.00 463.00" xmlns="http://www.w3.org/2000/svg" xmlns:xlink="http://www.w3.org/1999/xlink">
<g id="graph0" class="graph" transform="scale(1 1) rotate(0) translate(4 459)">
<title>HotkeyLib.IKeyCombo</title>
<!-- Node1 -->
<g id="node1" class="node">
<title>Node1</title>
<g id="a_node1"><a xlink:title="Represents a combination of one keyboard key and any number of modifier keys.">
<polygon fill="#bfbfbf" stroke="black" points="54.5,-237.5 54.5,-360.5 178.5,-360.5 178.5,-237.5 54.5,-237.5"/>
<text text-anchor="middle" x="116.5" y="-348.5" font-family="Helvetica,sans-Serif" font-size="10.00">HotkeyLib.IKeyCombo</text>
<polyline fill="none" stroke="black" points="54.5,-341.5 178.5,-341.5 "/>
<text text-anchor="start" x="62.5" y="-329.5" font-family="Helvetica,sans-Serif" font-size="10.00">+ Key</text>
<text text-anchor="start" x="62.5" y="-318.5" font-family="Helvetica,sans-Serif" font-size="10.00">+ Mod</text>
<text text-anchor="start" x="62.5" y="-307.5" font-family="Helvetica,sans-Serif" font-size="10.00">+ Alt</text>
<text text-anchor="start" x="62.5" y="-296.5" font-family="Helvetica,sans-Serif" font-size="10.00">+ Ctrl</text>
<text text-anchor="start" x="62.5" y="-285.5" font-family="Helvetica,sans-Serif" font-size="10.00">+ Shift</text>
<text text-anchor="start" x="62.5" y="-274.5" font-family="Helvetica,sans-Serif" font-size="10.00">+ Win</text>
<text text-anchor="start" x="62.5" y="-263.5" font-family="Helvetica,sans-Serif" font-size="10.00">+ Valid</text>
<polyline fill="none" stroke="black" points="54.5,-256.5 178.5,-256.5 "/>
<text text-anchor="middle" x="116.5" y="-244.5" font-family="Helvetica,sans-Serif" font-size="10.00"> </text>
</a>
</g>
</g>
<!-- Node3 -->
<g id="node3" class="node">
<title>Node3</title>
<g id="a_node3"><a xlink:href="class_hotkey_lib_1_1_hotkey.html" target="_top" xlink:title="Abstract base hotkey class.">
<polygon fill="none" stroke="black" points="0,-0.5 0,-200.5 103,-200.5 103,-0.5 0,-0.5"/>
<text text-anchor="middle" x="51.5" y="-188.5" font-family="Helvetica,sans-Serif" font-size="10.00">HotkeyLib.Hotkey</text>
<polyline fill="none" stroke="black" points="0,-181.5 103,-181.5 "/>
<text text-anchor="start" x="8" y="-169.5" font-family="Helvetica,sans-Serif" font-size="10.00">+ Valid</text>
<text text-anchor="start" x="8" y="-158.5" font-family="Helvetica,sans-Serif" font-size="10.00">+ Owner</text>
<text text-anchor="start" x="8" y="-147.5" font-family="Helvetica,sans-Serif" font-size="10.00">+ Registered</text>
<text text-anchor="start" x="8" y="-136.5" font-family="Helvetica,sans-Serif" font-size="10.00">+ Key</text>
<text text-anchor="start" x="8" y="-125.5" font-family="Helvetica,sans-Serif" font-size="10.00">+ Mod</text>
<text text-anchor="start" x="8" y="-114.5" font-family="Helvetica,sans-Serif" font-size="10.00">+ Alt</text>
<text text-anchor="start" x="8" y="-103.5" font-family="Helvetica,sans-Serif" font-size="10.00">+ Shift</text>
<text text-anchor="start" x="8" y="-92.5" font-family="Helvetica,sans-Serif" font-size="10.00">+ Ctrl</text>
<text text-anchor="start" x="8" y="-81.5" font-family="Helvetica,sans-Serif" font-size="10.00">+ Win</text>
<text text-anchor="start" x="8" y="-70.5" font-family="Helvetica,sans-Serif" font-size="10.00">+ ID</text>
<polyline fill="none" stroke="black" points="0,-63.5 103,-63.5 "/>
<text text-anchor="start" x="8" y="-51.5" font-family="Helvetica,sans-Serif" font-size="10.00">+ Hotkey()</text>
<text text-anchor="start" x="8" y="-40.5" font-family="Helvetica,sans-Serif" font-size="10.00">+ Dispose()</text>
<text text-anchor="start" x="8" y="-29.5" font-family="Helvetica,sans-Serif" font-size="10.00">~ Register()</text>
<text text-anchor="start" x="8" y="-18.5" font-family="Helvetica,sans-Serif" font-size="10.00">~ Unregister()</text>
<text text-anchor="start" x="8" y="-7.5" font-family="Helvetica,sans-Serif" font-size="10.00">~ Reregister()</text>
</a>
</g>
</g>
<!-- Node1&#45;&gt;Node3 -->
<g id="edge2" class="edge">
<title>Node1&#45;&gt;Node3</title>
<path fill="none" stroke="midnightblue" d="M93.32,-227.93C90.38,-219.03 87.32,-209.8 84.26,-200.55"/>
<polygon fill="none" stroke="midnightblue" points="90,-229.05 96.47,-237.44 96.65,-226.85 90,-229.05"/>
</g>
<!-- Node4 -->
<g id="node4" class="node">
<title>Node4</title>
<g id="a_node4"><a xlink:href="struct_hotkey_lib_1_1_key_combo.html" target="_top" xlink:title="Represents a combination of one keyboard key and any number of modifier keys.">
<polygon fill="none" stroke="black" points="121,-11.5 121,-189.5 242,-189.5 242,-11.5 121,-11.5"/>
<text text-anchor="middle" x="181.5" y="-177.5" font-family="Helvetica,sans-Serif" font-size="10.00">HotkeyLib.KeyCombo</text>
<polyline fill="none" stroke="black" points="121,-170.5 242,-170.5 "/>
<text text-anchor="start" x="129" y="-158.5" font-family="Helvetica,sans-Serif" font-size="10.00">+ Valid</text>
<text text-anchor="start" x="129" y="-147.5" font-family="Helvetica,sans-Serif" font-size="10.00">+ Key</text>
<text text-anchor="start" x="129" y="-136.5" font-family="Helvetica,sans-Serif" font-size="10.00">+ Mod</text>
<text text-anchor="start" x="129" y="-125.5" font-family="Helvetica,sans-Serif" font-size="10.00">+ Alt</text>
<text text-anchor="start" x="129" y="-114.5" font-family="Helvetica,sans-Serif" font-size="10.00">+ Ctrl</text>
<text text-anchor="start" x="129" y="-103.5" font-family="Helvetica,sans-Serif" font-size="10.00">+ Shift</text>
<text text-anchor="start" x="129" y="-92.5" font-family="Helvetica,sans-Serif" font-size="10.00">+ Win</text>
<polyline fill="none" stroke="black" points="121,-85.5 242,-85.5 "/>
<text text-anchor="start" x="129" y="-73.5" font-family="Helvetica,sans-Serif" font-size="10.00">+ KeyCombo()</text>
<text text-anchor="start" x="129" y="-62.5" font-family="Helvetica,sans-Serif" font-size="10.00">+ KeyCombo()</text>
<text text-anchor="start" x="129" y="-51.5" font-family="Helvetica,sans-Serif" font-size="10.00">+ KeyCombo()</text>
<text text-anchor="start" x="129" y="-40.5" font-family="Helvetica,sans-Serif" font-size="10.00">+ ToString()</text>
<text text-anchor="start" x="129" y="-29.5" font-family="Helvetica,sans-Serif" font-size="10.00">+ Serialize()</text>
<text text-anchor="start" x="129" y="-18.5" font-family="Helvetica,sans-Serif" font-size="10.00">+ Parse()</text>
</a>
</g>
</g>
<!-- Node1&#45;&gt;Node4 -->
<g id="edge3" class="edge">
<title>Node1&#45;&gt;Node4</title>
<path fill="none" stroke="midnightblue" d="M139.75,-227.71C143.83,-215.38 148.12,-202.41 152.33,-189.67"/>
<polygon fill="none" stroke="midnightblue" points="136.35,-226.85 136.53,-237.44 143,-229.05 136.35,-226.85"/>
</g>
<!-- Node2 -->
<g id="node2" class="node">
<title>Node2</title>
<g id="a_node2"><a xlink:title=" ">
<polygon fill="none" stroke="#bfbfbf" points="50,-397.5 50,-454.5 183,-454.5 183,-397.5 50,-397.5"/>
<text text-anchor="middle" x="116.5" y="-442.5" font-family="Helvetica,sans-Serif" font-size="10.00">INotifyPropertyChanged</text>
<polyline fill="none" stroke="#bfbfbf" points="50,-435.5 183,-435.5 "/>
<text text-anchor="middle" x="116.5" y="-423.5" font-family="Helvetica,sans-Serif" font-size="10.00"> </text>
<polyline fill="none" stroke="#bfbfbf" points="50,-416.5 183,-416.5 "/>
<text text-anchor="middle" x="116.5" y="-404.5" font-family="Helvetica,sans-Serif" font-size="10.00"> </text>
</a>
</g>
</g>
<!-- Node2&#45;&gt;Node1 -->
<g id="edge1" class="edge">
<title>Node2&#45;&gt;Node1</title>
<path fill="none" stroke="midnightblue" d="M116.5,-387.1C116.5,-378.74 116.5,-369.68 116.5,-360.67"/>
<polygon fill="none" stroke="midnightblue" points="113,-387.26 116.5,-397.26 120,-387.26 113,-387.26"/>
</g>
</g>
</svg>
