<?xml version="1.0" encoding="UTF-8" standalone="no"?>
<!DOCTYPE svg PUBLIC "-//W3C//DTD SVG 1.1//EN"
 "http://www.w3.org/Graphics/SVG/1.1/DTD/svg11.dtd">
<!-- Generated by graphviz version 2.43.0 (0)
 -->
<!-- Title: VolumeControl.Audio.Interfaces.IProcess Pages: 1 -->
<svg width="298pt" height="248pt"
 viewBox="0.00 0.00 298.00 248.00" xmlns="http://www.w3.org/2000/svg" xmlns:xlink="http://www.w3.org/1999/xlink">
<g id="graph0" class="graph" transform="scale(1 1) rotate(0) translate(4 244)">
<title>VolumeControl.Audio.Interfaces.IProcess</title>
<!-- Node1 -->
<g id="node1" class="node">
<title>Node1</title>
<g id="a_node1"><a xlink:title="Represents read&#45;only information about a process running on the local system.">
<polygon fill="#bfbfbf" stroke="black" points="60.5,-0.5 60.5,-101.5 234.5,-101.5 234.5,-0.5 60.5,-0.5"/>
<text text-anchor="start" x="68.5" y="-89.5" font-family="Helvetica,sans-Serif" font-size="10.00">VolumeControl.Audio.Interfaces.</text>
<text text-anchor="middle" x="147.5" y="-78.5" font-family="Helvetica,sans-Serif" font-size="10.00">IProcess</text>
<polyline fill="none" stroke="black" points="60.5,-71.5 234.5,-71.5 "/>
<text text-anchor="start" x="68.5" y="-59.5" font-family="Helvetica,sans-Serif" font-size="10.00">+ ProcessName</text>
<text text-anchor="start" x="68.5" y="-48.5" font-family="Helvetica,sans-Serif" font-size="10.00">+ PID</text>
<text text-anchor="start" x="68.5" y="-37.5" font-family="Helvetica,sans-Serif" font-size="10.00">+ ProcessIdentifier</text>
<text text-anchor="start" x="68.5" y="-26.5" font-family="Helvetica,sans-Serif" font-size="10.00">+ HashCode</text>
<polyline fill="none" stroke="black" points="60.5,-19.5 234.5,-19.5 "/>
<text text-anchor="middle" x="147.5" y="-7.5" font-family="Helvetica,sans-Serif" font-size="10.00"> </text>
</a>
</g>
</g>
<!-- Node2 -->
<g id="node2" class="node">
<title>Node2</title>
<g id="a_node2"><a xlink:href="interface_volume_control_1_1_audio_1_1_interfaces_1_1_i_audio_controllable.html" target="_top" xlink:title="Base interface type for IDevice and IProcess/ISession.">
<polygon fill="none" stroke="black" points="0,-138.5 0,-239.5 141,-239.5 141,-138.5 0,-138.5"/>
<text text-anchor="middle" x="70.5" y="-227.5" font-family="Helvetica,sans-Serif" font-size="10.00">IAudioControllable</text>
<polyline fill="none" stroke="black" points="0,-220.5 141,-220.5 "/>
<text text-anchor="start" x="8" y="-208.5" font-family="Helvetica,sans-Serif" font-size="10.00">+ AudioMeterInformation</text>
<text text-anchor="start" x="8" y="-197.5" font-family="Helvetica,sans-Serif" font-size="10.00">+ PeakMeterValue</text>
<text text-anchor="start" x="8" y="-186.5" font-family="Helvetica,sans-Serif" font-size="10.00">+ NativeVolume</text>
<text text-anchor="start" x="8" y="-175.5" font-family="Helvetica,sans-Serif" font-size="10.00">+ Volume</text>
<text text-anchor="start" x="8" y="-164.5" font-family="Helvetica,sans-Serif" font-size="10.00">+ Muted</text>
<polyline fill="none" stroke="black" points="0,-157.5 141,-157.5 "/>
<text text-anchor="middle" x="70.5" y="-145.5" font-family="Helvetica,sans-Serif" font-size="10.00"> </text>
</a>
</g>
</g>
<!-- Node2&#45;&gt;Node1 -->
<g id="edge1" class="edge">
<title>Node2&#45;&gt;Node1</title>
<path fill="none" stroke="midnightblue" d="M103.67,-129.42C108.86,-120.24 114.19,-110.82 119.27,-101.86"/>
<polygon fill="none" stroke="midnightblue" points="100.62,-127.7 98.73,-138.13 106.71,-131.15 100.62,-127.7"/>
</g>
<!-- Node3 -->
<g id="node3" class="node">
<title>Node3</title>
<g id="a_node3"><a xlink:title=" ">
<polygon fill="none" stroke="#bfbfbf" points="159,-160.5 159,-217.5 290,-217.5 290,-160.5 159,-160.5"/>
<text text-anchor="middle" x="224.5" y="-205.5" font-family="Helvetica,sans-Serif" font-size="10.00">IEquatable&lt; ISession &gt;</text>
<polyline fill="none" stroke="#bfbfbf" points="159,-198.5 290,-198.5 "/>
<text text-anchor="middle" x="224.5" y="-186.5" font-family="Helvetica,sans-Serif" font-size="10.00"> </text>
<polyline fill="none" stroke="#bfbfbf" points="159,-179.5 290,-179.5 "/>
<text text-anchor="middle" x="224.5" y="-167.5" font-family="Helvetica,sans-Serif" font-size="10.00"> </text>
</a>
</g>
</g>
<!-- Node3&#45;&gt;Node1 -->
<g id="edge2" class="edge">
<title>Node3&#45;&gt;Node1</title>
<path fill="none" stroke="midnightblue" d="M203.76,-151.37C195.13,-136.12 184.97,-118.18 175.68,-101.76"/>
<polygon fill="none" stroke="midnightblue" points="200.95,-153.5 208.92,-160.48 207.04,-150.05 200.95,-153.5"/>
</g>
</g>
</svg>
