<?xml version="1.0" encoding="UTF-8" standalone="no"?>
<!DOCTYPE svg PUBLIC "-//W3C//DTD SVG 1.1//EN"
 "http://www.w3.org/Graphics/SVG/1.1/DTD/svg11.dtd">
<!-- Generated by graphviz version 2.43.0 (0)
 -->
<!-- Title: VolumeControl.Core.Interfaces.IBindableHotkey Pages: 1 -->
<svg width="234pt" height="375pt"
 viewBox="0.00 0.00 233.50 375.00" xmlns="http://www.w3.org/2000/svg" xmlns:xlink="http://www.w3.org/1999/xlink">
<g id="graph0" class="graph" transform="scale(1 1) rotate(0) translate(4 371)">
<title>VolumeControl.Core.Interfaces.IBindableHotkey</title>
<!-- Node1 -->
<g id="node1" class="node">
<title>Node1</title>
<g id="a_node1"><a xlink:title="Represents a BindableHotkey.">
<polygon fill="#bfbfbf" stroke="black" points="43,-0.5 43,-134.5 212,-134.5 212,-0.5 43,-0.5"/>
<text text-anchor="start" x="51" y="-122.5" font-family="Helvetica,sans-Serif" font-size="10.00">VolumeControl.Core.Interfaces.</text>
<text text-anchor="middle" x="127.5" y="-111.5" font-family="Helvetica,sans-Serif" font-size="10.00">IBindableHotkey</text>
<polyline fill="none" stroke="black" points="43,-104.5 212,-104.5 "/>
<text text-anchor="start" x="51" y="-92.5" font-family="Helvetica,sans-Serif" font-size="10.00">+ Name</text>
<text text-anchor="start" x="51" y="-81.5" font-family="Helvetica,sans-Serif" font-size="10.00">+ Action</text>
<text text-anchor="start" x="51" y="-70.5" font-family="Helvetica,sans-Serif" font-size="10.00">+ Alt</text>
<text text-anchor="start" x="51" y="-59.5" font-family="Helvetica,sans-Serif" font-size="10.00">+ Ctrl</text>
<text text-anchor="start" x="51" y="-48.5" font-family="Helvetica,sans-Serif" font-size="10.00">+ Shift</text>
<text text-anchor="start" x="51" y="-37.5" font-family="Helvetica,sans-Serif" font-size="10.00">+ Win</text>
<text text-anchor="start" x="51" y="-26.5" font-family="Helvetica,sans-Serif" font-size="10.00">+ NoRepeat</text>
<polyline fill="none" stroke="black" points="43,-19.5 212,-19.5 "/>
<text text-anchor="middle" x="127.5" y="-7.5" font-family="Helvetica,sans-Serif" font-size="10.00"> </text>
</a>
</g>
</g>
<!-- Node2 -->
<g id="node2" class="node">
<title>Node2</title>
<g id="a_node2"><a xlink:href="interface_volume_control_1_1_core_1_1_input_1_1_i_hotkey.html" target="_top" xlink:title="Represents a hotkey instance.">
<polygon fill="none" stroke="black" points="78.5,-171.5 78.5,-272.5 176.5,-272.5 176.5,-171.5 78.5,-171.5"/>
<text text-anchor="middle" x="127.5" y="-260.5" font-family="Helvetica,sans-Serif" font-size="10.00">IHotkey</text>
<polyline fill="none" stroke="black" points="78.5,-253.5 176.5,-253.5 "/>
<text text-anchor="start" x="86.5" y="-241.5" font-family="Helvetica,sans-Serif" font-size="10.00">+ ID</text>
<text text-anchor="start" x="86.5" y="-230.5" font-family="Helvetica,sans-Serif" font-size="10.00">+ Key</text>
<text text-anchor="start" x="86.5" y="-219.5" font-family="Helvetica,sans-Serif" font-size="10.00">+ Modifier</text>
<text text-anchor="start" x="86.5" y="-208.5" font-family="Helvetica,sans-Serif" font-size="10.00">+ Registered</text>
<text text-anchor="start" x="86.5" y="-197.5" font-family="Helvetica,sans-Serif" font-size="10.00">+ ActionSettings</text>
<polyline fill="none" stroke="black" points="78.5,-190.5 176.5,-190.5 "/>
<text text-anchor="middle" x="127.5" y="-178.5" font-family="Helvetica,sans-Serif" font-size="10.00"> </text>
</a>
</g>
</g>
<!-- Node2&#45;&gt;Node1 -->
<g id="edge1" class="edge">
<title>Node2&#45;&gt;Node1</title>
<path fill="none" stroke="midnightblue" d="M127.5,-161.38C127.5,-152.63 127.5,-143.56 127.5,-134.69"/>
<polygon fill="none" stroke="midnightblue" points="124,-161.49 127.5,-171.49 131,-161.49 124,-161.49"/>
</g>
<!-- Node3 -->
<g id="node3" class="node">
<title>Node3</title>
<g id="a_node3"><a xlink:title=" ">
<polygon fill="none" stroke="#bfbfbf" points="0,-309.5 0,-366.5 133,-366.5 133,-309.5 0,-309.5"/>
<text text-anchor="middle" x="66.5" y="-354.5" font-family="Helvetica,sans-Serif" font-size="10.00">INotifyPropertyChanged</text>
<polyline fill="none" stroke="#bfbfbf" points="0,-347.5 133,-347.5 "/>
<text text-anchor="middle" x="66.5" y="-335.5" font-family="Helvetica,sans-Serif" font-size="10.00"> </text>
<polyline fill="none" stroke="#bfbfbf" points="0,-328.5 133,-328.5 "/>
<text text-anchor="middle" x="66.5" y="-316.5" font-family="Helvetica,sans-Serif" font-size="10.00"> </text>
</a>
</g>
</g>
<!-- Node3&#45;&gt;Node2 -->
<g id="edge2" class="edge">
<title>Node3&#45;&gt;Node2</title>
<path fill="none" stroke="midnightblue" d="M86.04,-300.48C90.79,-291.61 95.94,-281.97 100.96,-272.61"/>
<polygon fill="none" stroke="midnightblue" points="82.9,-298.94 81.27,-309.4 89.07,-302.24 82.9,-298.94"/>
</g>
<!-- Node4 -->
<g id="node4" class="node">
<title>Node4</title>
<g id="a_node4"><a xlink:title=" ">
<polygon fill="none" stroke="#bfbfbf" points="151.5,-309.5 151.5,-366.5 225.5,-366.5 225.5,-309.5 151.5,-309.5"/>
<text text-anchor="middle" x="188.5" y="-354.5" font-family="Helvetica,sans-Serif" font-size="10.00">IDisposable</text>
<polyline fill="none" stroke="#bfbfbf" points="151.5,-347.5 225.5,-347.5 "/>
<text text-anchor="middle" x="188.5" y="-335.5" font-family="Helvetica,sans-Serif" font-size="10.00"> </text>
<polyline fill="none" stroke="#bfbfbf" points="151.5,-328.5 225.5,-328.5 "/>
<text text-anchor="middle" x="188.5" y="-316.5" font-family="Helvetica,sans-Serif" font-size="10.00"> </text>
</a>
</g>
</g>
<!-- Node4&#45;&gt;Node2 -->
<g id="edge3" class="edge">
<title>Node4&#45;&gt;Node2</title>
<path fill="none" stroke="midnightblue" d="M168.96,-300.48C164.21,-291.61 159.06,-281.97 154.04,-272.61"/>
<polygon fill="none" stroke="midnightblue" points="165.93,-302.24 173.73,-309.4 172.1,-298.94 165.93,-302.24"/>
</g>
</g>
</svg>
