<?xml version="1.0" encoding="UTF-8" standalone="no"?>
<!DOCTYPE svg PUBLIC "-//W3C//DTD SVG 1.1//EN"
 "http://www.w3.org/Graphics/SVG/1.1/DTD/svg11.dtd">
<!-- Generated by graphviz version 2.43.0 (0)
 -->
<!-- Title: VolumeControl.Hotkeys.Interfaces.IHotkeyActionManager Pages: 1 -->
<svg width="629pt" height="226pt"
 viewBox="0.00 0.00 628.50 226.00" xmlns="http://www.w3.org/2000/svg" xmlns:xlink="http://www.w3.org/1999/xlink">
<g id="graph0" class="graph" transform="scale(1 1) rotate(0) translate(4 222)">
<title>VolumeControl.Hotkeys.Interfaces.IHotkeyActionManager</title>
<!-- Node1 -->
<g id="node1" class="node">
<title>Node1</title>
<g id="a_node1"><a xlink:title="Represents a hotkey action manager object, which contains the list of IActionBindings used in the hot...">
<polygon fill="#bfbfbf" stroke="black" points="178.5,-0.5 178.5,-90.5 364.5,-90.5 364.5,-0.5 178.5,-0.5"/>
<text text-anchor="start" x="186.5" y="-78.5" font-family="Helvetica,sans-Serif" font-size="10.00">VolumeControl.Hotkeys.Interfaces.</text>
<text text-anchor="middle" x="271.5" y="-67.5" font-family="Helvetica,sans-Serif" font-size="10.00">IHotkeyActionManager</text>
<polyline fill="none" stroke="black" points="178.5,-60.5 364.5,-60.5 "/>
<text text-anchor="start" x="186.5" y="-48.5" font-family="Helvetica,sans-Serif" font-size="10.00">+ NullActionHandler</text>
<text text-anchor="start" x="186.5" y="-37.5" font-family="Helvetica,sans-Serif" font-size="10.00">+ Bindings</text>
<text text-anchor="start" x="186.5" y="-26.5" font-family="Helvetica,sans-Serif" font-size="10.00">+ this[string identifier]</text>
<polyline fill="none" stroke="black" points="178.5,-19.5 364.5,-19.5 "/>
<text text-anchor="middle" x="271.5" y="-7.5" font-family="Helvetica,sans-Serif" font-size="10.00"> </text>
</a>
</g>
</g>
<!-- Node2 -->
<g id="node2" class="node">
<title>Node2</title>
<g id="a_node2"><a xlink:href="interface_volume_control_1_1_core_1_1_i_base_addon.html" target="_top" xlink:title="Represents any type of Volume Control addon definition object. &#160;This interface is implemented by the ...">
<polygon fill="none" stroke="black" points="0,-144 0,-212 111,-212 111,-144 0,-144"/>
<text text-anchor="middle" x="55.5" y="-200" font-family="Helvetica,sans-Serif" font-size="10.00">IBaseAddon</text>
<polyline fill="none" stroke="black" points="0,-193 111,-193 "/>
<text text-anchor="start" x="8" y="-181" font-family="Helvetica,sans-Serif" font-size="10.00">+ Attribute</text>
<text text-anchor="start" x="8" y="-170" font-family="Helvetica,sans-Serif" font-size="10.00">+ Types</text>
<polyline fill="none" stroke="black" points="0,-163 111,-163 "/>
<text text-anchor="start" x="8" y="-151" font-family="Helvetica,sans-Serif" font-size="10.00">+ LoadFromTypes()</text>
</a>
</g>
</g>
<!-- Node2&#45;&gt;Node1 -->
<g id="edge1" class="edge">
<title>Node2&#45;&gt;Node1</title>
<path fill="none" stroke="midnightblue" d="M118.29,-138.74C118.69,-138.49 119.1,-138.24 119.5,-138 145.06,-122.52 173.07,-105.64 198.01,-90.63"/>
<polygon fill="none" stroke="midnightblue" points="116.34,-135.82 109.61,-144 119.97,-141.8 116.34,-135.82"/>
</g>
<!-- Node3 -->
<g id="node3" class="node">
<title>Node3</title>
<g id="a_node3"><a xlink:title=" ">
<polygon fill="none" stroke="#bfbfbf" points="129,-149.5 129,-206.5 262,-206.5 262,-149.5 129,-149.5"/>
<text text-anchor="middle" x="195.5" y="-194.5" font-family="Helvetica,sans-Serif" font-size="10.00">INotifyPropertyChanged</text>
<polyline fill="none" stroke="#bfbfbf" points="129,-187.5 262,-187.5 "/>
<text text-anchor="middle" x="195.5" y="-175.5" font-family="Helvetica,sans-Serif" font-size="10.00"> </text>
<polyline fill="none" stroke="#bfbfbf" points="129,-168.5 262,-168.5 "/>
<text text-anchor="middle" x="195.5" y="-156.5" font-family="Helvetica,sans-Serif" font-size="10.00"> </text>
</a>
</g>
</g>
<!-- Node3&#45;&gt;Node1 -->
<g id="edge2" class="edge">
<title>Node3&#45;&gt;Node1</title>
<path fill="none" stroke="midnightblue" d="M216.73,-140.54C225.76,-125.04 236.37,-106.82 245.84,-90.57"/>
<polygon fill="none" stroke="midnightblue" points="213.63,-138.92 211.62,-149.32 219.67,-142.44 213.63,-138.92"/>
</g>
<!-- Node4 -->
<g id="node4" class="node">
<title>Node4</title>
<g id="a_node4"><a xlink:title=" ">
<polygon fill="none" stroke="#bfbfbf" points="280.5,-149.5 280.5,-206.5 416.5,-206.5 416.5,-149.5 280.5,-149.5"/>
<text text-anchor="middle" x="348.5" y="-194.5" font-family="Helvetica,sans-Serif" font-size="10.00">INotifyPropertyChanging</text>
<polyline fill="none" stroke="#bfbfbf" points="280.5,-187.5 416.5,-187.5 "/>
<text text-anchor="middle" x="348.5" y="-175.5" font-family="Helvetica,sans-Serif" font-size="10.00"> </text>
<polyline fill="none" stroke="#bfbfbf" points="280.5,-168.5 416.5,-168.5 "/>
<text text-anchor="middle" x="348.5" y="-156.5" font-family="Helvetica,sans-Serif" font-size="10.00"> </text>
</a>
</g>
</g>
<!-- Node4&#45;&gt;Node1 -->
<g id="edge3" class="edge">
<title>Node4&#45;&gt;Node1</title>
<path fill="none" stroke="midnightblue" d="M326.99,-140.54C317.84,-125.04 307.09,-106.82 297.5,-90.57"/>
<polygon fill="none" stroke="midnightblue" points="324.07,-142.49 332.17,-149.32 330.1,-138.93 324.07,-142.49"/>
</g>
<!-- Node5 -->
<g id="node5" class="node">
<title>Node5</title>
<g id="a_node5"><a xlink:href="interface_volume_control_1_1_hotkeys_1_1_interfaces_1_1_i_action_binding.html" target="_top" xlink:title="Represents an action binding object, which is a container for reflective method information used to c...">
<polygon fill="none" stroke="black" points="434.5,-138.5 434.5,-217.5 620.5,-217.5 620.5,-138.5 434.5,-138.5"/>
<text text-anchor="start" x="442.5" y="-205.5" font-family="Helvetica,sans-Serif" font-size="10.00">VolumeControl.Hotkeys.Interfaces.</text>
<text text-anchor="middle" x="527.5" y="-194.5" font-family="Helvetica,sans-Serif" font-size="10.00">IActionBinding</text>
<polyline fill="none" stroke="black" points="434.5,-187.5 620.5,-187.5 "/>
<text text-anchor="start" x="442.5" y="-175.5" font-family="Helvetica,sans-Serif" font-size="10.00">+ Data</text>
<text text-anchor="start" x="442.5" y="-164.5" font-family="Helvetica,sans-Serif" font-size="10.00">+ Identifier</text>
<polyline fill="none" stroke="black" points="434.5,-157.5 620.5,-157.5 "/>
<text text-anchor="start" x="442.5" y="-145.5" font-family="Helvetica,sans-Serif" font-size="10.00">+ HandleKeyEvent()</text>
</a>
</g>
</g>
<!-- Node5&#45;&gt;Node1 -->
<g id="edge4" class="edge">
<title>Node5&#45;&gt;Node1</title>
<path fill="none" stroke="#404040" d="M451.73,-138.38C425.7,-125.11 396.19,-110.06 368.69,-96.05"/>
<polygon fill="none" stroke="#404040" points="368.55,-95.97 361.39,-96.81 357.86,-90.52 365.03,-89.69 368.55,-95.97"/>
<text text-anchor="middle" x="446.5" y="-112" font-family="Helvetica,sans-Serif" font-size="10.00"> +NullAction</text>
</g>
</g>
</svg>
