<?xml version="1.0" encoding="UTF-8" standalone="no"?>
<!DOCTYPE svg PUBLIC "-//W3C//DTD SVG 1.1//EN"
 "http://www.w3.org/Graphics/SVG/1.1/DTD/svg11.dtd">
<!-- Generated by graphviz version 2.43.0 (0)
 -->
<!-- Title: VolumeControl.Log.Interfaces.IEndpointWriter Pages: 1 -->
<svg width="462pt" height="623pt"
 viewBox="0.00 0.00 462.00 623.00" xmlns="http://www.w3.org/2000/svg" xmlns:xlink="http://www.w3.org/1999/xlink">
<g id="graph0" class="graph" transform="scale(1 1) rotate(0) translate(4 619)">
<title>VolumeControl.Log.Interfaces.IEndpointWriter</title>
<!-- Node1 -->
<g id="node1" class="node">
<title>Node1</title>
<g id="a_node1"><a xlink:title="Represents an endpoint that text can be written to.">
<polygon fill="#bfbfbf" stroke="black" points="180.5,-513.5 180.5,-614.5 344.5,-614.5 344.5,-513.5 180.5,-513.5"/>
<text text-anchor="start" x="188.5" y="-602.5" font-family="Helvetica,sans-Serif" font-size="10.00">VolumeControl.Log.Interfaces.</text>
<text text-anchor="middle" x="262.5" y="-591.5" font-family="Helvetica,sans-Serif" font-size="10.00">IEndpointWriter</text>
<polyline fill="none" stroke="black" points="180.5,-584.5 344.5,-584.5 "/>
<text text-anchor="start" x="188.5" y="-572.5" font-family="Helvetica,sans-Serif" font-size="10.00">+ IsWritingEnabled</text>
<polyline fill="none" stroke="black" points="180.5,-565.5 344.5,-565.5 "/>
<text text-anchor="start" x="188.5" y="-553.5" font-family="Helvetica,sans-Serif" font-size="10.00">+ GetTextWriter()</text>
<text text-anchor="start" x="188.5" y="-542.5" font-family="Helvetica,sans-Serif" font-size="10.00">+ Write()</text>
<text text-anchor="start" x="188.5" y="-531.5" font-family="Helvetica,sans-Serif" font-size="10.00">+ WriteLine()</text>
<text text-anchor="start" x="188.5" y="-520.5" font-family="Helvetica,sans-Serif" font-size="10.00">+ Reset()</text>
</a>
</g>
</g>
<!-- Node2 -->
<g id="node2" class="node">
<title>Node2</title>
<g id="a_node2"><a xlink:href="class_volume_control_1_1_log_1_1_endpoints_1_1_base_endpoint_writer.html" target="_top" xlink:title="Abstract base class for endpoint writers.">
<polygon fill="none" stroke="black" points="71,-326 71,-460 234,-460 234,-326 71,-326"/>
<text text-anchor="start" x="79" y="-448" font-family="Helvetica,sans-Serif" font-size="10.00">VolumeControl.Log.Endpoints.</text>
<text text-anchor="middle" x="152.5" y="-437" font-family="Helvetica,sans-Serif" font-size="10.00">BaseEndpointWriter</text>
<polyline fill="none" stroke="black" points="71,-430 234,-430 "/>
<text text-anchor="start" x="79" y="-418" font-family="Helvetica,sans-Serif" font-size="10.00">+ IsWritingEnabled</text>
<polyline fill="none" stroke="black" points="71,-411 234,-411 "/>
<text text-anchor="start" x="79" y="-399" font-family="Helvetica,sans-Serif" font-size="10.00">+ GetTextWriter()</text>
<text text-anchor="start" x="79" y="-388" font-family="Helvetica,sans-Serif" font-size="10.00">+ Reset()</text>
<text text-anchor="start" x="79" y="-377" font-family="Helvetica,sans-Serif" font-size="10.00">+ Write()</text>
<text text-anchor="start" x="79" y="-366" font-family="Helvetica,sans-Serif" font-size="10.00">+ WriteLine()</text>
<text text-anchor="start" x="79" y="-355" font-family="Helvetica,sans-Serif" font-size="10.00">+ WriteLine()</text>
<text text-anchor="start" x="79" y="-344" font-family="Helvetica,sans-Serif" font-size="10.00"># BaseEndpointWriter()</text>
<text text-anchor="start" x="79" y="-333" font-family="Helvetica,sans-Serif" font-size="10.00"># NotifyPropertyChanged()</text>
</a>
</g>
</g>
<!-- Node1&#45;&gt;Node2 -->
<g id="edge1" class="edge">
<title>Node1&#45;&gt;Node2</title>
<path fill="none" stroke="midnightblue" d="M224.39,-504.45C215.06,-490.12 205.02,-474.69 195.49,-460.04"/>
<polygon fill="none" stroke="midnightblue" points="221.7,-506.74 230.09,-513.21 227.57,-502.92 221.7,-506.74"/>
</g>
<!-- Node4 -->
<g id="node4" class="node">
<title>Node4</title>
<g id="a_node4"><a xlink:href="class_volume_control_1_1_log_1_1_endpoints_1_1_file_endpoint.html" target="_top" xlink:title="Log endpoint that allows writing logs directly to a file on disk.">
<polygon fill="none" stroke="black" points="181,-149.5 181,-272.5 344,-272.5 344,-149.5 181,-149.5"/>
<text text-anchor="start" x="189" y="-260.5" font-family="Helvetica,sans-Serif" font-size="10.00">VolumeControl.Log.Endpoints.</text>
<text text-anchor="middle" x="262.5" y="-249.5" font-family="Helvetica,sans-Serif" font-size="10.00">FileEndpoint</text>
<polyline fill="none" stroke="black" points="181,-242.5 344,-242.5 "/>
<text text-anchor="start" x="189" y="-230.5" font-family="Helvetica,sans-Serif" font-size="10.00">+ FileInfo</text>
<text text-anchor="start" x="189" y="-219.5" font-family="Helvetica,sans-Serif" font-size="10.00">+ Path</text>
<text text-anchor="start" x="189" y="-208.5" font-family="Helvetica,sans-Serif" font-size="10.00">+ PathIsEmpty</text>
<polyline fill="none" stroke="black" points="181,-201.5 344,-201.5 "/>
<text text-anchor="start" x="189" y="-189.5" font-family="Helvetica,sans-Serif" font-size="10.00">+ FileEndpoint()</text>
<text text-anchor="start" x="189" y="-178.5" font-family="Helvetica,sans-Serif" font-size="10.00">+ GetStreamWriter()</text>
<text text-anchor="start" x="189" y="-167.5" font-family="Helvetica,sans-Serif" font-size="10.00">+ GetTextWriter()</text>
<text text-anchor="start" x="189" y="-156.5" font-family="Helvetica,sans-Serif" font-size="10.00">+ Reset()</text>
</a>
</g>
</g>
<!-- Node1&#45;&gt;Node4 -->
<g id="edge5" class="edge">
<title>Node1&#45;&gt;Node4</title>
<path fill="none" stroke="midnightblue" d="M262.5,-503.08C262.5,-438.83 262.5,-337.36 262.5,-272.78"/>
<polygon fill="none" stroke="midnightblue" points="259,-503.45 262.5,-513.45 266,-503.45 259,-503.45"/>
</g>
<!-- Node6 -->
<g id="node6" class="node">
<title>Node6</title>
<g id="a_node6"><a xlink:href="class_volume_control_1_1_log_1_1_endpoints_1_1_memory_endpoint.html" target="_top" xlink:title="A log endpoint that implements IEndpointWriter and uses a MemoryStream as an endpoint.">
<polygon fill="none" stroke="black" points="291,-309.5 291,-476.5 454,-476.5 454,-309.5 291,-309.5"/>
<text text-anchor="start" x="299" y="-464.5" font-family="Helvetica,sans-Serif" font-size="10.00">VolumeControl.Log.Endpoints.</text>
<text text-anchor="middle" x="372.5" y="-453.5" font-family="Helvetica,sans-Serif" font-size="10.00">MemoryEndpoint</text>
<polyline fill="none" stroke="black" points="291,-446.5 454,-446.5 "/>
<text text-anchor="start" x="299" y="-434.5" font-family="Helvetica,sans-Serif" font-size="10.00">+ IsWritingEnabled</text>
<polyline fill="none" stroke="black" points="291,-427.5 454,-427.5 "/>
<text text-anchor="start" x="299" y="-415.5" font-family="Helvetica,sans-Serif" font-size="10.00">+ MemoryEndpoint()</text>
<text text-anchor="start" x="299" y="-404.5" font-family="Helvetica,sans-Serif" font-size="10.00">+ GetTextReader()</text>
<text text-anchor="start" x="299" y="-393.5" font-family="Helvetica,sans-Serif" font-size="10.00">+ GetTextWriter()</text>
<text text-anchor="start" x="299" y="-382.5" font-family="Helvetica,sans-Serif" font-size="10.00">+ ReadRaw()</text>
<text text-anchor="start" x="299" y="-371.5" font-family="Helvetica,sans-Serif" font-size="10.00">+ ReadRawLine()</text>
<text text-anchor="start" x="299" y="-360.5" font-family="Helvetica,sans-Serif" font-size="10.00">+ Reset()</text>
<text text-anchor="start" x="299" y="-349.5" font-family="Helvetica,sans-Serif" font-size="10.00">+ Write()</text>
<text text-anchor="start" x="299" y="-338.5" font-family="Helvetica,sans-Serif" font-size="10.00">+ WriteLine()</text>
<text text-anchor="start" x="299" y="-327.5" font-family="Helvetica,sans-Serif" font-size="10.00">+ Dispose()</text>
<text text-anchor="start" x="299" y="-316.5" font-family="Helvetica,sans-Serif" font-size="10.00">+ ToString()</text>
</a>
</g>
</g>
<!-- Node1&#45;&gt;Node6 -->
<g id="edge6" class="edge">
<title>Node1&#45;&gt;Node6</title>
<path fill="none" stroke="midnightblue" d="M300.45,-504.69C306.33,-495.66 312.51,-486.17 318.66,-476.72"/>
<polygon fill="none" stroke="midnightblue" points="297.43,-502.92 294.91,-513.21 303.3,-506.74 297.43,-502.92"/>
</g>
<!-- Node3 -->
<g id="node3" class="node">
<title>Node3</title>
<g id="a_node3"><a xlink:href="class_volume_control_1_1_log_1_1_endpoints_1_1_console_endpoint.html" target="_top" xlink:title="Allows using the Console as a logging endpoint.">
<polygon fill="none" stroke="black" points="0,-155 0,-267 163,-267 163,-155 0,-155"/>
<text text-anchor="start" x="8" y="-255" font-family="Helvetica,sans-Serif" font-size="10.00">VolumeControl.Log.Endpoints.</text>
<text text-anchor="middle" x="81.5" y="-244" font-family="Helvetica,sans-Serif" font-size="10.00">ConsoleEndpoint</text>
<polyline fill="none" stroke="black" points="0,-237 163,-237 "/>
<text text-anchor="middle" x="81.5" y="-225" font-family="Helvetica,sans-Serif" font-size="10.00"> </text>
<polyline fill="none" stroke="black" points="0,-218 163,-218 "/>
<text text-anchor="start" x="8" y="-206" font-family="Helvetica,sans-Serif" font-size="10.00">+ ConsoleEndpoint()</text>
<text text-anchor="start" x="8" y="-195" font-family="Helvetica,sans-Serif" font-size="10.00">+ GetTextWriter()</text>
<text text-anchor="start" x="8" y="-184" font-family="Helvetica,sans-Serif" font-size="10.00">+ Reset()</text>
<text text-anchor="start" x="8" y="-173" font-family="Helvetica,sans-Serif" font-size="10.00">+ GetSTDOUT()</text>
<text text-anchor="start" x="8" y="-162" font-family="Helvetica,sans-Serif" font-size="10.00">+ GetSTDERR()</text>
</a>
</g>
</g>
<!-- Node2&#45;&gt;Node3 -->
<g id="edge2" class="edge">
<title>Node2&#45;&gt;Node3</title>
<path fill="none" stroke="midnightblue" d="M122.66,-316.35C116.14,-299.82 109.35,-282.62 103.22,-267.06"/>
<polygon fill="none" stroke="midnightblue" points="119.54,-317.98 126.47,-326 126.05,-315.41 119.54,-317.98"/>
</g>
<!-- Node2&#45;&gt;Node4 -->
<g id="edge3" class="edge">
<title>Node2&#45;&gt;Node4</title>
<path fill="none" stroke="midnightblue" d="M198.14,-317.31C207.24,-302.43 216.69,-286.97 225.45,-272.62"/>
<polygon fill="none" stroke="midnightblue" points="195.06,-315.64 192.84,-326 201.04,-319.29 195.06,-315.64"/>
</g>
<!-- Node5 -->
<g id="node5" class="node">
<title>Node5</title>
<g id="a_node5"><a xlink:href="class_volume_control_1_1_log_1_1_endpoints_1_1_persistent_file_endpoint.html" target="_top" xlink:title="Log endpoint that allows writing logs directly to a file on disk, and keeps the file stream open.">
<polygon fill="none" stroke="black" points="181,-0.5 181,-112.5 344,-112.5 344,-0.5 181,-0.5"/>
<text text-anchor="start" x="189" y="-100.5" font-family="Helvetica,sans-Serif" font-size="10.00">VolumeControl.Log.Endpoints.</text>
<text text-anchor="middle" x="262.5" y="-89.5" font-family="Helvetica,sans-Serif" font-size="10.00">PersistentFileEndpoint</text>
<polyline fill="none" stroke="black" points="181,-82.5 344,-82.5 "/>
<text text-anchor="middle" x="262.5" y="-70.5" font-family="Helvetica,sans-Serif" font-size="10.00"> </text>
<polyline fill="none" stroke="black" points="181,-63.5 344,-63.5 "/>
<text text-anchor="start" x="189" y="-51.5" font-family="Helvetica,sans-Serif" font-size="10.00">+ PersistentFileEndpoint()</text>
<text text-anchor="start" x="189" y="-40.5" font-family="Helvetica,sans-Serif" font-size="10.00">+ GetTextWriter()</text>
<text text-anchor="start" x="189" y="-29.5" font-family="Helvetica,sans-Serif" font-size="10.00">+ GetStreamWriter()</text>
<text text-anchor="start" x="189" y="-18.5" font-family="Helvetica,sans-Serif" font-size="10.00">+ Reset()</text>
<text text-anchor="start" x="189" y="-7.5" font-family="Helvetica,sans-Serif" font-size="10.00">+ Dispose()</text>
</a>
</g>
</g>
<!-- Node4&#45;&gt;Node5 -->
<g id="edge4" class="edge">
<title>Node4&#45;&gt;Node5</title>
<path fill="none" stroke="midnightblue" d="M262.5,-139.25C262.5,-130.29 262.5,-121.23 262.5,-112.56"/>
<polygon fill="none" stroke="midnightblue" points="259,-139.29 262.5,-149.29 266,-139.29 259,-139.29"/>
</g>
</g>
</svg>
