<?xml version="1.0" encoding="UTF-8" standalone="no"?>
<!DOCTYPE svg PUBLIC "-//W3C//DTD SVG 1.1//EN"
 "http://www.w3.org/Graphics/SVG/1.1/DTD/svg11.dtd">
<!-- Generated by graphviz version 2.43.0 (0)
 -->
<!-- Title: VolumeControl.Core.Interfaces.IListDisplayable Pages: 1 -->
<svg width="695pt" height="1295pt"
 viewBox="0.00 0.00 695.39 1295.00" xmlns="http://www.w3.org/2000/svg" xmlns:xlink="http://www.w3.org/1999/xlink">
<g id="graph0" class="graph" transform="scale(1 1) rotate(0) translate(4 1291)">
<title>VolumeControl.Core.Interfaces.IListDisplayable</title>
<!-- Node1 -->
<g id="node1" class="node">
<title>Node1</title>
<g id="a_node1"><a xlink:title="Represents an object that, when it is a member of a list of similar items, can be displayed in the Li...">
<polygon fill="#bfbfbf" stroke="black" points="182.5,-1196.5 182.5,-1286.5 351.5,-1286.5 351.5,-1196.5 182.5,-1196.5"/>
<text text-anchor="start" x="190.5" y="-1274.5" font-family="Helvetica,sans-Serif" font-size="10.00">VolumeControl.Core.Interfaces.</text>
<text text-anchor="middle" x="267" y="-1263.5" font-family="Helvetica,sans-Serif" font-size="10.00">IListDisplayable</text>
<polyline fill="none" stroke="black" points="182.5,-1256.5 351.5,-1256.5 "/>
<text text-anchor="start" x="190.5" y="-1244.5" font-family="Helvetica,sans-Serif" font-size="10.00">+ DisplayText</text>
<text text-anchor="start" x="190.5" y="-1233.5" font-family="Helvetica,sans-Serif" font-size="10.00">+ DisplayControls</text>
<text text-anchor="start" x="190.5" y="-1222.5" font-family="Helvetica,sans-Serif" font-size="10.00">+ DisplayIcon</text>
<polyline fill="none" stroke="black" points="182.5,-1215.5 351.5,-1215.5 "/>
<text text-anchor="middle" x="267" y="-1203.5" font-family="Helvetica,sans-Serif" font-size="10.00"> </text>
</a>
</g>
</g>
<!-- Node2 -->
<g id="node2" class="node">
<title>Node2</title>
<g id="a_node2"><a xlink:href="class_volume_control_1_1_audio_1_1_audio_device.html" target="_top" xlink:title="An audio device.">
<polygon fill="none" stroke="black" points="0,-358.5 0,-712.5 184,-712.5 184,-358.5 0,-358.5"/>
<text text-anchor="start" x="8" y="-700.5" font-family="Helvetica,sans-Serif" font-size="10.00">VolumeControl.Audio.Audio</text>
<text text-anchor="middle" x="92" y="-689.5" font-family="Helvetica,sans-Serif" font-size="10.00">Device</text>
<polyline fill="none" stroke="black" points="0,-682.5 184,-682.5 "/>
<text text-anchor="start" x="8" y="-670.5" font-family="Helvetica,sans-Serif" font-size="10.00">+ AudioMeterInformation</text>
<text text-anchor="start" x="8" y="-659.5" font-family="Helvetica,sans-Serif" font-size="10.00">+ PeakMeterValue</text>
<text text-anchor="start" x="8" y="-648.5" font-family="Helvetica,sans-Serif" font-size="10.00">+ Log</text>
<text text-anchor="start" x="8" y="-637.5" font-family="Helvetica,sans-Serif" font-size="10.00">+ MMDevice</text>
<text text-anchor="start" x="8" y="-626.5" font-family="Helvetica,sans-Serif" font-size="10.00">+ Enabled</text>
<text text-anchor="start" x="8" y="-615.5" font-family="Helvetica,sans-Serif" font-size="10.00">+ Name</text>
<text text-anchor="start" x="8" y="-604.5" font-family="Helvetica,sans-Serif" font-size="10.00">+ InterfaceName</text>
<text text-anchor="start" x="8" y="-593.5" font-family="Helvetica,sans-Serif" font-size="10.00">+ DeviceID</text>
<text text-anchor="start" x="8" y="-582.5" font-family="Helvetica,sans-Serif" font-size="10.00">+ InstanceID</text>
<text text-anchor="start" x="8" y="-571.5" font-family="Helvetica,sans-Serif" font-size="10.00">+ IconPath</text>
<text text-anchor="start" x="8" y="-560.5" font-family="Helvetica,sans-Serif" font-size="10.00">and 24 more...</text>
<polyline fill="none" stroke="black" points="0,-553.5 184,-553.5 "/>
<text text-anchor="start" x="8" y="-541.5" font-family="Helvetica,sans-Serif" font-size="10.00">+ GetDeviceName()</text>
<text text-anchor="start" x="8" y="-530.5" font-family="Helvetica,sans-Serif" font-size="10.00">+ FindAll()</text>
<text text-anchor="start" x="8" y="-519.5" font-family="Helvetica,sans-Serif" font-size="10.00">+ GetIcons()</text>
<text text-anchor="start" x="8" y="-508.5" font-family="Helvetica,sans-Serif" font-size="10.00">+ Dispose()</text>
<text text-anchor="start" x="8" y="-497.5" font-family="Helvetica,sans-Serif" font-size="10.00">+ Equals()</text>
<text text-anchor="start" x="8" y="-486.5" font-family="Helvetica,sans-Serif" font-size="10.00">+ Equals()</text>
<text text-anchor="start" x="8" y="-475.5" font-family="Helvetica,sans-Serif" font-size="10.00">+ Equals()</text>
<text text-anchor="start" x="8" y="-464.5" font-family="Helvetica,sans-Serif" font-size="10.00">+ GetHashCode()</text>
<text text-anchor="start" x="8" y="-453.5" font-family="Helvetica,sans-Serif" font-size="10.00">+ Add()</text>
<text text-anchor="start" x="8" y="-442.5" font-family="Helvetica,sans-Serif" font-size="10.00">+ Clear()</text>
<text text-anchor="start" x="8" y="-431.5" font-family="Helvetica,sans-Serif" font-size="10.00">and 27 more...</text>
<text text-anchor="start" x="8" y="-420.5" font-family="Helvetica,sans-Serif" font-size="10.00">~ AudioDevice()</text>
<text text-anchor="start" x="8" y="-409.5" font-family="Helvetica,sans-Serif" font-size="10.00">~ ForwardPropertyStoreChanged()</text>
<text text-anchor="start" x="8" y="-398.5" font-family="Helvetica,sans-Serif" font-size="10.00">~ ForwardRemoved()</text>
<text text-anchor="start" x="8" y="-387.5" font-family="Helvetica,sans-Serif" font-size="10.00">~ ForwardStateChanged()</text>
<text text-anchor="start" x="8" y="-376.5" font-family="Helvetica,sans-Serif" font-size="10.00">~ ReloadSessions()</text>
<text text-anchor="start" x="8" y="-365.5" font-family="Helvetica,sans-Serif" font-size="10.00">~ GetAudioSessions()</text>
</a>
</g>
</g>
<!-- Node1&#45;&gt;Node2 -->
<g id="edge1" class="edge">
<title>Node1&#45;&gt;Node2</title>
<path fill="none" stroke="midnightblue" d="M173.13,-1210.46C149.99,-1198.48 127.88,-1182.1 114,-1160 30.68,-1027.35 34.48,-845.58 53.56,-712.53"/>
<polygon fill="none" stroke="midnightblue" points="171.86,-1213.74 182.38,-1215.01 174.95,-1207.46 171.86,-1213.74"/>
</g>
<!-- Node3 -->
<g id="node3" class="node">
<title>Node3</title>
<g id="a_node3"><a xlink:href="class_volume_control_1_1_audio_1_1_audio_session.html" target="_top" xlink:title="Represents an audio session playing on the system.">
<polygon fill="none" stroke="black" points="422,-0.5 422,-321.5 572,-321.5 572,-0.5 422,-0.5"/>
<text text-anchor="start" x="430" y="-309.5" font-family="Helvetica,sans-Serif" font-size="10.00">VolumeControl.Audio.Audio</text>
<text text-anchor="middle" x="497" y="-298.5" font-family="Helvetica,sans-Serif" font-size="10.00">Session</text>
<polyline fill="none" stroke="black" points="422,-291.5 572,-291.5 "/>
<text text-anchor="start" x="430" y="-279.5" font-family="Helvetica,sans-Serif" font-size="10.00">+ int</text>
<text text-anchor="start" x="430" y="-268.5" font-family="Helvetica,sans-Serif" font-size="10.00">+ Settings</text>
<text text-anchor="start" x="430" y="-257.5" font-family="Helvetica,sans-Serif" font-size="10.00">+ AudioMeterInformation</text>
<text text-anchor="start" x="430" y="-246.5" font-family="Helvetica,sans-Serif" font-size="10.00">+ PeakMeterValue</text>
<text text-anchor="start" x="430" y="-235.5" font-family="Helvetica,sans-Serif" font-size="10.00">+ SessionIdentifier</text>
<text text-anchor="start" x="430" y="-224.5" font-family="Helvetica,sans-Serif" font-size="10.00">+ SessionInstanceIdentifier</text>
<text text-anchor="start" x="430" y="-213.5" font-family="Helvetica,sans-Serif" font-size="10.00">+ HashCode</text>
<text text-anchor="start" x="430" y="-202.5" font-family="Helvetica,sans-Serif" font-size="10.00">+ VolumeController</text>
<text text-anchor="start" x="430" y="-191.5" font-family="Helvetica,sans-Serif" font-size="10.00">+ State</text>
<text text-anchor="start" x="430" y="-180.5" font-family="Helvetica,sans-Serif" font-size="10.00">+ IconPath</text>
<text text-anchor="start" x="430" y="-169.5" font-family="Helvetica,sans-Serif" font-size="10.00">+ Icons</text>
<text text-anchor="start" x="430" y="-158.5" font-family="Helvetica,sans-Serif" font-size="10.00">and 17 more...</text>
<polyline fill="none" stroke="black" points="422,-151.5 572,-151.5 "/>
<text text-anchor="start" x="430" y="-139.5" font-family="Helvetica,sans-Serif" font-size="10.00">+ GetIcons()</text>
<text text-anchor="start" x="430" y="-128.5" font-family="Helvetica,sans-Serif" font-size="10.00">+ GetProcess()</text>
<text text-anchor="start" x="430" y="-117.5" font-family="Helvetica,sans-Serif" font-size="10.00">+ Dispose()</text>
<text text-anchor="start" x="430" y="-106.5" font-family="Helvetica,sans-Serif" font-size="10.00">+ Equals()</text>
<text text-anchor="start" x="430" y="-95.5" font-family="Helvetica,sans-Serif" font-size="10.00">+ Equals()</text>
<text text-anchor="start" x="430" y="-84.5" font-family="Helvetica,sans-Serif" font-size="10.00">+ Equals()</text>
<text text-anchor="start" x="430" y="-73.5" font-family="Helvetica,sans-Serif" font-size="10.00">+ GetHashCode()</text>
<text text-anchor="start" x="430" y="-62.5" font-family="Helvetica,sans-Serif" font-size="10.00">+ IncreaseVolume()</text>
<text text-anchor="start" x="430" y="-51.5" font-family="Helvetica,sans-Serif" font-size="10.00">+ IncreaseVolume()</text>
<text text-anchor="start" x="430" y="-40.5" font-family="Helvetica,sans-Serif" font-size="10.00">+ DecreaseVolume()</text>
<text text-anchor="start" x="430" y="-29.5" font-family="Helvetica,sans-Serif" font-size="10.00">+ DecreaseVolume()</text>
<text text-anchor="start" x="430" y="-18.5" font-family="Helvetica,sans-Serif" font-size="10.00">~ AudioSession()</text>
<text text-anchor="start" x="430" y="-7.5" font-family="Helvetica,sans-Serif" font-size="10.00">~ NotifyExited()</text>
</a>
</g>
</g>
<!-- Node1&#45;&gt;Node3 -->
<g id="edge2" class="edge">
<title>Node1&#45;&gt;Node3</title>
<path fill="none" stroke="midnightblue" d="M361.49,-1214.31C480.61,-1174.86 670,-1087.86 670,-933.5 670,-933.5 670,-933.5 670,-799 670,-602.82 719.1,-541.98 651,-358 634.18,-312.55 602.6,-269.35 572.39,-235.13"/>
<polygon fill="none" stroke="midnightblue" points="360.4,-1210.98 351.97,-1217.41 362.57,-1217.64 360.4,-1210.98"/>
</g>
<!-- Node4 -->
<g id="node4" class="node">
<title>Node4</title>
<g id="a_node4"><a xlink:href="interface_volume_control_1_1_audio_1_1_interfaces_1_1_i_metered_volume_control.html" target="_top" xlink:title="Extends the IMeteredVolumeControl interface with the AudioMeterInformation property.">
<polygon fill="none" stroke="black" points="238,-887.5 238,-977.5 412,-977.5 412,-887.5 238,-887.5"/>
<text text-anchor="start" x="246" y="-965.5" font-family="Helvetica,sans-Serif" font-size="10.00">VolumeControl.Audio.Interfaces.</text>
<text text-anchor="middle" x="325" y="-954.5" font-family="Helvetica,sans-Serif" font-size="10.00">IMeteredVolumeControl</text>
<polyline fill="none" stroke="black" points="238,-947.5 412,-947.5 "/>
<text text-anchor="start" x="246" y="-935.5" font-family="Helvetica,sans-Serif" font-size="10.00">+ PeakMeterValue</text>
<text text-anchor="start" x="246" y="-924.5" font-family="Helvetica,sans-Serif" font-size="10.00">+ AudioMeterInformation</text>
<polyline fill="none" stroke="black" points="238,-917.5 412,-917.5 "/>
<text text-anchor="start" x="246" y="-905.5" font-family="Helvetica,sans-Serif" font-size="10.00">~ MakeListDisplayableControl</text>
<text text-anchor="start" x="246" y="-894.5" font-family="Helvetica,sans-Serif" font-size="10.00">Template()</text>
</a>
</g>
</g>
<!-- Node1&#45;&gt;Node4 -->
<g id="edge3" class="edge">
<title>Node1&#45;&gt;Node4</title>
<path fill="none" stroke="midnightblue" d="M296.35,-1186.77C300.15,-1178.02 303.56,-1168.91 306,-1160 322.89,-1098.35 326.01,-1024.02 326.03,-977.75"/>
<polygon fill="none" stroke="midnightblue" points="293.06,-1185.53 292.1,-1196.08 299.43,-1188.44 293.06,-1185.53"/>
</g>
<!-- Node8 -->
<g id="node8" class="node">
<title>Node8</title>
<g id="a_node8"><a xlink:href="interface_volume_control_1_1_audio_1_1_interfaces_1_1_i_volume_control.html" target="_top" xlink:title="Represents some kind of controllable audio playback instance.">
<polygon fill="none" stroke="black" points="123,-1014.5 123,-1159.5 297,-1159.5 297,-1014.5 123,-1014.5"/>
<text text-anchor="start" x="131" y="-1147.5" font-family="Helvetica,sans-Serif" font-size="10.00">VolumeControl.Audio.Interfaces.</text>
<text text-anchor="middle" x="210" y="-1136.5" font-family="Helvetica,sans-Serif" font-size="10.00">IVolumeControl</text>
<polyline fill="none" stroke="black" points="123,-1129.5 297,-1129.5 "/>
<text text-anchor="start" x="131" y="-1117.5" font-family="Helvetica,sans-Serif" font-size="10.00">+ NativeVolume</text>
<text text-anchor="start" x="131" y="-1106.5" font-family="Helvetica,sans-Serif" font-size="10.00">+ Volume</text>
<text text-anchor="start" x="131" y="-1095.5" font-family="Helvetica,sans-Serif" font-size="10.00">+ Muted</text>
<polyline fill="none" stroke="black" points="123,-1088.5 297,-1088.5 "/>
<text text-anchor="start" x="131" y="-1076.5" font-family="Helvetica,sans-Serif" font-size="10.00">+ IncreaseVolume()</text>
<text text-anchor="start" x="131" y="-1065.5" font-family="Helvetica,sans-Serif" font-size="10.00">+ IncreaseVolume()</text>
<text text-anchor="start" x="131" y="-1054.5" font-family="Helvetica,sans-Serif" font-size="10.00">+ DecreaseVolume()</text>
<text text-anchor="start" x="131" y="-1043.5" font-family="Helvetica,sans-Serif" font-size="10.00">+ DecreaseVolume()</text>
<text text-anchor="start" x="131" y="-1032.5" font-family="Helvetica,sans-Serif" font-size="10.00">~ MakeListDisplayableControl</text>
<text text-anchor="start" x="131" y="-1021.5" font-family="Helvetica,sans-Serif" font-size="10.00">Template()</text>
</a>
</g>
</g>
<!-- Node1&#45;&gt;Node8 -->
<g id="edge11" class="edge">
<title>Node1&#45;&gt;Node8</title>
<path fill="none" stroke="midnightblue" d="M247,-1186.98C243.68,-1178.12 240.2,-1168.81 236.76,-1159.59"/>
<polygon fill="none" stroke="midnightblue" points="243.73,-1188.25 250.51,-1196.39 250.29,-1185.8 243.73,-1188.25"/>
</g>
<!-- Node5 -->
<g id="node5" class="node">
<title>Node5</title>
<g id="a_node5"><a xlink:href="interface_volume_control_1_1_audio_1_1_interfaces_1_1_i_device.html" target="_top" xlink:title="Represents an audio device.">
<polygon fill="none" stroke="black" points="238,-760.5 238,-839.5 412,-839.5 412,-760.5 238,-760.5"/>
<text text-anchor="start" x="246" y="-827.5" font-family="Helvetica,sans-Serif" font-size="10.00">VolumeControl.Audio.Interfaces.</text>
<text text-anchor="middle" x="325" y="-816.5" font-family="Helvetica,sans-Serif" font-size="10.00">IDevice</text>
<polyline fill="none" stroke="black" points="238,-809.5 412,-809.5 "/>
<text text-anchor="start" x="246" y="-797.5" font-family="Helvetica,sans-Serif" font-size="10.00">+ Name</text>
<text text-anchor="start" x="246" y="-786.5" font-family="Helvetica,sans-Serif" font-size="10.00">+ DeviceID</text>
<polyline fill="none" stroke="black" points="238,-779.5 412,-779.5 "/>
<text text-anchor="middle" x="325" y="-767.5" font-family="Helvetica,sans-Serif" font-size="10.00"> </text>
</a>
</g>
</g>
<!-- Node4&#45;&gt;Node5 -->
<g id="edge4" class="edge">
<title>Node4&#45;&gt;Node5</title>
<path fill="none" stroke="midnightblue" d="M325,-877.02C325,-864.55 325,-851.55 325,-839.89"/>
<polygon fill="none" stroke="midnightblue" points="321.5,-877.32 325,-887.32 328.5,-877.32 321.5,-877.32"/>
</g>
<!-- Node6 -->
<g id="node6" class="node">
<title>Node6</title>
<g id="a_node6"><a xlink:href="interface_volume_control_1_1_audio_1_1_interfaces_1_1_i_process.html" target="_top" xlink:title="Represents read&#45;only information about a process running on the local system.">
<polygon fill="none" stroke="black" points="430,-749.5 430,-850.5 604,-850.5 604,-749.5 430,-749.5"/>
<text text-anchor="start" x="438" y="-838.5" font-family="Helvetica,sans-Serif" font-size="10.00">VolumeControl.Audio.Interfaces.</text>
<text text-anchor="middle" x="517" y="-827.5" font-family="Helvetica,sans-Serif" font-size="10.00">IProcess</text>
<polyline fill="none" stroke="black" points="430,-820.5 604,-820.5 "/>
<text text-anchor="start" x="438" y="-808.5" font-family="Helvetica,sans-Serif" font-size="10.00">+ ProcessName</text>
<text text-anchor="start" x="438" y="-797.5" font-family="Helvetica,sans-Serif" font-size="10.00">+ PID</text>
<text text-anchor="start" x="438" y="-786.5" font-family="Helvetica,sans-Serif" font-size="10.00">+ ProcessIdentifier</text>
<text text-anchor="start" x="438" y="-775.5" font-family="Helvetica,sans-Serif" font-size="10.00">+ HashCode</text>
<polyline fill="none" stroke="black" points="430,-768.5 604,-768.5 "/>
<text text-anchor="middle" x="517" y="-756.5" font-family="Helvetica,sans-Serif" font-size="10.00"> </text>
</a>
</g>
</g>
<!-- Node4&#45;&gt;Node6 -->
<g id="edge6" class="edge">
<title>Node4&#45;&gt;Node6</title>
<path fill="none" stroke="midnightblue" d="M398.68,-881.42C413.59,-871.29 429.26,-860.64 444.14,-850.52"/>
<polygon fill="none" stroke="midnightblue" points="396.31,-878.8 390,-887.32 400.24,-884.59 396.31,-878.8"/>
</g>
<!-- Node7 -->
<g id="node7" class="node">
<title>Node7</title>
<g id="a_node7"><a xlink:href="interface_volume_control_1_1_audio_1_1_interfaces_1_1_i_session.html" target="_top" xlink:title="Represents an audio session.">
<polygon fill="none" stroke="black" points="468,-490.5 468,-580.5 642,-580.5 642,-490.5 468,-490.5"/>
<text text-anchor="start" x="476" y="-568.5" font-family="Helvetica,sans-Serif" font-size="10.00">VolumeControl.Audio.Interfaces.</text>
<text text-anchor="middle" x="555" y="-557.5" font-family="Helvetica,sans-Serif" font-size="10.00">ISession</text>
<polyline fill="none" stroke="black" points="468,-550.5 642,-550.5 "/>
<text text-anchor="start" x="476" y="-538.5" font-family="Helvetica,sans-Serif" font-size="10.00">+ Name</text>
<text text-anchor="start" x="476" y="-527.5" font-family="Helvetica,sans-Serif" font-size="10.00">+ SessionIdentifier</text>
<text text-anchor="start" x="476" y="-516.5" font-family="Helvetica,sans-Serif" font-size="10.00">+ SessionInstanceIdentifier</text>
<polyline fill="none" stroke="black" points="468,-509.5 642,-509.5 "/>
<text text-anchor="middle" x="555" y="-497.5" font-family="Helvetica,sans-Serif" font-size="10.00"> </text>
</a>
</g>
</g>
<!-- Node4&#45;&gt;Node7 -->
<g id="edge10" class="edge">
<title>Node4&#45;&gt;Node7</title>
<path fill="none" stroke="midnightblue" d="M421.9,-917.17C496.12,-903.97 589.65,-881.77 613,-851 673.91,-770.72 619.3,-646.19 582.35,-580.51"/>
<polygon fill="none" stroke="midnightblue" points="421.28,-913.72 412.03,-918.89 422.48,-920.62 421.28,-913.72"/>
</g>
<!-- Node5&#45;&gt;Node2 -->
<g id="edge5" class="edge">
<title>Node5&#45;&gt;Node2</title>
<path fill="none" stroke="midnightblue" d="M283.82,-752.61C256.2,-721.49 218.7,-679.25 184.18,-640.36"/>
<polygon fill="none" stroke="midnightblue" points="281.36,-755.11 290.62,-760.27 286.6,-750.46 281.36,-755.11"/>
</g>
<!-- Node6&#45;&gt;Node3 -->
<g id="edge7" class="edge">
<title>Node6&#45;&gt;Node3</title>
<path fill="none" stroke="midnightblue" d="M471.17,-740.6C466.18,-731.76 461.88,-722.43 459,-713 419.97,-585.31 434.64,-433.51 456.14,-321.6"/>
<polygon fill="none" stroke="midnightblue" points="468.21,-742.48 476.35,-749.26 474.22,-738.89 468.21,-742.48"/>
</g>
<!-- Node6&#45;&gt;Node7 -->
<g id="edge8" class="edge">
<title>Node6&#45;&gt;Node7</title>
<path fill="none" stroke="midnightblue" d="M525.64,-739.32C532.62,-691.09 542.29,-624.29 548.6,-580.74"/>
<polygon fill="none" stroke="midnightblue" points="522.16,-738.92 524.19,-749.32 529.09,-739.92 522.16,-738.92"/>
</g>
<!-- Node7&#45;&gt;Node3 -->
<g id="edge9" class="edge">
<title>Node7&#45;&gt;Node3</title>
<path fill="none" stroke="midnightblue" d="M546.57,-480.35C540.06,-438.55 530.7,-378.46 521.87,-321.73"/>
<polygon fill="none" stroke="midnightblue" points="543.12,-480.96 548.12,-490.31 550.04,-479.89 543.12,-480.96"/>
</g>
<!-- Node8&#45;&gt;Node2 -->
<g id="edge12" class="edge">
<title>Node8&#45;&gt;Node2</title>
<path fill="none" stroke="midnightblue" d="M192.47,-1004.37C176.01,-927.73 150.85,-810.53 129.82,-712.6"/>
<polygon fill="none" stroke="midnightblue" points="189.11,-1005.4 194.63,-1014.44 195.96,-1003.93 189.11,-1005.4"/>
</g>
<!-- Node8&#45;&gt;Node3 -->
<g id="edge13" class="edge">
<title>Node8&#45;&gt;Node3</title>
<path fill="none" stroke="midnightblue" d="M206.22,-1003.81C205.03,-934.79 207.97,-834.09 229,-749 270.16,-582.47 357.97,-405.14 421.89,-289.51"/>
<polygon fill="none" stroke="midnightblue" points="202.72,-1004.26 206.43,-1014.18 209.72,-1004.11 202.72,-1004.26"/>
</g>
<!-- Node8&#45;&gt;Node4 -->
<g id="edge14" class="edge">
<title>Node8&#45;&gt;Node4</title>
<path fill="none" stroke="midnightblue" d="M270.33,-1005.99C277.71,-996.21 285.02,-986.51 291.79,-977.54"/>
<polygon fill="none" stroke="midnightblue" points="267.36,-1004.12 264.13,-1014.22 272.95,-1008.34 267.36,-1004.12"/>
</g>
</g>
</svg>
