<?xml version="1.0" encoding="UTF-8" standalone="no"?>
<!DOCTYPE svg PUBLIC "-//W3C//DTD SVG 1.1//EN"
 "http://www.w3.org/Graphics/SVG/1.1/DTD/svg11.dtd">
<!-- Generated by graphviz version 2.43.0 (0)
 -->
<!-- Title: VolumeControl.Core.Interfaces.IListDisplayable Pages: 1 -->
<!--zoomable 1317 -->
<svg id="main" version="1.1" xmlns="http://www.w3.org/2000/svg" xmlns:xlink="http://www.w3.org/1999/xlink" xml:space="preserve" onload="init(evt)">
<style type="text/css"><![CDATA[
.edge:hover path { stroke: red; }
.edge:hover polygon { stroke: red; fill: red; }
]]></style>
<script type="text/javascript"><![CDATA[
var edges = document.getElementsByTagName('g');
if (edges && edges.length) {
  for (var i=0;i<edges.length;i++) {
    if (edges[i].id.substr(0,4)=='edge') {
      edges[i].setAttribute('class','edge');
    }
  }
}
]]></script>
        <defs>
                <circle id="rim" cx="0" cy="0" r="7"/>
                <circle id="rim2" cx="0" cy="0" r="3.5"/>
                <g id="zoomPlus">
                        <use xlink:href="#rim" fill="#404040">
                                <set attributeName="fill" to="#808080" begin="zoomplus.mouseover" end="zoomplus.mouseout"/>
                        </use>
                        <path d="M-4,0h8M0,-4v8" fill="none" stroke="white" stroke-width="1.5" pointer-events="none"/>
                </g>
                <g id="zoomMin">
                        <use xlink:href="#rim" fill="#404040">
                                <set attributeName="fill" to="#808080" begin="zoomminus.mouseover" end="zoomminus.mouseout"/>
                        </use>
                        <path d="M-4,0h8" fill="none" stroke="white" stroke-width="1.5" pointer-events="none"/>
                </g>
                <g id="dirArrow">
                        <path fill="none" stroke="white" stroke-width="1.5" d="M0,-3.0v7 M-2.5,-0.5L0,-3.0L2.5,-0.5"/>
                </g>
               <g id="resetDef">
                       <use xlink:href="#rim2" fill="#404040">
                               <set attributeName="fill" to="#808080" begin="reset.mouseover" end="reset.mouseout"/>
                       </use>
               </g>
        </defs>

<script type="text/javascript">
var viewWidth = 717;
var viewHeight = 1317;
var sectionId = 'dynsection-0';
</script>
<script xlink:href="svgpan.js"/>
<svg id="graph" class="graph">
<g id="viewport">
<title>VolumeControl.Core.Interfaces.IListDisplayable</title>
<!-- Node1 -->
<g id="node1" class="node">
<title>Node1</title>
<g id="a_node1"><a xlink:title="Represents an object that, when it is a member of a list of similar items, can be displayed in the Li...">
<polygon fill="#bfbfbf" stroke="black" points="202.5,-1218.5 202.5,-1308.5 371.5,-1308.5 371.5,-1218.5 202.5,-1218.5"/>
<text text-anchor="start" x="210.5" y="-1296.5" font-family="Helvetica,sans-Serif" font-size="10.00">VolumeControl.Core.Interfaces.</text>
<text text-anchor="middle" x="287" y="-1285.5" font-family="Helvetica,sans-Serif" font-size="10.00">IListDisplayable</text>
<polyline fill="none" stroke="black" points="202.5,-1278.5 371.5,-1278.5 "/>
<text text-anchor="start" x="210.5" y="-1266.5" font-family="Helvetica,sans-Serif" font-size="10.00">+ DisplayText</text>
<text text-anchor="start" x="210.5" y="-1255.5" font-family="Helvetica,sans-Serif" font-size="10.00">+ DisplayControls</text>
<text text-anchor="start" x="210.5" y="-1244.5" font-family="Helvetica,sans-Serif" font-size="10.00">+ DisplayIcon</text>
<polyline fill="none" stroke="black" points="202.5,-1237.5 371.5,-1237.5 "/>
<text text-anchor="middle" x="287" y="-1225.5" font-family="Helvetica,sans-Serif" font-size="10.00"> </text>
</a>
</g>
</g>
<!-- Node2 -->
<g id="node2" class="node">
<title>Node2</title>
<g id="a_node2"><a xlink:href="class_volume_control_1_1_audio_1_1_audio_device.html" target="_top" xlink:title="An audio device.">
<polygon fill="none" stroke="black" points="0,-358.5 0,-734.5 206,-734.5 206,-358.5 0,-358.5"/>
<text text-anchor="start" x="8" y="-722.5" font-family="Helvetica,sans-Serif" font-size="10.00">VolumeControl.Audio.Audio</text>
<text text-anchor="middle" x="103" y="-711.5" font-family="Helvetica,sans-Serif" font-size="10.00">Device</text>
<polyline fill="none" stroke="black" points="0,-704.5 206,-704.5 "/>
<text text-anchor="start" x="8" y="-692.5" font-family="Helvetica,sans-Serif" font-size="10.00">+ AudioMeterInformation</text>
<text text-anchor="start" x="8" y="-681.5" font-family="Helvetica,sans-Serif" font-size="10.00">+ PeakMeterValue</text>
<text text-anchor="start" x="8" y="-670.5" font-family="Helvetica,sans-Serif" font-size="10.00">+ Log</text>
<text text-anchor="start" x="8" y="-659.5" font-family="Helvetica,sans-Serif" font-size="10.00">+ MMDevice</text>
<text text-anchor="start" x="8" y="-648.5" font-family="Helvetica,sans-Serif" font-size="10.00">+ Enabled</text>
<text text-anchor="start" x="8" y="-637.5" font-family="Helvetica,sans-Serif" font-size="10.00">+ Name</text>
<text text-anchor="start" x="8" y="-626.5" font-family="Helvetica,sans-Serif" font-size="10.00">+ InterfaceName</text>
<text text-anchor="start" x="8" y="-615.5" font-family="Helvetica,sans-Serif" font-size="10.00">+ DeviceID</text>
<text text-anchor="start" x="8" y="-604.5" font-family="Helvetica,sans-Serif" font-size="10.00">+ InstanceID</text>
<text text-anchor="start" x="8" y="-593.5" font-family="Helvetica,sans-Serif" font-size="10.00">+ IconPath</text>
<text text-anchor="start" x="8" y="-582.5" font-family="Helvetica,sans-Serif" font-size="10.00">and 24 more...</text>
<polyline fill="none" stroke="black" points="0,-575.5 206,-575.5 "/>
<text text-anchor="start" x="8" y="-563.5" font-family="Helvetica,sans-Serif" font-size="10.00">+ GetDeviceName()</text>
<text text-anchor="start" x="8" y="-552.5" font-family="Helvetica,sans-Serif" font-size="10.00">+ FindAll()</text>
<text text-anchor="start" x="8" y="-541.5" font-family="Helvetica,sans-Serif" font-size="10.00">+ GetIcons()</text>
<text text-anchor="start" x="8" y="-530.5" font-family="Helvetica,sans-Serif" font-size="10.00">+ Dispose()</text>
<text text-anchor="start" x="8" y="-519.5" font-family="Helvetica,sans-Serif" font-size="10.00">+ Equals()</text>
<text text-anchor="start" x="8" y="-508.5" font-family="Helvetica,sans-Serif" font-size="10.00">+ Equals()</text>
<text text-anchor="start" x="8" y="-497.5" font-family="Helvetica,sans-Serif" font-size="10.00">+ Equals()</text>
<text text-anchor="start" x="8" y="-486.5" font-family="Helvetica,sans-Serif" font-size="10.00">+ GetHashCode()</text>
<text text-anchor="start" x="8" y="-475.5" font-family="Helvetica,sans-Serif" font-size="10.00">+ Add()</text>
<text text-anchor="start" x="8" y="-464.5" font-family="Helvetica,sans-Serif" font-size="10.00">+ Clear()</text>
<text text-anchor="start" x="8" y="-453.5" font-family="Helvetica,sans-Serif" font-size="10.00">and 27 more...</text>
<text text-anchor="start" x="8" y="-442.5" font-family="Helvetica,sans-Serif" font-size="10.00">+ GetDeviceNameFromDeviceFriendly</text>
<text text-anchor="start" x="8" y="-431.5" font-family="Helvetica,sans-Serif" font-size="10.00">Name()</text>
<text text-anchor="start" x="8" y="-420.5" font-family="Helvetica,sans-Serif" font-size="10.00">~ AudioDevice()</text>
<text text-anchor="start" x="8" y="-409.5" font-family="Helvetica,sans-Serif" font-size="10.00">~ ForwardPropertyStoreChanged()</text>
<text text-anchor="start" x="8" y="-398.5" font-family="Helvetica,sans-Serif" font-size="10.00">~ ForwardRemoved()</text>
<text text-anchor="start" x="8" y="-387.5" font-family="Helvetica,sans-Serif" font-size="10.00">~ ForwardStateChanged()</text>
<text text-anchor="start" x="8" y="-376.5" font-family="Helvetica,sans-Serif" font-size="10.00">~ ReloadSessions()</text>
<text text-anchor="start" x="8" y="-365.5" font-family="Helvetica,sans-Serif" font-size="10.00">~ GetAudioSessions()</text>
</a>
</g>
</g>
<!-- Node1&#45;&gt;Node2 -->
<g id="edge1" class="edge">
<title>Node1&#45;&gt;Node2</title>
<path fill="none" stroke="midnightblue" d="M192.97,-1232.16C169.96,-1220.19 147.96,-1203.9 134,-1182 49.88,-1050.07 49.47,-869.49 65.83,-734.71"/>
<polygon fill="none" stroke="midnightblue" points="191.65,-1235.41 202.17,-1236.7 194.75,-1229.14 191.65,-1235.41"/>
</g>
<!-- Node3 -->
<g id="node3" class="node">
<title>Node3</title>
<g id="a_node3"><a xlink:href="class_volume_control_1_1_audio_1_1_audio_session.html" target="_top" xlink:title="Represents an audio session playing on the system.">
<polygon fill="none" stroke="black" points="442,-0.5 442,-321.5 592,-321.5 592,-0.5 442,-0.5"/>
<text text-anchor="start" x="450" y="-309.5" font-family="Helvetica,sans-Serif" font-size="10.00">VolumeControl.Audio.Audio</text>
<text text-anchor="middle" x="517" y="-298.5" font-family="Helvetica,sans-Serif" font-size="10.00">Session</text>
<polyline fill="none" stroke="black" points="442,-291.5 592,-291.5 "/>
<text text-anchor="start" x="450" y="-279.5" font-family="Helvetica,sans-Serif" font-size="10.00">+ int</text>
<text text-anchor="start" x="450" y="-268.5" font-family="Helvetica,sans-Serif" font-size="10.00">+ Settings</text>
<text text-anchor="start" x="450" y="-257.5" font-family="Helvetica,sans-Serif" font-size="10.00">+ AudioMeterInformation</text>
<text text-anchor="start" x="450" y="-246.5" font-family="Helvetica,sans-Serif" font-size="10.00">+ PeakMeterValue</text>
<text text-anchor="start" x="450" y="-235.5" font-family="Helvetica,sans-Serif" font-size="10.00">+ SessionIdentifier</text>
<text text-anchor="start" x="450" y="-224.5" font-family="Helvetica,sans-Serif" font-size="10.00">+ SessionInstanceIdentifier</text>
<text text-anchor="start" x="450" y="-213.5" font-family="Helvetica,sans-Serif" font-size="10.00">+ HashCode</text>
<text text-anchor="start" x="450" y="-202.5" font-family="Helvetica,sans-Serif" font-size="10.00">+ VolumeController</text>
<text text-anchor="start" x="450" y="-191.5" font-family="Helvetica,sans-Serif" font-size="10.00">+ State</text>
<text text-anchor="start" x="450" y="-180.5" font-family="Helvetica,sans-Serif" font-size="10.00">+ IconPath</text>
<text text-anchor="start" x="450" y="-169.5" font-family="Helvetica,sans-Serif" font-size="10.00">+ Icons</text>
<text text-anchor="start" x="450" y="-158.5" font-family="Helvetica,sans-Serif" font-size="10.00">and 17 more...</text>
<polyline fill="none" stroke="black" points="442,-151.5 592,-151.5 "/>
<text text-anchor="start" x="450" y="-139.5" font-family="Helvetica,sans-Serif" font-size="10.00">+ GetIcons()</text>
<text text-anchor="start" x="450" y="-128.5" font-family="Helvetica,sans-Serif" font-size="10.00">+ GetProcess()</text>
<text text-anchor="start" x="450" y="-117.5" font-family="Helvetica,sans-Serif" font-size="10.00">+ Dispose()</text>
<text text-anchor="start" x="450" y="-106.5" font-family="Helvetica,sans-Serif" font-size="10.00">+ Equals()</text>
<text text-anchor="start" x="450" y="-95.5" font-family="Helvetica,sans-Serif" font-size="10.00">+ Equals()</text>
<text text-anchor="start" x="450" y="-84.5" font-family="Helvetica,sans-Serif" font-size="10.00">+ Equals()</text>
<text text-anchor="start" x="450" y="-73.5" font-family="Helvetica,sans-Serif" font-size="10.00">+ GetHashCode()</text>
<text text-anchor="start" x="450" y="-62.5" font-family="Helvetica,sans-Serif" font-size="10.00">+ IncreaseVolume()</text>
<text text-anchor="start" x="450" y="-51.5" font-family="Helvetica,sans-Serif" font-size="10.00">+ IncreaseVolume()</text>
<text text-anchor="start" x="450" y="-40.5" font-family="Helvetica,sans-Serif" font-size="10.00">+ DecreaseVolume()</text>
<text text-anchor="start" x="450" y="-29.5" font-family="Helvetica,sans-Serif" font-size="10.00">+ DecreaseVolume()</text>
<text text-anchor="start" x="450" y="-18.5" font-family="Helvetica,sans-Serif" font-size="10.00">~ AudioSession()</text>
<text text-anchor="start" x="450" y="-7.5" font-family="Helvetica,sans-Serif" font-size="10.00">~ NotifyExited()</text>
</a>
</g>
</g>
<!-- Node1&#45;&gt;Node3 -->
<g id="edge2" class="edge">
<title>Node1&#45;&gt;Node3</title>
<path fill="none" stroke="midnightblue" d="M381.49,-1236.31C500.61,-1196.86 690,-1109.86 690,-955.5 690,-955.5 690,-955.5 690,-821 690,-615.05 742.3,-551.22 671,-358 654.15,-312.33 622.37,-268.94 592.03,-234.66"/>
<polygon fill="none" stroke="midnightblue" points="380.4,-1232.98 371.97,-1239.41 382.57,-1239.64 380.4,-1232.98"/>
</g>
<!-- Node4 -->
<g id="node4" class="node">
<title>Node4</title>
<g id="a_node4"><a xlink:href="interface_volume_control_1_1_audio_1_1_interfaces_1_1_i_metered_volume_control.html" target="_top" xlink:title="Extends the IMeteredVolumeControl interface with the AudioMeterInformation property.">
<polygon fill="none" stroke="black" points="258,-909.5 258,-999.5 432,-999.5 432,-909.5 258,-909.5"/>
<text text-anchor="start" x="266" y="-987.5" font-family="Helvetica,sans-Serif" font-size="10.00">VolumeControl.Audio.Interfaces.</text>
<text text-anchor="middle" x="345" y="-976.5" font-family="Helvetica,sans-Serif" font-size="10.00">IMeteredVolumeControl</text>
<polyline fill="none" stroke="black" points="258,-969.5 432,-969.5 "/>
<text text-anchor="start" x="266" y="-957.5" font-family="Helvetica,sans-Serif" font-size="10.00">+ PeakMeterValue</text>
<text text-anchor="start" x="266" y="-946.5" font-family="Helvetica,sans-Serif" font-size="10.00">+ AudioMeterInformation</text>
<polyline fill="none" stroke="black" points="258,-939.5 432,-939.5 "/>
<text text-anchor="start" x="266" y="-927.5" font-family="Helvetica,sans-Serif" font-size="10.00">~ MakeListDisplayableControl</text>
<text text-anchor="start" x="266" y="-916.5" font-family="Helvetica,sans-Serif" font-size="10.00">Template()</text>
</a>
</g>
</g>
<!-- Node1&#45;&gt;Node4 -->
<g id="edge3" class="edge">
<title>Node1&#45;&gt;Node4</title>
<path fill="none" stroke="midnightblue" d="M316.35,-1208.77C320.15,-1200.02 323.56,-1190.91 326,-1182 342.89,-1120.35 346.01,-1046.02 346.03,-999.75"/>
<polygon fill="none" stroke="midnightblue" points="313.06,-1207.53 312.1,-1218.08 319.43,-1210.44 313.06,-1207.53"/>
</g>
<!-- Node8 -->
<g id="node8" class="node">
<title>Node8</title>
<g id="a_node8"><a xlink:href="interface_volume_control_1_1_audio_1_1_interfaces_1_1_i_volume_control.html" target="_top" xlink:title="Represents some kind of controllable audio playback instance.">
<polygon fill="none" stroke="black" points="143,-1036.5 143,-1181.5 317,-1181.5 317,-1036.5 143,-1036.5"/>
<text text-anchor="start" x="151" y="-1169.5" font-family="Helvetica,sans-Serif" font-size="10.00">VolumeControl.Audio.Interfaces.</text>
<text text-anchor="middle" x="230" y="-1158.5" font-family="Helvetica,sans-Serif" font-size="10.00">IVolumeControl</text>
<polyline fill="none" stroke="black" points="143,-1151.5 317,-1151.5 "/>
<text text-anchor="start" x="151" y="-1139.5" font-family="Helvetica,sans-Serif" font-size="10.00">+ NativeVolume</text>
<text text-anchor="start" x="151" y="-1128.5" font-family="Helvetica,sans-Serif" font-size="10.00">+ Volume</text>
<text text-anchor="start" x="151" y="-1117.5" font-family="Helvetica,sans-Serif" font-size="10.00">+ Muted</text>
<polyline fill="none" stroke="black" points="143,-1110.5 317,-1110.5 "/>
<text text-anchor="start" x="151" y="-1098.5" font-family="Helvetica,sans-Serif" font-size="10.00">+ IncreaseVolume()</text>
<text text-anchor="start" x="151" y="-1087.5" font-family="Helvetica,sans-Serif" font-size="10.00">+ IncreaseVolume()</text>
<text text-anchor="start" x="151" y="-1076.5" font-family="Helvetica,sans-Serif" font-size="10.00">+ DecreaseVolume()</text>
<text text-anchor="start" x="151" y="-1065.5" font-family="Helvetica,sans-Serif" font-size="10.00">+ DecreaseVolume()</text>
<text text-anchor="start" x="151" y="-1054.5" font-family="Helvetica,sans-Serif" font-size="10.00">~ MakeListDisplayableControl</text>
<text text-anchor="start" x="151" y="-1043.5" font-family="Helvetica,sans-Serif" font-size="10.00">Template()</text>
</a>
</g>
</g>
<!-- Node1&#45;&gt;Node8 -->
<g id="edge11" class="edge">
<title>Node1&#45;&gt;Node8</title>
<path fill="none" stroke="midnightblue" d="M267,-1208.98C263.68,-1200.12 260.2,-1190.81 256.76,-1181.59"/>
<polygon fill="none" stroke="midnightblue" points="263.73,-1210.25 270.51,-1218.39 270.29,-1207.8 263.73,-1210.25"/>
</g>
<!-- Node5 -->
<g id="node5" class="node">
<title>Node5</title>
<g id="a_node5"><a xlink:href="interface_volume_control_1_1_audio_1_1_interfaces_1_1_i_device.html" target="_top" xlink:title="Represents an audio device.">
<polygon fill="none" stroke="black" points="258,-782.5 258,-861.5 432,-861.5 432,-782.5 258,-782.5"/>
<text text-anchor="start" x="266" y="-849.5" font-family="Helvetica,sans-Serif" font-size="10.00">VolumeControl.Audio.Interfaces.</text>
<text text-anchor="middle" x="345" y="-838.5" font-family="Helvetica,sans-Serif" font-size="10.00">IDevice</text>
<polyline fill="none" stroke="black" points="258,-831.5 432,-831.5 "/>
<text text-anchor="start" x="266" y="-819.5" font-family="Helvetica,sans-Serif" font-size="10.00">+ Name</text>
<text text-anchor="start" x="266" y="-808.5" font-family="Helvetica,sans-Serif" font-size="10.00">+ DeviceID</text>
<polyline fill="none" stroke="black" points="258,-801.5 432,-801.5 "/>
<text text-anchor="middle" x="345" y="-789.5" font-family="Helvetica,sans-Serif" font-size="10.00"> </text>
</a>
</g>
</g>
<!-- Node4&#45;&gt;Node5 -->
<g id="edge4" class="edge">
<title>Node4&#45;&gt;Node5</title>
<path fill="none" stroke="midnightblue" d="M345,-899.02C345,-886.55 345,-873.55 345,-861.89"/>
<polygon fill="none" stroke="midnightblue" points="341.5,-899.32 345,-909.32 348.5,-899.32 341.5,-899.32"/>
</g>
<!-- Node6 -->
<g id="node6" class="node">
<title>Node6</title>
<g id="a_node6"><a xlink:href="interface_volume_control_1_1_audio_1_1_interfaces_1_1_i_process.html" target="_top" xlink:title="Represents read&#45;only information about a process running on the local system.">
<polygon fill="none" stroke="black" points="450,-771.5 450,-872.5 624,-872.5 624,-771.5 450,-771.5"/>
<text text-anchor="start" x="458" y="-860.5" font-family="Helvetica,sans-Serif" font-size="10.00">VolumeControl.Audio.Interfaces.</text>
<text text-anchor="middle" x="537" y="-849.5" font-family="Helvetica,sans-Serif" font-size="10.00">IProcess</text>
<polyline fill="none" stroke="black" points="450,-842.5 624,-842.5 "/>
<text text-anchor="start" x="458" y="-830.5" font-family="Helvetica,sans-Serif" font-size="10.00">+ ProcessName</text>
<text text-anchor="start" x="458" y="-819.5" font-family="Helvetica,sans-Serif" font-size="10.00">+ PID</text>
<text text-anchor="start" x="458" y="-808.5" font-family="Helvetica,sans-Serif" font-size="10.00">+ ProcessIdentifier</text>
<text text-anchor="start" x="458" y="-797.5" font-family="Helvetica,sans-Serif" font-size="10.00">+ HashCode</text>
<polyline fill="none" stroke="black" points="450,-790.5 624,-790.5 "/>
<text text-anchor="middle" x="537" y="-778.5" font-family="Helvetica,sans-Serif" font-size="10.00"> </text>
</a>
</g>
</g>
<!-- Node4&#45;&gt;Node6 -->
<g id="edge6" class="edge">
<title>Node4&#45;&gt;Node6</title>
<path fill="none" stroke="midnightblue" d="M418.68,-903.42C433.59,-893.29 449.26,-882.64 464.14,-872.52"/>
<polygon fill="none" stroke="midnightblue" points="416.31,-900.8 410,-909.32 420.24,-906.59 416.31,-900.8"/>
</g>
<!-- Node7 -->
<g id="node7" class="node">
<title>Node7</title>
<g id="a_node7"><a xlink:href="interface_volume_control_1_1_audio_1_1_interfaces_1_1_i_session.html" target="_top" xlink:title="Represents an audio session.">
<polygon fill="none" stroke="black" points="488,-501.5 488,-591.5 662,-591.5 662,-501.5 488,-501.5"/>
<text text-anchor="start" x="496" y="-579.5" font-family="Helvetica,sans-Serif" font-size="10.00">VolumeControl.Audio.Interfaces.</text>
<text text-anchor="middle" x="575" y="-568.5" font-family="Helvetica,sans-Serif" font-size="10.00">ISession</text>
<polyline fill="none" stroke="black" points="488,-561.5 662,-561.5 "/>
<text text-anchor="start" x="496" y="-549.5" font-family="Helvetica,sans-Serif" font-size="10.00">+ Name</text>
<text text-anchor="start" x="496" y="-538.5" font-family="Helvetica,sans-Serif" font-size="10.00">+ SessionIdentifier</text>
<text text-anchor="start" x="496" y="-527.5" font-family="Helvetica,sans-Serif" font-size="10.00">+ SessionInstanceIdentifier</text>
<polyline fill="none" stroke="black" points="488,-520.5 662,-520.5 "/>
<text text-anchor="middle" x="575" y="-508.5" font-family="Helvetica,sans-Serif" font-size="10.00"> </text>
</a>
</g>
</g>
<!-- Node4&#45;&gt;Node7 -->
<g id="edge10" class="edge">
<title>Node4&#45;&gt;Node7</title>
<path fill="none" stroke="midnightblue" d="M441.9,-939.17C516.12,-925.97 609.65,-903.77 633,-873 696.41,-789.44 639.73,-659.3 602.1,-591.67"/>
<polygon fill="none" stroke="midnightblue" points="441.28,-935.72 432.03,-940.89 442.48,-942.62 441.28,-935.72"/>
</g>
<!-- Node5&#45;&gt;Node2 -->
<g id="edge5" class="edge">
<title>Node5&#45;&gt;Node2</title>
<path fill="none" stroke="midnightblue" d="M304.21,-774.9C277.26,-744.45 240.67,-703.09 206.07,-663.99"/>
<polygon fill="none" stroke="midnightblue" points="301.59,-777.22 310.84,-782.39 306.84,-772.59 301.59,-777.22"/>
</g>
<!-- Node6&#45;&gt;Node3 -->
<g id="edge7" class="edge">
<title>Node6&#45;&gt;Node3</title>
<path fill="none" stroke="midnightblue" d="M491.17,-762.6C486.18,-753.76 481.88,-744.43 479,-735 430.02,-574.76 462.98,-524.79 479,-358 480.14,-346.1 481.67,-333.84 483.45,-321.55"/>
<polygon fill="none" stroke="midnightblue" points="488.21,-764.48 496.35,-771.26 494.22,-760.89 488.21,-764.48"/>
</g>
<!-- Node6&#45;&gt;Node7 -->
<g id="edge8" class="edge">
<title>Node6&#45;&gt;Node7</title>
<path fill="none" stroke="midnightblue" d="M545.26,-761.55C552.36,-710.41 562.45,-637.81 568.86,-591.69"/>
<polygon fill="none" stroke="midnightblue" points="541.79,-761.08 543.88,-771.47 548.72,-762.05 541.79,-761.08"/>
</g>
<!-- Node7&#45;&gt;Node3 -->
<g id="edge9" class="edge">
<title>Node7&#45;&gt;Node3</title>
<path fill="none" stroke="midnightblue" d="M566.78,-491.18C560.09,-446.94 550.29,-382.14 541.15,-321.71"/>
<polygon fill="none" stroke="midnightblue" points="563.33,-491.77 568.29,-501.13 570.26,-490.72 563.33,-491.77"/>
</g>
<!-- Node8&#45;&gt;Node2 -->
<g id="edge12" class="edge">
<title>Node8&#45;&gt;Node2</title>
<path fill="none" stroke="midnightblue" d="M211.52,-1026.43C194.26,-950.25 167.86,-833.73 145.42,-734.7"/>
<polygon fill="none" stroke="midnightblue" points="208.16,-1027.46 213.79,-1036.44 214.99,-1025.92 208.16,-1027.46"/>
</g>
<!-- Node8&#45;&gt;Node3 -->
<g id="edge13" class="edge">
<title>Node8&#45;&gt;Node3</title>
<path fill="none" stroke="midnightblue" d="M226.52,-1025.89C225.51,-956.91 228.55,-856.23 249,-771 290.26,-599 378.05,-414.87 441.94,-294.67"/>
<polygon fill="none" stroke="midnightblue" points="223.03,-1026.32 226.7,-1036.25 230.03,-1026.19 223.03,-1026.32"/>
</g>
<!-- Node8&#45;&gt;Node4 -->
<g id="edge14" class="edge">
<title>Node8&#45;&gt;Node4</title>
<path fill="none" stroke="midnightblue" d="M290.33,-1027.99C297.71,-1018.21 305.02,-1008.51 311.79,-999.54"/>
<polygon fill="none" stroke="midnightblue" points="287.36,-1026.12 284.13,-1036.22 292.95,-1030.34 287.36,-1026.12"/>
</g>
</g>
</svg>
        <g id="navigator" transform="translate(0 0)" fill="#404254">
                <rect fill="#f2f5e9" fill-opacity="0.5" stroke="#606060" stroke-width=".5" x="0" y="0" width="60" height="60"/>
                <use id="zoomplus" xlink:href="#zoomPlus" x="17" y="9" onmousedown="handleZoom(evt,'in')"/>
                <use id="zoomminus" xlink:href="#zoomMin" x="42" y="9" onmousedown="handleZoom(evt,'out')"/>
                <use id="reset" xlink:href="#resetDef" x="30" y="36" onmousedown="handleReset()"/>
                <g id="arrowUp" xlink:href="#dirArrow" transform="translate(30 24)" onmousedown="handlePan(0,-1)">
                  <use xlink:href="#rim" fill="#404040">
                        <set attributeName="fill" to="#808080" begin="arrowUp.mouseover" end="arrowUp.mouseout"/>
                  </use>
                  <path fill="none" stroke="white" stroke-width="1.5" d="M0,-3.0v7 M-2.5,-0.5L0,-3.0L2.5,-0.5"/>
                </g>
                <g id="arrowRight" xlink:href="#dirArrow" transform="rotate(90) translate(36 -43)" onmousedown="handlePan(1,0)">
                  <use xlink:href="#rim" fill="#404040">
                        <set attributeName="fill" to="#808080" begin="arrowRight.mouseover" end="arrowRight.mouseout"/>
                  </use>
                  <path fill="none" stroke="white" stroke-width="1.5" d="M0,-3.0v7 M-2.5,-0.5L0,-3.0L2.5,-0.5"/>
                </g>
                <g id="arrowDown" xlink:href="#dirArrow" transform="rotate(180) translate(-30 -48)" onmousedown="handlePan(0,1)">
                  <use xlink:href="#rim" fill="#404040">
                        <set attributeName="fill" to="#808080" begin="arrowDown.mouseover" end="arrowDown.mouseout"/>
                  </use>
                  <path fill="none" stroke="white" stroke-width="1.5" d="M0,-3.0v7 M-2.5,-0.5L0,-3.0L2.5,-0.5"/>
                </g>
                <g id="arrowLeft" xlink:href="#dirArrow" transform="rotate(270) translate(-36 17)" onmousedown="handlePan(-1,0)">
                  <use xlink:href="#rim" fill="#404040">
                        <set attributeName="fill" to="#808080" begin="arrowLeft.mouseover" end="arrowLeft.mouseout"/>
                  </use>
                  <path fill="none" stroke="white" stroke-width="1.5" d="M0,-3.0v7 M-2.5,-0.5L0,-3.0L2.5,-0.5"/>
                </g>
        </g>
        <svg viewBox="0 0 15 15" width="100%" height="30px" preserveAspectRatio="xMaxYMin meet">
         <g id="arrow_out" transform="scale(0.3 0.3)">
          <a xlink:href="interface_volume_control_1_1_core_1_1_interfaces_1_1_i_list_displayable__inherit__graph_org.svg" target="_base">
           <rect id="button" ry="5" rx="5" y="6" x="6" height="38" width="38"
                fill="#f2f5e9" fill-opacity="0.5" stroke="#606060" stroke-width="1.0"/>
           <path id="arrow"
             d="M 11.500037,31.436501 C 11.940474,20.09759 22.043105,11.32322 32.158766,21.979434 L 37.068811,17.246167 C 37.068811,17.246167 37.088388,32 37.088388,32 L 22.160133,31.978069 C 22.160133,31.978069 26.997745,27.140456 26.997745,27.140456 C 18.528582,18.264221 13.291696,25.230495 11.500037,31.436501 z"
             style="fill:#404040;"/>
          </a>
         </g>
        </svg>
</svg>
