<?xml version="1.0" encoding="UTF-8" standalone="no"?>
<!DOCTYPE svg PUBLIC "-//W3C//DTD SVG 1.1//EN"
 "http://www.w3.org/Graphics/SVG/1.1/DTD/svg11.dtd">
<!-- Generated by graphviz version 2.43.0 (0)
 -->
<!-- Title: VolumeControl.CoreAudio.Interfaces.IHideableAudioControl Pages: 1 -->
<svg width="186pt" height="204pt"
 viewBox="0.00 0.00 186.00 204.00" xmlns="http://www.w3.org/2000/svg" xmlns:xlink="http://www.w3.org/1999/xlink">
<g id="graph0" class="graph" transform="scale(1 1) rotate(0) translate(4 200)">
<title>VolumeControl.CoreAudio.Interfaces.IHideableAudioControl</title>
<!-- Node1 -->
<g id="node1" class="node">
<title>Node1</title>
<g id="a_node1"><a xlink:title="Represents an audio instance that can be prevented from becoming selected.">
<polygon fill="#bfbfbf" stroke="black" points="0,-0.5 0,-68.5 178,-68.5 178,-0.5 0,-0.5"/>
<text text-anchor="start" x="8" y="-56.5" font-family="Helvetica,sans-Serif" font-size="10.00">VolumeControl.CoreAudio.</text>
<text text-anchor="middle" x="89" y="-45.5" font-family="Helvetica,sans-Serif" font-size="10.00">Interfaces.IHideableAudioControl</text>
<polyline fill="none" stroke="black" points="0,-38.5 178,-38.5 "/>
<text text-anchor="start" x="8" y="-26.5" font-family="Helvetica,sans-Serif" font-size="10.00">+ IsHidden</text>
<polyline fill="none" stroke="black" points="0,-19.5 178,-19.5 "/>
<text text-anchor="middle" x="89" y="-7.5" font-family="Helvetica,sans-Serif" font-size="10.00"> </text>
</a>
</g>
</g>
<!-- Node2 -->
<g id="node2" class="node">
<title>Node2</title>
<g id="a_node2"><a xlink:href="interface_volume_control_1_1_core_audio_1_1_interfaces_1_1_i_audio_control.html" target="_top" xlink:title="Represents an audio instance with a controllable volume level and mute state.">
<polygon fill="none" stroke="black" points="40.5,-105.5 40.5,-195.5 137.5,-195.5 137.5,-105.5 40.5,-105.5"/>
<text text-anchor="middle" x="89" y="-183.5" font-family="Helvetica,sans-Serif" font-size="10.00">IAudioControl</text>
<polyline fill="none" stroke="black" points="40.5,-176.5 137.5,-176.5 "/>
<text text-anchor="start" x="48.5" y="-164.5" font-family="Helvetica,sans-Serif" font-size="10.00">+ NativeVolume</text>
<text text-anchor="start" x="48.5" y="-153.5" font-family="Helvetica,sans-Serif" font-size="10.00">+ Volume</text>
<text text-anchor="start" x="48.5" y="-142.5" font-family="Helvetica,sans-Serif" font-size="10.00">+ Mute</text>
<text text-anchor="start" x="48.5" y="-131.5" font-family="Helvetica,sans-Serif" font-size="10.00">+ DataFlow</text>
<polyline fill="none" stroke="black" points="40.5,-124.5 137.5,-124.5 "/>
<text text-anchor="middle" x="89" y="-112.5" font-family="Helvetica,sans-Serif" font-size="10.00"> </text>
</a>
</g>
</g>
<!-- Node2&#45;&gt;Node1 -->
<g id="edge1" class="edge">
<title>Node2&#45;&gt;Node1</title>
<path fill="none" stroke="midnightblue" d="M89,-95.32C89,-86.28 89,-77.16 89,-68.85"/>
<polygon fill="none" stroke="midnightblue" points="85.5,-95.42 89,-105.42 92.5,-95.42 85.5,-95.42"/>
</g>
</g>
</svg>
