<?xml version="1.0" encoding="UTF-8" standalone="no"?>
<!DOCTYPE svg PUBLIC "-//W3C//DTD SVG 1.1//EN"
 "http://www.w3.org/Graphics/SVG/1.1/DTD/svg11.dtd">
<!-- Generated by graphviz version 2.43.0 (0)
 -->
<!-- Title: VolumeControl.Hotkeys.Interfaces.IHotkeyActionManager Pages: 1 -->
<svg width="194pt" height="204pt"
 viewBox="0.00 0.00 194.00 204.00" xmlns="http://www.w3.org/2000/svg" xmlns:xlink="http://www.w3.org/1999/xlink">
<g id="graph0" class="graph" transform="scale(1 1) rotate(0) translate(4 200)">
<title>VolumeControl.Hotkeys.Interfaces.IHotkeyActionManager</title>
<!-- Node1 -->
<g id="node1" class="node">
<title>Node1</title>
<g id="a_node1"><a xlink:title="Represents a hotkey action manager object, which contains the list of IHotkeyActions used in the hotk...">
<polygon fill="#bfbfbf" stroke="black" points="0,-0.5 0,-101.5 186,-101.5 186,-0.5 0,-0.5"/>
<text text-anchor="start" x="8" y="-89.5" font-family="Helvetica,sans-Serif" font-size="10.00">VolumeControl.Hotkeys.Interfaces.</text>
<text text-anchor="middle" x="93" y="-78.5" font-family="Helvetica,sans-Serif" font-size="10.00">IHotkeyActionManager</text>
<polyline fill="none" stroke="black" points="0,-71.5 186,-71.5 "/>
<text text-anchor="start" x="8" y="-59.5" font-family="Helvetica,sans-Serif" font-size="10.00">+ NullActionHandler</text>
<text text-anchor="start" x="8" y="-48.5" font-family="Helvetica,sans-Serif" font-size="10.00">+ NullAction</text>
<text text-anchor="start" x="8" y="-37.5" font-family="Helvetica,sans-Serif" font-size="10.00">+ Bindings</text>
<text text-anchor="start" x="8" y="-26.5" font-family="Helvetica,sans-Serif" font-size="10.00">+ this[string identifier]</text>
<polyline fill="none" stroke="black" points="0,-19.5 186,-19.5 "/>
<text text-anchor="middle" x="93" y="-7.5" font-family="Helvetica,sans-Serif" font-size="10.00"> </text>
</a>
</g>
</g>
<!-- Node2 -->
<g id="node2" class="node">
<title>Node2</title>
<g id="a_node2"><a xlink:title=" ">
<polygon fill="none" stroke="#bfbfbf" points="26.5,-138.5 26.5,-195.5 159.5,-195.5 159.5,-138.5 26.5,-138.5"/>
<text text-anchor="middle" x="93" y="-183.5" font-family="Helvetica,sans-Serif" font-size="10.00">INotifyPropertyChanged</text>
<polyline fill="none" stroke="#bfbfbf" points="26.5,-176.5 159.5,-176.5 "/>
<text text-anchor="middle" x="93" y="-164.5" font-family="Helvetica,sans-Serif" font-size="10.00"> </text>
<polyline fill="none" stroke="#bfbfbf" points="26.5,-157.5 159.5,-157.5 "/>
<text text-anchor="middle" x="93" y="-145.5" font-family="Helvetica,sans-Serif" font-size="10.00"> </text>
</a>
</g>
</g>
<!-- Node2&#45;&gt;Node1 -->
<g id="edge1" class="edge">
<title>Node2&#45;&gt;Node1</title>
<path fill="none" stroke="midnightblue" d="M93,-128.35C93,-119.8 93,-110.58 93,-101.61"/>
<polygon fill="none" stroke="midnightblue" points="89.5,-128.4 93,-138.4 96.5,-128.4 89.5,-128.4"/>
</g>
</g>
</svg>
