<?xml version="1.0" encoding="UTF-8" standalone="no"?>
<!DOCTYPE svg PUBLIC "-//W3C//DTD SVG 1.1//EN"
 "http://www.w3.org/Graphics/SVG/1.1/DTD/svg11.dtd">
<!-- Generated by graphviz version 2.43.0 (0)
 -->
<!-- Title: VolumeControl.Core.IBaseAddonAttribute Pages: 1 -->
<svg width="193pt" height="331pt"
 viewBox="0.00 0.00 193.00 331.00" xmlns="http://www.w3.org/2000/svg" xmlns:xlink="http://www.w3.org/1999/xlink">
<g id="graph0" class="graph" transform="scale(1 1) rotate(0) translate(4 327)">
<title>VolumeControl.Core.IBaseAddonAttribute</title>
<!-- Node1 -->
<g id="node1" class="node">
<title>Node1</title>
<g id="a_node1"><a xlink:title="Represents the attribute(s) associated with a IBaseAddon. &#160;All valid addon attributes implement this ...">
<polygon fill="#bfbfbf" stroke="black" points="20.5,-243.5 20.5,-322.5 164.5,-322.5 164.5,-243.5 20.5,-243.5"/>
<text text-anchor="start" x="28.5" y="-310.5" font-family="Helvetica,sans-Serif" font-size="10.00">VolumeControl.Core.IBase</text>
<text text-anchor="middle" x="92.5" y="-299.5" font-family="Helvetica,sans-Serif" font-size="10.00">AddonAttribute</text>
<polyline fill="none" stroke="black" points="20.5,-292.5 164.5,-292.5 "/>
<text text-anchor="start" x="28.5" y="-280.5" font-family="Helvetica,sans-Serif" font-size="10.00">+ AddonName</text>
<text text-anchor="start" x="28.5" y="-269.5" font-family="Helvetica,sans-Serif" font-size="10.00">+ CompatibleVersions</text>
<polyline fill="none" stroke="black" points="20.5,-262.5 164.5,-262.5 "/>
<text text-anchor="middle" x="92.5" y="-250.5" font-family="Helvetica,sans-Serif" font-size="10.00"> </text>
</a>
</g>
</g>
<!-- Node2 -->
<g id="node2" class="node">
<title>Node2</title>
<g id="a_node2"><a xlink:href="class_volume_control_1_1_core_1_1_base_addon_attribute.html" target="_top" xlink:title="Abstract base class that all other addon attributes inherit from. Unless you&#39;re implementing a new ad...">
<polygon fill="none" stroke="black" points="6.5,-116.5 6.5,-206.5 178.5,-206.5 178.5,-116.5 6.5,-116.5"/>
<text text-anchor="start" x="14.5" y="-194.5" font-family="Helvetica,sans-Serif" font-size="10.00">VolumeControl.Core.BaseAddon</text>
<text text-anchor="middle" x="92.5" y="-183.5" font-family="Helvetica,sans-Serif" font-size="10.00">Attribute</text>
<polyline fill="none" stroke="black" points="6.5,-176.5 178.5,-176.5 "/>
<text text-anchor="start" x="14.5" y="-164.5" font-family="Helvetica,sans-Serif" font-size="10.00">+ AddonName</text>
<text text-anchor="start" x="14.5" y="-153.5" font-family="Helvetica,sans-Serif" font-size="10.00">+ CompatibleVersions</text>
<polyline fill="none" stroke="black" points="6.5,-146.5 178.5,-146.5 "/>
<text text-anchor="start" x="14.5" y="-134.5" font-family="Helvetica,sans-Serif" font-size="10.00"># BaseAddonAttribute()</text>
<text text-anchor="start" x="14.5" y="-123.5" font-family="Helvetica,sans-Serif" font-size="10.00"># BaseAddonAttribute()</text>
</a>
</g>
</g>
<!-- Node1&#45;&gt;Node2 -->
<g id="edge1" class="edge">
<title>Node1&#45;&gt;Node2</title>
<path fill="none" stroke="midnightblue" d="M92.5,-233.19C92.5,-224.49 92.5,-215.48 92.5,-206.91"/>
<polygon fill="none" stroke="midnightblue" points="89,-233.2 92.5,-243.2 96,-233.2 89,-233.2"/>
</g>
<!-- Node3 -->
<g id="node3" class="node">
<title>Node3</title>
<g id="a_node3"><a xlink:href="class_volume_control_1_1_hotkeys_1_1_attributes_1_1_action_addon_attribute.html" target="_top" xlink:title="Marks the attached class type as a Hotkey Actions addon type.">
<polygon fill="none" stroke="black" points="0,-0.5 0,-79.5 185,-79.5 185,-0.5 0,-0.5"/>
<text text-anchor="start" x="8" y="-67.5" font-family="Helvetica,sans-Serif" font-size="10.00">VolumeControl.Hotkeys.Attributes.</text>
<text text-anchor="middle" x="92.5" y="-56.5" font-family="Helvetica,sans-Serif" font-size="10.00">ActionAddonAttribute</text>
<polyline fill="none" stroke="black" points="0,-49.5 185,-49.5 "/>
<text text-anchor="middle" x="92.5" y="-37.5" font-family="Helvetica,sans-Serif" font-size="10.00"> </text>
<polyline fill="none" stroke="black" points="0,-30.5 185,-30.5 "/>
<text text-anchor="start" x="8" y="-18.5" font-family="Helvetica,sans-Serif" font-size="10.00">+ ActionAddonAttribute()</text>
<text text-anchor="start" x="8" y="-7.5" font-family="Helvetica,sans-Serif" font-size="10.00">+ ActionAddonAttribute()</text>
</a>
</g>
</g>
<!-- Node2&#45;&gt;Node3 -->
<g id="edge2" class="edge">
<title>Node2&#45;&gt;Node3</title>
<path fill="none" stroke="midnightblue" d="M92.5,-106.08C92.5,-97.23 92.5,-88.23 92.5,-79.86"/>
<polygon fill="none" stroke="midnightblue" points="89,-106.34 92.5,-116.34 96,-106.34 89,-106.34"/>
</g>
</g>
</svg>
