<?xml version="1.0" encoding="UTF-8" standalone="no"?>
<!DOCTYPE svg PUBLIC "-//W3C//DTD SVG 1.1//EN"
 "http://www.w3.org/Graphics/SVG/1.1/DTD/svg11.dtd">
<!-- Generated by graphviz version 2.43.0 (0)
 -->
<!-- Title: VolumeControl.Audio.Interfaces.ISession Pages: 1 -->
<svg width="332pt" height="309pt"
 viewBox="0.00 0.00 332.00 309.00" xmlns="http://www.w3.org/2000/svg" xmlns:xlink="http://www.w3.org/1999/xlink">
<g id="graph0" class="graph" transform="scale(1 1) rotate(0) translate(4 305)">
<title>VolumeControl.Audio.Interfaces.ISession</title>
<!-- Node1 -->
<g id="node1" class="node">
<title>Node1</title>
<g id="a_node1"><a xlink:title="Represents an audio session.">
<polygon fill="#bfbfbf" stroke="black" points="31.5,-0.5 31.5,-90.5 205.5,-90.5 205.5,-0.5 31.5,-0.5"/>
<text text-anchor="start" x="39.5" y="-78.5" font-family="Helvetica,sans-Serif" font-size="10.00">VolumeControl.Audio.Interfaces.</text>
<text text-anchor="middle" x="118.5" y="-67.5" font-family="Helvetica,sans-Serif" font-size="10.00">ISession</text>
<polyline fill="none" stroke="black" points="31.5,-60.5 205.5,-60.5 "/>
<text text-anchor="start" x="39.5" y="-48.5" font-family="Helvetica,sans-Serif" font-size="10.00">+ Volume</text>
<text text-anchor="start" x="39.5" y="-37.5" font-family="Helvetica,sans-Serif" font-size="10.00">+ NativeVolume</text>
<text text-anchor="start" x="39.5" y="-26.5" font-family="Helvetica,sans-Serif" font-size="10.00">+ Muted</text>
<polyline fill="none" stroke="black" points="31.5,-19.5 205.5,-19.5 "/>
<text text-anchor="middle" x="118.5" y="-7.5" font-family="Helvetica,sans-Serif" font-size="10.00"> </text>
</a>
</g>
</g>
<!-- Node2 -->
<g id="node2" class="node">
<title>Node2</title>
<g id="a_node2"><a xlink:href="interface_volume_control_1_1_audio_1_1_interfaces_1_1_i_process.html" target="_top" xlink:title="Represents read&#45;only information about a process running on the local system.">
<polygon fill="none" stroke="black" points="64,-127.5 64,-206.5 173,-206.5 173,-127.5 64,-127.5"/>
<text text-anchor="middle" x="118.5" y="-194.5" font-family="Helvetica,sans-Serif" font-size="10.00">IProcess</text>
<polyline fill="none" stroke="black" points="64,-187.5 173,-187.5 "/>
<text text-anchor="start" x="72" y="-175.5" font-family="Helvetica,sans-Serif" font-size="10.00">+ ProcessName</text>
<text text-anchor="start" x="72" y="-164.5" font-family="Helvetica,sans-Serif" font-size="10.00">+ PID</text>
<text text-anchor="start" x="72" y="-153.5" font-family="Helvetica,sans-Serif" font-size="10.00">+ ProcessIdentifier</text>
<polyline fill="none" stroke="black" points="64,-146.5 173,-146.5 "/>
<text text-anchor="middle" x="118.5" y="-134.5" font-family="Helvetica,sans-Serif" font-size="10.00"> </text>
</a>
</g>
</g>
<!-- Node2&#45;&gt;Node1 -->
<g id="edge1" class="edge">
<title>Node2&#45;&gt;Node1</title>
<path fill="none" stroke="midnightblue" d="M118.5,-117.19C118.5,-108.49 118.5,-99.48 118.5,-90.91"/>
<polygon fill="none" stroke="midnightblue" points="115,-117.2 118.5,-127.2 122,-117.2 115,-117.2"/>
</g>
<!-- Node3 -->
<g id="node3" class="node">
<title>Node3</title>
<g id="a_node3"><a xlink:href="interface_volume_control_1_1_audio_1_1_interfaces_1_1_i_targetable.html" target="_top" xlink:title="Base interface type for IDevice and IProcess/ISession.">
<polygon fill="none" stroke="black" points="0,-243.5 0,-300.5 71,-300.5 71,-243.5 0,-243.5"/>
<text text-anchor="middle" x="35.5" y="-288.5" font-family="Helvetica,sans-Serif" font-size="10.00">ITargetable</text>
<polyline fill="none" stroke="black" points="0,-281.5 71,-281.5 "/>
<text text-anchor="middle" x="35.5" y="-269.5" font-family="Helvetica,sans-Serif" font-size="10.00"> </text>
<polyline fill="none" stroke="black" points="0,-262.5 71,-262.5 "/>
<text text-anchor="middle" x="35.5" y="-250.5" font-family="Helvetica,sans-Serif" font-size="10.00"> </text>
</a>
</g>
</g>
<!-- Node3&#45;&gt;Node1 -->
<g id="edge4" class="edge">
<title>Node3&#45;&gt;Node1</title>
<path fill="none" stroke="midnightblue" d="M35.03,-233.29C35.92,-203.37 40.04,-161.05 54.5,-127 59.94,-114.18 68.01,-101.7 76.6,-90.54"/>
<polygon fill="none" stroke="midnightblue" points="31.53,-233.26 34.84,-243.32 38.53,-233.39 31.53,-233.26"/>
</g>
<!-- Node3&#45;&gt;Node2 -->
<g id="edge2" class="edge">
<title>Node3&#45;&gt;Node2</title>
<path fill="none" stroke="midnightblue" d="M64.16,-235.43C71.68,-226.1 79.82,-216 87.46,-206.52"/>
<polygon fill="none" stroke="midnightblue" points="61.29,-233.42 57.74,-243.4 66.74,-237.81 61.29,-233.42"/>
</g>
<!-- Node4 -->
<g id="node4" class="node">
<title>Node4</title>
<g id="a_node4"><a xlink:title=" ">
<polygon fill="none" stroke="#bfbfbf" points="89,-243.5 89,-300.5 220,-300.5 220,-243.5 89,-243.5"/>
<text text-anchor="middle" x="154.5" y="-288.5" font-family="Helvetica,sans-Serif" font-size="10.00">IEquatable&lt; ISession &gt;</text>
<polyline fill="none" stroke="#bfbfbf" points="89,-281.5 220,-281.5 "/>
<text text-anchor="middle" x="154.5" y="-269.5" font-family="Helvetica,sans-Serif" font-size="10.00"> </text>
<polyline fill="none" stroke="#bfbfbf" points="89,-262.5 220,-262.5 "/>
<text text-anchor="middle" x="154.5" y="-250.5" font-family="Helvetica,sans-Serif" font-size="10.00"> </text>
</a>
</g>
</g>
<!-- Node4&#45;&gt;Node2 -->
<g id="edge3" class="edge">
<title>Node4&#45;&gt;Node2</title>
<path fill="none" stroke="midnightblue" d="M141.47,-233.73C138.38,-224.88 135.08,-215.42 131.96,-206.52"/>
<polygon fill="none" stroke="midnightblue" points="138.25,-235.11 144.85,-243.4 144.86,-232.8 138.25,-235.11"/>
</g>
<!-- Node5 -->
<g id="node5" class="node">
<title>Node5</title>
<g id="a_node5"><a xlink:title=" ">
<polygon fill="none" stroke="#bfbfbf" points="191,-138.5 191,-195.5 324,-195.5 324,-138.5 191,-138.5"/>
<text text-anchor="middle" x="257.5" y="-183.5" font-family="Helvetica,sans-Serif" font-size="10.00">INotifyPropertyChanged</text>
<polyline fill="none" stroke="#bfbfbf" points="191,-176.5 324,-176.5 "/>
<text text-anchor="middle" x="257.5" y="-164.5" font-family="Helvetica,sans-Serif" font-size="10.00"> </text>
<polyline fill="none" stroke="#bfbfbf" points="191,-157.5 324,-157.5 "/>
<text text-anchor="middle" x="257.5" y="-145.5" font-family="Helvetica,sans-Serif" font-size="10.00"> </text>
</a>
</g>
</g>
<!-- Node5&#45;&gt;Node1 -->
<g id="edge5" class="edge">
<title>Node5&#45;&gt;Node1</title>
<path fill="none" stroke="midnightblue" d="M217.29,-131.43C202.49,-118.71 185.53,-104.13 169.89,-90.68"/>
<polygon fill="none" stroke="midnightblue" points="215.4,-134.42 225.26,-138.28 219.96,-129.11 215.4,-134.42"/>
</g>
</g>
</svg>
