<?xml version="1.0" encoding="UTF-8" standalone="no"?>
<!DOCTYPE svg PUBLIC "-//W3C//DTD SVG 1.1//EN"
 "http://www.w3.org/Graphics/SVG/1.1/DTD/svg11.dtd">
<!-- Generated by graphviz version 2.43.0 (0)
 -->
<!-- Title: VolumeControl.Core.ITemplateDictionaryProvider Pages: 1 -->
<svg width="173pt" height="193pt"
 viewBox="0.00 0.00 173.00 193.00" xmlns="http://www.w3.org/2000/svg" xmlns:xlink="http://www.w3.org/1999/xlink">
<g id="graph0" class="graph" transform="scale(1 1) rotate(0) translate(4 189)">
<title>VolumeControl.Core.ITemplateDictionaryProvider</title>
<!-- Node1 -->
<g id="node1" class="node">
<title>Node1</title>
<g id="a_node1"><a xlink:title="An alternative to ITemplateProvider that can be combined with a ResourceDictionary (with a codebehind...">
<polygon fill="#bfbfbf" stroke="black" points="0,-0.5 0,-90.5 165,-90.5 165,-0.5 0,-0.5"/>
<text text-anchor="start" x="8" y="-78.5" font-family="Helvetica,sans-Serif" font-size="10.00">VolumeControl.Core.ITemplate</text>
<text text-anchor="middle" x="82.5" y="-67.5" font-family="Helvetica,sans-Serif" font-size="10.00">DictionaryProvider</text>
<polyline fill="none" stroke="black" points="0,-60.5 165,-60.5 "/>
<text text-anchor="middle" x="82.5" y="-48.5" font-family="Helvetica,sans-Serif" font-size="10.00"> </text>
<polyline fill="none" stroke="black" points="0,-41.5 165,-41.5 "/>
<text text-anchor="start" x="8" y="-29.5" font-family="Helvetica,sans-Serif" font-size="10.00">+ ProvideDataTemplate()</text>
<text text-anchor="start" x="8" y="-18.5" font-family="Helvetica,sans-Serif" font-size="10.00">+ ProvideDataTemplate()</text>
<text text-anchor="start" x="8" y="-7.5" font-family="Helvetica,sans-Serif" font-size="10.00">+ AsEnumerable()</text>
</a>
</g>
</g>
<!-- Node2 -->
<g id="node2" class="node">
<title>Node2</title>
<g id="a_node2"><a xlink:title=" ">
<polygon fill="none" stroke="#bfbfbf" points="43.5,-127.5 43.5,-184.5 121.5,-184.5 121.5,-127.5 43.5,-127.5"/>
<text text-anchor="middle" x="82.5" y="-172.5" font-family="Helvetica,sans-Serif" font-size="10.00">IEnumerable</text>
<polyline fill="none" stroke="#bfbfbf" points="43.5,-165.5 121.5,-165.5 "/>
<text text-anchor="middle" x="82.5" y="-153.5" font-family="Helvetica,sans-Serif" font-size="10.00"> </text>
<polyline fill="none" stroke="#bfbfbf" points="43.5,-146.5 121.5,-146.5 "/>
<text text-anchor="middle" x="82.5" y="-134.5" font-family="Helvetica,sans-Serif" font-size="10.00"> </text>
</a>
</g>
</g>
<!-- Node2&#45;&gt;Node1 -->
<g id="edge1" class="edge">
<title>Node2&#45;&gt;Node1</title>
<path fill="none" stroke="midnightblue" d="M82.5,-117.21C82.5,-108.61 82.5,-99.39 82.5,-90.55"/>
<polygon fill="none" stroke="midnightblue" points="79,-117.34 82.5,-127.34 86,-117.34 79,-117.34"/>
</g>
</g>
</svg>
