<?xml version="1.0" encoding="UTF-8" standalone="no"?>
<!DOCTYPE svg PUBLIC "-//W3C//DTD SVG 1.1//EN"
 "http://www.w3.org/Graphics/SVG/1.1/DTD/svg11.dtd">
<!-- Generated by graphviz version 2.43.0 (0)
 -->
<!-- Title: VolumeControl.Audio.Interfaces.IDevice Pages: 1 -->
<svg width="312pt" height="992pt"
 viewBox="0.00 0.00 311.50 992.00" xmlns="http://www.w3.org/2000/svg" xmlns:xlink="http://www.w3.org/1999/xlink">
<g id="graph0" class="graph" transform="scale(1 1) rotate(0) translate(4 988)">
<title>VolumeControl.Audio.Interfaces.IDevice</title>
<!-- Node1 -->
<g id="node1" class="node">
<title>Node1</title>
<g id="a_node1"><a xlink:title="Represents an audio device.">
<polygon fill="#bfbfbf" stroke="black" points="72,-556.5 72,-635.5 246,-635.5 246,-556.5 72,-556.5"/>
<text text-anchor="start" x="80" y="-623.5" font-family="Helvetica,sans-Serif" font-size="10.00">VolumeControl.Audio.Interfaces.</text>
<text text-anchor="middle" x="159" y="-612.5" font-family="Helvetica,sans-Serif" font-size="10.00">IDevice</text>
<polyline fill="none" stroke="black" points="72,-605.5 246,-605.5 "/>
<text text-anchor="start" x="80" y="-593.5" font-family="Helvetica,sans-Serif" font-size="10.00">+ Name</text>
<text text-anchor="start" x="80" y="-582.5" font-family="Helvetica,sans-Serif" font-size="10.00">+ DeviceID</text>
<polyline fill="none" stroke="black" points="72,-575.5 246,-575.5 "/>
<text text-anchor="middle" x="159" y="-563.5" font-family="Helvetica,sans-Serif" font-size="10.00"> </text>
</a>
</g>
</g>
<!-- Node6 -->
<g id="node6" class="node">
<title>Node6</title>
<g id="a_node6"><a xlink:href="class_volume_control_1_1_audio_1_1_audio_device.html" target="_top" xlink:title="Represents an audio device endpoint. Note that this object cannot be constructed externally....">
<polygon fill="none" stroke="black" points="67,-0.5 67,-519.5 251,-519.5 251,-0.5 67,-0.5"/>
<text text-anchor="start" x="75" y="-507.5" font-family="Helvetica,sans-Serif" font-size="10.00">VolumeControl.Audio.Audio</text>
<text text-anchor="middle" x="159" y="-496.5" font-family="Helvetica,sans-Serif" font-size="10.00">Device</text>
<polyline fill="none" stroke="black" points="67,-489.5 251,-489.5 "/>
<text text-anchor="start" x="75" y="-477.5" font-family="Helvetica,sans-Serif" font-size="10.00">+ AudioMeterInformation</text>
<text text-anchor="start" x="75" y="-466.5" font-family="Helvetica,sans-Serif" font-size="10.00">+ PeakMeterValue</text>
<text text-anchor="start" x="75" y="-455.5" font-family="Helvetica,sans-Serif" font-size="10.00">+ InterfaceName</text>
<text text-anchor="start" x="75" y="-444.5" font-family="Helvetica,sans-Serif" font-size="10.00">+ InstanceID</text>
<text text-anchor="start" x="75" y="-433.5" font-family="Helvetica,sans-Serif" font-size="10.00">+ IconPath</text>
<text text-anchor="start" x="75" y="-422.5" font-family="Helvetica,sans-Serif" font-size="10.00">+ Icon</text>
<text text-anchor="start" x="75" y="-411.5" font-family="Helvetica,sans-Serif" font-size="10.00">+ DeviceFriendlyName</text>
<text text-anchor="start" x="75" y="-400.5" font-family="Helvetica,sans-Serif" font-size="10.00">+ FriendlyName</text>
<text text-anchor="start" x="75" y="-389.5" font-family="Helvetica,sans-Serif" font-size="10.00">+ Properties</text>
<text text-anchor="start" x="75" y="-378.5" font-family="Helvetica,sans-Serif" font-size="10.00">+ State</text>
<text text-anchor="start" x="75" y="-367.5" font-family="Helvetica,sans-Serif" font-size="10.00">and 8 more...</text>
<text text-anchor="start" x="75" y="-356.5" font-family="Helvetica,sans-Serif" font-size="10.00">+ MMDevice</text>
<text text-anchor="start" x="75" y="-345.5" font-family="Helvetica,sans-Serif" font-size="10.00">+ Enabled</text>
<text text-anchor="start" x="75" y="-334.5" font-family="Helvetica,sans-Serif" font-size="10.00">+ Name</text>
<text text-anchor="start" x="75" y="-323.5" font-family="Helvetica,sans-Serif" font-size="10.00">+ DeviceID</text>
<text text-anchor="start" x="75" y="-312.5" font-family="Helvetica,sans-Serif" font-size="10.00">+ Icons</text>
<text text-anchor="start" x="75" y="-301.5" font-family="Helvetica,sans-Serif" font-size="10.00">+ EndpointVolumeObject</text>
<text text-anchor="start" x="75" y="-290.5" font-family="Helvetica,sans-Serif" font-size="10.00">+ NativeVolume</text>
<text text-anchor="start" x="75" y="-279.5" font-family="Helvetica,sans-Serif" font-size="10.00">+ Volume</text>
<text text-anchor="start" x="75" y="-268.5" font-family="Helvetica,sans-Serif" font-size="10.00">+ Muted</text>
<text text-anchor="start" x="75" y="-257.5" font-family="Helvetica,sans-Serif" font-size="10.00">+ DisplayText</text>
<text text-anchor="start" x="75" y="-246.5" font-family="Helvetica,sans-Serif" font-size="10.00">+ Sessions</text>
<text text-anchor="start" x="75" y="-235.5" font-family="Helvetica,sans-Serif" font-size="10.00">+ this[int index]</text>
<text text-anchor="start" x="75" y="-224.5" font-family="Helvetica,sans-Serif" font-size="10.00">+ this[int index]</text>
<text text-anchor="start" x="75" y="-213.5" font-family="Helvetica,sans-Serif" font-size="10.00">+ CollectionChanged</text>
<polyline fill="none" stroke="black" points="67,-206.5 251,-206.5 "/>
<text text-anchor="start" x="75" y="-194.5" font-family="Helvetica,sans-Serif" font-size="10.00">+ GetDeviceName()</text>
<text text-anchor="start" x="75" y="-183.5" font-family="Helvetica,sans-Serif" font-size="10.00">+ FindAll()</text>
<text text-anchor="start" x="75" y="-172.5" font-family="Helvetica,sans-Serif" font-size="10.00">+ GetIcons()</text>
<text text-anchor="start" x="75" y="-161.5" font-family="Helvetica,sans-Serif" font-size="10.00">+ Dispose()</text>
<text text-anchor="start" x="75" y="-150.5" font-family="Helvetica,sans-Serif" font-size="10.00">+ Equals()</text>
<text text-anchor="start" x="75" y="-139.5" font-family="Helvetica,sans-Serif" font-size="10.00">+ Equals()</text>
<text text-anchor="start" x="75" y="-128.5" font-family="Helvetica,sans-Serif" font-size="10.00">+ Equals()</text>
<text text-anchor="start" x="75" y="-117.5" font-family="Helvetica,sans-Serif" font-size="10.00">+ GetHashCode()</text>
<text text-anchor="start" x="75" y="-106.5" font-family="Helvetica,sans-Serif" font-size="10.00">+ Add()</text>
<text text-anchor="start" x="75" y="-95.5" font-family="Helvetica,sans-Serif" font-size="10.00">+ Clear()</text>
<text text-anchor="start" x="75" y="-84.5" font-family="Helvetica,sans-Serif" font-size="10.00">and 23 more...</text>
<text text-anchor="start" x="75" y="-73.5" font-family="Helvetica,sans-Serif" font-size="10.00">~ AudioDevice()</text>
<text text-anchor="start" x="75" y="-62.5" font-family="Helvetica,sans-Serif" font-size="10.00">~ ForwardPropertyStoreChanged()</text>
<text text-anchor="start" x="75" y="-51.5" font-family="Helvetica,sans-Serif" font-size="10.00">~ ForwardRemoved()</text>
<text text-anchor="start" x="75" y="-40.5" font-family="Helvetica,sans-Serif" font-size="10.00">~ ForwardStateChanged()</text>
<text text-anchor="start" x="75" y="-29.5" font-family="Helvetica,sans-Serif" font-size="10.00">~ ForwardVolumeChanged()</text>
<text text-anchor="start" x="75" y="-18.5" font-family="Helvetica,sans-Serif" font-size="10.00">~ ReloadSessions()</text>
<text text-anchor="start" x="75" y="-7.5" font-family="Helvetica,sans-Serif" font-size="10.00">~ GetAudioSessions()</text>
</a>
</g>
</g>
<!-- Node1&#45;&gt;Node6 -->
<g id="edge5" class="edge">
<title>Node1&#45;&gt;Node6</title>
<path fill="none" stroke="midnightblue" d="M159,-546.16C159,-538.05 159,-529.18 159,-519.74"/>
<polygon fill="none" stroke="midnightblue" points="155.5,-546.36 159,-556.36 162.5,-546.36 155.5,-546.36"/>
</g>
<!-- Node2 -->
<g id="node2" class="node">
<title>Node2</title>
<g id="a_node2"><a xlink:href="interface_volume_control_1_1_audio_1_1_interfaces_1_1_i_audio_control.html" target="_top" xlink:title="Base interface type for IDevice and IProcess/ISession.">
<polygon fill="none" stroke="black" points="11.5,-672.5 11.5,-729.5 152.5,-729.5 152.5,-672.5 11.5,-672.5"/>
<text text-anchor="middle" x="82" y="-717.5" font-family="Helvetica,sans-Serif" font-size="10.00">IAudioControl</text>
<polyline fill="none" stroke="black" points="11.5,-710.5 152.5,-710.5 "/>
<text text-anchor="start" x="19.5" y="-698.5" font-family="Helvetica,sans-Serif" font-size="10.00">+ AudioMeterInformation</text>
<polyline fill="none" stroke="black" points="11.5,-691.5 152.5,-691.5 "/>
<text text-anchor="middle" x="82" y="-679.5" font-family="Helvetica,sans-Serif" font-size="10.00"> </text>
</a>
</g>
</g>
<!-- Node2&#45;&gt;Node1 -->
<g id="edge1" class="edge">
<title>Node2&#45;&gt;Node1</title>
<path fill="none" stroke="midnightblue" d="M108.8,-664.15C115.72,-654.9 123.19,-644.9 130.2,-635.52"/>
<polygon fill="none" stroke="midnightblue" points="105.82,-662.29 102.63,-672.4 111.43,-666.48 105.82,-662.29"/>
</g>
<!-- Node3 -->
<g id="node3" class="node">
<title>Node3</title>
<g id="a_node3"><a xlink:href="interface_volume_control_1_1_audio_1_1_interfaces_1_1_i_volume_control.html" target="_top" xlink:title="Represents some kind of controllable audio playback instance.">
<polygon fill="none" stroke="black" points="0,-766.5 0,-867.5 164,-867.5 164,-766.5 0,-766.5"/>
<text text-anchor="middle" x="82" y="-855.5" font-family="Helvetica,sans-Serif" font-size="10.00">IVolumeControl</text>
<polyline fill="none" stroke="black" points="0,-848.5 164,-848.5 "/>
<text text-anchor="start" x="8" y="-836.5" font-family="Helvetica,sans-Serif" font-size="10.00">+ PeakMeterValue</text>
<text text-anchor="start" x="8" y="-825.5" font-family="Helvetica,sans-Serif" font-size="10.00">+ NativeVolume</text>
<text text-anchor="start" x="8" y="-814.5" font-family="Helvetica,sans-Serif" font-size="10.00">+ Volume</text>
<text text-anchor="start" x="8" y="-803.5" font-family="Helvetica,sans-Serif" font-size="10.00">+ Muted</text>
<polyline fill="none" stroke="black" points="0,-796.5 164,-796.5 "/>
<text text-anchor="start" x="8" y="-784.5" font-family="Helvetica,sans-Serif" font-size="10.00">~ MakeListDisplayableControl</text>
<text text-anchor="start" x="8" y="-773.5" font-family="Helvetica,sans-Serif" font-size="10.00">Template()</text>
</a>
</g>
</g>
<!-- Node3&#45;&gt;Node2 -->
<g id="edge2" class="edge">
<title>Node3&#45;&gt;Node2</title>
<path fill="none" stroke="midnightblue" d="M82,-756.23C82,-746.92 82,-737.71 82,-729.59"/>
<polygon fill="none" stroke="midnightblue" points="78.5,-756.33 82,-766.33 85.5,-756.33 78.5,-756.33"/>
</g>
<!-- Node4 -->
<g id="node4" class="node">
<title>Node4</title>
<g id="a_node4"><a xlink:href="interface_volume_control_1_1_core_1_1_interfaces_1_1_i_list_displayable.html" target="_top" xlink:title="Represents an object that, when it is a member of a list of similar items, can be displayed in the Li...">
<polygon fill="none" stroke="black" points="29.5,-904.5 29.5,-983.5 134.5,-983.5 134.5,-904.5 29.5,-904.5"/>
<text text-anchor="middle" x="82" y="-971.5" font-family="Helvetica,sans-Serif" font-size="10.00">IListDisplayable</text>
<polyline fill="none" stroke="black" points="29.5,-964.5 134.5,-964.5 "/>
<text text-anchor="start" x="37.5" y="-952.5" font-family="Helvetica,sans-Serif" font-size="10.00">+ DisplayText</text>
<text text-anchor="start" x="37.5" y="-941.5" font-family="Helvetica,sans-Serif" font-size="10.00">+ DisplayControls</text>
<text text-anchor="start" x="37.5" y="-930.5" font-family="Helvetica,sans-Serif" font-size="10.00">+ DisplayIcon</text>
<polyline fill="none" stroke="black" points="29.5,-923.5 134.5,-923.5 "/>
<text text-anchor="middle" x="82" y="-911.5" font-family="Helvetica,sans-Serif" font-size="10.00"> </text>
</a>
</g>
</g>
<!-- Node4&#45;&gt;Node3 -->
<g id="edge3" class="edge">
<title>Node4&#45;&gt;Node3</title>
<path fill="none" stroke="midnightblue" d="M82,-894.41C82,-885.64 82,-876.49 82,-867.69"/>
<polygon fill="none" stroke="midnightblue" points="78.5,-894.48 82,-904.48 85.5,-894.48 78.5,-894.48"/>
</g>
<!-- Node5 -->
<g id="node5" class="node">
<title>Node5</title>
<g id="a_node5"><a xlink:title=" ">
<polygon fill="none" stroke="#bfbfbf" points="170.5,-672.5 170.5,-729.5 303.5,-729.5 303.5,-672.5 170.5,-672.5"/>
<text text-anchor="middle" x="237" y="-717.5" font-family="Helvetica,sans-Serif" font-size="10.00">INotifyPropertyChanged</text>
<polyline fill="none" stroke="#bfbfbf" points="170.5,-710.5 303.5,-710.5 "/>
<text text-anchor="middle" x="237" y="-698.5" font-family="Helvetica,sans-Serif" font-size="10.00"> </text>
<polyline fill="none" stroke="#bfbfbf" points="170.5,-691.5 303.5,-691.5 "/>
<text text-anchor="middle" x="237" y="-679.5" font-family="Helvetica,sans-Serif" font-size="10.00"> </text>
</a>
</g>
</g>
<!-- Node5&#45;&gt;Node1 -->
<g id="edge4" class="edge">
<title>Node5&#45;&gt;Node1</title>
<path fill="none" stroke="midnightblue" d="M209.85,-664.15C202.85,-654.9 195.28,-644.9 188.17,-635.52"/>
<polygon fill="none" stroke="midnightblue" points="207.27,-666.54 216.1,-672.4 212.85,-662.31 207.27,-666.54"/>
</g>
</g>
</svg>
