<?xml version="1.0" encoding="UTF-8" standalone="no"?>
<!DOCTYPE svg PUBLIC "-//W3C//DTD SVG 1.1//EN"
 "http://www.w3.org/Graphics/SVG/1.1/DTD/svg11.dtd">
<!-- Generated by graphviz version 2.44.1 (20200629.0800)
 -->
<!-- Title: HotkeyLib.IKeyCombo Pages: 1 -->
<svg width="450pt" height="529pt"
 viewBox="0.00 0.00 449.50 529.00" xmlns="http://www.w3.org/2000/svg" xmlns:xlink="http://www.w3.org/1999/xlink">
<g id="graph0" class="graph" transform="scale(1 1) rotate(0) translate(4 525)">
<title>HotkeyLib.IKeyCombo</title>
<!-- Node1 -->
<g id="node1" class="node">
<title>Node1</title>
<g id="a_node1"><a xlink:title="Represents a combination of one keyboard key and any number of modifier keys.">
<polygon fill="#bfbfbf" stroke="black" points="140,-292.5 140,-426.5 253,-426.5 253,-292.5 140,-292.5"/>
<text text-anchor="middle" x="196.5" y="-414.5" font-family="Helvetica,sans-Serif" font-size="10.00">HotkeyLib.IKeyCombo</text>
<polyline fill="none" stroke="black" points="140,-407.5 253,-407.5 "/>
<text text-anchor="start" x="148" y="-395.5" font-family="Helvetica,sans-Serif" font-size="10.00">+ Key</text>
<text text-anchor="start" x="148" y="-384.5" font-family="Helvetica,sans-Serif" font-size="10.00">+ Mod</text>
<text text-anchor="start" x="148" y="-373.5" font-family="Helvetica,sans-Serif" font-size="10.00">+ Alt</text>
<text text-anchor="start" x="148" y="-362.5" font-family="Helvetica,sans-Serif" font-size="10.00">+ Ctrl</text>
<text text-anchor="start" x="148" y="-351.5" font-family="Helvetica,sans-Serif" font-size="10.00">+ Shift</text>
<text text-anchor="start" x="148" y="-340.5" font-family="Helvetica,sans-Serif" font-size="10.00">+ Win</text>
<text text-anchor="start" x="148" y="-329.5" font-family="Helvetica,sans-Serif" font-size="10.00">+ Valid</text>
<polyline fill="none" stroke="black" points="140,-322.5 253,-322.5 "/>
<text text-anchor="start" x="148" y="-310.5" font-family="Helvetica,sans-Serif" font-size="10.00">+ ToString()</text>
<text text-anchor="start" x="148" y="-299.5" font-family="Helvetica,sans-Serif" font-size="10.00">+ Serialize()</text>
</a>
</g>
</g>
<!-- Node3 -->
<g id="node3" class="node">
<title>Node3</title>
<g id="a_node3"><a xlink:href="struct_hotkey_lib_1_1_key_combo.html" target="_top" xlink:title="Represents a combination of one keyboard key and any number of modifier keys.">
<polygon fill="none" stroke="black" points="0,-39 0,-217 111,-217 111,-39 0,-39"/>
<text text-anchor="middle" x="55.5" y="-205" font-family="Helvetica,sans-Serif" font-size="10.00">HotkeyLib.KeyCombo</text>
<polyline fill="none" stroke="black" points="0,-198 111,-198 "/>
<text text-anchor="start" x="8" y="-186" font-family="Helvetica,sans-Serif" font-size="10.00">+ Key</text>
<text text-anchor="start" x="8" y="-175" font-family="Helvetica,sans-Serif" font-size="10.00">+ Mod</text>
<text text-anchor="start" x="8" y="-164" font-family="Helvetica,sans-Serif" font-size="10.00">+ Alt</text>
<text text-anchor="start" x="8" y="-153" font-family="Helvetica,sans-Serif" font-size="10.00">+ Ctrl</text>
<text text-anchor="start" x="8" y="-142" font-family="Helvetica,sans-Serif" font-size="10.00">+ Shift</text>
<text text-anchor="start" x="8" y="-131" font-family="Helvetica,sans-Serif" font-size="10.00">+ Win</text>
<text text-anchor="start" x="8" y="-120" font-family="Helvetica,sans-Serif" font-size="10.00">+ Valid</text>
<polyline fill="none" stroke="black" points="0,-113 111,-113 "/>
<text text-anchor="start" x="8" y="-101" font-family="Helvetica,sans-Serif" font-size="10.00">+ KeyCombo()</text>
<text text-anchor="start" x="8" y="-90" font-family="Helvetica,sans-Serif" font-size="10.00">+ KeyCombo()</text>
<text text-anchor="start" x="8" y="-79" font-family="Helvetica,sans-Serif" font-size="10.00">+ KeyCombo()</text>
<text text-anchor="start" x="8" y="-68" font-family="Helvetica,sans-Serif" font-size="10.00">+ ToString()</text>
<text text-anchor="start" x="8" y="-57" font-family="Helvetica,sans-Serif" font-size="10.00">+ Serialize()</text>
<text text-anchor="start" x="8" y="-46" font-family="Helvetica,sans-Serif" font-size="10.00">+ Parse()</text>
</a>
</g>
</g>
<!-- Node1&#45;&gt;Node3 -->
<g id="edge2" class="edge">
<title>Node1&#45;&gt;Node3</title>
<path fill="none" stroke="midnightblue" d="M139.02,-283.92C132.54,-274.67 126.22,-265.22 120.5,-256 112.86,-243.69 105.31,-230.37 98.22,-217.15"/>
<polygon fill="none" stroke="midnightblue" points="136.35,-286.21 144.99,-292.34 142.06,-282.16 136.35,-286.21"/>
</g>
<!-- Node4 -->
<g id="node4" class="node">
<title>Node4</title>
<g id="a_node4"><a xlink:href="class_hotkey_lib_1_1_windows_hotkey.html" target="_top" xlink:title=" ">
<polygon fill="none" stroke="black" points="129.5,-6 129.5,-250 263.5,-250 263.5,-6 129.5,-6"/>
<text text-anchor="middle" x="196.5" y="-238" font-family="Helvetica,sans-Serif" font-size="10.00">HotkeyLib.WindowsHotkey</text>
<polyline fill="none" stroke="black" points="129.5,-231 263.5,-231 "/>
<text text-anchor="start" x="137.5" y="-219" font-family="Helvetica,sans-Serif" font-size="10.00">+ ID</text>
<text text-anchor="start" x="137.5" y="-208" font-family="Helvetica,sans-Serif" font-size="10.00">+ Key</text>
<text text-anchor="start" x="137.5" y="-197" font-family="Helvetica,sans-Serif" font-size="10.00">+ Mod</text>
<text text-anchor="start" x="137.5" y="-186" font-family="Helvetica,sans-Serif" font-size="10.00">+ Alt</text>
<text text-anchor="start" x="137.5" y="-175" font-family="Helvetica,sans-Serif" font-size="10.00">+ Ctrl</text>
<text text-anchor="start" x="137.5" y="-164" font-family="Helvetica,sans-Serif" font-size="10.00">+ Shift</text>
<text text-anchor="start" x="137.5" y="-153" font-family="Helvetica,sans-Serif" font-size="10.00">+ Win</text>
<text text-anchor="start" x="137.5" y="-142" font-family="Helvetica,sans-Serif" font-size="10.00">+ Valid</text>
<text text-anchor="start" x="137.5" y="-131" font-family="Helvetica,sans-Serif" font-size="10.00">+ Registered</text>
<polyline fill="none" stroke="black" points="129.5,-124 263.5,-124 "/>
<text text-anchor="start" x="137.5" y="-112" font-family="Helvetica,sans-Serif" font-size="10.00">+ WindowsHotkey()</text>
<text text-anchor="start" x="137.5" y="-101" font-family="Helvetica,sans-Serif" font-size="10.00">+ NotifyPressed()</text>
<text text-anchor="start" x="137.5" y="-90" font-family="Helvetica,sans-Serif" font-size="10.00">+ ToString()</text>
<text text-anchor="start" x="137.5" y="-79" font-family="Helvetica,sans-Serif" font-size="10.00">+ Serialize()</text>
<text text-anchor="start" x="137.5" y="-68" font-family="Helvetica,sans-Serif" font-size="10.00">+ GetFullIdentifier()</text>
<text text-anchor="start" x="137.5" y="-57" font-family="Helvetica,sans-Serif" font-size="10.00">+ Dispose()</text>
<text text-anchor="start" x="137.5" y="-46" font-family="Helvetica,sans-Serif" font-size="10.00">~ Register()</text>
<text text-anchor="start" x="137.5" y="-35" font-family="Helvetica,sans-Serif" font-size="10.00">~ Unregister()</text>
<text text-anchor="start" x="137.5" y="-24" font-family="Helvetica,sans-Serif" font-size="10.00">~ Reregister()</text>
<text text-anchor="start" x="137.5" y="-13" font-family="Helvetica,sans-Serif" font-size="10.00"># Dispose()</text>
</a>
</g>
</g>
<!-- Node1&#45;&gt;Node4 -->
<g id="edge3" class="edge">
<title>Node1&#45;&gt;Node4</title>
<path fill="none" stroke="midnightblue" d="M196.5,-282.21C196.5,-271.82 196.5,-260.95 196.5,-250"/>
<polygon fill="none" stroke="midnightblue" points="193,-282.43 196.5,-292.43 200,-282.43 193,-282.43"/>
</g>
<!-- Node5 -->
<g id="node5" class="node">
<title>Node5</title>
<g id="a_node5"><a xlink:href="class_volume_control_1_1_hotkeys_1_1_bindable_windows_hotkey.html" target="_top" xlink:title=" ">
<polygon fill="none" stroke="black" points="281.5,-0.5 281.5,-255.5 441.5,-255.5 441.5,-0.5 281.5,-0.5"/>
<text text-anchor="start" x="289.5" y="-243.5" font-family="Helvetica,sans-Serif" font-size="10.00">VolumeControl.Hotkeys.Bindable</text>
<text text-anchor="middle" x="361.5" y="-232.5" font-family="Helvetica,sans-Serif" font-size="10.00">WindowsHotkey</text>
<polyline fill="none" stroke="black" points="281.5,-225.5 441.5,-225.5 "/>
<text text-anchor="start" x="289.5" y="-213.5" font-family="Helvetica,sans-Serif" font-size="10.00">+ Hotkey</text>
<text text-anchor="start" x="289.5" y="-202.5" font-family="Helvetica,sans-Serif" font-size="10.00">+ Name</text>
<text text-anchor="start" x="289.5" y="-191.5" font-family="Helvetica,sans-Serif" font-size="10.00">+ Registered</text>
<text text-anchor="start" x="289.5" y="-180.5" font-family="Helvetica,sans-Serif" font-size="10.00">+ Action</text>
<text text-anchor="start" x="289.5" y="-169.5" font-family="Helvetica,sans-Serif" font-size="10.00">+ Key</text>
<text text-anchor="start" x="289.5" y="-158.5" font-family="Helvetica,sans-Serif" font-size="10.00">+ Mod</text>
<text text-anchor="start" x="289.5" y="-147.5" font-family="Helvetica,sans-Serif" font-size="10.00">+ Alt</text>
<text text-anchor="start" x="289.5" y="-136.5" font-family="Helvetica,sans-Serif" font-size="10.00">+ Ctrl</text>
<text text-anchor="start" x="289.5" y="-125.5" font-family="Helvetica,sans-Serif" font-size="10.00">+ Shift</text>
<text text-anchor="start" x="289.5" y="-114.5" font-family="Helvetica,sans-Serif" font-size="10.00">+ Win</text>
<text text-anchor="start" x="289.5" y="-103.5" font-family="Helvetica,sans-Serif" font-size="10.00">and 7 more...</text>
<polyline fill="none" stroke="black" points="281.5,-96.5 441.5,-96.5 "/>
<text text-anchor="start" x="289.5" y="-84.5" font-family="Helvetica,sans-Serif" font-size="10.00">+ BindableWindowsHotkey()</text>
<text text-anchor="start" x="289.5" y="-73.5" font-family="Helvetica,sans-Serif" font-size="10.00">+ Dispose()</text>
<text text-anchor="start" x="289.5" y="-62.5" font-family="Helvetica,sans-Serif" font-size="10.00">+ NotifyPressed()</text>
<text text-anchor="start" x="289.5" y="-51.5" font-family="Helvetica,sans-Serif" font-size="10.00">+ NotifyPressed()</text>
<text text-anchor="start" x="289.5" y="-40.5" font-family="Helvetica,sans-Serif" font-size="10.00">+ ToString()</text>
<text text-anchor="start" x="289.5" y="-29.5" font-family="Helvetica,sans-Serif" font-size="10.00">+ Serialize()</text>
<text text-anchor="start" x="289.5" y="-18.5" font-family="Helvetica,sans-Serif" font-size="10.00">+ GetFullIdentifier()</text>
<text text-anchor="start" x="289.5" y="-7.5" font-family="Helvetica,sans-Serif" font-size="10.00">+ Parse()</text>
</a>
</g>
</g>
<!-- Node1&#45;&gt;Node5 -->
<g id="edge4" class="edge">
<title>Node1&#45;&gt;Node5</title>
<path fill="none" stroke="midnightblue" d="M252.08,-284.02C259,-274.62 265.94,-265.1 272.5,-256 275.41,-251.96 278.37,-247.84 281.35,-243.67"/>
<polygon fill="none" stroke="midnightblue" points="249.14,-282.12 246.02,-292.25 254.77,-286.27 249.14,-282.12"/>
</g>
<!-- Node2 -->
<g id="node2" class="node">
<title>Node2</title>
<g id="a_node2"><a xlink:title=" ">
<polygon fill="none" stroke="#bfbfbf" points="137,-463.5 137,-520.5 256,-520.5 256,-463.5 137,-463.5"/>
<text text-anchor="middle" x="196.5" y="-508.5" font-family="Helvetica,sans-Serif" font-size="10.00">INotifyPropertyChanged</text>
<polyline fill="none" stroke="#bfbfbf" points="137,-501.5 256,-501.5 "/>
<text text-anchor="middle" x="196.5" y="-489.5" font-family="Helvetica,sans-Serif" font-size="10.00"> </text>
<polyline fill="none" stroke="#bfbfbf" points="137,-482.5 256,-482.5 "/>
<text text-anchor="middle" x="196.5" y="-470.5" font-family="Helvetica,sans-Serif" font-size="10.00"> </text>
</a>
</g>
</g>
<!-- Node2&#45;&gt;Node1 -->
<g id="edge1" class="edge">
<title>Node2&#45;&gt;Node1</title>
<path fill="none" stroke="midnightblue" d="M196.5,-453.16C196.5,-444.78 196.5,-435.67 196.5,-426.53"/>
<polygon fill="none" stroke="midnightblue" points="193,-453.32 196.5,-463.32 200,-453.32 193,-453.32"/>
</g>
</g>
</svg>
