<?xml version="1.0" encoding="UTF-8" standalone="no"?>
<!DOCTYPE svg PUBLIC "-//W3C//DTD SVG 1.1//EN"
 "http://www.w3.org/Graphics/SVG/1.1/DTD/svg11.dtd">
<!-- Generated by graphviz version 2.43.0 (0)
 -->
<!-- Title: VolumeControl.Core.Input.IHotkey Pages: 1 -->
<svg width="375pt" height="777pt"
 viewBox="0.00 0.00 374.50 777.00" xmlns="http://www.w3.org/2000/svg" xmlns:xlink="http://www.w3.org/1999/xlink">
<g id="graph0" class="graph" transform="scale(1 1) rotate(0) translate(4 773)">
<title>VolumeControl.Core.Input.IHotkey</title>
<!-- Node1 -->
<g id="node1" class="node">
<title>Node1</title>
<g id="a_node1"><a xlink:title="Represents a Win32 global hotkey.">
<polygon fill="#bfbfbf" stroke="black" points="135,-496.5 135,-674.5 280,-674.5 280,-496.5 135,-496.5"/>
<text text-anchor="start" x="143" y="-662.5" font-family="Helvetica,sans-Serif" font-size="10.00">VolumeControl.Core.Input.</text>
<text text-anchor="middle" x="207.5" y="-651.5" font-family="Helvetica,sans-Serif" font-size="10.00">IHotkey</text>
<polyline fill="none" stroke="black" points="135,-644.5 280,-644.5 "/>
<text text-anchor="start" x="143" y="-632.5" font-family="Helvetica,sans-Serif" font-size="10.00">+ Name</text>
<text text-anchor="start" x="143" y="-621.5" font-family="Helvetica,sans-Serif" font-size="10.00">+ ID</text>
<text text-anchor="start" x="143" y="-610.5" font-family="Helvetica,sans-Serif" font-size="10.00">+ Key</text>
<text text-anchor="start" x="143" y="-599.5" font-family="Helvetica,sans-Serif" font-size="10.00">+ Modifiers</text>
<text text-anchor="start" x="143" y="-588.5" font-family="Helvetica,sans-Serif" font-size="10.00">+ Alt</text>
<text text-anchor="start" x="143" y="-577.5" font-family="Helvetica,sans-Serif" font-size="10.00">+ Shift</text>
<text text-anchor="start" x="143" y="-566.5" font-family="Helvetica,sans-Serif" font-size="10.00">+ Ctrl</text>
<text text-anchor="start" x="143" y="-555.5" font-family="Helvetica,sans-Serif" font-size="10.00">+ Win</text>
<text text-anchor="start" x="143" y="-544.5" font-family="Helvetica,sans-Serif" font-size="10.00">+ NoRepeat</text>
<text text-anchor="start" x="143" y="-533.5" font-family="Helvetica,sans-Serif" font-size="10.00">+ IsRegistered</text>
<text text-anchor="start" x="143" y="-522.5" font-family="Helvetica,sans-Serif" font-size="10.00">+ Action</text>
<polyline fill="none" stroke="black" points="135,-515.5 280,-515.5 "/>
<text text-anchor="middle" x="207.5" y="-503.5" font-family="Helvetica,sans-Serif" font-size="10.00"> </text>
</a>
</g>
</g>
<!-- Node5 -->
<g id="node5" class="node">
<title>Node5</title>
<g id="a_node5"><a xlink:href="class_volume_control_1_1_core_1_1_input_1_1_hotkey.html" target="_top" xlink:title="A hotkey that executes an action when pressed.">
<polygon fill="none" stroke="black" points="133,-149.5 133,-459.5 282,-459.5 282,-149.5 133,-149.5"/>
<text text-anchor="start" x="141" y="-447.5" font-family="Helvetica,sans-Serif" font-size="10.00">VolumeControl.Core.Input.</text>
<text text-anchor="middle" x="207.5" y="-436.5" font-family="Helvetica,sans-Serif" font-size="10.00">Hotkey</text>
<polyline fill="none" stroke="black" points="133,-429.5 282,-429.5 "/>
<text text-anchor="start" x="141" y="-417.5" font-family="Helvetica,sans-Serif" font-size="10.00">+ ID</text>
<text text-anchor="start" x="141" y="-406.5" font-family="Helvetica,sans-Serif" font-size="10.00">+ Name</text>
<text text-anchor="start" x="141" y="-395.5" font-family="Helvetica,sans-Serif" font-size="10.00">+ Key</text>
<text text-anchor="start" x="141" y="-384.5" font-family="Helvetica,sans-Serif" font-size="10.00">+ Modifiers</text>
<text text-anchor="start" x="141" y="-373.5" font-family="Helvetica,sans-Serif" font-size="10.00">+ Alt</text>
<text text-anchor="start" x="141" y="-362.5" font-family="Helvetica,sans-Serif" font-size="10.00">+ Shift</text>
<text text-anchor="start" x="141" y="-351.5" font-family="Helvetica,sans-Serif" font-size="10.00">+ Ctrl</text>
<text text-anchor="start" x="141" y="-340.5" font-family="Helvetica,sans-Serif" font-size="10.00">+ Win</text>
<text text-anchor="start" x="141" y="-329.5" font-family="Helvetica,sans-Serif" font-size="10.00">+ NoRepeat</text>
<text text-anchor="start" x="141" y="-318.5" font-family="Helvetica,sans-Serif" font-size="10.00">+ MessageHook</text>
<text text-anchor="start" x="141" y="-307.5" font-family="Helvetica,sans-Serif" font-size="10.00">+ IsRegistered</text>
<text text-anchor="start" x="141" y="-296.5" font-family="Helvetica,sans-Serif" font-size="10.00">+ Action</text>
<polyline fill="none" stroke="black" points="133,-289.5 282,-289.5 "/>
<text text-anchor="start" x="141" y="-277.5" font-family="Helvetica,sans-Serif" font-size="10.00">+ Hotkey()</text>
<text text-anchor="start" x="141" y="-266.5" font-family="Helvetica,sans-Serif" font-size="10.00">+ Hotkey()</text>
<text text-anchor="start" x="141" y="-255.5" font-family="Helvetica,sans-Serif" font-size="10.00">+ Hotkey()</text>
<text text-anchor="start" x="141" y="-244.5" font-family="Helvetica,sans-Serif" font-size="10.00">+ Hotkey()</text>
<text text-anchor="start" x="141" y="-233.5" font-family="Helvetica,sans-Serif" font-size="10.00">+ GetNewID()</text>
<text text-anchor="start" x="141" y="-222.5" font-family="Helvetica,sans-Serif" font-size="10.00">+ Dispose()</text>
<text text-anchor="start" x="141" y="-211.5" font-family="Helvetica,sans-Serif" font-size="10.00">~ NotifyPressed()</text>
<text text-anchor="start" x="141" y="-200.5" font-family="Helvetica,sans-Serif" font-size="10.00">~ NotifyRegistered()</text>
<text text-anchor="start" x="141" y="-189.5" font-family="Helvetica,sans-Serif" font-size="10.00">~ NotifyUnregistered()</text>
<text text-anchor="start" x="141" y="-178.5" font-family="Helvetica,sans-Serif" font-size="10.00"># NotifyPropertyChanged()</text>
<text text-anchor="start" x="141" y="-167.5" font-family="Helvetica,sans-Serif" font-size="10.00"># RegisterHotkey()</text>
<text text-anchor="start" x="141" y="-156.5" font-family="Helvetica,sans-Serif" font-size="10.00"># UnregisterHotkey()</text>
</a>
</g>
</g>
<!-- Node1&#45;&gt;Node5 -->
<g id="edge4" class="edge">
<title>Node1&#45;&gt;Node5</title>
<path fill="none" stroke="midnightblue" d="M207.5,-486.2C207.5,-477.56 207.5,-468.69 207.5,-459.74"/>
<polygon fill="none" stroke="midnightblue" points="204,-486.22 207.5,-496.22 211,-486.22 204,-486.22"/>
</g>
<!-- Node2 -->
<g id="node2" class="node">
<title>Node2</title>
<g id="a_node2"><a xlink:href="interface_volume_control_1_1_core_1_1_input_1_1_i_hotkey_message_hook.html" target="_top" xlink:title="Represents an object that can be added to the hotkey message hook system.">
<polygon fill="none" stroke="black" points="0,-711.5 0,-768.5 123,-768.5 123,-711.5 0,-711.5"/>
<text text-anchor="middle" x="61.5" y="-756.5" font-family="Helvetica,sans-Serif" font-size="10.00">IHotkeyMessageHook</text>
<polyline fill="none" stroke="black" points="0,-749.5 123,-749.5 "/>
<text text-anchor="start" x="8" y="-737.5" font-family="Helvetica,sans-Serif" font-size="10.00">+ MessageHook</text>
<polyline fill="none" stroke="black" points="0,-730.5 123,-730.5 "/>
<text text-anchor="middle" x="61.5" y="-718.5" font-family="Helvetica,sans-Serif" font-size="10.00"> </text>
</a>
</g>
</g>
<!-- Node2&#45;&gt;Node1 -->
<g id="edge1" class="edge">
<title>Node2&#45;&gt;Node1</title>
<path fill="none" stroke="midnightblue" d="M95.1,-703.9C107.05,-691.43 121,-676.85 134.94,-662.29"/>
<polygon fill="none" stroke="midnightblue" points="92.33,-701.74 87.94,-711.38 97.38,-706.58 92.33,-701.74"/>
</g>
<!-- Node3 -->
<g id="node3" class="node">
<title>Node3</title>
<g id="a_node3"><a xlink:title=" ">
<polygon fill="none" stroke="#bfbfbf" points="141,-711.5 141,-768.5 274,-768.5 274,-711.5 141,-711.5"/>
<text text-anchor="middle" x="207.5" y="-756.5" font-family="Helvetica,sans-Serif" font-size="10.00">INotifyPropertyChanged</text>
<polyline fill="none" stroke="#bfbfbf" points="141,-749.5 274,-749.5 "/>
<text text-anchor="middle" x="207.5" y="-737.5" font-family="Helvetica,sans-Serif" font-size="10.00"> </text>
<polyline fill="none" stroke="#bfbfbf" points="141,-730.5 274,-730.5 "/>
<text text-anchor="middle" x="207.5" y="-718.5" font-family="Helvetica,sans-Serif" font-size="10.00"> </text>
</a>
</g>
</g>
<!-- Node3&#45;&gt;Node1 -->
<g id="edge2" class="edge">
<title>Node3&#45;&gt;Node1</title>
<path fill="none" stroke="midnightblue" d="M207.5,-701.37C207.5,-693.09 207.5,-683.98 207.5,-674.62"/>
<polygon fill="none" stroke="midnightblue" points="204,-701.38 207.5,-711.38 211,-701.38 204,-701.38"/>
</g>
<!-- Node4 -->
<g id="node4" class="node">
<title>Node4</title>
<g id="a_node4"><a xlink:title=" ">
<polygon fill="none" stroke="#bfbfbf" points="292.5,-711.5 292.5,-768.5 366.5,-768.5 366.5,-711.5 292.5,-711.5"/>
<text text-anchor="middle" x="329.5" y="-756.5" font-family="Helvetica,sans-Serif" font-size="10.00">IDisposable</text>
<polyline fill="none" stroke="#bfbfbf" points="292.5,-749.5 366.5,-749.5 "/>
<text text-anchor="middle" x="329.5" y="-737.5" font-family="Helvetica,sans-Serif" font-size="10.00"> </text>
<polyline fill="none" stroke="#bfbfbf" points="292.5,-730.5 366.5,-730.5 "/>
<text text-anchor="middle" x="329.5" y="-718.5" font-family="Helvetica,sans-Serif" font-size="10.00"> </text>
</a>
</g>
</g>
<!-- Node4&#45;&gt;Node1 -->
<g id="edge3" class="edge">
<title>Node4&#45;&gt;Node1</title>
<path fill="none" stroke="midnightblue" d="M301.15,-703.56C294.07,-694.71 286.15,-684.81 278,-674.62"/>
<polygon fill="none" stroke="midnightblue" points="298.43,-705.76 307.41,-711.38 303.89,-701.39 298.43,-705.76"/>
</g>
<!-- Node6 -->
<g id="node6" class="node">
<title>Node6</title>
<g id="a_node6"><a xlink:href="class_volume_control_1_1_core_1_1_input_1_1_hotkey_with_error.html" target="_top" xlink:title="A Hotkey that also maintains an error state property.">
<polygon fill="none" stroke="black" points="135,-0.5 135,-112.5 280,-112.5 280,-0.5 135,-0.5"/>
<text text-anchor="start" x="143" y="-100.5" font-family="Helvetica,sans-Serif" font-size="10.00">VolumeControl.Core.Input.</text>
<text text-anchor="middle" x="207.5" y="-89.5" font-family="Helvetica,sans-Serif" font-size="10.00">HotkeyWithError</text>
<polyline fill="none" stroke="black" points="135,-82.5 280,-82.5 "/>
<text text-anchor="start" x="143" y="-70.5" font-family="Helvetica,sans-Serif" font-size="10.00">+ ErrorMessage</text>
<text text-anchor="start" x="143" y="-59.5" font-family="Helvetica,sans-Serif" font-size="10.00">+ HasError</text>
<polyline fill="none" stroke="black" points="135,-52.5 280,-52.5 "/>
<text text-anchor="start" x="143" y="-40.5" font-family="Helvetica,sans-Serif" font-size="10.00">+ HotkeyWithError()</text>
<text text-anchor="start" x="143" y="-29.5" font-family="Helvetica,sans-Serif" font-size="10.00">+ HotkeyWithError()</text>
<text text-anchor="start" x="143" y="-18.5" font-family="Helvetica,sans-Serif" font-size="10.00">+ HotkeyWithError()</text>
<text text-anchor="start" x="143" y="-7.5" font-family="Helvetica,sans-Serif" font-size="10.00">+ HotkeyWithError()</text>
</a>
</g>
</g>
<!-- Node5&#45;&gt;Node6 -->
<g id="edge5" class="edge">
<title>Node5&#45;&gt;Node6</title>
<path fill="none" stroke="midnightblue" d="M207.5,-139.23C207.5,-129.92 207.5,-120.98 207.5,-112.64"/>
<polygon fill="none" stroke="midnightblue" points="204,-139.45 207.5,-149.45 211,-139.45 204,-139.45"/>
</g>
</g>
</svg>
