<?xml version="1.0" encoding="UTF-8" standalone="no"?>
<!DOCTYPE svg PUBLIC "-//W3C//DTD SVG 1.1//EN"
 "http://www.w3.org/Graphics/SVG/1.1/DTD/svg11.dtd">
<!-- Generated by graphviz version 2.44.1 (20200629.0800)
 -->
<!-- Title: VolumeControl.Core.IBaseAddon Pages: 1 -->
<svg width="350pt" height="215pt"
 viewBox="0.00 0.00 350.00 215.00" xmlns="http://www.w3.org/2000/svg" xmlns:xlink="http://www.w3.org/1999/xlink">
<g id="graph0" class="graph" transform="scale(1 1) rotate(0) translate(4 211)">
<title>VolumeControl.Core.IBaseAddon</title>
<!-- Node1 -->
<g id="node1" class="node">
<title>Node1</title>
<g id="a_node1"><a xlink:title="Represents an addon object. &#160;You can&#39;t directly implement this interface; inherit from the abstract c...">
<polygon fill="#bfbfbf" stroke="black" points="103,-127.5 103,-206.5 234,-206.5 234,-127.5 103,-127.5"/>
<text text-anchor="start" x="111" y="-194.5" font-family="Helvetica,sans-Serif" font-size="10.00">VolumeControl.Core.IBase</text>
<text text-anchor="middle" x="168.5" y="-183.5" font-family="Helvetica,sans-Serif" font-size="10.00">Addon</text>
<polyline fill="none" stroke="black" points="103,-176.5 234,-176.5 "/>
<text text-anchor="start" x="111" y="-164.5" font-family="Helvetica,sans-Serif" font-size="10.00">+ Attribute</text>
<text text-anchor="start" x="111" y="-153.5" font-family="Helvetica,sans-Serif" font-size="10.00">+ Types</text>
<polyline fill="none" stroke="black" points="103,-146.5 234,-146.5 "/>
<text text-anchor="start" x="111" y="-134.5" font-family="Helvetica,sans-Serif" font-size="10.00">+ LoadFromTypes()</text>
</a>
</g>
</g>
<!-- Node2 -->
<g id="node2" class="node">
<title>Node2</title>
<g id="a_node2"><a xlink:href="class_volume_control_1_1_core_1_1_base_addon.html" target="_top" xlink:title="abstract base class for an object that manages an addon.">
<polygon fill="none" stroke="black" points="0,-6 0,-85 157,-85 157,-6 0,-6"/>
<text text-anchor="middle" x="78.5" y="-73" font-family="Helvetica,sans-Serif" font-size="10.00">VolumeControl.Core.BaseAddon</text>
<polyline fill="none" stroke="black" points="0,-66 157,-66 "/>
<text text-anchor="start" x="8" y="-54" font-family="Helvetica,sans-Serif" font-size="10.00">+ Attribute</text>
<text text-anchor="start" x="8" y="-43" font-family="Helvetica,sans-Serif" font-size="10.00">+ Types</text>
<polyline fill="none" stroke="black" points="0,-36 157,-36 "/>
<text text-anchor="start" x="8" y="-24" font-family="Helvetica,sans-Serif" font-size="10.00">+ LoadFromTypes()</text>
<text text-anchor="start" x="8" y="-13" font-family="Helvetica,sans-Serif" font-size="10.00"># BaseAddon()</text>
</a>
</g>
</g>
<!-- Node1&#45;&gt;Node2 -->
<g id="edge1" class="edge">
<title>Node1&#45;&gt;Node2</title>
<path fill="none" stroke="midnightblue" d="M133.2,-119.13C124.71,-107.86 115.74,-95.95 107.57,-85.1"/>
<polygon fill="none" stroke="midnightblue" points="130.47,-121.32 139.28,-127.2 136.06,-117.11 130.47,-121.32"/>
</g>
<!-- Node3 -->
<g id="node3" class="node">
<title>Node3</title>
<g id="a_node3"><a xlink:href="interface_volume_control_1_1_hotkeys_1_1_interfaces_1_1_i_hotkey_action_manager.html" target="_top" xlink:title="Represents a hotkey action manager object, which contains the list of IActionBindings used in the hot...">
<polygon fill="none" stroke="black" points="175,-0.5 175,-90.5 342,-90.5 342,-0.5 175,-0.5"/>
<text text-anchor="start" x="183" y="-78.5" font-family="Helvetica,sans-Serif" font-size="10.00">VolumeControl.Hotkeys.Interfaces.</text>
<text text-anchor="middle" x="258.5" y="-67.5" font-family="Helvetica,sans-Serif" font-size="10.00">IHotkeyActionManager</text>
<polyline fill="none" stroke="black" points="175,-60.5 342,-60.5 "/>
<text text-anchor="start" x="183" y="-48.5" font-family="Helvetica,sans-Serif" font-size="10.00">+ NullAction</text>
<text text-anchor="start" x="183" y="-37.5" font-family="Helvetica,sans-Serif" font-size="10.00">+ Bindings</text>
<text text-anchor="start" x="183" y="-26.5" font-family="Helvetica,sans-Serif" font-size="10.00">+ this[string actionName]</text>
<polyline fill="none" stroke="black" points="175,-19.5 342,-19.5 "/>
<text text-anchor="start" x="183" y="-7.5" font-family="Helvetica,sans-Serif" font-size="10.00">+ GetActionNames()</text>
</a>
</g>
</g>
<!-- Node1&#45;&gt;Node3 -->
<g id="edge2" class="edge">
<title>Node1&#45;&gt;Node3</title>
<path fill="none" stroke="midnightblue" d="M203.77,-119.17C210.78,-109.87 218.11,-100.13 225.05,-90.91"/>
<polygon fill="none" stroke="midnightblue" points="200.94,-117.11 197.72,-127.2 206.53,-121.32 200.94,-117.11"/>
</g>
</g>
</svg>
