<?xml version="1.0" encoding="UTF-8" standalone="no"?>
<!DOCTYPE svg PUBLIC "-//W3C//DTD SVG 1.1//EN"
 "http://www.w3.org/Graphics/SVG/1.1/DTD/svg11.dtd">
<!-- Generated by graphviz version 2.43.0 (0)
 -->
<!-- Title: VolumeControl.Hotkeys.Interfaces.IHotkeyActionManager Pages: 1 -->
<svg width="425pt" height="215pt"
 viewBox="0.00 0.00 424.50 215.00" xmlns="http://www.w3.org/2000/svg" xmlns:xlink="http://www.w3.org/1999/xlink">
<g id="graph0" class="graph" transform="scale(1 1) rotate(0) translate(4 211)">
<title>VolumeControl.Hotkeys.Interfaces.IHotkeyActionManager</title>
<!-- Node1 -->
<g id="node1" class="node">
<title>Node1</title>
<g id="a_node1"><a xlink:title="Represents a hotkey action manager object, which contains the list of IActionBindings used in the hot...">
<polygon fill="#bfbfbf" stroke="black" points="102.5,-0.5 102.5,-101.5 288.5,-101.5 288.5,-0.5 102.5,-0.5"/>
<text text-anchor="start" x="110.5" y="-89.5" font-family="Helvetica,sans-Serif" font-size="10.00">VolumeControl.Hotkeys.Interfaces.</text>
<text text-anchor="middle" x="195.5" y="-78.5" font-family="Helvetica,sans-Serif" font-size="10.00">IHotkeyActionManager</text>
<polyline fill="none" stroke="black" points="102.5,-71.5 288.5,-71.5 "/>
<text text-anchor="start" x="110.5" y="-59.5" font-family="Helvetica,sans-Serif" font-size="10.00">+ NullActionHandler</text>
<text text-anchor="start" x="110.5" y="-48.5" font-family="Helvetica,sans-Serif" font-size="10.00">+ NullAction</text>
<text text-anchor="start" x="110.5" y="-37.5" font-family="Helvetica,sans-Serif" font-size="10.00">+ Bindings</text>
<text text-anchor="start" x="110.5" y="-26.5" font-family="Helvetica,sans-Serif" font-size="10.00">+ this[string identifier]</text>
<polyline fill="none" stroke="black" points="102.5,-19.5 288.5,-19.5 "/>
<text text-anchor="middle" x="195.5" y="-7.5" font-family="Helvetica,sans-Serif" font-size="10.00"> </text>
</a>
</g>
</g>
<!-- Node2 -->
<g id="node2" class="node">
<title>Node2</title>
<g id="a_node2"><a xlink:href="interface_volume_control_1_1_core_1_1_i_base_addon.html" target="_top" xlink:title="Represents any type of Volume Control addon definition object. &#160;This interface is implemented by the ...">
<polygon fill="none" stroke="black" points="0,-138.5 0,-206.5 111,-206.5 111,-138.5 0,-138.5"/>
<text text-anchor="middle" x="55.5" y="-194.5" font-family="Helvetica,sans-Serif" font-size="10.00">IBaseAddon</text>
<polyline fill="none" stroke="black" points="0,-187.5 111,-187.5 "/>
<text text-anchor="start" x="8" y="-175.5" font-family="Helvetica,sans-Serif" font-size="10.00">+ Attribute</text>
<text text-anchor="start" x="8" y="-164.5" font-family="Helvetica,sans-Serif" font-size="10.00">+ Types</text>
<polyline fill="none" stroke="black" points="0,-157.5 111,-157.5 "/>
<text text-anchor="start" x="8" y="-145.5" font-family="Helvetica,sans-Serif" font-size="10.00">+ LoadFromTypes()</text>
</a>
</g>
</g>
<!-- Node2&#45;&gt;Node1 -->
<g id="edge1" class="edge">
<title>Node2&#45;&gt;Node1</title>
<path fill="none" stroke="midnightblue" d="M102.14,-131.69C113.42,-122.06 125.61,-111.66 137.34,-101.65"/>
<polygon fill="none" stroke="midnightblue" points="99.83,-129.06 94.5,-138.21 104.38,-134.38 99.83,-129.06"/>
</g>
<!-- Node3 -->
<g id="node3" class="node">
<title>Node3</title>
<g id="a_node3"><a xlink:title=" ">
<polygon fill="none" stroke="#bfbfbf" points="129,-144 129,-201 262,-201 262,-144 129,-144"/>
<text text-anchor="middle" x="195.5" y="-189" font-family="Helvetica,sans-Serif" font-size="10.00">INotifyPropertyChanged</text>
<polyline fill="none" stroke="#bfbfbf" points="129,-182 262,-182 "/>
<text text-anchor="middle" x="195.5" y="-170" font-family="Helvetica,sans-Serif" font-size="10.00"> </text>
<polyline fill="none" stroke="#bfbfbf" points="129,-163 262,-163 "/>
<text text-anchor="middle" x="195.5" y="-151" font-family="Helvetica,sans-Serif" font-size="10.00"> </text>
</a>
</g>
</g>
<!-- Node3&#45;&gt;Node1 -->
<g id="edge2" class="edge">
<title>Node3&#45;&gt;Node1</title>
<path fill="none" stroke="midnightblue" d="M195.5,-133.6C195.5,-123.44 195.5,-112.29 195.5,-101.6"/>
<polygon fill="none" stroke="midnightblue" points="192,-133.78 195.5,-143.78 199,-133.78 192,-133.78"/>
</g>
<!-- Node4 -->
<g id="node4" class="node">
<title>Node4</title>
<g id="a_node4"><a xlink:title=" ">
<polygon fill="none" stroke="#bfbfbf" points="280.5,-144 280.5,-201 416.5,-201 416.5,-144 280.5,-144"/>
<text text-anchor="middle" x="348.5" y="-189" font-family="Helvetica,sans-Serif" font-size="10.00">INotifyPropertyChanging</text>
<polyline fill="none" stroke="#bfbfbf" points="280.5,-182 416.5,-182 "/>
<text text-anchor="middle" x="348.5" y="-170" font-family="Helvetica,sans-Serif" font-size="10.00"> </text>
<polyline fill="none" stroke="#bfbfbf" points="280.5,-163 416.5,-163 "/>
<text text-anchor="middle" x="348.5" y="-151" font-family="Helvetica,sans-Serif" font-size="10.00"> </text>
</a>
</g>
</g>
<!-- Node4&#45;&gt;Node1 -->
<g id="edge3" class="edge">
<title>Node4&#45;&gt;Node1</title>
<path fill="none" stroke="midnightblue" d="M304.85,-137.41C290.58,-126.26 274.43,-113.65 259,-101.6"/>
<polygon fill="none" stroke="midnightblue" points="302.98,-140.39 313.01,-143.78 307.29,-134.87 302.98,-140.39"/>
</g>
</g>
</svg>
