<?xml version="1.0" encoding="UTF-8" standalone="no"?>
<!DOCTYPE svg PUBLIC "-//W3C//DTD SVG 1.1//EN"
 "http://www.w3.org/Graphics/SVG/1.1/DTD/svg11.dtd">
<!-- Generated by graphviz version 2.43.0 (0)
 -->
<!-- Title: VolumeControl.Audio.Interfaces.IVolumeControl Pages: 1 -->
<svg width="182pt" height="237pt"
 viewBox="0.00 0.00 182.00 237.00" xmlns="http://www.w3.org/2000/svg" xmlns:xlink="http://www.w3.org/1999/xlink">
<g id="graph0" class="graph" transform="scale(1 1) rotate(0) translate(4 233)">
<title>VolumeControl.Audio.Interfaces.IVolumeControl</title>
<!-- Node1 -->
<g id="node1" class="node">
<title>Node1</title>
<g id="a_node1"><a xlink:title="Represents some kind of controllable audio playback instance.">
<polygon fill="#bfbfbf" stroke="black" points="0,-0.5 0,-112.5 174,-112.5 174,-0.5 0,-0.5"/>
<text text-anchor="start" x="8" y="-100.5" font-family="Helvetica,sans-Serif" font-size="10.00">VolumeControl.Audio.Interfaces.</text>
<text text-anchor="middle" x="87" y="-89.5" font-family="Helvetica,sans-Serif" font-size="10.00">IVolumeControl</text>
<polyline fill="none" stroke="black" points="0,-82.5 174,-82.5 "/>
<text text-anchor="start" x="8" y="-70.5" font-family="Helvetica,sans-Serif" font-size="10.00">+ PeakMeterValue</text>
<text text-anchor="start" x="8" y="-59.5" font-family="Helvetica,sans-Serif" font-size="10.00">+ NativeVolume</text>
<text text-anchor="start" x="8" y="-48.5" font-family="Helvetica,sans-Serif" font-size="10.00">+ Volume</text>
<text text-anchor="start" x="8" y="-37.5" font-family="Helvetica,sans-Serif" font-size="10.00">+ Muted</text>
<polyline fill="none" stroke="black" points="0,-30.5 174,-30.5 "/>
<text text-anchor="start" x="8" y="-18.5" font-family="Helvetica,sans-Serif" font-size="10.00">~ MakeListDisplayableControl</text>
<text text-anchor="start" x="8" y="-7.5" font-family="Helvetica,sans-Serif" font-size="10.00">Template()</text>
</a>
</g>
</g>
<!-- Node2 -->
<g id="node2" class="node">
<title>Node2</title>
<g id="a_node2"><a xlink:href="interface_volume_control_1_1_core_1_1_interfaces_1_1_i_list_displayable.html" target="_top" xlink:title="Represents an object that, when it is a member of a list of similar items, can be displayed in the Li...">
<polygon fill="none" stroke="black" points="34.5,-149.5 34.5,-228.5 139.5,-228.5 139.5,-149.5 34.5,-149.5"/>
<text text-anchor="middle" x="87" y="-216.5" font-family="Helvetica,sans-Serif" font-size="10.00">IListDisplayable</text>
<polyline fill="none" stroke="black" points="34.5,-209.5 139.5,-209.5 "/>
<text text-anchor="start" x="42.5" y="-197.5" font-family="Helvetica,sans-Serif" font-size="10.00">+ DisplayText</text>
<text text-anchor="start" x="42.5" y="-186.5" font-family="Helvetica,sans-Serif" font-size="10.00">+ DisplayControls</text>
<text text-anchor="start" x="42.5" y="-175.5" font-family="Helvetica,sans-Serif" font-size="10.00">+ DisplayIcon</text>
<polyline fill="none" stroke="black" points="34.5,-168.5 139.5,-168.5 "/>
<text text-anchor="middle" x="87" y="-156.5" font-family="Helvetica,sans-Serif" font-size="10.00"> </text>
</a>
</g>
</g>
<!-- Node2&#45;&gt;Node1 -->
<g id="edge1" class="edge">
<title>Node2&#45;&gt;Node1</title>
<path fill="none" stroke="midnightblue" d="M87,-139.01C87,-130.46 87,-121.52 87,-112.81"/>
<polygon fill="none" stroke="midnightblue" points="83.5,-139.2 87,-149.2 90.5,-139.2 83.5,-139.2"/>
</g>
</g>
</svg>
