<?xml version="1.0" encoding="UTF-8" standalone="no"?>
<!DOCTYPE svg PUBLIC "-//W3C//DTD SVG 1.1//EN"
 "http://www.w3.org/Graphics/SVG/1.1/DTD/svg11.dtd">
<!-- Generated by graphviz version 2.43.0 (0)
 -->
<!-- Title: VolumeControl.Log.Interfaces.IEndpointWriter Pages: 1 -->
<!--zoomable 474 -->
<svg id="main" version="1.1" xmlns="http://www.w3.org/2000/svg" xmlns:xlink="http://www.w3.org/1999/xlink" xml:space="preserve" onload="init(evt)">
<style type="text/css"><![CDATA[
.edge:hover path { stroke: red; }
.edge:hover polygon { stroke: red; fill: red; }
]]></style>
<script type="text/javascript"><![CDATA[
var edges = document.getElementsByTagName('g');
if (edges && edges.length) {
  for (var i=0;i<edges.length;i++) {
    if (edges[i].id.substr(0,4)=='edge') {
      edges[i].setAttribute('class','edge');
    }
  }
}
]]></script>
        <defs>
                <circle id="rim" cx="0" cy="0" r="7"/>
                <circle id="rim2" cx="0" cy="0" r="3.5"/>
                <g id="zoomPlus">
                        <use xlink:href="#rim" fill="#404040">
                                <set attributeName="fill" to="#808080" begin="zoomplus.mouseover" end="zoomplus.mouseout"/>
                        </use>
                        <path d="M-4,0h8M0,-4v8" fill="none" stroke="white" stroke-width="1.5" pointer-events="none"/>
                </g>
                <g id="zoomMin">
                        <use xlink:href="#rim" fill="#404040">
                                <set attributeName="fill" to="#808080" begin="zoomminus.mouseover" end="zoomminus.mouseout"/>
                        </use>
                        <path d="M-4,0h8" fill="none" stroke="white" stroke-width="1.5" pointer-events="none"/>
                </g>
                <g id="dirArrow">
                        <path fill="none" stroke="white" stroke-width="1.5" d="M0,-3.0v7 M-2.5,-0.5L0,-3.0L2.5,-0.5"/>
                </g>
               <g id="resetDef">
                       <use xlink:href="#rim2" fill="#404040">
                               <set attributeName="fill" to="#808080" begin="reset.mouseover" end="reset.mouseout"/>
                       </use>
               </g>
        </defs>

<script type="text/javascript">
var viewWidth = 462;
var viewHeight = 474;
var sectionId = 'dynsection-0';
</script>
<script xlink:href="svgpan.js"/>
<svg id="graph" class="graph">
<g id="viewport">
<title>VolumeControl.Log.Interfaces.IEndpointWriter</title>
<!-- Node1 -->
<g id="node1" class="node">
<title>Node1</title>
<g id="a_node1"><a xlink:title="Represents an endpoint that text can be written to.">
<polygon fill="#bfbfbf" stroke="black" points="180.5,-364.5 180.5,-465.5 344.5,-465.5 344.5,-364.5 180.5,-364.5"/>
<text text-anchor="start" x="188.5" y="-453.5" font-family="Helvetica,sans-Serif" font-size="10.00">VolumeControl.Log.Interfaces.</text>
<text text-anchor="middle" x="262.5" y="-442.5" font-family="Helvetica,sans-Serif" font-size="10.00">IEndpointWriter</text>
<polyline fill="none" stroke="black" points="180.5,-435.5 344.5,-435.5 "/>
<text text-anchor="start" x="188.5" y="-423.5" font-family="Helvetica,sans-Serif" font-size="10.00">+ IsWritingEnabled</text>
<polyline fill="none" stroke="black" points="180.5,-416.5 344.5,-416.5 "/>
<text text-anchor="start" x="188.5" y="-404.5" font-family="Helvetica,sans-Serif" font-size="10.00">+ GetTextWriter()</text>
<text text-anchor="start" x="188.5" y="-393.5" font-family="Helvetica,sans-Serif" font-size="10.00">+ Write()</text>
<text text-anchor="start" x="188.5" y="-382.5" font-family="Helvetica,sans-Serif" font-size="10.00">+ WriteLine()</text>
<text text-anchor="start" x="188.5" y="-371.5" font-family="Helvetica,sans-Serif" font-size="10.00">+ Reset()</text>
</a>
</g>
</g>
<!-- Node2 -->
<g id="node2" class="node">
<title>Node2</title>
<g id="a_node2"><a xlink:href="class_volume_control_1_1_log_1_1_endpoints_1_1_base_endpoint_writer.html" target="_top" xlink:title="Abstract base class for endpoint writers.">
<polygon fill="none" stroke="black" points="71,-177 71,-311 234,-311 234,-177 71,-177"/>
<text text-anchor="start" x="79" y="-299" font-family="Helvetica,sans-Serif" font-size="10.00">VolumeControl.Log.Endpoints.</text>
<text text-anchor="middle" x="152.5" y="-288" font-family="Helvetica,sans-Serif" font-size="10.00">BaseEndpointWriter</text>
<polyline fill="none" stroke="black" points="71,-281 234,-281 "/>
<text text-anchor="start" x="79" y="-269" font-family="Helvetica,sans-Serif" font-size="10.00">+ IsWritingEnabled</text>
<polyline fill="none" stroke="black" points="71,-262 234,-262 "/>
<text text-anchor="start" x="79" y="-250" font-family="Helvetica,sans-Serif" font-size="10.00">+ GetTextWriter()</text>
<text text-anchor="start" x="79" y="-239" font-family="Helvetica,sans-Serif" font-size="10.00">+ Reset()</text>
<text text-anchor="start" x="79" y="-228" font-family="Helvetica,sans-Serif" font-size="10.00">+ Write()</text>
<text text-anchor="start" x="79" y="-217" font-family="Helvetica,sans-Serif" font-size="10.00">+ WriteLine()</text>
<text text-anchor="start" x="79" y="-206" font-family="Helvetica,sans-Serif" font-size="10.00">+ WriteLine()</text>
<text text-anchor="start" x="79" y="-195" font-family="Helvetica,sans-Serif" font-size="10.00"># BaseEndpointWriter()</text>
<text text-anchor="start" x="79" y="-184" font-family="Helvetica,sans-Serif" font-size="10.00"># NotifyPropertyChanged()</text>
</a>
</g>
</g>
<!-- Node1&#45;&gt;Node2 -->
<g id="edge1" class="edge">
<title>Node1&#45;&gt;Node2</title>
<path fill="none" stroke="midnightblue" d="M224.39,-355.45C215.06,-341.12 205.02,-325.69 195.49,-311.04"/>
<polygon fill="none" stroke="midnightblue" points="221.7,-357.74 230.09,-364.21 227.57,-353.92 221.7,-357.74"/>
</g>
<!-- Node4 -->
<g id="node4" class="node">
<title>Node4</title>
<g id="a_node4"><a xlink:href="class_volume_control_1_1_log_1_1_endpoints_1_1_file_endpoint.html" target="_top" xlink:title="Log endpoint that allows writing logs directly to a file on disk.">
<polygon fill="none" stroke="black" points="181,-0.5 181,-123.5 344,-123.5 344,-0.5 181,-0.5"/>
<text text-anchor="start" x="189" y="-111.5" font-family="Helvetica,sans-Serif" font-size="10.00">VolumeControl.Log.Endpoints.</text>
<text text-anchor="middle" x="262.5" y="-100.5" font-family="Helvetica,sans-Serif" font-size="10.00">FileEndpoint</text>
<polyline fill="none" stroke="black" points="181,-93.5 344,-93.5 "/>
<text text-anchor="start" x="189" y="-81.5" font-family="Helvetica,sans-Serif" font-size="10.00">+ Path</text>
<text text-anchor="start" x="189" y="-70.5" font-family="Helvetica,sans-Serif" font-size="10.00">+ PathIsEmpty</text>
<polyline fill="none" stroke="black" points="181,-63.5 344,-63.5 "/>
<text text-anchor="start" x="189" y="-51.5" font-family="Helvetica,sans-Serif" font-size="10.00">+ FileEndpoint()</text>
<text text-anchor="start" x="189" y="-40.5" font-family="Helvetica,sans-Serif" font-size="10.00">+ GetStreamWriter()</text>
<text text-anchor="start" x="189" y="-29.5" font-family="Helvetica,sans-Serif" font-size="10.00">+ GetTextWriter()</text>
<text text-anchor="start" x="189" y="-18.5" font-family="Helvetica,sans-Serif" font-size="10.00">+ Reset()</text>
<text text-anchor="start" x="189" y="-7.5" font-family="Helvetica,sans-Serif" font-size="10.00">~ GetWriter()</text>
</a>
</g>
</g>
<!-- Node1&#45;&gt;Node4 -->
<g id="edge4" class="edge">
<title>Node1&#45;&gt;Node4</title>
<path fill="none" stroke="midnightblue" d="M262.5,-354.08C262.5,-289.83 262.5,-188.36 262.5,-123.78"/>
<polygon fill="none" stroke="midnightblue" points="259,-354.45 262.5,-364.45 266,-354.45 259,-354.45"/>
</g>
<!-- Node5 -->
<g id="node5" class="node">
<title>Node5</title>
<g id="a_node5"><a xlink:href="class_volume_control_1_1_log_1_1_endpoints_1_1_memory_endpoint.html" target="_top" xlink:title="A log endpoint that implements IEndpointWriter and uses a MemoryStream as an endpoint.">
<polygon fill="none" stroke="black" points="291,-160.5 291,-327.5 454,-327.5 454,-160.5 291,-160.5"/>
<text text-anchor="start" x="299" y="-315.5" font-family="Helvetica,sans-Serif" font-size="10.00">VolumeControl.Log.Endpoints.</text>
<text text-anchor="middle" x="372.5" y="-304.5" font-family="Helvetica,sans-Serif" font-size="10.00">MemoryEndpoint</text>
<polyline fill="none" stroke="black" points="291,-297.5 454,-297.5 "/>
<text text-anchor="start" x="299" y="-285.5" font-family="Helvetica,sans-Serif" font-size="10.00">+ IsWritingEnabled</text>
<polyline fill="none" stroke="black" points="291,-278.5 454,-278.5 "/>
<text text-anchor="start" x="299" y="-266.5" font-family="Helvetica,sans-Serif" font-size="10.00">+ MemoryEndpoint()</text>
<text text-anchor="start" x="299" y="-255.5" font-family="Helvetica,sans-Serif" font-size="10.00">+ GetTextReader()</text>
<text text-anchor="start" x="299" y="-244.5" font-family="Helvetica,sans-Serif" font-size="10.00">+ GetTextWriter()</text>
<text text-anchor="start" x="299" y="-233.5" font-family="Helvetica,sans-Serif" font-size="10.00">+ ReadRaw()</text>
<text text-anchor="start" x="299" y="-222.5" font-family="Helvetica,sans-Serif" font-size="10.00">+ ReadRawLine()</text>
<text text-anchor="start" x="299" y="-211.5" font-family="Helvetica,sans-Serif" font-size="10.00">+ Reset()</text>
<text text-anchor="start" x="299" y="-200.5" font-family="Helvetica,sans-Serif" font-size="10.00">+ Write()</text>
<text text-anchor="start" x="299" y="-189.5" font-family="Helvetica,sans-Serif" font-size="10.00">+ WriteLine()</text>
<text text-anchor="start" x="299" y="-178.5" font-family="Helvetica,sans-Serif" font-size="10.00">+ Dispose()</text>
<text text-anchor="start" x="299" y="-167.5" font-family="Helvetica,sans-Serif" font-size="10.00">+ ToString()</text>
</a>
</g>
</g>
<!-- Node1&#45;&gt;Node5 -->
<g id="edge5" class="edge">
<title>Node1&#45;&gt;Node5</title>
<path fill="none" stroke="midnightblue" d="M300.45,-355.69C306.33,-346.66 312.51,-337.17 318.66,-327.72"/>
<polygon fill="none" stroke="midnightblue" points="297.43,-353.92 294.91,-364.21 303.3,-357.74 297.43,-353.92"/>
</g>
<!-- Node3 -->
<g id="node3" class="node">
<title>Node3</title>
<g id="a_node3"><a xlink:href="class_volume_control_1_1_log_1_1_endpoints_1_1_console_endpoint.html" target="_top" xlink:title="Allows using the Console as a logging endpoint.">
<polygon fill="none" stroke="black" points="0,-6 0,-118 163,-118 163,-6 0,-6"/>
<text text-anchor="start" x="8" y="-106" font-family="Helvetica,sans-Serif" font-size="10.00">VolumeControl.Log.Endpoints.</text>
<text text-anchor="middle" x="81.5" y="-95" font-family="Helvetica,sans-Serif" font-size="10.00">ConsoleEndpoint</text>
<polyline fill="none" stroke="black" points="0,-88 163,-88 "/>
<text text-anchor="middle" x="81.5" y="-76" font-family="Helvetica,sans-Serif" font-size="10.00"> </text>
<polyline fill="none" stroke="black" points="0,-69 163,-69 "/>
<text text-anchor="start" x="8" y="-57" font-family="Helvetica,sans-Serif" font-size="10.00">+ ConsoleEndpoint()</text>
<text text-anchor="start" x="8" y="-46" font-family="Helvetica,sans-Serif" font-size="10.00">+ GetTextWriter()</text>
<text text-anchor="start" x="8" y="-35" font-family="Helvetica,sans-Serif" font-size="10.00">+ Reset()</text>
<text text-anchor="start" x="8" y="-24" font-family="Helvetica,sans-Serif" font-size="10.00">+ GetSTDOUT()</text>
<text text-anchor="start" x="8" y="-13" font-family="Helvetica,sans-Serif" font-size="10.00">+ GetSTDERR()</text>
</a>
</g>
</g>
<!-- Node2&#45;&gt;Node3 -->
<g id="edge2" class="edge">
<title>Node2&#45;&gt;Node3</title>
<path fill="none" stroke="midnightblue" d="M122.66,-167.35C116.14,-150.82 109.35,-133.62 103.22,-118.06"/>
<polygon fill="none" stroke="midnightblue" points="119.54,-168.98 126.47,-177 126.05,-166.41 119.54,-168.98"/>
</g>
<!-- Node2&#45;&gt;Node4 -->
<g id="edge3" class="edge">
<title>Node2&#45;&gt;Node4</title>
<path fill="none" stroke="midnightblue" d="M198.14,-168.31C207.24,-153.43 216.69,-137.97 225.45,-123.62"/>
<polygon fill="none" stroke="midnightblue" points="195.06,-166.64 192.84,-177 201.04,-170.29 195.06,-166.64"/>
</g>
</g>
</svg>
        <g id="navigator" transform="translate(0 0)" fill="#404254">
                <rect fill="#f2f5e9" fill-opacity="0.5" stroke="#606060" stroke-width=".5" x="0" y="0" width="60" height="60"/>
                <use id="zoomplus" xlink:href="#zoomPlus" x="17" y="9" onmousedown="handleZoom(evt,'in')"/>
                <use id="zoomminus" xlink:href="#zoomMin" x="42" y="9" onmousedown="handleZoom(evt,'out')"/>
                <use id="reset" xlink:href="#resetDef" x="30" y="36" onmousedown="handleReset()"/>
                <g id="arrowUp" xlink:href="#dirArrow" transform="translate(30 24)" onmousedown="handlePan(0,-1)">
                  <use xlink:href="#rim" fill="#404040">
                        <set attributeName="fill" to="#808080" begin="arrowUp.mouseover" end="arrowUp.mouseout"/>
                  </use>
                  <path fill="none" stroke="white" stroke-width="1.5" d="M0,-3.0v7 M-2.5,-0.5L0,-3.0L2.5,-0.5"/>
                </g>
                <g id="arrowRight" xlink:href="#dirArrow" transform="rotate(90) translate(36 -43)" onmousedown="handlePan(1,0)">
                  <use xlink:href="#rim" fill="#404040">
                        <set attributeName="fill" to="#808080" begin="arrowRight.mouseover" end="arrowRight.mouseout"/>
                  </use>
                  <path fill="none" stroke="white" stroke-width="1.5" d="M0,-3.0v7 M-2.5,-0.5L0,-3.0L2.5,-0.5"/>
                </g>
                <g id="arrowDown" xlink:href="#dirArrow" transform="rotate(180) translate(-30 -48)" onmousedown="handlePan(0,1)">
                  <use xlink:href="#rim" fill="#404040">
                        <set attributeName="fill" to="#808080" begin="arrowDown.mouseover" end="arrowDown.mouseout"/>
                  </use>
                  <path fill="none" stroke="white" stroke-width="1.5" d="M0,-3.0v7 M-2.5,-0.5L0,-3.0L2.5,-0.5"/>
                </g>
                <g id="arrowLeft" xlink:href="#dirArrow" transform="rotate(270) translate(-36 17)" onmousedown="handlePan(-1,0)">
                  <use xlink:href="#rim" fill="#404040">
                        <set attributeName="fill" to="#808080" begin="arrowLeft.mouseover" end="arrowLeft.mouseout"/>
                  </use>
                  <path fill="none" stroke="white" stroke-width="1.5" d="M0,-3.0v7 M-2.5,-0.5L0,-3.0L2.5,-0.5"/>
                </g>
        </g>
        <svg viewBox="0 0 15 15" width="100%" height="30px" preserveAspectRatio="xMaxYMin meet">
         <g id="arrow_out" transform="scale(0.3 0.3)">
          <a xlink:href="interface_volume_control_1_1_log_1_1_interfaces_1_1_i_endpoint_writer__inherit__graph_org.svg" target="_base">
           <rect id="button" ry="5" rx="5" y="6" x="6" height="38" width="38"
                fill="#f2f5e9" fill-opacity="0.5" stroke="#606060" stroke-width="1.0"/>
           <path id="arrow"
             d="M 11.500037,31.436501 C 11.940474,20.09759 22.043105,11.32322 32.158766,21.979434 L 37.068811,17.246167 C 37.068811,17.246167 37.088388,32 37.088388,32 L 22.160133,31.978069 C 22.160133,31.978069 26.997745,27.140456 26.997745,27.140456 C 18.528582,18.264221 13.291696,25.230495 11.500037,31.436501 z"
             style="fill:#404040;"/>
          </a>
         </g>
        </svg>
</svg>
