<?xml version="1.0" encoding="UTF-8" standalone="no"?>
<!DOCTYPE svg PUBLIC "-//W3C//DTD SVG 1.1//EN"
 "http://www.w3.org/Graphics/SVG/1.1/DTD/svg11.dtd">
<!-- Generated by graphviz version 2.43.0 (0)
 -->
<!-- Title: VolumeControl.Audio.Interfaces.ISession Pages: 1 -->
<svg width="301pt" height="309pt"
 viewBox="0.00 0.00 300.50 309.00" xmlns="http://www.w3.org/2000/svg" xmlns:xlink="http://www.w3.org/1999/xlink">
<g id="graph0" class="graph" transform="scale(1 1) rotate(0) translate(4 305)">
<title>VolumeControl.Audio.Interfaces.ISession</title>
<!-- Node1 -->
<g id="node1" class="node">
<title>Node1</title>
<g id="a_node1"><a xlink:title="Represents an audio session.">
<polygon fill="#bfbfbf" stroke="black" points="0,-0.5 0,-90.5 174,-90.5 174,-0.5 0,-0.5"/>
<text text-anchor="start" x="8" y="-78.5" font-family="Helvetica,sans-Serif" font-size="10.00">VolumeControl.Audio.Interfaces.</text>
<text text-anchor="middle" x="87" y="-67.5" font-family="Helvetica,sans-Serif" font-size="10.00">ISession</text>
<polyline fill="none" stroke="black" points="0,-60.5 174,-60.5 "/>
<text text-anchor="start" x="8" y="-48.5" font-family="Helvetica,sans-Serif" font-size="10.00">+ Volume</text>
<text text-anchor="start" x="8" y="-37.5" font-family="Helvetica,sans-Serif" font-size="10.00">+ NativeVolume</text>
<text text-anchor="start" x="8" y="-26.5" font-family="Helvetica,sans-Serif" font-size="10.00">+ Muted</text>
<polyline fill="none" stroke="black" points="0,-19.5 174,-19.5 "/>
<text text-anchor="middle" x="87" y="-7.5" font-family="Helvetica,sans-Serif" font-size="10.00"> </text>
</a>
</g>
</g>
<!-- Node2 -->
<g id="node2" class="node">
<title>Node2</title>
<g id="a_node2"><a xlink:href="interface_volume_control_1_1_audio_1_1_interfaces_1_1_i_process.html" target="_top" xlink:title="Represents read&#45;only information about a process running on the local system.">
<polygon fill="none" stroke="black" points="32.5,-127.5 32.5,-206.5 141.5,-206.5 141.5,-127.5 32.5,-127.5"/>
<text text-anchor="middle" x="87" y="-194.5" font-family="Helvetica,sans-Serif" font-size="10.00">IProcess</text>
<polyline fill="none" stroke="black" points="32.5,-187.5 141.5,-187.5 "/>
<text text-anchor="start" x="40.5" y="-175.5" font-family="Helvetica,sans-Serif" font-size="10.00">+ ProcessName</text>
<text text-anchor="start" x="40.5" y="-164.5" font-family="Helvetica,sans-Serif" font-size="10.00">+ PID</text>
<text text-anchor="start" x="40.5" y="-153.5" font-family="Helvetica,sans-Serif" font-size="10.00">+ ProcessIdentifier</text>
<polyline fill="none" stroke="black" points="32.5,-146.5 141.5,-146.5 "/>
<text text-anchor="middle" x="87" y="-134.5" font-family="Helvetica,sans-Serif" font-size="10.00"> </text>
</a>
</g>
</g>
<!-- Node2&#45;&gt;Node1 -->
<g id="edge1" class="edge">
<title>Node2&#45;&gt;Node1</title>
<path fill="none" stroke="midnightblue" d="M87,-117.19C87,-108.49 87,-99.48 87,-90.91"/>
<polygon fill="none" stroke="midnightblue" points="83.5,-117.2 87,-127.2 90.5,-117.2 83.5,-117.2"/>
</g>
<!-- Node3 -->
<g id="node3" class="node">
<title>Node3</title>
<g id="a_node3"><a xlink:href="interface_volume_control_1_1_audio_1_1_interfaces_1_1_i_targetable.html" target="_top" xlink:title="Base interface type for IDevice and IProcess/ISession.">
<polygon fill="none" stroke="black" points="9.5,-243.5 9.5,-300.5 80.5,-300.5 80.5,-243.5 9.5,-243.5"/>
<text text-anchor="middle" x="45" y="-288.5" font-family="Helvetica,sans-Serif" font-size="10.00">ITargetable</text>
<polyline fill="none" stroke="black" points="9.5,-281.5 80.5,-281.5 "/>
<text text-anchor="middle" x="45" y="-269.5" font-family="Helvetica,sans-Serif" font-size="10.00"> </text>
<polyline fill="none" stroke="black" points="9.5,-262.5 80.5,-262.5 "/>
<text text-anchor="middle" x="45" y="-250.5" font-family="Helvetica,sans-Serif" font-size="10.00"> </text>
</a>
</g>
</g>
<!-- Node3&#45;&gt;Node1 -->
<g id="edge3" class="edge">
<title>Node3&#45;&gt;Node1</title>
<path fill="none" stroke="midnightblue" d="M29.75,-233.94C19.81,-204.31 10.76,-162.07 23,-127 27.47,-114.19 34.93,-101.89 43.21,-90.93"/>
<polygon fill="none" stroke="midnightblue" points="26.49,-235.22 33.12,-243.48 33.08,-232.88 26.49,-235.22"/>
</g>
<!-- Node3&#45;&gt;Node2 -->
<g id="edge2" class="edge">
<title>Node3&#45;&gt;Node2</title>
<path fill="none" stroke="midnightblue" d="M60.08,-234.01C63.72,-225.08 67.62,-215.52 71.29,-206.52"/>
<polygon fill="none" stroke="midnightblue" points="56.79,-232.82 56.26,-243.4 63.27,-235.46 56.79,-232.82"/>
</g>
<!-- Node4 -->
<g id="node4" class="node">
<title>Node4</title>
<g id="a_node4"><a xlink:title=" ">
<polygon fill="none" stroke="#bfbfbf" points="159.5,-138.5 159.5,-195.5 292.5,-195.5 292.5,-138.5 159.5,-138.5"/>
<text text-anchor="middle" x="226" y="-183.5" font-family="Helvetica,sans-Serif" font-size="10.00">INotifyPropertyChanged</text>
<polyline fill="none" stroke="#bfbfbf" points="159.5,-176.5 292.5,-176.5 "/>
<text text-anchor="middle" x="226" y="-164.5" font-family="Helvetica,sans-Serif" font-size="10.00"> </text>
<polyline fill="none" stroke="#bfbfbf" points="159.5,-157.5 292.5,-157.5 "/>
<text text-anchor="middle" x="226" y="-145.5" font-family="Helvetica,sans-Serif" font-size="10.00"> </text>
</a>
</g>
</g>
<!-- Node4&#45;&gt;Node1 -->
<g id="edge4" class="edge">
<title>Node4&#45;&gt;Node1</title>
<path fill="none" stroke="midnightblue" d="M185.79,-131.43C170.99,-118.71 154.03,-104.13 138.39,-90.68"/>
<polygon fill="none" stroke="midnightblue" points="183.9,-134.42 193.76,-138.28 188.46,-129.11 183.9,-134.42"/>
</g>
</g>
</svg>
