<?xml version="1.0" encoding="UTF-8" standalone="no"?>
<!DOCTYPE svg PUBLIC "-//W3C//DTD SVG 1.1//EN"
 "http://www.w3.org/Graphics/SVG/1.1/DTD/svg11.dtd">
<!-- Generated by graphviz version 2.43.0 (0)
 -->
<!-- Title: VolumeControl.Core.Keyboard.IBindableHotkey Pages: 1 -->
<svg width="234pt" height="568pt"
 viewBox="0.00 0.00 233.50 568.00" xmlns="http://www.w3.org/2000/svg" xmlns:xlink="http://www.w3.org/1999/xlink">
<g id="graph0" class="graph" transform="scale(1 1) rotate(0) translate(4 564)">
<title>VolumeControl.Core.Keyboard.IBindableHotkey</title>
<!-- Node1 -->
<g id="node1" class="node">
<title>Node1</title>
<g id="a_node1"><a xlink:title="Represents a BindableHotkey.">
<polygon fill="#bfbfbf" stroke="black" points="44.5,-259.5 44.5,-338.5 210.5,-338.5 210.5,-259.5 44.5,-259.5"/>
<text text-anchor="start" x="52.5" y="-326.5" font-family="Helvetica,sans-Serif" font-size="10.00">VolumeControl.Core.Keyboard.</text>
<text text-anchor="middle" x="127.5" y="-315.5" font-family="Helvetica,sans-Serif" font-size="10.00">IBindableHotkey</text>
<polyline fill="none" stroke="black" points="44.5,-308.5 210.5,-308.5 "/>
<text text-anchor="start" x="52.5" y="-296.5" font-family="Helvetica,sans-Serif" font-size="10.00">+ Name</text>
<text text-anchor="start" x="52.5" y="-285.5" font-family="Helvetica,sans-Serif" font-size="10.00">+ Action</text>
<polyline fill="none" stroke="black" points="44.5,-278.5 210.5,-278.5 "/>
<text text-anchor="middle" x="127.5" y="-266.5" font-family="Helvetica,sans-Serif" font-size="10.00"> </text>
</a>
</g>
</g>
<!-- Node5 -->
<g id="node5" class="node">
<title>Node5</title>
<g id="a_node5"><a xlink:href="class_volume_control_1_1_core_1_1_keyboard_1_1_bindable_hotkey.html" target="_top" xlink:title="A hotkey view model instance.">
<polygon fill="none" stroke="black" points="44.5,-0.5 44.5,-222.5 210.5,-222.5 210.5,-0.5 44.5,-0.5"/>
<text text-anchor="start" x="52.5" y="-210.5" font-family="Helvetica,sans-Serif" font-size="10.00">VolumeControl.Core.Keyboard.</text>
<text text-anchor="middle" x="127.5" y="-199.5" font-family="Helvetica,sans-Serif" font-size="10.00">BindableHotkey</text>
<polyline fill="none" stroke="black" points="44.5,-192.5 210.5,-192.5 "/>
<text text-anchor="start" x="52.5" y="-180.5" font-family="Helvetica,sans-Serif" font-size="10.00">+ ID</text>
<text text-anchor="start" x="52.5" y="-169.5" font-family="Helvetica,sans-Serif" font-size="10.00">+ Valid</text>
<text text-anchor="start" x="52.5" y="-158.5" font-family="Helvetica,sans-Serif" font-size="10.00">+ Hotkey</text>
<text text-anchor="start" x="52.5" y="-147.5" font-family="Helvetica,sans-Serif" font-size="10.00">+ Key</text>
<text text-anchor="start" x="52.5" y="-136.5" font-family="Helvetica,sans-Serif" font-size="10.00">+ Modifier</text>
<text text-anchor="start" x="52.5" y="-125.5" font-family="Helvetica,sans-Serif" font-size="10.00">+ Registered</text>
<text text-anchor="start" x="52.5" y="-114.5" font-family="Helvetica,sans-Serif" font-size="10.00">+ Alt</text>
<text text-anchor="start" x="52.5" y="-103.5" font-family="Helvetica,sans-Serif" font-size="10.00">+ Ctrl</text>
<text text-anchor="start" x="52.5" y="-92.5" font-family="Helvetica,sans-Serif" font-size="10.00">+ Shift</text>
<text text-anchor="start" x="52.5" y="-81.5" font-family="Helvetica,sans-Serif" font-size="10.00">+ Win</text>
<text text-anchor="start" x="52.5" y="-70.5" font-family="Helvetica,sans-Serif" font-size="10.00">+ Action</text>
<text text-anchor="start" x="52.5" y="-59.5" font-family="Helvetica,sans-Serif" font-size="10.00">+ Name</text>
<text text-anchor="start" x="52.5" y="-48.5" font-family="Helvetica,sans-Serif" font-size="10.00">+ Pressed</text>
<polyline fill="none" stroke="black" points="44.5,-41.5 210.5,-41.5 "/>
<text text-anchor="start" x="52.5" y="-29.5" font-family="Helvetica,sans-Serif" font-size="10.00">+ BindableHotkey()</text>
<text text-anchor="start" x="52.5" y="-18.5" font-family="Helvetica,sans-Serif" font-size="10.00">+ BindableHotkey()</text>
<text text-anchor="start" x="52.5" y="-7.5" font-family="Helvetica,sans-Serif" font-size="10.00">+ Dispose()</text>
</a>
</g>
</g>
<!-- Node1&#45;&gt;Node5 -->
<g id="edge4" class="edge">
<title>Node1&#45;&gt;Node5</title>
<path fill="none" stroke="midnightblue" d="M127.5,-248.99C127.5,-240.72 127.5,-231.85 127.5,-222.75"/>
<polygon fill="none" stroke="midnightblue" points="124,-249.11 127.5,-259.11 131,-249.11 124,-249.11"/>
</g>
<!-- Node2 -->
<g id="node2" class="node">
<title>Node2</title>
<g id="a_node2"><a xlink:href="interface_volume_control_1_1_core_1_1_keyboard_1_1_i_hotkey.html" target="_top" xlink:title="Represents a hotkey instance.">
<polygon fill="none" stroke="black" points="87.5,-375.5 87.5,-465.5 167.5,-465.5 167.5,-375.5 87.5,-375.5"/>
<text text-anchor="middle" x="127.5" y="-453.5" font-family="Helvetica,sans-Serif" font-size="10.00">IHotkey</text>
<polyline fill="none" stroke="black" points="87.5,-446.5 167.5,-446.5 "/>
<text text-anchor="start" x="95.5" y="-434.5" font-family="Helvetica,sans-Serif" font-size="10.00">+ ID</text>
<text text-anchor="start" x="95.5" y="-423.5" font-family="Helvetica,sans-Serif" font-size="10.00">+ Key</text>
<text text-anchor="start" x="95.5" y="-412.5" font-family="Helvetica,sans-Serif" font-size="10.00">+ Modifier</text>
<text text-anchor="start" x="95.5" y="-401.5" font-family="Helvetica,sans-Serif" font-size="10.00">+ Registered</text>
<polyline fill="none" stroke="black" points="87.5,-394.5 167.5,-394.5 "/>
<text text-anchor="middle" x="127.5" y="-382.5" font-family="Helvetica,sans-Serif" font-size="10.00"> </text>
</a>
</g>
</g>
<!-- Node2&#45;&gt;Node1 -->
<g id="edge1" class="edge">
<title>Node2&#45;&gt;Node1</title>
<path fill="none" stroke="midnightblue" d="M127.5,-365.08C127.5,-356.23 127.5,-347.23 127.5,-338.86"/>
<polygon fill="none" stroke="midnightblue" points="124,-365.34 127.5,-375.34 131,-365.34 124,-365.34"/>
</g>
<!-- Node3 -->
<g id="node3" class="node">
<title>Node3</title>
<g id="a_node3"><a xlink:title=" ">
<polygon fill="none" stroke="#bfbfbf" points="0,-502.5 0,-559.5 133,-559.5 133,-502.5 0,-502.5"/>
<text text-anchor="middle" x="66.5" y="-547.5" font-family="Helvetica,sans-Serif" font-size="10.00">INotifyPropertyChanged</text>
<polyline fill="none" stroke="#bfbfbf" points="0,-540.5 133,-540.5 "/>
<text text-anchor="middle" x="66.5" y="-528.5" font-family="Helvetica,sans-Serif" font-size="10.00"> </text>
<polyline fill="none" stroke="#bfbfbf" points="0,-521.5 133,-521.5 "/>
<text text-anchor="middle" x="66.5" y="-509.5" font-family="Helvetica,sans-Serif" font-size="10.00"> </text>
</a>
</g>
</g>
<!-- Node3&#45;&gt;Node2 -->
<g id="edge2" class="edge">
<title>Node3&#45;&gt;Node2</title>
<path fill="none" stroke="midnightblue" d="M87.11,-493.34C92.13,-484.42 97.54,-474.78 102.73,-465.55"/>
<polygon fill="none" stroke="midnightblue" points="83.9,-491.91 82.05,-502.34 90,-495.34 83.9,-491.91"/>
</g>
<!-- Node4 -->
<g id="node4" class="node">
<title>Node4</title>
<g id="a_node4"><a xlink:title=" ">
<polygon fill="none" stroke="#bfbfbf" points="151.5,-502.5 151.5,-559.5 225.5,-559.5 225.5,-502.5 151.5,-502.5"/>
<text text-anchor="middle" x="188.5" y="-547.5" font-family="Helvetica,sans-Serif" font-size="10.00">IDisposable</text>
<polyline fill="none" stroke="#bfbfbf" points="151.5,-540.5 225.5,-540.5 "/>
<text text-anchor="middle" x="188.5" y="-528.5" font-family="Helvetica,sans-Serif" font-size="10.00"> </text>
<polyline fill="none" stroke="#bfbfbf" points="151.5,-521.5 225.5,-521.5 "/>
<text text-anchor="middle" x="188.5" y="-509.5" font-family="Helvetica,sans-Serif" font-size="10.00"> </text>
</a>
</g>
</g>
<!-- Node4&#45;&gt;Node2 -->
<g id="edge3" class="edge">
<title>Node4&#45;&gt;Node2</title>
<path fill="none" stroke="midnightblue" d="M167.89,-493.34C162.87,-484.42 157.46,-474.78 152.27,-465.55"/>
<polygon fill="none" stroke="midnightblue" points="165,-495.34 172.95,-502.34 171.1,-491.91 165,-495.34"/>
</g>
</g>
</svg>
