<?xml version="1.0" encoding="UTF-8" standalone="no"?>
<!DOCTYPE svg PUBLIC "-//W3C//DTD SVG 1.1//EN"
 "http://www.w3.org/Graphics/SVG/1.1/DTD/svg11.dtd">
<!-- Generated by graphviz version 2.43.0 (0)
 -->
<!-- Title: VolumeControl.Audio.Interfaces.ITargetable Pages: 1 -->
<svg width="431pt" height="909pt"
 viewBox="0.00 0.00 431.00 909.00" xmlns="http://www.w3.org/2000/svg" xmlns:xlink="http://www.w3.org/1999/xlink">
<g id="graph0" class="graph" transform="scale(1 1) rotate(0) translate(4 905)">
<title>VolumeControl.Audio.Interfaces.ITargetable</title>
<!-- Node1 -->
<g id="node1" class="node">
<title>Node1</title>
<g id="a_node1"><a xlink:title="Base interface type for IDevice and IProcess/ISession.">
<polygon fill="#bfbfbf" stroke="black" points="192,-832.5 192,-900.5 366,-900.5 366,-832.5 192,-832.5"/>
<text text-anchor="start" x="200" y="-888.5" font-family="Helvetica,sans-Serif" font-size="10.00">VolumeControl.Audio.Interfaces.</text>
<text text-anchor="middle" x="279" y="-877.5" font-family="Helvetica,sans-Serif" font-size="10.00">ITargetable</text>
<polyline fill="none" stroke="black" points="192,-870.5 366,-870.5 "/>
<text text-anchor="middle" x="279" y="-858.5" font-family="Helvetica,sans-Serif" font-size="10.00"> </text>
<polyline fill="none" stroke="black" points="192,-851.5 366,-851.5 "/>
<text text-anchor="middle" x="279" y="-839.5" font-family="Helvetica,sans-Serif" font-size="10.00"> </text>
</a>
</g>
</g>
<!-- Node2 -->
<g id="node2" class="node">
<title>Node2</title>
<g id="a_node2"><a xlink:href="interface_volume_control_1_1_audio_1_1_interfaces_1_1_i_device.html" target="_top" xlink:title="Represents an audio device.">
<polygon fill="none" stroke="black" points="0,-683.5 0,-795.5 174,-795.5 174,-683.5 0,-683.5"/>
<text text-anchor="start" x="8" y="-783.5" font-family="Helvetica,sans-Serif" font-size="10.00">VolumeControl.Audio.Interfaces.</text>
<text text-anchor="middle" x="87" y="-772.5" font-family="Helvetica,sans-Serif" font-size="10.00">IDevice</text>
<polyline fill="none" stroke="black" points="0,-765.5 174,-765.5 "/>
<text text-anchor="start" x="8" y="-753.5" font-family="Helvetica,sans-Serif" font-size="10.00">+ Name</text>
<text text-anchor="start" x="8" y="-742.5" font-family="Helvetica,sans-Serif" font-size="10.00">+ DeviceID</text>
<text text-anchor="start" x="8" y="-731.5" font-family="Helvetica,sans-Serif" font-size="10.00">+ NativeEndpointVolume</text>
<text text-anchor="start" x="8" y="-720.5" font-family="Helvetica,sans-Serif" font-size="10.00">+ EndpointVolume</text>
<text text-anchor="start" x="8" y="-709.5" font-family="Helvetica,sans-Serif" font-size="10.00">+ EndpointMuted</text>
<polyline fill="none" stroke="black" points="0,-702.5 174,-702.5 "/>
<text text-anchor="middle" x="87" y="-690.5" font-family="Helvetica,sans-Serif" font-size="10.00"> </text>
</a>
</g>
</g>
<!-- Node1&#45;&gt;Node2 -->
<g id="edge1" class="edge">
<title>Node1&#45;&gt;Node2</title>
<path fill="none" stroke="midnightblue" d="M219.58,-826.82C204.46,-816.97 187.92,-806.2 171.81,-795.71"/>
<polygon fill="none" stroke="midnightblue" points="218.01,-829.97 228.3,-832.49 221.83,-824.1 218.01,-829.97"/>
</g>
<!-- Node4 -->
<g id="node4" class="node">
<title>Node4</title>
<g id="a_node4"><a xlink:href="interface_volume_control_1_1_audio_1_1_interfaces_1_1_i_process.html" target="_top" xlink:title="Represents read&#45;only information about a process running on the local system.">
<polygon fill="none" stroke="black" points="192,-694.5 192,-784.5 366,-784.5 366,-694.5 192,-694.5"/>
<text text-anchor="start" x="200" y="-772.5" font-family="Helvetica,sans-Serif" font-size="10.00">VolumeControl.Audio.Interfaces.</text>
<text text-anchor="middle" x="279" y="-761.5" font-family="Helvetica,sans-Serif" font-size="10.00">IProcess</text>
<polyline fill="none" stroke="black" points="192,-754.5 366,-754.5 "/>
<text text-anchor="start" x="200" y="-742.5" font-family="Helvetica,sans-Serif" font-size="10.00">+ ProcessName</text>
<text text-anchor="start" x="200" y="-731.5" font-family="Helvetica,sans-Serif" font-size="10.00">+ PID</text>
<text text-anchor="start" x="200" y="-720.5" font-family="Helvetica,sans-Serif" font-size="10.00">+ ProcessIdentifier</text>
<polyline fill="none" stroke="black" points="192,-713.5 366,-713.5 "/>
<text text-anchor="middle" x="279" y="-701.5" font-family="Helvetica,sans-Serif" font-size="10.00"> </text>
</a>
</g>
</g>
<!-- Node1&#45;&gt;Node4 -->
<g id="edge3" class="edge">
<title>Node1&#45;&gt;Node4</title>
<path fill="none" stroke="midnightblue" d="M279,-822.03C279,-809.93 279,-796.79 279,-784.66"/>
<polygon fill="none" stroke="midnightblue" points="275.5,-822.33 279,-832.33 282.5,-822.33 275.5,-822.33"/>
</g>
<!-- Node5 -->
<g id="node5" class="node">
<title>Node5</title>
<g id="a_node5"><a xlink:href="interface_volume_control_1_1_audio_1_1_interfaces_1_1_i_session.html" target="_top" xlink:title="Represents an audio session.">
<polygon fill="none" stroke="black" points="249,-435.5 249,-525.5 423,-525.5 423,-435.5 249,-435.5"/>
<text text-anchor="start" x="257" y="-513.5" font-family="Helvetica,sans-Serif" font-size="10.00">VolumeControl.Audio.Interfaces.</text>
<text text-anchor="middle" x="336" y="-502.5" font-family="Helvetica,sans-Serif" font-size="10.00">ISession</text>
<polyline fill="none" stroke="black" points="249,-495.5 423,-495.5 "/>
<text text-anchor="start" x="257" y="-483.5" font-family="Helvetica,sans-Serif" font-size="10.00">+ Volume</text>
<text text-anchor="start" x="257" y="-472.5" font-family="Helvetica,sans-Serif" font-size="10.00">+ NativeVolume</text>
<text text-anchor="start" x="257" y="-461.5" font-family="Helvetica,sans-Serif" font-size="10.00">+ Muted</text>
<polyline fill="none" stroke="black" points="249,-454.5 423,-454.5 "/>
<text text-anchor="middle" x="336" y="-442.5" font-family="Helvetica,sans-Serif" font-size="10.00"> </text>
</a>
</g>
</g>
<!-- Node1&#45;&gt;Node5 -->
<g id="edge6" class="edge">
<title>Node1&#45;&gt;Node5</title>
<path fill="none" stroke="midnightblue" d="M351.05,-825.64C360.7,-817.15 369.24,-807.28 375,-796 419.85,-708.17 382.77,-589.14 356.51,-525.67"/>
<polygon fill="none" stroke="midnightblue" points="348.62,-823.11 343.11,-832.16 353.06,-828.52 348.62,-823.11"/>
</g>
<!-- Node3 -->
<g id="node3" class="node">
<title>Node3</title>
<g id="a_node3"><a xlink:href="class_volume_control_1_1_audio_1_1_audio_device.html" target="_top" xlink:title="Represents an audio device endpoint.">
<polygon fill="none" stroke="black" points="12,-314.5 12,-646.5 162,-646.5 162,-314.5 12,-314.5"/>
<text text-anchor="start" x="20" y="-634.5" font-family="Helvetica,sans-Serif" font-size="10.00">VolumeControl.Audio.Audio</text>
<text text-anchor="middle" x="87" y="-623.5" font-family="Helvetica,sans-Serif" font-size="10.00">Device</text>
<polyline fill="none" stroke="black" points="12,-616.5 162,-616.5 "/>
<text text-anchor="start" x="20" y="-604.5" font-family="Helvetica,sans-Serif" font-size="10.00">+ Name</text>
<text text-anchor="start" x="20" y="-593.5" font-family="Helvetica,sans-Serif" font-size="10.00">+ DeviceID</text>
<text text-anchor="start" x="20" y="-582.5" font-family="Helvetica,sans-Serif" font-size="10.00">+ InstanceID</text>
<text text-anchor="start" x="20" y="-571.5" font-family="Helvetica,sans-Serif" font-size="10.00">+ IconPath</text>
<text text-anchor="start" x="20" y="-560.5" font-family="Helvetica,sans-Serif" font-size="10.00">+ SmallIcon</text>
<text text-anchor="start" x="20" y="-549.5" font-family="Helvetica,sans-Serif" font-size="10.00">+ LargeIcon</text>
<text text-anchor="start" x="20" y="-538.5" font-family="Helvetica,sans-Serif" font-size="10.00">+ Icon</text>
<text text-anchor="start" x="20" y="-527.5" font-family="Helvetica,sans-Serif" font-size="10.00">+ DeviceFriendlyName</text>
<text text-anchor="start" x="20" y="-516.5" font-family="Helvetica,sans-Serif" font-size="10.00">+ FriendlyName</text>
<text text-anchor="start" x="20" y="-505.5" font-family="Helvetica,sans-Serif" font-size="10.00">+ Properties</text>
<text text-anchor="start" x="20" y="-494.5" font-family="Helvetica,sans-Serif" font-size="10.00">+ State</text>
<text text-anchor="start" x="20" y="-483.5" font-family="Helvetica,sans-Serif" font-size="10.00">+ SessionManager</text>
<text text-anchor="start" x="20" y="-472.5" font-family="Helvetica,sans-Serif" font-size="10.00">+ EndpointVolumeObject</text>
<text text-anchor="start" x="20" y="-461.5" font-family="Helvetica,sans-Serif" font-size="10.00">+ VolumeRange</text>
<text text-anchor="start" x="20" y="-450.5" font-family="Helvetica,sans-Serif" font-size="10.00">+ NativeEndpointVolume</text>
<text text-anchor="start" x="20" y="-439.5" font-family="Helvetica,sans-Serif" font-size="10.00">+ EndpointVolume</text>
<text text-anchor="start" x="20" y="-428.5" font-family="Helvetica,sans-Serif" font-size="10.00">+ EndpointMuted</text>
<text text-anchor="start" x="20" y="-417.5" font-family="Helvetica,sans-Serif" font-size="10.00">+ NotificationGuid</text>
<text text-anchor="start" x="20" y="-406.5" font-family="Helvetica,sans-Serif" font-size="10.00">+ OnVolumeNotification</text>
<text text-anchor="start" x="20" y="-395.5" font-family="Helvetica,sans-Serif" font-size="10.00">~ float</text>
<polyline fill="none" stroke="black" points="12,-388.5 162,-388.5 "/>
<text text-anchor="start" x="20" y="-376.5" font-family="Helvetica,sans-Serif" font-size="10.00">+ AudioDevice()</text>
<text text-anchor="start" x="20" y="-365.5" font-family="Helvetica,sans-Serif" font-size="10.00">+ GetAudioSessions()</text>
<text text-anchor="start" x="20" y="-354.5" font-family="Helvetica,sans-Serif" font-size="10.00">+ Dispose()</text>
<text text-anchor="start" x="20" y="-343.5" font-family="Helvetica,sans-Serif" font-size="10.00">~ ForwardRemoved()</text>
<text text-anchor="start" x="20" y="-332.5" font-family="Helvetica,sans-Serif" font-size="10.00">~ ForwardStateChanged()</text>
<text text-anchor="start" x="20" y="-321.5" font-family="Helvetica,sans-Serif" font-size="10.00">~ NotifyPropertyChanged()</text>
</a>
</g>
</g>
<!-- Node2&#45;&gt;Node3 -->
<g id="edge2" class="edge">
<title>Node2&#45;&gt;Node3</title>
<path fill="none" stroke="midnightblue" d="M87,-673.31C87,-664.86 87,-655.92 87,-646.7"/>
<polygon fill="none" stroke="midnightblue" points="83.5,-673.37 87,-683.37 90.5,-673.37 83.5,-673.37"/>
</g>
<!-- Node4&#45;&gt;Node5 -->
<g id="edge4" class="edge">
<title>Node4&#45;&gt;Node5</title>
<path fill="none" stroke="midnightblue" d="M291.03,-684.27C301.5,-637.06 316.49,-569.47 326.23,-525.53"/>
<polygon fill="none" stroke="midnightblue" points="287.55,-683.8 288.8,-694.32 294.38,-685.32 287.55,-683.8"/>
</g>
<!-- Node6 -->
<g id="node6" class="node">
<title>Node6</title>
<g id="a_node6"><a xlink:href="class_volume_control_1_1_audio_1_1_audio_session.html" target="_top" xlink:title="Represents an audio session playing on the system.">
<polygon fill="none" stroke="black" points="261,-0.5 261,-277.5 411,-277.5 411,-0.5 261,-0.5"/>
<text text-anchor="start" x="269" y="-265.5" font-family="Helvetica,sans-Serif" font-size="10.00">VolumeControl.Audio.Audio</text>
<text text-anchor="middle" x="336" y="-254.5" font-family="Helvetica,sans-Serif" font-size="10.00">Session</text>
<polyline fill="none" stroke="black" points="261,-247.5 411,-247.5 "/>
<text text-anchor="start" x="269" y="-235.5" font-family="Helvetica,sans-Serif" font-size="10.00">+ VolumeController</text>
<text text-anchor="start" x="269" y="-224.5" font-family="Helvetica,sans-Serif" font-size="10.00">+ State</text>
<text text-anchor="start" x="269" y="-213.5" font-family="Helvetica,sans-Serif" font-size="10.00">+ IconPath</text>
<text text-anchor="start" x="269" y="-202.5" font-family="Helvetica,sans-Serif" font-size="10.00">+ SmallIcon</text>
<text text-anchor="start" x="269" y="-191.5" font-family="Helvetica,sans-Serif" font-size="10.00">+ LargeIcon</text>
<text text-anchor="start" x="269" y="-180.5" font-family="Helvetica,sans-Serif" font-size="10.00">+ Icon</text>
<text text-anchor="start" x="269" y="-169.5" font-family="Helvetica,sans-Serif" font-size="10.00">+ ProcessIdentifier</text>
<text text-anchor="start" x="269" y="-158.5" font-family="Helvetica,sans-Serif" font-size="10.00">+ int</text>
<text text-anchor="start" x="269" y="-147.5" font-family="Helvetica,sans-Serif" font-size="10.00">+ Volume</text>
<text text-anchor="start" x="269" y="-136.5" font-family="Helvetica,sans-Serif" font-size="10.00">+ NativeVolume</text>
<text text-anchor="start" x="269" y="-125.5" font-family="Helvetica,sans-Serif" font-size="10.00">+ Muted</text>
<text text-anchor="start" x="269" y="-114.5" font-family="Helvetica,sans-Serif" font-size="10.00">+ GroupingParam</text>
<text text-anchor="start" x="269" y="-103.5" font-family="Helvetica,sans-Serif" font-size="10.00">+ DisplayName</text>
<text text-anchor="start" x="269" y="-92.5" font-family="Helvetica,sans-Serif" font-size="10.00">+ ProcessName</text>
<text text-anchor="start" x="269" y="-81.5" font-family="Helvetica,sans-Serif" font-size="10.00">+ PID</text>
<text text-anchor="start" x="269" y="-70.5" font-family="Helvetica,sans-Serif" font-size="10.00">+ IsRunning</text>
<text text-anchor="start" x="269" y="-59.5" font-family="Helvetica,sans-Serif" font-size="10.00">+ NotificationClient</text>
<polyline fill="none" stroke="black" points="261,-52.5 411,-52.5 "/>
<text text-anchor="start" x="269" y="-40.5" font-family="Helvetica,sans-Serif" font-size="10.00">+ AudioSession()</text>
<text text-anchor="start" x="269" y="-29.5" font-family="Helvetica,sans-Serif" font-size="10.00">+ GetProcess()</text>
<text text-anchor="start" x="269" y="-18.5" font-family="Helvetica,sans-Serif" font-size="10.00">+ Dispose()</text>
<text text-anchor="start" x="269" y="-7.5" font-family="Helvetica,sans-Serif" font-size="10.00">+ Equals()</text>
</a>
</g>
</g>
<!-- Node5&#45;&gt;Node6 -->
<g id="edge5" class="edge">
<title>Node5&#45;&gt;Node6</title>
<path fill="none" stroke="midnightblue" d="M336,-425.43C336,-385.56 336,-329.45 336,-277.52"/>
<polygon fill="none" stroke="midnightblue" points="332.5,-425.46 336,-435.46 339.5,-425.46 332.5,-425.46"/>
</g>
</g>
</svg>
