<?xml version="1.0" encoding="UTF-8" standalone="no"?>
<!DOCTYPE svg PUBLIC "-//W3C//DTD SVG 1.1//EN"
 "http://www.w3.org/Graphics/SVG/1.1/DTD/svg11.dtd">
<!-- Generated by graphviz version 2.44.1 (20200629.0800)
 -->
<!-- Title: VolumeControl.Log.Interfaces.ILogWriter Pages: 1 -->
<svg width="209pt" height="441pt"
 viewBox="0.00 0.00 209.00 441.00" xmlns="http://www.w3.org/2000/svg" xmlns:xlink="http://www.w3.org/1999/xlink">
<g id="graph0" class="graph" transform="scale(1 1) rotate(0) translate(4 437)">
<title>VolumeControl.Log.Interfaces.ILogWriter</title>
<!-- Node1 -->
<g id="node1" class="node">
<title>Node1</title>
<g id="a_node1"><a xlink:title="Represents a log writer object, which is responsible for exposing logging methods,...">
<polygon fill="#bfbfbf" stroke="black" points="5.5,-353.5 5.5,-432.5 152.5,-432.5 152.5,-353.5 5.5,-353.5"/>
<text text-anchor="start" x="13.5" y="-420.5" font-family="Helvetica,sans-Serif" font-size="10.00">VolumeControl.Log.Interfaces.</text>
<text text-anchor="middle" x="79" y="-409.5" font-family="Helvetica,sans-Serif" font-size="10.00">ILogWriter</text>
<polyline fill="none" stroke="black" points="5.5,-402.5 152.5,-402.5 "/>
<text text-anchor="start" x="13.5" y="-390.5" font-family="Helvetica,sans-Serif" font-size="10.00">+ Endpoint</text>
<polyline fill="none" stroke="black" points="5.5,-383.5 152.5,-383.5 "/>
<text text-anchor="start" x="13.5" y="-371.5" font-family="Helvetica,sans-Serif" font-size="10.00">+ MakeTimestamp()</text>
<text text-anchor="start" x="13.5" y="-360.5" font-family="Helvetica,sans-Serif" font-size="10.00">+ FilterEventType()</text>
</a>
</g>
</g>
<!-- Node2 -->
<g id="node2" class="node">
<title>Node2</title>
<g id="a_node2"><a xlink:href="class_volume_control_1_1_log_1_1_log_message.html" target="_top" xlink:title="This is an entirely optional object that maintains an internal MemoryStream and emulates the LogWrite...">
<polygon fill="none" stroke="black" points="0,-0.5 0,-57.5 158,-57.5 158,-0.5 0,-0.5"/>
<text text-anchor="middle" x="79" y="-45.5" font-family="Helvetica,sans-Serif" font-size="10.00">VolumeControl.Log.LogMessage</text>
<polyline fill="none" stroke="black" points="0,-38.5 158,-38.5 "/>
<text text-anchor="middle" x="79" y="-26.5" font-family="Helvetica,sans-Serif" font-size="10.00"> </text>
<polyline fill="none" stroke="black" points="0,-19.5 158,-19.5 "/>
<text text-anchor="start" x="8" y="-7.5" font-family="Helvetica,sans-Serif" font-size="10.00">+ LogMessage()</text>
</a>
</g>
</g>
<!-- Node1&#45;&gt;Node2 -->
<g id="edge1" class="edge">
<title>Node1&#45;&gt;Node2</title>
<path fill="none" stroke="midnightblue" d="M55.9,-343.9C52.63,-335.13 49.77,-325.93 48,-317 28.7,-219.79 25.84,-190.6 48,-94 50.87,-81.49 56.53,-68.58 62.23,-57.66"/>
<polygon fill="none" stroke="midnightblue" points="52.65,-345.2 59.59,-353.21 59.16,-342.62 52.65,-345.2"/>
</g>
<!-- Node3 -->
<g id="node3" class="node">
<title>Node3</title>
<g id="a_node3"><a xlink:href="class_volume_control_1_1_log_1_1_log_writer.html" target="_top" xlink:title="Basic log writer object.">
<polygon fill="none" stroke="black" points="57,-94.5 57,-316.5 201,-316.5 201,-94.5 57,-94.5"/>
<text text-anchor="middle" x="129" y="-304.5" font-family="Helvetica,sans-Serif" font-size="10.00">VolumeControl.Log.LogWriter</text>
<polyline fill="none" stroke="black" points="57,-297.5 201,-297.5 "/>
<text text-anchor="start" x="65" y="-285.5" font-family="Helvetica,sans-Serif" font-size="10.00">+ Endpoint</text>
<text text-anchor="start" x="65" y="-274.5" font-family="Helvetica,sans-Serif" font-size="10.00">+ EventTypeFilter</text>
<text text-anchor="start" x="65" y="-263.5" font-family="Helvetica,sans-Serif" font-size="10.00">+ LastEventType</text>
<polyline fill="none" stroke="black" points="57,-256.5 201,-256.5 "/>
<text text-anchor="start" x="65" y="-244.5" font-family="Helvetica,sans-Serif" font-size="10.00">+ LogWriter()</text>
<text text-anchor="start" x="65" y="-233.5" font-family="Helvetica,sans-Serif" font-size="10.00">+ FilterEventType()</text>
<text text-anchor="start" x="65" y="-222.5" font-family="Helvetica,sans-Serif" font-size="10.00">+ MakeTimestamp()</text>
<text text-anchor="start" x="65" y="-211.5" font-family="Helvetica,sans-Serif" font-size="10.00">+ Write()</text>
<text text-anchor="start" x="65" y="-200.5" font-family="Helvetica,sans-Serif" font-size="10.00">+ WriteLine()</text>
<text text-anchor="start" x="65" y="-189.5" font-family="Helvetica,sans-Serif" font-size="10.00">+ GetMessage()</text>
<text text-anchor="start" x="65" y="-178.5" font-family="Helvetica,sans-Serif" font-size="10.00">+ WriteWithTimestamp()</text>
<text text-anchor="start" x="65" y="-167.5" font-family="Helvetica,sans-Serif" font-size="10.00">+ WriteWithTimestamp()</text>
<text text-anchor="start" x="65" y="-156.5" font-family="Helvetica,sans-Serif" font-size="10.00">+ Conditional()</text>
<text text-anchor="start" x="65" y="-145.5" font-family="Helvetica,sans-Serif" font-size="10.00">+ WriteMessage()</text>
<text text-anchor="start" x="65" y="-134.5" font-family="Helvetica,sans-Serif" font-size="10.00">and 19 more...</text>
<text text-anchor="start" x="65" y="-123.5" font-family="Helvetica,sans-Serif" font-size="10.00">+ MakeBlankTimestamp()</text>
<text text-anchor="start" x="65" y="-112.5" font-family="Helvetica,sans-Serif" font-size="10.00">+ GetTrace()</text>
<text text-anchor="start" x="65" y="-101.5" font-family="Helvetica,sans-Serif" font-size="10.00"># Dispose()</text>
</a>
</g>
</g>
<!-- Node1&#45;&gt;Node3 -->
<g id="edge2" class="edge">
<title>Node1&#45;&gt;Node3</title>
<path fill="none" stroke="midnightblue" d="M92.14,-343.27C94.39,-334.92 96.8,-325.96 99.28,-316.75"/>
<polygon fill="none" stroke="midnightblue" points="88.7,-342.55 89.48,-353.11 95.46,-344.37 88.7,-342.55"/>
</g>
<!-- Node3&#45;&gt;Node2 -->
<g id="edge3" class="edge">
<title>Node3&#45;&gt;Node2</title>
<path fill="none" stroke="midnightblue" d="M94.72,-84.85C91.89,-74.98 89.25,-65.77 86.97,-57.81"/>
<polygon fill="none" stroke="midnightblue" points="91.36,-85.83 97.48,-94.48 98.09,-83.9 91.36,-85.83"/>
</g>
</g>
</svg>
