<?xml version="1.0" encoding="UTF-8" standalone="no"?>
<!DOCTYPE svg PUBLIC "-//W3C//DTD SVG 1.1//EN"
 "http://www.w3.org/Graphics/SVG/1.1/DTD/svg11.dtd">
<!-- Generated by graphviz version 2.43.0 (0)
 -->
<!-- Title: VolumeControl.Audio.Interfaces.IVolumeControl Pages: 1 -->
<svg width="567pt" height="1515pt"
 viewBox="0.00 0.00 567.00 1515.00" xmlns="http://www.w3.org/2000/svg" xmlns:xlink="http://www.w3.org/1999/xlink">
<g id="graph0" class="graph" transform="scale(1 1) rotate(0) translate(4 1511)">
<title>VolumeControl.Audio.Interfaces.IVolumeControl</title>
<!-- Node1 -->
<g id="node1" class="node">
<title>Node1</title>
<g id="a_node1"><a xlink:title="Represents some kind of controllable audio playback instance.">
<polygon fill="#bfbfbf" stroke="black" points="385,-1278.5 385,-1390.5 559,-1390.5 559,-1278.5 385,-1278.5"/>
<text text-anchor="start" x="393" y="-1378.5" font-family="Helvetica,sans-Serif" font-size="10.00">VolumeControl.Audio.Interfaces.</text>
<text text-anchor="middle" x="472" y="-1367.5" font-family="Helvetica,sans-Serif" font-size="10.00">IVolumeControl</text>
<polyline fill="none" stroke="black" points="385,-1360.5 559,-1360.5 "/>
<text text-anchor="start" x="393" y="-1348.5" font-family="Helvetica,sans-Serif" font-size="10.00">+ PeakMeterValue</text>
<text text-anchor="start" x="393" y="-1337.5" font-family="Helvetica,sans-Serif" font-size="10.00">+ NativeVolume</text>
<text text-anchor="start" x="393" y="-1326.5" font-family="Helvetica,sans-Serif" font-size="10.00">+ Volume</text>
<text text-anchor="start" x="393" y="-1315.5" font-family="Helvetica,sans-Serif" font-size="10.00">+ Muted</text>
<polyline fill="none" stroke="black" points="385,-1308.5 559,-1308.5 "/>
<text text-anchor="start" x="393" y="-1296.5" font-family="Helvetica,sans-Serif" font-size="10.00">~ MakeListDisplayableControl</text>
<text text-anchor="start" x="393" y="-1285.5" font-family="Helvetica,sans-Serif" font-size="10.00">Template()</text>
</a>
</g>
</g>
<!-- Node3 -->
<g id="node3" class="node">
<title>Node3</title>
<g id="a_node3"><a xlink:href="class_volume_control_1_1_audio_1_1_audio_device.html" target="_top" xlink:title="Represents an audio device endpoint. Note that this object cannot be constructed externally....">
<polygon fill="none" stroke="black" points="282,-479.5 282,-998.5 466,-998.5 466,-479.5 282,-479.5"/>
<text text-anchor="start" x="290" y="-986.5" font-family="Helvetica,sans-Serif" font-size="10.00">VolumeControl.Audio.Audio</text>
<text text-anchor="middle" x="374" y="-975.5" font-family="Helvetica,sans-Serif" font-size="10.00">Device</text>
<polyline fill="none" stroke="black" points="282,-968.5 466,-968.5 "/>
<text text-anchor="start" x="290" y="-956.5" font-family="Helvetica,sans-Serif" font-size="10.00">+ AudioMeterInformation</text>
<text text-anchor="start" x="290" y="-945.5" font-family="Helvetica,sans-Serif" font-size="10.00">+ PeakMeterValue</text>
<text text-anchor="start" x="290" y="-934.5" font-family="Helvetica,sans-Serif" font-size="10.00">+ InterfaceName</text>
<text text-anchor="start" x="290" y="-923.5" font-family="Helvetica,sans-Serif" font-size="10.00">+ InstanceID</text>
<text text-anchor="start" x="290" y="-912.5" font-family="Helvetica,sans-Serif" font-size="10.00">+ IconPath</text>
<text text-anchor="start" x="290" y="-901.5" font-family="Helvetica,sans-Serif" font-size="10.00">+ Icon</text>
<text text-anchor="start" x="290" y="-890.5" font-family="Helvetica,sans-Serif" font-size="10.00">+ DeviceFriendlyName</text>
<text text-anchor="start" x="290" y="-879.5" font-family="Helvetica,sans-Serif" font-size="10.00">+ FriendlyName</text>
<text text-anchor="start" x="290" y="-868.5" font-family="Helvetica,sans-Serif" font-size="10.00">+ Properties</text>
<text text-anchor="start" x="290" y="-857.5" font-family="Helvetica,sans-Serif" font-size="10.00">+ State</text>
<text text-anchor="start" x="290" y="-846.5" font-family="Helvetica,sans-Serif" font-size="10.00">and 8 more...</text>
<text text-anchor="start" x="290" y="-835.5" font-family="Helvetica,sans-Serif" font-size="10.00">+ MMDevice</text>
<text text-anchor="start" x="290" y="-824.5" font-family="Helvetica,sans-Serif" font-size="10.00">+ Enabled</text>
<text text-anchor="start" x="290" y="-813.5" font-family="Helvetica,sans-Serif" font-size="10.00">+ Name</text>
<text text-anchor="start" x="290" y="-802.5" font-family="Helvetica,sans-Serif" font-size="10.00">+ DeviceID</text>
<text text-anchor="start" x="290" y="-791.5" font-family="Helvetica,sans-Serif" font-size="10.00">+ Icons</text>
<text text-anchor="start" x="290" y="-780.5" font-family="Helvetica,sans-Serif" font-size="10.00">+ EndpointVolumeObject</text>
<text text-anchor="start" x="290" y="-769.5" font-family="Helvetica,sans-Serif" font-size="10.00">+ NativeVolume</text>
<text text-anchor="start" x="290" y="-758.5" font-family="Helvetica,sans-Serif" font-size="10.00">+ Volume</text>
<text text-anchor="start" x="290" y="-747.5" font-family="Helvetica,sans-Serif" font-size="10.00">+ Muted</text>
<text text-anchor="start" x="290" y="-736.5" font-family="Helvetica,sans-Serif" font-size="10.00">+ DisplayText</text>
<text text-anchor="start" x="290" y="-725.5" font-family="Helvetica,sans-Serif" font-size="10.00">+ Sessions</text>
<text text-anchor="start" x="290" y="-714.5" font-family="Helvetica,sans-Serif" font-size="10.00">+ this[int index]</text>
<text text-anchor="start" x="290" y="-703.5" font-family="Helvetica,sans-Serif" font-size="10.00">+ this[int index]</text>
<text text-anchor="start" x="290" y="-692.5" font-family="Helvetica,sans-Serif" font-size="10.00">+ CollectionChanged</text>
<polyline fill="none" stroke="black" points="282,-685.5 466,-685.5 "/>
<text text-anchor="start" x="290" y="-673.5" font-family="Helvetica,sans-Serif" font-size="10.00">+ GetDeviceName()</text>
<text text-anchor="start" x="290" y="-662.5" font-family="Helvetica,sans-Serif" font-size="10.00">+ FindAll()</text>
<text text-anchor="start" x="290" y="-651.5" font-family="Helvetica,sans-Serif" font-size="10.00">+ GetIcons()</text>
<text text-anchor="start" x="290" y="-640.5" font-family="Helvetica,sans-Serif" font-size="10.00">+ Dispose()</text>
<text text-anchor="start" x="290" y="-629.5" font-family="Helvetica,sans-Serif" font-size="10.00">+ Equals()</text>
<text text-anchor="start" x="290" y="-618.5" font-family="Helvetica,sans-Serif" font-size="10.00">+ Equals()</text>
<text text-anchor="start" x="290" y="-607.5" font-family="Helvetica,sans-Serif" font-size="10.00">+ Equals()</text>
<text text-anchor="start" x="290" y="-596.5" font-family="Helvetica,sans-Serif" font-size="10.00">+ GetHashCode()</text>
<text text-anchor="start" x="290" y="-585.5" font-family="Helvetica,sans-Serif" font-size="10.00">+ Add()</text>
<text text-anchor="start" x="290" y="-574.5" font-family="Helvetica,sans-Serif" font-size="10.00">+ Clear()</text>
<text text-anchor="start" x="290" y="-563.5" font-family="Helvetica,sans-Serif" font-size="10.00">and 23 more...</text>
<text text-anchor="start" x="290" y="-552.5" font-family="Helvetica,sans-Serif" font-size="10.00">~ AudioDevice()</text>
<text text-anchor="start" x="290" y="-541.5" font-family="Helvetica,sans-Serif" font-size="10.00">~ ForwardPropertyStoreChanged()</text>
<text text-anchor="start" x="290" y="-530.5" font-family="Helvetica,sans-Serif" font-size="10.00">~ ForwardRemoved()</text>
<text text-anchor="start" x="290" y="-519.5" font-family="Helvetica,sans-Serif" font-size="10.00">~ ForwardStateChanged()</text>
<text text-anchor="start" x="290" y="-508.5" font-family="Helvetica,sans-Serif" font-size="10.00">~ ForwardVolumeChanged()</text>
<text text-anchor="start" x="290" y="-497.5" font-family="Helvetica,sans-Serif" font-size="10.00">~ ReloadSessions()</text>
<text text-anchor="start" x="290" y="-486.5" font-family="Helvetica,sans-Serif" font-size="10.00">~ GetAudioSessions()</text>
</a>
</g>
</g>
<!-- Node1&#45;&gt;Node3 -->
<g id="edge2" class="edge">
<title>Node1&#45;&gt;Node3</title>
<path fill="none" stroke="midnightblue" d="M471.55,-1268.18C470.26,-1207.42 466.05,-1114.56 453,-1035 451.05,-1023.1 448.82,-1010.98 446.38,-998.78"/>
<polygon fill="none" stroke="midnightblue" points="468.06,-1268.46 471.75,-1278.39 475.06,-1268.33 468.06,-1268.46"/>
</g>
<!-- Node4 -->
<g id="node4" class="node">
<title>Node4</title>
<g id="a_node4"><a xlink:href="class_volume_control_1_1_audio_1_1_audio_session.html" target="_top" xlink:title="Represents an audio session playing on the system.">
<polygon fill="none" stroke="black" points="127,-0.5 127,-442.5 277,-442.5 277,-0.5 127,-0.5"/>
<text text-anchor="start" x="135" y="-430.5" font-family="Helvetica,sans-Serif" font-size="10.00">VolumeControl.Audio.Audio</text>
<text text-anchor="middle" x="202" y="-419.5" font-family="Helvetica,sans-Serif" font-size="10.00">Session</text>
<polyline fill="none" stroke="black" points="127,-412.5 277,-412.5 "/>
<text text-anchor="start" x="135" y="-400.5" font-family="Helvetica,sans-Serif" font-size="10.00">+ AudioMeterInformation</text>
<text text-anchor="start" x="135" y="-389.5" font-family="Helvetica,sans-Serif" font-size="10.00">+ PeakMeterValue</text>
<text text-anchor="start" x="135" y="-378.5" font-family="Helvetica,sans-Serif" font-size="10.00">+ HashCode</text>
<text text-anchor="start" x="135" y="-367.5" font-family="Helvetica,sans-Serif" font-size="10.00">+ VolumeController</text>
<text text-anchor="start" x="135" y="-356.5" font-family="Helvetica,sans-Serif" font-size="10.00">+ State</text>
<text text-anchor="start" x="135" y="-345.5" font-family="Helvetica,sans-Serif" font-size="10.00">+ IconPath</text>
<text text-anchor="start" x="135" y="-334.5" font-family="Helvetica,sans-Serif" font-size="10.00">+ Icon</text>
<text text-anchor="start" x="135" y="-323.5" font-family="Helvetica,sans-Serif" font-size="10.00">+ ProcessIdentifier</text>
<text text-anchor="start" x="135" y="-312.5" font-family="Helvetica,sans-Serif" font-size="10.00">+ Active</text>
<text text-anchor="start" x="135" y="-301.5" font-family="Helvetica,sans-Serif" font-size="10.00">+ DisplayControls</text>
<text text-anchor="start" x="135" y="-290.5" font-family="Helvetica,sans-Serif" font-size="10.00">+ DisplayIcon</text>
<text text-anchor="start" x="135" y="-279.5" font-family="Helvetica,sans-Serif" font-size="10.00">+ int</text>
<text text-anchor="start" x="135" y="-268.5" font-family="Helvetica,sans-Serif" font-size="10.00">+ SessionIdentifier</text>
<text text-anchor="start" x="135" y="-257.5" font-family="Helvetica,sans-Serif" font-size="10.00">+ SessionInstanceIdentifier</text>
<text text-anchor="start" x="135" y="-246.5" font-family="Helvetica,sans-Serif" font-size="10.00">+ Icons</text>
<text text-anchor="start" x="135" y="-235.5" font-family="Helvetica,sans-Serif" font-size="10.00">+ Volume</text>
<text text-anchor="start" x="135" y="-224.5" font-family="Helvetica,sans-Serif" font-size="10.00">+ NativeVolume</text>
<text text-anchor="start" x="135" y="-213.5" font-family="Helvetica,sans-Serif" font-size="10.00">+ Muted</text>
<text text-anchor="start" x="135" y="-202.5" font-family="Helvetica,sans-Serif" font-size="10.00">+ GroupingParam</text>
<text text-anchor="start" x="135" y="-191.5" font-family="Helvetica,sans-Serif" font-size="10.00">+ DisplayName</text>
<text text-anchor="start" x="135" y="-180.5" font-family="Helvetica,sans-Serif" font-size="10.00">+ ProcessName</text>
<text text-anchor="start" x="135" y="-169.5" font-family="Helvetica,sans-Serif" font-size="10.00">+ PID</text>
<text text-anchor="start" x="135" y="-158.5" font-family="Helvetica,sans-Serif" font-size="10.00">+ IsRunning</text>
<text text-anchor="start" x="135" y="-147.5" font-family="Helvetica,sans-Serif" font-size="10.00">+ NotificationClient</text>
<text text-anchor="start" x="135" y="-136.5" font-family="Helvetica,sans-Serif" font-size="10.00">+ Process</text>
<text text-anchor="start" x="135" y="-125.5" font-family="Helvetica,sans-Serif" font-size="10.00">+ Name</text>
<text text-anchor="start" x="135" y="-114.5" font-family="Helvetica,sans-Serif" font-size="10.00">+ DisplayText</text>
<polyline fill="none" stroke="black" points="127,-107.5 277,-107.5 "/>
<text text-anchor="start" x="135" y="-95.5" font-family="Helvetica,sans-Serif" font-size="10.00">+ GetIcons()</text>
<text text-anchor="start" x="135" y="-84.5" font-family="Helvetica,sans-Serif" font-size="10.00">+ GetProcess()</text>
<text text-anchor="start" x="135" y="-73.5" font-family="Helvetica,sans-Serif" font-size="10.00">+ Dispose()</text>
<text text-anchor="start" x="135" y="-62.5" font-family="Helvetica,sans-Serif" font-size="10.00">+ Equals()</text>
<text text-anchor="start" x="135" y="-51.5" font-family="Helvetica,sans-Serif" font-size="10.00">+ Equals()</text>
<text text-anchor="start" x="135" y="-40.5" font-family="Helvetica,sans-Serif" font-size="10.00">+ Equals()</text>
<text text-anchor="start" x="135" y="-29.5" font-family="Helvetica,sans-Serif" font-size="10.00">+ GetHashCode()</text>
<text text-anchor="start" x="135" y="-18.5" font-family="Helvetica,sans-Serif" font-size="10.00">~ AudioSession()</text>
<text text-anchor="start" x="135" y="-7.5" font-family="Helvetica,sans-Serif" font-size="10.00">~ NotifyExited()</text>
</a>
</g>
</g>
<!-- Node1&#45;&gt;Node4 -->
<g id="edge3" class="edge">
<title>Node1&#45;&gt;Node4</title>
<path fill="none" stroke="midnightblue" d="M489.32,-1268.58C525.2,-1120.81 594.8,-751.08 475,-479 434.45,-386.89 343.16,-312.41 277.3,-267.91"/>
<polygon fill="none" stroke="midnightblue" points="485.89,-1267.87 486.9,-1278.41 492.69,-1269.54 485.89,-1267.87"/>
</g>
<!-- Node5 -->
<g id="node5" class="node">
<title>Node5</title>
<g id="a_node5"><a xlink:href="interface_volume_control_1_1_audio_1_1_interfaces_1_1_i_audio_control.html" target="_top" xlink:title="Base interface type for IDevice and IProcess/ISession.">
<polygon fill="none" stroke="black" points="174,-1173.5 174,-1241.5 348,-1241.5 348,-1173.5 174,-1173.5"/>
<text text-anchor="start" x="182" y="-1229.5" font-family="Helvetica,sans-Serif" font-size="10.00">VolumeControl.Audio.Interfaces.</text>
<text text-anchor="middle" x="261" y="-1218.5" font-family="Helvetica,sans-Serif" font-size="10.00">IAudioControl</text>
<polyline fill="none" stroke="black" points="174,-1211.5 348,-1211.5 "/>
<text text-anchor="start" x="182" y="-1199.5" font-family="Helvetica,sans-Serif" font-size="10.00">+ AudioMeterInformation</text>
<polyline fill="none" stroke="black" points="174,-1192.5 348,-1192.5 "/>
<text text-anchor="middle" x="261" y="-1180.5" font-family="Helvetica,sans-Serif" font-size="10.00"> </text>
</a>
</g>
</g>
<!-- Node1&#45;&gt;Node5 -->
<g id="edge4" class="edge">
<title>Node1&#45;&gt;Node5</title>
<path fill="none" stroke="midnightblue" d="M376.27,-1276.79C355.9,-1264.72 335.05,-1252.37 316.77,-1241.54"/>
<polygon fill="none" stroke="midnightblue" points="374.57,-1279.85 384.96,-1281.94 378.14,-1273.83 374.57,-1279.85"/>
</g>
<!-- Node2 -->
<g id="node2" class="node">
<title>Node2</title>
<g id="a_node2"><a xlink:href="interface_volume_control_1_1_core_1_1_interfaces_1_1_i_list_displayable.html" target="_top" xlink:title="Represents an object that, when it is a member of a list of similar items, can be displayed in the Li...">
<polygon fill="none" stroke="black" points="419.5,-1427.5 419.5,-1506.5 524.5,-1506.5 524.5,-1427.5 419.5,-1427.5"/>
<text text-anchor="middle" x="472" y="-1494.5" font-family="Helvetica,sans-Serif" font-size="10.00">IListDisplayable</text>
<polyline fill="none" stroke="black" points="419.5,-1487.5 524.5,-1487.5 "/>
<text text-anchor="start" x="427.5" y="-1475.5" font-family="Helvetica,sans-Serif" font-size="10.00">+ DisplayText</text>
<text text-anchor="start" x="427.5" y="-1464.5" font-family="Helvetica,sans-Serif" font-size="10.00">+ DisplayControls</text>
<text text-anchor="start" x="427.5" y="-1453.5" font-family="Helvetica,sans-Serif" font-size="10.00">+ DisplayIcon</text>
<polyline fill="none" stroke="black" points="419.5,-1446.5 524.5,-1446.5 "/>
<text text-anchor="middle" x="472" y="-1434.5" font-family="Helvetica,sans-Serif" font-size="10.00"> </text>
</a>
</g>
</g>
<!-- Node2&#45;&gt;Node1 -->
<g id="edge1" class="edge">
<title>Node2&#45;&gt;Node1</title>
<path fill="none" stroke="midnightblue" d="M472,-1417.01C472,-1408.46 472,-1399.52 472,-1390.81"/>
<polygon fill="none" stroke="midnightblue" points="468.5,-1417.2 472,-1427.2 475.5,-1417.2 468.5,-1417.2"/>
</g>
<!-- Node6 -->
<g id="node6" class="node">
<title>Node6</title>
<g id="a_node6"><a xlink:href="interface_volume_control_1_1_audio_1_1_interfaces_1_1_i_device.html" target="_top" xlink:title="Represents an audio device.">
<polygon fill="none" stroke="black" points="270,-1046.5 270,-1125.5 444,-1125.5 444,-1046.5 270,-1046.5"/>
<text text-anchor="start" x="278" y="-1113.5" font-family="Helvetica,sans-Serif" font-size="10.00">VolumeControl.Audio.Interfaces.</text>
<text text-anchor="middle" x="357" y="-1102.5" font-family="Helvetica,sans-Serif" font-size="10.00">IDevice</text>
<polyline fill="none" stroke="black" points="270,-1095.5 444,-1095.5 "/>
<text text-anchor="start" x="278" y="-1083.5" font-family="Helvetica,sans-Serif" font-size="10.00">+ Name</text>
<text text-anchor="start" x="278" y="-1072.5" font-family="Helvetica,sans-Serif" font-size="10.00">+ DeviceID</text>
<polyline fill="none" stroke="black" points="270,-1065.5 444,-1065.5 "/>
<text text-anchor="middle" x="357" y="-1053.5" font-family="Helvetica,sans-Serif" font-size="10.00"> </text>
</a>
</g>
</g>
<!-- Node5&#45;&gt;Node6 -->
<g id="edge5" class="edge">
<title>Node5&#45;&gt;Node6</title>
<path fill="none" stroke="midnightblue" d="M294.04,-1165.38C304.39,-1152.49 315.78,-1138.31 325.99,-1125.6"/>
<polygon fill="none" stroke="midnightblue" points="291.28,-1163.22 287.74,-1173.21 296.73,-1167.61 291.28,-1163.22"/>
</g>
<!-- Node7 -->
<g id="node7" class="node">
<title>Node7</title>
<g id="a_node7"><a xlink:href="interface_volume_control_1_1_audio_1_1_interfaces_1_1_i_process.html" target="_top" xlink:title="Represents read&#45;only information about a process running on the local system.">
<polygon fill="none" stroke="black" points="78,-1035.5 78,-1136.5 252,-1136.5 252,-1035.5 78,-1035.5"/>
<text text-anchor="start" x="86" y="-1124.5" font-family="Helvetica,sans-Serif" font-size="10.00">VolumeControl.Audio.Interfaces.</text>
<text text-anchor="middle" x="165" y="-1113.5" font-family="Helvetica,sans-Serif" font-size="10.00">IProcess</text>
<polyline fill="none" stroke="black" points="78,-1106.5 252,-1106.5 "/>
<text text-anchor="start" x="86" y="-1094.5" font-family="Helvetica,sans-Serif" font-size="10.00">+ ProcessName</text>
<text text-anchor="start" x="86" y="-1083.5" font-family="Helvetica,sans-Serif" font-size="10.00">+ PID</text>
<text text-anchor="start" x="86" y="-1072.5" font-family="Helvetica,sans-Serif" font-size="10.00">+ ProcessIdentifier</text>
<text text-anchor="start" x="86" y="-1061.5" font-family="Helvetica,sans-Serif" font-size="10.00">+ HashCode</text>
<polyline fill="none" stroke="black" points="78,-1054.5 252,-1054.5 "/>
<text text-anchor="middle" x="165" y="-1042.5" font-family="Helvetica,sans-Serif" font-size="10.00"> </text>
</a>
</g>
</g>
<!-- Node5&#45;&gt;Node7 -->
<g id="edge7" class="edge">
<title>Node5&#45;&gt;Node7</title>
<path fill="none" stroke="midnightblue" d="M227.9,-1165.3C220.48,-1156.06 212.54,-1146.18 204.88,-1136.65"/>
<polygon fill="none" stroke="midnightblue" points="225.27,-1167.61 234.26,-1173.21 230.72,-1163.22 225.27,-1167.61"/>
</g>
<!-- Node8 -->
<g id="node8" class="node">
<title>Node8</title>
<g id="a_node8"><a xlink:href="interface_volume_control_1_1_audio_1_1_interfaces_1_1_i_session.html" target="_top" xlink:title="Represents an audio session.">
<polygon fill="none" stroke="black" points="0,-694 0,-784 174,-784 174,-694 0,-694"/>
<text text-anchor="start" x="8" y="-772" font-family="Helvetica,sans-Serif" font-size="10.00">VolumeControl.Audio.Interfaces.</text>
<text text-anchor="middle" x="87" y="-761" font-family="Helvetica,sans-Serif" font-size="10.00">ISession</text>
<polyline fill="none" stroke="black" points="0,-754 174,-754 "/>
<text text-anchor="start" x="8" y="-742" font-family="Helvetica,sans-Serif" font-size="10.00">+ Name</text>
<text text-anchor="start" x="8" y="-731" font-family="Helvetica,sans-Serif" font-size="10.00">+ SessionIdentifier</text>
<text text-anchor="start" x="8" y="-720" font-family="Helvetica,sans-Serif" font-size="10.00">+ SessionInstanceIdentifier</text>
<polyline fill="none" stroke="black" points="0,-713 174,-713 "/>
<text text-anchor="middle" x="87" y="-701" font-family="Helvetica,sans-Serif" font-size="10.00"> </text>
</a>
</g>
</g>
<!-- Node5&#45;&gt;Node8 -->
<g id="edge11" class="edge">
<title>Node5&#45;&gt;Node8</title>
<path fill="none" stroke="midnightblue" d="M163.67,-1194.82C127.86,-1185.27 90.77,-1168.04 69,-1137 -6.28,-1029.68 40.1,-862.98 69.02,-784.16"/>
<polygon fill="none" stroke="midnightblue" points="163.17,-1198.3 173.72,-1197.31 164.86,-1191.51 163.17,-1198.3"/>
</g>
<!-- Node6&#45;&gt;Node3 -->
<g id="edge6" class="edge">
<title>Node6&#45;&gt;Node3</title>
<path fill="none" stroke="midnightblue" d="M359.41,-1036.17C359.96,-1025 360.58,-1012.36 361.25,-998.75"/>
<polygon fill="none" stroke="midnightblue" points="355.9,-1036.27 358.9,-1046.43 362.89,-1036.61 355.9,-1036.27"/>
</g>
<!-- Node7&#45;&gt;Node4 -->
<g id="edge8" class="edge">
<title>Node7&#45;&gt;Node4</title>
<path fill="none" stroke="midnightblue" d="M178.93,-1025.4C180.57,-1016.59 182,-1007.59 183,-999 204.64,-812.3 208.35,-598.73 207.24,-442.89"/>
<polygon fill="none" stroke="midnightblue" points="175.5,-1024.74 177.02,-1035.23 182.37,-1026.08 175.5,-1024.74"/>
</g>
<!-- Node7&#45;&gt;Node8 -->
<g id="edge9" class="edge">
<title>Node7&#45;&gt;Node8</title>
<path fill="none" stroke="midnightblue" d="M151.52,-1025.39C135.99,-956.68 110.82,-845.37 96.96,-784.04"/>
<polygon fill="none" stroke="midnightblue" points="148.12,-1026.22 153.74,-1035.2 154.95,-1024.68 148.12,-1026.22"/>
</g>
<!-- Node8&#45;&gt;Node4 -->
<g id="edge10" class="edge">
<title>Node8&#45;&gt;Node4</title>
<path fill="none" stroke="midnightblue" d="M99.13,-683.64C111.98,-626.04 133.1,-531.34 152.88,-442.69"/>
<polygon fill="none" stroke="midnightblue" points="95.67,-683.08 96.9,-693.6 102.5,-684.6 95.67,-683.08"/>
</g>
</g>
</svg>
