<?xml version="1.0" encoding="UTF-8" standalone="no"?>
<!DOCTYPE svg PUBLIC "-//W3C//DTD SVG 1.1//EN"
 "http://www.w3.org/Graphics/SVG/1.1/DTD/svg11.dtd">
<!-- Generated by graphviz version 2.43.0 (0)
 -->
<!-- Title: VolumeControl.Core.IBaseAddon Pages: 1 -->
<svg width="180pt" height="204pt"
 viewBox="0.00 0.00 180.00 204.00" xmlns="http://www.w3.org/2000/svg" xmlns:xlink="http://www.w3.org/1999/xlink">
<g id="graph0" class="graph" transform="scale(1 1) rotate(0) translate(4 200)">
<title>VolumeControl.Core.IBaseAddon</title>
<!-- Node1 -->
<g id="node1" class="node">
<title>Node1</title>
<g id="a_node1"><a xlink:title="Represents any type of Volume Control addon definition object. &#160;This interface is implemented by the ...">
<polygon fill="#bfbfbf" stroke="black" points="14,-116.5 14,-195.5 158,-195.5 158,-116.5 14,-116.5"/>
<text text-anchor="start" x="22" y="-183.5" font-family="Helvetica,sans-Serif" font-size="10.00">VolumeControl.Core.IBase</text>
<text text-anchor="middle" x="86" y="-172.5" font-family="Helvetica,sans-Serif" font-size="10.00">Addon</text>
<polyline fill="none" stroke="black" points="14,-165.5 158,-165.5 "/>
<text text-anchor="start" x="22" y="-153.5" font-family="Helvetica,sans-Serif" font-size="10.00">+ Attribute</text>
<text text-anchor="start" x="22" y="-142.5" font-family="Helvetica,sans-Serif" font-size="10.00">+ Types</text>
<polyline fill="none" stroke="black" points="14,-135.5 158,-135.5 "/>
<text text-anchor="start" x="22" y="-123.5" font-family="Helvetica,sans-Serif" font-size="10.00">+ LoadFromTypes()</text>
</a>
</g>
</g>
<!-- Node2 -->
<g id="node2" class="node">
<title>Node2</title>
<g id="a_node2"><a xlink:href="class_volume_control_1_1_core_1_1_base_addon.html" target="_top" xlink:title="abstract base class for an object that manages an addon.">
<polygon fill="none" stroke="black" points="0,-0.5 0,-79.5 172,-79.5 172,-0.5 0,-0.5"/>
<text text-anchor="middle" x="86" y="-67.5" font-family="Helvetica,sans-Serif" font-size="10.00">VolumeControl.Core.BaseAddon</text>
<polyline fill="none" stroke="black" points="0,-60.5 172,-60.5 "/>
<text text-anchor="start" x="8" y="-48.5" font-family="Helvetica,sans-Serif" font-size="10.00">+ Attribute</text>
<text text-anchor="start" x="8" y="-37.5" font-family="Helvetica,sans-Serif" font-size="10.00">+ Types</text>
<polyline fill="none" stroke="black" points="0,-30.5 172,-30.5 "/>
<text text-anchor="start" x="8" y="-18.5" font-family="Helvetica,sans-Serif" font-size="10.00">+ LoadFromTypes()</text>
<text text-anchor="start" x="8" y="-7.5" font-family="Helvetica,sans-Serif" font-size="10.00"># BaseAddon()</text>
</a>
</g>
</g>
<!-- Node1&#45;&gt;Node2 -->
<g id="edge1" class="edge">
<title>Node1&#45;&gt;Node2</title>
<path fill="none" stroke="midnightblue" d="M86,-106.15C86,-97.26 86,-88.1 86,-79.56"/>
<polygon fill="none" stroke="midnightblue" points="82.5,-106.4 86,-116.4 89.5,-106.4 82.5,-106.4"/>
</g>
</g>
</svg>
