<?xml version="1.0" encoding="UTF-8" standalone="no"?>
<!DOCTYPE svg PUBLIC "-//W3C//DTD SVG 1.1//EN"
 "http://www.w3.org/Graphics/SVG/1.1/DTD/svg11.dtd">
<!-- Generated by graphviz version 2.43.0 (0)
 -->
<!-- Title: VolumeControl.Core.Input.IHotkey Pages: 1 -->
<svg width="326pt" height="722pt"
 viewBox="0.00 0.00 326.00 722.00" xmlns="http://www.w3.org/2000/svg" xmlns:xlink="http://www.w3.org/1999/xlink">
<g id="graph0" class="graph" transform="scale(1 1) rotate(0) translate(4 718)">
<title>VolumeControl.Core.Input.IHotkey</title>
<!-- Node1 -->
<g id="node1" class="node">
<title>Node1</title>
<g id="a_node1"><a xlink:title="Represents a hotkey instance.">
<polygon fill="#bfbfbf" stroke="black" points="89,-518.5 89,-619.5 234,-619.5 234,-518.5 89,-518.5"/>
<text text-anchor="start" x="97" y="-607.5" font-family="Helvetica,sans-Serif" font-size="10.00">VolumeControl.Core.Input.</text>
<text text-anchor="middle" x="161.5" y="-596.5" font-family="Helvetica,sans-Serif" font-size="10.00">IHotkey</text>
<polyline fill="none" stroke="black" points="89,-589.5 234,-589.5 "/>
<text text-anchor="start" x="97" y="-577.5" font-family="Helvetica,sans-Serif" font-size="10.00">+ ID</text>
<text text-anchor="start" x="97" y="-566.5" font-family="Helvetica,sans-Serif" font-size="10.00">+ Key</text>
<text text-anchor="start" x="97" y="-555.5" font-family="Helvetica,sans-Serif" font-size="10.00">+ Modifier</text>
<text text-anchor="start" x="97" y="-544.5" font-family="Helvetica,sans-Serif" font-size="10.00">+ Registered</text>
<polyline fill="none" stroke="black" points="89,-537.5 234,-537.5 "/>
<text text-anchor="middle" x="161.5" y="-525.5" font-family="Helvetica,sans-Serif" font-size="10.00"> </text>
</a>
</g>
</g>
<!-- Node4 -->
<g id="node4" class="node">
<title>Node4</title>
<g id="a_node4"><a xlink:href="class_volume_control_1_1_core_1_1_input_1_1_hotkey.html" target="_top" xlink:title="A Hotkey that may be registered with the windows API.">
<polygon fill="none" stroke="black" points="0,-292.5 0,-481.5 155,-481.5 155,-292.5 0,-292.5"/>
<text text-anchor="start" x="8" y="-469.5" font-family="Helvetica,sans-Serif" font-size="10.00">VolumeControl.Core.Input.</text>
<text text-anchor="middle" x="77.5" y="-458.5" font-family="Helvetica,sans-Serif" font-size="10.00">Hotkey</text>
<polyline fill="none" stroke="black" points="0,-451.5 155,-451.5 "/>
<text text-anchor="start" x="8" y="-439.5" font-family="Helvetica,sans-Serif" font-size="10.00">+ ID</text>
<text text-anchor="start" x="8" y="-428.5" font-family="Helvetica,sans-Serif" font-size="10.00">+ Key</text>
<text text-anchor="start" x="8" y="-417.5" font-family="Helvetica,sans-Serif" font-size="10.00">+ Modifier</text>
<text text-anchor="start" x="8" y="-406.5" font-family="Helvetica,sans-Serif" font-size="10.00">+ Registered</text>
<text text-anchor="start" x="8" y="-395.5" font-family="Helvetica,sans-Serif" font-size="10.00">+ HasError</text>
<text text-anchor="start" x="8" y="-384.5" font-family="Helvetica,sans-Serif" font-size="10.00">+ ErrorMessage</text>
<polyline fill="none" stroke="black" points="0,-377.5 155,-377.5 "/>
<text text-anchor="start" x="8" y="-365.5" font-family="Helvetica,sans-Serif" font-size="10.00">+ Hotkey()</text>
<text text-anchor="start" x="8" y="-354.5" font-family="Helvetica,sans-Serif" font-size="10.00">+ Hotkey()</text>
<text text-anchor="start" x="8" y="-343.5" font-family="Helvetica,sans-Serif" font-size="10.00">+ GetStringRepresentation()</text>
<text text-anchor="start" x="8" y="-332.5" font-family="Helvetica,sans-Serif" font-size="10.00">+ Dispose()</text>
<text text-anchor="start" x="8" y="-321.5" font-family="Helvetica,sans-Serif" font-size="10.00">~ SetError()</text>
<text text-anchor="start" x="8" y="-310.5" font-family="Helvetica,sans-Serif" font-size="10.00">~ UnsetError()</text>
<text text-anchor="start" x="8" y="-299.5" font-family="Helvetica,sans-Serif" font-size="10.00">~ MessageHook()</text>
</a>
</g>
</g>
<!-- Node1&#45;&gt;Node4 -->
<g id="edge3" class="edge">
<title>Node1&#45;&gt;Node4</title>
<path fill="none" stroke="midnightblue" d="M133.97,-509C129.87,-500.22 125.56,-490.99 121.23,-481.7"/>
<polygon fill="none" stroke="midnightblue" points="130.92,-510.76 138.32,-518.34 137.27,-507.8 130.92,-510.76"/>
</g>
<!-- Node5 -->
<g id="node5" class="node">
<title>Node5</title>
<g id="a_node5"><a xlink:href="interface_volume_control_1_1_core_1_1_input_1_1_i_bindable_hotkey.html" target="_top" xlink:title="Represents a BindableHotkey.">
<polygon fill="none" stroke="black" points="173,-320 173,-454 318,-454 318,-320 173,-320"/>
<text text-anchor="start" x="181" y="-442" font-family="Helvetica,sans-Serif" font-size="10.00">VolumeControl.Core.Input.</text>
<text text-anchor="middle" x="245.5" y="-431" font-family="Helvetica,sans-Serif" font-size="10.00">IBindableHotkey</text>
<polyline fill="none" stroke="black" points="173,-424 318,-424 "/>
<text text-anchor="start" x="181" y="-412" font-family="Helvetica,sans-Serif" font-size="10.00">+ Name</text>
<text text-anchor="start" x="181" y="-401" font-family="Helvetica,sans-Serif" font-size="10.00">+ Action</text>
<text text-anchor="start" x="181" y="-390" font-family="Helvetica,sans-Serif" font-size="10.00">+ Alt</text>
<text text-anchor="start" x="181" y="-379" font-family="Helvetica,sans-Serif" font-size="10.00">+ Ctrl</text>
<text text-anchor="start" x="181" y="-368" font-family="Helvetica,sans-Serif" font-size="10.00">+ Shift</text>
<text text-anchor="start" x="181" y="-357" font-family="Helvetica,sans-Serif" font-size="10.00">+ Win</text>
<text text-anchor="start" x="181" y="-346" font-family="Helvetica,sans-Serif" font-size="10.00">+ NoRepeat</text>
<polyline fill="none" stroke="black" points="173,-339 318,-339 "/>
<text text-anchor="middle" x="245.5" y="-327" font-family="Helvetica,sans-Serif" font-size="10.00"> </text>
</a>
</g>
</g>
<!-- Node1&#45;&gt;Node5 -->
<g id="edge4" class="edge">
<title>Node1&#45;&gt;Node5</title>
<path fill="none" stroke="midnightblue" d="M189.13,-508.8C197.31,-491.26 206.32,-471.96 214.69,-454.02"/>
<polygon fill="none" stroke="midnightblue" points="185.73,-507.8 184.68,-518.34 192.08,-510.76 185.73,-507.8"/>
</g>
<!-- Node2 -->
<g id="node2" class="node">
<title>Node2</title>
<g id="a_node2"><a xlink:title=" ">
<polygon fill="none" stroke="#bfbfbf" points="34,-656.5 34,-713.5 167,-713.5 167,-656.5 34,-656.5"/>
<text text-anchor="middle" x="100.5" y="-701.5" font-family="Helvetica,sans-Serif" font-size="10.00">INotifyPropertyChanged</text>
<polyline fill="none" stroke="#bfbfbf" points="34,-694.5 167,-694.5 "/>
<text text-anchor="middle" x="100.5" y="-682.5" font-family="Helvetica,sans-Serif" font-size="10.00"> </text>
<polyline fill="none" stroke="#bfbfbf" points="34,-675.5 167,-675.5 "/>
<text text-anchor="middle" x="100.5" y="-663.5" font-family="Helvetica,sans-Serif" font-size="10.00"> </text>
</a>
</g>
</g>
<!-- Node2&#45;&gt;Node1 -->
<g id="edge1" class="edge">
<title>Node2&#45;&gt;Node1</title>
<path fill="none" stroke="midnightblue" d="M120.04,-647.48C124.79,-638.61 129.94,-628.97 134.96,-619.61"/>
<polygon fill="none" stroke="midnightblue" points="116.9,-645.94 115.27,-656.4 123.07,-649.24 116.9,-645.94"/>
</g>
<!-- Node3 -->
<g id="node3" class="node">
<title>Node3</title>
<g id="a_node3"><a xlink:title=" ">
<polygon fill="none" stroke="#bfbfbf" points="185.5,-656.5 185.5,-713.5 259.5,-713.5 259.5,-656.5 185.5,-656.5"/>
<text text-anchor="middle" x="222.5" y="-701.5" font-family="Helvetica,sans-Serif" font-size="10.00">IDisposable</text>
<polyline fill="none" stroke="#bfbfbf" points="185.5,-694.5 259.5,-694.5 "/>
<text text-anchor="middle" x="222.5" y="-682.5" font-family="Helvetica,sans-Serif" font-size="10.00"> </text>
<polyline fill="none" stroke="#bfbfbf" points="185.5,-675.5 259.5,-675.5 "/>
<text text-anchor="middle" x="222.5" y="-663.5" font-family="Helvetica,sans-Serif" font-size="10.00"> </text>
</a>
</g>
</g>
<!-- Node3&#45;&gt;Node1 -->
<g id="edge2" class="edge">
<title>Node3&#45;&gt;Node1</title>
<path fill="none" stroke="midnightblue" d="M202.96,-647.48C198.21,-638.61 193.06,-628.97 188.04,-619.61"/>
<polygon fill="none" stroke="midnightblue" points="199.93,-649.24 207.73,-656.4 206.1,-645.94 199.93,-649.24"/>
</g>
<!-- Node6 -->
<g id="node6" class="node">
<title>Node6</title>
<g id="a_node6"><a xlink:href="class_volume_control_1_1_core_1_1_input_1_1_bindable_hotkey.html" target="_top" xlink:title="Wraps a Input.Hotkey instance and exposes an action binding point. (see Action)">
<polygon fill="none" stroke="black" points="173,-0.5 173,-255.5 318,-255.5 318,-0.5 173,-0.5"/>
<text text-anchor="start" x="181" y="-243.5" font-family="Helvetica,sans-Serif" font-size="10.00">VolumeControl.Core.Input.</text>
<text text-anchor="middle" x="245.5" y="-232.5" font-family="Helvetica,sans-Serif" font-size="10.00">BindableHotkey</text>
<polyline fill="none" stroke="black" points="173,-225.5 318,-225.5 "/>
<text text-anchor="start" x="181" y="-213.5" font-family="Helvetica,sans-Serif" font-size="10.00">+ ID</text>
<text text-anchor="start" x="181" y="-202.5" font-family="Helvetica,sans-Serif" font-size="10.00">+ Valid</text>
<text text-anchor="start" x="181" y="-191.5" font-family="Helvetica,sans-Serif" font-size="10.00">+ HasError</text>
<text text-anchor="start" x="181" y="-180.5" font-family="Helvetica,sans-Serif" font-size="10.00">+ ErrorMessage</text>
<text text-anchor="start" x="181" y="-169.5" font-family="Helvetica,sans-Serif" font-size="10.00">+ Hotkey</text>
<text text-anchor="start" x="181" y="-158.5" font-family="Helvetica,sans-Serif" font-size="10.00">+ Key</text>
<text text-anchor="start" x="181" y="-147.5" font-family="Helvetica,sans-Serif" font-size="10.00">+ Modifier</text>
<text text-anchor="start" x="181" y="-136.5" font-family="Helvetica,sans-Serif" font-size="10.00">+ Registered</text>
<text text-anchor="start" x="181" y="-125.5" font-family="Helvetica,sans-Serif" font-size="10.00">+ Alt</text>
<text text-anchor="start" x="181" y="-114.5" font-family="Helvetica,sans-Serif" font-size="10.00">+ Ctrl</text>
<text text-anchor="start" x="181" y="-103.5" font-family="Helvetica,sans-Serif" font-size="10.00">+ Shift</text>
<text text-anchor="start" x="181" y="-92.5" font-family="Helvetica,sans-Serif" font-size="10.00">+ Win</text>
<text text-anchor="start" x="181" y="-81.5" font-family="Helvetica,sans-Serif" font-size="10.00">+ NoRepeat</text>
<text text-anchor="start" x="181" y="-70.5" font-family="Helvetica,sans-Serif" font-size="10.00">+ Action</text>
<text text-anchor="start" x="181" y="-59.5" font-family="Helvetica,sans-Serif" font-size="10.00">+ Name</text>
<text text-anchor="start" x="181" y="-48.5" font-family="Helvetica,sans-Serif" font-size="10.00">+ Pressed</text>
<polyline fill="none" stroke="black" points="173,-41.5 318,-41.5 "/>
<text text-anchor="start" x="181" y="-29.5" font-family="Helvetica,sans-Serif" font-size="10.00">+ BindableHotkey()</text>
<text text-anchor="start" x="181" y="-18.5" font-family="Helvetica,sans-Serif" font-size="10.00">+ BindableHotkey()</text>
<text text-anchor="start" x="181" y="-7.5" font-family="Helvetica,sans-Serif" font-size="10.00">+ Dispose()</text>
</a>
</g>
</g>
<!-- Node5&#45;&gt;Node6 -->
<g id="edge5" class="edge">
<title>Node5&#45;&gt;Node6</title>
<path fill="none" stroke="midnightblue" d="M245.5,-309.44C245.5,-292.45 245.5,-274.01 245.5,-255.61"/>
<polygon fill="none" stroke="midnightblue" points="242,-309.82 245.5,-319.82 249,-309.82 242,-309.82"/>
</g>
</g>
</svg>
