<?xml version="1.0" encoding="UTF-8" standalone="no"?>
<!DOCTYPE svg PUBLIC "-//W3C//DTD SVG 1.1//EN"
 "http://www.w3.org/Graphics/SVG/1.1/DTD/svg11.dtd">
<!-- Generated by graphviz version 2.43.0 (0)
 -->
<!-- Title: VolumeControl.Core.Interfaces.IListDisplayable Pages: 1 -->
<!--zoomable 1515 -->
<svg id="main" version="1.1" xmlns="http://www.w3.org/2000/svg" xmlns:xlink="http://www.w3.org/1999/xlink" xml:space="preserve" onload="init(evt)">
<style type="text/css"><![CDATA[
.edge:hover path { stroke: red; }
.edge:hover polygon { stroke: red; fill: red; }
]]></style>
<script type="text/javascript"><![CDATA[
var edges = document.getElementsByTagName('g');
if (edges && edges.length) {
  for (var i=0;i<edges.length;i++) {
    if (edges[i].id.substr(0,4)=='edge') {
      edges[i].setAttribute('class','edge');
    }
  }
}
]]></script>
        <defs>
                <circle id="rim" cx="0" cy="0" r="7"/>
                <circle id="rim2" cx="0" cy="0" r="3.5"/>
                <g id="zoomPlus">
                        <use xlink:href="#rim" fill="#404040">
                                <set attributeName="fill" to="#808080" begin="zoomplus.mouseover" end="zoomplus.mouseout"/>
                        </use>
                        <path d="M-4,0h8M0,-4v8" fill="none" stroke="white" stroke-width="1.5" pointer-events="none"/>
                </g>
                <g id="zoomMin">
                        <use xlink:href="#rim" fill="#404040">
                                <set attributeName="fill" to="#808080" begin="zoomminus.mouseover" end="zoomminus.mouseout"/>
                        </use>
                        <path d="M-4,0h8" fill="none" stroke="white" stroke-width="1.5" pointer-events="none"/>
                </g>
                <g id="dirArrow">
                        <path fill="none" stroke="white" stroke-width="1.5" d="M0,-3.0v7 M-2.5,-0.5L0,-3.0L2.5,-0.5"/>
                </g>
               <g id="resetDef">
                       <use xlink:href="#rim2" fill="#404040">
                               <set attributeName="fill" to="#808080" begin="reset.mouseover" end="reset.mouseout"/>
                       </use>
               </g>
        </defs>

<script type="text/javascript">
var viewWidth = 598;
var viewHeight = 1515;
var sectionId = 'dynsection-0';
</script>
<script xlink:href="svgpan.js"/>
<svg id="graph" class="graph">
<g id="viewport">
<title>VolumeControl.Core.Interfaces.IListDisplayable</title>
<!-- Node1 -->
<g id="node1" class="node">
<title>Node1</title>
<g id="a_node1"><a xlink:title="Represents an object that, when it is a member of a list of similar items, can be displayed in the Li...">
<polygon fill="#bfbfbf" stroke="black" points="314.5,-1416.5 314.5,-1506.5 483.5,-1506.5 483.5,-1416.5 314.5,-1416.5"/>
<text text-anchor="start" x="322.5" y="-1494.5" font-family="Helvetica,sans-Serif" font-size="10.00">VolumeControl.Core.Interfaces.</text>
<text text-anchor="middle" x="399" y="-1483.5" font-family="Helvetica,sans-Serif" font-size="10.00">IListDisplayable</text>
<polyline fill="none" stroke="black" points="314.5,-1476.5 483.5,-1476.5 "/>
<text text-anchor="start" x="322.5" y="-1464.5" font-family="Helvetica,sans-Serif" font-size="10.00">+ DisplayText</text>
<text text-anchor="start" x="322.5" y="-1453.5" font-family="Helvetica,sans-Serif" font-size="10.00">+ DisplayControls</text>
<text text-anchor="start" x="322.5" y="-1442.5" font-family="Helvetica,sans-Serif" font-size="10.00">+ DisplayIcon</text>
<polyline fill="none" stroke="black" points="314.5,-1435.5 483.5,-1435.5 "/>
<text text-anchor="middle" x="399" y="-1423.5" font-family="Helvetica,sans-Serif" font-size="10.00"> </text>
</a>
</g>
</g>
<!-- Node2 -->
<g id="node2" class="node">
<title>Node2</title>
<g id="a_node2"><a xlink:href="class_volume_control_1_1_audio_1_1_audio_device.html" target="_top" xlink:title="Represents an audio device endpoint. Note that this object cannot be constructed externally....">
<polygon fill="none" stroke="black" points="0,-479.5 0,-987.5 184,-987.5 184,-479.5 0,-479.5"/>
<text text-anchor="start" x="8" y="-975.5" font-family="Helvetica,sans-Serif" font-size="10.00">VolumeControl.Audio.Audio</text>
<text text-anchor="middle" x="92" y="-964.5" font-family="Helvetica,sans-Serif" font-size="10.00">Device</text>
<polyline fill="none" stroke="black" points="0,-957.5 184,-957.5 "/>
<text text-anchor="start" x="8" y="-945.5" font-family="Helvetica,sans-Serif" font-size="10.00">+ AudioMeterInformation</text>
<text text-anchor="start" x="8" y="-934.5" font-family="Helvetica,sans-Serif" font-size="10.00">+ PeakMeterValue</text>
<text text-anchor="start" x="8" y="-923.5" font-family="Helvetica,sans-Serif" font-size="10.00">+ InterfaceName</text>
<text text-anchor="start" x="8" y="-912.5" font-family="Helvetica,sans-Serif" font-size="10.00">+ InstanceID</text>
<text text-anchor="start" x="8" y="-901.5" font-family="Helvetica,sans-Serif" font-size="10.00">+ IconPath</text>
<text text-anchor="start" x="8" y="-890.5" font-family="Helvetica,sans-Serif" font-size="10.00">+ Icon</text>
<text text-anchor="start" x="8" y="-879.5" font-family="Helvetica,sans-Serif" font-size="10.00">+ DeviceFriendlyName</text>
<text text-anchor="start" x="8" y="-868.5" font-family="Helvetica,sans-Serif" font-size="10.00">+ FriendlyName</text>
<text text-anchor="start" x="8" y="-857.5" font-family="Helvetica,sans-Serif" font-size="10.00">+ Properties</text>
<text text-anchor="start" x="8" y="-846.5" font-family="Helvetica,sans-Serif" font-size="10.00">+ State</text>
<text text-anchor="start" x="8" y="-835.5" font-family="Helvetica,sans-Serif" font-size="10.00">and 8 more...</text>
<text text-anchor="start" x="8" y="-824.5" font-family="Helvetica,sans-Serif" font-size="10.00">+ MMDevice</text>
<text text-anchor="start" x="8" y="-813.5" font-family="Helvetica,sans-Serif" font-size="10.00">+ Enabled</text>
<text text-anchor="start" x="8" y="-802.5" font-family="Helvetica,sans-Serif" font-size="10.00">+ Name</text>
<text text-anchor="start" x="8" y="-791.5" font-family="Helvetica,sans-Serif" font-size="10.00">+ DeviceID</text>
<text text-anchor="start" x="8" y="-780.5" font-family="Helvetica,sans-Serif" font-size="10.00">+ Icons</text>
<text text-anchor="start" x="8" y="-769.5" font-family="Helvetica,sans-Serif" font-size="10.00">+ EndpointVolumeObject</text>
<text text-anchor="start" x="8" y="-758.5" font-family="Helvetica,sans-Serif" font-size="10.00">+ NativeVolume</text>
<text text-anchor="start" x="8" y="-747.5" font-family="Helvetica,sans-Serif" font-size="10.00">+ Volume</text>
<text text-anchor="start" x="8" y="-736.5" font-family="Helvetica,sans-Serif" font-size="10.00">+ Muted</text>
<text text-anchor="start" x="8" y="-725.5" font-family="Helvetica,sans-Serif" font-size="10.00">+ DisplayText</text>
<text text-anchor="start" x="8" y="-714.5" font-family="Helvetica,sans-Serif" font-size="10.00">+ Sessions</text>
<text text-anchor="start" x="8" y="-703.5" font-family="Helvetica,sans-Serif" font-size="10.00">+ this[int index]</text>
<text text-anchor="start" x="8" y="-692.5" font-family="Helvetica,sans-Serif" font-size="10.00">+ this[int index]</text>
<text text-anchor="start" x="8" y="-681.5" font-family="Helvetica,sans-Serif" font-size="10.00">+ CollectionChanged</text>
<polyline fill="none" stroke="black" points="0,-674.5 184,-674.5 "/>
<text text-anchor="start" x="8" y="-662.5" font-family="Helvetica,sans-Serif" font-size="10.00">+ GetDeviceName()</text>
<text text-anchor="start" x="8" y="-651.5" font-family="Helvetica,sans-Serif" font-size="10.00">+ FindAll()</text>
<text text-anchor="start" x="8" y="-640.5" font-family="Helvetica,sans-Serif" font-size="10.00">+ GetIcons()</text>
<text text-anchor="start" x="8" y="-629.5" font-family="Helvetica,sans-Serif" font-size="10.00">+ Dispose()</text>
<text text-anchor="start" x="8" y="-618.5" font-family="Helvetica,sans-Serif" font-size="10.00">+ Equals()</text>
<text text-anchor="start" x="8" y="-607.5" font-family="Helvetica,sans-Serif" font-size="10.00">+ Equals()</text>
<text text-anchor="start" x="8" y="-596.5" font-family="Helvetica,sans-Serif" font-size="10.00">+ Equals()</text>
<text text-anchor="start" x="8" y="-585.5" font-family="Helvetica,sans-Serif" font-size="10.00">+ GetHashCode()</text>
<text text-anchor="start" x="8" y="-574.5" font-family="Helvetica,sans-Serif" font-size="10.00">+ Add()</text>
<text text-anchor="start" x="8" y="-563.5" font-family="Helvetica,sans-Serif" font-size="10.00">+ Clear()</text>
<text text-anchor="start" x="8" y="-552.5" font-family="Helvetica,sans-Serif" font-size="10.00">and 23 more...</text>
<text text-anchor="start" x="8" y="-541.5" font-family="Helvetica,sans-Serif" font-size="10.00">~ AudioDevice()</text>
<text text-anchor="start" x="8" y="-530.5" font-family="Helvetica,sans-Serif" font-size="10.00">~ ForwardPropertyStoreChanged()</text>
<text text-anchor="start" x="8" y="-519.5" font-family="Helvetica,sans-Serif" font-size="10.00">~ ForwardRemoved()</text>
<text text-anchor="start" x="8" y="-508.5" font-family="Helvetica,sans-Serif" font-size="10.00">~ ForwardStateChanged()</text>
<text text-anchor="start" x="8" y="-497.5" font-family="Helvetica,sans-Serif" font-size="10.00">~ ReloadSessions()</text>
<text text-anchor="start" x="8" y="-486.5" font-family="Helvetica,sans-Serif" font-size="10.00">~ GetAudioSessions()</text>
</a>
</g>
</g>
<!-- Node1&#45;&gt;Node2 -->
<g id="edge1" class="edge">
<title>Node1&#45;&gt;Node2</title>
<path fill="none" stroke="midnightblue" d="M315.03,-1410.82C230.37,-1354.52 107.41,-1253.74 73,-1126 61.14,-1081.98 56.79,-1034.18 56.83,-987.6"/>
<polygon fill="none" stroke="midnightblue" points="313.33,-1413.9 323.61,-1416.46 317.18,-1408.05 313.33,-1413.9"/>
</g>
<!-- Node3 -->
<g id="node3" class="node">
<title>Node3</title>
<g id="a_node3"><a xlink:href="class_volume_control_1_1_audio_1_1_audio_session.html" target="_top" xlink:title="Represents an audio session playing on the system.">
<polygon fill="none" stroke="black" points="419,-0.5 419,-442.5 569,-442.5 569,-0.5 419,-0.5"/>
<text text-anchor="start" x="427" y="-430.5" font-family="Helvetica,sans-Serif" font-size="10.00">VolumeControl.Audio.Audio</text>
<text text-anchor="middle" x="494" y="-419.5" font-family="Helvetica,sans-Serif" font-size="10.00">Session</text>
<polyline fill="none" stroke="black" points="419,-412.5 569,-412.5 "/>
<text text-anchor="start" x="427" y="-400.5" font-family="Helvetica,sans-Serif" font-size="10.00">+ AudioMeterInformation</text>
<text text-anchor="start" x="427" y="-389.5" font-family="Helvetica,sans-Serif" font-size="10.00">+ PeakMeterValue</text>
<text text-anchor="start" x="427" y="-378.5" font-family="Helvetica,sans-Serif" font-size="10.00">+ HashCode</text>
<text text-anchor="start" x="427" y="-367.5" font-family="Helvetica,sans-Serif" font-size="10.00">+ VolumeController</text>
<text text-anchor="start" x="427" y="-356.5" font-family="Helvetica,sans-Serif" font-size="10.00">+ State</text>
<text text-anchor="start" x="427" y="-345.5" font-family="Helvetica,sans-Serif" font-size="10.00">+ IconPath</text>
<text text-anchor="start" x="427" y="-334.5" font-family="Helvetica,sans-Serif" font-size="10.00">+ Icon</text>
<text text-anchor="start" x="427" y="-323.5" font-family="Helvetica,sans-Serif" font-size="10.00">+ ProcessIdentifier</text>
<text text-anchor="start" x="427" y="-312.5" font-family="Helvetica,sans-Serif" font-size="10.00">+ Active</text>
<text text-anchor="start" x="427" y="-301.5" font-family="Helvetica,sans-Serif" font-size="10.00">+ DisplayControls</text>
<text text-anchor="start" x="427" y="-290.5" font-family="Helvetica,sans-Serif" font-size="10.00">+ DisplayIcon</text>
<text text-anchor="start" x="427" y="-279.5" font-family="Helvetica,sans-Serif" font-size="10.00">+ int</text>
<text text-anchor="start" x="427" y="-268.5" font-family="Helvetica,sans-Serif" font-size="10.00">+ SessionIdentifier</text>
<text text-anchor="start" x="427" y="-257.5" font-family="Helvetica,sans-Serif" font-size="10.00">+ SessionInstanceIdentifier</text>
<text text-anchor="start" x="427" y="-246.5" font-family="Helvetica,sans-Serif" font-size="10.00">+ Icons</text>
<text text-anchor="start" x="427" y="-235.5" font-family="Helvetica,sans-Serif" font-size="10.00">+ Volume</text>
<text text-anchor="start" x="427" y="-224.5" font-family="Helvetica,sans-Serif" font-size="10.00">+ NativeVolume</text>
<text text-anchor="start" x="427" y="-213.5" font-family="Helvetica,sans-Serif" font-size="10.00">+ Muted</text>
<text text-anchor="start" x="427" y="-202.5" font-family="Helvetica,sans-Serif" font-size="10.00">+ GroupingParam</text>
<text text-anchor="start" x="427" y="-191.5" font-family="Helvetica,sans-Serif" font-size="10.00">+ DisplayName</text>
<text text-anchor="start" x="427" y="-180.5" font-family="Helvetica,sans-Serif" font-size="10.00">+ ProcessName</text>
<text text-anchor="start" x="427" y="-169.5" font-family="Helvetica,sans-Serif" font-size="10.00">+ PID</text>
<text text-anchor="start" x="427" y="-158.5" font-family="Helvetica,sans-Serif" font-size="10.00">+ IsRunning</text>
<text text-anchor="start" x="427" y="-147.5" font-family="Helvetica,sans-Serif" font-size="10.00">+ NotificationClient</text>
<text text-anchor="start" x="427" y="-136.5" font-family="Helvetica,sans-Serif" font-size="10.00">+ Process</text>
<text text-anchor="start" x="427" y="-125.5" font-family="Helvetica,sans-Serif" font-size="10.00">+ Name</text>
<text text-anchor="start" x="427" y="-114.5" font-family="Helvetica,sans-Serif" font-size="10.00">+ DisplayText</text>
<polyline fill="none" stroke="black" points="419,-107.5 569,-107.5 "/>
<text text-anchor="start" x="427" y="-95.5" font-family="Helvetica,sans-Serif" font-size="10.00">+ GetIcons()</text>
<text text-anchor="start" x="427" y="-84.5" font-family="Helvetica,sans-Serif" font-size="10.00">+ GetProcess()</text>
<text text-anchor="start" x="427" y="-73.5" font-family="Helvetica,sans-Serif" font-size="10.00">+ Dispose()</text>
<text text-anchor="start" x="427" y="-62.5" font-family="Helvetica,sans-Serif" font-size="10.00">+ Equals()</text>
<text text-anchor="start" x="427" y="-51.5" font-family="Helvetica,sans-Serif" font-size="10.00">+ Equals()</text>
<text text-anchor="start" x="427" y="-40.5" font-family="Helvetica,sans-Serif" font-size="10.00">+ Equals()</text>
<text text-anchor="start" x="427" y="-29.5" font-family="Helvetica,sans-Serif" font-size="10.00">+ GetHashCode()</text>
<text text-anchor="start" x="427" y="-18.5" font-family="Helvetica,sans-Serif" font-size="10.00">~ AudioSession()</text>
<text text-anchor="start" x="427" y="-7.5" font-family="Helvetica,sans-Serif" font-size="10.00">~ NotifyExited()</text>
</a>
</g>
</g>
<!-- Node1&#45;&gt;Node3 -->
<g id="edge2" class="edge">
<title>Node1&#45;&gt;Node3</title>
<path fill="none" stroke="midnightblue" d="M465.8,-1409.91C520.88,-1361.93 590,-1284.41 590,-1197.5 590,-1197.5 590,-1197.5 590,-1074 590,-809.12 594.83,-741.01 556,-479 554.24,-467.1 552.18,-454.95 549.92,-442.72"/>
<polygon fill="none" stroke="midnightblue" points="463.44,-1407.32 458.13,-1416.48 468,-1412.63 463.44,-1407.32"/>
</g>
<!-- Node4 -->
<g id="node4" class="node">
<title>Node4</title>
<g id="a_node4"><a xlink:href="interface_volume_control_1_1_audio_1_1_interfaces_1_1_i_volume_control.html" target="_top" xlink:title="Represents some kind of controllable audio playback instance.">
<polygon fill="none" stroke="black" points="312,-1267.5 312,-1379.5 486,-1379.5 486,-1267.5 312,-1267.5"/>
<text text-anchor="start" x="320" y="-1367.5" font-family="Helvetica,sans-Serif" font-size="10.00">VolumeControl.Audio.Interfaces.</text>
<text text-anchor="middle" x="399" y="-1356.5" font-family="Helvetica,sans-Serif" font-size="10.00">IVolumeControl</text>
<polyline fill="none" stroke="black" points="312,-1349.5 486,-1349.5 "/>
<text text-anchor="start" x="320" y="-1337.5" font-family="Helvetica,sans-Serif" font-size="10.00">+ PeakMeterValue</text>
<text text-anchor="start" x="320" y="-1326.5" font-family="Helvetica,sans-Serif" font-size="10.00">+ NativeVolume</text>
<text text-anchor="start" x="320" y="-1315.5" font-family="Helvetica,sans-Serif" font-size="10.00">+ Volume</text>
<text text-anchor="start" x="320" y="-1304.5" font-family="Helvetica,sans-Serif" font-size="10.00">+ Muted</text>
<polyline fill="none" stroke="black" points="312,-1297.5 486,-1297.5 "/>
<text text-anchor="start" x="320" y="-1285.5" font-family="Helvetica,sans-Serif" font-size="10.00">~ MakeListDisplayableControl</text>
<text text-anchor="start" x="320" y="-1274.5" font-family="Helvetica,sans-Serif" font-size="10.00">Template()</text>
</a>
</g>
</g>
<!-- Node1&#45;&gt;Node4 -->
<g id="edge3" class="edge">
<title>Node1&#45;&gt;Node4</title>
<path fill="none" stroke="midnightblue" d="M399,-1406.31C399,-1397.61 399,-1388.59 399,-1379.87"/>
<polygon fill="none" stroke="midnightblue" points="395.5,-1406.34 399,-1416.34 402.5,-1406.34 395.5,-1406.34"/>
</g>
<!-- Node4&#45;&gt;Node2 -->
<g id="edge4" class="edge">
<title>Node4&#45;&gt;Node2</title>
<path fill="none" stroke="midnightblue" d="M302.59,-1284.49C236.23,-1252.78 152.79,-1200.66 111,-1126 87.61,-1084.21 75.64,-1035.81 70.59,-987.59"/>
<polygon fill="none" stroke="midnightblue" points="301.3,-1287.75 311.84,-1288.83 304.27,-1281.41 301.3,-1287.75"/>
</g>
<!-- Node4&#45;&gt;Node3 -->
<g id="edge5" class="edge">
<title>Node4&#45;&gt;Node3</title>
<path fill="none" stroke="midnightblue" d="M473.85,-1259.87C481.81,-1250.81 489.13,-1241.11 495,-1231 519.14,-1189.42 513.12,-1173.43 521,-1126 568.17,-842.29 554.68,-765.79 533,-479 532.1,-467.1 530.97,-454.91 529.66,-442.63"/>
<polygon fill="none" stroke="midnightblue" points="471.2,-1257.58 467.03,-1267.31 476.36,-1262.3 471.2,-1257.58"/>
</g>
<!-- Node5 -->
<g id="node5" class="node">
<title>Node5</title>
<g id="a_node5"><a xlink:href="interface_volume_control_1_1_audio_1_1_interfaces_1_1_i_audio_control.html" target="_top" xlink:title="Base interface type for IDevice and IProcess/ISession.">
<polygon fill="none" stroke="black" points="312,-1162.5 312,-1230.5 486,-1230.5 486,-1162.5 312,-1162.5"/>
<text text-anchor="start" x="320" y="-1218.5" font-family="Helvetica,sans-Serif" font-size="10.00">VolumeControl.Audio.Interfaces.</text>
<text text-anchor="middle" x="399" y="-1207.5" font-family="Helvetica,sans-Serif" font-size="10.00">IAudioControl</text>
<polyline fill="none" stroke="black" points="312,-1200.5 486,-1200.5 "/>
<text text-anchor="start" x="320" y="-1188.5" font-family="Helvetica,sans-Serif" font-size="10.00">+ AudioMeterInformation</text>
<polyline fill="none" stroke="black" points="312,-1181.5 486,-1181.5 "/>
<text text-anchor="middle" x="399" y="-1169.5" font-family="Helvetica,sans-Serif" font-size="10.00"> </text>
</a>
</g>
</g>
<!-- Node4&#45;&gt;Node5 -->
<g id="edge6" class="edge">
<title>Node4&#45;&gt;Node5</title>
<path fill="none" stroke="midnightblue" d="M399,-1257.26C399,-1247.99 399,-1238.8 399,-1230.51"/>
<polygon fill="none" stroke="midnightblue" points="395.5,-1257.31 399,-1267.31 402.5,-1257.31 395.5,-1257.31"/>
</g>
<!-- Node6 -->
<g id="node6" class="node">
<title>Node6</title>
<g id="a_node6"><a xlink:href="interface_volume_control_1_1_audio_1_1_interfaces_1_1_i_device.html" target="_top" xlink:title="Represents an audio device.">
<polygon fill="none" stroke="black" points="120,-1035.5 120,-1114.5 294,-1114.5 294,-1035.5 120,-1035.5"/>
<text text-anchor="start" x="128" y="-1102.5" font-family="Helvetica,sans-Serif" font-size="10.00">VolumeControl.Audio.Interfaces.</text>
<text text-anchor="middle" x="207" y="-1091.5" font-family="Helvetica,sans-Serif" font-size="10.00">IDevice</text>
<polyline fill="none" stroke="black" points="120,-1084.5 294,-1084.5 "/>
<text text-anchor="start" x="128" y="-1072.5" font-family="Helvetica,sans-Serif" font-size="10.00">+ Name</text>
<text text-anchor="start" x="128" y="-1061.5" font-family="Helvetica,sans-Serif" font-size="10.00">+ DeviceID</text>
<polyline fill="none" stroke="black" points="120,-1054.5 294,-1054.5 "/>
<text text-anchor="middle" x="207" y="-1042.5" font-family="Helvetica,sans-Serif" font-size="10.00"> </text>
</a>
</g>
</g>
<!-- Node5&#45;&gt;Node6 -->
<g id="edge7" class="edge">
<title>Node5&#45;&gt;Node6</title>
<path fill="none" stroke="midnightblue" d="M337.25,-1157.07C315.47,-1143.51 290.99,-1128.27 269.17,-1114.7"/>
<polygon fill="none" stroke="midnightblue" points="335.43,-1160.06 345.77,-1162.37 339.13,-1154.12 335.43,-1160.06"/>
</g>
<!-- Node7 -->
<g id="node7" class="node">
<title>Node7</title>
<g id="a_node7"><a xlink:href="interface_volume_control_1_1_audio_1_1_interfaces_1_1_i_process.html" target="_top" xlink:title="Represents read&#45;only information about a process running on the local system.">
<polygon fill="none" stroke="black" points="312,-1024.5 312,-1125.5 486,-1125.5 486,-1024.5 312,-1024.5"/>
<text text-anchor="start" x="320" y="-1113.5" font-family="Helvetica,sans-Serif" font-size="10.00">VolumeControl.Audio.Interfaces.</text>
<text text-anchor="middle" x="399" y="-1102.5" font-family="Helvetica,sans-Serif" font-size="10.00">IProcess</text>
<polyline fill="none" stroke="black" points="312,-1095.5 486,-1095.5 "/>
<text text-anchor="start" x="320" y="-1083.5" font-family="Helvetica,sans-Serif" font-size="10.00">+ ProcessName</text>
<text text-anchor="start" x="320" y="-1072.5" font-family="Helvetica,sans-Serif" font-size="10.00">+ PID</text>
<text text-anchor="start" x="320" y="-1061.5" font-family="Helvetica,sans-Serif" font-size="10.00">+ ProcessIdentifier</text>
<text text-anchor="start" x="320" y="-1050.5" font-family="Helvetica,sans-Serif" font-size="10.00">+ HashCode</text>
<polyline fill="none" stroke="black" points="312,-1043.5 486,-1043.5 "/>
<text text-anchor="middle" x="399" y="-1031.5" font-family="Helvetica,sans-Serif" font-size="10.00"> </text>
</a>
</g>
</g>
<!-- Node5&#45;&gt;Node7 -->
<g id="edge9" class="edge">
<title>Node5&#45;&gt;Node7</title>
<path fill="none" stroke="midnightblue" d="M399,-1152.05C399,-1143.47 399,-1134.41 399,-1125.65"/>
<polygon fill="none" stroke="midnightblue" points="395.5,-1152.21 399,-1162.21 402.5,-1152.21 395.5,-1152.21"/>
</g>
<!-- Node8 -->
<g id="node8" class="node">
<title>Node8</title>
<g id="a_node8"><a xlink:href="interface_volume_control_1_1_audio_1_1_interfaces_1_1_i_session.html" target="_top" xlink:title="Represents an audio session.">
<polygon fill="none" stroke="black" points="350,-688.5 350,-778.5 524,-778.5 524,-688.5 350,-688.5"/>
<text text-anchor="start" x="358" y="-766.5" font-family="Helvetica,sans-Serif" font-size="10.00">VolumeControl.Audio.Interfaces.</text>
<text text-anchor="middle" x="437" y="-755.5" font-family="Helvetica,sans-Serif" font-size="10.00">ISession</text>
<polyline fill="none" stroke="black" points="350,-748.5 524,-748.5 "/>
<text text-anchor="start" x="358" y="-736.5" font-family="Helvetica,sans-Serif" font-size="10.00">+ Name</text>
<text text-anchor="start" x="358" y="-725.5" font-family="Helvetica,sans-Serif" font-size="10.00">+ SessionIdentifier</text>
<text text-anchor="start" x="358" y="-714.5" font-family="Helvetica,sans-Serif" font-size="10.00">+ SessionInstanceIdentifier</text>
<polyline fill="none" stroke="black" points="350,-707.5 524,-707.5 "/>
<text text-anchor="middle" x="437" y="-695.5" font-family="Helvetica,sans-Serif" font-size="10.00"> </text>
</a>
</g>
</g>
<!-- Node5&#45;&gt;Node8 -->
<g id="edge13" class="edge">
<title>Node5&#45;&gt;Node8</title>
<path fill="none" stroke="midnightblue" d="M471.05,-1155.64C480.7,-1147.15 489.24,-1137.28 495,-1126 553.66,-1011.11 495.08,-854.16 459.68,-778.64"/>
<polygon fill="none" stroke="midnightblue" points="468.62,-1153.11 463.11,-1162.16 473.06,-1158.52 468.62,-1153.11"/>
</g>
<!-- Node6&#45;&gt;Node2 -->
<g id="edge8" class="edge">
<title>Node6&#45;&gt;Node2</title>
<path fill="none" stroke="midnightblue" d="M190.68,-1025.81C186.83,-1014.45 182.46,-1001.57 177.76,-987.69"/>
<polygon fill="none" stroke="midnightblue" points="187.4,-1027.04 193.92,-1035.39 194.03,-1024.79 187.4,-1027.04"/>
</g>
<!-- Node7&#45;&gt;Node3 -->
<g id="edge10" class="edge">
<title>Node7&#45;&gt;Node3</title>
<path fill="none" stroke="midnightblue" d="M353.17,-1015.6C348.18,-1006.76 343.88,-997.43 341,-988 274.87,-771.66 280.9,-697.09 341,-479 356.6,-422.39 388.34,-365.67 418.89,-320.01"/>
<polygon fill="none" stroke="midnightblue" points="350.21,-1017.48 358.35,-1024.26 356.22,-1013.89 350.21,-1017.48"/>
</g>
<!-- Node7&#45;&gt;Node8 -->
<g id="edge11" class="edge">
<title>Node7&#45;&gt;Node8</title>
<path fill="none" stroke="midnightblue" d="M405.69,-1014.23C413.23,-946.85 425.32,-838.88 432.05,-778.69"/>
<polygon fill="none" stroke="midnightblue" points="402.2,-1013.94 404.57,-1024.27 409.16,-1014.72 402.2,-1013.94"/>
</g>
<!-- Node8&#45;&gt;Node3 -->
<g id="edge12" class="edge">
<title>Node8&#45;&gt;Node3</title>
<path fill="none" stroke="midnightblue" d="M443.09,-678C449.41,-621.45 459.71,-529.32 469.39,-442.66"/>
<polygon fill="none" stroke="midnightblue" points="439.59,-677.81 441.96,-688.13 446.55,-678.58 439.59,-677.81"/>
</g>
</g>
</svg>
        <g id="navigator" transform="translate(0 0)" fill="#404254">
                <rect fill="#f2f5e9" fill-opacity="0.5" stroke="#606060" stroke-width=".5" x="0" y="0" width="60" height="60"/>
                <use id="zoomplus" xlink:href="#zoomPlus" x="17" y="9" onmousedown="handleZoom(evt,'in')"/>
                <use id="zoomminus" xlink:href="#zoomMin" x="42" y="9" onmousedown="handleZoom(evt,'out')"/>
                <use id="reset" xlink:href="#resetDef" x="30" y="36" onmousedown="handleReset()"/>
                <g id="arrowUp" xlink:href="#dirArrow" transform="translate(30 24)" onmousedown="handlePan(0,-1)">
                  <use xlink:href="#rim" fill="#404040">
                        <set attributeName="fill" to="#808080" begin="arrowUp.mouseover" end="arrowUp.mouseout"/>
                  </use>
                  <path fill="none" stroke="white" stroke-width="1.5" d="M0,-3.0v7 M-2.5,-0.5L0,-3.0L2.5,-0.5"/>
                </g>
                <g id="arrowRight" xlink:href="#dirArrow" transform="rotate(90) translate(36 -43)" onmousedown="handlePan(1,0)">
                  <use xlink:href="#rim" fill="#404040">
                        <set attributeName="fill" to="#808080" begin="arrowRight.mouseover" end="arrowRight.mouseout"/>
                  </use>
                  <path fill="none" stroke="white" stroke-width="1.5" d="M0,-3.0v7 M-2.5,-0.5L0,-3.0L2.5,-0.5"/>
                </g>
                <g id="arrowDown" xlink:href="#dirArrow" transform="rotate(180) translate(-30 -48)" onmousedown="handlePan(0,1)">
                  <use xlink:href="#rim" fill="#404040">
                        <set attributeName="fill" to="#808080" begin="arrowDown.mouseover" end="arrowDown.mouseout"/>
                  </use>
                  <path fill="none" stroke="white" stroke-width="1.5" d="M0,-3.0v7 M-2.5,-0.5L0,-3.0L2.5,-0.5"/>
                </g>
                <g id="arrowLeft" xlink:href="#dirArrow" transform="rotate(270) translate(-36 17)" onmousedown="handlePan(-1,0)">
                  <use xlink:href="#rim" fill="#404040">
                        <set attributeName="fill" to="#808080" begin="arrowLeft.mouseover" end="arrowLeft.mouseout"/>
                  </use>
                  <path fill="none" stroke="white" stroke-width="1.5" d="M0,-3.0v7 M-2.5,-0.5L0,-3.0L2.5,-0.5"/>
                </g>
        </g>
        <svg viewBox="0 0 15 15" width="100%" height="30px" preserveAspectRatio="xMaxYMin meet">
         <g id="arrow_out" transform="scale(0.3 0.3)">
          <a xlink:href="interface_volume_control_1_1_core_1_1_interfaces_1_1_i_list_displayable__inherit__graph_org.svg" target="_base">
           <rect id="button" ry="5" rx="5" y="6" x="6" height="38" width="38"
                fill="#f2f5e9" fill-opacity="0.5" stroke="#606060" stroke-width="1.0"/>
           <path id="arrow"
             d="M 11.500037,31.436501 C 11.940474,20.09759 22.043105,11.32322 32.158766,21.979434 L 37.068811,17.246167 C 37.068811,17.246167 37.088388,32 37.088388,32 L 22.160133,31.978069 C 22.160133,31.978069 26.997745,27.140456 26.997745,27.140456 C 18.528582,18.264221 13.291696,25.230495 11.500037,31.436501 z"
             style="fill:#404040;"/>
          </a>
         </g>
        </svg>
</svg>
