<?xml version="1.0" encoding="UTF-8" standalone="no"?>
<!DOCTYPE svg PUBLIC "-//W3C//DTD SVG 1.1//EN"
 "http://www.w3.org/Graphics/SVG/1.1/DTD/svg11.dtd">
<!-- Generated by graphviz version 2.43.0 (0)
 -->
<!-- Title: VolumeControl.Audio.Interfaces.ITargetable Pages: 1 -->
<!--zoomable 843 -->
<svg id="main" version="1.1" xmlns="http://www.w3.org/2000/svg" xmlns:xlink="http://www.w3.org/1999/xlink" xml:space="preserve" onload="init(evt)">
<style type="text/css"><![CDATA[
.edge:hover path { stroke: red; }
.edge:hover polygon { stroke: red; fill: red; }
]]></style>
<script type="text/javascript"><![CDATA[
var edges = document.getElementsByTagName('g');
if (edges && edges.length) {
  for (var i=0;i<edges.length;i++) {
    if (edges[i].id.substr(0,4)=='edge') {
      edges[i].setAttribute('class','edge');
    }
  }
}
]]></script>
        <defs>
                <circle id="rim" cx="0" cy="0" r="7"/>
                <circle id="rim2" cx="0" cy="0" r="3.5"/>
                <g id="zoomPlus">
                        <use xlink:href="#rim" fill="#404040">
                                <set attributeName="fill" to="#808080" begin="zoomplus.mouseover" end="zoomplus.mouseout"/>
                        </use>
                        <path d="M-4,0h8M0,-4v8" fill="none" stroke="white" stroke-width="1.5" pointer-events="none"/>
                </g>
                <g id="zoomMin">
                        <use xlink:href="#rim" fill="#404040">
                                <set attributeName="fill" to="#808080" begin="zoomminus.mouseover" end="zoomminus.mouseout"/>
                        </use>
                        <path d="M-4,0h8" fill="none" stroke="white" stroke-width="1.5" pointer-events="none"/>
                </g>
                <g id="dirArrow">
                        <path fill="none" stroke="white" stroke-width="1.5" d="M0,-3.0v7 M-2.5,-0.5L0,-3.0L2.5,-0.5"/>
                </g>
               <g id="resetDef">
                       <use xlink:href="#rim2" fill="#404040">
                               <set attributeName="fill" to="#808080" begin="reset.mouseover" end="reset.mouseout"/>
                       </use>
               </g>
        </defs>

<script type="text/javascript">
var viewWidth = 431;
var viewHeight = 843;
var sectionId = 'dynsection-0';
</script>
<script xlink:href="svgpan.js"/>
<svg id="graph" class="graph">
<g id="viewport">
<title>VolumeControl.Audio.Interfaces.ITargetable</title>
<!-- Node1 -->
<g id="node1" class="node">
<title>Node1</title>
<g id="a_node1"><a xlink:title="Base interface type for IDevice and IProcess/ISession.">
<polygon fill="#bfbfbf" stroke="black" points="192,-766.5 192,-834.5 366,-834.5 366,-766.5 192,-766.5"/>
<text text-anchor="start" x="200" y="-822.5" font-family="Helvetica,sans-Serif" font-size="10.00">VolumeControl.Audio.Interfaces.</text>
<text text-anchor="middle" x="279" y="-811.5" font-family="Helvetica,sans-Serif" font-size="10.00">ITargetable</text>
<polyline fill="none" stroke="black" points="192,-804.5 366,-804.5 "/>
<text text-anchor="middle" x="279" y="-792.5" font-family="Helvetica,sans-Serif" font-size="10.00"> </text>
<polyline fill="none" stroke="black" points="192,-785.5 366,-785.5 "/>
<text text-anchor="middle" x="279" y="-773.5" font-family="Helvetica,sans-Serif" font-size="10.00"> </text>
</a>
</g>
</g>
<!-- Node2 -->
<g id="node2" class="node">
<title>Node2</title>
<g id="a_node2"><a xlink:href="interface_volume_control_1_1_audio_1_1_interfaces_1_1_i_device.html" target="_top" xlink:title="Represents an audio device.">
<polygon fill="none" stroke="black" points="0,-617.5 0,-729.5 174,-729.5 174,-617.5 0,-617.5"/>
<text text-anchor="start" x="8" y="-717.5" font-family="Helvetica,sans-Serif" font-size="10.00">VolumeControl.Audio.Interfaces.</text>
<text text-anchor="middle" x="87" y="-706.5" font-family="Helvetica,sans-Serif" font-size="10.00">IDevice</text>
<polyline fill="none" stroke="black" points="0,-699.5 174,-699.5 "/>
<text text-anchor="start" x="8" y="-687.5" font-family="Helvetica,sans-Serif" font-size="10.00">+ Name</text>
<text text-anchor="start" x="8" y="-676.5" font-family="Helvetica,sans-Serif" font-size="10.00">+ DeviceID</text>
<text text-anchor="start" x="8" y="-665.5" font-family="Helvetica,sans-Serif" font-size="10.00">+ NativeEndpointVolume</text>
<text text-anchor="start" x="8" y="-654.5" font-family="Helvetica,sans-Serif" font-size="10.00">+ EndpointVolume</text>
<text text-anchor="start" x="8" y="-643.5" font-family="Helvetica,sans-Serif" font-size="10.00">+ EndpointMuted</text>
<polyline fill="none" stroke="black" points="0,-636.5 174,-636.5 "/>
<text text-anchor="middle" x="87" y="-624.5" font-family="Helvetica,sans-Serif" font-size="10.00"> </text>
</a>
</g>
</g>
<!-- Node1&#45;&gt;Node2 -->
<g id="edge1" class="edge">
<title>Node1&#45;&gt;Node2</title>
<path fill="none" stroke="midnightblue" d="M219.58,-760.82C204.46,-750.97 187.92,-740.2 171.81,-729.71"/>
<polygon fill="none" stroke="midnightblue" points="218.01,-763.97 228.3,-766.49 221.83,-758.1 218.01,-763.97"/>
</g>
<!-- Node4 -->
<g id="node4" class="node">
<title>Node4</title>
<g id="a_node4"><a xlink:href="interface_volume_control_1_1_audio_1_1_interfaces_1_1_i_process.html" target="_top" xlink:title="Represents read&#45;only information about a process running on the local system.">
<polygon fill="none" stroke="black" points="192,-628.5 192,-718.5 366,-718.5 366,-628.5 192,-628.5"/>
<text text-anchor="start" x="200" y="-706.5" font-family="Helvetica,sans-Serif" font-size="10.00">VolumeControl.Audio.Interfaces.</text>
<text text-anchor="middle" x="279" y="-695.5" font-family="Helvetica,sans-Serif" font-size="10.00">IProcess</text>
<polyline fill="none" stroke="black" points="192,-688.5 366,-688.5 "/>
<text text-anchor="start" x="200" y="-676.5" font-family="Helvetica,sans-Serif" font-size="10.00">+ ProcessName</text>
<text text-anchor="start" x="200" y="-665.5" font-family="Helvetica,sans-Serif" font-size="10.00">+ PID</text>
<text text-anchor="start" x="200" y="-654.5" font-family="Helvetica,sans-Serif" font-size="10.00">+ ProcessIdentifier</text>
<polyline fill="none" stroke="black" points="192,-647.5 366,-647.5 "/>
<text text-anchor="middle" x="279" y="-635.5" font-family="Helvetica,sans-Serif" font-size="10.00"> </text>
</a>
</g>
</g>
<!-- Node1&#45;&gt;Node4 -->
<g id="edge3" class="edge">
<title>Node1&#45;&gt;Node4</title>
<path fill="none" stroke="midnightblue" d="M279,-756.03C279,-743.93 279,-730.79 279,-718.66"/>
<polygon fill="none" stroke="midnightblue" points="275.5,-756.33 279,-766.33 282.5,-756.33 275.5,-756.33"/>
</g>
<!-- Node5 -->
<g id="node5" class="node">
<title>Node5</title>
<g id="a_node5"><a xlink:href="interface_volume_control_1_1_audio_1_1_interfaces_1_1_i_session.html" target="_top" xlink:title="Represents an audio session.">
<polygon fill="none" stroke="black" points="249,-386 249,-476 423,-476 423,-386 249,-386"/>
<text text-anchor="start" x="257" y="-464" font-family="Helvetica,sans-Serif" font-size="10.00">VolumeControl.Audio.Interfaces.</text>
<text text-anchor="middle" x="336" y="-453" font-family="Helvetica,sans-Serif" font-size="10.00">ISession</text>
<polyline fill="none" stroke="black" points="249,-446 423,-446 "/>
<text text-anchor="start" x="257" y="-434" font-family="Helvetica,sans-Serif" font-size="10.00">+ Volume</text>
<text text-anchor="start" x="257" y="-423" font-family="Helvetica,sans-Serif" font-size="10.00">+ NativeVolume</text>
<text text-anchor="start" x="257" y="-412" font-family="Helvetica,sans-Serif" font-size="10.00">+ Muted</text>
<polyline fill="none" stroke="black" points="249,-405 423,-405 "/>
<text text-anchor="middle" x="336" y="-393" font-family="Helvetica,sans-Serif" font-size="10.00"> </text>
</a>
</g>
</g>
<!-- Node1&#45;&gt;Node5 -->
<g id="edge6" class="edge">
<title>Node1&#45;&gt;Node5</title>
<path fill="none" stroke="midnightblue" d="M351.05,-759.64C360.7,-751.15 369.24,-741.28 375,-730 417,-647.75 382.28,-536.78 356.85,-476.12"/>
<polygon fill="none" stroke="midnightblue" points="348.62,-757.11 343.11,-766.16 353.06,-762.52 348.62,-757.11"/>
</g>
<!-- Node3 -->
<g id="node3" class="node">
<title>Node3</title>
<g id="a_node3"><a xlink:href="class_volume_control_1_1_audio_1_1_audio_device.html" target="_top" xlink:title="Represents an audio device endpoint.">
<polygon fill="none" stroke="black" points="12,-281.5 12,-580.5 162,-580.5 162,-281.5 12,-281.5"/>
<text text-anchor="start" x="20" y="-568.5" font-family="Helvetica,sans-Serif" font-size="10.00">VolumeControl.Audio.Audio</text>
<text text-anchor="middle" x="87" y="-557.5" font-family="Helvetica,sans-Serif" font-size="10.00">Device</text>
<polyline fill="none" stroke="black" points="12,-550.5 162,-550.5 "/>
<text text-anchor="start" x="20" y="-538.5" font-family="Helvetica,sans-Serif" font-size="10.00">+ Name</text>
<text text-anchor="start" x="20" y="-527.5" font-family="Helvetica,sans-Serif" font-size="10.00">+ DeviceID</text>
<text text-anchor="start" x="20" y="-516.5" font-family="Helvetica,sans-Serif" font-size="10.00">+ InstanceID</text>
<text text-anchor="start" x="20" y="-505.5" font-family="Helvetica,sans-Serif" font-size="10.00">+ IconPath</text>
<text text-anchor="start" x="20" y="-494.5" font-family="Helvetica,sans-Serif" font-size="10.00">+ SmallIcon</text>
<text text-anchor="start" x="20" y="-483.5" font-family="Helvetica,sans-Serif" font-size="10.00">+ LargeIcon</text>
<text text-anchor="start" x="20" y="-472.5" font-family="Helvetica,sans-Serif" font-size="10.00">+ Icon</text>
<text text-anchor="start" x="20" y="-461.5" font-family="Helvetica,sans-Serif" font-size="10.00">+ DeviceFriendlyName</text>
<text text-anchor="start" x="20" y="-450.5" font-family="Helvetica,sans-Serif" font-size="10.00">+ FriendlyName</text>
<text text-anchor="start" x="20" y="-439.5" font-family="Helvetica,sans-Serif" font-size="10.00">+ Properties</text>
<text text-anchor="start" x="20" y="-428.5" font-family="Helvetica,sans-Serif" font-size="10.00">+ State</text>
<text text-anchor="start" x="20" y="-417.5" font-family="Helvetica,sans-Serif" font-size="10.00">+ SessionManager</text>
<text text-anchor="start" x="20" y="-406.5" font-family="Helvetica,sans-Serif" font-size="10.00">+ EndpointVolumeObject</text>
<text text-anchor="start" x="20" y="-395.5" font-family="Helvetica,sans-Serif" font-size="10.00">+ VolumeRange</text>
<text text-anchor="start" x="20" y="-384.5" font-family="Helvetica,sans-Serif" font-size="10.00">+ NativeEndpointVolume</text>
<text text-anchor="start" x="20" y="-373.5" font-family="Helvetica,sans-Serif" font-size="10.00">+ EndpointVolume</text>
<text text-anchor="start" x="20" y="-362.5" font-family="Helvetica,sans-Serif" font-size="10.00">+ EndpointMuted</text>
<text text-anchor="start" x="20" y="-351.5" font-family="Helvetica,sans-Serif" font-size="10.00">+ NotificationGuid</text>
<text text-anchor="start" x="20" y="-340.5" font-family="Helvetica,sans-Serif" font-size="10.00">+ OnVolumeNotification</text>
<text text-anchor="start" x="20" y="-329.5" font-family="Helvetica,sans-Serif" font-size="10.00">~ float</text>
<polyline fill="none" stroke="black" points="12,-322.5 162,-322.5 "/>
<text text-anchor="start" x="20" y="-310.5" font-family="Helvetica,sans-Serif" font-size="10.00">+ AudioDevice()</text>
<text text-anchor="start" x="20" y="-299.5" font-family="Helvetica,sans-Serif" font-size="10.00">+ GetAudioSessions()</text>
<text text-anchor="start" x="20" y="-288.5" font-family="Helvetica,sans-Serif" font-size="10.00">+ Dispose()</text>
</a>
</g>
</g>
<!-- Node2&#45;&gt;Node3 -->
<g id="edge2" class="edge">
<title>Node2&#45;&gt;Node3</title>
<path fill="none" stroke="midnightblue" d="M87,-607.2C87,-598.7 87,-589.73 87,-580.52"/>
<polygon fill="none" stroke="midnightblue" points="83.5,-607.32 87,-617.32 90.5,-607.32 83.5,-607.32"/>
</g>
<!-- Node4&#45;&gt;Node5 -->
<g id="edge4" class="edge">
<title>Node4&#45;&gt;Node5</title>
<path fill="none" stroke="midnightblue" d="M291.82,-618.41C301.99,-575.52 316.01,-516.33 325.52,-476.24"/>
<polygon fill="none" stroke="midnightblue" points="288.36,-617.85 289.45,-628.39 295.17,-619.47 288.36,-617.85"/>
</g>
<!-- Node6 -->
<g id="node6" class="node">
<title>Node6</title>
<g id="a_node6"><a xlink:href="class_volume_control_1_1_audio_1_1_audio_session.html" target="_top" xlink:title="Represents an audio session playing on the system.">
<polygon fill="none" stroke="black" points="261,-0.5 261,-244.5 411,-244.5 411,-0.5 261,-0.5"/>
<text text-anchor="start" x="269" y="-232.5" font-family="Helvetica,sans-Serif" font-size="10.00">VolumeControl.Audio.Audio</text>
<text text-anchor="middle" x="336" y="-221.5" font-family="Helvetica,sans-Serif" font-size="10.00">Session</text>
<polyline fill="none" stroke="black" points="261,-214.5 411,-214.5 "/>
<text text-anchor="start" x="269" y="-202.5" font-family="Helvetica,sans-Serif" font-size="10.00">+ VolumeController</text>
<text text-anchor="start" x="269" y="-191.5" font-family="Helvetica,sans-Serif" font-size="10.00">+ State</text>
<text text-anchor="start" x="269" y="-180.5" font-family="Helvetica,sans-Serif" font-size="10.00">+ IconPath</text>
<text text-anchor="start" x="269" y="-169.5" font-family="Helvetica,sans-Serif" font-size="10.00">+ SmallIcon</text>
<text text-anchor="start" x="269" y="-158.5" font-family="Helvetica,sans-Serif" font-size="10.00">+ LargeIcon</text>
<text text-anchor="start" x="269" y="-147.5" font-family="Helvetica,sans-Serif" font-size="10.00">+ Icon</text>
<text text-anchor="start" x="269" y="-136.5" font-family="Helvetica,sans-Serif" font-size="10.00">+ ProcessIdentifier</text>
<text text-anchor="start" x="269" y="-125.5" font-family="Helvetica,sans-Serif" font-size="10.00">+ int</text>
<text text-anchor="start" x="269" y="-114.5" font-family="Helvetica,sans-Serif" font-size="10.00">+ Volume</text>
<text text-anchor="start" x="269" y="-103.5" font-family="Helvetica,sans-Serif" font-size="10.00">+ NativeVolume</text>
<text text-anchor="start" x="269" y="-92.5" font-family="Helvetica,sans-Serif" font-size="10.00">+ Muted</text>
<text text-anchor="start" x="269" y="-81.5" font-family="Helvetica,sans-Serif" font-size="10.00">+ ProcessName</text>
<text text-anchor="start" x="269" y="-70.5" font-family="Helvetica,sans-Serif" font-size="10.00">+ PID</text>
<text text-anchor="start" x="269" y="-59.5" font-family="Helvetica,sans-Serif" font-size="10.00">+ IsRunning</text>
<polyline fill="none" stroke="black" points="261,-52.5 411,-52.5 "/>
<text text-anchor="start" x="269" y="-40.5" font-family="Helvetica,sans-Serif" font-size="10.00">+ AudioSession()</text>
<text text-anchor="start" x="269" y="-29.5" font-family="Helvetica,sans-Serif" font-size="10.00">+ GetProcess()</text>
<text text-anchor="start" x="269" y="-18.5" font-family="Helvetica,sans-Serif" font-size="10.00">+ Dispose()</text>
<text text-anchor="start" x="269" y="-7.5" font-family="Helvetica,sans-Serif" font-size="10.00">+ Equals()</text>
</a>
</g>
</g>
<!-- Node5&#45;&gt;Node6 -->
<g id="edge5" class="edge">
<title>Node5&#45;&gt;Node6</title>
<path fill="none" stroke="midnightblue" d="M336,-375.39C336,-339.03 336,-289.8 336,-244.51"/>
<polygon fill="none" stroke="midnightblue" points="332.5,-375.76 336,-385.76 339.5,-375.76 332.5,-375.76"/>
</g>
</g>
</svg>
        <g id="navigator" transform="translate(0 0)" fill="#404254">
                <rect fill="#f2f5e9" fill-opacity="0.5" stroke="#606060" stroke-width=".5" x="0" y="0" width="60" height="60"/>
                <use id="zoomplus" xlink:href="#zoomPlus" x="17" y="9" onmousedown="handleZoom(evt,'in')"/>
                <use id="zoomminus" xlink:href="#zoomMin" x="42" y="9" onmousedown="handleZoom(evt,'out')"/>
                <use id="reset" xlink:href="#resetDef" x="30" y="36" onmousedown="handleReset()"/>
                <g id="arrowUp" xlink:href="#dirArrow" transform="translate(30 24)" onmousedown="handlePan(0,-1)">
                  <use xlink:href="#rim" fill="#404040">
                        <set attributeName="fill" to="#808080" begin="arrowUp.mouseover" end="arrowUp.mouseout"/>
                  </use>
                  <path fill="none" stroke="white" stroke-width="1.5" d="M0,-3.0v7 M-2.5,-0.5L0,-3.0L2.5,-0.5"/>
                </g>
                <g id="arrowRight" xlink:href="#dirArrow" transform="rotate(90) translate(36 -43)" onmousedown="handlePan(1,0)">
                  <use xlink:href="#rim" fill="#404040">
                        <set attributeName="fill" to="#808080" begin="arrowRight.mouseover" end="arrowRight.mouseout"/>
                  </use>
                  <path fill="none" stroke="white" stroke-width="1.5" d="M0,-3.0v7 M-2.5,-0.5L0,-3.0L2.5,-0.5"/>
                </g>
                <g id="arrowDown" xlink:href="#dirArrow" transform="rotate(180) translate(-30 -48)" onmousedown="handlePan(0,1)">
                  <use xlink:href="#rim" fill="#404040">
                        <set attributeName="fill" to="#808080" begin="arrowDown.mouseover" end="arrowDown.mouseout"/>
                  </use>
                  <path fill="none" stroke="white" stroke-width="1.5" d="M0,-3.0v7 M-2.5,-0.5L0,-3.0L2.5,-0.5"/>
                </g>
                <g id="arrowLeft" xlink:href="#dirArrow" transform="rotate(270) translate(-36 17)" onmousedown="handlePan(-1,0)">
                  <use xlink:href="#rim" fill="#404040">
                        <set attributeName="fill" to="#808080" begin="arrowLeft.mouseover" end="arrowLeft.mouseout"/>
                  </use>
                  <path fill="none" stroke="white" stroke-width="1.5" d="M0,-3.0v7 M-2.5,-0.5L0,-3.0L2.5,-0.5"/>
                </g>
        </g>
        <svg viewBox="0 0 15 15" width="100%" height="30px" preserveAspectRatio="xMaxYMin meet">
         <g id="arrow_out" transform="scale(0.3 0.3)">
          <a xlink:href="interface_volume_control_1_1_audio_1_1_interfaces_1_1_i_targetable__inherit__graph_org.svg" target="_base">
           <rect id="button" ry="5" rx="5" y="6" x="6" height="38" width="38"
                fill="#f2f5e9" fill-opacity="0.5" stroke="#606060" stroke-width="1.0"/>
           <path id="arrow"
             d="M 11.500037,31.436501 C 11.940474,20.09759 22.043105,11.32322 32.158766,21.979434 L 37.068811,17.246167 C 37.068811,17.246167 37.088388,32 37.088388,32 L 22.160133,31.978069 C 22.160133,31.978069 26.997745,27.140456 26.997745,27.140456 C 18.528582,18.264221 13.291696,25.230495 11.500037,31.436501 z"
             style="fill:#404040;"/>
          </a>
         </g>
        </svg>
</svg>
