<?xml version="1.0" encoding="UTF-8" standalone="no"?>
<!DOCTYPE svg PUBLIC "-//W3C//DTD SVG 1.1//EN"
 "http://www.w3.org/Graphics/SVG/1.1/DTD/svg11.dtd">
<!-- Generated by graphviz version 2.43.0 (0)
 -->
<!-- Title: VolumeControl.Audio.Interfaces.ISession Pages: 1 -->
<!--zoomable 987 -->
<svg id="main" version="1.1" xmlns="http://www.w3.org/2000/svg" xmlns:xlink="http://www.w3.org/1999/xlink" xml:space="preserve" onload="init(evt)">
<style type="text/css"><![CDATA[
.edge:hover path { stroke: red; }
.edge:hover polygon { stroke: red; fill: red; }
]]></style>
<script type="text/javascript"><![CDATA[
var edges = document.getElementsByTagName('g');
if (edges && edges.length) {
  for (var i=0;i<edges.length;i++) {
    if (edges[i].id.substr(0,4)=='edge') {
      edges[i].setAttribute('class','edge');
    }
  }
}
]]></script>
        <defs>
                <circle id="rim" cx="0" cy="0" r="7"/>
                <circle id="rim2" cx="0" cy="0" r="3.5"/>
                <g id="zoomPlus">
                        <use xlink:href="#rim" fill="#404040">
                                <set attributeName="fill" to="#808080" begin="zoomplus.mouseover" end="zoomplus.mouseout"/>
                        </use>
                        <path d="M-4,0h8M0,-4v8" fill="none" stroke="white" stroke-width="1.5" pointer-events="none"/>
                </g>
                <g id="zoomMin">
                        <use xlink:href="#rim" fill="#404040">
                                <set attributeName="fill" to="#808080" begin="zoomminus.mouseover" end="zoomminus.mouseout"/>
                        </use>
                        <path d="M-4,0h8" fill="none" stroke="white" stroke-width="1.5" pointer-events="none"/>
                </g>
                <g id="dirArrow">
                        <path fill="none" stroke="white" stroke-width="1.5" d="M0,-3.0v7 M-2.5,-0.5L0,-3.0L2.5,-0.5"/>
                </g>
               <g id="resetDef">
                       <use xlink:href="#rim2" fill="#404040">
                               <set attributeName="fill" to="#808080" begin="reset.mouseover" end="reset.mouseout"/>
                       </use>
               </g>
        </defs>

<script type="text/javascript">
var viewWidth = 379;
var viewHeight = 987;
var sectionId = 'dynsection-0';
</script>
<script xlink:href="svgpan.js"/>
<svg id="graph" class="graph">
<g id="viewport">
<title>VolumeControl.Audio.Interfaces.ISession</title>
<!-- Node1 -->
<g id="node1" class="node">
<title>Node1</title>
<g id="a_node1"><a xlink:title="Represents an audio session.">
<polygon fill="#bfbfbf" stroke="black" points="78,-358.5 78,-448.5 252,-448.5 252,-358.5 78,-358.5"/>
<text text-anchor="start" x="86" y="-436.5" font-family="Helvetica,sans-Serif" font-size="10.00">VolumeControl.Audio.Interfaces.</text>
<text text-anchor="middle" x="165" y="-425.5" font-family="Helvetica,sans-Serif" font-size="10.00">ISession</text>
<polyline fill="none" stroke="black" points="78,-418.5 252,-418.5 "/>
<text text-anchor="start" x="86" y="-406.5" font-family="Helvetica,sans-Serif" font-size="10.00">+ Name</text>
<text text-anchor="start" x="86" y="-395.5" font-family="Helvetica,sans-Serif" font-size="10.00">+ SessionIdentifier</text>
<text text-anchor="start" x="86" y="-384.5" font-family="Helvetica,sans-Serif" font-size="10.00">+ SessionInstanceIdentifier</text>
<polyline fill="none" stroke="black" points="78,-377.5 252,-377.5 "/>
<text text-anchor="middle" x="165" y="-365.5" font-family="Helvetica,sans-Serif" font-size="10.00"> </text>
</a>
</g>
</g>
<!-- Node8 -->
<g id="node8" class="node">
<title>Node8</title>
<g id="a_node8"><a xlink:href="class_volume_control_1_1_audio_1_1_audio_session.html" target="_top" xlink:title="Represents an audio session playing on the system.">
<polygon fill="none" stroke="black" points="90,-0.5 90,-321.5 240,-321.5 240,-0.5 90,-0.5"/>
<text text-anchor="start" x="98" y="-309.5" font-family="Helvetica,sans-Serif" font-size="10.00">VolumeControl.Audio.Audio</text>
<text text-anchor="middle" x="165" y="-298.5" font-family="Helvetica,sans-Serif" font-size="10.00">Session</text>
<polyline fill="none" stroke="black" points="90,-291.5 240,-291.5 "/>
<text text-anchor="start" x="98" y="-279.5" font-family="Helvetica,sans-Serif" font-size="10.00">+ int</text>
<text text-anchor="start" x="98" y="-268.5" font-family="Helvetica,sans-Serif" font-size="10.00">+ Settings</text>
<text text-anchor="start" x="98" y="-257.5" font-family="Helvetica,sans-Serif" font-size="10.00">+ AudioMeterInformation</text>
<text text-anchor="start" x="98" y="-246.5" font-family="Helvetica,sans-Serif" font-size="10.00">+ PeakMeterValue</text>
<text text-anchor="start" x="98" y="-235.5" font-family="Helvetica,sans-Serif" font-size="10.00">+ SessionIdentifier</text>
<text text-anchor="start" x="98" y="-224.5" font-family="Helvetica,sans-Serif" font-size="10.00">+ SessionInstanceIdentifier</text>
<text text-anchor="start" x="98" y="-213.5" font-family="Helvetica,sans-Serif" font-size="10.00">+ HashCode</text>
<text text-anchor="start" x="98" y="-202.5" font-family="Helvetica,sans-Serif" font-size="10.00">+ VolumeController</text>
<text text-anchor="start" x="98" y="-191.5" font-family="Helvetica,sans-Serif" font-size="10.00">+ State</text>
<text text-anchor="start" x="98" y="-180.5" font-family="Helvetica,sans-Serif" font-size="10.00">+ IconPath</text>
<text text-anchor="start" x="98" y="-169.5" font-family="Helvetica,sans-Serif" font-size="10.00">+ Icons</text>
<text text-anchor="start" x="98" y="-158.5" font-family="Helvetica,sans-Serif" font-size="10.00">and 17 more...</text>
<polyline fill="none" stroke="black" points="90,-151.5 240,-151.5 "/>
<text text-anchor="start" x="98" y="-139.5" font-family="Helvetica,sans-Serif" font-size="10.00">+ GetIcons()</text>
<text text-anchor="start" x="98" y="-128.5" font-family="Helvetica,sans-Serif" font-size="10.00">+ GetProcess()</text>
<text text-anchor="start" x="98" y="-117.5" font-family="Helvetica,sans-Serif" font-size="10.00">+ Dispose()</text>
<text text-anchor="start" x="98" y="-106.5" font-family="Helvetica,sans-Serif" font-size="10.00">+ Equals()</text>
<text text-anchor="start" x="98" y="-95.5" font-family="Helvetica,sans-Serif" font-size="10.00">+ Equals()</text>
<text text-anchor="start" x="98" y="-84.5" font-family="Helvetica,sans-Serif" font-size="10.00">+ Equals()</text>
<text text-anchor="start" x="98" y="-73.5" font-family="Helvetica,sans-Serif" font-size="10.00">+ GetHashCode()</text>
<text text-anchor="start" x="98" y="-62.5" font-family="Helvetica,sans-Serif" font-size="10.00">+ IncreaseVolume()</text>
<text text-anchor="start" x="98" y="-51.5" font-family="Helvetica,sans-Serif" font-size="10.00">+ IncreaseVolume()</text>
<text text-anchor="start" x="98" y="-40.5" font-family="Helvetica,sans-Serif" font-size="10.00">+ DecreaseVolume()</text>
<text text-anchor="start" x="98" y="-29.5" font-family="Helvetica,sans-Serif" font-size="10.00">+ DecreaseVolume()</text>
<text text-anchor="start" x="98" y="-18.5" font-family="Helvetica,sans-Serif" font-size="10.00">~ AudioSession()</text>
<text text-anchor="start" x="98" y="-7.5" font-family="Helvetica,sans-Serif" font-size="10.00">~ NotifyExited()</text>
</a>
</g>
</g>
<!-- Node1&#45;&gt;Node8 -->
<g id="edge9" class="edge">
<title>Node1&#45;&gt;Node8</title>
<path fill="none" stroke="midnightblue" d="M165,-348.24C165,-339.97 165,-331.08 165,-321.85"/>
<polygon fill="none" stroke="midnightblue" points="161.5,-348.39 165,-358.39 168.5,-348.39 161.5,-348.39"/>
</g>
<!-- Node2 -->
<g id="node2" class="node">
<title>Node2</title>
<g id="a_node2"><a xlink:href="interface_volume_control_1_1_audio_1_1_interfaces_1_1_i_process.html" target="_top" xlink:title="Represents read&#45;only information about a process running on the local system.">
<polygon fill="none" stroke="black" points="110.5,-485.5 110.5,-575.5 219.5,-575.5 219.5,-485.5 110.5,-485.5"/>
<text text-anchor="middle" x="165" y="-563.5" font-family="Helvetica,sans-Serif" font-size="10.00">IProcess</text>
<polyline fill="none" stroke="black" points="110.5,-556.5 219.5,-556.5 "/>
<text text-anchor="start" x="118.5" y="-544.5" font-family="Helvetica,sans-Serif" font-size="10.00">+ ProcessName</text>
<text text-anchor="start" x="118.5" y="-533.5" font-family="Helvetica,sans-Serif" font-size="10.00">+ PID</text>
<text text-anchor="start" x="118.5" y="-522.5" font-family="Helvetica,sans-Serif" font-size="10.00">+ ProcessIdentifier</text>
<text text-anchor="start" x="118.5" y="-511.5" font-family="Helvetica,sans-Serif" font-size="10.00">+ HashCode</text>
<polyline fill="none" stroke="black" points="110.5,-504.5 219.5,-504.5 "/>
<text text-anchor="middle" x="165" y="-492.5" font-family="Helvetica,sans-Serif" font-size="10.00"> </text>
</a>
</g>
</g>
<!-- Node2&#45;&gt;Node1 -->
<g id="edge1" class="edge">
<title>Node2&#45;&gt;Node1</title>
<path fill="none" stroke="midnightblue" d="M165,-475.16C165,-466.28 165,-457.18 165,-448.59"/>
<polygon fill="none" stroke="midnightblue" points="161.5,-475.43 165,-485.43 168.5,-475.43 161.5,-475.43"/>
</g>
<!-- Node3 -->
<g id="node3" class="node">
<title>Node3</title>
<g id="a_node3"><a xlink:href="interface_volume_control_1_1_audio_1_1_interfaces_1_1_i_metered_volume_control.html" target="_top" xlink:title="Extends the IMeteredVolumeControl interface with the AudioMeterInformation property.">
<polygon fill="none" stroke="black" points="0,-612.5 0,-691.5 164,-691.5 164,-612.5 0,-612.5"/>
<text text-anchor="middle" x="82" y="-679.5" font-family="Helvetica,sans-Serif" font-size="10.00">IMeteredVolumeControl</text>
<polyline fill="none" stroke="black" points="0,-672.5 164,-672.5 "/>
<text text-anchor="start" x="8" y="-660.5" font-family="Helvetica,sans-Serif" font-size="10.00">+ PeakMeterValue</text>
<text text-anchor="start" x="8" y="-649.5" font-family="Helvetica,sans-Serif" font-size="10.00">+ AudioMeterInformation</text>
<polyline fill="none" stroke="black" points="0,-642.5 164,-642.5 "/>
<text text-anchor="start" x="8" y="-630.5" font-family="Helvetica,sans-Serif" font-size="10.00">~ MakeListDisplayableControl</text>
<text text-anchor="start" x="8" y="-619.5" font-family="Helvetica,sans-Serif" font-size="10.00">Template()</text>
</a>
</g>
</g>
<!-- Node3&#45;&gt;Node1 -->
<g id="edge7" class="edge">
<title>Node3&#45;&gt;Node1</title>
<path fill="none" stroke="midnightblue" d="M80.6,-602.09C81.28,-568.06 85.55,-522.28 101,-485 106.26,-472.3 114.15,-459.96 122.61,-448.9"/>
<polygon fill="none" stroke="midnightblue" points="77.1,-602.22 80.5,-612.26 84.1,-602.29 77.1,-602.22"/>
</g>
<!-- Node3&#45;&gt;Node2 -->
<g id="edge2" class="edge">
<title>Node3&#45;&gt;Node2</title>
<path fill="none" stroke="midnightblue" d="M114.72,-603.88C121.13,-594.67 127.82,-585.03 134.15,-575.91"/>
<polygon fill="none" stroke="midnightblue" points="111.78,-601.99 108.95,-612.2 117.53,-605.99 111.78,-601.99"/>
</g>
<!-- Node4 -->
<g id="node4" class="node">
<title>Node4</title>
<g id="a_node4"><a xlink:href="interface_volume_control_1_1_audio_1_1_interfaces_1_1_i_volume_control.html" target="_top" xlink:title="Represents some kind of controllable audio playback instance.">
<polygon fill="none" stroke="black" points="55,-728.5 55,-862.5 219,-862.5 219,-728.5 55,-728.5"/>
<text text-anchor="middle" x="137" y="-850.5" font-family="Helvetica,sans-Serif" font-size="10.00">IVolumeControl</text>
<polyline fill="none" stroke="black" points="55,-843.5 219,-843.5 "/>
<text text-anchor="start" x="63" y="-831.5" font-family="Helvetica,sans-Serif" font-size="10.00">+ NativeVolume</text>
<text text-anchor="start" x="63" y="-820.5" font-family="Helvetica,sans-Serif" font-size="10.00">+ Volume</text>
<text text-anchor="start" x="63" y="-809.5" font-family="Helvetica,sans-Serif" font-size="10.00">+ Muted</text>
<polyline fill="none" stroke="black" points="55,-802.5 219,-802.5 "/>
<text text-anchor="start" x="63" y="-790.5" font-family="Helvetica,sans-Serif" font-size="10.00">+ IncreaseVolume()</text>
<text text-anchor="start" x="63" y="-779.5" font-family="Helvetica,sans-Serif" font-size="10.00">+ IncreaseVolume()</text>
<text text-anchor="start" x="63" y="-768.5" font-family="Helvetica,sans-Serif" font-size="10.00">+ DecreaseVolume()</text>
<text text-anchor="start" x="63" y="-757.5" font-family="Helvetica,sans-Serif" font-size="10.00">+ DecreaseVolume()</text>
<text text-anchor="start" x="63" y="-746.5" font-family="Helvetica,sans-Serif" font-size="10.00">~ MakeListDisplayableControl</text>
<text text-anchor="start" x="63" y="-735.5" font-family="Helvetica,sans-Serif" font-size="10.00">Template()</text>
</a>
</g>
</g>
<!-- Node4&#45;&gt;Node3 -->
<g id="edge3" class="edge">
<title>Node4&#45;&gt;Node3</title>
<path fill="none" stroke="midnightblue" d="M107.62,-718.91C103.97,-709.53 100.37,-700.25 97.07,-691.76"/>
<polygon fill="none" stroke="midnightblue" points="104.39,-720.25 111.27,-728.31 110.91,-717.72 104.39,-720.25"/>
</g>
<!-- Node5 -->
<g id="node5" class="node">
<title>Node5</title>
<g id="a_node5"><a xlink:href="interface_volume_control_1_1_core_1_1_interfaces_1_1_i_list_displayable.html" target="_top" xlink:title="Represents an object that, when it is a member of a list of similar items, can be displayed in the Li...">
<polygon fill="none" stroke="black" points="29.5,-899.5 29.5,-978.5 134.5,-978.5 134.5,-899.5 29.5,-899.5"/>
<text text-anchor="middle" x="82" y="-966.5" font-family="Helvetica,sans-Serif" font-size="10.00">IListDisplayable</text>
<polyline fill="none" stroke="black" points="29.5,-959.5 134.5,-959.5 "/>
<text text-anchor="start" x="37.5" y="-947.5" font-family="Helvetica,sans-Serif" font-size="10.00">+ DisplayText</text>
<text text-anchor="start" x="37.5" y="-936.5" font-family="Helvetica,sans-Serif" font-size="10.00">+ DisplayControls</text>
<text text-anchor="start" x="37.5" y="-925.5" font-family="Helvetica,sans-Serif" font-size="10.00">+ DisplayIcon</text>
<polyline fill="none" stroke="black" points="29.5,-918.5 134.5,-918.5 "/>
<text text-anchor="middle" x="82" y="-906.5" font-family="Helvetica,sans-Serif" font-size="10.00"> </text>
</a>
</g>
</g>
<!-- Node5&#45;&gt;Node3 -->
<g id="edge5" class="edge">
<title>Node5&#45;&gt;Node3</title>
<path fill="none" stroke="midnightblue" d="M55.07,-889.88C51.32,-881.18 48.05,-872 46,-863 32.69,-804.5 32.69,-786.5 46,-728 48.79,-715.75 53.84,-703.16 59.29,-691.88"/>
<polygon fill="none" stroke="midnightblue" points="51.95,-891.48 59.29,-899.12 58.31,-888.57 51.95,-891.48"/>
</g>
<!-- Node5&#45;&gt;Node4 -->
<g id="edge4" class="edge">
<title>Node5&#45;&gt;Node4</title>
<path fill="none" stroke="midnightblue" d="M100.66,-890C104.08,-881.19 107.72,-871.84 111.31,-862.6"/>
<polygon fill="none" stroke="midnightblue" points="97.39,-888.75 97.03,-899.33 103.91,-891.28 97.39,-888.75"/>
</g>
<!-- Node6 -->
<g id="node6" class="node">
<title>Node6</title>
<g id="a_node6"><a xlink:title=" ">
<polygon fill="none" stroke="#bfbfbf" points="182.5,-623.5 182.5,-680.5 313.5,-680.5 313.5,-623.5 182.5,-623.5"/>
<text text-anchor="middle" x="248" y="-668.5" font-family="Helvetica,sans-Serif" font-size="10.00">IEquatable&lt; ISession &gt;</text>
<polyline fill="none" stroke="#bfbfbf" points="182.5,-661.5 313.5,-661.5 "/>
<text text-anchor="middle" x="248" y="-649.5" font-family="Helvetica,sans-Serif" font-size="10.00"> </text>
<polyline fill="none" stroke="#bfbfbf" points="182.5,-642.5 313.5,-642.5 "/>
<text text-anchor="middle" x="248" y="-630.5" font-family="Helvetica,sans-Serif" font-size="10.00"> </text>
</a>
</g>
</g>
<!-- Node6&#45;&gt;Node2 -->
<g id="edge6" class="edge">
<title>Node6&#45;&gt;Node2</title>
<path fill="none" stroke="midnightblue" d="M223.03,-615.05C214.48,-602.74 204.81,-588.81 195.85,-575.91"/>
<polygon fill="none" stroke="midnightblue" points="220.17,-617.07 228.75,-623.28 225.92,-613.07 220.17,-617.07"/>
</g>
<!-- Node7 -->
<g id="node7" class="node">
<title>Node7</title>
<g id="a_node7"><a xlink:title=" ">
<polygon fill="none" stroke="#bfbfbf" points="237.5,-502 237.5,-559 370.5,-559 370.5,-502 237.5,-502"/>
<text text-anchor="middle" x="304" y="-547" font-family="Helvetica,sans-Serif" font-size="10.00">INotifyPropertyChanged</text>
<polyline fill="none" stroke="#bfbfbf" points="237.5,-540 370.5,-540 "/>
<text text-anchor="middle" x="304" y="-528" font-family="Helvetica,sans-Serif" font-size="10.00"> </text>
<polyline fill="none" stroke="#bfbfbf" points="237.5,-521 370.5,-521 "/>
<text text-anchor="middle" x="304" y="-509" font-family="Helvetica,sans-Serif" font-size="10.00"> </text>
</a>
</g>
</g>
<!-- Node7&#45;&gt;Node1 -->
<g id="edge8" class="edge">
<title>Node7&#45;&gt;Node1</title>
<path fill="none" stroke="midnightblue" d="M265.57,-494.94C249.64,-480.61 230.96,-463.81 214.05,-448.61"/>
<polygon fill="none" stroke="midnightblue" points="263.38,-497.67 273.15,-501.76 268.06,-492.47 263.38,-497.67"/>
</g>
</g>
</svg>
        <g id="navigator" transform="translate(0 0)" fill="#404254">
                <rect fill="#f2f5e9" fill-opacity="0.5" stroke="#606060" stroke-width=".5" x="0" y="0" width="60" height="60"/>
                <use id="zoomplus" xlink:href="#zoomPlus" x="17" y="9" onmousedown="handleZoom(evt,'in')"/>
                <use id="zoomminus" xlink:href="#zoomMin" x="42" y="9" onmousedown="handleZoom(evt,'out')"/>
                <use id="reset" xlink:href="#resetDef" x="30" y="36" onmousedown="handleReset()"/>
                <g id="arrowUp" xlink:href="#dirArrow" transform="translate(30 24)" onmousedown="handlePan(0,-1)">
                  <use xlink:href="#rim" fill="#404040">
                        <set attributeName="fill" to="#808080" begin="arrowUp.mouseover" end="arrowUp.mouseout"/>
                  </use>
                  <path fill="none" stroke="white" stroke-width="1.5" d="M0,-3.0v7 M-2.5,-0.5L0,-3.0L2.5,-0.5"/>
                </g>
                <g id="arrowRight" xlink:href="#dirArrow" transform="rotate(90) translate(36 -43)" onmousedown="handlePan(1,0)">
                  <use xlink:href="#rim" fill="#404040">
                        <set attributeName="fill" to="#808080" begin="arrowRight.mouseover" end="arrowRight.mouseout"/>
                  </use>
                  <path fill="none" stroke="white" stroke-width="1.5" d="M0,-3.0v7 M-2.5,-0.5L0,-3.0L2.5,-0.5"/>
                </g>
                <g id="arrowDown" xlink:href="#dirArrow" transform="rotate(180) translate(-30 -48)" onmousedown="handlePan(0,1)">
                  <use xlink:href="#rim" fill="#404040">
                        <set attributeName="fill" to="#808080" begin="arrowDown.mouseover" end="arrowDown.mouseout"/>
                  </use>
                  <path fill="none" stroke="white" stroke-width="1.5" d="M0,-3.0v7 M-2.5,-0.5L0,-3.0L2.5,-0.5"/>
                </g>
                <g id="arrowLeft" xlink:href="#dirArrow" transform="rotate(270) translate(-36 17)" onmousedown="handlePan(-1,0)">
                  <use xlink:href="#rim" fill="#404040">
                        <set attributeName="fill" to="#808080" begin="arrowLeft.mouseover" end="arrowLeft.mouseout"/>
                  </use>
                  <path fill="none" stroke="white" stroke-width="1.5" d="M0,-3.0v7 M-2.5,-0.5L0,-3.0L2.5,-0.5"/>
                </g>
        </g>
        <svg viewBox="0 0 15 15" width="100%" height="30px" preserveAspectRatio="xMaxYMin meet">
         <g id="arrow_out" transform="scale(0.3 0.3)">
          <a xlink:href="interface_volume_control_1_1_audio_1_1_interfaces_1_1_i_session__inherit__graph_org.svg" target="_base">
           <rect id="button" ry="5" rx="5" y="6" x="6" height="38" width="38"
                fill="#f2f5e9" fill-opacity="0.5" stroke="#606060" stroke-width="1.0"/>
           <path id="arrow"
             d="M 11.500037,31.436501 C 11.940474,20.09759 22.043105,11.32322 32.158766,21.979434 L 37.068811,17.246167 C 37.068811,17.246167 37.088388,32 37.088388,32 L 22.160133,31.978069 C 22.160133,31.978069 26.997745,27.140456 26.997745,27.140456 C 18.528582,18.264221 13.291696,25.230495 11.500037,31.436501 z"
             style="fill:#404040;"/>
          </a>
         </g>
        </svg>
</svg>
