<?xml version="1.0" encoding="UTF-8" standalone="no"?>
<!DOCTYPE svg PUBLIC "-//W3C//DTD SVG 1.1//EN"
 "http://www.w3.org/Graphics/SVG/1.1/DTD/svg11.dtd">
<!-- Generated by graphviz version 2.43.0 (0)
 -->
<!-- Title: VolumeControl.Hotkeys.Interfaces.IHotkeyActionManager Pages: 1 -->
<svg width="318pt" height="325pt"
 viewBox="0.00 0.00 318.00 325.00" xmlns="http://www.w3.org/2000/svg" xmlns:xlink="http://www.w3.org/1999/xlink">
<g id="graph0" class="graph" transform="scale(1 1) rotate(0) translate(4 321)">
<title>VolumeControl.Hotkeys.Interfaces.IHotkeyActionManager</title>
<!-- Node1 -->
<g id="node1" class="node">
<title>Node1</title>
<g id="a_node1"><a xlink:title="Represents a hotkey action manager object, which contains the list of IHotkeyActions used in the hotk...">
<polygon fill="#bfbfbf" stroke="black" points="55.5,-0.5 55.5,-90.5 241.5,-90.5 241.5,-0.5 55.5,-0.5"/>
<text text-anchor="start" x="63.5" y="-78.5" font-family="Helvetica,sans-Serif" font-size="10.00">VolumeControl.Hotkeys.Interfaces.</text>
<text text-anchor="middle" x="148.5" y="-67.5" font-family="Helvetica,sans-Serif" font-size="10.00">IHotkeyActionManager</text>
<polyline fill="none" stroke="black" points="55.5,-60.5 241.5,-60.5 "/>
<text text-anchor="start" x="63.5" y="-48.5" font-family="Helvetica,sans-Serif" font-size="10.00">+ NullActionHandler</text>
<text text-anchor="start" x="63.5" y="-37.5" font-family="Helvetica,sans-Serif" font-size="10.00">+ Bindings</text>
<text text-anchor="start" x="63.5" y="-26.5" font-family="Helvetica,sans-Serif" font-size="10.00">+ this[string identifier]</text>
<polyline fill="none" stroke="black" points="55.5,-19.5 241.5,-19.5 "/>
<text text-anchor="middle" x="148.5" y="-7.5" font-family="Helvetica,sans-Serif" font-size="10.00"> </text>
</a>
</g>
</g>
<!-- Node2 -->
<g id="node2" class="node">
<title>Node2</title>
<g id="a_node2"><a xlink:title=" ">
<polygon fill="none" stroke="#bfbfbf" points="0,-199 0,-256 133,-256 133,-199 0,-199"/>
<text text-anchor="middle" x="66.5" y="-244" font-family="Helvetica,sans-Serif" font-size="10.00">INotifyPropertyChanged</text>
<polyline fill="none" stroke="#bfbfbf" points="0,-237 133,-237 "/>
<text text-anchor="middle" x="66.5" y="-225" font-family="Helvetica,sans-Serif" font-size="10.00"> </text>
<polyline fill="none" stroke="#bfbfbf" points="0,-218 133,-218 "/>
<text text-anchor="middle" x="66.5" y="-206" font-family="Helvetica,sans-Serif" font-size="10.00"> </text>
</a>
</g>
</g>
<!-- Node2&#45;&gt;Node1 -->
<g id="edge1" class="edge">
<title>Node2&#45;&gt;Node1</title>
<path fill="none" stroke="midnightblue" d="M83.35,-189.51C96.4,-160.86 114.53,-121.07 128.35,-90.73"/>
<polygon fill="none" stroke="midnightblue" points="80.09,-188.22 79.13,-198.77 86.46,-191.12 80.09,-188.22"/>
</g>
<!-- Node3 -->
<g id="node3" class="node">
<title>Node3</title>
<g id="a_node3"><a xlink:href="interface_volume_control_1_1_core_1_1_input_1_1_actions_1_1_i_hotkey_action.html" target="_top" xlink:title="Represents an invokable method that can be triggered via a hotkey.">
<polygon fill="none" stroke="black" points="151,-138.5 151,-316.5 310,-316.5 310,-138.5 151,-138.5"/>
<text text-anchor="start" x="159" y="-304.5" font-family="Helvetica,sans-Serif" font-size="10.00">VolumeControl.Core.Input.</text>
<text text-anchor="middle" x="230.5" y="-293.5" font-family="Helvetica,sans-Serif" font-size="10.00">Actions.IHotkeyAction</text>
<polyline fill="none" stroke="black" points="151,-286.5 310,-286.5 "/>
<text text-anchor="start" x="159" y="-274.5" font-family="Helvetica,sans-Serif" font-size="10.00">+ Type</text>
<text text-anchor="start" x="159" y="-263.5" font-family="Helvetica,sans-Serif" font-size="10.00">+ MethodInfo</text>
<text text-anchor="start" x="159" y="-252.5" font-family="Helvetica,sans-Serif" font-size="10.00">+ Instance</text>
<text text-anchor="start" x="159" y="-241.5" font-family="Helvetica,sans-Serif" font-size="10.00">+ Data</text>
<text text-anchor="start" x="159" y="-230.5" font-family="Helvetica,sans-Serif" font-size="10.00">+ UsesExtraParameters</text>
<text text-anchor="start" x="159" y="-219.5" font-family="Helvetica,sans-Serif" font-size="10.00">+ Identifier</text>
<text text-anchor="start" x="159" y="-208.5" font-family="Helvetica,sans-Serif" font-size="10.00">+ Name</text>
<text text-anchor="start" x="159" y="-197.5" font-family="Helvetica,sans-Serif" font-size="10.00">+ Description</text>
<text text-anchor="start" x="159" y="-186.5" font-family="Helvetica,sans-Serif" font-size="10.00">+ GroupName</text>
<text text-anchor="start" x="159" y="-175.5" font-family="Helvetica,sans-Serif" font-size="10.00">+ GroupBrush</text>
<polyline fill="none" stroke="black" points="151,-168.5 310,-168.5 "/>
<text text-anchor="start" x="159" y="-156.5" font-family="Helvetica,sans-Serif" font-size="10.00">+ HandleKeyEvent()</text>
<text text-anchor="start" x="159" y="-145.5" font-family="Helvetica,sans-Serif" font-size="10.00">+ GetDefaultActionSettings()</text>
</a>
</g>
</g>
<!-- Node3&#45;&gt;Node1 -->
<g id="edge2" class="edge">
<title>Node3&#45;&gt;Node1</title>
<path fill="none" stroke="#404040" d="M190.34,-138.35C184.68,-125.92 179,-113.45 173.73,-101.87"/>
<polygon fill="none" stroke="#404040" points="173.58,-101.56 167.45,-97.76 168.61,-90.64 174.73,-94.44 173.58,-101.56"/>
<text text-anchor="middle" x="211.5" y="-112" font-family="Helvetica,sans-Serif" font-size="10.00"> +NullAction</text>
</g>
</g>
</svg>
