<?xml version="1.0" encoding="UTF-8" standalone="no"?>
<!DOCTYPE svg PUBLIC "-//W3C//DTD SVG 1.1//EN"
 "http://www.w3.org/Graphics/SVG/1.1/DTD/svg11.dtd">
<!-- Generated by graphviz version 2.43.0 (0)
 -->
<!-- Title: VolumeControl.Audio.Interfaces.ISession Pages: 1 -->
<svg width="379pt" height="574pt"
 viewBox="0.00 0.00 378.50 574.00" xmlns="http://www.w3.org/2000/svg" xmlns:xlink="http://www.w3.org/1999/xlink">
<g id="graph0" class="graph" transform="scale(1 1) rotate(0) translate(4 570)">
<title>VolumeControl.Audio.Interfaces.ISession</title>
<!-- Node1 -->
<g id="node1" class="node">
<title>Node1</title>
<g id="a_node1"><a xlink:title="Represents an audio session.">
<polygon fill="#bfbfbf" stroke="black" points="78,-0.5 78,-90.5 252,-90.5 252,-0.5 78,-0.5"/>
<text text-anchor="start" x="86" y="-78.5" font-family="Helvetica,sans-Serif" font-size="10.00">VolumeControl.Audio.Interfaces.</text>
<text text-anchor="middle" x="165" y="-67.5" font-family="Helvetica,sans-Serif" font-size="10.00">ISession</text>
<polyline fill="none" stroke="black" points="78,-60.5 252,-60.5 "/>
<text text-anchor="start" x="86" y="-48.5" font-family="Helvetica,sans-Serif" font-size="10.00">+ Name</text>
<text text-anchor="start" x="86" y="-37.5" font-family="Helvetica,sans-Serif" font-size="10.00">+ SessionIdentifier</text>
<text text-anchor="start" x="86" y="-26.5" font-family="Helvetica,sans-Serif" font-size="10.00">+ SessionInstanceIdentifier</text>
<polyline fill="none" stroke="black" points="78,-19.5 252,-19.5 "/>
<text text-anchor="middle" x="165" y="-7.5" font-family="Helvetica,sans-Serif" font-size="10.00"> </text>
</a>
</g>
</g>
<!-- Node2 -->
<g id="node2" class="node">
<title>Node2</title>
<g id="a_node2"><a xlink:href="interface_volume_control_1_1_audio_1_1_interfaces_1_1_i_process.html" target="_top" xlink:title="Represents read&#45;only information about a process running on the local system.">
<polygon fill="none" stroke="black" points="110.5,-127.5 110.5,-217.5 219.5,-217.5 219.5,-127.5 110.5,-127.5"/>
<text text-anchor="middle" x="165" y="-205.5" font-family="Helvetica,sans-Serif" font-size="10.00">IProcess</text>
<polyline fill="none" stroke="black" points="110.5,-198.5 219.5,-198.5 "/>
<text text-anchor="start" x="118.5" y="-186.5" font-family="Helvetica,sans-Serif" font-size="10.00">+ ProcessName</text>
<text text-anchor="start" x="118.5" y="-175.5" font-family="Helvetica,sans-Serif" font-size="10.00">+ PID</text>
<text text-anchor="start" x="118.5" y="-164.5" font-family="Helvetica,sans-Serif" font-size="10.00">+ ProcessIdentifier</text>
<text text-anchor="start" x="118.5" y="-153.5" font-family="Helvetica,sans-Serif" font-size="10.00">+ HashCode</text>
<polyline fill="none" stroke="black" points="110.5,-146.5 219.5,-146.5 "/>
<text text-anchor="middle" x="165" y="-134.5" font-family="Helvetica,sans-Serif" font-size="10.00"> </text>
</a>
</g>
</g>
<!-- Node2&#45;&gt;Node1 -->
<g id="edge1" class="edge">
<title>Node2&#45;&gt;Node1</title>
<path fill="none" stroke="midnightblue" d="M165,-117.16C165,-108.28 165,-99.18 165,-90.59"/>
<polygon fill="none" stroke="midnightblue" points="161.5,-117.43 165,-127.43 168.5,-117.43 161.5,-117.43"/>
</g>
<!-- Node3 -->
<g id="node3" class="node">
<title>Node3</title>
<g id="a_node3"><a xlink:href="interface_volume_control_1_1_audio_1_1_interfaces_1_1_i_audio_control.html" target="_top" xlink:title="Base interface type for IDevice and IProcess/ISession.">
<polygon fill="none" stroke="black" points="11.5,-254.5 11.5,-311.5 152.5,-311.5 152.5,-254.5 11.5,-254.5"/>
<text text-anchor="middle" x="82" y="-299.5" font-family="Helvetica,sans-Serif" font-size="10.00">IAudioControl</text>
<polyline fill="none" stroke="black" points="11.5,-292.5 152.5,-292.5 "/>
<text text-anchor="start" x="19.5" y="-280.5" font-family="Helvetica,sans-Serif" font-size="10.00">+ AudioMeterInformation</text>
<polyline fill="none" stroke="black" points="11.5,-273.5 152.5,-273.5 "/>
<text text-anchor="middle" x="82" y="-261.5" font-family="Helvetica,sans-Serif" font-size="10.00"> </text>
</a>
</g>
</g>
<!-- Node3&#45;&gt;Node1 -->
<g id="edge6" class="edge">
<title>Node3&#45;&gt;Node1</title>
<path fill="none" stroke="midnightblue" d="M80.99,-243.89C81.44,-211.58 85.23,-164.63 101,-127 106.38,-114.16 114.43,-101.67 123.01,-90.51"/>
<polygon fill="none" stroke="midnightblue" points="77.48,-244.24 80.95,-254.25 84.48,-244.26 77.48,-244.24"/>
</g>
<!-- Node3&#45;&gt;Node2 -->
<g id="edge2" class="edge">
<title>Node3&#45;&gt;Node2</title>
<path fill="none" stroke="midnightblue" d="M109.4,-246.19C116.4,-237.03 124.02,-227.07 131.3,-217.55"/>
<polygon fill="none" stroke="midnightblue" points="106.46,-244.27 103.16,-254.34 112.01,-248.52 106.46,-244.27"/>
</g>
<!-- Node4 -->
<g id="node4" class="node">
<title>Node4</title>
<g id="a_node4"><a xlink:href="interface_volume_control_1_1_audio_1_1_interfaces_1_1_i_volume_control.html" target="_top" xlink:title="Represents some kind of controllable audio playback instance.">
<polygon fill="none" stroke="black" points="0,-348.5 0,-449.5 164,-449.5 164,-348.5 0,-348.5"/>
<text text-anchor="middle" x="82" y="-437.5" font-family="Helvetica,sans-Serif" font-size="10.00">IVolumeControl</text>
<polyline fill="none" stroke="black" points="0,-430.5 164,-430.5 "/>
<text text-anchor="start" x="8" y="-418.5" font-family="Helvetica,sans-Serif" font-size="10.00">+ PeakMeterValue</text>
<text text-anchor="start" x="8" y="-407.5" font-family="Helvetica,sans-Serif" font-size="10.00">+ NativeVolume</text>
<text text-anchor="start" x="8" y="-396.5" font-family="Helvetica,sans-Serif" font-size="10.00">+ Volume</text>
<text text-anchor="start" x="8" y="-385.5" font-family="Helvetica,sans-Serif" font-size="10.00">+ Muted</text>
<polyline fill="none" stroke="black" points="0,-378.5 164,-378.5 "/>
<text text-anchor="start" x="8" y="-366.5" font-family="Helvetica,sans-Serif" font-size="10.00">~ MakeListDisplayableControl</text>
<text text-anchor="start" x="8" y="-355.5" font-family="Helvetica,sans-Serif" font-size="10.00">Template()</text>
</a>
</g>
</g>
<!-- Node4&#45;&gt;Node3 -->
<g id="edge3" class="edge">
<title>Node4&#45;&gt;Node3</title>
<path fill="none" stroke="midnightblue" d="M82,-338.23C82,-328.92 82,-319.71 82,-311.59"/>
<polygon fill="none" stroke="midnightblue" points="78.5,-338.33 82,-348.33 85.5,-338.33 78.5,-338.33"/>
</g>
<!-- Node5 -->
<g id="node5" class="node">
<title>Node5</title>
<g id="a_node5"><a xlink:href="interface_volume_control_1_1_core_1_1_interfaces_1_1_i_list_displayable.html" target="_top" xlink:title="Represents an object that, when it is a member of a list of similar items, can be displayed in the Li...">
<polygon fill="none" stroke="black" points="29.5,-486.5 29.5,-565.5 134.5,-565.5 134.5,-486.5 29.5,-486.5"/>
<text text-anchor="middle" x="82" y="-553.5" font-family="Helvetica,sans-Serif" font-size="10.00">IListDisplayable</text>
<polyline fill="none" stroke="black" points="29.5,-546.5 134.5,-546.5 "/>
<text text-anchor="start" x="37.5" y="-534.5" font-family="Helvetica,sans-Serif" font-size="10.00">+ DisplayText</text>
<text text-anchor="start" x="37.5" y="-523.5" font-family="Helvetica,sans-Serif" font-size="10.00">+ DisplayControls</text>
<text text-anchor="start" x="37.5" y="-512.5" font-family="Helvetica,sans-Serif" font-size="10.00">+ DisplayIcon</text>
<polyline fill="none" stroke="black" points="29.5,-505.5 134.5,-505.5 "/>
<text text-anchor="middle" x="82" y="-493.5" font-family="Helvetica,sans-Serif" font-size="10.00"> </text>
</a>
</g>
</g>
<!-- Node5&#45;&gt;Node4 -->
<g id="edge4" class="edge">
<title>Node5&#45;&gt;Node4</title>
<path fill="none" stroke="midnightblue" d="M82,-476.41C82,-467.64 82,-458.49 82,-449.69"/>
<polygon fill="none" stroke="midnightblue" points="78.5,-476.48 82,-486.48 85.5,-476.48 78.5,-476.48"/>
</g>
<!-- Node6 -->
<g id="node6" class="node">
<title>Node6</title>
<g id="a_node6"><a xlink:title=" ">
<polygon fill="none" stroke="#bfbfbf" points="170.5,-254.5 170.5,-311.5 301.5,-311.5 301.5,-254.5 170.5,-254.5"/>
<text text-anchor="middle" x="236" y="-299.5" font-family="Helvetica,sans-Serif" font-size="10.00">IEquatable&lt; ISession &gt;</text>
<polyline fill="none" stroke="#bfbfbf" points="170.5,-292.5 301.5,-292.5 "/>
<text text-anchor="middle" x="236" y="-280.5" font-family="Helvetica,sans-Serif" font-size="10.00"> </text>
<polyline fill="none" stroke="#bfbfbf" points="170.5,-273.5 301.5,-273.5 "/>
<text text-anchor="middle" x="236" y="-261.5" font-family="Helvetica,sans-Serif" font-size="10.00"> </text>
</a>
</g>
</g>
<!-- Node6&#45;&gt;Node2 -->
<g id="edge5" class="edge">
<title>Node6&#45;&gt;Node2</title>
<path fill="none" stroke="midnightblue" d="M212.38,-245.91C206.44,-236.83 199.99,-226.98 193.83,-217.55"/>
<polygon fill="none" stroke="midnightblue" points="209.5,-247.89 217.9,-254.34 215.35,-244.06 209.5,-247.89"/>
</g>
<!-- Node7 -->
<g id="node7" class="node">
<title>Node7</title>
<g id="a_node7"><a xlink:title=" ">
<polygon fill="none" stroke="#bfbfbf" points="237.5,-144 237.5,-201 370.5,-201 370.5,-144 237.5,-144"/>
<text text-anchor="middle" x="304" y="-189" font-family="Helvetica,sans-Serif" font-size="10.00">INotifyPropertyChanged</text>
<polyline fill="none" stroke="#bfbfbf" points="237.5,-182 370.5,-182 "/>
<text text-anchor="middle" x="304" y="-170" font-family="Helvetica,sans-Serif" font-size="10.00"> </text>
<polyline fill="none" stroke="#bfbfbf" points="237.5,-163 370.5,-163 "/>
<text text-anchor="middle" x="304" y="-151" font-family="Helvetica,sans-Serif" font-size="10.00"> </text>
</a>
</g>
</g>
<!-- Node7&#45;&gt;Node1 -->
<g id="edge7" class="edge">
<title>Node7&#45;&gt;Node1</title>
<path fill="none" stroke="midnightblue" d="M265.57,-136.94C249.64,-122.61 230.96,-105.81 214.05,-90.61"/>
<polygon fill="none" stroke="midnightblue" points="263.38,-139.67 273.15,-143.76 268.06,-134.47 263.38,-139.67"/>
</g>
</g>
</svg>
