<?xml version="1.0" encoding="UTF-8" standalone="no"?>
<!DOCTYPE svg PUBLIC "-//W3C//DTD SVG 1.1//EN"
 "http://www.w3.org/Graphics/SVG/1.1/DTD/svg11.dtd">
<!-- Generated by graphviz version 2.43.0 (0)
 -->
<!-- Title: VolumeControl.Core.Input.IHotkey Pages: 1 -->
<svg width="234pt" height="215pt"
 viewBox="0.00 0.00 233.50 215.00" xmlns="http://www.w3.org/2000/svg" xmlns:xlink="http://www.w3.org/1999/xlink">
<g id="graph0" class="graph" transform="scale(1 1) rotate(0) translate(4 211)">
<title>VolumeControl.Core.Input.IHotkey</title>
<!-- Node1 -->
<g id="node1" class="node">
<title>Node1</title>
<g id="a_node1"><a xlink:title="Represents a hotkey instance.">
<polygon fill="#bfbfbf" stroke="black" points="55,-0.5 55,-112.5 200,-112.5 200,-0.5 55,-0.5"/>
<text text-anchor="start" x="63" y="-100.5" font-family="Helvetica,sans-Serif" font-size="10.00">VolumeControl.Core.Input.</text>
<text text-anchor="middle" x="127.5" y="-89.5" font-family="Helvetica,sans-Serif" font-size="10.00">IHotkey</text>
<polyline fill="none" stroke="black" points="55,-82.5 200,-82.5 "/>
<text text-anchor="start" x="63" y="-70.5" font-family="Helvetica,sans-Serif" font-size="10.00">+ ID</text>
<text text-anchor="start" x="63" y="-59.5" font-family="Helvetica,sans-Serif" font-size="10.00">+ Key</text>
<text text-anchor="start" x="63" y="-48.5" font-family="Helvetica,sans-Serif" font-size="10.00">+ Modifier</text>
<text text-anchor="start" x="63" y="-37.5" font-family="Helvetica,sans-Serif" font-size="10.00">+ Registered</text>
<text text-anchor="start" x="63" y="-26.5" font-family="Helvetica,sans-Serif" font-size="10.00">+ ActionSettings</text>
<polyline fill="none" stroke="black" points="55,-19.5 200,-19.5 "/>
<text text-anchor="middle" x="127.5" y="-7.5" font-family="Helvetica,sans-Serif" font-size="10.00"> </text>
</a>
</g>
</g>
<!-- Node2 -->
<g id="node2" class="node">
<title>Node2</title>
<g id="a_node2"><a xlink:title=" ">
<polygon fill="none" stroke="#bfbfbf" points="0,-149.5 0,-206.5 133,-206.5 133,-149.5 0,-149.5"/>
<text text-anchor="middle" x="66.5" y="-194.5" font-family="Helvetica,sans-Serif" font-size="10.00">INotifyPropertyChanged</text>
<polyline fill="none" stroke="#bfbfbf" points="0,-187.5 133,-187.5 "/>
<text text-anchor="middle" x="66.5" y="-175.5" font-family="Helvetica,sans-Serif" font-size="10.00"> </text>
<polyline fill="none" stroke="#bfbfbf" points="0,-168.5 133,-168.5 "/>
<text text-anchor="middle" x="66.5" y="-156.5" font-family="Helvetica,sans-Serif" font-size="10.00"> </text>
</a>
</g>
</g>
<!-- Node2&#45;&gt;Node1 -->
<g id="edge1" class="edge">
<title>Node2&#45;&gt;Node1</title>
<path fill="none" stroke="midnightblue" d="M85.28,-140.22C89.7,-131.55 94.51,-122.12 99.25,-112.83"/>
<polygon fill="none" stroke="midnightblue" points="82.08,-138.79 80.65,-149.28 88.31,-141.97 82.08,-138.79"/>
</g>
<!-- Node3 -->
<g id="node3" class="node">
<title>Node3</title>
<g id="a_node3"><a xlink:title=" ">
<polygon fill="none" stroke="#bfbfbf" points="151.5,-149.5 151.5,-206.5 225.5,-206.5 225.5,-149.5 151.5,-149.5"/>
<text text-anchor="middle" x="188.5" y="-194.5" font-family="Helvetica,sans-Serif" font-size="10.00">IDisposable</text>
<polyline fill="none" stroke="#bfbfbf" points="151.5,-187.5 225.5,-187.5 "/>
<text text-anchor="middle" x="188.5" y="-175.5" font-family="Helvetica,sans-Serif" font-size="10.00"> </text>
<polyline fill="none" stroke="#bfbfbf" points="151.5,-168.5 225.5,-168.5 "/>
<text text-anchor="middle" x="188.5" y="-156.5" font-family="Helvetica,sans-Serif" font-size="10.00"> </text>
</a>
</g>
</g>
<!-- Node3&#45;&gt;Node1 -->
<g id="edge2" class="edge">
<title>Node3&#45;&gt;Node1</title>
<path fill="none" stroke="midnightblue" d="M169.72,-140.22C165.3,-131.55 160.49,-122.12 155.75,-112.83"/>
<polygon fill="none" stroke="midnightblue" points="166.69,-141.97 174.35,-149.28 172.92,-138.79 166.69,-141.97"/>
</g>
</g>
</svg>
