<?xml version="1.0" encoding="UTF-8" standalone="no"?>
<!DOCTYPE svg PUBLIC "-//W3C//DTD SVG 1.1//EN"
 "http://www.w3.org/Graphics/SVG/1.1/DTD/svg11.dtd">
<!-- Generated by graphviz version 2.43.0 (0)
 -->
<!-- Title: VolumeControl.Core.Input.IHotkey Pages: 1 -->
<!--zoomable 645 -->
<svg id="main" version="1.1" xmlns="http://www.w3.org/2000/svg" xmlns:xlink="http://www.w3.org/1999/xlink" xml:space="preserve" onload="init(evt)">
<style type="text/css"><![CDATA[
.edge:hover path { stroke: red; }
.edge:hover polygon { stroke: red; fill: red; }
]]></style>
<script type="text/javascript"><![CDATA[
var edges = document.getElementsByTagName('g');
if (edges && edges.length) {
  for (var i=0;i<edges.length;i++) {
    if (edges[i].id.substr(0,4)=='edge') {
      edges[i].setAttribute('class','edge');
    }
  }
}
]]></script>
        <defs>
                <circle id="rim" cx="0" cy="0" r="7"/>
                <circle id="rim2" cx="0" cy="0" r="3.5"/>
                <g id="zoomPlus">
                        <use xlink:href="#rim" fill="#404040">
                                <set attributeName="fill" to="#808080" begin="zoomplus.mouseover" end="zoomplus.mouseout"/>
                        </use>
                        <path d="M-4,0h8M0,-4v8" fill="none" stroke="white" stroke-width="1.5" pointer-events="none"/>
                </g>
                <g id="zoomMin">
                        <use xlink:href="#rim" fill="#404040">
                                <set attributeName="fill" to="#808080" begin="zoomminus.mouseover" end="zoomminus.mouseout"/>
                        </use>
                        <path d="M-4,0h8" fill="none" stroke="white" stroke-width="1.5" pointer-events="none"/>
                </g>
                <g id="dirArrow">
                        <path fill="none" stroke="white" stroke-width="1.5" d="M0,-3.0v7 M-2.5,-0.5L0,-3.0L2.5,-0.5"/>
                </g>
               <g id="resetDef">
                       <use xlink:href="#rim2" fill="#404040">
                               <set attributeName="fill" to="#808080" begin="reset.mouseover" end="reset.mouseout"/>
                       </use>
               </g>
        </defs>

<script type="text/javascript">
var viewWidth = 316;
var viewHeight = 645;
var sectionId = 'dynsection-0';
</script>
<script xlink:href="svgpan.js"/>
<svg id="graph" class="graph">
<g id="viewport">
<title>VolumeControl.Core.Input.IHotkey</title>
<!-- Node1 -->
<g id="node1" class="node">
<title>Node1</title>
<g id="a_node1"><a xlink:title="Represents a hotkey instance.">
<polygon fill="#bfbfbf" stroke="black" points="81,-441.5 81,-542.5 226,-542.5 226,-441.5 81,-441.5"/>
<text text-anchor="start" x="89" y="-530.5" font-family="Helvetica,sans-Serif" font-size="10.00">VolumeControl.Core.Input.</text>
<text text-anchor="middle" x="153.5" y="-519.5" font-family="Helvetica,sans-Serif" font-size="10.00">IHotkey</text>
<polyline fill="none" stroke="black" points="81,-512.5 226,-512.5 "/>
<text text-anchor="start" x="89" y="-500.5" font-family="Helvetica,sans-Serif" font-size="10.00">+ ID</text>
<text text-anchor="start" x="89" y="-489.5" font-family="Helvetica,sans-Serif" font-size="10.00">+ Key</text>
<text text-anchor="start" x="89" y="-478.5" font-family="Helvetica,sans-Serif" font-size="10.00">+ Modifier</text>
<text text-anchor="start" x="89" y="-467.5" font-family="Helvetica,sans-Serif" font-size="10.00">+ Registered</text>
<polyline fill="none" stroke="black" points="81,-460.5 226,-460.5 "/>
<text text-anchor="middle" x="153.5" y="-448.5" font-family="Helvetica,sans-Serif" font-size="10.00"> </text>
</a>
</g>
</g>
<!-- Node4 -->
<g id="node4" class="node">
<title>Node4</title>
<g id="a_node4"><a xlink:href="class_volume_control_1_1_core_1_1_input_1_1_hotkey.html" target="_top" xlink:title="A Hotkey that may be registered with the windows API.">
<polygon fill="none" stroke="black" points="0,-270.5 0,-404.5 145,-404.5 145,-270.5 0,-270.5"/>
<text text-anchor="start" x="8" y="-392.5" font-family="Helvetica,sans-Serif" font-size="10.00">VolumeControl.Core.Input.</text>
<text text-anchor="middle" x="72.5" y="-381.5" font-family="Helvetica,sans-Serif" font-size="10.00">Hotkey</text>
<polyline fill="none" stroke="black" points="0,-374.5 145,-374.5 "/>
<text text-anchor="start" x="8" y="-362.5" font-family="Helvetica,sans-Serif" font-size="10.00">+ ID</text>
<text text-anchor="start" x="8" y="-351.5" font-family="Helvetica,sans-Serif" font-size="10.00">+ Key</text>
<text text-anchor="start" x="8" y="-340.5" font-family="Helvetica,sans-Serif" font-size="10.00">+ Modifier</text>
<text text-anchor="start" x="8" y="-329.5" font-family="Helvetica,sans-Serif" font-size="10.00">+ Registered</text>
<polyline fill="none" stroke="black" points="0,-322.5 145,-322.5 "/>
<text text-anchor="start" x="8" y="-310.5" font-family="Helvetica,sans-Serif" font-size="10.00">+ Hotkey()</text>
<text text-anchor="start" x="8" y="-299.5" font-family="Helvetica,sans-Serif" font-size="10.00">+ Hotkey()</text>
<text text-anchor="start" x="8" y="-288.5" font-family="Helvetica,sans-Serif" font-size="10.00">+ Dispose()</text>
<text text-anchor="start" x="8" y="-277.5" font-family="Helvetica,sans-Serif" font-size="10.00">~ MessageHook()</text>
</a>
</g>
</g>
<!-- Node1&#45;&gt;Node4 -->
<g id="edge3" class="edge">
<title>Node1&#45;&gt;Node4</title>
<path fill="none" stroke="midnightblue" d="M122.44,-432.52C117.6,-423.41 112.57,-413.95 107.65,-404.69"/>
<polygon fill="none" stroke="midnightblue" points="119.42,-434.3 127.2,-441.49 125.6,-431.01 119.42,-434.3"/>
</g>
<!-- Node5 -->
<g id="node5" class="node">
<title>Node5</title>
<g id="a_node5"><a xlink:href="interface_volume_control_1_1_core_1_1_input_1_1_i_bindable_hotkey.html" target="_top" xlink:title="Represents a BindableHotkey.">
<polygon fill="none" stroke="black" points="163,-270.5 163,-404.5 308,-404.5 308,-270.5 163,-270.5"/>
<text text-anchor="start" x="171" y="-392.5" font-family="Helvetica,sans-Serif" font-size="10.00">VolumeControl.Core.Input.</text>
<text text-anchor="middle" x="235.5" y="-381.5" font-family="Helvetica,sans-Serif" font-size="10.00">IBindableHotkey</text>
<polyline fill="none" stroke="black" points="163,-374.5 308,-374.5 "/>
<text text-anchor="start" x="171" y="-362.5" font-family="Helvetica,sans-Serif" font-size="10.00">+ Name</text>
<text text-anchor="start" x="171" y="-351.5" font-family="Helvetica,sans-Serif" font-size="10.00">+ Action</text>
<text text-anchor="start" x="171" y="-340.5" font-family="Helvetica,sans-Serif" font-size="10.00">+ Alt</text>
<text text-anchor="start" x="171" y="-329.5" font-family="Helvetica,sans-Serif" font-size="10.00">+ Ctrl</text>
<text text-anchor="start" x="171" y="-318.5" font-family="Helvetica,sans-Serif" font-size="10.00">+ Shift</text>
<text text-anchor="start" x="171" y="-307.5" font-family="Helvetica,sans-Serif" font-size="10.00">+ Win</text>
<text text-anchor="start" x="171" y="-296.5" font-family="Helvetica,sans-Serif" font-size="10.00">+ NoRepeat</text>
<polyline fill="none" stroke="black" points="163,-289.5 308,-289.5 "/>
<text text-anchor="middle" x="235.5" y="-277.5" font-family="Helvetica,sans-Serif" font-size="10.00"> </text>
</a>
</g>
</g>
<!-- Node1&#45;&gt;Node5 -->
<g id="edge4" class="edge">
<title>Node1&#45;&gt;Node5</title>
<path fill="none" stroke="midnightblue" d="M184.94,-432.52C189.84,-423.41 194.93,-413.95 199.91,-404.69"/>
<polygon fill="none" stroke="midnightblue" points="181.78,-431.02 180.12,-441.49 187.94,-434.34 181.78,-431.02"/>
</g>
<!-- Node2 -->
<g id="node2" class="node">
<title>Node2</title>
<g id="a_node2"><a xlink:title=" ">
<polygon fill="none" stroke="#bfbfbf" points="26,-579.5 26,-636.5 159,-636.5 159,-579.5 26,-579.5"/>
<text text-anchor="middle" x="92.5" y="-624.5" font-family="Helvetica,sans-Serif" font-size="10.00">INotifyPropertyChanged</text>
<polyline fill="none" stroke="#bfbfbf" points="26,-617.5 159,-617.5 "/>
<text text-anchor="middle" x="92.5" y="-605.5" font-family="Helvetica,sans-Serif" font-size="10.00"> </text>
<polyline fill="none" stroke="#bfbfbf" points="26,-598.5 159,-598.5 "/>
<text text-anchor="middle" x="92.5" y="-586.5" font-family="Helvetica,sans-Serif" font-size="10.00"> </text>
</a>
</g>
</g>
<!-- Node2&#45;&gt;Node1 -->
<g id="edge1" class="edge">
<title>Node2&#45;&gt;Node1</title>
<path fill="none" stroke="midnightblue" d="M112.04,-570.48C116.79,-561.61 121.94,-551.97 126.96,-542.61"/>
<polygon fill="none" stroke="midnightblue" points="108.9,-568.94 107.27,-579.4 115.07,-572.24 108.9,-568.94"/>
</g>
<!-- Node3 -->
<g id="node3" class="node">
<title>Node3</title>
<g id="a_node3"><a xlink:title=" ">
<polygon fill="none" stroke="#bfbfbf" points="177.5,-579.5 177.5,-636.5 251.5,-636.5 251.5,-579.5 177.5,-579.5"/>
<text text-anchor="middle" x="214.5" y="-624.5" font-family="Helvetica,sans-Serif" font-size="10.00">IDisposable</text>
<polyline fill="none" stroke="#bfbfbf" points="177.5,-617.5 251.5,-617.5 "/>
<text text-anchor="middle" x="214.5" y="-605.5" font-family="Helvetica,sans-Serif" font-size="10.00"> </text>
<polyline fill="none" stroke="#bfbfbf" points="177.5,-598.5 251.5,-598.5 "/>
<text text-anchor="middle" x="214.5" y="-586.5" font-family="Helvetica,sans-Serif" font-size="10.00"> </text>
</a>
</g>
</g>
<!-- Node3&#45;&gt;Node1 -->
<g id="edge2" class="edge">
<title>Node3&#45;&gt;Node1</title>
<path fill="none" stroke="midnightblue" d="M194.96,-570.48C190.21,-561.61 185.06,-551.97 180.04,-542.61"/>
<polygon fill="none" stroke="midnightblue" points="191.93,-572.24 199.73,-579.4 198.1,-568.94 191.93,-572.24"/>
</g>
<!-- Node6 -->
<g id="node6" class="node">
<title>Node6</title>
<g id="a_node6"><a xlink:href="class_volume_control_1_1_core_1_1_input_1_1_bindable_hotkey.html" target="_top" xlink:title="Wraps a Input.Hotkey instance and exposes an action binding point. (see Action)">
<polygon fill="none" stroke="black" points="163,-0.5 163,-233.5 308,-233.5 308,-0.5 163,-0.5"/>
<text text-anchor="start" x="171" y="-221.5" font-family="Helvetica,sans-Serif" font-size="10.00">VolumeControl.Core.Input.</text>
<text text-anchor="middle" x="235.5" y="-210.5" font-family="Helvetica,sans-Serif" font-size="10.00">BindableHotkey</text>
<polyline fill="none" stroke="black" points="163,-203.5 308,-203.5 "/>
<text text-anchor="start" x="171" y="-191.5" font-family="Helvetica,sans-Serif" font-size="10.00">+ ID</text>
<text text-anchor="start" x="171" y="-180.5" font-family="Helvetica,sans-Serif" font-size="10.00">+ Valid</text>
<text text-anchor="start" x="171" y="-169.5" font-family="Helvetica,sans-Serif" font-size="10.00">+ Hotkey</text>
<text text-anchor="start" x="171" y="-158.5" font-family="Helvetica,sans-Serif" font-size="10.00">+ Key</text>
<text text-anchor="start" x="171" y="-147.5" font-family="Helvetica,sans-Serif" font-size="10.00">+ Modifier</text>
<text text-anchor="start" x="171" y="-136.5" font-family="Helvetica,sans-Serif" font-size="10.00">+ Registered</text>
<text text-anchor="start" x="171" y="-125.5" font-family="Helvetica,sans-Serif" font-size="10.00">+ Alt</text>
<text text-anchor="start" x="171" y="-114.5" font-family="Helvetica,sans-Serif" font-size="10.00">+ Ctrl</text>
<text text-anchor="start" x="171" y="-103.5" font-family="Helvetica,sans-Serif" font-size="10.00">+ Shift</text>
<text text-anchor="start" x="171" y="-92.5" font-family="Helvetica,sans-Serif" font-size="10.00">+ Win</text>
<text text-anchor="start" x="171" y="-81.5" font-family="Helvetica,sans-Serif" font-size="10.00">+ NoRepeat</text>
<text text-anchor="start" x="171" y="-70.5" font-family="Helvetica,sans-Serif" font-size="10.00">+ Action</text>
<text text-anchor="start" x="171" y="-59.5" font-family="Helvetica,sans-Serif" font-size="10.00">+ Name</text>
<text text-anchor="start" x="171" y="-48.5" font-family="Helvetica,sans-Serif" font-size="10.00">+ Pressed</text>
<polyline fill="none" stroke="black" points="163,-41.5 308,-41.5 "/>
<text text-anchor="start" x="171" y="-29.5" font-family="Helvetica,sans-Serif" font-size="10.00">+ BindableHotkey()</text>
<text text-anchor="start" x="171" y="-18.5" font-family="Helvetica,sans-Serif" font-size="10.00">+ BindableHotkey()</text>
<text text-anchor="start" x="171" y="-7.5" font-family="Helvetica,sans-Serif" font-size="10.00">+ Dispose()</text>
</a>
</g>
</g>
<!-- Node5&#45;&gt;Node6 -->
<g id="edge5" class="edge">
<title>Node5&#45;&gt;Node6</title>
<path fill="none" stroke="midnightblue" d="M235.5,-260.32C235.5,-251.65 235.5,-242.67 235.5,-233.63"/>
<polygon fill="none" stroke="midnightblue" points="232,-260.35 235.5,-270.35 239,-260.35 232,-260.35"/>
</g>
</g>
</svg>
        <g id="navigator" transform="translate(0 0)" fill="#404254">
                <rect fill="#f2f5e9" fill-opacity="0.5" stroke="#606060" stroke-width=".5" x="0" y="0" width="60" height="60"/>
                <use id="zoomplus" xlink:href="#zoomPlus" x="17" y="9" onmousedown="handleZoom(evt,'in')"/>
                <use id="zoomminus" xlink:href="#zoomMin" x="42" y="9" onmousedown="handleZoom(evt,'out')"/>
                <use id="reset" xlink:href="#resetDef" x="30" y="36" onmousedown="handleReset()"/>
                <g id="arrowUp" xlink:href="#dirArrow" transform="translate(30 24)" onmousedown="handlePan(0,-1)">
                  <use xlink:href="#rim" fill="#404040">
                        <set attributeName="fill" to="#808080" begin="arrowUp.mouseover" end="arrowUp.mouseout"/>
                  </use>
                  <path fill="none" stroke="white" stroke-width="1.5" d="M0,-3.0v7 M-2.5,-0.5L0,-3.0L2.5,-0.5"/>
                </g>
                <g id="arrowRight" xlink:href="#dirArrow" transform="rotate(90) translate(36 -43)" onmousedown="handlePan(1,0)">
                  <use xlink:href="#rim" fill="#404040">
                        <set attributeName="fill" to="#808080" begin="arrowRight.mouseover" end="arrowRight.mouseout"/>
                  </use>
                  <path fill="none" stroke="white" stroke-width="1.5" d="M0,-3.0v7 M-2.5,-0.5L0,-3.0L2.5,-0.5"/>
                </g>
                <g id="arrowDown" xlink:href="#dirArrow" transform="rotate(180) translate(-30 -48)" onmousedown="handlePan(0,1)">
                  <use xlink:href="#rim" fill="#404040">
                        <set attributeName="fill" to="#808080" begin="arrowDown.mouseover" end="arrowDown.mouseout"/>
                  </use>
                  <path fill="none" stroke="white" stroke-width="1.5" d="M0,-3.0v7 M-2.5,-0.5L0,-3.0L2.5,-0.5"/>
                </g>
                <g id="arrowLeft" xlink:href="#dirArrow" transform="rotate(270) translate(-36 17)" onmousedown="handlePan(-1,0)">
                  <use xlink:href="#rim" fill="#404040">
                        <set attributeName="fill" to="#808080" begin="arrowLeft.mouseover" end="arrowLeft.mouseout"/>
                  </use>
                  <path fill="none" stroke="white" stroke-width="1.5" d="M0,-3.0v7 M-2.5,-0.5L0,-3.0L2.5,-0.5"/>
                </g>
        </g>
        <svg viewBox="0 0 15 15" width="100%" height="30px" preserveAspectRatio="xMaxYMin meet">
         <g id="arrow_out" transform="scale(0.3 0.3)">
          <a xlink:href="interface_volume_control_1_1_core_1_1_input_1_1_i_hotkey__inherit__graph_org.svg" target="_base">
           <rect id="button" ry="5" rx="5" y="6" x="6" height="38" width="38"
                fill="#f2f5e9" fill-opacity="0.5" stroke="#606060" stroke-width="1.0"/>
           <path id="arrow"
             d="M 11.500037,31.436501 C 11.940474,20.09759 22.043105,11.32322 32.158766,21.979434 L 37.068811,17.246167 C 37.068811,17.246167 37.088388,32 37.088388,32 L 22.160133,31.978069 C 22.160133,31.978069 26.997745,27.140456 26.997745,27.140456 C 18.528582,18.264221 13.291696,25.230495 11.500037,31.436501 z"
             style="fill:#404040;"/>
          </a>
         </g>
        </svg>
</svg>
