<?xml version="1.0" encoding="UTF-8" standalone="no"?>
<!DOCTYPE svg PUBLIC "-//W3C//DTD SVG 1.1//EN"
 "http://www.w3.org/Graphics/SVG/1.1/DTD/svg11.dtd">
<!-- Generated by graphviz version 2.43.0 (0)
 -->
<!-- Title: VolumeControl.Audio.Interfaces.IProcess Pages: 1 -->
<svg width="228pt" height="634pt"
 viewBox="0.00 0.00 228.00 634.00" xmlns="http://www.w3.org/2000/svg" xmlns:xlink="http://www.w3.org/1999/xlink">
<g id="graph0" class="graph" transform="scale(1 1) rotate(0) translate(4 630)">
<title>VolumeControl.Audio.Interfaces.IProcess</title>
<!-- Node1 -->
<g id="node1" class="node">
<title>Node1</title>
<g id="a_node1"><a xlink:title="Represents read&#45;only information about a process running on the local system.">
<polygon fill="#bfbfbf" stroke="black" points="7.5,-441.5 7.5,-531.5 181.5,-531.5 181.5,-441.5 7.5,-441.5"/>
<text text-anchor="start" x="15.5" y="-519.5" font-family="Helvetica,sans-Serif" font-size="10.00">VolumeControl.Audio.Interfaces.</text>
<text text-anchor="middle" x="94.5" y="-508.5" font-family="Helvetica,sans-Serif" font-size="10.00">IProcess</text>
<polyline fill="none" stroke="black" points="7.5,-501.5 181.5,-501.5 "/>
<text text-anchor="start" x="15.5" y="-489.5" font-family="Helvetica,sans-Serif" font-size="10.00">+ ProcessName</text>
<text text-anchor="start" x="15.5" y="-478.5" font-family="Helvetica,sans-Serif" font-size="10.00">+ PID</text>
<text text-anchor="start" x="15.5" y="-467.5" font-family="Helvetica,sans-Serif" font-size="10.00">+ ProcessIdentifier</text>
<polyline fill="none" stroke="black" points="7.5,-460.5 181.5,-460.5 "/>
<text text-anchor="middle" x="94.5" y="-448.5" font-family="Helvetica,sans-Serif" font-size="10.00"> </text>
</a>
</g>
</g>
<!-- Node4 -->
<g id="node4" class="node">
<title>Node4</title>
<g id="a_node4"><a xlink:href="interface_volume_control_1_1_audio_1_1_interfaces_1_1_i_session.html" target="_top" xlink:title="Represents an audio session.">
<polygon fill="none" stroke="black" points="7.5,-314.5 7.5,-404.5 181.5,-404.5 181.5,-314.5 7.5,-314.5"/>
<text text-anchor="start" x="15.5" y="-392.5" font-family="Helvetica,sans-Serif" font-size="10.00">VolumeControl.Audio.Interfaces.</text>
<text text-anchor="middle" x="94.5" y="-381.5" font-family="Helvetica,sans-Serif" font-size="10.00">ISession</text>
<polyline fill="none" stroke="black" points="7.5,-374.5 181.5,-374.5 "/>
<text text-anchor="start" x="15.5" y="-362.5" font-family="Helvetica,sans-Serif" font-size="10.00">+ Volume</text>
<text text-anchor="start" x="15.5" y="-351.5" font-family="Helvetica,sans-Serif" font-size="10.00">+ NativeVolume</text>
<text text-anchor="start" x="15.5" y="-340.5" font-family="Helvetica,sans-Serif" font-size="10.00">+ Muted</text>
<polyline fill="none" stroke="black" points="7.5,-333.5 181.5,-333.5 "/>
<text text-anchor="middle" x="94.5" y="-321.5" font-family="Helvetica,sans-Serif" font-size="10.00"> </text>
</a>
</g>
</g>
<!-- Node1&#45;&gt;Node4 -->
<g id="edge3" class="edge">
<title>Node1&#45;&gt;Node4</title>
<path fill="none" stroke="midnightblue" d="M94.5,-431.16C94.5,-422.28 94.5,-413.18 94.5,-404.59"/>
<polygon fill="none" stroke="midnightblue" points="91,-431.43 94.5,-441.43 98,-431.43 91,-431.43"/>
</g>
<!-- Node2 -->
<g id="node2" class="node">
<title>Node2</title>
<g id="a_node2"><a xlink:href="interface_volume_control_1_1_audio_1_1_interfaces_1_1_i_targetable.html" target="_top" xlink:title="Base interface type for IDevice and IProcess/ISession.">
<polygon fill="none" stroke="black" points="0,-568.5 0,-625.5 71,-625.5 71,-568.5 0,-568.5"/>
<text text-anchor="middle" x="35.5" y="-613.5" font-family="Helvetica,sans-Serif" font-size="10.00">ITargetable</text>
<polyline fill="none" stroke="black" points="0,-606.5 71,-606.5 "/>
<text text-anchor="middle" x="35.5" y="-594.5" font-family="Helvetica,sans-Serif" font-size="10.00"> </text>
<polyline fill="none" stroke="black" points="0,-587.5 71,-587.5 "/>
<text text-anchor="middle" x="35.5" y="-575.5" font-family="Helvetica,sans-Serif" font-size="10.00"> </text>
</a>
</g>
</g>
<!-- Node2&#45;&gt;Node1 -->
<g id="edge1" class="edge">
<title>Node2&#45;&gt;Node1</title>
<path fill="none" stroke="midnightblue" d="M55.43,-559.34C60.29,-550.42 65.53,-540.78 70.54,-531.55"/>
<polygon fill="none" stroke="midnightblue" points="52.24,-557.88 50.54,-568.34 58.39,-561.23 52.24,-557.88"/>
</g>
<!-- Node3 -->
<g id="node3" class="node">
<title>Node3</title>
<g id="a_node3"><a xlink:title=" ">
<polygon fill="none" stroke="#bfbfbf" points="89,-568.5 89,-625.5 220,-625.5 220,-568.5 89,-568.5"/>
<text text-anchor="middle" x="154.5" y="-613.5" font-family="Helvetica,sans-Serif" font-size="10.00">IEquatable&lt; ISession &gt;</text>
<polyline fill="none" stroke="#bfbfbf" points="89,-606.5 220,-606.5 "/>
<text text-anchor="middle" x="154.5" y="-594.5" font-family="Helvetica,sans-Serif" font-size="10.00"> </text>
<polyline fill="none" stroke="#bfbfbf" points="89,-587.5 220,-587.5 "/>
<text text-anchor="middle" x="154.5" y="-575.5" font-family="Helvetica,sans-Serif" font-size="10.00"> </text>
</a>
</g>
</g>
<!-- Node3&#45;&gt;Node1 -->
<g id="edge2" class="edge">
<title>Node3&#45;&gt;Node1</title>
<path fill="none" stroke="midnightblue" d="M134.23,-559.34C129.29,-550.42 123.97,-540.78 118.86,-531.55"/>
<polygon fill="none" stroke="midnightblue" points="131.3,-561.28 139.2,-568.34 137.43,-557.9 131.3,-561.28"/>
</g>
<!-- Node5 -->
<g id="node5" class="node">
<title>Node5</title>
<g id="a_node5"><a xlink:href="class_volume_control_1_1_audio_1_1_audio_session.html" target="_top" xlink:title="Represents an audio session playing on the system.">
<polygon fill="none" stroke="black" points="19.5,-0.5 19.5,-277.5 169.5,-277.5 169.5,-0.5 19.5,-0.5"/>
<text text-anchor="start" x="27.5" y="-265.5" font-family="Helvetica,sans-Serif" font-size="10.00">VolumeControl.Audio.Audio</text>
<text text-anchor="middle" x="94.5" y="-254.5" font-family="Helvetica,sans-Serif" font-size="10.00">Session</text>
<polyline fill="none" stroke="black" points="19.5,-247.5 169.5,-247.5 "/>
<text text-anchor="start" x="27.5" y="-235.5" font-family="Helvetica,sans-Serif" font-size="10.00">+ VolumeController</text>
<text text-anchor="start" x="27.5" y="-224.5" font-family="Helvetica,sans-Serif" font-size="10.00">+ State</text>
<text text-anchor="start" x="27.5" y="-213.5" font-family="Helvetica,sans-Serif" font-size="10.00">+ IconPath</text>
<text text-anchor="start" x="27.5" y="-202.5" font-family="Helvetica,sans-Serif" font-size="10.00">+ SmallIcon</text>
<text text-anchor="start" x="27.5" y="-191.5" font-family="Helvetica,sans-Serif" font-size="10.00">+ LargeIcon</text>
<text text-anchor="start" x="27.5" y="-180.5" font-family="Helvetica,sans-Serif" font-size="10.00">+ Icon</text>
<text text-anchor="start" x="27.5" y="-169.5" font-family="Helvetica,sans-Serif" font-size="10.00">+ ProcessIdentifier</text>
<text text-anchor="start" x="27.5" y="-158.5" font-family="Helvetica,sans-Serif" font-size="10.00">+ int</text>
<text text-anchor="start" x="27.5" y="-147.5" font-family="Helvetica,sans-Serif" font-size="10.00">+ Volume</text>
<text text-anchor="start" x="27.5" y="-136.5" font-family="Helvetica,sans-Serif" font-size="10.00">+ NativeVolume</text>
<text text-anchor="start" x="27.5" y="-125.5" font-family="Helvetica,sans-Serif" font-size="10.00">+ Muted</text>
<text text-anchor="start" x="27.5" y="-114.5" font-family="Helvetica,sans-Serif" font-size="10.00">+ GroupingParam</text>
<text text-anchor="start" x="27.5" y="-103.5" font-family="Helvetica,sans-Serif" font-size="10.00">+ DisplayName</text>
<text text-anchor="start" x="27.5" y="-92.5" font-family="Helvetica,sans-Serif" font-size="10.00">+ ProcessName</text>
<text text-anchor="start" x="27.5" y="-81.5" font-family="Helvetica,sans-Serif" font-size="10.00">+ PID</text>
<text text-anchor="start" x="27.5" y="-70.5" font-family="Helvetica,sans-Serif" font-size="10.00">+ IsRunning</text>
<text text-anchor="start" x="27.5" y="-59.5" font-family="Helvetica,sans-Serif" font-size="10.00">+ NotificationClient</text>
<polyline fill="none" stroke="black" points="19.5,-52.5 169.5,-52.5 "/>
<text text-anchor="start" x="27.5" y="-40.5" font-family="Helvetica,sans-Serif" font-size="10.00">+ AudioSession()</text>
<text text-anchor="start" x="27.5" y="-29.5" font-family="Helvetica,sans-Serif" font-size="10.00">+ GetProcess()</text>
<text text-anchor="start" x="27.5" y="-18.5" font-family="Helvetica,sans-Serif" font-size="10.00">+ Dispose()</text>
<text text-anchor="start" x="27.5" y="-7.5" font-family="Helvetica,sans-Serif" font-size="10.00">+ Equals()</text>
</a>
</g>
</g>
<!-- Node4&#45;&gt;Node5 -->
<g id="edge4" class="edge">
<title>Node4&#45;&gt;Node5</title>
<path fill="none" stroke="midnightblue" d="M94.5,-304.05C94.5,-295.71 94.5,-286.79 94.5,-277.59"/>
<polygon fill="none" stroke="midnightblue" points="91,-304.28 94.5,-314.28 98,-304.28 91,-304.28"/>
</g>
</g>
</svg>
