<?xml version="1.0" encoding="UTF-8" standalone="no"?>
<!DOCTYPE svg PUBLIC "-//W3C//DTD SVG 1.1//EN"
 "http://www.w3.org/Graphics/SVG/1.1/DTD/svg11.dtd">
<!-- Generated by graphviz version 2.43.0 (0)
 -->
<!-- Title: VolumeControl.Core.Interfaces.IHotkeyActionManager Pages: 1 -->
<svg width="322pt" height="358pt"
 viewBox="0.00 0.00 321.50 358.00" xmlns="http://www.w3.org/2000/svg" xmlns:xlink="http://www.w3.org/1999/xlink">
<g id="graph0" class="graph" transform="scale(1 1) rotate(0) translate(4 354)">
<title>VolumeControl.Core.Interfaces.IHotkeyActionManager</title>
<!-- Node1 -->
<g id="node1" class="node">
<title>Node1</title>
<g id="a_node1"><a xlink:title="Represents a hotkey action manager object, which contains the list of IHotkeyActions used in the hotk...">
<polygon fill="#bfbfbf" stroke="black" points="65,-0.5 65,-90.5 234,-90.5 234,-0.5 65,-0.5"/>
<text text-anchor="start" x="73" y="-78.5" font-family="Helvetica,sans-Serif" font-size="10.00">VolumeControl.Core.Interfaces.</text>
<text text-anchor="middle" x="149.5" y="-67.5" font-family="Helvetica,sans-Serif" font-size="10.00">IHotkeyActionManager</text>
<polyline fill="none" stroke="black" points="65,-60.5 234,-60.5 "/>
<text text-anchor="start" x="73" y="-48.5" font-family="Helvetica,sans-Serif" font-size="10.00">+ NullActionHandler</text>
<text text-anchor="start" x="73" y="-37.5" font-family="Helvetica,sans-Serif" font-size="10.00">+ Bindings</text>
<text text-anchor="start" x="73" y="-26.5" font-family="Helvetica,sans-Serif" font-size="10.00">+ this[string identifier]</text>
<polyline fill="none" stroke="black" points="65,-19.5 234,-19.5 "/>
<text text-anchor="middle" x="149.5" y="-7.5" font-family="Helvetica,sans-Serif" font-size="10.00"> </text>
</a>
</g>
</g>
<!-- Node2 -->
<g id="node2" class="node">
<title>Node2</title>
<g id="a_node2"><a xlink:title=" ">
<polygon fill="none" stroke="#bfbfbf" points="0,-215.5 0,-272.5 133,-272.5 133,-215.5 0,-215.5"/>
<text text-anchor="middle" x="66.5" y="-260.5" font-family="Helvetica,sans-Serif" font-size="10.00">INotifyPropertyChanged</text>
<polyline fill="none" stroke="#bfbfbf" points="0,-253.5 133,-253.5 "/>
<text text-anchor="middle" x="66.5" y="-241.5" font-family="Helvetica,sans-Serif" font-size="10.00"> </text>
<polyline fill="none" stroke="#bfbfbf" points="0,-234.5 133,-234.5 "/>
<text text-anchor="middle" x="66.5" y="-222.5" font-family="Helvetica,sans-Serif" font-size="10.00"> </text>
</a>
</g>
</g>
<!-- Node2&#45;&gt;Node1 -->
<g id="edge1" class="edge">
<title>Node2&#45;&gt;Node1</title>
<path fill="none" stroke="midnightblue" d="M82.11,-206.04C95.93,-173.32 116.13,-125.5 130.81,-90.75"/>
<polygon fill="none" stroke="midnightblue" points="78.88,-204.69 78.22,-215.26 85.33,-207.41 78.88,-204.69"/>
</g>
<!-- Node3 -->
<g id="node3" class="node">
<title>Node3</title>
<g id="a_node3"><a xlink:href="interface_volume_control_1_1_core_1_1_input_1_1_actions_1_1_i_hotkey_action.html" target="_top" xlink:title="Represents an invokable method that can be triggered via a hotkey.">
<polygon fill="none" stroke="black" points="151.5,-138.5 151.5,-349.5 313.5,-349.5 313.5,-138.5 151.5,-138.5"/>
<text text-anchor="start" x="159.5" y="-337.5" font-family="Helvetica,sans-Serif" font-size="10.00">VolumeControl.Core.Input.</text>
<text text-anchor="middle" x="232.5" y="-326.5" font-family="Helvetica,sans-Serif" font-size="10.00">Actions.IHotkeyAction</text>
<polyline fill="none" stroke="black" points="151.5,-319.5 313.5,-319.5 "/>
<text text-anchor="start" x="159.5" y="-307.5" font-family="Helvetica,sans-Serif" font-size="10.00">+ Type</text>
<text text-anchor="start" x="159.5" y="-296.5" font-family="Helvetica,sans-Serif" font-size="10.00">+ MethodInfo</text>
<text text-anchor="start" x="159.5" y="-285.5" font-family="Helvetica,sans-Serif" font-size="10.00">+ Instance</text>
<text text-anchor="start" x="159.5" y="-274.5" font-family="Helvetica,sans-Serif" font-size="10.00">+ Data</text>
<text text-anchor="start" x="159.5" y="-263.5" font-family="Helvetica,sans-Serif" font-size="10.00">+ RequiresExtraParameters</text>
<text text-anchor="start" x="159.5" y="-252.5" font-family="Helvetica,sans-Serif" font-size="10.00">+ AcceptsExtraActionSettings</text>
<text text-anchor="start" x="159.5" y="-241.5" font-family="Helvetica,sans-Serif" font-size="10.00">+ ExtraActionSettings</text>
<text text-anchor="start" x="159.5" y="-230.5" font-family="Helvetica,sans-Serif" font-size="10.00">+ UsesActionSettings</text>
<text text-anchor="start" x="159.5" y="-219.5" font-family="Helvetica,sans-Serif" font-size="10.00">+ Identifier</text>
<text text-anchor="start" x="159.5" y="-208.5" font-family="Helvetica,sans-Serif" font-size="10.00">+ Name</text>
<text text-anchor="start" x="159.5" y="-197.5" font-family="Helvetica,sans-Serif" font-size="10.00">+ Description</text>
<text text-anchor="start" x="159.5" y="-186.5" font-family="Helvetica,sans-Serif" font-size="10.00">+ GroupName</text>
<text text-anchor="start" x="159.5" y="-175.5" font-family="Helvetica,sans-Serif" font-size="10.00">+ GroupBrush</text>
<polyline fill="none" stroke="black" points="151.5,-168.5 313.5,-168.5 "/>
<text text-anchor="start" x="159.5" y="-156.5" font-family="Helvetica,sans-Serif" font-size="10.00">+ HandleKeyEvent()</text>
<text text-anchor="start" x="159.5" y="-145.5" font-family="Helvetica,sans-Serif" font-size="10.00">+ GetDefaultActionSettings()</text>
</a>
</g>
</g>
<!-- Node3&#45;&gt;Node1 -->
<g id="edge2" class="edge">
<title>Node3&#45;&gt;Node1</title>
<path fill="none" stroke="#404040" d="M188.33,-138.42C182.98,-125.77 177.7,-113.27 172.83,-101.74"/>
<polygon fill="none" stroke="#404040" points="172.79,-101.63 166.77,-97.66 168.12,-90.58 174.14,-94.55 172.79,-101.63"/>
<text text-anchor="middle" x="210.5" y="-112" font-family="Helvetica,sans-Serif" font-size="10.00"> +NullAction</text>
</g>
</g>
</svg>
