<?xml version="1.0" encoding="UTF-8" standalone="no"?>
<!DOCTYPE svg PUBLIC "-//W3C//DTD SVG 1.1//EN"
 "http://www.w3.org/Graphics/SVG/1.1/DTD/svg11.dtd">
<!-- Generated by graphviz version 2.43.0 (0)
 -->
<!-- Title: VolumeControl.Audio.Interfaces.IAudioControl Pages: 1 -->
<svg width="494pt" height="1493pt"
 viewBox="0.00 0.00 494.00 1493.00" xmlns="http://www.w3.org/2000/svg" xmlns:xlink="http://www.w3.org/1999/xlink">
<g id="graph0" class="graph" transform="scale(1 1) rotate(0) translate(4 1489)">
<title>VolumeControl.Audio.Interfaces.IAudioControl</title>
<!-- Node1 -->
<g id="node1" class="node">
<title>Node1</title>
<g id="a_node1"><a xlink:title="Base interface type for IDevice and IProcess/ISession.">
<polygon fill="#bfbfbf" stroke="black" points="197,-1162.5 197,-1230.5 371,-1230.5 371,-1162.5 197,-1162.5"/>
<text text-anchor="start" x="205" y="-1218.5" font-family="Helvetica,sans-Serif" font-size="10.00">VolumeControl.Audio.Interfaces.</text>
<text text-anchor="middle" x="284" y="-1207.5" font-family="Helvetica,sans-Serif" font-size="10.00">IAudioControl</text>
<polyline fill="none" stroke="black" points="197,-1200.5 371,-1200.5 "/>
<text text-anchor="start" x="205" y="-1188.5" font-family="Helvetica,sans-Serif" font-size="10.00">+ AudioMeterInformation</text>
<polyline fill="none" stroke="black" points="197,-1181.5 371,-1181.5 "/>
<text text-anchor="middle" x="284" y="-1169.5" font-family="Helvetica,sans-Serif" font-size="10.00"> </text>
</a>
</g>
</g>
<!-- Node4 -->
<g id="node4" class="node">
<title>Node4</title>
<g id="a_node4"><a xlink:href="interface_volume_control_1_1_audio_1_1_interfaces_1_1_i_device.html" target="_top" xlink:title="Represents an audio device.">
<polygon fill="none" stroke="black" points="5,-1035.5 5,-1114.5 179,-1114.5 179,-1035.5 5,-1035.5"/>
<text text-anchor="start" x="13" y="-1102.5" font-family="Helvetica,sans-Serif" font-size="10.00">VolumeControl.Audio.Interfaces.</text>
<text text-anchor="middle" x="92" y="-1091.5" font-family="Helvetica,sans-Serif" font-size="10.00">IDevice</text>
<polyline fill="none" stroke="black" points="5,-1084.5 179,-1084.5 "/>
<text text-anchor="start" x="13" y="-1072.5" font-family="Helvetica,sans-Serif" font-size="10.00">+ Name</text>
<text text-anchor="start" x="13" y="-1061.5" font-family="Helvetica,sans-Serif" font-size="10.00">+ DeviceID</text>
<polyline fill="none" stroke="black" points="5,-1054.5 179,-1054.5 "/>
<text text-anchor="middle" x="92" y="-1042.5" font-family="Helvetica,sans-Serif" font-size="10.00"> </text>
</a>
</g>
</g>
<!-- Node1&#45;&gt;Node4 -->
<g id="edge3" class="edge">
<title>Node1&#45;&gt;Node4</title>
<path fill="none" stroke="midnightblue" d="M222.25,-1157.07C200.47,-1143.51 175.99,-1128.27 154.17,-1114.7"/>
<polygon fill="none" stroke="midnightblue" points="220.43,-1160.06 230.77,-1162.37 224.13,-1154.12 220.43,-1160.06"/>
</g>
<!-- Node6 -->
<g id="node6" class="node">
<title>Node6</title>
<g id="a_node6"><a xlink:href="interface_volume_control_1_1_audio_1_1_interfaces_1_1_i_process.html" target="_top" xlink:title="Represents read&#45;only information about a process running on the local system.">
<polygon fill="none" stroke="black" points="197,-1024.5 197,-1125.5 371,-1125.5 371,-1024.5 197,-1024.5"/>
<text text-anchor="start" x="205" y="-1113.5" font-family="Helvetica,sans-Serif" font-size="10.00">VolumeControl.Audio.Interfaces.</text>
<text text-anchor="middle" x="284" y="-1102.5" font-family="Helvetica,sans-Serif" font-size="10.00">IProcess</text>
<polyline fill="none" stroke="black" points="197,-1095.5 371,-1095.5 "/>
<text text-anchor="start" x="205" y="-1083.5" font-family="Helvetica,sans-Serif" font-size="10.00">+ ProcessName</text>
<text text-anchor="start" x="205" y="-1072.5" font-family="Helvetica,sans-Serif" font-size="10.00">+ PID</text>
<text text-anchor="start" x="205" y="-1061.5" font-family="Helvetica,sans-Serif" font-size="10.00">+ ProcessIdentifier</text>
<text text-anchor="start" x="205" y="-1050.5" font-family="Helvetica,sans-Serif" font-size="10.00">+ HashCode</text>
<polyline fill="none" stroke="black" points="197,-1043.5 371,-1043.5 "/>
<text text-anchor="middle" x="284" y="-1031.5" font-family="Helvetica,sans-Serif" font-size="10.00"> </text>
</a>
</g>
</g>
<!-- Node1&#45;&gt;Node6 -->
<g id="edge5" class="edge">
<title>Node1&#45;&gt;Node6</title>
<path fill="none" stroke="midnightblue" d="M284,-1152.05C284,-1143.47 284,-1134.41 284,-1125.65"/>
<polygon fill="none" stroke="midnightblue" points="280.5,-1152.21 284,-1162.21 287.5,-1152.21 280.5,-1152.21"/>
</g>
<!-- Node8 -->
<g id="node8" class="node">
<title>Node8</title>
<g id="a_node8"><a xlink:href="interface_volume_control_1_1_audio_1_1_interfaces_1_1_i_session.html" target="_top" xlink:title="Represents an audio session.">
<polygon fill="none" stroke="black" points="312,-688.5 312,-778.5 486,-778.5 486,-688.5 312,-688.5"/>
<text text-anchor="start" x="320" y="-766.5" font-family="Helvetica,sans-Serif" font-size="10.00">VolumeControl.Audio.Interfaces.</text>
<text text-anchor="middle" x="399" y="-755.5" font-family="Helvetica,sans-Serif" font-size="10.00">ISession</text>
<polyline fill="none" stroke="black" points="312,-748.5 486,-748.5 "/>
<text text-anchor="start" x="320" y="-736.5" font-family="Helvetica,sans-Serif" font-size="10.00">+ Name</text>
<text text-anchor="start" x="320" y="-725.5" font-family="Helvetica,sans-Serif" font-size="10.00">+ SessionIdentifier</text>
<text text-anchor="start" x="320" y="-714.5" font-family="Helvetica,sans-Serif" font-size="10.00">+ SessionInstanceIdentifier</text>
<polyline fill="none" stroke="black" points="312,-707.5 486,-707.5 "/>
<text text-anchor="middle" x="399" y="-695.5" font-family="Helvetica,sans-Serif" font-size="10.00"> </text>
</a>
</g>
</g>
<!-- Node1&#45;&gt;Node8 -->
<g id="edge9" class="edge">
<title>Node1&#45;&gt;Node8</title>
<path fill="none" stroke="midnightblue" d="M354.92,-1155.97C364.89,-1147.38 373.83,-1137.39 380,-1126 441,-1013.36 422.56,-854.68 408.53,-778.58"/>
<polygon fill="none" stroke="midnightblue" points="352.7,-1153.26 347.12,-1162.27 357.09,-1158.71 352.7,-1153.26"/>
</g>
<!-- Node2 -->
<g id="node2" class="node">
<title>Node2</title>
<g id="a_node2"><a xlink:href="interface_volume_control_1_1_audio_1_1_interfaces_1_1_i_volume_control.html" target="_top" xlink:title="Represents some kind of controllable audio playback instance.">
<polygon fill="none" stroke="black" points="202,-1267.5 202,-1368.5 366,-1368.5 366,-1267.5 202,-1267.5"/>
<text text-anchor="middle" x="284" y="-1356.5" font-family="Helvetica,sans-Serif" font-size="10.00">IVolumeControl</text>
<polyline fill="none" stroke="black" points="202,-1349.5 366,-1349.5 "/>
<text text-anchor="start" x="210" y="-1337.5" font-family="Helvetica,sans-Serif" font-size="10.00">+ PeakMeterValue</text>
<text text-anchor="start" x="210" y="-1326.5" font-family="Helvetica,sans-Serif" font-size="10.00">+ NativeVolume</text>
<text text-anchor="start" x="210" y="-1315.5" font-family="Helvetica,sans-Serif" font-size="10.00">+ Volume</text>
<text text-anchor="start" x="210" y="-1304.5" font-family="Helvetica,sans-Serif" font-size="10.00">+ Muted</text>
<polyline fill="none" stroke="black" points="202,-1297.5 366,-1297.5 "/>
<text text-anchor="start" x="210" y="-1285.5" font-family="Helvetica,sans-Serif" font-size="10.00">~ MakeListDisplayableControl</text>
<text text-anchor="start" x="210" y="-1274.5" font-family="Helvetica,sans-Serif" font-size="10.00">Template()</text>
</a>
</g>
</g>
<!-- Node2&#45;&gt;Node1 -->
<g id="edge1" class="edge">
<title>Node2&#45;&gt;Node1</title>
<path fill="none" stroke="midnightblue" d="M284,-1257.17C284,-1248.11 284,-1239.05 284,-1230.83"/>
<polygon fill="none" stroke="midnightblue" points="280.5,-1257.36 284,-1267.36 287.5,-1257.36 280.5,-1257.36"/>
</g>
<!-- Node3 -->
<g id="node3" class="node">
<title>Node3</title>
<g id="a_node3"><a xlink:href="interface_volume_control_1_1_core_1_1_interfaces_1_1_i_list_displayable.html" target="_top" xlink:title="Represents an object that, when it is a member of a list of similar items, can be displayed in the Li...">
<polygon fill="none" stroke="black" points="231.5,-1405.5 231.5,-1484.5 336.5,-1484.5 336.5,-1405.5 231.5,-1405.5"/>
<text text-anchor="middle" x="284" y="-1472.5" font-family="Helvetica,sans-Serif" font-size="10.00">IListDisplayable</text>
<polyline fill="none" stroke="black" points="231.5,-1465.5 336.5,-1465.5 "/>
<text text-anchor="start" x="239.5" y="-1453.5" font-family="Helvetica,sans-Serif" font-size="10.00">+ DisplayText</text>
<text text-anchor="start" x="239.5" y="-1442.5" font-family="Helvetica,sans-Serif" font-size="10.00">+ DisplayControls</text>
<text text-anchor="start" x="239.5" y="-1431.5" font-family="Helvetica,sans-Serif" font-size="10.00">+ DisplayIcon</text>
<polyline fill="none" stroke="black" points="231.5,-1424.5 336.5,-1424.5 "/>
<text text-anchor="middle" x="284" y="-1412.5" font-family="Helvetica,sans-Serif" font-size="10.00"> </text>
</a>
</g>
</g>
<!-- Node3&#45;&gt;Node2 -->
<g id="edge2" class="edge">
<title>Node3&#45;&gt;Node2</title>
<path fill="none" stroke="midnightblue" d="M284,-1395.41C284,-1386.64 284,-1377.49 284,-1368.69"/>
<polygon fill="none" stroke="midnightblue" points="280.5,-1395.48 284,-1405.48 287.5,-1395.48 280.5,-1395.48"/>
</g>
<!-- Node5 -->
<g id="node5" class="node">
<title>Node5</title>
<g id="a_node5"><a xlink:href="class_volume_control_1_1_audio_1_1_audio_device.html" target="_top" xlink:title="Represents an audio device endpoint. Note that this object cannot be constructed externally....">
<polygon fill="none" stroke="black" points="0,-479.5 0,-987.5 184,-987.5 184,-479.5 0,-479.5"/>
<text text-anchor="start" x="8" y="-975.5" font-family="Helvetica,sans-Serif" font-size="10.00">VolumeControl.Audio.Audio</text>
<text text-anchor="middle" x="92" y="-964.5" font-family="Helvetica,sans-Serif" font-size="10.00">Device</text>
<polyline fill="none" stroke="black" points="0,-957.5 184,-957.5 "/>
<text text-anchor="start" x="8" y="-945.5" font-family="Helvetica,sans-Serif" font-size="10.00">+ AudioMeterInformation</text>
<text text-anchor="start" x="8" y="-934.5" font-family="Helvetica,sans-Serif" font-size="10.00">+ PeakMeterValue</text>
<text text-anchor="start" x="8" y="-923.5" font-family="Helvetica,sans-Serif" font-size="10.00">+ InterfaceName</text>
<text text-anchor="start" x="8" y="-912.5" font-family="Helvetica,sans-Serif" font-size="10.00">+ InstanceID</text>
<text text-anchor="start" x="8" y="-901.5" font-family="Helvetica,sans-Serif" font-size="10.00">+ IconPath</text>
<text text-anchor="start" x="8" y="-890.5" font-family="Helvetica,sans-Serif" font-size="10.00">+ Icon</text>
<text text-anchor="start" x="8" y="-879.5" font-family="Helvetica,sans-Serif" font-size="10.00">+ DeviceFriendlyName</text>
<text text-anchor="start" x="8" y="-868.5" font-family="Helvetica,sans-Serif" font-size="10.00">+ FriendlyName</text>
<text text-anchor="start" x="8" y="-857.5" font-family="Helvetica,sans-Serif" font-size="10.00">+ Properties</text>
<text text-anchor="start" x="8" y="-846.5" font-family="Helvetica,sans-Serif" font-size="10.00">+ State</text>
<text text-anchor="start" x="8" y="-835.5" font-family="Helvetica,sans-Serif" font-size="10.00">and 8 more...</text>
<text text-anchor="start" x="8" y="-824.5" font-family="Helvetica,sans-Serif" font-size="10.00">+ MMDevice</text>
<text text-anchor="start" x="8" y="-813.5" font-family="Helvetica,sans-Serif" font-size="10.00">+ Enabled</text>
<text text-anchor="start" x="8" y="-802.5" font-family="Helvetica,sans-Serif" font-size="10.00">+ Name</text>
<text text-anchor="start" x="8" y="-791.5" font-family="Helvetica,sans-Serif" font-size="10.00">+ DeviceID</text>
<text text-anchor="start" x="8" y="-780.5" font-family="Helvetica,sans-Serif" font-size="10.00">+ Icons</text>
<text text-anchor="start" x="8" y="-769.5" font-family="Helvetica,sans-Serif" font-size="10.00">+ EndpointVolumeObject</text>
<text text-anchor="start" x="8" y="-758.5" font-family="Helvetica,sans-Serif" font-size="10.00">+ NativeVolume</text>
<text text-anchor="start" x="8" y="-747.5" font-family="Helvetica,sans-Serif" font-size="10.00">+ Volume</text>
<text text-anchor="start" x="8" y="-736.5" font-family="Helvetica,sans-Serif" font-size="10.00">+ Muted</text>
<text text-anchor="start" x="8" y="-725.5" font-family="Helvetica,sans-Serif" font-size="10.00">+ DisplayText</text>
<text text-anchor="start" x="8" y="-714.5" font-family="Helvetica,sans-Serif" font-size="10.00">+ Sessions</text>
<text text-anchor="start" x="8" y="-703.5" font-family="Helvetica,sans-Serif" font-size="10.00">+ this[int index]</text>
<text text-anchor="start" x="8" y="-692.5" font-family="Helvetica,sans-Serif" font-size="10.00">+ this[int index]</text>
<text text-anchor="start" x="8" y="-681.5" font-family="Helvetica,sans-Serif" font-size="10.00">+ CollectionChanged</text>
<polyline fill="none" stroke="black" points="0,-674.5 184,-674.5 "/>
<text text-anchor="start" x="8" y="-662.5" font-family="Helvetica,sans-Serif" font-size="10.00">+ GetDeviceName()</text>
<text text-anchor="start" x="8" y="-651.5" font-family="Helvetica,sans-Serif" font-size="10.00">+ FindAll()</text>
<text text-anchor="start" x="8" y="-640.5" font-family="Helvetica,sans-Serif" font-size="10.00">+ GetIcons()</text>
<text text-anchor="start" x="8" y="-629.5" font-family="Helvetica,sans-Serif" font-size="10.00">+ Dispose()</text>
<text text-anchor="start" x="8" y="-618.5" font-family="Helvetica,sans-Serif" font-size="10.00">+ Equals()</text>
<text text-anchor="start" x="8" y="-607.5" font-family="Helvetica,sans-Serif" font-size="10.00">+ Equals()</text>
<text text-anchor="start" x="8" y="-596.5" font-family="Helvetica,sans-Serif" font-size="10.00">+ Equals()</text>
<text text-anchor="start" x="8" y="-585.5" font-family="Helvetica,sans-Serif" font-size="10.00">+ GetHashCode()</text>
<text text-anchor="start" x="8" y="-574.5" font-family="Helvetica,sans-Serif" font-size="10.00">+ Add()</text>
<text text-anchor="start" x="8" y="-563.5" font-family="Helvetica,sans-Serif" font-size="10.00">+ Clear()</text>
<text text-anchor="start" x="8" y="-552.5" font-family="Helvetica,sans-Serif" font-size="10.00">and 23 more...</text>
<text text-anchor="start" x="8" y="-541.5" font-family="Helvetica,sans-Serif" font-size="10.00">~ AudioDevice()</text>
<text text-anchor="start" x="8" y="-530.5" font-family="Helvetica,sans-Serif" font-size="10.00">~ ForwardPropertyStoreChanged()</text>
<text text-anchor="start" x="8" y="-519.5" font-family="Helvetica,sans-Serif" font-size="10.00">~ ForwardRemoved()</text>
<text text-anchor="start" x="8" y="-508.5" font-family="Helvetica,sans-Serif" font-size="10.00">~ ForwardStateChanged()</text>
<text text-anchor="start" x="8" y="-497.5" font-family="Helvetica,sans-Serif" font-size="10.00">~ ReloadSessions()</text>
<text text-anchor="start" x="8" y="-486.5" font-family="Helvetica,sans-Serif" font-size="10.00">~ GetAudioSessions()</text>
</a>
</g>
</g>
<!-- Node4&#45;&gt;Node5 -->
<g id="edge4" class="edge">
<title>Node4&#45;&gt;Node5</title>
<path fill="none" stroke="midnightblue" d="M92,-1025.12C92,-1013.93 92,-1001.29 92,-987.69"/>
<polygon fill="none" stroke="midnightblue" points="88.5,-1025.39 92,-1035.39 95.5,-1025.39 88.5,-1025.39"/>
</g>
<!-- Node7 -->
<g id="node7" class="node">
<title>Node7</title>
<g id="a_node7"><a xlink:href="class_volume_control_1_1_audio_1_1_audio_session.html" target="_top" xlink:title="Represents an audio session playing on the system.">
<polygon fill="none" stroke="black" points="266,-0.5 266,-442.5 416,-442.5 416,-0.5 266,-0.5"/>
<text text-anchor="start" x="274" y="-430.5" font-family="Helvetica,sans-Serif" font-size="10.00">VolumeControl.Audio.Audio</text>
<text text-anchor="middle" x="341" y="-419.5" font-family="Helvetica,sans-Serif" font-size="10.00">Session</text>
<polyline fill="none" stroke="black" points="266,-412.5 416,-412.5 "/>
<text text-anchor="start" x="274" y="-400.5" font-family="Helvetica,sans-Serif" font-size="10.00">+ AudioMeterInformation</text>
<text text-anchor="start" x="274" y="-389.5" font-family="Helvetica,sans-Serif" font-size="10.00">+ PeakMeterValue</text>
<text text-anchor="start" x="274" y="-378.5" font-family="Helvetica,sans-Serif" font-size="10.00">+ HashCode</text>
<text text-anchor="start" x="274" y="-367.5" font-family="Helvetica,sans-Serif" font-size="10.00">+ VolumeController</text>
<text text-anchor="start" x="274" y="-356.5" font-family="Helvetica,sans-Serif" font-size="10.00">+ State</text>
<text text-anchor="start" x="274" y="-345.5" font-family="Helvetica,sans-Serif" font-size="10.00">+ IconPath</text>
<text text-anchor="start" x="274" y="-334.5" font-family="Helvetica,sans-Serif" font-size="10.00">+ Icon</text>
<text text-anchor="start" x="274" y="-323.5" font-family="Helvetica,sans-Serif" font-size="10.00">+ ProcessIdentifier</text>
<text text-anchor="start" x="274" y="-312.5" font-family="Helvetica,sans-Serif" font-size="10.00">+ Active</text>
<text text-anchor="start" x="274" y="-301.5" font-family="Helvetica,sans-Serif" font-size="10.00">+ DisplayControls</text>
<text text-anchor="start" x="274" y="-290.5" font-family="Helvetica,sans-Serif" font-size="10.00">+ DisplayIcon</text>
<text text-anchor="start" x="274" y="-279.5" font-family="Helvetica,sans-Serif" font-size="10.00">+ int</text>
<text text-anchor="start" x="274" y="-268.5" font-family="Helvetica,sans-Serif" font-size="10.00">+ SessionIdentifier</text>
<text text-anchor="start" x="274" y="-257.5" font-family="Helvetica,sans-Serif" font-size="10.00">+ SessionInstanceIdentifier</text>
<text text-anchor="start" x="274" y="-246.5" font-family="Helvetica,sans-Serif" font-size="10.00">+ Icons</text>
<text text-anchor="start" x="274" y="-235.5" font-family="Helvetica,sans-Serif" font-size="10.00">+ Volume</text>
<text text-anchor="start" x="274" y="-224.5" font-family="Helvetica,sans-Serif" font-size="10.00">+ NativeVolume</text>
<text text-anchor="start" x="274" y="-213.5" font-family="Helvetica,sans-Serif" font-size="10.00">+ Muted</text>
<text text-anchor="start" x="274" y="-202.5" font-family="Helvetica,sans-Serif" font-size="10.00">+ GroupingParam</text>
<text text-anchor="start" x="274" y="-191.5" font-family="Helvetica,sans-Serif" font-size="10.00">+ DisplayName</text>
<text text-anchor="start" x="274" y="-180.5" font-family="Helvetica,sans-Serif" font-size="10.00">+ ProcessName</text>
<text text-anchor="start" x="274" y="-169.5" font-family="Helvetica,sans-Serif" font-size="10.00">+ PID</text>
<text text-anchor="start" x="274" y="-158.5" font-family="Helvetica,sans-Serif" font-size="10.00">+ IsRunning</text>
<text text-anchor="start" x="274" y="-147.5" font-family="Helvetica,sans-Serif" font-size="10.00">+ NotificationClient</text>
<text text-anchor="start" x="274" y="-136.5" font-family="Helvetica,sans-Serif" font-size="10.00">+ Process</text>
<text text-anchor="start" x="274" y="-125.5" font-family="Helvetica,sans-Serif" font-size="10.00">+ Name</text>
<text text-anchor="start" x="274" y="-114.5" font-family="Helvetica,sans-Serif" font-size="10.00">+ DisplayText</text>
<polyline fill="none" stroke="black" points="266,-107.5 416,-107.5 "/>
<text text-anchor="start" x="274" y="-95.5" font-family="Helvetica,sans-Serif" font-size="10.00">+ GetIcons()</text>
<text text-anchor="start" x="274" y="-84.5" font-family="Helvetica,sans-Serif" font-size="10.00">+ GetProcess()</text>
<text text-anchor="start" x="274" y="-73.5" font-family="Helvetica,sans-Serif" font-size="10.00">+ Dispose()</text>
<text text-anchor="start" x="274" y="-62.5" font-family="Helvetica,sans-Serif" font-size="10.00">+ Equals()</text>
<text text-anchor="start" x="274" y="-51.5" font-family="Helvetica,sans-Serif" font-size="10.00">+ Equals()</text>
<text text-anchor="start" x="274" y="-40.5" font-family="Helvetica,sans-Serif" font-size="10.00">+ Equals()</text>
<text text-anchor="start" x="274" y="-29.5" font-family="Helvetica,sans-Serif" font-size="10.00">+ GetHashCode()</text>
<text text-anchor="start" x="274" y="-18.5" font-family="Helvetica,sans-Serif" font-size="10.00">~ AudioSession()</text>
<text text-anchor="start" x="274" y="-7.5" font-family="Helvetica,sans-Serif" font-size="10.00">~ NotifyExited()</text>
</a>
</g>
</g>
<!-- Node6&#45;&gt;Node7 -->
<g id="edge6" class="edge">
<title>Node6&#45;&gt;Node7</title>
<path fill="none" stroke="midnightblue" d="M283.64,-1014.12C283.49,-906.7 285.48,-674.2 303,-479 304.07,-467.12 305.32,-454.95 306.71,-442.68"/>
<polygon fill="none" stroke="midnightblue" points="280.14,-1014.13 283.66,-1024.12 287.14,-1014.12 280.14,-1014.13"/>
</g>
<!-- Node6&#45;&gt;Node8 -->
<g id="edge7" class="edge">
<title>Node6&#45;&gt;Node8</title>
<path fill="none" stroke="midnightblue" d="M304.11,-1014.64C326.92,-947.29 363.6,-839 384.03,-778.69"/>
<polygon fill="none" stroke="midnightblue" points="300.74,-1013.68 300.85,-1024.27 307.37,-1015.92 300.74,-1013.68"/>
</g>
<!-- Node8&#45;&gt;Node7 -->
<g id="edge8" class="edge">
<title>Node8&#45;&gt;Node7</title>
<path fill="none" stroke="midnightblue" d="M392.8,-678C386.37,-621.45 375.89,-529.32 366.04,-442.66"/>
<polygon fill="none" stroke="midnightblue" points="389.35,-678.59 393.95,-688.13 396.3,-677.8 389.35,-678.59"/>
</g>
</g>
</svg>
