<?xml version="1.0" encoding="UTF-8" standalone="no"?>
<!DOCTYPE svg PUBLIC "-//W3C//DTD SVG 1.1//EN"
 "http://www.w3.org/Graphics/SVG/1.1/DTD/svg11.dtd">
<!-- Generated by graphviz version 2.43.0 (0)
 -->
<!-- Title: VolumeControl.Core.Helpers.TargetInfo Pages: 1 -->
<svg width="227pt" height="121pt"
 viewBox="0.00 0.00 227.00 121.00" xmlns="http://www.w3.org/2000/svg" xmlns:xlink="http://www.w3.org/1999/xlink">
<g id="graph0" class="graph" transform="scale(1 1) rotate(0) translate(4 117)">
<title>VolumeControl.Core.Helpers.TargetInfo</title>
<!-- Node1 -->
<g id="node1" class="node">
<title>Node1</title>
<g id="a_node1"><a xlink:title="Contains metadata for saving audio sessions to and from the config">
<polygon fill="#bfbfbf" stroke="black" points="0,-0.5 0,-112.5 158,-112.5 158,-0.5 0,-0.5"/>
<text text-anchor="start" x="8" y="-100.5" font-family="Helvetica,sans-Serif" font-size="10.00">VolumeControl.Core.Helpers.</text>
<text text-anchor="middle" x="79" y="-89.5" font-family="Helvetica,sans-Serif" font-size="10.00">TargetInfo</text>
<polyline fill="none" stroke="black" points="0,-82.5 158,-82.5 "/>
<text text-anchor="start" x="8" y="-70.5" font-family="Helvetica,sans-Serif" font-size="10.00">+ PID</text>
<text text-anchor="start" x="8" y="-59.5" font-family="Helvetica,sans-Serif" font-size="10.00">+ ProcessName</text>
<text text-anchor="start" x="8" y="-48.5" font-family="Helvetica,sans-Serif" font-size="10.00">+ ProcessIdentifier</text>
<text text-anchor="start" x="8" y="-37.5" font-family="Helvetica,sans-Serif" font-size="10.00">+ SessionInstanceIdentifier</text>
<polyline fill="none" stroke="black" points="0,-30.5 158,-30.5 "/>
<text text-anchor="start" x="8" y="-18.5" font-family="Helvetica,sans-Serif" font-size="10.00">+ TargetInfo()</text>
<text text-anchor="start" x="8" y="-7.5" font-family="Helvetica,sans-Serif" font-size="10.00">+ operator TargetInfo()</text>
</a>
</g>
</g>
<!-- Node1&#45;&gt;Node1 -->
<g id="edge1" class="edge">
<title>Node1&#45;&gt;Node1</title>
<path fill="none" stroke="#404040" d="M158.16,-75.13C168.87,-72.01 176,-65.8 176,-56.5 176,-50.98 173.49,-46.55 169.2,-43.2"/>
<polygon fill="none" stroke="#404040" points="168.97,-43.09 161.83,-44.08 158.16,-37.87 165.31,-36.88 168.97,-43.09"/>
<text text-anchor="middle" x="197.5" y="-54" font-family="Helvetica,sans-Serif" font-size="10.00"> +Empty</text>
</g>
</g>
</svg>
