<?xml version="1.0" encoding="UTF-8" standalone="no"?>
<!DOCTYPE svg PUBLIC "-//W3C//DTD SVG 1.1//EN"
 "http://www.w3.org/Graphics/SVG/1.1/DTD/svg11.dtd">
<!-- Generated by graphviz version 2.43.0 (0)
 -->
<!-- Title: VolumeControl.Hotkeys.Structs.ActionBinding Pages: 1 -->
<svg width="179pt" height="204pt"
 viewBox="0.00 0.00 179.00 204.00" xmlns="http://www.w3.org/2000/svg" xmlns:xlink="http://www.w3.org/1999/xlink">
<g id="graph0" class="graph" transform="scale(1 1) rotate(0) translate(4 200)">
<title>VolumeControl.Hotkeys.Structs.ActionBinding</title>
<!-- Node1 -->
<g id="node1" class="node">
<title>Node1</title>
<g id="a_node1"><a xlink:title="Binding endpoint object that uses the MethodInfo object to invoke a method using reflection.">
<polygon fill="#bfbfbf" stroke="black" points="0,-0.5 0,-90.5 171,-90.5 171,-0.5 0,-0.5"/>
<text text-anchor="start" x="8" y="-78.5" font-family="Helvetica,sans-Serif" font-size="10.00">VolumeControl.Hotkeys.Structs.</text>
<text text-anchor="middle" x="85.5" y="-67.5" font-family="Helvetica,sans-Serif" font-size="10.00">ActionBinding</text>
<polyline fill="none" stroke="black" points="0,-60.5 171,-60.5 "/>
<text text-anchor="start" x="8" y="-48.5" font-family="Helvetica,sans-Serif" font-size="10.00">+ Identifier</text>
<text text-anchor="start" x="8" y="-37.5" font-family="Helvetica,sans-Serif" font-size="10.00">+ Data</text>
<polyline fill="none" stroke="black" points="0,-30.5 171,-30.5 "/>
<text text-anchor="start" x="8" y="-18.5" font-family="Helvetica,sans-Serif" font-size="10.00">+ ActionBinding()</text>
<text text-anchor="start" x="8" y="-7.5" font-family="Helvetica,sans-Serif" font-size="10.00">+ HandleKeyEvent()</text>
</a>
</g>
</g>
<!-- Node2 -->
<g id="node2" class="node">
<title>Node2</title>
<g id="a_node2"><a xlink:href="interface_volume_control_1_1_core_1_1_input_1_1_actions_1_1_i_action_binding.html" target="_top" xlink:title="Represents an action binding object, which is a container for reflective method information used to c...">
<polygon fill="none" stroke="black" points="27.5,-127.5 27.5,-195.5 143.5,-195.5 143.5,-127.5 27.5,-127.5"/>
<text text-anchor="middle" x="85.5" y="-183.5" font-family="Helvetica,sans-Serif" font-size="10.00">IActionBinding</text>
<polyline fill="none" stroke="black" points="27.5,-176.5 143.5,-176.5 "/>
<text text-anchor="start" x="35.5" y="-164.5" font-family="Helvetica,sans-Serif" font-size="10.00">+ Data</text>
<text text-anchor="start" x="35.5" y="-153.5" font-family="Helvetica,sans-Serif" font-size="10.00">+ Identifier</text>
<polyline fill="none" stroke="black" points="27.5,-146.5 143.5,-146.5 "/>
<text text-anchor="start" x="35.5" y="-134.5" font-family="Helvetica,sans-Serif" font-size="10.00">+ HandleKeyEvent()</text>
</a>
</g>
</g>
<!-- Node2&#45;&gt;Node1 -->
<g id="edge1" class="edge">
<title>Node2&#45;&gt;Node1</title>
<path fill="none" stroke="midnightblue" d="M85.5,-116.97C85.5,-108.35 85.5,-99.28 85.5,-90.64"/>
<polygon fill="none" stroke="midnightblue" points="82,-117.22 85.5,-127.22 89,-117.22 82,-117.22"/>
</g>
</g>
</svg>
