<?xml version="1.0" encoding="UTF-8" standalone="no"?>
<!DOCTYPE svg PUBLIC "-//W3C//DTD SVG 1.1//EN"
 "http://www.w3.org/Graphics/SVG/1.1/DTD/svg11.dtd">
<!-- Generated by graphviz version 2.43.0 (0)
 -->
<!-- Title: VolumeControl.Core.Config.TargetInfo Pages: 1 -->
<svg width="220pt" height="88pt"
 viewBox="0.00 0.00 220.00 88.00" xmlns="http://www.w3.org/2000/svg" xmlns:xlink="http://www.w3.org/1999/xlink">
<g id="graph0" class="graph" transform="scale(1 1) rotate(0) translate(4 84)">
<title>VolumeControl.Core.Config.TargetInfo</title>
<!-- Node1 -->
<g id="node1" class="node">
<title>Node1</title>
<g id="a_node1"><a xlink:title="Contains metadata for saving audio sessions to and from the config">
<polygon fill="#bfbfbf" stroke="black" points="0,-0.5 0,-79.5 151,-79.5 151,-0.5 0,-0.5"/>
<text text-anchor="start" x="8" y="-67.5" font-family="Helvetica,sans-Serif" font-size="10.00">VolumeControl.Core.Config.</text>
<text text-anchor="middle" x="75.5" y="-56.5" font-family="Helvetica,sans-Serif" font-size="10.00">TargetInfo</text>
<polyline fill="none" stroke="black" points="0,-49.5 151,-49.5 "/>
<text text-anchor="start" x="8" y="-37.5" font-family="Helvetica,sans-Serif" font-size="10.00">+ ProcessIdentifier</text>
<text text-anchor="start" x="8" y="-26.5" font-family="Helvetica,sans-Serif" font-size="10.00">+ SessionInstanceIdentifier</text>
<polyline fill="none" stroke="black" points="0,-19.5 151,-19.5 "/>
<text text-anchor="start" x="8" y="-7.5" font-family="Helvetica,sans-Serif" font-size="10.00">+ operator TargetInfo()</text>
</a>
</g>
</g>
<!-- Node1&#45;&gt;Node1 -->
<g id="edge1" class="edge">
<title>Node1&#45;&gt;Node1</title>
<path fill="none" stroke="#404040" d="M151.07,-53.12C161.8,-51 169,-46.63 169,-40 169,-36.17 166.59,-33.09 162.49,-30.76"/>
<polygon fill="none" stroke="#404040" points="162.43,-30.74 155.46,-32.6 151.07,-26.88 158.04,-25.02 162.43,-30.74"/>
<text text-anchor="middle" x="190.5" y="-37.5" font-family="Helvetica,sans-Serif" font-size="10.00"> +Empty</text>
</g>
</g>
</svg>
