<?xml version="1.0" encoding="UTF-8" standalone="no"?>
<!DOCTYPE svg PUBLIC "-//W3C//DTD SVG 1.1//EN"
 "http://www.w3.org/Graphics/SVG/1.1/DTD/svg11.dtd">
<!-- Generated by graphviz version 2.43.0 (0)
 -->
<!-- Title: VolumeControl.Core.Input.Structs.JsonHotkey.CreateInstance&lt; THotkey &gt; Pages: 1 -->
<svg width="388pt" height="88pt"
 viewBox="0.00 0.00 388.00 88.00" xmlns="http://www.w3.org/2000/svg" xmlns:xlink="http://www.w3.org/1999/xlink">
<g id="graph0" class="graph" transform="scale(1 1) rotate(0) translate(4 84)">
<title>VolumeControl.Core.Input.Structs.JsonHotkey.CreateInstance&lt; THotkey &gt;</title>
<!-- Node1 -->
<g id="node1" class="node">
<title>Node1</title>
<g id="a_node1"><a xlink:title="Creates a new THotkey &#160;instance from this JsonHotkey struct, using the specified actionManager &#160;to re...">
<polygon fill="#bfbfbf" stroke="black" points="0,-19 0,-60 183,-60 183,-19 0,-19"/>
<text text-anchor="start" x="8" y="-48" font-family="Helvetica,sans-Serif" font-size="10.00">VolumeControl.Core.Input.</text>
<text text-anchor="start" x="8" y="-37" font-family="Helvetica,sans-Serif" font-size="10.00">Structs.JsonHotkey.CreateInstance</text>
<text text-anchor="middle" x="91.5" y="-26" font-family="Helvetica,sans-Serif" font-size="10.00">&lt; THotkey &gt;</text>
</a>
</g>
</g>
<!-- Node2 -->
<g id="node2" class="node">
<title>Node2</title>
<g id="a_node2"><a xlink:href="class_volume_control_1_1_log_1_1_log_writer.html#ae7780f22869e53ce4a1aad3fc6fa0bf7" target="_top" xlink:title="Write a formatted EventType.ERROR message to the log endpoint.">
<polygon fill="none" stroke="black" points="219,-49.5 219,-79.5 380,-79.5 380,-49.5 219,-49.5"/>
<text text-anchor="start" x="227" y="-67.5" font-family="Helvetica,sans-Serif" font-size="10.00">VolumeControl.Log.LogWriter.</text>
<text text-anchor="middle" x="299.5" y="-56.5" font-family="Helvetica,sans-Serif" font-size="10.00">Error</text>
</a>
</g>
</g>
<!-- Node1&#45;&gt;Node2 -->
<g id="edge1" class="edge">
<title>Node1&#45;&gt;Node2</title>
<path fill="none" stroke="midnightblue" d="M183.15,-50.5C191.69,-51.54 200.34,-52.59 208.86,-53.62"/>
<polygon fill="midnightblue" stroke="midnightblue" points="208.45,-57.1 218.8,-54.83 209.29,-50.15 208.45,-57.1"/>
</g>
<!-- Node3 -->
<g id="node3" class="node">
<title>Node3</title>
<g id="a_node3"><a xlink:href="class_volume_control_1_1_log_1_1_log_writer.html#a927e2b5b79ae2c3a0b243246bb2e5a3d" target="_top" xlink:title="Determines whether the given EventType should be written to the Endpoint or not.">
<polygon fill="none" stroke="black" points="219,-0.5 219,-30.5 380,-30.5 380,-0.5 219,-0.5"/>
<text text-anchor="start" x="227" y="-18.5" font-family="Helvetica,sans-Serif" font-size="10.00">VolumeControl.Log.LogWriter.</text>
<text text-anchor="middle" x="299.5" y="-7.5" font-family="Helvetica,sans-Serif" font-size="10.00">FilterEventType</text>
</a>
</g>
</g>
<!-- Node1&#45;&gt;Node3 -->
<g id="edge2" class="edge">
<title>Node1&#45;&gt;Node3</title>
<path fill="none" stroke="midnightblue" d="M183.15,-28.94C191.69,-27.94 200.34,-26.94 208.86,-25.94"/>
<polygon fill="midnightblue" stroke="midnightblue" points="209.27,-29.42 218.8,-24.79 208.46,-22.47 209.27,-29.42"/>
</g>
</g>
</svg>
