<?xml version="1.0" encoding="UTF-8" standalone="no"?>
<!DOCTYPE svg PUBLIC "-//W3C//DTD SVG 1.1//EN"
 "http://www.w3.org/Graphics/SVG/1.1/DTD/svg11.dtd">
<!-- Generated by graphviz version 2.43.0 (0)
 -->
<!-- Title: VolumeControl.Core.Input.Structs.JsonHotkey.CreateInstance&lt; THotkey &gt; Pages: 1 -->
<svg width="385pt" height="88pt"
 viewBox="0.00 0.00 385.00 88.00" xmlns="http://www.w3.org/2000/svg" xmlns:xlink="http://www.w3.org/1999/xlink">
<g id="graph0" class="graph" transform="scale(1 1) rotate(0) translate(4 84)">
<title>VolumeControl.Core.Input.Structs.JsonHotkey.CreateInstance&lt; THotkey &gt;</title>
<!-- Node1 -->
<g id="node1" class="node">
<title>Node1</title>
<g id="a_node1"><a xlink:title="Creates a new THotkey &#160;instance from this JsonHotkey struct, using the specified actionManager &#160;to re...">
<polygon fill="#bfbfbf" stroke="black" points="0,-19 0,-60 183,-60 183,-19 0,-19"/>
<text text-anchor="start" x="8" y="-48" font-family="Helvetica,sans-Serif" font-size="10.00">VolumeControl.Core.Input.</text>
<text text-anchor="start" x="8" y="-37" font-family="Helvetica,sans-Serif" font-size="10.00">Structs.JsonHotkey.CreateInstance</text>
<text text-anchor="middle" x="91.5" y="-26" font-family="Helvetica,sans-Serif" font-size="10.00">&lt; THotkey &gt;</text>
</a>
</g>
</g>
<!-- Node2 -->
<g id="node2" class="node">
<title>Node2</title>
<g id="a_node2"><a xlink:href="class_volume_control_1_1_log_1_1_async_log_writer.html#a78392efd4f13ac8fb627ef5349c75eab" target="_top" xlink:title="Queues writing a EventType.ERROR message with the specified lines .">
<polygon fill="none" stroke="black" points="219,-49.5 219,-79.5 377,-79.5 377,-49.5 219,-49.5"/>
<text text-anchor="start" x="227" y="-67.5" font-family="Helvetica,sans-Serif" font-size="10.00">VolumeControl.Log.AsyncLog</text>
<text text-anchor="middle" x="298" y="-56.5" font-family="Helvetica,sans-Serif" font-size="10.00">Writer.Error</text>
</a>
</g>
</g>
<!-- Node1&#45;&gt;Node2 -->
<g id="edge1" class="edge">
<title>Node1&#45;&gt;Node2</title>
<path fill="none" stroke="midnightblue" d="M183.09,-50.57C191.69,-51.63 200.4,-52.69 208.98,-53.74"/>
<polygon fill="midnightblue" stroke="midnightblue" points="208.62,-57.22 218.97,-54.96 209.47,-50.27 208.62,-57.22"/>
</g>
<!-- Node3 -->
<g id="node3" class="node">
<title>Node3</title>
<g id="a_node3"><a xlink:href="class_volume_control_1_1_log_1_1_async_log_writer.html#a991ed5d730c4006309027e8b98304751" target="_top" xlink:title="Checks if messages with the specified eventType &#160;are shown in the log.">
<polygon fill="none" stroke="black" points="219,-0.5 219,-30.5 377,-30.5 377,-0.5 219,-0.5"/>
<text text-anchor="start" x="227" y="-18.5" font-family="Helvetica,sans-Serif" font-size="10.00">VolumeControl.Log.AsyncLog</text>
<text text-anchor="middle" x="298" y="-7.5" font-family="Helvetica,sans-Serif" font-size="10.00">Writer.FilterEventType</text>
</a>
</g>
</g>
<!-- Node1&#45;&gt;Node3 -->
<g id="edge2" class="edge">
<title>Node1&#45;&gt;Node3</title>
<path fill="none" stroke="midnightblue" d="M183.09,-28.87C191.69,-27.86 200.4,-26.84 208.98,-25.83"/>
<polygon fill="midnightblue" stroke="midnightblue" points="209.44,-29.3 218.97,-24.66 208.63,-22.35 209.44,-29.3"/>
</g>
</g>
</svg>
