<?xml version="1.0" encoding="UTF-8" standalone="no"?>
<!DOCTYPE svg PUBLIC "-//W3C//DTD SVG 1.1//EN"
 "http://www.w3.org/Graphics/SVG/1.1/DTD/svg11.dtd">
<!-- Generated by graphviz version 2.43.0 (0)
 -->
<!-- Title: HotkeyLib.KeyCombo Pages: 1 -->
<svg width="141pt" height="452pt"
 viewBox="0.00 0.00 141.00 452.00" xmlns="http://www.w3.org/2000/svg" xmlns:xlink="http://www.w3.org/1999/xlink">
<g id="graph0" class="graph" transform="scale(1 1) rotate(0) translate(4 448)">
<title>HotkeyLib.KeyCombo</title>
<!-- Node1 -->
<g id="node1" class="node">
<title>Node1</title>
<g id="a_node1"><a xlink:title="Represents a combination of one keyboard key and any number of modifier keys.">
<polygon fill="#bfbfbf" stroke="black" points="6,-0.5 6,-178.5 127,-178.5 127,-0.5 6,-0.5"/>
<text text-anchor="middle" x="66.5" y="-166.5" font-family="Helvetica,sans-Serif" font-size="10.00">HotkeyLib.KeyCombo</text>
<polyline fill="none" stroke="black" points="6,-159.5 127,-159.5 "/>
<text text-anchor="start" x="14" y="-147.5" font-family="Helvetica,sans-Serif" font-size="10.00">+ Valid</text>
<text text-anchor="start" x="14" y="-136.5" font-family="Helvetica,sans-Serif" font-size="10.00">+ Key</text>
<text text-anchor="start" x="14" y="-125.5" font-family="Helvetica,sans-Serif" font-size="10.00">+ Mod</text>
<text text-anchor="start" x="14" y="-114.5" font-family="Helvetica,sans-Serif" font-size="10.00">+ Alt</text>
<text text-anchor="start" x="14" y="-103.5" font-family="Helvetica,sans-Serif" font-size="10.00">+ Ctrl</text>
<text text-anchor="start" x="14" y="-92.5" font-family="Helvetica,sans-Serif" font-size="10.00">+ Shift</text>
<text text-anchor="start" x="14" y="-81.5" font-family="Helvetica,sans-Serif" font-size="10.00">+ Win</text>
<polyline fill="none" stroke="black" points="6,-74.5 127,-74.5 "/>
<text text-anchor="start" x="14" y="-62.5" font-family="Helvetica,sans-Serif" font-size="10.00">+ KeyCombo()</text>
<text text-anchor="start" x="14" y="-51.5" font-family="Helvetica,sans-Serif" font-size="10.00">+ KeyCombo()</text>
<text text-anchor="start" x="14" y="-40.5" font-family="Helvetica,sans-Serif" font-size="10.00">+ KeyCombo()</text>
<text text-anchor="start" x="14" y="-29.5" font-family="Helvetica,sans-Serif" font-size="10.00">+ ToString()</text>
<text text-anchor="start" x="14" y="-18.5" font-family="Helvetica,sans-Serif" font-size="10.00">+ Serialize()</text>
<text text-anchor="start" x="14" y="-7.5" font-family="Helvetica,sans-Serif" font-size="10.00">+ Parse()</text>
</a>
</g>
</g>
<!-- Node2 -->
<g id="node2" class="node">
<title>Node2</title>
<g id="a_node2"><a xlink:href="interface_hotkey_lib_1_1_i_key_combo.html" target="_top" xlink:title="Represents a combination of one keyboard key and any number of modifier keys.">
<polygon fill="none" stroke="black" points="28,-215.5 28,-349.5 105,-349.5 105,-215.5 28,-215.5"/>
<text text-anchor="middle" x="66.5" y="-337.5" font-family="Helvetica,sans-Serif" font-size="10.00">IKeyCombo</text>
<polyline fill="none" stroke="black" points="28,-330.5 105,-330.5 "/>
<text text-anchor="start" x="36" y="-318.5" font-family="Helvetica,sans-Serif" font-size="10.00">+ Key</text>
<text text-anchor="start" x="36" y="-307.5" font-family="Helvetica,sans-Serif" font-size="10.00">+ Mod</text>
<text text-anchor="start" x="36" y="-296.5" font-family="Helvetica,sans-Serif" font-size="10.00">+ Alt</text>
<text text-anchor="start" x="36" y="-285.5" font-family="Helvetica,sans-Serif" font-size="10.00">+ Ctrl</text>
<text text-anchor="start" x="36" y="-274.5" font-family="Helvetica,sans-Serif" font-size="10.00">+ Shift</text>
<text text-anchor="start" x="36" y="-263.5" font-family="Helvetica,sans-Serif" font-size="10.00">+ Win</text>
<text text-anchor="start" x="36" y="-252.5" font-family="Helvetica,sans-Serif" font-size="10.00">+ Valid</text>
<polyline fill="none" stroke="black" points="28,-245.5 105,-245.5 "/>
<text text-anchor="start" x="36" y="-233.5" font-family="Helvetica,sans-Serif" font-size="10.00">+ ToString()</text>
<text text-anchor="start" x="36" y="-222.5" font-family="Helvetica,sans-Serif" font-size="10.00">+ Serialize()</text>
</a>
</g>
</g>
<!-- Node2&#45;&gt;Node1 -->
<g id="edge1" class="edge">
<title>Node2&#45;&gt;Node1</title>
<path fill="none" stroke="midnightblue" d="M66.5,-205.09C66.5,-196.35 66.5,-187.39 66.5,-178.52"/>
<polygon fill="none" stroke="midnightblue" points="63,-205.23 66.5,-215.23 70,-205.23 63,-205.23"/>
</g>
<!-- Node3 -->
<g id="node3" class="node">
<title>Node3</title>
<g id="a_node3"><a xlink:title=" ">
<polygon fill="none" stroke="#bfbfbf" points="0,-386.5 0,-443.5 133,-443.5 133,-386.5 0,-386.5"/>
<text text-anchor="middle" x="66.5" y="-431.5" font-family="Helvetica,sans-Serif" font-size="10.00">INotifyPropertyChanged</text>
<polyline fill="none" stroke="#bfbfbf" points="0,-424.5 133,-424.5 "/>
<text text-anchor="middle" x="66.5" y="-412.5" font-family="Helvetica,sans-Serif" font-size="10.00"> </text>
<polyline fill="none" stroke="#bfbfbf" points="0,-405.5 133,-405.5 "/>
<text text-anchor="middle" x="66.5" y="-393.5" font-family="Helvetica,sans-Serif" font-size="10.00"> </text>
</a>
</g>
</g>
<!-- Node3&#45;&gt;Node2 -->
<g id="edge2" class="edge">
<title>Node3&#45;&gt;Node2</title>
<path fill="none" stroke="midnightblue" d="M66.5,-376.16C66.5,-367.78 66.5,-358.67 66.5,-349.53"/>
<polygon fill="none" stroke="midnightblue" points="63,-376.32 66.5,-386.32 70,-376.32 63,-376.32"/>
</g>
</g>
</svg>
