<?xml version="1.0" encoding="UTF-8" standalone="no"?>
<!DOCTYPE svg PUBLIC "-//W3C//DTD SVG 1.1//EN"
 "http://www.w3.org/Graphics/SVG/1.1/DTD/svg11.dtd">
<!-- Generated by graphviz version 2.43.0 (0)
 -->
<!-- Title: VolumeControl.Core.Helpers.TargetInfo Pages: 1 -->
<svg width="227pt" height="110pt"
 viewBox="0.00 0.00 227.00 110.00" xmlns="http://www.w3.org/2000/svg" xmlns:xlink="http://www.w3.org/1999/xlink">
<g id="graph0" class="graph" transform="scale(1 1) rotate(0) translate(4 106)">
<title>VolumeControl.Core.Helpers.TargetInfo</title>
<!-- Node1 -->
<g id="node1" class="node">
<title>Node1</title>
<g id="a_node1"><a xlink:title="Contains metadata for saving audio sessions to and from the config">
<polygon fill="#bfbfbf" stroke="black" points="0,-0.5 0,-101.5 158,-101.5 158,-0.5 0,-0.5"/>
<text text-anchor="start" x="8" y="-89.5" font-family="Helvetica,sans-Serif" font-size="10.00">VolumeControl.Core.Helpers.</text>
<text text-anchor="middle" x="79" y="-78.5" font-family="Helvetica,sans-Serif" font-size="10.00">TargetInfo</text>
<polyline fill="none" stroke="black" points="0,-71.5 158,-71.5 "/>
<text text-anchor="start" x="8" y="-59.5" font-family="Helvetica,sans-Serif" font-size="10.00">+ ProcessIdentifier</text>
<text text-anchor="start" x="8" y="-48.5" font-family="Helvetica,sans-Serif" font-size="10.00">+ SessionInstanceIdentifier</text>
<polyline fill="none" stroke="black" points="0,-41.5 158,-41.5 "/>
<text text-anchor="start" x="8" y="-29.5" font-family="Helvetica,sans-Serif" font-size="10.00">+ GetProcessID()</text>
<text text-anchor="start" x="8" y="-18.5" font-family="Helvetica,sans-Serif" font-size="10.00">+ GetProcessName()</text>
<text text-anchor="start" x="8" y="-7.5" font-family="Helvetica,sans-Serif" font-size="10.00">+ operator TargetInfo()</text>
</a>
</g>
</g>
<!-- Node1&#45;&gt;Node1 -->
<g id="edge1" class="edge">
<title>Node1&#45;&gt;Node1</title>
<path fill="none" stroke="#404040" d="M158.16,-67.63C168.87,-64.85 176,-59.3 176,-51 176,-46.07 173.49,-42.11 169.2,-39.13"/>
<polygon fill="none" stroke="#404040" points="169.18,-39.12 162.09,-40.42 158.16,-34.37 165.26,-33.07 169.18,-39.12"/>
<text text-anchor="middle" x="197.5" y="-48.5" font-family="Helvetica,sans-Serif" font-size="10.00"> +Empty</text>
</g>
</g>
</svg>
