<?xml version="1.0" encoding="UTF-8" standalone="no"?>
<!DOCTYPE svg PUBLIC "-//W3C//DTD SVG 1.1//EN"
 "http://www.w3.org/Graphics/SVG/1.1/DTD/svg11.dtd">
<!-- Generated by graphviz version 2.43.0 (0)
 -->
<!-- Title: VolumeControl.Core.Input.Json.JsonHotkey.CreateInstance&lt; THotkey &gt; Pages: 1 -->
<svg width="377pt" height="78pt"
 viewBox="0.00 0.00 377.00 77.50" xmlns="http://www.w3.org/2000/svg" xmlns:xlink="http://www.w3.org/1999/xlink">
<g id="graph0" class="graph" transform="scale(1 1) rotate(0) translate(4 73.5)">
<title>VolumeControl.Core.Input.Json.JsonHotkey.CreateInstance&lt; THotkey &gt;</title>
<!-- Node1 -->
<g id="node1" class="node">
<title>Node1</title>
<g id="a_node1"><a xlink:title="Creates a new THotkey &#160;instance from this JsonHotkey struct, using the specified actionManager &#160;to re...">
<polygon fill="#bfbfbf" stroke="black" points="0,-17 0,-58 170,-58 170,-17 0,-17"/>
<text text-anchor="start" x="8" y="-46" font-family="Helvetica,sans-Serif" font-size="10.00">VolumeControl.Core.Input.</text>
<text text-anchor="start" x="8" y="-35" font-family="Helvetica,sans-Serif" font-size="10.00">Json.JsonHotkey.CreateInstance</text>
<text text-anchor="middle" x="85" y="-24" font-family="Helvetica,sans-Serif" font-size="10.00">&lt; THotkey &gt;</text>
</a>
</g>
</g>
<!-- Node2 -->
<g id="node2" class="node">
<title>Node2</title>
<g id="a_node2"><a xlink:href="class_volume_control_1_1_log_1_1_f_log.html#ad09321e60c917e6a06243fa7743f412d" target="_top" xlink:title=" ">
<polygon fill="none" stroke="black" points="207,-50 207,-69 368,-69 368,-50 207,-50"/>
<text text-anchor="middle" x="287.5" y="-57" font-family="Helvetica,sans-Serif" font-size="10.00">VolumeControl.Log.FLog.Error</text>
</a>
</g>
</g>
<!-- Node1&#45;&gt;Node2 -->
<g id="edge1" class="edge">
<title>Node1&#45;&gt;Node2</title>
<path fill="none" stroke="midnightblue" d="M170.16,-46.73C178.86,-47.69 187.73,-48.66 196.5,-49.62"/>
<polygon fill="midnightblue" stroke="midnightblue" points="196.4,-53.13 206.72,-50.75 197.16,-46.18 196.4,-53.13"/>
</g>
<!-- Node3 -->
<g id="node3" class="node">
<title>Node3</title>
<g id="a_node3"><a xlink:href="class_volume_control_1_1_log_1_1_f_log.html#a4dcec7039adc7659b074ba4122cea0f8" target="_top" xlink:title=" ">
<polygon fill="none" stroke="black" points="206,-0.5 206,-30.5 369,-30.5 369,-0.5 206,-0.5"/>
<text text-anchor="start" x="214" y="-18.5" font-family="Helvetica,sans-Serif" font-size="10.00">VolumeControl.Log.FLog.Filter</text>
<text text-anchor="middle" x="287.5" y="-7.5" font-family="Helvetica,sans-Serif" font-size="10.00">EventType</text>
</a>
</g>
</g>
<!-- Node1&#45;&gt;Node3 -->
<g id="edge2" class="edge">
<title>Node1&#45;&gt;Node3</title>
<path fill="none" stroke="midnightblue" d="M170.16,-28.27C178.63,-27.34 187.26,-26.39 195.8,-25.45"/>
<polygon fill="midnightblue" stroke="midnightblue" points="196.2,-28.93 205.76,-24.36 195.44,-21.97 196.2,-28.93"/>
</g>
</g>
</svg>
