<?xml version="1.0" encoding="UTF-8" standalone="no"?>
<!DOCTYPE svg PUBLIC "-//W3C//DTD SVG 1.1//EN"
 "http://www.w3.org/Graphics/SVG/1.1/DTD/svg11.dtd">
<!-- Generated by graphviz version 2.43.0 (0)
 -->
<!-- Title: VolumeControl.Core.Win32.RegistryAPI.Scope Pages: 1 -->
<svg width="206pt" height="182pt"
 viewBox="0.00 0.00 205.50 182.00" xmlns="http://www.w3.org/2000/svg" xmlns:xlink="http://www.w3.org/1999/xlink">
<g id="graph0" class="graph" transform="scale(1 1) rotate(0) translate(4 178)">
<title>VolumeControl.Core.Win32.RegistryAPI.Scope</title>
<!-- Node1 -->
<g id="node1" class="node">
<title>Node1</title>
<g id="a_node1"><a xlink:title="A static list of root registry keys.">
<polygon fill="#bfbfbf" stroke="black" points="0,-0.5 0,-68.5 151,-68.5 151,-0.5 0,-0.5"/>
<text text-anchor="start" x="8" y="-56.5" font-family="Helvetica,sans-Serif" font-size="10.00">VolumeControl.Core.Win32.</text>
<text text-anchor="middle" x="75.5" y="-45.5" font-family="Helvetica,sans-Serif" font-size="10.00">RegistryAPI.Scope</text>
<polyline fill="none" stroke="black" points="0,-38.5 151,-38.5 "/>
<text text-anchor="middle" x="75.5" y="-26.5" font-family="Helvetica,sans-Serif" font-size="10.00"> </text>
<polyline fill="none" stroke="black" points="0,-19.5 151,-19.5 "/>
<text text-anchor="middle" x="75.5" y="-7.5" font-family="Helvetica,sans-Serif" font-size="10.00"> </text>
</a>
</g>
</g>
<!-- Node2 -->
<g id="node2" class="node">
<title>Node2</title>
<g id="a_node2"><a xlink:title=" ">
<polygon fill="none" stroke="#bfbfbf" points="53.5,-116.5 53.5,-173.5 97.5,-173.5 97.5,-116.5 53.5,-116.5"/>
<text text-anchor="middle" x="75.5" y="-161.5" font-family="Helvetica,sans-Serif" font-size="10.00">static</text>
<polyline fill="none" stroke="#bfbfbf" points="53.5,-154.5 97.5,-154.5 "/>
<text text-anchor="middle" x="75.5" y="-142.5" font-family="Helvetica,sans-Serif" font-size="10.00"> </text>
<polyline fill="none" stroke="#bfbfbf" points="53.5,-135.5 97.5,-135.5 "/>
<text text-anchor="middle" x="75.5" y="-123.5" font-family="Helvetica,sans-Serif" font-size="10.00"> </text>
</a>
</g>
</g>
<!-- Node2&#45;&gt;Node1 -->
<g id="edge1" class="edge">
<title>Node2&#45;&gt;Node1</title>
<path fill="none" stroke="#404040" d="M75.5,-116.34C75.5,-105.53 75.5,-92.85 75.5,-80.77"/>
<polygon fill="none" stroke="#404040" points="75.5,-80.52 71.5,-74.52 75.5,-68.52 79.5,-74.52 75.5,-80.52"/>
<text text-anchor="middle" x="136.5" y="-90" font-family="Helvetica,sans-Serif" font-size="10.00"> +HKEY_CURRENT_USER</text>
</g>
</g>
</svg>
