<?xml version="1.0" encoding="UTF-8" standalone="no"?>
<!DOCTYPE svg PUBLIC "-//W3C//DTD SVG 1.1//EN"
 "http://www.w3.org/Graphics/SVG/1.1/DTD/svg11.dtd">
<!-- Generated by graphviz version 2.43.0 (0)
 -->
<!-- Title: VolumeControl.WPF.MINMAXINFO Pages: 1 -->
<svg width="189pt" height="226pt"
 viewBox="0.00 0.00 189.00 226.00" xmlns="http://www.w3.org/2000/svg" xmlns:xlink="http://www.w3.org/1999/xlink">
<g id="graph0" class="graph" transform="scale(1 1) rotate(0) translate(4 222)">
<title>VolumeControl.WPF.MINMAXINFO</title>
<!-- Node1 -->
<g id="node1" class="node">
<title>Node1</title>
<g id="a_node1"><a xlink:title=" ">
<polygon fill="#bfbfbf" stroke="black" points="0,-0.5 0,-57.5 181,-57.5 181,-0.5 0,-0.5"/>
<text text-anchor="middle" x="90.5" y="-45.5" font-family="Helvetica,sans-Serif" font-size="10.00">VolumeControl.WPF.MINMAXINFO</text>
<polyline fill="none" stroke="black" points="0,-38.5 181,-38.5 "/>
<text text-anchor="middle" x="90.5" y="-26.5" font-family="Helvetica,sans-Serif" font-size="10.00"> </text>
<polyline fill="none" stroke="black" points="0,-19.5 181,-19.5 "/>
<text text-anchor="middle" x="90.5" y="-7.5" font-family="Helvetica,sans-Serif" font-size="10.00"> </text>
</a>
</g>
</g>
<!-- Node2 -->
<g id="node2" class="node">
<title>Node2</title>
<g id="a_node2"><a xlink:href="struct_volume_control_1_1_w_p_f_1_1_p_o_i_n_t.html" target="_top" xlink:title="POINT aka POINTAPI">
<polygon fill="none" stroke="black" points="18,-149.5 18,-217.5 163,-217.5 163,-149.5 18,-149.5"/>
<text text-anchor="middle" x="90.5" y="-205.5" font-family="Helvetica,sans-Serif" font-size="10.00">VolumeControl.WPF.POINT</text>
<polyline fill="none" stroke="black" points="18,-198.5 163,-198.5 "/>
<text text-anchor="start" x="26" y="-186.5" font-family="Helvetica,sans-Serif" font-size="10.00">+ x</text>
<text text-anchor="start" x="26" y="-175.5" font-family="Helvetica,sans-Serif" font-size="10.00">+ y</text>
<polyline fill="none" stroke="black" points="18,-168.5 163,-168.5 "/>
<text text-anchor="start" x="26" y="-156.5" font-family="Helvetica,sans-Serif" font-size="10.00">+ POINT()</text>
</a>
</g>
</g>
<!-- Node2&#45;&gt;Node1 -->
<g id="edge1" class="edge">
<title>Node2&#45;&gt;Node1</title>
<path fill="none" stroke="#404040" d="M90.5,-149.41C90.5,-126.14 90.5,-94.86 90.5,-70.16"/>
<polygon fill="none" stroke="#404040" points="90.5,-69.92 86.5,-63.92 90.5,-57.92 94.5,-63.92 90.5,-69.92"/>
<text text-anchor="middle" x="133" y="-123" font-family="Helvetica,sans-Serif" font-size="10.00"> +ptMaxPosition</text>
<text text-anchor="middle" x="133" y="-112" font-family="Helvetica,sans-Serif" font-size="10.00">+ptMaxSize</text>
<text text-anchor="middle" x="133" y="-101" font-family="Helvetica,sans-Serif" font-size="10.00">+ptMaxTrackSize</text>
<text text-anchor="middle" x="133" y="-90" font-family="Helvetica,sans-Serif" font-size="10.00">+ptMinTrackSize</text>
<text text-anchor="middle" x="133" y="-79" font-family="Helvetica,sans-Serif" font-size="10.00">+ptReserved</text>
</g>
</g>
</svg>
