<?xml version="1.0" encoding="UTF-8" standalone="no"?>
<!DOCTYPE svg PUBLIC "-//W3C//DTD SVG 1.1//EN"
 "http://www.w3.org/Graphics/SVG/1.1/DTD/svg11.dtd">
<!-- Generated by graphviz version 2.43.0 (0)
 -->
<!-- Title: VolumeControl.API.VCAPI Pages: 1 -->
<svg width="218pt" height="497pt"
 viewBox="0.00 0.00 217.50 497.00" xmlns="http://www.w3.org/2000/svg" xmlns:xlink="http://www.w3.org/1999/xlink">
<g id="graph0" class="graph" transform="scale(1 1) rotate(0) translate(4 493)">
<title>VolumeControl.API.VCAPI</title>
<!-- Node1 -->
<g id="node1" class="node">
<title>Node1</title>
<g id="a_node1"><a xlink:title="Struct containing various useful object references. Cannot be directly instantiated,...">
<polygon fill="#bfbfbf" stroke="black" points="45.5,-0.5 45.5,-101.5 185.5,-101.5 185.5,-0.5 45.5,-0.5"/>
<text text-anchor="middle" x="115.5" y="-89.5" font-family="Helvetica,sans-Serif" font-size="10.00">VolumeControl.API.VCAPI</text>
<polyline fill="none" stroke="black" points="45.5,-82.5 185.5,-82.5 "/>
<text text-anchor="start" x="53.5" y="-70.5" font-family="Helvetica,sans-Serif" font-size="10.00">+ Default</text>
<text text-anchor="start" x="53.5" y="-59.5" font-family="Helvetica,sans-Serif" font-size="10.00">+ AudioAPI</text>
<text text-anchor="start" x="53.5" y="-48.5" font-family="Helvetica,sans-Serif" font-size="10.00">+ HotkeyManager</text>
<text text-anchor="start" x="53.5" y="-37.5" font-family="Helvetica,sans-Serif" font-size="10.00">+ MainWindowHWnd</text>
<text text-anchor="start" x="53.5" y="-26.5" font-family="Helvetica,sans-Serif" font-size="10.00">+ Settings</text>
<polyline fill="none" stroke="black" points="45.5,-19.5 185.5,-19.5 "/>
<text text-anchor="middle" x="115.5" y="-7.5" font-family="Helvetica,sans-Serif" font-size="10.00"> </text>
</a>
</g>
</g>
<!-- Node2 -->
<g id="node2" class="node">
<title>Node2</title>
<g id="a_node2"><a xlink:href="class_volume_control_1_1_log_1_1_log_writer.html" target="_top" xlink:title="Basic log writer object.">
<polygon fill="none" stroke="black" points="35,-149.5 35,-382.5 196,-382.5 196,-149.5 35,-149.5"/>
<text text-anchor="middle" x="115.5" y="-370.5" font-family="Helvetica,sans-Serif" font-size="10.00">VolumeControl.Log.LogWriter</text>
<polyline fill="none" stroke="black" points="35,-363.5 196,-363.5 "/>
<text text-anchor="start" x="43" y="-351.5" font-family="Helvetica,sans-Serif" font-size="10.00">+ Endpoint</text>
<text text-anchor="start" x="43" y="-340.5" font-family="Helvetica,sans-Serif" font-size="10.00">+ EventTypeFilter</text>
<text text-anchor="start" x="43" y="-329.5" font-family="Helvetica,sans-Serif" font-size="10.00">+ LastEventType</text>
<polyline fill="none" stroke="black" points="35,-322.5 196,-322.5 "/>
<text text-anchor="start" x="43" y="-310.5" font-family="Helvetica,sans-Serif" font-size="10.00">+ LogWriter()</text>
<text text-anchor="start" x="43" y="-299.5" font-family="Helvetica,sans-Serif" font-size="10.00">+ FilterEventType()</text>
<text text-anchor="start" x="43" y="-288.5" font-family="Helvetica,sans-Serif" font-size="10.00">+ MakeTimestamp()</text>
<text text-anchor="start" x="43" y="-277.5" font-family="Helvetica,sans-Serif" font-size="10.00">+ Write()</text>
<text text-anchor="start" x="43" y="-266.5" font-family="Helvetica,sans-Serif" font-size="10.00">+ WriteLine()</text>
<text text-anchor="start" x="43" y="-255.5" font-family="Helvetica,sans-Serif" font-size="10.00">+ WriteWithTimestamp()</text>
<text text-anchor="start" x="43" y="-244.5" font-family="Helvetica,sans-Serif" font-size="10.00">+ WriteWithTimestamp()</text>
<text text-anchor="start" x="43" y="-233.5" font-family="Helvetica,sans-Serif" font-size="10.00">+ Conditional()</text>
<text text-anchor="start" x="43" y="-222.5" font-family="Helvetica,sans-Serif" font-size="10.00">+ WriteEvent()</text>
<text text-anchor="start" x="43" y="-211.5" font-family="Helvetica,sans-Serif" font-size="10.00">+ WriteEvent()</text>
<text text-anchor="start" x="43" y="-200.5" font-family="Helvetica,sans-Serif" font-size="10.00">and 17 more...</text>
<text text-anchor="start" x="43" y="-189.5" font-family="Helvetica,sans-Serif" font-size="10.00">+ MakeBlankTimestamp()</text>
<text text-anchor="start" x="43" y="-178.5" font-family="Helvetica,sans-Serif" font-size="10.00">+ FormatExceptionMessage()</text>
<text text-anchor="start" x="43" y="-167.5" font-family="Helvetica,sans-Serif" font-size="10.00">+ GetTrace()</text>
<text text-anchor="start" x="43" y="-156.5" font-family="Helvetica,sans-Serif" font-size="10.00"># Dispose()</text>
</a>
</g>
</g>
<!-- Node2&#45;&gt;Node1 -->
<g id="edge1" class="edge">
<title>Node2&#45;&gt;Node1</title>
<path fill="none" stroke="#404040" d="M115.5,-149.46C115.5,-137.24 115.5,-125.18 115.5,-113.93"/>
<polygon fill="none" stroke="#404040" points="115.5,-113.6 111.5,-107.6 115.5,-101.6 119.5,-107.6 115.5,-113.6"/>
<text text-anchor="middle" x="130" y="-123" font-family="Helvetica,sans-Serif" font-size="10.00"> +Log</text>
</g>
<!-- Node3 -->
<g id="node3" class="node">
<title>Node3</title>
<g id="a_node3"><a xlink:href="interface_volume_control_1_1_log_1_1_interfaces_1_1_i_log_writer.html" target="_top" xlink:title="Represents a log writer object, which is responsible for exposing logging methods,...">
<polygon fill="none" stroke="black" points="0,-420.5 0,-488.5 117,-488.5 117,-420.5 0,-420.5"/>
<text text-anchor="middle" x="58.5" y="-476.5" font-family="Helvetica,sans-Serif" font-size="10.00">ILogWriter</text>
<polyline fill="none" stroke="black" points="0,-469.5 117,-469.5 "/>
<text text-anchor="start" x="8" y="-457.5" font-family="Helvetica,sans-Serif" font-size="10.00">+ Endpoint</text>
<polyline fill="none" stroke="black" points="0,-450.5 117,-450.5 "/>
<text text-anchor="start" x="8" y="-438.5" font-family="Helvetica,sans-Serif" font-size="10.00">+ MakeTimestamp()</text>
<text text-anchor="start" x="8" y="-427.5" font-family="Helvetica,sans-Serif" font-size="10.00">+ FilterEventType()</text>
</a>
</g>
</g>
<!-- Node3&#45;&gt;Node2 -->
<g id="edge2" class="edge">
<title>Node3&#45;&gt;Node2</title>
<path fill="none" stroke="midnightblue" d="M71.66,-410.45C74.29,-401.83 77.17,-392.4 80.16,-382.62"/>
<polygon fill="none" stroke="midnightblue" points="68.27,-409.57 68.69,-420.16 74.96,-411.62 68.27,-409.57"/>
</g>
<!-- Node4 -->
<g id="node4" class="node">
<title>Node4</title>
<g id="a_node4"><a xlink:title=" ">
<polygon fill="none" stroke="#bfbfbf" points="135.5,-426 135.5,-483 209.5,-483 209.5,-426 135.5,-426"/>
<text text-anchor="middle" x="172.5" y="-471" font-family="Helvetica,sans-Serif" font-size="10.00">IDisposable</text>
<polyline fill="none" stroke="#bfbfbf" points="135.5,-464 209.5,-464 "/>
<text text-anchor="middle" x="172.5" y="-452" font-family="Helvetica,sans-Serif" font-size="10.00"> </text>
<polyline fill="none" stroke="#bfbfbf" points="135.5,-445 209.5,-445 "/>
<text text-anchor="middle" x="172.5" y="-433" font-family="Helvetica,sans-Serif" font-size="10.00"> </text>
</a>
</g>
</g>
<!-- Node4&#45;&gt;Node2 -->
<g id="edge3" class="edge">
<title>Node4&#45;&gt;Node2</title>
<path fill="none" stroke="midnightblue" d="M161.16,-416.41C158.09,-406.34 154.59,-394.89 150.92,-382.9"/>
<polygon fill="none" stroke="midnightblue" points="157.82,-417.44 164.09,-425.98 164.51,-415.39 157.82,-417.44"/>
</g>
</g>
</svg>
