<?xml version="1.0" encoding="UTF-8" standalone="no"?>
<!DOCTYPE svg PUBLIC "-//W3C//DTD SVG 1.1//EN"
 "http://www.w3.org/Graphics/SVG/1.1/DTD/svg11.dtd">
<!-- Generated by graphviz version 2.43.0 (0)
 -->
<!-- Title: HotkeyLib.KeyCombo Pages: 1 -->
<svg width="141pt" height="441pt"
 viewBox="0.00 0.00 141.00 441.00" xmlns="http://www.w3.org/2000/svg" xmlns:xlink="http://www.w3.org/1999/xlink">
<g id="graph0" class="graph" transform="scale(1 1) rotate(0) translate(4 437)">
<title>HotkeyLib.KeyCombo</title>
<!-- Node1 -->
<g id="node1" class="node">
<title>Node1</title>
<g id="a_node1"><a xlink:title="Represents a combination of one keyboard key and any number of modifier keys.">
<polygon fill="#bfbfbf" stroke="black" points="6,-0.5 6,-178.5 127,-178.5 127,-0.5 6,-0.5"/>
<text text-anchor="middle" x="66.5" y="-166.5" font-family="Helvetica,sans-Serif" font-size="10.00">HotkeyLib.KeyCombo</text>
<polyline fill="none" stroke="black" points="6,-159.5 127,-159.5 "/>
<text text-anchor="start" x="14" y="-147.5" font-family="Helvetica,sans-Serif" font-size="10.00">+ Valid</text>
<text text-anchor="start" x="14" y="-136.5" font-family="Helvetica,sans-Serif" font-size="10.00">+ Key</text>
<text text-anchor="start" x="14" y="-125.5" font-family="Helvetica,sans-Serif" font-size="10.00">+ Mod</text>
<text text-anchor="start" x="14" y="-114.5" font-family="Helvetica,sans-Serif" font-size="10.00">+ Alt</text>
<text text-anchor="start" x="14" y="-103.5" font-family="Helvetica,sans-Serif" font-size="10.00">+ Ctrl</text>
<text text-anchor="start" x="14" y="-92.5" font-family="Helvetica,sans-Serif" font-size="10.00">+ Shift</text>
<text text-anchor="start" x="14" y="-81.5" font-family="Helvetica,sans-Serif" font-size="10.00">+ Win</text>
<polyline fill="none" stroke="black" points="6,-74.5 127,-74.5 "/>
<text text-anchor="start" x="14" y="-62.5" font-family="Helvetica,sans-Serif" font-size="10.00">+ KeyCombo()</text>
<text text-anchor="start" x="14" y="-51.5" font-family="Helvetica,sans-Serif" font-size="10.00">+ KeyCombo()</text>
<text text-anchor="start" x="14" y="-40.5" font-family="Helvetica,sans-Serif" font-size="10.00">+ KeyCombo()</text>
<text text-anchor="start" x="14" y="-29.5" font-family="Helvetica,sans-Serif" font-size="10.00">+ ToString()</text>
<text text-anchor="start" x="14" y="-18.5" font-family="Helvetica,sans-Serif" font-size="10.00">+ Serialize()</text>
<text text-anchor="start" x="14" y="-7.5" font-family="Helvetica,sans-Serif" font-size="10.00">+ Parse()</text>
</a>
</g>
</g>
<!-- Node2 -->
<g id="node2" class="node">
<title>Node2</title>
<g id="a_node2"><a xlink:href="interface_hotkey_lib_1_1_i_key_combo.html" target="_top" xlink:title="Represents a combination of one keyboard key and any number of modifier keys.">
<polygon fill="none" stroke="black" points="30.5,-215.5 30.5,-338.5 102.5,-338.5 102.5,-215.5 30.5,-215.5"/>
<text text-anchor="middle" x="66.5" y="-326.5" font-family="Helvetica,sans-Serif" font-size="10.00">IKeyCombo</text>
<polyline fill="none" stroke="black" points="30.5,-319.5 102.5,-319.5 "/>
<text text-anchor="start" x="38.5" y="-307.5" font-family="Helvetica,sans-Serif" font-size="10.00">+ Key</text>
<text text-anchor="start" x="38.5" y="-296.5" font-family="Helvetica,sans-Serif" font-size="10.00">+ Mod</text>
<text text-anchor="start" x="38.5" y="-285.5" font-family="Helvetica,sans-Serif" font-size="10.00">+ Alt</text>
<text text-anchor="start" x="38.5" y="-274.5" font-family="Helvetica,sans-Serif" font-size="10.00">+ Ctrl</text>
<text text-anchor="start" x="38.5" y="-263.5" font-family="Helvetica,sans-Serif" font-size="10.00">+ Shift</text>
<text text-anchor="start" x="38.5" y="-252.5" font-family="Helvetica,sans-Serif" font-size="10.00">+ Win</text>
<text text-anchor="start" x="38.5" y="-241.5" font-family="Helvetica,sans-Serif" font-size="10.00">+ Valid</text>
<polyline fill="none" stroke="black" points="30.5,-234.5 102.5,-234.5 "/>
<text text-anchor="middle" x="66.5" y="-222.5" font-family="Helvetica,sans-Serif" font-size="10.00"> </text>
</a>
</g>
</g>
<!-- Node2&#45;&gt;Node1 -->
<g id="edge1" class="edge">
<title>Node2&#45;&gt;Node1</title>
<path fill="none" stroke="midnightblue" d="M66.5,-205.2C66.5,-196.51 66.5,-187.54 66.5,-178.63"/>
<polygon fill="none" stroke="midnightblue" points="63,-205.26 66.5,-215.26 70,-205.26 63,-205.26"/>
</g>
<!-- Node3 -->
<g id="node3" class="node">
<title>Node3</title>
<g id="a_node3"><a xlink:title=" ">
<polygon fill="none" stroke="#bfbfbf" points="0,-375.5 0,-432.5 133,-432.5 133,-375.5 0,-375.5"/>
<text text-anchor="middle" x="66.5" y="-420.5" font-family="Helvetica,sans-Serif" font-size="10.00">INotifyPropertyChanged</text>
<polyline fill="none" stroke="#bfbfbf" points="0,-413.5 133,-413.5 "/>
<text text-anchor="middle" x="66.5" y="-401.5" font-family="Helvetica,sans-Serif" font-size="10.00"> </text>
<polyline fill="none" stroke="#bfbfbf" points="0,-394.5 133,-394.5 "/>
<text text-anchor="middle" x="66.5" y="-382.5" font-family="Helvetica,sans-Serif" font-size="10.00"> </text>
</a>
</g>
</g>
<!-- Node3&#45;&gt;Node2 -->
<g id="edge2" class="edge">
<title>Node3&#45;&gt;Node2</title>
<path fill="none" stroke="midnightblue" d="M66.5,-365.1C66.5,-356.74 66.5,-347.68 66.5,-338.67"/>
<polygon fill="none" stroke="midnightblue" points="63,-365.26 66.5,-375.26 70,-365.26 63,-365.26"/>
</g>
</g>
</svg>
